<?xml version="1.0" encoding="utf-8"?>
<!-- Generator: Adobe Illustrator 16.0.0, SVG Export Plug-In . SVG Version: 6.00 Build 0)  -->
<!DOCTYPE svg PUBLIC "-//W3C//DTD SVG 1.1//EN" "http://www.w3.org/Graphics/SVG/1.1/DTD/svg11.dtd">
<svg version="1.1" id="图层_1" xmlns="http://www.w3.org/2000/svg" xmlns:xlink="http://www.w3.org/1999/xlink" x="0px" y="0px"
	 width="1277.29px" height="127.84px" viewBox="0 0 1277.29 127.84" enable-background="new 0 0 1277.29 127.84"
	 xml:space="preserve">
<g>
	<g>
		<rect x="0.851" y="0.85" fill="#E2E1E0" width="1275.59" height="126.143"/>
		<path fill="#1F2020" d="M1277.29,127.843H0V0h1277.29V127.843z M1.701,126.144h1273.89V1.7H1.701V126.144z"/>
	</g>
	<g>
		<rect x="1.752" y="93.86" fill="#BFBCBA" width="1273.833" height="33.133"/>
	</g>
	<g>
		<rect x="1.752" y="0.85" fill="#FFFFFF" width="1273.833" height="25.061"/>
	</g>
	<g>
		<path fill="#B74452" d="M118.466,88.037c-3.951,0-6.979-1.168-8.757-3.377c-1.742-2.164-2.208-5.166-1.385-8.921l3.748-9.168
			l0.128-0.085c0.077-0.051,1.907-1.249,4.094-1.249c1.472,0,2.746,0.535,3.788,1.59l0.201,0.204l-2.795,10.462
			c0.133,0.381,0.681,1.592,2.25,1.592c0.613,0,1.323-0.179,2.113-0.532l4.33-11.691l0.175-0.088
			c0.074-0.038,1.842-0.917,3.852-0.917c1.861,0,3.354,0.771,4.316,2.23l0.125,0.19l-3.489,12.374
			c-0.15,0.283-3.769,6.952-11.605,7.356C119.186,88.027,118.822,88.037,118.466,88.037z M112.877,67.243l-3.602,8.793
			c-0.729,3.362-0.329,6.08,1.213,7.997c1.729,2.148,4.901,3.184,9.015,2.977c6.943-0.358,10.43-6.22,10.75-6.784l3.309-11.771
			c-0.777-1.061-1.904-1.598-3.354-1.598c-1.438,0-2.768,0.525-3.229,0.73l-4.333,11.699l-0.184,0.087
			c-0.998,0.472-1.915,0.712-2.724,0.712c-2.093,0-3.044-1.61-3.255-2.462l-0.031-0.125l2.714-10.163
			c-0.807-0.729-1.772-1.098-2.872-1.098C114.706,66.237,113.295,66.996,112.877,67.243z"/>
	</g>
	<g>
		<path fill="#B74452" d="M137.923,88.066c-0.204,0-0.415-0.011-0.635-0.033c-1.389-0.137-2.419-0.667-3.065-1.575
			c-1.105-1.556-0.624-3.627-0.603-3.715l4.214-15.028l0.083-0.089c0.079-0.084,1.962-2.051,5.126-2.051
			c1.484,0,3.004,0.437,4.522,1.299c0.584-0.165,2.265-0.588,4.176-0.588c4.187,0,6.679,1.974,7.207,5.709l0.012,0.088l-3.134,14.63
			l-0.172,0.112c-0.071,0.047-1.758,1.138-3.706,1.138c-1.687,0-3.074-0.831-4.012-2.403l-0.103-0.172l2.71-11.771
			c-0.497-0.198-1.457-0.517-2.497-0.517c-1.671,0-2.886,0.815-3.613,2.424l-1.565,8.296
			C142.864,83.861,142.033,88.066,137.923,88.066z M134.588,82.995c0,0-0.389,1.708,0.454,2.888c0.471,0.659,1.26,1.048,2.345,1.156
			c3.73,0.354,4.474-3.257,4.502-3.404l1.61-8.462c1.119-2.539,3.092-3.072,4.551-3.072c1.749,0,3.241,0.747,3.303,0.778
			l0.349,0.178l-2.8,12.158c0.75,1.16,1.774,1.748,3.048,1.748c1.32,0,2.549-0.624,2.988-0.873l3.008-14.041
			c-0.48-3.16-2.567-4.763-6.204-4.763c-2.17,0-4.069,0.599-4.088,0.605l-0.214,0.068l-0.193-0.114
			c-1.425-0.843-2.839-1.271-4.204-1.271c-2.396,0-3.954,1.315-4.316,1.655L134.588,82.995L134.588,82.995z"/>
	</g>
	<g>
		<path fill="#B74452" d="M170.815,65.24l-0.169-0.004c-1.783-0.081-3.233-0.813-4.084-2.062c-0.93-1.364-1.067-3.217-0.385-5.218
			l0.046-0.099c0.068-0.113,1.711-2.767,4.382-2.767c0.966,0,1.936,0.353,2.882,1.048c1.802,1.323,2.464,3.375,1.772,5.487
			C174.561,63.754,172.734,65.24,170.815,65.24z M167.104,58.335c-0.557,1.674-0.457,3.19,0.284,4.276
			c0.669,0.982,1.843,1.56,3.304,1.626l0.123,0.003c1.468,0,2.938-1.23,3.493-2.926c0.265-0.807,0.657-2.85-1.414-4.37
			c-0.771-0.566-1.542-0.854-2.29-0.854C168.652,56.091,167.309,58.022,167.104,58.335z"/>
	</g>
	<g>
		<path fill="#B74452" d="M164.521,87.571c-1.461,0-2.736-0.715-3.788-2.127l-0.143-0.191l4.28-16.798l0.148-0.106
			c0.065-0.046,1.602-1.133,3.447-1.133c1.133,0,2.741,0.428,3.971,2.464l0.103,0.171l-3.423,15.544l-0.102,0.103
			C168.931,85.582,166.932,87.571,164.521,87.571z M161.679,85.032c0.821,1.021,1.777,1.539,2.842,1.539
			c1.727,0,3.281-1.314,3.683-1.683l3.272-14.858c-0.78-1.204-1.792-1.814-3.01-1.814c-1.234,0-2.334,0.61-2.719,0.851
			L161.679,85.032z"/>
	</g>
	<g>
		<path stroke="#000000" stroke-width="2" stroke-miterlimit="10" d="M181.269,87.558l5.241-29.721h3.559l-5.241,29.721H181.269z"/>
		<path stroke="#000000" stroke-width="2" stroke-miterlimit="10" d="M196.808,68.874c2.217-1.246,4.633-1.869,7.248-1.869
			c4.841,0,6.814,2.543,5.917,7.627l-2.279,12.926h-3.522l0.547-3.104h-0.091c-1.813,2.385-4.075,3.576-6.786,3.576
			c-1.949,0-3.405-0.527-4.369-1.58c-0.965-1.053-1.289-2.475-0.973-4.266c0.662-3.752,3.269-5.938,7.82-6.555l6.103-0.836
			c0.579-3.279-0.488-4.92-3.2-4.92c-2.409,0-4.749,0.811-7.02,2.434L196.808,68.874z M201.134,78.116
			c-1.685,0.219-2.892,0.631-3.622,1.236c-0.73,0.604-1.191,1.451-1.383,2.541c-0.169,0.957,0.032,1.736,0.604,2.342
			c0.571,0.605,1.413,0.908,2.527,0.908c1.549,0,2.922-0.545,4.119-1.635c1.197-1.088,1.94-2.457,2.231-4.104l0.339-1.924
			L201.134,78.116z"/>
		<path stroke="#000000" stroke-width="2" stroke-miterlimit="10" d="M232.431,87.558h-3.541l2.014-11.42
			c0.728-4.127-0.415-6.191-3.429-6.191c-1.562,0-2.947,0.58-4.157,1.744c-1.209,1.162-1.971,2.631-2.285,4.41l-2.02,11.457h-3.559
			l3.541-20.08h3.559l-0.586,3.322h0.072c1.959-2.529,4.379-3.795,7.26-3.795c2.203,0,3.755,0.705,4.656,2.115
			c0.901,1.41,1.114,3.465,0.638,6.164L232.431,87.558z"/>
	</g>
	<g>
		<path fill="#444444" d="M968.891,57.649h0.562h2.868c1.061,0,1.838,0.377,2.33,1.133c0.494,0.755,0.629,1.771,0.404,3.047
			c-0.225,1.272-0.725,2.285-1.499,3.04c-0.774,0.752-1.708,1.129-2.798,1.129h-2.777h-0.563L968.891,57.649z M968.719,65.032h2.067
			c0.81,0,1.484-0.277,2.024-0.835c0.539-0.557,0.898-1.346,1.079-2.368c0.181-1.026,0.108-1.817-0.218-2.377
			c-0.324-0.559-0.878-0.837-1.658-0.837h-2.163L968.719,65.032z"/>
		<path fill="#444444" d="M977.785,66.161c-0.594,0-1.038-0.158-1.33-0.477c-0.293-0.318-0.391-0.746-0.295-1.289
			c0.096-0.545,0.336-0.979,0.721-1.301c0.384-0.321,0.897-0.522,1.54-0.603l1.423-0.176c0.115-0.012,0.227-0.029,0.334-0.057
			c0.138-0.033,0.252-0.102,0.342-0.204s0.148-0.231,0.176-0.387l0.01-0.051c0.057-0.326-0.021-0.581-0.234-0.765
			c-0.214-0.183-0.541-0.274-0.98-0.274c-0.42,0-0.766,0.097-1.036,0.292s-0.466,0.485-0.583,0.872h-0.942
			c0.167-0.666,0.489-1.167,0.97-1.502c0.479-0.336,1.11-0.503,1.895-0.503c0.738,0,1.271,0.159,1.602,0.479s0.441,0.787,0.333,1.4
			l-0.589,3.339c-0.019,0.104-0.002,0.184,0.05,0.246s0.13,0.096,0.236,0.096c0.03,0,0.075-0.004,0.136-0.012
			c0.06-0.008,0.125-0.02,0.195-0.035l-0.13,0.738c-0.104,0.037-0.214,0.068-0.328,0.092c-0.114,0.021-0.209,0.033-0.284,0.033
			c-0.387,0-0.647-0.105-0.785-0.318c-0.089-0.139-0.135-0.338-0.139-0.596c-0.092,0.096-0.195,0.186-0.309,0.273
			C979.188,65.933,978.523,66.161,977.785,66.161z M980.357,63.589l0.116-0.659c-0.206,0.091-0.427,0.153-0.663,0.188l-0.962,0.137
			c-0.504,0.067-0.884,0.183-1.14,0.344c-0.256,0.16-0.407,0.38-0.456,0.655c-0.06,0.341-0.015,0.603,0.14,0.787
			c0.152,0.184,0.399,0.275,0.74,0.275c0.538,0,1.018-0.145,1.44-0.436c0.29-0.206,0.499-0.437,0.628-0.694
			c0.023-0.05,0.049-0.127,0.075-0.233C980.307,63.843,980.334,63.722,980.357,63.589z"/>
		<path fill="#444444" d="M985.496,65.991c-0.357,0.053-0.616,0.08-0.775,0.08c-0.446,0-0.744-0.1-0.894-0.295
			c-0.148-0.197-0.181-0.535-0.097-1.016l0.707-4.005h-0.841l0.147-0.835h0.84l0.301-1.704h1.022l-0.3,1.704h0.959l-0.147,0.835
			h-0.959l-0.706,4.005c-0.024,0.135,0.01,0.244,0.104,0.322c0.094,0.08,0.231,0.119,0.413,0.119h0.363L985.496,65.991z"/>
		<path fill="#444444" d="M988.212,65.997l-0.655-6.077h0.562h0.562l0.314,4.84h-0.001l2.04-4.84h0.568h0.567l0.362,4.874h0.001
			l2.092-4.874h0.505h0.51l-2.792,6.077h-0.546h-0.551l-0.419-4.748h0.001l-2.023,4.748h-0.545H988.212z"/>
		<path fill="#444444" d="M998.641,66.196c-0.521,0.936-0.945,1.547-1.273,1.834c-0.33,0.287-0.772,0.432-1.329,0.432
			c-0.183,0.004-0.344-0.018-0.483-0.063l0.168-0.947c0.145,0.057,0.334,0.088,0.568,0.092c0.23,0,0.44-0.096,0.629-0.285
			c0.189-0.189,0.428-0.543,0.716-1.061l0.034-0.098v-0.002l-1.165-6.178h0.581h0.586l0.736,5.026l2.531-5.026h0.557h0.563
			L998.641,66.196z"/>
		<path fill="#444444" d="M1003.95,57.649h0.511h0.512l-1.473,8.348h-0.512h-0.51L1003.95,57.649z"/>
		<path fill="#444444" d="M1008.068,66.161c-0.859,0-1.487-0.271-1.883-0.816c-0.396-0.545-0.51-1.299-0.34-2.261
			c0.18-1.022,0.584-1.835,1.211-2.439c0.627-0.604,1.38-0.905,2.258-0.905c0.796,0,1.385,0.295,1.77,0.886
			c0.385,0.59,0.492,1.367,0.322,2.329l-0.076,0.363h-4.439c-0.065,0.606-0.008,1.067,0.17,1.385c0.22,0.387,0.641,0.58,1.261,0.58
			c0.39,0,0.749-0.109,1.08-0.33c0.329-0.219,0.558-0.5,0.682-0.84h1.011c-0.269,0.667-0.662,1.174-1.178,1.526
			C1009.4,65.987,1008.784,66.161,1008.068,66.161z M1010.422,62.493c0.069-0.563,0.006-1.003-0.188-1.317
			c-0.216-0.348-0.59-0.522-1.125-0.522c-0.537,0-1.002,0.201-1.395,0.603c-0.31,0.314-0.535,0.727-0.679,1.237H1010.422z"/>
		<path fill="#444444" d="M1013.886,59.92h0.483h0.488l-0.184,1.04c0.115-0.164,0.234-0.312,0.356-0.443
			c0.478-0.519,0.998-0.778,1.563-0.778c0.095,0,0.188,0.018,0.28,0.051l-0.184,1.045l-0.209-0.005c-0.553,0-1.01,0.165-1.369,0.497
			c-0.359,0.331-0.593,0.803-0.701,1.416l-0.574,3.254h-0.511h-0.511L1013.886,59.92z"/>
		<path fill="#444444" d="M1028.649,62.924c-0.325,1.03-0.862,1.838-1.611,2.422c-0.749,0.586-1.617,0.877-2.605,0.877
			c-1.151,0-1.998-0.395-2.542-1.189c-0.543-0.792-0.697-1.861-0.459-3.206c0.236-1.344,0.78-2.415,1.631-3.211
			c0.851-0.798,1.873-1.196,3.07-1.196c0.942,0,1.674,0.243,2.195,0.727c0.52,0.484,0.766,1.153,0.736,2.005h-1.09
			c-0.009-0.553-0.19-0.979-0.544-1.281c-0.354-0.301-0.852-0.45-1.491-0.45c-0.837,0-1.558,0.308-2.162,0.923
			c-0.604,0.614-0.998,1.443-1.182,2.484c-0.195,1.105-0.113,1.948,0.244,2.527c0.357,0.581,0.975,0.87,1.849,0.87
			c0.647,0,1.221-0.201,1.719-0.599c0.499-0.4,0.882-0.967,1.151-1.702H1028.649z"/>
		<path fill="#444444" d="M1031.494,66.161c-0.594,0-1.037-0.158-1.33-0.477c-0.292-0.318-0.391-0.746-0.295-1.289
			c0.097-0.545,0.336-0.979,0.721-1.301c0.385-0.321,0.898-0.522,1.541-0.603l1.422-0.176c0.115-0.012,0.227-0.029,0.334-0.057
			c0.139-0.033,0.252-0.102,0.343-0.204c0.09-0.103,0.148-0.231,0.176-0.387l0.009-0.051c0.058-0.326-0.021-0.581-0.234-0.765
			c-0.213-0.183-0.54-0.274-0.979-0.274c-0.42,0-0.766,0.097-1.037,0.292c-0.271,0.195-0.465,0.485-0.582,0.872h-0.943
			c0.167-0.666,0.49-1.167,0.97-1.502c0.479-0.336,1.11-0.503,1.895-0.503c0.738,0,1.272,0.159,1.602,0.479
			c0.33,0.32,0.441,0.787,0.333,1.4l-0.589,3.339c-0.018,0.104-0.001,0.184,0.051,0.246c0.051,0.063,0.13,0.096,0.235,0.096
			c0.03,0,0.075-0.004,0.136-0.012s0.126-0.02,0.196-0.035l-0.13,0.738c-0.105,0.037-0.215,0.068-0.329,0.092
			c-0.113,0.021-0.208,0.033-0.284,0.033c-0.387,0-0.647-0.105-0.784-0.318c-0.089-0.139-0.136-0.338-0.139-0.596
			c-0.093,0.096-0.196,0.186-0.31,0.273C1032.898,65.933,1032.232,66.161,1031.494,66.161z M1034.066,63.589l0.117-0.659
			c-0.206,0.091-0.427,0.153-0.664,0.188l-0.961,0.137c-0.505,0.067-0.885,0.183-1.141,0.344c-0.255,0.16-0.406,0.38-0.455,0.655
			c-0.061,0.341-0.015,0.603,0.139,0.787s0.4,0.275,0.741,0.275c0.537,0,1.018-0.145,1.44-0.436
			c0.289-0.206,0.499-0.437,0.627-0.694c0.023-0.05,0.049-0.127,0.076-0.233C1034.016,63.843,1034.043,63.722,1034.066,63.589z"/>
		<path fill="#444444" d="M1038.365,57.649h0.512h0.511l-0.54,3.061c0.563-0.654,1.197-0.979,1.904-0.971
			c0.795,0,1.376,0.272,1.743,0.82c0.368,0.547,0.47,1.287,0.305,2.219c-0.187,1.056-0.565,1.884-1.14,2.485
			c-0.573,0.6-1.274,0.898-2.104,0.898c-0.686,0-1.185-0.262-1.496-0.789l-0.075-0.125l-0.132,0.75h-0.961L1038.365,57.649z
			 M1039.662,65.276c0.533,0,0.975-0.201,1.321-0.605c0.348-0.403,0.589-0.99,0.726-1.764c0.135-0.761,0.102-1.324-0.1-1.69
			c-0.201-0.364-0.577-0.547-1.13-0.547c-0.564,0-1.013,0.206-1.345,0.618c-0.332,0.413-0.577,1.066-0.734,1.96
			c-0.114,0.647-0.063,1.147,0.156,1.5C1038.773,65.101,1039.143,65.276,1039.662,65.276z"/>
		<path fill="#444444" d="M1045.518,57.649h0.512h0.511l-1.472,8.348h-0.512h-0.511L1045.518,57.649z"/>
		<path fill="#444444" d="M1049.637,66.161c-0.859,0-1.488-0.271-1.884-0.816s-0.509-1.299-0.339-2.261
			c0.18-1.022,0.583-1.835,1.21-2.439c0.627-0.604,1.38-0.905,2.259-0.905c0.795,0,1.385,0.295,1.77,0.886
			c0.384,0.59,0.491,1.367,0.321,2.329l-0.076,0.363h-4.438c-0.065,0.606-0.009,1.067,0.17,1.385c0.22,0.387,0.64,0.58,1.26,0.58
			c0.391,0,0.75-0.109,1.08-0.33c0.33-0.219,0.558-0.5,0.682-0.84h1.012c-0.27,0.667-0.662,1.174-1.178,1.526
			C1050.968,65.987,1050.352,66.161,1049.637,66.161z M1051.99,62.493c0.068-0.563,0.006-1.003-0.188-1.317
			c-0.215-0.348-0.59-0.522-1.124-0.522c-0.537,0-1.002,0.201-1.396,0.603c-0.31,0.314-0.535,0.727-0.679,1.237H1051.99z"/>
		<path fill="#444444" d="M1058.481,61.681c0.028-0.338-0.063-0.598-0.274-0.783c-0.211-0.187-0.523-0.279-0.936-0.279
			c-0.425,0-0.761,0.074-1.009,0.222c-0.247,0.147-0.396,0.364-0.446,0.647c-0.038,0.216,0.011,0.379,0.146,0.488
			c0.137,0.11,0.426,0.22,0.868,0.329l1.013,0.25c0.565,0.145,0.953,0.344,1.162,0.597c0.207,0.25,0.27,0.6,0.19,1.051
			c-0.106,0.603-0.407,1.08-0.902,1.431c-0.496,0.352-1.112,0.527-1.851,0.527c-0.856,0-1.465-0.168-1.825-0.508
			c-0.36-0.338-0.499-0.871-0.417-1.598h0.982c-0.026,0.432,0.07,0.745,0.293,0.938c0.222,0.191,0.596,0.289,1.122,0.289
			c0.458,0,0.821-0.088,1.089-0.262s0.431-0.428,0.489-0.761c0.038-0.212-0.012-0.373-0.147-0.482
			c-0.137-0.109-0.429-0.22-0.879-0.33l-1.014-0.249c-0.547-0.137-0.92-0.328-1.119-0.574c-0.201-0.242-0.262-0.583-0.184-1.022
			c0.1-0.571,0.383-1.024,0.85-1.359c0.466-0.336,1.047-0.503,1.744-0.503c0.707,0,1.24,0.172,1.598,0.517s0.496,0.82,0.416,1.426
			H1058.481z"/>
	</g>
	<g>
		<polygon fill="#A82A24" points="1056.753,79.661 964.253,79.661 965.751,71.161 1058.251,71.161 		"/>
	</g>
</g>
</svg>
