<?xml version="1.0" encoding="utf-8"?>
<!-- Generator: Adobe Illustrator 16.0.0, SVG Export Plug-In . SVG Version: 6.00 Build 0)  -->
<!DOCTYPE svg PUBLIC "-//W3C//DTD SVG 1.1//EN" "http://www.w3.org/Graphics/SVG/1.1/DTD/svg11.dtd">
<svg version="1.1" id="图层_1" xmlns="http://www.w3.org/2000/svg" xmlns:xlink="http://www.w3.org/1999/xlink" x="0px" y="0px"
	 width="1417.32px" height="1008px" viewBox="0 0 1417.32 1008" enable-background="new 0 0 1417.32 1008" xml:space="preserve">
<linearGradient id="XMLID_4_" gradientUnits="userSpaceOnUse" x1="-726.3398" y1="1109.5996" x2="-655.4736" y2="1109.5996" gradientTransform="matrix(1 0 0 -1 726.3398 1613.5996)">
	<stop  offset="0" style="stop-color:#343537"/>
	<stop  offset="1" style="stop-color:#191919"/>
</linearGradient>
<rect id="XMLID_10_" fill="url(#XMLID_4_)" width="70.866" height="1008"/>
<linearGradient id="XMLID_5_" gradientUnits="userSpaceOnUse" x1="9058.9648" y1="1109.5996" x2="9129.8281" y2="1109.5996" gradientTransform="matrix(-1 0 0 -1 10476.2871 1613.5996)">
	<stop  offset="0" style="stop-color:#343537"/>
	<stop  offset="1" style="stop-color:#191919"/>
</linearGradient>
<rect id="XMLID_1_" x="1346.458" fill="url(#XMLID_5_)" width="70.865" height="1008"/>
<g id="XMLID_196_">
	<g id="XMLID_39_">
		<g>
			<g>
				<g>
					<defs>
						<polygon id="SVGID_1_" points="2.996,380.976 3.994,380.976 2.996,381.969 						"/>
					</defs>
					<clipPath id="SVGID_2_">
						<use xlink:href="#SVGID_1_"  overflow="visible"/>
					</clipPath>
				</g>
				<g>
					<defs>
						<polygon id="SVGID_3_" points="2.996,380.976 3.994,380.976 2.996,381.969 						"/>
					</defs>
					<defs>
						<polygon id="SVGID_4_" points="0.999,378.992 0,378.992 0.999,378 						"/>
					</defs>
					<clipPath id="SVGID_5_">
						<use xlink:href="#SVGID_3_"  overflow="visible"/>
					</clipPath>
					<clipPath id="SVGID_6_" clip-path="url(#SVGID_5_)">
						<use xlink:href="#SVGID_4_"  overflow="visible"/>
					</clipPath>
					
						<linearGradient id="XMLID_6_" gradientUnits="userSpaceOnUse" x1="-692.5923" y1="1111.0801" x2="-671.4421" y2="1111.0801" gradientTransform="matrix(1 0 0 -1 726.3398 1614.0391)">
						<stop  offset="0" style="stop-color:#FFFFFF"/>
						<stop  offset="0.1901" style="stop-color:#FCFCFC"/>
						<stop  offset="0.3236" style="stop-color:#F3F3F3"/>
						<stop  offset="0.4397" style="stop-color:#E3E3E3"/>
						<stop  offset="0.5461" style="stop-color:#CDCDCD"/>
						<stop  offset="0.6456" style="stop-color:#B1B1B1"/>
						<stop  offset="0.7402" style="stop-color:#8E8E8E"/>
						<stop  offset="0.8309" style="stop-color:#656565"/>
						<stop  offset="0.9161" style="stop-color:#363636"/>
						<stop  offset="0.9985" style="stop-color:#010101"/>
						<stop  offset="1" style="stop-color:#000000"/>
					</linearGradient>
					
						<rect id="XMLID_41_" x="33.451" y="431.575" clip-path="url(#SVGID_6_)" fill="url(#XMLID_6_)" width="22.068" height="142.767"/>
				</g>
			</g>
		</g>
	</g>
	
		<linearGradient id="XMLID_7_" gradientUnits="userSpaceOnUse" x1="-692.5923" y1="1111.0801" x2="-671.4421" y2="1111.0801" gradientTransform="matrix(1 0 0 -1 726.3398 1614.0391)">
		<stop  offset="0" style="stop-color:#040000"/>
		<stop  offset="0.448" style="stop-color:#060303"/>
		<stop  offset="0.7621" style="stop-color:#0E0C0C"/>
		<stop  offset="1" style="stop-color:#191919"/>
	</linearGradient>
	<rect id="XMLID_212_" x="33.451" y="431.575" fill="url(#XMLID_7_)" width="22.068" height="142.767"/>
	<g id="XMLID_198_">
		
			<linearGradient id="XMLID_8_" gradientUnits="userSpaceOnUse" x1="-674.9727" y1="1184.8652" x2="-696.522" y2="1176.2455" gradientTransform="matrix(1 0 0 -1 726.3398 1614.0391)">
			<stop  offset="0" style="stop-color:#E1E0DF"/>
			<stop  offset="1" style="stop-color:#666666"/>
		</linearGradient>
		<path id="XMLID_204_" fill="url(#XMLID_8_)" d="M28.159,426.416l3.495-0.099c1.797,0,3.994,0.298,5.792,0.693l8.687,2.282
			c2.297,0.595,3.894,2.679,3.894,4.961v1.886c0,5.158-4.693,9.027-9.786,8.234L27.46,442.19L28.159,426.416z"/>
		
			<linearGradient id="XMLID_9_" gradientUnits="userSpaceOnUse" x1="-2812.8438" y1="-558.1875" x2="-2797.9048" y2="-558.1875" gradientTransform="matrix(-1 0 0 1 -2760.4199 1132.5176)">
			<stop  offset="0" style="stop-color:#E1E0DF"/>
			<stop  offset="1" style="stop-color:#666666"/>
		</linearGradient>
		<path id="XMLID_202_" fill="url(#XMLID_9_)" d="M43.536,581.088l-5.192,1.389c-2.996,0.793-6.091,1.191-9.187,1.191l0,0
			l-1.698-15.775l14.678-2.777c4.094-0.795,7.988,2.381,7.988,6.547v0.992C50.027,576.623,47.331,580.096,43.536,581.088z"/>
		
			<linearGradient id="XMLID_11_" gradientUnits="userSpaceOnUse" x1="-707.0996" y1="1109.0967" x2="-687.3814" y2="1109.0967" gradientTransform="matrix(1 0 0 -1 726.3398 1614.0391)">
			<stop  offset="0" style="stop-color:#CCCDCD"/>
			<stop  offset="0.4731" style="stop-color:#E1E0DF"/>
			<stop  offset="1" style="stop-color:#666666"/>
		</linearGradient>
		<path id="XMLID_3_" fill="url(#XMLID_11_)" d="M29.057,583.668L29.057,583.668c-5.492,0-9.886-4.365-9.886-9.822V436.039
			c0-5.457,4.394-9.822,9.886-9.822l0,0c5.492,0,9.886,4.365,9.886,9.822v137.805C38.943,579.301,34.549,583.668,29.057,583.668z"/>
	</g>
</g>
<g id="XMLID_110_">
	<g id="XMLID_111_">
		<g id="XMLID_24_">
			<g>
				<g>
					<g>
						<defs>
							<polygon id="SVGID_7_" points="2.996,380.976 3.994,380.976 2.996,381.969 							"/>
						</defs>
						<clipPath id="SVGID_8_">
							<use xlink:href="#SVGID_7_"  overflow="visible"/>
						</clipPath>
					</g>
					<g>
						<defs>
							<polygon id="SVGID_9_" points="2.996,380.976 3.994,380.976 2.996,381.969 							"/>
						</defs>
						<defs>
							<polygon id="SVGID_10_" points="0.999,378.992 0,378.992 0.999,378 							"/>
						</defs>
						<clipPath id="SVGID_11_">
							<use xlink:href="#SVGID_9_"  overflow="visible"/>
						</clipPath>
						<clipPath id="SVGID_12_" clip-path="url(#SVGID_11_)">
							<use xlink:href="#SVGID_10_"  overflow="visible"/>
						</clipPath>
						
							<linearGradient id="XMLID_12_" gradientUnits="userSpaceOnUse" x1="3346.8467" y1="1111.0801" x2="3367.9958" y2="1111.0801" gradientTransform="matrix(-1 0 0 -1 4732.3418 1614.0391)">
							<stop  offset="0" style="stop-color:#FFFFFF"/>
							<stop  offset="0.1901" style="stop-color:#FCFCFC"/>
							<stop  offset="0.3236" style="stop-color:#F3F3F3"/>
							<stop  offset="0.4397" style="stop-color:#E3E3E3"/>
							<stop  offset="0.5461" style="stop-color:#CDCDCD"/>
							<stop  offset="0.6456" style="stop-color:#B1B1B1"/>
							<stop  offset="0.7402" style="stop-color:#8E8E8E"/>
							<stop  offset="0.8309" style="stop-color:#656565"/>
							<stop  offset="0.9161" style="stop-color:#363636"/>
							<stop  offset="0.9985" style="stop-color:#010101"/>
							<stop  offset="1" style="stop-color:#000000"/>
						</linearGradient>
						
							<rect id="XMLID_28_" x="1363.702" y="431.575" clip-path="url(#SVGID_12_)" fill="url(#XMLID_12_)" width="22.068" height="142.767"/>
					</g>
				</g>
			</g>
		</g>
		
			<linearGradient id="XMLID_13_" gradientUnits="userSpaceOnUse" x1="3346.8467" y1="1111.0801" x2="3367.9958" y2="1111.0801" gradientTransform="matrix(-1 0 0 -1 4732.3418 1614.0391)">
			<stop  offset="0" style="stop-color:#040000"/>
			<stop  offset="0.448" style="stop-color:#060303"/>
			<stop  offset="0.7621" style="stop-color:#0E0C0C"/>
			<stop  offset="1" style="stop-color:#191919"/>
		</linearGradient>
		<rect id="XMLID_190_" x="1363.702" y="431.575" fill="url(#XMLID_13_)" width="22.068" height="142.767"/>
		<g id="XMLID_112_">
			
				<linearGradient id="XMLID_14_" gradientUnits="userSpaceOnUse" x1="3364.4668" y1="1184.8555" x2="3342.9175" y2="1176.2357" gradientTransform="matrix(-1 0 0 -1 4732.3418 1614.0391)">
				<stop  offset="0" style="stop-color:#E1E0DF"/>
				<stop  offset="1" style="stop-color:#666666"/>
			</linearGradient>
			<path id="XMLID_170_" fill="url(#XMLID_14_)" d="M1391.062,426.416l-3.494-0.099c-1.797,0-3.994,0.298-5.793,0.693l-8.688,2.282
				c-2.297,0.595-3.893,2.679-3.893,4.961v1.886c0,5.158,4.691,9.027,9.785,8.234l12.781-2.184L1391.062,426.416z"/>
			
				<linearGradient id="XMLID_15_" gradientUnits="userSpaceOnUse" x1="-6852.2817" y1="-558.1875" x2="-6837.3418" y2="-558.1875" gradientTransform="matrix(1 0 0 1 8219.1016 1132.5176)">
				<stop  offset="0" style="stop-color:#E1E0DF"/>
				<stop  offset="1" style="stop-color:#666666"/>
			</linearGradient>
			<path id="XMLID_119_" fill="url(#XMLID_15_)" d="M1375.784,581.088l5.193,1.389c2.996,0.793,6.09,1.191,9.186,1.191l0,0
				l1.697-15.775l-14.678-2.777c-4.094-0.795-7.988,2.381-7.988,6.547v0.992C1369.194,576.623,1371.89,580.096,1375.784,581.088z"/>
			
				<linearGradient id="XMLID_16_" gradientUnits="userSpaceOnUse" x1="3332.3389" y1="1109.0967" x2="3352.0559" y2="1109.0967" gradientTransform="matrix(-1 0 0 -1 4732.3418 1614.0391)">
				<stop  offset="0" style="stop-color:#CCCDCD"/>
				<stop  offset="0.4731" style="stop-color:#E1E0DF"/>
				<stop  offset="1" style="stop-color:#666666"/>
			</linearGradient>
			<path id="XMLID_114_" fill="url(#XMLID_16_)" d="M1390.163,583.668L1390.163,583.668c5.492,0,9.885-4.365,9.885-9.822V436.039
				c0-5.457-4.393-9.822-9.885-9.822l0,0c-5.492,0-9.885,4.365-9.885,9.822v137.805
				C1380.278,579.301,1384.671,583.668,1390.163,583.668z"/>
		</g>
	</g>
</g>
<path fill="#343537" d="M69.859,0v1008h1276.599V0H69.859z M1345.201,972.475H70.576V37.391h1274.625V972.475z"/>
</svg>
