<?xml version="1.0" encoding="utf-8"?>
<!-- Generator: Adobe Illustrator 16.0.0, SVG Export Plug-In . SVG Version: 6.00 Build 0)  -->
<!DOCTYPE svg PUBLIC "-//W3C//DTD SVG 1.1//EN" "http://www.w3.org/Graphics/SVG/1.1/DTD/svg11.dtd">
<svg version="1.1" id="图层_1" xmlns="http://www.w3.org/2000/svg" xmlns:xlink="http://www.w3.org/1999/xlink" x="0px" y="0px"
	 width="1275.59px" height="505px" viewBox="0 0 1275.59 505" enable-background="new 0 0 1275.59 505" xml:space="preserve">
<g>
	<rect x="0.5" y="0.5" fill="#333333" width="1275.59" height="504"/>
	<path fill="#030000" d="M1276.59,505H0V0h1276.59V505z M1,504h1274.59V1H1V504z"/>
</g>
<path fill="#333333" stroke="#030000" stroke-miterlimit="10" d="M647.127,468.492c0,1.566-1.27,2.836-2.834,2.836H100.991
	c-1.565,0-2.835-1.27-2.835-2.836V28.685c0-1.565,1.27-2.835,2.835-2.835h543.302c1.564,0,2.834,1.27,2.834,2.835V468.492z"/>
<path fill="#333333" stroke="#030000" stroke-miterlimit="10" d="M1178.102,468.492c0,1.566-1.27,2.836-2.836,2.836H675.461
	c-1.564,0-2.834-1.27-2.834-2.836V28.685c0-1.565,1.27-2.835,2.834-2.835h499.805c1.566,0,2.836,1.27,2.836,2.835V468.492z"/>
<rect x="63.434" y="0.5" fill="#020202" width="1.959" height="504"/>
<rect x="98.156" y="396.559" fill="#0C0C0C" width="548.971" height="1.959"/>
<rect x="1208.641" y="0.5" fill="#020202" width="1.959" height="504"/>
<path fill="#030000" d="M132.683,126.67c0,1.384-1.27,2.507-2.835,2.507h-0.33c-1.565,0-2.835-1.123-2.835-2.507V78.018
	c0-1.385,1.27-2.508,2.835-2.508h0.33c1.565,0,2.835,1.123,2.835,2.508V126.67z"/>
<path fill="#030000" d="M152.183,126.67c0,1.384-1.27,2.507-2.835,2.507h-0.33c-1.565,0-2.835-1.123-2.835-2.507V78.018
	c0-1.385,1.27-2.508,2.835-2.508h0.33c1.565,0,2.835,1.123,2.835,2.508V126.67z"/>
<path fill="#030000" d="M171.683,126.67c0,1.384-1.27,2.507-2.835,2.507h-0.33c-1.565,0-2.835-1.123-2.835-2.507V78.018
	c0-1.385,1.27-2.508,2.835-2.508h0.33c1.565,0,2.835,1.123,2.835,2.508V126.67z"/>
<path fill="#030000" d="M191.183,126.67c0,1.384-1.27,2.507-2.835,2.507h-0.33c-1.565,0-2.835-1.123-2.835-2.507V78.018
	c0-1.385,1.27-2.508,2.835-2.508h0.33c1.565,0,2.835,1.123,2.835,2.508V126.67z"/>
<path fill="#030000" d="M210.683,126.67c0,1.384-1.27,2.507-2.835,2.507h-0.33c-1.565,0-2.835-1.123-2.835-2.507V78.018
	c0-1.385,1.27-2.508,2.835-2.508h0.33c1.565,0,2.835,1.123,2.835,2.508V126.67z"/>
<path fill="#030000" d="M230.183,126.67c0,1.384-1.27,2.507-2.835,2.507h-0.33c-1.565,0-2.835-1.123-2.835-2.507V78.018
	c0-1.385,1.27-2.508,2.835-2.508h0.33c1.565,0,2.835,1.123,2.835,2.508V126.67z"/>
<path fill="#030000" d="M249.683,126.67c0,1.384-1.27,2.507-2.835,2.507h-0.33c-1.565,0-2.835-1.123-2.835-2.507V78.018
	c0-1.385,1.27-2.508,2.835-2.508h0.33c1.565,0,2.835,1.123,2.835,2.508V126.67z"/>
<path fill="#030000" d="M269.183,126.67c0,1.384-1.27,2.507-2.835,2.507h-0.33c-1.565,0-2.835-1.123-2.835-2.507V78.018
	c0-1.385,1.27-2.508,2.835-2.508h0.33c1.565,0,2.835,1.123,2.835,2.508V126.67z"/>
<path fill="#030000" d="M288.683,126.67c0,1.384-1.27,2.507-2.835,2.507h-0.33c-1.565,0-2.835-1.123-2.835-2.507V78.018
	c0-1.385,1.27-2.508,2.835-2.508h0.33c1.565,0,2.835,1.123,2.835,2.508V126.67z"/>
<path fill="#030000" d="M308.183,126.67c0,1.384-1.27,2.507-2.835,2.507h-0.33c-1.565,0-2.835-1.123-2.835-2.507V78.018
	c0-1.385,1.27-2.508,2.835-2.508h0.33c1.565,0,2.835,1.123,2.835,2.508V126.67z"/>
<path fill="#030000" d="M327.683,126.67c0,1.384-1.27,2.507-2.835,2.507h-0.33c-1.565,0-2.835-1.123-2.835-2.507V78.018
	c0-1.385,1.27-2.508,2.835-2.508h0.33c1.565,0,2.835,1.123,2.835,2.508V126.67z"/>
<path fill="#030000" d="M347.183,126.67c0,1.384-1.27,2.507-2.835,2.507h-0.33c-1.565,0-2.835-1.123-2.835-2.507V78.018
	c0-1.385,1.27-2.508,2.835-2.508h0.33c1.565,0,2.835,1.123,2.835,2.508V126.67z"/>
<path fill="#030000" d="M425.183,126.67c0,1.384-1.27,2.507-2.835,2.507h-0.33c-1.565,0-2.835-1.123-2.835-2.507V78.018
	c0-1.385,1.27-2.508,2.835-2.508h0.33c1.565,0,2.835,1.123,2.835,2.508V126.67z"/>
<path fill="#030000" d="M444.683,126.67c0,1.384-1.27,2.507-2.835,2.507h-0.33c-1.565,0-2.835-1.123-2.835-2.507V78.018
	c0-1.385,1.27-2.508,2.835-2.508h0.33c1.565,0,2.835,1.123,2.835,2.508V126.67z"/>
<path fill="#030000" d="M464.183,126.67c0,1.384-1.27,2.507-2.835,2.507h-0.33c-1.565,0-2.835-1.123-2.835-2.507V78.018
	c0-1.385,1.27-2.508,2.835-2.508h0.33c1.565,0,2.835,1.123,2.835,2.508V126.67z"/>
<path fill="#030000" d="M483.683,126.67c0,1.384-1.27,2.507-2.835,2.507h-0.33c-1.565,0-2.835-1.123-2.835-2.507V78.018
	c0-1.385,1.27-2.508,2.835-2.508h0.33c1.565,0,2.835,1.123,2.835,2.508V126.67z"/>
<path fill="#030000" d="M503.183,126.67c0,1.384-1.27,2.507-2.835,2.507h-0.33c-1.565,0-2.835-1.123-2.835-2.507V78.018
	c0-1.385,1.27-2.508,2.835-2.508h0.33c1.565,0,2.835,1.123,2.835,2.508V126.67z"/>
<path fill="#030000" d="M522.683,126.67c0,1.384-1.27,2.507-2.835,2.507h-0.33c-1.565,0-2.835-1.123-2.835-2.507V78.018
	c0-1.385,1.27-2.508,2.835-2.508h0.33c1.565,0,2.835,1.123,2.835,2.508V126.67z"/>
<path fill="#030000" d="M542.183,126.67c0,1.384-1.27,2.507-2.835,2.507h-0.33c-1.565,0-2.835-1.123-2.835-2.507V78.018
	c0-1.385,1.27-2.508,2.835-2.508h0.33c1.565,0,2.835,1.123,2.835,2.508V126.67z"/>
<path fill="#030000" d="M561.683,126.67c0,1.384-1.27,2.507-2.835,2.507h-0.33c-1.565,0-2.835-1.123-2.835-2.507V78.018
	c0-1.385,1.27-2.508,2.835-2.508h0.33c1.565,0,2.835,1.123,2.835,2.508V126.67z"/>
<path fill="#030000" d="M581.183,126.67c0,1.384-1.27,2.507-2.835,2.507h-0.33c-1.565,0-2.835-1.123-2.835-2.507V78.018
	c0-1.385,1.27-2.508,2.835-2.508h0.33c1.565,0,2.835,1.123,2.835,2.508V126.67z"/>
<path fill="#030000" d="M600.683,126.67c0,1.384-1.27,2.507-2.835,2.507h-0.33c-1.565,0-2.835-1.123-2.835-2.507V78.018
	c0-1.385,1.27-2.508,2.835-2.508h0.33c1.565,0,2.835,1.123,2.835,2.508V126.67z"/>
<path fill="#030000" d="M620.183,126.67c0,1.384-1.27,2.507-2.835,2.507h-0.33c-1.565,0-2.835-1.123-2.835-2.507V78.018
	c0-1.385,1.27-2.508,2.835-2.508h0.33c1.565,0,2.835,1.123,2.835,2.508V126.67z"/>
<path fill="#030000" d="M132.683,201.666c0,1.385-1.27,2.507-2.835,2.507h-0.33c-1.565,0-2.835-1.122-2.835-2.507v-48.653
	c0-1.384,1.27-2.506,2.835-2.506h0.33c1.565,0,2.835,1.122,2.835,2.506V201.666z"/>
<path fill="#030000" d="M152.183,201.666c0,1.385-1.27,2.507-2.835,2.507h-0.33c-1.565,0-2.835-1.122-2.835-2.507v-48.653
	c0-1.384,1.27-2.506,2.835-2.506h0.33c1.565,0,2.835,1.122,2.835,2.506V201.666z"/>
<path fill="#030000" d="M171.683,201.666c0,1.385-1.27,2.507-2.835,2.507h-0.33c-1.565,0-2.835-1.122-2.835-2.507v-48.653
	c0-1.384,1.27-2.506,2.835-2.506h0.33c1.565,0,2.835,1.122,2.835,2.506V201.666z"/>
<path fill="#030000" d="M191.183,201.666c0,1.385-1.27,2.507-2.835,2.507h-0.33c-1.565,0-2.835-1.122-2.835-2.507v-48.653
	c0-1.384,1.27-2.506,2.835-2.506h0.33c1.565,0,2.835,1.122,2.835,2.506V201.666z"/>
<path fill="#030000" d="M210.683,201.666c0,1.385-1.27,2.507-2.835,2.507h-0.33c-1.565,0-2.835-1.122-2.835-2.507v-48.653
	c0-1.384,1.27-2.506,2.835-2.506h0.33c1.565,0,2.835,1.122,2.835,2.506V201.666z"/>
<path fill="#030000" d="M230.183,201.666c0,1.385-1.27,2.507-2.835,2.507h-0.33c-1.565,0-2.835-1.122-2.835-2.507v-48.653
	c0-1.384,1.27-2.506,2.835-2.506h0.33c1.565,0,2.835,1.122,2.835,2.506V201.666z"/>
<path fill="#030000" d="M249.683,201.666c0,1.385-1.27,2.507-2.835,2.507h-0.33c-1.565,0-2.835-1.122-2.835-2.507v-48.653
	c0-1.384,1.27-2.506,2.835-2.506h0.33c1.565,0,2.835,1.122,2.835,2.506V201.666z"/>
<path fill="#030000" d="M269.183,201.666c0,1.385-1.27,2.507-2.835,2.507h-0.33c-1.565,0-2.835-1.122-2.835-2.507v-48.653
	c0-1.384,1.27-2.506,2.835-2.506h0.33c1.565,0,2.835,1.122,2.835,2.506V201.666z"/>
<path fill="#030000" d="M288.683,201.666c0,1.385-1.27,2.507-2.835,2.507h-0.33c-1.565,0-2.835-1.122-2.835-2.507v-48.653
	c0-1.384,1.27-2.506,2.835-2.506h0.33c1.565,0,2.835,1.122,2.835,2.506V201.666z"/>
<path fill="#030000" d="M308.183,201.666c0,1.385-1.27,2.507-2.835,2.507h-0.33c-1.565,0-2.835-1.122-2.835-2.507v-48.653
	c0-1.384,1.27-2.506,2.835-2.506h0.33c1.565,0,2.835,1.122,2.835,2.506V201.666z"/>
<path fill="#030000" d="M327.683,201.666c0,1.385-1.27,2.507-2.835,2.507h-0.33c-1.565,0-2.835-1.122-2.835-2.507v-48.653
	c0-1.384,1.27-2.506,2.835-2.506h0.33c1.565,0,2.835,1.122,2.835,2.506V201.666z"/>
<path fill="#030000" d="M347.183,201.666c0,1.385-1.27,2.507-2.835,2.507h-0.33c-1.565,0-2.835-1.122-2.835-2.507v-48.653
	c0-1.384,1.27-2.506,2.835-2.506h0.33c1.565,0,2.835,1.122,2.835,2.506V201.666z"/>
<path fill="#030000" d="M366.683,201.666c0,1.385-1.27,2.507-2.835,2.507h-0.33c-1.565,0-2.835-1.122-2.835-2.507v-48.653
	c0-1.384,1.27-2.506,2.835-2.506h0.33c1.565,0,2.835,1.122,2.835,2.506V201.666z"/>
<path fill="#030000" d="M386.183,201.666c0,1.385-1.27,2.507-2.835,2.507h-0.33c-1.565,0-2.835-1.122-2.835-2.507v-48.653
	c0-1.384,1.27-2.506,2.835-2.506h0.33c1.565,0,2.835,1.122,2.835,2.506V201.666z"/>
<path fill="#030000" d="M405.683,201.666c0,1.385-1.27,2.507-2.835,2.507h-0.33c-1.565,0-2.835-1.122-2.835-2.507v-48.653
	c0-1.384,1.27-2.506,2.835-2.506h0.33c1.565,0,2.835,1.122,2.835,2.506V201.666z"/>
<path fill="#030000" d="M425.183,201.666c0,1.385-1.27,2.507-2.835,2.507h-0.33c-1.565,0-2.835-1.122-2.835-2.507v-48.653
	c0-1.384,1.27-2.506,2.835-2.506h0.33c1.565,0,2.835,1.122,2.835,2.506V201.666z"/>
<path fill="#030000" d="M444.683,201.666c0,1.385-1.27,2.507-2.835,2.507h-0.33c-1.565,0-2.835-1.122-2.835-2.507v-48.653
	c0-1.384,1.27-2.506,2.835-2.506h0.33c1.565,0,2.835,1.122,2.835,2.506V201.666z"/>
<path fill="#030000" d="M464.183,201.666c0,1.385-1.27,2.507-2.835,2.507h-0.33c-1.565,0-2.835-1.122-2.835-2.507v-48.653
	c0-1.384,1.27-2.506,2.835-2.506h0.33c1.565,0,2.835,1.122,2.835,2.506V201.666z"/>
<path fill="#030000" d="M483.683,201.666c0,1.385-1.27,2.507-2.835,2.507h-0.33c-1.565,0-2.835-1.122-2.835-2.507v-48.653
	c0-1.384,1.27-2.506,2.835-2.506h0.33c1.565,0,2.835,1.122,2.835,2.506V201.666z"/>
<path fill="#030000" d="M503.183,201.666c0,1.385-1.27,2.507-2.835,2.507h-0.33c-1.565,0-2.835-1.122-2.835-2.507v-48.653
	c0-1.384,1.27-2.506,2.835-2.506h0.33c1.565,0,2.835,1.122,2.835,2.506V201.666z"/>
<path fill="#030000" d="M522.683,201.666c0,1.385-1.27,2.507-2.835,2.507h-0.33c-1.565,0-2.835-1.122-2.835-2.507v-48.653
	c0-1.384,1.27-2.506,2.835-2.506h0.33c1.565,0,2.835,1.122,2.835,2.506V201.666z"/>
<path fill="#030000" d="M542.183,201.666c0,1.385-1.27,2.507-2.835,2.507h-0.33c-1.565,0-2.835-1.122-2.835-2.507v-48.653
	c0-1.384,1.27-2.506,2.835-2.506h0.33c1.565,0,2.835,1.122,2.835,2.506V201.666z"/>
<path fill="#030000" d="M561.683,201.666c0,1.385-1.27,2.507-2.835,2.507h-0.33c-1.565,0-2.835-1.122-2.835-2.507v-48.653
	c0-1.384,1.27-2.506,2.835-2.506h0.33c1.565,0,2.835,1.122,2.835,2.506V201.666z"/>
<path fill="#030000" d="M581.183,201.666c0,1.385-1.27,2.507-2.835,2.507h-0.33c-1.565,0-2.835-1.122-2.835-2.507v-48.653
	c0-1.384,1.27-2.506,2.835-2.506h0.33c1.565,0,2.835,1.122,2.835,2.506V201.666z"/>
<path fill="#030000" d="M600.683,201.666c0,1.385-1.27,2.507-2.835,2.507h-0.33c-1.565,0-2.835-1.122-2.835-2.507v-48.653
	c0-1.384,1.27-2.506,2.835-2.506h0.33c1.565,0,2.835,1.122,2.835,2.506V201.666z"/>
<path fill="#030000" d="M620.183,201.666c0,1.385-1.27,2.507-2.835,2.507h-0.33c-1.565,0-2.835-1.122-2.835-2.507v-48.653
	c0-1.384,1.27-2.506,2.835-2.506h0.33c1.565,0,2.835,1.122,2.835,2.506V201.666z"/>
<path fill="#030000" d="M132.683,276.662c0,1.385-1.27,2.506-2.835,2.506h-0.33c-1.565,0-2.835-1.121-2.835-2.506V228.01
	c0-1.385,1.27-2.507,2.835-2.507h0.33c1.565,0,2.835,1.123,2.835,2.507V276.662z"/>
<path fill="#030000" d="M152.183,276.662c0,1.385-1.27,2.506-2.835,2.506h-0.33c-1.565,0-2.835-1.121-2.835-2.506V228.01
	c0-1.385,1.27-2.507,2.835-2.507h0.33c1.565,0,2.835,1.123,2.835,2.507V276.662z"/>
<path fill="#030000" d="M171.683,276.662c0,1.385-1.27,2.506-2.835,2.506h-0.33c-1.565,0-2.835-1.121-2.835-2.506V228.01
	c0-1.385,1.27-2.507,2.835-2.507h0.33c1.565,0,2.835,1.123,2.835,2.507V276.662z"/>
<path fill="#030000" d="M191.183,276.662c0,1.385-1.27,2.506-2.835,2.506h-0.33c-1.565,0-2.835-1.121-2.835-2.506V228.01
	c0-1.385,1.27-2.507,2.835-2.507h0.33c1.565,0,2.835,1.123,2.835,2.507V276.662z"/>
<path fill="#030000" d="M210.683,276.662c0,1.385-1.27,2.506-2.835,2.506h-0.33c-1.565,0-2.835-1.121-2.835-2.506V228.01
	c0-1.385,1.27-2.507,2.835-2.507h0.33c1.565,0,2.835,1.123,2.835,2.507V276.662z"/>
<path fill="#030000" d="M230.183,276.662c0,1.385-1.27,2.506-2.835,2.506h-0.33c-1.565,0-2.835-1.121-2.835-2.506V228.01
	c0-1.385,1.27-2.507,2.835-2.507h0.33c1.565,0,2.835,1.123,2.835,2.507V276.662z"/>
<path fill="#030000" d="M249.683,276.662c0,1.385-1.27,2.506-2.835,2.506h-0.33c-1.565,0-2.835-1.121-2.835-2.506V228.01
	c0-1.385,1.27-2.507,2.835-2.507h0.33c1.565,0,2.835,1.123,2.835,2.507V276.662z"/>
<path fill="#030000" d="M269.183,276.662c0,1.385-1.27,2.506-2.835,2.506h-0.33c-1.565,0-2.835-1.121-2.835-2.506V228.01
	c0-1.385,1.27-2.507,2.835-2.507h0.33c1.565,0,2.835,1.123,2.835,2.507V276.662z"/>
<path fill="#030000" d="M288.683,276.662c0,1.385-1.27,2.506-2.835,2.506h-0.33c-1.565,0-2.835-1.121-2.835-2.506V228.01
	c0-1.385,1.27-2.507,2.835-2.507h0.33c1.565,0,2.835,1.123,2.835,2.507V276.662z"/>
<path fill="#030000" d="M308.183,276.662c0,1.385-1.27,2.506-2.835,2.506h-0.33c-1.565,0-2.835-1.121-2.835-2.506V228.01
	c0-1.385,1.27-2.507,2.835-2.507h0.33c1.565,0,2.835,1.123,2.835,2.507V276.662z"/>
<path fill="#030000" d="M327.683,276.662c0,1.385-1.27,2.506-2.835,2.506h-0.33c-1.565,0-2.835-1.121-2.835-2.506V228.01
	c0-1.385,1.27-2.507,2.835-2.507h0.33c1.565,0,2.835,1.123,2.835,2.507V276.662z"/>
<path fill="#030000" d="M347.183,276.662c0,1.385-1.27,2.506-2.835,2.506h-0.33c-1.565,0-2.835-1.121-2.835-2.506V228.01
	c0-1.385,1.27-2.507,2.835-2.507h0.33c1.565,0,2.835,1.123,2.835,2.507V276.662z"/>
<path fill="#030000" d="M366.683,276.662c0,1.385-1.27,2.506-2.835,2.506h-0.33c-1.565,0-2.835-1.121-2.835-2.506V228.01
	c0-1.385,1.27-2.507,2.835-2.507h0.33c1.565,0,2.835,1.123,2.835,2.507V276.662z"/>
<path fill="#030000" d="M386.183,276.662c0,1.385-1.27,2.506-2.835,2.506h-0.33c-1.565,0-2.835-1.121-2.835-2.506V228.01
	c0-1.385,1.27-2.507,2.835-2.507h0.33c1.565,0,2.835,1.123,2.835,2.507V276.662z"/>
<path fill="#030000" d="M405.683,276.662c0,1.385-1.27,2.506-2.835,2.506h-0.33c-1.565,0-2.835-1.121-2.835-2.506V228.01
	c0-1.385,1.27-2.507,2.835-2.507h0.33c1.565,0,2.835,1.123,2.835,2.507V276.662z"/>
<path fill="#030000" d="M425.183,276.662c0,1.385-1.27,2.506-2.835,2.506h-0.33c-1.565,0-2.835-1.121-2.835-2.506V228.01
	c0-1.385,1.27-2.507,2.835-2.507h0.33c1.565,0,2.835,1.123,2.835,2.507V276.662z"/>
<path fill="#030000" d="M444.683,276.662c0,1.385-1.27,2.506-2.835,2.506h-0.33c-1.565,0-2.835-1.121-2.835-2.506V228.01
	c0-1.385,1.27-2.507,2.835-2.507h0.33c1.565,0,2.835,1.123,2.835,2.507V276.662z"/>
<path fill="#030000" d="M464.183,276.662c0,1.385-1.27,2.506-2.835,2.506h-0.33c-1.565,0-2.835-1.121-2.835-2.506V228.01
	c0-1.385,1.27-2.507,2.835-2.507h0.33c1.565,0,2.835,1.123,2.835,2.507V276.662z"/>
<path fill="#030000" d="M483.683,276.662c0,1.385-1.27,2.506-2.835,2.506h-0.33c-1.565,0-2.835-1.121-2.835-2.506V228.01
	c0-1.385,1.27-2.507,2.835-2.507h0.33c1.565,0,2.835,1.123,2.835,2.507V276.662z"/>
<path fill="#030000" d="M503.183,276.662c0,1.385-1.27,2.506-2.835,2.506h-0.33c-1.565,0-2.835-1.121-2.835-2.506V228.01
	c0-1.385,1.27-2.507,2.835-2.507h0.33c1.565,0,2.835,1.123,2.835,2.507V276.662z"/>
<path fill="#030000" d="M522.683,276.662c0,1.385-1.27,2.506-2.835,2.506h-0.33c-1.565,0-2.835-1.121-2.835-2.506V228.01
	c0-1.385,1.27-2.507,2.835-2.507h0.33c1.565,0,2.835,1.123,2.835,2.507V276.662z"/>
<path fill="#030000" d="M542.183,276.662c0,1.385-1.27,2.506-2.835,2.506h-0.33c-1.565,0-2.835-1.121-2.835-2.506V228.01
	c0-1.385,1.27-2.507,2.835-2.507h0.33c1.565,0,2.835,1.123,2.835,2.507V276.662z"/>
<path fill="#030000" d="M561.683,276.662c0,1.385-1.27,2.506-2.835,2.506h-0.33c-1.565,0-2.835-1.121-2.835-2.506V228.01
	c0-1.385,1.27-2.507,2.835-2.507h0.33c1.565,0,2.835,1.123,2.835,2.507V276.662z"/>
<path fill="#030000" d="M581.183,276.662c0,1.385-1.27,2.506-2.835,2.506h-0.33c-1.565,0-2.835-1.121-2.835-2.506V228.01
	c0-1.385,1.27-2.507,2.835-2.507h0.33c1.565,0,2.835,1.123,2.835,2.507V276.662z"/>
<path fill="#030000" d="M600.683,276.662c0,1.385-1.27,2.506-2.835,2.506h-0.33c-1.565,0-2.835-1.121-2.835-2.506V228.01
	c0-1.385,1.27-2.507,2.835-2.507h0.33c1.565,0,2.835,1.123,2.835,2.507V276.662z"/>
<path fill="#030000" d="M620.183,276.662c0,1.385-1.27,2.506-2.835,2.506h-0.33c-1.565,0-2.835-1.121-2.835-2.506V228.01
	c0-1.385,1.27-2.507,2.835-2.507h0.33c1.565,0,2.835,1.123,2.835,2.507V276.662z"/>
<path fill="#030000" d="M132.683,351.658c0,1.385-1.27,2.508-2.835,2.508h-0.33c-1.565,0-2.835-1.123-2.835-2.508v-48.652
	c0-1.385,1.27-2.508,2.835-2.508h0.33c1.565,0,2.835,1.123,2.835,2.508V351.658z"/>
<path fill="#030000" d="M152.183,351.658c0,1.385-1.27,2.508-2.835,2.508h-0.33c-1.565,0-2.835-1.123-2.835-2.508v-48.652
	c0-1.385,1.27-2.508,2.835-2.508h0.33c1.565,0,2.835,1.123,2.835,2.508V351.658z"/>
<path fill="#030000" d="M171.683,351.658c0,1.385-1.27,2.508-2.835,2.508h-0.33c-1.565,0-2.835-1.123-2.835-2.508v-48.652
	c0-1.385,1.27-2.508,2.835-2.508h0.33c1.565,0,2.835,1.123,2.835,2.508V351.658z"/>
<path fill="#030000" d="M191.183,351.658c0,1.385-1.27,2.508-2.835,2.508h-0.33c-1.565,0-2.835-1.123-2.835-2.508v-48.652
	c0-1.385,1.27-2.508,2.835-2.508h0.33c1.565,0,2.835,1.123,2.835,2.508V351.658z"/>
<path fill="#030000" d="M210.683,351.658c0,1.385-1.27,2.508-2.835,2.508h-0.33c-1.565,0-2.835-1.123-2.835-2.508v-48.652
	c0-1.385,1.27-2.508,2.835-2.508h0.33c1.565,0,2.835,1.123,2.835,2.508V351.658z"/>
<path fill="#030000" d="M230.183,351.658c0,1.385-1.27,2.508-2.835,2.508h-0.33c-1.565,0-2.835-1.123-2.835-2.508v-48.652
	c0-1.385,1.27-2.508,2.835-2.508h0.33c1.565,0,2.835,1.123,2.835,2.508V351.658z"/>
<path fill="#030000" d="M249.683,351.658c0,1.385-1.27,2.508-2.835,2.508h-0.33c-1.565,0-2.835-1.123-2.835-2.508v-48.652
	c0-1.385,1.27-2.508,2.835-2.508h0.33c1.565,0,2.835,1.123,2.835,2.508V351.658z"/>
<path fill="#030000" d="M269.183,351.658c0,1.385-1.27,2.508-2.835,2.508h-0.33c-1.565,0-2.835-1.123-2.835-2.508v-48.652
	c0-1.385,1.27-2.508,2.835-2.508h0.33c1.565,0,2.835,1.123,2.835,2.508V351.658z"/>
<path fill="#030000" d="M288.683,351.658c0,1.385-1.27,2.508-2.835,2.508h-0.33c-1.565,0-2.835-1.123-2.835-2.508v-48.652
	c0-1.385,1.27-2.508,2.835-2.508h0.33c1.565,0,2.835,1.123,2.835,2.508V351.658z"/>
<path fill="#030000" d="M308.183,351.658c0,1.385-1.27,2.508-2.835,2.508h-0.33c-1.565,0-2.835-1.123-2.835-2.508v-48.652
	c0-1.385,1.27-2.508,2.835-2.508h0.33c1.565,0,2.835,1.123,2.835,2.508V351.658z"/>
<path fill="#030000" d="M327.683,351.658c0,1.385-1.27,2.508-2.835,2.508h-0.33c-1.565,0-2.835-1.123-2.835-2.508v-48.652
	c0-1.385,1.27-2.508,2.835-2.508h0.33c1.565,0,2.835,1.123,2.835,2.508V351.658z"/>
<path fill="#030000" d="M347.183,351.658c0,1.385-1.27,2.508-2.835,2.508h-0.33c-1.565,0-2.835-1.123-2.835-2.508v-48.652
	c0-1.385,1.27-2.508,2.835-2.508h0.33c1.565,0,2.835,1.123,2.835,2.508V351.658z"/>
<path fill="#030000" d="M366.683,351.658c0,1.385-1.27,2.508-2.835,2.508h-0.33c-1.565,0-2.835-1.123-2.835-2.508v-48.652
	c0-1.385,1.27-2.508,2.835-2.508h0.33c1.565,0,2.835,1.123,2.835,2.508V351.658z"/>
<path fill="#030000" d="M386.183,351.658c0,1.385-1.27,2.508-2.835,2.508h-0.33c-1.565,0-2.835-1.123-2.835-2.508v-48.652
	c0-1.385,1.27-2.508,2.835-2.508h0.33c1.565,0,2.835,1.123,2.835,2.508V351.658z"/>
<path fill="#030000" d="M405.683,351.658c0,1.385-1.27,2.508-2.835,2.508h-0.33c-1.565,0-2.835-1.123-2.835-2.508v-48.652
	c0-1.385,1.27-2.508,2.835-2.508h0.33c1.565,0,2.835,1.123,2.835,2.508V351.658z"/>
<path fill="#030000" d="M425.183,351.658c0,1.385-1.27,2.508-2.835,2.508h-0.33c-1.565,0-2.835-1.123-2.835-2.508v-48.652
	c0-1.385,1.27-2.508,2.835-2.508h0.33c1.565,0,2.835,1.123,2.835,2.508V351.658z"/>
<path fill="#030000" d="M444.683,351.658c0,1.385-1.27,2.508-2.835,2.508h-0.33c-1.565,0-2.835-1.123-2.835-2.508v-48.652
	c0-1.385,1.27-2.508,2.835-2.508h0.33c1.565,0,2.835,1.123,2.835,2.508V351.658z"/>
<path fill="#030000" d="M464.183,351.658c0,1.385-1.27,2.508-2.835,2.508h-0.33c-1.565,0-2.835-1.123-2.835-2.508v-48.652
	c0-1.385,1.27-2.508,2.835-2.508h0.33c1.565,0,2.835,1.123,2.835,2.508V351.658z"/>
<path fill="#030000" d="M483.683,351.658c0,1.385-1.27,2.508-2.835,2.508h-0.33c-1.565,0-2.835-1.123-2.835-2.508v-48.652
	c0-1.385,1.27-2.508,2.835-2.508h0.33c1.565,0,2.835,1.123,2.835,2.508V351.658z"/>
<path fill="#030000" d="M503.183,351.658c0,1.385-1.27,2.508-2.835,2.508h-0.33c-1.565,0-2.835-1.123-2.835-2.508v-48.652
	c0-1.385,1.27-2.508,2.835-2.508h0.33c1.565,0,2.835,1.123,2.835,2.508V351.658z"/>
<path fill="#030000" d="M522.683,351.658c0,1.385-1.27,2.508-2.835,2.508h-0.33c-1.565,0-2.835-1.123-2.835-2.508v-48.652
	c0-1.385,1.27-2.508,2.835-2.508h0.33c1.565,0,2.835,1.123,2.835,2.508V351.658z"/>
<path fill="#030000" d="M542.183,351.658c0,1.385-1.27,2.508-2.835,2.508h-0.33c-1.565,0-2.835-1.123-2.835-2.508v-48.652
	c0-1.385,1.27-2.508,2.835-2.508h0.33c1.565,0,2.835,1.123,2.835,2.508V351.658z"/>
<path fill="#030000" d="M561.683,351.658c0,1.385-1.27,2.508-2.835,2.508h-0.33c-1.565,0-2.835-1.123-2.835-2.508v-48.652
	c0-1.385,1.27-2.508,2.835-2.508h0.33c1.565,0,2.835,1.123,2.835,2.508V351.658z"/>
<path fill="#030000" d="M581.183,351.658c0,1.385-1.27,2.508-2.835,2.508h-0.33c-1.565,0-2.835-1.123-2.835-2.508v-48.652
	c0-1.385,1.27-2.508,2.835-2.508h0.33c1.565,0,2.835,1.123,2.835,2.508V351.658z"/>
<path fill="#030000" d="M600.683,351.658c0,1.385-1.27,2.508-2.835,2.508h-0.33c-1.565,0-2.835-1.123-2.835-2.508v-48.652
	c0-1.385,1.27-2.508,2.835-2.508h0.33c1.565,0,2.835,1.123,2.835,2.508V351.658z"/>
<path fill="#030000" d="M620.183,351.658c0,1.385-1.27,2.508-2.835,2.508h-0.33c-1.565,0-2.835-1.123-2.835-2.508v-48.652
	c0-1.385,1.27-2.508,2.835-2.508h0.33c1.565,0,2.835,1.123,2.835,2.508V351.658z"/>
<path fill="#030000" d="M724.18,126.67c0,1.384-1.27,2.507-2.836,2.507h-0.33c-1.564,0-2.834-1.123-2.834-2.507V78.018
	c0-1.385,1.27-2.508,2.834-2.508h0.33c1.566,0,2.836,1.123,2.836,2.508V126.67z"/>
<path fill="#030000" d="M743.68,126.67c0,1.384-1.27,2.507-2.836,2.507h-0.33c-1.564,0-2.834-1.123-2.834-2.507V78.018
	c0-1.385,1.27-2.508,2.834-2.508h0.33c1.566,0,2.836,1.123,2.836,2.508V126.67z"/>
<path fill="#030000" d="M763.18,126.67c0,1.384-1.27,2.507-2.836,2.507h-0.33c-1.564,0-2.834-1.123-2.834-2.507V78.018
	c0-1.385,1.27-2.508,2.834-2.508h0.33c1.566,0,2.836,1.123,2.836,2.508V126.67z"/>
<path fill="#030000" d="M782.68,126.67c0,1.384-1.27,2.507-2.836,2.507h-0.33c-1.564,0-2.834-1.123-2.834-2.507V78.018
	c0-1.385,1.27-2.508,2.834-2.508h0.33c1.566,0,2.836,1.123,2.836,2.508V126.67z"/>
<path fill="#030000" d="M724.18,201.666c0,1.385-1.27,2.507-2.836,2.507h-0.33c-1.564,0-2.834-1.122-2.834-2.507v-48.653
	c0-1.384,1.27-2.506,2.834-2.506h0.33c1.566,0,2.836,1.122,2.836,2.506V201.666z"/>
<path fill="#030000" d="M743.68,201.666c0,1.385-1.27,2.507-2.836,2.507h-0.33c-1.564,0-2.834-1.122-2.834-2.507v-48.653
	c0-1.384,1.27-2.506,2.834-2.506h0.33c1.566,0,2.836,1.122,2.836,2.506V201.666z"/>
<path fill="#030000" d="M763.18,201.666c0,1.385-1.27,2.507-2.836,2.507h-0.33c-1.564,0-2.834-1.122-2.834-2.507v-48.653
	c0-1.384,1.27-2.506,2.834-2.506h0.33c1.566,0,2.836,1.122,2.836,2.506V201.666z"/>
<path fill="#030000" d="M782.68,201.666c0,1.385-1.27,2.507-2.836,2.507h-0.33c-1.564,0-2.834-1.122-2.834-2.507v-48.653
	c0-1.384,1.27-2.506,2.834-2.506h0.33c1.566,0,2.836,1.122,2.836,2.506V201.666z"/>
<path fill="#030000" d="M724.18,276.662c0,1.385-1.27,2.506-2.836,2.506h-0.33c-1.564,0-2.834-1.121-2.834-2.506V228.01
	c0-1.385,1.27-2.507,2.834-2.507h0.33c1.566,0,2.836,1.123,2.836,2.507V276.662z"/>
<path fill="#030000" d="M743.68,276.662c0,1.385-1.27,2.506-2.836,2.506h-0.33c-1.564,0-2.834-1.121-2.834-2.506V228.01
	c0-1.385,1.27-2.507,2.834-2.507h0.33c1.566,0,2.836,1.123,2.836,2.507V276.662z"/>
<path fill="#030000" d="M763.18,276.662c0,1.385-1.27,2.506-2.836,2.506h-0.33c-1.564,0-2.834-1.121-2.834-2.506V228.01
	c0-1.385,1.27-2.507,2.834-2.507h0.33c1.566,0,2.836,1.123,2.836,2.507V276.662z"/>
<path fill="#030000" d="M782.68,276.662c0,1.385-1.27,2.506-2.836,2.506h-0.33c-1.564,0-2.834-1.121-2.834-2.506V228.01
	c0-1.385,1.27-2.507,2.834-2.507h0.33c1.566,0,2.836,1.123,2.836,2.507V276.662z"/>
<path fill="#030000" d="M724.18,351.658c0,1.385-1.27,2.508-2.836,2.508h-0.33c-1.564,0-2.834-1.123-2.834-2.508v-48.652
	c0-1.385,1.27-2.508,2.834-2.508h0.33c1.566,0,2.836,1.123,2.836,2.508V351.658z"/>
<path fill="#030000" d="M743.68,351.658c0,1.385-1.27,2.508-2.836,2.508h-0.33c-1.564,0-2.834-1.123-2.834-2.508v-48.652
	c0-1.385,1.27-2.508,2.834-2.508h0.33c1.566,0,2.836,1.123,2.836,2.508V351.658z"/>
<path fill="#030000" d="M763.18,351.658c0,1.385-1.27,2.508-2.836,2.508h-0.33c-1.564,0-2.834-1.123-2.834-2.508v-48.652
	c0-1.385,1.27-2.508,2.834-2.508h0.33c1.566,0,2.836,1.123,2.836,2.508V351.658z"/>
<path fill="#030000" d="M782.68,351.658c0,1.385-1.27,2.508-2.836,2.508h-0.33c-1.564,0-2.834-1.123-2.834-2.508v-48.652
	c0-1.385,1.27-2.508,2.834-2.508h0.33c1.566,0,2.836,1.123,2.836,2.508V351.658z"/>
<path fill="#030000" d="M1070.051,126.67c0,1.384-1.27,2.507-2.834,2.507h-0.33c-1.566,0-2.836-1.123-2.836-2.507V78.018
	c0-1.385,1.27-2.508,2.836-2.508h0.33c1.564,0,2.834,1.123,2.834,2.508V126.67z"/>
<path fill="#030000" d="M1089.551,126.67c0,1.384-1.27,2.507-2.834,2.507h-0.33c-1.566,0-2.836-1.123-2.836-2.507V78.018
	c0-1.385,1.27-2.508,2.836-2.508h0.33c1.564,0,2.834,1.123,2.834,2.508V126.67z"/>
<path fill="#030000" d="M1109.051,126.67c0,1.384-1.27,2.507-2.834,2.507h-0.33c-1.566,0-2.836-1.123-2.836-2.507V78.018
	c0-1.385,1.27-2.508,2.836-2.508h0.33c1.564,0,2.834,1.123,2.834,2.508V126.67z"/>
<path fill="#030000" d="M1128.551,126.67c0,1.384-1.27,2.507-2.834,2.507h-0.33c-1.566,0-2.836-1.123-2.836-2.507V78.018
	c0-1.385,1.27-2.508,2.836-2.508h0.33c1.564,0,2.834,1.123,2.834,2.508V126.67z"/>
<path fill="#030000" d="M1070.051,201.666c0,1.385-1.27,2.507-2.834,2.507h-0.33c-1.566,0-2.836-1.122-2.836-2.507v-48.653
	c0-1.384,1.27-2.506,2.836-2.506h0.33c1.564,0,2.834,1.122,2.834,2.506V201.666z"/>
<path fill="#030000" d="M1089.551,201.666c0,1.385-1.27,2.507-2.834,2.507h-0.33c-1.566,0-2.836-1.122-2.836-2.507v-48.653
	c0-1.384,1.27-2.506,2.836-2.506h0.33c1.564,0,2.834,1.122,2.834,2.506V201.666z"/>
<path fill="#030000" d="M1109.051,201.666c0,1.385-1.27,2.507-2.834,2.507h-0.33c-1.566,0-2.836-1.122-2.836-2.507v-48.653
	c0-1.384,1.27-2.506,2.836-2.506h0.33c1.564,0,2.834,1.122,2.834,2.506V201.666z"/>
<path fill="#030000" d="M1128.551,201.666c0,1.385-1.27,2.507-2.834,2.507h-0.33c-1.566,0-2.836-1.122-2.836-2.507v-48.653
	c0-1.384,1.27-2.506,2.836-2.506h0.33c1.564,0,2.834,1.122,2.834,2.506V201.666z"/>
<path fill="#030000" d="M1070.051,276.662c0,1.385-1.27,2.506-2.834,2.506h-0.33c-1.566,0-2.836-1.121-2.836-2.506V228.01
	c0-1.385,1.27-2.507,2.836-2.507h0.33c1.564,0,2.834,1.123,2.834,2.507V276.662z"/>
<path fill="#030000" d="M1089.551,276.662c0,1.385-1.27,2.506-2.834,2.506h-0.33c-1.566,0-2.836-1.121-2.836-2.506V228.01
	c0-1.385,1.27-2.507,2.836-2.507h0.33c1.564,0,2.834,1.123,2.834,2.507V276.662z"/>
<path fill="#030000" d="M1109.051,276.662c0,1.385-1.27,2.506-2.834,2.506h-0.33c-1.566,0-2.836-1.121-2.836-2.506V228.01
	c0-1.385,1.27-2.507,2.836-2.507h0.33c1.564,0,2.834,1.123,2.834,2.507V276.662z"/>
<path fill="#030000" d="M1128.551,276.662c0,1.385-1.27,2.506-2.834,2.506h-0.33c-1.566,0-2.836-1.121-2.836-2.506V228.01
	c0-1.385,1.27-2.507,2.836-2.507h0.33c1.564,0,2.834,1.123,2.834,2.507V276.662z"/>
<path fill="#030000" d="M1070.051,351.658c0,1.385-1.27,2.508-2.834,2.508h-0.33c-1.566,0-2.836-1.123-2.836-2.508v-48.652
	c0-1.385,1.27-2.508,2.836-2.508h0.33c1.564,0,2.834,1.123,2.834,2.508V351.658z"/>
<path fill="#030000" d="M1089.551,351.658c0,1.385-1.27,2.508-2.834,2.508h-0.33c-1.566,0-2.836-1.123-2.836-2.508v-48.652
	c0-1.385,1.27-2.508,2.836-2.508h0.33c1.564,0,2.834,1.123,2.834,2.508V351.658z"/>
<path fill="#030000" d="M1109.051,351.658c0,1.385-1.27,2.508-2.834,2.508h-0.33c-1.566,0-2.836-1.123-2.836-2.508v-48.652
	c0-1.385,1.27-2.508,2.836-2.508h0.33c1.564,0,2.834,1.123,2.834,2.508V351.658z"/>
<path fill="#030000" d="M1128.551,351.658c0,1.385-1.27,2.508-2.834,2.508h-0.33c-1.566,0-2.836-1.123-2.836-2.508v-48.652
	c0-1.385,1.27-2.508,2.836-2.508h0.33c1.564,0,2.834,1.123,2.834,2.508V351.658z"/>
<circle fill="#A8A5A1" stroke="#484746" stroke-miterlimit="10" cx="920.394" cy="59.556" r="23.333"/>
<circle fill="#978E88" stroke="#6D6D6D" stroke-width="3" stroke-miterlimit="10" cx="920.395" cy="59.556" r="9.959"/>
<path fill="#605F5A" d="M922.645,66.215c0,2.5-0.896,4.526-2,4.526h-0.5c-1.105,0-2-2.026-2-4.526V51.502c0-2.5,0.895-4.527,2-4.527
	h0.5c1.104,0,2,2.027,2,4.527V66.215z"/>
<circle fill="#040000" cx="909.867" cy="59.001" r="2.018"/>
<path fill="#D0CECE" d="M909.436,43.223c0,0-12.125,7.75-7.375,24.875C902.061,68.098,893.311,51.848,909.436,43.223z"/>
<g>
	<defs>
		<rect id="SVGID_1_" x="351.174" y="102.344" width="63.5" height="31.673"/>
	</defs>
	<clipPath id="SVGID_2_">
		<use xlink:href="#SVGID_1_"  overflow="visible"/>
	</clipPath>
	<path clip-path="url(#SVGID_2_)" fill="#030000" d="M366.683,126.67c0,1.384-1.27,2.507-2.835,2.507h-0.33
		c-1.565,0-2.835-1.123-2.835-2.507V78.018c0-1.385,1.27-2.508,2.835-2.508h0.33c1.565,0,2.835,1.123,2.835,2.508V126.67z"/>
	<path clip-path="url(#SVGID_2_)" fill="#030000" d="M386.183,126.67c0,1.384-1.27,2.507-2.835,2.507h-0.33
		c-1.565,0-2.835-1.123-2.835-2.507V78.018c0-1.385,1.27-2.508,2.835-2.508h0.33c1.565,0,2.835,1.123,2.835,2.508V126.67z"/>
	<path clip-path="url(#SVGID_2_)" fill="#030000" d="M405.683,126.67c0,1.384-1.27,2.507-2.835,2.507h-0.33
		c-1.565,0-2.835-1.123-2.835-2.507V78.018c0-1.385,1.27-2.508,2.835-2.508h0.33c1.565,0,2.835,1.123,2.835,2.508V126.67z"/>
</g>
<g>
	
		<image overflow="visible" opacity="0.5" width="48" height="48" xlink:href="909AE9F8.png"  transform="matrix(1 0 0 1 362.4829 49.3345)">
	</image>
	<g>
		<linearGradient id="SVGID_3_" gradientUnits="userSpaceOnUse" x1="386.1826" y1="87.979" x2="386.1826" y2="59.313">
			<stop  offset="0" style="stop-color:#FFFFFF"/>
			<stop  offset="1" style="stop-color:#231815"/>
		</linearGradient>
		<circle fill="url(#SVGID_3_)" cx="386.183" cy="73.646" r="14.333"/>
	</g>
</g>
<rect x="383.562" y="59.556" fill="#AAAAAA" width="4.906" height="28.234"/>
<linearGradient id="SVGID_4_" gradientUnits="userSpaceOnUse" x1="1218.2148" y1="243.8398" x2="1266.2148" y2="243.8398">
	<stop  offset="0" style="stop-color:#1E1D22"/>
	<stop  offset="0.3387" style="stop-color:#5D5D60"/>
	<stop  offset="1" style="stop-color:#1E1D22"/>
</linearGradient>
<path fill="url(#SVGID_4_)" stroke="#030000" stroke-width="2" stroke-miterlimit="10" d="M1266.215,415.041
	c0,22.348-10.152,27.465-22.676,27.465h-2.646c-12.523,0-22.678-5.117-22.678-27.465V74.859c0-22.347,10.154-29.685,22.678-29.685
	h2.646c12.523,0,22.676,7.338,22.676,29.685V415.041z"/>
<linearGradient id="SVGID_5_" gradientUnits="userSpaceOnUse" x1="7.8926" y1="243.8398" x2="55.8926" y2="243.8398">
	<stop  offset="0" style="stop-color:#1E1D22"/>
	<stop  offset="0.3387" style="stop-color:#5D5D60"/>
	<stop  offset="1" style="stop-color:#1E1D22"/>
</linearGradient>
<path fill="url(#SVGID_5_)" stroke="#030000" stroke-width="2" stroke-miterlimit="10" d="M55.893,415.041
	c0,22.348-10.153,27.465-22.677,27.465H30.57c-12.524,0-22.677-5.117-22.677-27.465V74.859c0-22.347,10.153-29.685,22.677-29.685
	h2.646c12.524,0,22.677,7.338,22.677,29.685V415.041z"/>
<path fill="#444444" stroke="#020202" stroke-miterlimit="10" d="M1028.906,345.662c0,4.697-3.807,8.504-8.504,8.504H826.387
	c-4.697,0-8.504-3.807-8.504-8.504V174.67c0-4.696,3.807-8.504,8.504-8.504h194.016c4.697,0,8.504,3.808,8.504,8.504V345.662z"/>
<path fill="none" stroke="#AA6666" stroke-width="2" stroke-miterlimit="10" d="M874.891,241.496c0,3.133-2.539,5.67-5.67,5.67
	h-27.662c-3.131,0-5.668-2.537-5.668-5.67V190.66c0-3.131,2.537-5.67,5.668-5.67h27.662c3.131,0,5.67,2.539,5.67,5.67V241.496z"/>
<circle fill="#F1F6DF" stroke="#8DC220" stroke-miterlimit="10" cx="855.391" cy="206.207" r="7.795"/>
<text transform="matrix(1 0 0 1 844.5566 237.4922)" fill="#EDEBEA" font-family="'SimHei'" font-size="14.7077">PWR</text>
<text transform="matrix(1 0 0 1 908.8906 237.4922)" fill="#EDEBEA" font-family="'SimHei'" font-size="14.7077">HDD</text>
<text transform="matrix(1 0 0 1 942.3066 237.4922)" fill="#EDEBEA" font-family="'SimHei'" font-size="14.7077">TEMP</text>
<text transform="matrix(1 0 0 1 980.5566 237.4922)" fill="#EDEBEA" font-family="'SimHei'" font-size="14.7077">FAN</text>
<text transform="matrix(1 0 0 1 904.5146 333.9648)" fill="#EDEBEA" font-family="'SimHei'" font-size="8.2891">POWER STATUS</text>
<circle fill="#F1F6DF" stroke="#8DC220" stroke-miterlimit="10" cx="920.395" cy="206.207" r="7.795"/>
<circle fill="#F1F6DF" stroke="#8DC220" stroke-miterlimit="10" cx="955.895" cy="206.207" r="7.795"/>
<circle fill="#FFEEF2" stroke="#C12139" stroke-miterlimit="10" cx="991.395" cy="206.207" r="7.795"/>
<circle fill="#F1F6DF" stroke="#8DC220" stroke-miterlimit="10" cx="924.561" cy="278.195" r="7.795"/>
<circle fill="#F1F6DF" stroke="#8DC220" stroke-miterlimit="10" cx="960.061" cy="278.195" r="7.795"/>
<circle fill="#F1F6DF" stroke="#8DC220" stroke-miterlimit="10" cx="851.227" cy="278.195" r="7.795"/>
<circle fill="#F1F6DF" stroke="#8DC220" stroke-miterlimit="10" cx="886.727" cy="278.195" r="7.795"/>
<circle fill="#F1F6DF" stroke="#8DC220" stroke-miterlimit="10" cx="995.561" cy="278.195" r="7.795"/>
<path fill="none" stroke="#AA6666" stroke-width="2" stroke-miterlimit="10" d="M1011.895,236.166c0,6.075-4.926,11-11,11h-91.5
	c-6.076,0-11-4.925-11-11V195.99c0-6.075,4.924-11,11-11h91.5c6.074,0,11,4.925,11,11V236.166z"/>
<path fill="none" stroke="#AA6666" stroke-width="2" stroke-miterlimit="10" d="M899.729,331.221"/>
<path fill="none" stroke="#AA6666" stroke-width="2" stroke-miterlimit="10" d="M899.729,331.221h-52.084c-6.076,0-11-4.926-11-11
	v-49.055c0-6.076,4.924-11,11-11h153.25c6.074,0,11,4.924,11,11v49.055c0,6.074-4.926,11-11,11h-42.5"/>
<text transform="matrix(1 0 0 1 841.5234 303.7207)" fill="#EDEBEA" font-family="'SimHei'" font-size="10">+33V</text>
<text transform="matrix(1 0 0 1 878.9326 303.7207)" fill="#EDEBEA" font-family="'SimHei'" font-size="10">+5V</text>
<text transform="matrix(1 0 0 1 914.5156 303.7207)" fill="#EDEBEA" font-family="'SimHei'" font-size="10">+12V</text>
<text transform="matrix(1 0 0 1 952.2656 303.7207)" fill="#EDEBEA" font-family="'SimHei'" font-size="10">+5V</text>
<text transform="matrix(1 0 0 1 984.6055 303.7207)" fill="#EDEBEA" font-family="'SimHei'" font-size="10">+12V</text>
</svg>
