<?xml version="1.0" encoding="utf-8"?>
<!-- Generator: Adobe Illustrator 19.0.0, SVG Export Plug-In . SVG Version: 6.00 Build 0)  -->
<svg version="1.1" id="图层_1" xmlns="http://www.w3.org/2000/svg" xmlns:xlink="http://www.w3.org/1999/xlink" x="0px" y="0px"
	 width="8.5px" height="8.5px" viewBox="0 0 8.5 8.5" style="enable-background:new 0 0 8.5 8.5;" xml:space="preserve">
<style type="text/css">
	.st0{fill:#989898;}
	.st1{fill:#515151;}
</style>
<g id="XMLID_1985_">
	<path id="XMLID_16_" class="st0" d="M4.3,8C2.2,8,0.5,6.3,0.5,4.3s1.7-3.8,3.8-3.8S8,2.2,8,4.3S6.3,8,4.3,8z"/>
	<path id="XMLID_13_" class="st1" d="M4.3,1c1.8,0,3.3,1.5,3.3,3.3S6.1,7.5,4.3,7.5S1,6.1,1,4.3S2.5,1,4.3,1 M4.3,0
		C1.9,0,0,1.9,0,4.3s1.9,4.3,4.3,4.3s4.3-1.9,4.3-4.3S6.6,0,4.3,0L4.3,0z"/>
</g>
</svg>
