<?xml version="1.0" encoding="utf-8"?>
<!-- Generator: Adobe Illustrator 19.0.0, SVG Export Plug-In . SVG Version: 6.00 Build 0)  -->
<svg version="1.1" id="图层_1" xmlns="http://www.w3.org/2000/svg" xmlns:xlink="http://www.w3.org/1999/xlink" x="0px" y="0px"
	 width="41.4px" height="24.1px" viewBox="0 0 41.4 24.1" style="enable-background:new 0 0 41.4 24.1;" xml:space="preserve">
<style type="text/css">
	.st0{fill:#B7B7B7;stroke:#666666;stroke-width:1.4173;stroke-miterlimit:10;}
	.st1{fill:url(#XMLID_2_);}
</style>
<g id="XMLID_54_">
	<path id="XMLID_50_" class="st0" d="M29.4,23.4H12C5.8,23.4,0.7,18.3,0.7,12v0C0.7,5.8,5.8,0.7,12,0.7h17.3
		c6.2,0,11.3,5.1,11.3,11.3v0C40.7,18.3,35.6,23.4,29.4,23.4z"/>
	<linearGradient id="XMLID_2_" gradientUnits="userSpaceOnUse" x1="20.7087" y1="21.6206" x2="20.7087" y2="2.4634">
		<stop  offset="0" style="stop-color:#40CA6E"/>
		<stop  offset="1" style="stop-color:#CCFFE6"/>
	</linearGradient>
	<path id="XMLID_52_" class="st1" d="M29,21.6H12.4c-5.3,0-9.6-4.3-9.6-9.6v0c0-5.3,4.3-9.6,9.6-9.6H29c5.3,0,9.6,4.3,9.6,9.6v0
		C38.6,17.3,34.2,21.6,29,21.6z"/>
</g>
</svg>
