<?xml version="1.0" encoding="utf-8"?>
<!-- Generator: Adobe Illustrator 16.0.0, SVG Export Plug-In . SVG Version: 6.00 Build 0)  -->
<!DOCTYPE svg PUBLIC "-//W3C//DTD SVG 1.1//EN" "http://www.w3.org/Graphics/SVG/1.1/DTD/svg11.dtd">
<svg version="1.1" id="图层_1" xmlns="http://www.w3.org/2000/svg" xmlns:xlink="http://www.w3.org/1999/xlink" x="0px" y="0px"
	 width="41.28px" height="41.28px" viewBox="0 0 41.28 41.28" enable-background="new 0 0 41.28 41.28" xml:space="preserve">
<g>
	<defs>
		<path id="SVGID_1_" d="M0.006,20.64c0,11.397,9.239,20.637,20.638,20.637c11.396,0,20.637-9.24,20.637-20.637
			c0-11.398-9.24-20.638-20.637-20.638C9.245,0.002,0.006,9.242,0.006,20.64"/>
	</defs>
	<clipPath id="SVGID_2_">
		<use xlink:href="#SVGID_1_"  overflow="visible"/>
	</clipPath>
	
		<linearGradient id="SVGID_3_" gradientUnits="userSpaceOnUse" x1="-806.5532" y1="317.0469" x2="-805.7209" y2="317.0469" gradientTransform="matrix(0 -49.5304 49.5304 0 -15682.8438 -39907.625)">
		<stop  offset="0" style="stop-color:#CCCCCC"/>
		<stop  offset="0.0623" style="stop-color:#C7C6C6"/>
		<stop  offset="0.1438" style="stop-color:#B6B6B6"/>
		<stop  offset="0.236" style="stop-color:#9B9B9B"/>
		<stop  offset="0.336" style="stop-color:#757575"/>
		<stop  offset="0.4413" style="stop-color:#454545"/>
		<stop  offset="0.4771" style="stop-color:#333333"/>
		<stop  offset="0.5163" style="stop-color:#454545"/>
		<stop  offset="0.6317" style="stop-color:#757575"/>
		<stop  offset="0.7414" style="stop-color:#9B9B9B"/>
		<stop  offset="0.8424" style="stop-color:#B6B6B6"/>
		<stop  offset="0.9317" style="stop-color:#C7C6C6"/>
		<stop  offset="1" style="stop-color:#CCCCCC"/>
	</linearGradient>
	<rect x="0.006" y="0.002" clip-path="url(#SVGID_2_)" fill="url(#SVGID_3_)" width="41.274" height="41.275"/>
</g>
<g>
	<defs>
		<path id="SVGID_4_" d="M2.669,20.64c0,9.928,8.046,17.975,17.975,17.975c9.925,0,17.974-8.047,17.974-17.975
			c0-9.928-8.049-17.976-17.974-17.976C10.715,2.665,2.669,10.712,2.669,20.64"/>
	</defs>
	<clipPath id="SVGID_5_">
		<use xlink:href="#SVGID_4_"  overflow="visible"/>
	</clipPath>
	
		<linearGradient id="SVGID_6_" gradientUnits="userSpaceOnUse" x1="-804.0088" y1="322.168" x2="-803.1768" y2="322.168" gradientTransform="matrix(43.2 0 0 43.2 34735.875 -13897.0625)">
		<stop  offset="0" style="stop-color:#3391C1"/>
		<stop  offset="1" style="stop-color:#225F9D"/>
	</linearGradient>
	<rect x="2.669" y="2.665" clip-path="url(#SVGID_5_)" fill="url(#SVGID_6_)" width="35.948" height="35.951"/>
</g>
<g>
	<defs>
		<path id="SVGID_7_" d="M5.581,20.64c0,8.319,6.743,15.063,15.063,15.063c8.318,0,15.062-6.744,15.062-15.063
			c0-8.319-6.743-15.063-15.062-15.063C12.324,5.578,5.581,12.321,5.581,20.64"/>
	</defs>
	<clipPath id="SVGID_8_">
		<use xlink:href="#SVGID_7_"  overflow="visible"/>
	</clipPath>
	
		<linearGradient id="SVGID_9_" gradientUnits="userSpaceOnUse" x1="-797.9414" y1="319.3027" x2="-797.1094" y2="319.3027" gradientTransform="matrix(0 36.2 -36.2 0 11579.4063 28891.0625)">
		<stop  offset="0" style="stop-color:#D9D9D9"/>
		<stop  offset="0.394" style="stop-color:#D7D7D7"/>
		<stop  offset="0.6019" style="stop-color:#CFCFCF"/>
		<stop  offset="0.7662" style="stop-color:#C2C1C1"/>
		<stop  offset="0.907" style="stop-color:#AEAEAE"/>
		<stop  offset="1" style="stop-color:#9E9D9D"/>
	</linearGradient>
	<rect x="5.581" y="5.578" clip-path="url(#SVGID_8_)" fill="url(#SVGID_9_)" width="30.124" height="30.125"/>
</g>
<g>
	<defs>
		<path id="SVGID_10_" d="M22.975,16.313c2.246,0.915,3.91,3.162,3.91,5.742c0,3.412-2.746,6.242-6.241,6.242
			c-3.496,0-6.159-2.746-6.159-6.242c0-2.58,1.583-4.827,3.912-5.742v-1.831c-3.246,0.999-5.66,3.994-5.66,7.573
			c0,4.41,3.579,7.988,7.99,7.988c4.41,0,7.988-3.578,7.988-7.988c-0.084-3.579-2.496-6.574-5.74-7.573V16.313z"/>
	</defs>
	<clipPath id="SVGID_11_">
		<use xlink:href="#SVGID_10_"  overflow="visible"/>
	</clipPath>
	
		<linearGradient id="SVGID_12_" gradientUnits="userSpaceOnUse" x1="-805.4531" y1="327.6738" x2="-804.6209" y2="327.6738" gradientTransform="matrix(18.5862 0 0 18.5862 14983.2188 -6067.9531)">
		<stop  offset="0" style="stop-color:#3391C1"/>
		<stop  offset="1" style="stop-color:#225F9D"/>
	</linearGradient>
	<rect x="12.736" y="14.482" clip-path="url(#SVGID_11_)" fill="url(#SVGID_12_)" width="15.979" height="15.561"/>
</g>
<g>
	<defs>
		<rect id="SVGID_13_" x="19.395" y="11.32" width="2.58" height="7.323"/>
	</defs>
	<clipPath id="SVGID_14_">
		<use xlink:href="#SVGID_13_"  overflow="visible"/>
	</clipPath>
	
		<linearGradient id="SVGID_15_" gradientUnits="userSpaceOnUse" x1="-805.4517" y1="327.7539" x2="-804.6213" y2="327.7539" gradientTransform="matrix(18.5862 0 0 18.5862 14983.2188 -6076.7031)">
		<stop  offset="0" style="stop-color:#3391C1"/>
		<stop  offset="1" style="stop-color:#225F9D"/>
	</linearGradient>
	<rect x="19.395" y="11.32" clip-path="url(#SVGID_14_)" fill="url(#SVGID_15_)" width="2.58" height="7.323"/>
</g>
</svg>
