<?xml version="1.0" encoding="utf-8"?>
<!-- Generator: Adobe Illustrator 16.0.0, SVG Export Plug-In . SVG Version: 6.00 Build 0)  -->
<!DOCTYPE svg PUBLIC "-//W3C//DTD SVG 1.1//EN" "http://www.w3.org/Graphics/SVG/1.1/DTD/svg11.dtd">
<svg version="1.1" id="图层_1" xmlns="http://www.w3.org/2000/svg" xmlns:xlink="http://www.w3.org/1999/xlink" x="0px" y="0px"
	 width="1275.59px" height="126.14px" viewBox="0 0 1275.59 126.14" enable-background="new 0 0 1275.59 126.14"
	 xml:space="preserve">
<g>
	<rect x="0" fill="#3C3D3F" width="1275.59" height="126.143"/>
</g>
<rect x="2.139" y="1.56" fill="#525354" width="174.5" height="21.382"/>
<path fill="#D5D5D5" d="M1239.428,73.277c0-1.875-1.791-3.396-4-3.396h-169.194c-2.209,0-4,1.521-4,3.396v29.709
	c0,1.875,1.791,3.396,4,3.396h169.194c2.209,0,4-1.521,4-3.396V73.277z"/>
<path fill="#060404" d="M1235.428,106.883h-169.194c-2.481,0-4.5-1.748-4.5-3.896V73.277c0-2.148,2.019-3.896,4.5-3.896h169.194
	c2.48,0,4.5,1.748,4.5,3.896v29.709C1239.928,105.135,1237.908,106.883,1235.428,106.883z M1066.233,70.381
	c-1.929,0-3.5,1.299-3.5,2.896v29.709c0,1.598,1.571,2.896,3.5,2.896h169.194c1.93,0,3.5-1.299,3.5-2.896V73.277
	c0-1.598-1.57-2.896-3.5-2.896H1066.233z"/>
<path fill="#5E5D5E" stroke="#000000" stroke-miterlimit="10" d="M749.393,103.594c0,2.105-1.707,3.811-3.811,3.811H468.698
	c-2.104,0-3.811-1.705-3.811-3.811V26.752c0-2.104,1.706-3.81,3.811-3.81h276.884c2.104,0,3.811,1.706,3.811,3.81V103.594z"/>
<path fill="#C6C5C6" stroke="#000000" stroke-miterlimit="10" d="M744.369,102.838c0,0.525-0.426,0.951-0.953,0.951H470.861
	c-0.525,0-0.952-0.426-0.952-0.951V27.9c0-0.526,0.427-0.952,0.952-0.952h272.555c0.527,0,0.953,0.426,0.953,0.952V102.838z"/>
<path fill="#5E5D5E" stroke="#000000" stroke-miterlimit="10" d="M1035.246,103.594c0,2.105-1.705,3.811-3.811,3.811H754.553
	c-2.105,0-3.811-1.705-3.811-3.811V26.752c0-2.104,1.705-3.81,3.811-3.81h276.883c2.105,0,3.811,1.706,3.811,3.81V103.594z"/>
<path fill="#C6C5C6" stroke="#000000" stroke-miterlimit="10" d="M1030.225,102.838c0,0.525-0.428,0.951-0.953,0.951H756.717
	c-0.526,0-0.953-0.426-0.953-0.951V27.9c0-0.526,0.427-0.952,0.953-0.952h272.555c0.525,0,0.953,0.426,0.953,0.952V102.838z"/>
<g>
	<path fill="#0C0C0C" d="M747.717,11.633c0,3.912-2.658,7.083-5.938,7.083H470.81c-3.279,0-5.938-3.172-5.938-7.083l0,0
		c0-3.912,2.658-7.083,5.938-7.083h270.969C745.059,4.549,747.717,7.721,747.717,11.633L747.717,11.633z"/>
	<path fill="#3A3A3A" d="M466.394,10.128l2.796,4.896l-1.541,2.697c0.558,0.395,1.168,0.69,1.824,0.851l1.748-3.06h5.593
		l1.831,3.204h2.16l-2.11-3.692l2.796-4.896h5.598l2.797,4.896l-2.109,3.692h2.159l1.831-3.204h5.594l1.83,3.204h2.16l-2.108-3.692
		l2.796-4.896h5.596l2.797,4.896l-2.108,3.692h2.159l1.829-3.204h5.596l1.829,3.204h2.161l-2.109-3.692l2.796-4.896h5.595
		l2.797,4.896l-2.108,3.692h2.16l1.831-3.204h5.593l1.831,3.204h2.16l-2.109-3.692l2.798-4.896h5.593l2.797,4.896l-2.109,3.692
		h2.161l1.831-3.204h5.592l1.83,3.204h2.162l-2.109-3.692l2.797-4.896h5.594l2.797,4.896l-2.109,3.692h2.16l1.832-3.204h5.592
		l1.832,3.204h2.16l-2.109-3.692l2.796-4.896h5.595l2.797,4.896l-2.109,3.692h2.16l1.831-3.204h5.594l1.831,3.204h2.16l-2.109-3.692
		l2.797-4.896h5.594l2.797,4.896l-2.109,3.692h2.16l1.831-3.204h5.593l1.832,3.204h2.16l-2.109-3.692l2.797-4.896h5.594l2.797,4.896
		l-2.109,3.692h2.16l1.83-3.204h5.594l1.832,3.204h1.92l-2.107-3.692l2.795-4.896h5.594l2.799,4.896l-2.111,3.692h2.16l1.832-3.204
		h5.594l1.832,3.204h2.158l-2.107-3.692l2.795-4.896h5.596l2.797,4.896l-2.11,3.692h2.159l1.832-3.204h5.594l1.83,3.204h1.598
		l-2.107-3.692l2.795-4.896h5.596l2.795,4.896l-2.107,3.692h2.158l1.832-3.204h5.594l1.83,3.204h2.16l-2.107-3.692l2.797-4.896
		h5.594l2.797,4.896l-2.109,3.692h2.16l1.83-3.204h5.594l1.83,3.204h1.898l-2.107-3.692l2.797-4.896h5.594l2.799,4.896l-2.109,3.692
		h2.158l1.83-3.204h5.596l1.414,2.476c0.48-0.283,0.928-0.64,1.324-1.061l-1.086-1.904l2.795-4.896h0.156
		c-0.422-2.332-1.809-4.232-3.635-5.087l1.828,3.2l-2.797,4.896h-5.596l-2.797-4.896l2.109-3.692h-2.303l-1.688,2.955h-5.594
		l-1.688-2.955h-2.043l2.111,3.692l-2.799,4.896h-5.594l-2.797-4.896l2.107-3.692h-2.301l-1.688,2.955h-5.594L705,4.549h-2.303
		l2.109,3.692l-2.799,4.896h-5.594l-2.797-4.896l2.109-3.692h-2.303l-1.688,2.955h-5.596l-1.688-2.955h-1.738l2.107,3.692
		l-2.797,4.896h-5.594l-2.799-4.896l2.109-3.692h-2.302l-1.687,2.955h-5.596l-1.688-2.955h-2.303l2.111,3.692l-2.799,4.896h-5.594
		l-2.797-4.896l2.107-3.692h-2.301l-1.689,2.955h-5.594l-1.686-2.955h-2.066l2.109,3.692l-2.797,4.896h-5.594l-2.797-4.896
		l2.109-3.692h-2.303l-1.688,2.955h-5.594l-1.688-2.955h-2.304l2.11,3.692l-2.799,4.896h-5.593l-2.798-4.896l2.109-3.692h-2.303
		l-1.688,2.955h-5.594l-1.688-2.955h-2.304l2.11,3.692l-2.798,4.896h-5.594l-2.798-4.896l2.11-3.692H591.5l-1.688,2.955h-5.595
		l-1.687-2.955h-2.305l2.111,3.692l-2.799,4.896h-5.592l-2.799-4.896l2.11-3.692h-2.304l-1.688,2.955h-5.594l-1.688-2.955h-2.303
		l2.109,3.692l-2.799,4.896h-5.592l-2.798-4.896l2.108-3.692h-2.303l-1.688,2.955h-5.593l-1.688-2.955h-2.304l2.109,3.692
		l-2.798,4.896h-5.593l-2.797-4.896l2.108-3.692h-2.304l-1.688,2.955h-5.595l-1.687-2.955h-2.303l2.109,3.692l-2.797,4.896h-5.596
		l-2.795-4.896l2.109-3.692h-2.303l-1.688,2.955h-5.596l-1.688-2.955h-2.302l2.109,3.692l-2.797,4.896h-5.594l-2.797-4.896
		l2.109-3.692h-2.304l-1.687,2.955h-5.598l-1.686-2.955h-2.303l2.108,3.692l-2.796,4.896h-5.593l-2.797-4.896l2.104-3.684
		c-2.782,0.079-5.088,2.436-5.656,5.57H466.394z"/>
</g>
<g>
	<path fill="#0C0C0C" d="M462.769,11.633c0,3.912-2.658,7.083-5.938,7.083H185.863c-3.279,0-5.938-3.172-5.938-7.083l0,0
		c0-3.912,2.658-7.083,5.938-7.083h270.969C460.111,4.549,462.769,7.721,462.769,11.633L462.769,11.633z"/>
	<path fill="#3A3A3A" d="M181.447,10.128l2.797,4.896l-1.541,2.697c0.558,0.395,1.168,0.69,1.824,0.851l1.748-3.06h5.594l1.83,3.204
		h2.16l-2.11-3.692l2.796-4.896h5.598l2.797,4.896l-2.109,3.692h2.159l1.831-3.204h5.594l1.83,3.204h2.159l-2.108-3.692l2.796-4.896
		h5.596l2.796,4.896l-2.108,3.692h2.159l1.829-3.204h5.596l1.829,3.204h2.161l-2.109-3.692l2.796-4.896h5.595l2.797,4.896
		l-2.108,3.692h2.16l1.831-3.204h5.593l1.831,3.204h2.16l-2.109-3.692l2.798-4.896h5.592l2.797,4.896l-2.109,3.692h2.161
		l1.831-3.204h5.592l1.83,3.204h2.162l-2.109-3.692l2.797-4.896h5.594l2.797,4.896l-2.109,3.692h2.16L289,15.512h5.592l1.832,3.204
		h2.16l-2.109-3.692l2.796-4.896h5.595l2.797,4.896l-2.109,3.692h2.16l1.831-3.204h5.594l1.831,3.204h2.16l-2.109-3.692l2.796-4.896
		h5.594l2.797,4.896l-2.109,3.692h2.16l1.831-3.204h5.593l1.832,3.204h2.16l-2.109-3.692l2.797-4.896h5.594l2.797,4.896
		l-2.109,3.692h2.16l1.83-3.204h5.594l1.832,3.204h1.92l-2.107-3.692l2.796-4.896h5.593l2.799,4.896l-2.11,3.692h2.16l1.831-3.204
		h5.594l1.832,3.204h2.158l-2.107-3.692l2.796-4.896h5.595l2.797,4.896l-2.109,3.692h2.159l1.831-3.204h5.594l1.83,3.204h1.599
		l-2.108-3.692l2.796-4.896h5.595l2.796,4.896l-2.108,3.692h2.159l1.831-3.204h5.594l1.831,3.204h2.159l-2.107-3.692l2.797-4.896
		h5.594l2.797,4.896l-2.108,3.692h2.159l1.83-3.204h5.594l1.83,3.204h1.899l-2.108-3.692l2.797-4.896h5.595l2.798,4.896
		l-2.109,3.692h2.158l1.831-3.204h5.595l1.414,2.476c0.481-0.283,0.928-0.64,1.325-1.061l-1.087-1.904l2.796-4.896h0.155
		c-0.422-2.332-1.808-4.232-3.635-5.087l1.828,3.2l-2.797,4.896h-5.595l-2.798-4.896l2.109-3.692h-2.303l-1.687,2.955h-5.595
		l-1.688-2.955h-2.043l2.111,3.692l-2.799,4.896h-5.594l-2.797-4.896l2.108-3.692h-2.302l-1.688,2.955h-5.594l-1.688-2.955h-2.303
		l2.109,3.692l-2.799,4.896h-5.594l-2.797-4.896l2.109-3.692h-2.303l-1.688,2.955h-5.595l-1.688-2.955h-1.739l2.107,3.692
		l-2.797,4.896h-5.594l-2.798-4.896l2.108-3.692h-2.301l-1.688,2.955h-5.595l-1.688-2.955h-2.304l2.111,3.692l-2.799,4.896h-5.594
		l-2.797-4.896l2.108-3.692h-2.302l-1.689,2.955h-5.593l-1.687-2.955h-2.065l2.109,3.692l-2.798,4.896h-5.594l-2.797-4.896
		l2.109-3.692h-2.303l-1.688,2.955h-5.594l-1.688-2.955h-2.304l2.11,3.692l-2.799,4.896h-5.593l-2.798-4.896l2.109-3.692h-2.302
		l-1.688,2.955h-5.594l-1.687-2.955h-2.304l2.11,3.692l-2.798,4.896h-5.594l-2.798-4.896l2.11-3.692h-2.304l-1.688,2.955h-5.595
		l-1.687-2.955h-2.305l2.111,3.692l-2.799,4.896H289l-2.799-4.896l2.11-3.692h-2.304l-1.688,2.955h-5.594l-1.688-2.955h-2.303
		l2.109,3.692l-2.799,4.896h-5.592l-2.798-4.896l2.108-3.692h-2.303l-1.688,2.955h-5.592l-1.688-2.955h-2.304l2.11,3.692
		l-2.798,4.896h-5.593l-2.797-4.896l2.108-3.692h-2.304l-1.688,2.955h-5.595l-1.687-2.955h-2.303l2.109,3.692l-2.797,4.896h-5.596
		l-2.795-4.896l2.109-3.692h-2.303l-1.688,2.955h-5.596l-1.688-2.955h-2.302l2.109,3.692l-2.797,4.896h-5.594l-2.797-4.896
		l2.109-3.692h-2.304l-1.687,2.955h-5.598l-1.686-2.955h-2.303l2.108,3.692l-2.796,4.896h-5.594l-2.796-4.896l2.104-3.684
		c-2.782,0.079-5.088,2.436-5.656,5.57H181.447z"/>
</g>
<g>
	<path fill="#0C0C0C" d="M1033.586,11.633c0,3.912-2.658,7.083-5.938,7.083H756.68c-3.28,0-5.938-3.172-5.938-7.083l0,0
		c0-3.912,2.657-7.083,5.938-7.083h270.969C1030.928,4.549,1033.586,7.721,1033.586,11.633L1033.586,11.633z"/>
	<path fill="#3A3A3A" d="M752.264,10.128l2.797,4.896l-1.541,2.697c0.557,0.395,1.168,0.69,1.824,0.851l1.748-3.06h5.594l1.83,3.204
		h2.16l-2.111-3.692l2.796-4.896h5.599l2.797,4.896l-2.109,3.692h2.158l1.832-3.204h5.594l1.83,3.204h2.158l-2.108-3.692
		l2.796-4.896h5.596l2.797,4.896l-2.108,3.692h2.159l1.83-3.204h5.595l1.829,3.204h2.162l-2.109-3.692l2.795-4.896h5.596
		l2.797,4.896l-2.109,3.692h2.16l1.832-3.204h5.592l1.831,3.204h2.161l-2.109-3.692l2.797-4.896h5.594l2.797,4.896l-2.109,3.692
		h2.16l1.832-3.204h5.592l1.829,3.204h2.163l-2.109-3.692l2.797-4.896h5.594l2.797,4.896l-2.109,3.692h2.159l1.832-3.204h5.593
		l1.832,3.204h2.159l-2.108-3.692l2.795-4.896h5.596l2.797,4.896l-2.109,3.692h2.16l1.83-3.204h5.594l1.832,3.204h2.159
		l-2.108-3.692l2.797-4.896h5.594l2.797,4.896l-2.109,3.692h2.16l1.83-3.204h5.594l1.832,3.204h2.16l-2.109-3.692l2.797-4.896h5.594
		l2.797,4.896l-2.109,3.692h2.16l1.83-3.204h5.594l1.832,3.204h1.92l-2.107-3.692l2.795-4.896h5.594l2.799,4.896l-2.111,3.692h2.16
		l1.832-3.204h5.594l1.832,3.204h2.158l-2.107-3.692l2.796-4.896h5.595l2.797,4.896l-2.109,3.692h2.158l1.832-3.204h5.594
		l1.83,3.204h1.598l-2.107-3.692l2.795-4.896h5.596l2.795,4.896l-2.107,3.692h2.158l1.832-3.204h5.594l1.83,3.204h2.16l-2.107-3.692
		l2.797-4.896h5.593l2.798,4.896l-2.109,3.692h2.16l1.83-3.204h5.594l1.83,3.204h1.898l-2.107-3.692l2.797-4.896h5.594l2.799,4.896
		l-2.109,3.692h2.158l1.83-3.204h5.596l1.414,2.476c0.48-0.283,0.928-0.64,1.324-1.061l-1.087-1.904l2.796-4.896h0.156
		c-0.422-2.332-1.809-4.232-3.635-5.087l1.828,3.2l-2.797,4.896h-5.596l-2.797-4.896l2.109-3.692h-2.303l-1.688,2.955h-5.594
		l-1.688-2.955h-2.043l2.112,3.692l-2.799,4.896h-5.594l-2.797-4.896l2.107-3.692h-2.301l-1.688,2.955h-5.593l-1.688-2.955h-2.304
		l2.11,3.692l-2.799,4.896h-5.594l-2.798-4.896l2.11-3.692h-2.303l-1.688,2.955h-5.596l-1.688-2.955h-1.738l2.106,3.692
		l-2.796,4.896h-5.594l-2.799-4.896l2.108-3.692h-2.3l-1.688,2.955h-5.595l-1.688-2.955h-2.303l2.111,3.692l-2.799,4.896h-5.594
		l-2.797-4.896l2.107-3.692h-2.301l-1.689,2.955h-5.594l-1.686-2.955h-2.066l2.109,3.692l-2.797,4.896h-5.594l-2.798-4.896
		l2.11-3.692h-2.303l-1.688,2.955h-5.594l-1.688-2.955h-2.305l2.111,3.692l-2.799,4.896h-5.594l-2.797-4.896l2.109-3.692h-2.303
		l-1.688,2.955h-5.594l-1.688-2.955h-2.304l2.111,3.692l-2.799,4.896h-5.594l-2.797-4.896l2.109-3.692h-2.303l-1.688,2.955h-5.596
		l-1.687-2.955h-2.304l2.111,3.692l-2.799,4.896h-5.593l-2.798-4.896l2.109-3.692h-2.303l-1.688,2.955h-5.594l-1.688-2.955h-2.303
		l2.109,3.692l-2.799,4.896h-5.592l-2.799-4.896l2.109-3.692h-2.303l-1.688,2.955h-5.594l-1.688-2.955h-2.303l2.109,3.692
		l-2.799,4.896h-5.592l-2.797-4.896l2.107-3.692h-2.304l-1.687,2.955h-5.596l-1.686-2.955h-2.303l2.109,3.692l-2.798,4.896h-5.595
		l-2.795-4.896l2.109-3.692h-2.304l-1.688,2.955h-5.596l-1.688-2.955h-2.301l2.108,3.692l-2.796,4.896h-5.594l-2.797-4.896
		l2.109-3.692h-2.305l-1.686,2.955h-5.599l-1.685-2.955h-2.303l2.107,3.692l-2.795,4.896h-5.594l-2.797-4.896l2.104-3.684
		c-2.783,0.079-5.088,2.436-5.656,5.57H752.264z"/>
</g>
<g>
	<rect x="35.042" y="14.662" fill="#FFFFFF" width="1.533" height="6.071"/>
	<path fill="#FFFFFF" d="M48.93,16.402c-0.063-0.033-0.557-0.325-1.289-0.325c-0.992,0-1.68,0.69-1.68,1.619
		c0,0.903,0.66,1.621,1.68,1.621c0.721,0,1.221-0.286,1.289-0.321v1.629c-0.193,0.056-0.715,0.217-1.396,0.217
		c-1.724,0-3.236-1.188-3.236-3.146c0-1.812,1.369-3.143,3.236-3.143c0.719,0,1.252,0.176,1.396,0.219V16.402z"/>
	<path fill="#FFFFFF" d="M32.935,16.402c-0.062-0.033-0.554-0.325-1.287-0.325c-0.993,0-1.679,0.69-1.679,1.619
		c0,0.903,0.656,1.621,1.679,1.621c0.72,0,1.222-0.286,1.287-0.321v1.629c-0.19,0.056-0.712,0.217-1.397,0.217
		c-1.723,0-3.233-1.188-3.233-3.146c0-1.812,1.368-3.143,3.233-3.143c0.722,0,1.254,0.176,1.397,0.219V16.402z"/>
	<path fill="#FFFFFF" d="M56.959,17.696c0,1.737-1.342,3.146-3.209,3.146s-3.207-1.408-3.207-3.146c0-1.733,1.34-3.143,3.207-3.143
		S56.959,15.963,56.959,17.696 M53.75,16.1c-0.908,0-1.584,0.716-1.584,1.597c0,0.885,0.676,1.6,1.584,1.6s1.584-0.715,1.584-1.6
		C55.334,16.815,54.659,16.1,53.75,16.1"/>
	<path fill="#FFFFFF" d="M42.385,16.042c-0.023-0.007-0.668-0.187-1.198-0.187c-0.614,0-0.948,0.206-0.948,0.498
		c0,0.371,0.451,0.5,0.703,0.579l0.422,0.135c0.996,0.315,1.448,0.997,1.448,1.737c0,1.524-1.342,2.037-2.514,2.037
		c-0.816,0-1.579-0.149-1.654-0.165v-1.397c0.136,0.033,0.778,0.225,1.447,0.225c0.762,0,1.112-0.223,1.112-0.566
		c0-0.309-0.303-0.484-0.682-0.604c-0.095-0.03-0.234-0.075-0.328-0.105c-0.854-0.271-1.565-0.771-1.565-1.776
		c0-1.137,0.85-1.899,2.263-1.899c0.746,0,1.449,0.182,1.494,0.194V16.042z"/>
	<path fill="#FFFFFF" d="M26.678,8.136c0-0.419-0.34-0.758-0.76-0.758c-0.419,0-0.761,0.339-0.761,0.758v1.594
		c0,0.422,0.342,0.762,0.761,0.762c0.42,0,0.76-0.34,0.76-0.762V8.136z"/>
	<path fill="#FFFFFF" d="M30.858,6.043c0-0.418-0.341-0.759-0.761-0.759c-0.419,0-0.759,0.341-0.759,0.759v3.687
		c0,0.422,0.34,0.761,0.759,0.761c0.42,0,0.761-0.339,0.761-0.761V6.043z"/>
	<path fill="#FFFFFF" d="M35.037,3.18c0-0.418-0.342-0.756-0.761-0.756c-0.42,0-0.76,0.338-0.76,0.756v8.065
		c0,0.421,0.34,0.759,0.76,0.759c0.419,0,0.761-0.338,0.761-0.759V3.18z"/>
	<path fill="#FFFFFF" d="M39.215,6.043c0-0.418-0.342-0.759-0.762-0.759c-0.418,0-0.759,0.341-0.759,0.759v3.687
		c0,0.422,0.341,0.761,0.759,0.761c0.42,0,0.762-0.339,0.762-0.761V6.043z"/>
	<path fill="#FFFFFF" d="M43.389,8.136c0-0.419-0.339-0.758-0.755-0.758c-0.42,0-0.761,0.339-0.761,0.758v1.594
		c0,0.422,0.341,0.762,0.761,0.762c0.416,0,0.755-0.34,0.755-0.762V8.136z"/>
	<path fill="#FFFFFF" d="M47.571,6.043c0-0.418-0.34-0.759-0.758-0.759s-0.76,0.341-0.76,0.759v3.687
		c0,0.422,0.342,0.761,0.76,0.761s0.758-0.339,0.758-0.761V6.043z"/>
	<path fill="#FFFFFF" d="M51.752,3.18c0-0.418-0.34-0.756-0.759-0.756s-0.759,0.338-0.759,0.756v8.065
		c0,0.421,0.34,0.759,0.759,0.759s0.759-0.338,0.759-0.759V3.18z"/>
	<path fill="#FFFFFF" d="M55.932,6.043c0-0.418-0.338-0.759-0.768-0.759c-0.418,0-0.758,0.341-0.758,0.759v3.687
		c0,0.422,0.34,0.761,0.758,0.761c0.43,0,0.768-0.339,0.768-0.761V6.043z"/>
	<path fill="#FFFFFF" d="M60.105,8.136c0-0.419-0.341-0.758-0.759-0.758c-0.42,0-0.76,0.339-0.76,0.758v1.594
		c0,0.422,0.34,0.762,0.76,0.762c0.418,0,0.759-0.34,0.759-0.762V8.136z"/>
</g>
<g>
	<path fill="#FAFBFD" d="M135.394,9.341l-0.807,1.349h0.601v6.036v0.537v0.485l-1.371-1.37c-0.125-0.125-0.195-0.296-0.195-0.471
		v-1.211c0.25-0.109,0.425-0.36,0.425-0.651c0-0.393-0.317-0.711-0.711-0.711c-0.392,0-0.71,0.318-0.71,0.711
		c0,0.349,0.25,0.638,0.581,0.699v1.163c0,0.284,0.116,0.562,0.318,0.764l1.473,1.473c0.123,0.123,0.191,0.287,0.191,0.46v0.181
		v0.479c-0.537,0.097-0.943,0.567-0.943,1.129c0,0.636,0.514,1.151,1.149,1.151c0.637,0,1.15-0.515,1.15-1.151
		c0-0.563-0.407-1.032-0.942-1.129v-0.479v-0.181v-1.341v-0.537c0-0.173,0.067-0.335,0.188-0.457l1.412-1.411
		c0.203-0.204,0.315-0.474,0.315-0.761v-1.02h0.541v-1.349h-1.35v1.349h0.393v1.02c0,0.176-0.068,0.342-0.194,0.467l-1.306,1.306
		V10.69h0.599L135.394,9.341z"/>
</g>
<path fill="#FFFFC4" d="M71.929,10.048c0,0.527-0.428,0.955-0.955,0.955h-6.761c-0.527,0-0.954-0.428-0.954-0.955V9.133
	c0-0.527,0.427-0.954,0.954-0.954h6.761c0.527,0,0.955,0.427,0.955,0.954V10.048z"/>
<path fill="#B2B2B2" d="M81.752,10.048c0,0.527-0.428,0.955-0.955,0.955h-6.761c-0.527,0-0.954-0.428-0.954-0.955V9.133
	c0-0.527,0.427-0.954,0.954-0.954h6.761c0.527,0,0.955,0.427,0.955,0.954V10.048z"/>
<path fill="#B2B2B2" d="M91.575,10.048c0,0.527-0.428,0.955-0.955,0.955h-6.76c-0.527,0-0.955-0.428-0.955-0.955V9.133
	c0-0.527,0.427-0.954,0.955-0.954h6.76c0.527,0,0.955,0.427,0.955,0.954V10.048z"/>
<path fill="#B2B2B2" d="M101.325,10.048c0,0.527-0.428,0.955-0.955,0.955h-6.76c-0.527,0-0.955-0.428-0.955-0.955V9.133
	c0-0.527,0.427-0.954,0.955-0.954h6.76c0.527,0,0.955,0.427,0.955,0.954V10.048z"/>
<path fill="#FFFFC4" d="M71.929,15.9c0,0.527-0.428,0.954-0.955,0.954h-6.761c-0.527,0-0.954-0.427-0.954-0.954v-0.915
	c0-0.527,0.427-0.955,0.954-0.955h6.761c0.527,0,0.955,0.428,0.955,0.955V15.9z"/>
<path fill="#FFFFC4" d="M81.752,15.9c0,0.527-0.427,0.954-0.955,0.954h-6.76c-0.527,0-0.955-0.427-0.955-0.954v-0.915
	c0-0.527,0.427-0.955,0.955-0.955h6.76c0.527,0,0.955,0.428,0.955,0.955V15.9z"/>
<g>
	<path fill="#070707" d="M1271.988,11.633c0,3.912-2.658,7.083-5.938,7.083h-221.626c-3.279,0-5.938-3.172-5.938-7.083l0,0
		c0-3.912,2.658-7.083,5.938-7.083h221.626C1269.33,4.549,1271.988,7.721,1271.988,11.633L1271.988,11.633z"/>
	<g>
		<defs>
			<path id="SVGID_1_" d="M1271.988,11.633c0,3.912-2.658,7.083-5.938,7.083h-221.626c-3.279,0-5.938-3.172-5.938-7.083l0,0
				c0-3.912,2.658-7.083,5.938-7.083h221.626C1269.33,4.549,1271.988,7.721,1271.988,11.633L1271.988,11.633z"/>
		</defs>
		<clipPath id="SVGID_2_">
			<use xlink:href="#SVGID_1_"  overflow="visible"/>
		</clipPath>
		<path clip-path="url(#SVGID_2_)" fill="#3A3A3A" d="M1007.068,10.128l2.797,4.896l-1.541,2.697
			c0.557,0.395,1.168,0.69,1.824,0.851l1.748-3.06h5.594l1.829,3.204h2.161l-2.111-3.692l2.797-4.896h5.598l2.797,4.896
			l-2.109,3.692h2.158l1.831-3.204h5.595l1.83,3.204h2.158l-2.107-3.692l2.795-4.896h5.596l2.797,4.896l-2.107,3.692h2.158
			l1.829-3.204h5.597l1.828,3.204h2.161l-2.108-3.692l2.795-4.896h5.596l2.797,4.896l-2.109,3.692h2.16l1.832-3.204h5.592
			l1.832,3.204h2.16l-2.109-3.692l2.797-4.896h5.594l2.796,4.896l-2.108,3.692h2.16l1.832-3.204h5.592l1.83,3.204h2.162
			l-2.109-3.692l2.797-4.896h5.593l2.798,4.896l-2.109,3.692h2.16l1.832-3.204h5.592l1.832,3.204h2.16l-2.109-3.692l2.795-4.896
			h5.595l2.798,4.896l-2.109,3.692h2.16l1.83-3.204h5.594l1.832,3.204h2.16l-2.109-3.692l2.797-4.896h5.594l2.797,4.896
			l-2.109,3.692h2.16l1.83-3.204h5.594l1.832,3.204h2.16l-2.109-3.692l2.797-4.896h5.594l2.797,4.896l-2.109,3.692h2.16l1.83-3.204
			h5.594l1.832,3.204h1.92l-2.107-3.692l2.795-4.896h5.594l2.799,4.896l-2.111,3.692h2.16l1.832-3.204h5.594l1.831,3.204h2.159
			l-2.107-3.692l2.795-4.896h5.596l2.797,4.896l-2.109,3.692h2.158l1.832-3.204h5.594l1.83,3.204h1.598l-2.107-3.692l2.795-4.896
			h5.596l2.795,4.896l-2.107,3.692h2.158l1.832-3.204h5.594l1.83,3.204h2.16l-2.107-3.692l2.796-4.896h5.595l2.797,4.896
			l-2.109,3.692h2.16l1.83-3.204h5.594l1.83,3.204h1.898l-2.107-3.692l2.797-4.896h5.594l2.799,4.896l-2.109,3.692h2.158l1.83-3.204
			h5.596l1.414,2.476c0.48-0.283,0.928-0.64,1.324-1.061l-1.086-1.904l2.795-4.896h0.156c-0.423-2.332-1.809-4.232-3.635-5.087
			l1.828,3.2l-2.797,4.896h-5.596l-2.797-4.896l2.109-3.692h-2.303l-1.688,2.955h-5.594l-1.688-2.955h-2.043l2.11,3.692
			l-2.798,4.896h-5.594l-2.797-4.896l2.107-3.692h-2.301l-1.688,2.955h-5.595l-1.687-2.955h-2.303l2.109,3.692l-2.799,4.896h-5.594
			l-2.797-4.896l2.108-3.692h-2.302l-1.688,2.955h-5.596l-1.688-2.955h-1.738l2.107,3.692l-2.797,4.896h-5.594l-2.799-4.896
			l2.109-3.692h-2.301l-1.688,2.955h-5.596l-1.688-2.955h-2.303l2.111,3.692l-2.799,4.896h-5.594l-2.797-4.896l2.107-3.692h-2.302
			l-1.688,2.955h-5.594l-1.686-2.955h-2.066l2.109,3.692l-2.797,4.896h-5.594l-2.797-4.896l2.108-3.692h-2.302l-1.688,2.955h-5.594
			l-1.688-2.955h-2.305l2.111,3.692l-2.799,4.896h-5.594l-2.797-4.896l2.109-3.692h-2.303l-1.688,2.955h-5.594l-1.688-2.955h-2.305
			l2.111,3.692l-2.799,4.896h-5.594l-2.797-4.896l2.109-3.692h-2.303l-1.688,2.955h-5.595l-1.686-2.955h-2.306l2.112,3.692
			l-2.799,4.896h-5.592l-2.799-4.896l2.109-3.692h-2.303l-1.688,2.955h-5.593l-1.688-2.955h-2.303l2.109,3.692l-2.799,4.896h-5.592
			l-2.798-4.896l2.108-3.692h-2.303l-1.688,2.955h-5.594l-1.688-2.955h-2.303l2.109,3.692l-2.799,4.896h-5.592l-2.798-4.896
			l2.108-3.692h-2.303l-1.688,2.955h-5.596l-1.687-2.955h-2.302l2.109,3.692l-2.797,4.896h-5.597l-2.794-4.896l2.109-3.692h-2.303
			l-1.689,2.955h-5.596l-1.688-2.955h-2.301l2.109,3.692l-2.797,4.896h-5.595l-2.796-4.896l2.109-3.692h-2.305l-1.686,2.955h-5.598
			l-1.686-2.955h-2.303l2.107,3.692l-2.795,4.896h-5.594l-2.797-4.896l2.104-3.684c-2.783,0.079-5.088,2.436-5.656,5.57H1007.068z"
			/>
	</g>
</g>
<g>
	<path fill="#AAAAAA" d="M1221.148,57.906c0,4.486-3.637,8.123-8.123,8.123h-124.391c-4.485,0-8.122-3.637-8.122-8.123l0,0
		c0-4.486,3.637-8.122,8.122-8.122h124.391C1217.512,49.784,1221.148,53.42,1221.148,57.906L1221.148,57.906z"/>
	<text transform="matrix(1 0 0 1 1100.9844 60.8643)" fill="#4C4C4B" font-family="'Helvetica'" font-size="8.9299">Catalyst 3650  24 4x1G</text>
</g>
<g>
	<path fill="#0C0C0C" d="M1240.33,35.698c0,4.833-3.917,8.75-8.75,8.75h-158.5c-4.832,0-8.75-3.917-8.75-8.75l0,0
		c0-4.833,3.918-8.75,8.75-8.75h158.5C1236.413,26.948,1240.33,30.865,1240.33,35.698L1240.33,35.698z"/>
	<g>
		<defs>
			<path id="SVGID_3_" d="M1240.33,35.698c0,4.833-3.917,8.75-8.75,8.75h-158.5c-4.832,0-8.75-3.917-8.75-8.75l0,0
				c0-4.833,3.918-8.75,8.75-8.75h158.5C1236.413,26.948,1240.33,30.865,1240.33,35.698L1240.33,35.698z"/>
		</defs>
		<clipPath id="SVGID_4_">
			<use xlink:href="#SVGID_3_"  overflow="visible"/>
		</clipPath>
		<path clip-path="url(#SVGID_4_)" fill="#3A3A3A" d="M1016.618,33.867l3.404,5.958l-1.876,3.283c0.68,0.48,1.422,0.84,2.221,1.035
			l2.127-3.724h6.809l2.227,3.899h2.629l-2.568-4.494l3.403-5.958h6.813l3.403,5.958l-2.566,4.494h2.628l2.229-3.899h6.808
			l2.228,3.899h2.628l-2.566-4.494l3.402-5.958h6.811l3.404,5.958l-2.566,4.494h2.628l2.227-3.899h6.81l2.227,3.899h2.631
			l-2.568-4.494l3.403-5.958h6.81l3.404,5.958l-2.567,4.494h2.63l2.229-3.899h6.807l2.229,3.899h2.629l-2.567-4.494l3.405-5.958
			h6.807l3.404,5.958l-2.567,4.494h2.63l2.229-3.899h6.806l2.228,3.899h2.631l-2.567-4.494l3.405-5.958h6.807l3.404,5.958
			l-2.566,4.494h2.629l2.229-3.899h6.807l2.229,3.899h2.629l-2.567-4.494l3.402-5.958h6.81l3.403,5.958l-2.566,4.494h2.629
			l2.229-3.899h6.809l2.229,3.899h2.629l-2.568-4.494l3.404-5.958h6.809l3.403,5.958l-2.567,4.494h2.629l2.229-3.899h6.807
			l2.23,3.899h2.629l-2.567-4.494l3.403-5.958h6.809l3.404,5.958l-2.567,4.494h2.629l2.227-3.899h6.809l2.229,3.899h2.337
			l-2.565-4.494l3.403-5.958h6.807l3.406,5.958l-2.568,4.494h2.63l2.229-3.899h6.807l2.23,3.899h2.627l-2.565-4.494l3.403-5.958
			h6.809l3.404,5.958l-2.567,4.494h2.628l2.229-3.899h6.808l2.228,3.899h1.945l-2.566-4.494l3.403-5.958h6.81l3.402,5.958
			l-2.566,4.494h2.629l2.228-3.899h6.808l2.229,3.899h2.629l-2.565-4.494l3.403-5.958h6.809l3.404,5.958l-2.566,4.494h2.628
			l2.228-3.899h6.808l2.228,3.899h2.312l-2.565-4.494l3.403-5.958h6.81l3.404,5.958l-2.567,4.494h2.628l2.229-3.899h6.808
			l1.722,3.013c0.586-0.344,1.129-0.778,1.612-1.291l-1.322-2.317l3.403-5.958h0.188c-0.514-2.838-2.2-5.15-4.424-6.191l2.226,3.895
			l-3.405,5.958h-6.808l-3.406-5.958l2.567-4.494h-2.802l-2.053,3.596h-6.81l-2.054-3.596h-2.486l2.569,4.494l-3.406,5.958h-6.808
			l-3.404-5.958l2.566-4.494h-2.802l-2.054,3.596h-6.809l-2.053-3.596h-2.803l2.566,4.494l-3.406,5.958h-6.808l-3.403-5.958
			l2.566-4.494h-2.803l-2.053,3.596h-6.81l-2.054-3.596h-2.117l2.564,4.494l-3.403,5.958h-6.808l-3.405-5.958l2.565-4.494h-2.8
			l-2.054,3.596h-6.809l-2.055-3.596h-2.803l2.568,4.494l-3.406,5.958h-6.807l-3.404-5.958l2.566-4.494h-2.803l-2.056,3.596h-6.807
			l-2.053-3.596h-2.514l2.567,4.494l-3.405,5.958h-6.809l-3.403-5.958l2.567-4.494h-2.803l-2.054,3.596h-6.809l-2.053-3.596h-2.805
			l2.568,4.494l-3.406,5.958h-6.807l-3.404-5.958l2.566-4.494h-2.803l-2.053,3.596h-6.809l-2.054-3.596h-2.804l2.568,4.494
			l-3.404,5.958h-6.809l-3.405-5.958l2.568-4.494h-2.804l-2.054,3.596h-6.81l-2.053-3.596h-2.805l2.57,4.494l-3.406,5.958h-6.807
			l-3.406-5.958l2.568-4.494h-2.803l-2.055,3.596h-6.807l-2.055-3.596h-2.803l2.567,4.494l-3.406,5.958h-6.806l-3.404-5.958
			l2.565-4.494h-2.803l-2.054,3.596h-6.807l-2.054-3.596h-2.804l2.566,4.494l-3.404,5.958h-6.807l-3.404-5.958l2.566-4.494h-2.805
			l-2.053,3.596h-6.81l-2.053-3.596h-2.802l2.566,4.494l-3.404,5.958h-6.81l-3.401-5.958l2.566-4.494h-2.803l-2.055,3.596h-6.811
			l-2.054-3.596h-2.801l2.567,4.494l-3.404,5.958h-6.808l-3.404-5.958l2.567-4.494h-2.804l-2.053,3.596h-6.813l-2.052-3.596h-2.803
			l2.566,4.494l-3.402,5.958h-6.809l-3.404-5.958l2.561-4.483c-3.386,0.096-6.191,2.965-6.884,6.779H1016.618z"/>
	</g>
</g>
<text transform="matrix(1 0 0 1 1077.1172 115.7266)" fill="#D5D5D5" font-family="'Helvetica'" font-size="6">G1</text>
<text transform="matrix(1 0 0 1 1024.7012 116.6846)" fill="#D5D5D5" font-family="'Helvetica'" font-size="4">24X</text>
<text transform="matrix(1 0 0 1 750.1582 116.6846)" fill="#D5D5D5" font-family="'Helvetica'" font-size="4">13X</text>
<text transform="matrix(1 0 0 1 740.4512 116.6846)" fill="#D5D5D5" font-family="'Helvetica'" font-size="4">12X</text>
<text transform="matrix(1 0 0 1 465.9087 116.6846)" fill="#D5D5D5" font-family="'Helvetica'" font-size="4">01X</text>
<rect x="1086.014" y="111.936" fill="#D5D5D5" width="7.817" height="3.5"/>
<text transform="matrix(1 0 0 1 1121.1406 115.7266)" fill="#D5D5D5" font-family="'Helvetica'" font-size="6">G2</text>
<rect x="1130.037" y="111.936" fill="#D5D5D5" width="7.816" height="3.5"/>
<text transform="matrix(1 0 0 1 1163.8066 115.7266)" fill="#D5D5D5" font-family="'Helvetica'" font-size="6">G3</text>
<rect x="1172.703" y="111.936" fill="#D5D5D5" width="7.816" height="3.5"/>
<text transform="matrix(1 0 0 1 1206.4746 115.7266)" fill="#D5D5D5" font-family="'Helvetica'" font-size="6">G4</text>
<rect x="1215.369" y="111.936" fill="#D5D5D5" width="7.818" height="3.5"/>
<g>
	<rect x="772.225" y="114.186" fill="#D5D5D5" width="7" height="2.5"/>
	<polygon fill="#515151" points="774.727,116.08 775.725,114.602 776.723,116.08 	"/>
	<rect x="780.641" y="114.186" fill="#D5D5D5" width="7" height="2.5"/>
	<polygon fill="#515151" points="785.139,114.695 784.141,116.174 783.143,114.695 	"/>
</g>
<g>
	<rect x="817.787" y="114.186" fill="#D5D5D5" width="7" height="2.5"/>
	<polygon fill="#515151" points="820.289,116.08 821.287,114.602 822.285,116.08 	"/>
	<rect x="826.203" y="114.186" fill="#D5D5D5" width="7" height="2.5"/>
	<polygon fill="#515151" points="830.701,114.695 829.703,116.174 828.705,114.695 	"/>
</g>
<g>
	<rect x="863.349" y="114.186" fill="#D5D5D5" width="7" height="2.5"/>
	<polygon fill="#515151" points="865.851,116.08 866.849,114.602 867.847,116.08 	"/>
	<rect x="871.766" y="114.186" fill="#D5D5D5" width="7" height="2.5"/>
	<polygon fill="#515151" points="876.264,114.695 875.266,116.174 874.268,114.695 	"/>
</g>
<g>
	<rect x="908.91" y="114.186" fill="#D5D5D5" width="7" height="2.5"/>
	<polygon fill="#515151" points="911.412,116.08 912.41,114.602 913.408,116.08 	"/>
	<rect x="917.327" y="114.186" fill="#D5D5D5" width="7" height="2.5"/>
	<polygon fill="#515151" points="921.825,114.695 920.827,116.174 919.829,114.695 	"/>
</g>
<g>
	<rect x="954.473" y="114.186" fill="#D5D5D5" width="7" height="2.5"/>
	<polygon fill="#515151" points="956.975,116.08 957.973,114.602 958.971,116.08 	"/>
	<rect x="962.889" y="114.186" fill="#D5D5D5" width="7" height="2.5"/>
	<polygon fill="#515151" points="967.387,114.695 966.389,116.174 965.391,114.695 	"/>
</g>
<g>
	<rect x="1000.035" y="114.186" fill="#D5D5D5" width="7" height="2.5"/>
	<polygon fill="#515151" points="1002.537,116.08 1003.535,114.602 1004.533,116.08 	"/>
	<rect x="1008.451" y="114.186" fill="#D5D5D5" width="7" height="2.5"/>
	<polygon fill="#515151" points="1012.949,114.695 1011.951,116.174 1010.953,114.695 	"/>
</g>
<g>
	<rect x="486.006" y="114.186" fill="#D5D5D5" width="7" height="2.5"/>
	<polygon fill="#515151" points="488.508,116.08 489.506,114.602 490.504,116.08 	"/>
	<rect x="494.423" y="114.186" fill="#D5D5D5" width="7" height="2.5"/>
	<polygon fill="#515151" points="498.921,114.695 497.923,116.174 496.925,114.695 	"/>
</g>
<g>
	<rect x="531.568" y="114.186" fill="#D5D5D5" width="7" height="2.5"/>
	<polygon fill="#515151" points="534.07,116.08 535.068,114.602 536.066,116.08 	"/>
	<rect x="539.985" y="114.186" fill="#D5D5D5" width="7" height="2.5"/>
	<polygon fill="#515151" points="544.483,114.695 543.485,116.174 542.487,114.695 	"/>
</g>
<g>
	<rect x="577.13" y="114.186" fill="#D5D5D5" width="7" height="2.5"/>
	<polygon fill="#515151" points="579.632,116.08 580.63,114.602 581.628,116.08 	"/>
	<rect x="585.547" y="114.186" fill="#D5D5D5" width="7" height="2.5"/>
	<polygon fill="#515151" points="590.045,114.695 589.047,116.174 588.049,114.695 	"/>
</g>
<g>
	<rect x="622.692" y="114.186" fill="#D5D5D5" width="7" height="2.5"/>
	<polygon fill="#515151" points="625.194,116.08 626.192,114.602 627.19,116.08 	"/>
	<rect x="631.109" y="114.186" fill="#D5D5D5" width="7" height="2.5"/>
	<polygon fill="#515151" points="635.607,114.695 634.609,116.174 633.611,114.695 	"/>
</g>
<g>
	<rect x="668.254" y="114.186" fill="#D5D5D5" width="7" height="2.5"/>
	<polygon fill="#515151" points="670.756,116.08 671.754,114.602 672.752,116.08 	"/>
	<rect x="676.671" y="114.186" fill="#D5D5D5" width="7" height="2.5"/>
	<polygon fill="#515151" points="681.169,114.695 680.171,116.174 679.173,114.695 	"/>
</g>
<g>
	<rect x="713.816" y="114.186" fill="#D5D5D5" width="7" height="2.5"/>
	<polygon fill="#515151" points="716.318,116.08 717.316,114.602 718.314,116.08 	"/>
	<rect x="722.232" y="114.186" fill="#D5D5D5" width="7" height="2.5"/>
	<polygon fill="#515151" points="726.73,114.695 725.732,116.174 724.734,114.695 	"/>
</g>
</svg>
