<?xml version="1.0" encoding="utf-8"?>
<!-- Generator: Adobe Illustrator 19.0.0, SVG Export Plug-In . SVG Version: 6.00 Build 0)  -->
<svg version="1.1" id="图层_1" xmlns="http://www.w3.org/2000/svg" xmlns:xlink="http://www.w3.org/1999/xlink" x="0px" y="0px"
	 width="1275.6px" height="126px" viewBox="0 0 1275.6 126" style="enable-background:new 0 0 1275.6 126;" xml:space="preserve">
<style type="text/css">
	.st0{fill:#E5E5E5;stroke:#666666;stroke-width:1.7008;stroke-miterlimit:10;}
	.st1{fill:#D3D3D3;stroke:#515151;stroke-width:2.2677;stroke-miterlimit:10;}
	.st2{fill:#FFF57F;}
	.st3{fill:#666666;}
	.st4{fill:#515151;}
	.st5{font-family:'ArialMT';}
	.st6{font-size:10.6439px;}
	.st7{font-size:6px;}
	.st8{fill:#D3D3D3;stroke:#515151;stroke-width:0.5669;stroke-miterlimit:10;}
	.st9{font-family:'Helvetica';}
</style>
<rect id="XMLID_1452_" x="0.9" y="0.9" class="st0" width="1273.9" height="124.3"/>
<path id="XMLID_3565_" class="st1" d="M1155.6,95.6H1051c-0.8,0-1.4-0.6-1.4-1.4V21.5c0-0.8,0.6-1.4,1.4-1.4h104.6
	c0.8,0,1.4,0.6,1.4,1.4v72.6C1157,94.9,1156.4,95.6,1155.6,95.6z"/>
<g id="XMLID_1453_">
	<path id="XMLID_1454_" class="st1" d="M261.2,95.6H17.4c-0.8,0-1.4-0.6-1.4-1.4V21.5c0-0.8,0.6-1.4,1.4-1.4h243.8
		c0.8,0,1.4,0.6,1.4,1.4v72.6C262.6,94.9,262,95.6,261.2,95.6z"/>
</g>
<g id="XMLID_1904_">
	<rect id="XMLID_1952_" x="21.1" y="101.8" class="st2" width="38.1" height="8.2"/>
	<rect id="XMLID_1951_" x="60.8" y="101.8" class="st2" width="38.1" height="8.2"/>
	<rect id="XMLID_1950_" x="100.4" y="101.8" class="st2" width="38.1" height="8.2"/>
	<rect id="XMLID_1949_" x="140.1" y="101.8" class="st2" width="38.1" height="8.2"/>
	<rect id="XMLID_1948_" x="179.7" y="101.8" class="st2" width="38.1" height="8.2"/>
	<rect id="XMLID_1947_" x="219.4" y="101.8" class="st2" width="38.1" height="8.2"/>
</g>
<g id="XMLID_3317_">
	<g id="XMLID_3314_">
		<polygon id="XMLID_3316_" class="st3" points="49.1,108.7 46.8,103.2 51.3,103.2 		"/>
		<polygon id="XMLID_3315_" class="st3" points="32,103.2 34.3,108.7 29.7,108.7 		"/>
	</g>
	<g id="XMLID_3311_">
		<polygon id="XMLID_3313_" class="st3" points="88.9,108.7 86.6,103.2 91.2,103.2 		"/>
		<polygon id="XMLID_3312_" class="st3" points="71.8,103.2 74.1,108.7 69.6,108.7 		"/>
	</g>
	<g id="XMLID_3308_">
		<polygon id="XMLID_3310_" class="st3" points="128.7,108.7 126.5,103.2 131,103.2 		"/>
		<polygon id="XMLID_3309_" class="st3" points="111.7,103.2 113.9,108.7 109.4,108.7 		"/>
	</g>
	<g id="XMLID_3305_">
		<polygon id="XMLID_3307_" class="st3" points="168.6,108.7 166.3,103.2 170.8,103.2 		"/>
		<polygon id="XMLID_3306_" class="st3" points="151.5,103.2 153.8,108.7 149.3,108.7 		"/>
	</g>
	<g id="XMLID_3302_">
		<polygon id="XMLID_3304_" class="st3" points="208.4,108.7 206.1,103.2 210.7,103.2 		"/>
		<polygon id="XMLID_3303_" class="st3" points="191.4,103.2 193.6,108.7 189.1,108.7 		"/>
	</g>
	<g id="XMLID_1905_">
		<polygon id="XMLID_3301_" class="st3" points="248.2,108.7 246,103.2 250.5,103.2 		"/>
		<polygon id="XMLID_3300_" class="st3" points="231.2,103.2 233.5,108.7 228.9,108.7 		"/>
	</g>
</g>
<g id="XMLID_2022_">
	<path id="XMLID_2470_" class="st1" d="M519.7,95.6H275.9c-0.8,0-1.4-0.6-1.4-1.4V21.5c0-0.8,0.6-1.4,1.4-1.4h243.8
		c0.8,0,1.4,0.6,1.4,1.4v72.6C521.1,94.9,520.5,95.6,519.7,95.6z"/>
</g>
<g id="XMLID_1973_">
	<rect id="XMLID_2021_" x="279.6" y="101.8" class="st2" width="38.1" height="8.2"/>
	<rect id="XMLID_2020_" x="319.3" y="101.8" class="st2" width="38.1" height="8.2"/>
	<rect id="XMLID_2019_" x="358.9" y="101.8" class="st2" width="38.1" height="8.2"/>
	<rect id="XMLID_2018_" x="398.6" y="101.8" class="st2" width="38.1" height="8.2"/>
	<rect id="XMLID_2017_" x="438.2" y="101.8" class="st2" width="38.1" height="8.2"/>
	<rect id="XMLID_2016_" x="477.9" y="101.8" class="st2" width="38.1" height="8.2"/>
</g>
<g id="XMLID_1954_">
	<g id="XMLID_1970_">
		<polygon id="XMLID_1972_" class="st3" points="307.5,108.7 305.3,103.2 309.8,103.2 		"/>
		<polygon id="XMLID_1971_" class="st3" points="290.5,103.2 292.7,108.7 288.2,108.7 		"/>
	</g>
	<g id="XMLID_1967_">
		<polygon id="XMLID_1969_" class="st3" points="347.4,108.7 345.1,103.2 349.6,103.2 		"/>
		<polygon id="XMLID_1968_" class="st3" points="330.3,103.2 332.6,108.7 328,108.7 		"/>
	</g>
	<g id="XMLID_1964_">
		<polygon id="XMLID_1966_" class="st3" points="387.2,108.7 384.9,103.2 389.5,103.2 		"/>
		<polygon id="XMLID_1965_" class="st3" points="370.2,103.2 372.4,108.7 367.9,108.7 		"/>
	</g>
	<g id="XMLID_1961_">
		<polygon id="XMLID_1963_" class="st3" points="427,108.7 424.8,103.2 429.3,103.2 		"/>
		<polygon id="XMLID_1962_" class="st3" points="410,103.2 412.3,108.7 407.7,108.7 		"/>
	</g>
	<g id="XMLID_1958_">
		<polygon id="XMLID_1960_" class="st3" points="466.9,108.7 464.6,103.2 469.1,103.2 		"/>
		<polygon id="XMLID_1959_" class="st3" points="449.8,103.2 452.1,108.7 447.6,108.7 		"/>
	</g>
	<g id="XMLID_1955_">
		<polygon id="XMLID_1957_" class="st3" points="506.7,108.7 504.4,103.2 509,103.2 		"/>
		<polygon id="XMLID_1956_" class="st3" points="489.7,103.2 491.9,108.7 487.4,108.7 		"/>
	</g>
</g>
<g id="XMLID_2539_">
	<path id="XMLID_2987_" class="st1" d="M778.2,95.6H534.3c-0.8,0-1.4-0.6-1.4-1.4V21.5c0-0.8,0.6-1.4,1.4-1.4h243.8
		c0.8,0,1.4,0.6,1.4,1.4v72.6C779.6,94.9,779,95.6,778.2,95.6z"/>
</g>
<g id="XMLID_2490_">
	<rect id="XMLID_2538_" x="538.1" y="101.8" class="st2" width="38.1" height="8.2"/>
	<rect id="XMLID_2537_" x="577.7" y="101.8" class="st2" width="38.1" height="8.2"/>
	<rect id="XMLID_2536_" x="617.4" y="101.8" class="st2" width="38.1" height="8.2"/>
	<rect id="XMLID_2535_" x="657" y="101.8" class="st2" width="38.1" height="8.2"/>
	<rect id="XMLID_2534_" x="696.7" y="101.8" class="st2" width="38.1" height="8.2"/>
	<rect id="XMLID_2533_" x="736.3" y="101.8" class="st2" width="38.1" height="8.2"/>
</g>
<g id="XMLID_2471_">
	<g id="XMLID_2487_">
		<polygon id="XMLID_2489_" class="st3" points="566,108.7 563.7,103.2 568.3,103.2 		"/>
		<polygon id="XMLID_2488_" class="st3" points="549,103.2 551.2,108.7 546.7,108.7 		"/>
	</g>
	<g id="XMLID_2484_">
		<polygon id="XMLID_2486_" class="st3" points="605.8,108.7 603.6,103.2 608.1,103.2 		"/>
		<polygon id="XMLID_2485_" class="st3" points="588.8,103.2 591.1,108.7 586.5,108.7 		"/>
	</g>
	<g id="XMLID_2481_">
		<polygon id="XMLID_2483_" class="st3" points="645.7,108.7 643.4,103.2 647.9,103.2 		"/>
		<polygon id="XMLID_2482_" class="st3" points="628.6,103.2 630.9,108.7 626.4,108.7 		"/>
	</g>
	<g id="XMLID_2478_">
		<polygon id="XMLID_2480_" class="st3" points="685.5,108.7 683.2,103.2 687.8,103.2 		"/>
		<polygon id="XMLID_2479_" class="st3" points="668.5,103.2 670.7,108.7 666.2,108.7 		"/>
	</g>
	<g id="XMLID_2475_">
		<polygon id="XMLID_2477_" class="st3" points="725.3,108.7 723.1,103.2 727.6,103.2 		"/>
		<polygon id="XMLID_2476_" class="st3" points="708.3,103.2 710.6,108.7 706,108.7 		"/>
	</g>
	<g id="XMLID_2472_">
		<polygon id="XMLID_2474_" class="st3" points="765.2,108.7 762.9,103.2 767.5,103.2 		"/>
		<polygon id="XMLID_2473_" class="st3" points="748.1,103.2 750.4,108.7 745.9,108.7 		"/>
	</g>
</g>
<g id="XMLID_3056_">
	<path id="XMLID_3522_" class="st1" d="M1036.6,95.6H792.8c-0.8,0-1.4-0.6-1.4-1.4V21.5c0-0.8,0.6-1.4,1.4-1.4h243.8
		c0.8,0,1.4,0.6,1.4,1.4v72.6C1038.1,94.9,1037.4,95.6,1036.6,95.6z"/>
</g>
<rect id="XMLID_3055_" x="796.6" y="101.8" class="st2" width="38.1" height="8.2"/>
<rect id="XMLID_3054_" x="836.2" y="101.8" class="st2" width="38.1" height="8.2"/>
<rect id="XMLID_3053_" x="875.9" y="101.8" class="st2" width="38.1" height="8.2"/>
<rect id="XMLID_3052_" x="915.5" y="101.8" class="st2" width="38.1" height="8.2"/>
<rect id="XMLID_3051_" x="955.2" y="101.8" class="st2" width="38.1" height="8.2"/>
<rect id="XMLID_3050_" x="994.8" y="101.8" class="st2" width="38.1" height="8.2"/>
<g id="XMLID_3572_">
	<path id="XMLID_4020_" class="st1" d="M1213,95.6h-44.5c-0.8,0-1.4-0.6-1.4-1.4V21.5c0-0.8,0.6-1.4,1.4-1.4h44.5
		c0.8,0,1.4,0.6,1.4,1.4v72.6C1214.4,94.9,1213.8,95.6,1213,95.6z"/>
</g>
<g id="XMLID_3004_">
	<polygon id="XMLID_3006_" class="st3" points="824.5,108.7 822.2,103.2 826.7,103.2 	"/>
	<polygon id="XMLID_3005_" class="st3" points="807.4,103.2 809.7,108.7 805.2,108.7 	"/>
</g>
<g id="XMLID_3001_">
	<polygon id="XMLID_3003_" class="st3" points="864.3,108.7 862,103.2 866.6,103.2 	"/>
	<polygon id="XMLID_3002_" class="st3" points="847.3,103.2 849.5,108.7 845,108.7 	"/>
</g>
<g id="XMLID_2998_">
	<polygon id="XMLID_3000_" class="st3" points="904.1,108.7 901.9,103.2 906.4,103.2 	"/>
	<polygon id="XMLID_2999_" class="st3" points="887.1,103.2 889.4,108.7 884.8,108.7 	"/>
</g>
<g id="XMLID_2995_">
	<polygon id="XMLID_2997_" class="st3" points="944,108.7 941.7,103.2 946.2,103.2 	"/>
	<polygon id="XMLID_2996_" class="st3" points="926.9,103.2 929.2,108.7 924.7,108.7 	"/>
</g>
<g id="XMLID_2992_">
	<polygon id="XMLID_2994_" class="st3" points="983.8,108.7 981.6,103.2 986.1,103.2 	"/>
	<polygon id="XMLID_2993_" class="st3" points="966.8,103.2 969,108.7 964.5,108.7 	"/>
</g>
<g id="XMLID_2989_">
	<polygon id="XMLID_2991_" class="st3" points="1023.7,108.7 1021.4,103.2 1025.9,103.2 	"/>
	<polygon id="XMLID_2990_" class="st3" points="1006.6,103.2 1008.9,108.7 1004.3,108.7 	"/>
</g>
<g id="XMLID_1953_">
	<g id="XMLID_3542_">
		<g id="XMLID_3543_">
			<rect id="XMLID_3550_" x="1233.6" y="34.5" class="st4" width="1.3" height="5.1"/>
			<path id="XMLID_3549_" class="st4" d="M1245.3,36c-0.1,0-0.5-0.3-1.1-0.3c-0.8,0-1.4,0.6-1.4,1.4c0,0.8,0.6,1.4,1.4,1.4
				c0.6,0,1-0.2,1.1-0.3v1.4c-0.2,0-0.6,0.2-1.2,0.2c-1.5,0-2.7-1-2.7-2.7c0-1.5,1.2-2.7,2.7-2.7c0.6,0,1.1,0.1,1.2,0.2V36z"/>
			<path id="XMLID_3548_" class="st4" d="M1231.8,36c-0.1,0-0.5-0.3-1.1-0.3c-0.8,0-1.4,0.6-1.4,1.4c0,0.8,0.6,1.4,1.4,1.4
				c0.6,0,1-0.2,1.1-0.3v1.4c-0.2,0-0.6,0.2-1.2,0.2c-1.5,0-2.7-1-2.7-2.7c0-1.5,1.2-2.7,2.7-2.7c0.6,0,1.1,0.1,1.2,0.2V36z"/>
			<path id="XMLID_3545_" class="st4" d="M1252.1,37.1c0,1.5-1.1,2.7-2.7,2.7c-1.6,0-2.7-1.2-2.7-2.7c0-1.5,1.1-2.7,2.7-2.7
				C1250.9,34.4,1252.1,35.6,1252.1,37.1z M1249.4,35.7c-0.8,0-1.3,0.6-1.3,1.3c0,0.7,0.6,1.4,1.3,1.4c0.8,0,1.3-0.6,1.3-1.4
				C1250.7,36.3,1250.1,35.7,1249.4,35.7z"/>
			<path id="XMLID_3544_" class="st4" d="M1239.8,35.7c0,0-0.6-0.2-1-0.2c-0.5,0-0.8,0.2-0.8,0.4c0,0.3,0.4,0.4,0.6,0.5l0.4,0.1
				c0.8,0.3,1.2,0.8,1.2,1.5c0,1.3-1.1,1.7-2.1,1.7c-0.7,0-1.3-0.1-1.4-0.1v-1.2c0.1,0,0.7,0.2,1.2,0.2c0.6,0,0.9-0.2,0.9-0.5
				c0-0.3-0.3-0.4-0.6-0.5c-0.1,0-0.2-0.1-0.3-0.1c-0.7-0.2-1.3-0.7-1.3-1.5c0-1,0.7-1.6,1.9-1.6c0.6,0,1.2,0.2,1.3,0.2V35.7z"/>
		</g>
	</g>
	<path id="XMLID_3541_" class="st4" d="M1226.5,29c0-0.4-0.3-0.6-0.6-0.6c-0.4,0-0.6,0.3-0.6,0.6v1.3c0,0.4,0.3,0.6,0.6,0.6
		c0.4,0,0.6-0.3,0.6-0.6V29z"/>
	<path id="XMLID_3540_" class="st4" d="M1230,27.2c0-0.4-0.3-0.6-0.6-0.6c-0.4,0-0.6,0.3-0.6,0.6v3.1c0,0.4,0.3,0.6,0.6,0.6
		c0.4,0,0.6-0.3,0.6-0.6V27.2z"/>
	<path id="XMLID_3539_" class="st4" d="M1233.6,24.8c0-0.4-0.3-0.6-0.6-0.6c-0.4,0-0.6,0.3-0.6,0.6v6.8c0,0.4,0.3,0.6,0.6,0.6
		c0.4,0,0.6-0.3,0.6-0.6V24.8z"/>
	<path id="XMLID_3538_" class="st4" d="M1237.1,27.2c0-0.4-0.3-0.6-0.6-0.6c-0.4,0-0.6,0.3-0.6,0.6v3.1c0,0.4,0.3,0.6,0.6,0.6
		c0.4,0,0.6-0.3,0.6-0.6V27.2z"/>
	<path id="XMLID_3537_" class="st4" d="M1240.6,29c0-0.4-0.3-0.6-0.6-0.6c-0.4,0-0.6,0.3-0.6,0.6v1.3c0,0.4,0.3,0.6,0.6,0.6
		c0.4,0,0.6-0.3,0.6-0.6V29z"/>
	<path id="XMLID_3536_" class="st4" d="M1244.1,27.2c0-0.4-0.3-0.6-0.6-0.6c-0.4,0-0.6,0.3-0.6,0.6v3.1c0,0.4,0.3,0.6,0.6,0.6
		c0.4,0,0.6-0.3,0.6-0.6V27.2z"/>
	<path id="XMLID_3535_" class="st4" d="M1247.7,24.8c0-0.4-0.3-0.6-0.6-0.6c-0.4,0-0.6,0.3-0.6,0.6v6.8c0,0.4,0.3,0.6,0.6,0.6
		c0.4,0,0.6-0.3,0.6-0.6V24.8z"/>
	<path id="XMLID_3534_" class="st4" d="M1251.2,27.2c0-0.4-0.3-0.6-0.6-0.6c-0.4,0-0.6,0.3-0.6,0.6v3.1c0,0.4,0.3,0.6,0.6,0.6
		c0.4,0,0.6-0.3,0.6-0.6V27.2z"/>
	<path id="XMLID_3533_" class="st4" d="M1254.7,29c0-0.4-0.3-0.6-0.6-0.6c-0.4,0-0.6,0.3-0.6,0.6v1.3c0,0.4,0.3,0.6,0.6,0.6
		c0.4,0,0.6-0.3,0.6-0.6V29z"/>
</g>
<text id="XMLID_3551_" transform="matrix(0.75 0 0 1 1215.694 17.6149)" class="st4 st5 st6">Catalyst 4948E</text>
<text id="XMLID_1986_" transform="matrix(0.75 0 0 1 1235.7979 59.6244)" class="st4 st5 st7">PS1</text>
<text id="XMLID_1987_" transform="matrix(0.75 0 0 1 1235.7977 73.6846)" class="st4 st5 st7">PS2</text>
<text id="XMLID_1988_" transform="matrix(0.75 0 0 1 1235.7979 87.7441)" class="st4 st5 st7">FAN</text>
<text id="XMLID_1989_" transform="matrix(0.75 0 0 1 1220.7632 118.4053)" class="st4 st5 st7">STATUS</text>
<g id="XMLID_3615_">
	<circle id="XMLID_3584_" class="st8" cx="527.5" cy="108.5" r="6.7"/>
	<g id="XMLID_3614_">
		<path id="XMLID_3612_" class="st3" d="M527.8,112.5h-0.8c-0.3,0-0.6-0.3-0.6-0.6v-6.7c0-0.3,0.3-0.6,0.6-0.6h0.8
			c0.3,0,0.6,0.3,0.6,0.6v6.7C528.4,112.2,528.2,112.5,527.8,112.5z"/>
		<path id="XMLID_3613_" class="st3" d="M523.5,108.9v-0.8c0-0.3,0.3-0.6,0.6-0.6h6.7c0.3,0,0.6,0.3,0.6,0.6v0.8
			c0,0.3-0.3,0.6-0.6,0.6h-6.7C523.8,109.5,523.5,109.2,523.5,108.9z"/>
	</g>
</g>
<g id="XMLID_3617_">
	<circle id="XMLID_3621_" class="st8" cx="269.4" cy="108.5" r="6.7"/>
	<g id="XMLID_3618_">
		<path id="XMLID_3620_" class="st3" d="M269.7,112.5H269c-0.3,0-0.6-0.3-0.6-0.6v-6.7c0-0.3,0.3-0.6,0.6-0.6h0.8
			c0.3,0,0.6,0.3,0.6,0.6v6.7C270.3,112.2,270,112.5,269.7,112.5z"/>
		<path id="XMLID_3619_" class="st3" d="M265.4,108.9v-0.8c0-0.3,0.3-0.6,0.6-0.6h6.7c0.3,0,0.6,0.3,0.6,0.6v0.8
			c0,0.3-0.3,0.6-0.6,0.6H266C265.7,109.5,265.4,109.2,265.4,108.9z"/>
	</g>
</g>
<g id="XMLID_3622_">
	<circle id="XMLID_3626_" class="st8" cx="786" cy="108.5" r="6.7"/>
	<g id="XMLID_3623_">
		<path id="XMLID_3625_" class="st3" d="M786.3,112.5h-0.8c-0.3,0-0.6-0.3-0.6-0.6v-6.7c0-0.3,0.3-0.6,0.6-0.6h0.8
			c0.3,0,0.6,0.3,0.6,0.6v6.7C786.9,112.2,786.7,112.5,786.3,112.5z"/>
		<path id="XMLID_3624_" class="st3" d="M782,108.9v-0.8c0-0.3,0.3-0.6,0.6-0.6h6.7c0.3,0,0.6,0.3,0.6,0.6v0.8
			c0,0.3-0.3,0.6-0.6,0.6h-6.7C782.3,109.5,782,109.2,782,108.9z"/>
	</g>
</g>
<g id="XMLID_3627_">
	<circle id="XMLID_3631_" class="st8" cx="1043.8" cy="108.5" r="6.7"/>
	<g id="XMLID_3628_">
		<path id="XMLID_3630_" class="st3" d="M1044.2,112.5h-0.8c-0.3,0-0.6-0.3-0.6-0.6v-6.7c0-0.3,0.3-0.6,0.6-0.6h0.8
			c0.3,0,0.6,0.3,0.6,0.6v6.7C1044.7,112.2,1044.5,112.5,1044.2,112.5z"/>
		<path id="XMLID_3629_" class="st3" d="M1039.9,108.9v-0.8c0-0.3,0.3-0.6,0.6-0.6h6.7c0.3,0,0.6,0.3,0.6,0.6v0.8
			c0,0.3-0.3,0.6-0.6,0.6h-6.7C1040.1,109.5,1039.9,109.2,1039.9,108.9z"/>
	</g>
</g>
<text id="XMLID_3616_" transform="matrix(1 0 0 1 29.7402 117.178)" class="st9 st7">1         2</text>
<text id="XMLID_1906_" transform="matrix(1 0 0 1 69.5066 117.178)" class="st9 st7">3         4</text>
<text id="XMLID_1907_" transform="matrix(1 0 0 1 109.2729 117.178)" class="st9 st7">5         6</text>
<text id="XMLID_1908_" transform="matrix(1 0 0 1 149.0388 117.178)" class="st9 st7">7         8</text>
<text id="XMLID_1909_" transform="matrix(1 0 0 1 188.8052 117.178)" class="st9 st7">9        10</text>
<text id="XMLID_1910_" transform="matrix(1 0 0 1 228.5716 117.178)" class="st9 st7">11      12</text>
<text id="XMLID_1911_" transform="matrix(1 0 0 1 287.2891 117.178)" class="st9 st7">13      14</text>
<text id="XMLID_1912_" transform="matrix(1 0 0 1 327.2438 117.178)" class="st9 st7">15      16</text>
<text id="XMLID_1913_" transform="matrix(1 0 0 1 367.1986 117.178)" class="st9 st7">17      18</text>
<text id="XMLID_1914_" transform="matrix(1 0 0 1 407.1534 117.178)" class="st9 st7">19      20</text>
<text id="XMLID_1915_" transform="matrix(1 0 0 1 447.1081 117.178)" class="st9 st7">21      22</text>
<text id="XMLID_1916_" transform="matrix(1 0 0 1 487.0629 117.178)" class="st9 st7">23      24</text>
<text id="XMLID_1917_" transform="matrix(1 0 0 1 545.7615 117.178)" class="st9 st7">25      26</text>
<text id="XMLID_1918_" transform="matrix(1 0 0 1 585.577 117.178)" class="st9 st7">27      28</text>
<text id="XMLID_1919_" transform="matrix(1 0 0 1 625.3926 117.178)" class="st9 st7">29      30</text>
<text id="XMLID_1920_" transform="matrix(1 0 0 1 665.2083 117.178)" class="st9 st7">31      31</text>
<text id="XMLID_1921_" transform="matrix(1 0 0 1 705.0236 117.178)" class="st9 st7">33      34</text>
<text id="XMLID_1922_" transform="matrix(1 0 0 1 744.8394 117.178)" class="st9 st7">35      36</text>
<text id="XMLID_1923_" transform="matrix(1 0 0 1 804.2379 117.178)" class="st9 st7">37      38</text>
<text id="XMLID_1924_" transform="matrix(1 0 0 1 843.1851 117.178)" class="st9 st7">39      40</text>
<text id="XMLID_1925_" transform="matrix(1 0 0 1 884.1324 117.178)" class="st9 st7">41      42</text>
<text id="XMLID_1926_" transform="matrix(1 0 0 1 924.0797 117.178)" class="st9 st7">43      44</text>
<text id="XMLID_1927_" transform="matrix(1 0 0 1 964.0269 117.178)" class="st9 st7">45      46</text>
<text id="XMLID_1928_" transform="matrix(1 0 0 1 1003.9742 117.178)" class="st9 st7">47      48</text>
<rect id="XMLID_1933_" x="1173.4" y="101.8" class="st2" width="38.1" height="8.2"/>
<g id="XMLID_1930_">
	<polygon id="XMLID_1932_" class="st3" points="1202.3,108.7 1200,103.2 1204.6,103.2 	"/>
	<polygon id="XMLID_1931_" class="st3" points="1185.2,103.2 1187.5,108.7 1183,108.7 	"/>
</g>
<text id="XMLID_1929_" transform="matrix(1 0 0 1 1182.6023 117.178)" class="st9 st7">49      50</text>
</svg>
