<?xml version="1.0" encoding="utf-8"?>
<!-- Generator: Adobe Illustrator 19.0.0, SVG Export Plug-In . SVG Version: 6.00 Build 0)  -->
<svg version="1.1" id="图层_1" xmlns="http://www.w3.org/2000/svg" xmlns:xlink="http://www.w3.org/1999/xlink" x="0px" y="0px"
	 width="1275.6px" height="126px" viewBox="0 0 1275.6 126" style="enable-background:new 0 0 1275.6 126;" xml:space="preserve">
<style type="text/css">
	.st0{fill:#393A39;stroke:#000000;stroke-width:1.7008;stroke-miterlimit:10;}
	.st1{fill:#191A19;stroke:#000000;stroke-width:1.7008;stroke-miterlimit:10;}
	.st2{fill:#4D4D4D;stroke:#000000;stroke-width:1.4173;stroke-miterlimit:10;}
	.st3{fill:#CDCDCD;}
	.st4{fill:#FEFF87;}
	.st5{fill:#E5E5E5;stroke:#7D7D7D;stroke-width:0.5669;stroke-miterlimit:10;}
	.st6{fill:#9FA0A0;}
	.st7{fill:#9A9C9B;}
	.st8{fill:#232323;}
	.st9{fill:#2F2F2F;stroke:#000000;stroke-width:1.4173;stroke-miterlimit:10;}
	.st10{fill:#2A2A2A;}
	.st11{fill:#909090;}
	.st12{fill:#FEFF1D;}
	.st13{fill:url(#XMLID_2_);}
	.st14{fill:#666666;}
	.st15{fill:#191919;}
	.st16{fill:url(#XMLID_3_);}
	.st17{fill:url(#XMLID_4_);}
	.st18{fill:#4D4D4D;stroke:#333333;stroke-width:1.4173;stroke-miterlimit:10;}
	.st19{fill:#394C51;stroke:#1A303B;stroke-miterlimit:10;}
	.st20{fill:#031A21;}
	.st21{fill:#FEFEF8;}
	.st22{fill:#727272;}
	.st23{fill:#1B1507;}
	.st24{fill:#4CABF2;}
	.st25{fill:#C6BAA8;}
	.st26{fill:#CACACA;}
	.st27{fill:#080704;}
	.st28{fill:#3E3A32;}
	.st29{fill:#000200;stroke:#000000;stroke-miterlimit:10;}
	.st30{fill:#4D4D4D;}
	.st31{fill:#FEFF7F;stroke:#2E2E2E;stroke-miterlimit:10;}
	.st32{fill:#363636;stroke:#000000;stroke-miterlimit:10;}
	.st33{fill:#FFFFFF;}
	.st34{fill:#BCBCBC;}
	.st35{fill:#B8A993;}
	.st36{fill:url(#XMLID_5_);stroke:#6D6D6D;stroke-miterlimit:10;}
	.st37{fill:url(#XMLID_6_);stroke:#1F1F1F;stroke-width:1.7008;stroke-miterlimit:10;}
	.st38{fill:#939393;stroke:#1F1F1F;stroke-width:1.7008;stroke-miterlimit:10;}
	.st39{fill:url(#XMLID_7_);stroke:#1F1F1F;stroke-width:1.7008;stroke-miterlimit:10;}
	.st40{fill:#DADADA;stroke:#555555;stroke-miterlimit:10;}
	.st41{fill:url(#XMLID_8_);stroke:#6D6D6D;stroke-miterlimit:10;}
</style>
<rect id="XMLID_12321_" x="0.9" y="0.9" class="st0" width="1273.9" height="124.3"/>
<rect id="XMLID_13447_" x="335.7" y="0.9" class="st1" width="242.1" height="122.7"/>
<path id="XMLID_12272_" class="st2" d="M332.9,122.9H4.6c-1.6,0-2.8-1.3-2.8-2.8V7.6c0-1.6,1.3-2.8,2.8-2.8h328.3
	c1.6,0,2.8,1.3,2.8,2.8v112.4C335.7,121.6,334.5,122.9,332.9,122.9z"/>
<path id="XMLID_12512_" class="st3" d="M295.9,21.5l-2.8-1.7v1.2h-12.5h-1.1h-1l2.8-2.8c0.3-0.3,0.6-0.4,1-0.4h2.5
	c0.2,0.5,0.7,0.9,1.3,0.9c0.8,0,1.5-0.7,1.5-1.5c0-0.8-0.7-1.5-1.5-1.5c-0.7,0-1.3,0.5-1.4,1.2h-2.4c-0.6,0-1.2,0.2-1.6,0.7l-3,3
	c-0.3,0.3-0.6,0.4-1,0.4h-0.4h-1c-0.2-1.1-1.2-2-2.3-2c-1.3,0-2.4,1.1-2.4,2.4s1.1,2.4,2.4,2.4c1.2,0,2.1-0.8,2.3-2h1h0.4h2.8h1.1
	c0.4,0,0.7,0.1,0.9,0.4l2.9,2.9c0.4,0.4,1,0.7,1.6,0.7h2.1V27h2.8v-2.8h-2.8v0.8H286c-0.4,0-0.7-0.1-1-0.4l-2.7-2.7h10.7v1.2
	L295.9,21.5z"/>
<path id="XMLID_12581_" class="st4" d="M270.7,15.8h-36.8V5.5h41.4v5.7C275.3,13.7,273.3,15.8,270.7,15.8z"/>
<g id="XMLID_12584_">
	<ellipse id="XMLID_12588_" class="st5" cx="18.8" cy="22" rx="11.7" ry="11.6"/>
	<g id="XMLID_12585_">
		<rect id="XMLID_12587_" x="17.2" y="15.2" class="st6" width="3.3" height="13.5"/>
		<rect id="XMLID_12586_" x="12" y="20.3" class="st6" width="13.7" height="3.3"/>
	</g>
</g>
<g id="XMLID_12590_">
	<ellipse id="XMLID_12594_" class="st5" cx="18.8" cy="104.9" rx="11.7" ry="11.6"/>
	<g id="XMLID_12591_">
		<rect id="XMLID_12593_" x="17.2" y="98.1" class="st6" width="3.3" height="13.5"/>
		<rect id="XMLID_12592_" x="12" y="103.2" class="st6" width="13.7" height="3.3"/>
	</g>
</g>
<g id="XMLID_12595_">
	<ellipse id="XMLID_12599_" class="st5" cx="166.9" cy="104.9" rx="11.7" ry="11.6"/>
	<g id="XMLID_12596_">
		<rect id="XMLID_12598_" x="165.3" y="98.1" class="st6" width="3.3" height="13.5"/>
		<rect id="XMLID_12597_" x="160.1" y="103.2" class="st6" width="13.7" height="3.3"/>
	</g>
</g>
<g id="XMLID_12600_">
	<ellipse id="XMLID_12604_" class="st5" cx="315" cy="104.9" rx="11.7" ry="11.6"/>
	<g id="XMLID_12601_">
		<rect id="XMLID_12603_" x="313.3" y="98.1" class="st6" width="3.3" height="13.5"/>
		<rect id="XMLID_12602_" x="308.1" y="103.2" class="st6" width="13.7" height="3.3"/>
	</g>
</g>
<g id="XMLID_12605_">
	<ellipse id="XMLID_12609_" class="st5" cx="315" cy="22" rx="11.7" ry="11.6"/>
	<g id="XMLID_12606_">
		<rect id="XMLID_12608_" x="313.3" y="15.2" class="st6" width="3.3" height="13.5"/>
		<rect id="XMLID_12607_" x="308.1" y="20.3" class="st6" width="13.7" height="3.3"/>
	</g>
</g>
<g id="XMLID_12617_">
	<rect id="XMLID_12589_" x="46" y="15.8" class="st3" width="72.2" height="24"/>
	<g id="XMLID_12613_">
		<g id="XMLID_12612_">
			<circle id="XMLID_12610_" class="st7" cx="67.2" cy="27.8" r="8.2"/>
			<circle id="XMLID_12611_" class="st8" cx="67.2" cy="27.8" r="4.2"/>
		</g>
		<g id="XMLID_12614_">
			<circle id="XMLID_12616_" class="st7" cx="97" cy="27.8" r="8.2"/>
			<circle id="XMLID_12615_" class="st8" cx="97" cy="27.8" r="4.2"/>
		</g>
	</g>
</g>
<g id="XMLID_12618_">
	<g id="XMLID_12620_">
		<path id="XMLID_12621_" class="st3" d="M295.3,49.9h2.7c0.4,0,0.8,0.1,1.1,0.2c0.6,0.3,0.8,0.7,0.8,1.4c0,0.4-0.1,0.7-0.2,0.9
			c-0.1,0.2-0.4,0.4-0.6,0.5c0.2,0.1,0.4,0.2,0.5,0.4c0.1,0.2,0.2,0.4,0.2,0.8l0,0.8c0,0.2,0,0.4,0.1,0.5c0,0.2,0.1,0.3,0.3,0.4v0.1
			h-1c0-0.1,0-0.1-0.1-0.2c0-0.1,0-0.2,0-0.5l0-1c0-0.4-0.2-0.7-0.4-0.8c-0.2-0.1-0.4-0.1-0.7-0.1h-1.8v2.6h-0.8V49.9z M297.9,52.6
			c0.4,0,0.7-0.1,0.9-0.2c0.2-0.2,0.3-0.4,0.3-0.8c0-0.4-0.1-0.7-0.5-0.9c-0.2-0.1-0.4-0.1-0.6-0.1h-1.9v2H297.9z"/>
		<path id="XMLID_12624_" class="st3" d="M301.3,49.9h4.3v0.7h-3.5v1.8h3.3v0.7h-3.3v2h3.6v0.7h-4.4V49.9z"/>
		<path id="XMLID_12626_" class="st3" d="M307.3,53.9c0,0.3,0.1,0.6,0.2,0.8c0.3,0.4,0.7,0.6,1.4,0.6c0.3,0,0.6,0,0.8-0.1
			c0.5-0.2,0.7-0.5,0.7-0.9c0-0.3-0.1-0.6-0.3-0.7c-0.2-0.1-0.5-0.3-0.9-0.4l-0.8-0.2c-0.5-0.1-0.9-0.3-1.1-0.4
			c-0.4-0.2-0.6-0.6-0.6-1.1c0-0.5,0.2-1,0.5-1.3c0.4-0.3,0.9-0.5,1.5-0.5c0.6,0,1.1,0.2,1.6,0.5s0.6,0.8,0.6,1.4h-0.8
			c0-0.3-0.1-0.6-0.2-0.7c-0.2-0.3-0.6-0.5-1.2-0.5c-0.5,0-0.8,0.1-1,0.3s-0.3,0.4-0.3,0.7c0,0.3,0.1,0.5,0.4,0.6
			c0.2,0.1,0.5,0.2,1.1,0.3l0.8,0.2c0.4,0.1,0.7,0.2,0.9,0.4c0.4,0.3,0.6,0.7,0.6,1.2c0,0.7-0.2,1.1-0.7,1.4c-0.5,0.3-1,0.4-1.6,0.4
			c-0.7,0-1.3-0.2-1.7-0.6c-0.4-0.4-0.6-0.9-0.6-1.5H307.3z"/>
		<path id="XMLID_12628_" class="st3" d="M312.4,49.9h4.3v0.7h-3.5v1.8h3.3v0.7h-3.3v2h3.6v0.7h-4.4V49.9z"/>
		<path id="XMLID_12630_" class="st3" d="M322.2,49.9v0.7h-2v5.3h-0.8v-5.3h-2v-0.7H322.2z"/>
	</g>
	<circle id="XMLID_12619_" class="st9" cx="302.9" cy="43.5" r="2.9"/>
</g>
<g id="XMLID_13446_">
	<rect id="XMLID_13499_" x="337.4" y="5.5" class="st10" width="120.2" height="118.1"/>
	<g id="XMLID_13425_">
		<path id="XMLID_13498_" d="M359.8,19.1L359.8,19.1C359.8,19.1,359.8,19.1,359.8,19.1L359.8,19.1z"/>
		<path id="XMLID_13496_" d="M365.5,29l5.7-3.3v-6.6l-5.7-3.3l-5.7,3.3c0,0,0,0,0,0v6.6L365.5,29z"/>
		<polygon id="XMLID_13495_" points="387.2,25.7 387.2,19.1 381.5,15.8 375.8,19.1 375.8,25.7 381.5,29 		"/>
		<polygon id="XMLID_13494_" points="403.2,25.7 403.2,19.1 397.5,15.8 391.8,19.1 391.8,25.7 397.5,29 		"/>
		<polygon id="XMLID_13493_" points="419.2,25.7 419.2,19.1 413.5,15.8 407.8,19.1 407.8,25.7 413.5,29 		"/>
		<path id="XMLID_13492_" d="M435.2,19.1L435.2,19.1C435.2,19.1,435.2,19.1,435.2,19.1L435.2,19.1z"/>
		<path id="XMLID_13491_" d="M423.8,19.1v6.6l5.7,3.3l5.7-3.3v-6.6c0,0,0,0,0,0l-5.7-3.3L423.8,19.1z"/>
		<polygon id="XMLID_13490_" points="363.2,40.2 363.2,33.6 357.5,30.3 351.8,33.6 351.8,40.2 357.5,43.5 		"/>
		<polygon id="XMLID_13489_" points="379.2,40.2 379.2,33.6 373.5,30.3 367.8,33.6 367.8,40.2 373.5,43.5 		"/>
		<polygon id="XMLID_13488_" points="383.8,40.2 389.5,43.5 395.2,40.2 395.2,33.6 389.5,30.3 383.8,33.6 		"/>
		<polygon id="XMLID_13487_" points="399.8,40.2 405.5,43.5 411.2,40.2 411.2,33.6 405.5,30.3 399.8,33.6 		"/>
		<polygon id="XMLID_13486_" points="415.8,40.2 421.5,43.5 427.2,40.2 427.2,33.6 421.5,30.3 415.8,33.6 		"/>
		<polygon id="XMLID_13485_" points="443.2,40.2 443.2,33.6 437.5,30.3 431.8,33.6 431.8,40.2 437.5,43.5 		"/>
		<polygon id="XMLID_13484_" points="355.2,53.8 355.2,47.2 349.5,43.9 343.8,47.2 343.8,53.8 349.5,57.1 		"/>
		<polygon id="XMLID_13483_" points="359.8,53.8 365.5,57.1 371.2,53.8 371.2,47.2 365.5,43.9 359.8,47.2 		"/>
		<polygon id="XMLID_13482_" points="387.2,53.8 387.2,47.2 381.5,43.9 375.8,47.2 375.8,53.8 381.5,57.1 		"/>
		<polygon id="XMLID_13481_" points="403.2,53.8 403.2,47.2 397.5,43.9 391.8,47.2 391.8,53.8 397.5,57.1 		"/>
		<polygon id="XMLID_13480_" points="407.8,47.2 407.8,53.8 413.5,57.1 419.2,53.8 419.2,47.2 413.5,43.9 		"/>
		<polygon id="XMLID_13479_" points="423.8,53.8 429.5,57.1 435.2,53.8 435.2,47.2 429.5,43.9 423.8,47.2 		"/>
		<polygon id="XMLID_13478_" points="439.8,53.8 445.5,57.1 451.2,53.8 451.2,47.2 445.5,43.9 439.8,47.2 		"/>
		<path id="XMLID_13473_" d="M379.2,12.1V8.4c-3.6,1.2-7,2.6-10.2,4.4l4.5,2.6L379.2,12.1z"/>
		<path id="XMLID_13472_" d="M389.5,15.4l5.7-3.3V5.5c-3.9,0.1-7.7,0.7-11.4,1.6v5L389.5,15.4z"/>
		<path id="XMLID_13471_" d="M405.5,15.4l5.7-3.3v-5c-3.7-0.9-7.5-1.4-11.4-1.6v6.6L405.5,15.4z"/>
		<path id="XMLID_13470_" d="M421.5,15.4l4.5-2.6c-3.2-1.8-6.6-3.3-10.2-4.4v3.7L421.5,15.4z"/>
		<path id="XMLID_13469_" d="M355.2,23.3c-1.5,1.5-2.8,3.1-4.1,4.7l4.1-2.4V23.3z"/>
		<path id="XMLID_13468_" d="M444,28.1c-1.3-1.7-2.7-3.2-4.1-4.7v2.3L444,28.1z"/>
		<polygon id="XMLID_13467_" points="351.8,61.7 351.8,68.3 357.5,71.6 363.2,68.3 363.2,61.7 357.5,58.4 		"/>
		<polygon id="XMLID_13466_" points="367.8,61.7 367.8,68.3 373.5,71.6 379.2,68.3 379.2,61.7 373.5,58.4 		"/>
		<polygon id="XMLID_13465_" points="395.2,68.3 395.2,61.7 389.5,58.4 383.8,61.7 383.8,68.3 389.5,71.6 		"/>
		<polygon id="XMLID_13464_" points="411.2,68.3 411.2,61.7 405.5,58.4 399.8,61.7 399.8,68.3 405.5,71.6 		"/>
		<polygon id="XMLID_13463_" points="415.8,68.3 421.5,71.6 427.2,68.3 427.2,61.7 421.5,58.4 415.8,61.7 		"/>
		<polygon id="XMLID_13462_" points="443.2,68.3 443.2,61.7 437.5,58.4 431.8,61.7 431.8,68.3 437.5,71.6 		"/>
		<polygon id="XMLID_13461_" points="355.2,75.2 349.5,71.9 343.8,75.2 343.8,81.8 349.5,85.1 355.2,81.8 		"/>
		<polygon id="XMLID_13460_" points="371.2,75.2 365.5,71.9 359.8,75.2 359.8,81.8 365.5,85.1 371.2,81.8 		"/>
		<polygon id="XMLID_13459_" points="387.2,81.8 387.2,75.2 381.5,71.9 375.8,75.2 375.8,81.8 381.5,85.1 		"/>
		<polygon id="XMLID_13458_" points="403.2,81.8 403.2,75.2 397.5,71.9 391.8,75.2 391.8,81.8 397.5,85.1 		"/>
		<polygon id="XMLID_13457_" points="419.2,81.8 419.2,75.2 413.5,71.9 407.8,75.2 407.8,81.8 413.5,85.1 		"/>
		<polygon id="XMLID_13456_" points="435.2,75.2 429.5,71.9 423.8,75.2 423.8,81.8 429.5,85.1 435.2,81.8 		"/>
		<polygon id="XMLID_13455_" points="439.8,75.2 439.8,81.8 445.5,85.1 451.2,81.8 451.2,75.2 445.5,71.9 		"/>
		<polygon id="XMLID_13454_" points="351.8,89.7 351.8,96.3 357.5,99.6 363.2,96.3 363.2,89.7 357.5,86.4 		"/>
		<polygon id="XMLID_13453_" points="379.2,89.7 373.5,86.4 367.8,89.7 367.8,96.3 373.5,99.6 379.2,96.3 		"/>
		<polygon id="XMLID_13452_" points="395.2,89.7 389.5,86.4 383.8,89.7 383.8,96.3 389.5,99.6 395.2,96.3 		"/>
		<polygon id="XMLID_13450_" points="411.2,89.7 405.5,86.4 399.8,89.7 399.8,96.3 405.5,99.6 411.2,96.3 		"/>
		<polygon id="XMLID_13448_" points="415.8,89.7 415.8,96.3 421.5,99.6 427.2,96.3 427.2,89.7 421.5,86.4 		"/>
		<polygon id="XMLID_13445_" points="431.8,89.7 431.8,96.3 437.5,99.6 443.2,96.3 443.2,89.7 437.5,86.4 		"/>
		<path id="XMLID_13444_" d="M359.8,109.9L359.8,109.9C359.8,109.9,359.8,109.9,359.8,109.9L359.8,109.9z"/>
		<path id="XMLID_13443_" d="M371.2,109.9v-6.6l-5.7-3.3l-5.7,3.3v6.6c0,0,0,0,0,0l5.7,3.3L371.2,109.9z"/>
		<polygon id="XMLID_13442_" points="375.8,103.3 375.8,109.9 381.5,113.2 387.2,109.9 387.2,103.3 381.5,100 		"/>
		<polygon id="XMLID_13441_" points="391.8,103.3 391.8,109.9 397.5,113.2 403.2,109.9 403.2,103.3 397.5,100 		"/>
		<polygon id="XMLID_13440_" points="419.2,103.3 413.5,100 407.8,103.3 407.8,109.9 413.5,113.2 419.2,109.9 		"/>
		<path id="XMLID_13439_" d="M435.2,109.9L435.2,109.9C435.2,109.9,435.2,109.9,435.2,109.9L435.2,109.9z"/>
		<path id="XMLID_13438_" d="M429.5,100l-5.7,3.3v6.6l5.7,3.3l5.7-3.3c0,0,0,0,0,0v-6.6L429.5,100z"/>
		<path id="XMLID_13437_" d="M351.1,100.9c1.3,1.7,2.7,3.2,4.1,4.7v-2.3L351.1,100.9z"/>
		<path id="XMLID_13436_" d="M439.8,105.7c1.5-1.5,2.8-3.1,4.1-4.7l-4.1,2.4V105.7z"/>
		<path id="XMLID_13435_" d="M373.5,114.5l-3.7,2.1c3,1.6,6.1,2.9,9.4,4v-2.8L373.5,114.5z"/>
		<path id="XMLID_13434_" d="M389.5,114.5l-5.7,3.3v4.1c3.7,0.9,7.5,1.4,11.4,1.6v-5.6L389.5,114.5z"/>
		<path id="XMLID_13433_" d="M405.5,114.5l-5.7,3.3v5.6c3.9-0.1,7.7-0.7,11.4-1.6v-4.1L405.5,114.5z"/>
		<path id="XMLID_13432_" d="M421.5,114.5l-5.7,3.3v2.8c3.3-1.1,6.4-2.4,9.4-4L421.5,114.5z"/>
		<path id="XMLID_13431_" d="M347.2,33.6c-1.8,2.9-3.3,6-4.6,9.3l4.6-2.7V33.6z"/>
		<path id="XMLID_13430_" d="M347.2,68.3v-6.6l-5.7-3.3l-2.8,1.6c-0.1,1.5-0.2,3-0.2,4.5c0,1.8,0.1,3.7,0.3,5.4l2.8,1.6L347.2,68.3z
			"/>
		<path id="XMLID_13429_" d="M343.1,87.3c1.2,2.8,2.6,5.5,4.2,8.1v-5.7L343.1,87.3z"/>
		<path id="XMLID_13428_" d="M452.4,42.8c-1.3-3.2-2.8-6.3-4.6-9.3v6.6L452.4,42.8z"/>
		<path id="XMLID_13427_" d="M447.8,61.7v6.6l5.7,3.3l2.8-1.6c0.2-1.8,0.3-3.6,0.3-5.4c0-1.5-0.1-3-0.2-4.5l-2.8-1.6L447.8,61.7z"/>
		<path id="XMLID_13426_" d="M447.8,95.4c1.6-2.6,3-5.3,4.2-8.1l-4.2,2.4V95.4z"/>
	</g>
	<g id="XMLID_13405_">
		<path id="XMLID_13424_" class="st11" d="M395.2,40.1L395.2,40.1c-2.8,0.3-5.4,1-7.9,2.1l2.2,1.2L395.2,40.1z"/>
		<path id="XMLID_13423_" class="st11" d="M405.5,43.4l3.3-1.9c-2.8-1-5.8-1.6-9-1.7v0.3L405.5,43.4z"/>
		<path id="XMLID_13422_" class="st11" d="M381.5,57l5.7-3.3v-6.6l-4.4-2.5c-2.7,1.8-5.1,3.9-7.1,6.5v2.7L381.5,57z"/>
		<polygon id="XMLID_13421_" class="st11" points="403.2,53.7 403.2,47.1 397.5,43.8 391.8,47.1 391.8,53.7 397.5,57 		"/>
		<path id="XMLID_13420_" class="st11" d="M407.8,47.1v6.6l5.7,3.3l5.7-3.3v-5.7c-1.1-1.1-2.4-2.1-3.7-3l-2-1.2L407.8,47.1z"/>
		<path id="XMLID_13419_" class="st11" d="M423.9,53.7c0-0.1-0.1-0.1-0.1-0.2v0.1L423.9,53.7z"/>
		<path id="XMLID_13418_" class="st11" d="M379.2,68.2v-6.6l-5.7-3.3l-2.4,1.4c-1,3-1.6,6.2-1.6,9.5l4,2.3L379.2,68.2z"/>
		<polygon id="XMLID_13417_" class="st11" points="395.2,61.6 389.5,58.3 383.8,61.6 383.8,68.2 389.5,71.5 395.2,68.2 		"/>
		<polygon id="XMLID_13416_" class="st11" points="411.2,61.6 405.5,58.3 399.8,61.6 399.8,68.2 405.5,71.5 411.2,68.2 		"/>
		<polygon id="XMLID_13415_" class="st11" points="427.2,68.2 427.2,61.6 421.5,58.3 415.8,61.6 415.8,68.2 421.5,71.5 		"/>
		<path id="XMLID_13414_" class="st11" d="M370,74.4c0.3,1.6,0.7,3.2,1.2,4.7v-3.9L370,74.4z"/>
		<polygon id="XMLID_13413_" class="st11" points="375.8,75.2 375.8,81.7 381.5,85 387.2,81.7 387.2,75.2 381.5,71.9 		"/>
		<polygon id="XMLID_13412_" class="st11" points="391.8,75.2 391.8,81.7 397.5,85 403.2,81.7 403.2,75.2 397.5,71.9 		"/>
		<polygon id="XMLID_13411_" class="st11" points="419.2,75.2 413.5,71.9 407.8,75.2 407.8,81.7 413.5,85 419.2,81.7 		"/>
		<path id="XMLID_13410_" class="st11" d="M423.8,81.7l1.3,0.8c1.5-3,2.6-6.3,3-9.8l-4.3,2.5V81.7z"/>
		<path id="XMLID_13409_" class="st11" d="M376.3,88c0.9,1.1,1.9,2.1,2.9,3.1v-1.4L376.3,88z"/>
		<path id="XMLID_13408_" class="st11" d="M395.2,89.7l-5.7-3.3l-5.7,3.3v4.8c2.6,1.6,5.5,2.8,8.6,3.5l2.8-1.6V89.7z"/>
		<path id="XMLID_13407_" class="st11" d="M405.5,86.4l-5.7,3.3v6.6l3.5,2c2.8-0.4,5.5-1.2,7.9-2.4v-6.2L405.5,86.4z"/>
		<path id="XMLID_13406_" class="st11" d="M422.4,86.9l-0.9-0.5l-5.7,3.3v3.6C418.3,91.5,420.6,89.3,422.4,86.9z"/>
	</g>
	<circle id="XMLID_13501_" class="st12" cx="351.8" cy="13.3" r="5.8"/>
	<radialGradient id="XMLID_2_" cx="397.4675" cy="64.5584" r="59.0068" gradientUnits="userSpaceOnUse">
		<stop  offset="0" style="stop-color:#999999"/>
		<stop  offset="1" style="stop-color:#454545"/>
	</radialGradient>
	<path id="XMLID_13591_" class="st13" d="M447.8,68.4v-6.6l5.7-3.3l2.8,1.6c0.1,0.7,0.1,1.4,0.1,2.2c-1.2-31.5-27.1-56.8-59-56.8
		c-31.8,0-57.8,25.2-59,56.7c0-0.7,0.1-1.4,0.1-2.1l2.8-1.6l5.7,3.3v6.6l-5.7,3.3l-2.8-1.6c0.6,6.1,2.1,12,4.4,17.4l4.1,2.4v5.6
		c1.2,2,2.5,3.8,3.9,5.6l4.1,2.3v2.3c1.5,1.5,3,2.9,4.6,4.2v-6.5l5.7-3.3l5.7,3.3v6.6l-5.7,3.3l-5.5-3.2c3,2.5,6.3,4.7,9.9,6.6
		l3.6-2.1l5.7,3.3v2.7c1.5,0.5,3,0.9,4.6,1.3v-4l5.7-3.3l5.7,3.3v5.6c0.8,0,1.5,0.1,2.3,0.1c0.8,0,1.5,0,2.3-0.1v-5.6l5.7-3.3
		l5.7,3.3v4c1.6-0.4,3.1-0.8,4.6-1.3v-2.7l5.7-3.3l3.6,2.1c3.5-1.9,6.8-4.1,9.9-6.6l-5.5,3.2l-5.7-3.3v-6.6l5.7-3.3l5.7,3.3v6.5
		c1.6-1.3,3.1-2.8,4.6-4.2v-2.3l4.1-2.3c1.4-1.8,2.7-3.7,3.9-5.6v-5.6l4.1-2.4c2.3-5.4,3.8-11.3,4.4-17.4l-2.8,1.6L447.8,68.4z
		 M447.8,33.7c1.8,2.9,3.3,6,4.6,9.3l-4.6-2.7V33.7z M451.2,47.3v6.6l-5.7,3.3l-5.7-3.3v-6.6l5.7-3.3L451.2,47.3z M359.8,53.9v-6.6
		l5.7-3.3l5.7,3.3v6.6l-5.7,3.3L359.8,53.9z M363.2,61.8v6.6l-5.7,3.3l-5.7-3.3v-6.6l5.7-3.3L363.2,61.8z M419.2,47.3v6.6l-5.7,3.3
		l-5.7-3.3v-6.6l5.7-3.3L419.2,47.3z M415.8,40.3v-6.6l5.7-3.3l5.7,3.3v6.6l-5.7,3.3L415.8,40.3z M411.2,40.3l-5.7,3.3l-5.7-3.3
		v-6.6l5.7-3.3l5.7,3.3V40.3z M403.2,47.3v6.6l-5.7,3.3l-5.7-3.3v-6.6l5.7-3.3L403.2,47.3z M395.2,40.3l-5.7,3.3l-5.7-3.3v-6.6
		l5.7-3.3l5.7,3.3V40.3z M387.2,47.3v6.6l-5.7,3.3l-5.7-3.3v-6.6l5.7-3.3L387.2,47.3z M379.2,40.3l-5.7,3.3l-5.7-3.3v-6.6l5.7-3.3
		l5.7,3.3V40.3z M367.8,61.8l5.7-3.3l5.7,3.3v6.6l-5.7,3.3l-5.7-3.3V61.8z M375.8,75.4l5.7-3.3l5.7,3.3V82l-5.7,3.3l-5.7-3.3V75.4z
		 M383.8,68.4v-6.6l5.7-3.3l5.7,3.3v6.6l-5.7,3.3L383.8,68.4z M391.8,75.4l5.7-3.3l5.7,3.3V82l-5.7,3.3l-5.7-3.3V75.4z M399.8,68.4
		v-6.6l5.7-3.3l5.7,3.3v6.6l-5.7,3.3L399.8,68.4z M407.8,75.4l5.7-3.3l5.7,3.3V82l-5.7,3.3l-5.7-3.3V75.4z M415.8,68.4v-6.6l5.7-3.3
		l5.7,3.3v6.6l-5.7,3.3L415.8,68.4z M423.8,53.9v-6.6l5.7-3.3l5.7,3.3v6.6l-5.7,3.3L423.8,53.9z M431.8,61.8l5.7-3.3l5.7,3.3v6.6
		l-5.7,3.3l-5.7-3.3V61.8z M439.8,23.4c1.5,1.5,2.8,3.1,4.1,4.7l-4.1-2.4V23.4z M443.2,33.7v6.6l-5.7,3.3l-5.7-3.3v-6.6l5.7-3.3
		L443.2,33.7z M435.2,19.2L435.2,19.2L435.2,19.2l0,6.6l-5.7,3.3l-5.7-3.3v-6.6l5.7-3.3L435.2,19.2z M415.8,8.5
		c3.6,1.2,7,2.6,10.2,4.4l-4.5,2.6l-5.7-3.3V8.5z M419.2,19.2v6.6l-5.7,3.3l-5.7-3.3v-6.6l5.7-3.3L419.2,19.2z M399.8,5.6
		c3.9,0.1,7.7,0.7,11.4,1.6v5l-5.7,3.3l-5.7-3.3V5.6z M403.2,19.2v6.6l-5.7,3.3l-5.7-3.3v-6.6l5.7-3.3L403.2,19.2z M383.8,7.2
		c3.7-0.9,7.5-1.4,11.4-1.6v6.6l-5.7,3.3l-5.7-3.3V7.2z M387.2,19.2v6.6l-5.7,3.3l-5.7-3.3v-6.6l5.7-3.3L387.2,19.2z M379.2,8.5v3.7
		l-5.7,3.3l-4.5-2.6C372.2,11.1,375.6,9.6,379.2,8.5z M359.8,19.2L359.8,19.2L359.8,19.2l5.7-3.3l5.7,3.3v6.6l-5.7,3.3l-5.7-3.3
		V19.2z M357.5,30.4l5.7,3.3v6.6l-5.7,3.3l-5.7-3.3v-6.6L357.5,30.4z M355.2,23.4v2.3l-4.1,2.4C352.3,26.5,353.7,24.9,355.2,23.4z
		 M347.2,33.7v6.6l-4.6,2.7C343.8,39.7,345.4,36.6,347.2,33.7z M343.8,53.9v-6.6l5.7-3.3l5.7,3.3v6.6l-5.7,3.3L343.8,53.9z
		 M343.8,82v-6.6l5.7-3.3l5.7,3.3V82l-5.7,3.3L343.8,82z M363.2,96.5l-5.7,3.3l-5.7-3.3v-6.6l5.7-3.3l5.7,3.3V96.5z M359.8,82v-6.6
		l5.7-3.3l5.7,3.3V82l-5.7,3.3L359.8,82z M367.8,96.5v-6.6l5.7-3.3l5.7,3.3v6.6l-5.7,3.3L367.8,96.5z M387.2,110l-5.7,3.3l-5.7-3.3
		v-6.6l5.7-3.3l5.7,3.3V110z M383.8,96.5v-6.6l5.7-3.3l5.7,3.3v6.6l-5.7,3.3L383.8,96.5z M403.2,110l-5.7,3.3l-5.7-3.3v-6.6l5.7-3.3
		l5.7,3.3V110z M399.8,96.5v-6.6l5.7-3.3l5.7,3.3v6.6l-5.7,3.3L399.8,96.5z M419.2,110l-5.7,3.3l-5.7-3.3v-6.6l5.7-3.3l5.7,3.3V110z
		 M427.2,96.5l-5.7,3.3l-5.7-3.3v-6.6l5.7-3.3l5.7,3.3V96.5z M423.8,82v-6.6l5.7-3.3l5.7,3.3V82l-5.7,3.3L423.8,82z M443.2,96.5
		l-5.7,3.3l-5.7-3.3v-6.6l5.7-3.3l5.7,3.3V96.5z M451.2,82l-5.7,3.3l-5.7-3.3v-6.6l5.7-3.3l5.7,3.3V82z"/>
	<polygon id="XMLID_13404_" class="st14" points="344.2,123.5 344.2,93 356.1,93 356.1,36.9 344.2,36.9 344.2,5.5 337.4,5.5 
		337.4,123.5 	"/>
	<rect id="XMLID_13500_" x="337.4" y="41.3" class="st15" width="13.7" height="46.4"/>
	<polygon id="XMLID_13504_" class="st14" points="450.9,5.5 450.9,36 438.9,36 438.9,92.1 450.9,92.1 450.9,123.5 457.6,123.5 
		457.6,5.5 	"/>
	<rect id="XMLID_13503_" x="443.9" y="41.3" class="st15" width="13.7" height="46.4"/>
	<rect id="XMLID_13695_" x="457.6" y="5.5" class="st10" width="120.2" height="118.1"/>
	<g id="XMLID_13580_">
		<path id="XMLID_13694_" d="M480,19.1L480,19.1C480,19.1,480,19.1,480,19.1L480,19.1z"/>
		<path id="XMLID_13693_" d="M485.7,29l5.7-3.3v-6.6l-5.7-3.3l-5.7,3.3c0,0,0,0,0,0v6.6L485.7,29z"/>
		<polygon id="XMLID_13692_" points="507.4,25.7 507.4,19.1 501.7,15.8 496,19.1 496,25.7 501.7,29 		"/>
		<polygon id="XMLID_13691_" points="523.4,25.7 523.4,19.1 517.7,15.8 512,19.1 512,25.7 517.7,29 		"/>
		<polygon id="XMLID_13690_" points="539.4,25.7 539.4,19.1 533.7,15.8 528,19.1 528,25.7 533.7,29 		"/>
		<path id="XMLID_13689_" d="M555.4,19.1L555.4,19.1C555.4,19.1,555.4,19.1,555.4,19.1L555.4,19.1z"/>
		<path id="XMLID_13688_" d="M544,19.1v6.6l5.7,3.3l5.7-3.3v-6.6c0,0,0,0,0,0l-5.7-3.3L544,19.1z"/>
		<polygon id="XMLID_13687_" points="483.4,40.2 483.4,33.6 477.7,30.3 472,33.6 472,40.2 477.7,43.5 		"/>
		<polygon id="XMLID_13686_" points="499.4,40.2 499.4,33.6 493.7,30.3 488,33.6 488,40.2 493.7,43.5 		"/>
		<polygon id="XMLID_13685_" points="504,40.2 509.7,43.5 515.4,40.2 515.4,33.6 509.7,30.3 504,33.6 		"/>
		<polygon id="XMLID_13684_" points="520,40.2 525.7,43.5 531.4,40.2 531.4,33.6 525.7,30.3 520,33.6 		"/>
		<polygon id="XMLID_13683_" points="536,40.2 541.7,43.5 547.4,40.2 547.4,33.6 541.7,30.3 536,33.6 		"/>
		<polygon id="XMLID_13682_" points="563.4,40.2 563.4,33.6 557.7,30.3 552,33.6 552,40.2 557.7,43.5 		"/>
		<polygon id="XMLID_13681_" points="475.4,53.8 475.4,47.2 469.7,43.9 464,47.2 464,53.8 469.7,57.1 		"/>
		<polygon id="XMLID_13680_" points="480,53.8 485.7,57.1 491.4,53.8 491.4,47.2 485.7,43.9 480,47.2 		"/>
		<polygon id="XMLID_13679_" points="507.4,53.8 507.4,47.2 501.7,43.9 496,47.2 496,53.8 501.7,57.1 		"/>
		<polygon id="XMLID_13678_" points="523.4,53.8 523.4,47.2 517.7,43.9 512,47.2 512,53.8 517.7,57.1 		"/>
		<polygon id="XMLID_13677_" points="528,47.2 528,53.8 533.7,57.1 539.4,53.8 539.4,47.2 533.7,43.9 		"/>
		<polygon id="XMLID_13676_" points="544,53.8 549.7,57.1 555.4,53.8 555.4,47.2 549.7,43.9 544,47.2 		"/>
		<polygon id="XMLID_13675_" points="560,53.8 565.7,57.1 571.4,53.8 571.4,47.2 565.7,43.9 560,47.2 		"/>
		<path id="XMLID_13674_" d="M499.4,12.1V8.4c-3.6,1.2-7,2.6-10.2,4.4l4.5,2.6L499.4,12.1z"/>
		<path id="XMLID_13673_" d="M509.7,15.4l5.7-3.3V5.5c-3.9,0.1-7.7,0.7-11.4,1.6v5L509.7,15.4z"/>
		<path id="XMLID_13672_" d="M525.7,15.4l5.7-3.3v-5c-3.7-0.9-7.5-1.4-11.4-1.6v6.6L525.7,15.4z"/>
		<path id="XMLID_13671_" d="M541.7,15.4l4.5-2.6C543,11,539.6,9.5,536,8.4v3.7L541.7,15.4z"/>
		<path id="XMLID_13670_" d="M475.4,23.3c-1.5,1.5-2.8,3.1-4.1,4.7l4.1-2.4V23.3z"/>
		<path id="XMLID_13669_" d="M564.2,28.1c-1.3-1.7-2.7-3.2-4.1-4.7v2.3L564.2,28.1z"/>
		<polygon id="XMLID_13668_" points="472,61.7 472,68.3 477.7,71.6 483.4,68.3 483.4,61.7 477.7,58.4 		"/>
		<polygon id="XMLID_13667_" points="488,61.7 488,68.3 493.7,71.6 499.4,68.3 499.4,61.7 493.7,58.4 		"/>
		<polygon id="XMLID_13666_" points="515.4,68.3 515.4,61.7 509.7,58.4 504,61.7 504,68.3 509.7,71.6 		"/>
		<polygon id="XMLID_13665_" points="531.4,68.3 531.4,61.7 525.7,58.4 520,61.7 520,68.3 525.7,71.6 		"/>
		<polygon id="XMLID_13664_" points="536,68.3 541.7,71.6 547.4,68.3 547.4,61.7 541.7,58.4 536,61.7 		"/>
		<polygon id="XMLID_13663_" points="563.4,68.3 563.4,61.7 557.7,58.4 552,61.7 552,68.3 557.7,71.6 		"/>
		<polygon id="XMLID_13662_" points="475.4,75.2 469.7,71.9 464,75.2 464,81.8 469.7,85.1 475.4,81.8 		"/>
		<polygon id="XMLID_13661_" points="491.4,75.2 485.7,71.9 480,75.2 480,81.8 485.7,85.1 491.4,81.8 		"/>
		<polygon id="XMLID_13660_" points="507.4,81.8 507.4,75.2 501.7,71.9 496,75.2 496,81.8 501.7,85.1 		"/>
		<polygon id="XMLID_13659_" points="523.4,81.8 523.4,75.2 517.7,71.9 512,75.2 512,81.8 517.7,85.1 		"/>
		<polygon id="XMLID_13658_" points="539.4,81.8 539.4,75.2 533.7,71.9 528,75.2 528,81.8 533.7,85.1 		"/>
		<polygon id="XMLID_13657_" points="555.4,75.2 549.7,71.9 544,75.2 544,81.8 549.7,85.1 555.4,81.8 		"/>
		<polygon id="XMLID_13656_" points="560,75.2 560,81.8 565.7,85.1 571.4,81.8 571.4,75.2 565.7,71.9 		"/>
		<polygon id="XMLID_13655_" points="472,89.7 472,96.3 477.7,99.6 483.4,96.3 483.4,89.7 477.7,86.4 		"/>
		<polygon id="XMLID_13654_" points="499.4,89.7 493.7,86.4 488,89.7 488,96.3 493.7,99.6 499.4,96.3 		"/>
		<polygon id="XMLID_13653_" points="515.4,89.7 509.7,86.4 504,89.7 504,96.3 509.7,99.6 515.4,96.3 		"/>
		<polygon id="XMLID_13652_" points="531.4,89.7 525.7,86.4 520,89.7 520,96.3 525.7,99.6 531.4,96.3 		"/>
		<polygon id="XMLID_13651_" points="536,89.7 536,96.3 541.7,99.6 547.4,96.3 547.4,89.7 541.7,86.4 		"/>
		<polygon id="XMLID_13650_" points="552,89.7 552,96.3 557.7,99.6 563.4,96.3 563.4,89.7 557.7,86.4 		"/>
		<path id="XMLID_13649_" d="M480,109.9L480,109.9C480,109.9,480,109.9,480,109.9L480,109.9z"/>
		<path id="XMLID_13648_" d="M491.4,109.9v-6.6l-5.7-3.3l-5.7,3.3v6.6c0,0,0,0,0,0l5.7,3.3L491.4,109.9z"/>
		<polygon id="XMLID_13647_" points="496,103.3 496,109.9 501.7,113.2 507.4,109.9 507.4,103.3 501.7,100 		"/>
		<polygon id="XMLID_13646_" points="512,103.3 512,109.9 517.7,113.2 523.4,109.9 523.4,103.3 517.7,100 		"/>
		<polygon id="XMLID_13645_" points="539.4,103.3 533.7,100 528,103.3 528,109.9 533.7,113.2 539.4,109.9 		"/>
		<path id="XMLID_13644_" d="M555.4,109.9L555.4,109.9C555.4,109.9,555.4,109.9,555.4,109.9L555.4,109.9z"/>
		<path id="XMLID_13643_" d="M549.7,100l-5.7,3.3v6.6l5.7,3.3l5.7-3.3c0,0,0,0,0,0v-6.6L549.7,100z"/>
		<path id="XMLID_13642_" d="M471.3,100.9c1.3,1.7,2.7,3.2,4.1,4.7v-2.3L471.3,100.9z"/>
		<path id="XMLID_13641_" d="M560,105.7c1.5-1.5,2.8-3.1,4.1-4.7l-4.1,2.4V105.7z"/>
		<path id="XMLID_13640_" d="M493.7,114.5l-3.7,2.1c3,1.6,6.1,2.9,9.4,4v-2.8L493.7,114.5z"/>
		<path id="XMLID_13639_" d="M509.7,114.5l-5.7,3.3v4.1c3.7,0.9,7.5,1.4,11.4,1.6v-5.6L509.7,114.5z"/>
		<path id="XMLID_13588_" d="M525.7,114.5l-5.7,3.3v5.6c3.9-0.1,7.7-0.7,11.4-1.6v-4.1L525.7,114.5z"/>
		<path id="XMLID_13587_" d="M541.7,114.5l-5.7,3.3v2.8c3.3-1.1,6.4-2.4,9.4-4L541.7,114.5z"/>
		<path id="XMLID_13586_" d="M467.4,33.6c-1.8,2.9-3.3,6-4.6,9.3l4.6-2.7V33.6z"/>
		<path id="XMLID_13585_" d="M467.4,68.3v-6.6l-5.7-3.3l-2.8,1.6c-0.1,1.5-0.2,3-0.2,4.5c0,1.8,0.1,3.7,0.3,5.4l2.8,1.6L467.4,68.3z
			"/>
		<path id="XMLID_13584_" d="M463.3,87.3c1.2,2.8,2.6,5.5,4.2,8.1v-5.7L463.3,87.3z"/>
		<path id="XMLID_13583_" d="M572.7,42.8c-1.3-3.2-2.8-6.3-4.6-9.3v6.6L572.7,42.8z"/>
		<path id="XMLID_13582_" d="M568,61.7v6.6l5.7,3.3l2.8-1.6c0.2-1.8,0.3-3.6,0.3-5.4c0-1.5-0.1-3-0.2-4.5l-2.8-1.6L568,61.7z"/>
		<path id="XMLID_13581_" d="M568,95.4c1.6-2.6,3-5.3,4.2-8.1l-4.2,2.4V95.4z"/>
	</g>
	<g id="XMLID_13560_">
		<path id="XMLID_13579_" class="st11" d="M515.4,40.1L515.4,40.1c-2.8,0.3-5.4,1-7.9,2.1l2.2,1.2L515.4,40.1z"/>
		<path id="XMLID_13578_" class="st11" d="M525.7,43.4l3.3-1.9c-2.8-1-5.8-1.6-9-1.7v0.3L525.7,43.4z"/>
		<path id="XMLID_13577_" class="st11" d="M501.7,57l5.7-3.3v-6.6l-4.4-2.5c-2.7,1.8-5.1,3.9-7.1,6.5v2.7L501.7,57z"/>
		<polygon id="XMLID_13576_" class="st11" points="523.4,53.7 523.4,47.1 517.7,43.8 512,47.1 512,53.7 517.7,57 		"/>
		<path id="XMLID_13575_" class="st11" d="M528,47.1v6.6l5.7,3.3l5.7-3.3v-5.7c-1.1-1.1-2.4-2.1-3.7-3l-2-1.2L528,47.1z"/>
		<path id="XMLID_13574_" class="st11" d="M544.1,53.7c0-0.1-0.1-0.1-0.1-0.2v0.1L544.1,53.7z"/>
		<path id="XMLID_13573_" class="st11" d="M499.4,68.2v-6.6l-5.7-3.3l-2.4,1.4c-1,3-1.6,6.2-1.6,9.5l4,2.3L499.4,68.2z"/>
		<polygon id="XMLID_13572_" class="st11" points="515.4,61.6 509.7,58.3 504,61.6 504,68.2 509.7,71.5 515.4,68.2 		"/>
		<polygon id="XMLID_13571_" class="st11" points="531.4,61.6 525.7,58.3 520,61.6 520,68.2 525.7,71.5 531.4,68.2 		"/>
		<polygon id="XMLID_13570_" class="st11" points="547.4,68.2 547.4,61.6 541.7,58.3 536,61.6 536,68.2 541.7,71.5 		"/>
		<path id="XMLID_13569_" class="st11" d="M490.2,74.4c0.3,1.6,0.7,3.2,1.2,4.7v-3.9L490.2,74.4z"/>
		<polygon id="XMLID_13568_" class="st11" points="496,75.2 496,81.7 501.7,85 507.4,81.7 507.4,75.2 501.7,71.9 		"/>
		<polygon id="XMLID_13567_" class="st11" points="512,75.2 512,81.7 517.7,85 523.4,81.7 523.4,75.2 517.7,71.9 		"/>
		<polygon id="XMLID_13566_" class="st11" points="539.4,75.2 533.7,71.9 528,75.2 528,81.7 533.7,85 539.4,81.7 		"/>
		<path id="XMLID_13565_" class="st11" d="M544,81.7l1.3,0.8c1.5-3,2.6-6.3,3-9.8l-4.3,2.5V81.7z"/>
		<path id="XMLID_13564_" class="st11" d="M496.5,88c0.9,1.1,1.9,2.1,2.9,3.1v-1.4L496.5,88z"/>
		<path id="XMLID_13563_" class="st11" d="M515.4,89.7l-5.7-3.3l-5.7,3.3v4.8c2.6,1.6,5.5,2.8,8.6,3.5l2.8-1.6V89.7z"/>
		<path id="XMLID_13562_" class="st11" d="M525.7,86.4l-5.7,3.3v6.6l3.5,2c2.8-0.4,5.5-1.2,7.9-2.4v-6.2L525.7,86.4z"/>
		<path id="XMLID_13561_" class="st11" d="M542.6,86.9l-0.9-0.5l-5.7,3.3v3.6C538.5,91.5,540.8,89.3,542.6,86.9z"/>
	</g>
	<circle id="XMLID_13559_" class="st12" cx="472" cy="13.3" r="5.8"/>
	<radialGradient id="XMLID_3_" cx="517.679" cy="64.5584" r="59.0068" gradientUnits="userSpaceOnUse">
		<stop  offset="0" style="stop-color:#999999"/>
		<stop  offset="1" style="stop-color:#454545"/>
	</radialGradient>
	<path id="XMLID_13509_" class="st16" d="M568,68.4v-6.6l5.7-3.3l2.8,1.6c0.1,0.7,0.1,1.4,0.1,2.2c-1.2-31.5-27.1-56.8-59-56.8
		c-31.8,0-57.8,25.2-59,56.7c0-0.7,0.1-1.4,0.1-2.1l2.8-1.6l5.7,3.3v6.6l-5.7,3.3l-2.8-1.6c0.6,6.1,2.1,12,4.4,17.4l4.1,2.4v5.6
		c1.2,2,2.5,3.8,3.9,5.6l4.1,2.3v2.3c1.5,1.5,3,2.9,4.6,4.2v-6.5l5.7-3.3l5.7,3.3v6.6l-5.7,3.3l-5.5-3.2c3,2.5,6.3,4.7,9.9,6.6
		l3.6-2.1l5.7,3.3v2.7c1.5,0.5,3,0.9,4.6,1.3v-4l5.7-3.3l5.7,3.3v5.6c0.8,0,1.5,0.1,2.3,0.1c0.8,0,1.5,0,2.3-0.1v-5.6l5.7-3.3
		l5.7,3.3v4c1.6-0.4,3.1-0.8,4.6-1.3v-2.7l5.7-3.3l3.6,2.1c3.5-1.9,6.8-4.1,9.9-6.6l-5.5,3.2L544,110v-6.6l5.7-3.3l5.7,3.3v6.5
		c1.6-1.3,3.1-2.8,4.6-4.2v-2.3l4.1-2.3c1.4-1.8,2.7-3.7,3.9-5.6v-5.6l4.1-2.4c2.3-5.4,3.8-11.3,4.4-17.4l-2.8,1.6L568,68.4z
		 M568,33.7c1.8,2.9,3.3,6,4.6,9.3l-4.6-2.7V33.7z M571.4,47.3v6.6l-5.7,3.3l-5.7-3.3v-6.6l5.7-3.3L571.4,47.3z M480,53.9v-6.6
		l5.7-3.3l5.7,3.3v6.6l-5.7,3.3L480,53.9z M483.4,61.8v6.6l-5.7,3.3l-5.7-3.3v-6.6l5.7-3.3L483.4,61.8z M539.4,47.3v6.6l-5.7,3.3
		l-5.7-3.3v-6.6l5.7-3.3L539.4,47.3z M536,40.3v-6.6l5.7-3.3l5.7,3.3v6.6l-5.7,3.3L536,40.3z M531.4,40.3l-5.7,3.3l-5.7-3.3v-6.6
		l5.7-3.3l5.7,3.3V40.3z M523.4,47.3v6.6l-5.7,3.3l-5.7-3.3v-6.6l5.7-3.3L523.4,47.3z M515.4,40.3l-5.7,3.3l-5.7-3.3v-6.6l5.7-3.3
		l5.7,3.3V40.3z M507.4,47.3v6.6l-5.7,3.3l-5.7-3.3v-6.6l5.7-3.3L507.4,47.3z M499.4,40.3l-5.7,3.3l-5.7-3.3v-6.6l5.7-3.3l5.7,3.3
		V40.3z M488,61.8l5.7-3.3l5.7,3.3v6.6l-5.7,3.3l-5.7-3.3V61.8z M496,75.4l5.7-3.3l5.7,3.3V82l-5.7,3.3L496,82V75.4z M504,68.4v-6.6
		l5.7-3.3l5.7,3.3v6.6l-5.7,3.3L504,68.4z M512,75.4l5.7-3.3l5.7,3.3V82l-5.7,3.3L512,82V75.4z M520,68.4v-6.6l5.7-3.3l5.7,3.3v6.6
		l-5.7,3.3L520,68.4z M528,75.4l5.7-3.3l5.7,3.3V82l-5.7,3.3L528,82V75.4z M536,68.4v-6.6l5.7-3.3l5.7,3.3v6.6l-5.7,3.3L536,68.4z
		 M544,53.9v-6.6l5.7-3.3l5.7,3.3v6.6l-5.7,3.3L544,53.9z M552,61.8l5.7-3.3l5.7,3.3v6.6l-5.7,3.3l-5.7-3.3V61.8z M560,23.4
		c1.5,1.5,2.8,3.1,4.1,4.7l-4.1-2.4V23.4z M563.4,33.7v6.6l-5.7,3.3l-5.7-3.3v-6.6l5.7-3.3L563.4,33.7z M555.4,19.2L555.4,19.2
		L555.4,19.2l0,6.6l-5.7,3.3l-5.7-3.3v-6.6l5.7-3.3L555.4,19.2z M536,8.5c3.6,1.2,7,2.6,10.2,4.4l-4.5,2.6l-5.7-3.3V8.5z
		 M539.4,19.2v6.6l-5.7,3.3l-5.7-3.3v-6.6l5.7-3.3L539.4,19.2z M520,5.6c3.9,0.1,7.7,0.7,11.4,1.6v5l-5.7,3.3l-5.7-3.3V5.6z
		 M523.4,19.2v6.6l-5.7,3.3l-5.7-3.3v-6.6l5.7-3.3L523.4,19.2z M504,7.2c3.7-0.9,7.5-1.4,11.4-1.6v6.6l-5.7,3.3l-5.7-3.3V7.2z
		 M507.4,19.2v6.6l-5.7,3.3l-5.7-3.3v-6.6l5.7-3.3L507.4,19.2z M499.4,8.5v3.7l-5.7,3.3l-4.5-2.6C492.4,11.1,495.8,9.6,499.4,8.5z
		 M480,19.2L480,19.2L480,19.2l5.7-3.3l5.7,3.3v6.6l-5.7,3.3l-5.7-3.3V19.2z M477.7,30.4l5.7,3.3v6.6l-5.7,3.3l-5.7-3.3v-6.6
		L477.7,30.4z M475.4,23.4v2.3l-4.1,2.4C472.5,26.5,473.9,24.9,475.4,23.4z M467.4,33.7v6.6l-4.6,2.7
		C464,39.7,465.6,36.6,467.4,33.7z M464,53.9v-6.6l5.7-3.3l5.7,3.3v6.6l-5.7,3.3L464,53.9z M464,82v-6.6l5.7-3.3l5.7,3.3V82
		l-5.7,3.3L464,82z M483.4,96.5l-5.7,3.3l-5.7-3.3v-6.6l5.7-3.3l5.7,3.3V96.5z M480,82v-6.6l5.7-3.3l5.7,3.3V82l-5.7,3.3L480,82z
		 M488,96.5v-6.6l5.7-3.3l5.7,3.3v6.6l-5.7,3.3L488,96.5z M507.4,110l-5.7,3.3L496,110v-6.6l5.7-3.3l5.7,3.3V110z M504,96.5v-6.6
		l5.7-3.3l5.7,3.3v6.6l-5.7,3.3L504,96.5z M523.4,110l-5.7,3.3L512,110v-6.6l5.7-3.3l5.7,3.3V110z M520,96.5v-6.6l5.7-3.3l5.7,3.3
		v6.6l-5.7,3.3L520,96.5z M539.4,110l-5.7,3.3L528,110v-6.6l5.7-3.3l5.7,3.3V110z M547.4,96.5l-5.7,3.3l-5.7-3.3v-6.6l5.7-3.3
		l5.7,3.3V96.5z M544,82v-6.6l5.7-3.3l5.7,3.3V82l-5.7,3.3L544,82z M563.4,96.5l-5.7,3.3l-5.7-3.3v-6.6l5.7-3.3l5.7,3.3V96.5z
		 M571.4,82l-5.7,3.3L560,82v-6.6l5.7-3.3l5.7,3.3V82z"/>
	<polygon id="XMLID_13508_" class="st14" points="464.4,123.5 464.4,93 476.4,93 476.4,36.9 464.4,36.9 464.4,5.5 457.6,5.5 
		457.6,123.5 	"/>
	<rect id="XMLID_13507_" x="457.6" y="41.3" class="st15" width="13.7" height="46.4"/>
	<polygon id="XMLID_13506_" class="st14" points="571.1,5.5 571.1,36 559.1,36 559.1,92.1 571.1,92.1 571.1,123.5 577.8,123.5 
		577.8,5.5 	"/>
	<rect id="XMLID_13505_" x="564.1" y="41.3" class="st15" width="13.7" height="46.4"/>
	<linearGradient id="XMLID_4_" gradientUnits="userSpaceOnUse" x1="451.4033" y1="64.5295" x2="463.8577" y2="64.5295">
		<stop  offset="0" style="stop-color:#000000"/>
		<stop  offset="0.5" style="stop-color:#FFFFFF"/>
		<stop  offset="1" style="stop-color:#000000"/>
	</linearGradient>
	<path id="XMLID_13502_" class="st17" d="M459.4,123.6h-3.5c-2.5,0-4.5-2-4.5-4.5V9.9c0-2.5,2-4.5,4.5-4.5h3.5c2.5,0,4.5,2,4.5,4.5
		v109.2C463.9,121.6,461.8,123.6,459.4,123.6z"/>
	<g id="XMLID_13732_">
		<rect id="XMLID_13729_" x="376.3" y="57.2" class="st18" width="37" height="20.4"/>
		<g id="XMLID_13719_">
			<path id="XMLID_13696_" class="st19" d="M372.6,81.4l-27.9,5.3c-2.8,0.5-5.4-1.6-5.4-4.5v-34c0-3.1,3.1-5.3,6.1-4.3l27.9,9.8
				c1.8,0.6,3,2.4,3,4.3v19C376.3,79.1,374.7,81,372.6,81.4z"/>
			<path id="XMLID_13717_" class="st20" d="M363.3,75L347,78.2c-1.6,0.3-3.2-1-3.2-2.7V54.9c0-1.9,1.8-3.2,3.6-2.6l16.3,5.9
				c1.1,0.4,1.8,1.4,1.8,2.6v11.5C365.5,73.6,364.6,74.7,363.3,75z"/>
			<path id="XMLID_13718_" class="st11" d="M361.5,72.9l-13,2.5c-1.3,0.3-2.5-0.8-2.5-2.2V57c0-1.5,1.4-2.6,2.8-2.1l13,4.7
				c0.8,0.3,1.4,1.1,1.4,2.1v9.1C363.2,71.8,362.5,72.7,361.5,72.9z"/>
		</g>
		<g id="XMLID_13731_">
			<g id="XMLID_13721_">
				<path id="XMLID_13725_" class="st19" d="M417,52.9l27.9-9.3c2.8-0.5,5.4,1.6,5.4,4.5v34c0,3.1-3.1,5.3-6.1,4.3l-27.9-5.8
					c-1.8-0.6-3-2.4-3-4.3v-19C413.3,55.2,414.9,53.3,417,52.9z"/>
			</g>
			<g id="XMLID_13720_">
				<path id="XMLID_13722_" class="st20" d="M426.2,58.7l15.4-4.9c1.6-0.3,3,0.9,3,2.4v18c0,1.7-1.7,2.8-3.4,2.3l-15.4-3.1
					c-1-0.3-1.7-1.3-1.7-2.3V61.1C424.2,59.9,425.1,58.9,426.2,58.7z"/>
			</g>
			<g id="XMLID_13723_">
				<path id="XMLID_13727_" class="st11" d="M427.6,59.7l12.9-4.1c1.3-0.2,2.5,0.7,2.5,2v15.1c0,1.4-1.4,2.4-2.8,1.9L427.3,72
					c-0.8-0.3-1.4-1-1.4-1.9v-8.4C425.9,60.8,426.6,59.9,427.6,59.7z"/>
			</g>
		</g>
	</g>
	<g id="XMLID_13762_">
		<rect id="XMLID_13781_" x="501.5" y="57.2" class="st18" width="37" height="20.4"/>
		<g id="XMLID_13776_">
			<path id="XMLID_13780_" class="st19" d="M497.7,81.4l-27.9,5.3c-2.8,0.5-5.4-1.6-5.4-4.5v-34c0-3.1,3.1-5.3,6.1-4.3l27.9,9.8
				c1.8,0.6,3,2.4,3,4.3v19C501.5,79.1,499.9,81,497.7,81.4z"/>
			<path id="XMLID_13779_" class="st20" d="M488.5,75l-16.3,3.2c-1.6,0.3-3.2-1-3.2-2.7V54.9c0-1.9,1.8-3.2,3.6-2.6l16.3,5.9
				c1.1,0.4,1.8,1.4,1.8,2.6v11.5C490.6,73.6,489.7,74.7,488.5,75z"/>
			<path id="XMLID_13777_" class="st11" d="M486.7,72.9l-13,2.5c-1.3,0.3-2.5-0.8-2.5-2.2V57c0-1.5,1.4-2.6,2.8-2.1l13,4.7
				c0.8,0.3,1.4,1.1,1.4,2.1v9.1C488.4,71.8,487.7,72.7,486.7,72.9z"/>
		</g>
		<g id="XMLID_13764_">
			<g id="XMLID_13773_">
				<path id="XMLID_13775_" class="st19" d="M542.2,52.9l27.9-9.3c2.8-0.5,5.4,1.6,5.4,4.5v34c0,3.1-3.1,5.3-6.1,4.3l-27.9-5.8
					c-1.8-0.6-3-2.4-3-4.3v-19C538.5,55.2,540,53.3,542.2,52.9z"/>
			</g>
			<g id="XMLID_13769_">
				<path id="XMLID_13771_" class="st20" d="M551.4,58.7l15.4-4.9c1.6-0.3,3,0.9,3,2.4v18c0,1.7-1.7,2.8-3.4,2.3L551,73.4
					c-1-0.3-1.7-1.3-1.7-2.3V61.1C549.4,59.9,550.2,58.9,551.4,58.7z"/>
			</g>
			<g id="XMLID_13766_">
				<path id="XMLID_13767_" class="st11" d="M552.7,59.7l12.9-4.1c1.3-0.2,2.5,0.7,2.5,2v15.1c0,1.4-1.4,2.4-2.8,1.9L552.4,72
					c-0.8-0.3-1.4-1-1.4-1.9v-8.4C551,60.8,551.8,59.9,552.7,59.7z"/>
			</g>
		</g>
	</g>
</g>
<rect id="XMLID_12632_" x="577.8" y="5.5" class="st21" width="70.2" height="118.1"/>
<path id="XMLID_13400_" class="st22" d="M634.1,99.6c0-4.9,4-8.9,8.9-8.9c0.7,0,1.4,0.1,2,0.2V42.9c0-1.1-0.9-1.9-2-1.9c0,0,0,0,0,0
	c-4.9,0-8.9-4-8.8-9c0.1-3.5,2.4-6.7,5.6-8c1.2-0.5,2.3-0.7,3.3-0.7c1,0,1.9-0.9,1.9-1.9V9.9c0-0.8-0.6-1.4-1.4-1.4h-61.3
	c-0.8,0-1.4,0.6-1.4,1.4v109.2c0,0.8,0.6,1.4,1.4,1.4h61.3c0.8,0,1.4-0.6,1.4-1.4v-10.8c-0.6,0.1-1.3,0.2-2,0.2
	C638.1,108.5,634.1,104.6,634.1,99.6z"/>
<circle id="XMLID_12634_" class="st23" cx="643" cy="32.2" r="3.1"/>
<g id="XMLID_13309_">
	<path id="XMLID_13310_" class="st24" d="M643,46.4c0,0.5-0.4,1-1,0.9c-7.9-0.5-14.2-7.1-14.2-15.1s6.3-14.6,14.2-15.1
		c0.5,0,1,0.4,1,0.9v2.4c0,0.5-0.4,0.9-0.9,0.9c-5.6,0.5-10,5.1-10,10.8s4.4,10.4,10,10.8c0.5,0,0.9,0.4,0.9,0.9V46.4z"/>
</g>
<g id="XMLID_13312_">
	<path id="XMLID_13313_" class="st21" d="M601.8,36.8h-0.9l2-2.9l-1.9-2.7h0.9l1.4,2.2l1.4-2.2h0.9l-1.9,2.7l2,2.9h-0.9l-1.5-2.3
		L601.8,36.8z"/>
	<path id="XMLID_13315_" class="st21" d="M606.7,31.2h2.5c0.5,0,0.9,0.1,1.2,0.4c0.3,0.3,0.5,0.7,0.5,1.2c0,0.4-0.1,0.8-0.4,1.1
		c-0.3,0.3-0.7,0.5-1.3,0.5h-1.8v2.4h-0.8V31.2z M609.6,32c-0.2-0.1-0.4-0.1-0.7-0.1h-1.5v1.9h1.5c0.3,0,0.6-0.1,0.8-0.2
		c0.2-0.1,0.3-0.4,0.3-0.8C610.1,32.4,609.9,32.1,609.6,32z"/>
	<path id="XMLID_13318_" class="st21" d="M611.8,31.2h2.4c0.7,0,1.1,0.2,1.4,0.6c0.2,0.2,0.2,0.5,0.2,0.8c0,0.4-0.1,0.6-0.3,0.9
		c-0.1,0.1-0.3,0.2-0.5,0.3c0.3,0.1,0.5,0.2,0.6,0.4c0.3,0.2,0.4,0.6,0.4,1c0,0.4-0.1,0.7-0.3,1c-0.3,0.4-0.9,0.7-1.6,0.7h-2.4V31.2
		z M613.9,33.6c0.3,0,0.6,0,0.8-0.1c0.3-0.1,0.4-0.4,0.4-0.8c0-0.4-0.2-0.6-0.5-0.7c-0.2-0.1-0.4-0.1-0.8-0.1h-1.4v1.7H613.9z
		 M614.2,36.2c0.5,0,0.8-0.1,1-0.4c0.1-0.2,0.2-0.4,0.2-0.6c0-0.4-0.2-0.7-0.6-0.8c-0.2-0.1-0.5-0.1-0.8-0.1h-1.5v2H614.2z"/>
</g>
<g id="XMLID_12633_">
	<ellipse id="XMLID_13402_" class="st5" cx="642" cy="99.8" rx="6.4" ry="6.4"/>
	<g id="XMLID_13311_">
		<rect id="XMLID_13401_" x="641.1" y="96" class="st6" width="1.8" height="7.5"/>
		<rect id="XMLID_13399_" x="638.2" y="98.9" class="st6" width="7.5" height="1.8"/>
	</g>
</g>
<rect id="XMLID_13403_" x="648" y="5.5" class="st25" width="87.1" height="118.1"/>
<path id="XMLID_13497_" class="st2" d="M998.6,123.6H738.1c-1.6,0-2.8-1.3-2.8-2.8V8.3c0-1.6,1.3-2.8,2.8-2.8h260.4
	c1.6,0,2.8,1.3,2.8,2.8v112.5C1001.4,122.3,1000.1,123.6,998.6,123.6z"/>
<path id="XMLID_13911_" class="st26" d="M1263.5,123.6h-250.8c-1.6,0-2.8-1.3-2.8-2.8V8.3c0-1.6,1.3-2.8,2.8-2.8h250.8
	c1.6,0,2.8,1.3,2.8,2.8v112.5C1266.4,122.3,1265.1,123.6,1263.5,123.6z"/>
<rect id="XMLID_13449_" x="651.8" y="10.6" class="st27" width="79.6" height="60.8"/>
<rect id="XMLID_13704_" x="654" y="13.3" class="st28" width="52.8" height="58.2"/>
<g id="XMLID_13697_">
	<path id="XMLID_13699_" class="st29" d="M695.5,31.9h-30.3c-0.8,0-1.4-0.6-1.4-1.4v-9.3c0-0.8,0.6-1.4,1.4-1.4h30.3
		c0.8,0,1.4,0.6,1.4,1.4v9.3C696.9,31.3,696.3,31.9,695.5,31.9z"/>
	<path id="XMLID_13698_" class="st2" d="M695.1,27.6h-29.3c-0.2,0-0.4-0.2-0.4-0.4v-3.9c0-0.2,0.2-0.4,0.4-0.4h29.3
		c0.2,0,0.4,0.2,0.4,0.4v3.9C695.5,27.4,695.3,27.6,695.1,27.6z"/>
</g>
<g id="XMLID_13700_">
	<path id="XMLID_13702_" class="st29" d="M695.5,53.5h-30.3c-0.8,0-1.4-0.6-1.4-1.4v-9.3c0-0.8,0.6-1.4,1.4-1.4h30.3
		c0.8,0,1.4,0.6,1.4,1.4v9.3C696.9,52.9,696.3,53.5,695.5,53.5z"/>
	<path id="XMLID_13701_" class="st2" d="M695.1,49.2h-29.3c-0.2,0-0.4-0.2-0.4-0.4v-3.9c0-0.2,0.2-0.4,0.4-0.4h29.3
		c0.2,0,0.4,0.2,0.4,0.4v3.9C695.5,49,695.3,49.2,695.1,49.2z"/>
</g>
<g id="XMLID_13747_">
	<g id="XMLID_13714_">
		<polygon id="XMLID_13712_" points="749.6,21.8 749.6,27.9 744.3,31 738.9,27.9 738.9,21.8 744.3,18.7 		"/>
		<polygon id="XMLID_13715_" points="762.7,21.8 762.7,27.9 757.3,31 752,27.9 752,21.8 757.3,18.7 		"/>
		<polygon id="XMLID_13716_" points="775.8,21.8 775.8,27.9 770.4,31 765.1,27.9 765.1,21.8 770.4,18.7 		"/>
		<polygon id="XMLID_13724_" points="788.8,21.8 788.8,27.9 783.5,31 778.2,27.9 778.2,21.8 783.5,18.7 		"/>
		<polygon id="XMLID_13726_" points="801.9,21.8 801.9,27.9 796.6,31 791.2,27.9 791.2,21.8 796.6,18.7 		"/>
		<polygon id="XMLID_13728_" points="815,21.8 815,27.9 809.6,31 804.3,27.9 804.3,21.8 809.6,18.7 		"/>
		<polygon id="XMLID_13730_" points="828.1,21.8 828.1,27.9 822.7,31 817.4,27.9 817.4,21.8 822.7,18.7 		"/>
		<polygon id="XMLID_13733_" points="841.1,21.8 841.1,27.9 835.8,31 830.5,27.9 830.5,21.8 835.8,18.7 		"/>
		<polygon id="XMLID_13734_" points="854.2,21.8 854.2,27.9 848.9,31 843.5,27.9 843.5,21.8 848.9,18.7 		"/>
		<polygon id="XMLID_13735_" points="867.3,21.8 867.3,27.9 862,31 856.6,27.9 856.6,21.8 862,18.7 		"/>
		<polygon id="XMLID_13736_" points="880.4,21.8 880.4,27.9 875,31 869.7,27.9 869.7,21.8 875,18.7 		"/>
		<polygon id="XMLID_13737_" points="893.4,21.8 893.4,27.9 888.1,31 882.8,27.9 882.8,21.8 888.1,18.7 		"/>
		<polygon id="XMLID_13738_" points="906.5,21.8 906.5,27.9 901.2,31 895.8,27.9 895.8,21.8 901.2,18.7 		"/>
		<polygon id="XMLID_13739_" points="919.6,21.8 919.6,27.9 914.3,31 908.9,27.9 908.9,21.8 914.3,18.7 		"/>
		<polygon id="XMLID_13740_" points="932.7,21.8 932.7,27.9 927.3,31 922,27.9 922,21.8 927.3,18.7 		"/>
		<polygon id="XMLID_13741_" points="945.7,21.8 945.7,27.9 940.4,31 935.1,27.9 935.1,21.8 940.4,18.7 		"/>
		<polygon id="XMLID_13742_" points="958.8,21.8 958.8,27.9 953.5,31 948.1,27.9 948.1,21.8 953.5,18.7 		"/>
		<polygon id="XMLID_13743_" points="971.9,21.8 971.9,27.9 966.6,31 961.2,27.9 961.2,21.8 966.6,18.7 		"/>
		<polygon id="XMLID_13744_" points="985,21.8 985,27.9 979.6,31 974.3,27.9 974.3,21.8 979.6,18.7 		"/>
		<polygon id="XMLID_13745_" points="998,21.8 998,27.9 992.7,31 987.4,27.9 987.4,21.8 992.7,18.7 		"/>
	</g>
	<g id="XMLID_13748_">
		<polygon id="XMLID_13774_" points="756.1,34.1 756.1,40.2 750.8,43.3 745.5,40.2 745.5,34.1 750.8,31 		"/>
		<polygon id="XMLID_13772_" points="769.2,34.1 769.2,40.2 763.9,43.3 758.5,40.2 758.5,34.1 763.9,31 		"/>
		<polygon id="XMLID_13770_" points="782.3,34.1 782.3,40.2 777,43.3 771.6,40.2 771.6,34.1 777,31 		"/>
		<polygon id="XMLID_13768_" points="795.4,34.1 795.4,40.2 790,43.3 784.7,40.2 784.7,34.1 790,31 		"/>
		<polygon id="XMLID_13765_" points="808.4,34.1 808.4,40.2 803.1,43.3 797.8,40.2 797.8,34.1 803.1,31 		"/>
		<polygon id="XMLID_13763_" points="821.5,34.1 821.5,40.2 816.2,43.3 810.9,40.2 810.9,34.1 816.2,31 		"/>
		<polygon id="XMLID_13761_" points="834.6,34.1 834.6,40.2 829.3,43.3 823.9,40.2 823.9,34.1 829.3,31 		"/>
		<polygon id="XMLID_13760_" points="847.7,34.1 847.7,40.2 842.3,43.3 837,40.2 837,34.1 842.3,31 		"/>
		<polygon id="XMLID_13759_" points="860.7,34.1 860.7,40.2 855.4,43.3 850.1,40.2 850.1,34.1 855.4,31 		"/>
		<polygon id="XMLID_13758_" points="873.8,34.1 873.8,40.2 868.5,43.3 863.2,40.2 863.2,34.1 868.5,31 		"/>
		<polygon id="XMLID_13757_" points="886.9,34.1 886.9,40.2 881.6,43.3 876.2,40.2 876.2,34.1 881.6,31 		"/>
		<polygon id="XMLID_13756_" points="900,34.1 900,40.2 894.6,43.3 889.3,40.2 889.3,34.1 894.6,31 		"/>
		<polygon id="XMLID_13755_" points="913,34.1 913,40.2 907.7,43.3 902.4,40.2 902.4,34.1 907.7,31 		"/>
		<polygon id="XMLID_13754_" points="926.1,34.1 926.1,40.2 920.8,43.3 915.5,40.2 915.5,34.1 920.8,31 		"/>
		<polygon id="XMLID_13753_" points="939.2,34.1 939.2,40.2 933.9,43.3 928.5,40.2 928.5,34.1 933.9,31 		"/>
		<polygon id="XMLID_13752_" points="952.3,34.1 952.3,40.2 946.9,43.3 941.6,40.2 941.6,34.1 946.9,31 		"/>
		<polygon id="XMLID_13751_" points="965.4,34.1 965.4,40.2 960,43.3 954.7,40.2 954.7,34.1 960,31 		"/>
		<polygon id="XMLID_13750_" points="978.4,34.1 978.4,40.2 973.1,43.3 967.8,40.2 967.8,34.1 973.1,31 		"/>
		<polygon id="XMLID_13749_" points="991.5,34.1 991.5,40.2 986.2,43.3 980.8,40.2 980.8,34.1 986.2,31 		"/>
	</g>
	<g id="XMLID_13803_">
		<polygon id="XMLID_13823_" points="749.6,46.4 749.6,52.6 744.3,55.6 738.9,52.6 738.9,46.4 744.3,43.3 		"/>
		<polygon id="XMLID_13822_" points="762.7,46.4 762.7,52.6 757.3,55.6 752,52.6 752,46.4 757.3,43.3 		"/>
		<polygon id="XMLID_13821_" points="775.8,46.4 775.8,52.6 770.4,55.6 765.1,52.6 765.1,46.4 770.4,43.3 		"/>
		<polygon id="XMLID_13820_" points="788.8,46.4 788.8,52.6 783.5,55.6 778.2,52.6 778.2,46.4 783.5,43.3 		"/>
		<polygon id="XMLID_13819_" points="801.9,46.4 801.9,52.6 796.6,55.6 791.2,52.6 791.2,46.4 796.6,43.3 		"/>
		<polygon id="XMLID_13818_" points="815,46.4 815,52.6 809.6,55.6 804.3,52.6 804.3,46.4 809.6,43.3 		"/>
		<polygon id="XMLID_13817_" points="828.1,46.4 828.1,52.6 822.7,55.6 817.4,52.6 817.4,46.4 822.7,43.3 		"/>
		<polygon id="XMLID_13816_" points="841.1,46.4 841.1,52.6 835.8,55.6 830.5,52.6 830.5,46.4 835.8,43.3 		"/>
		<polygon id="XMLID_13815_" points="854.2,46.4 854.2,52.6 848.9,55.6 843.5,52.6 843.5,46.4 848.9,43.3 		"/>
		<polygon id="XMLID_13814_" points="867.3,46.4 867.3,52.6 862,55.6 856.6,52.6 856.6,46.4 862,43.3 		"/>
		<polygon id="XMLID_13813_" points="880.4,46.4 880.4,52.6 875,55.6 869.7,52.6 869.7,46.4 875,43.3 		"/>
		<polygon id="XMLID_13812_" points="893.4,46.4 893.4,52.6 888.1,55.6 882.8,52.6 882.8,46.4 888.1,43.3 		"/>
		<polygon id="XMLID_13811_" points="906.5,46.4 906.5,52.6 901.2,55.6 895.8,52.6 895.8,46.4 901.2,43.3 		"/>
		<polygon id="XMLID_13810_" points="919.6,46.4 919.6,52.6 914.3,55.6 908.9,52.6 908.9,46.4 914.3,43.3 		"/>
		<polygon id="XMLID_13809_" points="932.7,46.4 932.7,52.6 927.3,55.6 922,52.6 922,46.4 927.3,43.3 		"/>
		<polygon id="XMLID_13808_" points="945.7,46.4 945.7,52.6 940.4,55.6 935.1,52.6 935.1,46.4 940.4,43.3 		"/>
		<polygon id="XMLID_13807_" points="958.8,46.4 958.8,52.6 953.5,55.6 948.1,52.6 948.1,46.4 953.5,43.3 		"/>
		<polygon id="XMLID_13806_" points="971.9,46.4 971.9,52.6 966.6,55.6 961.2,52.6 961.2,46.4 966.6,43.3 		"/>
		<polygon id="XMLID_13805_" points="985,46.4 985,52.6 979.6,55.6 974.3,52.6 974.3,46.4 979.6,43.3 		"/>
		<polygon id="XMLID_13804_" points="998,46.4 998,52.6 992.7,55.6 987.4,52.6 987.4,46.4 992.7,43.3 		"/>
	</g>
	<g id="XMLID_13782_">
		<polygon id="XMLID_13801_" points="756.1,58.7 756.1,64.9 750.8,68 745.5,64.9 745.5,58.7 750.8,55.6 		"/>
		<polygon id="XMLID_13800_" points="769.2,58.7 769.2,64.9 763.9,68 758.5,64.9 758.5,58.7 763.9,55.6 		"/>
		<polygon id="XMLID_13799_" points="782.3,58.7 782.3,64.9 777,68 771.6,64.9 771.6,58.7 777,55.6 		"/>
		<polygon id="XMLID_13798_" points="795.4,58.7 795.4,64.9 790,68 784.7,64.9 784.7,58.7 790,55.6 		"/>
		<polygon id="XMLID_13797_" points="808.4,58.7 808.4,64.9 803.1,68 797.8,64.9 797.8,58.7 803.1,55.6 		"/>
		<polygon id="XMLID_13796_" points="821.5,58.7 821.5,64.9 816.2,68 810.9,64.9 810.9,58.7 816.2,55.6 		"/>
		<polygon id="XMLID_13795_" points="834.6,58.7 834.6,64.9 829.3,68 823.9,64.9 823.9,58.7 829.3,55.6 		"/>
		<polygon id="XMLID_13794_" points="847.7,58.7 847.7,64.9 842.3,68 837,64.9 837,58.7 842.3,55.6 		"/>
		<polygon id="XMLID_13793_" points="860.7,58.7 860.7,64.9 855.4,68 850.1,64.9 850.1,58.7 855.4,55.6 		"/>
		<polygon id="XMLID_13792_" points="873.8,58.7 873.8,64.9 868.5,68 863.2,64.9 863.2,58.7 868.5,55.6 		"/>
		<polygon id="XMLID_13791_" points="886.9,58.7 886.9,64.9 881.6,68 876.2,64.9 876.2,58.7 881.6,55.6 		"/>
		<polygon id="XMLID_13790_" points="900,58.7 900,64.9 894.6,68 889.3,64.9 889.3,58.7 894.6,55.6 		"/>
		<polygon id="XMLID_13789_" points="913,58.7 913,64.9 907.7,68 902.4,64.9 902.4,58.7 907.7,55.6 		"/>
		<polygon id="XMLID_13788_" points="926.1,58.7 926.1,64.9 920.8,68 915.5,64.9 915.5,58.7 920.8,55.6 		"/>
		<polygon id="XMLID_13787_" points="939.2,58.7 939.2,64.9 933.9,68 928.5,64.9 928.5,58.7 933.9,55.6 		"/>
		<polygon id="XMLID_13786_" points="952.3,58.7 952.3,64.9 946.9,68 941.6,64.9 941.6,58.7 946.9,55.6 		"/>
		<polygon id="XMLID_13785_" points="965.4,58.7 965.4,64.9 960,68 954.7,64.9 954.7,58.7 960,55.6 		"/>
		<polygon id="XMLID_13784_" points="978.4,58.7 978.4,64.9 973.1,68 967.8,64.9 967.8,58.7 973.1,55.6 		"/>
		<polygon id="XMLID_13783_" points="991.5,58.7 991.5,64.9 986.2,68 980.8,64.9 980.8,58.7 986.2,55.6 		"/>
	</g>
	<g id="XMLID_13845_">
		<polygon id="XMLID_13865_" points="749.6,71 749.6,77.2 744.3,80.3 738.9,77.2 738.9,71 744.3,68 		"/>
		<polygon id="XMLID_13864_" points="762.7,71 762.7,77.2 757.3,80.3 752,77.2 752,71 757.3,68 		"/>
		<polygon id="XMLID_13863_" points="775.8,71 775.8,77.2 770.4,80.3 765.1,77.2 765.1,71 770.4,68 		"/>
		<polygon id="XMLID_13862_" points="788.8,71 788.8,77.2 783.5,80.3 778.2,77.2 778.2,71 783.5,68 		"/>
		<polygon id="XMLID_13861_" points="801.9,71 801.9,77.2 796.6,80.3 791.2,77.2 791.2,71 796.6,68 		"/>
		<polygon id="XMLID_13860_" points="815,71 815,77.2 809.6,80.3 804.3,77.2 804.3,71 809.6,68 		"/>
		<polygon id="XMLID_13859_" points="828.1,71 828.1,77.2 822.7,80.3 817.4,77.2 817.4,71 822.7,68 		"/>
		<polygon id="XMLID_13858_" points="841.1,71 841.1,77.2 835.8,80.3 830.5,77.2 830.5,71 835.8,68 		"/>
		<polygon id="XMLID_13857_" points="854.2,71 854.2,77.2 848.9,80.3 843.5,77.2 843.5,71 848.9,68 		"/>
		<polygon id="XMLID_13856_" points="867.3,71 867.3,77.2 862,80.3 856.6,77.2 856.6,71 862,68 		"/>
		<polygon id="XMLID_13855_" points="880.4,71 880.4,77.2 875,80.3 869.7,77.2 869.7,71 875,68 		"/>
		<polygon id="XMLID_13854_" points="893.4,71 893.4,77.2 888.1,80.3 882.8,77.2 882.8,71 888.1,68 		"/>
		<polygon id="XMLID_13853_" points="906.5,71 906.5,77.2 901.2,80.3 895.8,77.2 895.8,71 901.2,68 		"/>
		<polygon id="XMLID_13852_" points="919.6,71 919.6,77.2 914.3,80.3 908.9,77.2 908.9,71 914.3,68 		"/>
		<polygon id="XMLID_13851_" points="932.7,71 932.7,77.2 927.3,80.3 922,77.2 922,71 927.3,68 		"/>
		<polygon id="XMLID_13850_" points="945.7,71 945.7,77.2 940.4,80.3 935.1,77.2 935.1,71 940.4,68 		"/>
		<polygon id="XMLID_13849_" points="958.8,71 958.8,77.2 953.5,80.3 948.1,77.2 948.1,71 953.5,68 		"/>
		<polygon id="XMLID_13848_" points="971.9,71 971.9,77.2 966.6,80.3 961.2,77.2 961.2,71 966.6,68 		"/>
		<polygon id="XMLID_13847_" points="985,71 985,77.2 979.6,80.3 974.3,77.2 974.3,71 979.6,68 		"/>
		<polygon id="XMLID_13846_" points="998,71 998,77.2 992.7,80.3 987.4,77.2 987.4,71 992.7,68 		"/>
	</g>
	<g id="XMLID_13824_">
		<polygon id="XMLID_13843_" points="756.1,83.4 756.1,89.5 750.8,92.6 745.5,89.5 745.5,83.4 750.8,80.3 		"/>
		<polygon id="XMLID_13842_" points="769.2,83.4 769.2,89.5 763.9,92.6 758.5,89.5 758.5,83.4 763.9,80.3 		"/>
		<polygon id="XMLID_13841_" points="782.3,83.4 782.3,89.5 777,92.6 771.6,89.5 771.6,83.4 777,80.3 		"/>
		<polygon id="XMLID_13840_" points="795.4,83.4 795.4,89.5 790,92.6 784.7,89.5 784.7,83.4 790,80.3 		"/>
		<polygon id="XMLID_13839_" points="808.4,83.4 808.4,89.5 803.1,92.6 797.8,89.5 797.8,83.4 803.1,80.3 		"/>
		<polygon id="XMLID_13838_" points="821.5,83.4 821.5,89.5 816.2,92.6 810.9,89.5 810.9,83.4 816.2,80.3 		"/>
		<polygon id="XMLID_13837_" points="834.6,83.4 834.6,89.5 829.3,92.6 823.9,89.5 823.9,83.4 829.3,80.3 		"/>
		<polygon id="XMLID_13836_" points="847.7,83.4 847.7,89.5 842.3,92.6 837,89.5 837,83.4 842.3,80.3 		"/>
		<polygon id="XMLID_13835_" points="860.7,83.4 860.7,89.5 855.4,92.6 850.1,89.5 850.1,83.4 855.4,80.3 		"/>
		<polygon id="XMLID_13834_" points="873.8,83.4 873.8,89.5 868.5,92.6 863.2,89.5 863.2,83.4 868.5,80.3 		"/>
		<polygon id="XMLID_13833_" points="886.9,83.4 886.9,89.5 881.6,92.6 876.2,89.5 876.2,83.4 881.6,80.3 		"/>
		<polygon id="XMLID_13832_" points="900,83.4 900,89.5 894.6,92.6 889.3,89.5 889.3,83.4 894.6,80.3 		"/>
		<polygon id="XMLID_13831_" points="913,83.4 913,89.5 907.7,92.6 902.4,89.5 902.4,83.4 907.7,80.3 		"/>
		<polygon id="XMLID_13830_" points="926.1,83.4 926.1,89.5 920.8,92.6 915.5,89.5 915.5,83.4 920.8,80.3 		"/>
		<polygon id="XMLID_13829_" points="939.2,83.4 939.2,89.5 933.9,92.6 928.5,89.5 928.5,83.4 933.9,80.3 		"/>
		<polygon id="XMLID_13828_" points="952.3,83.4 952.3,89.5 946.9,92.6 941.6,89.5 941.6,83.4 946.9,80.3 		"/>
		<polygon id="XMLID_13827_" points="965.4,83.4 965.4,89.5 960,92.6 954.7,89.5 954.7,83.4 960,80.3 		"/>
		<polygon id="XMLID_13826_" points="978.4,83.4 978.4,89.5 973.1,92.6 967.8,89.5 967.8,83.4 973.1,80.3 		"/>
		<polygon id="XMLID_13825_" points="991.5,83.4 991.5,89.5 986.2,92.6 980.8,89.5 980.8,83.4 986.2,80.3 		"/>
	</g>
	<g id="XMLID_13887_">
		<polygon id="XMLID_13907_" points="749.6,95.7 749.6,101.8 744.3,104.9 738.9,101.8 738.9,95.7 744.3,92.6 		"/>
		<polygon id="XMLID_13906_" points="762.7,95.7 762.7,101.8 757.3,104.9 752,101.8 752,95.7 757.3,92.6 		"/>
		<polygon id="XMLID_13905_" points="775.8,95.7 775.8,101.8 770.4,104.9 765.1,101.8 765.1,95.7 770.4,92.6 		"/>
		<polygon id="XMLID_13904_" points="788.8,95.7 788.8,101.8 783.5,104.9 778.2,101.8 778.2,95.7 783.5,92.6 		"/>
		<polygon id="XMLID_13903_" points="801.9,95.7 801.9,101.8 796.6,104.9 791.2,101.8 791.2,95.7 796.6,92.6 		"/>
		<polygon id="XMLID_13902_" points="815,95.7 815,101.8 809.6,104.9 804.3,101.8 804.3,95.7 809.6,92.6 		"/>
		<polygon id="XMLID_13901_" points="828.1,95.7 828.1,101.8 822.7,104.9 817.4,101.8 817.4,95.7 822.7,92.6 		"/>
		<polygon id="XMLID_13900_" points="841.1,95.7 841.1,101.8 835.8,104.9 830.5,101.8 830.5,95.7 835.8,92.6 		"/>
		<polygon id="XMLID_13899_" points="854.2,95.7 854.2,101.8 848.9,104.9 843.5,101.8 843.5,95.7 848.9,92.6 		"/>
		<polygon id="XMLID_13898_" points="867.3,95.7 867.3,101.8 862,104.9 856.6,101.8 856.6,95.7 862,92.6 		"/>
		<polygon id="XMLID_13897_" points="880.4,95.7 880.4,101.8 875,104.9 869.7,101.8 869.7,95.7 875,92.6 		"/>
		<polygon id="XMLID_13896_" points="893.4,95.7 893.4,101.8 888.1,104.9 882.8,101.8 882.8,95.7 888.1,92.6 		"/>
		<polygon id="XMLID_13895_" points="906.5,95.7 906.5,101.8 901.2,104.9 895.8,101.8 895.8,95.7 901.2,92.6 		"/>
		<polygon id="XMLID_13894_" points="919.6,95.7 919.6,101.8 914.3,104.9 908.9,101.8 908.9,95.7 914.3,92.6 		"/>
		<polygon id="XMLID_13893_" points="932.7,95.7 932.7,101.8 927.3,104.9 922,101.8 922,95.7 927.3,92.6 		"/>
		<polygon id="XMLID_13892_" points="945.7,95.7 945.7,101.8 940.4,104.9 935.1,101.8 935.1,95.7 940.4,92.6 		"/>
		<polygon id="XMLID_13891_" points="958.8,95.7 958.8,101.8 953.5,104.9 948.1,101.8 948.1,95.7 953.5,92.6 		"/>
		<polygon id="XMLID_13890_" points="971.9,95.7 971.9,101.8 966.6,104.9 961.2,101.8 961.2,95.7 966.6,92.6 		"/>
		<polygon id="XMLID_13889_" points="985,95.7 985,101.8 979.6,104.9 974.3,101.8 974.3,95.7 979.6,92.6 		"/>
		<polygon id="XMLID_13888_" points="998,95.7 998,101.8 992.7,104.9 987.4,101.8 987.4,95.7 992.7,92.6 		"/>
	</g>
	<g id="XMLID_13866_">
		<polygon id="XMLID_13885_" points="756.1,108 756.1,114.2 750.8,117.2 745.5,114.2 745.5,108 750.8,104.9 		"/>
		<polygon id="XMLID_13884_" points="769.2,108 769.2,114.2 763.9,117.2 758.5,114.2 758.5,108 763.9,104.9 		"/>
		<polygon id="XMLID_13883_" points="782.3,108 782.3,114.2 777,117.2 771.6,114.2 771.6,108 777,104.9 		"/>
		<polygon id="XMLID_13882_" points="795.4,108 795.4,114.2 790,117.2 784.7,114.2 784.7,108 790,104.9 		"/>
		<polygon id="XMLID_13881_" points="808.4,108 808.4,114.2 803.1,117.2 797.8,114.2 797.8,108 803.1,104.9 		"/>
		<polygon id="XMLID_13880_" points="821.5,108 821.5,114.2 816.2,117.2 810.9,114.2 810.9,108 816.2,104.9 		"/>
		<polygon id="XMLID_13879_" points="834.6,108 834.6,114.2 829.3,117.2 823.9,114.2 823.9,108 829.3,104.9 		"/>
		<polygon id="XMLID_13878_" points="847.7,108 847.7,114.2 842.3,117.2 837,114.2 837,108 842.3,104.9 		"/>
		<polygon id="XMLID_13877_" points="860.7,108 860.7,114.2 855.4,117.2 850.1,114.2 850.1,108 855.4,104.9 		"/>
		<polygon id="XMLID_13876_" points="873.8,108 873.8,114.2 868.5,117.2 863.2,114.2 863.2,108 868.5,104.9 		"/>
		<polygon id="XMLID_13875_" points="886.9,108 886.9,114.2 881.6,117.2 876.2,114.2 876.2,108 881.6,104.9 		"/>
		<polygon id="XMLID_13874_" points="900,108 900,114.2 894.6,117.2 889.3,114.2 889.3,108 894.6,104.9 		"/>
		<polygon id="XMLID_13873_" points="913,108 913,114.2 907.7,117.2 902.4,114.2 902.4,108 907.7,104.9 		"/>
		<polygon id="XMLID_13872_" points="926.1,108 926.1,114.2 920.8,117.2 915.5,114.2 915.5,108 920.8,104.9 		"/>
		<polygon id="XMLID_13871_" points="939.2,108 939.2,114.2 933.9,117.2 928.5,114.2 928.5,108 933.9,104.9 		"/>
		<polygon id="XMLID_13870_" points="952.3,108 952.3,114.2 946.9,117.2 941.6,114.2 941.6,108 946.9,104.9 		"/>
		<polygon id="XMLID_13869_" points="965.4,108 965.4,114.2 960,117.2 954.7,114.2 954.7,108 960,104.9 		"/>
		<polygon id="XMLID_13868_" points="978.4,108 978.4,114.2 973.1,117.2 967.8,114.2 967.8,108 973.1,104.9 		"/>
		<polygon id="XMLID_13867_" points="991.5,108 991.5,114.2 986.2,117.2 980.8,114.2 980.8,108 986.2,104.9 		"/>
	</g>
</g>
<g id="XMLID_13844_">
	<rect id="XMLID_13778_" x="761.6" y="17.6" class="st30" width="20.1" height="20.1"/>
	<circle id="XMLID_13802_" class="st31" cx="771.6" cy="27.6" r="6.2"/>
</g>
<g id="XMLID_13908_">
	<rect id="XMLID_13910_" x="811.5" y="17.6" class="st30" width="20.1" height="20.1"/>
	<circle id="XMLID_13909_" class="st31" cx="821.5" cy="27.6" r="6.2"/>
</g>
<path id="XMLID_13886_" class="st32" d="M998.6,77.2h-28c-1.6,0-2.8-1.3-2.8-2.8V43.1c0-1.6,1.3-2.8,2.8-2.8h28
	c1.6,0,2.8,1.3,2.8,2.8v31.3C1001.4,75.9,1000.1,77.2,998.6,77.2z"/>
<path id="XMLID_13912_" class="st32" d="M856.3,125.5h-40.1V83c0-1.6,1.3-2.8,2.8-2.8h34.4c1.6,0,2.8,1.3,2.8,2.8V125.5z"/>
<path id="XMLID_13913_" class="st32" d="M792.1,125.5h-20.8V98.8c0-1.6,1.3-2.8,2.8-2.8h15.1c1.6,0,2.8,1.3,2.8,2.8V125.5z"/>
<g id="XMLID_13922_">
	<g id="XMLID_13932_">
		<g id="XMLID_13933_">
			<rect id="XMLID_13940_" x="1100.3" y="75.1" class="st33" width="6.7" height="26.4"/>
			<path id="XMLID_13939_" class="st33" d="M1160.7,82.7c-0.3-0.1-2.4-1.4-5.6-1.4c-4.3,0-7.3,3-7.3,7c0,3.9,2.9,7.1,7.3,7.1
				c3.1,0,5.3-1.2,5.6-1.4v7.1c-0.8,0.2-3.1,0.9-6.1,0.9c-7.5,0-14.1-5.2-14.1-13.7c0-7.9,6-13.7,14.1-13.7c3.1,0,5.4,0.8,6.1,1
				V82.7z"/>
			<path id="XMLID_13938_" class="st33" d="M1091.1,82.7c-0.3-0.1-2.4-1.4-5.6-1.4c-4.3,0-7.3,3-7.3,7c0,3.9,2.9,7.1,7.3,7.1
				c3.1,0,5.3-1.2,5.6-1.4v7.1c-0.8,0.2-3.1,0.9-6.1,0.9c-7.5,0-14.1-5.2-14.1-13.7c0-7.9,6-13.7,14.1-13.7c3.1,0,5.5,0.8,6.1,1
				V82.7z"/>
			<path id="XMLID_13935_" class="st33" d="M1195.7,88.3c0,7.6-5.8,13.7-14,13.7c-8.1,0-14-6.1-14-13.7c0-7.5,5.8-13.7,14-13.7
				C1189.8,74.6,1195.7,80.8,1195.7,88.3z M1181.7,81.4c-4,0-6.9,3.1-6.9,7c0,3.8,2.9,7,6.9,7c4,0,6.9-3.1,6.9-7
				C1188.6,84.5,1185.7,81.4,1181.7,81.4z"/>
			<path id="XMLID_13934_" class="st33" d="M1132.2,81.1c-0.1,0-2.9-0.8-5.2-0.8c-2.7,0-4.1,0.9-4.1,2.2c0,1.6,2,2.2,3.1,2.5
				l1.8,0.6c4.3,1.4,6.3,4.3,6.3,7.6c0,6.6-5.8,8.9-10.9,8.9c-3.5,0-6.9-0.7-7.2-0.7v-6.1c0.6,0.1,3.4,1,6.3,1c3.3,0,4.8-1,4.8-2.5
				c0-1.3-1.3-2.1-3-2.6c-0.4-0.1-1-0.3-1.4-0.5c-3.7-1.2-6.8-3.4-6.8-7.7c0-4.9,3.7-8.3,9.8-8.3c3.2,0,6.3,0.8,6.5,0.8V81.1z"/>
		</g>
	</g>
	<path id="XMLID_13931_" class="st33" d="M1063.9,46.7c0-1.8-1.5-3.3-3.3-3.3c-1.8,0-3.3,1.5-3.3,3.3v6.9c0,1.8,1.5,3.3,3.3,3.3
		c1.8,0,3.3-1.5,3.3-3.3V46.7z"/>
	<path id="XMLID_13930_" class="st33" d="M1082.1,37.6c0-1.8-1.5-3.3-3.3-3.3c-1.8,0-3.3,1.5-3.3,3.3v16c0,1.8,1.5,3.3,3.3,3.3
		c1.8,0,3.3-1.5,3.3-3.3V37.6z"/>
	<path id="XMLID_13929_" class="st33" d="M1100.3,25.1c0-1.8-1.5-3.3-3.3-3.3c-1.8,0-3.3,1.5-3.3,3.3v35.1c0,1.8,1.5,3.3,3.3,3.3
		c1.8,0,3.3-1.5,3.3-3.3V25.1z"/>
	<path id="XMLID_13928_" class="st33" d="M1118.5,37.6c0-1.8-1.5-3.3-3.3-3.3c-1.8,0-3.3,1.5-3.3,3.3v16c0,1.8,1.5,3.3,3.3,3.3
		c1.8,0,3.3-1.5,3.3-3.3V37.6z"/>
	<path id="XMLID_13927_" class="st33" d="M1136.6,46.7c0-1.8-1.5-3.3-3.3-3.3c-1.8,0-3.3,1.5-3.3,3.3v6.9c0,1.8,1.5,3.3,3.3,3.3
		c1.8,0,3.3-1.5,3.3-3.3V46.7z"/>
	<path id="XMLID_13926_" class="st33" d="M1154.8,37.6c0-1.8-1.5-3.3-3.3-3.3c-1.8,0-3.3,1.5-3.3,3.3v16c0,1.8,1.5,3.3,3.3,3.3
		c1.8,0,3.3-1.5,3.3-3.3V37.6z"/>
	<path id="XMLID_13925_" class="st33" d="M1173,25.1c0-1.8-1.5-3.3-3.3-3.3c-1.8,0-3.3,1.5-3.3,3.3v35.1c0,1.8,1.5,3.3,3.3,3.3
		c1.8,0,3.3-1.5,3.3-3.3V25.1z"/>
	<path id="XMLID_13924_" class="st33" d="M1191.2,37.6c0-1.8-1.5-3.3-3.3-3.3c-1.8,0-3.3,1.5-3.3,3.3v16c0,1.8,1.5,3.3,3.3,3.3
		c1.9,0,3.3-1.5,3.3-3.3V37.6z"/>
	<path id="XMLID_13923_" class="st33" d="M1209.4,46.7c0-1.8-1.5-3.3-3.3-3.3c-1.8,0-3.3,1.5-3.3,3.3v6.9c0,1.8,1.5,3.3,3.3,3.3
		c1.8,0,3.3-1.5,3.3-3.3V46.7z"/>
</g>
<g id="XMLID_13941_">
	<g id="XMLID_13951_">
		<g id="XMLID_13952_">
			<rect id="XMLID_13959_" x="1102.3" y="78.1" class="st34" width="6.7" height="26.4"/>
			<path id="XMLID_13958_" class="st34" d="M1162.7,85.7c-0.3-0.1-2.4-1.4-5.6-1.4c-4.3,0-7.3,3-7.3,7c0,3.9,2.9,7.1,7.3,7.1
				c3.1,0,5.3-1.2,5.6-1.4v7.1c-0.8,0.2-3.1,0.9-6.1,0.9c-7.5,0-14.1-5.2-14.1-13.7c0-7.9,6-13.7,14.1-13.7c3.1,0,5.4,0.8,6.1,1
				V85.7z"/>
			<path id="XMLID_13957_" class="st34" d="M1093.1,85.7c-0.3-0.1-2.4-1.4-5.6-1.4c-4.3,0-7.3,3-7.3,7c0,3.9,2.9,7.1,7.3,7.1
				c3.1,0,5.3-1.2,5.6-1.4v7.1c-0.8,0.2-3.1,0.9-6.1,0.9c-7.5,0-14.1-5.2-14.1-13.7c0-7.9,6-13.7,14.1-13.7c3.1,0,5.5,0.8,6.1,1
				V85.7z"/>
			<path id="XMLID_13954_" class="st34" d="M1197.7,91.3c0,7.6-5.8,13.7-14,13.7c-8.1,0-14-6.1-14-13.7c0-7.5,5.8-13.7,14-13.7
				C1191.8,77.6,1197.7,83.8,1197.7,91.3z M1183.7,84.4c-4,0-6.9,3.1-6.9,7c0,3.8,2.9,7,6.9,7c4,0,6.9-3.1,6.9-7
				C1190.6,87.5,1187.7,84.4,1183.7,84.4z"/>
			<path id="XMLID_13953_" class="st34" d="M1134.2,84.1c-0.1,0-2.9-0.8-5.2-0.8c-2.7,0-4.1,0.9-4.1,2.2c0,1.6,2,2.2,3.1,2.5
				l1.8,0.6c4.3,1.4,6.3,4.3,6.3,7.6c0,6.6-5.8,8.9-10.9,8.9c-3.5,0-6.9-0.7-7.2-0.7v-6.1c0.6,0.1,3.4,1,6.3,1c3.3,0,4.8-1,4.8-2.5
				c0-1.3-1.3-2.1-3-2.6c-0.4-0.1-1-0.3-1.4-0.5c-3.7-1.2-6.8-3.4-6.8-7.7c0-4.9,3.7-8.3,9.8-8.3c3.2,0,6.3,0.8,6.5,0.8V84.1z"/>
		</g>
	</g>
	<path id="XMLID_13950_" class="st34" d="M1065.9,49.7c0-1.8-1.5-3.3-3.3-3.3c-1.8,0-3.3,1.5-3.3,3.3v6.9c0,1.8,1.5,3.3,3.3,3.3
		c1.8,0,3.3-1.5,3.3-3.3V49.7z"/>
	<path id="XMLID_13949_" class="st34" d="M1084.1,40.6c0-1.8-1.5-3.3-3.3-3.3c-1.8,0-3.3,1.5-3.3,3.3v16c0,1.8,1.5,3.3,3.3,3.3
		c1.8,0,3.3-1.5,3.3-3.3V40.6z"/>
	<path id="XMLID_13948_" class="st34" d="M1102.3,28.1c0-1.8-1.5-3.3-3.3-3.3c-1.8,0-3.3,1.5-3.3,3.3v35.1c0,1.8,1.5,3.3,3.3,3.3
		c1.8,0,3.3-1.5,3.3-3.3V28.1z"/>
	<path id="XMLID_13947_" class="st34" d="M1120.5,40.6c0-1.8-1.5-3.3-3.3-3.3c-1.8,0-3.3,1.5-3.3,3.3v16c0,1.8,1.5,3.3,3.3,3.3
		c1.8,0,3.3-1.5,3.3-3.3V40.6z"/>
	<path id="XMLID_13946_" class="st34" d="M1138.6,49.7c0-1.8-1.5-3.3-3.3-3.3c-1.8,0-3.3,1.5-3.3,3.3v6.9c0,1.8,1.5,3.3,3.3,3.3
		c1.8,0,3.3-1.5,3.3-3.3V49.7z"/>
	<path id="XMLID_13945_" class="st34" d="M1156.8,40.6c0-1.8-1.5-3.3-3.3-3.3c-1.8,0-3.3,1.5-3.3,3.3v16c0,1.8,1.5,3.3,3.3,3.3
		c1.8,0,3.3-1.5,3.3-3.3V40.6z"/>
	<path id="XMLID_13944_" class="st34" d="M1175,28.1c0-1.8-1.5-3.3-3.3-3.3c-1.8,0-3.3,1.5-3.3,3.3v35.1c0,1.8,1.5,3.3,3.3,3.3
		c1.8,0,3.3-1.5,3.3-3.3V28.1z"/>
	<path id="XMLID_13943_" class="st34" d="M1193.2,40.6c0-1.8-1.5-3.3-3.3-3.3c-1.8,0-3.3,1.5-3.3,3.3v16c0,1.8,1.5,3.3,3.3,3.3
		c1.9,0,3.3-1.5,3.3-3.3V40.6z"/>
	<path id="XMLID_13942_" class="st34" d="M1211.4,49.7c0-1.8-1.5-3.3-3.3-3.3c-1.8,0-3.3,1.5-3.3,3.3v6.9c0,1.8,1.5,3.3,3.3,3.3
		c1.8,0,3.3-1.5,3.3-3.3V49.7z"/>
</g>
<g id="XMLID_13984_">
	<g id="XMLID_13994_">
		<g id="XMLID_13995_">
			<rect id="XMLID_14002_" x="675.4" y="102.5" class="st33" width="3.1" height="12.3"/>
			<path id="XMLID_14001_" class="st33" d="M703.4,106c-0.1-0.1-1.1-0.7-2.6-0.7c-2,0-3.4,1.4-3.4,3.3c0,1.8,1.3,3.3,3.4,3.3
				c1.5,0,2.5-0.6,2.6-0.6v3.3c-0.4,0.1-1.4,0.4-2.8,0.4c-3.5,0-6.5-2.4-6.5-6.4c0-3.7,2.8-6.4,6.5-6.4c1.5,0,2.5,0.4,2.8,0.4V106z"
				/>
			<path id="XMLID_14000_" class="st33" d="M671.1,106c-0.1-0.1-1.1-0.7-2.6-0.7c-2,0-3.4,1.4-3.4,3.3c0,1.8,1.3,3.3,3.4,3.3
				c1.5,0,2.5-0.6,2.6-0.6v3.3c-0.4,0.1-1.4,0.4-2.8,0.4c-3.5,0-6.5-2.4-6.5-6.4c0-3.7,2.8-6.4,6.5-6.4c1.5,0,2.5,0.4,2.8,0.4V106z"
				/>
			<path id="XMLID_13997_" class="st33" d="M719.7,108.7c0,3.5-2.7,6.4-6.5,6.4c-3.8,0-6.5-2.8-6.5-6.4c0-3.5,2.7-6.4,6.5-6.4
				C716.9,102.3,719.7,105.2,719.7,108.7z M713.2,105.4c-1.8,0-3.2,1.4-3.2,3.2c0,1.8,1.4,3.2,3.2,3.2c1.8,0,3.2-1.4,3.2-3.2
				C716.4,106.9,715,105.4,713.2,105.4z"/>
			<path id="XMLID_13996_" class="st33" d="M690.2,105.3c0,0-1.3-0.4-2.4-0.4c-1.2,0-1.9,0.4-1.9,1c0,0.7,0.9,1,1.4,1.2l0.9,0.3
				c2,0.6,2.9,2,2.9,3.5c0,3.1-2.7,4.1-5.1,4.1c-1.6,0-3.2-0.3-3.3-0.3v-2.8c0.3,0.1,1.6,0.5,2.9,0.5c1.5,0,2.2-0.5,2.2-1.1
				c0-0.6-0.6-1-1.4-1.2c-0.2-0.1-0.5-0.2-0.7-0.2c-1.7-0.5-3.2-1.6-3.2-3.6c0-2.3,1.7-3.8,4.6-3.8c1.5,0,2.9,0.4,3,0.4V105.3z"/>
		</g>
	</g>
	<path id="XMLID_13993_" class="st33" d="M658.5,89.3c0-0.8-0.7-1.5-1.5-1.5c-0.8,0-1.5,0.7-1.5,1.5v3.2c0,0.9,0.7,1.5,1.5,1.5
		c0.8,0,1.5-0.7,1.5-1.5V89.3z"/>
	<path id="XMLID_13992_" class="st33" d="M666.9,85.1c0-0.8-0.7-1.5-1.5-1.5c-0.8,0-1.5,0.7-1.5,1.5v7.4c0,0.9,0.7,1.5,1.5,1.5
		c0.8,0,1.5-0.7,1.5-1.5V85.1z"/>
	<path id="XMLID_13991_" class="st33" d="M675.4,79.3c0-0.8-0.7-1.5-1.5-1.5c-0.8,0-1.5,0.7-1.5,1.5v16.3c0,0.9,0.7,1.5,1.5,1.5
		c0.8,0,1.5-0.7,1.5-1.5V79.3z"/>
	<path id="XMLID_13990_" class="st33" d="M683.8,85.1c0-0.8-0.7-1.5-1.5-1.5c-0.8,0-1.5,0.7-1.5,1.5v7.4c0,0.9,0.7,1.5,1.5,1.5
		c0.8,0,1.5-0.7,1.5-1.5V85.1z"/>
	<path id="XMLID_13989_" class="st33" d="M692.2,89.3c0-0.8-0.7-1.5-1.5-1.5c-0.8,0-1.5,0.7-1.5,1.5v3.2c0,0.9,0.7,1.5,1.5,1.5
		c0.8,0,1.5-0.7,1.5-1.5V89.3z"/>
	<path id="XMLID_13988_" class="st33" d="M700.7,85.1c0-0.8-0.7-1.5-1.5-1.5c-0.8,0-1.5,0.7-1.5,1.5v7.4c0,0.9,0.7,1.5,1.5,1.5
		c0.8,0,1.5-0.7,1.5-1.5V85.1z"/>
	<path id="XMLID_13987_" class="st33" d="M709.1,79.3c0-0.8-0.7-1.5-1.5-1.5c-0.8,0-1.5,0.7-1.5,1.5v16.3c0,0.9,0.7,1.5,1.5,1.5
		c0.8,0,1.5-0.7,1.5-1.5V79.3z"/>
	<path id="XMLID_13986_" class="st33" d="M717.6,85.1c0-0.8-0.7-1.5-1.6-1.5c-0.8,0-1.5,0.7-1.5,1.5v7.4c0,0.9,0.7,1.5,1.5,1.5
		c0.9,0,1.6-0.7,1.6-1.5V85.1z"/>
	<path id="XMLID_13985_" class="st33" d="M726,89.3c0-0.8-0.7-1.5-1.5-1.5c-0.8,0-1.5,0.7-1.5,1.5v3.2c0,0.9,0.7,1.5,1.5,1.5
		c0.8,0,1.5-0.7,1.5-1.5V89.3z"/>
</g>
<g id="XMLID_13964_">
	<g id="XMLID_13975_">
		<g id="XMLID_13976_">
			<rect id="XMLID_13983_" x="676.3" y="103.9" class="st35" width="3.1" height="12.3"/>
			<path id="XMLID_13982_" class="st35" d="M704.4,107.4c-0.1-0.1-1.1-0.7-2.6-0.7c-2,0-3.4,1.4-3.4,3.3c0,1.8,1.3,3.3,3.4,3.3
				c1.5,0,2.5-0.6,2.6-0.6v3.3c-0.4,0.1-1.4,0.4-2.8,0.4c-3.5,0-6.5-2.4-6.5-6.4c0-3.7,2.8-6.4,6.5-6.4c1.5,0,2.5,0.4,2.8,0.4V107.4
				z"/>
			<path id="XMLID_13981_" class="st35" d="M672,107.4c-0.1-0.1-1.1-0.7-2.6-0.7c-2,0-3.4,1.4-3.4,3.3c0,1.8,1.3,3.3,3.4,3.3
				c1.5,0,2.5-0.6,2.6-0.6v3.3c-0.4,0.1-1.4,0.4-2.8,0.4c-3.5,0-6.5-2.4-6.5-6.4c0-3.7,2.8-6.4,6.5-6.4c1.5,0,2.5,0.4,2.8,0.4V107.4
				z"/>
			<path id="XMLID_13978_" class="st35" d="M720.6,110c0,3.5-2.7,6.4-6.5,6.4c-3.8,0-6.5-2.8-6.5-6.4c0-3.5,2.7-6.4,6.5-6.4
				C717.9,103.7,720.6,106.5,720.6,110z M714.1,106.8c-1.8,0-3.2,1.4-3.2,3.2c0,1.8,1.4,3.2,3.2,3.2c1.8,0,3.2-1.4,3.2-3.2
				C717.3,108.3,715.9,106.8,714.1,106.8z"/>
			<path id="XMLID_13977_" class="st35" d="M691.1,106.7c0,0-1.3-0.4-2.4-0.4c-1.2,0-1.9,0.4-1.9,1c0,0.7,0.9,1,1.4,1.2l0.9,0.3
				c2,0.6,2.9,2,2.9,3.5c0,3.1-2.7,4.1-5.1,4.1c-1.6,0-3.2-0.3-3.3-0.3v-2.8c0.3,0.1,1.6,0.5,2.9,0.5c1.5,0,2.2-0.5,2.2-1.1
				c0-0.6-0.6-1-1.4-1.2c-0.2-0.1-0.5-0.2-0.7-0.2c-1.7-0.5-3.2-1.6-3.2-3.6c0-2.3,1.7-3.8,4.6-3.8c1.5,0,2.9,0.4,3,0.4V106.7z"/>
		</g>
	</g>
	<path id="XMLID_13974_" class="st35" d="M659.4,90.7c0-0.8-0.7-1.5-1.5-1.5c-0.8,0-1.5,0.7-1.5,1.5v3.2c0,0.9,0.7,1.5,1.5,1.5
		c0.8,0,1.5-0.7,1.5-1.5V90.7z"/>
	<path id="XMLID_13973_" class="st35" d="M667.8,86.5c0-0.8-0.7-1.5-1.5-1.5c-0.8,0-1.5,0.7-1.5,1.5v7.4c0,0.9,0.7,1.5,1.5,1.5
		c0.8,0,1.5-0.7,1.5-1.5V86.5z"/>
	<path id="XMLID_13972_" class="st35" d="M676.3,80.7c0-0.8-0.7-1.5-1.5-1.5c-0.8,0-1.5,0.7-1.5,1.5V97c0,0.9,0.7,1.5,1.5,1.5
		c0.8,0,1.5-0.7,1.5-1.5V80.7z"/>
	<path id="XMLID_13971_" class="st35" d="M684.7,86.5c0-0.8-0.7-1.5-1.5-1.5c-0.8,0-1.5,0.7-1.5,1.5v7.4c0,0.9,0.7,1.5,1.5,1.5
		c0.8,0,1.5-0.7,1.5-1.5V86.5z"/>
	<path id="XMLID_13970_" class="st35" d="M693.2,90.7c0-0.8-0.7-1.5-1.5-1.5c-0.8,0-1.5,0.7-1.5,1.5v3.2c0,0.9,0.7,1.5,1.5,1.5
		c0.8,0,1.5-0.7,1.5-1.5V90.7z"/>
	<path id="XMLID_13969_" class="st35" d="M701.6,86.5c0-0.8-0.7-1.5-1.5-1.5c-0.8,0-1.5,0.7-1.5,1.5v7.4c0,0.9,0.7,1.5,1.5,1.5
		c0.8,0,1.5-0.7,1.5-1.5V86.5z"/>
	<path id="XMLID_13968_" class="st35" d="M710.1,80.7c0-0.8-0.7-1.5-1.5-1.5c-0.8,0-1.5,0.7-1.5,1.5V97c0,0.9,0.7,1.5,1.5,1.5
		c0.8,0,1.5-0.7,1.5-1.5V80.7z"/>
	<path id="XMLID_13967_" class="st35" d="M718.5,86.5c0-0.8-0.7-1.5-1.6-1.5c-0.8,0-1.5,0.7-1.5,1.5v7.4c0,0.9,0.7,1.5,1.5,1.5
		c0.9,0,1.6-0.7,1.6-1.5V86.5z"/>
	<path id="XMLID_13966_" class="st35" d="M726.9,90.7c0-0.8-0.7-1.5-1.5-1.5c-0.8,0-1.5,0.7-1.5,1.5v3.2c0,0.9,0.7,1.5,1.5,1.5
		c0.8,0,1.5-0.7,1.5-1.5V90.7z"/>
</g>
<linearGradient id="XMLID_5_" gradientUnits="userSpaceOnUse" x1="1026.7756" y1="101.2562" x2="998.7285" y2="101.2562">
	<stop  offset="0" style="stop-color:#000000"/>
	<stop  offset="1" style="stop-color:#FFFFFF"/>
</linearGradient>
<rect id="XMLID_13713_" x="998.7" y="92.6" class="st36" width="28" height="17.3"/>
<g id="XMLID_13961_">
	<g id="XMLID_13921_">
		<g id="XMLID_13917_">
			<linearGradient id="XMLID_6_" gradientUnits="userSpaceOnUse" x1="1018.1989" y1="64.5295" x2="1061.636" y2="64.5295">
				<stop  offset="0" style="stop-color:#000000"/>
				<stop  offset="1" style="stop-color:#FFFFFF"/>
			</linearGradient>
			<path id="XMLID_13915_" class="st37" d="M1058.8,118.4H1021c-1.6,0-2.8-1.3-2.8-2.8V13.5c0-1.6,1.3-2.8,2.8-2.8h37.8
				c1.6,0,2.8,1.3,2.8,2.8v102.1C1061.6,117.1,1060.4,118.4,1058.8,118.4z"/>
			<path id="XMLID_13963_" class="st38" d="M1022.2,5.5h-15.9c-1.6,0-2.8,1.3-2.8,2.8v84.3h18.7v17.3h-18.7v10.8
				c0,1.6,1.3,2.8,2.8,2.8h15.9c1.6,0,2.8-1.3,2.8-2.8V8.3C1025,6.7,1023.8,5.5,1022.2,5.5z"/>
		</g>
		<g id="XMLID_13914_">
			
				<linearGradient id="XMLID_7_" gradientUnits="userSpaceOnUse" x1="2906.0833" y1="1114.8287" x2="2949.5203" y2="1114.8287" gradientTransform="matrix(-1 0 0 -1 4161.6807 1179.3582)">
				<stop  offset="0" style="stop-color:#000000"/>
				<stop  offset="1" style="stop-color:#FFFFFF"/>
			</linearGradient>
			<path id="XMLID_13920_" class="st39" d="M1215,10.6h37.8c1.6,0,2.8,1.3,2.8,2.8v102.1c0,1.6-1.3,2.8-2.8,2.8H1215
				c-1.6,0-2.8-1.3-2.8-2.8V13.5C1212.2,11.9,1213.4,10.6,1215,10.6z"/>
			<path id="XMLID_13919_" class="st38" d="M1251.6,5.5h15.9c1.6,0,2.8,1.3,2.8,2.8v112.5c0,1.6-1.3,2.8-2.8,2.8h-15.9
				c-1.6,0-2.8-1.3-2.8-2.8V8.3C1248.8,6.7,1250,5.5,1251.6,5.5z"/>
			<path id="XMLID_13918_" class="st40" d="M1215,10.6h13.9c1.6,0,2.8,1.3,2.8,2.8v102.1c0,1.6-1.3,2.8-2.8,2.8H1215
				c-1.6,0-2.8-1.3-2.8-2.8V13.5C1212.2,11.9,1213.4,10.6,1215,10.6z"/>
			<path id="XMLID_13960_" class="st40" d="M1256.7,54.6h-6.9V25.9h6.9c1.6,0,2.8,1.3,2.8,2.8v23
				C1259.6,53.3,1258.3,54.6,1256.7,54.6z"/>
		</g>
	</g>
	<path id="XMLID_13916_" class="st40" d="M1058.8,118.4h-13.9c-1.6,0-2.8-1.3-2.8-2.8V13.5c0-1.6,1.3-2.8,2.8-2.8h13.9
		c1.6,0,2.8,1.3,2.8,2.8v102.1C1061.6,117.1,1060.4,118.4,1058.8,118.4z"/>
</g>
<linearGradient id="XMLID_8_" gradientUnits="userSpaceOnUse" x1="1007.389" y1="101.2562" x2="990.0677" y2="101.2562">
	<stop  offset="0" style="stop-color:#000000"/>
	<stop  offset="1" style="stop-color:#FFFFFF"/>
</linearGradient>
<path id="XMLID_13965_" class="st41" d="M990.1,101.3c0,4.8,3.9,8.7,8.7,8.7V92.6C993.9,92.6,990.1,96.5,990.1,101.3z"/>
</svg>
