<?xml version="1.0" encoding="utf-8"?>
<!-- Generator: Adobe Illustrator 16.0.0, SVG Export Plug-In . SVG Version: 6.00 Build 0)  -->
<!DOCTYPE svg PUBLIC "-//W3C//DTD SVG 1.1//EN" "http://www.w3.org/Graphics/SVG/1.1/DTD/svg11.dtd">
<svg version="1.1" id="图层_1" xmlns="http://www.w3.org/2000/svg" xmlns:xlink="http://www.w3.org/1999/xlink" x="0px" y="0px"
	 width="1275.59px" height="252.28px" viewBox="0 0 1275.59 252.28" enable-background="new 0 0 1275.59 252.28"
	 xml:space="preserve">
<polygon fill="#E2DDD6" points="0,0 0,126.142 0,252.283 1275.59,252.283 1275.59,126.142 1275.59,0 "/>
<g>
	<rect x="69.864" y="240.185" fill="#191919" width="1.533" height="6.071"/>
	<path fill="#191919" d="M83.753,241.925c-0.063-0.033-0.557-0.325-1.289-0.325c-0.992,0-1.68,0.69-1.68,1.619
		c0,0.903,0.66,1.621,1.68,1.621c0.721,0,1.221-0.286,1.289-0.321v1.629c-0.193,0.056-0.715,0.217-1.396,0.217
		c-1.724,0-3.236-1.188-3.236-3.146c0-1.812,1.369-3.143,3.236-3.143c0.719,0,1.252,0.176,1.396,0.219V241.925z"/>
	<path fill="#191919" d="M67.758,241.925c-0.062-0.033-0.554-0.325-1.287-0.325c-0.993,0-1.679,0.69-1.679,1.619
		c0,0.903,0.656,1.621,1.679,1.621c0.72,0,1.222-0.286,1.287-0.321v1.629c-0.19,0.056-0.712,0.217-1.397,0.217
		c-1.723,0-3.233-1.188-3.233-3.146c0-1.812,1.368-3.143,3.233-3.143c0.722,0,1.254,0.176,1.397,0.219V241.925z"/>
	<path fill="#191919" d="M91.782,243.219c0,1.737-1.342,3.146-3.209,3.146s-3.207-1.408-3.207-3.146c0-1.733,1.34-3.143,3.207-3.143
		S91.782,241.485,91.782,243.219 M88.573,241.622c-0.908,0-1.584,0.716-1.584,1.597c0,0.885,0.676,1.6,1.584,1.6
		s1.584-0.715,1.584-1.6C90.157,242.338,89.481,241.622,88.573,241.622"/>
	<path fill="#191919" d="M77.208,241.564c-0.023-0.007-0.668-0.187-1.198-0.187c-0.614,0-0.948,0.206-0.948,0.498
		c0,0.371,0.451,0.5,0.703,0.579l0.422,0.135c0.996,0.315,1.448,0.997,1.448,1.737c0,1.524-1.342,2.037-2.514,2.037
		c-0.816,0-1.579-0.149-1.654-0.165v-1.397c0.136,0.033,0.778,0.225,1.447,0.225c0.762,0,1.112-0.223,1.112-0.566
		c0-0.309-0.303-0.484-0.682-0.604c-0.095-0.03-0.234-0.075-0.328-0.105c-0.854-0.271-1.565-0.771-1.565-1.776
		c0-1.137,0.85-1.899,2.263-1.899c0.746,0,1.449,0.182,1.494,0.194V241.564z"/>
	<path fill="#191919" d="M61.501,233.658c0-0.419-0.34-0.758-0.76-0.758c-0.419,0-0.761,0.339-0.761,0.758v1.594
		c0,0.422,0.342,0.762,0.761,0.762c0.42,0,0.76-0.34,0.76-0.762V233.658z"/>
	<path fill="#191919" d="M65.681,231.565c0-0.418-0.341-0.759-0.761-0.759c-0.419,0-0.759,0.341-0.759,0.759v3.687
		c0,0.422,0.34,0.761,0.759,0.761c0.42,0,0.761-0.339,0.761-0.761V231.565z"/>
	<path fill="#191919" d="M69.859,228.702c0-0.418-0.342-0.756-0.761-0.756c-0.42,0-0.76,0.338-0.76,0.756v8.065
		c0,0.421,0.34,0.759,0.76,0.759c0.419,0,0.761-0.338,0.761-0.759V228.702z"/>
	<path fill="#191919" d="M74.038,231.565c0-0.418-0.342-0.759-0.762-0.759c-0.418,0-0.759,0.341-0.759,0.759v3.687
		c0,0.422,0.341,0.761,0.759,0.761c0.42,0,0.762-0.339,0.762-0.761V231.565z"/>
	<path fill="#191919" d="M78.212,233.658c0-0.419-0.339-0.758-0.755-0.758c-0.42,0-0.761,0.339-0.761,0.758v1.594
		c0,0.422,0.341,0.762,0.761,0.762c0.416,0,0.755-0.34,0.755-0.762V233.658z"/>
	<path fill="#191919" d="M82.394,231.565c0-0.418-0.34-0.759-0.758-0.759s-0.76,0.341-0.76,0.759v3.687
		c0,0.422,0.342,0.761,0.76,0.761s0.758-0.339,0.758-0.761V231.565z"/>
	<path fill="#191919" d="M86.575,228.702c0-0.418-0.34-0.756-0.759-0.756s-0.759,0.338-0.759,0.756v8.065
		c0,0.421,0.34,0.759,0.759,0.759s0.759-0.338,0.759-0.759V228.702z"/>
	<path fill="#191919" d="M90.755,231.565c0-0.418-0.338-0.759-0.768-0.759c-0.418,0-0.758,0.341-0.758,0.759v3.687
		c0,0.422,0.34,0.761,0.758,0.761c0.43,0,0.768-0.339,0.768-0.761V231.565z"/>
	<path fill="#191919" d="M94.928,233.658c0-0.419-0.341-0.758-0.759-0.758c-0.42,0-0.76,0.339-0.76,0.758v1.594
		c0,0.422,0.34,0.762,0.76,0.762c0.418,0,0.759-0.34,0.759-0.762V233.658z"/>
</g>
<g>
	<rect y="2.805" fill="#E3E1DF" width="1275.59" height="136.52"/>
</g>
<g>
	<rect x="200.807" y="31.919" fill="#101111" width="10.215" height="11.875"/>
	<rect x="216.756" y="31.919" fill="#101111" width="10.215" height="11.875"/>
	<rect x="232.705" y="31.919" fill="#101111" width="10.216" height="11.875"/>
	<rect x="248.654" y="31.919" fill="#101111" width="10.215" height="11.875"/>
	<rect x="264.603" y="31.919" fill="#101111" width="10.216" height="11.875"/>
	<rect x="280.552" y="31.919" fill="#101111" width="10.217" height="11.875"/>
	<rect x="296.501" y="31.919" fill="#101111" width="10.216" height="11.875"/>
	<rect x="312.45" y="31.919" fill="#101111" width="10.216" height="11.875"/>
	<rect x="328.4" y="31.919" fill="#101111" width="10.216" height="11.875"/>
	<rect x="344.349" y="31.919" fill="#101111" width="10.216" height="11.875"/>
	<rect x="360.298" y="31.919" fill="#101111" width="10.215" height="11.875"/>
	<rect x="376.248" y="31.919" fill="#101111" width="10.216" height="11.875"/>
	<rect x="392.196" y="31.919" fill="#101111" width="10.216" height="11.875"/>
	<rect x="408.146" y="31.919" fill="#101111" width="10.216" height="11.875"/>
	<rect x="424.095" y="31.919" fill="#101111" width="10.216" height="11.875"/>
	<rect x="440.044" y="31.919" fill="#101111" width="10.216" height="11.875"/>
	<rect x="455.993" y="31.919" fill="#101111" width="10.215" height="11.875"/>
	<rect x="471.942" y="31.919" fill="#101111" width="10.215" height="11.875"/>
	<rect x="487.892" y="31.919" fill="#101111" width="10.215" height="11.875"/>
	<rect x="503.84" y="31.919" fill="#101111" width="10.216" height="11.875"/>
	<rect x="519.789" y="31.919" fill="#101111" width="10.216" height="11.875"/>
	<rect x="535.738" y="31.919" fill="#101111" width="10.216" height="11.875"/>
	<rect x="551.688" y="31.919" fill="#101111" width="10.216" height="11.875"/>
	<rect x="567.637" y="31.919" fill="#101111" width="10.216" height="11.875"/>
	<rect x="583.586" y="31.919" fill="#101111" width="10.216" height="11.875"/>
	<rect x="599.535" y="31.919" fill="#101111" width="10.216" height="11.875"/>
	<rect x="615.484" y="31.919" fill="#101111" width="10.216" height="11.875"/>
	<rect x="631.433" y="31.919" fill="#101111" width="10.215" height="11.875"/>
	<rect x="647.383" y="31.919" fill="#101111" width="10.215" height="11.875"/>
	<rect x="663.332" y="31.919" fill="#101111" width="10.215" height="11.875"/>
	<rect x="679.281" y="31.919" fill="#101111" width="10.215" height="11.875"/>
	<rect x="695.23" y="31.919" fill="#101111" width="10.215" height="11.875"/>
	<rect x="711.178" y="31.919" fill="#101111" width="10.217" height="11.875"/>
	<rect x="727.127" y="31.919" fill="#101111" width="10.217" height="11.875"/>
	<rect x="743.078" y="31.919" fill="#101111" width="10.215" height="11.875"/>
	<rect x="759.025" y="31.919" fill="#101111" width="10.217" height="11.875"/>
	<rect x="774.975" y="31.919" fill="#101111" width="10.217" height="11.875"/>
	<rect x="790.924" y="31.919" fill="#101111" width="10.217" height="11.875"/>
	<rect x="806.873" y="31.919" fill="#101111" width="10.217" height="11.875"/>
	<rect x="822.822" y="31.919" fill="#101111" width="10.217" height="11.875"/>
	<rect x="838.771" y="31.919" fill="#101111" width="10.217" height="11.875"/>
	<rect x="854.721" y="31.919" fill="#101111" width="10.217" height="11.875"/>
	<rect x="870.67" y="31.919" fill="#101111" width="10.217" height="11.875"/>
	<rect x="886.619" y="31.919" fill="#101111" width="10.217" height="11.875"/>
	<rect x="902.568" y="31.919" fill="#101111" width="10.217" height="11.875"/>
	<rect x="918.518" y="31.919" fill="#101111" width="10.215" height="11.875"/>
	<rect x="934.467" y="31.919" fill="#101111" width="10.217" height="11.875"/>
	<rect x="950.416" y="31.919" fill="#101111" width="10.215" height="11.875"/>
	<rect x="966.365" y="31.919" fill="#101111" width="10.217" height="11.875"/>
	<rect x="982.314" y="31.919" fill="#101111" width="10.215" height="11.875"/>
	<rect x="998.264" y="31.919" fill="#101111" width="10.215" height="11.875"/>
	<rect x="1014.213" y="31.919" fill="#101111" width="10.215" height="11.875"/>
	<rect x="1030.162" y="31.919" fill="#101111" width="10.215" height="11.875"/>
	<rect x="1046.111" y="31.919" fill="#101111" width="10.215" height="11.875"/>
	<rect x="1062.061" y="31.919" fill="#101111" width="10.215" height="11.875"/>
	<rect x="1078.01" y="31.919" fill="#101111" width="10.215" height="11.875"/>
	<rect x="1093.959" y="31.919" fill="#101111" width="10.215" height="11.875"/>
	<rect x="1109.908" y="31.919" fill="#101111" width="10.215" height="11.875"/>
	<rect x="1125.855" y="31.919" fill="#101111" width="10.217" height="11.875"/>
	<rect x="1141.807" y="31.919" fill="#101111" width="10.215" height="11.875"/>
	<rect x="1157.756" y="31.919" fill="#101111" width="10.215" height="11.875"/>
	<rect x="200.807" y="50.253" fill="#101111" width="10.215" height="11.874"/>
	<rect x="216.756" y="50.253" fill="#101111" width="10.215" height="11.874"/>
	<rect x="232.705" y="50.253" fill="#101111" width="10.216" height="11.874"/>
	<rect x="248.654" y="50.253" fill="#101111" width="10.215" height="11.874"/>
	<rect x="264.603" y="50.253" fill="#101111" width="10.216" height="11.874"/>
	<rect x="280.552" y="50.253" fill="#101111" width="10.217" height="11.874"/>
	<rect x="296.501" y="50.253" fill="#101111" width="10.216" height="11.874"/>
	<rect x="312.45" y="50.253" fill="#101111" width="10.216" height="11.874"/>
	<rect x="328.4" y="50.253" fill="#101111" width="10.216" height="11.874"/>
	<rect x="344.349" y="50.253" fill="#101111" width="10.216" height="11.874"/>
	<rect x="360.298" y="50.253" fill="#101111" width="10.215" height="11.874"/>
	<rect x="376.248" y="50.253" fill="#101111" width="10.216" height="11.874"/>
	<rect x="392.196" y="50.253" fill="#101111" width="10.216" height="11.874"/>
	<rect x="408.146" y="50.253" fill="#101111" width="10.216" height="11.874"/>
	<rect x="424.095" y="50.253" fill="#101111" width="10.216" height="11.874"/>
	<rect x="440.044" y="50.253" fill="#101111" width="10.216" height="11.874"/>
	<rect x="455.993" y="50.253" fill="#101111" width="10.215" height="11.874"/>
	<rect x="471.942" y="50.253" fill="#101111" width="10.215" height="11.874"/>
	<rect x="487.892" y="50.253" fill="#101111" width="10.215" height="11.874"/>
	<rect x="503.84" y="50.253" fill="#101111" width="10.216" height="11.874"/>
	<rect x="519.789" y="50.253" fill="#101111" width="10.216" height="11.874"/>
	<rect x="535.738" y="50.253" fill="#101111" width="10.216" height="11.874"/>
	<rect x="551.688" y="50.253" fill="#101111" width="10.216" height="11.874"/>
	<rect x="567.637" y="50.253" fill="#101111" width="10.216" height="11.874"/>
	<rect x="583.586" y="50.253" fill="#101111" width="10.216" height="11.874"/>
	<rect x="599.535" y="50.253" fill="#101111" width="10.216" height="11.874"/>
	<rect x="615.484" y="50.253" fill="#101111" width="10.216" height="11.874"/>
	<rect x="631.433" y="50.253" fill="#101111" width="10.215" height="11.874"/>
	<rect x="647.383" y="50.253" fill="#101111" width="10.215" height="11.874"/>
	<rect x="663.332" y="50.253" fill="#101111" width="10.215" height="11.874"/>
	<rect x="679.281" y="50.253" fill="#101111" width="10.215" height="11.874"/>
	<rect x="695.23" y="50.253" fill="#101111" width="10.215" height="11.874"/>
	<rect x="711.178" y="50.253" fill="#101111" width="10.217" height="11.874"/>
	<rect x="727.127" y="50.253" fill="#101111" width="10.217" height="11.874"/>
	<rect x="743.078" y="50.253" fill="#101111" width="10.215" height="11.874"/>
	<rect x="759.025" y="50.253" fill="#101111" width="10.217" height="11.874"/>
	<rect x="774.975" y="50.253" fill="#101111" width="10.217" height="11.874"/>
	<rect x="790.924" y="50.253" fill="#101111" width="10.217" height="11.874"/>
	<rect x="806.873" y="50.253" fill="#101111" width="10.217" height="11.874"/>
	<rect x="822.822" y="50.253" fill="#101111" width="10.217" height="11.874"/>
	<rect x="838.771" y="50.253" fill="#101111" width="10.217" height="11.874"/>
	<rect x="854.721" y="50.253" fill="#101111" width="10.217" height="11.874"/>
	<rect x="870.67" y="50.253" fill="#101111" width="10.217" height="11.874"/>
	<rect x="886.619" y="50.253" fill="#101111" width="10.217" height="11.874"/>
	<rect x="902.568" y="50.253" fill="#101111" width="10.217" height="11.874"/>
	<rect x="918.518" y="50.253" fill="#101111" width="10.215" height="11.874"/>
	<rect x="934.467" y="50.253" fill="#101111" width="10.217" height="11.874"/>
	<rect x="950.416" y="50.253" fill="#101111" width="10.215" height="11.874"/>
	<rect x="966.365" y="50.253" fill="#101111" width="10.217" height="11.874"/>
	<rect x="982.314" y="50.253" fill="#101111" width="10.215" height="11.874"/>
	<rect x="998.264" y="50.253" fill="#101111" width="10.215" height="11.874"/>
	<rect x="1014.213" y="50.253" fill="#101111" width="10.215" height="11.874"/>
	<rect x="1030.162" y="50.253" fill="#101111" width="10.215" height="11.874"/>
	<rect x="1046.111" y="50.253" fill="#101111" width="10.215" height="11.874"/>
	<rect x="1062.061" y="50.253" fill="#101111" width="10.215" height="11.874"/>
	<rect x="1078.01" y="50.253" fill="#101111" width="10.215" height="11.874"/>
	<rect x="1093.959" y="50.253" fill="#101111" width="10.215" height="11.874"/>
	<rect x="1109.908" y="50.253" fill="#101111" width="10.215" height="11.874"/>
	<rect x="1125.855" y="50.253" fill="#101111" width="10.217" height="11.874"/>
	<rect x="1141.807" y="50.253" fill="#101111" width="10.215" height="11.874"/>
	<rect x="1157.756" y="50.253" fill="#101111" width="10.215" height="11.874"/>
	<rect x="200.807" y="68.586" fill="#101111" width="10.215" height="11.875"/>
	<rect x="216.756" y="68.586" fill="#101111" width="10.215" height="11.875"/>
	<rect x="232.705" y="68.586" fill="#101111" width="10.216" height="11.875"/>
	<rect x="248.654" y="68.586" fill="#101111" width="10.215" height="11.875"/>
	<rect x="264.603" y="68.586" fill="#101111" width="10.216" height="11.875"/>
	<rect x="280.552" y="68.586" fill="#101111" width="10.217" height="11.875"/>
	<rect x="296.501" y="68.586" fill="#101111" width="10.216" height="11.875"/>
	<rect x="312.45" y="68.586" fill="#101111" width="10.216" height="11.875"/>
	<rect x="328.4" y="68.586" fill="#101111" width="10.216" height="11.875"/>
	<rect x="344.349" y="68.586" fill="#101111" width="10.216" height="11.875"/>
	<rect x="360.298" y="68.586" fill="#101111" width="10.215" height="11.875"/>
	<rect x="376.248" y="68.586" fill="#101111" width="10.216" height="11.875"/>
	<rect x="392.196" y="68.586" fill="#101111" width="10.216" height="11.875"/>
	<rect x="408.146" y="68.586" fill="#101111" width="10.216" height="11.875"/>
	<rect x="424.095" y="68.586" fill="#101111" width="10.216" height="11.875"/>
	<rect x="440.044" y="68.586" fill="#101111" width="10.216" height="11.875"/>
	<rect x="455.993" y="68.586" fill="#101111" width="10.215" height="11.875"/>
	<rect x="471.942" y="68.586" fill="#101111" width="10.215" height="11.875"/>
	<rect x="487.892" y="68.586" fill="#101111" width="10.215" height="11.875"/>
	<rect x="503.84" y="68.586" fill="#101111" width="10.216" height="11.875"/>
	<rect x="519.789" y="68.586" fill="#101111" width="10.216" height="11.875"/>
	<rect x="535.738" y="68.586" fill="#101111" width="10.216" height="11.875"/>
	<rect x="551.688" y="68.586" fill="#101111" width="10.216" height="11.875"/>
	<rect x="567.637" y="68.586" fill="#101111" width="10.216" height="11.875"/>
	<rect x="583.586" y="68.586" fill="#101111" width="10.216" height="11.875"/>
	<rect x="599.535" y="68.586" fill="#101111" width="10.216" height="11.875"/>
	<rect x="615.484" y="68.586" fill="#101111" width="10.216" height="11.875"/>
	<rect x="631.433" y="68.586" fill="#101111" width="10.215" height="11.875"/>
	<rect x="647.383" y="68.586" fill="#101111" width="10.215" height="11.875"/>
	<rect x="663.332" y="68.586" fill="#101111" width="10.215" height="11.875"/>
	<rect x="679.281" y="68.586" fill="#101111" width="10.215" height="11.875"/>
	<rect x="695.23" y="68.586" fill="#101111" width="10.215" height="11.875"/>
	<rect x="711.178" y="68.586" fill="#101111" width="10.217" height="11.875"/>
	<rect x="727.127" y="68.586" fill="#101111" width="10.217" height="11.875"/>
	<rect x="743.078" y="68.586" fill="#101111" width="10.215" height="11.875"/>
	<rect x="759.025" y="68.586" fill="#101111" width="10.217" height="11.875"/>
	<rect x="774.975" y="68.586" fill="#101111" width="10.217" height="11.875"/>
	<rect x="790.924" y="68.586" fill="#101111" width="10.217" height="11.875"/>
	<rect x="806.873" y="68.586" fill="#101111" width="10.217" height="11.875"/>
	<rect x="822.822" y="68.586" fill="#101111" width="10.217" height="11.875"/>
	<rect x="838.771" y="68.586" fill="#101111" width="10.217" height="11.875"/>
	<rect x="854.721" y="68.586" fill="#101111" width="10.217" height="11.875"/>
	<rect x="870.67" y="68.586" fill="#101111" width="10.217" height="11.875"/>
	<rect x="886.619" y="68.586" fill="#101111" width="10.217" height="11.875"/>
	<rect x="902.568" y="68.586" fill="#101111" width="10.217" height="11.875"/>
	<rect x="918.518" y="68.586" fill="#101111" width="10.215" height="11.875"/>
	<rect x="934.467" y="68.586" fill="#101111" width="10.217" height="11.875"/>
	<rect x="950.416" y="68.586" fill="#101111" width="10.215" height="11.875"/>
	<rect x="966.365" y="68.586" fill="#101111" width="10.217" height="11.875"/>
	<rect x="982.314" y="68.586" fill="#101111" width="10.215" height="11.875"/>
	<rect x="998.264" y="68.586" fill="#101111" width="10.215" height="11.875"/>
	<rect x="1014.213" y="68.586" fill="#101111" width="10.215" height="11.875"/>
	<rect x="1030.162" y="68.586" fill="#101111" width="10.215" height="11.875"/>
	<rect x="1046.111" y="68.586" fill="#101111" width="10.215" height="11.875"/>
	<rect x="1062.061" y="68.586" fill="#101111" width="10.215" height="11.875"/>
	<rect x="1078.01" y="68.586" fill="#101111" width="10.215" height="11.875"/>
	<rect x="200.807" y="86.919" fill="#101111" width="10.215" height="11.875"/>
	<rect x="216.756" y="86.919" fill="#101111" width="10.215" height="11.875"/>
	<rect x="232.705" y="86.919" fill="#101111" width="10.216" height="11.875"/>
	<rect x="248.654" y="86.919" fill="#101111" width="10.215" height="11.875"/>
	<rect x="264.603" y="86.919" fill="#101111" width="10.216" height="11.875"/>
	<rect x="280.552" y="86.919" fill="#101111" width="10.217" height="11.875"/>
	<rect x="296.501" y="86.919" fill="#101111" width="10.216" height="11.875"/>
	<rect x="312.45" y="86.919" fill="#101111" width="10.216" height="11.875"/>
	<rect x="328.4" y="86.919" fill="#101111" width="10.216" height="11.875"/>
	<rect x="344.349" y="86.919" fill="#101111" width="10.216" height="11.875"/>
	<rect x="360.298" y="86.919" fill="#101111" width="10.215" height="11.875"/>
	<rect x="376.248" y="86.919" fill="#101111" width="10.216" height="11.875"/>
	<rect x="392.196" y="86.919" fill="#101111" width="10.216" height="11.875"/>
	<rect x="408.146" y="86.919" fill="#101111" width="10.216" height="11.875"/>
	<rect x="424.095" y="86.919" fill="#101111" width="10.216" height="11.875"/>
	<rect x="440.044" y="86.919" fill="#101111" width="10.216" height="11.875"/>
	<rect x="455.993" y="86.919" fill="#101111" width="10.215" height="11.875"/>
	<rect x="471.942" y="86.919" fill="#101111" width="10.215" height="11.875"/>
	<rect x="487.892" y="86.919" fill="#101111" width="10.215" height="11.875"/>
	<rect x="503.84" y="86.919" fill="#101111" width="10.216" height="11.875"/>
	<rect x="519.789" y="86.919" fill="#101111" width="10.216" height="11.875"/>
	<rect x="535.738" y="86.919" fill="#101111" width="10.216" height="11.875"/>
	<rect x="551.688" y="86.919" fill="#101111" width="10.216" height="11.875"/>
	<rect x="567.637" y="86.919" fill="#101111" width="10.216" height="11.875"/>
	<rect x="583.586" y="86.919" fill="#101111" width="10.216" height="11.875"/>
	<rect x="599.535" y="86.919" fill="#101111" width="10.216" height="11.875"/>
	<rect x="615.484" y="86.919" fill="#101111" width="10.216" height="11.875"/>
	<rect x="631.433" y="86.919" fill="#101111" width="10.215" height="11.875"/>
	<rect x="647.383" y="86.919" fill="#101111" width="10.215" height="11.875"/>
	<rect x="663.332" y="86.919" fill="#101111" width="10.215" height="11.875"/>
	<rect x="679.281" y="86.919" fill="#101111" width="10.215" height="11.875"/>
	<rect x="695.23" y="86.919" fill="#101111" width="10.215" height="11.875"/>
	<rect x="711.178" y="86.919" fill="#101111" width="10.217" height="11.875"/>
	<rect x="727.127" y="86.919" fill="#101111" width="10.217" height="11.875"/>
	<rect x="743.078" y="86.919" fill="#101111" width="10.215" height="11.875"/>
	<rect x="759.025" y="86.919" fill="#101111" width="10.217" height="11.875"/>
	<rect x="774.975" y="86.919" fill="#101111" width="10.217" height="11.875"/>
	<rect x="790.924" y="86.919" fill="#101111" width="10.217" height="11.875"/>
	<rect x="806.873" y="86.919" fill="#101111" width="10.217" height="11.875"/>
	<rect x="822.822" y="86.919" fill="#101111" width="10.217" height="11.875"/>
	<rect x="838.771" y="86.919" fill="#101111" width="10.217" height="11.875"/>
	<rect x="854.721" y="86.919" fill="#101111" width="10.217" height="11.875"/>
	<rect x="870.67" y="86.919" fill="#101111" width="10.217" height="11.875"/>
	<rect x="886.619" y="86.919" fill="#101111" width="10.217" height="11.875"/>
	<rect x="902.568" y="86.919" fill="#101111" width="10.217" height="11.875"/>
	<rect x="918.518" y="86.919" fill="#101111" width="10.215" height="11.875"/>
	<rect x="934.467" y="86.919" fill="#101111" width="10.217" height="11.875"/>
	<rect x="950.416" y="86.919" fill="#101111" width="10.215" height="11.875"/>
	<rect x="966.365" y="86.919" fill="#101111" width="10.217" height="11.875"/>
	<rect x="982.314" y="86.919" fill="#101111" width="10.215" height="11.875"/>
	<rect x="998.264" y="86.919" fill="#101111" width="10.215" height="11.875"/>
	<rect x="1014.213" y="86.919" fill="#101111" width="10.215" height="11.875"/>
	<rect x="1030.162" y="86.919" fill="#101111" width="10.215" height="11.875"/>
	<rect x="1046.111" y="86.919" fill="#101111" width="10.215" height="11.875"/>
	<rect x="1062.061" y="86.919" fill="#101111" width="10.215" height="11.875"/>
	<rect x="1078.01" y="86.919" fill="#101111" width="10.215" height="11.875"/>
</g>
<g>
	<rect x="700.363" y="175.587" fill="#101111" width="9.248" height="9.986"/>
	<rect x="714.805" y="175.587" fill="#101111" width="9.248" height="9.986"/>
	<rect x="700.363" y="191.007" fill="#101111" width="9.248" height="9.986"/>
	<rect x="714.805" y="191.007" fill="#101111" width="9.248" height="9.986"/>
	<rect x="700.363" y="206.425" fill="#101111" width="9.248" height="9.987"/>
	<rect x="714.805" y="206.425" fill="#101111" width="9.248" height="9.987"/>
	<rect x="700.363" y="129.275" fill="#101111" width="9.248" height="9.986"/>
	<rect x="714.805" y="129.275" fill="#101111" width="9.248" height="9.986"/>
	<rect x="700.363" y="144.693" fill="#101111" width="9.248" height="9.986"/>
	<rect x="714.805" y="144.693" fill="#101111" width="9.248" height="9.986"/>
	<rect x="700.363" y="160.112" fill="#101111" width="9.248" height="9.987"/>
	<rect x="714.805" y="160.112" fill="#101111" width="9.248" height="9.987"/>
	<rect x="700.363" y="221.843" fill="#101111" width="9.248" height="9.988"/>
	<rect x="714.805" y="221.843" fill="#101111" width="9.248" height="9.988"/>
	<rect x="671.9" y="175.616" fill="#101111" width="9.25" height="9.986"/>
	<rect x="686.342" y="175.616" fill="#101111" width="9.248" height="9.986"/>
	<rect x="671.9" y="191.034" fill="#101111" width="9.25" height="9.987"/>
	<rect x="686.342" y="191.034" fill="#101111" width="9.248" height="9.987"/>
	<rect x="671.9" y="206.453" fill="#101111" width="9.25" height="9.987"/>
	<rect x="686.342" y="206.453" fill="#101111" width="9.248" height="9.987"/>
	<rect x="671.9" y="160.141" fill="#101111" width="9.25" height="9.987"/>
	<rect x="686.342" y="160.141" fill="#101111" width="9.248" height="9.987"/>
	<rect x="671.9" y="221.872" fill="#101111" width="9.25" height="9.986"/>
	<rect x="657.797" y="175.616" fill="#101111" width="9.25" height="9.986"/>
	<rect x="657.797" y="191.034" fill="#101111" width="9.25" height="9.987"/>
	<rect x="657.797" y="206.453" fill="#101111" width="9.25" height="9.987"/>
	<rect x="657.797" y="160.141" fill="#101111" width="9.25" height="9.987"/>
	<rect x="657.797" y="221.872" fill="#101111" width="9.25" height="9.986"/>
	<rect x="686.342" y="221.872" fill="#101111" width="9.248" height="9.986"/>
	<rect x="700.363" y="237.436" fill="#101111" width="9.248" height="9.987"/>
	<rect x="714.805" y="237.436" fill="#101111" width="9.248" height="9.987"/>
	<rect x="671.9" y="237.464" fill="#101111" width="9.25" height="9.987"/>
	<rect x="657.797" y="237.464" fill="#101111" width="9.25" height="9.987"/>
	<rect x="686.342" y="237.464" fill="#101111" width="9.248" height="9.987"/>
</g>
<g>
	<rect x="1211.813" y="177.192" fill="#101111" width="8.758" height="9.455"/>
	<rect x="1225.486" y="177.192" fill="#101111" width="8.758" height="9.455"/>
	<rect x="1211.813" y="191.792" fill="#101111" width="8.758" height="9.455"/>
	<rect x="1225.486" y="191.792" fill="#101111" width="8.758" height="9.455"/>
	<rect x="1211.813" y="206.391" fill="#101111" width="8.758" height="9.456"/>
	<rect x="1225.486" y="206.391" fill="#101111" width="8.758" height="9.456"/>
	<rect x="1211.813" y="133.34" fill="#101111" width="8.758" height="9.456"/>
	<rect x="1225.486" y="133.34" fill="#101111" width="8.758" height="9.456"/>
	<rect x="1211.813" y="147.939" fill="#101111" width="8.758" height="9.456"/>
	<rect x="1225.486" y="147.939" fill="#101111" width="8.758" height="9.456"/>
	<rect x="1211.813" y="162.539" fill="#101111" width="8.758" height="9.456"/>
	<rect x="1225.486" y="162.539" fill="#101111" width="8.758" height="9.456"/>
	<rect x="1211.813" y="220.989" fill="#101111" width="8.758" height="9.457"/>
	<rect x="1225.486" y="220.989" fill="#101111" width="8.758" height="9.457"/>
	<rect x="1211.813" y="235.753" fill="#101111" width="8.758" height="9.457"/>
	<rect x="1198.672" y="177.192" fill="#101111" width="8.758" height="9.455"/>
	<rect x="1198.672" y="191.792" fill="#101111" width="8.758" height="9.455"/>
	<rect x="1198.672" y="206.391" fill="#101111" width="8.758" height="9.456"/>
	<rect x="1198.672" y="133.34" fill="#101111" width="8.758" height="9.456"/>
	<rect x="1198.672" y="147.939" fill="#101111" width="8.758" height="9.456"/>
	<rect x="1198.672" y="162.539" fill="#101111" width="8.758" height="9.456"/>
	<rect x="1198.672" y="220.989" fill="#101111" width="8.758" height="9.457"/>
	<rect x="1198.672" y="235.753" fill="#101111" width="8.758" height="9.457"/>
	<rect x="1225.486" y="235.753" fill="#101111" width="8.758" height="9.457"/>
</g>
<g>
	<rect x="144.436" y="156.549" fill="#101111" width="7.75" height="8.841"/>
	<rect x="156.536" y="156.549" fill="#101111" width="7.749" height="8.841"/>
	<rect x="144.436" y="170.2" fill="#101111" width="7.75" height="8.841"/>
	<rect x="156.536" y="170.2" fill="#101111" width="7.749" height="8.841"/>
	<rect x="144.436" y="183.851" fill="#101111" width="7.75" height="8.841"/>
	<rect x="156.536" y="183.851" fill="#101111" width="7.749" height="8.841"/>
	<rect x="144.436" y="142.849" fill="#101111" width="7.75" height="8.841"/>
	<rect x="156.536" y="142.849" fill="#101111" width="7.749" height="8.841"/>
	<rect x="132.688" y="156.573" fill="#101111" width="7.75" height="8.842"/>
	<rect x="132.688" y="170.226" fill="#101111" width="7.75" height="8.841"/>
	<rect x="132.688" y="183.874" fill="#101111" width="7.75" height="8.844"/>
	<rect x="132.688" y="142.873" fill="#101111" width="7.75" height="8.842"/>
	<rect x="144.436" y="211.608" fill="#101111" width="7.75" height="8.842"/>
	<rect x="144.436" y="225.259" fill="#101111" width="7.75" height="8.842"/>
	<rect x="144.436" y="238.91" fill="#101111" width="7.75" height="8.841"/>
	<rect x="144.436" y="197.908" fill="#101111" width="7.75" height="8.841"/>
	<rect x="132.688" y="211.633" fill="#101111" width="7.75" height="8.841"/>
	<rect x="132.688" y="225.285" fill="#101111" width="7.75" height="8.841"/>
	<rect x="132.688" y="238.935" fill="#101111" width="7.75" height="8.843"/>
	<rect x="132.688" y="197.933" fill="#101111" width="7.75" height="8.842"/>
	<rect x="120.885" y="211.608" fill="#101111" width="7.75" height="8.842"/>
	<rect x="120.885" y="225.259" fill="#101111" width="7.75" height="8.842"/>
	<rect x="120.885" y="238.91" fill="#101111" width="7.75" height="8.841"/>
	<rect x="120.885" y="197.908" fill="#101111" width="7.75" height="8.841"/>
	<rect x="109.137" y="211.633" fill="#101111" width="7.749" height="8.841"/>
	<rect x="109.137" y="225.285" fill="#101111" width="7.749" height="8.841"/>
	<rect x="109.137" y="238.935" fill="#101111" width="7.749" height="8.843"/>
	<rect x="109.137" y="197.933" fill="#101111" width="7.749" height="8.842"/>
	<rect x="97.131" y="211.608" fill="#101111" width="7.75" height="8.842"/>
	<rect x="97.131" y="197.908" fill="#101111" width="7.75" height="8.841"/>
	<rect x="85.383" y="211.633" fill="#101111" width="7.749" height="8.841"/>
	<rect x="85.383" y="197.933" fill="#101111" width="7.749" height="8.842"/>
	<rect x="73.58" y="211.608" fill="#101111" width="7.75" height="8.842"/>
	<rect x="73.58" y="197.908" fill="#101111" width="7.75" height="8.841"/>
	<rect x="61.832" y="211.633" fill="#101111" width="7.749" height="8.841"/>
	<rect x="61.832" y="197.933" fill="#101111" width="7.749" height="8.842"/>
</g>
<rect x="399.238" y="172.542" fill="#101111" width="7.75" height="8.841"/>
<rect x="399.238" y="158.842" fill="#101111" width="7.75" height="8.841"/>
<rect x="387.49" y="172.565" fill="#101111" width="7.749" height="8.842"/>
<rect x="387.49" y="158.865" fill="#101111" width="7.749" height="8.843"/>
<rect x="484.157" y="172.542" fill="#101111" width="7.75" height="8.841"/>
<rect x="484.157" y="158.842" fill="#101111" width="7.75" height="8.841"/>
<rect x="472.408" y="172.565" fill="#101111" width="7.75" height="8.842"/>
<rect x="472.408" y="158.865" fill="#101111" width="7.75" height="8.843"/>
<rect x="375.687" y="172.542" fill="#101111" width="7.75" height="8.841"/>
<rect x="375.687" y="158.842" fill="#101111" width="7.75" height="8.841"/>
<rect x="363.939" y="172.565" fill="#101111" width="7.749" height="8.842"/>
<rect x="363.939" y="158.865" fill="#101111" width="7.749" height="8.843"/>
<rect x="190.802" y="142.836" fill="#101111" width="9.262" height="8.841"/>
<rect x="176.761" y="142.859" fill="#101111" width="9.262" height="8.843"/>
<rect x="226.188" y="142.836" fill="#101111" width="9.262" height="8.841"/>
<rect x="212.148" y="142.859" fill="#101111" width="9.261" height="8.843"/>
<rect x="261.576" y="142.836" fill="#101111" width="9.262" height="8.841"/>
<rect x="247.535" y="142.859" fill="#101111" width="9.262" height="8.843"/>
<rect x="296.963" y="142.836" fill="#101111" width="9.262" height="8.841"/>
<rect x="282.923" y="142.859" fill="#101111" width="9.261" height="8.843"/>
<rect x="332.35" y="142.836" fill="#101111" width="9.263" height="8.841"/>
<rect x="318.31" y="142.859" fill="#101111" width="9.262" height="8.843"/>
<rect y="120.233" fill="#262626" width="1275.59" height="1.086"/>
<rect y="121.319" fill="#9B9B9B" width="1275.59" height="4.823"/>
<rect y="118.514" fill="#4A4949" width="1275.59" height="1.719"/>
<rect y="1.719" fill="#262626" width="1275.59" height="1.086"/>
<rect y="2.805" fill="#9B9B9B" width="1275.59" height="4.823"/>
<rect fill="#4A4949" width="1275.59" height="1.719"/>
<g>
	<path fill="#726E68" d="M1265.289,108.379c0,4.316-3.031,7.816-6.77,7.816h-55.182c-3.738,0-6.77-3.5-6.77-7.816v-88.96
		c0-4.317,3.031-7.816,6.77-7.816h55.182c3.738,0,6.77,3.5,6.77,7.816V108.379z"/>
	<g>
		<path fill="#E2DDD6" stroke="#191919" stroke-miterlimit="10" d="M1271.838,108.379c0,4.316-3.031,7.816-6.77,7.816h-55.182
			c-3.738,0-6.768-3.5-6.768-7.816v-88.96c0-4.317,3.029-7.816,6.768-7.816h55.182c3.738,0,6.77,3.5,6.77,7.816V108.379z"/>
		<path fill="#E2DDD6" stroke="#565657" stroke-miterlimit="10" d="M1266.898,101.986c0,3.696-2.594,6.693-5.795,6.693h-47.252
			c-3.201,0-5.795-2.998-5.795-6.693V25.812c0-3.697,2.594-6.693,5.795-6.693h47.252c3.201,0,5.795,2.997,5.795,6.693V101.986z"/>
	</g>
</g>
<g>
	<path fill="#726E68" d="M77.243,108.379c0,4.316-3.03,7.816-6.769,7.816H15.293c-3.738,0-6.769-3.5-6.769-7.816v-88.96
		c0-4.317,3.03-7.816,6.769-7.816h55.182c3.738,0,6.769,3.5,6.769,7.816V108.379z"/>
	<g>
		<path fill="#E2DDD6" stroke="#191919" stroke-miterlimit="10" d="M83.793,108.379c0,4.316-3.031,7.816-6.769,7.816H21.842
			c-3.738,0-6.769-3.5-6.769-7.816v-88.96c0-4.317,3.03-7.816,6.769-7.816h55.182c3.738,0,6.769,3.5,6.769,7.816V108.379z"/>
		<path fill="#E2DDD6" stroke="#565657" stroke-miterlimit="10" d="M78.854,101.986c0,3.696-2.595,6.693-5.796,6.693H25.808
			c-3.201,0-5.796-2.998-5.796-6.693V25.812c0-3.697,2.595-6.693,5.796-6.693h47.251c3.201,0,5.796,2.997,5.796,6.693V101.986z"/>
	</g>
</g>
<path fill="#E3E1DF" stroke="#070405" stroke-width="3" stroke-miterlimit="10" d="M1192.176,179.263c0,5.01-3.26,9.072-7.279,9.072
	H763.734c-4.02,0-7.279-4.063-7.279-9.072v-29.573c0-5.01,3.26-9.072,7.279-9.072h421.162c4.02,0,7.279,4.063,7.279,9.072V179.263z"
	/>
<path fill="#E3E1DF" stroke="#070405" stroke-width="3" stroke-miterlimit="10" d="M1192.176,234.286c0,5.01-3.26,9.072-7.279,9.072
	H763.734c-4.02,0-7.279-4.063-7.279-9.072v-29.574c0-5.01,3.26-9.072,7.279-9.072h421.162c4.02,0,7.279,4.063,7.279,9.072V234.286z"
	/>
<path fill="#E3E1DF" stroke="#070405" stroke-width="3" stroke-miterlimit="10" d="M631.433,235.777c0,5.009-3.5,9.071-7.817,9.071
	H171.313c-4.316,0-7.817-4.063-7.817-9.071v-29.573c0-5.012,3.5-9.074,7.817-9.074h452.303c4.317,0,7.817,4.063,7.817,9.074V235.777
	z"/>
<g>
	<path fill="#717070" d="M176.328,225.882c-3.846,4.289-10.446,4.646-14.741,0.797c-4.292-3.851-4.654-10.45-0.81-14.739
		c3.847-4.29,10.446-4.647,14.741-0.798C179.811,214.992,180.174,221.592,176.328,225.882"/>
	<path fill="#E0E0E0" d="M176.328,222.882c-3.846,4.289-10.446,4.646-14.741,0.797c-4.292-3.851-4.654-10.45-0.81-14.739
		c3.847-4.29,10.446-4.647,14.741-0.798C179.811,211.992,180.174,218.592,176.328,222.882"/>
	
		<ellipse transform="matrix(0.7446 0.6676 -0.6676 0.7446 187.1864 -57.3658)" fill="none" stroke="#888888" stroke-miterlimit="10" cx="168.552" cy="215.911" rx="10.443" ry="10.434"/>
	<polygon fill="#D1D1D1" points="163.649,219.454 166.738,216.009 163.29,212.915 165.004,211.003 168.453,214.096 171.543,210.649 
		173.458,212.366 170.367,215.812 173.817,218.904 172.102,220.817 168.651,217.725 165.563,221.171 	"/>
	<path fill="#AEADAD" d="M173.143,212.384l-2.793,3.113l-0.296,0.332l0.332,0.297l3.118,2.795l-1.418,1.582l-3.119-2.796
		l-0.331-0.296l-0.297,0.33l-2.793,3.115l-1.581-1.419l2.791-3.115l0.296-0.331l-0.331-0.298l-3.117-2.796l1.417-1.58l3.117,2.795
		l0.332,0.297l0.298-0.331l2.793-3.114L173.143,212.384z M173.772,212.35l-2.246-2.014l-3.089,3.444l-3.449-3.092l-2.012,2.244
		l3.447,3.092l-3.089,3.445l2.246,2.015l3.09-3.446l3.448,3.093l2.012-2.245l-3.448-3.091L173.772,212.35z"/>
</g>
<g>
	<path fill="#717070" d="M634.378,225.882c-3.845,4.289-10.446,4.646-14.741,0.797c-4.292-3.851-4.654-10.45-0.809-14.739
		c3.847-4.29,10.446-4.647,14.742-0.798C637.863,214.992,638.226,221.592,634.378,225.882"/>
	<path fill="#E0E0E0" d="M634.378,222.882c-3.845,4.289-10.446,4.646-14.741,0.797c-4.292-3.851-4.654-10.45-0.809-14.739
		c3.847-4.29,10.446-4.647,14.742-0.798C637.863,211.992,638.226,218.592,634.378,222.882"/>
	
		<ellipse transform="matrix(0.7446 0.6676 -0.6676 0.7446 304.199 -363.1442)" fill="none" stroke="#888888" stroke-miterlimit="10" cx="626.603" cy="215.911" rx="10.443" ry="10.434"/>
	<polygon fill="#D1D1D1" points="621.7,219.454 624.789,216.009 621.341,212.915 623.056,211.003 626.504,214.096 629.595,210.649 
		631.509,212.366 628.419,215.812 631.869,218.904 630.153,220.817 626.702,217.725 623.614,221.171 	"/>
	<path fill="#AEADAD" d="M631.195,212.384l-2.793,3.113l-0.296,0.332l0.332,0.297l3.117,2.795l-1.417,1.582l-3.119-2.796
		l-0.331-0.296l-0.297,0.33l-2.793,3.115l-1.581-1.419l2.791-3.115l0.296-0.331l-0.331-0.298l-3.117-2.796l1.417-1.58l3.117,2.795
		l0.332,0.297l0.298-0.331l2.793-3.114L631.195,212.384z M631.824,212.35l-2.247-2.014l-3.089,3.444l-3.449-3.092l-2.012,2.244
		l3.447,3.092l-3.089,3.445l2.246,2.015l3.09-3.446l3.448,3.093l2.011-2.245l-3.448-3.091L631.824,212.35z"/>
</g>
<g>
	<path fill="#717070" d="M769.947,225.882c-3.846,4.289-10.445,4.646-14.74,0.797c-4.293-3.851-4.654-10.45-0.811-14.739
		c3.848-4.29,10.447-4.647,14.742-0.798C773.432,214.992,773.795,221.592,769.947,225.882"/>
	<path fill="#E0E0E0" d="M769.947,222.882c-3.846,4.289-10.445,4.646-14.74,0.797c-4.293-3.851-4.654-10.45-0.811-14.739
		c3.848-4.29,10.447-4.647,14.742-0.798C773.432,211.992,773.795,218.592,769.947,222.882"/>
	
		<ellipse transform="matrix(0.7446 0.6676 -0.6676 0.7446 338.8193 -453.6384)" fill="none" stroke="#888888" stroke-miterlimit="10" cx="762.172" cy="215.911" rx="10.443" ry="10.433"/>
	<polygon fill="#D1D1D1" points="757.27,219.454 760.357,216.009 756.91,212.915 758.625,211.003 762.072,214.096 765.164,210.649 
		767.078,212.366 763.988,215.812 767.438,218.904 765.723,220.817 762.271,217.725 759.184,221.171 	"/>
	<path fill="#AEADAD" d="M766.764,212.384l-2.793,3.113l-0.297,0.332l0.332,0.297l3.117,2.795l-1.418,1.582l-3.117-2.796
		l-0.332-0.296l-0.297,0.33l-2.793,3.115l-1.582-1.419l2.791-3.115l0.297-0.331l-0.33-0.298l-3.117-2.796l1.416-1.58l3.117,2.795
		l0.332,0.297l0.299-0.331l2.793-3.114L766.764,212.384z M767.393,212.35l-2.246-2.014l-3.09,3.444l-3.449-3.092l-2.012,2.244
		l3.447,3.092l-3.088,3.445l2.246,2.015l3.09-3.446l3.447,3.093l2.012-2.245l-3.447-3.091L767.393,212.35z"/>
</g>
<g>
	<path fill="#717070" d="M769.947,170.911c-3.846,4.289-10.445,4.646-14.74,0.797c-4.293-3.85-4.654-10.449-0.811-14.739
		c3.848-4.289,10.447-4.646,14.742-0.797C773.432,160.022,773.795,166.622,769.947,170.911"/>
	<path fill="#E0E0E0" d="M769.947,167.911c-3.846,4.289-10.445,4.646-14.74,0.797c-4.293-3.85-4.654-10.45-0.811-14.739
		c3.848-4.289,10.447-4.646,14.742-0.797C773.432,157.021,773.795,163.622,769.947,167.911"/>
	
		<ellipse transform="matrix(0.7446 0.6676 -0.6676 0.7446 302.1234 -467.68)" fill="none" stroke="#888888" stroke-miterlimit="10" cx="762.172" cy="160.94" rx="10.443" ry="10.433"/>
	<polygon fill="#D1D1D1" points="757.27,164.484 760.357,161.038 756.91,157.945 758.625,156.032 762.072,159.125 765.164,155.68 
		767.078,157.396 763.988,160.842 767.438,163.935 765.723,165.848 762.271,162.755 759.184,166.2 	"/>
	<path fill="#AEADAD" d="M766.764,157.413l-2.793,3.114l-0.297,0.331l0.332,0.298l3.117,2.795l-1.418,1.581l-3.117-2.795
		l-0.332-0.297l-0.297,0.331l-2.793,3.115l-1.582-1.419l2.791-3.115l0.297-0.332l-0.33-0.297l-3.117-2.796l1.416-1.58l3.117,2.795
		l0.332,0.297l0.299-0.332l2.793-3.113L766.764,157.413z M767.393,157.379l-2.246-2.014l-3.09,3.445l-3.449-3.092l-2.012,2.244
		l3.447,3.091l-3.088,3.446l2.246,2.015l3.09-3.446l3.447,3.093l2.012-2.245l-3.447-3.091L767.393,157.379z"/>
</g>
<g>
	<path fill="#717070" d="M1190.758,225.882c-3.846,4.289-10.447,4.646-14.742,0.797c-4.291-3.851-4.654-10.45-0.809-14.739
		c3.846-4.29,10.445-4.647,14.74-0.798C1194.24,214.992,1194.604,221.592,1190.758,225.882"/>
	<path fill="#E0E0E0" d="M1190.758,222.882c-3.846,4.289-10.447,4.646-14.742,0.797c-4.291-3.851-4.654-10.45-0.809-14.739
		c3.846-4.29,10.445-4.647,14.74-0.798C1194.24,211.992,1194.604,218.592,1190.758,222.882"/>
	<path fill="none" stroke="#888888" stroke-miterlimit="10" d="M1190.758,222.882c-3.846,4.289-10.447,4.646-14.742,0.797
		c-4.291-3.851-4.654-10.45-0.809-14.739c3.846-4.29,10.445-4.647,14.74-0.798C1194.24,211.992,1194.604,218.592,1190.758,222.882z"
		/>
	<polygon fill="#D1D1D1" points="1178.078,219.454 1181.168,216.009 1177.719,212.915 1179.434,211.003 1182.883,214.096 
		1185.973,210.649 1187.887,212.366 1184.797,215.812 1188.246,218.904 1186.531,220.817 1183.08,217.725 1179.992,221.171 	"/>
	<path fill="#AEADAD" d="M1187.572,212.384l-2.793,3.113l-0.295,0.332l0.33,0.297l3.119,2.795l-1.418,1.582l-3.119-2.796
		l-0.332-0.296l-0.297,0.33l-2.793,3.115l-1.58-1.419l2.791-3.115l0.295-0.331l-0.33-0.298l-3.117-2.796l1.418-1.58l3.117,2.795
		l0.33,0.297l0.299-0.331l2.793-3.114L1187.572,212.384z M1188.201,212.35l-2.246-2.014l-3.088,3.444l-3.449-3.092l-2.012,2.244
		l3.447,3.092l-3.09,3.445l2.246,2.015l3.09-3.446l3.449,3.093l2.012-2.245l-3.449-3.091L1188.201,212.35z"/>
</g>
</svg>
