<?xml version="1.0" encoding="utf-8"?>
<!-- Generator: Adobe Illustrator 19.0.0, SVG Export Plug-In . SVG Version: 6.00 Build 0)  -->
<svg version="1.1" id="图层_1" xmlns="http://www.w3.org/2000/svg" xmlns:xlink="http://www.w3.org/1999/xlink" x="0px" y="0px"
	 width="1275.6px" height="126px" viewBox="0 0 1275.6 126" style="enable-background:new 0 0 1275.6 126;" xml:space="preserve">
<style type="text/css">
	.st0{fill:#3E555F;stroke:#1C1C1C;stroke-width:1.7008;stroke-miterlimit:10;}
	.st1{fill:#3F4446;}
	.st2{fill:#231815;}
	.st3{fill:#3E555F;}
	.st4{fill:#FFFFFF;}
	.st5{fill:url(#XMLID_2_);}
	.st6{fill:url(#XMLID_3_);}
	.st7{fill:url(#XMLID_4_);}
	.st8{fill:url(#XMLID_5_);}
	.st9{fill:url(#XMLID_6_);}
	.st10{fill:url(#XMLID_7_);}
	.st11{fill:url(#XMLID_8_);}
	.st12{opacity:0.3;}
	.st13{fill:#C8C9CA;stroke:#FFF57F;stroke-width:2;stroke-miterlimit:10;}
	.st14{fill:#FFF57F;}
</style>
<rect id="XMLID_12538_" x="0.9" y="0.9" class="st0" width="1273.9" height="124.3"/>
<g id="XMLID_12531_">
	<path id="XMLID_26_" class="st1" d="M70,116.2c-2.6,0-4.7-2.1-4.7-4.7V14.9c0-2.6,2.1-4.7,4.7-4.7h1010c0.1,0,15.5,0.7,23.2,4.2
		c11.4,5.2,23.2,7.8,36.1,7.8h121.3c2.6,0,4.7,2.1,4.7,4.7v84.7c0,2.6-2.1,4.7-4.7,4.7H70z"/>
	<path id="XMLID_23_" class="st2" d="M1080,11.2c0.9,0,15.5,0.8,22.9,4.2c11.5,5.3,23.5,7.8,36.5,7.8h121.3c2,0,3.7,1.6,3.7,3.7
		v84.7c0,2-1.6,3.7-3.7,3.7H70c-2,0-3.7-1.6-3.7-3.7V14.9c0-2,1.6-3.7,3.7-3.7H1080 M1080,9.2H70c-3.1,0-5.7,2.5-5.7,5.7v96.7
		c0,3.1,2.5,5.7,5.7,5.7h1190.7c3.1,0,5.7-2.5,5.7-5.7V26.9c0-3.1-2.5-5.7-5.7-5.7h-121.3c-16,0-27.7-4-35.7-7.7
		C1095.7,9.9,1080,9.2,1080,9.2L1080,9.2z"/>
</g>
<g id="XMLID_12525_">
	<path id="XMLID_21_" class="st3" d="M41.5,116.2c-0.7,0-1.3-0.6-1.3-1.3v-8.5c0-0.7,0.6-1.3,1.3-1.3h14c0.7,0,1.3,0.6,1.3,1.3v8.5
		c0,0.7-0.6,1.3-1.3,1.3H41.5z"/>
	<path id="XMLID_18_" class="st2" d="M55.4,106.1c0.2,0,0.3,0.1,0.3,0.3v8.5c0,0.2-0.1,0.3-0.3,0.3h-14c-0.2,0-0.3-0.1-0.3-0.3v-8.5
		c0-0.2,0.1-0.3,0.3-0.3H55.4 M55.4,104.1h-14c-1.3,0-2.3,1-2.3,2.3v8.5c0,1.3,1,2.3,2.3,2.3h14c1.3,0,2.3-1,2.3-2.3v-8.5
		C57.7,105.2,56.7,104.1,55.4,104.1L55.4,104.1z"/>
</g>
<g id="XMLID_12519_">
	<path id="XMLID_22_" class="st1" d="M12.7,116.2c-2.6,0-4.7-2.1-4.7-4.7V14.9c0-2.6,2.1-4.7,4.7-4.7H52c2.6,0,4.7,2.1,4.7,4.7V97
		c0,2.6-2.1,4.7-4.7,4.7H41.3c-2.8,0-4.7,1.8-4.7,4.7v5.2c0,2.6-2.1,4.7-4.7,4.7H12.7z"/>
	<path id="XMLID_15_" class="st2" d="M52,11.2c2,0,3.7,1.6,3.7,3.7v62.8V97c0,2-1.6,3.7-3.7,3.7H41.3c-3.4,0-5.7,2.3-5.7,5.7v5.2
		c0,2-1.6,3.7-3.7,3.7h-9.8h-9.4c-2,0-3.7-1.6-3.7-3.7V14.9c0-2,1.6-3.7,3.7-3.7H52 M52,9.2H12.7C9.6,9.2,7,11.8,7,14.9v96.7
		c0,3.1,2.5,5.7,5.7,5.7h9.4h9.8c3.1,0,5.7-2.5,5.7-5.7v-5.2c0-2.6,1.7-3.7,3.7-3.7H52c3.1,0,5.7-2.5,5.7-5.7V77.7V14.9
		C57.7,11.8,55.2,9.2,52,9.2L52,9.2z"/>
</g>
<g id="XMLID_12474_">
	<g id="XMLID_12324_">
		<path id="XMLID_12325_" class="st4" d="M1131,8.5c0.7-0.7,1.6-1.1,2.7-1.1c1.5,0,2.5,0.5,3.2,1.5c0.4,0.5,0.6,1.1,0.6,1.6h-1.8
			c-0.1-0.4-0.3-0.7-0.4-1c-0.3-0.4-0.8-0.6-1.5-0.6c-0.7,0-1.2,0.3-1.5,0.8c-0.4,0.5-0.6,1.3-0.6,2.3s0.2,1.7,0.6,2.2
			c0.4,0.5,0.9,0.7,1.5,0.7c0.6,0,1.1-0.2,1.4-0.6c0.2-0.2,0.3-0.6,0.5-1h1.8c-0.2,1-0.6,1.7-1.2,2.3c-0.6,0.6-1.5,0.9-2.5,0.9
			c-1.3,0-2.2-0.4-2.9-1.2c-0.7-0.8-1.1-1.9-1.1-3.3C1129.8,10.5,1130.2,9.3,1131,8.5z"/>
		<path id="XMLID_12327_" class="st4" d="M1141.4,12.4c0.3,0,0.5-0.1,0.7-0.1c0.2-0.1,0.4-0.3,0.4-0.5c0-0.3-0.1-0.5-0.3-0.6
			c-0.2-0.1-0.5-0.2-0.8-0.2c-0.4,0-0.7,0.1-0.9,0.3c-0.1,0.1-0.2,0.3-0.2,0.6h-1.6c0-0.6,0.2-1,0.5-1.4c0.5-0.6,1.2-0.9,2.3-0.9
			c0.7,0,1.3,0.1,1.9,0.4c0.6,0.3,0.8,0.8,0.8,1.6v3c0,0.2,0,0.5,0,0.8c0,0.2,0,0.4,0.1,0.5c0.1,0.1,0.1,0.1,0.3,0.2v0.2h-1.8
			c-0.1-0.1-0.1-0.3-0.1-0.4s0-0.2,0-0.4c-0.2,0.3-0.5,0.5-0.8,0.6c-0.4,0.2-0.8,0.3-1.2,0.3c-0.6,0-1.1-0.2-1.5-0.5
			c-0.4-0.3-0.6-0.8-0.6-1.4c0-0.8,0.3-1.4,0.9-1.7c0.3-0.2,0.8-0.3,1.5-0.4L1141.4,12.4z M1142.5,13.2c-0.1,0.1-0.2,0.1-0.3,0.2
			c-0.1,0-0.3,0.1-0.5,0.1l-0.4,0.1c-0.4,0.1-0.6,0.1-0.8,0.2c-0.3,0.2-0.4,0.4-0.4,0.7c0,0.3,0.1,0.5,0.2,0.6
			c0.2,0.1,0.4,0.2,0.6,0.2c0.4,0,0.7-0.1,1-0.3c0.3-0.2,0.5-0.6,0.5-1.2V13.2z"/>
		<path id="XMLID_12330_" class="st4" d="M1145,11.1V9.9h0.9V8.1h1.7v1.8h1.1v1.2h-1.1v3.4c0,0.3,0,0.4,0.1,0.5
			c0.1,0.1,0.3,0.1,0.6,0.1c0.1,0,0.1,0,0.2,0c0.1,0,0.1,0,0.2,0v1.3l-0.8,0c-0.8,0-1.4-0.1-1.6-0.4c-0.2-0.2-0.3-0.5-0.3-0.9v-4
			H1145z"/>
		<path id="XMLID_12332_" class="st4" d="M1152.3,12.4c0.3,0,0.5-0.1,0.7-0.1c0.2-0.1,0.4-0.3,0.4-0.5c0-0.3-0.1-0.5-0.3-0.6
			c-0.2-0.1-0.5-0.2-0.8-0.2c-0.4,0-0.7,0.1-0.9,0.3c-0.1,0.1-0.2,0.3-0.2,0.6h-1.6c0-0.6,0.2-1,0.5-1.4c0.5-0.6,1.2-0.9,2.3-0.9
			c0.7,0,1.3,0.1,1.9,0.4c0.6,0.3,0.8,0.8,0.8,1.6v3c0,0.2,0,0.5,0,0.8c0,0.2,0,0.4,0.1,0.5c0.1,0.1,0.1,0.1,0.3,0.2v0.2h-1.8
			c-0.1-0.1-0.1-0.3-0.1-0.4s0-0.2,0-0.4c-0.2,0.3-0.5,0.5-0.8,0.6c-0.4,0.2-0.8,0.3-1.2,0.3c-0.6,0-1.1-0.2-1.5-0.5
			c-0.4-0.3-0.6-0.8-0.6-1.4c0-0.8,0.3-1.4,0.9-1.7c0.3-0.2,0.8-0.3,1.5-0.4L1152.3,12.4z M1153.3,13.2c-0.1,0.1-0.2,0.1-0.3,0.2
			c-0.1,0-0.3,0.1-0.5,0.1l-0.4,0.1c-0.4,0.1-0.6,0.1-0.8,0.2c-0.3,0.2-0.4,0.4-0.4,0.7c0,0.3,0.1,0.5,0.2,0.6
			c0.2,0.1,0.4,0.2,0.6,0.2c0.4,0,0.7-0.1,1-0.3c0.3-0.2,0.5-0.6,0.5-1.2V13.2z"/>
		<path id="XMLID_12335_" class="st4" d="M1158.2,16.3h-1.7V7.5h1.7V16.3z"/>
		<path id="XMLID_12337_" class="st4" d="M1160.1,17.6l0.2,0c0.2,0,0.3,0,0.5,0c0.2,0,0.3-0.1,0.4-0.1c0.1-0.1,0.2-0.2,0.3-0.4
			c0.1-0.2,0.1-0.3,0.1-0.4l-2.4-6.8h1.9l1.4,4.8l1.3-4.8h1.8l-2.2,6.4c-0.4,1.2-0.8,2-1,2.3s-0.8,0.4-1.5,0.4c-0.2,0-0.3,0-0.4,0
			c-0.1,0-0.2,0-0.4,0V17.6z"/>
		<path id="XMLID_12339_" class="st4" d="M1168,14.3c0,0.3,0.1,0.5,0.2,0.6c0.2,0.2,0.6,0.3,1.2,0.3c0.3,0,0.6,0,0.8-0.1
			c0.2-0.1,0.3-0.2,0.3-0.4c0-0.2-0.1-0.3-0.2-0.4c-0.2-0.1-0.8-0.3-1.8-0.5c-0.7-0.2-1.3-0.4-1.6-0.7c-0.3-0.3-0.5-0.7-0.5-1.2
			c0-0.6,0.2-1.1,0.7-1.5c0.5-0.4,1.1-0.6,2-0.6c0.8,0,1.5,0.2,2,0.5c0.5,0.3,0.8,0.9,0.9,1.7h-1.7c0-0.2-0.1-0.4-0.2-0.5
			c-0.2-0.2-0.5-0.3-1-0.3c-0.4,0-0.6,0.1-0.8,0.2c-0.2,0.1-0.2,0.3-0.2,0.4c0,0.2,0.1,0.3,0.3,0.4c0.2,0.1,0.8,0.2,1.8,0.5
			c0.7,0.2,1.2,0.4,1.5,0.7c0.3,0.3,0.5,0.7,0.5,1.2c0,0.6-0.2,1.2-0.7,1.6c-0.5,0.4-1.2,0.6-2.2,0.6c-1,0-1.8-0.2-2.3-0.6
			c-0.5-0.4-0.7-1-0.7-1.6H1168z"/>
		<path id="XMLID_12341_" class="st4" d="M1172.8,11.1V9.9h0.9V8.1h1.7v1.8h1.1v1.2h-1.1v3.4c0,0.3,0,0.4,0.1,0.5
			c0.1,0.1,0.3,0.1,0.6,0.1c0.1,0,0.1,0,0.2,0c0.1,0,0.1,0,0.2,0v1.3l-0.8,0c-0.8,0-1.4-0.1-1.6-0.4c-0.2-0.2-0.3-0.5-0.3-0.9v-4
			H1172.8z"/>
		<path id="XMLID_12343_" class="st4" d="M1185.5,13.7c0,0.3,0.1,0.6,0.2,0.9c0.2,0.4,0.6,0.6,1.1,0.6c0.3,0,0.6-0.1,0.9-0.3
			c0.2-0.2,0.4-0.6,0.4-1c0-0.6-0.2-0.9-0.7-1.1c-0.3-0.1-0.7-0.2-1.2-0.2v-1.2c0.6,0,0.9-0.1,1.2-0.2c0.4-0.2,0.6-0.5,0.6-1
			c0-0.3-0.1-0.6-0.3-0.8c-0.2-0.2-0.5-0.3-0.8-0.3c-0.4,0-0.7,0.1-0.9,0.4c-0.2,0.3-0.3,0.6-0.3,1h-1.6c0-0.4,0.1-0.8,0.2-1.2
			c0.1-0.3,0.4-0.6,0.7-0.9c0.2-0.2,0.5-0.4,0.8-0.5c0.3-0.1,0.7-0.2,1.1-0.2c0.8,0,1.5,0.2,2,0.6c0.5,0.4,0.8,1,0.8,1.7
			c0,0.5-0.2,0.9-0.5,1.3c-0.2,0.2-0.4,0.4-0.6,0.4c0.2,0,0.4,0.1,0.7,0.4c0.4,0.4,0.6,0.9,0.6,1.6c0,0.7-0.3,1.4-0.8,1.9
			c-0.5,0.6-1.3,0.8-2.2,0.8c-1.2,0-2.1-0.4-2.5-1.2c-0.3-0.4-0.4-1-0.4-1.7H1185.5z"/>
		<path id="XMLID_12345_" class="st4" d="M1192.3,14c0.1,0.4,0.2,0.7,0.4,0.9c0.2,0.2,0.5,0.3,0.8,0.3c0.4,0,0.7-0.1,1-0.4
			c0.2-0.3,0.3-0.7,0.3-1.1c0-0.4-0.1-0.8-0.3-1.1c-0.2-0.3-0.5-0.5-1-0.5c-0.2,0-0.4,0-0.5,0.1c-0.3,0.1-0.5,0.3-0.6,0.5l-1.5-0.1
			l0.6-4.8h4.8v1.4h-3.5l-0.3,1.9c0.3-0.2,0.5-0.3,0.6-0.3c0.2-0.1,0.5-0.1,0.9-0.1c0.7,0,1.3,0.2,1.9,0.7c0.5,0.5,0.8,1.2,0.8,2.1
			c0,0.8-0.3,1.5-0.8,2.1c-0.5,0.6-1.3,0.9-2.3,0.9c-0.8,0-1.5-0.2-2-0.7c-0.5-0.4-0.8-1.1-0.9-1.9H1192.3z"/>
		<path id="XMLID_12347_" class="st4" d="M1201.6,9.9c0-0.1-0.1-0.3-0.2-0.5c-0.2-0.3-0.5-0.4-0.8-0.4c-0.6,0-0.9,0.3-1.2,0.9
			c-0.1,0.3-0.2,0.8-0.3,1.5c0.2-0.3,0.5-0.4,0.7-0.5c0.3-0.1,0.6-0.2,1-0.2c0.8,0,1.4,0.3,1.9,0.8c0.5,0.5,0.7,1.2,0.7,2
			c0,0.8-0.2,1.5-0.7,2.1c-0.5,0.6-1.2,0.9-2.2,0.9c-1.1,0-1.9-0.5-2.4-1.4c-0.4-0.7-0.6-1.6-0.6-2.8c0-0.7,0-1.2,0.1-1.6
			c0.1-0.7,0.3-1.3,0.6-1.8c0.2-0.4,0.6-0.8,1-1s0.9-0.4,1.4-0.4c0.8,0,1.4,0.2,1.9,0.6c0.5,0.4,0.7,1,0.8,1.6H1201.6z M1199.5,14.7
			c0.2,0.3,0.6,0.4,1,0.4c0.4,0,0.7-0.1,0.9-0.4c0.2-0.3,0.3-0.7,0.3-1.1c0-0.5-0.1-0.9-0.4-1.2c-0.2-0.3-0.5-0.4-0.9-0.4
			c-0.3,0-0.5,0.1-0.8,0.3c-0.3,0.3-0.5,0.7-0.5,1.3C1199.2,14.1,1199.3,14.4,1199.5,14.7z"/>
		<path id="XMLID_12350_" class="st4" d="M1209.5,8.8c0.4,0.8,0.7,1.9,0.7,3.3s-0.2,2.5-0.7,3.3s-1.2,1.2-2.3,1.2
			c-1.1,0-1.9-0.4-2.3-1.2s-0.7-1.9-0.7-3.3s0.2-2.5,0.7-3.3c0.4-0.8,1.2-1.2,2.3-1.2C1208.3,7.6,1209.1,8,1209.5,8.8z M1206.2,14.4
			c0.2,0.5,0.5,0.8,1,0.8c0.5,0,0.8-0.3,1-0.8c0.2-0.5,0.2-1.3,0.2-2.3c0-1-0.1-1.8-0.2-2.3c-0.2-0.5-0.5-0.8-1-0.8
			c-0.5,0-0.8,0.3-1,0.8c-0.2,0.5-0.2,1.3-0.2,2.3C1206,13.1,1206.1,13.8,1206.2,14.4z"/>
	</g>
</g>
<g id="XMLID_12455_">
	<g id="XMLID_12465_">
		<g id="XMLID_12466_">
			<rect id="XMLID_12473_" x="24.5" y="25.1" class="st4" width="1.5" height="6.1"/>
			<path id="XMLID_12472_" class="st4" d="M38.4,26.9c-0.1,0-0.6-0.3-1.3-0.3c-1,0-1.7,0.7-1.7,1.6c0,0.9,0.7,1.6,1.7,1.6
				c0.7,0,1.2-0.3,1.3-0.3v1.6c-0.2,0.1-0.7,0.2-1.4,0.2c-1.7,0-3.2-1.2-3.2-3.1c0-1.8,1.4-3.1,3.2-3.1c0.7,0,1.3,0.2,1.4,0.2V26.9z
				"/>
			<path id="XMLID_12471_" class="st4" d="M22.4,26.9c-0.1,0-0.6-0.3-1.3-0.3c-1,0-1.7,0.7-1.7,1.6c0,0.9,0.7,1.6,1.7,1.6
				c0.7,0,1.2-0.3,1.3-0.3v1.6c-0.2,0.1-0.7,0.2-1.4,0.2c-1.7,0-3.2-1.2-3.2-3.1c0-1.8,1.4-3.1,3.2-3.1c0.7,0,1.3,0.2,1.4,0.2V26.9z
				"/>
			<path id="XMLID_12468_" class="st4" d="M46.5,28.1c0,1.7-1.3,3.1-3.2,3.1c-1.9,0-3.2-1.4-3.2-3.1c0-1.7,1.3-3.1,3.2-3.1
				C45.1,25,46.5,26.4,46.5,28.1z M43.3,26.6c-0.9,0-1.6,0.7-1.6,1.6c0,0.9,0.7,1.6,1.6,1.6c0.9,0,1.6-0.7,1.6-1.6
				C44.8,27.3,44.2,26.6,43.3,26.6z"/>
			<path id="XMLID_12467_" class="st4" d="M31.9,26.5c0,0-0.7-0.2-1.2-0.2c-0.6,0-0.9,0.2-0.9,0.5c0,0.4,0.5,0.5,0.7,0.6l0.4,0.1
				c1,0.3,1.4,1,1.4,1.7c0,1.5-1.3,2-2.5,2c-0.8,0-1.6-0.1-1.7-0.2v-1.4c0.1,0,0.8,0.2,1.4,0.2c0.8,0,1.1-0.2,1.1-0.6
				c0-0.3-0.3-0.5-0.7-0.6c-0.1,0-0.2-0.1-0.3-0.1c-0.9-0.3-1.6-0.8-1.6-1.8c0-1.1,0.9-1.9,2.3-1.9c0.7,0,1.4,0.2,1.5,0.2V26.5z"/>
		</g>
	</g>
	<path id="XMLID_12464_" class="st4" d="M16.2,18.6c0-0.4-0.3-0.8-0.8-0.8c-0.4,0-0.8,0.3-0.8,0.8v1.6c0,0.4,0.3,0.8,0.8,0.8
		c0.4,0,0.8-0.3,0.8-0.8V18.6z"/>
	<path id="XMLID_12463_" class="st4" d="M20.4,16.5c0-0.4-0.3-0.8-0.8-0.8c-0.4,0-0.8,0.3-0.8,0.8v3.7c0,0.4,0.3,0.8,0.8,0.8
		c0.4,0,0.8-0.3,0.8-0.8V16.5z"/>
	<path id="XMLID_12462_" class="st4" d="M24.5,13.6c0-0.4-0.3-0.8-0.8-0.8c-0.4,0-0.8,0.3-0.8,0.8v8.1c0,0.4,0.3,0.8,0.8,0.8
		c0.4,0,0.8-0.3,0.8-0.8V13.6z"/>
	<path id="XMLID_12461_" class="st4" d="M28.7,16.5c0-0.4-0.3-0.8-0.8-0.8c-0.4,0-0.8,0.3-0.8,0.8v3.7c0,0.4,0.3,0.8,0.8,0.8
		c0.4,0,0.8-0.3,0.8-0.8V16.5z"/>
	<path id="XMLID_12460_" class="st4" d="M32.9,18.6c0-0.4-0.3-0.8-0.8-0.8c-0.4,0-0.8,0.3-0.8,0.8v1.6c0,0.4,0.3,0.8,0.8,0.8
		c0.4,0,0.8-0.3,0.8-0.8V18.6z"/>
	<path id="XMLID_12459_" class="st4" d="M37.1,16.5c0-0.4-0.3-0.8-0.8-0.8c-0.4,0-0.8,0.3-0.8,0.8v3.7c0,0.4,0.3,0.8,0.8,0.8
		c0.4,0,0.8-0.3,0.8-0.8V16.5z"/>
	<path id="XMLID_12458_" class="st4" d="M41.3,13.6c0-0.4-0.3-0.8-0.8-0.8c-0.4,0-0.8,0.3-0.8,0.8v8.1c0,0.4,0.3,0.8,0.8,0.8
		c0.4,0,0.8-0.3,0.8-0.8V13.6z"/>
	<path id="XMLID_12457_" class="st4" d="M45.4,16.5c0-0.4-0.3-0.8-0.8-0.8c-0.4,0-0.8,0.3-0.8,0.8v3.7c0,0.4,0.3,0.8,0.8,0.8
		c0.4,0,0.8-0.3,0.8-0.8V16.5z"/>
	<path id="XMLID_12456_" class="st4" d="M49.6,18.6c0-0.4-0.3-0.8-0.8-0.8c-0.4,0-0.8,0.3-0.8,0.8v1.6c0,0.4,0.3,0.8,0.8,0.8
		c0.4,0,0.8-0.3,0.8-0.8V18.6z"/>
</g>
<g id="XMLID_12409_">
	<path id="XMLID_12453_" class="st4" d="M32.9,39.8l0.5-0.1c0,0.3,0.1,0.5,0.2,0.7c0.1,0.2,0.2,0.3,0.4,0.4c0.2,0.1,0.4,0.1,0.6,0.1
		c0.3,0,0.6-0.1,0.8-0.2c0.2-0.2,0.3-0.4,0.3-0.6c0-0.2,0-0.3-0.1-0.4c-0.1-0.1-0.2-0.2-0.3-0.3c-0.1-0.1-0.4-0.2-0.9-0.3
		c-0.4-0.1-0.7-0.2-0.9-0.4c-0.2-0.1-0.3-0.3-0.4-0.5c-0.1-0.2-0.1-0.4-0.1-0.6c0-0.4,0.1-0.8,0.4-1c0.3-0.3,0.6-0.4,1.1-0.4
		c0.3,0,0.6,0.1,0.8,0.2c0.2,0.1,0.4,0.3,0.6,0.5c0.1,0.2,0.2,0.5,0.2,0.8l-0.5,0c0-0.3-0.1-0.6-0.3-0.8c-0.2-0.2-0.4-0.2-0.7-0.2
		c-0.3,0-0.6,0.1-0.7,0.2c-0.2,0.1-0.3,0.3-0.3,0.6c0,0.2,0.1,0.4,0.2,0.5c0.1,0.1,0.4,0.2,0.8,0.4c0.4,0.1,0.7,0.2,0.9,0.3
		c0.3,0.1,0.5,0.3,0.6,0.5c0.1,0.2,0.2,0.5,0.2,0.8c0,0.3-0.1,0.6-0.2,0.8c-0.1,0.2-0.3,0.4-0.6,0.6c-0.2,0.1-0.5,0.2-0.9,0.2
		c-0.5,0-0.9-0.2-1.3-0.5C33.1,40.7,32.9,40.3,32.9,39.8z"/>
	<path id="XMLID_12451_" class="st4" d="M38.3,41.4v-2.2l-1.6-3h0.7l0.8,1.6c0.2,0.3,0.3,0.6,0.4,0.9c0.1-0.3,0.3-0.6,0.5-0.9
		l0.8-1.5h0.7l-1.7,3v2.2H38.3z"/>
	<path id="XMLID_12449_" class="st4" d="M40.9,39.8l0.5-0.1c0,0.3,0.1,0.5,0.2,0.7c0.1,0.2,0.2,0.3,0.4,0.4c0.2,0.1,0.4,0.1,0.6,0.1
		c0.3,0,0.6-0.1,0.8-0.2c0.2-0.2,0.3-0.4,0.3-0.6c0-0.2,0-0.3-0.1-0.4c-0.1-0.1-0.2-0.2-0.3-0.3c-0.1-0.1-0.4-0.2-0.9-0.3
		c-0.4-0.1-0.7-0.2-0.9-0.4c-0.2-0.1-0.3-0.3-0.4-0.5C41.1,38,41,37.8,41,37.6c0-0.4,0.1-0.8,0.4-1c0.3-0.3,0.6-0.4,1.1-0.4
		c0.3,0,0.6,0.1,0.8,0.2c0.2,0.1,0.4,0.3,0.6,0.5c0.1,0.2,0.2,0.5,0.2,0.8l-0.5,0c0-0.3-0.1-0.6-0.3-0.8c-0.2-0.2-0.4-0.2-0.7-0.2
		c-0.3,0-0.6,0.1-0.7,0.2c-0.2,0.1-0.3,0.3-0.3,0.6c0,0.2,0.1,0.4,0.2,0.5c0.1,0.1,0.4,0.2,0.8,0.4c0.4,0.1,0.7,0.2,0.9,0.3
		c0.3,0.1,0.5,0.3,0.6,0.5c0.1,0.2,0.2,0.5,0.2,0.8c0,0.3-0.1,0.6-0.2,0.8c-0.1,0.2-0.3,0.4-0.6,0.6c-0.2,0.1-0.5,0.2-0.9,0.2
		c-0.5,0-0.9-0.2-1.3-0.5C41,40.7,40.9,40.3,40.9,39.8z"/>
	<path id="XMLID_12447_" class="st4" d="M46.1,41.4v-4.6h-1.4v-0.6h3.4v0.6h-1.4v4.6H46.1z"/>
	<path id="XMLID_12444_" class="st4" d="M36.3,49.3v-5.2h1.9c0.4,0,0.7,0,0.9,0.1c0.2,0.1,0.3,0.3,0.5,0.5c0.1,0.2,0.2,0.5,0.2,0.8
		c0,0.4-0.1,0.7-0.3,1c-0.2,0.2-0.5,0.4-0.9,0.5c0.2,0.1,0.3,0.2,0.4,0.3c0.2,0.2,0.3,0.4,0.4,0.7l0.7,1.4h-0.7l-0.6-1.1
		c-0.2-0.4-0.4-0.7-0.5-0.9c-0.1-0.1-0.2-0.2-0.3-0.3S37.7,47,37.5,47h-0.7v2.3H36.3z M36.9,46.4h1.2c0.3,0,0.5,0,0.6-0.1
		c0.1-0.1,0.2-0.2,0.3-0.3c0.1-0.1,0.1-0.3,0.1-0.5c0-0.3-0.1-0.5-0.2-0.6c-0.2-0.1-0.4-0.2-0.7-0.2h-1.3V46.4z"/>
	<path id="XMLID_12441_" class="st4" d="M40.6,49.3v-5.2h1.6c0.4,0,0.7,0,0.8,0.1c0.2,0.1,0.4,0.3,0.6,0.5c0.1,0.2,0.2,0.5,0.2,0.9
		c0,0.5-0.1,0.8-0.4,1.1s-0.7,0.4-1.2,0.4h-1.1v2.1H40.6z M41.2,46.6h1.1c0.3,0,0.6-0.1,0.8-0.2c0.2-0.2,0.2-0.4,0.2-0.7
		c0-0.2,0-0.4-0.1-0.5c-0.1-0.1-0.2-0.2-0.3-0.3c-0.1-0.1-0.3-0.1-0.6-0.1h-1.1V46.6z"/>
	<path id="XMLID_12439_" class="st4" d="M44.4,47.6l0.5-0.1c0,0.3,0.1,0.5,0.2,0.7c0.1,0.2,0.2,0.3,0.4,0.4c0.2,0.1,0.4,0.1,0.6,0.1
		c0.3,0,0.6-0.1,0.8-0.2c0.2-0.2,0.3-0.4,0.3-0.6c0-0.2,0-0.3-0.1-0.4c-0.1-0.1-0.2-0.2-0.3-0.3c-0.1-0.1-0.4-0.2-0.9-0.3
		c-0.4-0.1-0.7-0.2-0.9-0.4c-0.2-0.1-0.3-0.3-0.4-0.5c-0.1-0.2-0.1-0.4-0.1-0.6c0-0.4,0.1-0.8,0.4-1c0.3-0.3,0.6-0.4,1.1-0.4
		c0.3,0,0.6,0.1,0.8,0.2c0.2,0.1,0.4,0.3,0.6,0.5c0.1,0.2,0.2,0.5,0.2,0.8l-0.5,0c0-0.3-0.1-0.6-0.3-0.8c-0.2-0.2-0.4-0.2-0.7-0.2
		c-0.3,0-0.6,0.1-0.7,0.2c-0.2,0.1-0.3,0.3-0.3,0.6c0,0.2,0.1,0.4,0.2,0.5c0.1,0.1,0.4,0.2,0.8,0.4c0.4,0.1,0.7,0.2,0.9,0.3
		c0.3,0.1,0.5,0.3,0.6,0.5c0.1,0.2,0.2,0.5,0.2,0.8c0,0.3-0.1,0.6-0.2,0.8c-0.1,0.2-0.3,0.4-0.6,0.6c-0.2,0.1-0.5,0.2-0.9,0.2
		c-0.5,0-0.9-0.2-1.3-0.5C44.6,48.6,44.4,48.2,44.4,47.6z"/>
	<path id="XMLID_12437_" class="st4" d="M34.1,63.4l0.5-0.1c0,0.3,0.1,0.5,0.2,0.7c0.1,0.2,0.2,0.3,0.4,0.4c0.2,0.1,0.4,0.1,0.6,0.1
		c0.3,0,0.6-0.1,0.8-0.2c0.2-0.2,0.3-0.4,0.3-0.6c0-0.2,0-0.3-0.1-0.4c-0.1-0.1-0.2-0.2-0.3-0.3c-0.1-0.1-0.4-0.2-0.9-0.3
		c-0.4-0.1-0.7-0.2-0.9-0.4c-0.2-0.1-0.3-0.3-0.4-0.5c-0.1-0.2-0.1-0.4-0.1-0.6c0-0.4,0.1-0.8,0.4-1c0.3-0.3,0.6-0.4,1.1-0.4
		c0.3,0,0.6,0.1,0.8,0.2c0.2,0.1,0.4,0.3,0.6,0.5c0.1,0.2,0.2,0.5,0.2,0.8l-0.5,0c0-0.3-0.1-0.6-0.3-0.8c-0.2-0.2-0.4-0.2-0.7-0.2
		c-0.3,0-0.6,0.1-0.7,0.2c-0.2,0.1-0.3,0.3-0.3,0.6c0,0.2,0.1,0.4,0.2,0.5c0.1,0.1,0.4,0.2,0.8,0.4c0.4,0.1,0.7,0.2,0.9,0.3
		c0.3,0.1,0.5,0.3,0.6,0.5c0.1,0.2,0.2,0.5,0.2,0.8c0,0.3-0.1,0.6-0.2,0.8c-0.1,0.2-0.3,0.4-0.6,0.6c-0.2,0.1-0.5,0.2-0.9,0.2
		c-0.5,0-0.9-0.2-1.3-0.5C34.3,64.3,34.1,63.9,34.1,63.4z"/>
	<path id="XMLID_12435_" class="st4" d="M39.4,65v-4.6H38v-0.6h3.4v0.6h-1.4V65H39.4z"/>
	<path id="XMLID_12432_" class="st4" d="M41,65l1.6-5.2h0.6L45,65h-0.6l-0.5-1.6h-1.8L41.6,65H41z M42.2,62.9h1.5l-0.4-1.4
		c-0.1-0.4-0.2-0.8-0.3-1.1c-0.1,0.3-0.1,0.7-0.2,1L42.2,62.9z"/>
	<path id="XMLID_12430_" class="st4" d="M46.1,65v-4.6h-1.4v-0.6h3.4v0.6h-1.4V65H46.1z"/>
	<path id="XMLID_12427_" class="st4" d="M33,72.9v-5.2h1.5c0.4,0,0.6,0,0.8,0.1c0.2,0.1,0.5,0.2,0.6,0.5c0.2,0.2,0.3,0.5,0.4,0.8
		c0.1,0.3,0.2,0.7,0.2,1.2c0,0.6-0.1,1.1-0.3,1.5c-0.2,0.4-0.4,0.7-0.7,0.9c-0.3,0.2-0.6,0.3-1.1,0.3H33z M33.6,72.3h0.9
		c0.4,0,0.6-0.1,0.8-0.2c0.2-0.1,0.3-0.3,0.4-0.6c0.1-0.4,0.2-0.8,0.2-1.3c0-0.5-0.1-0.9-0.2-1.2c-0.1-0.3-0.3-0.5-0.6-0.6
		c-0.2-0.1-0.4-0.1-0.7-0.1h-0.9V72.3z"/>
	<path id="XMLID_12424_" class="st4" d="M37.3,72.9v-5.2h1.6c0.4,0,0.7,0,0.8,0.1c0.2,0.1,0.4,0.3,0.6,0.5c0.1,0.2,0.2,0.5,0.2,0.9
		c0,0.5-0.1,0.8-0.4,1.1c-0.2,0.3-0.7,0.4-1.2,0.4h-1.1v2.1H37.3z M37.9,70.2H39c0.3,0,0.6-0.1,0.8-0.2c0.2-0.2,0.2-0.4,0.2-0.7
		c0-0.2,0-0.4-0.1-0.5c-0.1-0.1-0.2-0.2-0.3-0.3c-0.1-0.1-0.3-0.1-0.6-0.1h-1.1V70.2z"/>
	<path id="XMLID_12422_" class="st4" d="M41.2,72.9v-5.2h0.6v4.6h2.1v0.6H41.2z"/>
	<path id="XMLID_12420_" class="st4" d="M44.1,72.9l1.7-2.7l-1.5-2.5H45l0.8,1.3c0.2,0.3,0.3,0.5,0.3,0.6c0.1-0.2,0.2-0.4,0.3-0.6
		l0.9-1.4h0.6l-1.5,2.4l1.6,2.8h-0.7L46.3,71c-0.1-0.1-0.1-0.2-0.2-0.3c-0.1,0.2-0.2,0.3-0.2,0.4l-1.1,1.8H44.1z"/>
	<path id="XMLID_12418_" class="st4" d="M32.2,79.1l0.5-0.1c0,0.3,0.1,0.5,0.2,0.7c0.1,0.2,0.2,0.3,0.4,0.4c0.2,0.1,0.4,0.1,0.6,0.1
		c0.3,0,0.6-0.1,0.8-0.2c0.2-0.2,0.3-0.4,0.3-0.6c0-0.2,0-0.3-0.1-0.4c-0.1-0.1-0.2-0.2-0.3-0.3c-0.1-0.1-0.4-0.2-0.9-0.3
		c-0.4-0.1-0.7-0.2-0.9-0.4c-0.2-0.1-0.3-0.3-0.4-0.5c-0.1-0.2-0.1-0.4-0.1-0.6c0-0.4,0.1-0.8,0.4-1c0.3-0.3,0.6-0.4,1.1-0.4
		c0.3,0,0.6,0.1,0.8,0.2c0.2,0.1,0.4,0.3,0.6,0.5c0.1,0.2,0.2,0.5,0.2,0.8l-0.5,0c0-0.3-0.1-0.6-0.3-0.8c-0.2-0.2-0.4-0.2-0.7-0.2
		c-0.3,0-0.6,0.1-0.7,0.2c-0.2,0.1-0.3,0.3-0.3,0.6c0,0.2,0.1,0.4,0.2,0.5c0.1,0.1,0.4,0.2,0.8,0.4c0.4,0.1,0.7,0.2,0.9,0.3
		c0.3,0.1,0.5,0.3,0.6,0.5c0.1,0.2,0.2,0.5,0.2,0.8c0,0.3-0.1,0.6-0.2,0.8c-0.1,0.2-0.3,0.4-0.6,0.6c-0.2,0.1-0.5,0.2-0.9,0.2
		c-0.5,0-0.9-0.2-1.3-0.5C32.3,80,32.2,79.6,32.2,79.1z"/>
	<path id="XMLID_12415_" class="st4" d="M36.3,80.8v-5.2h1.6c0.4,0,0.7,0,0.8,0.1c0.2,0.1,0.4,0.3,0.6,0.5c0.1,0.2,0.2,0.5,0.2,0.9
		c0,0.5-0.1,0.8-0.4,1.1c-0.2,0.3-0.7,0.4-1.2,0.4h-1.1v2.1H36.3z M36.9,78H38c0.3,0,0.6-0.1,0.8-0.2c0.2-0.2,0.2-0.4,0.2-0.7
		c0-0.2,0-0.4-0.1-0.5c-0.1-0.1-0.2-0.2-0.3-0.3c-0.1-0.1-0.3-0.1-0.6-0.1h-1.1V78z"/>
	<path id="XMLID_12413_" class="st4" d="M40.3,80.8v-5.2h3.1v0.6h-2.5v1.6h2.4v0.6h-2.4v1.8h2.6v0.6H40.3z"/>
	<path id="XMLID_12410_" class="st4" d="M44.2,80.8v-5.2h1.5c0.4,0,0.6,0,0.8,0.1c0.2,0.1,0.5,0.2,0.6,0.5c0.2,0.2,0.3,0.5,0.4,0.8
		c0.1,0.3,0.2,0.7,0.2,1.2c0,0.6-0.1,1.1-0.3,1.5c-0.2,0.4-0.4,0.7-0.7,0.9c-0.3,0.2-0.6,0.3-1.1,0.3H44.2z M44.8,80.1h0.9
		c0.4,0,0.6-0.1,0.8-0.2c0.2-0.1,0.3-0.3,0.4-0.6c0.1-0.4,0.2-0.8,0.2-1.3c0-0.5-0.1-0.9-0.2-1.2c-0.1-0.3-0.3-0.5-0.6-0.6
		c-0.2-0.1-0.4-0.1-0.7-0.1h-0.9V80.1z"/>
</g>
<g id="XMLID_12386_">
	<g id="XMLID_96_">
		<path id="XMLID_105_" class="st4" d="M13.2,112.2v-5.4h0.9l1.1,3.9l0.2,0.8c0.1-0.2,0.1-0.5,0.2-0.9l1.1-3.8h0.8v5.4h-0.6v-4.6
			l-1.3,4.6H15l-1.3-4.6v4.6H13.2z"/>
		<path id="XMLID_102_" class="st4" d="M18.2,109.6c0-0.9,0.2-1.6,0.6-2.1c0.4-0.5,0.9-0.8,1.5-0.8c0.4,0,0.8,0.1,1.1,0.3
			c0.3,0.2,0.6,0.5,0.8,1c0.2,0.4,0.3,0.9,0.3,1.5c0,0.8-0.2,1.5-0.5,2c-0.4,0.6-0.9,0.8-1.6,0.8c-0.7,0-1.2-0.3-1.6-0.9
			C18.4,110.9,18.2,110.3,18.2,109.6z M18.8,109.6c0,0.7,0.1,1.2,0.4,1.6c0.3,0.4,0.7,0.6,1.1,0.6c0.4,0,0.8-0.2,1.1-0.6
			c0.3-0.4,0.4-0.9,0.4-1.6c0-0.5-0.1-0.9-0.2-1.3c-0.1-0.3-0.3-0.5-0.5-0.7c-0.2-0.2-0.5-0.3-0.8-0.3c-0.4,0-0.8,0.2-1.1,0.6
			C19,108.2,18.8,108.8,18.8,109.6z"/>
		<path id="XMLID_99_" class="st4" d="M23.2,112.2v-5.4h1.5c0.4,0,0.7,0,0.9,0.1c0.3,0.1,0.5,0.2,0.7,0.5c0.2,0.2,0.3,0.5,0.4,0.9
			c0.1,0.4,0.2,0.8,0.2,1.2c0,0.6-0.1,1.1-0.3,1.6c-0.2,0.4-0.4,0.7-0.7,0.9c-0.3,0.2-0.7,0.3-1.1,0.3H23.2z M23.8,111.6h1
			c0.4,0,0.7-0.1,0.9-0.2c0.2-0.1,0.4-0.3,0.5-0.6c0.1-0.4,0.2-0.8,0.2-1.3c0-0.6-0.1-1-0.2-1.3c-0.1-0.3-0.3-0.5-0.6-0.6
			c-0.2-0.1-0.4-0.1-0.8-0.1h-0.9V111.6z"/>
		<path id="XMLID_97_" class="st4" d="M27.7,112.2v-5.4H31v0.6h-2.6v1.7h2.5v0.6h-2.5v1.9h2.7v0.6H27.7z"/>
	</g>
</g>
<linearGradient id="XMLID_2_" gradientUnits="userSpaceOnUse" x1="20.3599" y1="39.243" x2="30.2222" y2="39.243">
	<stop  offset="0" style="stop-color:#4D4D4D"/>
	<stop  offset="1" style="stop-color:#333333"/>
</linearGradient>
<ellipse id="XMLID_12385_" class="st5" cx="25.3" cy="39.2" rx="4.9" ry="2.2"/>
<linearGradient id="XMLID_3_" gradientUnits="userSpaceOnUse" x1="20.3599" y1="47.1062" x2="30.2222" y2="47.1062">
	<stop  offset="0" style="stop-color:#4D4D4D"/>
	<stop  offset="1" style="stop-color:#333333"/>
</linearGradient>
<ellipse id="XMLID_12384_" class="st6" cx="25.3" cy="47.1" rx="4.9" ry="2.2"/>
<linearGradient id="XMLID_4_" gradientUnits="userSpaceOnUse" x1="20.3599" y1="61.9253" x2="30.2222" y2="61.9253">
	<stop  offset="0" style="stop-color:#4D4D4D"/>
	<stop  offset="1" style="stop-color:#333333"/>
</linearGradient>
<ellipse id="XMLID_12383_" class="st7" cx="25.3" cy="61.9" rx="4.9" ry="2.2"/>
<linearGradient id="XMLID_5_" gradientUnits="userSpaceOnUse" x1="20.3599" y1="70.3943" x2="30.2222" y2="70.3943">
	<stop  offset="0" style="stop-color:#4D4D4D"/>
	<stop  offset="1" style="stop-color:#333333"/>
</linearGradient>
<ellipse id="XMLID_12382_" class="st8" cx="25.3" cy="70.4" rx="4.9" ry="2.2"/>
<linearGradient id="XMLID_6_" gradientUnits="userSpaceOnUse" x1="20.3599" y1="78.8626" x2="30.2222" y2="78.8626">
	<stop  offset="0" style="stop-color:#4D4D4D"/>
	<stop  offset="1" style="stop-color:#333333"/>
</linearGradient>
<ellipse id="XMLID_12381_" class="st9" cx="25.3" cy="78.9" rx="4.9" ry="2.2"/>
<linearGradient id="XMLID_7_" gradientUnits="userSpaceOnUse" x1="20.3599" y1="87.3313" x2="30.2222" y2="87.3313">
	<stop  offset="0" style="stop-color:#4D4D4D"/>
	<stop  offset="1" style="stop-color:#333333"/>
</linearGradient>
<ellipse id="XMLID_12380_" class="st10" cx="25.3" cy="87.3" rx="4.9" ry="2.2"/>
<linearGradient id="XMLID_8_" gradientUnits="userSpaceOnUse" x1="20.3599" y1="95.7991" x2="30.2222" y2="95.7991">
	<stop  offset="0" style="stop-color:#4D4D4D"/>
	<stop  offset="1" style="stop-color:#333333"/>
</linearGradient>
<ellipse id="XMLID_12379_" class="st11" cx="25.3" cy="95.8" rx="4.9" ry="2.2"/>
<g id="XMLID_11643_">
	<g id="XMLID_12269_" class="st12">
		<polygon id="XMLID_12271_" class="st4" points="114.5,25.7 112.3,20.2 116.8,20.2 		"/>
		<polygon id="XMLID_12270_" class="st4" points="97.5,20.2 99.8,25.7 95.2,25.7 		"/>
	</g>
	<g id="XMLID_12266_" class="st12">
		<polygon id="XMLID_12268_" class="st4" points="154.6,25.7 152.4,20.2 156.9,20.2 		"/>
		<polygon id="XMLID_12267_" class="st4" points="137.6,20.2 139.9,25.7 135.3,25.7 		"/>
	</g>
	<g id="XMLID_12263_" class="st12">
		<polygon id="XMLID_12265_" class="st4" points="194.7,25.7 192.4,20.2 197,20.2 		"/>
		<polygon id="XMLID_12264_" class="st4" points="177.7,20.2 179.9,25.7 175.4,25.7 		"/>
	</g>
	<g id="XMLID_12260_" class="st12">
		<polygon id="XMLID_12262_" class="st4" points="234.8,25.7 232.5,20.2 237.1,20.2 		"/>
		<polygon id="XMLID_12261_" class="st4" points="217.8,20.2 220,25.7 215.5,25.7 		"/>
	</g>
	<g id="XMLID_12257_" class="st12">
		<polygon id="XMLID_12259_" class="st4" points="274.9,25.7 272.6,20.2 277.2,20.2 		"/>
		<polygon id="XMLID_12258_" class="st4" points="257.8,20.2 260.1,25.7 255.6,25.7 		"/>
	</g>
	<g id="XMLID_12254_" class="st12">
		<polygon id="XMLID_12256_" class="st4" points="315,25.7 312.7,20.2 317.2,20.2 		"/>
		<polygon id="XMLID_12255_" class="st4" points="297.9,20.2 300.2,25.7 295.7,25.7 		"/>
	</g>
	<g id="XMLID_13035_" class="st12">
		<polygon id="XMLID_13037_" class="st4" points="355.1,25.7 352.8,20.2 357.3,20.2 		"/>
		<polygon id="XMLID_13036_" class="st4" points="338,20.2 340.3,25.7 335.7,25.7 		"/>
	</g>
	<g id="XMLID_13038_" class="st12">
		<polygon id="XMLID_13040_" class="st4" points="395.1,25.7 392.9,20.2 397.4,20.2 		"/>
		<polygon id="XMLID_13039_" class="st4" points="378.1,20.2 380.4,25.7 375.8,25.7 		"/>
	</g>
	<path id="XMLID_12876_" class="st13" d="M405.6,35.5c0-1.6-1.3-2.8-2.8-2.8H92.7c-1.6,0-2.8,1.3-2.8,2.8v2.3c0,1.6-1.3,2.8-2.8,2.8
		h-2.3c-1.6,0-2.8,1.3-2.8,2.8v49.1c0,1.6,1.3,2.8,2.8,2.8h2.3c1.6,0,2.8,1.3,2.8,2.8v2.3c0,1.6,1.3,2.8,2.8,2.8h310.1
		c1.6,0,2.8-1.3,2.8-2.8v-2.3c0-1.6,1.3-2.8,2.8-2.8h2.3c1.6,0,2.8-1.3,2.8-2.8V43.5c0-1.6-1.3-2.8-2.8-2.8h-2.3
		c-1.6,0-2.8-1.3-2.8-2.8V35.5z"/>
</g>
<g id="XMLID_11645_">
	<g id="XMLID_13199_" class="st12">
		<polygon id="XMLID_13201_" class="st4" points="459.2,25.7 456.9,20.2 461.5,20.2 		"/>
		<polygon id="XMLID_13200_" class="st4" points="442.1,20.2 444.4,25.7 439.9,25.7 		"/>
	</g>
	<g id="XMLID_13196_" class="st12">
		<polygon id="XMLID_13198_" class="st4" points="499.3,25.7 497,20.2 501.5,20.2 		"/>
		<polygon id="XMLID_13197_" class="st4" points="482.2,20.2 484.5,25.7 480,25.7 		"/>
	</g>
	<g id="XMLID_13193_" class="st12">
		<polygon id="XMLID_13195_" class="st4" points="539.4,25.7 537.1,20.2 541.6,20.2 		"/>
		<polygon id="XMLID_13194_" class="st4" points="522.3,20.2 524.6,25.7 520,25.7 		"/>
	</g>
	<g id="XMLID_13190_" class="st12">
		<polygon id="XMLID_13192_" class="st4" points="579.4,25.7 577.2,20.2 581.7,20.2 		"/>
		<polygon id="XMLID_13191_" class="st4" points="562.4,20.2 564.7,25.7 560.1,25.7 		"/>
	</g>
	<g id="XMLID_13187_" class="st12">
		<polygon id="XMLID_13189_" class="st4" points="619.5,25.7 617.3,20.2 621.8,20.2 		"/>
		<polygon id="XMLID_13188_" class="st4" points="602.5,20.2 604.7,25.7 600.2,25.7 		"/>
	</g>
	<g id="XMLID_13184_" class="st12">
		<polygon id="XMLID_13186_" class="st4" points="659.6,25.7 657.3,20.2 661.9,20.2 		"/>
		<polygon id="XMLID_13185_" class="st4" points="642.6,20.2 644.8,25.7 640.3,25.7 		"/>
	</g>
	<g id="XMLID_13181_" class="st12">
		<polygon id="XMLID_13183_" class="st4" points="699.7,25.7 697.4,20.2 702,20.2 		"/>
		<polygon id="XMLID_13182_" class="st4" points="682.6,20.2 684.9,25.7 680.4,25.7 		"/>
	</g>
	<g id="XMLID_13178_" class="st12">
		<polygon id="XMLID_13180_" class="st4" points="739.8,25.7 737.5,20.2 742,20.2 		"/>
		<polygon id="XMLID_13179_" class="st4" points="722.7,20.2 725,25.7 720.5,25.7 		"/>
	</g>
	<path id="XMLID_13177_" class="st13" d="M750.3,35.5c0-1.6-1.3-2.8-2.8-2.8H437.4c-1.6,0-2.8,1.3-2.8,2.8v2.3
		c0,1.6-1.3,2.8-2.8,2.8h-2.3c-1.6,0-2.8,1.3-2.8,2.8v49.1c0,1.6,1.3,2.8,2.8,2.8h2.3c1.6,0,2.8,1.3,2.8,2.8v2.3
		c0,1.6,1.3,2.8,2.8,2.8h310.1c1.6,0,2.8-1.3,2.8-2.8v-2.3c0-1.6,1.3-2.8,2.8-2.8h2.3c1.6,0,2.8-1.3,2.8-2.8V43.5
		c0-1.6-1.3-2.8-2.8-2.8h-2.3c-1.6,0-2.8-1.3-2.8-2.8V35.5z"/>
</g>
<g id="XMLID_11196_">
	<g id="XMLID_13306_" class="st12">
		<polygon id="XMLID_13308_" class="st4" points="803.8,25.7 801.6,20.2 806.1,20.2 		"/>
		<polygon id="XMLID_13307_" class="st4" points="786.8,20.2 789.1,25.7 784.5,25.7 		"/>
	</g>
	<g id="XMLID_13303_" class="st12">
		<polygon id="XMLID_13305_" class="st4" points="843.9,25.7 841.6,20.2 846.2,20.2 		"/>
		<polygon id="XMLID_13304_" class="st4" points="826.9,20.2 829.1,25.7 824.6,25.7 		"/>
	</g>
	<g id="XMLID_13300_" class="st12">
		<polygon id="XMLID_13302_" class="st4" points="884,25.7 881.7,20.2 886.3,20.2 		"/>
		<polygon id="XMLID_13301_" class="st4" points="867,20.2 869.2,25.7 864.7,25.7 		"/>
	</g>
	<g id="XMLID_13297_" class="st12">
		<polygon id="XMLID_13299_" class="st4" points="924.1,25.7 921.8,20.2 926.3,20.2 		"/>
		<polygon id="XMLID_13298_" class="st4" points="907,20.2 909.3,25.7 904.8,25.7 		"/>
	</g>
	<g id="XMLID_13294_" class="st12">
		<polygon id="XMLID_13296_" class="st4" points="964.2,25.7 961.9,20.2 966.4,20.2 		"/>
		<polygon id="XMLID_13295_" class="st4" points="947.1,20.2 949.4,25.7 944.9,25.7 		"/>
	</g>
	<g id="XMLID_13291_" class="st12">
		<polygon id="XMLID_13293_" class="st4" points="1004.3,25.7 1002,20.2 1006.5,20.2 		"/>
		<polygon id="XMLID_13292_" class="st4" points="987.2,20.2 989.5,25.7 984.9,25.7 		"/>
	</g>
	<g id="XMLID_13288_" class="st12">
		<polygon id="XMLID_13290_" class="st4" points="1044.3,25.7 1042.1,20.2 1046.6,20.2 		"/>
		<polygon id="XMLID_13289_" class="st4" points="1027.3,20.2 1029.6,25.7 1025,25.7 		"/>
	</g>
	<g id="XMLID_13285_" class="st12">
		<polygon id="XMLID_13287_" class="st4" points="1084.4,25.7 1082.2,20.2 1086.7,20.2 		"/>
		<polygon id="XMLID_13286_" class="st4" points="1067.4,20.2 1069.6,25.7 1065.1,25.7 		"/>
	</g>
	<path id="XMLID_13284_" class="st13" d="M1094.9,35.5c0-1.6-1.3-2.8-2.8-2.8H782c-1.6,0-2.8,1.3-2.8,2.8v2.3c0,1.6-1.3,2.8-2.8,2.8
		H774c-1.6,0-2.8,1.3-2.8,2.8v49.1c0,1.6,1.3,2.8,2.8,2.8h2.3c1.6,0,2.8,1.3,2.8,2.8v2.3c0,1.6,1.3,2.8,2.8,2.8h310.1
		c1.6,0,2.8-1.3,2.8-2.8v-2.3c0-1.6,1.3-2.8,2.8-2.8h2.3c1.6,0,2.8-1.3,2.8-2.8V43.5c0-1.6-1.3-2.8-2.8-2.8h-2.3
		c-1.6,0-2.8-1.3-2.8-2.8V35.5z"/>
</g>
<g id="XMLID_9382_">
	<g id="XMLID_12312_">
		<path id="XMLID_12315_" class="st14" d="M80,31.2l0-0.4c0.4,0,0.6-0.1,0.8-0.2s0.2-0.3,0.3-0.6h0.4l0.1,4h-0.5L81,31.2H80z"/>
		<path id="XMLID_12317_" class="st14" d="M83.1,34h-0.7l1.4-2.1l-1.4-2h0.7l1.1,1.6l1-1.6h0.7l-1.3,2l1.5,2.1h-0.7l-1.2-1.7
			L83.1,34z"/>
	</g>
	<g id="XMLID_12314_">
		<path id="XMLID_12363_" class="st14" d="M80.2,103.9c0.1-0.3,0.4-0.5,0.7-0.7l0.5-0.3c0.2-0.1,0.4-0.3,0.5-0.4
			c0.1-0.2,0.2-0.3,0.2-0.5c0-0.2-0.1-0.4-0.2-0.6c-0.1-0.1-0.3-0.2-0.6-0.2c-0.3,0-0.6,0.1-0.7,0.4c-0.1,0.1-0.1,0.3-0.1,0.6H80
			c0-0.4,0-0.6,0.2-0.9c0.2-0.4,0.6-0.6,1.1-0.6c0.5,0,0.8,0.1,1,0.4c0.2,0.2,0.3,0.5,0.3,0.8c0,0.3-0.1,0.6-0.3,0.8
			c-0.1,0.1-0.4,0.3-0.7,0.5l-0.4,0.2c-0.2,0.1-0.3,0.2-0.4,0.3c-0.2,0.2-0.3,0.3-0.3,0.5h2.2l0,0.5H80
			C80,104.5,80.1,104.2,80.2,103.9z"/>
		<path id="XMLID_12366_" class="st14" d="M83.4,104.8h-0.7l1.4-2.1l-1.4-2h0.7l1.1,1.6l1-1.6h0.7l-1.3,2l1.5,2.1h-0.7l-1.2-1.7
			L83.4,104.8z"/>
	</g>
</g>
<g id="XMLID_9383_">
	<g id="XMLID_13387_">
		<path id="XMLID_12576_" class="st14" d="M408.6,31.1l0-0.4c0.4,0,0.6-0.1,0.8-0.2c0.1-0.1,0.2-0.3,0.3-0.6h0.4l0.1,4h-0.5
			l-0.1-2.9H408.6z"/>
		<path id="XMLID_13321_" class="st14" d="M411.6,32.9c0,0.3,0.2,0.5,0.4,0.6c0.1,0.1,0.3,0.1,0.4,0.1c0.3,0,0.5-0.1,0.7-0.3
			c0.1-0.2,0.2-0.4,0.2-0.6c0-0.3-0.1-0.5-0.3-0.7c-0.2-0.2-0.4-0.2-0.6-0.2c-0.2,0-0.3,0-0.4,0.1c-0.1,0.1-0.2,0.2-0.3,0.3l-0.4,0
			l0.2-2.2h2.1l0,0.5h-1.7l-0.1,1.1c0.1-0.1,0.2-0.1,0.3-0.2c0.1-0.1,0.3-0.1,0.5-0.1c0.4,0,0.7,0.1,1,0.4c0.3,0.2,0.4,0.5,0.4,0.9
			c0,0.4-0.1,0.7-0.3,1S413,34,412.4,34c-0.3,0-0.6-0.1-0.9-0.3c-0.3-0.2-0.4-0.5-0.5-0.9H411.6z"/>
		<path id="XMLID_13323_" class="st14" d="M414.5,33.9h-0.7l1.4-2.1l-1.4-2h0.7l1.1,1.6l1-1.6h0.7l-1.3,2l1.5,2.1h-0.7l-1.2-1.7
			L414.5,33.9z"/>
	</g>
	<g id="XMLID_13388_">
		<path id="XMLID_13325_" class="st14" d="M408.6,101.9l0-0.4c0.4,0,0.6-0.1,0.8-0.2c0.1-0.1,0.2-0.3,0.3-0.6h0.4l0.1,4h-0.5
			l-0.1-2.9H408.6z"/>
		<path id="XMLID_13327_" class="st14" d="M413.5,101c0.2,0.2,0.3,0.5,0.3,0.7h-0.5c0-0.2-0.1-0.3-0.2-0.4c-0.1-0.2-0.3-0.3-0.6-0.3
			c-0.3,0-0.5,0.1-0.7,0.4c-0.2,0.3-0.2,0.6-0.2,1.1c0.1-0.2,0.3-0.3,0.4-0.4c0.2-0.1,0.3-0.1,0.5-0.1c0.3,0,0.6,0.1,0.9,0.3
			c0.3,0.2,0.4,0.5,0.4,1c0,0.4-0.1,0.7-0.3,1c-0.2,0.3-0.6,0.4-1,0.4c-0.4,0-0.7-0.1-1-0.4c-0.3-0.3-0.4-0.8-0.5-1.4
			c0-0.5,0-0.9,0.1-1.3c0.2-0.7,0.6-1,1.3-1C412.9,100.7,413.3,100.8,413.5,101z M413.2,104.1c0.1-0.2,0.2-0.4,0.2-0.6
			c0-0.2-0.1-0.4-0.2-0.6c-0.1-0.2-0.3-0.3-0.7-0.3c-0.2,0-0.4,0.1-0.6,0.2c-0.2,0.1-0.2,0.4-0.2,0.7c0,0.3,0.1,0.5,0.2,0.6
			s0.4,0.3,0.6,0.3C412.9,104.4,413.1,104.3,413.2,104.1z"/>
		<path id="XMLID_13330_" class="st14" d="M414.5,104.7h-0.7l1.4-2.1l-1.4-2h0.7l1.1,1.6l1-1.6h0.7l-1.3,2l1.5,2.1h-0.7l-1.2-1.7
			L414.5,104.7z"/>
	</g>
</g>
<g id="XMLID_12104_">
	<g id="XMLID_13389_">
		<path id="XMLID_13332_" class="st14" d="M423.9,31.2l0-0.4c0.4,0,0.6-0.1,0.8-0.2c0.1-0.1,0.2-0.3,0.3-0.6h0.4l0.1,4h-0.5
			l-0.1-2.9H423.9z"/>
		<path id="XMLID_13334_" class="st14" d="M429.1,30.1l0,0.4c-0.1,0.1-0.3,0.3-0.5,0.7c-0.2,0.3-0.4,0.6-0.5,1
			c-0.2,0.4-0.3,0.7-0.3,1c0,0.2-0.1,0.5-0.2,0.9H427c0.1-0.8,0.4-1.5,0.8-2.3c0.2-0.4,0.5-0.8,0.8-1.2h-2.2l0-0.5H429.1z"/>
		<path id="XMLID_13336_" class="st14" d="M429.7,34h-0.7l1.4-2.1l-1.4-2h0.7l1.1,1.6l1-1.6h0.7l-1.3,2l1.5,2.1H432l-1.2-1.7
			L429.7,34z"/>
	</g>
	<g id="XMLID_13390_">
		<path id="XMLID_13338_" class="st14" d="M423.9,101.9l0-0.4c0.4,0,0.6-0.1,0.8-0.2c0.1-0.1,0.2-0.3,0.3-0.6h0.4l0.1,4h-0.5
			l-0.1-2.9H423.9z"/>
		<path id="XMLID_13340_" class="st14" d="M426.6,102.4c-0.2-0.2-0.2-0.3-0.2-0.6c0-0.3,0.1-0.6,0.3-0.8c0.2-0.2,0.5-0.3,0.9-0.3
			c0.4,0,0.7,0.1,0.9,0.3c0.2,0.2,0.3,0.4,0.4,0.7c0,0.3,0,0.5-0.2,0.6c-0.1,0.1-0.2,0.2-0.3,0.3c0.2,0.1,0.3,0.2,0.4,0.3
			c0.2,0.2,0.3,0.4,0.3,0.7c0,0.4-0.1,0.7-0.3,0.9s-0.6,0.4-1,0.4c-0.4,0-0.7-0.1-1-0.3c-0.3-0.2-0.4-0.5-0.4-0.9
			c0-0.2,0-0.4,0.2-0.6s0.3-0.3,0.5-0.4C426.8,102.5,426.7,102.4,426.6,102.4z M428.3,104.2c0.2-0.1,0.2-0.3,0.2-0.6
			c0-0.3-0.1-0.5-0.3-0.6s-0.4-0.2-0.6-0.2c-0.2,0-0.4,0.1-0.6,0.2c-0.1,0.1-0.2,0.3-0.2,0.6c0,0.2,0.1,0.4,0.2,0.5
			c0.1,0.2,0.4,0.2,0.7,0.2C428,104.4,428.2,104.3,428.3,104.2z M428.2,102.2c0.1-0.1,0.2-0.3,0.2-0.4c0-0.2-0.1-0.3-0.2-0.4
			c-0.1-0.1-0.3-0.2-0.6-0.2c-0.2,0-0.4,0.1-0.5,0.2c-0.1,0.1-0.2,0.3-0.1,0.4c0,0.2,0.1,0.3,0.2,0.4c0.1,0.1,0.3,0.2,0.5,0.2
			C427.9,102.4,428.1,102.3,428.2,102.2z"/>
		<path id="XMLID_13344_" class="st14" d="M429.7,104.7h-0.7l1.4-2.1l-1.4-2h0.7l1.1,1.6l1-1.6h0.7l-1.3,2l1.5,2.1H432l-1.2-1.7
			L429.7,104.7z"/>
	</g>
</g>
<g id="XMLID_12105_">
	<g id="XMLID_13391_">
		<path id="XMLID_13346_" class="st14" d="M753.6,33.6c-0.2-0.3-0.3-0.6-0.4-1h0.5c0,0.3,0.1,0.5,0.2,0.6c0.1,0.2,0.4,0.3,0.7,0.3
			c0.3,0,0.5-0.1,0.6-0.2c0.2-0.1,0.2-0.3,0.2-0.6c0-0.3-0.1-0.5-0.3-0.6c-0.2-0.1-0.4-0.2-0.7-0.2c0,0-0.1,0-0.1,0c0,0-0.1,0-0.1,0
			l0-0.4c0.1,0,0.1,0,0.1,0c0,0,0.1,0,0.1,0c0.2,0,0.3,0,0.5-0.1c0.2-0.1,0.3-0.3,0.3-0.6c0-0.2-0.1-0.4-0.2-0.5
			c-0.1-0.1-0.3-0.2-0.5-0.2c-0.3,0-0.6,0.1-0.7,0.3c-0.1,0.1-0.1,0.3-0.1,0.5h-0.5c0-0.3,0-0.6,0.2-0.8c0.2-0.4,0.6-0.6,1.1-0.6
			c0.4,0,0.7,0.1,1,0.3c0.2,0.2,0.4,0.4,0.4,0.8c0,0.2-0.1,0.4-0.2,0.6c-0.1,0.1-0.2,0.2-0.3,0.2c0.2,0.1,0.4,0.2,0.5,0.3
			c0.1,0.2,0.2,0.4,0.2,0.6c0,0.4-0.1,0.7-0.3,0.9c-0.2,0.2-0.6,0.4-1.1,0.4C754.2,34,753.8,33.9,753.6,33.6z"/>
		<path id="XMLID_13348_" class="st14" d="M756.4,31.1l0-0.4c0.4,0,0.6-0.1,0.8-0.2c0.1-0.1,0.2-0.3,0.3-0.6h0.4l0.1,4h-0.5
			l-0.1-2.9H756.4z"/>
		<path id="XMLID_13350_" class="st14" d="M759.5,33.9h-0.7l1.4-2.1l-1.4-2h0.7l1.1,1.6l1-1.6h0.7l-1.3,2l1.5,2.1h-0.7l-1.2-1.7
			L759.5,33.9z"/>
	</g>
	<g id="XMLID_13392_">
		<path id="XMLID_13352_" class="st14" d="M753.6,104.4c-0.2-0.3-0.3-0.6-0.4-1h0.5c0,0.3,0.1,0.5,0.2,0.6c0.1,0.2,0.4,0.3,0.7,0.3
			c0.3,0,0.5-0.1,0.6-0.2c0.2-0.1,0.2-0.3,0.2-0.6c0-0.3-0.1-0.5-0.3-0.6c-0.2-0.1-0.4-0.2-0.7-0.2c0,0-0.1,0-0.1,0c0,0-0.1,0-0.1,0
			l0-0.4c0.1,0,0.1,0,0.1,0c0,0,0.1,0,0.1,0c0.2,0,0.3,0,0.5-0.1c0.2-0.1,0.3-0.3,0.3-0.6c0-0.2-0.1-0.4-0.2-0.5s-0.3-0.2-0.5-0.2
			c-0.3,0-0.6,0.1-0.7,0.3c-0.1,0.1-0.1,0.3-0.1,0.5h-0.5c0-0.3,0-0.6,0.2-0.8c0.2-0.4,0.6-0.6,1.1-0.6c0.4,0,0.7,0.1,1,0.3
			c0.2,0.2,0.4,0.4,0.4,0.8c0,0.2-0.1,0.4-0.2,0.6c-0.1,0.1-0.2,0.2-0.3,0.2c0.2,0.1,0.4,0.2,0.5,0.3s0.2,0.4,0.2,0.6
			c0,0.4-0.1,0.7-0.3,0.9c-0.2,0.2-0.6,0.4-1.1,0.4C754.2,104.8,753.8,104.7,753.6,104.4z"/>
		<path id="XMLID_13354_" class="st14" d="M756.3,103.8c0.1-0.3,0.4-0.5,0.7-0.7l0.5-0.3c0.2-0.1,0.4-0.3,0.5-0.4
			c0.1-0.2,0.2-0.3,0.2-0.5c0-0.2-0.1-0.4-0.2-0.6c-0.1-0.1-0.3-0.2-0.6-0.2c-0.3,0-0.6,0.1-0.7,0.4c-0.1,0.1-0.1,0.3-0.1,0.6h-0.5
			c0-0.4,0-0.6,0.2-0.9c0.2-0.4,0.6-0.6,1.1-0.6c0.5,0,0.8,0.1,1,0.4s0.3,0.5,0.3,0.8c0,0.3-0.1,0.6-0.3,0.8
			c-0.1,0.1-0.4,0.3-0.7,0.5l-0.4,0.2c-0.2,0.1-0.3,0.2-0.4,0.3c-0.2,0.2-0.3,0.3-0.3,0.5h2.2l0,0.5h-2.8
			C756.1,104.4,756.2,104.1,756.3,103.8z"/>
		<path id="XMLID_13356_" class="st14" d="M759.5,104.7h-0.7l1.4-2.1l-1.4-2h0.7l1.1,1.6l1-1.6h0.7l-1.3,2l1.5,2.1h-0.7l-1.2-1.7
			L759.5,104.7z"/>
	</g>
</g>
<g id="XMLID_12106_">
	<g id="XMLID_13393_">
		<path id="XMLID_13358_" class="st14" d="M769.1,33.6c-0.2-0.3-0.3-0.6-0.4-1h0.5c0,0.3,0.1,0.5,0.2,0.6c0.1,0.2,0.4,0.3,0.7,0.3
			c0.3,0,0.5-0.1,0.6-0.2c0.2-0.1,0.2-0.3,0.2-0.6c0-0.3-0.1-0.5-0.3-0.6c-0.2-0.1-0.4-0.2-0.7-0.2c0,0-0.1,0-0.1,0c0,0-0.1,0-0.1,0
			l0-0.4c0.1,0,0.1,0,0.1,0c0,0,0.1,0,0.1,0c0.2,0,0.3,0,0.5-0.1c0.2-0.1,0.3-0.3,0.3-0.6c0-0.2-0.1-0.4-0.2-0.5
			c-0.1-0.1-0.3-0.2-0.5-0.2c-0.3,0-0.6,0.1-0.7,0.3c-0.1,0.1-0.1,0.3-0.1,0.5h-0.5c0-0.3,0-0.6,0.2-0.8c0.2-0.4,0.6-0.6,1.1-0.6
			c0.4,0,0.7,0.1,1,0.3c0.2,0.2,0.4,0.4,0.4,0.8c0,0.2-0.1,0.4-0.2,0.6c-0.1,0.1-0.2,0.2-0.3,0.2c0.2,0.1,0.4,0.2,0.5,0.3
			c0.1,0.2,0.2,0.4,0.2,0.6c0,0.4-0.1,0.7-0.3,0.9c-0.2,0.2-0.6,0.4-1.1,0.4C769.6,34,769.3,33.9,769.1,33.6z"/>
		<path id="XMLID_13360_" class="st14" d="M771.8,33.6c-0.2-0.3-0.3-0.6-0.4-1h0.5c0,0.3,0.1,0.5,0.2,0.6c0.1,0.2,0.4,0.3,0.7,0.3
			c0.3,0,0.5-0.1,0.6-0.2c0.2-0.1,0.2-0.3,0.2-0.6c0-0.3-0.1-0.5-0.3-0.6c-0.2-0.1-0.4-0.2-0.7-0.2c0,0-0.1,0-0.1,0c0,0-0.1,0-0.1,0
			l0-0.4c0.1,0,0.1,0,0.1,0c0,0,0.1,0,0.1,0c0.2,0,0.3,0,0.5-0.1c0.2-0.1,0.3-0.3,0.3-0.6c0-0.2-0.1-0.4-0.2-0.5
			c-0.1-0.1-0.3-0.2-0.5-0.2c-0.3,0-0.6,0.1-0.7,0.3c-0.1,0.1-0.1,0.3-0.1,0.5h-0.5c0-0.3,0-0.6,0.2-0.8c0.2-0.4,0.6-0.6,1.1-0.6
			c0.4,0,0.7,0.1,1,0.3c0.2,0.2,0.4,0.4,0.4,0.8c0,0.2-0.1,0.4-0.2,0.6c-0.1,0.1-0.2,0.2-0.3,0.2c0.2,0.1,0.4,0.2,0.5,0.3
			c0.1,0.2,0.2,0.4,0.2,0.6c0,0.4-0.1,0.7-0.3,0.9s-0.6,0.4-1.1,0.4C772.4,34,772.1,33.9,771.8,33.6z"/>
		<path id="XMLID_13362_" class="st14" d="M774.9,33.9h-0.7l1.4-2.1l-1.4-2h0.7l1.1,1.6l1-1.6h0.7l-1.3,2l1.5,2.1h-0.7l-1.2-1.7
			L774.9,33.9z"/>
	</g>
	<g id="XMLID_13394_">
		<path id="XMLID_13364_" class="st14" d="M769.1,104.4c-0.2-0.3-0.3-0.6-0.4-1h0.5c0,0.3,0.1,0.5,0.2,0.6c0.1,0.2,0.4,0.3,0.7,0.3
			c0.3,0,0.5-0.1,0.6-0.2c0.2-0.1,0.2-0.3,0.2-0.6c0-0.3-0.1-0.5-0.3-0.6c-0.2-0.1-0.4-0.2-0.7-0.2c0,0-0.1,0-0.1,0c0,0-0.1,0-0.1,0
			l0-0.4c0.1,0,0.1,0,0.1,0c0,0,0.1,0,0.1,0c0.2,0,0.3,0,0.5-0.1c0.2-0.1,0.3-0.3,0.3-0.6c0-0.2-0.1-0.4-0.2-0.5s-0.3-0.2-0.5-0.2
			c-0.3,0-0.6,0.1-0.7,0.3c-0.1,0.1-0.1,0.3-0.1,0.5h-0.5c0-0.3,0-0.6,0.2-0.8c0.2-0.4,0.6-0.6,1.1-0.6c0.4,0,0.7,0.1,1,0.3
			c0.2,0.2,0.4,0.4,0.4,0.8c0,0.2-0.1,0.4-0.2,0.6c-0.1,0.1-0.2,0.2-0.3,0.2c0.2,0.1,0.4,0.2,0.5,0.3s0.2,0.4,0.2,0.6
			c0,0.4-0.1,0.7-0.3,0.9c-0.2,0.2-0.6,0.4-1.1,0.4C769.6,104.8,769.3,104.7,769.1,104.4z"/>
		<path id="XMLID_13366_" class="st14" d="M773.3,104.7l0-1h-1.8l0-0.5l1.8-2.6h0.4l0.1,2.6h0.6l0,0.4h-0.6l0,1H773.3z M773.2,103.3
			l-0.1-1.8l-1.2,1.8H773.2z"/>
		<path id="XMLID_13369_" class="st14" d="M774.9,104.7h-0.7l1.4-2.1l-1.4-2h0.7l1.1,1.6l1-1.6h0.7l-1.3,2l1.5,2.1h-0.7L776,103
			L774.9,104.7z"/>
	</g>
</g>
<g id="XMLID_12107_">
	<g id="XMLID_13395_">
		<path id="XMLID_13371_" class="st14" d="M1100.2,34l0-1h-1.8l0-0.5l1.8-2.6h0.4l0.1,2.6h0.6l0,0.4h-0.6l0,1H1100.2z M1100.1,32.6
			l-0.1-1.8l-1.2,1.8H1100.1z"/>
		<path id="XMLID_13374_" class="st14" d="M1103.9,30.1l0,0.4c-0.1,0.1-0.3,0.3-0.5,0.7c-0.2,0.3-0.4,0.6-0.5,1
			c-0.2,0.4-0.3,0.7-0.3,1c0,0.2-0.1,0.5-0.2,0.9h-0.6c0.1-0.8,0.4-1.5,0.8-2.3c0.2-0.4,0.5-0.8,0.8-1.2h-2.2l0-0.5H1103.9z"/>
		<path id="XMLID_13376_" class="st14" d="M1104.6,34h-0.7l1.4-2.1l-1.4-2h0.7l1.1,1.6l1-1.6h0.7l-1.3,2l1.5,2.1h-0.7l-1.2-1.7
			L1104.6,34z"/>
	</g>
	<g id="XMLID_13396_">
		<path id="XMLID_13378_" class="st14" d="M1100.2,104.7l0-1h-1.8l0-0.5l1.8-2.6h0.4l0.1,2.6h0.6l0,0.4h-0.6l0,1H1100.2z
			 M1100.1,103.3l-0.1-1.8l-1.2,1.8H1100.1z"/>
		<path id="XMLID_13381_" class="st14" d="M1101.5,102.4c-0.2-0.2-0.2-0.3-0.2-0.6c0-0.3,0.1-0.6,0.3-0.8c0.2-0.2,0.5-0.3,0.9-0.3
			c0.4,0,0.7,0.1,0.9,0.3c0.2,0.2,0.3,0.4,0.4,0.7c0,0.3,0,0.5-0.2,0.6c-0.1,0.1-0.2,0.2-0.3,0.3c0.2,0.1,0.3,0.2,0.4,0.3
			c0.2,0.2,0.3,0.4,0.3,0.7c0,0.4-0.1,0.7-0.3,0.9c-0.2,0.2-0.6,0.4-1,0.4c-0.4,0-0.7-0.1-1-0.3s-0.4-0.5-0.4-0.9
			c0-0.2,0-0.4,0.2-0.6c0.1-0.2,0.3-0.3,0.5-0.4C1101.7,102.5,1101.6,102.4,1101.5,102.4z M1103.2,104.2c0.2-0.1,0.2-0.3,0.2-0.6
			c0-0.3-0.1-0.5-0.3-0.6s-0.4-0.2-0.6-0.2c-0.2,0-0.4,0.1-0.6,0.2s-0.2,0.3-0.2,0.6c0,0.2,0.1,0.4,0.2,0.5c0.1,0.2,0.4,0.2,0.7,0.2
			C1102.9,104.4,1103,104.3,1103.2,104.2z M1103,102.2c0.1-0.1,0.2-0.3,0.2-0.4c0-0.2-0.1-0.3-0.2-0.4c-0.1-0.1-0.3-0.2-0.6-0.2
			c-0.2,0-0.4,0.1-0.5,0.2c-0.1,0.1-0.2,0.3-0.1,0.4c0,0.2,0.1,0.3,0.2,0.4c0.1,0.1,0.3,0.2,0.5,0.2
			C1102.7,102.4,1102.9,102.3,1103,102.2z"/>
		<path id="XMLID_13385_" class="st14" d="M1104.6,104.7h-0.7l1.4-2.1l-1.4-2h0.7l1.1,1.6l1-1.6h0.7l-1.3,2l1.5,2.1h-0.7l-1.2-1.7
			L1104.6,104.7z"/>
	</g>
</g>
</svg>
