<?xml version="1.0" encoding="utf-8"?>
<!-- Generator: Adobe Illustrator 16.0.0, SVG Export Plug-In . SVG Version: 6.00 Build 0)  -->
<!DOCTYPE svg PUBLIC "-//W3C//DTD SVG 1.1//EN" "http://www.w3.org/Graphics/SVG/1.1/DTD/svg11.dtd">
<svg version="1.1" id="图层_1" xmlns="http://www.w3.org/2000/svg" xmlns:xlink="http://www.w3.org/1999/xlink" x="0px" y="0px"
	 width="1275.59px" height="126.14px" viewBox="0 0 1275.59 126.14" enable-background="new 0 0 1275.59 126.14"
	 xml:space="preserve">
<g>
	<rect fill="#7C7C7D" width="1275.59" height="126.141"/>
</g>
<g>
	<path fill="#3E545E" stroke="#0B0A0A" stroke-miterlimit="10" d="M83.5,48.827c0,1.657-1.343,3-3,3H19.144c-1.656,0-3-1.343-3-3
		v-33.25c0-1.657,1.344-3,3-3H80.5c1.657,0,3,1.343,3,3V48.827z"/>
	<rect x="21.321" y="25.077" fill="#D3D3D3" width="56.267" height="21.44"/>
	<polygon fill="#3E545E" points="19.735,24.473 79.174,24.473 79.174,47.122 77.983,47.122 77.983,45.708 76.985,45.708 
		76.985,47.122 75.743,47.122 75.743,45.425 74.758,45.425 74.758,47.122 73.514,47.122 73.514,44.666 72.53,44.666 72.53,47.122 
		71.288,47.122 71.288,43.021 70.303,43.021 70.303,47.122 69.059,47.122 69.059,40.667 68.073,40.667 68.073,47.122 66.831,47.122 
		66.831,36.684 65.833,36.684 65.833,47.122 64.602,47.122 64.602,32.043 63.606,32.043 63.606,47.122 62.362,47.122 62.362,36.684 
		61.377,36.684 61.377,47.122 60.134,47.122 60.134,40.667 59.151,40.667 59.151,47.122 57.907,47.122 57.907,43.021 56.921,43.021 
		56.921,47.122 55.678,47.122 55.678,44.666 54.694,44.666 54.694,47.122 53.45,47.122 53.45,45.425 52.454,45.425 52.454,47.122 
		51.209,47.122 51.209,45.708 50.225,45.708 50.225,47.122 48.994,47.122 48.994,45.708 48.01,45.708 48.01,47.122 46.766,47.122 
		46.766,45.425 45.782,45.425 45.782,47.122 44.54,47.122 44.54,44.666 43.554,44.666 43.554,47.122 42.311,47.122 42.311,43.021 
		41.327,43.021 41.327,47.122 40.083,47.122 40.083,40.667 39.085,40.667 39.085,47.122 37.842,47.122 37.842,36.684 36.858,36.684 
		36.858,47.122 35.614,47.122 35.614,32.043 34.629,32.043 34.629,47.122 33.386,47.122 33.386,36.684 32.403,36.684 32.403,47.122 
		31.159,47.122 31.159,40.667 30.174,40.667 30.174,47.122 28.931,47.122 28.931,43.021 27.946,43.021 27.946,47.122 26.704,47.122 
		26.704,44.666 25.706,44.666 25.706,47.122 24.462,47.122 24.462,45.425 23.479,45.425 23.479,47.122 22.235,47.122 22.235,45.708 
		21.25,45.708 21.25,47.122 19.735,47.122 	"/>
	<path fill="#955A89" d="M23.206,17.866h-1.515v-1.543c0-0.45-0.013-0.733-0.039-0.848c-0.039-0.116-0.104-0.167-0.208-0.167
		c-0.117,0-0.193,0.063-0.232,0.206c-0.027,0.128-0.039,0.423-0.039,0.873v4.139c0,0.437,0.012,0.72,0.039,0.849
		c0.039,0.128,0.104,0.192,0.221,0.192c0.115,0,0.181-0.064,0.207-0.192c0.039-0.129,0.052-0.451,0.052-0.939v-1.118h1.515v0.347
		c0,0.925-0.052,1.581-0.129,1.966c-0.091,0.386-0.271,0.721-0.557,1.016c-0.299,0.283-0.648,0.438-1.076,0.438
		c-0.44,0-0.803-0.129-1.087-0.373c-0.272-0.245-0.468-0.58-0.558-1.017c-0.09-0.436-0.143-1.091-0.143-1.965v-2.597
		c0-0.643,0.013-1.131,0.039-1.453c0.025-0.321,0.117-0.629,0.259-0.926c0.144-0.294,0.337-0.527,0.583-0.706
		c0.26-0.167,0.544-0.245,0.868-0.245c0.44,0,0.804,0.129,1.087,0.386c0.298,0.271,0.48,0.591,0.571,0.99
		c0.09,0.399,0.142,1.002,0.142,1.838V17.866z"/>
	<rect x="25.149" y="16.438" fill="#955A89" width="1.386" height="6.646"/>
	<path fill="#955A89" d="M31.133,18.303H29.85v-0.489c0-0.231-0.025-0.373-0.051-0.437c-0.026-0.064-0.092-0.09-0.156-0.09
		c-0.077,0-0.143,0.038-0.182,0.129c-0.037,0.076-0.063,0.206-0.063,0.373c0,0.23,0.026,0.398,0.077,0.5
		c0.039,0.117,0.181,0.258,0.388,0.412c0.61,0.463,0.985,0.835,1.141,1.132c0.155,0.282,0.247,0.757,0.247,1.413
		c0,0.476-0.053,0.822-0.144,1.041c-0.078,0.232-0.259,0.411-0.505,0.566c-0.26,0.154-0.545,0.232-0.881,0.232
		c-0.375,0-0.687-0.09-0.945-0.271c-0.26-0.167-0.428-0.398-0.518-0.668c-0.078-0.269-0.117-0.656-0.117-1.144v-0.437h1.283v0.81
		c0,0.244,0.024,0.398,0.051,0.476c0.039,0.063,0.104,0.102,0.195,0.102c0.09,0,0.155-0.039,0.193-0.128
		c0.054-0.091,0.065-0.232,0.065-0.411c0-0.387-0.039-0.644-0.116-0.759c-0.091-0.129-0.312-0.322-0.648-0.604
		c-0.349-0.282-0.569-0.502-0.673-0.63c-0.117-0.128-0.207-0.296-0.285-0.527c-0.064-0.232-0.104-0.515-0.104-0.875
		c0-0.501,0.052-0.873,0.156-1.118c0.104-0.23,0.271-0.411,0.504-0.552c0.221-0.129,0.506-0.193,0.83-0.193
		c0.362,0,0.66,0.077,0.92,0.218c0.246,0.142,0.412,0.322,0.492,0.553c0.09,0.219,0.129,0.591,0.129,1.118V18.303z"/>
	<path fill="#955A89" d="M36.068,19.189h-1.256v-1.157c0-0.334-0.013-0.54-0.039-0.63c-0.026-0.077-0.078-0.116-0.169-0.116
		c-0.104,0-0.155,0.052-0.194,0.142c-0.026,0.103-0.038,0.322-0.038,0.668v3.072c0,0.334,0.012,0.541,0.038,0.643
		c0.039,0.09,0.091,0.142,0.194,0.142c0.078,0,0.143-0.052,0.169-0.142c0.026-0.102,0.039-0.334,0.039-0.707v-0.835h1.256v0.27
		c0,0.681-0.039,1.17-0.103,1.465c-0.078,0.283-0.234,0.54-0.467,0.759c-0.246,0.206-0.531,0.321-0.882,0.321
		c-0.375,0-0.673-0.09-0.905-0.283c-0.246-0.18-0.402-0.436-0.479-0.758c-0.065-0.322-0.104-0.81-0.104-1.466v-1.94
		c0-0.476,0-0.836,0.026-1.08c0.026-0.232,0.089-0.462,0.22-0.682c0.116-0.231,0.272-0.398,0.479-0.526
		c0.208-0.129,0.454-0.193,0.724-0.193c0.364,0,0.662,0.103,0.908,0.295c0.234,0.193,0.389,0.437,0.466,0.733
		c0.078,0.295,0.117,0.758,0.117,1.375V19.189z"/>
	<path fill="#955A89" d="M39.604,21.053c0,0.399-0.014,0.643-0.039,0.746s-0.077,0.154-0.168,0.154
		c-0.092,0-0.143-0.039-0.168-0.128c-0.027-0.091-0.039-0.335-0.039-0.72v-3.098c0-0.346,0.025-0.553,0.052-0.617
		c0.038-0.077,0.091-0.103,0.167-0.103c0.079,0,0.131,0.039,0.156,0.129c0.025,0.076,0.039,0.283,0.039,0.591V21.053z
		 M41.002,19.048c0-0.681-0.013-1.157-0.039-1.44c-0.025-0.27-0.115-0.527-0.246-0.758c-0.143-0.231-0.323-0.398-0.557-0.514
		c-0.219-0.128-0.478-0.18-0.763-0.18c-0.298,0-0.557,0.064-0.79,0.18c-0.222,0.128-0.401,0.309-0.531,0.539
		c-0.129,0.22-0.208,0.477-0.233,0.76c-0.026,0.269-0.039,0.745-0.039,1.413v1.144c0,0.682,0.013,1.158,0.039,1.427
		c0.025,0.283,0.104,0.527,0.246,0.772c0.143,0.231,0.324,0.397,0.543,0.514c0.234,0.115,0.48,0.18,0.766,0.18
		c0.297,0,0.57-0.065,0.79-0.193c0.22-0.116,0.401-0.296,0.53-0.527c0.143-0.233,0.221-0.476,0.246-0.76
		c0.026-0.281,0.039-0.745,0.039-1.413V19.048z"/>
	<path fill="#955A89" d="M49.966,16.683h-1.386v-0.656c0-0.308-0.026-0.513-0.051-0.591c-0.041-0.09-0.092-0.129-0.17-0.129
		c-0.091,0-0.154,0.052-0.195,0.168c-0.051,0.115-0.076,0.282-0.076,0.513c0,0.308,0.025,0.527,0.076,0.682
		c0.065,0.141,0.195,0.321,0.429,0.54c0.661,0.617,1.062,1.118,1.231,1.504c0.179,0.398,0.258,1.028,0.258,1.902
		c0,0.63-0.039,1.105-0.143,1.401c-0.091,0.309-0.285,0.553-0.544,0.758c-0.272,0.207-0.596,0.309-0.958,0.309
		c-0.402,0-0.738-0.115-1.023-0.36c-0.285-0.231-0.467-0.527-0.558-0.886c-0.09-0.373-0.129-0.888-0.129-1.556v-0.579h1.399v1.081
		c0,0.333,0.013,0.552,0.052,0.642c0.038,0.103,0.116,0.141,0.207,0.141c0.103,0,0.168-0.051,0.22-0.18
		c0.039-0.115,0.064-0.295,0.064-0.539c0-0.527-0.038-0.862-0.128-1.029c-0.104-0.154-0.336-0.425-0.713-0.81
		c-0.361-0.372-0.607-0.655-0.726-0.823c-0.129-0.18-0.219-0.41-0.297-0.719c-0.091-0.308-0.13-0.695-0.13-1.171
		c0-0.68,0.064-1.181,0.169-1.49c0.116-0.321,0.297-0.566,0.556-0.745c0.247-0.181,0.545-0.258,0.907-0.258
		c0.39,0,0.713,0.091,0.998,0.284c0.259,0.192,0.44,0.437,0.519,0.731c0.09,0.297,0.142,0.798,0.142,1.505V16.683z"/>
	<path fill="#955A89" d="M54.836,16.438l-1.049,4.242v2.404h-1.335V20.68l-1.009-4.242h1.308c0.221,1.299,0.338,2.173,0.363,2.622
		c0.091-0.706,0.22-1.581,0.4-2.622H54.836z"/>
	<path fill="#955A89" d="M58.942,18.303H57.75v-0.489c0-0.231-0.013-0.373-0.039-0.437c-0.039-0.064-0.076-0.09-0.154-0.09
		c-0.065,0-0.129,0.038-0.156,0.129c-0.038,0.076-0.064,0.206-0.064,0.373c0,0.23,0.026,0.398,0.064,0.5
		c0.051,0.117,0.169,0.258,0.363,0.412c0.557,0.463,0.92,0.835,1.062,1.132c0.144,0.282,0.219,0.757,0.219,1.413
		c0,0.476-0.039,0.822-0.115,1.041c-0.092,0.232-0.246,0.411-0.479,0.566c-0.233,0.154-0.506,0.232-0.815,0.232
		c-0.351,0-0.636-0.09-0.882-0.271c-0.233-0.167-0.388-0.398-0.465-0.668c-0.078-0.269-0.118-0.656-0.118-1.144v-0.437h1.193v0.81
		c0,0.244,0.013,0.398,0.051,0.476c0.026,0.063,0.09,0.102,0.169,0.102c0.09,0,0.155-0.039,0.193-0.128
		c0.039-0.091,0.053-0.232,0.053-0.411c0-0.387-0.039-0.644-0.117-0.759c-0.076-0.129-0.271-0.322-0.595-0.604
		c-0.312-0.282-0.519-0.502-0.623-0.63c-0.103-0.128-0.195-0.296-0.259-0.527c-0.065-0.232-0.104-0.515-0.104-0.875
		c0-0.501,0.053-0.873,0.156-1.118c0.09-0.23,0.246-0.411,0.453-0.552c0.22-0.129,0.479-0.193,0.777-0.193
		c0.336,0,0.608,0.077,0.842,0.218c0.234,0.142,0.388,0.322,0.466,0.553c0.078,0.219,0.116,0.591,0.116,1.118V18.303z"/>
	<polygon fill="#955A89" points="63.579,16.438 63.579,17.776 62.829,17.776 62.829,23.084 61.546,23.084 61.546,17.776 
		60.794,17.776 60.794,16.438 	"/>
	<polygon fill="#955A89" points="65.717,16.438 68.036,16.438 68.036,17.776 67.116,17.776 67.116,19.022 67.984,19.022 
		67.984,20.296 67.116,20.296 67.116,21.748 68.125,21.748 68.125,23.084 65.717,23.084 	"/>
	<path fill="#955A89" d="M74.331,16.438v6.646h-1.113l-0.014-4.486l-0.439,4.486h-0.791l-0.467-4.383v4.383h-1.127v-6.646h1.658
		c0.053,0.399,0.104,0.875,0.156,1.414l0.182,1.684l0.285-3.098H74.331z"/>
	<path fill="#955A89" d="M78.981,18.303H77.79v-0.489c0-0.231-0.014-0.373-0.039-0.437s-0.078-0.09-0.145-0.09
		c-0.076,0-0.127,0.038-0.166,0.129c-0.039,0.076-0.053,0.206-0.053,0.373c0,0.23,0.014,0.398,0.064,0.5
		c0.039,0.117,0.17,0.258,0.363,0.412c0.557,0.463,0.906,0.835,1.049,1.132c0.156,0.282,0.221,0.757,0.221,1.413
		c0,0.476-0.04,0.822-0.117,1.041c-0.078,0.232-0.246,0.411-0.479,0.566c-0.232,0.154-0.506,0.232-0.816,0.232
		c-0.336,0-0.635-0.09-0.867-0.271c-0.246-0.167-0.402-0.398-0.479-0.668c-0.078-0.269-0.105-0.656-0.105-1.144v-0.437h1.18v0.81
		c0,0.244,0.025,0.398,0.051,0.476c0.039,0.063,0.092,0.102,0.182,0.102c0.078,0,0.143-0.039,0.182-0.128
		c0.039-0.091,0.064-0.232,0.064-0.411c0-0.387-0.039-0.644-0.117-0.759c-0.09-0.129-0.283-0.322-0.596-0.604
		c-0.322-0.282-0.531-0.502-0.633-0.63c-0.105-0.128-0.184-0.296-0.246-0.527c-0.078-0.232-0.105-0.515-0.105-0.875
		c0-0.501,0.053-0.873,0.145-1.118c0.09-0.23,0.244-0.411,0.465-0.552c0.207-0.129,0.467-0.193,0.764-0.193
		c0.338,0,0.623,0.077,0.855,0.218c0.233,0.142,0.389,0.322,0.467,0.553c0.064,0.219,0.104,0.591,0.104,1.118V18.303z"/>
</g>
<text transform="matrix(1.1262 0 0 1 92.0488 47.7007)" fill="#FFFFFF" stroke="#FFFFFF" stroke-miterlimit="10" font-family="'NSimSun'" font-size="28.9517">Cisco AS5300</text>
<text transform="matrix(1.1262 0 0 1 280.8506 47.7007)" fill="#FFFFFF" font-family="'NSimSun'" font-size="8.233">SERIES</text>
<path fill="#1D1E1E" d="M356.275,108.314l-16.547-29.166l16.546-29.167c1.092-1.923,0.417-4.365-1.505-5.454l-0.514-0.294
	c-1.923-1.09-4.365-0.416-5.456,1.506l-17.66,31.127c-0.372,0.545-0.604,1.168-0.676,1.816c-0.001,0.01-0.003,0.02-0.003,0.029
	c-0.01,0.094-0.016,0.186-0.02,0.277c-0.003,0.055-0.005,0.107-0.005,0.16c0,0.049,0.002,0.098,0.004,0.145
	c0.004,0.098,0.01,0.195,0.021,0.293c0,0.004,0.002,0.01,0.002,0.014c0.071,0.652,0.304,1.281,0.679,1.828l17.658,31.127
	c1.091,1.922,3.532,2.596,5.456,1.504l0.514-0.291C356.692,112.68,357.366,110.236,356.275,108.314z"/>
<path fill="#1D1E1E" d="M340.996,108.314l-16.547-29.166l7.365-13.186c1.092-1.922,0.417-4.364-1.505-5.453l-0.514-0.294
	c-1.923-1.09-4.365-0.416-5.456,1.506l-8.479,15.145c-0.372,0.545-0.604,1.168-0.676,1.816c-0.001,0.01-0.003,0.02-0.003,0.029
	c-0.01,0.094-0.016,0.186-0.02,0.277c-0.003,0.055-0.005,0.107-0.005,0.16c0,0.049,0.002,0.098,0.003,0.145
	c0.005,0.098,0.011,0.195,0.021,0.293c0,0.004,0.002,0.01,0.002,0.014c0.071,0.652,0.304,1.281,0.679,1.828l17.658,31.127
	c1.091,1.922,3.532,2.596,5.456,1.504l0.514-0.291C341.413,112.68,342.087,110.236,340.996,108.314z"/>
<path fill="#1D1E1E" d="M325.829,108.314l-16.547-29.166l7.365-13.186c1.092-1.922,0.417-4.364-1.505-5.453l-0.514-0.294
	c-1.923-1.09-4.365-0.416-5.456,1.506l-8.479,15.145c-0.372,0.545-0.604,1.168-0.676,1.816c-0.001,0.01-0.003,0.02-0.003,0.029
	c-0.01,0.094-0.016,0.186-0.02,0.277c-0.003,0.055-0.005,0.107-0.005,0.16c0,0.049,0.002,0.098,0.003,0.145
	c0.005,0.098,0.011,0.195,0.021,0.293c0,0.004,0.002,0.01,0.002,0.014c0.071,0.652,0.304,1.281,0.679,1.828l17.658,31.127
	c1.091,1.922,3.532,2.596,5.456,1.504l0.514-0.291C326.246,112.68,326.92,110.236,325.829,108.314z"/>
<path fill="#1D1E1E" d="M310.662,108.314l-16.547-29.166l7.365-13.186c1.092-1.922,0.417-4.364-1.505-5.453l-0.514-0.294
	c-1.923-1.09-4.365-0.416-5.456,1.506l-8.479,15.145c-0.372,0.545-0.604,1.168-0.676,1.816c-0.001,0.01-0.003,0.02-0.003,0.029
	c-0.01,0.094-0.016,0.186-0.02,0.277c-0.002,0.055-0.004,0.107-0.004,0.16c0,0.049,0.002,0.098,0.004,0.145
	c0.004,0.098,0.01,0.195,0.021,0.293c0,0.004,0.002,0.01,0.002,0.014c0.071,0.652,0.304,1.281,0.679,1.828l17.658,31.127
	c1.091,1.922,3.532,2.596,5.456,1.504l0.514-0.291C311.079,112.68,311.753,110.236,310.662,108.314z"/>
<path fill="#1D1E1E" d="M295.495,108.314l-16.547-29.166l7.365-13.186c1.092-1.922,0.417-4.364-1.505-5.453l-0.514-0.294
	c-1.923-1.09-4.365-0.416-5.456,1.506l-8.479,15.145c-0.372,0.545-0.604,1.168-0.676,1.816c-0.001,0.01-0.003,0.02-0.003,0.029
	c-0.01,0.094-0.016,0.186-0.02,0.277c-0.002,0.055-0.004,0.107-0.004,0.16c0,0.049,0.002,0.098,0.004,0.145
	c0.004,0.098,0.01,0.195,0.021,0.293c0,0.004,0.002,0.01,0.002,0.014c0.071,0.652,0.304,1.281,0.679,1.828l17.658,31.127
	c1.091,1.922,3.532,2.596,5.456,1.504l0.514-0.291C295.912,112.68,296.586,110.236,295.495,108.314z"/>
<path fill="#1D1E1E" d="M280.328,108.314l-16.547-29.166l7.365-13.186c1.092-1.922,0.417-4.364-1.505-5.453l-0.514-0.294
	c-1.923-1.09-4.365-0.416-5.456,1.506l-8.479,15.145c-0.372,0.545-0.604,1.168-0.676,1.816c-0.001,0.01-0.003,0.02-0.003,0.029
	c-0.01,0.094-0.016,0.186-0.02,0.277c-0.002,0.055-0.004,0.107-0.004,0.16c0,0.049,0.002,0.098,0.004,0.145
	c0.004,0.098,0.01,0.195,0.021,0.293c0,0.004,0.002,0.01,0.002,0.014c0.071,0.652,0.304,1.281,0.679,1.828l17.658,31.127
	c1.091,1.922,3.532,2.596,5.456,1.504l0.514-0.291C280.745,112.68,281.419,110.236,280.328,108.314z"/>
<path fill="#1D1E1E" d="M265.161,108.314l-16.547-29.166l7.365-13.186c1.092-1.922,0.417-4.364-1.506-5.453l-0.514-0.294
	c-1.923-1.09-4.365-0.416-5.456,1.506l-8.479,15.145c-0.372,0.545-0.604,1.168-0.676,1.816c-0.001,0.01-0.003,0.02-0.003,0.029
	c-0.01,0.094-0.016,0.186-0.02,0.277c-0.003,0.055-0.005,0.107-0.005,0.16c0,0.049,0.002,0.098,0.004,0.145
	c0.004,0.098,0.01,0.195,0.021,0.293c0,0.004,0.002,0.01,0.002,0.014c0.071,0.652,0.304,1.281,0.679,1.828l17.658,31.127
	c1.091,1.922,3.532,2.596,5.456,1.504l0.514-0.291C265.577,112.68,266.252,110.236,265.161,108.314z"/>
<path fill="#1D1E1E" d="M249.994,108.314l-16.547-29.166l7.365-13.186c1.092-1.922,0.417-4.364-1.506-5.453l-0.514-0.294
	c-1.923-1.09-4.365-0.416-5.456,1.506l-8.479,15.145c-0.372,0.545-0.604,1.168-0.676,1.816c-0.001,0.01-0.003,0.02-0.003,0.029
	c-0.01,0.094-0.016,0.186-0.02,0.277c-0.003,0.055-0.005,0.107-0.005,0.16c0,0.049,0.002,0.098,0.004,0.145
	c0.004,0.098,0.01,0.195,0.021,0.293c0,0.004,0.002,0.01,0.002,0.014c0.071,0.652,0.304,1.281,0.679,1.828l17.658,31.127
	c1.091,1.922,3.532,2.596,5.455,1.504l0.515-0.291C250.41,112.68,251.085,110.236,249.994,108.314z"/>
<path fill="#1D1E1E" d="M234.827,108.314L218.28,79.148l7.365-13.186c1.092-1.922,0.417-4.364-1.506-5.453l-0.514-0.294
	c-1.923-1.09-4.365-0.416-5.456,1.506l-8.479,15.145c-0.372,0.545-0.604,1.168-0.676,1.816c-0.001,0.01-0.003,0.02-0.003,0.029
	c-0.01,0.094-0.016,0.186-0.02,0.277c-0.003,0.055-0.005,0.107-0.005,0.16c0,0.049,0.002,0.098,0.004,0.145
	c0.004,0.098,0.01,0.195,0.021,0.293c0,0.004,0.002,0.01,0.002,0.014c0.071,0.652,0.304,1.281,0.679,1.828l17.658,31.127
	c1.091,1.922,3.532,2.596,5.455,1.504l0.515-0.291C235.243,112.68,235.918,110.236,234.827,108.314z"/>
<path fill="#1D1E1E" d="M219.66,108.314l-16.547-29.166l7.365-13.186c1.092-1.922,0.417-4.364-1.505-5.453l-0.514-0.294
	c-1.923-1.09-4.365-0.416-5.456,1.506l-8.479,15.145c-0.372,0.545-0.604,1.168-0.676,1.816c-0.001,0.01-0.003,0.02-0.003,0.029
	c-0.01,0.094-0.016,0.186-0.02,0.277c-0.003,0.055-0.005,0.107-0.005,0.16c0,0.049,0.002,0.098,0.004,0.145
	c0.004,0.098,0.01,0.195,0.021,0.293c0,0.004,0.002,0.01,0.002,0.014c0.071,0.652,0.304,1.281,0.679,1.828l17.658,31.127
	c1.091,1.922,3.532,2.596,5.455,1.504l0.515-0.291C220.077,112.68,220.751,110.236,219.66,108.314z"/>
<path fill="#1D1E1E" d="M204.493,108.314l-16.547-29.166l7.365-13.186c1.092-1.922,0.417-4.364-1.505-5.453l-0.514-0.294
	c-1.923-1.09-4.365-0.416-5.456,1.506l-8.479,15.145c-0.372,0.545-0.604,1.168-0.676,1.816c-0.001,0.01-0.003,0.02-0.003,0.029
	c-0.01,0.094-0.016,0.186-0.02,0.277c-0.003,0.055-0.005,0.107-0.005,0.16c0,0.049,0.002,0.098,0.004,0.145
	c0.004,0.098,0.01,0.195,0.021,0.293c0,0.004,0.002,0.01,0.002,0.014c0.071,0.652,0.304,1.281,0.679,1.828l17.658,31.127
	c1.091,1.922,3.532,2.596,5.456,1.504l0.514-0.291C204.91,112.68,205.584,110.236,204.493,108.314z"/>
<path fill="#1D1E1E" d="M189.326,108.314l-16.547-29.166l7.365-13.186c1.092-1.922,0.417-4.364-1.505-5.453l-0.514-0.294
	c-1.923-1.09-4.365-0.416-5.456,1.506l-8.479,15.145c-0.372,0.545-0.604,1.168-0.676,1.816c-0.001,0.01-0.003,0.02-0.003,0.029
	c-0.01,0.094-0.016,0.186-0.02,0.277c-0.003,0.055-0.005,0.107-0.005,0.16c0,0.049,0.002,0.098,0.004,0.145
	c0.004,0.098,0.01,0.195,0.021,0.293c0,0.004,0.002,0.01,0.002,0.014c0.071,0.652,0.304,1.281,0.679,1.828l17.658,31.127
	c1.091,1.922,3.532,2.596,5.456,1.504l0.514-0.291C189.743,112.68,190.417,110.236,189.326,108.314z"/>
<path fill="#1D1E1E" d="M174.159,108.314l-16.547-29.166l7.365-13.186c1.092-1.922,0.417-4.364-1.505-5.453l-0.514-0.294
	c-1.923-1.09-4.365-0.416-5.456,1.506l-8.479,15.145c-0.372,0.545-0.604,1.168-0.676,1.816c-0.001,0.01-0.003,0.02-0.003,0.029
	c-0.01,0.094-0.016,0.186-0.02,0.277c-0.003,0.055-0.005,0.107-0.005,0.16c0,0.049,0.002,0.098,0.004,0.145
	c0.004,0.098,0.01,0.195,0.021,0.293c0,0.004,0.002,0.01,0.002,0.014c0.071,0.652,0.304,1.281,0.679,1.828l17.658,31.127
	c1.091,1.922,3.532,2.596,5.456,1.504l0.514-0.291C174.576,112.68,175.25,110.236,174.159,108.314z"/>
<path fill="#1D1E1E" d="M158.992,108.314l-16.547-29.166l7.365-13.186c1.092-1.922,0.417-4.364-1.505-5.453l-0.514-0.294
	c-1.923-1.09-4.365-0.416-5.456,1.506l-8.479,15.145c-0.372,0.545-0.604,1.168-0.676,1.816c-0.001,0.01-0.003,0.02-0.003,0.029
	c-0.01,0.094-0.016,0.186-0.02,0.277c-0.003,0.055-0.005,0.107-0.005,0.16c0,0.049,0.002,0.098,0.004,0.145
	c0.004,0.098,0.01,0.195,0.021,0.293c0,0.004,0.002,0.01,0.002,0.014c0.071,0.652,0.304,1.281,0.679,1.828l17.658,31.127
	c1.091,1.922,3.532,2.596,5.456,1.504l0.514-0.291C159.409,112.68,160.083,110.236,158.992,108.314z"/>
<path fill="#1D1E1E" d="M143.825,108.314l-16.547-29.166l7.365-13.186c1.092-1.922,0.417-4.364-1.505-5.453l-0.514-0.294
	c-1.923-1.09-4.365-0.416-5.456,1.506l-8.479,15.145c-0.372,0.545-0.604,1.168-0.676,1.816c-0.001,0.01-0.003,0.02-0.003,0.029
	c-0.01,0.094-0.016,0.186-0.02,0.277c-0.003,0.055-0.005,0.107-0.005,0.16c0,0.049,0.002,0.098,0.004,0.145
	c0.004,0.098,0.01,0.195,0.021,0.293c0,0.004,0.002,0.01,0.002,0.014c0.071,0.652,0.304,1.281,0.679,1.828l17.658,31.127
	c1.091,1.922,3.532,2.596,5.456,1.504l0.514-0.291C144.242,112.68,144.916,110.236,143.825,108.314z"/>
<path fill="#1D1E1E" d="M128.658,108.314l-16.547-29.166l7.365-13.186c1.092-1.922,0.417-4.364-1.505-5.453l-0.514-0.294
	c-1.923-1.09-4.365-0.416-5.456,1.506l-8.479,15.145c-0.372,0.545-0.604,1.168-0.676,1.816c-0.001,0.01-0.003,0.02-0.003,0.029
	c-0.01,0.094-0.016,0.186-0.02,0.277c-0.003,0.055-0.005,0.107-0.005,0.16c0,0.049,0.002,0.098,0.004,0.145
	c0.004,0.098,0.01,0.195,0.021,0.293c0,0.004,0.002,0.01,0.002,0.014c0.071,0.652,0.304,1.281,0.679,1.828l17.658,31.127
	c1.091,1.922,3.532,2.596,5.456,1.504l0.514-0.291C129.075,112.68,129.749,110.236,128.658,108.314z"/>
<path fill="#1D1E1E" d="M113.491,108.314L96.944,79.148l7.365-13.186c1.092-1.922,0.417-4.364-1.505-5.453l-0.514-0.294
	c-1.923-1.09-4.365-0.416-5.456,1.506l-8.479,15.145c-0.372,0.545-0.604,1.168-0.676,1.816c-0.001,0.01-0.003,0.02-0.003,0.029
	c-0.01,0.094-0.016,0.186-0.02,0.277c-0.003,0.055-0.005,0.107-0.005,0.16c0,0.049,0.002,0.098,0.004,0.145
	c0.004,0.098,0.01,0.195,0.021,0.293c0,0.004,0.002,0.01,0.002,0.014c0.071,0.652,0.304,1.281,0.679,1.828l17.658,31.127
	c1.091,1.922,3.532,2.596,5.456,1.504l0.514-0.291C113.908,112.68,114.582,110.236,113.491,108.314z"/>
<path fill="#1D1E1E" d="M98.324,108.314L81.777,79.148l7.365-13.186c1.092-1.922,0.417-4.364-1.505-5.453l-0.514-0.294
	c-1.923-1.09-4.365-0.416-5.456,1.506l-8.479,15.145c-0.372,0.545-0.604,1.168-0.676,1.816c-0.001,0.01-0.003,0.02-0.003,0.029
	c-0.01,0.094-0.016,0.186-0.02,0.277c-0.003,0.055-0.005,0.107-0.005,0.16c0,0.049,0.002,0.098,0.004,0.145
	c0.004,0.098,0.01,0.195,0.021,0.293c0,0.004,0.002,0.01,0.002,0.014c0.071,0.652,0.304,1.281,0.679,1.828l17.658,31.127
	c1.091,1.922,3.532,2.596,5.456,1.504l0.514-0.291C98.741,112.68,99.415,110.236,98.324,108.314z"/>
<path fill="#1D1E1E" d="M83.157,108.314L66.61,79.148l7.365-13.186c1.092-1.922,0.417-4.364-1.505-5.453l-0.514-0.294
	c-1.923-1.09-4.365-0.416-5.456,1.506l-8.479,15.145c-0.372,0.545-0.604,1.168-0.676,1.816c-0.001,0.01-0.003,0.02-0.003,0.029
	c-0.01,0.094-0.016,0.186-0.02,0.277c-0.003,0.055-0.005,0.107-0.005,0.16c0,0.049,0.002,0.098,0.004,0.145
	c0.004,0.098,0.01,0.195,0.021,0.293c0,0.004,0.002,0.01,0.002,0.014c0.071,0.652,0.304,1.281,0.679,1.828l17.658,31.127
	c1.091,1.922,3.532,2.596,5.456,1.504l0.514-0.291C83.574,112.68,84.248,110.236,83.157,108.314z"/>
<path fill="#1D1E1E" d="M67.99,108.314L51.443,79.148l7.365-13.186c1.092-1.922,0.417-4.364-1.505-5.453l-0.514-0.294
	c-1.923-1.09-4.365-0.416-5.456,1.506l-8.479,15.145c-0.372,0.545-0.604,1.168-0.676,1.816c-0.001,0.01-0.003,0.02-0.003,0.029
	c-0.01,0.094-0.016,0.186-0.02,0.277c-0.003,0.055-0.005,0.107-0.005,0.16c0,0.049,0.002,0.098,0.004,0.145
	c0.004,0.098,0.01,0.195,0.021,0.293c0,0.004,0.002,0.01,0.002,0.014c0.071,0.652,0.304,1.281,0.679,1.828l17.658,31.127
	c1.091,1.922,3.532,2.596,5.456,1.504l0.514-0.291C68.407,112.68,69.081,110.236,67.99,108.314z"/>
<path fill="#1D1E1E" d="M52.823,108.314L36.276,79.148l7.365-13.186c1.092-1.922,0.417-4.364-1.505-5.453l-0.514-0.294
	c-1.923-1.09-4.365-0.416-5.456,1.506l-8.479,15.145c-0.372,0.545-0.604,1.168-0.676,1.816c-0.001,0.01-0.003,0.02-0.003,0.029
	c-0.01,0.094-0.016,0.186-0.02,0.277c-0.003,0.055-0.005,0.107-0.005,0.16c0,0.049,0.002,0.098,0.004,0.145
	c0.004,0.098,0.01,0.195,0.021,0.293c0,0.004,0.002,0.01,0.002,0.014c0.071,0.652,0.304,1.281,0.679,1.828l17.658,31.127
	c1.091,1.922,3.532,2.596,5.456,1.504l0.514-0.291C53.24,112.68,53.914,110.236,52.823,108.314z"/>
<path fill="#1D1E1E" d="M37.656,108.314L21.109,79.148l7.365-13.186c1.092-1.922,0.416-4.364-1.505-5.453l-0.514-0.294
	c-1.923-1.09-4.365-0.416-5.456,1.506L12.52,76.867c-0.372,0.545-0.604,1.168-0.676,1.816c-0.001,0.01-0.003,0.02-0.003,0.029
	c-0.01,0.094-0.016,0.186-0.02,0.277c-0.003,0.055-0.005,0.107-0.005,0.16c0,0.049,0.002,0.098,0.004,0.145
	c0.004,0.098,0.01,0.195,0.021,0.293c0,0.004,0.002,0.01,0.002,0.014c0.071,0.652,0.304,1.281,0.679,1.828l17.658,31.127
	c1.091,1.922,3.532,2.596,5.456,1.504l0.514-0.291C38.073,112.68,38.747,110.236,37.656,108.314z"/>
<path fill="#1D1E1E" d="M372.126,108.314l-16.547-29.166l16.547-29.167c1.091-1.923,0.417-4.365-1.506-5.454l-0.515-0.294
	c-1.922-1.09-4.365-0.416-5.456,1.506l-17.658,31.127c-0.373,0.545-0.604,1.168-0.676,1.816c-0.002,0.01-0.003,0.02-0.004,0.029
	c-0.01,0.094-0.016,0.186-0.019,0.277c-0.003,0.055-0.005,0.107-0.005,0.16c0,0.049,0.002,0.098,0.004,0.145
	c0.004,0.098,0.01,0.195,0.021,0.293c0.001,0.004,0.002,0.01,0.002,0.014c0.072,0.652,0.304,1.281,0.68,1.828l17.657,31.127
	c1.09,1.922,3.532,2.596,5.455,1.504l0.515-0.291C372.543,112.68,373.217,110.236,372.126,108.314z"/>
<path fill="#1D1E1E" d="M387.977,108.314L371.43,79.148l16.545-29.167c1.091-1.923,0.417-4.365-1.506-5.454l-0.514-0.294
	c-1.923-1.09-4.365-0.416-5.455,1.506l-17.66,31.127c-0.372,0.545-0.603,1.168-0.676,1.816c-0.002,0.01-0.003,0.02-0.004,0.029
	c-0.01,0.094-0.016,0.186-0.018,0.277c-0.003,0.055-0.006,0.107-0.006,0.16c0.001,0.049,0.003,0.098,0.005,0.145
	c0.003,0.098,0.009,0.195,0.019,0.293c0.002,0.004,0.002,0.01,0.002,0.014c0.072,0.652,0.304,1.281,0.68,1.828l17.658,31.127
	c1.09,1.922,3.532,2.596,5.455,1.504l0.515-0.291C388.393,112.68,389.066,110.236,387.977,108.314z"/>
<path fill="#1D1E1E" d="M403.827,108.314L387.28,79.148l16.547-29.167c1.09-1.923,0.416-4.365-1.506-5.454l-0.516-0.294
	c-1.922-1.09-4.365-0.416-5.455,1.506l-17.659,31.127c-0.373,0.545-0.603,1.168-0.676,1.816c-0.001,0.01-0.002,0.02-0.004,0.029
	c-0.01,0.094-0.015,0.186-0.018,0.277c-0.002,0.055-0.005,0.107-0.005,0.16c0,0.049,0.002,0.098,0.004,0.145
	c0.003,0.098,0.009,0.195,0.02,0.293c0.001,0.004,0.001,0.01,0.002,0.014c0.072,0.652,0.304,1.281,0.679,1.828l17.657,31.127
	c1.091,1.922,3.532,2.596,5.455,1.504l0.516-0.291C404.243,112.68,404.917,110.236,403.827,108.314z"/>
<path fill="#1D1E1E" d="M419.677,108.314l-16.545-29.166l16.545-29.167c1.09-1.923,0.416-4.365-1.506-5.454l-0.515-0.294
	c-1.922-1.09-4.364-0.416-5.454,1.506l-17.661,31.127c-0.372,0.545-0.603,1.168-0.676,1.816c-0.001,0.01-0.002,0.02-0.003,0.029
	c-0.01,0.094-0.015,0.186-0.019,0.277c-0.002,0.055-0.004,0.107-0.005,0.16c0.001,0.049,0.003,0.098,0.005,0.145
	c0.003,0.098,0.009,0.195,0.019,0.293c0.001,0.004,0.001,0.01,0.002,0.014c0.072,0.652,0.304,1.281,0.679,1.828l17.659,31.127
	c1.09,1.922,3.533,2.596,5.455,1.504l0.515-0.291C420.093,112.68,420.768,110.236,419.677,108.314z"/>
<path fill="#1D1E1E" d="M435.527,108.314l-16.546-29.166l16.546-29.167c1.091-1.923,0.417-4.365-1.505-5.454l-0.516-0.294
	c-1.922-1.09-4.365-0.416-5.455,1.506l-17.66,31.127c-0.373,0.545-0.603,1.168-0.676,1.816c0,0.01-0.002,0.02-0.003,0.029
	c-0.01,0.094-0.015,0.186-0.019,0.277c-0.002,0.055-0.004,0.107-0.004,0.16c0,0.049,0.002,0.098,0.004,0.145
	c0.003,0.098,0.009,0.195,0.02,0.293c0,0.004,0.001,0.01,0.002,0.014c0.071,0.652,0.303,1.281,0.678,1.828l17.658,31.127
	c1.091,1.922,3.533,2.596,5.455,1.504l0.516-0.291C435.944,112.68,436.618,110.236,435.527,108.314z"/>
<path fill="#1D1E1E" d="M451.377,108.314l-16.545-29.166l16.545-29.167c1.092-1.923,0.417-4.365-1.505-5.454l-0.515-0.294
	c-1.922-1.09-4.364-0.416-5.455,1.506l-17.66,31.127c-0.373,0.545-0.604,1.168-0.676,1.816c-0.001,0.01-0.003,0.02-0.003,0.029
	c-0.01,0.094-0.016,0.186-0.02,0.277c-0.002,0.055-0.004,0.107-0.004,0.16c0,0.049,0.002,0.098,0.004,0.145
	c0.004,0.098,0.01,0.195,0.02,0.293c0,0.004,0.001,0.01,0.002,0.014c0.071,0.652,0.304,1.281,0.678,1.828l17.659,31.127
	c1.09,1.922,3.532,2.596,5.455,1.504l0.514-0.291C451.795,112.68,452.469,110.236,451.377,108.314z"/>
<path fill="#1D1E1E" d="M467.229,108.314l-16.547-29.166l16.547-29.167c1.091-1.923,0.417-4.365-1.506-5.454l-0.515-0.294
	c-1.923-1.09-4.365-0.416-5.455,1.506l-17.659,31.127c-0.374,0.545-0.604,1.168-0.677,1.816c-0.001,0.01-0.002,0.02-0.003,0.029
	c-0.01,0.094-0.016,0.186-0.019,0.277c-0.003,0.055-0.005,0.107-0.005,0.16c0,0.049,0.002,0.098,0.004,0.145
	c0.004,0.098,0.01,0.195,0.02,0.293c0.001,0.004,0.002,0.01,0.002,0.014c0.071,0.652,0.303,1.281,0.68,1.828l17.656,31.127
	c1.09,1.922,3.532,2.596,5.455,1.504l0.515-0.291C467.646,112.68,468.319,110.236,467.229,108.314z"/>
<path fill="#1D1E1E" d="M483.079,108.314l-16.546-29.166l16.545-29.167c1.091-1.923,0.417-4.365-1.506-5.454l-0.514-0.294
	c-1.923-1.09-4.365-0.416-5.455,1.506l-17.66,31.127c-0.373,0.545-0.604,1.168-0.676,1.816c-0.002,0.01-0.003,0.02-0.004,0.029
	c-0.01,0.094-0.016,0.186-0.019,0.277c-0.002,0.055-0.005,0.107-0.005,0.16c0,0.049,0.003,0.098,0.005,0.145
	c0.003,0.098,0.009,0.195,0.019,0.293c0.001,0.004,0.002,0.01,0.002,0.014c0.072,0.652,0.304,1.281,0.68,1.828l17.658,31.127
	c1.089,1.922,3.531,2.596,5.454,1.504l0.514-0.291C483.495,112.68,484.169,110.236,483.079,108.314z"/>
<path fill="#1D1E1E" d="M498.93,108.314l-16.547-29.166l16.547-29.167c1.09-1.923,0.416-4.365-1.507-5.454l-0.515-0.294
	c-1.922-1.09-4.365-0.416-5.454,1.506l-17.66,31.127c-0.373,0.545-0.603,1.168-0.676,1.816c-0.001,0.01-0.002,0.02-0.004,0.029
	c-0.01,0.094-0.015,0.186-0.018,0.277c-0.003,0.055-0.005,0.107-0.005,0.16c0,0.049,0.002,0.098,0.004,0.145
	c0.003,0.098,0.009,0.195,0.02,0.293c0.001,0.004,0.001,0.01,0.001,0.014c0.072,0.652,0.304,1.281,0.68,1.828l17.657,31.127
	c1.089,1.922,3.532,2.596,5.454,1.504l0.516-0.291C499.346,112.68,500.02,110.236,498.93,108.314z"/>
<path fill="#1D1E1E" d="M514.779,108.314l-16.545-29.166l16.545-29.167c1.09-1.923,0.416-4.365-1.506-5.454l-0.515-0.294
	c-1.922-1.09-4.365-0.416-5.454,1.506l-17.661,31.127c-0.372,0.545-0.603,1.168-0.676,1.816c-0.001,0.01-0.002,0.02-0.004,0.029
	c-0.009,0.094-0.015,0.186-0.018,0.277c-0.002,0.055-0.005,0.107-0.005,0.16c0,0.049,0.003,0.098,0.005,0.145
	c0.002,0.098,0.008,0.195,0.019,0.293c0.001,0.004,0.001,0.01,0.002,0.014c0.072,0.652,0.304,1.281,0.679,1.828l17.658,31.127
	c1.091,1.922,3.533,2.596,5.454,1.504l0.515-0.291C515.195,112.68,515.87,110.236,514.779,108.314z"/>
<path fill="#1D1E1E" d="M530.63,108.314l-16.547-29.166l16.547-29.167c1.09-1.923,0.416-4.365-1.506-5.454l-0.517-0.294
	c-1.921-1.09-4.363-0.416-5.454,1.506l-17.659,31.127c-0.373,0.545-0.603,1.168-0.676,1.816c0,0.01-0.002,0.02-0.003,0.029
	c-0.01,0.094-0.015,0.186-0.019,0.277c-0.002,0.055-0.004,0.107-0.004,0.16c0,0.049,0.002,0.098,0.004,0.145
	c0.003,0.098,0.009,0.195,0.02,0.293c0,0.004,0,0.01,0.001,0.014c0.072,0.652,0.304,1.281,0.679,1.828l17.657,31.127
	c1.091,1.922,3.533,2.596,5.455,1.504l0.516-0.291C531.047,112.68,531.721,110.236,530.63,108.314z"/>
<path fill="#1D1E1E" d="M546.48,108.314l-16.546-29.166l16.546-29.167c1.09-1.923,0.417-4.365-1.506-5.454l-0.515-0.294
	c-1.922-1.09-4.363-0.416-5.455,1.506l-17.659,31.127c-0.373,0.545-0.604,1.168-0.676,1.816c-0.001,0.01-0.003,0.02-0.004,0.029
	c-0.009,0.094-0.015,0.186-0.019,0.277c-0.002,0.055-0.004,0.107-0.004,0.16c0,0.049,0.002,0.098,0.004,0.145
	c0.004,0.098,0.01,0.195,0.02,0.293c0,0.004,0.001,0.01,0.002,0.014c0.071,0.652,0.305,1.281,0.679,1.828l17.657,31.127
	c1.092,1.922,3.533,2.596,5.455,1.504l0.515-0.291C546.896,112.68,547.571,110.236,546.48,108.314z"/>
<path fill="#1D1E1E" d="M562.332,108.314l-16.548-29.166l16.547-29.167c1.091-1.923,0.417-4.365-1.505-5.454l-0.517-0.294
	c-1.922-1.09-4.363-0.416-5.455,1.506l-17.658,31.127c-0.373,0.545-0.604,1.168-0.676,1.816c-0.001,0.01-0.003,0.02-0.003,0.029
	c-0.01,0.094-0.016,0.186-0.019,0.277c-0.003,0.055-0.005,0.107-0.005,0.16c0,0.049,0.002,0.098,0.004,0.145
	c0.004,0.098,0.01,0.195,0.02,0.293c0,0.004,0.002,0.01,0.002,0.014c0.071,0.652,0.304,1.281,0.679,1.828l17.657,31.127
	c1.091,1.922,3.532,2.596,5.455,1.504l0.516-0.291C562.748,112.68,563.422,110.236,562.332,108.314z"/>
<path fill="#1D1E1E" d="M578.181,108.314l-16.547-29.166l16.547-29.167c1.09-1.923,0.417-4.365-1.506-5.454l-0.515-0.294
	c-1.923-1.09-4.364-0.416-5.455,1.506l-17.659,31.127c-0.373,0.545-0.604,1.168-0.676,1.816c-0.002,0.01-0.003,0.02-0.004,0.029
	c-0.01,0.094-0.016,0.186-0.019,0.277c-0.002,0.055-0.005,0.107-0.005,0.16c0,0.049,0.002,0.098,0.004,0.145
	c0.004,0.098,0.01,0.195,0.02,0.293c0.001,0.004,0.002,0.01,0.002,0.014c0.071,0.652,0.305,1.281,0.68,1.828l17.657,31.127
	c1.091,1.922,3.532,2.596,5.455,1.504l0.515-0.291C578.598,112.68,579.271,110.236,578.181,108.314z"/>
<path fill="#1D1E1E" d="M594.033,108.314l-16.548-29.166l16.548-29.167c1.089-1.923,0.416-4.365-1.507-5.454l-0.515-0.294
	c-1.923-1.09-4.365-0.416-5.456,1.506l-17.658,31.127c-0.373,0.545-0.604,1.168-0.676,1.816c-0.002,0.01-0.003,0.02-0.004,0.029
	c-0.01,0.094-0.015,0.186-0.018,0.277c-0.003,0.055-0.006,0.107-0.006,0.16c0.001,0.049,0.003,0.098,0.005,0.145
	c0.003,0.098,0.009,0.195,0.019,0.293c0.002,0.004,0.002,0.01,0.002,0.014c0.072,0.652,0.303,1.281,0.68,1.828l17.657,31.127
	c1.09,1.922,3.532,2.596,5.455,1.504l0.515-0.291C594.448,112.68,595.122,110.236,594.033,108.314z"/>
<path fill="#1D1E1E" d="M609.882,108.314l-16.547-29.166l16.547-29.167c1.089-1.923,0.416-4.365-1.506-5.454l-0.515-0.294
	c-1.922-1.09-4.365-0.416-5.456,1.506l-17.659,31.127c-0.372,0.545-0.603,1.168-0.676,1.816c-0.001,0.01-0.002,0.02-0.004,0.029
	c-0.01,0.094-0.015,0.186-0.018,0.277c-0.002,0.055-0.005,0.107-0.005,0.16c0,0.049,0.002,0.098,0.004,0.145
	c0.003,0.098,0.009,0.195,0.02,0.293c0.001,0.004,0.001,0.01,0.002,0.014c0.071,0.652,0.304,1.281,0.679,1.828l17.657,31.127
	c1.092,1.922,3.533,2.596,5.456,1.504l0.515-0.291C610.298,112.68,610.972,110.236,609.882,108.314z"/>
<path fill="#1D1E1E" d="M625.733,108.314l-16.546-29.166l16.546-29.167c1.091-1.923,0.416-4.365-1.506-5.454l-0.516-0.294
	c-1.922-1.09-4.364-0.416-5.455,1.506l-17.659,31.127c-0.373,0.545-0.603,1.168-0.676,1.816c-0.001,0.01-0.002,0.02-0.003,0.029
	c-0.01,0.094-0.015,0.186-0.02,0.277c-0.002,0.055-0.005,0.107-0.005,0.16c0.001,0.049,0.003,0.098,0.005,0.145
	c0.003,0.098,0.009,0.195,0.02,0.293c0.001,0.004,0.001,0.01,0.002,0.014c0.072,0.652,0.303,1.281,0.679,1.828l17.657,31.127
	c1.091,1.922,3.533,2.596,5.456,1.504l0.516-0.291C626.148,112.68,626.824,110.236,625.733,108.314z"/>
<path fill="#1D1E1E" d="M641.583,108.314l-16.546-29.166l16.546-29.167c1.09-1.923,0.416-4.365-1.506-5.454l-0.517-0.294
	c-1.921-1.09-4.363-0.416-5.455,1.506l-17.659,31.127c-0.372,0.545-0.603,1.168-0.676,1.816c0,0.01-0.002,0.02-0.003,0.029
	c-0.009,0.094-0.015,0.186-0.02,0.277c-0.002,0.055-0.004,0.107-0.004,0.16c0,0.049,0.002,0.098,0.004,0.145
	c0.003,0.098,0.009,0.195,0.021,0.293c0,0.004,0.001,0.01,0.002,0.014c0.071,0.652,0.304,1.281,0.678,1.828l17.657,31.127
	c1.093,1.922,3.534,2.596,5.457,1.504l0.515-0.291C641.999,112.68,642.673,110.236,641.583,108.314z"/>
<path fill="#1D1E1E" d="M657.435,108.314l-16.548-29.166l16.546-29.167c1.092-1.923,0.418-4.365-1.505-5.454l-0.517-0.294
	c-1.922-1.09-4.363-0.416-5.455,1.506l-17.658,31.127c-0.374,0.545-0.604,1.168-0.677,1.816c0,0.01-0.002,0.02-0.002,0.029
	c-0.01,0.094-0.016,0.186-0.02,0.277c-0.002,0.055-0.004,0.107-0.004,0.16c0,0.049,0.002,0.098,0.004,0.145
	c0.004,0.098,0.01,0.195,0.02,0.293c0,0.004,0.001,0.01,0.002,0.014c0.071,0.652,0.303,1.281,0.679,1.828l17.657,31.127
	c1.091,1.922,3.532,2.596,5.456,1.504l0.515-0.291C657.851,112.68,658.524,110.236,657.435,108.314z"/>
<path fill="#1D1E1E" d="M673.284,108.314l-16.547-29.166l16.547-29.167c1.09-1.923,0.416-4.365-1.507-5.454l-0.515-0.294
	c-1.923-1.09-4.364-0.416-5.456,1.506l-17.659,31.127c-0.371,0.545-0.603,1.168-0.676,1.816c-0.001,0.01-0.002,0.02-0.003,0.029
	c-0.011,0.094-0.017,0.186-0.019,0.277c-0.004,0.055-0.006,0.107-0.006,0.16c0,0.049,0.002,0.098,0.004,0.145
	c0.004,0.098,0.01,0.195,0.021,0.293c0.001,0.004,0.002,0.01,0.002,0.014c0.071,0.652,0.304,1.281,0.679,1.828l17.657,31.127
	c1.092,1.922,3.533,2.596,5.456,1.504l0.515-0.291C673.7,112.68,674.374,110.236,673.284,108.314z"/>
<path fill="#1D1E1E" d="M689.134,108.314l-16.546-29.166l16.546-29.167c1.092-1.923,0.418-4.365-1.506-5.454l-0.516-0.294
	c-1.923-1.09-4.364-0.416-5.455,1.506l-17.658,31.127c-0.373,0.545-0.604,1.168-0.677,1.816c-0.001,0.01-0.002,0.02-0.003,0.029
	c-0.01,0.094-0.016,0.186-0.02,0.277c-0.002,0.055-0.005,0.107-0.005,0.16c0,0.049,0.003,0.098,0.005,0.145
	c0.004,0.098,0.01,0.195,0.02,0.293c0.001,0.004,0.002,0.01,0.002,0.014c0.072,0.652,0.303,1.281,0.68,1.828l17.658,31.127
	c1.089,1.922,3.531,2.596,5.453,1.504l0.516-0.291C689.552,112.68,690.226,110.236,689.134,108.314z"/>
<path fill="#1D1E1E" d="M704.985,108.314l-16.547-29.166l16.547-29.167c1.09-1.923,0.416-4.365-1.507-5.454l-0.515-0.294
	c-1.923-1.09-4.365-0.416-5.455,1.506l-17.66,31.127c-0.371,0.545-0.603,1.168-0.676,1.816c-0.001,0.01-0.003,0.02-0.004,0.029
	c-0.01,0.094-0.016,0.186-0.018,0.277c-0.004,0.055-0.006,0.107-0.006,0.16c0,0.049,0.002,0.098,0.004,0.145
	c0.004,0.098,0.01,0.195,0.021,0.293c0.001,0.004,0.001,0.01,0.001,0.014c0.072,0.652,0.305,1.281,0.68,1.828l17.658,31.127
	c1.09,1.922,3.532,2.596,5.455,1.504l0.515-0.291C705.401,112.68,706.075,110.236,704.985,108.314z"/>
<path fill="#1D1E1E" d="M720.835,108.314l-16.546-29.166l16.546-29.167c1.09-1.923,0.416-4.365-1.506-5.454l-0.516-0.294
	c-1.923-1.09-4.365-0.416-5.455,1.506l-17.659,31.127c-0.372,0.545-0.603,1.168-0.677,1.816c-0.001,0.01-0.001,0.02-0.003,0.029
	c-0.009,0.094-0.015,0.186-0.019,0.277c-0.002,0.055-0.004,0.107-0.004,0.16c0,0.049,0.002,0.098,0.004,0.145
	c0.004,0.098,0.01,0.195,0.02,0.293c0.001,0.004,0.001,0.01,0.001,0.014c0.073,0.652,0.304,1.281,0.68,1.828l17.657,31.127
	c1.091,1.922,3.532,2.596,5.455,1.504l0.516-0.291C721.251,112.68,721.925,110.236,720.835,108.314z"/>
<path fill="#1D1E1E" d="M736.685,108.314L720.14,79.148l16.545-29.167c1.092-1.923,0.416-4.365-1.506-5.454l-0.516-0.294
	c-1.921-1.09-4.364-0.416-5.455,1.506l-17.659,31.127c-0.372,0.545-0.603,1.168-0.676,1.816c-0.001,0.01-0.002,0.02-0.003,0.029
	c-0.01,0.094-0.016,0.186-0.02,0.277c-0.002,0.055-0.004,0.107-0.004,0.16c0,0.049,0.002,0.098,0.004,0.145
	c0.004,0.098,0.01,0.195,0.021,0.293c0,0.004,0.001,0.01,0.001,0.014c0.072,0.652,0.305,1.281,0.679,1.828l17.657,31.127
	c1.091,1.922,3.534,2.596,5.457,1.504l0.515-0.291C737.103,112.68,737.776,110.236,736.685,108.314z"/>
<path fill="#1D1E1E" d="M752.536,108.314l-16.547-29.166l16.547-29.167c1.09-1.923,0.416-4.365-1.506-5.454l-0.516-0.294
	c-1.923-1.09-4.365-0.416-5.455,1.506L727.4,76.867c-0.374,0.545-0.604,1.168-0.677,1.816c-0.001,0.01-0.002,0.02-0.003,0.029
	c-0.009,0.094-0.015,0.186-0.019,0.277c-0.002,0.055-0.004,0.107-0.004,0.16c0,0.049,0.002,0.098,0.004,0.145
	c0.002,0.098,0.008,0.195,0.02,0.293c0,0.004,0,0.01,0.001,0.014c0.072,0.652,0.304,1.281,0.681,1.828l17.656,31.127
	c1.091,1.922,3.532,2.596,5.455,1.504l0.516-0.291C752.952,112.68,753.626,110.236,752.536,108.314z"/>
<path fill="#1D1E1E" d="M768.386,108.314L751.84,79.148l16.546-29.167c1.092-1.923,0.416-4.365-1.506-5.454l-0.516-0.294
	c-1.922-1.09-4.364-0.416-5.455,1.506L743.25,76.867c-0.372,0.545-0.604,1.168-0.676,1.816c-0.001,0.01-0.003,0.02-0.003,0.029
	c-0.01,0.094-0.016,0.186-0.02,0.277c-0.002,0.055-0.004,0.107-0.004,0.16c0,0.049,0.002,0.098,0.004,0.145
	c0.004,0.098,0.01,0.195,0.02,0.293c0.001,0.004,0.001,0.01,0.002,0.014c0.071,0.652,0.305,1.281,0.68,1.828l17.656,31.127
	c1.091,1.922,3.533,2.596,5.457,1.504l0.514-0.291C768.804,112.68,769.478,110.236,768.386,108.314z"/>
<path fill="#1D1E1E" d="M784.237,108.314l-16.548-29.166l16.548-29.167c1.09-1.923,0.416-4.365-1.507-5.454l-0.515-0.294
	c-1.924-1.09-4.365-0.416-5.455,1.506l-17.658,31.127c-0.375,0.545-0.604,1.168-0.679,1.816c-0.001,0.01-0.002,0.02-0.002,0.029
	c-0.01,0.094-0.017,0.186-0.019,0.277c-0.002,0.055-0.006,0.107-0.006,0.16c0,0.049,0.002,0.098,0.004,0.145
	c0.004,0.098,0.011,0.195,0.021,0.293c0,0.004,0.001,0.01,0.001,0.014c0.072,0.652,0.305,1.281,0.68,1.828l17.658,31.127
	c1.09,1.922,3.531,2.596,5.455,1.504l0.515-0.291C784.653,112.68,785.327,110.236,784.237,108.314z"/>
<path fill="#1D1E1E" d="M800.088,108.314l-16.547-29.166l16.546-29.167c1.09-1.923,0.416-4.365-1.507-5.454l-0.515-0.294
	c-1.922-1.09-4.365-0.416-5.455,1.506l-17.658,31.127c-0.373,0.545-0.604,1.168-0.677,1.816c-0.002,0.01-0.003,0.02-0.004,0.029
	c-0.01,0.094-0.015,0.186-0.019,0.277c-0.002,0.055-0.006,0.107-0.006,0.16c0.002,0.049,0.004,0.098,0.006,0.145
	c0.002,0.098,0.009,0.195,0.019,0.293c0.001,0.004,0.002,0.01,0.002,0.014c0.072,0.652,0.304,1.281,0.68,1.828l17.657,31.127
	c1.09,1.922,3.533,2.596,5.455,1.504l0.516-0.291C800.503,112.68,801.177,110.236,800.088,108.314z"/>
<path fill="#1D1E1E" d="M815.938,108.314l-16.548-29.166l16.548-29.167c1.09-1.923,0.416-4.365-1.507-5.454l-0.517-0.294
	c-1.922-1.09-4.363-0.416-5.453,1.506l-17.66,31.127c-0.372,0.545-0.602,1.168-0.677,1.816c-0.001,0.01-0.002,0.02-0.003,0.029
	c-0.009,0.094-0.016,0.186-0.018,0.277c-0.004,0.055-0.006,0.107-0.006,0.16c0,0.049,0.002,0.098,0.004,0.145
	c0.004,0.098,0.01,0.195,0.02,0.293c0.001,0.004,0.001,0.01,0.002,0.014c0.072,0.652,0.305,1.281,0.68,1.828l17.658,31.127
	c1.09,1.922,3.531,2.596,5.453,1.504l0.517-0.291C816.354,112.68,817.028,110.236,815.938,108.314z"/>
<path fill="#1D1E1E" d="M831.788,108.314l-16.546-29.166l16.546-29.167c1.09-1.923,0.415-4.365-1.506-5.454l-0.516-0.294
	c-1.922-1.09-4.365-0.416-5.455,1.506l-17.66,31.127c-0.371,0.545-0.602,1.168-0.676,1.816c-0.001,0.01-0.002,0.02-0.003,0.029
	c-0.01,0.094-0.017,0.186-0.02,0.277c-0.001,0.055-0.005,0.107-0.005,0.16c0.002,0.049,0.004,0.098,0.005,0.145
	c0.003,0.098,0.01,0.195,0.02,0.293c0.001,0.004,0.001,0.01,0.002,0.014c0.072,0.652,0.305,1.281,0.679,1.828l17.658,31.127
	c1.09,1.922,3.533,2.596,5.455,1.504l0.516-0.291C832.203,112.68,832.878,110.236,831.788,108.314z"/>
<path fill="#1D1E1E" d="M847.639,108.314l-16.547-29.166l16.547-29.167c1.091-1.923,0.417-4.365-1.505-5.454l-0.518-0.294
	c-1.922-1.09-4.363-0.416-5.455,1.506l-17.658,31.127c-0.373,0.545-0.604,1.168-0.678,1.816c0,0.01-0.002,0.02-0.003,0.029
	c-0.009,0.094-0.014,0.186-0.019,0.277c-0.002,0.055-0.004,0.107-0.004,0.16c0,0.049,0.002,0.098,0.004,0.145
	c0.004,0.098,0.01,0.195,0.02,0.293c0,0.004,0.001,0.01,0.001,0.014c0.073,0.652,0.306,1.281,0.681,1.828l17.656,31.127
	c1.092,1.922,3.533,2.596,5.455,1.504l0.518-0.291C848.056,112.68,848.729,110.236,847.639,108.314z"/>
<path fill="#1D1E1E" d="M863.489,108.314l-16.547-29.166l16.546-29.167c1.091-1.923,0.417-4.365-1.505-5.454l-0.516-0.294
	c-1.922-1.09-4.365-0.416-5.457,1.506l-17.658,31.127c-0.372,0.545-0.604,1.168-0.676,1.816c0,0.01-0.003,0.02-0.004,0.029
	c-0.009,0.094-0.015,0.186-0.02,0.277c-0.002,0.055-0.004,0.107-0.004,0.16c0,0.049,0.002,0.098,0.004,0.145
	c0.005,0.098,0.011,0.195,0.021,0.293c0,0.004,0.001,0.01,0.003,0.014c0.07,0.652,0.304,1.281,0.678,1.828l17.658,31.127
	c1.09,1.922,3.533,2.596,5.456,1.504l0.515-0.291C863.905,112.68,864.579,110.236,863.489,108.314z"/>
<path fill="#1D1E1E" d="M879.34,108.314l-16.548-29.166l16.548-29.167c1.091-1.923,0.417-4.365-1.507-5.454l-0.516-0.294
	c-1.922-1.09-4.364-0.416-5.455,1.506l-17.659,31.127c-0.372,0.545-0.603,1.168-0.677,1.816c0,0.01-0.002,0.02-0.003,0.029
	c-0.009,0.094-0.015,0.186-0.019,0.277c-0.002,0.055-0.004,0.107-0.004,0.16c0,0.049,0.002,0.098,0.004,0.145
	c0.004,0.098,0.01,0.195,0.019,0.293c0.001,0.004,0.003,0.01,0.003,0.014c0.072,0.652,0.304,1.281,0.68,1.828l17.656,31.127
	c1.091,1.922,3.533,2.596,5.456,1.504l0.515-0.291C879.757,112.68,880.431,110.236,879.34,108.314z"/>
<path fill="#1D1E1E" d="M895.189,108.314l-16.546-29.166l16.546-29.167c1.091-1.923,0.417-4.365-1.507-5.454l-0.514-0.294
	c-1.924-1.09-4.365-0.416-5.457,1.506l-17.658,31.127c-0.372,0.545-0.604,1.168-0.676,1.816c-0.002,0.01-0.002,0.02-0.004,0.029
	c-0.01,0.094-0.016,0.186-0.02,0.277c-0.002,0.055-0.004,0.107-0.004,0.16c0,0.049,0.002,0.098,0.004,0.145
	c0.004,0.098,0.01,0.195,0.02,0.293c0.002,0.004,0.002,0.01,0.002,0.014c0.072,0.652,0.305,1.281,0.68,1.828l17.658,31.127
	c1.09,1.922,3.531,2.596,5.455,1.504l0.514-0.291C895.606,112.68,896.28,110.236,895.189,108.314z"/>
<path fill="#1D1E1E" d="M911.041,108.314l-16.548-29.166l16.548-29.167c1.089-1.923,0.416-4.365-1.507-5.454l-0.516-0.294
	c-1.922-1.09-4.365-0.416-5.454,1.506l-17.659,31.127c-0.373,0.545-0.604,1.168-0.678,1.816c-0.001,0.01-0.003,0.02-0.004,0.029
	c-0.009,0.094-0.014,0.186-0.017,0.277c-0.003,0.055-0.005,0.107-0.005,0.16c0,0.049,0.002,0.098,0.004,0.145
	c0.003,0.098,0.009,0.195,0.019,0.293c0.001,0.004,0.001,0.01,0.001,0.014c0.074,0.652,0.305,1.281,0.682,1.828l17.657,31.127
	c1.089,1.922,3.532,2.596,5.454,1.504l0.516-0.291C911.457,112.68,912.13,110.236,911.041,108.314z"/>
<path fill="#1D1E1E" d="M926.891,108.314l-16.547-29.166l16.547-29.167c1.09-1.923,0.416-4.365-1.507-5.454l-0.515-0.294
	c-1.923-1.09-4.366-0.416-5.455,1.506l-17.659,31.127c-0.372,0.545-0.604,1.168-0.677,1.816c-0.001,0.01-0.002,0.02-0.004,0.029
	c-0.009,0.094-0.015,0.186-0.018,0.277c-0.002,0.055-0.005,0.107-0.005,0.16c0,0.049,0.002,0.098,0.004,0.145
	c0.003,0.098,0.01,0.195,0.02,0.293c0.001,0.004,0.001,0.01,0.002,0.014c0.072,0.652,0.305,1.281,0.68,1.828l17.657,31.127
	c1.091,1.922,3.532,2.596,5.455,1.504l0.515-0.291C927.307,112.68,927.98,110.236,926.891,108.314z"/>
<path fill="#1D1E1E" d="M942.741,108.314l-16.547-29.166l16.547-29.167c1.091-1.923,0.416-4.365-1.506-5.454l-0.517-0.294
	c-1.921-1.09-4.364-0.416-5.454,1.506l-17.66,31.127c-0.372,0.545-0.602,1.168-0.676,1.816c-0.002,0.01-0.003,0.02-0.004,0.029
	c-0.009,0.094-0.014,0.186-0.018,0.277c-0.002,0.055-0.005,0.107-0.005,0.16c0.001,0.049,0.003,0.098,0.005,0.145
	c0.003,0.098,0.009,0.195,0.019,0.293c0,0.004,0,0.01,0.001,0.014c0.074,0.652,0.305,1.281,0.68,1.828l17.658,31.127
	c1.09,1.922,3.533,2.596,5.455,1.504l0.516-0.291C943.157,112.68,943.832,110.236,942.741,108.314z"/>
<path fill="#1D1E1E" d="M958.591,108.314l-16.545-29.166l16.545-29.167c1.091-1.923,0.416-4.365-1.506-5.454l-0.515-0.294
	c-1.923-1.09-4.366-0.416-5.456,1.506l-17.658,31.127c-0.373,0.545-0.604,1.168-0.676,1.816c-0.002,0.01-0.004,0.02-0.005,0.029
	c-0.009,0.094-0.015,0.186-0.019,0.277c-0.002,0.055-0.004,0.107-0.004,0.16c0,0.049,0.002,0.098,0.004,0.145
	c0.003,0.098,0.009,0.195,0.02,0.293c0,0.004,0.002,0.01,0.002,0.014c0.072,0.652,0.305,1.281,0.68,1.828l17.657,31.127
	c1.091,1.922,3.532,2.596,5.455,1.504l0.515-0.291C959.007,112.68,959.682,110.236,958.591,108.314z"/>
<path fill="#1D1E1E" d="M974.442,108.314l-16.547-29.166l16.546-29.167c1.092-1.923,0.416-4.365-1.505-5.454l-0.517-0.294
	c-1.923-1.09-4.364-0.416-5.456,1.506l-17.658,31.127c-0.372,0.545-0.604,1.168-0.676,1.816c-0.002,0.01-0.004,0.02-0.004,0.029
	c-0.009,0.094-0.015,0.186-0.018,0.277c-0.003,0.055-0.005,0.107-0.005,0.16c0,0.049,0.002,0.098,0.004,0.145
	c0.004,0.098,0.01,0.195,0.019,0.293c0.002,0.004,0.002,0.01,0.002,0.014c0.072,0.652,0.305,1.281,0.681,1.828l17.657,31.127
	c1.09,1.922,3.531,2.596,5.455,1.504l0.516-0.291C974.858,112.68,975.533,110.236,974.442,108.314z"/>
<path fill="#1D1E1E" d="M990.292,108.314l-16.547-29.166l16.547-29.167c1.091-1.923,0.417-4.365-1.506-5.454l-0.515-0.294
	c-1.923-1.09-4.366-0.416-5.456,1.506l-17.658,31.127c-0.373,0.545-0.604,1.168-0.678,1.816c0,0.01-0.002,0.02-0.002,0.029
	c-0.011,0.094-0.017,0.186-0.02,0.277c-0.002,0.055-0.005,0.107-0.005,0.16c0,0.049,0.002,0.098,0.004,0.145
	c0.004,0.098,0.01,0.195,0.021,0.293c0,0.004,0.002,0.01,0.002,0.014c0.07,0.652,0.304,1.281,0.679,1.828l17.657,31.127
	c1.09,1.922,3.533,2.596,5.456,1.504l0.515-0.291C990.709,112.68,991.383,110.236,990.292,108.314z"/>
<path fill="#1D1E1E" d="M1006.144,108.314l-16.547-29.166l16.546-29.167c1.091-1.923,0.416-4.365-1.507-5.454l-0.515-0.294
	c-1.923-1.09-4.364-0.416-5.455,1.506l-17.659,31.127c-0.373,0.545-0.603,1.168-0.677,1.816c-0.002,0.01-0.003,0.02-0.003,0.029
	c-0.01,0.094-0.015,0.186-0.019,0.277c-0.002,0.055-0.005,0.107-0.005,0.16c0.001,0.049,0.003,0.098,0.005,0.145
	c0.003,0.098,0.009,0.195,0.019,0.293c0,0.004,0.001,0.01,0.001,0.014c0.073,0.652,0.305,1.281,0.682,1.828l17.657,31.127
	c1.09,1.922,3.532,2.596,5.454,1.504l0.517-0.291C1006.559,112.68,1007.233,110.236,1006.144,108.314z"/>
<path fill="#1D1E1E" d="M1021.993,108.314l-16.547-29.166l16.547-29.167c1.09-1.923,0.416-4.365-1.506-5.454l-0.516-0.294
	c-1.922-1.09-4.365-0.416-5.455,1.506l-17.659,31.127c-0.372,0.545-0.603,1.168-0.677,1.816c0,0.01-0.002,0.02-0.004,0.029
	c-0.009,0.094-0.015,0.186-0.018,0.277c-0.003,0.055-0.005,0.107-0.005,0.16c0,0.049,0.002,0.098,0.004,0.145
	c0.003,0.098,0.009,0.195,0.021,0.293c0,0.004,0,0.01,0.002,0.014c0.07,0.652,0.304,1.281,0.679,1.828l17.657,31.127
	c1.091,1.922,3.533,2.596,5.455,1.504l0.516-0.291C1022.409,112.68,1023.083,110.236,1021.993,108.314z"/>
<path fill="#1D1E1E" d="M1037.844,108.314l-16.546-29.166l16.546-29.167c1.091-1.923,0.415-4.365-1.507-5.454l-0.516-0.294
	c-1.922-1.09-4.363-0.416-5.454,1.506l-17.659,31.127c-0.373,0.545-0.603,1.168-0.678,1.816c0,0.01-0.002,0.02-0.002,0.029
	c-0.01,0.094-0.016,0.186-0.019,0.277c-0.002,0.055-0.005,0.107-0.005,0.16c0,0.049,0.003,0.098,0.005,0.145
	c0.003,0.098,0.009,0.195,0.019,0.293c0,0.004,0,0.01,0.002,0.014c0.073,0.652,0.304,1.281,0.68,1.828l17.657,31.127
	c1.091,1.922,3.533,2.596,5.455,1.504l0.515-0.291C1038.259,112.68,1038.935,110.236,1037.844,108.314z"/>
<path fill="#1D1E1E" d="M1053.693,108.314l-16.546-29.166l16.546-29.167c1.091-1.923,0.417-4.365-1.505-5.454l-0.516-0.294
	c-1.922-1.09-4.365-0.416-5.456,1.506l-17.659,31.127c-0.372,0.545-0.603,1.168-0.676,1.816c0,0.01-0.002,0.02-0.004,0.029
	c-0.01,0.094-0.015,0.186-0.019,0.277c-0.002,0.055-0.004,0.107-0.004,0.16c0,0.049,0.002,0.098,0.004,0.145
	c0.003,0.098,0.009,0.195,0.021,0.293c0,0.004,0,0.01,0,0.014c0.073,0.652,0.305,1.281,0.68,1.828l17.657,31.127
	c1.092,1.922,3.534,2.596,5.456,1.504l0.516-0.291C1054.11,112.68,1054.784,110.236,1053.693,108.314z"/>
<path fill="#1D1E1E" d="M1069.545,108.314l-16.548-29.166l16.547-29.167c1.091-1.923,0.416-4.365-1.505-5.454l-0.517-0.294
	c-1.922-1.09-4.364-0.416-5.455,1.506l-17.658,31.127c-0.374,0.545-0.604,1.168-0.677,1.816c-0.001,0.01-0.003,0.02-0.005,0.029
	c-0.008,0.094-0.014,0.186-0.018,0.277c-0.002,0.055-0.004,0.107-0.004,0.16c0,0.049,0.002,0.098,0.004,0.145
	c0.004,0.098,0.01,0.195,0.02,0.293c0,0.004,0,0.01,0.002,0.014c0.072,0.652,0.304,1.281,0.68,1.828l17.657,31.127
	c1.091,1.922,3.532,2.596,5.454,1.504l0.517-0.291C1069.96,112.68,1070.635,110.236,1069.545,108.314z"/>
<path fill="#1D1E1E" d="M1085.395,108.314l-16.546-29.166l16.546-29.167c1.091-1.923,0.416-4.365-1.506-5.454l-0.516-0.294
	c-1.922-1.09-4.364-0.416-5.455,1.506l-17.659,31.127c-0.372,0.545-0.603,1.168-0.676,1.816c-0.001,0.01-0.002,0.02-0.004,0.029
	c-0.01,0.094-0.016,0.186-0.019,0.277c-0.003,0.055-0.005,0.107-0.005,0.16c0,0.049,0.002,0.098,0.004,0.145
	c0.004,0.098,0.01,0.195,0.02,0.293c0.002,0.004,0.003,0.01,0.003,0.014c0.071,0.652,0.304,1.281,0.679,1.828l17.657,31.127
	c1.091,1.922,3.533,2.596,5.455,1.504l0.516-0.291C1085.812,112.68,1086.485,110.236,1085.395,108.314z"/>
<path fill="#1D1E1E" d="M1101.245,108.314l-16.546-29.166l16.546-29.167c1.091-1.923,0.416-4.365-1.506-5.454l-0.516-0.294
	c-1.923-1.09-4.364-0.416-5.455,1.506l-17.658,31.127c-0.374,0.545-0.604,1.168-0.677,1.816c-0.002,0.01-0.003,0.02-0.005,0.029
	c-0.009,0.094-0.015,0.186-0.018,0.277c-0.002,0.055-0.005,0.107-0.005,0.16c0,0.049,0.003,0.098,0.005,0.145
	c0.003,0.098,0.009,0.195,0.018,0.293c0.002,0.004,0.003,0.01,0.003,0.014c0.073,0.652,0.304,1.281,0.681,1.828l17.657,31.127
	c1.09,1.922,3.531,2.596,5.454,1.504l0.516-0.291C1101.661,112.68,1102.336,110.236,1101.245,108.314z"/>
<path fill="#1D1E1E" d="M1117.097,108.314l-16.548-29.166l16.548-29.167c1.089-1.923,0.415-4.365-1.508-5.454l-0.515-0.294
	c-1.922-1.09-4.365-0.416-5.456,1.506l-17.658,31.127c-0.372,0.545-0.604,1.168-0.676,1.816c-0.001,0.01-0.003,0.02-0.004,0.029
	c-0.01,0.094-0.016,0.186-0.019,0.277c-0.003,0.055-0.005,0.107-0.005,0.16c0,0.049,0.002,0.098,0.004,0.145
	c0.003,0.098,0.01,0.195,0.021,0.293c0.001,0.004,0.001,0.01,0.001,0.014c0.072,0.652,0.304,1.281,0.68,1.828l17.657,31.127
	c1.09,1.922,3.533,2.596,5.455,1.504l0.516-0.291C1117.512,112.68,1118.186,110.236,1117.097,108.314z"/>
<path fill="#1D1E1E" d="M1132.946,108.314l-16.547-29.166l16.547-29.167c1.09-1.923,0.416-4.365-1.506-5.454l-0.517-0.294
	c-1.921-1.09-4.364-0.416-5.454,1.506l-17.66,31.127c-0.371,0.545-0.603,1.168-0.676,1.816c-0.001,0.01-0.002,0.02-0.004,0.029
	c-0.009,0.094-0.015,0.186-0.018,0.277c-0.002,0.055-0.006,0.107-0.006,0.16c0,0.049,0.002,0.098,0.005,0.145
	c0.003,0.098,0.009,0.195,0.02,0.293c0.001,0.004,0.001,0.01,0.002,0.014c0.071,0.652,0.305,1.281,0.679,1.828l17.658,31.127
	c1.091,1.922,3.533,2.596,5.454,1.504l0.517-0.291C1133.362,112.68,1134.036,110.236,1132.946,108.314z"/>
<path fill="#1D1E1E" d="M1148.796,108.314l-16.546-29.166l16.546-29.167c1.091-1.923,0.416-4.365-1.506-5.454l-0.516-0.294
	c-1.922-1.09-4.364-0.416-5.455,1.506l-17.659,31.127c-0.372,0.545-0.603,1.168-0.676,1.816c-0.001,0.01-0.002,0.02-0.003,0.029
	c-0.01,0.094-0.016,0.186-0.02,0.277c-0.002,0.055-0.005,0.107-0.005,0.16c0.001,0.049,0.003,0.098,0.005,0.145
	c0.003,0.098,0.01,0.195,0.02,0.293c0.001,0.004,0.001,0.01,0.002,0.014c0.072,0.652,0.304,1.281,0.679,1.828l17.657,31.127
	c1.091,1.922,3.534,2.596,5.456,1.504l0.517-0.291C1149.213,112.68,1149.887,110.236,1148.796,108.314z"/>
<path fill="#1D1E1E" d="M1164.646,108.314l-16.546-29.166l16.546-29.167c1.091-1.923,0.417-4.365-1.505-5.454l-0.517-0.294
	c-1.922-1.09-4.364-0.416-5.455,1.506l-17.659,31.127c-0.372,0.545-0.604,1.168-0.676,1.816c-0.001,0.01-0.003,0.02-0.004,0.029
	c-0.009,0.094-0.015,0.186-0.019,0.277c-0.002,0.055-0.005,0.107-0.005,0.16c0,0.049,0.003,0.098,0.005,0.145
	c0.003,0.098,0.009,0.195,0.02,0.293c0,0.004,0.001,0.01,0.002,0.014c0.071,0.652,0.305,1.281,0.679,1.828l17.658,31.127
	c1.091,1.922,3.532,2.596,5.454,1.504l0.517-0.291C1165.063,112.68,1165.737,110.236,1164.646,108.314z"/>
<path fill="#1D1E1E" d="M1180.497,108.314l-16.547-29.166l16.547-29.167c1.09-1.923,0.416-4.365-1.506-5.454l-0.516-0.294
	c-1.922-1.09-4.363-0.416-5.455,1.506l-17.659,31.127c-0.372,0.545-0.604,1.168-0.676,1.816c-0.001,0.01-0.003,0.02-0.003,0.029
	c-0.01,0.094-0.017,0.186-0.02,0.277c-0.003,0.055-0.005,0.107-0.005,0.16c0,0.049,0.002,0.098,0.004,0.145
	c0.004,0.098,0.011,0.195,0.021,0.293c0.001,0.004,0.001,0.01,0.002,0.014c0.071,0.652,0.305,1.281,0.679,1.828l17.658,31.127
	c1.091,1.922,3.532,2.596,5.454,1.504l0.516-0.291C1180.913,112.68,1181.587,110.236,1180.497,108.314z"/>
<path fill="#1D1E1E" d="M1196.348,108.314l-16.547-29.166l16.547-29.167c1.091-1.923,0.416-4.365-1.506-5.454l-0.516-0.294
	c-1.923-1.09-4.364-0.416-5.455,1.506l-17.659,31.127c-0.372,0.545-0.604,1.168-0.676,1.816c-0.002,0.01-0.003,0.02-0.004,0.029
	c-0.01,0.094-0.016,0.186-0.019,0.277c-0.002,0.055-0.005,0.107-0.005,0.16c0,0.049,0.002,0.098,0.004,0.145
	c0.004,0.098,0.01,0.195,0.02,0.293c0.001,0.004,0.002,0.01,0.002,0.014c0.072,0.652,0.305,1.281,0.68,1.828l17.657,31.127
	c1.091,1.922,3.533,2.596,5.456,1.504l0.515-0.291C1196.765,112.68,1197.438,110.236,1196.348,108.314z"/>
<path fill="#1D1E1E" d="M1212.198,108.314l-16.547-29.166l16.547-29.167c1.09-1.923,0.416-4.365-1.506-5.454l-0.516-0.294
	c-1.922-1.09-4.365-0.416-5.455,1.506l-17.659,31.127c-0.372,0.545-0.604,1.168-0.677,1.816c0,0.01-0.002,0.02-0.004,0.029
	c-0.01,0.094-0.014,0.186-0.019,0.277c-0.002,0.055-0.004,0.107-0.004,0.16c0,0.049,0.002,0.098,0.004,0.145
	c0.003,0.098,0.009,0.195,0.02,0.293c0.001,0.004,0.002,0.01,0.002,0.014c0.072,0.652,0.305,1.281,0.679,1.828l17.658,31.127
	c1.091,1.922,3.533,2.596,5.455,1.504l0.516-0.291C1212.614,112.68,1213.288,110.236,1212.198,108.314z"/>
<path fill="#1D1E1E" d="M1228.049,108.314l-16.547-29.166l16.546-29.167c1.092-1.923,0.416-4.365-1.505-5.454l-0.517-0.294
	c-1.922-1.09-4.364-0.416-5.454,1.506l-17.66,31.127c-0.372,0.545-0.603,1.168-0.675,1.816c-0.002,0.01-0.003,0.02-0.005,0.029
	c-0.009,0.094-0.015,0.186-0.019,0.277c-0.002,0.055-0.004,0.107-0.004,0.16c0,0.049,0.002,0.098,0.004,0.145
	c0.004,0.098,0.01,0.195,0.02,0.293c0.001,0.004,0.002,0.01,0.002,0.014c0.072,0.652,0.305,1.281,0.68,1.828l17.657,31.127
	c1.091,1.922,3.532,2.596,5.455,1.504l0.516-0.291C1228.464,112.68,1229.14,110.236,1228.049,108.314z"/>
<path fill="#1D1E1E" d="M1243.899,108.314l-16.547-29.166l16.547-29.167c1.09-1.923,0.416-4.365-1.506-5.454l-0.517-0.294
	c-1.922-1.09-4.364-0.416-5.454,1.506l-17.66,31.127c-0.371,0.545-0.603,1.168-0.676,1.816c-0.001,0.01-0.002,0.02-0.003,0.029
	c-0.01,0.094-0.017,0.186-0.02,0.277c-0.002,0.055-0.005,0.107-0.005,0.16c0,0.049,0.003,0.098,0.005,0.145
	c0.003,0.098,0.01,0.195,0.02,0.293c0.001,0.004,0.001,0.01,0.002,0.014c0.071,0.652,0.304,1.281,0.679,1.828l17.658,31.127
	c1.09,1.922,3.532,2.596,5.455,1.504l0.516-0.291C1244.315,112.68,1244.989,110.236,1243.899,108.314z"/>
<path fill="#1D1E1E" d="M1259.749,108.314l-16.546-29.166l16.546-29.167c1.091-1.923,0.417-4.365-1.506-5.454l-0.516-0.294
	c-1.922-1.09-4.364-0.416-5.455,1.506l-17.659,31.127c-0.372,0.545-0.603,1.168-0.676,1.816c-0.001,0.01-0.003,0.02-0.003,0.029
	c-0.011,0.094-0.016,0.186-0.02,0.277c-0.002,0.055-0.005,0.107-0.005,0.16c0,0.049,0.003,0.098,0.005,0.145
	c0.003,0.098,0.009,0.195,0.02,0.293c0,0.004,0.002,0.01,0.002,0.014c0.072,0.652,0.304,1.281,0.679,1.828l17.658,31.127
	c1.09,1.922,3.533,2.596,5.454,1.504l0.516-0.291C1260.166,112.68,1260.84,110.236,1259.749,108.314z"/>
<g>
	<path fill="#2D2D2D" d="M625.552,21.916c-3.846,4.289-10.446,4.646-14.741,0.797c-4.292-3.851-4.654-10.45-0.81-14.739
		c3.847-4.29,10.446-4.647,14.741-0.797C629.036,11.026,629.399,17.625,625.552,21.916"/>
	<path fill="#606060" d="M625.552,18.916c-3.846,4.289-10.446,4.646-14.741,0.797c-4.292-3.851-4.654-10.45-0.81-14.739
		c3.847-4.29,10.446-4.647,14.741-0.797C629.036,8.026,629.399,14.625,625.552,18.916"/>
	
		<ellipse transform="matrix(0.7446 0.6676 -0.6676 0.7446 165.777 -409.3478)" fill="none" stroke="#3A3A3A" stroke-miterlimit="10" cx="617.777" cy="11.944" rx="10.443" ry="10.434"/>
	<polygon fill="#3A3A3A" points="612.874,15.488 615.962,12.042 612.514,8.949 614.229,7.036 617.677,10.129 620.768,6.684 
		622.682,8.4 619.592,11.846 623.042,14.938 621.327,16.852 617.875,13.758 614.788,17.204 	"/>
	<path fill="#231815" d="M622.368,8.417l-2.793,3.114l-0.296,0.332l0.332,0.297l3.118,2.795l-1.418,1.582l-3.119-2.796l-0.331-0.296
		l-0.297,0.331l-2.793,3.115l-1.581-1.419l2.791-3.115l0.296-0.331l-0.331-0.298l-3.117-2.795l1.417-1.581l3.117,2.795l0.332,0.297
		l0.298-0.331l2.793-3.114L622.368,8.417z M622.997,8.383L620.75,6.37l-3.089,3.445l-3.449-3.092l-2.012,2.244l3.447,3.092
		l-3.089,3.446l2.246,2.014l3.09-3.446l3.448,3.092l2.012-2.245l-3.448-3.091L622.997,8.383z"/>
</g>
<g>
	<path fill="#2D2D2D" d="M625.552,121.555c-3.846,4.289-10.446,4.646-14.741,0.797c-4.292-3.852-4.654-10.451-0.81-14.74
		c3.847-4.289,10.446-4.646,14.741-0.797C629.036,110.664,629.399,117.264,625.552,121.555"/>
	<path fill="#606060" d="M625.552,118.555c-3.846,4.289-10.446,4.646-14.741,0.797c-4.292-3.852-4.654-10.451-0.81-14.74
		c3.847-4.289,10.446-4.646,14.741-0.797C629.036,107.664,629.399,114.264,625.552,118.555"/>
	
		<ellipse transform="matrix(0.7445 0.6676 -0.6676 0.7445 232.3084 -383.9097)" fill="none" stroke="#3A3A3A" stroke-miterlimit="10" cx="617.777" cy="111.583" rx="10.443" ry="10.434"/>
	<polygon fill="#3A3A3A" points="612.874,115.127 615.962,111.682 612.514,108.588 614.229,106.676 617.677,109.768 
		620.768,106.322 622.682,108.039 619.592,111.484 623.042,114.576 621.327,116.49 617.875,113.396 614.788,116.844 	"/>
	<path fill="#231815" d="M622.368,108.057l-2.793,3.113l-0.296,0.332l0.332,0.297l3.118,2.795l-1.418,1.582l-3.119-2.797
		l-0.331-0.295l-0.297,0.33l-2.793,3.115l-1.581-1.42l2.791-3.115l0.296-0.33l-0.331-0.299l-3.117-2.795l1.417-1.58l3.117,2.795
		l0.332,0.297l0.298-0.332l2.793-3.113L622.368,108.057z M622.997,108.021l-2.246-2.014l-3.089,3.445l-3.449-3.092l-2.012,2.244
		l3.447,3.092l-3.089,3.445l2.246,2.014l3.09-3.445l3.448,3.092l2.012-2.244l-3.448-3.092L622.997,108.021z"/>
</g>
<g>
	<path fill="#2D2D2D" d="M1262.634,21.916c-3.846,4.289-10.446,4.646-14.741,0.797c-4.292-3.851-4.654-10.45-0.81-14.739
		c3.847-4.29,10.446-4.647,14.741-0.797C1266.117,11.026,1266.48,17.625,1262.634,21.916"/>
	<path fill="#606060" d="M1262.634,18.916c-3.846,4.289-10.446,4.646-14.741,0.797c-4.292-3.851-4.654-10.45-0.81-14.739
		c3.847-4.29,10.446-4.647,14.741-0.797C1266.117,8.026,1266.48,14.625,1262.634,18.916"/>
	
		<ellipse transform="matrix(0.7446 0.6676 -0.6676 0.7446 328.5117 -834.6335)" fill="none" stroke="#3A3A3A" stroke-miterlimit="10" cx="1254.858" cy="11.944" rx="10.443" ry="10.434"/>
	<polygon fill="#3A3A3A" points="1249.955,15.488 1253.044,12.042 1249.596,8.949 1251.311,7.036 1254.759,10.129 1257.85,6.684 
		1259.764,8.4 1256.674,11.846 1260.123,14.938 1258.408,16.852 1254.957,13.758 1251.869,17.204 	"/>
	<path fill="#231815" d="M1259.449,8.417l-2.793,3.114l-0.296,0.332l0.332,0.297l3.117,2.795l-1.418,1.582l-3.118-2.796
		l-0.331-0.296l-0.298,0.331l-2.793,3.115l-1.581-1.419l2.791-3.115l0.297-0.331l-0.331-0.298l-3.117-2.795l1.417-1.581l3.117,2.795
		l0.332,0.297l0.298-0.331l2.793-3.114L1259.449,8.417z M1260.078,8.383l-2.246-2.014l-3.089,3.445l-3.449-3.092l-2.012,2.244
		l3.447,3.092l-3.089,3.446l2.246,2.014l3.09-3.446l3.448,3.092l2.012-2.245l-3.448-3.091L1260.078,8.383z"/>
</g>
<g>
	<path fill="#2D2D2D" d="M1262.634,121.555c-3.846,4.289-10.446,4.646-14.741,0.797c-4.292-3.852-4.654-10.451-0.81-14.74
		c3.847-4.289,10.446-4.646,14.741-0.797C1266.117,110.664,1266.48,117.264,1262.634,121.555"/>
	<path fill="#606060" d="M1262.634,118.555c-3.846,4.289-10.446,4.646-14.741,0.797c-4.292-3.852-4.654-10.451-0.81-14.74
		c3.847-4.289,10.446-4.646,14.741-0.797C1266.117,107.664,1266.48,114.264,1262.634,118.555"/>
	
		<ellipse transform="matrix(0.7445 0.6676 -0.6676 0.7445 395.0579 -809.212)" fill="none" stroke="#3A3A3A" stroke-miterlimit="10" cx="1254.858" cy="111.583" rx="10.443" ry="10.434"/>
	<polygon fill="#3A3A3A" points="1249.955,115.127 1253.044,111.682 1249.596,108.588 1251.311,106.676 1254.759,109.768 
		1257.85,106.322 1259.764,108.039 1256.674,111.484 1260.123,114.576 1258.408,116.49 1254.957,113.396 1251.869,116.844 	"/>
	<path fill="#231815" d="M1259.449,108.057l-2.793,3.113l-0.296,0.332l0.332,0.297l3.117,2.795l-1.418,1.582l-3.118-2.797
		l-0.331-0.295l-0.298,0.33l-2.793,3.115l-1.581-1.42l2.791-3.115l0.297-0.33l-0.331-0.299l-3.117-2.795l1.417-1.58l3.117,2.795
		l0.332,0.297l0.298-0.332l2.793-3.113L1259.449,108.057z M1260.078,108.021l-2.246-2.014l-3.089,3.445l-3.449-3.092l-2.012,2.244
		l3.447,3.092l-3.089,3.445l2.246,2.014l3.09-3.445l3.448,3.092l2.012-2.244l-3.448-3.092L1260.078,108.021z"/>
</g>
</svg>
