<?xml version="1.0" encoding="utf-8"?>
<!-- Generator: Adobe Illustrator 19.0.0, SVG Export Plug-In . SVG Version: 6.00 Build 0)  -->
<svg version="1.1" id="图层_1" xmlns="http://www.w3.org/2000/svg" xmlns:xlink="http://www.w3.org/1999/xlink" x="0px" y="0px"
	 width="1275.6px" height="126px" viewBox="0 0 1275.6 126" style="enable-background:new 0 0 1275.6 126;" xml:space="preserve">
<style type="text/css">
	.st0{fill:#44626D;stroke:#1C1C1C;stroke-width:1.7008;stroke-miterlimit:10;}
	.st1{fill:#333333;}
	.st2{fill:#232323;}
	.st3{fill:#5F7983;stroke:#1C1C1C;stroke-width:1.7008;stroke-miterlimit:10;}
	.st4{fill:none;}
	.st5{fill:#44626D;stroke:#1C1C1C;stroke-width:0.7087;stroke-miterlimit:10;}
	.st6{fill:#548896;stroke:#1C1C1C;stroke-width:0.7087;stroke-miterlimit:10;}
	.st7{fill:#191921;}
	.st8{fill:#44626D;stroke:#1C1C1C;stroke-miterlimit:10;}
	.st9{fill:#1C1C1C;stroke:#1C1C1C;stroke-miterlimit:10;}
	.st10{fill:#FFFFFF;}
	.st11{font-family:'Helvetica-Bold';}
	.st12{font-size:12px;}
</style>
<rect id="XMLID_14268_" x="0.9" y="0.9" class="st0" width="1273.9" height="124.3"/>
<g id="XMLID_14365_">
	<rect id="XMLID_16_" x="14.3" y="33.7" class="st1" width="1244.9" height="79.6"/>
	<path id="XMLID_13_" class="st2" d="M1257.9,35.2V112H15.8V35.2H1257.9 M1260.7,32.3H12.9v82.5h1247.8V32.3L1260.7,32.3z"/>
</g>
<rect id="XMLID_14366_" x="16.1" y="98.3" class="st3" width="1242.7" height="15.1"/>
<g id="XMLID_14292_">
	<g id="XMLID_14245_">
		<polygon id="XMLID_14369_" class="st4" points="774.3,69.6 752.3,32.7 763.9,13.3 709.2,13.3 720.8,32.8 697.2,69.6 720.8,107 
			717.8,112 755.6,112 752.3,106.5 		"/>
		<polygon id="XMLID_14370_" class="st4" points="560.2,69.6 583.9,32.7 572.3,13.3 505.1,13.3 493.4,32.7 515.4,69.6 493.4,106.5 
			496.7,112 581,112 583.9,107.1 		"/>
		<polygon id="XMLID_14371_" class="st4" points="510.5,69.6 488.5,32.7 500.1,13.3 445.4,13.3 457,32.8 433.4,69.6 457,107 
			454,112 491.8,112 488.5,106.5 		"/>
		<polygon id="XMLID_14372_" class="st4" points="692.1,69.6 715.8,32.7 704.2,13.3 637,13.3 625.3,32.7 647.3,69.6 625.3,106.5 
			628.6,112 712.9,112 715.8,107.1 		"/>
		<polygon id="XMLID_14374_" class="st4" points="906.2,69.6 884.2,32.7 895.8,13.3 841.1,13.3 852.7,32.8 829.1,69.6 852.7,107 
			849.7,112 887.5,112 884.2,106.5 		"/>
		<polygon id="XMLID_14375_" class="st4" points="642.4,69.6 620.4,32.7 632,13.3 577.3,13.3 588.9,32.8 565.3,69.6 588.9,107 
			585.9,112 623.7,112 620.4,106.5 		"/>
		<polygon id="XMLID_14376_" class="st4" points="246.7,69.6 224.7,32.7 236.3,13.3 181.6,13.3 193.3,32.8 169.6,69.6 193.3,107 
			190.2,112 228,112 224.7,106.5 		"/>
		<polygon id="XMLID_14381_" class="st4" points="164.6,69.6 188.3,32.7 176.7,13.3 109.4,13.3 97.8,32.7 119.8,69.6 97.8,106.5 
			101,112 185.3,112 188.3,107.1 		"/>
		<polygon id="XMLID_14382_" class="st4" points="114.8,69.6 92.8,32.7 104.4,13.3 49.7,13.3 61.4,32.8 37.7,69.6 61.4,107 
			58.4,112 96.1,112 92.8,106.5 		"/>
		<polygon id="XMLID_14383_" class="st4" points="378.6,69.6 356.6,32.7 368.2,13.3 313.5,13.3 325.1,32.8 301.5,69.6 325.1,107 
			322.1,112 359.9,112 356.6,106.5 		"/>
		<polygon id="XMLID_14384_" class="st4" points="428.4,69.6 452,32.7 440.4,13.3 373.2,13.3 361.6,32.7 383.6,69.6 361.6,106.5 
			364.8,112 449.1,112 452,107.1 		"/>
		<polygon id="XMLID_14385_" class="st4" points="296.5,69.6 320.1,32.7 308.6,13.3 241.3,13.3 229.7,32.7 251.7,69.6 229.7,106.5 
			232.9,112 317.2,112 320.1,107.1 		"/>
		<polygon id="XMLID_14386_" class="st4" points="824,69.6 847.7,32.7 836.1,13.3 768.9,13.3 757.2,32.7 779.2,69.6 757.2,106.5 
			760.5,112 844.8,112 847.7,107.1 		"/>
		<polygon id="XMLID_14387_" class="st4" points="1200.6,69.6 1224.3,32.7 1212.7,13.3 1164.5,13.3 1152.9,32.7 1174.9,69.6 
			1152.9,106.5 1156.2,112 1221.3,112 1224.3,107.1 		"/>
		<polygon id="XMLID_14388_" class="st4" points="1087.8,69.6 1111.5,32.7 1099.9,13.3 1032.6,13.3 1021,32.7 1043,69.6 1021,106.5 
			1024.3,112 1108.5,112 1111.5,107.1 		"/>
		<polygon id="XMLID_14389_" class="st4" points="1038.1,69.6 1016.1,32.7 1027.7,13.3 973,13.3 984.6,32.8 961,69.6 984.6,107 
			981.6,112 1019.4,112 1016.1,106.5 		"/>
		<polygon id="XMLID_14390_" class="st4" points="1170,69.6 1148,32.7 1159.6,13.3 1104.9,13.3 1116.5,32.8 1092.9,69.6 1116.5,107 
			1113.5,112 1151.2,112 1148,106.5 		"/>
		<polygon id="XMLID_14391_" class="st4" points="955.9,69.6 979.6,32.7 968,13.3 900.8,13.3 889.1,32.7 911.1,69.6 889.1,106.5 
			892.4,112 976.6,112 979.6,107.1 		"/>
		<polygon id="XMLID_14392_" class="st5" points="1229.3,107 1205.6,69.6 1229.3,32.8 1217.6,13.3 1212.7,13.3 1224.3,32.7 
			1200.6,69.6 1224.3,107.1 1221.3,112 1226.3,112 		"/>
		<polygon id="XMLID_14397_" class="st5" points="37.7,69.6 61.4,32.8 49.7,13.3 44.8,13.3 56.4,32.7 32.7,69.6 56.4,107.1 
			53.4,112 58.4,112 61.4,107 		"/>
		<polygon id="XMLID_14399_" class="st5" points="119.8,69.6 97.8,32.7 109.4,13.3 104.4,13.3 92.8,32.7 114.8,69.6 92.8,106.5 
			96.1,112 101,112 97.8,106.5 		"/>
		<polygon id="XMLID_14402_" class="st5" points="169.6,69.6 193.3,32.8 181.6,13.3 176.7,13.3 188.3,32.7 164.6,69.6 188.3,107.1 
			185.3,112 190.2,112 193.3,107 		"/>
		<polygon id="XMLID_14406_" class="st5" points="251.7,69.6 229.7,32.7 241.3,13.3 236.3,13.3 224.7,32.7 246.7,69.6 224.7,106.5 
			228,112 232.9,112 229.7,106.5 		"/>
		<polygon id="XMLID_14407_" class="st5" points="301.5,69.6 325.1,32.8 313.5,13.3 308.6,13.3 320.1,32.7 296.5,69.6 320.1,107.1 
			317.2,112 322.1,112 325.1,107 		"/>
		<polygon id="XMLID_14412_" class="st5" points="383.6,69.6 361.6,32.7 373.2,13.3 368.2,13.3 356.6,32.7 378.6,69.6 356.6,106.5 
			359.9,112 364.8,112 361.6,106.5 		"/>
		<polygon id="XMLID_14415_" class="st5" points="433.4,69.6 457,32.8 445.4,13.3 440.4,13.3 452,32.7 428.4,69.6 452,107.1 
			449.1,112 454,112 457,107 		"/>
		<polygon id="XMLID_14417_" class="st5" points="515.4,69.6 493.4,32.7 505.1,13.3 500.1,13.3 488.5,32.7 510.5,69.6 488.5,106.5 
			491.8,112 496.7,112 493.4,106.5 		"/>
		<polygon id="XMLID_14421_" class="st5" points="565.3,69.6 588.9,32.8 577.3,13.3 572.3,13.3 583.9,32.7 560.2,69.6 583.9,107.1 
			581,112 585.9,112 588.9,107 		"/>
		<polygon id="XMLID_14423_" class="st5" points="647.3,69.6 625.3,32.7 637,13.3 632,13.3 620.4,32.7 642.4,69.6 620.4,106.5 
			623.7,112 628.6,112 625.3,106.5 		"/>
		<polygon id="XMLID_14426_" class="st5" points="697.2,69.6 720.8,32.8 709.2,13.3 704.2,13.3 715.8,32.7 692.1,69.6 715.8,107.1 
			712.9,112 717.8,112 720.8,107 		"/>
		<polygon id="XMLID_14430_" class="st5" points="779.2,69.6 757.2,32.7 768.9,13.3 763.9,13.3 752.3,32.7 774.3,69.6 752.3,106.5 
			755.6,112 760.5,112 757.2,106.5 		"/>
		<polygon id="XMLID_14431_" class="st5" points="829.1,69.6 852.7,32.8 841.1,13.3 836.1,13.3 847.7,32.7 824,69.6 847.7,107.1 
			844.8,112 849.7,112 852.7,107 		"/>
		<polygon id="XMLID_14436_" class="st5" points="911.1,69.6 889.1,32.7 900.8,13.3 895.8,13.3 884.2,32.7 906.2,69.6 884.2,106.5 
			887.5,112 892.4,112 889.1,106.5 		"/>
		<polygon id="XMLID_14438_" class="st5" points="961,69.6 984.6,32.8 973,13.3 968,13.3 979.6,32.7 955.9,69.6 979.6,107.1 
			976.6,112 981.6,112 984.6,107 		"/>
		<polygon id="XMLID_14441_" class="st5" points="1043,69.6 1021,32.7 1032.6,13.3 1027.7,13.3 1016.1,32.7 1038.1,69.6 
			1016.1,106.5 1019.4,112 1024.3,112 1021,106.5 		"/>
		<polygon id="XMLID_14443_" class="st5" points="1092.9,69.6 1116.5,32.8 1104.9,13.3 1099.9,13.3 1111.5,32.7 1087.8,69.6 
			1111.5,107.1 1108.5,112 1113.5,112 1116.5,107 		"/>
		<polygon id="XMLID_14447_" class="st5" points="1174.9,69.6 1152.9,32.7 1164.5,13.3 1159.6,13.3 1148,32.7 1170,69.6 1148,106.5 
			1151.2,112 1156.2,112 1152.9,106.5 		"/>
	</g>
	<g id="XMLID_14291_">
		<rect id="XMLID_14316_" x="16.1" y="34.8" class="st6" width="1242.7" height="4.2"/>
		<rect id="XMLID_14315_" x="16.1" y="47.1" class="st6" width="1242.7" height="4.2"/>
		<rect id="XMLID_14314_" x="16.1" y="59.4" class="st6" width="1242.7" height="4.2"/>
		<rect id="XMLID_14313_" x="16.1" y="71.7" class="st6" width="1242.7" height="4.2"/>
		<rect id="XMLID_14312_" x="16.1" y="83.9" class="st6" width="1242.7" height="4.2"/>
		<rect id="XMLID_14311_" x="16.1" y="96.2" class="st6" width="1242.7" height="4.2"/>
		<rect id="XMLID_14310_" x="16.1" y="108.5" class="st6" width="1242.7" height="4.2"/>
	</g>
</g>
<rect id="XMLID_14290_" x="0.9" y="1.3" class="st7" width="258.3" height="52.2"/>
<g id="XMLID_14293_">
	<path id="XMLID_14323_" class="st8" d="M194.7,113.4H41.4V92.5c0-4.7,3.8-8.5,8.5-8.5h136.3c4.7,0,8.5,3.8,8.5,8.5V113.4z"/>
	<path id="XMLID_14294_" class="st9" d="M191.9,113.4H44.2V92.5c0-3.1,2.5-5.7,5.7-5.7h136.4c3.1,0,5.7,2.5,5.7,5.7V113.4z"/>
</g>
<g id="XMLID_14332_">
	<path id="XMLID_14334_" class="st8" d="M893.6,28.5h299.2v62c0,4.7-3.8,8.5-8.5,8.5H902.1c-4.7,0-8.5-3.8-8.5-8.5V28.5z"/>
	<path id="XMLID_14333_" class="st9" d="M896.4,28.5h293.7v61.9c0,3.1-2.5,5.7-5.7,5.7H902.1c-3.1,0-5.7-2.5-5.7-5.7V28.5z"/>
</g>
<rect id="XMLID_14289_" x="260" y="1.3" class="st7" width="1014.8" height="29.3"/>
<text id="XMLID_14269_" transform="matrix(1 0 0 1 1121.6407 23.6669)" class="st10 st11 st12">Cisco  2900  Series</text>
</svg>
