<?xml version="1.0" encoding="utf-8"?>
<!-- Generator: Adobe Illustrator 16.0.0, SVG Export Plug-In . SVG Version: 6.00 Build 0)  -->
<!DOCTYPE svg PUBLIC "-//W3C//DTD SVG 1.1//EN" "http://www.w3.org/Graphics/SVG/1.1/DTD/svg11.dtd">
<svg version="1.1" id="图层_1" xmlns="http://www.w3.org/2000/svg" xmlns:xlink="http://www.w3.org/1999/xlink" x="0px" y="0px"
	 width="1275.59px" height="126.14px" viewBox="0 0 1275.59 126.14" enable-background="new 0 0 1275.59 126.14"
	 xml:space="preserve">
<g>
	<rect fill="#E2DDD6" width="1275.59" height="126.143"/>
</g>
<g>
	<rect y="0.024" fill="#BEBEB1" width="42.707" height="126.142"/>
	<g>
		<g>
			<path fill="#AFAFAF" d="M31.282,28.174c-4.911,5.478-13.34,5.934-18.824,1.018c-5.48-4.916-5.943-13.344-1.034-18.82
				c4.912-5.479,13.34-5.936,18.824-1.02C35.729,14.27,36.194,22.696,31.282,28.174"/>
			<path fill="none" stroke="#949394" stroke-miterlimit="10" d="M31.282,28.174c-4.911,5.478-13.34,5.934-18.824,1.018
				c-5.48-4.916-5.943-13.344-1.034-18.82c4.912-5.479,13.34-5.936,18.824-1.02C35.729,14.27,36.194,22.696,31.282,28.174z"/>
			<g>
				<g>
					<defs>
						
							<rect id="SVGID_1_" x="8.781" y="6.714" transform="matrix(-0.7446 -0.6676 0.6676 -0.7446 24.3876 47.8749)" width="25.144" height="25.114"/>
					</defs>
					<clipPath id="SVGID_2_">
						<use xlink:href="#SVGID_1_"  overflow="visible"/>
					</clipPath>
					<path clip-path="url(#SVGID_2_)" fill="#BFBFBF" d="M30.71,27.663c-4.628,5.162-12.57,5.591-17.739,0.958
						c-5.168-4.635-5.605-12.576-0.978-17.738c4.631-5.163,12.573-5.594,17.743-0.959C34.904,14.557,35.341,22.5,30.71,27.663"/>
					<path clip-path="url(#SVGID_2_)" fill="#C1C1C1" d="M30.49,27.466c-4.521,5.04-12.277,5.458-17.321,0.937
						c-5.045-4.525-5.472-12.281-0.953-17.322c4.522-5.041,12.276-5.463,17.323-0.937C34.584,14.667,35.01,22.422,30.49,27.466"/>
					<path clip-path="url(#SVGID_2_)" fill="#C3C4C4" d="M30.27,27.268c-4.41,4.92-11.979,5.329-16.904,0.914
						c-4.925-4.417-5.341-11.984-0.93-16.904c4.413-4.921,11.981-5.329,16.906-0.914C34.268,14.778,34.682,22.348,30.27,27.268"/>
					<path clip-path="url(#SVGID_2_)" fill="#C5C6C6" d="M30.049,27.07c-4.301,4.799-11.683,5.198-16.487,0.891
						c-4.804-4.307-5.21-11.688-0.907-16.486c4.304-4.8,11.686-5.197,16.489-0.891C33.947,14.889,34.353,22.271,30.049,27.07"/>
					<path clip-path="url(#SVGID_2_)" fill="#C7C9C9" d="M29.83,26.874c-4.191,4.674-11.39,5.065-16.07,0.867
						c-4.682-4.197-5.075-11.394-0.886-16.067c4.195-4.68,11.393-5.068,16.074-0.871S34.023,22.195,29.83,26.874"/>
					<path clip-path="url(#SVGID_2_)" fill="#CACBCB" d="M29.609,26.676c-4.085,4.555-11.092,4.936-15.653,0.847
						c-4.559-4.089-4.943-11.099-0.86-15.653c4.085-4.557,11.093-4.936,15.655-0.847C33.312,15.111,33.695,22.119,29.609,26.676"/>
					<path clip-path="url(#SVGID_2_)" fill="#CCCECE" d="M29.391,26.479c-3.975,4.434-10.798,4.802-15.237,0.822
						C9.714,23.32,9.34,16.5,13.315,12.066c3.977-4.434,10.8-4.804,15.237-0.824C32.992,15.223,33.368,22.043,29.391,26.479"/>
					<path clip-path="url(#SVGID_2_)" fill="#CED0D0" d="M29.169,26.281c-3.865,4.312-10.502,4.67-14.819,0.801
						c-4.314-3.871-4.681-10.508-0.815-14.819c3.868-4.312,10.504-4.671,14.819-0.801C32.671,15.333,33.036,21.97,29.169,26.281"/>
					<path clip-path="url(#SVGID_2_)" fill="#D1D3D3" d="M28.95,26.084c-3.757,4.189-10.204,4.539-14.402,0.778
						c-4.193-3.763-4.549-10.21-0.793-14.4c3.76-4.192,10.208-4.542,14.405-0.78C32.355,15.443,32.709,21.891,28.95,26.084"/>
					<path clip-path="url(#SVGID_2_)" fill="#D3D5D5" d="M28.729,25.887c-3.647,4.07-9.909,4.408-13.982,0.754
						c-4.076-3.652-4.418-9.912-0.769-13.982c3.648-4.07,9.911-4.408,13.983-0.754C32.035,15.555,32.379,21.814,28.729,25.887"/>
				</g>
			</g>
			<polygon fill="#5F5F5E" points="15.091,23.797 19.036,19.397 14.632,15.447 16.822,13.005 21.226,16.954 25.173,12.555 
				27.617,14.746 23.67,19.145 28.075,23.095 25.886,25.538 21.479,21.589 17.536,25.99 			"/>
			<path fill="#231815" d="M27.215,14.77l-3.566,3.976l-0.377,0.423l0.424,0.38l3.98,3.568l-1.81,2.021l-3.982-3.57l-0.423-0.378
				l-0.38,0.422l-3.566,3.978l-2.019-1.813l3.564-3.978l0.379-0.422l-0.423-0.381l-3.981-3.571l1.81-2.017l3.98,3.569l0.423,0.378
				l0.381-0.423l3.566-3.976L27.215,14.77z M28.018,14.727l-2.869-2.572l-3.944,4.397l-4.404-3.947l-2.569,2.866l4.402,3.947
				l-3.944,4.398l2.868,2.574l3.945-4.401l4.403,3.949l2.569-2.868l-4.403-3.945L28.018,14.727z"/>
		</g>
		<g>
			<path fill="#AFAFAF" d="M31.282,113.545c-4.911,5.479-13.34,5.934-18.824,1.018c-5.48-4.916-5.943-13.344-1.034-18.82
				c4.912-5.479,13.34-5.936,18.824-1.02C35.729,99.641,36.194,108.068,31.282,113.545"/>
			<path fill="none" stroke="#949394" stroke-miterlimit="10" d="M31.282,113.545c-4.911,5.479-13.34,5.934-18.824,1.018
				c-5.48-4.916-5.943-13.344-1.034-18.82c4.912-5.479,13.34-5.936,18.824-1.02C35.729,99.641,36.194,108.068,31.282,113.545z"/>
			<g>
				<g>
					<defs>
						
							<rect id="SVGID_3_" x="8.781" y="92.085" transform="matrix(-0.7446 -0.6676 0.6676 -0.7446 -32.6027 196.8097)" width="25.144" height="25.114"/>
					</defs>
					<clipPath id="SVGID_4_">
						<use xlink:href="#SVGID_3_"  overflow="visible"/>
					</clipPath>
					<path clip-path="url(#SVGID_4_)" fill="#BFBFBF" d="M30.71,113.035c-4.628,5.162-12.57,5.59-17.739,0.957
						c-5.168-4.635-5.605-12.576-0.978-17.738c4.631-5.162,12.573-5.594,17.743-0.959C34.904,99.928,35.341,107.871,30.71,113.035"
						/>
					<path clip-path="url(#SVGID_4_)" fill="#C1C1C1" d="M30.49,112.838c-4.521,5.039-12.277,5.457-17.321,0.936
						c-5.045-4.525-5.472-12.281-0.953-17.322c4.522-5.041,12.276-5.463,17.323-0.936C34.584,100.039,35.01,107.793,30.49,112.838"
						/>
					<path clip-path="url(#SVGID_4_)" fill="#C3C4C4" d="M30.27,112.639c-4.41,4.92-11.979,5.33-16.904,0.914
						c-4.925-4.416-5.341-11.984-0.93-16.904c4.413-4.92,11.981-5.328,16.906-0.914C34.268,100.15,34.682,107.719,30.27,112.639"/>
					<path clip-path="url(#SVGID_4_)" fill="#C5C6C6" d="M30.049,112.441c-4.301,4.799-11.683,5.199-16.487,0.891
						c-4.804-4.307-5.21-11.688-0.907-16.486c4.304-4.799,11.686-5.197,16.489-0.891C33.947,100.26,34.353,107.643,30.049,112.441"
						/>
					<path clip-path="url(#SVGID_4_)" fill="#C7C9C9" d="M29.83,112.246c-4.191,4.674-11.39,5.064-16.07,0.867
						c-4.682-4.197-5.075-11.395-0.886-16.068c4.195-4.68,11.393-5.068,16.074-0.871S34.023,107.566,29.83,112.246"/>
					<path clip-path="url(#SVGID_4_)" fill="#CACBCB" d="M29.609,112.047c-4.085,4.555-11.092,4.936-15.653,0.848
						c-4.559-4.09-4.943-11.1-0.86-15.654c4.085-4.557,11.093-4.936,15.655-0.846C33.312,100.482,33.695,107.49,29.609,112.047"/>
					<path clip-path="url(#SVGID_4_)" fill="#CCCECE" d="M29.391,111.85c-3.975,4.434-10.798,4.803-15.237,0.822
						s-4.814-10.801-0.838-15.234c3.977-4.434,10.8-4.803,15.237-0.824C32.992,100.594,33.368,107.414,29.391,111.85"/>
					<path clip-path="url(#SVGID_4_)" fill="#CED0D0" d="M29.169,111.652c-3.865,4.313-10.502,4.67-14.819,0.801
						c-4.314-3.871-4.681-10.508-0.815-14.818c3.868-4.313,10.504-4.672,14.819-0.801C32.671,100.705,33.036,107.342,29.169,111.652
						"/>
					<path clip-path="url(#SVGID_4_)" fill="#D1D3D3" d="M28.95,111.455c-3.757,4.189-10.204,4.539-14.402,0.779
						c-4.193-3.764-4.549-10.211-0.793-14.4c3.76-4.193,10.208-4.543,14.405-0.781C32.355,100.814,32.709,107.262,28.95,111.455"/>
					<path clip-path="url(#SVGID_4_)" fill="#D3D5D5" d="M28.729,111.258c-3.647,4.07-9.909,4.408-13.982,0.754
						c-4.076-3.652-4.418-9.912-0.769-13.982c3.648-4.07,9.911-4.408,13.983-0.754C32.035,100.926,32.379,107.186,28.729,111.258"/>
				</g>
			</g>
			<polygon fill="#5F5F5E" points="15.091,109.168 19.036,104.77 14.632,100.818 16.822,98.377 21.226,102.326 25.173,97.926 
				27.617,100.117 23.67,104.516 28.075,108.467 25.886,110.91 21.479,106.961 17.536,111.361 			"/>
			<path fill="#231815" d="M27.215,100.141l-3.566,3.977l-0.377,0.422l0.424,0.381l3.98,3.568l-1.81,2.02l-3.982-3.57l-0.423-0.377
				l-0.38,0.422l-3.566,3.977l-2.019-1.813l3.564-3.977l0.379-0.422l-0.423-0.381l-3.981-3.572l1.81-2.016l3.98,3.568l0.423,0.379
				l0.381-0.424l3.566-3.975L27.215,100.141z M28.018,100.098l-2.869-2.572l-3.944,4.398l-4.404-3.947l-2.569,2.865l4.402,3.947
				l-3.944,4.398l2.868,2.574l3.945-4.4l4.403,3.949l2.569-2.869l-4.403-3.945L28.018,100.098z"/>
		</g>
	</g>
</g>
<g>
	<rect x="56.83" y="19.315" fill="#383838" width="9.516" height="9.516"/>
	<rect x="56.83" y="34.924" fill="#383838" width="9.516" height="9.516"/>
	<rect x="56.83" y="50.533" fill="#383838" width="9.516" height="9.516"/>
	<rect x="56.83" y="66.143" fill="#383838" width="9.516" height="9.516"/>
	<rect x="56.83" y="81.75" fill="#383838" width="9.516" height="9.516"/>
	<rect x="56.83" y="97.359" fill="#383838" width="9.516" height="9.516"/>
</g>
<g>
	<rect x="343.764" y="19.315" fill="#383838" width="9.516" height="9.516"/>
	<rect x="343.764" y="34.924" fill="#383838" width="9.516" height="9.516"/>
	<rect x="343.764" y="50.533" fill="#383838" width="9.516" height="9.516"/>
	<rect x="343.764" y="66.143" fill="#383838" width="9.516" height="9.516"/>
	<rect x="343.764" y="81.75" fill="#383838" width="9.516" height="9.516"/>
	<rect x="343.764" y="97.359" fill="#383838" width="9.516" height="9.516"/>
</g>
<g>
	<g>
		<rect x="830.172" y="80.951" fill="#383838" width="9.516" height="9.516"/>
		<rect x="844.115" y="80.951" fill="#383838" width="9.516" height="9.516"/>
		<rect x="858.059" y="80.951" fill="#383838" width="9.516" height="9.516"/>
		<rect x="872" y="80.951" fill="#383838" width="9.516" height="9.516"/>
		<rect x="885.943" y="80.951" fill="#383838" width="9.516" height="9.516"/>
		<rect x="899.887" y="80.951" fill="#383838" width="9.516" height="9.516"/>
		<rect x="913.83" y="80.951" fill="#383838" width="9.516" height="9.516"/>
		<rect x="927.771" y="80.951" fill="#383838" width="9.516" height="9.516"/>
		<rect x="941.715" y="80.951" fill="#383838" width="9.516" height="9.516"/>
		<rect x="955.658" y="80.951" fill="#383838" width="9.516" height="9.516"/>
		<rect x="969.6" y="80.951" fill="#383838" width="9.516" height="9.516"/>
		<rect x="983.543" y="80.951" fill="#383838" width="9.516" height="9.516"/>
		<rect x="997.486" y="80.951" fill="#383838" width="9.516" height="9.516"/>
		<rect x="1011.43" y="80.951" fill="#383838" width="9.516" height="9.516"/>
		<rect x="1025.371" y="80.951" fill="#383838" width="9.516" height="9.516"/>
		<rect x="1039.314" y="80.951" fill="#383838" width="9.516" height="9.516"/>
		<rect x="1053.258" y="80.951" fill="#383838" width="9.516" height="9.516"/>
		<rect x="1067.201" y="80.951" fill="#383838" width="9.516" height="9.516"/>
		<rect x="1081.143" y="80.951" fill="#383838" width="9.516" height="9.516"/>
		<rect x="1095.086" y="80.951" fill="#383838" width="9.516" height="9.516"/>
		<rect x="1109.029" y="80.951" fill="#383838" width="9.516" height="9.516"/>
		<rect x="1122.971" y="80.951" fill="#383838" width="9.516" height="9.516"/>
		<rect x="1136.914" y="80.951" fill="#383838" width="9.516" height="9.516"/>
		<rect x="1150.857" y="80.951" fill="#383838" width="9.516" height="9.516"/>
		<rect x="1164.801" y="80.951" fill="#383838" width="9.516" height="9.516"/>
		<rect x="1178.742" y="80.951" fill="#383838" width="9.516" height="9.516"/>
		<rect x="1192.686" y="80.951" fill="#383838" width="9.516" height="9.516"/>
		<rect x="1206.627" y="80.951" fill="#383838" width="9.516" height="9.516"/>
		<rect x="1220.57" y="80.951" fill="#383838" width="9.516" height="9.516"/>
		<rect x="1234.514" y="80.951" fill="#383838" width="9.516" height="9.516"/>
	</g>
	<g>
		<rect x="830.172" y="94.191" fill="#6E6E6D" width="9.516" height="9.516"/>
		<rect x="844.115" y="94.191" fill="#6E6E6D" width="9.516" height="9.516"/>
		<rect x="858.059" y="94.191" fill="#6E6E6D" width="9.516" height="9.516"/>
		<rect x="872" y="94.191" fill="#6E6E6D" width="9.516" height="9.516"/>
		<rect x="885.943" y="94.191" fill="#6E6E6D" width="9.516" height="9.516"/>
		<rect x="899.887" y="94.191" fill="#6E6E6D" width="9.516" height="9.516"/>
		<rect x="913.83" y="94.191" fill="#6E6E6D" width="9.516" height="9.516"/>
		<rect x="927.771" y="94.191" fill="#6E6E6D" width="9.516" height="9.516"/>
		<rect x="941.715" y="94.191" fill="#6E6E6D" width="9.516" height="9.516"/>
		<rect x="955.658" y="94.191" fill="#6E6E6D" width="9.516" height="9.516"/>
		<rect x="969.6" y="94.191" fill="#6E6E6D" width="9.516" height="9.516"/>
		<rect x="983.543" y="94.191" fill="#6E6E6D" width="9.516" height="9.516"/>
		<rect x="997.486" y="94.191" fill="#6E6E6D" width="9.516" height="9.516"/>
		<rect x="1011.43" y="94.191" fill="#6E6E6D" width="9.516" height="9.516"/>
		<rect x="1025.371" y="94.191" fill="#6E6E6D" width="9.516" height="9.516"/>
		<rect x="1039.314" y="94.191" fill="#6E6E6D" width="9.516" height="9.516"/>
		<rect x="1053.258" y="94.191" fill="#6E6E6D" width="9.516" height="9.516"/>
		<rect x="1067.201" y="94.191" fill="#6E6E6D" width="9.516" height="9.516"/>
		<rect x="1081.143" y="94.191" fill="#6E6E6D" width="9.516" height="9.516"/>
		<rect x="1095.086" y="94.191" fill="#6E6E6D" width="9.516" height="9.516"/>
		<rect x="1109.029" y="94.191" fill="#6E6E6D" width="9.516" height="9.516"/>
		<rect x="1122.971" y="94.191" fill="#6E6E6D" width="9.516" height="9.516"/>
		<rect x="1136.914" y="94.191" fill="#6E6E6D" width="9.516" height="9.516"/>
		<rect x="1150.857" y="94.191" fill="#6E6E6D" width="9.516" height="9.516"/>
		<rect x="1164.801" y="94.191" fill="#6E6E6D" width="9.516" height="9.516"/>
		<rect x="1178.742" y="94.191" fill="#6E6E6D" width="9.516" height="9.516"/>
		<rect x="1192.686" y="94.191" fill="#6E6E6D" width="9.516" height="9.516"/>
		<rect x="1206.627" y="94.191" fill="#6E6E6D" width="9.516" height="9.516"/>
		<rect x="1220.57" y="94.191" fill="#6E6E6D" width="9.516" height="9.516"/>
		<rect x="1234.514" y="94.191" fill="#6E6E6D" width="9.516" height="9.516"/>
	</g>
</g>
<g>
	<rect x="668.729" y="19.315" fill="#383838" width="9.516" height="9.516"/>
	<rect x="668.729" y="34.924" fill="#383838" width="9.516" height="9.516"/>
	<rect x="668.729" y="50.533" fill="#383838" width="9.516" height="9.516"/>
	<rect x="668.729" y="66.143" fill="#383838" width="9.516" height="9.516"/>
	<rect x="668.729" y="81.75" fill="#383838" width="9.516" height="9.516"/>
	<rect x="668.729" y="97.359" fill="#383838" width="9.516" height="9.516"/>
</g>
<rect x="360.767" y="19.315" fill="#383838" width="9.516" height="9.516"/>
<rect x="360.767" y="34.924" fill="#383838" width="9.516" height="9.516"/>
<rect x="360.767" y="50.533" fill="#383838" width="9.516" height="9.516"/>
<rect x="360.767" y="66.143" fill="#383838" width="9.516" height="9.516"/>
<rect x="377.771" y="19.315" fill="#383838" width="9.516" height="9.516"/>
<rect x="377.771" y="34.924" fill="#383838" width="9.516" height="9.516"/>
<rect x="377.771" y="50.533" fill="#383838" width="9.516" height="9.516"/>
<rect x="377.771" y="66.143" fill="#383838" width="9.516" height="9.516"/>
<rect x="394.773" y="19.315" fill="#383838" width="9.516" height="9.516"/>
<rect x="394.773" y="34.924" fill="#383838" width="9.516" height="9.516"/>
<rect x="394.773" y="50.533" fill="#383838" width="9.516" height="9.516"/>
<rect x="394.773" y="66.143" fill="#383838" width="9.516" height="9.516"/>
<rect x="411.778" y="19.315" fill="#383838" width="9.516" height="9.516"/>
<rect x="411.778" y="34.924" fill="#383838" width="9.516" height="9.516"/>
<rect x="411.778" y="50.533" fill="#383838" width="9.516" height="9.516"/>
<rect x="428.781" y="19.315" fill="#383838" width="9.516" height="9.516"/>
<rect x="428.781" y="34.924" fill="#383838" width="9.516" height="9.516"/>
<rect x="428.781" y="50.533" fill="#383838" width="9.516" height="9.516"/>
<rect x="445.785" y="19.315" fill="#383838" width="9.516" height="9.516"/>
<rect x="445.785" y="34.924" fill="#383838" width="9.516" height="9.516"/>
<rect x="462.789" y="19.315" fill="#383838" width="9.516" height="9.516"/>
<rect x="462.789" y="34.924" fill="#383838" width="9.516" height="9.516"/>
<g>
	<circle fill="#383838" cx="22.355" cy="61.146" r="4.5"/>
	<circle fill="#383838" cx="22.355" cy="50.587" r="4.5"/>
</g>
<g>
	<path fill="#A6A6A5" d="M74.405,94.254c0,2.76,2.238,5,5,5h243.821c2.761,0,5-2.24,5-5V19.048c0-2.761-2.239-5-5-5H79.405
		c-2.762,0-5,2.239-5,5V94.254z"/>
</g>
<g>
	<g>
		<path fill="#333333" d="M121.948,28.242c0,3.79-4.205,6.864-9.392,6.864c-5.188,0-9.393-3.074-9.393-6.864"/>
		<path fill="#333333" d="M157.452,28.242c0,3.79-4.205,6.864-9.393,6.864s-9.392-3.074-9.392-6.864"/>
		<path fill="#333333" d="M192.956,28.242c0,3.79-4.205,6.864-9.393,6.864s-9.392-3.074-9.392-6.864"/>
		<path fill="#333333" d="M228.459,28.242c0,3.79-4.206,6.864-9.392,6.864c-5.188,0-9.393-3.074-9.393-6.864"/>
		<path fill="#333333" d="M263.962,28.242c0,3.79-4.205,6.864-9.391,6.864c-5.188,0-9.393-3.074-9.393-6.864"/>
		<path fill="#333333" d="M299.467,28.242c0,3.79-4.205,6.864-9.393,6.864s-9.392-3.074-9.392-6.864"/>
	</g>
	<g>
		<path fill="#333333" d="M121.948,41.008c0,3.79-4.205,6.864-9.392,6.864c-5.188,0-9.393-3.074-9.393-6.864"/>
		<path fill="#333333" d="M157.452,41.008c0,3.79-4.205,6.864-9.393,6.864s-9.392-3.074-9.392-6.864"/>
		<path fill="#333333" d="M192.956,41.008c0,3.79-4.205,6.864-9.393,6.864s-9.392-3.074-9.392-6.864"/>
		<path fill="#333333" d="M228.459,41.008c0,3.79-4.206,6.864-9.392,6.864c-5.188,0-9.393-3.074-9.393-6.864"/>
		<path fill="#333333" d="M263.962,41.008c0,3.79-4.205,6.864-9.391,6.864c-5.188,0-9.393-3.074-9.393-6.864"/>
		<path fill="#333333" d="M299.467,41.008c0,3.79-4.205,6.864-9.393,6.864s-9.392-3.074-9.392-6.864"/>
	</g>
</g>
<g>
	<path fill="#717070" d="M90.173,63.974c-3.259,3.635-8.851,3.938-12.489,0.676c-3.637-3.264-3.943-8.855-0.687-12.488
		c3.26-3.636,8.851-3.938,12.49-0.677C93.125,54.747,93.432,60.339,90.173,63.974"/>
	<path fill="#E0E0E0" d="M90.173,61.433c-3.259,3.634-8.851,3.937-12.489,0.675c-3.637-3.263-3.943-8.854-0.687-12.488
		c3.26-3.635,8.851-3.937,12.49-0.675C93.125,52.206,93.432,57.798,90.173,61.433"/>
	
		<ellipse transform="matrix(0.7445 0.6676 -0.6676 0.7445 58.4191 -41.6145)" fill="none" stroke="#888888" stroke-miterlimit="10" cx="83.585" cy="55.526" rx="8.848" ry="8.84"/>
	<polygon fill="#D1D1D1" points="79.431,58.528 82.048,55.608 79.126,52.989 80.579,51.367 83.501,53.988 86.12,51.069 
		87.741,52.522 85.123,55.442 88.045,58.062 86.593,59.685 83.669,57.063 81.053,59.981 	"/>
	<path fill="#AEADAD" d="M87.475,52.537l-2.366,2.64l-0.251,0.279l0.281,0.254l2.642,2.368l-1.201,1.339l-2.643-2.369l-0.28-0.252
		l-0.252,0.282l-2.367,2.64l-1.339-1.203l2.364-2.641l0.251-0.279l-0.28-0.253l-2.642-2.368l1.201-1.34l2.641,2.368l0.281,0.252
		l0.252-0.28l2.367-2.639L87.475,52.537z M88.008,52.509l-1.903-1.706l-2.617,2.919l-2.922-2.621l-1.705,1.902l2.92,2.619
		l-2.617,2.92l1.903,1.706l2.618-2.919l2.921,2.619l1.705-1.9l-2.922-2.62L88.008,52.509z"/>
</g>
<g>
	<path fill="#717070" d="M325.969,63.974c-3.259,3.635-8.851,3.938-12.489,0.676c-3.637-3.264-3.943-8.855-0.687-12.488
		c3.26-3.636,8.851-3.938,12.49-0.677C328.92,54.747,329.229,60.339,325.969,63.974"/>
	<path fill="#E0E0E0" d="M325.969,61.433c-3.259,3.634-8.851,3.937-12.489,0.675c-3.637-3.263-3.943-8.854-0.687-12.488
		c3.26-3.635,8.851-3.937,12.49-0.675C328.92,52.206,329.229,57.798,325.969,61.433"/>
	
		<ellipse transform="matrix(0.7445 0.6676 -0.6676 0.7445 118.6534 -199.0244)" fill="none" stroke="#888888" stroke-miterlimit="10" cx="319.381" cy="55.526" rx="8.848" ry="8.84"/>
	<polygon fill="#D1D1D1" points="315.227,58.528 317.844,55.608 314.923,52.989 316.375,51.367 319.297,53.988 321.916,51.069 
		323.538,52.522 320.919,55.442 323.842,58.062 322.389,59.685 319.465,57.063 316.849,59.981 	"/>
	<path fill="#AEADAD" d="M323.271,52.537l-2.366,2.64l-0.25,0.279l0.281,0.254l2.642,2.368l-1.201,1.339l-2.643-2.369l-0.28-0.252
		l-0.252,0.282l-2.367,2.64l-1.339-1.203l2.364-2.641l0.252-0.279l-0.28-0.253l-2.642-2.368l1.201-1.34l2.641,2.368l0.281,0.252
		l0.252-0.28l2.367-2.639L323.271,52.537z M323.804,52.509l-1.903-1.706l-2.617,2.919l-2.922-2.621l-1.705,1.902l2.92,2.619
		l-2.617,2.92l1.903,1.706l2.618-2.919l2.921,2.619l1.704-1.9l-2.921-2.62L323.804,52.509z"/>
</g>
<path fill="#333333" d="M98.868,99.254v6.471c0,1.119-0.585,2.025-1.306,2.025l0,0c-0.721,0-1.306-0.906-1.306-2.025v-6.447"/>
<path fill="#333333" d="M304.157,99.254v6.471c0,1.119-0.585,2.025-1.306,2.025l0,0c-0.722,0-1.307-0.906-1.307-2.025v-6.447"/>
<g>
	<path fill="#303030" d="M117.485,83.709c0,1.682-1.364,3.047-3.046,3.047h-6.601c-1.683,0-3.046-1.365-3.046-3.047l0,0
		c0-1.684,1.364-3.047,3.046-3.047h6.601C116.122,80.662,117.485,82.025,117.485,83.709L117.485,83.709z"/>
	<path fill="#303030" d="M135.352,83.709c0,1.682-1.364,3.047-3.047,3.047h-6.601c-1.683,0-3.046-1.365-3.046-3.047l0,0
		c0-1.684,1.363-3.047,3.046-3.047h6.601C133.988,80.662,135.352,82.025,135.352,83.709L135.352,83.709z"/>
	<path fill="#303030" d="M153.219,83.709c0,1.682-1.364,3.047-3.047,3.047h-6.601c-1.683,0-3.046-1.365-3.046-3.047l0,0
		c0-1.684,1.363-3.047,3.046-3.047h6.601C151.854,80.662,153.219,82.025,153.219,83.709L153.219,83.709z"/>
	<path fill="#303030" d="M171.085,83.709c0,1.682-1.364,3.047-3.046,3.047h-6.601c-1.683,0-3.046-1.365-3.046-3.047l0,0
		c0-1.684,1.364-3.047,3.046-3.047h6.601C169.721,80.662,171.085,82.025,171.085,83.709L171.085,83.709z"/>
	<path fill="#303030" d="M188.952,83.709c0,1.682-1.364,3.047-3.046,3.047h-6.601c-1.683,0-3.046-1.365-3.046-3.047l0,0
		c0-1.684,1.364-3.047,3.046-3.047h6.601C187.587,80.662,188.952,82.025,188.952,83.709L188.952,83.709z"/>
	<path fill="#303030" d="M206.818,83.709c0,1.682-1.364,3.047-3.046,3.047h-6.601c-1.683,0-3.046-1.365-3.046-3.047l0,0
		c0-1.684,1.364-3.047,3.046-3.047h6.601C205.455,80.662,206.818,82.025,206.818,83.709L206.818,83.709z"/>
	<path fill="#303030" d="M224.685,83.709c0,1.682-1.363,3.047-3.046,3.047h-6.601c-1.683,0-3.047-1.365-3.047-3.047l0,0
		c0-1.684,1.364-3.047,3.047-3.047h6.601C223.321,80.662,224.685,82.025,224.685,83.709L224.685,83.709z"/>
	<path fill="#303030" d="M242.551,83.709c0,1.682-1.364,3.047-3.047,3.047h-6.6c-1.683,0-3.047-1.365-3.047-3.047l0,0
		c0-1.684,1.364-3.047,3.047-3.047h6.6C241.188,80.662,242.551,82.025,242.551,83.709L242.551,83.709z"/>
	<path fill="#303030" d="M260.417,83.709c0,1.682-1.363,3.047-3.046,3.047h-6.601c-1.683,0-3.047-1.365-3.047-3.047l0,0
		c0-1.684,1.364-3.047,3.047-3.047h6.601C259.054,80.662,260.417,82.025,260.417,83.709L260.417,83.709z"/>
	<path fill="#303030" d="M278.285,83.709c0,1.682-1.364,3.047-3.046,3.047h-6.601c-1.683,0-3.046-1.365-3.046-3.047l0,0
		c0-1.684,1.364-3.047,3.046-3.047h6.601C276.92,80.662,278.285,82.025,278.285,83.709L278.285,83.709z"/>
	<path fill="#303030" d="M296.151,83.709c0,1.682-1.364,3.047-3.046,3.047h-6.601c-1.683,0-3.046-1.365-3.046-3.047l0,0
		c0-1.684,1.364-3.047,3.046-3.047h6.601C294.788,80.662,296.151,82.025,296.151,83.709L296.151,83.709z"/>
</g>
<g>
	<path fill="#858585" d="M117.485,96.207c0,1.682-1.364,3.047-3.046,3.047h-6.601c-1.683,0-3.046-1.365-3.046-3.047l0,0
		c0-1.684,1.364-3.047,3.046-3.047h6.601C116.122,93.16,117.485,94.523,117.485,96.207L117.485,96.207z"/>
	<path fill="#858585" d="M135.352,96.207c0,1.682-1.364,3.047-3.047,3.047h-6.601c-1.683,0-3.046-1.365-3.046-3.047l0,0
		c0-1.684,1.363-3.047,3.046-3.047h6.601C133.988,93.16,135.352,94.523,135.352,96.207L135.352,96.207z"/>
	<path fill="#858585" d="M153.219,96.207c0,1.682-1.364,3.047-3.047,3.047h-6.601c-1.683,0-3.046-1.365-3.046-3.047l0,0
		c0-1.684,1.363-3.047,3.046-3.047h6.601C151.854,93.16,153.219,94.523,153.219,96.207L153.219,96.207z"/>
	<path fill="#858585" d="M171.085,96.207c0,1.682-1.364,3.047-3.046,3.047h-6.601c-1.683,0-3.046-1.365-3.046-3.047l0,0
		c0-1.684,1.364-3.047,3.046-3.047h6.601C169.721,93.16,171.085,94.523,171.085,96.207L171.085,96.207z"/>
	<path fill="#858585" d="M188.952,96.207c0,1.682-1.364,3.047-3.046,3.047h-6.601c-1.683,0-3.046-1.365-3.046-3.047l0,0
		c0-1.684,1.364-3.047,3.046-3.047h6.601C187.587,93.16,188.952,94.523,188.952,96.207L188.952,96.207z"/>
	<path fill="#858585" d="M206.818,96.207c0,1.682-1.364,3.047-3.046,3.047h-6.601c-1.683,0-3.046-1.365-3.046-3.047l0,0
		c0-1.684,1.364-3.047,3.046-3.047h6.601C205.455,93.16,206.818,94.523,206.818,96.207L206.818,96.207z"/>
	<path fill="#858585" d="M224.685,96.207c0,1.682-1.363,3.047-3.046,3.047h-6.601c-1.683,0-3.047-1.365-3.047-3.047l0,0
		c0-1.684,1.364-3.047,3.047-3.047h6.601C223.321,93.16,224.685,94.523,224.685,96.207L224.685,96.207z"/>
	<path fill="#858585" d="M242.551,96.207c0,1.682-1.364,3.047-3.047,3.047h-6.6c-1.683,0-3.047-1.365-3.047-3.047l0,0
		c0-1.684,1.364-3.047,3.047-3.047h6.6C241.188,93.16,242.551,94.523,242.551,96.207L242.551,96.207z"/>
	<path fill="#858585" d="M260.417,96.207c0,1.682-1.363,3.047-3.046,3.047h-6.601c-1.683,0-3.047-1.365-3.047-3.047l0,0
		c0-1.684,1.364-3.047,3.047-3.047h6.601C259.054,93.16,260.417,94.523,260.417,96.207L260.417,96.207z"/>
	<path fill="#858585" d="M278.285,96.207c0,1.682-1.364,3.047-3.046,3.047h-6.601c-1.683,0-3.046-1.365-3.046-3.047l0,0
		c0-1.684,1.364-3.047,3.046-3.047h6.601C276.92,93.16,278.285,94.523,278.285,96.207L278.285,96.207z"/>
	<path fill="#858585" d="M296.151,96.207c0,1.682-1.364,3.047-3.046,3.047h-6.601c-1.683,0-3.046-1.365-3.046-3.047l0,0
		c0-1.684,1.364-3.047,3.046-3.047h6.601C294.788,93.16,296.151,94.523,296.151,96.207L296.151,96.207z"/>
</g>
<circle fill="#383838" cx="399.532" cy="90.865" r="4.5"/>
<g>
	<circle fill="#EAE02C" cx="416.536" cy="90.865" r="4.5"/>
	<circle fill="#EAE02C" cx="416.536" cy="80.254" r="4.5"/>
</g>
<g>
	<circle fill="#383838" cx="433.539" cy="90.865" r="4.5"/>
	<circle fill="#A92124" cx="433.539" cy="80.252" r="4.5"/>
	<circle fill="#A92124" cx="433.539" cy="69.852" r="4.5"/>
</g>
<g>
	<path fill="#D5D6D5" d="M486.722,49.535c0,1.534,1.738,2.778,3.882,2.778h164.195c2.145,0,3.883-1.244,3.883-2.778V25.227
		c0-1.533-1.738-2.778-3.883-2.778H490.604c-2.144,0-3.882,1.245-3.882,2.778V49.535z"/>
	<path fill="#080404" d="M490.604,22.038h164.195c2.408,0,4.367,1.432,4.367,3.188v24.309c0,1.757-1.959,3.187-4.367,3.187H490.604
		c-2.407,0-4.366-1.43-4.366-3.187V25.227C486.238,23.47,488.197,22.038,490.604,22.038z M654.799,51.903
		c1.873,0,3.396-1.062,3.396-2.368V25.227c0-1.307-1.523-2.37-3.396-2.37H490.604c-1.872,0-3.396,1.063-3.396,2.37v24.309
		c0,1.307,1.524,2.368,3.396,2.368H654.799z"/>
</g>
<g>
	<path fill="#D5D6D5" d="M486.722,74.748c0-1.535,1.738-2.779,3.882-2.779h164.195c2.145,0,3.883,1.244,3.883,2.779v24.309
		c0,1.533-1.738,2.777-3.883,2.777H490.604c-2.144,0-3.882-1.244-3.882-2.777V74.748z"/>
	<path fill="#080404" d="M486.238,99.057V74.748c0-1.758,1.959-3.188,4.366-3.188h164.195c2.408,0,4.367,1.43,4.367,3.188v24.309
		c0,1.756-1.959,3.188-4.367,3.188H490.604C488.197,102.244,486.238,100.813,486.238,99.057z M490.604,72.379
		c-1.872,0-3.396,1.063-3.396,2.369v24.309c0,1.307,1.524,2.369,3.396,2.369h164.195c1.873,0,3.396-1.063,3.396-2.369V74.748
		c0-1.307-1.523-2.369-3.396-2.369H490.604z"/>
</g>
<g>
	<polygon fill="#666767" points="514.903,65.873 512.636,60.315 517.17,60.315 	"/>
	<polygon fill="#666767" points="505.396,60.315 507.663,65.875 503.128,65.875 	"/>
</g>
<g>
	<polygon fill="#666767" points="556.753,65.873 554.486,60.315 559.021,60.315 	"/>
	<polygon fill="#666767" points="547.246,60.315 549.513,65.875 544.979,65.875 	"/>
</g>
<g>
	<polygon fill="#666767" points="597.871,65.873 595.604,60.315 600.138,60.315 	"/>
	<polygon fill="#666767" points="588.363,60.315 590.63,65.875 586.096,65.875 	"/>
</g>
<g>
	<polygon fill="#666767" points="639.564,65.873 637.298,60.315 641.832,60.315 	"/>
	<polygon fill="#666767" points="630.057,60.315 632.324,65.875 627.79,65.875 	"/>
</g>
<path fill="#504F4F" d="M737.833,101.875c0,2.762-2.239,5-5,5h-44.129c-2.762,0-5-2.238-5-5V24.271c0-2.761,2.238-5,5-5h44.129
	c2.761,0,5,2.239,5,5V101.875z"/>
<path fill="#504F4F" d="M806.674,101.875c0,2.762-2.239,5-5,5h-44.129c-2.762,0-5-2.238-5-5V24.271c0-2.761,2.238-5,5-5h44.129
	c2.761,0,5,2.239,5,5V101.875z"/>
<g>
	<path fill="#FFFFFF" d="M824.277,45.927c0,2.762,2.238,5,5,5h423.143c2.762,0,5-2.238,5-5V24.315c0-2.761-2.238-5-5-5H829.277
		c-2.762,0-5,2.239-5,5V45.927z"/>
</g>
<circle fill="#191919" cx="1256.475" cy="93.25" r="5"/>
<g>
	<path fill="#AFAFAF" d="M850.49,35.203c0,6.888-5.59,12.475-12.486,12.475c-6.898,0-12.488-5.587-12.488-12.475
		c0-6.891,5.59-12.478,12.488-12.478C844.9,22.726,850.49,28.313,850.49,35.203"/>
	<ellipse fill="none" stroke="#949394" stroke-miterlimit="10" cx="838.003" cy="35.203" rx="12.487" ry="12.475"/>
	<path fill="#AFAFAF" d="M847.178,35.203c0,5.061-4.107,9.166-9.174,9.166c-5.068,0-9.176-4.105-9.176-9.166
		c0-5.063,4.107-9.168,9.176-9.168C843.07,26.035,847.178,30.14,847.178,35.203"/>
	<ellipse fill="none" stroke="#949394" stroke-miterlimit="10" cx="838.003" cy="35.203" rx="9.175" ry="9.166"/>
	<g>
		<g>
			<defs>
				<rect id="SVGID_5_" x="829.354" y="26.563" width="17.301" height="17.279"/>
			</defs>
			<clipPath id="SVGID_6_">
				<use xlink:href="#SVGID_5_"  overflow="visible"/>
			</clipPath>
			<path clip-path="url(#SVGID_6_)" fill="#BFBFBF" d="M846.65,35.203c0,4.77-3.871,8.639-8.646,8.639
				c-4.777,0-8.648-3.869-8.648-8.639c0-4.772,3.871-8.641,8.648-8.641C842.779,26.563,846.65,30.431,846.65,35.203"/>
			<path clip-path="url(#SVGID_6_)" fill="#C1C1C1" d="M846.447,35.203c0,4.657-3.781,8.435-8.443,8.435
				c-4.664,0-8.445-3.777-8.445-8.435c0-4.659,3.781-8.438,8.445-8.438C842.666,26.766,846.447,30.544,846.447,35.203"/>
			<path clip-path="url(#SVGID_6_)" fill="#C3C4C4" d="M846.244,35.203c0,4.545-3.689,8.233-8.24,8.233
				c-4.553,0-8.242-3.688-8.242-8.233c0-4.548,3.689-8.234,8.242-8.234C842.555,26.969,846.244,30.655,846.244,35.203"/>
			<path clip-path="url(#SVGID_6_)" fill="#C5C6C6" d="M846.041,35.203c0,4.434-3.598,8.028-8.037,8.028s-8.039-3.595-8.039-8.028
				c0-4.435,3.6-8.031,8.039-8.031S846.041,30.769,846.041,35.203"/>
			<path clip-path="url(#SVGID_6_)" fill="#C7C9C9" d="M845.838,35.203c0,4.32-3.508,7.827-7.834,7.827s-7.834-3.507-7.834-7.827
				c0-4.323,3.508-7.829,7.834-7.829S845.838,30.88,845.838,35.203"/>
			<path clip-path="url(#SVGID_6_)" fill="#CACBCB" d="M845.635,35.203c0,4.209-3.416,7.622-7.631,7.622s-7.631-3.413-7.631-7.622
				s3.416-7.625,7.631-7.625S845.635,30.994,845.635,35.203"/>
			<path clip-path="url(#SVGID_6_)" fill="#CCCECE" d="M845.432,35.203c0,4.097-3.326,7.419-7.428,7.419
				c-4.104,0-7.428-3.322-7.428-7.419c0-4.099,3.324-7.421,7.428-7.421C842.105,27.782,845.432,31.104,845.432,35.203"/>
			<path clip-path="url(#SVGID_6_)" fill="#CED0D0" d="M845.229,35.203c0,3.983-3.236,7.216-7.225,7.216
				c-3.99,0-7.225-3.232-7.225-7.216c0-3.985,3.234-7.219,7.225-7.219C841.992,27.984,845.229,31.218,845.229,35.203"/>
			<path clip-path="url(#SVGID_6_)" fill="#D1D3D3" d="M845.023,35.203c0,3.872-3.143,7.013-7.02,7.013s-7.021-3.141-7.021-7.013
				c0-3.874,3.145-7.015,7.021-7.015S845.023,31.329,845.023,35.203"/>
			<path clip-path="url(#SVGID_6_)" fill="#D3D5D5" d="M844.82,35.203c0,3.761-3.053,6.81-6.816,6.81
				c-3.766,0-6.818-3.049-6.818-6.81c0-3.763,3.053-6.812,6.818-6.812C841.768,28.392,844.82,31.44,844.82,35.203"/>
		</g>
	</g>
	<polygon fill="#5F5F5E" points="836.873,40.397 836.873,36.331 832.803,36.331 832.803,34.073 836.873,34.073 836.873,30.007 
		839.133,30.007 839.133,34.073 843.203,34.073 843.203,36.331 839.133,36.331 839.133,40.397 	"/>
	<path fill="#231815" d="M838.938,30.203v3.675v0.391h0.391h3.68v1.865h-3.68h-0.391v0.393v3.677h-1.867v-3.677v-0.393h-0.393H833
		v-1.865h3.678h0.393v-0.391v-3.675H838.938z M839.328,29.812h-2.65v4.066h-4.07v2.648h4.07v4.065h2.65v-4.065h4.07v-2.648h-4.07
		V29.812z"/>
</g>
<g>
	<g>
		<path fill="#504F4F" d="M1229.477,43.798c0,3.313,2.686,6,6,6h18c3.314,0,6-2.687,6-6v-18c0-3.313-2.686-6-6-6h-18
			c-3.314,0-6,2.687-6,6V43.798z"/>
	</g>
	<circle fill="#191919" cx="1244.477" cy="34.798" r="9"/>
</g>
<g>
	<rect x="836.285" y="50.927" fill="#3D3D3D" width="414.428" height="4.364"/>
	<g>
		<rect x="836.285" y="53.193" fill="#6E6E6D" width="414.428" height="4.364"/>
		<g>
			<path fill="#333333" d="M837.59,50.927v6.472c0,1.118-0.584,2.025-1.305,2.025l0,0c-0.723,0-1.307-0.907-1.307-2.025v-6.447"/>
			<path fill="#333333" d="M1252.02,50.927v6.472c0,1.118-0.584,2.025-1.307,2.025l0,0c-0.721,0-1.305-0.907-1.305-2.025v-6.447"/>
		</g>
	</g>
</g>
<g>
	<rect x="836.285" y="14.933" fill="#3D3D3D" width="414.428" height="4.364"/>
	<g>
		<rect x="836.285" y="12.666" fill="#6E6E6D" width="414.428" height="4.364"/>
		<g>
			<path fill="#333333" d="M837.59,19.297v-6.472c0-1.118-0.584-2.025-1.305-2.025l0,0c-0.723,0-1.307,0.907-1.307,2.025v6.447"/>
			<path fill="#333333" d="M1252.02,19.297v-6.472c0-1.118-0.584-2.025-1.307-2.025l0,0c-0.721,0-1.305,0.907-1.305,2.025v6.447"/>
		</g>
	</g>
</g>
</svg>
