<?xml version="1.0" encoding="utf-8"?>
<!-- Generator: Adobe Illustrator 16.0.0, SVG Export Plug-In . SVG Version: 6.00 Build 0)  -->
<!DOCTYPE svg PUBLIC "-//W3C//DTD SVG 1.1//EN" "http://www.w3.org/Graphics/SVG/1.1/DTD/svg11.dtd">
<svg version="1.1" id="图层_1" xmlns="http://www.w3.org/2000/svg" xmlns:xlink="http://www.w3.org/1999/xlink" x="0px" y="0px"
	 width="1275.59px" height="126.14px" viewBox="0 0 1275.59 126.14" enable-background="new 0 0 1275.59 126.14"
	 xml:space="preserve">
<g>
	<g>
		<rect y="0.042" fill="#E2DDD6" width="1275.59" height="126.142"/>
	</g>
	<g>
		<g>
			<rect x="1239.252" y="0.042" fill="#BEBEB1" width="36.338" height="126.142"/>
		</g>
		<g>
			<path fill="#717070" d="M1265.195,33.823c-3.846,4.289-10.445,4.646-14.74,0.797c-4.293-3.851-4.654-10.45-0.811-14.739
				c3.848-4.29,10.447-4.646,14.742-0.797C1268.68,22.934,1269.043,29.533,1265.195,33.823"/>
			<path fill="#E0E0E0" d="M1265.195,30.823c-3.846,4.289-10.445,4.646-14.74,0.797c-4.293-3.851-4.654-10.45-0.811-14.739
				c3.848-4.29,10.447-4.646,14.742-0.797C1268.68,19.934,1269.043,26.533,1265.195,30.823"/>
			
				<ellipse transform="matrix(0.7446 0.6676 -0.6676 0.7446 337.1151 -833.3018)" fill="none" stroke="#888888" stroke-miterlimit="10" cx="1257.42" cy="23.852" rx="10.443" ry="10.433"/>
			<polygon fill="#D1D1D1" points="1252.518,27.396 1255.605,23.951 1252.158,20.857 1253.873,18.943 1257.32,22.037 
				1260.412,18.592 1262.326,20.308 1259.236,23.754 1262.686,26.846 1260.971,28.76 1257.52,25.666 1254.432,29.111 			"/>
			<path fill="#AEADAD" d="M1262.012,20.324l-2.793,3.115l-0.297,0.331l0.332,0.298l3.117,2.795l-1.418,1.581l-3.117-2.796
				l-0.332-0.297l-0.297,0.332l-2.793,3.115l-1.582-1.42l2.791-3.115l0.297-0.331l-0.33-0.298l-3.117-2.795l1.416-1.581l3.117,2.795
				l0.332,0.297l0.299-0.331l2.793-3.114L1262.012,20.324z M1262.641,20.291l-2.246-2.014l-3.09,3.445l-3.449-3.093l-2.012,2.244
				l3.447,3.092l-3.088,3.446l2.246,2.014l3.09-3.445l3.447,3.092l2.012-2.244l-3.447-3.092L1262.641,20.291z"/>
		</g>
		<g>
			<path fill="#717070" d="M1265.195,109.344c-3.846,4.289-10.445,4.646-14.74,0.797c-4.293-3.85-4.654-10.449-0.811-14.738
				c3.848-4.291,10.447-4.646,14.742-0.797C1268.68,98.455,1269.043,105.055,1265.195,109.344"/>
			<path fill="#E0E0E0" d="M1265.195,106.344c-3.846,4.289-10.445,4.646-14.74,0.797c-4.293-3.85-4.654-10.449-0.811-14.738
				c3.848-4.291,10.447-4.646,14.742-0.797C1268.68,95.455,1269.043,102.055,1265.195,106.344"/>
			
				<ellipse transform="matrix(0.7446 0.6675 -0.6675 0.7446 387.4976 -813.9806)" fill="none" stroke="#888888" stroke-miterlimit="10" cx="1257.42" cy="99.373" rx="10.443" ry="10.433"/>
			<polygon fill="#D1D1D1" points="1252.518,102.918 1255.605,99.471 1252.158,96.379 1253.873,94.465 1257.32,97.559 
				1260.412,94.113 1262.326,95.828 1259.236,99.275 1262.686,102.367 1260.971,104.281 1257.52,101.188 1254.432,104.633 			"/>
			<path fill="#AEADAD" d="M1262.012,95.846l-2.793,3.115l-0.297,0.33l0.332,0.299l3.117,2.795l-1.418,1.58l-3.117-2.795
				l-0.332-0.297l-0.297,0.332l-2.793,3.115l-1.582-1.42l2.791-3.115l0.297-0.332l-0.33-0.297l-3.117-2.795l1.416-1.582l3.117,2.797
				l0.332,0.295l0.299-0.33l2.793-3.115L1262.012,95.846z M1262.641,95.813l-2.246-2.014l-3.09,3.445l-3.449-3.092l-2.012,2.242
				l3.447,3.092l-3.088,3.447l2.246,2.014l3.09-3.445l3.447,3.092l2.012-2.244l-3.447-3.092L1262.641,95.813z"/>
		</g>
	</g>
	<g>
		<rect y="0.042" fill="#BEBEB1" width="36.338" height="126.142"/>
		<g>
			<path fill="#717070" d="M25.944,33.823c-3.846,4.289-10.446,4.646-14.741,0.797c-4.292-3.851-4.654-10.45-0.81-14.739
				c3.847-4.29,10.446-4.646,14.741-0.797C29.428,22.934,29.791,29.533,25.944,33.823"/>
			<path fill="#E0E0E0" d="M25.944,30.823c-3.846,4.289-10.446,4.646-14.741,0.797c-4.292-3.851-4.654-10.45-0.81-14.739
				c3.847-4.29,10.446-4.646,14.741-0.797C29.428,19.934,29.791,26.533,25.944,30.823"/>
			
				<ellipse transform="matrix(0.7446 0.6676 -0.6676 0.7446 20.5635 -6.036)" fill="none" stroke="#888888" stroke-miterlimit="10" cx="18.169" cy="23.852" rx="10.443" ry="10.434"/>
			<polygon fill="#D1D1D1" points="13.265,27.396 16.354,23.951 12.906,20.857 14.621,18.943 18.069,22.037 21.16,18.592 
				23.074,20.308 19.983,23.754 23.433,26.846 21.719,28.76 18.268,25.666 15.18,29.111 			"/>
			<path fill="#AEADAD" d="M22.76,20.324l-2.793,3.115l-0.296,0.331l0.331,0.298l3.118,2.795l-1.418,1.581l-3.119-2.796
				l-0.331-0.297l-0.297,0.332l-2.793,3.115l-1.581-1.42l2.791-3.115l0.296-0.331l-0.33-0.298l-3.117-2.795l1.417-1.581l3.117,2.795
				l0.331,0.297l0.299-0.331l2.793-3.114L22.76,20.324z M23.389,20.291l-2.246-2.014l-3.089,3.445l-3.449-3.093l-2.012,2.244
				l3.447,3.092l-3.089,3.446l2.246,2.014l3.09-3.445l3.448,3.092l2.012-2.244l-3.448-3.092L23.389,20.291z"/>
		</g>
		<g>
			<path fill="#717070" d="M25.944,109.344c-3.846,4.289-10.446,4.646-14.741,0.797c-4.292-3.85-4.654-10.449-0.81-14.738
				c3.847-4.291,10.446-4.646,14.741-0.797C29.428,98.455,29.791,105.055,25.944,109.344"/>
			<path fill="#E0E0E0" d="M25.944,106.344c-3.846,4.289-10.446,4.646-14.741,0.797c-4.292-3.85-4.654-10.449-0.81-14.738
				c3.847-4.291,10.446-4.646,14.741-0.797C29.428,95.455,29.791,102.055,25.944,106.344"/>
			
				<ellipse transform="matrix(0.7446 0.6675 -0.6675 0.7446 70.9748 13.2531)" fill="none" stroke="#888888" stroke-miterlimit="10" cx="18.169" cy="99.373" rx="10.443" ry="10.434"/>
			<polygon fill="#D1D1D1" points="13.265,102.918 16.354,99.471 12.906,96.379 14.621,94.465 18.069,97.559 21.16,94.113 
				23.074,95.828 19.983,99.275 23.433,102.367 21.719,104.281 18.268,101.188 15.18,104.633 			"/>
			<path fill="#AEADAD" d="M22.76,95.846l-2.793,3.115l-0.296,0.33l0.331,0.299l3.118,2.795l-1.418,1.58l-3.119-2.795l-0.331-0.297
				l-0.297,0.332l-2.793,3.115l-1.581-1.42l2.791-3.115l0.296-0.332l-0.33-0.297l-3.117-2.795l1.417-1.582l3.117,2.797l0.331,0.295
				l0.299-0.33l2.793-3.115L22.76,95.846z M23.389,95.813l-2.246-2.014l-3.089,3.445l-3.449-3.092l-2.012,2.242l3.447,3.092
				l-3.089,3.447l2.246,2.014l3.09-3.445l3.448,3.092l2.012-2.244l-3.448-3.092L23.389,95.813z"/>
		</g>
	</g>
	<g>
		<path fill="#717070" d="M835.023,116.793c-3.17,3.535-8.611,3.83-12.15,0.658c-3.539-3.174-3.838-8.615-0.668-12.15
			c3.17-3.537,8.611-3.83,12.15-0.658C837.895,107.818,838.193,113.256,835.023,116.793"/>
		<path fill="#E0E0E0" d="M835.023,114.32c-3.17,3.535-8.611,3.83-12.15,0.656s-3.838-8.613-0.668-12.148
			c3.17-3.537,8.611-3.83,12.15-0.658C837.895,105.344,838.193,110.785,835.023,114.32"/>
		
			<ellipse transform="matrix(0.7446 0.6675 -0.6675 0.7446 284.1279 -525.401)" fill="none" stroke="#888888" stroke-miterlimit="10" cx="828.614" cy="108.574" rx="8.608" ry="8.6"/>
		<polygon fill="#D1D1D1" points="824.572,111.496 827.119,108.654 824.275,106.105 825.689,104.527 828.531,107.078 
			831.08,104.238 832.656,105.652 830.109,108.494 832.953,111.041 831.541,112.619 828.695,110.068 826.15,112.91 		"/>
		<path fill="#AEADAD" d="M832.398,105.666l-2.303,2.568l-0.244,0.271l0.273,0.246l2.57,2.305l-1.168,1.305l-2.572-2.307
			l-0.271-0.244l-0.246,0.273l-2.303,2.568l-1.303-1.172l2.301-2.568l0.244-0.271l-0.271-0.246l-2.57-2.305l1.168-1.303l2.57,2.305
			l0.273,0.244l0.246-0.273l2.301-2.566L832.398,105.666z M832.916,105.639l-1.852-1.66l-2.545,2.84l-2.844-2.549l-1.658,1.85
			l2.842,2.549l-2.547,2.84l1.852,1.66l2.547-2.84l2.844,2.549l1.658-1.85l-2.844-2.549L832.916,105.639z"/>
	</g>
	<g>
		<path fill="#717070" d="M1096.285,116.793c-3.17,3.535-8.609,3.83-12.15,0.658c-3.537-3.174-3.836-8.615-0.666-12.15
			c3.17-3.537,8.609-3.83,12.15-0.658C1099.156,107.818,1099.457,113.256,1096.285,116.793"/>
		<path fill="#E0E0E0" d="M1096.285,114.32c-3.17,3.535-8.609,3.83-12.15,0.656c-3.537-3.174-3.836-8.613-0.666-12.148
			c3.17-3.537,8.609-3.83,12.15-0.658C1099.156,105.344,1099.457,110.785,1096.285,114.32"/>
		
			<ellipse transform="matrix(0.7445 0.6676 -0.6676 0.7445 350.9226 -699.8605)" fill="none" stroke="#888888" stroke-miterlimit="10" cx="1089.877" cy="108.574" rx="8.607" ry="8.6"/>
		<polygon fill="#D1D1D1" points="1085.836,111.496 1088.381,108.654 1085.539,106.105 1086.953,104.527 1089.795,107.078 
			1092.342,104.238 1093.92,105.652 1091.373,108.494 1094.217,111.041 1092.803,112.619 1089.959,110.068 1087.412,112.91 		"/>
		<path fill="#AEADAD" d="M1093.66,105.666l-2.301,2.568l-0.244,0.271l0.273,0.246l2.568,2.305l-1.168,1.305l-2.57-2.307
			l-0.273-0.244l-0.244,0.273l-2.303,2.568l-1.303-1.172l2.301-2.568l0.244-0.271l-0.273-0.246l-2.568-2.305l1.168-1.303
			l2.568,2.305l0.273,0.244l0.246-0.273l2.303-2.566L1093.66,105.666z M1094.18,105.639l-1.852-1.66l-2.547,2.84l-2.842-2.549
			l-1.658,1.85l2.84,2.549l-2.545,2.84l1.852,1.66l2.547-2.84l2.842,2.549l1.658-1.85l-2.842-2.549L1094.18,105.639z"/>
	</g>
	<g>
		<path fill="#717070" d="M572.057,116.793c-3.169,3.535-8.61,3.83-12.151,0.658c-3.538-3.174-3.836-8.615-0.667-12.15
			c3.171-3.537,8.61-3.83,12.15-0.658C574.929,107.818,575.228,113.256,572.057,116.793"/>
		<path fill="#E0E0E0" d="M572.057,114.32c-3.169,3.535-8.61,3.83-12.151,0.656c-3.538-3.174-3.836-8.613-0.667-12.148
			c3.171-3.537,8.61-3.83,12.15-0.658C574.929,105.344,575.228,110.785,572.057,114.32"/>
		
			<ellipse transform="matrix(0.7446 0.6676 -0.6676 0.7446 216.968 -349.867)" fill="none" stroke="#888888" stroke-miterlimit="10" cx="565.648" cy="108.574" rx="8.608" ry="8.6"/>
		<polygon fill="#D1D1D1" points="561.606,111.496 564.152,108.654 561.311,106.105 562.723,104.527 565.566,107.078 
			568.114,104.238 569.691,105.652 567.145,108.494 569.988,111.041 568.574,112.619 565.729,110.068 563.185,112.91 		"/>
		<path fill="#AEADAD" d="M569.432,105.666l-2.302,2.568l-0.244,0.271l0.273,0.246l2.57,2.305l-1.169,1.305l-2.57-2.307
			l-0.273-0.244l-0.246,0.273l-2.301,2.568l-1.304-1.172l2.301-2.568l0.244-0.271l-0.272-0.246l-2.569-2.305l1.168-1.303
			l2.569,2.305l0.274,0.244l0.246-0.273l2.302-2.566L569.432,105.666z M569.95,105.639l-1.851-1.66l-2.546,2.84l-2.843-2.549
			l-1.658,1.85l2.842,2.549l-2.546,2.84l1.852,1.66l2.547-2.84l2.842,2.549l1.658-1.85l-2.842-2.549L569.95,105.639z"/>
	</g>
	<g>
		<path fill="#717070" d="M309.044,116.793c-3.17,3.535-8.611,3.83-12.151,0.658c-3.538-3.174-3.836-8.615-0.667-12.15
			c3.17-3.537,8.61-3.83,12.15-0.658C311.916,107.818,312.215,113.256,309.044,116.793"/>
		<path fill="#E0E0E0" d="M309.044,114.32c-3.17,3.535-8.611,3.83-12.151,0.656c-3.538-3.174-3.836-8.613-0.667-12.148
			c3.17-3.537,8.61-3.83,12.15-0.658C311.916,105.344,312.215,110.785,309.044,114.32"/>
		
			<ellipse transform="matrix(0.7446 0.6676 -0.6676 0.7446 149.7842 -174.2917)" fill="none" stroke="#888888" stroke-miterlimit="10" cx="302.635" cy="108.574" rx="8.608" ry="8.6"/>
		<polygon fill="#D1D1D1" points="298.594,111.496 301.139,108.654 298.297,106.105 299.711,104.527 302.553,107.078 
			305.101,104.238 306.679,105.652 304.131,108.494 306.974,111.041 305.562,112.619 302.717,110.068 300.171,112.91 		"/>
		<path fill="#AEADAD" d="M306.419,105.666l-2.302,2.568l-0.244,0.271l0.273,0.246l2.57,2.305l-1.168,1.305l-2.571-2.307
			l-0.273-0.244l-0.245,0.273l-2.302,2.568l-1.303-1.172l2.301-2.568l0.244-0.271l-0.272-0.246l-2.57-2.305l1.168-1.303l2.57,2.305
			l0.273,0.244l0.246-0.273l2.302-2.566L306.419,105.666z M306.938,105.639l-1.851-1.66l-2.546,2.84l-2.843-2.549l-1.658,1.85
			l2.841,2.549l-2.546,2.84l1.851,1.66l2.547-2.84l2.843,2.549l1.658-1.85l-2.843-2.549L306.938,105.639z"/>
	</g>
	<g>
		<rect x="71.249" y="98.971" fill="#F7EE82" width="197.439" height="11.988"/>
		<g>
			<polygon fill="#666767" points="100.168,107.742 97.901,102.186 102.436,102.186 			"/>
			<polygon fill="#666767" points="84.657,102.186 86.924,107.744 82.39,107.744 			"/>
			<polygon fill="#666767" points="131.19,107.742 128.923,102.186 133.458,102.186 			"/>
			<polygon fill="#666767" points="115.68,102.186 117.947,107.744 113.412,107.744 			"/>
			<polygon fill="#666767" points="162.213,107.742 159.946,102.186 164.48,102.186 			"/>
			<polygon fill="#666767" points="146.701,102.186 148.969,107.744 144.435,107.744 			"/>
			<polygon fill="#666767" points="193.235,107.742 190.968,102.186 195.502,102.186 			"/>
			<polygon fill="#666767" points="177.724,102.186 179.991,107.744 175.457,107.744 			"/>
			<polygon fill="#666767" points="224.257,107.742 221.99,102.186 226.524,102.186 			"/>
			<polygon fill="#666767" points="208.747,102.186 211.013,107.744 206.479,107.744 			"/>
			<polygon fill="#666767" points="255.28,107.742 253.013,102.186 257.547,102.186 			"/>
			<polygon fill="#666767" points="239.768,102.186 242.035,107.744 237.501,107.744 			"/>
		</g>
	</g>
	<g>
		<rect x="334.207" y="98.971" fill="#F7EE82" width="197.439" height="11.988"/>
		<g>
			<polygon fill="#666767" points="363.126,107.742 360.859,102.186 365.394,102.186 			"/>
			<polygon fill="#666767" points="347.615,102.186 349.882,107.744 345.347,107.744 			"/>
			<polygon fill="#666767" points="394.148,107.742 391.881,102.186 396.415,102.186 			"/>
			<polygon fill="#666767" points="378.638,102.186 380.904,107.744 376.37,107.744 			"/>
			<polygon fill="#666767" points="425.171,107.742 422.903,102.186 427.438,102.186 			"/>
			<polygon fill="#666767" points="409.659,102.186 411.927,107.744 407.393,107.744 			"/>
			<polygon fill="#666767" points="456.193,107.742 453.926,102.186 458.46,102.186 			"/>
			<polygon fill="#666767" points="440.681,102.186 442.949,107.744 438.415,107.744 			"/>
			<polygon fill="#666767" points="487.215,107.742 484.948,102.186 489.482,102.186 			"/>
			<polygon fill="#666767" points="471.704,102.186 473.971,107.744 469.438,107.744 			"/>
			<polygon fill="#666767" points="518.237,107.742 515.971,102.186 520.505,102.186 			"/>
			<polygon fill="#666767" points="502.726,102.186 504.993,107.744 500.459,107.744 			"/>
		</g>
	</g>
	<g>
		<rect x="597.298" y="98.971" fill="#F7EE82" width="197.44" height="11.988"/>
		<g>
			<polygon fill="#666767" points="626.218,107.742 623.951,102.186 628.486,102.186 			"/>
			<polygon fill="#666767" points="610.707,102.186 612.974,107.744 608.44,107.744 			"/>
			<polygon fill="#666767" points="657.24,107.742 654.973,102.186 659.508,102.186 			"/>
			<polygon fill="#666767" points="641.73,102.186 643.996,107.744 639.463,107.744 			"/>
			<polygon fill="#666767" points="688.264,107.742 685.996,102.186 690.529,102.186 			"/>
			<polygon fill="#666767" points="672.752,102.186 675.02,107.744 670.484,107.744 			"/>
			<polygon fill="#666767" points="719.285,107.742 717.018,102.186 721.553,102.186 			"/>
			<polygon fill="#666767" points="703.773,102.186 706.041,107.744 701.508,107.744 			"/>
			<polygon fill="#666767" points="750.307,107.742 748.041,102.186 752.574,102.186 			"/>
			<polygon fill="#666767" points="734.797,102.186 737.064,107.744 732.529,107.744 			"/>
			<polygon fill="#666767" points="781.33,107.742 779.063,102.186 783.596,102.186 			"/>
			<polygon fill="#666767" points="765.818,102.186 768.086,107.744 763.551,107.744 			"/>
		</g>
	</g>
	<g>
		<rect x="861.393" y="98.971" fill="#F7EE82" width="197.439" height="11.988"/>
		<g>
			<polygon fill="#666767" points="890.313,107.742 888.045,102.186 892.578,102.186 			"/>
			<polygon fill="#666767" points="874.801,102.186 877.068,107.744 872.533,107.744 			"/>
			<polygon fill="#666767" points="921.334,107.742 919.066,102.186 923.6,102.186 			"/>
			<polygon fill="#666767" points="905.822,102.186 908.09,107.744 903.555,107.744 			"/>
			<polygon fill="#666767" points="952.355,107.742 950.09,102.186 954.623,102.186 			"/>
			<polygon fill="#666767" points="936.846,102.186 939.111,107.744 934.578,107.744 			"/>
			<polygon fill="#666767" points="983.379,107.742 981.111,102.186 985.646,102.186 			"/>
			<polygon fill="#666767" points="967.867,102.186 970.135,107.744 965.6,107.744 			"/>
			<polygon fill="#666767" points="1014.4,107.742 1012.133,102.186 1016.668,102.186 			"/>
			<polygon fill="#666767" points="998.889,102.186 1001.156,107.744 996.623,107.744 			"/>
			<polygon fill="#666767" points="1045.424,107.742 1043.156,102.186 1047.689,102.186 			"/>
			<polygon fill="#666767" points="1029.912,102.186 1032.178,107.744 1027.645,107.744 			"/>
		</g>
	</g>
	<text transform="matrix(1 0 0 1 82.0625 120.3242)" fill="#040000" font-family="'AdobeSongStd-Light-GBpc-EUC-H'" font-size="11">1    2     3     4    6     6    7     8     9   10  11  12</text>
	
		<text transform="matrix(1 0 0 1 345.7886 120.3242)" fill="#040000" font-family="'AdobeSongStd-Light-GBpc-EUC-H'" font-size="11">1    2     3     4    6     6    7     8     9   10  11  12</text>
	
		<text transform="matrix(1 0 0 1 608.6338 120.3242)" fill="#040000" font-family="'AdobeSongStd-Light-GBpc-EUC-H'" font-size="11">1    2     3     4    6     6    7     8     9   10  11  12</text>
	
		<text transform="matrix(1 0 0 1 873.0557 120.3242)" fill="#040000" font-family="'AdobeSongStd-Light-GBpc-EUC-H'" font-size="11">1    2     3     4    6     6    7     8     9   10  11  12</text>
</g>
</svg>
