<?xml version="1.0" encoding="utf-8"?>
<!-- Generator: Adobe Illustrator 19.0.0, SVG Export Plug-In . SVG Version: 6.00 Build 0)  -->
<svg version="1.1" id="图层_1" xmlns="http://www.w3.org/2000/svg" xmlns:xlink="http://www.w3.org/1999/xlink" x="0px" y="0px"
	 width="1275.6px" height="126px" viewBox="0 0 1275.6 126" style="enable-background:new 0 0 1275.6 126;" xml:space="preserve">
<style type="text/css">
	.st0{fill:#3E555F;stroke:#1C1C1C;stroke-width:1.7008;stroke-miterlimit:10;}
	.st1{fill:#C8C9CA;stroke:#FFF57F;stroke-width:2;stroke-miterlimit:10;}
	.st2{fill:#DAFF8A;stroke:#BDBDBD;stroke-miterlimit:10;}
	.st3{fill:#868686;stroke:#BDBDBD;stroke-miterlimit:10;}
	.st4{fill:#95B9D0;}
	.st5{fill:#000200;stroke:#B9B9B9;stroke-width:0.5;stroke-miterlimit:10;}
	.st6{fill:none;stroke:#B9B9B9;stroke-width:0.5;stroke-miterlimit:10;}
	.st7{fill:#686868;}
	.st8{fill:#000200;}
	.st9{fill:#B9B9B9;}
	.st10{stroke:#7B7B7B;stroke-width:2.126;stroke-miterlimit:10;}
</style>
<rect id="XMLID_14718_" x="0.9" y="0.9" class="st0" width="1273.9" height="124.3"/>
<g id="XMLID_14713_">
	<path id="XMLID_15318_" class="st1" d="M260.6,41.8c0-1.6-1.3-2.8-2.8-2.8H27.2c-1.6,0-2.8,1.3-2.8,2.8v2.3c0,1.6-1.3,2.8-2.8,2.8
		h-2.3c-1.6,0-2.8,1.3-2.8,2.8v49.1c0,1.6,1.3,2.8,2.8,2.8h2.3c1.6,0,2.8,1.3,2.8,2.8v2.3c0,1.6,1.3,2.8,2.8,2.8h230.6
		c1.6,0,2.8-1.3,2.8-2.8v-2.3c0-1.6,1.3-2.8,2.8-2.8h2.3c1.6,0,2.8-1.3,2.8-2.8V49.8c0-1.6-1.3-2.8-2.8-2.8h-2.3
		c-1.6,0-2.8-1.3-2.8-2.8V41.8z"/>
</g>
<g id="XMLID_14903_">
	<path id="XMLID_15616_" class="st1" d="M518.8,41.8c0-1.6-1.3-2.8-2.8-2.8H285.4c-1.6,0-2.8,1.3-2.8,2.8v2.3c0,1.6-1.3,2.8-2.8,2.8
		h-2.3c-1.6,0-2.8,1.3-2.8,2.8v49.1c0,1.6,1.3,2.8,2.8,2.8h2.3c1.6,0,2.8,1.3,2.8,2.8v2.3c0,1.6,1.3,2.8,2.8,2.8H516
		c1.6,0,2.8-1.3,2.8-2.8v-2.3c0-1.6,1.3-2.8,2.8-2.8h2.3c1.6,0,2.8-1.3,2.8-2.8V49.8c0-1.6-1.3-2.8-2.8-2.8h-2.3
		c-1.6,0-2.8-1.3-2.8-2.8V41.8z"/>
</g>
<g id="XMLID_15617_">
	<path id="XMLID_16062_" class="st1" d="M777,41.8c0-1.6-1.3-2.8-2.8-2.8H543.5c-1.6,0-2.8,1.3-2.8,2.8v2.3c0,1.6-1.3,2.8-2.8,2.8
		h-2.3c-1.6,0-2.8,1.3-2.8,2.8v49.1c0,1.6,1.3,2.8,2.8,2.8h2.3c1.6,0,2.8,1.3,2.8,2.8v2.3c0,1.6,1.3,2.8,2.8,2.8h230.6
		c1.6,0,2.8-1.3,2.8-2.8v-2.3c0-1.6,1.3-2.8,2.8-2.8h2.3c1.6,0,2.8-1.3,2.8-2.8V49.8c0-1.6-1.3-2.8-2.8-2.8h-2.3
		c-1.6,0-2.8-1.3-2.8-2.8V41.8z"/>
</g>
<g id="XMLID_16063_">
	<path id="XMLID_16508_" class="st1" d="M1035.2,41.8c0-1.6-1.3-2.8-2.8-2.8H801.7c-1.6,0-2.8,1.3-2.8,2.8v2.3
		c0,1.6-1.3,2.8-2.8,2.8h-2.3c-1.6,0-2.8,1.3-2.8,2.8v49.1c0,1.6,1.3,2.8,2.8,2.8h2.3c1.6,0,2.8,1.3,2.8,2.8v2.3
		c0,1.6,1.3,2.8,2.8,2.8h230.6c1.6,0,2.8-1.3,2.8-2.8v-2.3c0-1.6,1.3-2.8,2.8-2.8h2.3c1.6,0,2.8-1.3,2.8-2.8V49.8
		c0-1.6-1.3-2.8-2.8-2.8h-2.3c-1.6,0-2.8-1.3-2.8-2.8V41.8z"/>
</g>
<path id="XMLID_14701_" class="st0" d="M1044.5,28.4H4.6c-1.6,0-2.8-1.3-2.8-2.8V4.7c0-1.6,1.3-2.8,2.8-2.8h1039.9
	c1.6,0,2.8,1.3,2.8,2.8v20.9C1047.3,27.1,1046,28.4,1044.5,28.4z"/>
<path id="XMLID_14712_" class="st0" d="M1271.9,125.1h-221.8c-1.6,0-2.8-1.3-2.8-2.8V3.7c0-1.6,1.3-2.8,2.8-2.8h221.8
	c1.6,0,2.8,1.3,2.8,2.8v118.6C1274.7,123.9,1273.5,125.1,1271.9,125.1z"/>
<g id="XMLID_16510_">
	<path id="XMLID_16573_" class="st2" d="M115.1,12.5h-9.6c-0.3,0-0.6-0.3-0.6-0.6v-6c0-0.3,0.3-0.6,0.6-0.6h9.6
		c0.3,0,0.6,0.3,0.6,0.6v6C115.6,12.3,115.4,12.5,115.1,12.5z"/>
	<path id="XMLID_16572_" class="st3" d="M144.4,12.5h-9.6c-0.3,0-0.6-0.3-0.6-0.6v-6c0-0.3,0.3-0.6,0.6-0.6h9.6
		c0.3,0,0.6,0.3,0.6,0.6v6C145,12.3,144.7,12.5,144.4,12.5z"/>
	<path id="XMLID_16571_" class="st2" d="M173.8,12.5h-9.6c-0.3,0-0.6-0.3-0.6-0.6v-6c0-0.3,0.3-0.6,0.6-0.6h9.6
		c0.3,0,0.6,0.3,0.6,0.6v6C174.4,12.3,174.1,12.5,173.8,12.5z"/>
	<path id="XMLID_16570_" class="st3" d="M203.2,12.5h-9.6c-0.3,0-0.6-0.3-0.6-0.6v-6c0-0.3,0.3-0.6,0.6-0.6h9.6
		c0.3,0,0.6,0.3,0.6,0.6v6C203.7,12.3,203.5,12.5,203.2,12.5z"/>
	<path id="XMLID_16569_" class="st3" d="M232.5,12.5h-9.6c-0.3,0-0.6-0.3-0.6-0.6v-6c0-0.3,0.3-0.6,0.6-0.6h9.6
		c0.3,0,0.6,0.3,0.6,0.6v6C233.1,12.3,232.8,12.5,232.5,12.5z"/>
</g>
<path id="XMLID_16588_" class="st4" d="M99.5,14.4V5.7c0-1.3-1-2.3-2.3-2.3H70.1c-1.3,0-2.3,1-2.3,2.3v11.1v7.6c0,1.3,1,2.3,2.3,2.3
	h29.4h28.1c1.3,0,2.3-1,2.3-2.3v-5.3c0-1.3-1-2.3-2.3-2.3h-25.8C100.6,16.7,99.5,15.7,99.5,14.4z"/>
<g id="XMLID_16568_">
	<path id="XMLID_16586_" class="st5" d="M74.3,18.3h17.7c0.3,0,0.6-0.2,0.6-0.5v-3.1c0-0.3-0.3-0.5-0.6-0.5H92
		c-0.3,0-0.6-0.2-0.6-0.5v-3.2c0-0.3-0.3-0.5-0.6-0.5H75.5c-0.3,0-0.6,0.2-0.6,0.5v3.2c0,0.3-0.3,0.5-0.6,0.5h0
		c-0.3,0-0.6,0.2-0.6,0.5v3.1C73.8,18.1,74,18.3,74.3,18.3z"/>
	<path id="XMLID_16585_" class="st6" d="M74.3,18.3h17.7c0.3,0,0.6-0.2,0.6-0.5v-3.1c0-0.3-0.3-0.5-0.6-0.5H92
		c-0.3,0-0.6-0.2-0.6-0.5v-3.2c0-0.3-0.3-0.5-0.6-0.5H75.5c-0.3,0-0.6,0.2-0.6,0.5v3.2c0,0.3-0.3,0.5-0.6,0.5h0
		c-0.3,0-0.6,0.2-0.6,0.5v3.1C73.8,18.1,74,18.3,74.3,18.3z"/>
	<path id="XMLID_16584_" class="st7" d="M76.1,10.6h14.1c0.2,0,0.3,0.1,0.3,0.3v4.6c0,0.2-0.1,0.3-0.3,0.3H76.1
		c-0.2,0-0.3-0.1-0.3-0.3v-4.6C75.9,10.7,76,10.6,76.1,10.6z"/>
	<rect id="XMLID_16583_" x="87.9" y="12" class="st8" width="1.4" height="2.3"/>
	<rect id="XMLID_16582_" x="85.2" y="12" class="st8" width="1.4" height="2.3"/>
	<rect id="XMLID_16581_" x="82.5" y="12" class="st8" width="1.4" height="2.3"/>
	<rect id="XMLID_16580_" x="79.8" y="12" class="st8" width="1.4" height="2.3"/>
	<rect id="XMLID_16579_" x="77.1" y="12" class="st8" width="1.4" height="2.3"/>
	<rect id="XMLID_16578_" x="88" y="12.9" class="st9" width="1.1" height="0.6"/>
	<rect id="XMLID_16577_" x="85.3" y="12.9" class="st9" width="1.1" height="0.6"/>
	<rect id="XMLID_16576_" x="82.6" y="12.9" class="st9" width="1.1" height="0.6"/>
	<rect id="XMLID_16575_" x="80" y="12.9" class="st9" width="1.1" height="0.6"/>
	<rect id="XMLID_16574_" x="77.3" y="12.9" class="st9" width="1.1" height="0.6"/>
</g>
<path id="XMLID_16587_" class="st3" d="M115.1,24.5h-9.6c-0.3,0-0.6-0.3-0.6-0.6v-6c0-0.3,0.3-0.6,0.6-0.6h9.6
	c0.3,0,0.6,0.3,0.6,0.6v6C115.6,24.2,115.4,24.5,115.1,24.5z"/>
<circle id="XMLID_16589_" class="st10" cx="51.9" cy="13.7" r="7.1"/>
</svg>
