<?xml version="1.0" encoding="utf-8"?>
<!-- Generator: Adobe Illustrator 19.0.0, SVG Export Plug-In . SVG Version: 6.00 Build 0)  -->
<svg version="1.1" id="图层_1" xmlns="http://www.w3.org/2000/svg" xmlns:xlink="http://www.w3.org/1999/xlink" x="0px" y="0px"
	 width="1275.6px" height="378px" viewBox="0 0 1275.6 378" style="enable-background:new 0 0 1275.6 378;" xml:space="preserve">
<style type="text/css">
	.st0{fill:#44626D;stroke:#1C1C1C;stroke-width:1.7008;stroke-miterlimit:10;}
	.st1{fill:#333333;}
	.st2{fill:#232323;}
	.st3{fill:#191921;}
	.st4{fill:#2B2B2B;}
	.st5{fill:#FFFFFF;}
	.st6{font-family:'Helvetica-Bold';}
	.st7{font-size:12px;}
	.st8{fill:#44626D;}
	.st9{fill:#4A4A4A;}
	.st10{fill:#44626D;stroke:#1C1C1C;stroke-width:0.7087;stroke-miterlimit:10;}
	.st11{fill:#5F7983;stroke:#1C1C1C;stroke-width:1.7008;stroke-miterlimit:10;}
	.st12{fill:#548896;stroke:#1C1C1C;stroke-width:0.7087;stroke-miterlimit:10;}
	.st13{fill:#44626D;stroke:#1C1C1C;stroke-miterlimit:10;}
	.st14{fill:#1C1C1C;stroke:#1C1C1C;stroke-miterlimit:10;}
</style>
<rect id="XMLID_14003_" x="0.9" y="0.9" class="st0" width="1273.9" height="376.3"/>
<g id="XMLID_14033_">
	<rect id="XMLID_16_" x="14.3" y="60.9" class="st1" width="1244.9" height="301.5"/>
	<path id="XMLID_13_" class="st2" d="M1257.9,62.4V361H15.8V62.4H1257.9 M1260.7,59.5H12.9v304.3h1247.8V59.5L1260.7,59.5z"/>
</g>
<rect id="XMLID_14022_" x="12.9" y="0.9" class="st3" width="246.3" height="58.7"/>
<rect id="XMLID_14024_" x="260" y="0.9" class="st3" width="1000.7" height="58.7"/>
<rect id="XMLID_14023_" x="260" y="0.9" class="st4" width="1000.7" height="32.8"/>
<text id="XMLID_14032_" transform="matrix(1 0 0 1 1121.6407 51.1664)" class="st5 st6 st7">Cisco  3900  Series</text>
<g id="XMLID_14035_">
	<rect id="XMLID_26_" x="16.1" y="62.6" class="st8" width="9.1" height="298.2"/>
</g>
<g id="XMLID_14037_">
	<rect id="XMLID_27_" x="1249.7" y="62.6" class="st8" width="9.1" height="298.2"/>
</g>
<g id="XMLID_14141_">
	<g id="XMLID_14121_">
		<path id="XMLID_14140_" class="st9" d="M144,207.8L144,207.8c-2.8,0.3-5.4,1-7.9,2.1l2.2,1.2L144,207.8z"/>
		<path id="XMLID_14139_" class="st9" d="M154.3,211.1l3.3-1.9c-2.8-1-5.8-1.6-9-1.7v0.3L154.3,211.1z"/>
		<path id="XMLID_14138_" class="st9" d="M130.3,224.7l5.7-3.3v-6.6l-4.4-2.5c-2.7,1.8-5.1,3.9-7.1,6.5v2.7L130.3,224.7z"/>
		<polygon id="XMLID_14137_" class="st9" points="152,221.4 152,214.8 146.3,211.5 140.6,214.8 140.6,221.4 146.3,224.7 		"/>
		<path id="XMLID_14136_" class="st9" d="M156.6,214.8v6.6l5.7,3.3l5.7-3.3v-5.7c-1.1-1.1-2.4-2.1-3.7-3l-2-1.2L156.6,214.8z"/>
		<path id="XMLID_14135_" class="st9" d="M172.7,221.5c0-0.1-0.1-0.1-0.1-0.2v0.1L172.7,221.5z"/>
		<path id="XMLID_14134_" class="st9" d="M128,235.9v-6.6l-5.7-3.3l-2.4,1.4c-1,3-1.6,6.2-1.6,9.5l4,2.3L128,235.9z"/>
		<polygon id="XMLID_14133_" class="st9" points="144,229.3 138.3,226 132.6,229.3 132.6,235.9 138.3,239.2 144,235.9 		"/>
		<polygon id="XMLID_14132_" class="st9" points="160,229.3 154.3,226 148.6,229.3 148.6,235.9 154.3,239.2 160,235.9 		"/>
		<polygon id="XMLID_14131_" class="st9" points="176,235.9 176,229.3 170.3,226 164.6,229.3 164.6,235.9 170.3,239.2 		"/>
		<path id="XMLID_14130_" class="st9" d="M118.7,242.2c0.3,1.6,0.7,3.2,1.2,4.7v-3.9L118.7,242.2z"/>
		<polygon id="XMLID_14129_" class="st9" points="124.6,242.9 124.6,249.5 130.3,252.8 136,249.5 136,242.9 130.3,239.6 		"/>
		<polygon id="XMLID_14128_" class="st9" points="140.6,242.9 140.6,249.5 146.3,252.8 152,249.5 152,242.9 146.3,239.6 		"/>
		<polygon id="XMLID_14127_" class="st9" points="168,242.9 162.3,239.6 156.6,242.9 156.6,249.5 162.3,252.8 168,249.5 		"/>
		<path id="XMLID_14126_" class="st9" d="M172.6,249.5l1.3,0.8c1.5-3,2.6-6.3,3-9.8l-4.3,2.5V249.5z"/>
		<path id="XMLID_14125_" class="st9" d="M125,255.7c0.9,1.1,1.9,2.1,2.9,3.1v-1.4L125,255.7z"/>
		<path id="XMLID_14124_" class="st9" d="M144,257.4l-5.7-3.3l-5.7,3.3v4.8c2.6,1.6,5.5,2.8,8.6,3.5l2.8-1.6V257.4z"/>
		<path id="XMLID_14123_" class="st9" d="M154.3,254.1l-5.7,3.3v6.6l3.5,2c2.8-0.4,5.5-1.2,7.9-2.4v-6.2L154.3,254.1z"/>
		<path id="XMLID_14122_" class="st9" d="M171.2,254.6l-0.9-0.5l-5.7,3.3v3.6C167.1,259.2,169.3,257.1,171.2,254.6z"/>
	</g>
	<g id="XMLID_14142_">
		<path id="XMLID_14161_" class="st9" d="M370.1,119.7L370.1,119.7c-2.8,0.3-5.4,1-7.9,2.1l2.2,1.2L370.1,119.7z"/>
		<path id="XMLID_14160_" class="st9" d="M380.4,123l3.3-1.9c-2.8-1-5.8-1.6-9-1.7v0.3L380.4,123z"/>
		<path id="XMLID_14159_" class="st9" d="M356.4,136.6l5.7-3.3v-6.6l-4.4-2.5c-2.7,1.8-5.1,3.9-7.1,6.5v2.7L356.4,136.6z"/>
		<polygon id="XMLID_14158_" class="st9" points="378.1,133.3 378.1,126.7 372.4,123.4 366.7,126.7 366.7,133.3 372.4,136.6 		"/>
		<path id="XMLID_14157_" class="st9" d="M382.7,126.7v6.6l5.7,3.3l5.7-3.3v-5.7c-1.1-1.1-2.4-2.1-3.7-3l-2-1.2L382.7,126.7z"/>
		<path id="XMLID_14156_" class="st9" d="M398.8,133.3c0-0.1-0.1-0.1-0.1-0.2v0.1L398.8,133.3z"/>
		<path id="XMLID_14155_" class="st9" d="M354.1,147.8v-6.6l-5.7-3.3l-2.4,1.4c-1,3-1.6,6.2-1.6,9.5l4,2.3L354.1,147.8z"/>
		<polygon id="XMLID_14154_" class="st9" points="370.1,141.2 364.4,137.9 358.7,141.2 358.7,147.8 364.4,151.1 370.1,147.8 		"/>
		<polygon id="XMLID_14153_" class="st9" points="386.1,141.2 380.4,137.9 374.7,141.2 374.7,147.8 380.4,151.1 386.1,147.8 		"/>
		<polygon id="XMLID_14152_" class="st9" points="402.1,147.8 402.1,141.2 396.4,137.9 390.7,141.2 390.7,147.8 396.4,151.1 		"/>
		<path id="XMLID_14151_" class="st9" d="M344.9,154c0.3,1.6,0.7,3.2,1.2,4.7v-3.9L344.9,154z"/>
		<polygon id="XMLID_14150_" class="st9" points="350.7,154.8 350.7,161.4 356.4,164.6 362.1,161.4 362.1,154.8 356.4,151.5 		"/>
		<polygon id="XMLID_14149_" class="st9" points="366.7,154.8 366.7,161.4 372.4,164.6 378.1,161.4 378.1,154.8 372.4,151.5 		"/>
		<polygon id="XMLID_14148_" class="st9" points="394.1,154.8 388.4,151.5 382.7,154.8 382.7,161.4 388.4,164.6 394.1,161.4 		"/>
		<path id="XMLID_14147_" class="st9" d="M398.7,161.4l1.3,0.8c1.5-3,2.6-6.3,3-9.8l-4.3,2.5V161.4z"/>
		<path id="XMLID_14146_" class="st9" d="M351.2,167.6c0.9,1.1,1.9,2.1,2.9,3.1v-1.4L351.2,167.6z"/>
		<path id="XMLID_14145_" class="st9" d="M370.1,169.3l-5.7-3.3l-5.7,3.3v4.8c2.6,1.6,5.5,2.8,8.6,3.5l2.8-1.6V169.3z"/>
		<path id="XMLID_14144_" class="st9" d="M380.4,166l-5.7,3.3v6.6l3.5,2c2.8-0.4,5.5-1.2,7.9-2.4v-6.2L380.4,166z"/>
		<path id="XMLID_14143_" class="st9" d="M397.3,166.5l-0.9-0.5l-5.7,3.3v3.6C393.2,171.1,395.4,168.9,397.3,166.5z"/>
	</g>
	<g id="XMLID_14182_">
		<path id="XMLID_14201_" class="st9" d="M594.4,207.8L594.4,207.8c-2.8,0.3-5.4,1-7.9,2.1l2.2,1.2L594.4,207.8z"/>
		<path id="XMLID_14200_" class="st9" d="M604.7,211.1l3.3-1.9c-2.8-1-5.8-1.6-9-1.7v0.3L604.7,211.1z"/>
		<path id="XMLID_14199_" class="st9" d="M580.7,224.7l5.7-3.3v-6.6l-4.4-2.5c-2.7,1.8-5.1,3.9-7.1,6.5v2.7L580.7,224.7z"/>
		<polygon id="XMLID_14198_" class="st9" points="602.4,221.4 602.4,214.8 596.7,211.5 591,214.8 591,221.4 596.7,224.7 		"/>
		<path id="XMLID_14197_" class="st9" d="M607,214.8v6.6l5.7,3.3l5.7-3.3v-5.7c-1.1-1.1-2.4-2.1-3.7-3l-2-1.2L607,214.8z"/>
		<path id="XMLID_14196_" class="st9" d="M623.1,221.5c0-0.1-0.1-0.1-0.1-0.2v0.1L623.1,221.5z"/>
		<path id="XMLID_14195_" class="st9" d="M578.4,235.9v-6.6l-5.7-3.3l-2.4,1.4c-1,3-1.6,6.2-1.6,9.5l4,2.3L578.4,235.9z"/>
		<polygon id="XMLID_14194_" class="st9" points="594.4,229.3 588.7,226 583,229.3 583,235.9 588.7,239.2 594.4,235.9 		"/>
		<polygon id="XMLID_14193_" class="st9" points="610.4,229.3 604.7,226 599,229.3 599,235.9 604.7,239.2 610.4,235.9 		"/>
		<polygon id="XMLID_14192_" class="st9" points="626.4,235.9 626.4,229.3 620.7,226 615,229.3 615,235.9 620.7,239.2 		"/>
		<path id="XMLID_14191_" class="st9" d="M569.1,242.2c0.3,1.6,0.7,3.2,1.2,4.7v-3.9L569.1,242.2z"/>
		<polygon id="XMLID_14190_" class="st9" points="575,242.9 575,249.5 580.7,252.8 586.4,249.5 586.4,242.9 580.7,239.6 		"/>
		<polygon id="XMLID_14189_" class="st9" points="591,242.9 591,249.5 596.7,252.8 602.4,249.5 602.4,242.9 596.7,239.6 		"/>
		<polygon id="XMLID_14188_" class="st9" points="618.4,242.9 612.7,239.6 607,242.9 607,249.5 612.7,252.8 618.4,249.5 		"/>
		<path id="XMLID_14187_" class="st9" d="M623,249.5l1.3,0.8c1.5-3,2.6-6.3,3-9.8l-4.3,2.5V249.5z"/>
		<path id="XMLID_14186_" class="st9" d="M575.4,255.7c0.9,1.1,1.9,2.1,2.9,3.1v-1.4L575.4,255.7z"/>
		<path id="XMLID_14185_" class="st9" d="M594.4,257.4l-5.7-3.3l-5.7,3.3v4.8c2.6,1.6,5.5,2.8,8.6,3.5l2.8-1.6V257.4z"/>
		<path id="XMLID_14184_" class="st9" d="M604.7,254.1l-5.7,3.3v6.6l3.5,2c2.8-0.4,5.5-1.2,7.9-2.4v-6.2L604.7,254.1z"/>
		<path id="XMLID_14183_" class="st9" d="M621.5,254.6l-0.9-0.5l-5.7,3.3v3.6C617.5,259.2,619.7,257.1,621.5,254.6z"/>
	</g>
	<g id="XMLID_14202_">
		<path id="XMLID_14221_" class="st9" d="M1118.1,207.8L1118.1,207.8c-2.8,0.3-5.4,1-7.9,2.1l2.2,1.2L1118.1,207.8z"/>
		<path id="XMLID_14220_" class="st9" d="M1128.4,211.1l3.3-1.9c-2.8-1-5.8-1.6-9-1.7v0.3L1128.4,211.1z"/>
		<path id="XMLID_14219_" class="st9" d="M1104.4,224.7l5.7-3.3v-6.6l-4.4-2.5c-2.7,1.8-5.1,3.9-7.1,6.5v2.7L1104.4,224.7z"/>
		<polygon id="XMLID_14218_" class="st9" points="1126.1,221.4 1126.1,214.8 1120.4,211.5 1114.6,214.8 1114.6,221.4 1120.4,224.7 
					"/>
		<path id="XMLID_14217_" class="st9" d="M1130.6,214.8v6.6l5.7,3.3l5.7-3.3v-5.7c-1.1-1.1-2.4-2.1-3.7-3l-2-1.2L1130.6,214.8z"/>
		<path id="XMLID_14216_" class="st9" d="M1146.8,221.5c0-0.1-0.1-0.1-0.1-0.2v0.1L1146.8,221.5z"/>
		<path id="XMLID_14215_" class="st9" d="M1102.1,235.9v-6.6l-5.7-3.3l-2.4,1.4c-1,3-1.6,6.2-1.6,9.5l4,2.3L1102.1,235.9z"/>
		<polygon id="XMLID_14214_" class="st9" points="1118.1,229.3 1112.4,226 1106.6,229.3 1106.6,235.9 1112.4,239.2 1118.1,235.9 		
			"/>
		<polygon id="XMLID_14213_" class="st9" points="1134.1,229.3 1128.4,226 1122.6,229.3 1122.6,235.9 1128.4,239.2 1134.1,235.9 		
			"/>
		<polygon id="XMLID_14212_" class="st9" points="1150.1,235.9 1150.1,229.3 1144.4,226 1138.6,229.3 1138.6,235.9 1144.4,239.2 		
			"/>
		<path id="XMLID_14211_" class="st9" d="M1092.8,242.2c0.3,1.6,0.7,3.2,1.2,4.7v-3.9L1092.8,242.2z"/>
		<polygon id="XMLID_14210_" class="st9" points="1098.6,242.9 1098.6,249.5 1104.4,252.8 1110.1,249.5 1110.1,242.9 1104.4,239.6 
					"/>
		<polygon id="XMLID_14209_" class="st9" points="1114.6,242.9 1114.6,249.5 1120.4,252.8 1126.1,249.5 1126.1,242.9 1120.4,239.6 
					"/>
		<polygon id="XMLID_14208_" class="st9" points="1142.1,242.9 1136.4,239.6 1130.6,242.9 1130.6,249.5 1136.4,252.8 1142.1,249.5 
					"/>
		<path id="XMLID_14207_" class="st9" d="M1146.6,249.5l1.3,0.8c1.5-3,2.6-6.3,3-9.8l-4.3,2.5V249.5z"/>
		<path id="XMLID_14206_" class="st9" d="M1099.1,255.7c0.9,1.1,1.9,2.1,2.9,3.1v-1.4L1099.1,255.7z"/>
		<path id="XMLID_14205_" class="st9" d="M1118.1,257.4l-5.7-3.3l-5.7,3.3v4.8c2.6,1.6,5.5,2.8,8.6,3.5l2.8-1.6V257.4z"/>
		<path id="XMLID_14204_" class="st9" d="M1128.4,254.1l-5.7,3.3v6.6l3.5,2c2.8-0.4,5.5-1.2,7.9-2.4v-6.2L1128.4,254.1z"/>
		<path id="XMLID_14203_" class="st9" d="M1145.2,254.6l-0.9-0.5l-5.7,3.3v3.6C1141.2,259.2,1143.4,257.1,1145.2,254.6z"/>
	</g>
	<g id="XMLID_14162_">
		<path id="XMLID_14181_" class="st9" d="M820.5,119.7L820.5,119.7c-2.8,0.3-5.4,1-7.9,2.1l2.2,1.2L820.5,119.7z"/>
		<path id="XMLID_14180_" class="st9" d="M830.8,123l3.3-1.9c-2.8-1-5.8-1.6-9-1.7v0.3L830.8,123z"/>
		<path id="XMLID_14179_" class="st9" d="M806.8,136.6l5.7-3.3v-6.6l-4.4-2.5c-2.7,1.8-5.1,3.9-7.1,6.5v2.7L806.8,136.6z"/>
		<polygon id="XMLID_14178_" class="st9" points="828.5,133.3 828.5,126.7 822.8,123.4 817.1,126.7 817.1,133.3 822.8,136.6 		"/>
		<path id="XMLID_14177_" class="st9" d="M833.1,126.7v6.6l5.7,3.3l5.7-3.3v-5.7c-1.1-1.1-2.4-2.1-3.7-3l-2-1.2L833.1,126.7z"/>
		<path id="XMLID_14176_" class="st9" d="M849.2,133.3c0-0.1-0.1-0.1-0.1-0.2v0.1L849.2,133.3z"/>
		<path id="XMLID_14175_" class="st9" d="M804.5,147.8v-6.6l-5.7-3.3l-2.4,1.4c-1,3-1.6,6.2-1.6,9.5l4,2.3L804.5,147.8z"/>
		<polygon id="XMLID_14174_" class="st9" points="820.5,141.2 814.8,137.9 809.1,141.2 809.1,147.8 814.8,151.1 820.5,147.8 		"/>
		<polygon id="XMLID_14173_" class="st9" points="836.5,141.2 830.8,137.9 825.1,141.2 825.1,147.8 830.8,151.1 836.5,147.8 		"/>
		<polygon id="XMLID_14172_" class="st9" points="852.5,147.8 852.5,141.2 846.8,137.9 841.1,141.2 841.1,147.8 846.8,151.1 		"/>
		<path id="XMLID_14171_" class="st9" d="M795.2,154c0.3,1.6,0.7,3.2,1.2,4.7v-3.9L795.2,154z"/>
		<polygon id="XMLID_14170_" class="st9" points="801.1,154.8 801.1,161.4 806.8,164.6 812.5,161.4 812.5,154.8 806.8,151.5 		"/>
		<polygon id="XMLID_14169_" class="st9" points="817.1,154.8 817.1,161.4 822.8,164.6 828.5,161.4 828.5,154.8 822.8,151.5 		"/>
		<polygon id="XMLID_14168_" class="st9" points="844.5,154.8 838.8,151.5 833.1,154.8 833.1,161.4 838.8,164.6 844.5,161.4 		"/>
		<path id="XMLID_14167_" class="st9" d="M849.1,161.4l1.3,0.8c1.5-3,2.6-6.3,3-9.8l-4.3,2.5V161.4z"/>
		<path id="XMLID_14166_" class="st9" d="M801.5,167.6c0.9,1.1,1.9,2.1,2.9,3.1v-1.4L801.5,167.6z"/>
		<path id="XMLID_14165_" class="st9" d="M820.5,169.3l-5.7-3.3l-5.7,3.3v4.8c2.6,1.6,5.5,2.8,8.6,3.5l2.8-1.6V169.3z"/>
		<path id="XMLID_14164_" class="st9" d="M830.8,166l-5.7,3.3v6.6l3.5,2c2.8-0.4,5.5-1.2,7.9-2.4v-6.2L830.8,166z"/>
		<path id="XMLID_14163_" class="st9" d="M847.7,166.5l-0.9-0.5l-5.7,3.3v3.6C843.6,171.1,845.8,168.9,847.7,166.5z"/>
	</g>
</g>
<g id="XMLID_14072_">
	<g id="XMLID_14116_">
		<polygon id="XMLID_14117_" class="st10" points="1224.9,361.8 1202.3,322.8 1224.3,286 1202.3,249.1 1224.3,212.8 1200.6,175.3 
			1224.3,138.4 1202.3,101.6 1225,63.6 1228.6,65.8 1207.3,101.6 1229.3,138.5 1205.6,175.3 1229.3,212.7 1207.3,249.1 1229.3,286 
			1207.3,322.8 1228.6,359.7 		"/>
	</g>
	<g id="XMLID_14077_">
		<g id="XMLID_14078_">
			<polygon id="XMLID_14079_" class="st10" points="57,361.8 34.4,322.8 56.4,286 34.4,249.1 56.4,212.8 32.7,175.3 56.4,138.4 
				34.4,101.6 57,63.6 60.7,65.8 39.3,101.6 61.4,138.5 37.7,175.3 61.4,212.7 39.3,249.1 61.3,286 39.3,322.8 60.7,359.7 			"/>
		</g>
		<g id="XMLID_14073_">
			<polygon id="XMLID_14075_" class="st10" points="97.1,360.8 93.5,358.6 114.8,322.8 92.8,286 114.8,249.1 92.8,212.2 
				114.8,175.3 92.8,138.4 114.8,101.6 93.5,65.8 97.1,63.6 119.8,101.6 97.8,138.4 119.8,175.3 97.8,212.2 119.8,249.1 97.8,286 
				119.8,322.8 			"/>
		</g>
	</g>
	<g id="XMLID_14076_">
		<g id="XMLID_14119_">
			<polygon id="XMLID_14120_" class="st10" points="188.9,361.8 166.3,322.8 188.3,286 166.3,249.1 188.3,212.8 164.6,175.3 
				188.3,138.4 166.3,101.6 188.9,63.6 192.6,65.8 171.2,101.6 193.3,138.5 169.6,175.3 193.3,212.7 171.2,249.1 193.2,286 
				171.2,322.8 192.6,359.7 			"/>
		</g>
		<g id="XMLID_14080_">
			<polygon id="XMLID_14118_" class="st10" points="229,360.8 225.4,358.6 246.7,322.8 224.7,286 246.7,249.1 224.7,212.2 
				246.7,175.3 224.7,138.4 246.7,101.6 225.4,65.8 229,63.6 251.7,101.6 229.7,138.4 251.7,175.3 229.7,212.2 251.7,249.1 
				229.7,286 251.7,322.8 			"/>
		</g>
	</g>
	<g id="XMLID_14081_">
		<g id="XMLID_14084_">
			<polygon id="XMLID_14085_" class="st10" points="320.8,361.8 298.2,322.8 320.2,286 298.2,249.1 320.1,212.8 296.5,175.3 
				320.1,138.4 298.2,101.6 320.8,63.6 324.5,65.8 303.1,101.6 325.1,138.5 301.5,175.3 325.1,212.7 303.1,249.1 325.1,286 
				303.1,322.8 324.5,359.7 			"/>
		</g>
		<g id="XMLID_14082_">
			<polygon id="XMLID_14083_" class="st10" points="360.9,360.8 357.3,358.6 378.6,322.8 356.6,286 378.6,249.1 356.6,212.2 
				378.6,175.3 356.6,138.4 378.6,101.6 357.3,65.8 360.9,63.6 383.6,101.6 361.6,138.4 383.6,175.3 361.6,212.2 383.6,249.1 
				361.6,286 383.6,322.8 			"/>
		</g>
	</g>
	<g id="XMLID_14086_">
		<g id="XMLID_14089_">
			<polygon id="XMLID_14090_" class="st10" points="452.7,361.8 430.1,322.8 452.1,286 430.1,249.1 452,212.8 428.4,175.3 
				452,138.4 430.1,101.6 452.7,63.6 456.4,65.8 435,101.6 457,138.5 433.4,175.3 457,212.7 435,249.1 457,286 435,322.8 
				456.4,359.7 			"/>
		</g>
		<g id="XMLID_14087_">
			<polygon id="XMLID_14088_" class="st10" points="492.8,360.8 489.1,358.6 510.5,322.8 488.5,286 510.5,249.1 488.5,212.2 
				510.5,175.3 488.5,138.4 510.5,101.6 489.1,65.8 492.8,63.6 515.4,101.6 493.4,138.4 515.4,175.3 493.4,212.2 515.4,249.1 
				493.4,286 515.4,322.8 			"/>
		</g>
	</g>
	<g id="XMLID_14091_">
		<g id="XMLID_14094_">
			<polygon id="XMLID_14095_" class="st10" points="584.6,361.8 562,322.8 584,286 562,249.1 583.9,212.8 560.2,175.3 583.9,138.4 
				562,101.6 584.6,63.6 588.3,65.8 566.9,101.6 588.9,138.5 565.3,175.3 588.9,212.7 566.9,249.1 588.9,286 566.9,322.8 
				588.3,359.7 			"/>
		</g>
		<g id="XMLID_14092_">
			<polygon id="XMLID_14093_" class="st10" points="624.7,360.8 621,358.6 642.4,322.8 620.4,286 642.4,249.1 620.4,212.2 
				642.4,175.3 620.4,138.4 642.4,101.6 621,65.8 624.7,63.6 647.3,101.6 625.3,138.4 647.3,175.3 625.3,212.2 647.3,249.1 
				625.3,286 647.3,322.8 			"/>
		</g>
	</g>
	<g id="XMLID_14096_">
		<g id="XMLID_14099_">
			<polygon id="XMLID_14100_" class="st10" points="716.5,361.8 693.9,322.8 715.9,286 693.9,249.1 715.8,212.8 692.1,175.3 
				715.8,138.4 693.9,101.6 716.5,63.6 720.2,65.8 698.8,101.6 720.8,138.5 697.2,175.3 720.8,212.7 698.8,249.1 720.8,286 
				698.8,322.8 720.2,359.7 			"/>
		</g>
		<g id="XMLID_14097_">
			<polygon id="XMLID_14098_" class="st10" points="756.6,360.8 752.9,358.6 774.3,322.8 752.3,286 774.3,249.1 752.3,212.2 
				774.3,175.3 752.3,138.4 774.3,101.6 752.9,65.8 756.6,63.6 779.2,101.6 757.2,138.4 779.2,175.3 757.2,212.2 779.2,249.1 
				757.2,286 779.2,322.8 			"/>
		</g>
	</g>
	<g id="XMLID_14101_">
		<g id="XMLID_14104_">
			<polygon id="XMLID_14105_" class="st10" points="848.4,361.8 825.8,322.8 847.8,286 825.7,249.1 847.7,212.8 824,175.3 
				847.7,138.4 825.8,101.6 848.4,63.6 852.1,65.8 830.7,101.6 852.7,138.5 829.1,175.3 852.7,212.7 830.7,249.1 852.7,286 
				830.7,322.8 852.1,359.7 			"/>
		</g>
		<g id="XMLID_14102_">
			<polygon id="XMLID_14103_" class="st10" points="888.5,360.8 884.8,358.6 906.2,322.8 884.2,286 906.2,249.1 884.2,212.2 
				906.2,175.3 884.2,138.4 906.2,101.6 884.8,65.8 888.5,63.6 911.1,101.6 889.1,138.4 911.1,175.3 889.1,212.2 911.1,249.1 
				889.1,286 911.1,322.8 			"/>
		</g>
	</g>
	<g id="XMLID_14106_">
		<g id="XMLID_14109_">
			<polygon id="XMLID_14110_" class="st10" points="980.3,361.8 957.7,322.8 979.6,286 957.6,249.1 979.6,212.8 955.9,175.3 
				979.6,138.4 957.6,101.6 980.3,63.6 983.9,65.8 962.6,101.6 984.6,138.5 961,175.3 984.6,212.7 962.6,249.1 984.6,286 
				962.6,322.8 984,359.7 			"/>
		</g>
		<g id="XMLID_14107_">
			<polygon id="XMLID_14108_" class="st10" points="1020.4,360.8 1016.7,358.6 1038.1,322.8 1016.1,286 1038.1,249.1 1016.1,212.2 
				1038.1,175.3 1016.1,138.4 1038.1,101.6 1016.7,65.8 1020.4,63.6 1043,101.6 1021,138.4 1043,175.3 1021,212.2 1043,249.1 
				1021,286 1043,322.8 			"/>
		</g>
	</g>
	<g id="XMLID_14111_">
		<g id="XMLID_14114_">
			<polygon id="XMLID_14115_" class="st10" points="1112.2,361.8 1089.5,322.8 1111.5,286 1089.5,249.1 1111.5,212.8 1087.8,175.3 
				1111.5,138.4 1089.5,101.6 1112.2,63.6 1115.8,65.8 1094.5,101.6 1116.5,138.5 1092.9,175.3 1116.5,212.7 1094.5,249.1 
				1116.5,286 1094.5,322.8 1115.9,359.7 			"/>
		</g>
		<g id="XMLID_14112_">
			<polygon id="XMLID_14113_" class="st10" points="1152.3,360.8 1148.6,358.6 1170,322.8 1148,286 1170,249.1 1148,212.2 
				1170,175.3 1148,138.4 1170,101.6 1148.6,65.8 1152.3,63.6 1174.9,101.6 1152.9,138.4 1174.9,175.3 1152.9,212.2 1174.9,249.1 
				1152.9,286 1174.9,322.8 			"/>
		</g>
	</g>
</g>
<rect id="XMLID_14243_" x="16.1" y="324.9" class="st11" width="1242.7" height="36.9"/>
<g id="XMLID_14074_">
	<rect id="XMLID_14034_" x="16.1" y="62.6" class="st12" width="1242.7" height="4.2"/>
	<rect id="XMLID_14038_" x="16.1" y="74.9" class="st12" width="1242.7" height="4.2"/>
	<rect id="XMLID_14039_" x="16.1" y="87.2" class="st12" width="1242.7" height="4.2"/>
	<rect id="XMLID_14040_" x="16.1" y="99.5" class="st12" width="1242.7" height="4.2"/>
	<rect id="XMLID_14041_" x="16.1" y="111.8" class="st12" width="1242.7" height="4.2"/>
	<rect id="XMLID_14042_" x="16.1" y="124" class="st12" width="1242.7" height="4.2"/>
	<rect id="XMLID_14043_" x="16.1" y="136.3" class="st12" width="1242.7" height="4.2"/>
	<rect id="XMLID_14045_" x="16.1" y="148.6" class="st12" width="1242.7" height="4.2"/>
	<rect id="XMLID_14046_" x="16.1" y="160.9" class="st12" width="1242.7" height="4.2"/>
	<rect id="XMLID_14047_" x="16.1" y="173.2" class="st12" width="1242.7" height="4.2"/>
	<rect id="XMLID_14052_" x="16.1" y="185.5" class="st12" width="1242.7" height="4.2"/>
	<rect id="XMLID_14053_" x="16.1" y="197.8" class="st12" width="1242.7" height="4.2"/>
	<rect id="XMLID_14054_" x="16.1" y="210.1" class="st12" width="1242.7" height="4.2"/>
	<rect id="XMLID_14056_" x="16.1" y="222.4" class="st12" width="1242.7" height="4.2"/>
	<rect id="XMLID_14058_" x="16.1" y="234.7" class="st12" width="1242.7" height="4.2"/>
	<rect id="XMLID_14059_" x="16.1" y="247" class="st12" width="1242.7" height="4.2"/>
	<rect id="XMLID_14061_" x="16.1" y="259.3" class="st12" width="1242.7" height="4.2"/>
	<rect id="XMLID_14062_" x="16.1" y="271.6" class="st12" width="1242.7" height="4.2"/>
	<rect id="XMLID_14064_" x="16.1" y="283.9" class="st12" width="1242.7" height="4.2"/>
	<rect id="XMLID_14065_" x="16.1" y="296.1" class="st12" width="1242.7" height="4.2"/>
	<rect id="XMLID_14066_" x="16.1" y="308.4" class="st12" width="1242.7" height="4.2"/>
	<rect id="XMLID_14067_" x="16.1" y="320.7" class="st12" width="1242.7" height="4.2"/>
	<rect id="XMLID_14068_" x="16.1" y="333" class="st12" width="1242.7" height="4.2"/>
	<rect id="XMLID_14069_" x="16.1" y="345.3" class="st12" width="1242.7" height="4.2"/>
	<rect id="XMLID_14070_" x="16.1" y="357.6" class="st12" width="1242.7" height="4.2"/>
</g>
<g id="XMLID_14244_">
	<path id="XMLID_14222_" class="st13" d="M1019.7,375.3H836.5V265.8c0-4.7,3.8-8.5,8.5-8.5h166.2c4.7,0,8.5,3.8,8.5,8.5V375.3z"/>
	<path id="XMLID_14233_" class="st14" d="M1011.4,375.3H844.8V273.8c0-4.7,3.8-8.5,8.5-8.5h149.6c4.7,0,8.5,3.8,8.5,8.5V375.3z"/>
</g>
<g id="XMLID_14246_">
	<path id="XMLID_14267_" class="st13" d="M442.8,375.3H259.6V265.8c0-4.7,3.8-8.5,8.5-8.5h166.2c4.7,0,8.5,3.8,8.5,8.5V375.3z"/>
	<path id="XMLID_14266_" class="st14" d="M434.5,375.3H267.9V273.8c0-4.7,3.8-8.5,8.5-8.5h149.6c4.7,0,8.5,3.8,8.5,8.5V375.3z"/>
</g>
</svg>
