<?xml version="1.0" encoding="utf-8"?>
<!-- Generator: Adobe Illustrator 16.0.0, SVG Export Plug-In . SVG Version: 6.00 Build 0)  -->
<!DOCTYPE svg PUBLIC "-//W3C//DTD SVG 1.1//EN" "http://www.w3.org/Graphics/SVG/1.1/DTD/svg11.dtd">
<svg version="1.1" id="图层_1" xmlns="http://www.w3.org/2000/svg" xmlns:xlink="http://www.w3.org/1999/xlink" x="0px" y="0px"
	 width="1275.59px" height="126.14px" viewBox="0 0 1275.59 126.14" enable-background="new 0 0 1275.59 126.14"
	 xml:space="preserve">
<g>
	<g>
		<g>
			<rect fill="#B1A89A" width="1275.59" height="126.144"/>
		</g>
		<g>
			<g>
				<g>
					<path fill="#4A4949" d="M36.85,30.766c0,7.332-5.946,13.277-13.281,13.277s-13.281-5.945-13.281-13.277
						c0-7.334,5.946-13.277,13.281-13.277S36.85,23.432,36.85,30.766"/>
					<g>
						<circle fill="none" stroke="#131313" stroke-width="0.75" stroke-miterlimit="10" cx="23.568" cy="30.766" r="13.281"/>
					</g>
					<polygon fill="#040000" points="21.928,38.295 21.928,32.404 16.036,32.404 16.036,29.124 21.928,29.124 21.928,23.234 
						25.21,23.234 25.21,29.124 31.101,29.124 31.101,32.404 25.21,32.404 25.21,38.295 					"/>
					<path fill="#231815" d="M24.933,23.512v5.336V29.4h0.554h5.338v2.728h-5.338h-0.554v0.554v5.336h-2.728v-5.336v-0.554H21.65
						h-5.338V29.4h5.338h0.555v-0.553v-5.336H24.933z M25.486,22.958H21.65v5.89h-5.892v3.834h5.892v5.891h3.836v-5.891h5.892
						v-3.834h-5.892V22.958z"/>
				</g>
				<g>
					<path fill="#4A4949" d="M36.85,95.378c0,7.332-5.946,13.277-13.281,13.277s-13.281-5.945-13.281-13.277
						c0-7.334,5.946-13.277,13.281-13.277S36.85,88.044,36.85,95.378"/>
					<g>
						<circle fill="none" stroke="#131313" stroke-width="0.75" stroke-miterlimit="10" cx="23.568" cy="95.378" r="13.281"/>
					</g>
					<polygon fill="#040000" points="21.928,102.907 21.928,97.017 16.036,97.017 16.036,93.735 21.928,93.735 21.928,87.847 
						25.21,87.847 25.21,93.735 31.101,93.735 31.101,97.017 25.21,97.017 25.21,102.907 					"/>
					<path fill="#231815" d="M24.933,88.124v5.336v0.553h0.554h5.338v2.727h-5.338h-0.554v0.555v5.336h-2.728v-5.336v-0.555H21.65
						h-5.338v-2.727h5.338h0.555V93.46v-5.336H24.933z M25.486,87.569H21.65v5.891h-5.892v3.834h5.892v5.891h3.836v-5.891h5.892
						V93.46h-5.892V87.569z"/>
				</g>
			</g>
			<g>
				<g>
					<path fill="#4A4949" d="M1265.583,30.766c0,7.332-5.947,13.277-13.282,13.277s-13.28-5.945-13.28-13.277
						c0-7.334,5.945-13.277,13.28-13.277S1265.583,23.432,1265.583,30.766"/>
					<g>
						<circle fill="none" stroke="#131313" stroke-width="0.75" stroke-miterlimit="10" cx="1252.302" cy="30.766" r="13.281"/>
					</g>
					<polygon fill="#040000" points="1250.66,38.295 1250.66,32.404 1244.769,32.404 1244.769,29.124 1250.66,29.124 
						1250.66,23.234 1253.942,23.234 1253.942,29.124 1259.833,29.124 1259.833,32.404 1253.942,32.404 1253.942,38.295 					"/>
					<path fill="#231815" d="M1253.665,23.512v5.336V29.4h0.554h5.339v2.728h-5.339h-0.554v0.554v5.336h-2.727v-5.336v-0.554h-0.556
						h-5.337V29.4h5.337h0.556v-0.553v-5.336H1253.665z M1254.219,22.958h-3.836v5.89h-5.892v3.834h5.892v5.891h3.836v-5.891h5.892
						v-3.834h-5.892V22.958z"/>
				</g>
				<g>
					<path fill="#4A4949" d="M1265.583,95.378c0,7.332-5.947,13.277-13.282,13.277s-13.28-5.945-13.28-13.277
						c0-7.334,5.945-13.277,13.28-13.277S1265.583,88.044,1265.583,95.378"/>
					<g>
						<circle fill="none" stroke="#131313" stroke-width="0.75" stroke-miterlimit="10" cx="1252.302" cy="95.378" r="13.281"/>
					</g>
					<polygon fill="#040000" points="1250.66,102.907 1250.66,97.017 1244.769,97.017 1244.769,93.735 1250.66,93.735 
						1250.66,87.847 1253.942,87.847 1253.942,93.735 1259.833,93.735 1259.833,97.017 1253.942,97.017 1253.942,102.907 					"/>
					<path fill="#231815" d="M1253.665,88.124v5.336v0.553h0.554h5.339v2.727h-5.339h-0.554v0.555v5.336h-2.727v-5.336v-0.555
						h-0.556h-5.337v-2.727h5.337h0.556V93.46v-5.336H1253.665z M1254.219,87.569h-3.836v5.891h-5.892v3.834h5.892v5.891h3.836
						v-5.891h5.892V93.46h-5.892V87.569z"/>
				</g>
			</g>
		</g>
	</g>
	<g>
		<g>
			<g>
				<g>
					<g>
						<path fill="#D0CCC6" d="M84.423,80.001c0,3.313,2.687,6,6,6h50.522c3.314,0,6-2.688,6-6v-65.89c0-3.313-2.686-6-6-6H90.423
							c-3.313,0-6,2.687-6,6V80.001z"/>
					</g>
				</g>
				<g>
					<path fill="#7F7A79" d="M94.697,55.558c0,3.313,2.686,6,6,6h29.974c3.314,0,6-2.687,6-6V38.553c0-3.314-2.686-6-6-6h-29.974
						c-3.314,0-6,2.686-6,6V55.558z"/>
				</g>
			</g>
			<g>
				<rect x="83.954" y="101.226" fill="#383838" width="62.522" height="11.393"/>
				<linearGradient id="SVGID_1_" gradientUnits="userSpaceOnUse" x1="115.2153" y1="126.6182" x2="115.2153" y2="105.9229">
					<stop  offset="0" style="stop-color:#5E5E5E"/>
					<stop  offset="0.5336" style="stop-color:#FFFFFF"/>
					<stop  offset="1" style="stop-color:#5E5E5E"/>
				</linearGradient>
				<rect x="93.29" y="105.923" fill="url(#SVGID_1_)" width="43.851" height="20.695"/>
			</g>
		</g>
		<g>
			<g>
				<g>
					<g>
						<path fill="#D0CCC6" d="M1129.113,80.001c0,3.313,2.687,6,6,6h50.522c3.314,0,6-2.688,6-6v-65.89c0-3.313-2.686-6-6-6h-50.522
							c-3.313,0-6,2.687-6,6V80.001z"/>
					</g>
				</g>
				<g>
					<path fill="#7F7A79" d="M1139.388,55.558c0,3.313,2.686,6,6,6h29.975c3.313,0,6-2.687,6-6V38.553c0-3.314-2.687-6-6-6h-29.975
						c-3.314,0-6,2.686-6,6V55.558z"/>
				</g>
			</g>
			<g>
				<rect x="1128.645" y="101.226" fill="#383838" width="62.522" height="11.393"/>
				<linearGradient id="SVGID_2_" gradientUnits="userSpaceOnUse" x1="1159.9063" y1="126.6182" x2="1159.9063" y2="105.9229">
					<stop  offset="0" style="stop-color:#5E5E5E"/>
					<stop  offset="0.5336" style="stop-color:#FFFFFF"/>
					<stop  offset="1" style="stop-color:#5E5E5E"/>
				</linearGradient>
				<rect x="1137.98" y="105.923" fill="url(#SVGID_2_)" width="43.851" height="20.695"/>
			</g>
		</g>
	</g>
</g>
</svg>
