<?xml version="1.0" encoding="utf-8"?>
<!-- Generator: Adobe Illustrator 16.0.0, SVG Export Plug-In . SVG Version: 6.00 Build 0)  -->
<!DOCTYPE svg PUBLIC "-//W3C//DTD SVG 1.1//EN" "http://www.w3.org/Graphics/SVG/1.1/DTD/svg11.dtd">
<svg version="1.1" id="图层_1" xmlns="http://www.w3.org/2000/svg" xmlns:xlink="http://www.w3.org/1999/xlink" x="0px" y="0px"
	 width="1277.29px" height="127.84px" viewBox="0 0 1277.29 127.84" enable-background="new 0 0 1277.29 127.84"
	 xml:space="preserve">
<g>
	<rect x="0.85" y="0.85" fill="#CECECE" width="1275.59" height="126.143"/>
	<path fill="#1F2020" d="M1277.29,127.843H0V0h1277.29V127.843z M1.7,126.143h1273.89V1.7H1.7V126.143z"/>
</g>
<g>
	<path fill="#515151" d="M92.889,53.981l-1.349-0.807v0.602h-6.037h-0.537h-0.484l1.369-1.371c0.125-0.125,0.297-0.195,0.471-0.195
		h1.211c0.109,0.25,0.361,0.424,0.652,0.424c0.393,0,0.711-0.316,0.711-0.711c0-0.393-0.318-0.711-0.711-0.711
		c-0.35,0-0.639,0.25-0.7,0.582h-1.164c-0.283,0-0.561,0.115-0.764,0.318l-1.473,1.473c-0.122,0.123-0.287,0.191-0.459,0.191h-0.182
		h-0.478c-0.098-0.537-0.566-0.943-1.129-0.943c-0.637,0-1.152,0.514-1.152,1.148c0,0.637,0.516,1.15,1.152,1.15
		c0.563,0,1.031-0.406,1.129-0.941h0.478h0.182h1.34h0.537c0.174,0,0.336,0.066,0.457,0.188l1.413,1.412
		c0.203,0.203,0.474,0.316,0.76,0.316h1.02v0.539h1.349v-1.35h-1.349v0.395h-1.02c-0.176,0-0.342-0.068-0.467-0.195l-1.307-1.305
		h5.182v0.6L92.889,53.981z"/>
</g>
<g>
	<path fill="#3E555F" d="M1276.085,109.577h-13.982H1077.7c0,0-7.172-0.166-11.01,4.168c-3.836,4.332-14.178,9.832-24.187,10
		c-10.009,0.166-1041.367,0-1041.367,0v1.832v0.5h1274.948V109.577z"/>
	<path fill="#0C0C0C" d="M1276.585,126.577H0.637v-3.332h0.5c0,0,458.381,0.074,766.935,0.074
		c179.146,0,271.476-0.025,274.423-0.074c10.468-0.176,20.402-5.971,23.822-9.832c3.652-4.127,10.035-4.336,11.277-4.336h0.116
		h198.874V126.577z M1.638,125.577h1273.945v-15.5h-197.988c-0.717,0-7.088,0.111-10.527,3.998
		c-4.219,4.764-14.805,10.006-24.555,10.17c-2.955,0.049-95.289,0.074-274.44,0.074c-302.64,0-749.42-0.072-766.434-0.074V125.577z"
		/>
</g>
<rect x="160.572" y="17.559" fill="#EFE68F" width="39.612" height="10"/>
<rect x="203.847" y="17.559" fill="#99BAC6" width="39.612" height="10"/>
<rect x="160.572" y="112.827" fill="#EFE68F" width="39.612" height="10"/>
<rect x="203.847" y="112.827" fill="#434444" width="39.612" height="10"/>
<g>
	<path fill="#3E555F" d="M1.069,63.922V0.852h1275.157v13.975H122.858c0,0-5.84,0.082-9.678,2.915c-3.835,2.833-43.376,40-43.376,40
		s-6.257,6.181-17.268,6.181H1.069z"/>
	<path fill="#0C0C0C" d="M52.537,64.422H0.569V0.352h1276.157v14.975H122.858c-0.051,0.001-5.721,0.115-9.38,2.817
		c-3.77,2.783-42.936,39.591-43.33,39.962C69.896,58.356,63.625,64.422,52.537,64.422z M1.569,63.422h50.968
		c10.659,0,16.854-5.977,16.916-6.037c1.626-1.525,39.614-37.228,43.431-40.046c3.922-2.896,9.722-3.009,9.967-3.013h1152.875V1.352
		H1.569V63.422z"/>
</g>
<text transform="matrix(1 0 0 1 1141.043 123.0527)" fill="#DDDDDD" stroke="#DDDDDD" stroke-width="0.5" stroke-miterlimit="10" font-family="'Helvetica'" font-size="13.36">Cisco 2800</text>
<text transform="matrix(1 0 0 1 1211.2168 123.0527)" fill="#E0E0E0" font-family="'Helvetica'" font-size="8.2658">Series</text>
<rect x="134.267" y="30.264" fill="#636363" stroke="#000000" stroke-width="2" stroke-miterlimit="10" width="127.114" height="80.067"/>
<path fill="#4F4F4F" d="M258.86,70.86c0,1.217-0.986,2.201-2.202,2.201H143.301c-1.216,0-2.201-0.984-2.201-2.201l0,0
	c0-1.215,0.985-2.201,2.201-2.201h113.356C257.874,68.659,258.86,69.646,258.86,70.86L258.86,70.86z"/>
<circle fill="#161616" cx="146.979" cy="42.639" r="1.98"/>
<circle fill="#161616" cx="146.979" cy="50.178" r="1.98"/>
<circle fill="#161616" cx="146.979" cy="57.717" r="1.98"/>
<circle fill="#161616" cx="146.979" cy="80.513" r="1.98"/>
<circle fill="#161616" cx="146.979" cy="88.05" r="1.98"/>
<circle fill="#161616" cx="146.979" cy="95.589" r="1.98"/>
<path fill="#6D6C6C" d="M258.86,70.298c0,1.215-0.986,2.201-2.202,2.201H143.301c-1.216,0-2.201-0.986-2.201-2.201l0,0
	c0-1.217,0.985-2.201,2.201-2.201h113.356C257.874,68.097,258.86,69.081,258.86,70.298L258.86,70.298z"/>
<text transform="matrix(1 0 0 1 33.6987 109.8281)"><tspan x="0" y="0" font-family="'Helvetica'" font-size="5.1659">SYS</tspan><tspan x="0" y="6.199" font-family="'Helvetica'" font-size="5.1659">PWR</tspan></text>
<text transform="matrix(1 0 0 1 53.4487 109.8281)"><tspan x="0" y="0" font-family="'Helvetica'" font-size="5.1659">SYS</tspan><tspan x="0" y="6.199" font-family="'Helvetica'" font-size="5.1659">AC1</tspan></text>
<text transform="matrix(1 0 0 1 118.9995 42.7905)" font-family="'Helvetica'" font-size="5.1659">FDX</text>
<text transform="matrix(1 0 0 1 172.1714 24.8369)" font-family="'Helvetica'" font-size="5.1659">FE0/1</text>
<text transform="matrix(1 0 0 1 211.2925 24.8369)" font-family="'Helvetica'" font-size="5.1659">CONSOLE</text>
<text transform="matrix(1 0 0 1 172.1714 120.1699)" font-family="'Helvetica'" font-size="5.1659">FE0/0</text>
<text transform="matrix(1 0 0 1 217.4604 120.1699)" fill="#D6D6D6" font-family="'Helvetica'" font-size="5.1659">AOX</text>
<text transform="matrix(1 0 0 1 118.9995 56.624)" font-family="'Helvetica'" font-size="5.1659">100</text>
<text transform="matrix(1 0 0 1 118.9995 67.2793)" font-family="'Helvetica'" font-size="5.1659">LINK</text>
<text transform="matrix(1 0 0 1 99.2905 66.9668)" font-family="'Helvetica'" font-size="5.1659">pvom1</text>
<text transform="matrix(1 0 0 1 548.978 99.0449)" font-family="'Helvetica'" font-size="5.1659">SLOT 2  THIS SLOT ACCEPTS ONLY VICs AND WICs</text>
<text transform="matrix(1 0 0 1 837.6602 99.0449)" font-family="'Helvetica'" font-size="5.1659">SLOT 1</text>
<text transform="matrix(1 0 0 1 1010.9707 99.0449)" font-family="'Helvetica'" font-size="5.1659">SLOT 0 THIS SLOT ACCEPTS ONLY VICs AND WICs</text>
<text transform="matrix(1 0 0 1 118.9995 81.2793)" font-family="'Helvetica'" font-size="5.1659">FDX</text>
<text transform="matrix(1 0 0 1 118.9995 91.1318)" font-family="'Helvetica'" font-size="5.1659">100</text>
<text transform="matrix(1 0 0 1 118.9995 107.2988)" font-family="'Helvetica'" font-size="5.1659">LINK</text>
<path fill="#FFFF64" stroke="#262626" stroke-width="0.25" stroke-miterlimit="10" d="M42.766,101.128
	c0,1.057-0.856,1.914-1.913,1.914h-3.684c-1.057,0-1.913-0.857-1.913-1.914l0,0c0-1.057,0.856-1.912,1.913-1.912h3.684
	C41.91,99.216,42.766,100.071,42.766,101.128L42.766,101.128z"/>
<path fill="#515151" stroke="#262626" stroke-width="0.25" stroke-miterlimit="10" d="M112.996,59.151
	c0,1.058-0.856,1.914-1.913,1.914h-3.684c-1.057,0-1.914-0.856-1.914-1.914l0,0c0-1.057,0.857-1.912,1.914-1.912h3.684
	C112.139,57.239,112.996,58.094,112.996,59.151L112.996,59.151z"/>
<text transform="matrix(1 0 0 1 99.2905 83.3945)" font-family="'Helvetica'" font-size="5.1659">pvom0</text>
<path fill="#515151" stroke="#262626" stroke-width="0.25" stroke-miterlimit="10" d="M112.996,75.579
	c0,1.057-0.856,1.912-1.913,1.912h-3.684c-1.057,0-1.914-0.855-1.914-1.912l0,0c0-1.057,0.857-1.914,1.914-1.914h3.684
	C112.139,73.665,112.996,74.522,112.996,75.579L112.996,75.579z"/>
<path fill="#FFFF64" stroke="#262626" stroke-width="0.25" stroke-miterlimit="10" d="M62.266,101.128
	c0,1.057-0.856,1.914-1.913,1.914h-3.684c-1.057,0-1.913-0.857-1.913-1.914l0,0c0-1.057,0.856-1.912,1.913-1.912h3.684
	C61.41,99.216,62.266,100.071,62.266,101.128L62.266,101.128z"/>
<g>
	<g>
		<path d="M730.952,70.528c0,3.572-3.073,6.467-6.863,6.467H510.93c-3.791,0-6.865-2.895-6.865-6.467V27.515
			c0-3.57,3.074-6.467,6.865-6.467h213.159c3.79,0,6.863,2.896,6.863,6.467V70.528z"/>
		<path fill="#EAEAEA" d="M730.256,69.81c0,3.432-3.047,6.215-6.804,6.215H512.16c-3.758,0-6.805-2.783-6.805-6.215V28.466
			c0-3.433,3.047-6.216,6.805-6.216h211.292c3.757,0,6.804,2.783,6.804,6.216V69.81z"/>
		<rect x="548.978" y="76.489" width="135.765" height="11.139"/>
		<path fill="#EAEAEA" d="M709.897,79.772c0,2.617-2.521,4.738-5.629,4.738H529.453c-3.109,0-5.63-2.121-5.63-4.738V48.258
			c0-2.618,2.521-4.738,5.63-4.738h174.816c3.107,0,5.629,2.12,5.629,4.738V79.772z"/>
		<path d="M685.494,74.013c0.416,0,0.751,0.291,0.751,0.648v1.828h22.151v-1.773c0-0.359,0.335-0.648,0.751-0.648
			s0.75,0.289,0.75,0.648v1.773v2.98v6.102c0,0-0.112,1.652-1.919,2.057h-23.235v-8.211v-2.928v-1.828
			C684.743,74.304,685.079,74.013,685.494,74.013z"/>
		<path d="M548.227,74.013c-0.416,0-0.751,0.291-0.751,0.648v1.828h-22.151v-1.773c0-0.359-0.336-0.648-0.751-0.648
			c-0.416,0-0.751,0.289-0.751,0.648v1.773v2.98v6.102c0,0,0.113,1.652,1.92,2.057h23.235v-8.211v-2.928v-1.828
			C548.978,74.304,548.642,74.013,548.227,74.013z"/>
		<path fill="#303030" d="M578.417,76.024c0,1.736-1.326,3.146-2.965,3.146H565.19c-1.636,0-2.964-1.41-2.964-3.146l0,0
			c0-1.736,1.328-3.145,2.964-3.145h10.262C577.091,72.88,578.417,74.288,578.417,76.024L578.417,76.024z"/>
		<path fill="#303030" d="M597.493,76.024c0,1.736-1.326,3.146-2.965,3.146h-10.262c-1.637,0-2.964-1.41-2.964-3.146l0,0
			c0-1.736,1.327-3.145,2.964-3.145h10.262C596.167,72.88,597.493,74.288,597.493,76.024L597.493,76.024z"/>
		<path fill="#303030" d="M542.673,33.076c0,1.736-1.326,3.146-2.965,3.146h-10.262c-1.637,0-2.964-1.409-2.964-3.146l0,0
			c0-1.736,1.328-3.145,2.964-3.145h10.262C541.347,29.931,542.673,31.339,542.673,33.076L542.673,33.076z"/>
		<path fill="#303030" d="M542.673,44.576c0,1.736-1.326,3.146-2.965,3.146h-10.262c-1.637,0-2.964-1.409-2.964-3.146l0,0
			c0-1.736,1.328-3.145,2.964-3.145h10.262C541.347,41.431,542.673,42.839,542.673,44.576L542.673,44.576z"/>
		<path fill="#303030" d="M542.673,56.076c0,1.736-1.326,3.146-2.965,3.146h-10.262c-1.637,0-2.964-1.409-2.964-3.146l0,0
			c0-1.736,1.328-3.145,2.964-3.145h10.262C541.347,52.931,542.673,54.339,542.673,56.076L542.673,56.076z"/>
		<path fill="#303030" d="M706.75,33.076c0,1.736-1.326,3.146-2.965,3.146h-10.263c-1.636,0-2.963-1.409-2.963-3.146l0,0
			c0-1.736,1.327-3.145,2.963-3.145h10.263C705.424,29.931,706.75,31.339,706.75,33.076L706.75,33.076z"/>
		<path fill="#303030" d="M706.75,44.576c0,1.736-1.326,3.146-2.965,3.146h-10.263c-1.636,0-2.963-1.409-2.963-3.146l0,0
			c0-1.736,1.327-3.145,2.963-3.145h10.263C705.424,41.431,706.75,42.839,706.75,44.576L706.75,44.576z"/>
		<path fill="#303030" d="M706.75,56.076c0,1.736-1.326,3.146-2.965,3.146h-10.263c-1.636,0-2.963-1.409-2.963-3.146l0,0
			c0-1.736,1.327-3.145,2.963-3.145h10.263C705.424,52.931,706.75,54.339,706.75,56.076L706.75,56.076z"/>
		<path fill="#303030" d="M616.57,76.024c0,1.736-1.327,3.146-2.965,3.146h-10.261c-1.639,0-2.965-1.41-2.965-3.146l0,0
			c0-1.736,1.326-3.145,2.965-3.145h10.261C615.243,72.88,616.57,74.288,616.57,76.024L616.57,76.024z"/>
		<path fill="#303030" d="M635.647,76.024c0,1.736-1.326,3.146-2.965,3.146h-10.262c-1.638,0-2.965-1.41-2.965-3.146l0,0
			c0-1.736,1.327-3.145,2.965-3.145h10.262C634.321,72.88,635.647,74.288,635.647,76.024L635.647,76.024z"/>
		<path fill="#303030" d="M654.724,76.024c0,1.736-1.326,3.146-2.965,3.146h-10.262c-1.637,0-2.964-1.41-2.964-3.146l0,0
			c0-1.736,1.327-3.145,2.964-3.145h10.262C653.397,72.88,654.724,74.288,654.724,76.024L654.724,76.024z"/>
		<path fill="#303030" d="M673.8,76.024c0,1.736-1.326,3.146-2.964,3.146h-10.262c-1.638,0-2.964-1.41-2.964-3.146l0,0
			c0-1.736,1.326-3.145,2.964-3.145h10.262C672.474,72.88,673.8,74.288,673.8,76.024L673.8,76.024z"/>
		<g>
			<path fill="#AFAFAF" d="M522.741,43.193c-3.846,4.289-10.446,4.646-14.741,0.797c-4.292-3.851-4.654-10.45-0.81-14.739
				c3.847-4.29,10.447-4.647,14.742-0.798C526.225,32.303,526.588,38.903,522.741,43.193"/>
			
				<ellipse transform="matrix(0.7446 0.6675 -0.6675 0.7446 155.7158 -334.5089)" fill="none" stroke="#939393" stroke-miterlimit="10" cx="514.966" cy="36.222" rx="10.443" ry="10.434"/>
			<g>
				<g>
					<defs>
						
							<rect id="SVGID_1_" x="505.121" y="26.388" transform="matrix(-0.7446 -0.6676 0.6676 -0.7446 874.2081 406.9604)" width="19.69" height="19.667"/>
					</defs>
					<clipPath id="SVGID_2_">
						<use xlink:href="#SVGID_1_"  overflow="visible"/>
					</clipPath>
					<path clip-path="url(#SVGID_2_)" fill="#BEBFBF" d="M522.294,42.792c-3.624,4.043-9.844,4.379-13.892,0.75
						c-4.047-3.629-4.39-9.849-0.766-13.891c3.627-4.044,9.846-4.381,13.895-0.752C525.578,32.529,525.92,38.75,522.294,42.792"/>
					<path clip-path="url(#SVGID_2_)" fill="#C0C1C1" d="M522.121,42.638c-3.54,3.946-9.615,4.274-13.564,0.732
						c-3.951-3.543-4.285-9.617-0.746-13.564c3.541-3.948,9.613-4.277,13.566-0.733C525.328,32.615,525.661,38.689,522.121,42.638"
						/>
					<path clip-path="url(#SVGID_2_)" fill="#C3C4C4" d="M521.949,42.483c-3.454,3.853-9.382,4.174-13.238,0.716
						c-3.857-3.459-4.183-9.386-0.729-13.238c3.456-3.854,9.383-4.174,13.24-0.716C525.08,32.703,525.404,38.63,521.949,42.483"/>
					<path clip-path="url(#SVGID_2_)" fill="#C5C6C6" d="M521.776,42.329c-3.368,3.757-9.149,4.07-12.911,0.697
						c-3.762-3.372-4.08-9.153-0.711-12.911c3.371-3.758,9.151-4.07,12.913-0.697C524.828,32.79,525.146,38.571,521.776,42.329"/>
					<path clip-path="url(#SVGID_2_)" fill="#C7C9C9" d="M521.604,42.174c-3.282,3.661-8.92,3.967-12.585,0.68
						c-3.666-3.287-3.975-8.923-0.693-12.584c3.285-3.663,8.922-3.969,12.588-0.682S524.889,38.511,521.604,42.174"/>
					<path clip-path="url(#SVGID_2_)" fill="#CACBCB" d="M521.432,42.019c-3.199,3.567-8.687,3.865-12.258,0.663
						c-3.57-3.202-3.871-8.691-0.674-12.258c3.199-3.568,8.688-3.865,12.26-0.663C524.331,32.963,524.631,38.452,521.432,42.019"/>
					<path clip-path="url(#SVGID_2_)" fill="#CCCECE" d="M521.261,41.865c-3.113,3.473-8.456,3.761-11.933,0.645
						c-3.477-3.117-3.77-8.459-0.656-11.931c3.114-3.473,8.457-3.763,11.933-0.646C524.081,33.049,524.375,38.392,521.261,41.865"/>
					<path clip-path="url(#SVGID_2_)" fill="#CED0D0" d="M521.087,41.71c-3.026,3.377-8.224,3.658-11.605,0.627
						c-3.378-3.031-3.666-8.229-0.638-11.605c3.029-3.377,8.226-3.657,11.605-0.627C523.83,33.136,524.115,38.333,521.087,41.71"/>
					<path clip-path="url(#SVGID_2_)" fill="#D1D3D3" d="M520.915,41.556c-2.942,3.281-7.991,3.555-11.278,0.609
						c-3.284-2.946-3.563-7.996-0.621-11.277c2.944-3.283,7.994-3.557,11.28-0.61S523.859,38.273,520.915,41.556"/>
					<path clip-path="url(#SVGID_2_)" fill="#D3D5D5" d="M520.742,41.402c-2.856,3.187-7.76,3.451-10.95,0.591
						c-3.191-2.861-3.46-7.764-0.603-10.95c2.858-3.188,7.762-3.453,10.952-0.592C523.331,33.311,523.602,38.213,520.742,41.402"/>
				</g>
			</g>
			<polygon fill="#605F5E" points="510.063,39.765 513.151,36.32 509.703,33.226 511.418,31.314 514.866,34.407 517.957,30.96 
				519.871,32.677 516.781,36.123 520.23,39.215 518.516,41.128 515.064,38.036 511.977,41.482 			"/>
			<path fill="#231815" d="M519.557,32.695l-2.793,3.113l-0.296,0.332l0.332,0.297l3.117,2.795l-1.418,1.582l-3.118-2.796
				l-0.331-0.296l-0.298,0.33l-2.793,3.115l-1.581-1.419l2.791-3.115l0.297-0.331l-0.331-0.298l-3.117-2.796l1.417-1.58l3.117,2.795
				l0.332,0.297l0.298-0.331l2.793-3.114L519.557,32.695z M520.186,32.661l-2.247-2.014l-3.088,3.444L511.401,31l-2.011,2.244
				l3.447,3.092l-3.089,3.445l2.246,2.015l3.09-3.446l3.448,3.093l2.012-2.245l-3.448-3.091L520.186,32.661z"/>
		</g>
		<g>
			<path fill="#AFAFAF" d="M728.42,43.193c-3.846,4.289-10.446,4.646-14.741,0.797c-4.292-3.851-4.654-10.45-0.81-14.739
				c3.847-4.29,10.446-4.647,14.741-0.798C731.903,32.303,732.267,38.903,728.42,43.193"/>
			
				<ellipse transform="matrix(0.7446 0.6676 -0.6676 0.7446 208.2597 -471.8161)" fill="none" stroke="#939393" stroke-miterlimit="10" cx="720.645" cy="36.222" rx="10.443" ry="10.434"/>
			<g>
				<g>
					<defs>
						
							<rect id="SVGID_3_" x="710.8" y="26.388" transform="matrix(-0.7446 -0.6675 0.6675 -0.7446 1233.0347 544.2547)" width="19.691" height="19.667"/>
					</defs>
					<clipPath id="SVGID_4_">
						<use xlink:href="#SVGID_3_"  overflow="visible"/>
					</clipPath>
					<path clip-path="url(#SVGID_4_)" fill="#BEBFBF" d="M727.973,42.792c-3.624,4.043-9.844,4.379-13.892,0.75
						c-4.047-3.629-4.391-9.849-0.766-13.891c3.627-4.044,9.847-4.381,13.895-0.752C731.257,32.529,731.599,38.75,727.973,42.792"/>
					<path clip-path="url(#SVGID_4_)" fill="#C0C1C1" d="M727.8,42.638c-3.54,3.946-9.614,4.274-13.564,0.732
						c-3.951-3.543-4.285-9.617-0.746-13.564c3.541-3.948,9.613-4.277,13.566-0.733C731.007,32.615,731.34,38.689,727.8,42.638"/>
					<path clip-path="url(#SVGID_4_)" fill="#C3C4C4" d="M727.628,42.483c-3.454,3.853-9.382,4.174-13.238,0.716
						c-3.857-3.459-4.183-9.386-0.729-13.238c3.455-3.854,9.383-4.174,13.238-0.716C730.759,32.703,731.083,38.63,727.628,42.483"/>
					<path clip-path="url(#SVGID_4_)" fill="#C5C6C6" d="M727.455,42.329c-3.368,3.757-9.149,4.07-12.911,0.697
						c-3.762-3.372-4.08-9.153-0.711-12.911c3.371-3.758,9.15-4.07,12.913-0.697C730.507,32.79,730.825,38.571,727.455,42.329"/>
					<path clip-path="url(#SVGID_4_)" fill="#C7C9C9" d="M727.283,42.174c-3.282,3.661-8.92,3.967-12.585,0.68
						c-3.666-3.287-3.975-8.923-0.693-12.584c3.285-3.663,8.922-3.969,12.588-0.682S730.567,38.511,727.283,42.174"/>
					<path clip-path="url(#SVGID_4_)" fill="#CACBCB" d="M727.11,42.019c-3.198,3.567-8.687,3.865-12.258,0.663
						c-3.57-3.202-3.871-8.691-0.674-12.258c3.199-3.568,8.688-3.865,12.26-0.663C730.01,32.963,730.31,38.452,727.11,42.019"/>
					<path clip-path="url(#SVGID_4_)" fill="#CCCECE" d="M726.938,41.865c-3.112,3.473-8.455,3.761-11.932,0.645
						c-3.477-3.117-3.77-8.459-0.656-11.931c3.114-3.473,8.457-3.763,11.933-0.646C729.76,33.049,730.054,38.392,726.938,41.865"/>
					<path clip-path="url(#SVGID_4_)" fill="#CED0D0" d="M726.766,41.71c-3.026,3.377-8.224,3.658-11.604,0.627
						c-3.379-3.031-3.666-8.229-0.639-11.605c3.029-3.377,8.226-3.657,11.605-0.627C729.509,33.136,729.794,38.333,726.766,41.71"/>
					<path clip-path="url(#SVGID_4_)" fill="#D1D3D3" d="M726.594,41.556c-2.942,3.281-7.991,3.555-11.278,0.609
						c-3.284-2.946-3.563-7.996-0.621-11.277c2.944-3.283,7.994-3.557,11.28-0.61S729.538,38.273,726.594,41.556"/>
					<path clip-path="url(#SVGID_4_)" fill="#D3D5D5" d="M726.421,41.402c-2.857,3.187-7.76,3.451-10.95,0.591
						c-3.191-2.861-3.46-7.764-0.603-10.95c2.857-3.188,7.762-3.453,10.951-0.592C729.01,33.311,729.28,38.213,726.421,41.402"/>
				</g>
			</g>
			<polygon fill="#605F5E" points="715.741,39.765 718.83,36.32 715.382,33.226 717.097,31.314 720.545,34.407 723.636,30.96 
				725.55,32.677 722.46,36.123 725.909,39.215 724.194,41.128 720.743,38.036 717.655,41.482 			"/>
			<path fill="#231815" d="M725.235,32.695l-2.793,3.113l-0.296,0.332l0.332,0.297l3.117,2.795l-1.418,1.582l-3.118-2.796
				l-0.331-0.296l-0.298,0.33l-2.793,3.115l-1.581-1.419l2.791-3.115l0.297-0.331l-0.331-0.298l-3.117-2.796l1.417-1.58l3.117,2.795
				l0.332,0.297l0.298-0.331l2.793-3.114L725.235,32.695z M725.864,32.661l-2.246-2.014l-3.089,3.444L717.08,31l-2.012,2.244
				l3.447,3.092l-3.089,3.445l2.246,2.015l3.09-3.446l3.448,3.093l2.012-2.245l-3.448-3.091L725.864,32.661z"/>
		</g>
	</g>
	<path d="M500.478,70.528c0,3.572-3.074,6.467-6.864,6.467H280.456c-3.792,0-6.865-2.895-6.865-6.467V27.515
		c0-3.57,3.074-6.467,6.865-6.467h213.158c3.79,0,6.864,2.896,6.864,6.467V70.528z"/>
	<path fill="#EAEAEA" d="M499.781,69.81c0,3.432-3.047,6.215-6.804,6.215H281.685c-3.758,0-6.805-2.783-6.805-6.215V28.466
		c0-3.433,3.047-6.216,6.805-6.216h211.292c3.757,0,6.804,2.783,6.804,6.216V69.81z"/>
	<rect x="318.503" y="76.489" width="137.099" height="11.139"/>
	<path fill="#EAEAEA" d="M479.423,79.772c0,2.617-2.521,4.738-5.629,4.738H298.978c-3.109,0-5.63-2.121-5.63-4.738V48.258
		c0-2.618,2.521-4.738,5.63-4.738h174.816c3.107,0,5.629,2.12,5.629,4.738V79.772z"/>
	<path d="M456.353,74.013c0.416,0,0.751,0.291,0.751,0.648v1.828h22.151v-1.773c0-0.359,0.336-0.648,0.751-0.648
		c0.416,0,0.751,0.289,0.751,0.648v1.773v2.98v6.102c0,0-0.113,1.652-1.92,2.057h-23.235v-8.211v-2.928v-1.828
		C455.602,74.304,455.938,74.013,456.353,74.013z"/>
	<path d="M317.752,74.013c-0.416,0-0.751,0.291-0.751,0.648v1.828H294.85v-1.773c0-0.359-0.336-0.648-0.751-0.648
		c-0.416,0-0.751,0.289-0.751,0.648v1.773v2.98v6.102c0,0,0.113,1.652,1.92,2.057h23.235v-8.211v-2.928v-1.828
		C318.503,74.304,318.167,74.013,317.752,74.013z"/>
	<path fill="#303030" d="M347.942,76.024c0,1.736-1.326,3.146-2.965,3.146h-10.262c-1.637,0-2.965-1.41-2.965-3.146l0,0
		c0-1.736,1.328-3.145,2.965-3.145h10.262C346.616,72.88,347.942,74.288,347.942,76.024L347.942,76.024z"/>
	<path fill="#303030" d="M367.018,76.024c0,1.736-1.326,3.146-2.965,3.146h-10.262c-1.637,0-2.964-1.41-2.964-3.146l0,0
		c0-1.736,1.327-3.145,2.964-3.145h10.262C365.692,72.88,367.018,74.288,367.018,76.024L367.018,76.024z"/>
	<path fill="#303030" d="M312.198,33.076c0,1.736-1.326,3.146-2.965,3.146h-10.262c-1.637,0-2.964-1.409-2.964-3.146l0,0
		c0-1.736,1.327-3.145,2.964-3.145h10.262C310.872,29.931,312.198,31.339,312.198,33.076L312.198,33.076z"/>
	<path fill="#303030" d="M312.198,44.576c0,1.736-1.326,3.146-2.965,3.146h-10.262c-1.637,0-2.964-1.409-2.964-3.146l0,0
		c0-1.736,1.327-3.145,2.964-3.145h10.262C310.872,41.431,312.198,42.839,312.198,44.576L312.198,44.576z"/>
	<path fill="#303030" d="M312.198,56.076c0,1.736-1.326,3.146-2.965,3.146h-10.262c-1.637,0-2.964-1.409-2.964-3.146l0,0
		c0-1.736,1.327-3.145,2.964-3.145h10.262C310.872,52.931,312.198,54.339,312.198,56.076L312.198,56.076z"/>
	<path fill="#303030" d="M476.275,33.076c0,1.736-1.326,3.146-2.965,3.146h-10.262c-1.637,0-2.964-1.409-2.964-3.146l0,0
		c0-1.736,1.327-3.145,2.964-3.145h10.262C474.949,29.931,476.275,31.339,476.275,33.076L476.275,33.076z"/>
	<path fill="#303030" d="M476.275,44.576c0,1.736-1.326,3.146-2.965,3.146h-10.262c-1.637,0-2.964-1.409-2.964-3.146l0,0
		c0-1.736,1.327-3.145,2.964-3.145h10.262C474.949,41.431,476.275,42.839,476.275,44.576L476.275,44.576z"/>
	<path fill="#303030" d="M476.275,56.076c0,1.736-1.326,3.146-2.965,3.146h-10.262c-1.637,0-2.964-1.409-2.964-3.146l0,0
		c0-1.736,1.327-3.145,2.964-3.145h10.262C474.949,52.931,476.275,54.339,476.275,56.076L476.275,56.076z"/>
	<path fill="#303030" d="M386.095,76.024c0,1.736-1.327,3.146-2.965,3.146H372.87c-1.639,0-2.965-1.41-2.965-3.146l0,0
		c0-1.736,1.326-3.145,2.965-3.145h10.261C384.768,72.88,386.095,74.288,386.095,76.024L386.095,76.024z"/>
	<path fill="#303030" d="M405.172,76.024c0,1.736-1.326,3.146-2.965,3.146h-10.262c-1.638,0-2.965-1.41-2.965-3.146l0,0
		c0-1.736,1.327-3.145,2.965-3.145h10.262C403.846,72.88,405.172,74.288,405.172,76.024L405.172,76.024z"/>
	<path fill="#303030" d="M424.249,76.024c0,1.736-1.326,3.146-2.965,3.146h-10.262c-1.637,0-2.964-1.41-2.964-3.146l0,0
		c0-1.736,1.327-3.145,2.964-3.145h10.262C422.922,72.88,424.249,74.288,424.249,76.024L424.249,76.024z"/>
	<path fill="#303030" d="M443.325,76.024c0,1.736-1.326,3.146-2.964,3.146h-10.261c-1.638,0-2.964-1.41-2.964-3.146l0,0
		c0-1.736,1.326-3.145,2.964-3.145h10.261C441.999,72.88,443.325,74.288,443.325,76.024L443.325,76.024z"/>
	<g>
		<path fill="#AFAFAF" d="M292.266,43.193c-3.846,4.289-10.447,4.646-14.741,0.797c-4.292-3.851-4.654-10.45-0.81-14.739
			c3.847-4.29,10.446-4.647,14.741-0.798C295.75,32.303,296.113,38.903,292.266,43.193"/>
		
			<ellipse transform="matrix(0.7446 0.6676 -0.6676 0.7446 96.8496 -180.6603)" fill="none" stroke="#939393" stroke-miterlimit="10" cx="284.491" cy="36.222" rx="10.443" ry="10.434"/>
		<g>
			<g>
				<defs>
					
						<rect id="SVGID_5_" x="274.646" y="26.388" transform="matrix(-0.7446 -0.6675 0.6675 -0.7446 472.1349 253.1016)" width="19.691" height="19.667"/>
				</defs>
				<clipPath id="SVGID_6_">
					<use xlink:href="#SVGID_5_"  overflow="visible"/>
				</clipPath>
				<path clip-path="url(#SVGID_6_)" fill="#BEBFBF" d="M291.819,42.792c-3.625,4.043-9.844,4.379-13.892,0.75
					c-4.047-3.629-4.39-9.849-0.766-13.891c3.627-4.044,9.847-4.381,13.895-0.752C295.103,32.529,295.444,38.75,291.819,42.792"/>
				<path clip-path="url(#SVGID_6_)" fill="#C0C1C1" d="M291.646,42.638c-3.54,3.946-9.614,4.274-13.564,0.732
					c-3.951-3.543-4.285-9.617-0.746-13.564c3.541-3.948,9.613-4.277,13.566-0.733C294.853,32.615,295.186,38.689,291.646,42.638"/>
				<path clip-path="url(#SVGID_6_)" fill="#C3C4C4" d="M291.474,42.483c-3.454,3.853-9.382,4.174-13.239,0.716
					c-3.857-3.459-4.182-9.386-0.728-13.238c3.455-3.854,9.383-4.174,13.239-0.716C294.605,32.703,294.929,38.63,291.474,42.483"/>
				<path clip-path="url(#SVGID_6_)" fill="#C5C6C6" d="M291.301,42.329c-3.368,3.757-9.149,4.07-12.911,0.697
					c-3.762-3.372-4.08-9.153-0.711-12.911c3.371-3.758,9.151-4.07,12.913-0.697C294.353,32.79,294.671,38.571,291.301,42.329"/>
				<path clip-path="url(#SVGID_6_)" fill="#C7C9C9" d="M291.129,42.174c-3.282,3.661-8.92,3.967-12.585,0.68
					c-3.666-3.287-3.975-8.923-0.693-12.584c3.285-3.663,8.922-3.969,12.588-0.682S294.414,38.511,291.129,42.174"/>
				<path clip-path="url(#SVGID_6_)" fill="#CACBCB" d="M290.957,42.019c-3.198,3.567-8.687,3.865-12.258,0.663
					c-3.57-3.202-3.871-8.691-0.674-12.258c3.199-3.568,8.688-3.865,12.26-0.663C293.856,32.963,294.156,38.452,290.957,42.019"/>
				<path clip-path="url(#SVGID_6_)" fill="#CCCECE" d="M290.786,41.865c-3.113,3.473-8.456,3.761-11.933,0.645
					c-3.477-3.117-3.77-8.459-0.656-11.931c3.114-3.473,8.457-3.763,11.933-0.646C293.606,33.049,293.9,38.392,290.786,41.865"/>
				<path clip-path="url(#SVGID_6_)" fill="#CED0D0" d="M290.612,41.71c-3.026,3.377-8.224,3.658-11.604,0.627
					c-3.379-3.031-3.666-8.229-0.639-11.605c3.029-3.377,8.226-3.657,11.605-0.627C293.355,33.136,293.64,38.333,290.612,41.71"/>
				<path clip-path="url(#SVGID_6_)" fill="#D1D3D3" d="M290.44,41.556c-2.942,3.281-7.991,3.555-11.278,0.609
					c-3.284-2.946-3.563-7.996-0.621-11.277c2.944-3.283,7.994-3.557,11.28-0.61S293.384,38.273,290.44,41.556"/>
				<path clip-path="url(#SVGID_6_)" fill="#D3D5D5" d="M290.267,41.402c-2.856,3.187-7.76,3.451-10.95,0.591
					c-3.191-2.861-3.46-7.764-0.603-10.95c2.857-3.188,7.762-3.453,10.951-0.592C292.856,33.311,293.126,38.213,290.267,41.402"/>
			</g>
		</g>
		<polygon fill="#605F5E" points="279.587,39.765 282.676,36.32 279.228,33.226 280.943,31.314 284.391,34.407 287.482,30.96 
			289.396,32.677 286.306,36.123 289.755,39.215 288.041,41.128 284.589,38.036 281.501,41.482 		"/>
		<path fill="#231815" d="M289.082,32.695l-2.793,3.113l-0.296,0.332l0.332,0.297l3.117,2.795l-1.418,1.582l-3.118-2.796
			l-0.331-0.296l-0.298,0.33l-2.793,3.115l-1.582-1.419l2.792-3.115l0.297-0.331l-0.331-0.298l-3.117-2.796l1.417-1.58l3.117,2.795
			l0.332,0.297l0.298-0.331l2.793-3.114L289.082,32.695z M289.71,32.661l-2.246-2.014l-3.089,3.444L280.926,31l-2.012,2.244
			l3.447,3.092l-3.089,3.445l2.246,2.015l3.09-3.446l3.448,3.093l2.012-2.245l-3.448-3.091L289.71,32.661z"/>
	</g>
	<g>
		<path fill="#AFAFAF" d="M497.945,43.193c-3.846,4.289-10.446,4.646-14.741,0.797c-4.292-3.851-4.654-10.45-0.81-14.739
			c3.847-4.29,10.446-4.647,14.741-0.798C501.428,32.303,501.792,38.903,497.945,43.193"/>
		
			<ellipse transform="matrix(0.7446 0.6676 -0.6676 0.7446 149.3877 -317.9617)" fill="none" stroke="#939393" stroke-miterlimit="10" cx="490.169" cy="36.222" rx="10.443" ry="10.434"/>
		<g>
			<g>
				<defs>
					
						<rect id="SVGID_7_" x="480.325" y="26.388" transform="matrix(-0.7446 -0.6675 0.6675 -0.7446 830.9553 390.4017)" width="19.691" height="19.667"/>
				</defs>
				<clipPath id="SVGID_8_">
					<use xlink:href="#SVGID_7_"  overflow="visible"/>
				</clipPath>
				<path clip-path="url(#SVGID_8_)" fill="#BEBFBF" d="M497.498,42.792c-3.624,4.043-9.844,4.379-13.892,0.75
					c-4.047-3.629-4.39-9.849-0.766-13.891c3.627-4.044,9.847-4.381,13.895-0.752C500.782,32.529,501.124,38.75,497.498,42.792"/>
				<path clip-path="url(#SVGID_8_)" fill="#C0C1C1" d="M497.325,42.638c-3.54,3.946-9.614,4.274-13.564,0.732
					c-3.951-3.543-4.285-9.617-0.746-13.564c3.541-3.948,9.613-4.277,13.566-0.733C500.532,32.615,500.865,38.689,497.325,42.638"/>
				<path clip-path="url(#SVGID_8_)" fill="#C3C4C4" d="M497.152,42.483c-3.454,3.853-9.381,4.174-13.238,0.716
					c-3.857-3.459-4.183-9.386-0.729-13.238c3.455-3.854,9.383-4.174,13.239-0.716C500.284,32.703,500.608,38.63,497.152,42.483"/>
				<path clip-path="url(#SVGID_8_)" fill="#C5C6C6" d="M496.98,42.329c-3.368,3.757-9.149,4.07-12.911,0.697
					c-3.762-3.372-4.08-9.153-0.711-12.911c3.371-3.758,9.151-4.07,12.913-0.697C500.032,32.79,500.35,38.571,496.98,42.329"/>
				<path clip-path="url(#SVGID_8_)" fill="#C7C9C9" d="M496.808,42.174c-3.282,3.661-8.92,3.967-12.585,0.68
					c-3.666-3.287-3.975-8.923-0.693-12.584c3.285-3.663,8.922-3.969,12.588-0.682S500.092,38.511,496.808,42.174"/>
				<path clip-path="url(#SVGID_8_)" fill="#CACBCB" d="M496.635,42.019c-3.198,3.567-8.687,3.865-12.258,0.663
					c-3.57-3.202-3.871-8.691-0.674-12.258c3.199-3.568,8.688-3.865,12.26-0.663C499.535,32.963,499.834,38.452,496.635,42.019"/>
				<path clip-path="url(#SVGID_8_)" fill="#CCCECE" d="M496.464,41.865c-3.113,3.473-8.456,3.761-11.933,0.645
					c-3.477-3.117-3.77-8.459-0.656-11.931c3.114-3.473,8.457-3.763,11.933-0.646C499.285,33.049,499.579,38.392,496.464,41.865"/>
				<path clip-path="url(#SVGID_8_)" fill="#CED0D0" d="M496.291,41.71c-3.026,3.377-8.224,3.658-11.604,0.627
					c-3.379-3.031-3.666-8.229-0.639-11.605c3.029-3.377,8.226-3.657,11.605-0.627C499.034,33.136,499.319,38.333,496.291,41.71"/>
				<path clip-path="url(#SVGID_8_)" fill="#D1D3D3" d="M496.119,41.556c-2.942,3.281-7.991,3.555-11.278,0.609
					c-3.284-2.946-3.563-7.996-0.621-11.277c2.944-3.283,7.994-3.557,11.28-0.61S499.063,38.273,496.119,41.556"/>
				<path clip-path="url(#SVGID_8_)" fill="#D3D5D5" d="M495.946,41.402c-2.856,3.187-7.76,3.451-10.95,0.591
					c-3.191-2.861-3.46-7.764-0.603-10.95c2.857-3.188,7.762-3.453,10.951-0.592C498.535,33.311,498.805,38.213,495.946,41.402"/>
			</g>
		</g>
		<polygon fill="#605F5E" points="485.266,39.765 488.355,36.32 484.907,33.226 486.622,31.314 490.07,34.407 493.161,30.96 
			495.075,32.677 491.985,36.123 495.434,39.215 493.719,41.128 490.268,38.036 487.18,41.482 		"/>
		<path fill="#231815" d="M494.76,32.695l-2.793,3.113l-0.296,0.332l0.332,0.297l3.117,2.795l-1.418,1.582l-3.118-2.796
			l-0.331-0.296l-0.298,0.33l-2.793,3.115l-1.581-1.419l2.791-3.115l0.297-0.331l-0.331-0.298l-3.117-2.796l1.417-1.58l3.117,2.795
			l0.332,0.297l0.298-0.331l2.793-3.114L494.76,32.695z M495.389,32.661l-2.246-2.014l-3.089,3.444L486.605,31l-2.012,2.244
			l3.447,3.092l-3.089,3.445l2.246,2.015l3.09-3.446l3.448,3.093l2.012-2.245l-3.448-3.091L495.389,32.661z"/>
	</g>
	<rect x="473.045" y="76.489" width="58.56" height="11.139"/>
	<g>
		<path fill="#111111" d="M513.288,105.429c0,1.309-1.06,2.367-2.367,2.367h-17.191c-1.307,0-2.366-1.059-2.366-2.367V88.239
			c0-1.307,1.06-2.367,2.366-2.367h17.191c1.308,0,2.367,1.061,2.367,2.367V105.429z"/>
		<path fill="#E8E8E8" d="M511.924,104.067c0,1.307-1.06,2.365-2.367,2.365h-14.465c-1.307,0-2.367-1.059-2.367-2.365V89.603
			c0-1.309,1.06-2.367,2.367-2.367h14.465c1.307,0,2.367,1.059,2.367,2.367V104.067z"/>
		<g>
			<path fill="#AFAFAF" d="M508.458,102.335c-3.034,3.385-8.241,3.666-11.629,0.629c-3.387-3.039-3.672-8.246-0.638-11.629
				c3.034-3.385,8.241-3.666,11.63-0.629C511.208,93.743,511.494,98.95,508.458,102.335"/>
			
				<ellipse transform="matrix(0.7445 0.6676 -0.6676 0.7445 192.9781 -310.6105)" fill="none" stroke="#939393" stroke-miterlimit="10" cx="502.325" cy="96.835" rx="8.239" ry="8.232"/>
			<g>
				<g>
					<defs>
						
							<rect id="SVGID_9_" x="494.558" y="89.076" transform="matrix(-0.7445 -0.6676 0.6676 -0.7445 811.6765 504.2762)" width="15.535" height="15.517"/>
					</defs>
					<clipPath id="SVGID_10_">
						<use xlink:href="#SVGID_9_"  overflow="visible"/>
					</clipPath>
					<path clip-path="url(#SVGID_10_)" fill="#BEBFBF" d="M508.106,102.019c-2.859,3.189-7.767,3.455-10.96,0.592
						c-3.192-2.863-3.463-7.771-0.604-10.959c2.861-3.189,7.769-3.457,10.963-0.592C510.697,93.921,510.967,98.829,508.106,102.019"
						/>
					<path clip-path="url(#SVGID_10_)" fill="#C0C1C1" d="M507.97,101.897c-2.793,3.113-7.586,3.373-10.702,0.576
						c-3.117-2.795-3.381-7.586-0.588-10.701c2.794-3.113,7.583-3.373,10.704-0.578C510.5,93.989,510.762,98.78,507.97,101.897"/>
					<path clip-path="url(#SVGID_10_)" fill="#C3C4C4" d="M507.834,101.774c-2.726,3.039-7.402,3.293-10.444,0.564
						c-3.043-2.729-3.3-7.404-0.575-10.443c2.726-3.041,7.403-3.293,10.445-0.566C510.305,94.058,510.56,98.735,507.834,101.774"/>
					<path clip-path="url(#SVGID_10_)" fill="#C5C6C6" d="M507.698,101.653c-2.657,2.963-7.219,3.211-10.186,0.549
						c-2.969-2.66-3.22-7.221-0.562-10.186c2.66-2.965,7.22-3.213,10.188-0.551C510.106,94.126,510.357,98.688,507.698,101.653"/>
					<path clip-path="url(#SVGID_10_)" fill="#C7C9C9" d="M507.562,101.532c-2.589,2.889-7.037,3.129-9.928,0.535
						c-2.893-2.594-3.137-7.039-0.548-9.928c2.592-2.891,7.04-3.133,9.931-0.539C509.91,94.194,510.154,98.642,507.562,101.532"/>
					<path clip-path="url(#SVGID_10_)" fill="#CACBCB" d="M507.426,101.409c-2.524,2.814-6.853,3.049-9.671,0.521
						c-2.817-2.525-3.054-6.855-0.532-9.67c2.524-2.814,6.854-3.049,9.672-0.523C509.713,94.265,509.95,98.593,507.426,101.409"/>
					<path clip-path="url(#SVGID_10_)" fill="#CCCECE" d="M507.292,101.288c-2.456,2.738-6.672,2.967-9.415,0.508
						c-2.743-2.461-2.975-6.674-0.518-9.414c2.457-2.738,6.673-2.967,9.414-0.51C509.517,94.331,509.748,98.548,507.292,101.288"/>
					<path clip-path="url(#SVGID_10_)" fill="#CED0D0" d="M507.154,101.165c-2.387,2.664-6.488,2.887-9.156,0.494
						c-2.666-2.391-2.891-6.492-0.503-9.156c2.39-2.664,6.489-2.885,9.156-0.494S509.542,98.501,507.154,101.165"/>
					<path clip-path="url(#SVGID_10_)" fill="#D1D3D3" d="M507.019,101.044c-2.322,2.588-6.305,2.805-8.899,0.48
						c-2.591-2.324-2.811-6.309-0.49-8.898c2.323-2.59,6.307-2.805,8.899-0.48S509.342,98.452,507.019,101.044"/>
					<path clip-path="url(#SVGID_10_)" fill="#D3D5D5" d="M506.881,100.921c-2.253,2.516-6.122,2.723-8.639,0.467
						c-2.518-2.258-2.729-6.125-0.475-8.639c2.254-2.516,6.123-2.725,8.64-0.467C508.924,94.538,509.138,98.407,506.881,100.921"/>
				</g>
			</g>
			<polygon fill="#605F5E" points="498.457,99.632 500.893,96.911 498.172,94.472 499.525,92.962 502.247,95.403 504.684,92.685 
				506.195,94.038 503.756,96.757 506.478,99.196 505.126,100.706 502.402,98.265 499.967,100.985 			"/>
			<path fill="#231815" d="M505.947,94.052l-2.204,2.457l-0.233,0.262l0.263,0.234l2.458,2.205l-1.119,1.248l-2.46-2.207
				l-0.261-0.232l-0.235,0.26l-2.204,2.459l-1.247-1.119l2.202-2.459l0.234-0.262l-0.261-0.234l-2.459-2.205l1.119-1.246
				l2.458,2.203l0.263,0.236l0.234-0.262l2.204-2.457L505.947,94.052z M506.444,94.026l-1.773-1.59l-2.437,2.717l-2.722-2.439
				l-1.586,1.771l2.719,2.439l-2.438,2.719l1.773,1.588l2.438-2.719l2.72,2.441l1.587-1.771l-2.719-2.439L506.444,94.026z"/>
		</g>
	</g>
	<path fill="#CECECE" d="M515.93,78.558h-10.676l-3.519-2.158l-3.384,2.158h-10.298c-0.689,0-1.249,0.412-1.249,0.92v4.141
		c0,0.51,0.56,0.92,1.249,0.92h3.124v2.158h21.629v-2.158h3.125c0.689,0,1.249-0.41,1.249-0.92v-4.141
		C517.179,78.97,516.62,78.558,515.93,78.558z"/>
	<path d="M503.42,83.954c0,0.896-0.728,1.625-1.625,1.625l0,0c-0.897,0-1.625-0.729-1.625-1.625v-3.791
		c0-0.898,0.728-1.625,1.625-1.625l0,0c0.897,0,1.625,0.727,1.625,1.625V83.954z"/>
	<g>
		<path d="M1190.612,70.528c0,3.572-3.074,6.467-6.864,6.467H970.59c-3.791,0-6.865-2.895-6.865-6.467V27.515
			c0-3.57,3.074-6.467,6.865-6.467h213.158c3.79,0,6.864,2.896,6.864,6.467V70.528z"/>
		<path fill="#EAEAEA" d="M1189.915,69.81c0,3.432-3.047,6.215-6.804,6.215H971.819c-3.758,0-6.805-2.783-6.805-6.215V28.466
			c0-3.433,3.047-6.216,6.805-6.216h211.292c3.757,0,6.804,2.783,6.804,6.216V69.81z"/>
		<rect x="1008.638" y="76.489" width="135.765" height="11.139"/>
		<path fill="#EAEAEA" d="M1169.558,79.772c0,2.617-2.521,4.738-5.629,4.738H989.112c-3.109,0-5.63-2.121-5.63-4.738V48.258
			c0-2.618,2.521-4.738,5.63-4.738h174.816c3.107,0,5.629,2.12,5.629,4.738V79.772z"/>
		<path d="M1145.153,74.013c0.416,0,0.751,0.291,0.751,0.648v1.828h22.151v-1.773c0-0.359,0.336-0.648,0.752-0.648
			s0.75,0.289,0.75,0.648v1.773v2.98v6.102c0,0-0.113,1.652-1.92,2.057h-23.235v-8.211v-2.928v-1.828
			C1144.402,74.304,1144.738,74.013,1145.153,74.013z"/>
		<path d="M1007.887,74.013c-0.416,0-0.751,0.291-0.751,0.648v1.828h-22.151v-1.773c0-0.359-0.336-0.648-0.751-0.648
			c-0.416,0-0.751,0.289-0.751,0.648v1.773v2.98v6.102c0,0,0.113,1.652,1.92,2.057h23.235v-8.211v-2.928v-1.828
			C1008.638,74.304,1008.302,74.013,1007.887,74.013z"/>
		<path fill="#303030" d="M1038.077,76.024c0,1.736-1.326,3.146-2.966,3.146h-10.261c-1.638,0-2.965-1.41-2.965-3.146l0,0
			c0-1.736,1.327-3.145,2.965-3.145h10.261C1036.751,72.88,1038.077,74.288,1038.077,76.024L1038.077,76.024z"/>
		<path fill="#303030" d="M1057.152,76.024c0,1.736-1.325,3.146-2.964,3.146h-10.262c-1.637,0-2.965-1.41-2.965-3.146l0,0
			c0-1.736,1.328-3.145,2.965-3.145h10.262C1055.827,72.88,1057.152,74.288,1057.152,76.024L1057.152,76.024z"/>
		<path fill="#303030" d="M1002.333,33.076c0,1.736-1.326,3.146-2.965,3.146h-10.262c-1.637,0-2.965-1.409-2.965-3.146l0,0
			c0-1.736,1.328-3.145,2.965-3.145h10.262C1001.007,29.931,1002.333,31.339,1002.333,33.076L1002.333,33.076z"/>
		<path fill="#303030" d="M1002.333,44.576c0,1.736-1.326,3.146-2.965,3.146h-10.262c-1.637,0-2.965-1.409-2.965-3.146l0,0
			c0-1.736,1.328-3.145,2.965-3.145h10.262C1001.007,41.431,1002.333,42.839,1002.333,44.576L1002.333,44.576z"/>
		<path fill="#303030" d="M1002.333,56.076c0,1.736-1.326,3.146-2.965,3.146h-10.262c-1.637,0-2.965-1.409-2.965-3.146l0,0
			c0-1.736,1.328-3.145,2.965-3.145h10.262C1001.007,52.931,1002.333,54.339,1002.333,56.076L1002.333,56.076z"/>
		<path fill="#303030" d="M1166.409,33.076c0,1.736-1.326,3.146-2.965,3.146h-10.262c-1.637,0-2.963-1.409-2.963-3.146l0,0
			c0-1.736,1.326-3.145,2.963-3.145h10.262C1165.083,29.931,1166.409,31.339,1166.409,33.076L1166.409,33.076z"/>
		<path fill="#303030" d="M1166.409,44.576c0,1.736-1.326,3.146-2.965,3.146h-10.262c-1.637,0-2.963-1.409-2.963-3.146l0,0
			c0-1.736,1.326-3.145,2.963-3.145h10.262C1165.083,41.431,1166.409,42.839,1166.409,44.576L1166.409,44.576z"/>
		<path fill="#303030" d="M1166.409,56.076c0,1.736-1.326,3.146-2.965,3.146h-10.262c-1.637,0-2.963-1.409-2.963-3.146l0,0
			c0-1.736,1.326-3.145,2.963-3.145h10.262C1165.083,52.931,1166.409,54.339,1166.409,56.076L1166.409,56.076z"/>
		<path fill="#303030" d="M1076.229,76.024c0,1.736-1.327,3.146-2.965,3.146h-10.261c-1.638,0-2.964-1.41-2.964-3.146l0,0
			c0-1.736,1.326-3.145,2.964-3.145h10.261C1074.902,72.88,1076.229,74.288,1076.229,76.024L1076.229,76.024z"/>
		<path fill="#303030" d="M1095.308,76.024c0,1.736-1.326,3.146-2.965,3.146h-10.262c-1.639,0-2.965-1.41-2.965-3.146l0,0
			c0-1.736,1.326-3.145,2.965-3.145h10.262C1093.981,72.88,1095.308,74.288,1095.308,76.024L1095.308,76.024z"/>
		<path fill="#303030" d="M1114.384,76.024c0,1.736-1.326,3.146-2.966,3.146h-10.261c-1.637,0-2.965-1.41-2.965-3.146l0,0
			c0-1.736,1.328-3.145,2.965-3.145h10.261C1113.058,72.88,1114.384,74.288,1114.384,76.024L1114.384,76.024z"/>
		<path fill="#303030" d="M1133.46,76.024c0,1.736-1.326,3.146-2.965,3.146h-10.262c-1.637,0-2.963-1.41-2.963-3.146l0,0
			c0-1.736,1.326-3.145,2.963-3.145h10.262C1132.134,72.88,1133.46,74.288,1133.46,76.024L1133.46,76.024z"/>
		<g>
			<path fill="#AFAFAF" d="M982.401,43.193c-3.846,4.289-10.447,4.646-14.742,0.797c-4.291-3.851-4.654-10.45-0.809-14.739
				c3.846-4.29,10.445-4.647,14.74-0.798C985.884,32.303,986.247,38.903,982.401,43.193"/>
			<path fill="none" stroke="#939393" stroke-miterlimit="10" d="M982.401,43.193c-3.846,4.289-10.447,4.646-14.742,0.797
				c-4.291-3.851-4.654-10.45-0.809-14.739c3.846-4.29,10.445-4.647,14.74-0.798C985.884,32.303,986.247,38.903,982.401,43.193z"/>
			<g>
				<g>
					<defs>
						
							<rect id="SVGID_11_" x="964.781" y="26.388" transform="matrix(-0.7445 -0.6676 0.6676 -0.7445 1676.0992 713.8221)" width="19.69" height="19.667"/>
					</defs>
					<clipPath id="SVGID_12_">
						<use xlink:href="#SVGID_11_"  overflow="visible"/>
					</clipPath>
					<path clip-path="url(#SVGID_12_)" fill="#BEBFBF" d="M981.954,42.792c-3.625,4.043-9.844,4.379-13.893,0.75
						c-4.047-3.629-4.389-9.849-0.766-13.891c3.627-4.044,9.848-4.381,13.895-0.752S985.579,38.75,981.954,42.792"/>
					<path clip-path="url(#SVGID_12_)" fill="#C0C1C1" d="M981.78,42.638c-3.539,3.946-9.613,4.274-13.564,0.732
						c-3.951-3.543-4.285-9.617-0.746-13.564c3.541-3.948,9.613-4.277,13.566-0.733C984.987,32.615,985.32,38.689,981.78,42.638"/>
					<path clip-path="url(#SVGID_12_)" fill="#C3C4C4" d="M981.608,42.483c-3.454,3.853-9.381,4.174-13.238,0.716
						c-3.857-3.459-4.182-9.386-0.729-13.238c3.455-3.854,9.383-4.174,13.24-0.716S985.063,38.63,981.608,42.483"/>
					<path clip-path="url(#SVGID_12_)" fill="#C5C6C6" d="M981.437,42.329c-3.369,3.757-9.15,4.07-12.912,0.697
						c-3.762-3.372-4.08-9.153-0.711-12.911c3.371-3.758,9.152-4.07,12.914-0.697C984.487,32.79,984.806,38.571,981.437,42.329"/>
					<path clip-path="url(#SVGID_12_)" fill="#C7C9C9" d="M981.265,42.174c-3.283,3.661-8.92,3.967-12.586,0.68
						s-3.975-8.923-0.693-12.584c3.285-3.663,8.922-3.969,12.588-0.682S984.548,38.511,981.265,42.174"/>
					<path clip-path="url(#SVGID_12_)" fill="#CACBCB" d="M981.091,42.019c-3.197,3.567-8.687,3.865-12.258,0.663
						c-3.57-3.202-3.871-8.691-0.674-12.258c3.199-3.568,8.688-3.865,12.26-0.663S984.29,38.452,981.091,42.019"/>
					<path clip-path="url(#SVGID_12_)" fill="#CCCECE" d="M980.92,41.865c-3.112,3.473-8.456,3.761-11.933,0.645
						c-3.477-3.117-3.77-8.459-0.656-11.931c3.114-3.473,8.457-3.763,11.934-0.646C983.741,33.049,984.034,38.392,980.92,41.865"/>
					<path clip-path="url(#SVGID_12_)" fill="#CED0D0" d="M980.747,41.71c-3.027,3.377-8.225,3.658-11.605,0.627
						c-3.379-3.031-3.666-8.229-0.639-11.605c3.029-3.377,8.227-3.657,11.605-0.627C983.489,33.136,983.774,38.333,980.747,41.71"/>
					<path clip-path="url(#SVGID_12_)" fill="#D1D3D3" d="M980.575,41.556c-2.943,3.281-7.992,3.555-11.279,0.609
						c-3.283-2.946-3.563-7.996-0.621-11.277c2.945-3.283,7.994-3.557,11.281-0.61C983.241,33.224,983.519,38.273,980.575,41.556"/>
					<path clip-path="url(#SVGID_12_)" fill="#D3D5D5" d="M980.401,41.402c-2.855,3.187-7.76,3.451-10.949,0.591
						c-3.191-2.861-3.461-7.764-0.604-10.95c2.857-3.188,7.762-3.453,10.951-0.592C982.991,33.311,983.261,38.213,980.401,41.402"/>
				</g>
			</g>
			<polygon fill="#605F5E" points="969.722,39.765 972.812,36.32 969.362,33.226 971.077,31.314 974.526,34.407 977.616,30.96 
				979.53,32.677 976.44,36.123 979.89,39.215 978.175,41.128 974.724,38.036 971.636,41.482 			"/>
			<path fill="#231815" d="M979.216,32.695l-2.793,3.113l-0.296,0.332l0.333,0.297l3.117,2.795l-1.418,1.582l-3.119-2.796
				l-0.33-0.296l-0.299,0.33l-2.793,3.115l-1.58-1.419l2.791-3.115l0.297-0.331l-0.332-0.298l-3.117-2.796l1.418-1.58l3.116,2.795
				l0.332,0.297l0.298-0.331l2.793-3.114L979.216,32.695z M979.845,32.661l-2.246-2.014l-3.088,3.444L971.062,31l-2.012,2.244
				l3.447,3.092l-3.09,3.445l2.246,2.015l3.09-3.446l3.449,3.093l2.012-2.245l-3.449-3.091L979.845,32.661z"/>
		</g>
		<g>
			<path fill="#AFAFAF" d="M1188.079,43.193c-3.846,4.289-10.445,4.646-14.741,0.797c-4.292-3.851-4.653-10.45-0.81-14.739
				c3.848-4.29,10.447-4.647,14.742-0.798C1191.563,32.303,1191.927,38.903,1188.079,43.193"/>
			
				<ellipse transform="matrix(0.7446 0.6676 -0.6676 0.7446 325.6741 -778.663)" fill="none" stroke="#939393" stroke-miterlimit="10" cx="1180.304" cy="36.222" rx="10.443" ry="10.434"/>
			<g>
				<g>
					<defs>
						
							<rect id="SVGID_13_" x="1170.459" y="26.388" transform="matrix(-0.7446 -0.6675 0.6675 -0.7446 2034.9421 851.0991)" width="19.691" height="19.667"/>
					</defs>
					<clipPath id="SVGID_14_">
						<use xlink:href="#SVGID_13_"  overflow="visible"/>
					</clipPath>
					<path clip-path="url(#SVGID_14_)" fill="#BEBFBF" d="M1187.632,42.792c-3.623,4.043-9.844,4.379-13.891,0.75
						s-4.391-9.849-0.766-13.891c3.627-4.044,9.846-4.381,13.895-0.752C1190.917,32.529,1191.259,38.75,1187.632,42.792"/>
					<path clip-path="url(#SVGID_14_)" fill="#C0C1C1" d="M1187.46,42.638c-3.541,3.946-9.615,4.274-13.564,0.732
						c-3.951-3.543-4.285-9.617-0.746-13.564c3.541-3.948,9.613-4.277,13.566-0.733C1190.667,32.615,1190.999,38.689,1187.46,42.638
						"/>
					<path clip-path="url(#SVGID_14_)" fill="#C3C4C4" d="M1187.288,42.483c-3.455,3.853-9.383,4.174-13.238,0.716
						c-3.857-3.459-4.184-9.386-0.729-13.238c3.456-3.854,9.384-4.174,13.239-0.716C1190.418,32.703,1190.743,38.63,1187.288,42.483
						"/>
					<path clip-path="url(#SVGID_14_)" fill="#C5C6C6" d="M1187.114,42.329c-3.367,3.757-9.148,4.07-12.91,0.697
						c-3.762-3.372-4.08-9.153-0.711-12.911c3.37-3.758,9.15-4.07,12.912-0.697C1190.167,32.79,1190.485,38.571,1187.114,42.329"/>
					<path clip-path="url(#SVGID_14_)" fill="#C7C9C9" d="M1186.942,42.174c-3.281,3.661-8.92,3.967-12.584,0.68
						c-3.666-3.287-3.975-8.923-0.693-12.584c3.285-3.663,8.921-3.969,12.587-0.682S1190.228,38.511,1186.942,42.174"/>
					<path clip-path="url(#SVGID_14_)" fill="#CACBCB" d="M1186.771,42.019c-3.199,3.567-8.688,3.865-12.258,0.663
						s-3.871-8.691-0.675-12.258c3.2-3.568,8.688-3.865,12.261-0.663C1189.669,32.963,1189.97,38.452,1186.771,42.019"/>
					<path clip-path="url(#SVGID_14_)" fill="#CCCECE" d="M1186.599,41.865c-3.113,3.473-8.455,3.761-11.932,0.645
						c-3.477-3.117-3.77-8.459-0.656-11.931c3.113-3.473,8.457-3.763,11.932-0.646C1189.419,33.049,1189.714,38.392,1186.599,41.865
						"/>
					<path clip-path="url(#SVGID_14_)" fill="#CED0D0" d="M1186.425,41.71c-3.025,3.377-8.223,3.658-11.604,0.627
						c-3.378-3.031-3.666-8.229-0.638-11.605s8.225-3.657,11.605-0.627C1189.168,33.136,1189.454,38.333,1186.425,41.71"/>
					<path clip-path="url(#SVGID_14_)" fill="#D1D3D3" d="M1186.253,41.556c-2.941,3.281-7.99,3.555-11.277,0.609
						c-3.285-2.946-3.563-7.996-0.621-11.277c2.943-3.283,7.994-3.557,11.279-0.61C1188.92,33.224,1189.198,38.273,1186.253,41.556"
						/>
					<path clip-path="url(#SVGID_14_)" fill="#D3D5D5" d="M1186.081,41.402c-2.857,3.187-7.761,3.451-10.951,0.591
						c-3.191-2.861-3.46-7.764-0.602-10.95c2.857-3.188,7.762-3.453,10.951-0.592C1188.669,33.311,1188.94,38.213,1186.081,41.402"
						/>
				</g>
			</g>
			<polygon fill="#605F5E" points="1175.401,39.765 1178.489,36.32 1175.042,33.226 1176.757,31.314 1180.204,34.407 
				1183.296,30.96 1185.21,32.677 1182.12,36.123 1185.569,39.215 1183.854,41.128 1180.402,38.036 1177.315,41.482 			"/>
			<path fill="#231815" d="M1184.896,32.695l-2.793,3.113l-0.297,0.332l0.332,0.297l3.117,2.795l-1.418,1.582l-3.117-2.796
				l-0.332-0.296l-0.297,0.33l-2.793,3.115l-1.582-1.419l2.791-3.115l0.297-0.331l-0.33-0.298l-3.117-2.796l1.416-1.58l3.117,2.795
				l0.332,0.297l0.299-0.331l2.793-3.114L1184.896,32.695z M1185.524,32.661l-2.246-2.014l-3.09,3.444L1176.739,31l-2.012,2.244
				l3.447,3.092l-3.089,3.445l2.247,2.015l3.09-3.446l3.447,3.093l2.012-2.245l-3.447-3.091L1185.524,32.661z"/>
		</g>
	</g>
	<path d="M960.138,70.528c0,3.572-3.074,6.467-6.864,6.467H740.114c-3.791,0-6.864-2.895-6.864-6.467V27.515
		c0-3.57,3.073-6.467,6.864-6.467h213.159c3.79,0,6.864,2.896,6.864,6.467V70.528z"/>
	<path fill="#EAEAEA" d="M959.44,69.81c0,3.432-3.047,6.215-6.804,6.215H741.345c-3.758,0-6.805-2.783-6.805-6.215V28.466
		c0-3.433,3.047-6.216,6.805-6.216h211.292c3.757,0,6.804,2.783,6.804,6.216V69.81z"/>
	<rect x="778.163" y="76.489" width="137.099" height="11.139"/>
	<path fill="#EAEAEA" d="M939.083,79.772c0,2.617-2.521,4.738-5.629,4.738H758.638c-3.109,0-5.63-2.121-5.63-4.738V48.258
		c0-2.618,2.521-4.738,5.63-4.738h174.816c3.107,0,5.629,2.12,5.629,4.738V79.772z"/>
	<path d="M916.013,74.013c0.416,0,0.751,0.291,0.751,0.648v1.828h22.151v-1.773c0-0.359,0.336-0.648,0.751-0.648
		c0.416,0,0.751,0.289,0.751,0.648v1.773v2.98v6.102c0,0-0.113,1.652-1.92,2.057h-23.235v-8.211v-2.928v-1.828
		C915.262,74.304,915.598,74.013,916.013,74.013z"/>
	<path d="M777.412,74.013c-0.416,0-0.751,0.291-0.751,0.648v1.828H754.51v-1.773c0-0.359-0.336-0.648-0.751-0.648
		c-0.416,0-0.751,0.289-0.751,0.648v1.773v2.98v6.102c0,0,0.113,1.652,1.92,2.057h23.235v-8.211v-2.928v-1.828
		C778.163,74.304,777.827,74.013,777.412,74.013z"/>
	<path fill="#303030" d="M807.602,76.024c0,1.736-1.326,3.146-2.965,3.146h-10.262c-1.637,0-2.965-1.41-2.965-3.146l0,0
		c0-1.736,1.328-3.145,2.965-3.145h10.262C806.275,72.88,807.602,74.288,807.602,76.024L807.602,76.024z"/>
	<path fill="#303030" d="M826.678,76.024c0,1.736-1.326,3.146-2.965,3.146h-10.262c-1.637,0-2.964-1.41-2.964-3.146l0,0
		c0-1.736,1.327-3.145,2.964-3.145h10.262C825.352,72.88,826.678,74.288,826.678,76.024L826.678,76.024z"/>
	<path fill="#303030" d="M771.857,33.076c0,1.736-1.326,3.146-2.965,3.146h-10.262c-1.637,0-2.964-1.409-2.964-3.146l0,0
		c0-1.736,1.327-3.145,2.964-3.145h10.262C770.531,29.931,771.857,31.339,771.857,33.076L771.857,33.076z"/>
	<path fill="#303030" d="M771.857,44.576c0,1.736-1.326,3.146-2.965,3.146h-10.262c-1.637,0-2.964-1.409-2.964-3.146l0,0
		c0-1.736,1.327-3.145,2.964-3.145h10.262C770.531,41.431,771.857,42.839,771.857,44.576L771.857,44.576z"/>
	<path fill="#303030" d="M771.857,56.076c0,1.736-1.326,3.146-2.965,3.146h-10.262c-1.637,0-2.964-1.409-2.964-3.146l0,0
		c0-1.736,1.327-3.145,2.964-3.145h10.262C770.531,52.931,771.857,54.339,771.857,56.076L771.857,56.076z"/>
	<path fill="#303030" d="M935.935,33.076c0,1.736-1.326,3.146-2.965,3.146h-10.262c-1.637,0-2.964-1.409-2.964-3.146l0,0
		c0-1.736,1.327-3.145,2.964-3.145h10.262C934.608,29.931,935.935,31.339,935.935,33.076L935.935,33.076z"/>
	<path fill="#303030" d="M935.935,44.576c0,1.736-1.326,3.146-2.965,3.146h-10.262c-1.637,0-2.964-1.409-2.964-3.146l0,0
		c0-1.736,1.327-3.145,2.964-3.145h10.262C934.608,41.431,935.935,42.839,935.935,44.576L935.935,44.576z"/>
	<path fill="#303030" d="M935.935,56.076c0,1.736-1.326,3.146-2.965,3.146h-10.262c-1.637,0-2.964-1.409-2.964-3.146l0,0
		c0-1.736,1.327-3.145,2.964-3.145h10.262C934.608,52.931,935.935,54.339,935.935,56.076L935.935,56.076z"/>
	<path fill="#303030" d="M845.755,76.024c0,1.736-1.327,3.146-2.965,3.146h-10.261c-1.639,0-2.965-1.41-2.965-3.146l0,0
		c0-1.736,1.326-3.145,2.965-3.145h10.261C844.428,72.88,845.755,74.288,845.755,76.024L845.755,76.024z"/>
	<path fill="#303030" d="M864.832,76.024c0,1.736-1.326,3.146-2.965,3.146h-10.262c-1.638,0-2.965-1.41-2.965-3.146l0,0
		c0-1.736,1.327-3.145,2.965-3.145h10.262C863.506,72.88,864.832,74.288,864.832,76.024L864.832,76.024z"/>
	<path fill="#303030" d="M883.908,76.024c0,1.736-1.326,3.146-2.965,3.146h-10.262c-1.637,0-2.964-1.41-2.964-3.146l0,0
		c0-1.736,1.327-3.145,2.964-3.145h10.262C882.582,72.88,883.908,74.288,883.908,76.024L883.908,76.024z"/>
	<path fill="#303030" d="M902.984,76.024c0,1.736-1.326,3.146-2.964,3.146h-10.262c-1.638,0-2.964-1.41-2.964-3.146l0,0
		c0-1.736,1.326-3.145,2.964-3.145h10.262C901.658,72.88,902.984,74.288,902.984,76.024L902.984,76.024z"/>
	<g>
		<path fill="#AFAFAF" d="M751.927,43.193c-3.846,4.289-10.447,4.646-14.742,0.797c-4.291-3.851-4.654-10.45-0.809-14.739
			c3.846-4.29,10.445-4.647,14.74-0.798C755.409,32.303,755.772,38.903,751.927,43.193"/>
		<path fill="none" stroke="#939393" stroke-miterlimit="10" d="M751.927,43.193c-3.846,4.289-10.447,4.646-14.742,0.797
			c-4.291-3.851-4.654-10.45-0.809-14.739c3.846-4.29,10.445-4.647,14.74-0.798C755.409,32.303,755.772,38.903,751.927,43.193z"/>
		<g>
			<g>
				<defs>
					
						<rect id="SVGID_15_" x="734.306" y="26.388" transform="matrix(-0.7445 -0.6676 0.6676 -0.7445 1274.0258 559.9639)" width="19.69" height="19.667"/>
				</defs>
				<clipPath id="SVGID_16_">
					<use xlink:href="#SVGID_15_"  overflow="visible"/>
				</clipPath>
				<path clip-path="url(#SVGID_16_)" fill="#BEBFBF" d="M751.479,42.792c-3.625,4.043-9.844,4.379-13.893,0.75
					c-4.047-3.629-4.389-9.849-0.766-13.891c3.627-4.044,9.848-4.381,13.895-0.752S755.104,38.75,751.479,42.792"/>
				<path clip-path="url(#SVGID_16_)" fill="#C0C1C1" d="M751.306,42.638c-3.539,3.946-9.613,4.274-13.564,0.732
					c-3.951-3.543-4.285-9.617-0.746-13.564c3.541-3.948,9.613-4.277,13.566-0.733C754.513,32.615,754.846,38.689,751.306,42.638"/>
				<path clip-path="url(#SVGID_16_)" fill="#C3C4C4" d="M751.134,42.483c-3.453,3.853-9.381,4.174-13.238,0.716
					c-3.857-3.459-4.182-9.386-0.729-13.238c3.455-3.854,9.383-4.174,13.24-0.716S754.589,38.63,751.134,42.483"/>
				<path clip-path="url(#SVGID_16_)" fill="#C5C6C6" d="M750.962,42.329c-3.369,3.757-9.15,4.07-12.912,0.697
					c-3.762-3.372-4.08-9.153-0.711-12.911c3.371-3.758,9.152-4.07,12.914-0.697C754.013,32.79,754.331,38.571,750.962,42.329"/>
				<path clip-path="url(#SVGID_16_)" fill="#C7C9C9" d="M750.79,42.174c-3.283,3.661-8.921,3.967-12.586,0.68
					c-3.666-3.287-3.975-8.923-0.693-12.584c3.285-3.663,8.922-3.969,12.588-0.682S754.073,38.511,750.79,42.174"/>
				<path clip-path="url(#SVGID_16_)" fill="#CACBCB" d="M750.616,42.019c-3.197,3.567-8.686,3.865-12.258,0.663
					c-3.57-3.202-3.871-8.691-0.674-12.258c3.199-3.568,8.688-3.865,12.26-0.663C753.516,32.963,753.815,38.452,750.616,42.019"/>
				<path clip-path="url(#SVGID_16_)" fill="#CCCECE" d="M750.446,41.865c-3.113,3.473-8.457,3.761-11.934,0.645
					c-3.477-3.117-3.77-8.459-0.656-11.931c3.115-3.473,8.457-3.763,11.934-0.646C753.266,33.049,753.56,38.392,750.446,41.865"/>
				<path clip-path="url(#SVGID_16_)" fill="#CED0D0" d="M750.272,41.71c-3.027,3.377-8.225,3.658-11.605,0.627
					c-3.379-3.031-3.666-8.229-0.639-11.605c3.029-3.377,8.227-3.657,11.605-0.627C753.015,33.136,753.3,38.333,750.272,41.71"/>
				<path clip-path="url(#SVGID_16_)" fill="#D1D3D3" d="M750.101,41.556c-2.943,3.281-7.992,3.555-11.279,0.609
					c-3.283-2.946-3.563-7.996-0.621-11.277c2.945-3.283,7.994-3.557,11.281-0.61C752.767,33.224,753.044,38.273,750.101,41.556"/>
				<path clip-path="url(#SVGID_16_)" fill="#D3D5D5" d="M749.927,41.402c-2.855,3.187-7.76,3.451-10.949,0.591
					c-3.191-2.861-3.461-7.764-0.604-10.95c2.857-3.188,7.762-3.453,10.951-0.592C752.517,33.311,752.786,38.213,749.927,41.402"/>
			</g>
		</g>
		<polygon fill="#605F5E" points="739.247,39.765 742.337,36.32 738.888,33.226 740.603,31.314 744.052,34.407 747.142,30.96 
			749.056,32.677 745.966,36.123 749.415,39.215 747.7,41.128 744.249,38.036 741.161,41.482 		"/>
		<path fill="#231815" d="M748.741,32.695l-2.793,3.113l-0.295,0.332l0.332,0.297l3.117,2.795l-1.418,1.582l-3.119-2.796
			l-0.33-0.296l-0.299,0.33l-2.793,3.115l-1.58-1.419l2.791-3.115l0.297-0.331l-0.332-0.298l-3.117-2.796l1.417-1.58l3.118,2.795
			l0.332,0.297l0.297-0.331l2.793-3.114L748.741,32.695z M749.37,32.661l-2.246-2.014l-3.088,3.444L740.587,31l-2.012,2.244
			l3.447,3.092l-3.09,3.445l2.246,2.015l3.09-3.446l3.449,3.093l2.012-2.245l-3.449-3.091L749.37,32.661z"/>
	</g>
	<g>
		<path fill="#AFAFAF" d="M957.604,43.193c-3.846,4.289-10.446,4.646-14.741,0.797c-4.292-3.851-4.654-10.45-0.81-14.739
			c3.847-4.29,10.446-4.647,14.741-0.798C961.088,32.303,961.451,38.903,957.604,43.193"/>
		
			<ellipse transform="matrix(0.7446 0.6676 -0.6676 0.7446 266.8021 -624.809)" fill="none" stroke="#939393" stroke-miterlimit="10" cx="949.829" cy="36.222" rx="10.443" ry="10.434"/>
		<g>
			<g>
				<defs>
					
						<rect id="SVGID_17_" x="939.984" y="26.388" transform="matrix(-0.7446 -0.6675 0.6675 -0.7446 1632.8628 697.2462)" width="19.691" height="19.667"/>
				</defs>
				<clipPath id="SVGID_18_">
					<use xlink:href="#SVGID_17_"  overflow="visible"/>
				</clipPath>
				<path clip-path="url(#SVGID_18_)" fill="#BEBFBF" d="M957.157,42.792c-3.624,4.043-9.844,4.379-13.892,0.75
					c-4.047-3.629-4.39-9.849-0.766-13.891c3.627-4.044,9.847-4.381,13.895-0.752C960.441,32.529,960.783,38.75,957.157,42.792"/>
				<path clip-path="url(#SVGID_18_)" fill="#C0C1C1" d="M956.984,42.638c-3.54,3.946-9.614,4.274-13.564,0.732
					c-3.951-3.543-4.285-9.617-0.746-13.564c3.541-3.948,9.613-4.277,13.566-0.733C960.191,32.615,960.524,38.689,956.984,42.638"/>
				<path clip-path="url(#SVGID_18_)" fill="#C3C4C4" d="M956.813,42.483c-3.454,3.853-9.382,4.174-13.238,0.716
					c-3.857-3.459-4.183-9.386-0.729-13.238c3.455-3.854,9.383-4.174,13.239-0.716C959.943,32.703,960.268,38.63,956.813,42.483"/>
				<path clip-path="url(#SVGID_18_)" fill="#C5C6C6" d="M956.64,42.329c-3.368,3.757-9.149,4.07-12.911,0.697
					c-3.762-3.372-4.08-9.153-0.711-12.911c3.371-3.758,9.151-4.07,12.913-0.697C959.691,32.79,960.01,38.571,956.64,42.329"/>
				<path clip-path="url(#SVGID_18_)" fill="#C7C9C9" d="M956.468,42.174c-3.282,3.661-8.92,3.967-12.585,0.68
					c-3.666-3.287-3.975-8.923-0.693-12.584c3.285-3.663,8.922-3.969,12.588-0.682S959.752,38.511,956.468,42.174"/>
				<path clip-path="url(#SVGID_18_)" fill="#CACBCB" d="M956.295,42.019c-3.198,3.567-8.687,3.865-12.258,0.663
					c-3.57-3.202-3.871-8.691-0.674-12.258c3.199-3.568,8.688-3.865,12.26-0.663C959.194,32.963,959.494,38.452,956.295,42.019"/>
				<path clip-path="url(#SVGID_18_)" fill="#CCCECE" d="M956.124,41.865c-3.113,3.473-8.456,3.761-11.933,0.645
					c-3.477-3.117-3.77-8.459-0.656-11.931c3.114-3.473,8.457-3.763,11.933-0.646C958.944,33.049,959.238,38.392,956.124,41.865"/>
				<path clip-path="url(#SVGID_18_)" fill="#CED0D0" d="M955.95,41.71c-3.026,3.377-8.224,3.658-11.604,0.627
					c-3.379-3.031-3.666-8.229-0.639-11.605c3.029-3.377,8.226-3.657,11.605-0.627C958.693,33.136,958.979,38.333,955.95,41.71"/>
				<path clip-path="url(#SVGID_18_)" fill="#D1D3D3" d="M955.778,41.556c-2.942,3.281-7.991,3.555-11.278,0.609
					c-3.284-2.946-3.562-7.996-0.621-11.277c2.944-3.283,7.994-3.557,11.28-0.61S958.723,38.273,955.778,41.556"/>
				<path clip-path="url(#SVGID_18_)" fill="#D3D5D5" d="M955.605,41.402c-2.856,3.187-7.76,3.451-10.95,0.591
					c-3.191-2.861-3.46-7.764-0.603-10.95c2.857-3.188,7.762-3.453,10.951-0.592C958.194,33.311,958.465,38.213,955.605,41.402"/>
			</g>
		</g>
		<polygon fill="#605F5E" points="944.926,39.765 948.015,36.32 944.566,33.226 946.281,31.314 949.729,34.407 952.82,30.96 
			954.734,32.677 951.645,36.123 955.094,39.215 953.379,41.128 949.928,38.036 946.84,41.482 		"/>
		<path fill="#231815" d="M954.42,32.695l-2.793,3.113l-0.296,0.332l0.332,0.297l3.117,2.795l-1.418,1.582l-3.118-2.796
			l-0.331-0.296l-0.298,0.33l-2.793,3.115l-1.581-1.419l2.791-3.115l0.297-0.331l-0.331-0.298l-3.117-2.796l1.417-1.58l3.117,2.795
			l0.332,0.297l0.298-0.331l2.793-3.114L954.42,32.695z M955.049,32.661l-2.246-2.014l-3.089,3.444L946.265,31l-2.012,2.244
			l3.447,3.092l-3.089,3.445l2.246,2.015l3.09-3.446l3.448,3.093l2.012-2.245l-3.448-3.091L955.049,32.661z"/>
	</g>
	<rect x="932.705" y="76.489" width="58.56" height="11.139"/>
	<g>
		<path fill="#111111" d="M972.947,105.429c0,1.309-1.06,2.367-2.367,2.367h-17.191c-1.307,0-2.366-1.059-2.366-2.367V88.239
			c0-1.307,1.06-2.367,2.366-2.367h17.191c1.308,0,2.367,1.061,2.367,2.367V105.429z"/>
		<path fill="#E8E8E8" d="M971.583,104.067c0,1.307-1.06,2.365-2.366,2.365h-14.465c-1.307,0-2.366-1.059-2.366-2.365V89.603
			c0-1.309,1.06-2.367,2.366-2.367h14.465c1.307,0,2.366,1.059,2.366,2.367V104.067z"/>
		<g>
			<path fill="#AFAFAF" d="M968.118,102.335c-3.033,3.385-8.241,3.666-11.63,0.629c-3.387-3.039-3.672-8.246-0.638-11.629
				c3.033-3.385,8.241-3.666,11.63-0.629C970.867,93.743,971.154,98.95,968.118,102.335"/>
			
				<ellipse transform="matrix(0.7445 0.6676 -0.6676 0.7445 310.4098 -617.4769)" fill="none" stroke="#939393" stroke-miterlimit="10" cx="961.984" cy="96.835" rx="8.239" ry="8.232"/>
			<g>
				<g>
					<defs>
						
							<rect id="SVGID_19_" x="954.217" y="89.076" transform="matrix(-0.7445 -0.6676 0.6676 -0.7445 1613.5669 811.1397)" width="15.535" height="15.517"/>
					</defs>
					<clipPath id="SVGID_20_">
						<use xlink:href="#SVGID_19_"  overflow="visible"/>
					</clipPath>
					<path clip-path="url(#SVGID_20_)" fill="#BEBFBF" d="M967.767,102.019c-2.859,3.189-7.768,3.455-10.961,0.592
						c-3.192-2.863-3.463-7.771-0.604-10.959c2.861-3.189,7.77-3.457,10.963-0.592C970.356,93.921,970.627,98.829,967.767,102.019"
						/>
					<path clip-path="url(#SVGID_20_)" fill="#C0C1C1" d="M967.63,101.897c-2.793,3.113-7.586,3.373-10.702,0.576
						c-3.117-2.795-3.381-7.586-0.589-10.701c2.795-3.113,7.584-3.373,10.704-0.578C970.159,93.989,970.422,98.78,967.63,101.897"/>
					<path clip-path="url(#SVGID_20_)" fill="#C3C4C4" d="M967.494,101.774c-2.726,3.039-7.402,3.293-10.444,0.564
						c-3.043-2.729-3.301-7.404-0.575-10.443c2.726-3.041,7.403-3.293,10.445-0.566C969.964,94.058,970.22,98.735,967.494,101.774"
						/>
					<path clip-path="url(#SVGID_20_)" fill="#C5C6C6" d="M967.357,101.653c-2.657,2.963-7.22,3.211-10.186,0.549
						c-2.969-2.66-3.22-7.221-0.562-10.186c2.66-2.965,7.22-3.213,10.188-0.551C969.766,94.126,970.017,98.688,967.357,101.653"/>
					<path clip-path="url(#SVGID_20_)" fill="#C7C9C9" d="M967.222,101.532c-2.589,2.889-7.037,3.129-9.929,0.535
						c-2.893-2.594-3.137-7.039-0.548-9.928c2.593-2.891,7.04-3.133,9.932-0.539C969.57,94.194,969.813,98.642,967.222,101.532"/>
					<path clip-path="url(#SVGID_20_)" fill="#CACBCB" d="M967.086,101.409c-2.523,2.814-6.853,3.049-9.671,0.521
						c-2.816-2.525-3.054-6.855-0.532-9.67c2.524-2.814,6.854-3.049,9.673-0.523C969.373,94.265,969.609,98.593,967.086,101.409"/>
					<path clip-path="url(#SVGID_20_)" fill="#CCCECE" d="M966.951,101.288c-2.456,2.738-6.672,2.967-9.415,0.508
						c-2.742-2.461-2.975-6.674-0.518-9.414c2.457-2.738,6.673-2.967,9.414-0.51C969.177,94.331,969.407,98.548,966.951,101.288"/>
					<path clip-path="url(#SVGID_20_)" fill="#CED0D0" d="M966.813,101.165c-2.387,2.664-6.488,2.887-9.156,0.494
						c-2.665-2.391-2.891-6.492-0.503-9.156c2.39-2.664,6.489-2.885,9.157-0.494C968.978,94.399,969.202,98.501,966.813,101.165"/>
					<path clip-path="url(#SVGID_20_)" fill="#D1D3D3" d="M966.679,101.044c-2.322,2.588-6.305,2.805-8.899,0.48
						c-2.591-2.324-2.81-6.309-0.489-8.898c2.322-2.59,6.307-2.805,8.899-0.48S969.001,98.452,966.679,101.044"/>
					<path clip-path="url(#SVGID_20_)" fill="#D3D5D5" d="M966.541,100.921c-2.253,2.516-6.122,2.723-8.639,0.467
						c-2.518-2.258-2.729-6.125-0.475-8.639c2.254-2.516,6.122-2.725,8.64-0.467C968.584,94.538,968.798,98.407,966.541,100.921"/>
				</g>
			</g>
			<polygon fill="#605F5E" points="958.116,99.632 960.553,96.911 957.832,94.472 959.185,92.962 961.906,95.403 964.344,92.685 
				965.854,94.038 963.416,96.757 966.138,99.196 964.786,100.706 962.063,98.265 959.626,100.985 			"/>
			<path fill="#231815" d="M965.606,94.052l-2.204,2.457l-0.233,0.262l0.263,0.234l2.458,2.205l-1.118,1.248l-2.46-2.207
				l-0.261-0.232l-0.235,0.26l-2.203,2.459l-1.248-1.119l2.202-2.459l0.234-0.262l-0.261-0.234l-2.46-2.205l1.118-1.246l2.459,2.203
				l0.263,0.236l0.234-0.262l2.204-2.457L965.606,94.052z M966.104,94.026l-1.773-1.59l-2.437,2.717l-2.722-2.439l-1.586,1.771
				l2.72,2.439l-2.438,2.719l1.772,1.588l2.438-2.719l2.72,2.441l1.587-1.771l-2.72-2.439L966.104,94.026z"/>
		</g>
	</g>
	<path fill="#CECECE" d="M975.59,78.558h-10.677l-3.518-2.158l-3.385,2.158h-10.298c-0.689,0-1.249,0.412-1.249,0.92v4.141
		c0,0.51,0.56,0.92,1.249,0.92h3.123v2.158h21.63v-2.158h3.124c0.689,0,1.249-0.41,1.249-0.92v-4.141
		C976.839,78.97,976.279,78.558,975.59,78.558z"/>
	<path d="M963.08,83.954c0,0.896-0.728,1.625-1.625,1.625l0,0c-0.897,0-1.625-0.729-1.625-1.625v-3.791
		c0-0.898,0.728-1.625,1.625-1.625l0,0c0.897,0,1.625,0.727,1.625,1.625V83.954z"/>
</g>
<g>
	<polygon fill="#141414" points="307.765,115.524 307.765,97.386 338.267,97.386 339.921,100.468 466.896,100.468 466.896,114.595 
		338.325,114.595 334.601,117.21 307.765,117.21 	"/>
	<path fill="#494949" d="M465.628,109.8c0,1.629-1.361,2.951-3.039,2.951H340c-1.678,0-3.039-1.322-3.039-2.951v-4.426
		c0-1.627,1.361-2.949,3.039-2.949h122.589c1.678,0,3.039,1.322,3.039,2.949V109.8z"/>
	<path fill="#494949" d="M337.961,112.271c0,1.813-1.495,3.283-3.339,3.283h-22.864c-1.845,0-3.339-1.471-3.339-3.283v-9.943
		c0-1.814,1.494-3.283,3.339-3.283h22.864c1.844,0,3.339,1.469,3.339,3.283V112.271z"/>
</g>
<g>
	<text transform="matrix(1 0 0 1 338.2861 33.2759)" font-family="'Helvetica'" font-size="6.2737">DO  NOT  INS TALL INTERFACE</text>
	<text transform="matrix(1 0 0 1 338.2861 41.7954)" font-family="'Helvetica'" font-size="6.2737">CARDS WITH POWER APPLIED</text>
</g>
<g>
	<text transform="matrix(1 0 0 1 567.6196 33.2759)" font-family="'Helvetica'" font-size="6.2737">DO  NOT  INS TALL INTERFACE</text>
	<text transform="matrix(1 0 0 1 567.6196 41.7954)" font-family="'Helvetica'" font-size="6.2737">CARDS WITH POWER APPLIED</text>
</g>
<g>
	<text transform="matrix(1 0 0 1 796.9531 33.2759)" font-family="'Helvetica'" font-size="6.2737">DO  NOT  INS TALL INTERFACE</text>
	<text transform="matrix(1 0 0 1 796.9531 41.7954)" font-family="'Helvetica'" font-size="6.2737">CARDS WITH POWER APPLIED</text>
</g>
<g>
	<text transform="matrix(1 0 0 1 1029.9805 33.2759)" font-family="'Helvetica'" font-size="6.2737">DO  NOT  INS TALL INTERFACE</text>
	<text transform="matrix(1 0 0 1 1029.9805 41.7954)" font-family="'Helvetica'" font-size="6.2737">CARDS WITH POWER APPLIED</text>
</g>
</svg>
