<?xml version="1.0" encoding="utf-8"?>
<!-- Generator: Adobe Illustrator 16.0.0, SVG Export Plug-In . SVG Version: 6.00 Build 0)  -->
<!DOCTYPE svg PUBLIC "-//W3C//DTD SVG 1.1//EN" "http://www.w3.org/Graphics/SVG/1.1/DTD/svg11.dtd">
<svg version="1.1" id="图层_1" xmlns="http://www.w3.org/2000/svg" xmlns:xlink="http://www.w3.org/1999/xlink" x="0px" y="0px"
	 width="1277.29px" height="127.84px" viewBox="0 0 1277.29 127.84" enable-background="new 0 0 1277.29 127.84"
	 xml:space="preserve">
<g>
	<rect x="0.85" y="0.891" fill="#CECECE" width="1275.589" height="126.142"/>
	<path fill="#1F2020" d="M1277.29,127.884H0V0.041h1277.29V127.884z M1.7,126.184h1273.89V1.741H1.7V126.184z"/>
</g>
<g>
	<path fill="#515151" d="M92.889,54.022l-1.349-0.808v0.602h-6.037h-0.537h-0.484l1.369-1.371c0.125-0.125,0.297-0.195,0.471-0.195
		h1.211c0.109,0.25,0.361,0.425,0.652,0.425c0.393,0,0.711-0.316,0.711-0.711c0-0.393-0.318-0.711-0.711-0.711
		c-0.35,0-0.639,0.25-0.699,0.581h-1.164c-0.283,0-0.561,0.116-0.764,0.318l-1.473,1.473c-0.122,0.123-0.287,0.191-0.459,0.191
		h-0.182h-0.479c-0.098-0.537-0.566-0.943-1.129-0.943c-0.637,0-1.152,0.514-1.152,1.149c0,0.637,0.516,1.15,1.152,1.15
		c0.563,0,1.031-0.407,1.129-0.942h0.479h0.182h1.34h0.537c0.174,0,0.336,0.067,0.457,0.188l1.412,1.412
		c0.203,0.203,0.473,0.315,0.76,0.315h1.021v0.54h1.349v-1.35h-1.349v0.394h-1.021c-0.176,0-0.342-0.068-0.467-0.194l-1.307-1.306
		h5.182v0.6L92.889,54.022z"/>
</g>
<g>
	<path fill="#3E555F" d="M1276.084,109.618h-13.98h-184.404c0,0-7.172-0.167-11.008,4.167c-3.836,4.333-14.18,9.832-24.188,10
		c-10.008,0.166-1041.367,0-1041.367,0v1.833v0.5h1274.947V109.618z"/>
	<path fill="#0C0C0C" d="M1276.584,126.618H0.637v-3.333h0.5c0,0,458.381,0.074,766.936,0.074
		c179.145,0,271.475-0.025,274.422-0.074c10.469-0.176,20.404-5.971,23.822-9.832c3.652-4.127,10.035-4.336,11.277-4.336
		l0.117,0.001h198.873V126.618z M1.638,125.618h1273.946v-15.5l-197.99-0.001c-0.715,0-7.088,0.112-10.527,3.999
		c-4.217,4.764-14.805,10.006-24.555,10.169c-2.953,0.049-95.289,0.074-274.439,0.074c-302.64,0-749.419-0.072-766.434-0.074
		V125.618z"/>
</g>
<rect x="160.572" y="17.6" fill="#EFE68F" width="39.612" height="10"/>
<rect x="203.847" y="17.6" fill="#99BAC6" width="39.612" height="10"/>
<rect x="160.572" y="112.867" fill="#EFE68F" width="39.612" height="10"/>
<rect x="203.847" y="112.867" fill="#434444" width="39.612" height="10"/>
<g>
	<path fill="#3E555F" d="M1.069,63.963V0.892h1275.156v13.975H122.858c0,0-5.84,0.082-9.678,2.915c-3.835,2.833-43.376,40-43.376,40
		s-6.256,6.181-17.267,6.181H1.069z"/>
	<path fill="#0C0C0C" d="M52.537,64.463H0.569V0.392h1276.156v14.975H122.858c-0.051,0.001-5.721,0.116-9.38,2.817
		c-3.77,2.783-42.936,39.59-43.33,39.962C69.896,58.396,63.625,64.463,52.537,64.463z M1.569,63.463h50.968
		c10.659,0,16.854-5.977,16.916-6.037c1.626-1.526,39.614-37.228,43.431-40.046c3.922-2.895,9.722-3.009,9.967-3.013h1152.875V1.392
		H1.569V63.463z"/>
</g>
<text transform="matrix(1 0 0 1 1141.043 123.0928)" fill="#DDDDDD" stroke="#DDDDDD" stroke-width="0.5" stroke-miterlimit="10" font-family="'Helvetica'" font-size="13.36">Cisco 2800</text>
<text transform="matrix(1 0 0 1 1211.2168 123.0928)" fill="#E0E0E0" font-family="'Helvetica'" font-size="8.2658">Series</text>
<rect x="134.267" y="30.305" fill="#636363" stroke="#000000" stroke-width="2" stroke-miterlimit="10" width="127.114" height="80.066"/>
<path fill="#4F4F4F" d="M258.86,70.9c0,1.217-0.986,2.202-2.202,2.202H143.301c-1.216,0-2.201-0.985-2.201-2.202l0,0
	c0-1.215,0.985-2.201,2.201-2.201h113.356C257.874,68.699,258.86,69.686,258.86,70.9L258.86,70.9z"/>
<circle fill="#161616" cx="146.979" cy="42.68" r="1.98"/>
<circle fill="#161616" cx="146.979" cy="50.218" r="1.98"/>
<circle fill="#161616" cx="146.979" cy="57.758" r="1.98"/>
<circle fill="#161616" cx="146.979" cy="80.553" r="1.98"/>
<circle fill="#161616" cx="146.979" cy="88.091" r="1.98"/>
<circle fill="#161616" cx="146.979" cy="95.629" r="1.98"/>
<path fill="#6D6C6C" d="M258.86,70.338c0,1.215-0.986,2.201-2.202,2.201H143.301c-1.216,0-2.201-0.986-2.201-2.201l0,0
	c0-1.217,0.985-2.201,2.201-2.201h113.356C257.874,68.137,258.86,69.121,258.86,70.338L258.86,70.338z"/>
<path fill="#303030" d="M494.026,24.877H272.223c-1.495,0-2.709,1.264-2.709,2.824v42.127c0,1.559,1.214,2.823,2.709,2.823h16.037
	v10.355c0,1.56,1.114,2.823,2.487,2.823h203.501c1.374,0,2.486-1.264,2.486-2.823V69.828V40.88V27.701
	C496.735,26.142,495.521,24.877,494.026,24.877z"/>
<path fill="#EAEAEA" d="M492.659,27.063H273.853c-1.478,0-2.674,1.197-2.674,2.674V69.62c0,1.478,1.197,2.675,2.674,2.675h40.981
	v9.803c0,1.478,1.098,2.674,2.452,2.674h175.593c1.354,0,2.453-1.196,2.453-2.674V69.62V42.213V29.736
	C495.333,28.259,494.135,27.063,492.659,27.063z"/>
<path fill="#303030" d="M314.834,76.416c0,0.416-0.336,0.753-0.753,0.753l0,0c-0.414,0-0.751-0.337-0.751-0.753v-5.515
	c0-0.415,0.337-0.751,0.751-0.751l0,0c0.417,0,0.753,0.336,0.753,0.751V76.416z"/>
<path fill="#303030" d="M291.181,76.479c0,0.415-0.337,0.751-0.753,0.751l0,0c-0.414,0-0.751-0.336-0.751-0.751v-5.516
	c0-0.415,0.337-0.752,0.751-0.752l0,0c0.416,0,0.753,0.337,0.753,0.752V76.479z"/>
<path fill="#303030" d="M481.946,76.31c0,0.415-0.336,0.752-0.752,0.752l0,0c-0.415,0-0.751-0.337-0.751-0.752v-5.515
	c0-0.416,0.336-0.752,0.751-0.752l0,0c0.416,0,0.752,0.336,0.752,0.752V76.31z"/>
<path fill="#303030" d="M458.292,76.372c0,0.415-0.337,0.753-0.751,0.753l0,0c-0.417,0-0.752-0.338-0.752-0.753v-5.515
	c0-0.415,0.335-0.752,0.752-0.752l0,0c0.414,0,0.751,0.337,0.751,0.752V76.372z"/>
<path fill="#303030" d="M456.79,72.915v10.532c0,0,0.113,1.916,1.92,2.383h23.236V72.915H456.79z"/>
<path fill="#303030" d="M383.577,62.232c0,1.322-1.273,2.392-2.845,2.392l0,0c-1.572,0-2.847-1.07-2.847-2.392V44.587
	c0-1.321,1.274-2.392,2.847-2.392l0,0c1.571,0,2.845,1.071,2.845,2.392V62.232z"/>
<path fill="#303030" d="M379.666,75.287c-1.321,0-2.392-1.273-2.392-2.846l0,0c0-1.572,1.07-2.846,2.392-2.846h17.645
	c1.322,0,2.394,1.273,2.394,2.846l0,0c0,1.572-1.071,2.846-2.394,2.846H379.666z"/>
<path fill="#303030" d="M399.704,62.232c0,1.322-1.274,2.392-2.847,2.392l0,0c-1.571,0-2.846-1.07-2.846-2.392V44.587
	c0-1.321,1.274-2.392,2.846-2.392l0,0c1.572,0,2.847,1.071,2.847,2.392V62.232z"/>
<path fill="none" stroke="#303030" stroke-miterlimit="10" d="M362.909,73.08c0,2.163-1.754,3.916-3.916,3.916h-30.108
	c-2.163,0-3.917-1.753-3.917-3.916l0,0c0-2.162,1.754-3.916,3.917-3.916h30.108C361.155,69.164,362.909,70.918,362.909,73.08
	L362.909,73.08z"/>
<path fill="none" stroke="#303030" stroke-miterlimit="10" d="M453.03,73.08c0,2.163-1.754,3.916-3.916,3.916h-30.108
	c-2.163,0-3.917-1.753-3.917-3.916l0,0c0-2.162,1.754-3.916,3.917-3.916h30.108C451.276,69.164,453.03,70.918,453.03,73.08
	L453.03,73.08z"/>
<path fill="#303030" d="M478.442,36.487c0,2.114-1.714,3.828-3.828,3.828h-13.245c-2.113,0-3.827-1.714-3.827-3.828l0,0
	c0-2.114,1.714-3.828,3.827-3.828h13.245C476.728,32.659,478.442,34.373,478.442,36.487L478.442,36.487z"/>
<path fill="#303030" d="M319.907,36.487c0,2.114-1.715,3.828-3.829,3.828h-13.245c-2.113,0-3.827-1.714-3.827-3.828l0,0
	c0-2.114,1.714-3.828,3.827-3.828h13.245C318.192,32.659,319.907,34.373,319.907,36.487L319.907,36.487z"/>
<path fill="#303030" d="M319.907,45.92c0,2.114-1.715,3.828-3.829,3.828h-13.245c-2.113,0-3.827-1.714-3.827-3.828l0,0
	c0-2.114,1.714-3.828,3.827-3.828h13.245C318.192,42.093,319.907,43.806,319.907,45.92L319.907,45.92z"/>
<path fill="#303030" d="M319.907,55.354c0,2.114-1.715,3.828-3.829,3.828h-13.245c-2.113,0-3.827-1.714-3.827-3.828l0,0
	c0-2.114,1.714-3.829,3.827-3.829h13.245C318.192,51.526,319.907,53.24,319.907,55.354L319.907,55.354z"/>
<g>
	<path fill="#AFAFAF" d="M491.038,47.287c-3.847,4.289-10.446,4.646-14.74,0.797c-4.294-3.851-4.655-10.45-0.811-14.74
		c3.848-4.29,10.447-4.647,14.741-0.797C494.521,36.396,494.883,42.996,491.038,47.287"/>
	
		<ellipse transform="matrix(0.7446 0.6676 -0.6676 0.7446 150.3621 -312.3109)" fill="none" stroke="#939393" stroke-miterlimit="10" cx="483.262" cy="40.315" rx="10.443" ry="10.433"/>
	<g>
		<g>
			<defs>
				
					<rect id="SVGID_1_" x="473.418" y="30.481" transform="matrix(-0.7445 -0.6676 0.6676 -0.7445 816.1544 392.9494)" width="19.69" height="19.667"/>
			</defs>
			<clipPath id="SVGID_2_">
				<use xlink:href="#SVGID_1_"  overflow="visible"/>
			</clipPath>
			<path clip-path="url(#SVGID_2_)" fill="#BEBFBF" d="M490.59,46.886c-3.625,4.042-9.845,4.379-13.892,0.75
				s-4.39-9.848-0.765-13.891c3.625-4.044,9.846-4.38,13.893-0.751C493.874,36.622,494.215,42.843,490.59,46.886"/>
			<path clip-path="url(#SVGID_2_)" fill="#C0C1C1" d="M490.417,46.731c-3.54,3.946-9.613,4.275-13.564,0.732
				c-3.952-3.543-4.286-9.617-0.747-13.563c3.541-3.949,9.614-4.277,13.566-0.734C493.625,36.708,493.958,42.783,490.417,46.731"/>
			<path clip-path="url(#SVGID_2_)" fill="#C3C4C4" d="M490.246,46.577c-3.454,3.852-9.382,4.173-13.238,0.715
				c-3.857-3.458-4.183-9.386-0.729-13.238c3.456-3.853,9.385-4.174,13.24-0.716C493.375,36.796,493.7,42.724,490.246,46.577"/>
			<path clip-path="url(#SVGID_2_)" fill="#C5C6C6" d="M490.073,46.422c-3.368,3.757-9.149,4.07-12.911,0.697
				c-3.761-3.373-4.079-9.154-0.71-12.912s9.15-4.071,12.912-0.698C493.125,36.883,493.443,42.664,490.073,46.422"/>
			<path clip-path="url(#SVGID_2_)" fill="#C7C9C9" d="M489.902,46.268c-3.284,3.662-8.921,3.967-12.587,0.681
				c-3.665-3.288-3.974-8.923-0.691-12.585c3.284-3.663,8.921-3.969,12.587-0.682C492.875,36.969,493.186,42.605,489.902,46.268"/>
			<path clip-path="url(#SVGID_2_)" fill="#CACBCB" d="M489.728,46.113c-3.198,3.567-8.687,3.865-12.259,0.663
				c-3.57-3.203-3.871-8.691-0.672-12.258c3.197-3.568,8.687-3.865,12.258-0.664C492.626,37.057,492.927,42.545,489.728,46.113"/>
			<path clip-path="url(#SVGID_2_)" fill="#CCCECE" d="M489.556,45.958c-3.112,3.473-8.455,3.761-11.931,0.645
				c-3.478-3.118-3.77-8.458-0.656-11.931c3.113-3.473,8.455-3.762,11.932-0.646C492.377,37.143,492.67,42.485,489.556,45.958"/>
			<path clip-path="url(#SVGID_2_)" fill="#CED0D0" d="M489.383,45.804c-3.027,3.376-8.224,3.658-11.604,0.626
				c-3.381-3.031-3.667-8.228-0.638-11.604c3.027-3.377,8.225-3.658,11.604-0.627C492.126,37.229,492.413,42.427,489.383,45.804"/>
			<path clip-path="url(#SVGID_2_)" fill="#D1D3D3" d="M489.21,45.649c-2.94,3.282-7.991,3.556-11.277,0.61
				c-3.285-2.946-3.563-7.996-0.62-11.277c2.943-3.283,7.993-3.557,11.278-0.61C491.878,37.317,492.155,42.367,489.21,45.649"/>
			<path clip-path="url(#SVGID_2_)" fill="#D3D5D5" d="M489.039,45.495c-2.857,3.187-7.761,3.451-10.951,0.591
				c-3.19-2.861-3.459-7.764-0.603-10.951c2.859-3.188,7.762-3.453,10.952-0.592C491.627,37.404,491.898,42.307,489.039,45.495"/>
		</g>
	</g>
	<polygon fill="#605F5E" points="478.359,43.859 481.448,40.414 477.999,37.32 479.714,35.407 483.163,38.5 486.252,35.055 
		488.167,36.771 485.077,40.217 488.527,43.309 486.812,45.223 483.362,42.129 480.272,45.575 	"/>
	<path fill="#231815" d="M487.853,36.788l-2.792,3.114l-0.297,0.332l0.33,0.297l3.118,2.795l-1.418,1.582l-3.118-2.795l-0.33-0.296
		l-0.297,0.331l-2.794,3.115l-1.583-1.42l2.793-3.114l0.297-0.331l-0.331-0.298l-3.118-2.795l1.418-1.581l3.117,2.795l0.332,0.297
		l0.298-0.331l2.792-3.114L487.853,36.788z M488.481,36.754l-2.246-2.014l-3.089,3.445l-3.448-3.092l-2.013,2.244l3.448,3.092
		l-3.089,3.446l2.246,2.014l3.089-3.446l3.449,3.092l2.012-2.244l-3.448-3.092L488.481,36.754z"/>
</g>
<g>
	<path fill="#AFAFAF" d="M289.569,47.287c-3.847,4.289-10.446,4.646-14.74,0.797c-4.293-3.851-4.654-10.45-0.811-14.74
		c3.848-4.29,10.447-4.647,14.741-0.797C293.053,36.396,293.416,42.996,289.569,47.287"/>
	
		<ellipse transform="matrix(0.7446 0.6676 -0.6676 0.7446 98.897 -177.8172)" fill="none" stroke="#939393" stroke-miterlimit="10" cx="281.793" cy="40.315" rx="10.443" ry="10.433"/>
	<g>
		<g>
			<defs>
				
					<rect id="SVGID_3_" x="271.948" y="30.481" transform="matrix(-0.7446 -0.6676 0.6676 -0.7446 464.6927 258.4457)" width="19.691" height="19.667"/>
			</defs>
			<clipPath id="SVGID_4_">
				<use xlink:href="#SVGID_3_"  overflow="visible"/>
			</clipPath>
			<path clip-path="url(#SVGID_4_)" fill="#BEBFBF" d="M289.124,46.886c-3.627,4.042-9.847,4.379-13.894,0.75
				s-4.39-9.848-0.764-13.891c3.624-4.044,9.845-4.38,13.893-0.751C292.406,36.622,292.748,42.843,289.124,46.886"/>
			<path clip-path="url(#SVGID_4_)" fill="#C0C1C1" d="M288.95,46.731c-3.541,3.946-9.613,4.275-13.565,0.732
				c-3.951-3.543-4.285-9.617-0.746-13.563c3.541-3.949,9.615-4.277,13.566-0.734C292.157,36.708,292.489,42.783,288.95,46.731"/>
			<path clip-path="url(#SVGID_4_)" fill="#C3C4C4" d="M288.778,46.577c-3.455,3.852-9.383,4.173-13.239,0.715
				c-3.857-3.458-4.183-9.386-0.729-13.238c3.455-3.853,9.384-4.174,13.239-0.716C291.907,36.796,292.232,42.724,288.778,46.577"/>
			<path clip-path="url(#SVGID_4_)" fill="#C5C6C6" d="M288.604,46.422c-3.367,3.757-9.149,4.07-12.911,0.697
				c-3.761-3.373-4.079-9.154-0.71-12.912c3.37-3.758,9.15-4.071,12.912-0.698C291.657,36.883,291.974,42.664,288.604,46.422"/>
			<path clip-path="url(#SVGID_4_)" fill="#C7C9C9" d="M288.434,46.268c-3.284,3.662-8.921,3.967-12.587,0.681
				c-3.666-3.288-3.974-8.923-0.691-12.585c3.283-3.663,8.921-3.969,12.586-0.682C291.408,36.969,291.717,42.605,288.434,46.268"/>
			<path clip-path="url(#SVGID_4_)" fill="#CACBCB" d="M288.259,46.113c-3.198,3.567-8.687,3.865-12.257,0.663
				c-3.571-3.203-3.872-8.691-0.674-12.258c3.198-3.568,8.687-3.865,12.258-0.664C291.159,37.057,291.458,42.545,288.259,46.113"/>
			<path clip-path="url(#SVGID_4_)" fill="#CCCECE" d="M288.087,45.958c-3.112,3.473-8.455,3.761-11.931,0.645
				c-3.478-3.118-3.77-8.458-0.656-11.931c3.113-3.473,8.456-3.762,11.932-0.646C290.909,37.143,291.202,42.485,288.087,45.958"/>
			<path clip-path="url(#SVGID_4_)" fill="#CED0D0" d="M287.915,45.804c-3.028,3.376-8.223,3.658-11.604,0.626
				c-3.381-3.031-3.666-8.228-0.639-11.604c3.027-3.377,8.225-3.658,11.605-0.627S290.944,42.427,287.915,45.804"/>
			<path clip-path="url(#SVGID_4_)" fill="#D1D3D3" d="M287.743,45.649c-2.941,3.282-7.992,3.556-11.277,0.61
				s-3.563-7.996-0.621-11.277c2.943-3.283,7.994-3.557,11.28-0.61C290.41,37.317,290.687,42.367,287.743,45.649"/>
			<path clip-path="url(#SVGID_4_)" fill="#D3D5D5" d="M287.57,45.495c-2.856,3.187-7.761,3.451-10.95,0.591
				c-3.191-2.861-3.46-7.764-0.603-10.951c2.858-3.188,7.762-3.453,10.952-0.592C290.159,37.404,290.429,42.307,287.57,45.495"/>
		</g>
	</g>
	<polygon fill="#605F5E" points="276.89,43.859 279.979,40.414 276.531,37.32 278.246,35.407 281.696,38.5 284.784,35.055 
		286.699,36.771 283.609,40.217 287.058,43.309 285.343,45.223 281.894,42.129 278.803,45.575 	"/>
	<path fill="#231815" d="M286.384,36.788l-2.791,3.114l-0.298,0.332l0.331,0.297l3.118,2.795l-1.419,1.582l-3.118-2.795
		l-0.329-0.296l-0.298,0.331l-2.793,3.115l-1.583-1.42l2.792-3.114l0.297-0.331l-0.331-0.298l-3.118-2.795l1.417-1.581l3.119,2.795
		l0.333,0.297l0.297-0.331l2.791-3.114L286.384,36.788z M287.013,36.754l-2.246-2.014l-3.089,3.445l-3.449-3.092l-2.013,2.244
		l3.448,3.092l-3.089,3.446l2.247,2.014l3.089-3.446l3.448,3.092l2.012-2.244l-3.447-3.092L287.013,36.754z"/>
</g>
<text transform="matrix(1 0 0 1 367.4121 46.9834)" font-family="'Helvetica'" font-size="5.1659">SP</text>
<text transform="matrix(1 0 0 1 335.543 75.0996)" font-family="'Helvetica'" font-size="5.6911">LINE  1</text>
<text transform="matrix(1 0 0 1 273.373 62.2393)" font-family="'Helvetica'" font-size="5.6911">Modem</text>
<text transform="matrix(1 0 0 1 273.373 69.1641)" font-family="'Helvetica'" font-size="5.6911">WIC-2AM</text>
<text transform="matrix(1 0 0 1 456.7891 49.7158)" font-family="'Helvetica'" font-size="5.1659">SEE</text>
<text transform="matrix(1 0 0 1 456.7891 56.6416)" font-family="'Helvetica'" font-size="5.1659">MANUAL</text>
<text transform="matrix(1 0 0 1 456.7891 63.002)" font-family="'Helvetica'" font-size="5.1659">BWFORE</text>
<text transform="matrix(1 0 0 1 456.7891 69.7031)" font-family="'Helvetica'" font-size="5.1659">INSTALLATION</text>
<text transform="matrix(1 0 0 1 424.6377 75.0996)" font-family="'Helvetica'" font-size="5.6911">LINE  0</text>
<text transform="matrix(1 0 0 1 366.9395 55.0459)" font-family="'Helvetica'" font-size="5.1659">CN</text>
<text transform="matrix(1 0 0 1 366.9395 62.6934)" font-family="'Helvetica'" font-size="5.1659">ON</text>
<text transform="matrix(1 0 0 1 402.7451 46.9834)" font-family="'Helvetica'" font-size="5.1659">SP</text>
<text transform="matrix(1 0 0 1 402.2715 55.0459)" font-family="'Helvetica'" font-size="5.1659">CN</text>
<text transform="matrix(1 0 0 1 402.2715 62.6934)" font-family="'Helvetica'" font-size="5.1659">ON</text>
<path fill="#303030" d="M726.383,78.877c0,3.905-3.086,7.072-6.889,7.072H505.625c-3.803,0-6.888-3.167-6.888-7.072V31.832
	c0-3.906,3.085-7.072,6.888-7.072h213.869c3.803,0,6.889,3.166,6.889,7.072V78.877z"/>
<path fill="#EAEAEA" d="M725.01,77.65c0,3.734-3.047,6.761-6.805,6.761H506.915c-3.758,0-6.805-3.026-6.805-6.761V32.678
	c0-3.734,3.047-6.76,6.805-6.76h211.291c3.758,0,6.805,3.026,6.805,6.76V77.65z"/>
<path fill="#303030" d="M544.316,69.924c-0.415,0-0.751,0.309-0.751,0.69v1.945h-22.15v-1.888c0-0.381-0.338-0.689-0.753-0.689
	s-0.751,0.309-0.751,0.689v1.888v3.173v6.491c0,0,0.114,1.759,1.92,2.188h23.236v-8.737V72.56v-1.945
	C545.067,70.232,544.73,69.924,544.316,69.924z"/>
<path fill="#303030" d="M709.623,69.924c-0.416,0-0.75,0.309-0.75,0.69v1.945h-22.152v-1.888c0-0.381-0.336-0.689-0.75-0.689
	c-0.416,0-0.752,0.309-0.752,0.689v1.888v3.173v6.491c0,0,0.113,1.759,1.92,2.188h23.236v-8.737V72.56v-1.945
	C710.375,70.232,710.039,69.924,709.623,69.924z"/>
<g>
	<path fill="#AFAFAF" d="M519.117,45.625c-3.846,4.289-10.446,4.646-14.741,0.797c-4.292-3.851-4.654-10.45-0.81-14.739
		c3.847-4.29,10.446-4.647,14.741-0.797C522.6,34.735,522.963,41.335,519.117,45.625"/>
	
		<ellipse transform="matrix(0.7446 0.6676 -0.6676 0.7446 156.4194 -331.4738)" fill="none" stroke="#939393" stroke-miterlimit="10" cx="511.341" cy="38.654" rx="10.443" ry="10.434"/>
	<g>
		<g>
			<defs>
				
					<rect id="SVGID_5_" x="501.496" y="28.82" transform="matrix(-0.7446 -0.6676 0.6676 -0.7446 866.2609 408.7841)" width="19.691" height="19.667"/>
			</defs>
			<clipPath id="SVGID_6_">
				<use xlink:href="#SVGID_5_"  overflow="visible"/>
			</clipPath>
			<path clip-path="url(#SVGID_6_)" fill="#BEBFBF" d="M518.669,45.225c-3.624,4.042-9.844,4.379-13.892,0.75
				c-4.047-3.629-4.39-9.849-0.766-13.891c3.627-4.043,9.847-4.38,13.895-0.751C521.954,34.96,522.295,41.181,518.669,45.225"/>
			<path clip-path="url(#SVGID_6_)" fill="#C0C1C1" d="M518.497,45.07c-3.54,3.947-9.614,4.275-13.564,0.732
				c-3.951-3.543-4.285-9.617-0.746-13.564c3.541-3.948,9.613-4.277,13.566-0.733C521.704,35.047,522.037,41.121,518.497,45.07"/>
			<path clip-path="url(#SVGID_6_)" fill="#C3C4C4" d="M518.325,44.915c-3.454,3.853-9.382,4.174-13.238,0.716
				c-3.857-3.458-4.183-9.386-0.729-13.238c3.455-3.853,9.383-4.174,13.239-0.716C521.456,35.135,521.78,41.063,518.325,44.915"/>
			<path clip-path="url(#SVGID_6_)" fill="#C5C6C6" d="M518.152,44.761c-3.368,3.757-9.149,4.07-12.911,0.697
				c-3.762-3.373-4.08-9.154-0.711-12.911c3.371-3.758,9.151-4.071,12.913-0.698C521.204,35.222,521.522,41.003,518.152,44.761"/>
			<path clip-path="url(#SVGID_6_)" fill="#C7C9C9" d="M517.98,44.606c-3.282,3.662-8.92,3.967-12.585,0.68
				c-3.666-3.287-3.975-8.922-0.693-12.584c3.285-3.663,8.922-3.969,12.588-0.682S521.264,40.944,517.98,44.606"/>
			<path clip-path="url(#SVGID_6_)" fill="#CACBCB" d="M517.807,44.452c-3.198,3.567-8.687,3.864-12.258,0.663
				c-3.57-3.203-3.871-8.691-0.674-12.258c3.199-3.568,8.688-3.865,12.26-0.664C520.707,35.396,521.006,40.884,517.807,44.452"/>
			<path clip-path="url(#SVGID_6_)" fill="#CCCECE" d="M517.636,44.297c-3.113,3.472-8.456,3.76-11.933,0.644
				c-3.477-3.117-3.77-8.458-0.656-11.931c3.114-3.473,8.457-3.762,11.933-0.646C520.457,35.481,520.75,40.824,517.636,44.297"/>
			<path clip-path="url(#SVGID_6_)" fill="#CED0D0" d="M517.462,44.143c-3.026,3.376-8.224,3.658-11.604,0.627
				c-3.379-3.031-3.666-8.228-0.639-11.605c3.029-3.377,8.226-3.658,11.605-0.627C520.206,35.568,520.491,40.765,517.462,44.143"/>
			<path clip-path="url(#SVGID_6_)" fill="#D1D3D3" d="M517.291,43.988c-2.942,3.281-7.991,3.556-11.278,0.609
				c-3.284-2.946-3.563-7.996-0.621-11.277c2.944-3.283,7.994-3.556,11.28-0.61S520.235,40.705,517.291,43.988"/>
			<path clip-path="url(#SVGID_6_)" fill="#D3D5D5" d="M517.118,43.833c-2.856,3.187-7.76,3.451-10.95,0.591
				c-3.191-2.861-3.46-7.764-0.603-10.951c2.857-3.188,7.762-3.453,10.951-0.592C519.707,35.743,519.977,40.646,517.118,43.833"/>
		</g>
	</g>
	<polygon fill="#605F5E" points="506.438,42.198 509.527,38.752 506.079,35.659 507.793,33.746 511.242,36.839 514.333,33.393 
		516.247,35.109 513.157,38.555 516.606,41.647 514.891,43.561 511.44,40.468 508.352,43.914 	"/>
	<path fill="#231815" d="M515.932,35.126l-2.793,3.114l-0.296,0.332l0.332,0.297l3.117,2.795l-1.418,1.582l-3.118-2.796
		l-0.331-0.296l-0.298,0.331l-2.793,3.115l-1.581-1.419l2.791-3.115l0.297-0.331l-0.331-0.298l-3.117-2.795l1.417-1.581l3.117,2.795
		l0.332,0.297l0.298-0.331l2.793-3.114L515.932,35.126z M516.561,35.093l-2.246-2.014l-3.089,3.445l-3.449-3.092l-2.012,2.244
		l3.447,3.092l-3.089,3.446l2.246,2.014l3.09-3.446l3.448,3.092l2.012-2.245l-3.448-3.091L516.561,35.093z"/>
</g>
<g>
	<path fill="#AFAFAF" d="M718.15,45.625c-3.848,4.289-10.447,4.646-14.74,0.797c-4.295-3.851-4.656-10.45-0.811-14.739
		c3.848-4.29,10.447-4.647,14.74-0.797C721.633,34.735,721.996,41.335,718.15,45.625"/>
	
		<ellipse transform="matrix(0.7446 0.6676 -0.6676 0.7446 207.2601 -464.3394)" fill="none" stroke="#939393" stroke-miterlimit="10" cx="710.375" cy="38.654" rx="10.443" ry="10.433"/>
	<g>
		<g>
			<defs>
				
					<rect id="SVGID_7_" x="700.53" y="28.82" transform="matrix(-0.7445 -0.6676 0.6676 -0.7445 1213.4686 541.6675)" width="19.69" height="19.667"/>
			</defs>
			<clipPath id="SVGID_8_">
				<use xlink:href="#SVGID_7_"  overflow="visible"/>
			</clipPath>
			<path clip-path="url(#SVGID_8_)" fill="#BEBFBF" d="M717.703,45.225c-3.625,4.042-9.846,4.379-13.893,0.75
				s-4.389-9.849-0.764-13.891c3.625-4.043,9.846-4.38,13.893-0.751C720.986,34.96,721.328,41.181,717.703,45.225"/>
			<path clip-path="url(#SVGID_8_)" fill="#C0C1C1" d="M717.529,45.07c-3.539,3.947-9.613,4.275-13.564,0.732
				c-3.951-3.543-4.285-9.617-0.746-13.564c3.541-3.948,9.615-4.277,13.566-0.733C720.736,35.047,721.07,41.121,717.529,45.07"/>
			<path clip-path="url(#SVGID_8_)" fill="#C3C4C4" d="M717.357,44.915c-3.453,3.853-9.381,4.174-13.238,0.716
				c-3.857-3.458-4.182-9.386-0.729-13.238c3.455-3.853,9.385-4.174,13.24-0.716C720.488,35.135,720.813,41.063,717.357,44.915"/>
			<path clip-path="url(#SVGID_8_)" fill="#C5C6C6" d="M717.186,44.761c-3.369,3.757-9.15,4.07-12.912,0.697
				c-3.76-3.373-4.078-9.154-0.709-12.911c3.369-3.758,9.15-4.071,12.912-0.698C720.238,35.222,720.555,41.003,717.186,44.761"/>
			<path clip-path="url(#SVGID_8_)" fill="#C7C9C9" d="M717.014,44.606c-3.283,3.662-8.92,3.967-12.586,0.68
				s-3.975-8.922-0.691-12.584c3.283-3.663,8.92-3.969,12.586-0.682S720.299,40.944,717.014,44.606"/>
			<path clip-path="url(#SVGID_8_)" fill="#CACBCB" d="M716.84,44.452c-3.197,3.567-8.686,3.864-12.256,0.663
				c-3.572-3.203-3.873-8.691-0.674-12.258c3.197-3.568,8.686-3.865,12.258-0.664C719.74,35.396,720.039,40.884,716.84,44.452"/>
			<path clip-path="url(#SVGID_8_)" fill="#CCCECE" d="M716.668,44.297c-3.111,3.472-8.455,3.76-11.93,0.644
				c-3.479-3.117-3.77-8.458-0.656-11.931c3.113-3.473,8.455-3.762,11.932-0.646C719.49,35.481,719.783,40.824,716.668,44.297"/>
			<path clip-path="url(#SVGID_8_)" fill="#CED0D0" d="M716.496,44.143c-3.027,3.376-8.225,3.658-11.605,0.627
				c-3.381-3.031-3.664-8.228-0.637-11.605c3.027-3.377,8.225-3.658,11.604-0.627C719.238,35.568,719.525,40.765,716.496,44.143"/>
			<path clip-path="url(#SVGID_8_)" fill="#D1D3D3" d="M716.324,43.988c-2.941,3.281-7.992,3.556-11.279,0.609
				c-3.283-2.946-3.563-7.996-0.619-11.277c2.943-3.283,7.994-3.556,11.279-0.61S719.268,40.705,716.324,43.988"/>
			<path clip-path="url(#SVGID_8_)" fill="#D3D5D5" d="M716.15,43.833c-2.857,3.187-7.76,3.451-10.951,0.591
				c-3.189-2.861-3.459-7.764-0.602-10.951c2.859-3.188,7.762-3.453,10.953-0.592C718.74,35.743,719.01,40.646,716.15,43.833"/>
		</g>
	</g>
	<polygon fill="#605F5E" points="705.471,42.198 708.561,38.752 705.111,35.659 706.826,33.746 710.275,36.839 713.365,33.393 
		715.279,35.109 712.189,38.555 715.639,41.647 713.924,43.561 710.475,40.468 707.385,43.914 	"/>
	<path fill="#231815" d="M714.965,35.126l-2.791,3.114l-0.297,0.332l0.33,0.297l3.119,2.795l-1.42,1.582l-3.117-2.796l-0.33-0.296
		l-0.297,0.331l-2.793,3.115l-1.584-1.419l2.793-3.115l0.297-0.331l-0.332-0.298l-3.117-2.795l1.418-1.581l3.117,2.795l0.332,0.297
		l0.297-0.331l2.793-3.114L714.965,35.126z M715.594,35.093l-2.246-2.014l-3.09,3.445l-3.447-3.092l-2.014,2.244l3.449,3.092
		l-3.09,3.446l2.246,2.014l3.09-3.446l3.449,3.092l2.012-2.245l-3.449-3.091L715.594,35.093z"/>
</g>
<path fill="#303030" d="M565.968,63.908c0,2.114-1.714,3.828-3.829,3.828h-13.245c-2.114,0-3.827-1.714-3.827-3.828l0,0
	c0-2.114,1.713-3.829,3.827-3.829h13.245C564.254,60.079,565.968,61.793,565.968,63.908L565.968,63.908z"/>
<path fill="#303030" d="M679.41,63.908c0,2.114-1.715,3.828-3.83,3.828h-13.244c-2.115,0-3.828-1.714-3.828-3.828l0,0
	c0-2.114,1.713-3.829,3.828-3.829h13.244C677.695,60.079,679.41,61.793,679.41,63.908L679.41,63.908z"/>
<path fill="#303030" d="M698.898,34.224c0,2.114-1.598,3.828-3.57,3.828h-12.35c-1.973,0-3.568-1.714-3.568-3.828l0,0
	c0-2.114,1.596-3.829,3.568-3.829h12.35C697.301,30.396,698.898,32.11,698.898,34.224L698.898,34.224z"/>
<path fill="#303030" d="M698.898,44.268c0,2.114-1.598,3.828-3.57,3.828h-12.35c-1.973,0-3.568-1.714-3.568-3.828l0,0
	c0-2.114,1.596-3.828,3.568-3.828h12.35C697.301,40.439,698.898,42.153,698.898,44.268L698.898,44.268z"/>
<path fill="#303030" d="M698.898,54.311c0,2.114-1.598,3.828-3.57,3.828h-12.35c-1.973,0-3.568-1.714-3.568-3.828l0,0
	c0-2.114,1.596-3.828,3.568-3.828h12.35C697.301,50.483,698.898,52.197,698.898,54.311L698.898,54.311z"/>
<path fill="#303030" d="M543.492,34.224c0,2.114-1.599,3.828-3.569,3.828h-12.352c-1.971,0-3.568-1.714-3.568-3.828l0,0
	c0-2.114,1.598-3.829,3.568-3.829h12.352C541.893,30.396,543.492,32.11,543.492,34.224L543.492,34.224z"/>
<path fill="#303030" d="M543.492,44.268c0,2.114-1.599,3.828-3.569,3.828h-12.352c-1.971,0-3.568-1.714-3.568-3.828l0,0
	c0-2.114,1.598-3.828,3.568-3.828h12.352C541.893,40.439,543.492,42.153,543.492,44.268L543.492,44.268z"/>
<path fill="#303030" d="M543.492,54.311c0,2.114-1.599,3.828-3.569,3.828h-12.352c-1.971,0-3.568-1.714-3.568-3.828l0,0
	c0-2.114,1.598-3.828,3.568-3.828h12.352C541.893,50.483,543.492,52.197,543.492,54.311L543.492,54.311z"/>
<path fill="#467FA1" d="M676.037,33.021c0,1.45-0.818,2.625-1.83,2.625h-18.004c-1.008,0-1.826-1.175-1.826-2.625l0,0
	c0-1.45,0.818-2.625,1.826-2.625h18.004C675.219,30.396,676.037,31.571,676.037,33.021L676.037,33.021z"/>
<path fill="#467FA1" d="M676.037,51.717c0,1.45-0.818,2.625-1.83,2.625h-18.004c-1.008,0-1.826-1.175-1.826-2.625l0,0
	c0-1.451,0.818-2.626,1.826-2.626h18.004C675.219,49.091,676.037,50.266,676.037,51.717L676.037,51.717z"/>
<polyline fill="none" stroke="#3A3A3A" stroke-miterlimit="10" points="576.594,37.363 571.285,37.363 571.285,62.856 
	566.549,62.856 "/>
<polyline fill="none" stroke="#3A3A3A" stroke-miterlimit="10" points="650.207,59.875 654.559,59.875 654.559,63.935 
	658.328,63.935 "/>
<text transform="matrix(1 0 0 1 656.7363 34.6519)" fill="#D7EAF4" stroke="#D7EAF4" stroke-width="0.25" stroke-miterlimit="10" font-family="'Helvetica'" font-size="4.3307">SERIAL1</text>
<text transform="matrix(1 0 0 1 656.7363 53.3418)" fill="#D7EAF4" stroke="#D7EAF4" stroke-width="0.25" stroke-miterlimit="10" font-family="'Helvetica'" font-size="4.3307">SERIAL0</text>
<text transform="matrix(1 0 0 1 705.1113 56.2183)" font-family="'Helvetica'" font-size="5.1659">WIC</text>
<text transform="matrix(1 0 0 1 704.0342 62.0854)" font-family="'Helvetica'" font-size="5.1659">2A/S</text>
<text transform="matrix(1 0 0 1 547.4268 73.5654)" font-family="'Helvetica'" font-size="5.1659">CONN</text>
<text transform="matrix(1 0 0 1 661.292 73.5654)" font-family="'Helvetica'" font-size="5.1659">CONN</text>
<text transform="matrix(1 0 0 1 1023.8994 94.9385)" font-family="'Helvetica'" font-size="5.1659">SLOTO   THIS SLOT ACCEPTS ONLY VICs </text>
<text transform="matrix(1 0 0 1 548.7607 97.6895)" font-family="'Helvetica'" font-size="5.1659">SLOT 2  THIS SLOT ACCEPTS ONLY VICs  AND WICs</text>
<text transform="matrix(1 0 0 1 33.6992 109.8691)"><tspan x="0" y="0" font-family="'Helvetica'" font-size="5.1659">SYS</tspan><tspan x="0" y="6.199" font-family="'Helvetica'" font-size="5.1659">PWR</tspan></text>
<text transform="matrix(1 0 0 1 53.4492 109.8691)"><tspan x="0" y="0" font-family="'Helvetica'" font-size="5.1659">SYS</tspan><tspan x="0" y="6.199" font-family="'Helvetica'" font-size="5.1659">AC1</tspan></text>
<text transform="matrix(1 0 0 1 119 42.8311)" font-family="'Helvetica'" font-size="5.1659">FDX</text>
<text transform="matrix(1 0 0 1 172.1719 24.8774)" font-family="'Helvetica'" font-size="5.1659">FE0/1</text>
<text transform="matrix(1 0 0 1 211.293 24.8774)" font-family="'Helvetica'" font-size="5.1659">CONSOLE</text>
<text transform="matrix(1 0 0 1 172.1719 120.2109)" font-family="'Helvetica'" font-size="5.1659">FE0/0</text>
<text transform="matrix(1 0 0 1 217.46 120.2109)" fill="#D6D6D6" font-family="'Helvetica'" font-size="5.1659">AOX</text>
<text transform="matrix(1 0 0 1 119 56.6646)" font-family="'Helvetica'" font-size="5.1659">100</text>
<text transform="matrix(1 0 0 1 119 67.3203)" font-family="'Helvetica'" font-size="5.1659">LINK</text>
<text transform="matrix(1 0 0 1 99.291 67.0078)" font-family="'Helvetica'" font-size="5.1659">pvom1</text>
<text transform="matrix(1 0 0 1 119 81.3203)" font-family="'Helvetica'" font-size="5.1659">FDX</text>
<text transform="matrix(1 0 0 1 119 91.1719)" font-family="'Helvetica'" font-size="5.1659">100</text>
<text transform="matrix(1 0 0 1 119 107.3389)" font-family="'Helvetica'" font-size="5.1659">LINK</text>
<text transform="matrix(1 0 0 1 828.1592 97.6895)" font-family="'Helvetica'" font-size="5.1659">SLOT 1</text>
<g>
	<path fill="#EAEAEA" d="M956.803,77.452c0,3.733-3.047,6.761-6.803,6.761H738.707c-3.758,0-6.805-3.027-6.805-6.761V32.48
		c0-3.734,3.047-6.761,6.805-6.761H950c3.756,0,6.803,3.027,6.803,6.761V77.452z"/>
	<path fill="#111111" d="M950,85.074H738.707c-4.227,0-7.666-3.42-7.666-7.622V32.48c0-4.203,3.439-7.621,7.666-7.621H950
		c4.227,0,7.666,3.418,7.666,7.621v44.972C957.666,81.654,954.227,85.074,950,85.074z M738.707,26.581
		c-3.277,0-5.943,2.646-5.943,5.899v44.972c0,3.253,2.666,5.899,5.943,5.899H950c3.277,0,5.943-2.646,5.943-5.899V32.48
		c0-3.253-2.666-5.899-5.943-5.899H738.707z"/>
</g>
<g>
	<path fill="#AFAFAF" d="M749.75,44.209c-3.846,4.289-10.447,4.646-14.74,0.796s-4.656-10.45-0.811-14.739
		c3.848-4.29,10.447-4.647,14.74-0.797C753.232,33.319,753.597,39.918,749.75,44.209"/>
	
		<ellipse transform="matrix(0.7445 0.6676 -0.6676 0.7445 214.4048 -485.8138)" fill="none" stroke="#939393" stroke-miterlimit="10" cx="741.975" cy="37.238" rx="10.443" ry="10.433"/>
	<g>
		<g>
			<defs>
				
					<rect id="SVGID_9_" x="732.129" y="27.404" transform="matrix(-0.7445 -0.6676 0.6676 -0.7445 1269.531 560.302)" width="19.691" height="19.667"/>
			</defs>
			<clipPath id="SVGID_10_">
				<use xlink:href="#SVGID_9_"  overflow="visible"/>
			</clipPath>
			<path clip-path="url(#SVGID_10_)" fill="#BEBFBF" d="M749.303,43.808c-3.625,4.042-9.844,4.379-13.893,0.75
				c-4.047-3.629-4.389-9.849-0.764-13.891c3.625-4.044,9.846-4.38,13.895-0.751C752.588,33.544,752.93,39.765,749.303,43.808"/>
			<path clip-path="url(#SVGID_10_)" fill="#C0C1C1" d="M749.129,43.653c-3.539,3.947-9.613,4.275-13.564,0.732
				s-4.285-9.617-0.746-13.564c3.541-3.948,9.615-4.277,13.566-0.733C752.336,33.631,752.67,39.705,749.129,43.653"/>
			<path clip-path="url(#SVGID_10_)" fill="#C3C4C4" d="M748.957,43.499c-3.453,3.853-9.381,4.174-13.238,0.716
				c-3.857-3.458-4.182-9.386-0.729-13.238c3.455-3.853,9.385-4.174,13.24-0.716C752.088,33.719,752.412,39.646,748.957,43.499"/>
			<path clip-path="url(#SVGID_10_)" fill="#C5C6C6" d="M748.785,43.345c-3.369,3.757-9.15,4.07-12.912,0.697
				c-3.762-3.373-4.078-9.154-0.709-12.912c3.369-3.758,9.15-4.07,12.912-0.698S752.154,39.586,748.785,43.345"/>
			<path clip-path="url(#SVGID_10_)" fill="#C7C9C9" d="M748.613,43.19c-3.283,3.661-8.92,3.967-12.586,0.68
				c-3.666-3.288-3.975-8.923-0.691-12.585c3.283-3.663,8.92-3.969,12.586-0.682S751.896,39.527,748.613,43.19"/>
			<path clip-path="url(#SVGID_10_)" fill="#CACBCB" d="M748.439,43.036c-3.197,3.566-8.686,3.864-12.256,0.662
				c-3.572-3.202-3.873-8.691-0.674-12.258c3.197-3.568,8.686-3.865,12.258-0.663S751.641,39.467,748.439,43.036"/>
			<path clip-path="url(#SVGID_10_)" fill="#CCCECE" d="M748.27,42.881c-3.113,3.472-8.457,3.761-11.934,0.645
				c-3.475-3.118-3.768-8.458-0.654-11.931c3.113-3.473,8.457-3.763,11.932-0.646C751.09,34.065,751.383,39.408,748.27,42.881"/>
			<path clip-path="url(#SVGID_10_)" fill="#CED0D0" d="M748.096,42.726c-3.027,3.376-8.225,3.659-11.605,0.627
				c-3.379-3.031-3.664-8.229-0.637-11.605c3.027-3.377,8.225-3.658,11.605-0.627S751.125,39.349,748.096,42.726"/>
			<path clip-path="url(#SVGID_10_)" fill="#D1D3D3" d="M747.924,42.571c-2.941,3.282-7.992,3.556-11.279,0.61
				c-3.283-2.946-3.561-7.996-0.619-11.278c2.943-3.283,7.994-3.556,11.279-0.61C750.59,34.24,750.867,39.289,747.924,42.571"/>
			<path clip-path="url(#SVGID_10_)" fill="#D3D5D5" d="M747.75,42.417c-2.855,3.187-7.76,3.451-10.949,0.591
				c-3.191-2.861-3.459-7.764-0.604-10.951c2.859-3.188,7.762-3.453,10.951-0.592C750.34,34.327,750.609,39.229,747.75,42.417"/>
		</g>
	</g>
	<polygon fill="#605F5E" points="737.072,40.781 740.16,37.336 736.711,34.242 738.428,32.33 741.875,35.422 744.965,31.977 
		746.879,33.693 743.791,37.139 747.238,40.231 745.523,42.145 742.074,39.052 738.984,42.497 	"/>
	<path fill="#231815" d="M746.566,33.711l-2.793,3.113l-0.297,0.332l0.332,0.297l3.117,2.795l-1.418,1.582l-3.119-2.796l-0.33-0.297
		l-0.297,0.331l-2.793,3.115l-1.582-1.419l2.791-3.115l0.297-0.332l-0.33-0.297l-3.119-2.795l1.418-1.581l3.117,2.795l0.332,0.297
		l0.297-0.331l2.793-3.114L746.566,33.711z M747.193,33.676l-2.246-2.014l-3.088,3.445l-3.449-3.092l-2.012,2.244l3.447,3.092
		l-3.088,3.445l2.246,2.014l3.088-3.446l3.449,3.092l2.012-2.245l-3.449-3.091L747.193,33.676z"/>
</g>
<g>
	<path fill="#AFAFAF" d="M954.303,44.62c-3.846,4.289-10.447,4.646-14.742,0.796c-4.291-3.85-4.654-10.45-0.809-14.739
		c3.846-4.291,10.445-4.647,14.74-0.797C957.785,33.729,958.148,40.329,954.303,44.62"/>
	<path fill="none" stroke="#939393" stroke-miterlimit="10" d="M954.303,44.62c-3.846,4.289-10.447,4.646-14.742,0.796
		c-4.291-3.85-4.654-10.45-0.809-14.739c3.846-4.291,10.445-4.647,14.74-0.797C957.785,33.729,958.148,40.329,954.303,44.62z"/>
	<g>
		<g>
			<defs>
				
					<rect id="SVGID_11_" x="936.68" y="27.814" transform="matrix(-0.7446 -0.6675 0.6675 -0.7446 1626.1577 697.519)" width="19.692" height="19.667"/>
			</defs>
			<clipPath id="SVGID_12_">
				<use xlink:href="#SVGID_11_"  overflow="visible"/>
			</clipPath>
			<path clip-path="url(#SVGID_12_)" fill="#BEBFBF" d="M953.855,44.218c-3.625,4.043-9.844,4.379-13.893,0.75
				c-4.047-3.628-4.389-9.848-0.766-13.891c3.627-4.043,9.848-4.379,13.895-0.751C957.139,33.955,957.48,40.175,953.855,44.218"/>
			<path clip-path="url(#SVGID_12_)" fill="#C0C1C1" d="M953.682,44.063c-3.539,3.947-9.613,4.276-13.564,0.733
				c-3.951-3.543-4.285-9.617-0.746-13.564c3.541-3.948,9.613-4.277,13.566-0.733C956.889,34.041,957.222,40.115,953.682,44.063"/>
			<path clip-path="url(#SVGID_12_)" fill="#C3C4C4" d="M953.51,43.909c-3.454,3.853-9.383,4.174-13.238,0.716
				c-3.857-3.458-4.182-9.386-0.729-13.238c3.455-3.854,9.383-4.174,13.24-0.716C956.641,34.129,956.965,40.057,953.51,43.909"/>
			<path clip-path="url(#SVGID_12_)" fill="#C5C6C6" d="M953.338,43.754c-3.369,3.757-9.15,4.07-12.912,0.698
				c-3.762-3.373-4.08-9.154-0.711-12.911c3.371-3.758,9.15-4.071,12.914-0.698C956.389,34.216,956.707,39.997,953.338,43.754"/>
			<path clip-path="url(#SVGID_12_)" fill="#C7C9C9" d="M953.166,43.601c-3.283,3.662-8.92,3.967-12.586,0.68
				c-3.666-3.288-3.975-8.923-0.693-12.584c3.285-3.664,8.922-3.969,12.588-0.682C956.141,34.301,956.449,39.938,953.166,43.601"/>
			<path clip-path="url(#SVGID_12_)" fill="#CACBCB" d="M952.992,43.446c-3.197,3.566-8.687,3.864-12.258,0.662
				c-3.57-3.202-3.873-8.691-0.674-12.257c3.199-3.568,8.688-3.865,12.26-0.664C955.893,34.39,956.191,39.877,952.992,43.446"/>
			<path clip-path="url(#SVGID_12_)" fill="#CCCECE" d="M952.822,43.291c-3.115,3.472-8.457,3.761-11.934,0.645
				c-3.477-3.117-3.77-8.459-0.656-11.931c3.114-3.473,8.457-3.762,11.934-0.646C955.641,34.476,955.934,39.818,952.822,43.291"/>
			<path clip-path="url(#SVGID_12_)" fill="#CED0D0" d="M952.648,43.137c-3.027,3.376-8.225,3.658-11.605,0.627
				c-3.379-3.031-3.666-8.228-0.639-11.605c3.029-3.377,8.227-3.658,11.605-0.627C955.391,34.563,955.676,39.759,952.648,43.137"/>
			<path clip-path="url(#SVGID_12_)" fill="#D1D3D3" d="M952.477,42.981c-2.943,3.282-7.992,3.556-11.279,0.609
				c-3.283-2.945-3.563-7.995-0.621-11.277c2.945-3.283,7.994-3.556,11.281-0.61C955.143,34.65,955.418,39.699,952.477,42.981"/>
			<path clip-path="url(#SVGID_12_)" fill="#D3D5D5" d="M952.303,42.828c-2.855,3.186-7.76,3.451-10.949,0.59
				c-3.191-2.861-3.461-7.764-0.604-10.95c2.857-3.188,7.762-3.453,10.951-0.592C954.893,34.737,955.162,39.64,952.303,42.828"/>
		</g>
	</g>
	<polygon fill="#605F5E" points="941.623,41.191 944.713,37.746 941.264,34.653 942.979,32.74 946.428,35.833 949.518,32.387 
		951.432,34.104 948.342,37.549 951.791,40.642 950.076,42.555 946.625,39.462 943.537,42.907 	"/>
	<path fill="#231815" d="M951.117,34.121l-2.793,3.113l-0.295,0.332l0.33,0.297l3.119,2.795l-1.418,1.582l-3.119-2.796l-0.33-0.297
		l-0.299,0.332l-2.793,3.115l-1.58-1.42l2.791-3.115l0.297-0.332l-0.332-0.297l-3.117-2.795l1.418-1.582l3.117,2.795l0.332,0.297
		l0.297-0.331l2.793-3.114L951.117,34.121z M951.746,34.087l-2.246-2.014l-3.09,3.445l-3.447-3.092l-2.012,2.244l3.447,3.092
		l-3.09,3.446l2.246,2.014l3.09-3.446l3.449,3.092l2.012-2.244l-3.449-3.091L951.746,34.087z"/>
</g>
<text transform="matrix(1 0 0 1 736.7119 59.2793)" font-family="'Helvetica'" font-size="5.1659">HWIC</text>
<text transform="matrix(1 0 0 1 736.7119 66.0078)" font-family="'Helvetica'" font-size="5.1659">4EAW</text>
<text transform="matrix(1 0 0 1 770.4492 73.3223)" font-family="'Helvetica'" font-size="5.1659">PWR</text>
<path fill="#636363" stroke="#000000" stroke-miterlimit="10" d="M925.143,61.821c0,1.324-1.158,2.396-2.584,2.396H765.861
	c-1.426,0-2.584-1.073-2.584-2.396V34.013c0-1.324,1.158-2.396,2.584-2.396h156.697c1.426,0,2.584,1.073,2.584,2.396V61.821z"/>
<path fill="#DDDDB8" stroke="#000000" stroke-width="0.5" stroke-miterlimit="10" d="M793.691,71.889
	c0,1.426-1.158,2.582-2.584,2.582h-4.104c-1.426,0-2.582-1.156-2.582-2.582V70.74c0-1.426,1.156-2.583,2.582-2.583h4.104
	c1.426,0,2.584,1.157,2.584,2.583V71.889z"/>
<text transform="matrix(1 0 0 1 786.3984 73.3223)" font-family="'Helvetica'" font-size="5.1659">3x</text>
<text transform="matrix(1 0 0 1 795.6025 73.3223)" font-family="'Helvetica'" font-size="5.1659">LNK</text>
<text transform="matrix(1 0 0 1 808.1133 73.3223)" font-family="'Helvetica'" font-size="5.1659">PWR</text>
<path fill="#DDDDB8" stroke="#000000" stroke-width="0.5" stroke-miterlimit="10" d="M831.354,71.889
	c0,1.426-1.156,2.582-2.582,2.582h-4.104c-1.426,0-2.582-1.156-2.582-2.582V70.74c0-1.426,1.156-2.583,2.582-2.583h4.104
	c1.426,0,2.582,1.157,2.582,2.583V71.889z"/>
<text transform="matrix(1 0 0 1 824.0615 73.3223)" font-family="'Helvetica'" font-size="5.1659">2x</text>
<text transform="matrix(1 0 0 1 833.2666 73.3223)" font-family="'Helvetica'" font-size="5.1659">LNK</text>
<text transform="matrix(1 0 0 1 844.3525 73.3223)" font-family="'Helvetica'" font-size="5.1659">PWR</text>
<path fill="#DDDDB8" stroke="#000000" stroke-width="0.5" stroke-miterlimit="10" d="M867.594,71.889
	c0,1.426-1.156,2.582-2.582,2.582h-4.104c-1.426,0-2.584-1.156-2.584-2.582V70.74c0-1.426,1.158-2.583,2.584-2.583h4.104
	c1.426,0,2.582,1.157,2.582,2.583V71.889z"/>
<text transform="matrix(1 0 0 1 860.3008 73.3223)" font-family="'Helvetica'" font-size="5.1659">1x</text>
<text transform="matrix(1 0 0 1 869.5049 73.3223)" font-family="'Helvetica'" font-size="5.1659">LNK</text>
<text transform="matrix(1 0 0 1 881.8096 73.3223)" font-family="'Helvetica'" font-size="5.1659">PWR</text>
<path fill="#DDDDB8" stroke="#000000" stroke-width="0.5" stroke-miterlimit="10" d="M905.051,71.889
	c0,1.426-1.158,2.582-2.584,2.582h-4.102c-1.428,0-2.584-1.156-2.584-2.582V70.74c0-1.426,1.156-2.583,2.584-2.583h4.102
	c1.426,0,2.584,1.157,2.584,2.583V71.889z"/>
<text transform="matrix(1 0 0 1 897.7578 73.3223)" font-family="'Helvetica'" font-size="5.1659">0x</text>
<text transform="matrix(1 0 0 1 906.9629 73.3223)" font-family="'Helvetica'" font-size="5.1659">LNK</text>
<g>
	<g>
		<g>
			<path fill="#EAEAEA" d="M1188.502,76.919c0,3.733-3.047,6.761-6.803,6.761H970.406c-3.758,0-6.805-3.027-6.805-6.761V31.947
				c0-3.734,3.047-6.761,6.805-6.761h211.293c3.756,0,6.803,3.027,6.803,6.761V76.919z"/>
			<path fill="#111111" d="M1181.699,84.541H970.406c-4.227,0-7.666-3.42-7.666-7.622V31.947c0-4.203,3.439-7.621,7.666-7.621
				h211.293c4.227,0,7.666,3.418,7.666,7.621v44.972C1189.365,81.121,1185.926,84.541,1181.699,84.541z M970.406,26.047
				c-3.277,0-5.943,2.646-5.943,5.899v44.972c0,3.253,2.666,5.899,5.943,5.899h211.293c3.277,0,5.943-2.646,5.943-5.899V31.947
				c0-3.253-2.666-5.899-5.943-5.899H970.406z"/>
		</g>
		<path fill="#303030" d="M1168.727,69.28c-0.416,0-0.752,0.309-0.752,0.69v1.945h-22.15v-1.889c0-0.381-0.336-0.689-0.752-0.689
			s-0.75,0.309-0.75,0.689v1.889v3.172v6.492c0,0,0.113,1.758,1.92,2.188h23.234V75.03v-3.114v-1.945
			C1169.477,69.589,1169.141,69.28,1168.727,69.28z"/>
		<path fill="#303030" d="M1006.727,69.28c-0.416,0-0.752,0.309-0.752,0.69v1.945h-22.15v-1.889c0-0.381-0.336-0.689-0.752-0.689
			s-0.75,0.309-0.75,0.689v1.889v3.172v6.492c0,0,0.113,1.758,1.92,2.188h23.234V75.03v-3.114v-1.945
			C1007.477,69.589,1007.141,69.28,1006.727,69.28z"/>
		<path fill="#303030" d="M1036.662,71.403c0,1.736-1.326,3.146-2.965,3.146h-10.262c-1.637,0-2.966-1.409-2.966-3.146l0,0
			c0-1.737,1.329-3.146,2.966-3.146h10.262C1035.336,68.258,1036.662,69.666,1036.662,71.403L1036.662,71.403z"/>
		<path fill="#303030" d="M1055.738,71.403c0,1.736-1.326,3.146-2.965,3.146h-10.262c-1.637,0-2.965-1.409-2.965-3.146l0,0
			c0-1.737,1.328-3.146,2.965-3.146h10.262C1054.412,68.258,1055.738,69.666,1055.738,71.403L1055.738,71.403z"/>
		<path fill="#303030" d="M1000.918,35.758c0,1.736-1.326,3.145-2.965,3.145h-10.262c-1.638,0-2.965-1.409-2.965-3.145l0,0
			c0-1.737,1.327-3.145,2.965-3.145h10.262C999.592,32.613,1000.918,34.021,1000.918,35.758L1000.918,35.758z"/>
		<path fill="#303030" d="M1000.918,47.258c0,1.736-1.326,3.145-2.965,3.145h-10.262c-1.638,0-2.965-1.409-2.965-3.145l0,0
			c0-1.737,1.327-3.145,2.965-3.145h10.262C999.592,44.113,1000.918,45.521,1000.918,47.258L1000.918,47.258z"/>
		<path fill="#303030" d="M1000.918,58.758c0,1.736-1.326,3.145-2.965,3.145h-10.262c-1.638,0-2.965-1.409-2.965-3.145l0,0
			c0-1.737,1.327-3.145,2.965-3.145h10.262C999.592,55.613,1000.918,57.021,1000.918,58.758L1000.918,58.758z"/>
		<path fill="#303030" d="M1164.994,35.758c0,1.736-1.326,3.145-2.965,3.145h-10.262c-1.637,0-2.964-1.409-2.964-3.145l0,0
			c0-1.737,1.327-3.145,2.964-3.145h10.262C1163.668,32.613,1164.994,34.021,1164.994,35.758L1164.994,35.758z"/>
		<path fill="#303030" d="M1164.994,47.258c0,1.736-1.326,3.145-2.965,3.145h-10.262c-1.637,0-2.964-1.409-2.964-3.145l0,0
			c0-1.737,1.327-3.145,2.964-3.145h10.262C1163.668,44.113,1164.994,45.521,1164.994,47.258L1164.994,47.258z"/>
		<path fill="#303030" d="M1164.994,58.758c0,1.736-1.326,3.145-2.965,3.145h-10.262c-1.637,0-2.964-1.409-2.964-3.145l0,0
			c0-1.737,1.327-3.145,2.964-3.145h10.262C1163.668,55.613,1164.994,57.021,1164.994,58.758L1164.994,58.758z"/>
		<path fill="#303030" d="M1074.814,71.403c0,1.736-1.326,3.146-2.965,3.146h-10.26c-1.639,0-2.965-1.409-2.965-3.146l0,0
			c0-1.737,1.326-3.146,2.965-3.146h10.26C1073.488,68.258,1074.814,69.666,1074.814,71.403L1074.814,71.403z"/>
		<path fill="#303030" d="M1093.893,71.403c0,1.736-1.326,3.146-2.965,3.146h-10.262c-1.639,0-2.965-1.409-2.965-3.146l0,0
			c0-1.737,1.326-3.146,2.965-3.146h10.262C1092.566,68.258,1093.893,69.666,1093.893,71.403L1093.893,71.403z"/>
		<path fill="#303030" d="M1112.969,71.403c0,1.736-1.326,3.146-2.965,3.146h-10.262c-1.637,0-2.965-1.409-2.965-3.146l0,0
			c0-1.737,1.328-3.146,2.965-3.146h10.262C1111.643,68.258,1112.969,69.666,1112.969,71.403L1112.969,71.403z"/>
		<path fill="#303030" d="M1132.045,71.403c0,1.736-1.326,3.146-2.965,3.146h-10.262c-1.637,0-2.963-1.409-2.963-3.146l0,0
			c0-1.737,1.326-3.146,2.963-3.146h10.262C1130.719,68.258,1132.045,69.666,1132.045,71.403L1132.045,71.403z"/>
	</g>
	<g>
		<path fill="#AFAFAF" d="M980.986,45.875c-3.847,4.289-10.447,4.646-14.742,0.797c-4.291-3.851-4.654-10.45-0.809-14.739
			c3.846-4.29,10.445-4.647,14.74-0.797C984.469,34.985,984.832,41.585,980.986,45.875"/>
		<path fill="none" stroke="#939393" stroke-miterlimit="10" d="M980.986,45.875c-3.847,4.289-10.447,4.646-14.742,0.797
			c-4.291-3.851-4.654-10.45-0.809-14.739c3.846-4.29,10.445-4.647,14.74-0.797C984.469,34.985,984.832,41.585,980.986,45.875z"/>
		<g>
			<g>
				<defs>
					
						<rect id="SVGID_13_" x="963.366" y="29.07" transform="matrix(-0.7445 -0.6676 0.6676 -0.7445 1671.8279 717.569)" width="19.69" height="19.667"/>
				</defs>
				<clipPath id="SVGID_14_">
					<use xlink:href="#SVGID_13_"  overflow="visible"/>
				</clipPath>
				<path clip-path="url(#SVGID_14_)" fill="#BEBFBF" d="M980.539,45.475c-3.625,4.042-9.844,4.379-13.893,0.75
					c-4.047-3.629-4.389-9.849-0.766-13.891c3.627-4.043,9.848-4.38,13.895-0.751C983.822,35.21,984.164,41.431,980.539,45.475"/>
				<path clip-path="url(#SVGID_14_)" fill="#C0C1C1" d="M980.365,45.32c-3.539,3.947-9.613,4.275-13.564,0.732
					c-3.951-3.543-4.285-9.617-0.746-13.564c3.541-3.948,9.613-4.277,13.566-0.733C983.572,35.297,983.906,41.371,980.365,45.32"/>
				<path clip-path="url(#SVGID_14_)" fill="#C3C4C4" d="M980.193,45.165c-3.453,3.853-9.381,4.174-13.238,0.716
					c-3.857-3.458-4.182-9.386-0.729-13.238c3.455-3.853,9.383-4.174,13.24-0.716S983.648,41.313,980.193,45.165"/>
				<path clip-path="url(#SVGID_14_)" fill="#C5C6C6" d="M980.021,45.011c-3.369,3.757-9.15,4.07-12.912,0.697
					c-3.762-3.373-4.08-9.154-0.711-12.911c3.371-3.758,9.152-4.071,12.914-0.698C983.072,35.472,983.391,41.253,980.021,45.011"/>
				<path clip-path="url(#SVGID_14_)" fill="#C7C9C9" d="M979.85,44.856c-3.283,3.662-8.921,3.967-12.586,0.68
					c-3.666-3.287-3.975-8.922-0.693-12.584c3.285-3.663,8.922-3.969,12.588-0.682S983.133,41.194,979.85,44.856"/>
				<path clip-path="url(#SVGID_14_)" fill="#CACBCB" d="M979.676,44.702c-3.197,3.567-8.686,3.864-12.258,0.663
					c-3.57-3.203-3.871-8.691-0.674-12.258c3.199-3.568,8.688-3.865,12.26-0.664C982.576,35.646,982.875,41.134,979.676,44.702"/>
				<path clip-path="url(#SVGID_14_)" fill="#CCCECE" d="M979.506,44.547c-3.113,3.472-8.457,3.76-11.934,0.644
					c-3.477-3.117-3.77-8.458-0.656-11.931c3.115-3.473,8.457-3.762,11.934-0.646C982.326,35.731,982.619,41.074,979.506,44.547"/>
				<path clip-path="url(#SVGID_14_)" fill="#CED0D0" d="M979.332,44.393c-3.027,3.376-8.225,3.658-11.605,0.627
					c-3.379-3.031-3.666-8.228-0.639-11.605c3.029-3.377,8.227-3.658,11.605-0.627C982.074,35.818,982.359,41.015,979.332,44.393"/>
				<path clip-path="url(#SVGID_14_)" fill="#D1D3D3" d="M979.16,44.238c-2.943,3.281-7.992,3.556-11.279,0.609
					c-3.284-2.946-3.563-7.996-0.621-11.277c2.945-3.283,7.994-3.556,11.281-0.61C981.826,35.906,982.104,40.955,979.16,44.238"/>
				<path clip-path="url(#SVGID_14_)" fill="#D3D5D5" d="M978.986,44.083c-2.855,3.187-7.76,3.451-10.949,0.591
					c-3.192-2.861-3.461-7.764-0.604-10.951c2.857-3.188,7.762-3.453,10.951-0.592C981.576,35.993,981.846,40.896,978.986,44.083"/>
			</g>
		</g>
		<polygon fill="#605F5E" points="968.307,42.448 971.396,39.002 967.947,35.909 969.662,33.996 973.111,37.089 976.201,33.643 
			978.115,35.359 975.025,38.805 978.475,41.897 976.76,43.811 973.309,40.718 970.221,44.164 		"/>
		<path fill="#231815" d="M977.801,35.376l-2.793,3.114l-0.295,0.332l0.332,0.297l3.117,2.795l-1.418,1.582l-3.119-2.796
			l-0.33-0.296l-0.299,0.331l-2.793,3.115l-1.58-1.419l2.791-3.115l0.297-0.331l-0.332-0.298l-3.117-2.795l1.417-1.581l3.118,2.795
			l0.332,0.297l0.297-0.331l2.793-3.114L977.801,35.376z M978.43,35.343l-2.246-2.014l-3.089,3.445l-3.448-3.092l-2.012,2.244
			l3.447,3.092l-3.09,3.446l2.246,2.014l3.09-3.446l3.449,3.092l2.012-2.245l-3.449-3.091L978.43,35.343z"/>
	</g>
	<g>
		<path fill="#AFAFAF" d="M1186.664,45.875c-3.846,4.289-10.445,4.646-14.74,0.797c-4.293-3.851-4.654-10.45-0.811-14.739
			c3.848-4.29,10.447-4.647,14.742-0.797C1190.148,34.985,1190.512,41.585,1186.664,45.875"/>
		
			<ellipse transform="matrix(0.7446 0.6676 -0.6676 0.7446 327.103 -777.0333)" fill="none" stroke="#939393" stroke-miterlimit="10" cx="1178.889" cy="38.904" rx="10.443" ry="10.433"/>
		<g>
			<g>
				<defs>
					
						<rect id="SVGID_15_" x="1169.044" y="29.07" transform="matrix(-0.7446 -0.6675 0.6675 -0.7446 2030.6951 854.8208)" width="19.692" height="19.667"/>
				</defs>
				<clipPath id="SVGID_16_">
					<use xlink:href="#SVGID_15_"  overflow="visible"/>
				</clipPath>
				<path clip-path="url(#SVGID_16_)" fill="#BEBFBF" d="M1186.217,45.475c-3.623,4.042-9.844,4.379-13.891,0.75
					s-4.391-9.849-0.766-13.891c3.627-4.043,9.846-4.38,13.895-0.751C1189.502,35.21,1189.844,41.431,1186.217,45.475"/>
				<path clip-path="url(#SVGID_16_)" fill="#C0C1C1" d="M1186.045,45.32c-3.541,3.947-9.615,4.275-13.564,0.732
					c-3.951-3.543-4.285-9.617-0.746-13.564c3.541-3.948,9.612-4.277,13.566-0.733C1189.252,35.297,1189.584,41.371,1186.045,45.32"
					/>
				<path clip-path="url(#SVGID_16_)" fill="#C3C4C4" d="M1185.873,45.165c-3.455,3.853-9.383,4.174-13.238,0.716
					c-3.857-3.458-4.184-9.386-0.729-13.238c3.455-3.853,9.383-4.174,13.238-0.716C1189.004,35.385,1189.328,41.313,1185.873,45.165
					"/>
				<path clip-path="url(#SVGID_16_)" fill="#C5C6C6" d="M1185.699,45.011c-3.367,3.757-9.148,4.07-12.91,0.697
					c-3.762-3.373-4.08-9.154-0.711-12.911c3.371-3.758,9.15-4.071,12.912-0.698C1188.752,35.472,1189.07,41.253,1185.699,45.011"/>
				<path clip-path="url(#SVGID_16_)" fill="#C7C9C9" d="M1185.527,44.856c-3.281,3.662-8.92,3.967-12.584,0.68
					c-3.666-3.287-3.975-8.922-0.693-12.584c3.285-3.663,8.922-3.969,12.588-0.682S1188.813,41.194,1185.527,44.856"/>
				<path clip-path="url(#SVGID_16_)" fill="#CACBCB" d="M1185.355,44.702c-3.199,3.567-8.688,3.864-12.259,0.663
					c-3.569-3.203-3.87-8.691-0.673-12.258c3.199-3.568,8.688-3.865,12.26-0.664C1188.254,35.646,1188.554,41.134,1185.355,44.702"
					/>
				<path clip-path="url(#SVGID_16_)" fill="#CCCECE" d="M1185.184,44.547c-3.113,3.472-8.455,3.76-11.932,0.644
					c-3.477-3.117-3.77-8.458-0.657-11.931c3.114-3.473,8.458-3.762,11.933-0.646C1188.004,35.731,1188.299,41.074,1185.184,44.547"
					/>
				<path clip-path="url(#SVGID_16_)" fill="#CED0D0" d="M1185.01,44.393c-3.025,3.376-8.223,3.658-11.604,0.627
					c-3.379-3.031-3.666-8.228-0.639-11.605c3.029-3.377,8.225-3.658,11.605-0.627S1188.039,41.015,1185.01,44.393"/>
				<path clip-path="url(#SVGID_16_)" fill="#D1D3D3" d="M1184.838,44.238c-2.941,3.281-7.991,3.556-11.277,0.609
					c-3.285-2.946-3.563-7.996-0.621-11.277c2.943-3.283,7.994-3.556,11.279-0.61C1187.506,35.906,1187.783,40.955,1184.838,44.238"
					/>
				<path clip-path="url(#SVGID_16_)" fill="#D3D5D5" d="M1184.666,44.083c-2.857,3.187-7.76,3.451-10.951,0.591
					c-3.191-2.861-3.459-7.764-0.602-10.951c2.856-3.188,7.762-3.453,10.951-0.592C1187.254,35.993,1187.525,40.896,1184.666,44.083
					"/>
			</g>
		</g>
		<polygon fill="#605F5E" points="1173.986,42.448 1177.074,39.002 1173.627,35.909 1175.342,33.996 1178.789,37.089 
			1181.881,33.643 1183.795,35.359 1180.705,38.805 1184.154,41.897 1182.439,43.811 1178.988,40.718 1175.9,44.164 		"/>
		<path fill="#231815" d="M1183.48,35.376l-2.793,3.114l-0.297,0.332l0.332,0.297l3.117,2.795l-1.418,1.582l-3.118-2.796
			l-0.331-0.296l-0.297,0.331l-2.793,3.115l-1.582-1.419l2.791-3.115l0.297-0.331l-0.33-0.298l-3.117-2.795l1.416-1.581l3.117,2.795
			l0.332,0.297l0.299-0.331l2.793-3.114L1183.48,35.376z M1184.109,35.343l-2.246-2.014l-3.09,3.445l-3.449-3.092l-2.012,2.244
			l3.447,3.092l-3.088,3.446l2.246,2.014l3.09-3.446l3.447,3.092l2.012-2.245l-3.447-3.091L1184.109,35.343z"/>
	</g>
</g>
<g>
	<path fill="#111111" d="M971.779,105.912c0,1.486-1.205,2.691-2.691,2.691h-19.545c-1.486,0-2.691-1.205-2.691-2.691V86.37
		c0-1.485,1.205-2.69,2.691-2.69h19.545c1.486,0,2.691,1.205,2.691,2.69V105.912z"/>
	<path fill="#E8E8E8" d="M970.229,104.363c0,1.486-1.205,2.691-2.691,2.691h-16.445c-1.484,0-2.689-1.205-2.689-2.691V87.919
		c0-1.485,1.205-2.69,2.689-2.69h16.445c1.486,0,2.691,1.205,2.691,2.69V104.363z"/>
	<g>
		<path fill="#AFAFAF" d="M966.289,102.395c-3.449,3.848-9.369,4.168-13.223,0.715c-3.85-3.453-4.174-9.373-0.725-13.221
			s9.369-4.168,13.221-0.715S969.74,98.547,966.289,102.395"/>
		
			<ellipse transform="matrix(0.7445 0.6676 -0.6676 0.7445 309.2573 -615.8653)" fill="none" stroke="#939393" stroke-miterlimit="10" cx="959.315" cy="96.142" rx="9.366" ry="9.359"/>
		<g>
			<g>
				<defs>
					
						<rect id="SVGID_17_" x="950.484" y="87.321" transform="matrix(-0.7445 -0.6676 0.6676 -0.7445 1609.3835 808.1388)" width="17.662" height="17.641"/>
				</defs>
				<clipPath id="SVGID_18_">
					<use xlink:href="#SVGID_17_"  overflow="visible"/>
				</clipPath>
				<path clip-path="url(#SVGID_18_)" fill="#BEBFBF" d="M965.888,102.035c-3.251,3.627-8.829,3.928-12.46,0.674
					c-3.629-3.256-3.938-8.834-0.688-12.461c3.254-3.626,8.834-3.929,12.465-0.674C968.834,92.829,969.14,98.409,965.888,102.035"/>
				<path clip-path="url(#SVGID_18_)" fill="#C0C1C1" d="M965.732,101.896c-3.174,3.541-8.623,3.835-12.166,0.657
					c-3.545-3.178-3.845-8.626-0.67-12.166c3.178-3.542,8.623-3.837,12.17-0.658C968.609,92.907,968.908,98.355,965.732,101.896"/>
				<path clip-path="url(#SVGID_18_)" fill="#C3C4C4" d="M965.578,101.758c-3.098,3.456-8.414,3.744-11.873,0.643
					c-3.461-3.103-3.752-8.419-0.654-11.875c3.1-3.455,8.416-3.743,11.875-0.642C968.387,92.985,968.678,98.303,965.578,101.758"/>
				<path clip-path="url(#SVGID_18_)" fill="#C5C6C6" d="M965.424,101.619c-3.021,3.371-8.207,3.651-11.58,0.626
					c-3.375-3.024-3.66-8.211-0.639-11.581c3.023-3.371,8.209-3.651,11.582-0.625C968.162,93.063,968.447,98.249,965.424,101.619"/>
				<path clip-path="url(#SVGID_18_)" fill="#C7C9C9" d="M965.27,101.481c-2.943,3.284-8,3.558-11.287,0.609
					c-3.289-2.948-3.566-8.003-0.623-11.287c2.946-3.286,8.002-3.56,11.291-0.611S968.215,98.196,965.27,101.481"/>
				<path clip-path="url(#SVGID_18_)" fill="#CACBCB" d="M965.115,101.343c-2.869,3.199-7.791,3.466-10.996,0.594
					c-3.201-2.872-3.471-7.796-0.604-10.995c2.87-3.2,7.794-3.467,10.997-0.595S967.984,98.143,965.115,101.343"/>
				<path clip-path="url(#SVGID_18_)" fill="#CCCECE" d="M964.961,101.204c-2.791,3.114-7.584,3.373-10.703,0.577
					c-3.118-2.795-3.381-7.586-0.588-10.701s7.586-3.374,10.703-0.578C967.492,93.297,967.754,98.089,964.961,101.204"/>
				<path clip-path="url(#SVGID_18_)" fill="#CED0D0" d="M964.805,101.065c-2.713,3.028-7.376,3.28-10.408,0.562
					c-3.031-2.719-3.287-7.38-0.572-10.408c2.717-3.029,7.377-3.281,10.41-0.563C967.265,93.375,967.521,98.035,964.805,101.065"/>
				<path clip-path="url(#SVGID_18_)" fill="#D1D3D3" d="M964.652,100.926c-2.641,2.943-7.168,3.189-10.117,0.547
					c-2.945-2.643-3.195-7.172-0.557-10.115c2.641-2.944,7.17-3.189,10.116-0.547C967.043,93.453,967.293,97.982,964.652,100.926"/>
				<path clip-path="url(#SVGID_18_)" fill="#D3D5D5" d="M964.496,100.788c-2.563,2.858-6.961,3.096-9.822,0.53
					c-2.861-2.566-3.104-6.964-0.539-9.822c2.563-2.859,6.96-3.098,9.822-0.531C966.818,93.531,967.061,97.929,964.496,100.788"/>
			</g>
		</g>
		<polygon fill="#605F5E" points="954.918,99.32 957.688,96.23 954.594,93.455 956.133,91.739 959.227,94.514 961.998,91.424 
			963.715,92.963 960.943,96.054 964.037,98.827 962.5,100.543 959.404,97.77 956.635,100.859 		"/>
		<path fill="#231815" d="M963.434,92.979l-2.506,2.793l-0.266,0.297l0.299,0.268l2.795,2.507l-1.271,1.419l-2.797-2.508
			l-0.298-0.267l-0.267,0.297l-2.506,2.794l-1.418-1.272l2.504-2.794l0.266-0.297l-0.297-0.268l-2.795-2.508l1.271-1.418
			l2.795,2.508l0.299,0.266l0.266-0.297l2.505-2.793L963.434,92.979z M963.998,92.947l-2.016-1.806l-2.771,3.09l-3.094-2.773
			l-1.803,2.013l3.092,2.773l-2.771,3.091l2.016,1.807l2.771-3.091l3.091,2.773l1.806-2.014l-3.092-2.772L963.998,92.947z"/>
	</g>
</g>
<g>
	<path fill="#111111" d="M510.451,107.461c0,1.486-1.205,2.691-2.691,2.691h-19.545c-1.485,0-2.69-1.205-2.69-2.691V87.918
		c0-1.485,1.205-2.689,2.69-2.689h19.545c1.486,0,2.691,1.204,2.691,2.689V107.461z"/>
	<path fill="#E8E8E8" d="M508.9,105.912c0,1.486-1.205,2.691-2.69,2.691h-16.445c-1.485,0-2.69-1.205-2.69-2.691V89.467
		c0-1.485,1.205-2.69,2.69-2.69h16.445c1.485,0,2.69,1.205,2.69,2.69V105.912z"/>
	<g>
		<path fill="#AFAFAF" d="M504.96,103.943c-3.449,3.848-9.369,4.168-13.222,0.715c-3.851-3.454-4.175-9.373-0.726-13.221
			s9.369-4.168,13.222-0.715C508.085,94.176,508.412,100.096,504.96,103.943"/>
		
			<ellipse transform="matrix(0.7445 0.6676 -0.6676 0.7445 192.4366 -307.4927)" fill="none" stroke="#939393" stroke-miterlimit="10" cx="497.987" cy="97.69" rx="9.366" ry="9.359"/>
		<g>
			<g>
				<defs>
					
						<rect id="SVGID_19_" x="489.156" y="88.869" transform="matrix(-0.7445 -0.6676 0.6676 -0.7445 803.5441 502.868)" width="17.662" height="17.641"/>
				</defs>
				<clipPath id="SVGID_20_">
					<use xlink:href="#SVGID_19_"  overflow="visible"/>
				</clipPath>
				<path clip-path="url(#SVGID_20_)" fill="#BEBFBF" d="M504.56,103.584c-3.251,3.626-8.83,3.928-12.461,0.673
					c-3.629-3.255-3.938-8.834-0.687-12.46c3.253-3.627,8.833-3.93,12.464-0.674C507.505,94.377,507.812,99.957,504.56,103.584"/>
				<path clip-path="url(#SVGID_20_)" fill="#C0C1C1" d="M504.405,103.445c-3.175,3.54-8.624,3.834-12.167,0.656
					c-3.544-3.178-3.844-8.625-0.669-12.166c3.177-3.541,8.622-3.836,12.169-0.658C507.281,94.455,507.58,99.903,504.405,103.445"/>
				<path clip-path="url(#SVGID_20_)" fill="#C3C4C4" d="M504.25,103.307c-3.099,3.455-8.415,3.744-11.874,0.643
					c-3.46-3.104-3.752-8.42-0.653-11.875c3.099-3.456,8.416-3.744,11.875-0.643C507.059,94.533,507.349,99.852,504.25,103.307"/>
				<path clip-path="url(#SVGID_20_)" fill="#C5C6C6" d="M504.095,103.168c-3.02,3.37-8.207,3.65-11.58,0.625
					c-3.375-3.024-3.66-8.211-0.639-11.58c3.024-3.371,8.209-3.652,11.583-0.626C506.833,94.611,507.119,99.797,504.095,103.168"/>
				<path clip-path="url(#SVGID_20_)" fill="#C7C9C9" d="M503.941,103.029c-2.943,3.285-8,3.559-11.287,0.609
					c-3.289-2.947-3.566-8.002-0.623-11.287c2.947-3.285,8.003-3.56,11.291-0.611C506.611,94.689,506.887,99.744,503.941,103.029"/>
				<path clip-path="url(#SVGID_20_)" fill="#CACBCB" d="M503.787,102.891c-2.869,3.199-7.791,3.467-10.995,0.594
					c-3.202-2.872-3.472-7.795-0.604-10.994c2.869-3.201,7.793-3.467,10.996-0.596C506.387,94.768,506.656,99.69,503.787,102.891"/>
				<path clip-path="url(#SVGID_20_)" fill="#CCCECE" d="M503.633,102.752c-2.792,3.115-7.585,3.373-10.703,0.578
					c-3.118-2.796-3.382-7.587-0.589-10.701c2.793-3.115,7.586-3.375,10.703-0.579C506.164,94.845,506.426,99.637,503.633,102.752"
					/>
				<path clip-path="url(#SVGID_20_)" fill="#CED0D0" d="M503.477,102.613c-2.714,3.029-7.376,3.281-10.409,0.563
					c-3.03-2.719-3.287-7.381-0.572-10.409c2.717-3.029,7.378-3.28,10.41-0.562C505.937,94.923,506.193,99.584,503.477,102.613"/>
				<path clip-path="url(#SVGID_20_)" fill="#D1D3D3" d="M503.324,102.475c-2.641,2.943-7.168,3.189-10.117,0.547
					c-2.945-2.643-3.195-7.172-0.557-10.115c2.641-2.945,7.17-3.189,10.117-0.547C505.715,95.002,505.964,99.53,503.324,102.475"/>
				<path clip-path="url(#SVGID_20_)" fill="#D3D5D5" d="M503.167,102.336c-2.562,2.859-6.96,3.096-9.821,0.531
					c-2.862-2.566-3.104-6.965-0.54-9.822c2.563-2.859,6.961-3.098,9.822-0.531S505.733,99.477,503.167,102.336"/>
			</g>
		</g>
		<polygon fill="#605F5E" points="493.589,100.869 496.359,97.778 493.266,95.004 494.804,93.287 497.898,96.063 500.669,92.972 
			502.386,94.512 499.615,97.602 502.708,100.375 501.171,102.092 498.076,99.317 495.306,102.408 		"/>
		<path fill="#231815" d="M502.105,94.526l-2.506,2.794l-0.266,0.297l0.299,0.267l2.795,2.507l-1.271,1.419l-2.797-2.508
			l-0.297-0.267l-0.268,0.297l-2.505,2.795l-1.418-1.273l2.503-2.794l0.267-0.297l-0.297-0.267l-2.796-2.508l1.271-1.418
			l2.795,2.507l0.299,0.267l0.267-0.297l2.505-2.793L502.105,94.526z M502.669,94.496l-2.016-1.807l-2.771,3.09l-3.094-2.773
			l-1.804,2.014l3.092,2.773l-2.771,3.09l2.016,1.807l2.771-3.09l3.092,2.773l1.805-2.014l-3.092-2.773L502.669,94.496z"/>
	</g>
</g>
<g>
	<polygon fill="#141414" points="308.922,112.926 308.922,94.482 339.424,94.482 341.079,97.615 468.054,97.615 468.054,111.98 
		339.483,111.98 335.758,114.641 308.922,114.641 	"/>
	<path fill="#494949" d="M466.786,107.105c0,1.656-1.361,3-3.039,3H341.158c-1.678,0-3.039-1.344-3.039-3v-4.5
		c0-1.656,1.361-3,3.039-3h122.589c1.678,0,3.039,1.344,3.039,3V107.105z"/>
	<path fill="#494949" d="M339.119,109.617c0,1.844-1.495,3.339-3.339,3.339h-22.864c-1.845,0-3.339-1.495-3.339-3.339v-10.11
		c0-1.845,1.494-3.339,3.339-3.339h22.864c1.844,0,3.339,1.494,3.339,3.339V109.617z"/>
</g>
<path fill="#FFFF64" stroke="#262626" stroke-width="0.25" stroke-miterlimit="10" d="M42.766,101.168
	c0,1.058-0.856,1.914-1.913,1.914h-3.684c-1.057,0-1.913-0.856-1.913-1.914l0,0c0-1.057,0.856-1.912,1.913-1.912h3.684
	C41.91,99.256,42.766,100.111,42.766,101.168L42.766,101.168z"/>
<path fill="#515151" stroke="#262626" stroke-width="0.25" stroke-miterlimit="10" d="M112.996,59.192
	c0,1.057-0.856,1.913-1.913,1.913h-3.684c-1.057,0-1.913-0.856-1.913-1.913l0,0c0-1.057,0.856-1.913,1.913-1.913h3.684
	C112.139,57.279,112.996,58.135,112.996,59.192L112.996,59.192z"/>
<text transform="matrix(1 0 0 1 99.291 83.4355)" font-family="'Helvetica'" font-size="5.1659">pvom0</text>
<path fill="#515151" stroke="#262626" stroke-width="0.25" stroke-miterlimit="10" d="M112.996,75.619
	c0,1.057-0.856,1.913-1.913,1.913h-3.684c-1.057,0-1.913-0.856-1.913-1.913l0,0c0-1.057,0.856-1.913,1.913-1.913h3.684
	C112.139,73.706,112.996,74.563,112.996,75.619L112.996,75.619z"/>
<path fill="#FFFF64" stroke="#262626" stroke-width="0.25" stroke-miterlimit="10" d="M62.266,101.168
	c0,1.058-0.856,1.914-1.913,1.914h-3.684c-1.057,0-1.913-0.856-1.913-1.914l0,0c0-1.057,0.856-1.912,1.913-1.912h3.684
	C61.41,99.256,62.266,100.111,62.266,101.168L62.266,101.168z"/>
</svg>
