<?xml version="1.0" encoding="utf-8"?>
<!-- Generator: Adobe Illustrator 19.0.0, SVG Export Plug-In . SVG Version: 6.00 Build 0)  -->
<svg version="1.1" id="图层_1" xmlns="http://www.w3.org/2000/svg" xmlns:xlink="http://www.w3.org/1999/xlink" x="0px" y="0px"
	 width="1275.6px" height="378px" viewBox="0 0 1275.6 378" style="enable-background:new 0 0 1275.6 378;" xml:space="preserve">
<style type="text/css">
	.st0{fill:#E5E5E5;stroke:#666666;stroke-width:1.7008;stroke-miterlimit:10;}
	.st1{fill:#393A39;stroke:#000000;stroke-width:2.8346;stroke-miterlimit:10;}
	.st2{fill:#EDEDED;}
	.st3{fill:#C2C2C2;}
</style>
<rect id="XMLID_3526_" x="0.9" y="0.9" class="st0" width="1273.9" height="376.3"/>
<rect id="XMLID_3525_" x="7.2" y="5" class="st1" width="189.7" height="368"/>
<rect id="XMLID_12353_" x="1196" y="5" class="st1" width="70.2" height="368"/>
<g id="XMLID_14337_">
	<path id="XMLID_14338_" class="st2" d="M81.5,256.3v6.9H80c-0.2-0.7-0.4-1.3-0.8-1.8c-1.5,1.5-3.5,2.3-6,2.3
		c-2.8,0-5.1-0.9-6.8-2.8c-1.7-1.9-2.6-4.1-2.6-6.6c0-2.5,0.8-4.8,2.5-6.7c1.7-2,4-2.9,7-2.9c2.2,0,4.1,0.7,5.7,2.2
		c0.2-0.5,0.4-1,0.6-1.6h1.5l0.2,6.8h-1.5c-0.4-1.8-1.2-3.2-2.2-4.2c-1-0.9-2.2-1.4-3.6-1.4c-1.6,0-2.8,0.6-3.6,1.9
		c-0.8,1.2-1.2,3.2-1.2,5.8c0,1.9,0.1,3.3,0.4,4.4c0.3,1.1,0.9,1.9,1.7,2.5c0.9,0.6,1.8,0.9,2.8,0.9c1.3,0,2.5-0.5,3.6-1.4
		c1-0.9,1.8-2.3,2.3-4.2H81.5z"/>
	<path id="XMLID_14340_" class="st2" d="M90.2,251.8v8.3c0,0.7,0.1,1.2,0.3,1.4c0.2,0.3,0.7,0.4,1.5,0.4v1.4h-8.3v-1.4h0.3
		c0.8,0,1.3-0.1,1.5-0.4c0.2-0.3,0.3-0.7,0.3-1.4v-4c0-0.7-0.1-1.1-0.3-1.4c-0.2-0.3-0.7-0.4-1.4-0.4h-0.3v-1.4L90.2,251.8z
		 M85.7,247.1c0-0.7,0.2-1.2,0.7-1.7c0.5-0.5,1.1-0.7,1.7-0.7c0.7,0,1.2,0.2,1.7,0.7c0.5,0.5,0.7,1.1,0.7,1.7s-0.2,1.3-0.7,1.7
		c-0.5,0.5-1,0.7-1.7,0.7c-0.7,0-1.3-0.2-1.7-0.7C85.9,248.4,85.7,247.8,85.7,247.1z"/>
	<path id="XMLID_14343_" class="st2" d="M93.9,263.8l-0.1-3.7h1.3c0.7,1.5,2,2.3,3.9,2.3c0.8,0,1.4-0.1,1.9-0.4
		c0.5-0.3,0.8-0.6,0.8-0.9c0-0.3-0.1-0.5-0.4-0.7c-0.3-0.2-0.9-0.3-1.9-0.5c-1.6-0.3-2.7-0.6-3.4-0.9c-0.7-0.3-1.3-0.7-1.8-1.3
		s-0.7-1.3-0.7-2c0-1.1,0.5-2,1.4-2.7c0.9-0.7,2.2-1,3.7-1c1.2,0,2.4,0.2,3.6,0.7c0.2-0.2,0.4-0.4,0.5-0.7h1.1l0.1,3.4h-1.1
		c-0.7-1.4-2.1-2.1-4.2-2.1c-0.7,0-1.2,0.1-1.7,0.3c-0.4,0.2-0.7,0.5-0.7,0.8c0,0.4,0.2,0.6,0.5,0.8c0.3,0.2,1.2,0.4,2.5,0.6
		c1.4,0.3,2.4,0.6,3.1,0.9c0.7,0.3,1.2,0.7,1.7,1.3s0.6,1.2,0.6,1.9c0,1.2-0.5,2.1-1.6,2.9s-2.3,1.1-3.9,1.1c-1.2,0-2.4-0.3-3.7-0.8
		c-0.2,0.2-0.4,0.4-0.5,0.8H93.9z"/>
	<path id="XMLID_14345_" class="st2" d="M117.5,260l1.4,0.6c-0.4,1-1.1,1.8-2.1,2.4s-2.2,0.8-3.5,0.8c-1.8,0-3.3-0.5-4.6-1.5
		c-1.3-1-1.9-2.4-1.9-4.2c0-1.9,0.7-3.4,2.1-4.5c1.4-1.1,3.1-1.7,5.3-1.7c1.4,0,2.4,0.2,3.2,0.7c0.8,0.5,1.2,1.1,1.2,2
		c0,0.5-0.2,0.9-0.5,1.2c-0.3,0.3-0.7,0.5-1.2,0.5c-1,0-1.6-0.6-1.9-1.9c-0.1-0.4-0.2-0.6-0.4-0.8c-0.2-0.2-0.4-0.2-0.8-0.2
		c-0.8,0-1.4,0.3-1.8,1s-0.6,1.6-0.6,2.9c0,1.7,0.2,3,0.7,3.8c0.5,0.8,1.2,1.1,2.3,1.1C115.9,262,116.9,261.3,117.5,260z"/>
	<path id="XMLID_14347_" class="st2" d="M120.4,257.8c0-1.9,0.7-3.3,2-4.4s2.9-1.6,4.8-1.6c1.8,0,3.4,0.5,4.8,1.5c1.4,1,2,2.5,2,4.4
		c0,1.8-0.7,3.3-2,4.4c-1.3,1.1-2.9,1.6-4.8,1.6c-1.8,0-3.4-0.5-4.8-1.5S120.4,259.7,120.4,257.8z M125.1,257.7
		c0,1.7,0.2,2.9,0.5,3.6s0.9,1,1.7,1c0.6,0,1.2-0.3,1.5-0.9c0.4-0.6,0.6-1.8,0.6-3.7c0-1.7-0.2-2.9-0.5-3.5
		c-0.3-0.6-0.9-0.9-1.6-0.9c-0.6,0-1.1,0.3-1.5,0.8S125.1,255.8,125.1,257.7z"/>
	<path id="XMLID_14350_" class="st2" d="M36.2,281.6h-6.3c-0.6,0-1.1,0.1-1.3,0.2c-0.3,0.2-0.5,0.6-0.6,1.2h-1.5l1.8-5.6h1.5
		c0,0.1,0,0.2,0,0.3c0,0.3,0.3,0.4,0.8,0.4H39l-5.1,16.3c-0.3,1-0.6,1.7-1,2c-0.3,0.3-0.8,0.5-1.3,0.5c-0.6,0-1-0.1-1.4-0.4
		c-0.4-0.3-0.6-0.7-0.6-1.2c0-0.4,0.3-1.3,1-2.5L36.2,281.6z"/>
	<path id="XMLID_14352_" class="st2" d="M41.8,296.6v-1.3c4.9-4.4,7.3-8.5,7.3-12.2c0-1.1-0.2-1.9-0.7-2.5c-0.4-0.6-1-0.9-1.8-0.9
		c-0.6,0-1.1,0.2-1.5,0.6s-0.6,0.9-0.6,1.5c0,0.7,0.2,1.2,0.5,1.7c0.1,0.1,0.1,0.2,0.1,0.2c0,0.1-0.1,0.2-0.3,0.3
		c-0.1,0.1-0.5,0.2-1.1,0.5c-0.6,0.3-0.9,0.4-1.1,0.4c-0.2,0-0.3-0.2-0.6-0.8c-0.2-0.5-0.3-1-0.3-1.6c0-1.3,0.6-2.4,1.7-3.2
		s2.6-1.3,4.3-1.3c1.7,0,3.1,0.5,4.2,1.4c1.1,0.9,1.7,2.1,1.7,3.6c0,0.9-0.2,1.7-0.6,2.5s-1.3,2.1-2.8,3.8c-1.5,1.7-2.9,3.3-4.2,4.7
		h7.8l-0.7,3.9h-1.4c0.1-0.2,0.1-0.4,0.1-0.5c0-0.3-0.1-0.4-0.2-0.5s-0.4-0.1-0.8-0.1H41.8z"/>
	<path id="XMLID_14354_" class="st2" d="M56.2,287.3c0-3,0.6-5.4,1.8-7c1.2-1.6,2.7-2.4,4.6-2.4c1.8,0,3.4,0.8,4.6,2.4
		c1.2,1.6,1.8,3.9,1.8,6.8c0,3.4-0.6,5.9-1.8,7.5c-1.2,1.6-2.7,2.4-4.6,2.4c-1.4,0-2.5-0.4-3.6-1.3c-1-0.8-1.8-1.9-2.2-3.3
		C56.4,291.2,56.2,289.4,56.2,287.3z M60.8,287.4c0,2.9,0.1,5,0.4,6.2c0.2,1.2,0.8,1.8,1.6,1.8c0.7,0,1.2-0.5,1.4-1.5
		s0.4-3.1,0.4-6.5c0-3.2-0.1-5.3-0.4-6.3c-0.3-1.1-0.8-1.6-1.5-1.6c-0.7,0-1.1,0.5-1.4,1.5C60.9,282.1,60.8,284.2,60.8,287.4z"/>
	<path id="XMLID_14357_" class="st2" d="M71.2,287.3c0-3,0.6-5.4,1.8-7c1.2-1.6,2.7-2.4,4.6-2.4c1.8,0,3.4,0.8,4.6,2.4
		c1.2,1.6,1.8,3.9,1.8,6.8c0,3.4-0.6,5.9-1.8,7.5c-1.2,1.6-2.7,2.4-4.6,2.4c-1.4,0-2.5-0.4-3.6-1.3c-1-0.8-1.8-1.9-2.2-3.3
		C71.4,291.2,71.2,289.4,71.2,287.3z M75.8,287.4c0,2.9,0.1,5,0.4,6.2c0.2,1.2,0.8,1.8,1.6,1.8c0.7,0,1.2-0.5,1.4-1.5
		s0.4-3.1,0.4-6.5c0-3.2-0.1-5.3-0.4-6.3c-0.3-1.1-0.8-1.6-1.5-1.6c-0.7,0-1.1,0.5-1.4,1.5C75.9,282.1,75.8,284.2,75.8,287.4z"/>
	<path id="XMLID_14360_" class="st2" d="M93.6,296.3V290h1.6c0.5,1.9,1.1,3.2,2,4c0.9,0.8,1.9,1.2,2.9,1.2c0.8,0,1.4-0.2,1.9-0.7
		s0.7-1,0.7-1.6c0-0.4-0.1-0.9-0.4-1.3c-0.3-0.4-1-0.9-2.1-1.5c-2.1-1-3.5-1.8-4.2-2.3c-0.7-0.5-1.3-1.1-1.8-1.9s-0.7-1.6-0.7-2.6
		c0-1.6,0.6-2.9,1.7-3.9c1.1-1,2.4-1.5,3.9-1.5c1.6,0,2.9,0.5,4,1.6c0.2-0.3,0.3-0.7,0.4-1.2h1.6v5.4h-1.5c-0.3-1.2-0.8-2.2-1.5-3
		c-0.8-0.8-1.6-1.2-2.6-1.2c-0.7,0-1.3,0.2-1.7,0.6c-0.4,0.4-0.6,0.9-0.6,1.5c0,0.5,0.1,0.9,0.4,1.3s0.6,0.7,1.1,1
		c0.5,0.3,1.4,0.7,2.9,1.4c1.3,0.6,2.3,1.2,3,1.7c0.6,0.5,1.1,1.1,1.5,1.9c0.4,0.8,0.6,1.6,0.6,2.4c0,1.6-0.6,3-1.8,4.1
		c-1.2,1.1-2.6,1.6-4.3,1.6c-0.9,0-1.9-0.2-2.8-0.6c-0.9-0.4-1.6-0.9-2.2-1.6c-0.2,0.4-0.4,0.9-0.5,1.5H93.6z"/>
	<path id="XMLID_14362_" class="st2" d="M113.6,291c0,1.5,0.2,2.6,0.8,3.3c0.5,0.7,1.3,1.1,2.3,1.1c1.1,0,2-0.5,2.9-1.6l1.3,0.8
		c-0.5,0.7-1.3,1.4-2.2,1.8s-2,0.7-3.2,0.7c-1.8,0-3.3-0.5-4.6-1.6c-1.3-1.1-1.9-2.6-1.9-4.4s0.6-3.3,1.8-4.4s2.7-1.6,4.4-1.6
		c1.7,0,3.2,0.5,4.3,1.5s1.7,2.4,1.7,4.4H113.6z M113.6,289.6h3.4c-0.1-2-0.6-3-1.7-3c-0.6,0-1,0.2-1.3,0.7
		C113.7,287.8,113.6,288.6,113.6,289.6z"/>
	<path id="XMLID_14367_" class="st2" d="M128.9,287.9c0.5-0.9,1.1-1.6,1.8-2.1c0.7-0.5,1.4-0.7,2.2-0.7c0.8,0,1.3,0.2,1.7,0.7
		c0.4,0.5,0.6,1,0.6,1.6c0,0.5-0.2,1-0.5,1.4c-0.3,0.4-0.8,0.6-1.3,0.6c-0.3,0-0.6-0.1-0.8-0.2c-0.2-0.1-0.5-0.4-0.8-0.7
		c-0.3-0.4-0.7-0.5-1.1-0.5c-0.6,0-1,0.4-1.3,1.1c-0.3,0.7-0.4,1.8-0.4,3.2v1.2c0,0.7,0.1,1.1,0.3,1.4c0.2,0.3,0.7,0.4,1.4,0.4h0.3
		v1.4h-8.2v-1.4c0.8,0,1.3-0.1,1.5-0.4c0.2-0.3,0.3-0.7,0.3-1.4v-3.9c0-0.7-0.1-1.2-0.3-1.4c-0.2-0.3-0.7-0.4-1.5-0.4v-1.4l5.6-1.2
		C128.7,285.8,128.8,286.8,128.9,287.9z"/>
	<path id="XMLID_14393_" class="st2" d="M142.3,285.1v8.3c0,0.7,0.1,1.2,0.3,1.4c0.2,0.3,0.7,0.4,1.5,0.4v1.4h-8.3v-1.4h0.3
		c0.8,0,1.3-0.1,1.5-0.4c0.2-0.3,0.3-0.7,0.3-1.4v-4c0-0.7-0.1-1.1-0.3-1.4c-0.2-0.3-0.7-0.4-1.4-0.4h-0.3v-1.4L142.3,285.1z
		 M137.8,280.4c0-0.7,0.2-1.2,0.7-1.7c0.5-0.5,1.1-0.7,1.7-0.7c0.7,0,1.2,0.2,1.7,0.7c0.5,0.5,0.7,1.1,0.7,1.7s-0.2,1.3-0.7,1.7
		c-0.5,0.5-1,0.7-1.7,0.7c-0.7,0-1.3-0.2-1.7-0.7C138,281.6,137.8,281.1,137.8,280.4z"/>
	<path id="XMLID_14396_" class="st2" d="M150.6,291c0,1.5,0.2,2.6,0.8,3.3c0.5,0.7,1.3,1.1,2.3,1.1c1.1,0,2-0.5,2.9-1.6l1.3,0.8
		c-0.5,0.7-1.3,1.4-2.2,1.8s-2,0.7-3.2,0.7c-1.8,0-3.3-0.5-4.6-1.6c-1.3-1.1-1.9-2.6-1.9-4.4s0.6-3.3,1.8-4.4s2.7-1.6,4.4-1.6
		c1.7,0,3.2,0.5,4.3,1.5s1.7,2.4,1.7,4.4H150.6z M150.6,289.6h3.4c-0.1-2-0.6-3-1.7-3c-0.6,0-1,0.2-1.3,0.7
		C150.7,287.8,150.6,288.6,150.6,289.6z"/>
	<path id="XMLID_14401_" class="st2" d="M160.5,297.1l-0.1-3.7h1.3c0.7,1.5,2,2.3,3.9,2.3c0.8,0,1.4-0.1,1.9-0.4
		c0.5-0.3,0.8-0.6,0.8-0.9c0-0.3-0.1-0.5-0.4-0.7c-0.3-0.2-0.9-0.3-1.9-0.5c-1.6-0.3-2.7-0.6-3.4-0.9c-0.7-0.3-1.3-0.7-1.8-1.3
		s-0.7-1.3-0.7-2c0-1.1,0.5-2,1.4-2.7c0.9-0.7,2.2-1,3.7-1c1.2,0,2.4,0.2,3.6,0.7c0.2-0.2,0.4-0.4,0.5-0.7h1.1l0.1,3.4h-1.1
		c-0.7-1.4-2.1-2.1-4.2-2.1c-0.7,0-1.2,0.1-1.7,0.3c-0.4,0.2-0.7,0.5-0.7,0.8c0,0.4,0.2,0.6,0.5,0.8c0.3,0.2,1.2,0.4,2.5,0.6
		c1.4,0.3,2.4,0.6,3.1,0.9c0.7,0.3,1.2,0.7,1.7,1.3s0.6,1.2,0.6,1.9c0,1.2-0.5,2.1-1.6,2.9s-2.3,1.1-3.9,1.1c-1.2,0-2.4-0.3-3.7-0.8
		c-0.2,0.2-0.4,0.4-0.5,0.8H160.5z"/>
	<path id="XMLID_14404_" class="st2" d="M76.7,330.3l-6.3-14.1c-0.5-1.1-0.9-1.9-1-2.2s-0.4-0.6-0.8-0.7c-0.3-0.2-0.8-0.2-1.5-0.2
		v-1.5h9.8v1.5c-1.4,0-2,0.3-2,1c0,0.4,0.2,1,0.6,1.8l3.8,8.3l3.5-8.3c0.3-0.6,0.4-1.1,0.4-1.6c0-0.8-0.7-1.3-2-1.3v-1.5h6.5v1.5
		c-0.7,0-1.3,0.2-1.7,0.6c-0.4,0.4-1,1.6-1.9,3.6l-5.6,13H76.7z"/>
	<path id="XMLID_14408_" class="st2" d="M97.1,322.8l-2.9,3.1c-0.5,0.6-0.7,1-0.7,1.4c0,0.3,0.1,0.6,0.4,0.8
		c0.3,0.2,0.8,0.3,1.7,0.3v1.5h-8.1v-1.5c0.7,0,1.4-0.2,2-0.5s1.5-1,2.4-2l4.1-4.4l-4.1-5.3c-1.1-1.4-1.9-2.3-2.3-2.6
		c-0.4-0.3-1.1-0.5-2.1-0.5v-1.5h10.4v1.5c-0.6,0-1,0-1.2,0.1c-0.2,0.1-0.3,0.3-0.3,0.5c0,0.4,0.1,0.7,0.4,1.1l2.5,3.2l2.8-3.1
		c0.4-0.4,0.6-0.8,0.6-1.2c0-0.5-0.6-0.8-1.8-0.8v-1.5h7.3v1.5c-1,0.1-1.8,0.4-2.4,0.8c-0.6,0.4-1.4,1.1-2.3,2.2l-3.1,3.4l4.3,5.6
		c1.2,1.6,2.1,2.6,2.7,2.9c0.6,0.3,1.2,0.5,2,0.5v1.5H98.2v-1.5c1,0,1.6-0.1,1.8-0.2c0.2-0.2,0.4-0.4,0.4-0.7c0-0.4-0.2-0.7-0.5-1.2
		L97.1,322.8z"/>
	<path id="XMLID_14410_" class="st2" d="M117.1,321.8v4.3c0,0.8,0.1,1.4,0.4,1.8s0.9,0.5,1.8,0.5h0.3v1.5h-9.9v-1.5h0.4
		c0.9,0,1.5-0.2,1.8-0.5c0.3-0.3,0.4-0.9,0.4-1.7v-10.9c0-0.8-0.1-1.4-0.4-1.8c-0.3-0.3-0.9-0.5-1.8-0.5h-0.4v-1.5l7.4,0l1.7,0
		c1.6,0,2.8,0.1,3.6,0.2c0.8,0.1,1.5,0.4,2.2,0.8c0.7,0.4,1.3,1,1.7,1.7s0.6,1.5,0.6,2.3c0,2.2-1.2,3.7-3.7,4.5
		c0.7,0.4,1.7,1.7,3.1,3.9c1.1,1.7,1.9,2.7,2.3,3.1c0.5,0.3,1,0.5,1.5,0.5v1.5h-5.7c-0.5-0.6-1.5-2.2-2.9-4.7
		c-0.7-1.3-1.2-2.1-1.5-2.5c-0.3-0.4-0.6-0.6-0.9-0.7C118.7,321.9,118.1,321.8,117.1,321.8z M117.1,320.1c1.5,0,2.6-0.1,3.1-0.3
		c0.5-0.2,1-0.6,1.3-1.1c0.3-0.5,0.5-1.2,0.5-2.1c0-1.3-0.3-2.2-0.9-2.7c-0.6-0.5-1.7-0.7-3.1-0.7c-0.2,0-0.4,0-0.7,0V320.1z"/>
</g>
<g id="XMLID_14694_">
	<g id="XMLID_14693_">
		<rect id="XMLID_14691_" x="163" y="13.9" width="32.4" height="26.3"/>
		<rect id="XMLID_14692_" x="190" y="15.2" class="st3" width="5.4" height="23.8"/>
	</g>
	<g id="XMLID_14695_">
		<rect id="XMLID_14697_" x="163" y="106.1" width="32.4" height="26.3"/>
		<rect id="XMLID_14696_" x="190" y="107.4" class="st3" width="5.4" height="23.8"/>
	</g>
	<g id="XMLID_14698_">
		<rect id="XMLID_14700_" x="163" y="198.4" width="32.4" height="26.3"/>
		<rect id="XMLID_14699_" x="190" y="199.6" class="st3" width="5.4" height="23.8"/>
	</g>
</g>
<g id="XMLID_14702_">
	<g id="XMLID_14709_">
		<rect id="XMLID_14711_" x="1196" y="13.9" width="32.4" height="26.3"/>
		<rect id="XMLID_14710_" x="1223" y="15.2" class="st3" width="5.4" height="23.8"/>
	</g>
	<g id="XMLID_14706_">
		<rect id="XMLID_14708_" x="1196" y="106.1" width="32.4" height="26.3"/>
		<rect id="XMLID_14707_" x="1223" y="107.4" class="st3" width="5.4" height="23.8"/>
	</g>
	<g id="XMLID_14703_">
		<rect id="XMLID_14705_" x="1196" y="198.4" width="32.4" height="26.3"/>
		<rect id="XMLID_14704_" x="1223" y="199.6" class="st3" width="5.4" height="23.8"/>
	</g>
</g>
</svg>
