<?xml version="1.0" encoding="utf-8"?>
<!-- Generator: Adobe Illustrator 16.0.0, SVG Export Plug-In . SVG Version: 6.00 Build 0)  -->
<!DOCTYPE svg PUBLIC "-//W3C//DTD SVG 1.1//EN" "http://www.w3.org/Graphics/SVG/1.1/DTD/svg11.dtd">
<svg version="1.1" id="图层_1" xmlns="http://www.w3.org/2000/svg" xmlns:xlink="http://www.w3.org/1999/xlink" x="0px" y="0px"
	 width="1276px" height="254.77px" viewBox="0 0 1276 254.77" enable-background="new 0 0 1276 254.77" xml:space="preserve">
<g>
	<g>
		<polygon fill="#7C7C7D" points="1.497,1.497 1.497,127.383 1.497,253.269 1274.503,253.269 1274.503,127.383 1274.503,1.497 		"/>
		<path fill="#161616" d="M1276,254.766H0V0h1276V254.766z M2.994,251.772h1270.012V2.994H2.994V251.772z"/>
	</g>
	<g>
		<path fill="#3E545E" stroke="#0B0A0A" stroke-miterlimit="10" d="M73.332,43.631c0,1.463-1.186,2.649-2.648,2.649H16.514
			c-1.462,0-2.649-1.186-2.649-2.649V14.276c0-1.462,1.187-2.648,2.649-2.648h54.169c1.462,0,2.648,1.186,2.648,2.648V43.631z"/>
		<rect x="18.436" y="22.664" fill="#D3D3D3" width="49.676" height="18.929"/>
		<polygon fill="#3E545E" points="17.036,22.131 69.511,22.131 69.511,42.126 68.46,42.126 68.46,40.878 67.579,40.878 
			67.579,42.126 66.483,42.126 66.483,40.628 65.614,40.628 65.614,42.126 64.515,42.126 64.515,39.958 63.646,39.958 
			63.646,42.126 62.549,42.126 62.549,38.506 61.68,38.506 61.68,42.126 60.582,42.126 60.582,36.428 59.711,36.428 59.711,42.126 
			58.614,42.126 58.614,32.911 57.734,32.911 57.734,42.126 56.647,42.126 56.647,28.814 55.768,28.814 55.768,42.126 
			54.669,42.126 54.669,32.911 53.8,32.911 53.8,42.126 52.703,42.126 52.703,36.428 51.834,36.428 51.834,42.126 50.736,42.126 
			50.736,38.506 49.865,38.506 49.865,42.126 48.768,42.126 48.768,39.958 47.899,39.958 47.899,42.126 46.801,42.126 
			46.801,40.628 45.922,40.628 45.922,42.126 44.823,42.126 44.823,40.878 43.954,40.878 43.954,42.126 42.868,42.126 
			42.868,40.878 41.999,40.878 41.999,42.126 40.9,42.126 40.9,40.628 40.031,40.628 40.031,42.126 38.934,42.126 38.934,39.958 
			38.065,39.958 38.065,42.126 36.967,42.126 36.967,38.506 36.098,38.506 36.098,42.126 35,42.126 35,36.428 34.119,36.428 
			34.119,42.126 33.021,42.126 33.021,32.911 32.152,32.911 32.152,42.126 31.054,42.126 31.054,28.814 30.186,28.814 
			30.186,42.126 29.087,42.126 29.087,32.911 28.219,32.911 28.219,42.126 27.121,42.126 27.121,36.428 26.252,36.428 
			26.252,42.126 25.154,42.126 25.154,38.506 24.285,38.506 24.285,42.126 23.188,42.126 23.188,39.958 22.307,39.958 
			22.307,42.126 21.209,42.126 21.209,40.628 20.341,40.628 20.341,42.126 19.243,42.126 19.243,40.878 18.374,40.878 
			18.374,42.126 17.036,42.126 		"/>
		<path fill="#955A89" d="M20.1,16.298h-1.337v-1.362c0-0.397-0.012-0.647-0.035-0.749c-0.034-0.102-0.093-0.147-0.183-0.147
			c-0.103,0-0.171,0.055-0.206,0.182c-0.024,0.113-0.034,0.374-0.034,0.771v3.654c0,0.386,0.01,0.636,0.034,0.75
			c0.035,0.113,0.091,0.169,0.195,0.169c0.101,0,0.16-0.056,0.183-0.169c0.034-0.114,0.045-0.398,0.045-0.829v-0.987H20.1v0.306
			c0,0.817-0.045,1.396-0.114,1.737c-0.081,0.34-0.239,0.636-0.491,0.897c-0.265,0.25-0.572,0.386-0.95,0.386
			c-0.389,0-0.708-0.114-0.959-0.329c-0.241-0.216-0.414-0.512-0.493-0.898c-0.079-0.385-0.125-0.963-0.125-1.734V15.65
			c0-0.567,0.011-0.998,0.035-1.282c0.022-0.283,0.103-0.556,0.228-0.818c0.127-0.259,0.297-0.464,0.515-0.623
			c0.229-0.147,0.48-0.216,0.767-0.216c0.389,0,0.71,0.114,0.96,0.341c0.263,0.239,0.424,0.521,0.504,0.874
			c0.08,0.352,0.125,0.884,0.125,1.622V16.298z"/>
		<rect x="21.815" y="15.037" fill="#955A89" width="1.223" height="5.867"/>
		<path fill="#955A89" d="M27.099,16.684h-1.132v-0.432c0-0.204-0.022-0.33-0.045-0.385c-0.023-0.057-0.083-0.079-0.139-0.079
			c-0.067,0-0.125,0.033-0.16,0.113c-0.032,0.067-0.056,0.183-0.056,0.33c0,0.204,0.024,0.351,0.068,0.442
			c0.035,0.103,0.16,0.228,0.343,0.364c0.539,0.409,0.87,0.737,1.007,0.999c0.137,0.25,0.217,0.668,0.217,1.248
			c0,0.42-0.046,0.726-0.126,0.919c-0.068,0.205-0.229,0.363-0.446,0.499c-0.229,0.136-0.48,0.205-0.777,0.205
			c-0.332,0-0.606-0.08-0.834-0.239c-0.229-0.147-0.377-0.352-0.457-0.59c-0.069-0.237-0.104-0.579-0.104-1.01V18.68h1.133v0.715
			c0,0.215,0.021,0.352,0.044,0.421c0.035,0.056,0.092,0.09,0.172,0.09c0.08,0,0.137-0.034,0.17-0.114
			c0.047-0.08,0.057-0.205,0.057-0.362c0-0.342-0.034-0.569-0.102-0.67c-0.081-0.114-0.276-0.284-0.573-0.533
			c-0.307-0.249-0.502-0.444-0.594-0.556c-0.103-0.113-0.183-0.261-0.251-0.465c-0.057-0.205-0.092-0.455-0.092-0.771
			c0-0.443,0.046-0.771,0.138-0.988c0.091-0.204,0.24-0.363,0.444-0.487c0.194-0.114,0.447-0.171,0.733-0.171
			c0.32,0,0.583,0.068,0.813,0.192c0.217,0.126,0.364,0.285,0.434,0.489c0.079,0.194,0.114,0.522,0.114,0.986V16.684z"/>
		<path fill="#955A89" d="M31.456,17.466h-1.109v-1.021c0-0.295-0.011-0.477-0.035-0.556c-0.023-0.068-0.069-0.104-0.149-0.104
			c-0.092,0-0.137,0.047-0.172,0.126c-0.023,0.091-0.033,0.284-0.033,0.59v2.712c0,0.295,0.01,0.478,0.033,0.568
			c0.035,0.08,0.08,0.125,0.172,0.125c0.068,0,0.125-0.046,0.149-0.125c0.023-0.09,0.035-0.295,0.035-0.625v-0.737h1.109v0.238
			c0,0.602-0.035,1.033-0.09,1.294c-0.07,0.25-0.208,0.477-0.413,0.67c-0.217,0.183-0.47,0.283-0.779,0.283
			c-0.331,0-0.594-0.079-0.8-0.249c-0.217-0.16-0.355-0.386-0.423-0.67c-0.057-0.284-0.092-0.715-0.092-1.295v-1.712
			c0-0.419,0-0.738,0.024-0.953c0.023-0.205,0.079-0.408,0.193-0.603c0.103-0.204,0.241-0.351,0.424-0.464
			c0.184-0.114,0.4-0.17,0.64-0.17c0.321,0,0.583,0.091,0.801,0.261c0.207,0.17,0.343,0.386,0.411,0.647
			c0.07,0.26,0.104,0.669,0.104,1.213V17.466z"/>
		<path fill="#955A89" d="M34.577,19.111c0,0.352-0.013,0.567-0.035,0.658c-0.022,0.091-0.068,0.137-0.148,0.137
			c-0.081,0-0.126-0.034-0.148-0.114c-0.024-0.08-0.035-0.295-0.035-0.635v-2.736c0-0.304,0.023-0.488,0.046-0.544
			c0.033-0.067,0.08-0.09,0.147-0.09c0.07,0,0.116,0.034,0.138,0.113c0.022,0.067,0.035,0.25,0.035,0.521V19.111z M35.811,17.341
			c0-0.601-0.011-1.021-0.034-1.271c-0.022-0.239-0.101-0.465-0.217-0.669c-0.126-0.204-0.285-0.352-0.491-0.454
			c-0.195-0.112-0.423-0.159-0.675-0.159c-0.263,0-0.491,0.057-0.698,0.159c-0.195,0.114-0.354,0.273-0.469,0.476
			c-0.113,0.194-0.185,0.421-0.206,0.671c-0.023,0.237-0.035,0.657-0.035,1.247v1.01c0,0.602,0.012,1.022,0.035,1.259
			c0.021,0.25,0.093,0.466,0.217,0.682c0.127,0.204,0.287,0.351,0.479,0.454c0.208,0.102,0.425,0.159,0.676,0.159
			c0.263,0,0.503-0.057,0.698-0.17c0.194-0.102,0.354-0.261,0.468-0.466c0.126-0.205,0.194-0.419,0.217-0.67
			c0.023-0.248,0.034-0.658,0.034-1.248V17.341z"/>
		<path fill="#955A89" d="M43.726,15.253h-1.224v-0.579c0-0.272-0.023-0.453-0.044-0.522c-0.037-0.079-0.082-0.114-0.15-0.114
			c-0.08,0-0.136,0.047-0.172,0.148c-0.045,0.102-0.067,0.25-0.067,0.453c0,0.272,0.022,0.466,0.067,0.603
			c0.057,0.124,0.172,0.283,0.378,0.476c0.583,0.545,0.937,0.987,1.087,1.329c0.158,0.352,0.228,0.907,0.228,1.679
			c0,0.556-0.034,0.976-0.126,1.237c-0.08,0.273-0.252,0.489-0.48,0.67c-0.241,0.182-0.525,0.272-0.846,0.272
			c-0.354,0-0.651-0.101-0.903-0.317c-0.251-0.204-0.413-0.466-0.492-0.782c-0.08-0.329-0.114-0.785-0.114-1.374v-0.512h1.235v0.955
			c0,0.293,0.012,0.487,0.045,0.566c0.035,0.091,0.103,0.125,0.183,0.125c0.09,0,0.149-0.045,0.194-0.16
			c0.035-0.102,0.056-0.261,0.056-0.476c0-0.465-0.033-0.761-0.113-0.909c-0.092-0.137-0.297-0.375-0.629-0.715
			c-0.319-0.329-0.537-0.579-0.641-0.727c-0.114-0.159-0.193-0.362-0.262-0.634c-0.081-0.272-0.115-0.614-0.115-1.034
			c0-0.6,0.057-1.043,0.149-1.315c0.102-0.284,0.262-0.5,0.491-0.659c0.218-0.159,0.48-0.227,0.8-0.227
			c0.344,0,0.63,0.08,0.881,0.25c0.229,0.17,0.389,0.385,0.458,0.646c0.08,0.262,0.125,0.705,0.125,1.329V15.253z"/>
		<path fill="#955A89" d="M48.025,15.037l-0.927,3.746v2.122H45.92v-2.122l-0.891-3.746h1.154c0.195,1.147,0.298,1.918,0.321,2.315
			c0.08-0.624,0.194-1.396,0.354-2.315H48.025z"/>
		<path fill="#955A89" d="M51.65,16.684h-1.053v-0.432c0-0.204-0.011-0.33-0.034-0.385c-0.035-0.057-0.067-0.079-0.137-0.079
			c-0.058,0-0.114,0.033-0.137,0.113c-0.034,0.067-0.058,0.183-0.058,0.33c0,0.204,0.023,0.351,0.058,0.442
			c0.045,0.103,0.148,0.228,0.32,0.364c0.492,0.409,0.813,0.737,0.938,0.999c0.127,0.25,0.194,0.668,0.194,1.248
			c0,0.42-0.034,0.726-0.102,0.919c-0.081,0.205-0.217,0.363-0.423,0.499c-0.206,0.136-0.446,0.205-0.719,0.205
			c-0.31,0-0.562-0.08-0.779-0.239c-0.205-0.147-0.343-0.352-0.411-0.59c-0.068-0.237-0.104-0.579-0.104-1.01V18.68h1.053v0.715
			c0,0.215,0.012,0.352,0.045,0.421c0.023,0.056,0.08,0.09,0.149,0.09c0.08,0,0.137-0.034,0.171-0.114
			c0.035-0.08,0.046-0.205,0.046-0.362c0-0.342-0.035-0.569-0.103-0.67c-0.067-0.114-0.24-0.284-0.525-0.533
			c-0.275-0.249-0.458-0.444-0.549-0.556c-0.092-0.113-0.173-0.261-0.23-0.465c-0.057-0.205-0.092-0.455-0.092-0.771
			c0-0.443,0.047-0.771,0.138-0.988c0.08-0.204,0.217-0.363,0.4-0.487c0.194-0.114,0.422-0.171,0.686-0.171
			c0.296,0,0.537,0.068,0.743,0.192c0.208,0.126,0.342,0.285,0.411,0.489c0.069,0.194,0.104,0.522,0.104,0.986V16.684z"/>
		<polygon fill="#955A89" points="55.744,15.037 55.744,16.218 55.081,16.218 55.081,20.904 53.948,20.904 53.948,16.218 
			53.286,16.218 53.286,15.037 		"/>
		<polygon fill="#955A89" points="57.631,15.037 59.678,15.037 59.678,16.218 58.865,16.218 58.865,17.318 59.633,17.318 
			59.633,18.443 58.865,18.443 58.865,19.725 59.758,19.725 59.758,20.904 57.631,20.904 		"/>
		<path fill="#955A89" d="M65.236,15.037v5.867h-0.982l-0.013-3.96l-0.387,3.96h-0.699l-0.412-3.869v3.869h-0.995v-5.867h1.464
			c0.047,0.352,0.092,0.772,0.138,1.248l0.161,1.487l0.251-2.735H65.236z"/>
		<path fill="#955A89" d="M69.342,16.684H68.29v-0.432c0-0.204-0.012-0.33-0.035-0.385c-0.022-0.057-0.068-0.079-0.128-0.079
			c-0.067,0-0.112,0.033-0.146,0.113c-0.035,0.067-0.046,0.183-0.046,0.33c0,0.204,0.011,0.351,0.057,0.442
			c0.034,0.103,0.15,0.228,0.32,0.364c0.491,0.409,0.799,0.737,0.926,0.999c0.138,0.25,0.195,0.668,0.195,1.248
			c0,0.42-0.035,0.726-0.104,0.919c-0.068,0.205-0.218,0.363-0.423,0.499c-0.204,0.136-0.446,0.205-0.72,0.205
			c-0.296,0-0.561-0.08-0.766-0.239c-0.218-0.147-0.355-0.352-0.422-0.59c-0.07-0.237-0.093-0.579-0.093-1.01V18.68h1.041v0.715
			c0,0.215,0.022,0.352,0.045,0.421c0.034,0.056,0.081,0.09,0.16,0.09c0.069,0,0.125-0.034,0.16-0.114
			c0.035-0.08,0.057-0.205,0.057-0.362c0-0.342-0.035-0.569-0.104-0.67c-0.079-0.114-0.25-0.284-0.526-0.533
			c-0.285-0.249-0.47-0.444-0.559-0.556c-0.093-0.113-0.163-0.261-0.218-0.465c-0.069-0.205-0.093-0.455-0.093-0.771
			c0-0.443,0.046-0.771,0.128-0.988c0.079-0.204,0.215-0.363,0.41-0.487c0.184-0.114,0.412-0.171,0.674-0.171
			c0.298,0,0.55,0.068,0.756,0.192c0.206,0.126,0.343,0.285,0.413,0.489c0.056,0.194,0.091,0.522,0.091,0.986V16.684z"/>
	</g>
	
		<text transform="matrix(1.1262 0 0 1 80.8789 42.6377)" fill="#FFFFFF" stroke="#FFFFFF" stroke-miterlimit="10" font-family="'NSimSun'" font-size="25.5603">Cisco AS5400</text>
	<g>
		<g>
			<g>
				<circle fill="#101111" cx="350.877" cy="127.383" r="112.989"/>
			</g>
			<g>
				<path fill="#7C7C7D" d="M350.815,207.199c-17.567,0-34.93-5.963-48.889-16.79c-14.385-11.158-24.27-26.427-28.585-44.156
					c-5.041-20.711-1.714-42.144,9.366-60.353c11.08-18.208,28.589-31.012,49.299-36.053c6.219-1.514,12.588-2.281,18.932-2.281
					c17.568,0,34.93,5.963,48.889,16.79c14.386,11.158,24.271,26.427,28.585,44.155c5.041,20.71,1.714,42.144-9.365,60.353
					c-11.081,18.209-28.588,31.014-49.299,36.055C363.529,206.432,357.159,207.199,350.815,207.199z M350.938,53.978
					c-5.833,0-11.692,0.707-17.417,2.099c-19.046,4.636-35.147,16.411-45.337,33.157s-13.249,36.458-8.613,55.503
					c8.032,33.002,37.329,56.051,71.244,56.051c5.833,0,11.693-0.707,17.417-2.1c19.046-4.636,35.147-16.411,45.337-33.156
					c10.19-16.746,13.249-36.459,8.613-55.504C414.15,77.027,384.854,53.978,350.938,53.978z"/>
			</g>
			<g>
				<path fill="#7C7C7D" d="M350.215,230.028c-22.381,0-44.5-7.598-62.284-21.393c-18.328-14.215-30.921-33.668-36.417-56.253
					c-6.421-26.385-2.184-53.69,11.932-76.889c14.117-23.198,36.421-39.51,62.806-45.931c7.923-1.929,16.039-2.906,24.119-2.906
					c22.381,0,44.5,7.596,62.284,21.391c18.327,14.215,30.92,33.667,36.417,56.253c6.421,26.384,2.184,53.691-11.932,76.889
					c-14.117,23.198-36.421,39.511-62.807,45.932C366.411,229.05,358.295,230.028,350.215,230.028z M350.371,33.068
					c-7.57,0-15.175,0.917-22.604,2.725c-51.031,12.42-82.444,64.042-70.023,115.073c10.424,42.834,48.45,72.75,92.471,72.75
					c7.57,0,15.175-0.917,22.603-2.725c51.032-12.421,82.445-64.043,70.024-115.075C432.417,62.983,394.392,33.068,350.371,33.068z"
					/>
			</g>
			<g>
				<defs>
					<circle id="SVGID_1_" cx="350.877" cy="127.383" r="112.989"/>
				</defs>
				<clipPath id="SVGID_2_">
					<use xlink:href="#SVGID_1_"  overflow="visible"/>
				</clipPath>
				<g clip-path="url(#SVGID_2_)">
					<polygon fill="#7C7C7D" points="298.281,26.838 299.831,99.051 294.463,140.267 237.12,108.658 236.136,123.981 
						293.471,156.849 331,183.224 273.69,217.599 289.841,228.438 353.405,188.77 386.947,174.558 388.05,238.158 402.7,231.529 
						402.034,151.324 406.292,118.47 463.344,152.428 467.269,137.567 406.298,102.678 370.621,76.166 428.597,41.943 
						413.618,33.334 346.205,72.68 313.396,85.066 314.838,16.331 					"/>
				</g>
			</g>
		</g>
		<g>
			<g>
				<circle fill="#101111" cx="596.608" cy="127.382" r="112.99"/>
			</g>
			<g>
				<path fill="#7C7C7D" d="M596.623,207.182c-0.25,0-0.496-0.001-0.745-0.003c-21.314-0.195-41.277-8.68-56.211-23.889
					c-14.933-15.209-23.05-35.324-22.854-56.639c0.194-21.184,8.59-41.06,23.643-55.966c15.042-14.897,34.979-23.102,56.138-23.102
					c0.25,0,0.496,0.001,0.746,0.003c44,0.403,79.468,36.527,79.064,80.526c-0.194,21.184-8.591,41.06-23.643,55.967
					C637.718,198.978,617.781,207.182,596.623,207.182z M596.593,53.996c-40.088,0-73.001,32.62-73.369,72.714
					c-0.18,19.602,7.285,38.101,21.018,52.088c13.734,13.987,32.093,21.789,51.694,21.969c0.23,0.002,0.457,0.004,0.687,0.004
					c40.089,0,73.001-32.621,73.368-72.716c0.371-40.464-32.247-73.685-72.711-74.056C597.05,53.997,596.823,53.996,596.593,53.996z
					"/>
			</g>
			<g>
				<path fill="#7C7C7D" d="M595.824,229.833c-0.317,0-0.629-0.002-0.949-0.004c-27.154-0.25-52.585-11.059-71.61-30.435
					c-19.025-19.376-29.366-45.003-29.117-72.157c0.248-26.987,10.944-52.308,30.121-71.3c19.164-18.979,44.563-29.431,71.52-29.431
					c0.317,0,0.631,0.002,0.949,0.005c27.154,0.248,52.585,11.057,71.611,30.433c19.025,19.377,29.365,45.003,29.117,72.157
					c-0.247,26.987-10.945,52.309-30.121,71.301C648.18,219.38,622.781,229.833,595.824,229.833z M595.789,32.919
					c-52.033,0-94.751,42.337-95.229,94.377c-0.481,52.52,41.855,95.639,94.375,96.121c0.299,0.002,0.591,0.003,0.89,0.003
					c52.034,0,94.753-42.337,95.229-94.379c0.232-25.44-9.455-49.45-27.281-67.604c-17.824-18.155-41.652-28.281-67.093-28.514
					C596.38,32.92,596.086,32.919,595.789,32.919z"/>
			</g>
			<g>
				<defs>
					<circle id="SVGID_3_" cx="596.608" cy="127.382" r="112.99"/>
				</defs>
				<clipPath id="SVGID_4_">
					<use xlink:href="#SVGID_3_"  overflow="visible"/>
				</clipPath>
				<g clip-path="url(#SVGID_4_)">
					<polygon fill="#7C7C7D" points="570.291,17.007 554.074,87.392 538.757,126.03 490.923,81.318 486.209,95.931 533.728,141.862 
						563.638,176.64 499.645,195.901 512.642,210.372 583.996,187.514 620,181.966 605.464,243.894 621.293,241.062 
						640.326,163.145 652.517,132.339 699.492,179.258 706.942,165.815 656.397,117.032 628.316,82.576 692.917,63.626 
						680.507,51.604 605.501,73.207 570.656,77.163 588.921,10.883 					"/>
				</g>
			</g>
		</g>
		<g>
			<g>
				<circle fill="#101111" cx="877.396" cy="127.382" r="112.989"/>
			</g>
			<g>
				<path fill="#7C7C7D" d="M877.429,207.202c-32.227,0-61.117-19.197-73.602-48.906c-17.045-40.565,2.091-87.436,42.656-104.481
					c9.871-4.147,20.26-6.25,30.879-6.25c32.229,0,61.117,19.197,73.602,48.906c17.045,40.565-2.09,87.436-42.654,104.48
					C898.438,205.099,888.049,207.202,877.429,207.202z M877.362,53.976c-9.762,0-19.315,1.935-28.396,5.75
					c-37.306,15.676-54.903,58.78-39.228,96.085c11.482,27.322,38.051,44.978,67.689,44.978c9.762,0,19.316-1.935,28.396-5.75
					c37.307-15.676,54.903-58.779,39.228-96.086C933.571,71.63,907.002,53.976,877.362,53.976z"/>
			</g>
			<g>
				<path fill="#7C7C7D" d="M877.015,230.11c-41.057,0-77.863-24.456-93.768-62.306c-10.52-25.035-10.66-52.667-0.396-77.808
					c10.264-25.141,29.703-44.78,54.738-55.299c12.575-5.285,25.813-7.963,39.341-7.963c41.058,0,77.863,24.456,93.768,62.304
					c10.519,25.035,10.659,52.667,0.396,77.808s-29.703,44.78-54.738,55.301C903.779,227.431,890.544,230.11,877.015,230.11z
					 M876.93,33.146c-12.671,0-25.072,2.511-36.856,7.463c-48.421,20.347-71.262,76.292-50.916,124.711
					c14.902,35.464,49.389,58.378,87.857,58.378c12.671,0,25.071-2.511,36.856-7.463c48.421-20.346,71.261-76.292,50.915-124.712
					C949.884,56.06,915.398,33.146,876.93,33.146z"/>
			</g>
			<g>
				<defs>
					<circle id="SVGID_5_" cx="877.396" cy="127.382" r="112.989"/>
				</defs>
				<clipPath id="SVGID_6_">
					<use xlink:href="#SVGID_5_"  overflow="visible"/>
				</clipPath>
				<g clip-path="url(#SVGID_6_)">
					<polygon fill="#7C7C7D" points="809.54,36.437 822.507,107.493 823.735,149.039 762.109,126.911 763.565,142.197 
						825.382,165.568 866.615,185.667 815.472,228.685 833.136,236.829 889.615,187.595 920.483,168.248 931.646,230.872 
						945.061,222.007 931.699,142.919 930.701,109.805 992.41,134.298 993.933,119.004 928.205,94.211 888.779,73.684 
						940.603,30.712 924.449,24.583 864.118,74.111 833.686,91.536 824.224,23.44 					"/>
				</g>
			</g>
		</g>
		<g>
			<g>
				<circle fill="#101111" cx="1123.115" cy="127.382" r="112.99"/>
			</g>
			<g>
				<path fill="#7C7C7D" d="M1123.021,207.191c-18.968,0-37.388-6.833-51.863-19.241c-14.618-12.53-24.208-29.936-27-49.01
					c-6.373-43.537,23.862-84.142,67.399-90.516c3.859-0.565,7.781-0.852,11.653-0.852c18.968,0,37.386,6.833,51.862,19.241
					c14.619,12.53,24.207,29.936,26.999,49.01c3.089,21.09-2.222,42.12-14.952,59.216c-12.729,17.096-31.355,28.213-52.445,31.3
					C1130.815,206.905,1126.894,207.191,1123.021,207.191z M1123.211,53.986c-3.563,0-7.171,0.263-10.725,0.784
					c-40.039,5.861-67.845,43.204-61.983,83.243c5.238,35.783,36.414,62.768,72.519,62.768c3.563,0,7.171-0.264,10.725-0.784
					c19.396-2.839,36.524-13.063,48.231-28.785c11.707-15.722,16.591-35.063,13.751-54.459
					C1190.491,80.97,1159.315,53.986,1123.211,53.986z"/>
			</g>
			<g>
				<path fill="#7C7C7D" d="M1122.323,229.959c-24.165,0-47.629-8.706-66.07-24.513c-18.625-15.963-30.841-38.138-34.398-62.438
					c-3.934-26.868,2.833-53.66,19.051-75.44c16.217-21.78,39.946-35.941,66.814-39.875c4.919-0.72,9.914-1.084,14.85-1.084
					c24.164,0,47.628,8.705,66.07,24.512c18.623,15.964,30.84,38.138,34.396,62.438c3.934,26.867-2.832,53.66-19.05,75.441
					c-16.218,21.78-39.946,35.941-66.815,39.875C1132.253,229.594,1127.258,229.959,1122.323,229.959z M1122.569,33.02
					c-4.625,0-9.309,0.343-13.921,1.018c-25.174,3.686-47.406,16.953-62.601,37.36c-15.195,20.407-21.533,45.509-17.849,70.682
					c6.8,46.445,47.265,81.468,94.124,81.468c4.625,0,9.308-0.343,13.919-1.017c51.968-7.608,88.058-56.077,80.45-108.044
					C1209.894,68.042,1169.429,33.02,1122.569,33.02z"/>
			</g>
			<g>
				<defs>
					<circle id="SVGID_7_" cx="1123.115" cy="127.382" r="112.99"/>
				</defs>
				<clipPath id="SVGID_8_">
					<use xlink:href="#SVGID_7_"  overflow="visible"/>
				</clipPath>
				<g clip-path="url(#SVGID_8_)">
					<polygon fill="#7C7C7D" points="1080.125,22.372 1074.935,94.414 1065.747,134.95 1011.601,98.132 1009.192,113.297 
						1063.214,151.367 1098.12,181.128 1037.853,210.007 1052.923,222.306 1119.909,188.737 1154.63,177.714 1149.798,241.142 
						1165.002,235.907 1171.817,155.989 1179.122,123.676 1232.758,162.806 1238.052,148.376 1180.601,107.953 1147.55,78.229 
						1208.466,49.563 1194.354,39.594 1123.565,72.483 1089.743,81.755 1097.591,13.454 					"/>
				</g>
			</g>
		</g>
	</g>
	<text transform="matrix(1.1262 0 0 1 247.5645 42.6372)" fill="#FFFFFF" font-family="'NSimSun'" font-size="7.2686">SERIES</text>
	<path fill="#202121" d="M18.963,116.947c0,2.014-1.296,3.648-2.895,3.648h-0.964c-1.598,0-2.894-1.634-2.894-3.648V73.172
		c0-2.015,1.296-3.648,2.894-3.648h0.964c1.599,0,2.895,1.633,2.895,3.648V116.947z"/>
	<path fill="#202121" d="M18.963,173.15c0,2.016-1.296,3.649-2.895,3.649h-0.964c-1.598,0-2.894-1.634-2.894-3.649v-43.773
		c0-2.015,1.296-3.649,2.894-3.649h0.964c1.599,0,2.895,1.635,2.895,3.649V173.15z"/>
	<path fill="#202121" d="M18.963,229.355c0,2.015-1.296,3.647-2.895,3.647h-0.964c-1.598,0-2.894-1.633-2.894-3.647v-43.774
		c0-2.014,1.296-3.648,2.894-3.648h0.964c1.599,0,2.895,1.635,2.895,3.648V229.355z"/>
	<path fill="#202121" d="M29.681,116.947c0,2.014-1.295,3.648-2.894,3.648h-0.964c-1.598,0-2.894-1.634-2.894-3.648V73.172
		c0-2.015,1.296-3.648,2.894-3.648h0.964c1.599,0,2.894,1.633,2.894,3.648V116.947z"/>
	<path fill="#202121" d="M29.681,173.15c0,2.016-1.295,3.649-2.894,3.649h-0.964c-1.598,0-2.894-1.634-2.894-3.649v-43.773
		c0-2.015,1.296-3.649,2.894-3.649h0.964c1.599,0,2.894,1.635,2.894,3.649V173.15z"/>
	<path fill="#202121" d="M29.681,229.355c0,2.015-1.295,3.647-2.894,3.647h-0.964c-1.598,0-2.894-1.633-2.894-3.647v-43.774
		c0-2.014,1.296-3.648,2.894-3.648h0.964c1.599,0,2.894,1.635,2.894,3.648V229.355z"/>
	<path fill="#202121" d="M40.397,116.947c0,2.014-1.295,3.648-2.894,3.648h-0.965c-1.598,0-2.893-1.634-2.893-3.648V73.172
		c0-2.015,1.295-3.648,2.893-3.648h0.965c1.598,0,2.894,1.633,2.894,3.648V116.947z"/>
	<path fill="#202121" d="M40.397,173.15c0,2.016-1.295,3.649-2.894,3.649h-0.965c-1.598,0-2.893-1.634-2.893-3.649v-43.773
		c0-2.015,1.295-3.649,2.893-3.649h0.965c1.598,0,2.894,1.635,2.894,3.649V173.15z"/>
	<path fill="#202121" d="M40.397,229.355c0,2.015-1.295,3.647-2.894,3.647h-0.965c-1.598,0-2.893-1.633-2.893-3.647v-43.774
		c0-2.014,1.295-3.648,2.893-3.648h0.965c1.598,0,2.894,1.635,2.894,3.648V229.355z"/>
	<path fill="#202121" d="M51.115,116.947c0,2.014-1.295,3.648-2.894,3.648h-0.965c-1.598,0-2.894-1.634-2.894-3.648V73.172
		c0-2.015,1.295-3.648,2.894-3.648h0.965c1.598,0,2.894,1.633,2.894,3.648V116.947z"/>
	<path fill="#202121" d="M51.115,173.15c0,2.016-1.295,3.649-2.894,3.649h-0.965c-1.598,0-2.894-1.634-2.894-3.649v-43.773
		c0-2.015,1.295-3.649,2.894-3.649h0.965c1.598,0,2.894,1.635,2.894,3.649V173.15z"/>
	<path fill="#202121" d="M51.115,229.355c0,2.015-1.295,3.647-2.894,3.647h-0.965c-1.598,0-2.894-1.633-2.894-3.647v-43.774
		c0-2.014,1.295-3.648,2.894-3.648h0.965c1.598,0,2.894,1.635,2.894,3.648V229.355z"/>
	<path fill="#202121" d="M61.832,116.947c0,2.014-1.295,3.648-2.893,3.648h-0.965c-1.598,0-2.894-1.634-2.894-3.648V73.172
		c0-2.015,1.295-3.648,2.894-3.648h0.965c1.598,0,2.893,1.633,2.893,3.648V116.947z"/>
	<path fill="#202121" d="M61.832,173.15c0,2.016-1.295,3.649-2.893,3.649h-0.965c-1.598,0-2.894-1.634-2.894-3.649v-43.773
		c0-2.015,1.295-3.649,2.894-3.649h0.965c1.598,0,2.893,1.635,2.893,3.649V173.15z"/>
	<path fill="#202121" d="M61.832,229.355c0,2.015-1.295,3.647-2.893,3.647h-0.965c-1.598,0-2.894-1.633-2.894-3.647v-43.774
		c0-2.014,1.295-3.648,2.894-3.648h0.965c1.598,0,2.893,1.635,2.893,3.648V229.355z"/>
	<path fill="#202121" d="M72.549,116.947c0,2.014-1.295,3.648-2.894,3.648h-0.964c-1.598,0-2.894-1.634-2.894-3.648V73.172
		c0-2.015,1.296-3.648,2.894-3.648h0.964c1.598,0,2.894,1.633,2.894,3.648V116.947z"/>
	<path fill="#202121" d="M72.549,173.15c0,2.016-1.295,3.649-2.894,3.649h-0.964c-1.598,0-2.894-1.634-2.894-3.649v-43.773
		c0-2.015,1.296-3.649,2.894-3.649h0.964c1.598,0,2.894,1.635,2.894,3.649V173.15z"/>
	<path fill="#202121" d="M72.549,229.355c0,2.015-1.295,3.647-2.894,3.647h-0.964c-1.598,0-2.894-1.633-2.894-3.647v-43.774
		c0-2.014,1.296-3.648,2.894-3.648h0.964c1.598,0,2.894,1.635,2.894,3.648V229.355z"/>
	<path fill="#202121" d="M83.267,116.947c0,2.014-1.295,3.648-2.894,3.648h-0.965c-1.598,0-2.894-1.634-2.894-3.648V73.172
		c0-2.015,1.295-3.648,2.894-3.648h0.965c1.598,0,2.894,1.633,2.894,3.648V116.947z"/>
	<path fill="#202121" d="M83.267,173.15c0,2.016-1.295,3.649-2.894,3.649h-0.965c-1.598,0-2.894-1.634-2.894-3.649v-43.773
		c0-2.015,1.295-3.649,2.894-3.649h0.965c1.598,0,2.894,1.635,2.894,3.649V173.15z"/>
	<path fill="#202121" d="M83.267,229.355c0,2.015-1.295,3.647-2.894,3.647h-0.965c-1.598,0-2.894-1.633-2.894-3.647v-43.774
		c0-2.014,1.295-3.648,2.894-3.648h0.965c1.598,0,2.894,1.635,2.894,3.648V229.355z"/>
	<path fill="#202121" d="M93.984,116.947c0,2.014-1.295,3.648-2.894,3.648h-0.964c-1.598,0-2.894-1.634-2.894-3.648V73.172
		c0-2.015,1.295-3.648,2.894-3.648h0.964c1.599,0,2.894,1.633,2.894,3.648V116.947z"/>
	<path fill="#202121" d="M93.984,173.15c0,2.016-1.295,3.649-2.894,3.649h-0.964c-1.598,0-2.894-1.634-2.894-3.649v-43.773
		c0-2.015,1.295-3.649,2.894-3.649h0.964c1.599,0,2.894,1.635,2.894,3.649V173.15z"/>
	<path fill="#202121" d="M93.984,229.355c0,2.015-1.295,3.647-2.894,3.647h-0.964c-1.598,0-2.894-1.633-2.894-3.647v-43.774
		c0-2.014,1.295-3.648,2.894-3.648h0.964c1.599,0,2.894,1.635,2.894,3.648V229.355z"/>
	<path fill="#202121" d="M104.701,116.947c0,2.014-1.295,3.648-2.894,3.648h-0.965c-1.598,0-2.894-1.634-2.894-3.648V73.172
		c0-2.015,1.295-3.648,2.894-3.648h0.965c1.598,0,2.894,1.633,2.894,3.648V116.947z"/>
	<path fill="#202121" d="M104.701,173.15c0,2.016-1.295,3.649-2.894,3.649h-0.965c-1.598,0-2.894-1.634-2.894-3.649v-43.773
		c0-2.015,1.295-3.649,2.894-3.649h0.965c1.598,0,2.894,1.635,2.894,3.649V173.15z"/>
	<path fill="#202121" d="M104.701,229.355c0,2.015-1.295,3.647-2.894,3.647h-0.965c-1.598,0-2.894-1.633-2.894-3.647v-43.774
		c0-2.014,1.295-3.648,2.894-3.648h0.965c1.598,0,2.894,1.635,2.894,3.648V229.355z"/>
	<path fill="#202121" d="M115.418,116.947c0,2.014-1.295,3.648-2.894,3.648h-0.965c-1.598,0-2.894-1.634-2.894-3.648V73.172
		c0-2.015,1.295-3.648,2.894-3.648h0.965c1.598,0,2.894,1.633,2.894,3.648V116.947z"/>
	<path fill="#202121" d="M115.418,173.15c0,2.016-1.295,3.649-2.894,3.649h-0.965c-1.598,0-2.894-1.634-2.894-3.649v-43.773
		c0-2.015,1.295-3.649,2.894-3.649h0.965c1.598,0,2.894,1.635,2.894,3.649V173.15z"/>
	<path fill="#202121" d="M115.418,229.355c0,2.015-1.295,3.647-2.894,3.647h-0.965c-1.598,0-2.894-1.633-2.894-3.647v-43.774
		c0-2.014,1.295-3.648,2.894-3.648h0.965c1.598,0,2.894,1.635,2.894,3.648V229.355z"/>
	<path fill="#202121" d="M126.135,116.947c0,2.014-1.295,3.648-2.894,3.648h-0.964c-1.598,0-2.894-1.634-2.894-3.648V73.172
		c0-2.015,1.296-3.648,2.894-3.648h0.964c1.598,0,2.894,1.633,2.894,3.648V116.947z"/>
	<path fill="#202121" d="M126.135,173.15c0,2.016-1.295,3.649-2.894,3.649h-0.964c-1.598,0-2.894-1.634-2.894-3.649v-43.773
		c0-2.015,1.296-3.649,2.894-3.649h0.964c1.598,0,2.894,1.635,2.894,3.649V173.15z"/>
	<path fill="#202121" d="M126.135,229.355c0,2.015-1.295,3.647-2.894,3.647h-0.964c-1.598,0-2.894-1.633-2.894-3.647v-43.774
		c0-2.014,1.296-3.648,2.894-3.648h0.964c1.598,0,2.894,1.635,2.894,3.648V229.355z"/>
	<path fill="#202121" d="M136.853,116.947c0,2.014-1.295,3.648-2.893,3.648h-0.965c-1.598,0-2.894-1.634-2.894-3.648V73.172
		c0-2.015,1.295-3.648,2.894-3.648h0.965c1.598,0,2.893,1.633,2.893,3.648V116.947z"/>
	<path fill="#202121" d="M136.853,173.15c0,2.016-1.295,3.649-2.893,3.649h-0.965c-1.598,0-2.894-1.634-2.894-3.649v-43.773
		c0-2.015,1.295-3.649,2.894-3.649h0.965c1.598,0,2.893,1.635,2.893,3.649V173.15z"/>
	<path fill="#202121" d="M136.853,229.355c0,2.015-1.295,3.647-2.893,3.647h-0.965c-1.598,0-2.894-1.633-2.894-3.647v-43.774
		c0-2.014,1.295-3.648,2.894-3.648h0.965c1.598,0,2.893,1.635,2.893,3.648V229.355z"/>
	<path fill="#202121" d="M147.57,116.947c0,2.014-1.296,3.648-2.894,3.648h-0.964c-1.599,0-2.894-1.634-2.894-3.648V73.172
		c0-2.015,1.295-3.648,2.894-3.648h0.964c1.598,0,2.894,1.633,2.894,3.648V116.947z"/>
	<path fill="#202121" d="M147.57,173.15c0,2.016-1.296,3.649-2.894,3.649h-0.964c-1.599,0-2.894-1.634-2.894-3.649v-43.773
		c0-2.015,1.295-3.649,2.894-3.649h0.964c1.598,0,2.894,1.635,2.894,3.649V173.15z"/>
	<path fill="#202121" d="M147.57,229.355c0,2.015-1.296,3.647-2.894,3.647h-0.964c-1.599,0-2.894-1.633-2.894-3.647v-43.774
		c0-2.014,1.295-3.648,2.894-3.648h0.964c1.598,0,2.894,1.635,2.894,3.648V229.355z"/>
	<path fill="#202121" d="M158.288,116.947c0,2.014-1.295,3.648-2.894,3.648h-0.964c-1.598,0-2.894-1.634-2.894-3.648V73.172
		c0-2.015,1.295-3.648,2.894-3.648h0.964c1.599,0,2.894,1.633,2.894,3.648V116.947z"/>
	<path fill="#202121" d="M158.288,173.15c0,2.016-1.295,3.649-2.894,3.649h-0.964c-1.598,0-2.894-1.634-2.894-3.649v-43.773
		c0-2.015,1.295-3.649,2.894-3.649h0.964c1.599,0,2.894,1.635,2.894,3.649V173.15z"/>
	<path fill="#202121" d="M158.288,229.355c0,2.015-1.295,3.647-2.894,3.647h-0.964c-1.598,0-2.894-1.633-2.894-3.647v-43.774
		c0-2.014,1.295-3.648,2.894-3.648h0.964c1.599,0,2.894,1.635,2.894,3.648V229.355z"/>
	<path fill="#202121" d="M169.004,116.947c0,2.014-1.295,3.648-2.894,3.648h-0.965c-1.598,0-2.893-1.634-2.893-3.648V73.172
		c0-2.015,1.295-3.648,2.893-3.648h0.965c1.598,0,2.894,1.633,2.894,3.648V116.947z"/>
	<path fill="#202121" d="M169.004,173.15c0,2.016-1.295,3.649-2.894,3.649h-0.965c-1.598,0-2.893-1.634-2.893-3.649v-43.773
		c0-2.015,1.295-3.649,2.893-3.649h0.965c1.598,0,2.894,1.635,2.894,3.649V173.15z"/>
	<path fill="#202121" d="M169.004,229.355c0,2.015-1.295,3.647-2.894,3.647h-0.965c-1.598,0-2.893-1.633-2.893-3.647v-43.774
		c0-2.014,1.295-3.648,2.893-3.648h0.965c1.598,0,2.894,1.635,2.894,3.648V229.355z"/>
	<circle fill="#E4D243" cx="204.292" cy="78.503" r="19.592"/>
</g>
</svg>
