<?xml version="1.0" encoding="utf-8"?>
<!-- Generator: Adobe Illustrator 16.0.0, SVG Export Plug-In . SVG Version: 6.00 Build 0)  -->
<!DOCTYPE svg PUBLIC "-//W3C//DTD SVG 1.1//EN" "http://www.w3.org/Graphics/SVG/1.1/DTD/svg11.dtd">
<svg version="1.1" id="图层_1" xmlns="http://www.w3.org/2000/svg" xmlns:xlink="http://www.w3.org/1999/xlink" x="0px" y="0px"
	 width="1275.59px" height="126.14px" viewBox="0 0 1275.59 126.14" enable-background="new 0 0 1275.59 126.14"
	 xml:space="preserve">
<g>
	<g>
		<rect fill="#E2DDD6" width="1275.59" height="126.143"/>
	</g>
	<g>
		<path fill="#717070" d="M768.982,101.738c-3.17,3.535-8.609,3.828-12.15,0.656c-3.537-3.174-3.836-8.613-0.666-12.15
			c3.17-3.535,8.609-3.828,12.15-0.656C771.854,92.762,772.154,98.201,768.982,101.738"/>
		<path fill="#E0E0E0" d="M768.982,99.264c-3.17,3.537-8.609,3.83-12.15,0.658c-3.537-3.174-3.836-8.615-0.666-12.15
			s8.609-3.83,12.15-0.656C771.854,90.289,772.154,95.729,768.982,99.264"/>
		
			<ellipse transform="matrix(0.7445 0.6676 -0.6676 0.7445 257.2524 -485.2007)" fill="none" stroke="#888888" stroke-miterlimit="10" cx="762.574" cy="93.518" rx="8.607" ry="8.602"/>
		<polygon fill="#D1D1D1" points="758.531,96.439 761.078,93.6 758.236,91.051 759.65,89.473 762.492,92.021 765.039,89.182 
			766.617,90.598 764.07,93.438 766.914,95.986 765.5,97.564 762.656,95.014 760.109,97.854 		"/>
		<path fill="#AEADAD" d="M766.357,90.611l-2.301,2.566l-0.244,0.273l0.273,0.246L766.654,96l-1.168,1.305L762.916,95l-0.273-0.246
			l-0.244,0.273l-2.303,2.568l-1.303-1.17l2.301-2.568l0.244-0.273l-0.273-0.244l-2.568-2.305l1.168-1.303l2.568,2.305l0.273,0.244
			l0.246-0.273l2.303-2.566L766.357,90.611z M766.877,90.584l-1.852-1.66l-2.547,2.84l-2.842-2.549l-1.658,1.85l2.84,2.547
			l-2.545,2.842l1.852,1.66l2.547-2.84l2.842,2.549l1.658-1.852l-2.842-2.547L766.877,90.584z"/>
	</g>
	<g>
		<path fill="#717070" d="M309.044,101.738c-3.17,3.535-8.611,3.828-12.151,0.656c-3.538-3.174-3.836-8.613-0.667-12.15
			c3.17-3.535,8.61-3.828,12.15-0.656C311.916,92.762,312.215,98.201,309.044,101.738"/>
		<path fill="#E0E0E0" d="M309.044,99.264c-3.17,3.537-8.611,3.83-12.151,0.658c-3.538-3.174-3.836-8.615-0.667-12.15
			c3.17-3.535,8.61-3.83,12.15-0.656C311.916,90.289,312.215,95.729,309.044,99.264"/>
		
			<ellipse transform="matrix(0.7446 0.6676 -0.6676 0.7446 139.7331 -178.1377)" fill="none" stroke="#888888" stroke-miterlimit="10" cx="302.635" cy="93.518" rx="8.608" ry="8.601"/>
		<polygon fill="#D1D1D1" points="298.594,96.439 301.14,93.6 298.297,91.051 299.711,89.473 302.553,92.021 305.101,89.182 
			306.679,90.598 304.131,93.438 306.975,95.986 305.562,97.564 302.717,95.014 300.171,97.854 		"/>
		<path fill="#AEADAD" d="M306.419,90.611l-2.302,2.566l-0.244,0.273l0.273,0.246l2.57,2.303l-1.168,1.305L302.977,95l-0.273-0.246
			l-0.245,0.273l-2.302,2.568l-1.303-1.17l2.301-2.568l0.244-0.273l-0.272-0.244l-2.569-2.305l1.168-1.303l2.569,2.303l0.273,0.246
			l0.246-0.273l2.302-2.566L306.419,90.611z M306.938,90.584l-1.851-1.66l-2.546,2.84l-2.843-2.549l-1.658,1.85l2.841,2.547
			l-2.546,2.842l1.851,1.66l2.547-2.84l2.843,2.549l1.658-1.852l-2.843-2.547L306.938,90.584z"/>
	</g>
	<g>
		<g>
			<path fill="#303030" d="M60.108,6.604c1.736,0,3.146,1.326,3.146,2.965V19.83c0,1.637-1.409,2.965-3.146,2.965l0,0
				c-1.736,0-3.145-1.328-3.145-2.965V9.568C56.964,7.93,58.372,6.604,60.108,6.604L60.108,6.604z"/>
			<path fill="#303030" d="M70.782,6.604c1.736,0,3.146,1.326,3.146,2.965V19.83c0,1.637-1.409,2.965-3.146,2.965l0,0
				c-1.736,0-3.145-1.328-3.145-2.965V9.568C67.638,7.93,69.046,6.604,70.782,6.604L70.782,6.604z"/>
		</g>
		<g>
			<path fill="#303030" d="M60.108,30.789c1.736,0,3.146,1.326,3.146,2.965v10.262c0,1.637-1.409,2.965-3.146,2.965l0,0
				c-1.736,0-3.145-1.328-3.145-2.965V33.754C56.964,32.115,58.372,30.789,60.108,30.789L60.108,30.789z"/>
			<path fill="#303030" d="M70.782,30.789c1.736,0,3.146,1.326,3.146,2.965v10.262c0,1.637-1.409,2.965-3.146,2.965l0,0
				c-1.736,0-3.145-1.328-3.145-2.965V33.754C67.638,32.115,69.046,30.789,70.782,30.789L70.782,30.789z"/>
		</g>
		<g>
			<path fill="#303030" d="M60.108,54.976c1.736,0,3.146,1.326,3.146,2.965v10.262c0,1.637-1.409,2.963-3.146,2.963l0,0
				c-1.736,0-3.145-1.326-3.145-2.963V57.941C56.964,56.302,58.372,54.976,60.108,54.976L60.108,54.976z"/>
			<path fill="#303030" d="M70.782,54.976c1.736,0,3.146,1.326,3.146,2.965v10.262c0,1.637-1.409,2.963-3.146,2.963l0,0
				c-1.736,0-3.145-1.326-3.145-2.963V57.941C67.638,56.302,69.046,54.976,70.782,54.976L70.782,54.976z"/>
		</g>
		<g>
			<path fill="#303030" d="M60.108,79.162c1.736,0,3.146,1.326,3.146,2.965v10.262c0,1.637-1.409,2.963-3.146,2.963l0,0
				c-1.736,0-3.145-1.326-3.145-2.963V82.127C56.964,80.488,58.372,79.162,60.108,79.162L60.108,79.162z"/>
			<path fill="#303030" d="M70.782,79.162c1.736,0,3.146,1.326,3.146,2.965v10.262c0,1.637-1.409,2.963-3.146,2.963l0,0
				c-1.736,0-3.145-1.326-3.145-2.963V82.127C67.638,80.488,69.046,79.162,70.782,79.162L70.782,79.162z"/>
		</g>
		<g>
			<path fill="#303030" d="M60.108,103.348c1.736,0,3.146,1.326,3.146,2.965v10.264c0,1.635-1.409,2.963-3.146,2.963l0,0
				c-1.736,0-3.145-1.328-3.145-2.963v-10.264C56.964,104.674,58.372,103.348,60.108,103.348L60.108,103.348z"/>
			<path fill="#303030" d="M70.782,103.348c1.736,0,3.146,1.326,3.146,2.965v10.264c0,1.635-1.409,2.963-3.146,2.963l0,0
				c-1.736,0-3.145-1.328-3.145-2.963v-10.264C67.638,104.674,69.046,103.348,70.782,103.348L70.782,103.348z"/>
		</g>
	</g>
	<g>
		<rect y="0.025" fill="#BEBEB1" width="42.707" height="126.141"/>
		<g>
			<g>
				<path fill="#AFAFAF" d="M31.282,28.174c-4.911,5.479-13.34,5.934-18.824,1.018c-5.48-4.916-5.943-13.344-1.034-18.82
					c4.912-5.479,13.34-5.936,18.824-1.02C35.729,14.27,36.194,22.697,31.282,28.174"/>
				<path fill="none" stroke="#949394" stroke-miterlimit="10" d="M31.282,28.174c-4.911,5.479-13.34,5.934-18.824,1.018
					c-5.48-4.916-5.943-13.344-1.034-18.82c4.912-5.479,13.34-5.936,18.824-1.02C35.729,14.27,36.194,22.697,31.282,28.174z"/>
				<g>
					<g>
						<defs>
							
								<rect id="SVGID_1_" x="8.781" y="6.714" transform="matrix(-0.7446 -0.6676 0.6676 -0.7446 24.3876 47.8749)" width="25.144" height="25.114"/>
						</defs>
						<clipPath id="SVGID_2_">
							<use xlink:href="#SVGID_1_"  overflow="visible"/>
						</clipPath>
						<path clip-path="url(#SVGID_2_)" fill="#BFBFBF" d="M30.71,27.664c-4.628,5.162-12.57,5.59-17.739,0.957
							c-5.168-4.635-5.605-12.576-0.978-17.738c4.631-5.162,12.574-5.594,17.743-0.959C34.904,14.557,35.341,22.5,30.71,27.664"/>
						<path clip-path="url(#SVGID_2_)" fill="#C1C1C1" d="M30.49,27.467c-4.521,5.039-12.277,5.457-17.321,0.936
							c-5.045-4.525-5.472-12.281-0.953-17.322c4.522-5.041,12.276-5.461,17.323-0.936C34.584,14.668,35.01,22.422,30.49,27.467"/>
						<path clip-path="url(#SVGID_2_)" fill="#C3C4C4" d="M30.27,27.268c-4.41,4.92-11.979,5.33-16.904,0.914
							c-4.925-4.416-5.341-11.984-0.93-16.904c4.413-4.92,11.981-5.328,16.906-0.914C34.268,14.779,34.682,22.348,30.27,27.268"/>
						<path clip-path="url(#SVGID_2_)" fill="#C5C6C6" d="M30.049,27.07c-4.301,4.799-11.683,5.199-16.487,0.891
							c-4.804-4.307-5.21-11.688-0.908-16.486c4.305-4.799,11.686-5.197,16.489-0.891C33.947,14.889,34.353,22.271,30.049,27.07"/>
						<path clip-path="url(#SVGID_2_)" fill="#C7C9C9" d="M29.83,26.875c-4.191,4.674-11.39,5.064-16.07,0.867
							c-4.682-4.197-5.075-11.395-0.886-16.068c4.195-4.68,11.393-5.068,16.074-0.871S34.024,22.195,29.83,26.875"/>
						<path clip-path="url(#SVGID_2_)" fill="#CACBCB" d="M29.609,26.676c-4.084,4.555-11.092,4.936-15.653,0.848
							c-4.559-4.09-4.943-11.1-0.86-15.654c4.085-4.557,11.093-4.936,15.655-0.846C33.312,15.111,33.695,22.119,29.609,26.676"/>
						<path clip-path="url(#SVGID_2_)" fill="#CCCECE" d="M29.391,26.479c-3.975,4.434-10.798,4.803-15.237,0.822
							C9.714,23.32,9.34,16.5,13.316,12.066c3.977-4.434,10.799-4.803,15.237-0.822C32.992,15.223,33.368,22.043,29.391,26.479"/>
						<path clip-path="url(#SVGID_2_)" fill="#CED0D0" d="M29.169,26.281c-3.865,4.313-10.502,4.672-14.819,0.801
							c-4.314-3.871-4.681-10.506-0.815-14.818c3.868-4.313,10.504-4.672,14.819-0.801C32.672,15.334,33.036,21.971,29.169,26.281"
							/>
						<path clip-path="url(#SVGID_2_)" fill="#D1D3D3" d="M28.95,26.084c-3.757,4.189-10.204,4.539-14.402,0.779
							c-4.193-3.764-4.549-10.211-0.793-14.4c3.76-4.193,10.208-4.543,14.405-0.781S32.709,21.891,28.95,26.084"/>
						<path clip-path="url(#SVGID_2_)" fill="#D3D5D5" d="M28.729,25.887c-3.647,4.07-9.909,4.408-13.982,0.754
							c-4.076-3.652-4.418-9.912-0.769-13.98c3.648-4.072,9.911-4.41,13.983-0.756C32.035,15.555,32.38,21.814,28.729,25.887"/>
					</g>
				</g>
				<polygon fill="#5F5F5E" points="15.091,23.797 19.036,19.398 14.632,15.447 16.822,13.006 21.226,16.955 25.173,12.555 
					27.617,14.746 23.671,19.145 28.075,23.096 25.886,25.539 21.479,21.59 17.536,25.99 				"/>
				<path fill="#231815" d="M27.215,14.77l-3.566,3.977l-0.377,0.422l0.424,0.381l3.98,3.568l-1.81,2.02l-3.982-3.57l-0.423-0.377
					l-0.38,0.422l-3.566,3.977l-2.019-1.813l3.564-3.977l0.379-0.422l-0.423-0.381l-3.981-3.572l1.81-2.016l3.98,3.568l0.423,0.379
					l0.381-0.424l3.566-3.975L27.215,14.77z M28.018,14.727l-2.868-2.572l-3.944,4.398l-4.405-3.947l-2.569,2.865l4.402,3.947
					l-3.944,4.398l2.868,2.574l3.945-4.4l4.402,3.949l2.57-2.869l-4.403-3.945L28.018,14.727z"/>
			</g>
			<g>
				<path fill="#AFAFAF" d="M31.282,113.545c-4.911,5.479-13.34,5.934-18.824,1.018c-5.48-4.916-5.943-13.344-1.034-18.818
					c4.912-5.48,13.34-5.938,18.824-1.021C35.729,99.641,36.194,108.068,31.282,113.545"/>
				<path fill="none" stroke="#949394" stroke-miterlimit="10" d="M31.282,113.545c-4.911,5.479-13.34,5.934-18.824,1.018
					c-5.48-4.916-5.943-13.344-1.034-18.818c4.912-5.48,13.34-5.938,18.824-1.021C35.729,99.641,36.194,108.068,31.282,113.545z"/>
				<g>
					<g>
						<defs>
							
								<rect id="SVGID_3_" x="8.781" y="92.085" transform="matrix(-0.7446 -0.6676 0.6676 -0.7446 -32.6027 196.8097)" width="25.144" height="25.114"/>
						</defs>
						<clipPath id="SVGID_4_">
							<use xlink:href="#SVGID_3_"  overflow="visible"/>
						</clipPath>
						<path clip-path="url(#SVGID_4_)" fill="#BFBFBF" d="M30.71,113.035c-4.628,5.162-12.57,5.59-17.739,0.959
							c-5.168-4.637-5.605-12.578-0.978-17.74c4.631-5.162,12.574-5.594,17.743-0.959C34.904,99.928,35.341,107.871,30.71,113.035"
							/>
						<path clip-path="url(#SVGID_4_)" fill="#C1C1C1" d="M30.49,112.838c-4.521,5.039-12.277,5.457-17.321,0.936
							c-5.045-4.525-5.472-12.279-0.953-17.32c4.522-5.043,12.276-5.465,17.323-0.938C34.584,100.039,35.01,107.793,30.49,112.838"
							/>
						<path clip-path="url(#SVGID_4_)" fill="#C3C4C4" d="M30.27,112.639c-4.41,4.92-11.979,5.33-16.904,0.914
							c-4.925-4.416-5.341-11.984-0.93-16.904c4.413-4.92,11.981-5.328,16.906-0.914C34.268,100.15,34.682,107.719,30.27,112.639"/>
						<path clip-path="url(#SVGID_4_)" fill="#C5C6C6" d="M30.049,112.441c-4.301,4.799-11.683,5.199-16.487,0.891
							c-4.804-4.307-5.21-11.688-0.908-16.486c4.305-4.799,11.686-5.197,16.489-0.891C33.947,100.26,34.353,107.643,30.049,112.441"
							/>
						<path clip-path="url(#SVGID_4_)" fill="#C7C9C9" d="M29.83,112.246c-4.191,4.674-11.39,5.064-16.07,0.867
							c-4.682-4.197-5.075-11.395-0.886-16.068c4.195-4.68,11.393-5.068,16.074-0.871S34.024,107.566,29.83,112.246"/>
						<path clip-path="url(#SVGID_4_)" fill="#CACBCB" d="M29.609,112.047c-4.084,4.555-11.092,4.936-15.653,0.848
							c-4.559-4.09-4.943-11.1-0.86-15.654c4.085-4.557,11.093-4.936,15.655-0.846C33.312,100.482,33.695,107.49,29.609,112.047"/>
						<path clip-path="url(#SVGID_4_)" fill="#CCCECE" d="M29.391,111.85c-3.975,4.436-10.798,4.803-15.237,0.822
							c-4.439-3.98-4.814-10.801-0.838-15.234c3.977-4.434,10.799-4.803,15.237-0.824C32.992,100.594,33.368,107.414,29.391,111.85"
							/>
						<path clip-path="url(#SVGID_4_)" fill="#CED0D0" d="M29.169,111.652c-3.865,4.313-10.502,4.67-14.819,0.801
							c-4.314-3.871-4.681-10.508-0.815-14.818c3.868-4.313,10.504-4.672,14.819-0.801
							C32.672,100.705,33.036,107.342,29.169,111.652"/>
						<path clip-path="url(#SVGID_4_)" fill="#D1D3D3" d="M28.95,111.455c-3.757,4.189-10.204,4.539-14.402,0.779
							c-4.193-3.764-4.549-10.211-0.793-14.4c3.76-4.193,10.208-4.543,14.405-0.781S32.709,107.262,28.95,111.455"/>
						<path clip-path="url(#SVGID_4_)" fill="#D3D5D5" d="M28.729,111.258c-3.647,4.07-9.909,4.408-13.982,0.754
							c-4.076-3.652-4.418-9.912-0.769-13.982c3.648-4.07,9.911-4.408,13.983-0.754C32.035,100.926,32.38,107.186,28.729,111.258"/>
					</g>
				</g>
				<polygon fill="#5F5F5E" points="15.091,109.168 19.036,104.77 14.632,100.818 16.822,98.377 21.226,102.326 25.173,97.926 
					27.617,100.119 23.671,104.516 28.075,108.467 25.886,110.91 21.479,106.961 17.536,111.361 				"/>
				<path fill="#231815" d="M27.215,100.141l-3.566,3.977l-0.377,0.422l0.424,0.381l3.98,3.568l-1.81,2.02l-3.982-3.57l-0.423-0.377
					l-0.38,0.422l-3.566,3.977l-2.019-1.813l3.564-3.977l0.379-0.422l-0.423-0.381l-3.981-3.572l1.81-2.016l3.98,3.568l0.423,0.379
					l0.381-0.424l3.566-3.975L27.215,100.141z M28.018,100.098l-2.868-2.572l-3.944,4.398l-4.405-3.947l-2.569,2.865l4.402,3.947
					l-3.944,4.398l2.868,2.574l3.945-4.4l4.402,3.949l2.57-2.869l-4.403-3.945L28.018,100.098z"/>
			</g>
		</g>
	</g>
	<g>
		<rect x="1226.594" fill="#BEBEB1" width="48.996" height="126.143"/>
		<g>
			<g>
				<path fill="#AFAFAF" d="M1260.643,28.15c-4.91,5.477-13.34,5.934-18.824,1.018c-5.48-4.916-5.943-13.344-1.033-18.82
					c4.912-5.479,13.34-5.936,18.824-1.02C1265.09,14.246,1265.555,22.672,1260.643,28.15"/>
				<path fill="none" stroke="#949394" stroke-miterlimit="10" d="M1260.643,28.15c-4.91,5.477-13.34,5.934-18.824,1.018
					c-5.48-4.916-5.943-13.344-1.033-18.82c4.912-5.479,13.34-5.936,18.824-1.02C1265.09,14.246,1265.555,22.672,1260.643,28.15z"/>
				<g>
					<g>
						<defs>
							
								<rect id="SVGID_5_" x="1238.142" y="6.691" transform="matrix(-0.7445 -0.6676 0.6676 -0.7445 2169.0811 868.5167)" width="25.144" height="25.115"/>
						</defs>
						<clipPath id="SVGID_6_">
							<use xlink:href="#SVGID_5_"  overflow="visible"/>
						</clipPath>
						<path clip-path="url(#SVGID_6_)" fill="#BFBFBF" d="M1260.07,27.639c-4.627,5.162-12.568,5.592-17.738,0.959
							c-5.168-4.635-5.605-12.576-0.977-17.738c4.631-5.164,12.572-5.594,17.742-0.959
							C1264.264,14.533,1264.701,22.477,1260.07,27.639"/>
						<path clip-path="url(#SVGID_6_)" fill="#C1C1C1" d="M1259.85,27.441c-4.52,5.041-12.275,5.459-17.32,0.938
							c-5.045-4.525-5.473-12.281-0.953-17.322c4.521-5.041,12.275-5.463,17.324-0.938
							C1263.945,14.643,1264.371,22.398,1259.85,27.441"/>
						<path clip-path="url(#SVGID_6_)" fill="#C3C4C4" d="M1259.631,27.244c-4.41,4.92-11.98,5.328-16.904,0.914
							c-4.926-4.418-5.342-11.984-0.932-16.904c4.414-4.922,11.982-5.33,16.906-0.914
							C1263.629,14.754,1264.043,22.324,1259.631,27.244"/>
						<path clip-path="url(#SVGID_6_)" fill="#C5C6C6" d="M1259.41,27.047c-4.301,4.797-11.684,5.197-16.486,0.891
							c-4.805-4.307-5.211-11.688-0.908-16.486c4.305-4.801,11.686-5.197,16.488-0.891
							C1263.307,14.865,1263.713,22.248,1259.41,27.047"/>
						<path clip-path="url(#SVGID_6_)" fill="#C7C9C9" d="M1259.191,26.85c-4.191,4.674-11.391,5.066-16.07,0.867
							c-4.682-4.197-5.076-11.393-0.887-16.066c4.195-4.68,11.393-5.068,16.074-0.871S1263.385,22.172,1259.191,26.85"/>
						<path clip-path="url(#SVGID_6_)" fill="#CACBCB" d="M1258.971,26.652c-4.086,4.555-11.094,4.936-15.654,0.846
							c-4.559-4.088-4.941-11.098-0.859-15.652c4.084-4.557,11.094-4.936,15.654-0.848
							C1262.672,15.088,1263.055,22.096,1258.971,26.652"/>
						<path clip-path="url(#SVGID_6_)" fill="#CCCECE" d="M1258.752,26.455c-3.975,4.434-10.799,4.801-15.238,0.822
							c-4.439-3.98-4.813-10.801-0.838-15.234c3.977-4.434,10.801-4.805,15.238-0.824
							C1262.354,15.199,1262.729,22.02,1258.752,26.455"/>
						<path clip-path="url(#SVGID_6_)" fill="#CED0D0" d="M1258.529,26.258c-3.863,4.311-10.502,4.67-14.818,0.801
							c-4.314-3.871-4.682-10.508-0.814-14.82s10.504-4.67,14.818-0.801C1262.033,15.309,1262.396,21.945,1258.529,26.258"/>
						<path clip-path="url(#SVGID_6_)" fill="#D1D3D3" d="M1258.311,26.061c-3.758,4.189-10.205,4.539-14.402,0.777
							c-4.193-3.762-4.549-10.209-0.793-14.4c3.76-4.191,10.209-4.541,14.404-0.779C1261.717,15.42,1262.07,21.867,1258.311,26.061"
							/>
						<path clip-path="url(#SVGID_6_)" fill="#D3D5D5" d="M1258.09,25.863c-3.648,4.07-9.91,4.408-13.982,0.754
							c-4.076-3.652-4.42-9.912-0.77-13.982c3.648-4.07,9.91-4.408,13.982-0.754C1261.396,15.531,1261.74,21.791,1258.09,25.863"/>
					</g>
				</g>
				<polygon fill="#5F5F5E" points="1244.451,23.773 1248.396,19.373 1243.992,15.424 1246.184,12.98 1250.586,16.93 
					1254.533,12.531 1256.977,14.723 1253.031,19.121 1257.436,23.07 1255.246,25.514 1250.84,21.564 1246.896,25.967 				"/>
				<path fill="#231815" d="M1256.576,14.746l-3.566,3.975l-0.379,0.424l0.424,0.379l3.98,3.568l-1.811,2.021l-3.98-3.57
					l-0.424-0.379l-0.381,0.422l-3.566,3.979l-2.018-1.813l3.563-3.979l0.381-0.422l-0.424-0.381l-3.98-3.57l1.811-2.018l3.98,3.57
					l0.422,0.377l0.381-0.422l3.566-3.977L1256.576,14.746z M1257.379,14.703l-2.869-2.572l-3.943,4.396l-4.404-3.947l-2.57,2.867
					l4.402,3.947l-3.943,4.398l2.867,2.574l3.945-4.402l4.404,3.949l2.568-2.867l-4.402-3.945L1257.379,14.703z"/>
			</g>
			<g>
				<path fill="#AFAFAF" d="M1260.643,113.521c-4.91,5.477-13.34,5.934-18.824,1.018c-5.48-4.916-5.943-13.344-1.033-18.82
					c4.912-5.479,13.34-5.936,18.824-1.02C1265.09,99.617,1265.555,108.043,1260.643,113.521"/>
				<path fill="none" stroke="#949394" stroke-miterlimit="10" d="M1260.643,113.521c-4.91,5.477-13.34,5.934-18.824,1.018
					c-5.48-4.916-5.943-13.344-1.033-18.82c4.912-5.479,13.34-5.936,18.824-1.02C1265.09,99.617,1265.555,108.043,1260.643,113.521z
					"/>
				<g>
					<g>
						<defs>
							
								<rect id="SVGID_7_" x="1238.142" y="92.062" transform="matrix(-0.7445 -0.6676 0.6676 -0.7445 2112.0901 1017.4506)" width="25.144" height="25.115"/>
						</defs>
						<clipPath id="SVGID_8_">
							<use xlink:href="#SVGID_7_"  overflow="visible"/>
						</clipPath>
						<path clip-path="url(#SVGID_8_)" fill="#BFBFBF" d="M1260.07,113.01c-4.627,5.162-12.568,5.592-17.738,0.959
							c-5.168-4.635-5.605-12.576-0.977-17.738c4.631-5.164,12.572-5.594,17.742-0.959
							C1264.264,99.904,1264.701,107.848,1260.07,113.01"/>
						<path clip-path="url(#SVGID_8_)" fill="#C1C1C1" d="M1259.85,112.813c-4.52,5.041-12.275,5.459-17.32,0.938
							c-5.045-4.525-5.473-12.281-0.953-17.322c4.521-5.041,12.275-5.463,17.324-0.938
							C1263.945,100.014,1264.371,107.77,1259.85,112.813"/>
						<path clip-path="url(#SVGID_8_)" fill="#C3C4C4" d="M1259.631,112.615c-4.41,4.92-11.98,5.328-16.904,0.914
							c-4.926-4.418-5.342-11.984-0.932-16.904c4.414-4.922,11.982-5.33,16.906-0.914
							C1263.629,100.125,1264.043,107.695,1259.631,112.615"/>
						<path clip-path="url(#SVGID_8_)" fill="#C5C6C6" d="M1259.41,112.418c-4.301,4.797-11.684,5.197-16.486,0.891
							c-4.805-4.307-5.211-11.688-0.908-16.486c4.305-4.801,11.686-5.197,16.488-0.891
							C1263.307,100.236,1263.713,107.619,1259.41,112.418"/>
						<path clip-path="url(#SVGID_8_)" fill="#C7C9C9" d="M1259.191,112.221c-4.191,4.674-11.391,5.066-16.07,0.867
							c-4.682-4.197-5.076-11.393-0.887-16.066c4.195-4.68,11.393-5.068,16.074-0.871S1263.385,107.543,1259.191,112.221"/>
						<path clip-path="url(#SVGID_8_)" fill="#CACBCB" d="M1258.971,112.023c-4.086,4.555-11.094,4.936-15.654,0.846
							c-4.559-4.088-4.941-11.098-0.859-15.652c4.084-4.557,11.094-4.936,15.654-0.848
							C1262.672,100.459,1263.055,107.467,1258.971,112.023"/>
						<path clip-path="url(#SVGID_8_)" fill="#CCCECE" d="M1258.752,111.826c-3.975,4.434-10.799,4.801-15.238,0.822
							c-4.439-3.98-4.813-10.801-0.838-15.234c3.977-4.434,10.801-4.805,15.238-0.824
							C1262.354,100.57,1262.729,107.391,1258.752,111.826"/>
						<path clip-path="url(#SVGID_8_)" fill="#CED0D0" d="M1258.529,111.629c-3.863,4.311-10.502,4.67-14.818,0.801
							c-4.314-3.871-4.682-10.508-0.814-14.82s10.504-4.67,14.818-0.801C1262.033,100.68,1262.396,107.316,1258.529,111.629"/>
						<path clip-path="url(#SVGID_8_)" fill="#D1D3D3" d="M1258.311,111.432c-3.758,4.189-10.205,4.539-14.402,0.777
							c-4.193-3.762-4.549-10.209-0.793-14.4c3.76-4.191,10.209-4.541,14.404-0.779
							C1261.717,100.791,1262.07,107.238,1258.311,111.432"/>
						<path clip-path="url(#SVGID_8_)" fill="#D3D5D5" d="M1258.09,111.234c-3.648,4.07-9.91,4.408-13.982,0.754
							c-4.076-3.652-4.42-9.912-0.77-13.982c3.648-4.07,9.91-4.408,13.982-0.754C1261.396,100.902,1261.74,107.162,1258.09,111.234"
							/>
					</g>
				</g>
				<polygon fill="#5F5F5E" points="1244.451,109.145 1248.396,104.744 1243.992,100.795 1246.184,98.352 1250.586,102.301 
					1254.533,97.902 1256.977,100.094 1253.031,104.492 1257.436,108.441 1255.246,110.885 1250.84,106.936 1246.896,111.338 				
					"/>
				<path fill="#231815" d="M1256.576,100.117l-3.566,3.975l-0.379,0.424l0.424,0.379l3.98,3.568l-1.811,2.021l-3.98-3.57
					l-0.424-0.377l-0.381,0.42l-3.566,3.979l-2.018-1.813l3.563-3.979l0.381-0.422l-0.424-0.381l-3.98-3.57l1.811-2.018l3.98,3.57
					l0.422,0.379l0.381-0.424l3.566-3.977L1256.576,100.117z M1257.379,100.074l-2.869-2.572l-3.943,4.396l-4.404-3.945l-2.57,2.865
					l4.402,3.947l-3.943,4.398l2.867,2.574l3.945-4.402l4.404,3.951l2.568-2.869l-4.402-3.945L1257.379,100.074z"/>
			</g>
		</g>
	</g>
	
		<rect x="81.972" y="22.795" fill="#CCCAC8" stroke="#666767" stroke-width="2" stroke-miterlimit="10" width="434.819" height="56.367"/>
	<g>
		<path fill="#717070" d="M100.191,52.468c-3.846,4.289-10.446,4.646-14.741,0.797c-4.292-3.851-4.654-10.451-0.81-14.74
			c3.847-4.289,10.446-4.646,14.741-0.797C103.674,41.578,104.038,48.178,100.191,52.468"/>
		<path fill="#E0E0E0" d="M100.191,49.469c-3.846,4.289-10.446,4.646-14.741,0.797c-4.292-3.852-4.654-10.451-0.81-14.74
			c3.847-4.289,10.446-4.646,14.741-0.797C103.674,38.578,104.038,45.178,100.191,49.469"/>
		
			<ellipse transform="matrix(0.7445 0.6676 -0.6676 0.7445 51.9787 -50.8383)" fill="none" stroke="#888888" stroke-miterlimit="10" cx="92.416" cy="42.497" rx="10.443" ry="10.434"/>
		<polygon fill="#D1D1D1" points="87.512,46.041 90.601,42.596 87.153,39.502 88.868,37.588 92.316,40.682 95.407,37.236 
			97.321,38.953 94.23,42.398 97.68,45.49 95.965,47.404 92.514,44.311 89.426,47.756 		"/>
		<path fill="#AEADAD" d="M97.006,38.969l-2.793,3.115l-0.296,0.332l0.332,0.297l3.118,2.795l-1.418,1.582l-3.119-2.797
			l-0.331-0.297l-0.297,0.332l-2.793,3.115l-1.581-1.42l2.791-3.113l0.296-0.332l-0.331-0.299l-3.117-2.795l1.417-1.58l3.118,2.795
			l0.332,0.297l0.298-0.332l2.793-3.113L97.006,38.969z M97.635,38.936l-2.246-2.014L92.3,40.369l-3.449-3.094l-2.012,2.244
			l3.447,3.092l-3.089,3.445l2.246,2.014l3.09-3.445l3.448,3.092l2.012-2.244l-3.448-3.092L97.635,38.936z"/>
	</g>
	<g>
		<path fill="#717070" d="M514.472,52.468c-3.846,4.289-10.446,4.646-14.741,0.797c-4.292-3.851-4.654-10.451-0.81-14.74
			c3.847-4.289,10.446-4.646,14.741-0.797C517.955,41.578,518.318,48.178,514.472,52.468"/>
		<path fill="#E0E0E0" d="M514.472,49.469c-3.846,4.289-10.446,4.646-14.741,0.797c-4.292-3.852-4.654-10.451-0.81-14.74
			c3.847-4.289,10.446-4.646,14.741-0.797C517.955,38.578,518.318,45.178,514.472,49.469"/>
		
			<ellipse transform="matrix(0.7445 0.6676 -0.6676 0.7445 157.8113 -327.4034)" fill="none" stroke="#888888" stroke-miterlimit="10" cx="506.696" cy="42.497" rx="10.443" ry="10.434"/>
		<polygon fill="#D1D1D1" points="501.793,46.041 504.882,42.596 501.434,39.502 503.148,37.588 506.597,40.682 509.688,37.236 
			511.602,38.953 508.512,42.398 511.961,45.49 510.246,47.404 506.795,44.311 503.707,47.756 		"/>
		<path fill="#AEADAD" d="M511.287,38.969l-2.793,3.115l-0.296,0.332l0.332,0.297l3.117,2.795l-1.418,1.582l-3.118-2.797
			l-0.331-0.297l-0.298,0.332l-2.793,3.115l-1.581-1.42l2.791-3.113l0.297-0.332l-0.331-0.299l-3.117-2.795l1.417-1.58l3.117,2.795
			l0.332,0.297l0.298-0.332l2.793-3.113L511.287,38.969z M511.916,38.936l-2.246-2.014l-3.089,3.447l-3.449-3.094l-2.012,2.244
			l3.447,3.092l-3.089,3.445l2.246,2.014l3.09-3.445l3.448,3.092l2.012-2.244l-3.448-3.092L511.916,38.936z"/>
	</g>
	<g>
		<path fill="#717070" d="M295.691,52.468c-3.846,4.289-10.446,4.646-14.741,0.797c-4.292-3.851-4.654-10.451-0.81-14.74
			c3.847-4.289,10.446-4.646,14.741-0.797C299.174,41.578,299.538,48.178,295.691,52.468"/>
		<path fill="#E0E0E0" d="M295.691,49.469c-3.846,4.289-10.446,4.646-14.741,0.797c-4.292-3.852-4.654-10.451-0.81-14.74
			c3.847-4.289,10.446-4.646,14.741-0.797C299.174,38.578,299.538,45.178,295.691,49.469"/>
		
			<ellipse transform="matrix(0.7445 0.6676 -0.6676 0.7445 101.9213 -181.35)" fill="none" stroke="#888888" stroke-miterlimit="10" cx="287.916" cy="42.497" rx="10.443" ry="10.434"/>
		<polygon fill="#D1D1D1" points="283.012,46.041 286.101,42.596 282.653,39.502 284.368,37.588 287.816,40.682 290.907,37.236 
			292.821,38.953 289.73,42.398 293.18,45.49 291.465,47.404 288.014,44.311 284.926,47.756 		"/>
		<path fill="#AEADAD" d="M292.506,38.969l-2.793,3.115l-0.296,0.332l0.332,0.297l3.118,2.795l-1.418,1.582l-3.119-2.797
			l-0.331-0.297l-0.297,0.332l-2.793,3.115l-1.581-1.42l2.791-3.113l0.296-0.332l-0.331-0.299l-3.117-2.795l1.417-1.58l3.118,2.795
			l0.332,0.297l0.298-0.332l2.793-3.113L292.506,38.969z M293.135,38.936l-2.246-2.014l-3.089,3.447l-3.449-3.094l-2.012,2.244
			l3.447,3.092l-3.089,3.445l2.246,2.014l3.09-3.445l3.448,3.092l2.012-2.244l-3.448-3.092L293.135,38.936z"/>
	</g>
	<g>
		<path fill="#717070" d="M321.417,52.468c-3.846,4.289-10.446,4.646-14.742,0.797c-4.292-3.851-4.654-10.451-0.809-14.74
			c3.847-4.289,10.446-4.646,14.741-0.797C324.901,41.578,325.264,48.178,321.417,52.468"/>
		<path fill="#E0E0E0" d="M321.417,49.469c-3.846,4.289-10.446,4.646-14.742,0.797c-4.292-3.852-4.654-10.451-0.809-14.74
			c3.847-4.289,10.446-4.646,14.741-0.797C324.901,38.578,325.264,45.178,321.417,49.469"/>
		
			<ellipse transform="matrix(0.7445 0.6676 -0.6676 0.7445 108.4935 -198.5245)" fill="none" stroke="#888888" stroke-miterlimit="10" cx="313.642" cy="42.497" rx="10.443" ry="10.435"/>
		<polygon fill="#D1D1D1" points="308.739,46.041 311.828,42.596 308.379,39.502 310.094,37.588 313.542,40.682 316.633,37.236 
			318.547,38.953 315.457,42.398 318.907,45.49 317.192,47.404 313.741,44.311 310.653,47.756 		"/>
		<path fill="#AEADAD" d="M318.233,38.969l-2.793,3.115l-0.296,0.332l0.332,0.297l3.118,2.795l-1.418,1.582l-3.119-2.797
			l-0.331-0.297l-0.297,0.332l-2.793,3.115l-1.581-1.42l2.791-3.113l0.296-0.332l-0.331-0.299l-3.117-2.795l1.417-1.58l3.117,2.795
			l0.332,0.297l0.298-0.332l2.793-3.113L318.233,38.969z M318.862,38.936l-2.246-2.014l-3.089,3.447l-3.449-3.094l-2.012,2.244
			l3.447,3.092l-3.089,3.445l2.246,2.014l3.09-3.445l3.448,3.092l2.012-2.244l-3.448-3.092L318.862,38.936z"/>
	</g>
	<g>
		<path fill="#303030" d="M123.153,36.508c0,1.736-1.326,3.145-2.965,3.145h-10.263c-1.636,0-2.963-1.408-2.963-3.145l0,0
			c0-1.736,1.327-3.145,2.963-3.145h10.263C121.827,33.363,123.153,34.771,123.153,36.508L123.153,36.508z"/>
		<path fill="#303030" d="M123.153,48.008c0,1.736-1.326,3.144-2.965,3.144h-10.263c-1.636,0-2.963-1.408-2.963-3.144l0,0
			c0-1.736,1.327-3.145,2.963-3.145h10.263C121.827,44.863,123.153,46.271,123.153,48.008L123.153,48.008z"/>
		<path fill="#303030" d="M123.153,59.507c0,1.736-1.326,3.145-2.965,3.145h-10.263c-1.636,0-2.963-1.408-2.963-3.145l0,0
			c0-1.736,1.327-3.145,2.963-3.145h10.263C121.827,56.363,123.153,57.771,123.153,59.507L123.153,59.507z"/>
	</g>
	<g>
		<path fill="#303030" d="M345.472,36.508c0,1.736-1.326,3.145-2.965,3.145h-10.262c-1.636,0-2.963-1.408-2.963-3.145l0,0
			c0-1.736,1.327-3.145,2.963-3.145h10.262C344.146,33.363,345.472,34.771,345.472,36.508L345.472,36.508z"/>
		<path fill="#303030" d="M345.472,48.008c0,1.736-1.326,3.144-2.965,3.144h-10.262c-1.636,0-2.963-1.408-2.963-3.144l0,0
			c0-1.736,1.327-3.145,2.963-3.145h10.262C344.146,44.863,345.472,46.271,345.472,48.008L345.472,48.008z"/>
		<path fill="#303030" d="M345.472,59.507c0,1.736-1.326,3.145-2.965,3.145h-10.262c-1.636,0-2.963-1.408-2.963-3.145l0,0
			c0-1.736,1.327-3.145,2.963-3.145h10.262C344.146,56.363,345.472,57.771,345.472,59.507L345.472,59.507z"/>
	</g>
	<g>
		<path fill="#303030" d="M493.579,36.508c0,1.736-1.326,3.145-2.965,3.145h-10.263c-1.636,0-2.963-1.408-2.963-3.145l0,0
			c0-1.736,1.327-3.145,2.963-3.145h10.263C492.253,33.363,493.579,34.771,493.579,36.508L493.579,36.508z"/>
		<path fill="#303030" d="M493.579,59.507c0,1.736-1.326,3.145-2.965,3.145h-10.263c-1.636,0-2.963-1.408-2.963-3.145l0,0
			c0-1.736,1.327-3.145,2.963-3.145h10.263C492.253,56.363,493.579,57.771,493.579,59.507L493.579,59.507z"/>
	</g>
	<g>
		<path fill="#303030" d="M273.672,36.508c0,1.736-1.326,3.145-2.965,3.145h-10.262c-1.637,0-2.964-1.408-2.964-3.145l0,0
			c0-1.736,1.327-3.145,2.964-3.145h10.262C272.346,33.363,273.672,34.771,273.672,36.508L273.672,36.508z"/>
		<path fill="#303030" d="M273.672,59.507c0,1.736-1.326,3.145-2.965,3.145h-10.262c-1.637,0-2.964-1.408-2.964-3.145l0,0
			c0-1.736,1.327-3.145,2.964-3.145h10.262C272.346,56.363,273.672,57.771,273.672,59.507L273.672,59.507z"/>
	</g>
	<g>
		
			<rect x="523.652" y="22.795" fill="#CCCAC8" stroke="#666767" stroke-width="2" stroke-miterlimit="10" width="434.818" height="56.367"/>
		<g>
			<path fill="#717070" d="M955.168,52.468c-3.846,4.289-10.447,4.646-14.742,0.797c-4.291-3.851-4.654-10.451-0.809-14.74
				s10.445-4.646,14.74-0.797C958.65,41.578,959.014,48.178,955.168,52.468"/>
			<path fill="#E0E0E0" d="M955.168,49.469c-3.846,4.289-10.447,4.646-14.742,0.797c-4.291-3.852-4.654-10.451-0.809-14.74
				s10.445-4.646,14.74-0.797C958.65,38.578,959.014,45.178,955.168,49.469"/>
			<path fill="none" stroke="#888888" stroke-miterlimit="10" d="M955.168,49.469c-3.846,4.289-10.447,4.646-14.742,0.797
				c-4.291-3.852-4.654-10.451-0.809-14.74s10.445-4.646,14.74-0.797C958.65,38.578,959.014,45.178,955.168,49.469z"/>
			<polygon fill="#D1D1D1" points="942.488,46.041 945.578,42.596 942.129,39.502 943.844,37.588 947.293,40.682 950.383,37.236 
				952.297,38.953 949.207,42.398 952.656,45.49 950.941,47.404 947.49,44.311 944.402,47.756 			"/>
			<path fill="#AEADAD" d="M951.982,38.969l-2.793,3.115l-0.295,0.332l0.332,0.297l3.117,2.795l-1.418,1.582l-3.119-2.797
				l-0.33-0.297l-0.299,0.332l-2.793,3.115l-1.58-1.42l2.791-3.113l0.297-0.332l-0.332-0.299l-3.117-2.795l1.418-1.58l3.117,2.795
				l0.332,0.297l0.297-0.332l2.793-3.113L951.982,38.969z M952.611,38.936l-2.246-2.014l-3.088,3.447l-3.449-3.094l-2.012,2.244
				l3.447,3.092l-3.09,3.445l2.246,2.014l3.09-3.445l3.449,3.092l2.012-2.244l-3.449-3.092L952.611,38.936z"/>
		</g>
		<g>
			<path fill="#717070" d="M750.42,52.466c-3.848,4.289-10.447,4.646-14.742,0.797c-4.291-3.851-4.654-10.451-0.809-14.74
				s10.445-4.646,14.74-0.797C753.902,41.578,754.266,48.176,750.42,52.466"/>
			<path fill="#E0E0E0" d="M750.42,49.467c-3.848,4.289-10.447,4.646-14.742,0.797c-4.291-3.852-4.654-10.451-0.809-14.74
				s10.445-4.646,14.74-0.797C753.902,38.578,754.266,45.176,750.42,49.467"/>
			<path fill="none" stroke="#888888" stroke-miterlimit="10" d="M750.42,49.467c-3.848,4.289-10.447,4.646-14.742,0.797
				c-4.291-3.852-4.654-10.451-0.809-14.74s10.445-4.646,14.74-0.797C753.902,38.578,754.266,45.176,750.42,49.467z"/>
			<polygon fill="#D1D1D1" points="737.74,46.039 740.83,42.594 737.381,39.5 739.096,37.586 742.545,40.68 745.635,37.234 
				747.549,38.951 744.459,42.396 747.908,45.488 746.193,47.402 742.742,44.309 739.654,47.754 			"/>
			<path fill="#AEADAD" d="M747.234,38.967l-2.793,3.115l-0.295,0.332l0.33,0.297l3.119,2.795l-1.418,1.582l-3.119-2.797
				l-0.332-0.297l-0.297,0.334l-2.793,3.113l-1.58-1.42l2.791-3.115l0.295-0.33l-0.33-0.299l-3.117-2.795l1.418-1.58l3.117,2.795
				l0.33,0.297l0.299-0.332l2.793-3.113L747.234,38.967z M747.863,38.934l-2.246-2.014l-3.088,3.445l-3.449-3.092l-2.012,2.244
				l3.447,3.092l-3.09,3.445l2.246,2.014l3.09-3.445l3.449,3.092l2.012-2.244l-3.449-3.092L747.863,38.934z"/>
		</g>
		<g>
			<g>
				<g>
					<path fill="#303030" d="M592.026,55.113c0,1.736-1.326,3.146-2.965,3.146h-10.262c-1.636,0-2.963-1.41-2.963-3.146l0,0
						c0-1.736,1.327-3.145,2.963-3.145h10.262C590.7,51.968,592.026,53.376,592.026,55.113L592.026,55.113z"/>
					<path fill="#303030" d="M592.026,66.613c0,1.736-1.326,3.146-2.965,3.146h-10.262c-1.636,0-2.963-1.41-2.963-3.146l0,0
						c0-1.736,1.327-3.145,2.963-3.145h10.262C590.7,63.468,592.026,64.877,592.026,66.613L592.026,66.613z"/>
				</g>
				<g>
					<path fill="#303030" d="M615.361,55.113c0,1.736-1.326,3.146-2.965,3.146h-10.262c-1.636,0-2.963-1.41-2.963-3.146l0,0
						c0-1.736,1.327-3.145,2.963-3.145h10.262C614.035,51.968,615.361,53.376,615.361,55.113L615.361,55.113z"/>
					<path fill="#303030" d="M615.361,66.613c0,1.736-1.326,3.146-2.965,3.146h-10.262c-1.636,0-2.963-1.41-2.963-3.146l0,0
						c0-1.736,1.327-3.145,2.963-3.145h10.262C614.035,63.468,615.361,64.877,615.361,66.613L615.361,66.613z"/>
				</g>
				<g>
					<path fill="#303030" d="M638.695,55.113c0,1.736-1.326,3.146-2.965,3.146h-10.262c-1.636,0-2.963-1.41-2.963-3.146l0,0
						c0-1.736,1.327-3.145,2.963-3.145h10.262C637.369,51.968,638.695,53.376,638.695,55.113L638.695,55.113z"/>
					<path fill="#303030" d="M638.695,66.613c0,1.736-1.326,3.146-2.965,3.146h-10.262c-1.636,0-2.963-1.41-2.963-3.146l0,0
						c0-1.736,1.327-3.145,2.963-3.145h10.262C637.369,63.468,638.695,64.877,638.695,66.613L638.695,66.613z"/>
				</g>
				<g>
					<path fill="#303030" d="M662.029,55.113c0,1.736-1.326,3.146-2.965,3.146h-10.262c-1.637,0-2.963-1.41-2.963-3.146l0,0
						c0-1.736,1.326-3.145,2.963-3.145h10.262C660.703,51.968,662.029,53.376,662.029,55.113L662.029,55.113z"/>
					<path fill="#303030" d="M662.029,66.613c0,1.736-1.326,3.146-2.965,3.146h-10.262c-1.637,0-2.963-1.41-2.963-3.146l0,0
						c0-1.736,1.326-3.145,2.963-3.145h10.262C660.703,63.468,662.029,64.877,662.029,66.613L662.029,66.613z"/>
				</g>
				<g>
					<path fill="#303030" d="M685.363,55.113c0,1.736-1.326,3.146-2.965,3.146h-10.262c-1.637,0-2.963-1.41-2.963-3.146l0,0
						c0-1.736,1.326-3.145,2.963-3.145h10.262C684.037,51.968,685.363,53.376,685.363,55.113L685.363,55.113z"/>
					<path fill="#303030" d="M685.363,66.613c0,1.736-1.326,3.146-2.965,3.146h-10.262c-1.637,0-2.963-1.41-2.963-3.146l0,0
						c0-1.736,1.326-3.145,2.963-3.145h10.262C684.037,63.468,685.363,64.877,685.363,66.613L685.363,66.613z"/>
				</g>
				<g>
					<path fill="#303030" d="M708.699,55.113c0,1.736-1.326,3.146-2.965,3.146h-10.264c-1.635,0-2.963-1.41-2.963-3.146l0,0
						c0-1.736,1.328-3.145,2.963-3.145h10.264C707.373,51.968,708.699,53.376,708.699,55.113L708.699,55.113z"/>
					<path fill="#303030" d="M708.699,66.613c0,1.736-1.326,3.146-2.965,3.146h-10.264c-1.635,0-2.963-1.41-2.963-3.146l0,0
						c0-1.736,1.328-3.145,2.963-3.145h10.264C707.373,63.468,708.699,64.877,708.699,66.613L708.699,66.613z"/>
				</g>
			</g>
			<g>
				<g>
					<path fill="#303030" d="M789.615,55.113c0,1.736-1.326,3.146-2.965,3.146h-10.262c-1.637,0-2.963-1.41-2.963-3.146l0,0
						c0-1.736,1.326-3.145,2.963-3.145h10.262C788.289,51.968,789.615,53.376,789.615,55.113L789.615,55.113z"/>
					<path fill="#303030" d="M789.615,66.613c0,1.736-1.326,3.146-2.965,3.146h-10.262c-1.637,0-2.963-1.41-2.963-3.146l0,0
						c0-1.736,1.326-3.145,2.963-3.145h10.262C788.289,63.468,789.615,64.877,789.615,66.613L789.615,66.613z"/>
				</g>
				<g>
					<path fill="#303030" d="M812.949,55.113c0,1.736-1.326,3.146-2.965,3.146h-10.262c-1.637,0-2.963-1.41-2.963-3.146l0,0
						c0-1.736,1.326-3.145,2.963-3.145h10.262C811.623,51.968,812.949,53.376,812.949,55.113L812.949,55.113z"/>
					<path fill="#303030" d="M812.949,66.613c0,1.736-1.326,3.146-2.965,3.146h-10.262c-1.637,0-2.963-1.41-2.963-3.146l0,0
						c0-1.736,1.326-3.145,2.963-3.145h10.262C811.623,63.468,812.949,64.877,812.949,66.613L812.949,66.613z"/>
				</g>
				<g>
					<path fill="#303030" d="M836.285,55.113c0,1.736-1.326,3.146-2.965,3.146h-10.264c-1.635,0-2.963-1.41-2.963-3.146l0,0
						c0-1.736,1.328-3.145,2.963-3.145h10.264C834.959,51.968,836.285,53.376,836.285,55.113L836.285,55.113z"/>
					<path fill="#303030" d="M836.285,66.613c0,1.736-1.326,3.146-2.965,3.146h-10.264c-1.635,0-2.963-1.41-2.963-3.146l0,0
						c0-1.736,1.328-3.145,2.963-3.145h10.264C834.959,63.468,836.285,64.877,836.285,66.613L836.285,66.613z"/>
				</g>
				<g>
					<path fill="#303030" d="M859.619,55.113c0,1.736-1.326,3.146-2.965,3.146h-10.264c-1.635,0-2.963-1.41-2.963-3.146l0,0
						c0-1.736,1.328-3.145,2.963-3.145h10.264C858.293,51.968,859.619,53.376,859.619,55.113L859.619,55.113z"/>
					<path fill="#303030" d="M859.619,66.613c0,1.736-1.326,3.146-2.965,3.146h-10.264c-1.635,0-2.963-1.41-2.963-3.146l0,0
						c0-1.736,1.328-3.145,2.963-3.145h10.264C858.293,63.468,859.619,64.877,859.619,66.613L859.619,66.613z"/>
				</g>
				<g>
					<path fill="#303030" d="M882.953,55.113c0,1.736-1.326,3.146-2.965,3.146h-10.262c-1.637,0-2.965-1.41-2.965-3.146l0,0
						c0-1.736,1.328-3.145,2.965-3.145h10.262C881.627,51.968,882.953,53.376,882.953,55.113L882.953,55.113z"/>
					<path fill="#303030" d="M882.953,66.613c0,1.736-1.326,3.146-2.965,3.146h-10.262c-1.637,0-2.965-1.41-2.965-3.146l0,0
						c0-1.736,1.328-3.145,2.965-3.145h10.262C881.627,63.468,882.953,64.877,882.953,66.613L882.953,66.613z"/>
				</g>
				<g>
					<path fill="#303030" d="M906.287,55.113c0,1.736-1.326,3.146-2.965,3.146h-10.262c-1.637,0-2.963-1.41-2.963-3.146l0,0
						c0-1.736,1.326-3.145,2.963-3.145h10.262C904.961,51.968,906.287,53.376,906.287,55.113L906.287,55.113z"/>
					<path fill="#303030" d="M906.287,66.613c0,1.736-1.326,3.146-2.965,3.146h-10.262c-1.637,0-2.963-1.41-2.963-3.146l0,0
						c0-1.736,1.326-3.145,2.963-3.145h10.262C904.961,63.468,906.287,64.877,906.287,66.613L906.287,66.613z"/>
				</g>
			</g>
		</g>
	</g>
	<g>
		<g>
			<rect x="117.212" y="7.053" fill="#353535" width="13.517" height="8.129"/>
			<rect x="139.943" y="7.053" fill="#353535" width="13.517" height="8.129"/>
		</g>
		<g>
			<rect x="240.528" y="7.053" fill="#353535" width="13.517" height="8.129"/>
			<rect x="263.26" y="7.053" fill="#353535" width="13.517" height="8.129"/>
		</g>
		<g>
			<rect x="341.165" y="7.053" fill="#353535" width="13.517" height="8.129"/>
			<rect x="363.896" y="7.053" fill="#353535" width="13.517" height="8.129"/>
		</g>
		<g>
			<rect x="446.222" y="7.053" fill="#353535" width="13.516" height="8.129"/>
			<rect x="468.953" y="7.053" fill="#353535" width="13.517" height="8.129"/>
		</g>
		<g>
			<rect x="564.94" y="7.053" fill="#353535" width="13.517" height="8.129"/>
			<rect x="587.672" y="7.053" fill="#353535" width="13.517" height="8.129"/>
		</g>
		<g>
			<rect x="677.895" y="7.053" fill="#353535" width="13.518" height="8.129"/>
			<rect x="700.627" y="7.053" fill="#353535" width="13.516" height="8.129"/>
		</g>
		<g>
			<rect x="766.596" y="7.053" fill="#353535" width="13.516" height="8.129"/>
			<rect x="789.326" y="7.053" fill="#353535" width="13.518" height="8.129"/>
		</g>
		<g>
			<rect x="878.506" y="7.053" fill="#353535" width="13.518" height="8.129"/>
			<rect x="901.238" y="7.053" fill="#353535" width="13.516" height="8.129"/>
		</g>
	</g>
	<g>
		<path fill="#757575" d="M337.324,110.285c0,2.762,2.239,5,5,5H481.53c2.761,0,5-2.238,5-5V91.879c0-2.762-2.239-5-5-5H342.324
			c-2.761,0-5,2.238-5,5V110.285z"/>
	</g>
	<g>
		<path fill="#757575" d="M114.21,110.285c0,2.762,2.239,5,5,5h139.206c2.761,0,5-2.238,5-5V91.879c0-2.762-2.239-5-5-5H119.21
			c-2.761,0-5,2.238-5,5V110.285z"/>
	</g>
	<g>
		<path fill="#858585" d="M275.171,100.121c0,1.104,0.896,2,2,2h7.814c1.104,0,2-0.896,2-2v-3.234c0-1.105-0.896-2-2-2h-7.814
			c-1.104,0-2,0.895-2,2V100.121z"/>
	</g>
	<g>
		<g>
			<path fill="#858585" d="M500.459,100.121c0,1.104,0.896,2,2,2h7.814c1.104,0,2-0.896,2-2v-3.234c0-1.105-0.896-2-2-2h-7.814
				c-1.104,0-2,0.895-2,2V100.121z"/>
		</g>
		<g>
			<path fill="#858585" d="M544.086,100.121c0,1.104,0.896,2,2,2h7.814c1.104,0,2-0.896,2-2v-3.234c0-1.105-0.896-2-2-2h-7.814
				c-1.104,0-2,0.895-2,2V100.121z"/>
		</g>
		<g>
			<path fill="#858585" d="M574.072,100.121c0,1.104,0.896,2,2,2h7.814c1.104,0,2-0.896,2-2v-3.234c0-1.105-0.896-2-2-2h-7.814
				c-1.104,0-2,0.895-2,2V100.121z"/>
		</g>
		<g>
			<path fill="#858585" d="M604.057,100.121c0,1.104,0.896,2,2,2h7.814c1.104,0,2-0.896,2-2v-3.234c0-1.105-0.896-2-2-2h-7.814
				c-1.104,0-2,0.895-2,2V100.121z"/>
		</g>
	</g>
	<g>
		<g>
			<path fill="#858585" d="M944.182,100.152c0,1.104,0.896,2,2,2h5.996c1.105,0,2-0.896,2-2v-3.234c0-1.105-0.895-2-2-2h-5.996
				c-1.104,0-2,0.895-2,2V100.152z"/>
		</g>
		<circle fill="#ECEA5C" cx="947.791" cy="98.535" r="3.609"/>
	</g>
	<g>
		<path fill="#858585" d="M861.764,100.152c0,1.104,0.896,2,2,2h5.996c1.105,0,2-0.896,2-2v-3.234c0-1.105-0.895-2-2-2h-5.996
			c-1.104,0-2,0.895-2,2V100.152z"/>
	</g>
	<rect x="877.045" y="88.701" fill="#3F3F3F" width="5.908" height="14.584"/>
	<rect x="913.424" y="88.701" fill="#3F3F3F" width="5.908" height="14.584"/>
	<g>
		<rect x="98.487" y="76.807" fill="#1D1E1E" width="23" height="7.918"/>
		<rect x="98.442" y="73.863" fill="#1D1E1E" width="2.5" height="13.805"/>
		<rect x="118.986" y="73.863" fill="#1D1E1E" width="2.501" height="13.805"/>
	</g>
	<g>
		<rect x="260.579" y="76.807" fill="#1D1E1E" width="23" height="7.918"/>
		<rect x="260.534" y="73.863" fill="#1D1E1E" width="2.5" height="13.805"/>
		<rect x="281.078" y="73.863" fill="#1D1E1E" width="2.5" height="13.805"/>
	</g>
	<g>
		<rect x="319.728" y="76.807" fill="#1D1E1E" width="23" height="7.918"/>
		<rect x="319.683" y="73.863" fill="#1D1E1E" width="2.5" height="13.805"/>
		<rect x="340.227" y="73.863" fill="#1D1E1E" width="2.5" height="13.805"/>
	</g>
	<g>
		<rect x="482.101" y="76.807" fill="#1D1E1E" width="23" height="7.918"/>
		<rect x="482.056" y="73.863" fill="#1D1E1E" width="2.5" height="13.805"/>
		<rect x="502.6" y="73.863" fill="#1D1E1E" width="2.5" height="13.805"/>
	</g>
	<g>
		<path fill="#303030" d="M420.448,36.508c0,1.736-1.326,3.145-2.965,3.145h-10.262c-1.636,0-2.963-1.408-2.963-3.145l0,0
			c0-1.736,1.327-3.145,2.963-3.145h10.262C419.122,33.363,420.448,34.771,420.448,36.508L420.448,36.508z"/>
		<g>
			<path fill="#696969" d="M404.4,42.367c1.736,0,3.146,1.695,3.146,3.791v13.119c0,2.092-1.409,3.787-3.146,3.787l0,0
				c-1.736,0-3.145-1.695-3.145-3.787V46.158C401.256,44.063,402.664,42.367,404.4,42.367L404.4,42.367z"/>
			<g>
				<circle fill="#EBE45F" cx="404.4" cy="49.701" r="3"/>
				<circle fill="#97C95F" cx="404.4" cy="55.728" r="3"/>
			</g>
		</g>
		<g>
			<path fill="#696969" d="M420.305,42.367c1.736,0,3.146,1.695,3.146,3.791v13.119c0,2.092-1.409,3.787-3.146,3.787l0,0
				c-1.736,0-3.145-1.695-3.145-3.787V46.158C417.161,44.063,418.569,42.367,420.305,42.367L420.305,42.367z"/>
			<g>
				<circle fill="#EBE45F" cx="420.305" cy="49.701" r="3"/>
				<circle fill="#97C95F" cx="420.305" cy="55.73" r="3"/>
			</g>
		</g>
	</g>
	<g>
		<path fill="#303030" d="M196.908,36.508c0,1.736-1.326,3.145-2.965,3.145h-10.262c-1.636,0-2.963-1.408-2.963-3.145l0,0
			c0-1.736,1.327-3.145,2.963-3.145h10.262C195.582,33.363,196.908,34.771,196.908,36.508L196.908,36.508z"/>
		<g>
			<path fill="#696969" d="M180.86,42.367c1.736,0,3.146,1.695,3.146,3.791v13.119c0,2.092-1.409,3.787-3.146,3.787l0,0
				c-1.736,0-3.145-1.695-3.145-3.787V46.158C177.716,44.063,179.124,42.367,180.86,42.367L180.86,42.367z"/>
			<g>
				<circle fill="#EBE45F" cx="180.86" cy="49.701" r="3"/>
				<circle fill="#97C95F" cx="180.86" cy="55.728" r="3"/>
			</g>
		</g>
		<g>
			<path fill="#696969" d="M196.765,42.367c1.736,0,3.146,1.695,3.146,3.791v13.119c0,2.092-1.409,3.787-3.146,3.787l0,0
				c-1.736,0-3.145-1.695-3.145-3.787V46.158C193.621,44.063,195.029,42.367,196.765,42.367L196.765,42.367z"/>
			<g>
				<circle fill="#EBE45F" cx="196.765" cy="49.701" r="3"/>
				<circle fill="#97C95F" cx="196.765" cy="55.73" r="3"/>
			</g>
		</g>
	</g>
	<rect x="42.707" fill="#383838" width="4.117" height="126.143"/>
	<rect x="1222.762" fill="#383838" width="4.117" height="126.143"/>
</g>
</svg>
