<?xml version="1.0" encoding="utf-8"?>
<!-- Generator: Adobe Illustrator 19.0.0, SVG Export Plug-In . SVG Version: 6.00 Build 0)  -->
<svg version="1.1" id="图层_1" xmlns="http://www.w3.org/2000/svg" xmlns:xlink="http://www.w3.org/1999/xlink" x="0px" y="0px"
	 width="37px" height="38px" viewBox="0 0 37 38" style="enable-background:new 0 0 37 38;" xml:space="preserve">
<style type="text/css">
	.st0{fill:#002E6E;}
	.st1{fill:#59D1FB;}
	.st2{fill:#2F2F2F;}
	.st3{fill:#D9D9DA;}
	.st4{fill:#6B6B6B;}
	.st5{fill:#2A86C7;}
</style>
<path id="XMLID_63_" class="st0" d="M21.6,36.2h-4.2c-0.5,0-0.9-0.4-0.9-0.9v-0.4c0-0.5,0.4-0.9,0.9-0.9h4.2c0.5,0,0.9,0.4,0.9,0.9
	v0.4C22.5,35.8,22.1,36.2,21.6,36.2z"/>
<path id="XMLID_55_" class="st0" d="M31.5,21.9c-0.6,0-1.1,0.1-1.6,0.3c0.1-0.4,0.1-0.9,0.1-1.3c0-4.9-4-8.9-8.9-8.9
	c-3.1,0-5.9,1.6-7.5,4.1c-0.5-0.2-1.1-0.3-1.7-0.3c-3.1,0-5.7,2.4-5.9,5.4C3.1,21.7,1,24.1,1,27c0,3.3,2.7,6,6,6h24.1
	c0.1,0,0,0,0.1,0c3.1,0,5.8-2.5,5.8-5.5S34.5,21.9,31.5,21.9z"/>
<path id="XMLID_7_" class="st1" d="M30.5,20.9c-0.6,0-1.1,0.1-1.6,0.3c0.1-0.4,0.1-0.9,0.1-1.3c0-4.9-4-8.9-8.9-8.9
	c-3.1,0-5.9,1.6-7.5,4.1c-0.5-0.2-1.1-0.3-1.7-0.3c-3.1,0-5.7,2.4-5.9,5.4C2.1,20.7,0,23.1,0,26c0,3.3,2.7,6,6,6h24.1
	c0.1,0,0,0,0.1,0c3.1,0,5.8-2.5,5.8-5.5S33.5,20.9,30.5,20.9z"/>
<path id="XMLID_61_" class="st2" d="M17.4,28H7.6C7.3,28,7,27.7,7,27.4V0.6C7,0.3,7.3,0,7.6,0l9.9,0C17.7,0,18,0.3,18,0.6v26.9
	C18,27.7,17.7,28,17.4,28z"/>
<path id="XMLID_60_" class="st2" d="M28.4,28h-7.9c-0.3,0-0.6-0.3-0.6-0.6V9.6C20,9.3,20.3,9,20.6,9h7.9C28.7,9,29,9.3,29,9.6v17.9
	C29,27.7,28.7,28,28.4,28z"/>
<path id="XMLID_59_" class="st0" d="M29,38H10c-0.5,0-1-0.5-1-1v0c0-0.5,0.4-1,1-1H29c0.5,0,1,0.4,1,1v0C30,37.6,29.6,38,29,38z"/>
<path id="XMLID_58_" class="st0" d="M18.5,36.5v-4.4c0-0.5,0.4-1,1-1h0c0.5,0,1,0.4,1,1v4.4c0,0.5-0.4,1-1,1h0
	C19,37.5,18.5,37,18.5,36.5z"/>
<path id="XMLID_1_" class="st3" d="M16.4,28H6.6C6.3,28,6,27.7,6,27.4V0.6C6,0.3,6.3,0,6.6,0l9.9,0C16.7,0,17,0.3,17,0.6v26.9
	C17,27.7,16.7,28,16.4,28z"/>
<path id="XMLID_3_" class="st3" d="M27.4,28h-7.9c-0.3,0-0.6-0.3-0.6-0.6V9.6C19,9.3,19.3,9,19.6,9h7.9C27.7,9,28,9.3,28,9.6v17.9
	C28,27.7,27.7,28,27.4,28z"/>
<g id="XMLID_46_">
	<g id="XMLID_43_">
		<g id="XMLID_19_">
			<path id="XMLID_2_" class="st4" d="M13.8,3.2H7.2C7.1,3.2,7,3.1,7,3V2.4c0-0.1,0.1-0.2,0.2-0.2h6.6c0.1,0,0.2,0.1,0.2,0.2V3
				C14,3.1,13.9,3.2,13.8,3.2z"/>
			<path id="XMLID_20_" class="st4" d="M15.8,3.2l-0.6,0C15.1,3.2,15,3.1,15,3l0-0.6c0-0.1,0.1-0.2,0.2-0.2l0.6,0
				c0.1,0,0.2,0.1,0.2,0.2L16,3C16,3.1,15.9,3.2,15.8,3.2z"/>
		</g>
		<g id="XMLID_22_">
			<path id="XMLID_24_" class="st4" d="M13.8,5.2H7.2C7.1,5.2,7,5.1,7,5V4.4c0-0.1,0.1-0.2,0.2-0.2h6.6c0.1,0,0.2,0.1,0.2,0.2V5
				C14,5.1,13.9,5.2,13.8,5.2z"/>
			<path id="XMLID_23_" class="st4" d="M15.8,5.2l-0.6,0C15.1,5.2,15,5.1,15,5l0-0.6c0-0.1,0.1-0.2,0.2-0.2l0.6,0
				c0.1,0,0.2,0.1,0.2,0.2L16,5C16,5.1,15.9,5.2,15.8,5.2z"/>
		</g>
		<g id="XMLID_25_">
			<path id="XMLID_27_" class="st4" d="M13.8,7.2H7.2C7.1,7.2,7,7.1,7,7V6.4c0-0.1,0.1-0.2,0.2-0.2h6.6c0.1,0,0.2,0.1,0.2,0.2V7
				C14,7.1,13.9,7.2,13.8,7.2z"/>
			<path id="XMLID_26_" class="st4" d="M15.8,7.2l-0.6,0C15.1,7.2,15,7.1,15,7l0-0.6c0-0.1,0.1-0.2,0.2-0.2l0.6,0
				c0.1,0,0.2,0.1,0.2,0.2L16,7C16,7.1,15.9,7.2,15.8,7.2z"/>
		</g>
		<g id="XMLID_28_">
			<path id="XMLID_30_" class="st4" d="M13.8,9.2H7.2C7.1,9.2,7,9.2,7,9V8.4c0-0.1,0.1-0.2,0.2-0.2h6.6c0.1,0,0.2,0.1,0.2,0.2V9
				C14,9.2,13.9,9.2,13.8,9.2z"/>
			<path id="XMLID_29_" class="st4" d="M15.8,9.2l-0.6,0C15.1,9.2,15,9.2,15,9l0-0.6c0-0.1,0.1-0.2,0.2-0.2l0.6,0
				c0.1,0,0.2,0.1,0.2,0.2l0,0.6C16,9.2,15.9,9.3,15.8,9.2z"/>
		</g>
		<g id="XMLID_31_">
			<path id="XMLID_33_" class="st4" d="M13.8,11.3H7.2c-0.1,0-0.2-0.1-0.2-0.2v-0.6c0-0.1,0.1-0.2,0.2-0.2h6.6
				c0.1,0,0.2,0.1,0.2,0.2v0.6C14,11.2,13.9,11.3,13.8,11.3z"/>
			<path id="XMLID_32_" class="st4" d="M15.8,11.3l-0.6,0c-0.1,0-0.2-0.1-0.2-0.2l0-0.6c0-0.1,0.1-0.2,0.2-0.2l0.6,0
				c0.1,0,0.2,0.1,0.2,0.2l0,0.6C16,11.2,15.9,11.3,15.8,11.3z"/>
		</g>
		<g id="XMLID_34_">
			<path id="XMLID_36_" class="st4" d="M13.8,13.3H7.2c-0.1,0-0.2-0.1-0.2-0.2v-0.6c0-0.1,0.1-0.2,0.2-0.2h6.6
				c0.1,0,0.2,0.1,0.2,0.2v0.6C14,13.2,13.9,13.3,13.8,13.3z"/>
			<path id="XMLID_35_" class="st4" d="M15.8,13.3l-0.6,0c-0.1,0-0.2-0.1-0.2-0.2l0-0.6c0-0.1,0.1-0.2,0.2-0.2l0.6,0
				c0.1,0,0.2,0.1,0.2,0.2l0,0.6C16,13.2,15.9,13.3,15.8,13.3z"/>
		</g>
		<g id="XMLID_37_">
			<path id="XMLID_39_" class="st4" d="M13.8,15.3H7.2c-0.1,0-0.2-0.1-0.2-0.2v-0.6c0-0.1,0.1-0.2,0.2-0.2h6.6
				c0.1,0,0.2,0.1,0.2,0.2v0.6C14,15.2,13.9,15.3,13.8,15.3z"/>
			<path id="XMLID_38_" class="st4" d="M15.8,15.3l-0.6,0c-0.1,0-0.2-0.1-0.2-0.2l0-0.6c0-0.1,0.1-0.2,0.2-0.2l0.6,0
				c0.1,0,0.2,0.1,0.2,0.2l0,0.6C16,15.2,15.9,15.3,15.8,15.3z"/>
		</g>
		<g id="XMLID_40_">
			<path id="XMLID_42_" class="st4" d="M13.8,17.3H7.2c-0.1,0-0.2-0.1-0.2-0.2v-0.6c0-0.1,0.1-0.2,0.2-0.2h6.6
				c0.1,0,0.2,0.1,0.2,0.2v0.6C14,17.2,13.9,17.3,13.8,17.3z"/>
			<path id="XMLID_41_" class="st4" d="M15.8,17.3l-0.6,0c-0.1,0-0.2-0.1-0.2-0.2l0-0.6c0-0.1,0.1-0.2,0.2-0.2l0.6,0
				c0.1,0,0.2,0.1,0.2,0.2l0,0.6C16,17.2,15.9,17.3,15.8,17.3z"/>
		</g>
	</g>
	<g id="XMLID_21_">
		<path id="XMLID_54_" class="st4" d="M24.8,11.3h-4.6c-0.1,0-0.2-0.1-0.2-0.2v-0.6c0-0.1,0.1-0.2,0.2-0.2h4.6
			c0.1,0,0.2,0.1,0.2,0.2v0.6C25,11.2,24.9,11.3,24.8,11.3z"/>
		<path id="XMLID_53_" class="st4" d="M26.8,11.3l-0.6,0c-0.1,0-0.2-0.1-0.2-0.2l0-0.6c0-0.1,0.1-0.2,0.2-0.2l0.6,0
			c0.1,0,0.2,0.1,0.2,0.2l0,0.6C27,11.2,26.9,11.3,26.8,11.3z"/>
		<path id="XMLID_51_" class="st4" d="M24.8,13.3h-4.6c-0.1,0-0.2-0.1-0.2-0.2v-0.6c0-0.1,0.1-0.2,0.2-0.2h4.6
			c0.1,0,0.2,0.1,0.2,0.2v0.6C25,13.2,24.9,13.3,24.8,13.3z"/>
		<path id="XMLID_50_" class="st4" d="M26.8,13.3l-0.6,0c-0.1,0-0.2-0.1-0.2-0.2l0-0.6c0-0.1,0.1-0.2,0.2-0.2l0.6,0
			c0.1,0,0.2,0.1,0.2,0.2l0,0.6C27,13.2,26.9,13.3,26.8,13.3z"/>
		<path id="XMLID_48_" class="st4" d="M24.8,15.3h-4.6c-0.1,0-0.2-0.1-0.2-0.2v-0.6c0-0.1,0.1-0.2,0.2-0.2h4.6
			c0.1,0,0.2,0.1,0.2,0.2v0.6C25,15.2,24.9,15.3,24.8,15.3z"/>
		<path id="XMLID_47_" class="st4" d="M26.8,15.3l-0.6,0c-0.1,0-0.2-0.1-0.2-0.2l0-0.6c0-0.1,0.1-0.2,0.2-0.2l0.6,0
			c0.1,0,0.2,0.1,0.2,0.2l0,0.6C27,15.2,26.9,15.3,26.8,15.3z"/>
		<path id="XMLID_45_" class="st4" d="M24.8,17.3h-4.6c-0.1,0-0.2-0.1-0.2-0.2v-0.6c0-0.1,0.1-0.2,0.2-0.2h4.6
			c0.1,0,0.2,0.1,0.2,0.2v0.6C25,17.2,24.9,17.3,24.8,17.3z"/>
		<path id="XMLID_44_" class="st4" d="M26.8,17.3l-0.6,0c-0.1,0-0.2-0.1-0.2-0.2l0-0.6c0-0.1,0.1-0.2,0.2-0.2l0.6,0
			c0.1,0,0.2,0.1,0.2,0.2l0,0.6C27,17.2,26.9,17.3,26.8,17.3z"/>
	</g>
</g>
<path id="XMLID_4_" class="st5" d="M29.2,26.8v-0.5h-1.8c0,0,0,0,0,0c0,0.2-0.1,0.3-0.3,0.3c-0.2,0-0.3-1.1-0.3-1.2c0,0,0,0,0,0h0
	c0-3.5-2.9-6.4-6.4-6.4c-3.3,0-6.1,2.5-6.4,5.8c-0.5-1.3-1.7-2.2-3.1-2.2c-1.8,0-3.3,1.4-3.3,3.2c0,0.8-0.7,1.4-1.4,1.4
	s-1.4,0-1.4-0.8H3.2v3.2c1,0.7,0.9,1.1,2.2,1.1h24.1c0.1,0,0.2,0,0.4,0c0.8,0,0.5-0.6,1.2-0.9l1-3.2H29.2z"/>
<path id="XMLID_52_" class="st1" d="M29.7,26.1v-0.5h-1.8c0,0,0,0,0,0c0,0.2-0.1,0.3-0.3,0.3c-0.2,0-0.3-0.1-0.3-0.3c0,0,0,0,0,0h0
	c0-3.5-2.9-6.4-6.4-6.4c-3.3,0-6.1,2.5-6.4,5.8c-0.5-1.3-1.7-2.2-3.1-2.2c-1.8,0-3.3,1.4-3.3,3.2c0,0.8-0.7,1.4-1.4,1.4
	s-1.4-0.6-1.4-1.4H2.5v3.8C3.4,30.6,4.7,31,6,31h24.1c0.1,0,0.2-0.2,0.4-0.2c0.8,0,1.5-0.6,2.2-0.9v-3.7H29.7z"/>
<path id="XMLID_56_" class="st1" d="M28,37H9c-0.5,0-1-0.5-1-1l0,0c0-0.5,0.4-1,1-1H28c0.5,0,1,0.5,1,1l0,0C29,36.5,28.6,37,28,37z"
	/>
<path id="XMLID_62_" class="st1" d="M20.6,36.2h-4.2c-0.5,0-0.9-0.4-0.9-0.9v-0.4c0-0.5,0.4-0.9,0.9-0.9h4.2c0.5,0,0.9,0.4,0.9,0.9
	v0.4C21.5,35.8,21.1,36.2,20.6,36.2z"/>
<path id="XMLID_57_" class="st1" d="M17.5,35.5v-4.4c0-0.5,0.4-1,1-1h0c0.5,0,1,0.4,1,1v4.4c0,0.5-0.4,1-1,1h0
	C17.9,36.5,17.5,36,17.5,35.5z"/>
</svg>
