<?xml version="1.0" encoding="utf-8"?>
<!-- Generator: Adobe Illustrator 16.0.0, SVG Export Plug-In . SVG Version: 6.00 Build 0)  -->
<!DOCTYPE svg PUBLIC "-//W3C//DTD SVG 1.1//EN" "http://www.w3.org/Graphics/SVG/1.1/DTD/svg11.dtd">
<svg version="1.1" id="图层_1" xmlns="http://www.w3.org/2000/svg" xmlns:xlink="http://www.w3.org/1999/xlink" x="0px" y="0px"
	 width="21.25px" height="21.25px" viewBox="0 0 21.25 21.25" enable-background="new 0 0 21.25 21.25" xml:space="preserve">
<g>
	<circle fill="#2A2B2B" cx="10.625" cy="10.627" r="10.125"/>
	<path fill="#131313" d="M10.625,21.25C4.767,21.25,0,16.484,0,10.627C0,4.768,4.767,0,10.625,0S21.25,4.768,21.25,10.627
		C21.25,16.484,16.483,21.25,10.625,21.25z M10.625,1C5.317,1,1,5.318,1,10.627c0,5.307,4.317,9.623,9.625,9.623
		s9.625-4.316,9.625-9.623C20.25,5.318,15.933,1,10.625,1z"/>
</g>
<g>
	<circle fill="#E5E5E4" cx="10.626" cy="11.094" r="6.403"/>
	<path fill="#131313" d="M10.625,17.997c-3.806,0-6.902-3.097-6.902-6.903S6.819,4.19,10.625,4.19c3.807,0,6.904,3.097,6.904,6.903
		S14.432,17.997,10.625,17.997z M10.625,5.19c-3.255,0-5.902,2.648-5.902,5.903s2.647,5.903,5.902,5.903
		c3.256,0,5.904-2.648,5.904-5.903S13.881,5.19,10.625,5.19z"/>
</g>
</svg>
