<?xml version="1.0" encoding="utf-8"?>
<!-- Generator: Adobe Illustrator 16.0.0, SVG Export Plug-In . SVG Version: 6.00 Build 0)  -->
<!DOCTYPE svg PUBLIC "-//W3C//DTD SVG 1.1//EN" "http://www.w3.org/Graphics/SVG/1.1/DTD/svg11.dtd">
<svg version="1.1" id="图层_1" xmlns="http://www.w3.org/2000/svg" xmlns:xlink="http://www.w3.org/1999/xlink" x="0px" y="0px"
	 width="255.08px" height="114.9px" viewBox="0 0 255.08 114.9" enable-background="new 0 0 255.08 114.9" xml:space="preserve">
<path fill="#E2E4E9" d="M255.064,111.744c0,1.656-1.352,3-3.018,3H2.996c-1.666,0-3.017-1.344-3.017-3V4.796
	c0-1.657,1.351-3,3.017-3h249.051c1.666,0,3.018,1.343,3.018,3V111.744z"/>
<path fill="#171A1E" d="M94.543,104.188c0,0.553-0.447,1-1,1H24.21c-0.552,0-1-0.447-1-1V15.854c0-0.552,0.448-1,1-1h69.333
	c0.553,0,1,0.448,1,1V104.188z"/>
<linearGradient id="SVGID_1_" gradientUnits="userSpaceOnUse" x1="29.397" y1="36.1587" x2="29.397" y2="79.6609">
	<stop  offset="0" style="stop-color:#EDDDAE"/>
	<stop  offset="0.1379" style="stop-color:#E8D9B3"/>
	<stop  offset="0.4253" style="stop-color:#EEBD65"/>
	<stop  offset="1" style="stop-color:#80452B"/>
</linearGradient>
<path fill="url(#SVGID_1_)" d="M36.709,77.992c0,1.104-0.893,2-1.994,2H24.078c-1.101,0-1.993-0.896-1.993-2V38.325
	c0-1.104,0.893-2,1.993-2h10.637c1.102,0,1.994,0.896,1.994,2V77.992z"/>
<polygon fill="#171A1E" points="152.896,5.042 203.146,5.042 236.146,38.042 236.146,79.541 203.521,112.166 152.896,112.166 
	121.709,80.979 121.709,39.042 "/>
<path fill="#373838" d="M192.896,26.44c0.125-0.377,8.992-18.752,8.992-18.752l6.758,6.125l-9.125,16.25L192.896,26.44z"/>
<polygon fill="#373838" points="199.564,87.688 211.564,101.355 202.95,107.355 193.564,90.355 198.771,87.125 "/>
<path fill="#373838" d="M144.678,46.938c-0.281,0-21.406,0-21.406,0v21.375l21.406,0.75l1.605-21.5L144.678,46.938z"/>
<g>
	<circle fill="#232830" stroke="#DDDDDD" stroke-width="2" stroke-miterlimit="10" cx="178.928" cy="58.521" r="34.25"/>
	<path fill="#DDDDDD" d="M205.547,33.866c-0.84,0.972-2.197,1.174-3.033,0.451l0,0c-0.836-0.722-0.834-2.095,0.006-3.066
		l10.832-12.537c0.84-0.972,2.197-1.174,3.033-0.452l0,0c0.836,0.722,0.833,2.096-0.006,3.067L205.547,33.866z"/>
	<path fill="#DDDDDD" d="M150.186,34.699c0.84,0.972,2.197,1.174,3.033,0.451l0,0c0.836-0.722,0.833-2.095-0.006-3.066
		l-10.832-12.537c-0.84-0.972-2.197-1.174-3.033-0.452l0,0c-0.836,0.722-0.833,2.096,0.006,3.067L150.186,34.699z"/>
	<path fill="#DDDDDD" d="M206.608,82.629c-0.84-0.973-2.198-1.174-3.033-0.451l0,0c-0.836,0.721-0.833,2.094,0.006,3.066
		l10.832,12.537c0.84,0.971,2.197,1.174,3.032,0.451l0,0c0.836-0.721,0.834-2.096-0.005-3.066L206.608,82.629z"/>
	<path fill="#DDDDDD" d="M151.246,81.795c0.841-0.971,2.198-1.174,3.034-0.451l0,0c0.835,0.723,0.833,2.096-0.006,3.066
		l-10.832,12.537c-0.84,0.973-2.197,1.174-3.033,0.453l0,0c-0.836-0.723-0.833-2.096,0.005-3.068L151.246,81.795z"/>
</g>
<g>
	<path fill="#EAEDF0" stroke="#9B9A9A" stroke-miterlimit="10" d="M223.544,0.488c5.542,0,10.038,4.564,10.038,10.2
		c0,5.63-4.496,10.196-10.038,10.196c-5.544,0-10.038-4.566-10.038-10.196C213.506,5.052,218,0.488,223.544,0.488"/>
	<rect x="218.332" y="8.831" fill="#040000" width="10.427" height="3.707"/>
	<rect x="221.719" y="5.389" fill="#040000" width="3.652" height="10.593"/>
</g>
<g>
	<path fill="#EAEDF0" stroke="#9B9A9A" stroke-miterlimit="10" d="M135.162,0.488c5.542,0,10.038,4.564,10.038,10.2
		c0,5.63-4.496,10.196-10.038,10.196c-5.544,0-10.038-4.566-10.038-10.196C125.124,5.052,129.618,0.488,135.162,0.488"/>
	<rect x="129.951" y="8.831" fill="#040000" width="10.426" height="3.707"/>
	<rect x="133.337" y="5.389" fill="#040000" width="3.652" height="10.593"/>
</g>
<g>
	<path fill="#EAEDF0" stroke="#9B9A9A" stroke-miterlimit="10" d="M223.544,93.994c5.542,0,10.038,4.564,10.038,10.199
		c0,5.631-4.496,10.197-10.038,10.197c-5.544,0-10.038-4.566-10.038-10.197C213.506,98.559,218,93.994,223.544,93.994"/>
	<rect x="218.332" y="102.336" fill="#040000" width="10.427" height="3.707"/>
	<rect x="221.719" y="98.895" fill="#040000" width="3.652" height="10.594"/>
</g>
<g>
	<path fill="#EAEDF0" stroke="#9B9A9A" stroke-miterlimit="10" d="M135.162,93.994c5.542,0,10.038,4.564,10.038,10.199
		c0,5.631-4.496,10.197-10.038,10.197c-5.544,0-10.038-4.566-10.038-10.197C125.124,98.559,129.618,93.994,135.162,93.994"/>
	<rect x="129.951" y="102.336" fill="#040000" width="10.426" height="3.707"/>
	<rect x="133.337" y="98.895" fill="#040000" width="3.652" height="10.594"/>
</g>
<g>
	<linearGradient id="SVGID_2_" gradientUnits="userSpaceOnUse" x1="99.043" y1="11.061" x2="99.043" y2="26.7548">
		<stop  offset="0.0038" style="stop-color:#92979B"/>
		<stop  offset="1" style="stop-color:#58595E"/>
	</linearGradient>
	<path fill="url(#SVGID_2_)" d="M103.543,9.02c0,0-8.625,0.083-9,9.333v8.75h5.667L103.543,9.02z"/>
	
		<linearGradient id="SVGID_3_" gradientUnits="userSpaceOnUse" x1="99.043" y1="4130.1035" x2="99.043" y2="4145.7983" gradientTransform="matrix(1 0 0 -1 0 4235.5)">
		<stop  offset="0.0038" style="stop-color:#92979B"/>
		<stop  offset="1" style="stop-color:#58595E"/>
	</linearGradient>
	<path fill="url(#SVGID_3_)" d="M103.543,107.438c0,0-8.625-0.084-9-9.334v-8.75h5.667L103.543,107.438z"/>
	<linearGradient id="SVGID_4_" gradientUnits="userSpaceOnUse" x1="110.376" y1="9.478" x2="110.376" y2="106.4986">
		<stop  offset="0" style="stop-color:#868A8D"/>
		<stop  offset="0.1134" style="stop-color:#EAEDF1"/>
		<stop  offset="0.2244" style="stop-color:#92979B"/>
		<stop  offset="0.6961" style="stop-color:#ABAFB2"/>
		<stop  offset="0.799" style="stop-color:#F0F2F4"/>
		<stop  offset="1" style="stop-color:#58595E"/>
	</linearGradient>
	<path fill="url(#SVGID_4_)" d="M121.709,102.645c0,3.314-2.686,6-6,6h-10.666c-3.313,0-6-2.686-6-6v-88c0-3.313,2.687-6,6-6h10.666
		c3.314,0,6,2.687,6,6V102.645z"/>
</g>
<text transform="matrix(1.4068 0 0 1 156.8223 62.5508)" fill="#FFFFFF" font-family="'Helvetica-Condensed-Black-Se'" font-size="15.5312">495W</text>
</svg>
