<?xml version="1.0" encoding="utf-8"?>
<!-- Generator: Adobe Illustrator 16.0.0, SVG Export Plug-In . SVG Version: 6.00 Build 0)  -->
<!DOCTYPE svg PUBLIC "-//W3C//DTD SVG 1.1//EN" "http://www.w3.org/Graphics/SVG/1.1/DTD/svg11.dtd">
<svg version="1.1" id="图层_1" xmlns="http://www.w3.org/2000/svg" xmlns:xlink="http://www.w3.org/1999/xlink" x="0px" y="0px"
	 width="8.67px" height="8.67px" viewBox="0 0 8.67 8.67" enable-background="new 0 0 8.67 8.67" xml:space="preserve">
<g>
	<path fill="#E5E5E4" d="M4.334,8.666c-2.389,0-4.332-1.943-4.332-4.332C0.002,1.944,1.945,0,4.334,0
		c2.39,0,4.334,1.944,4.334,4.334C8.668,6.723,6.724,8.666,4.334,8.666z M4.334,1C2.497,1,1.002,2.496,1.002,4.334
		c0,1.837,1.495,3.332,3.332,3.332c1.838,0,3.334-1.495,3.334-3.332C7.668,2.496,6.172,1,4.334,1z"/>
</g>
<g>
	<rect x="3.834" y="0.5" fill="#EAEAEA" width="1" height="7.666"/>
</g>
</svg>
