<?xml version="1.0" encoding="utf-8"?>
<!-- Generator: Adobe Illustrator 16.0.0, SVG Export Plug-In . SVG Version: 6.00 Build 0)  -->
<!DOCTYPE svg PUBLIC "-//W3C//DTD SVG 1.1//EN" "http://www.w3.org/Graphics/SVG/1.1/DTD/svg11.dtd">
<svg version="1.1" id="图层_1" xmlns="http://www.w3.org/2000/svg" xmlns:xlink="http://www.w3.org/1999/xlink" x="0px" y="0px"
	 width="1275.59px" height="252px" viewBox="0 0 1275.59 252" enable-background="new 0 0 1275.59 252" xml:space="preserve">
<g>
	<polygon fill="#E2E4E9" points="51.461,192.301 51.461,192.301 22.143,192.301 22.143,192.301 22.143,17.378 22.143,17.378 
		51.461,17.378 51.461,17.378 	"/>
	
		<text transform="matrix(1.175 0 0 1 31.1729 48.1836)" fill="#131313" stroke="#131313" stroke-miterlimit="10" font-family="'MicrosoftYaHei'" font-size="14.9679">1</text>
	
		<text transform="matrix(1.2319 0 0 1 30.5518 101.5498)" fill="#131313" stroke="#131313" stroke-miterlimit="10" font-family="'MicrosoftYaHei'" font-size="14.9679">2</text>
	
		<text transform="matrix(1.2319 0 0 1 30.5518 160.0967)" fill="#131313" stroke="#131313" stroke-miterlimit="10" font-family="'MicrosoftYaHei'" font-size="14.9679">3</text>
	<path fill="#040000" d="M43.051,28.783c0,0.531-0.448,0.963-1,0.963H31.552c-0.552,0-1-0.432-1-0.963V18.342
		c0-0.532,0.448-0.964,1-0.964h10.499c0.552,0,1,0.432,1,0.964V28.783z"/>
	<path fill="#040000" d="M43.051,68.382c0,0.532-0.448,0.964-1,0.964H31.552c-0.552,0-1-0.432-1-0.964v-10.44
		c0-0.532,0.448-0.964,1-0.964h10.499c0.552,0,1,0.432,1,0.964V68.382z"/>
	<path fill="#040000" d="M43.051,137.368c0,0.531-0.448,0.964-1,0.964H31.552c-0.552,0-1-0.433-1-0.964v-10.441
		c0-0.531,0.448-0.964,1-0.964h10.499c0.552,0,1,0.433,1,0.964V137.368z"/>
	<path fill="#040000" d="M43.051,184.992c0,0.532-0.448,0.965-1,0.965H31.552c-0.552,0-1-0.433-1-0.965v-10.44
		c0-0.532,0.448-0.964,1-0.964h10.499c0.552,0,1,0.432,1,0.964V184.992z"/>
	<ellipse fill="#131313" cx="31.552" cy="77.135" rx="3.076" ry="2.965"/>
</g>
<rect x="51.461" y="17.378" fill="#B9BCC0" width="219.809" height="174.923"/>
<path fill="#A2A3A5" stroke="#373838" stroke-miterlimit="10" d="M261.358,61.269c0,1.045-0.76,1.893-1.703,1.893H71.146
	c-0.939,0-1.703-0.848-1.703-1.893V29.724c0-1.045,0.764-1.893,1.703-1.893h188.51c0.943,0,1.703,0.848,1.703,1.893V61.269z"/>
<g>
	<path fill="#E2E4E9" stroke="#040000" stroke-miterlimit="10" d="M247.366,52.825c0,4.555-4.029,8.247-9,8.247h-133
		c-4.971,0-9-3.692-9-8.247v-14.66c0-4.555,4.029-8.246,9-8.246h133c4.971,0,9,3.691,9,8.246V52.825z"/>
	<path fill="#040000" d="M118.116,50.645c0,0.505-0.45,0.916-1,0.916h-10.5c-0.552,0-1-0.411-1-0.916v-9.927
		c0-0.506,0.448-0.917,1-0.917h10.5c0.55,0,1,0.411,1,0.917V50.645z"/>
	<path fill="#040000" d="M138.116,50.645c0,0.505-0.45,0.916-1,0.916h-10.5c-0.552,0-1-0.411-1-0.916v-9.927
		c0-0.506,0.448-0.917,1-0.917h10.5c0.55,0,1,0.411,1,0.917V50.645z"/>
	<path fill="#040000" d="M158.116,50.645c0,0.505-0.45,0.916-1,0.916h-10.5c-0.552,0-1-0.411-1-0.916v-9.927
		c0-0.506,0.448-0.917,1-0.917h10.5c0.55,0,1,0.411,1,0.917V50.645z"/>
	<path fill="#040000" d="M177.936,50.645c0,0.505-0.449,0.916-1,0.916h-10.5c-0.553,0-1-0.411-1-0.916v-9.927
		c0-0.506,0.447-0.917,1-0.917h10.5c0.551,0,1,0.411,1,0.917V50.645z"/>
	<path fill="#040000" d="M198.116,50.645c0,0.505-0.45,0.916-1,0.916h-10.5c-0.552,0-1-0.411-1-0.916v-9.927
		c0-0.506,0.448-0.917,1-0.917h10.5c0.55,0,1,0.411,1,0.917V50.645z"/>
	<path fill="#040000" d="M218.116,50.645c0,0.505-0.45,0.916-1,0.916h-10.5c-0.552,0-1-0.411-1-0.916v-9.927
		c0-0.506,0.448-0.917,1-0.917h10.5c0.55,0,1,0.411,1,0.917V50.645z"/>
	<path fill="#040000" d="M238.116,50.645c0,0.505-0.45,0.916-1,0.916h-10.5c-0.552,0-1-0.411-1-0.916v-9.927
		c0-0.506,0.448-0.917,1-0.917h10.5c0.55,0,1,0.411,1,0.917V50.645z"/>
</g>
<path fill="#050101" d="M88.453,40.888c0,1.214-0.983,2.196-2.194,2.196h-8.776c-1.211,0-2.193-0.982-2.193-2.196v-8.774
	c0-1.214,0.982-2.194,2.193-2.194h8.776c1.211,0,2.194,0.98,2.194,2.194V40.888z"/>
<path fill="#050101" d="M88.453,59.152c0,1.214-0.983,2.196-2.194,2.196h-8.776c-1.211,0-2.193-0.982-2.193-2.196v-8.774
	c0-1.214,0.982-2.194,2.193-2.194h8.776c1.211,0,2.194,0.98,2.194,2.194V59.152z"/>
<path fill="#A2A3A5" stroke="#373838" stroke-miterlimit="10" d="M261.358,180.173c0,1.045-0.76,1.893-1.703,1.893H71.146
	c-0.939,0-1.703-0.848-1.703-1.893v-31.545c0-1.045,0.764-1.893,1.703-1.893h188.51c0.943,0,1.703,0.848,1.703,1.893V180.173z"/>
<g>
	<path fill="#E2E4E9" stroke="#040000" stroke-miterlimit="10" d="M247.366,171.729c0,4.555-4.029,8.247-9,8.247h-133
		c-4.971,0-9-3.692-9-8.247v-14.66c0-4.555,4.029-8.246,9-8.246h133c4.971,0,9,3.691,9,8.246V171.729z"/>
	<path fill="#040000" d="M118.116,169.549c0,0.505-0.45,0.916-1,0.916h-10.5c-0.552,0-1-0.411-1-0.916v-9.927
		c0-0.506,0.448-0.917,1-0.917h10.5c0.55,0,1,0.411,1,0.917V169.549z"/>
	<path fill="#040000" d="M138.116,169.549c0,0.505-0.45,0.916-1,0.916h-10.5c-0.552,0-1-0.411-1-0.916v-9.927
		c0-0.506,0.448-0.917,1-0.917h10.5c0.55,0,1,0.411,1,0.917V169.549z"/>
	<path fill="#040000" d="M158.116,169.549c0,0.505-0.45,0.916-1,0.916h-10.5c-0.552,0-1-0.411-1-0.916v-9.927
		c0-0.506,0.448-0.917,1-0.917h10.5c0.55,0,1,0.411,1,0.917V169.549z"/>
	<path fill="#040000" d="M177.936,169.549c0,0.505-0.449,0.916-1,0.916h-10.5c-0.553,0-1-0.411-1-0.916v-9.927
		c0-0.506,0.447-0.917,1-0.917h10.5c0.551,0,1,0.411,1,0.917V169.549z"/>
	<path fill="#040000" d="M198.116,169.549c0,0.505-0.45,0.916-1,0.916h-10.5c-0.552,0-1-0.411-1-0.916v-9.927
		c0-0.506,0.448-0.917,1-0.917h10.5c0.55,0,1,0.411,1,0.917V169.549z"/>
	<path fill="#040000" d="M218.116,169.549c0,0.505-0.45,0.916-1,0.916h-10.5c-0.552,0-1-0.411-1-0.916v-9.927
		c0-0.506,0.448-0.917,1-0.917h10.5c0.55,0,1,0.411,1,0.917V169.549z"/>
	<path fill="#040000" d="M238.116,169.549c0,0.505-0.45,0.916-1,0.916h-10.5c-0.552,0-1-0.411-1-0.916v-9.927
		c0-0.506,0.448-0.917,1-0.917h10.5c0.55,0,1,0.411,1,0.917V169.549z"/>
</g>
<path fill="#050101" d="M88.453,159.792c0,1.214-0.983,2.196-2.194,2.196h-8.776c-1.211,0-2.193-0.982-2.193-2.196v-8.774
	c0-1.214,0.982-2.194,2.193-2.194h8.776c1.211,0,2.194,0.98,2.194,2.194V159.792z"/>
<path fill="#050101" d="M88.453,178.057c0,1.214-0.983,2.196-2.194,2.196h-8.776c-1.211,0-2.193-0.982-2.193-2.196v-8.774
	c0-1.214,0.982-2.194,2.193-2.194h8.776c1.211,0,2.194,0.98,2.194,2.194V178.057z"/>
<g>
	<path fill="#C0C1C3" stroke="#565859" stroke-miterlimit="10" d="M265.249,75.506c0,2.762-2.387,5-5.331,5H95.211
		c-2.943,0-5.33-2.238-5.33-5l0,0c0-2.762,2.387-5,5.33-5h164.707C262.862,70.506,265.249,72.744,265.249,75.506L265.249,75.506z"/>
	<path fill="#EAEAEA" stroke="#565859" stroke-miterlimit="10" d="M264.877,72.599c0,1.155-0.935,2.093-2.088,2.093H91.969
		c-1.152,0-2.088-0.938-2.088-2.093l0,0c0-1.155,0.936-2.093,2.088-2.093h170.82C263.942,70.506,264.877,71.443,264.877,72.599
		L264.877,72.599z"/>
</g>
<g>
	<path fill="#C0C1C3" stroke="#565859" stroke-miterlimit="10" d="M265.249,135.256c0,2.762-2.387,5-5.331,5H95.211
		c-2.943,0-5.33-2.238-5.33-5l0,0c0-2.762,2.387-5,5.33-5h164.707C262.862,130.256,265.249,132.494,265.249,135.256L265.249,135.256
		z"/>
	<path fill="#EAEAEA" stroke="#565859" stroke-miterlimit="10" d="M264.877,132.349c0,1.155-0.935,2.093-2.088,2.093H91.969
		c-1.152,0-2.088-0.938-2.088-2.093l0,0c0-1.155,0.936-2.093,2.088-2.093h170.82C263.942,130.256,264.877,131.193,264.877,132.349
		L264.877,132.349z"/>
</g>
<rect x="271.27" y="17.378" fill="#DBDCE1" stroke="#222222" stroke-miterlimit="10" width="1004.125" height="174.923"/>
<path fill="#050101" d="M289.652,33.339c0,1.273-1.031,2.304-2.302,2.304h-9.204c-1.271,0-2.301-1.03-2.301-2.304v-9.202
	c0-1.273,1.03-2.302,2.301-2.302h9.204c1.271,0,2.302,1.028,2.302,2.302V33.339z"/>
<path fill="#050101" d="M289.652,50.377c0,1.273-1.031,2.303-2.302,2.303h-9.204c-1.271,0-2.301-1.029-2.301-2.303v-9.203
	c0-1.272,1.03-2.301,2.301-2.301h9.204c1.271,0,2.302,1.028,2.302,2.301V50.377z"/>
<path fill="#050101" d="M289.652,67.069c0,1.273-1.031,2.304-2.302,2.304h-9.204c-1.271,0-2.301-1.03-2.301-2.304v-9.202
	c0-1.273,1.03-2.302,2.301-2.302h9.204c1.271,0,2.302,1.028,2.302,2.302V67.069z"/>
<path fill="#050101" d="M289.652,84.107c0,1.273-1.031,2.304-2.302,2.304h-9.204c-1.271,0-2.301-1.03-2.301-2.304v-9.203
	c0-1.272,1.03-2.301,2.301-2.301h9.204c1.271,0,2.302,1.028,2.302,2.301V84.107z"/>
<path fill="#050101" d="M289.652,100.8c0,1.273-1.031,2.304-2.302,2.304h-9.204c-1.271,0-2.301-1.03-2.301-2.304v-9.202
	c0-1.273,1.03-2.302,2.301-2.302h9.204c1.271,0,2.302,1.028,2.302,2.302V100.8z"/>
<path fill="#050101" d="M289.652,117.838c0,1.273-1.031,2.304-2.302,2.304h-9.204c-1.271,0-2.301-1.03-2.301-2.304v-9.203
	c0-1.272,1.03-2.301,2.301-2.301h9.204c1.271,0,2.302,1.028,2.302,2.301V117.838z"/>
<path fill="#050101" d="M289.652,134.53c0,1.273-1.031,2.304-2.302,2.304h-9.204c-1.271,0-2.301-1.03-2.301-2.304v-9.202
	c0-1.273,1.03-2.302,2.301-2.302h9.204c1.271,0,2.302,1.028,2.302,2.302V134.53z"/>
<path fill="#050101" d="M289.652,151.568c0,1.273-1.031,2.304-2.302,2.304h-9.204c-1.271,0-2.301-1.03-2.301-2.304v-9.202
	c0-1.273,1.03-2.302,2.301-2.302h9.204c1.271,0,2.302,1.028,2.302,2.302V151.568z"/>
<path fill="#050101" d="M289.652,168.262c0,1.272-1.031,2.303-2.302,2.303h-9.204c-1.271,0-2.301-1.03-2.301-2.303v-9.203
	c0-1.273,1.03-2.302,2.301-2.302h9.204c1.271,0,2.302,1.028,2.302,2.302V168.262z"/>
<path fill="#050101" d="M289.652,185.299c0,1.273-1.031,2.304-2.302,2.304h-9.204c-1.271,0-2.301-1.03-2.301-2.304v-9.202
	c0-1.273,1.03-2.302,2.301-2.302h9.204c1.271,0,2.302,1.028,2.302,2.302V185.299z"/>
<path fill="#050101" d="M306.236,151.568c0,1.273-1.031,2.304-2.302,2.304h-9.204c-1.271,0-2.301-1.03-2.301-2.304v-9.202
	c0-1.273,1.03-2.302,2.301-2.302h9.204c1.271,0,2.302,1.028,2.302,2.302V151.568z"/>
<path fill="#050101" d="M306.236,168.262c0,1.272-1.031,2.303-2.302,2.303h-9.204c-1.271,0-2.301-1.03-2.301-2.303v-9.203
	c0-1.273,1.03-2.302,2.301-2.302h9.204c1.271,0,2.302,1.028,2.302,2.302V168.262z"/>
<path fill="#050101" d="M306.236,185.299c0,1.273-1.031,2.304-2.302,2.304h-9.204c-1.271,0-2.301-1.03-2.301-2.304v-9.202
	c0-1.273,1.03-2.302,2.301-2.302h9.204c1.271,0,2.302,1.028,2.302,2.302V185.299z"/>
<path fill="#050101" d="M323.152,151.568c0,1.273-1.03,2.304-2.301,2.304h-9.204c-1.271,0-2.301-1.03-2.301-2.304v-9.202
	c0-1.273,1.03-2.302,2.301-2.302h9.204c1.271,0,2.301,1.028,2.301,2.302V151.568z"/>
<path fill="#050101" d="M355.666,141.42c0,1.213-0.982,2.194-2.191,2.194h-8.768c-1.211,0-2.191-0.981-2.191-2.194v-8.765
	c0-1.214,0.98-2.193,2.191-2.193h8.768c1.209,0,2.191,0.979,2.191,2.193V141.42z"/>
<path fill="#050101" d="M372.051,141.42c0,1.213-0.982,2.194-2.192,2.194h-8.768c-1.21,0-2.191-0.981-2.191-2.194v-8.765
	c0-1.214,0.981-2.193,2.191-2.193h8.768c1.21,0,2.192,0.979,2.192,2.193V141.42z"/>
<path fill="#050101" d="M388.435,141.42c0,1.213-0.982,2.194-2.193,2.194h-8.766c-1.21,0-2.191-0.981-2.191-2.194v-8.765
	c0-1.214,0.981-2.193,2.191-2.193h8.766c1.211,0,2.193,0.979,2.193,2.193V141.42z"/>
<path fill="#050101" d="M404.819,141.42c0,1.213-0.982,2.194-2.192,2.194h-8.767c-1.211,0-2.192-0.981-2.192-2.194v-8.765
	c0-1.214,0.981-2.193,2.192-2.193h8.767c1.21,0,2.192,0.979,2.192,2.193V141.42z"/>
<path fill="#050101" d="M421.204,141.42c0,1.213-0.983,2.194-2.193,2.194h-8.767c-1.211,0-2.193-0.981-2.193-2.194v-8.765
	c0-1.214,0.982-2.193,2.193-2.193h8.767c1.21,0,2.193,0.979,2.193,2.193V141.42z"/>
<path fill="#050101" d="M437.588,141.42c0,1.213-0.982,2.194-2.193,2.194h-8.766c-1.211,0-2.191-0.981-2.191-2.194v-8.765
	c0-1.214,0.98-2.193,2.191-2.193h8.766c1.211,0,2.193,0.979,2.193,2.193V141.42z"/>
<path fill="#050101" d="M453.973,141.42c0,1.213-0.983,2.194-2.193,2.194h-8.767c-1.21,0-2.192-0.981-2.192-2.194v-8.765
	c0-1.214,0.982-2.193,2.192-2.193h8.767c1.21,0,2.193,0.979,2.193,2.193V141.42z"/>
<path fill="#050101" d="M470.356,141.42c0,1.213-0.983,2.194-2.193,2.194h-8.766c-1.211,0-2.192-0.981-2.192-2.194v-8.765
	c0-1.214,0.981-2.193,2.192-2.193h8.766c1.21,0,2.193,0.979,2.193,2.193V141.42z"/>
<path fill="#050101" d="M486.74,141.42c0,1.213-0.981,2.194-2.191,2.194h-8.768c-1.211,0-2.191-0.981-2.191-2.194v-8.765
	c0-1.214,0.98-2.193,2.191-2.193h8.768c1.21,0,2.191,0.979,2.191,2.193V141.42z"/>
<path fill="#050101" d="M503.124,141.42c0,1.213-0.982,2.194-2.191,2.194h-8.768c-1.212,0-2.191-0.981-2.191-2.194v-8.765
	c0-1.214,0.979-2.193,2.191-2.193h8.768c1.209,0,2.191,0.979,2.191,2.193V141.42z"/>
<path fill="#050101" d="M519.508,141.42c0,1.213-0.98,2.194-2.191,2.194h-8.768c-1.209,0-2.191-0.981-2.191-2.194v-8.765
	c0-1.214,0.982-2.193,2.191-2.193h8.768c1.211,0,2.191,0.979,2.191,2.193V141.42z"/>
<path fill="#050101" d="M535.893,141.42c0,1.213-0.982,2.194-2.193,2.194h-8.766c-1.21,0-2.191-0.981-2.191-2.194v-8.765
	c0-1.214,0.981-2.193,2.191-2.193h8.766c1.211,0,2.193,0.979,2.193,2.193V141.42z"/>
<path fill="#050101" d="M552.277,141.42c0,1.213-0.982,2.194-2.192,2.194h-8.769c-1.209,0-2.19-0.981-2.19-2.194v-8.765
	c0-1.214,0.981-2.193,2.19-2.193h8.769c1.21,0,2.192,0.979,2.192,2.193V141.42z"/>
<path fill="#050101" d="M568.662,141.42c0,1.213-0.982,2.194-2.191,2.194h-8.77c-1.209,0-2.191-0.981-2.191-2.194v-8.765
	c0-1.214,0.982-2.193,2.191-2.193h8.77c1.209,0,2.191,0.979,2.191,2.193V141.42z"/>
<path fill="#050101" d="M585.045,141.42c0,1.213-0.98,2.194-2.191,2.194h-8.768c-1.209,0-2.191-0.981-2.191-2.194v-8.765
	c0-1.214,0.982-2.193,2.191-2.193h8.768c1.211,0,2.191,0.979,2.191,2.193V141.42z"/>
<path fill="#050101" d="M601.431,141.42c0,1.213-0.983,2.194-2.194,2.194h-8.767c-1.21,0-2.191-0.981-2.191-2.194v-8.765
	c0-1.214,0.981-2.193,2.191-2.193h8.767c1.211,0,2.194,0.979,2.194,2.193V141.42z"/>
<path fill="#050101" d="M617.814,141.42c0,1.213-0.983,2.194-2.193,2.194h-8.766c-1.211,0-2.192-0.981-2.192-2.194v-8.765
	c0-1.214,0.981-2.193,2.192-2.193h8.766c1.21,0,2.193,0.979,2.193,2.193V141.42z"/>
<path fill="#050101" d="M634.198,141.42c0,1.213-0.98,2.194-2.191,2.194h-8.768c-1.211,0-2.191-0.981-2.191-2.194v-8.765
	c0-1.214,0.98-2.193,2.191-2.193h8.768c1.211,0,2.191,0.979,2.191,2.193V141.42z"/>
<path fill="#050101" d="M388.435,158.254c0,1.213-0.982,2.194-2.193,2.194h-8.766c-1.21,0-2.191-0.981-2.191-2.194v-8.765
	c0-1.214,0.981-2.193,2.191-2.193h8.766c1.211,0,2.193,0.979,2.193,2.193V158.254z"/>
<path fill="#050101" d="M404.819,158.254c0,1.213-0.982,2.194-2.192,2.194h-8.767c-1.211,0-2.192-0.981-2.192-2.194v-8.765
	c0-1.214,0.981-2.193,2.192-2.193h8.767c1.21,0,2.192,0.979,2.192,2.193V158.254z"/>
<path fill="#050101" d="M421.204,158.254c0,1.213-0.983,2.194-2.193,2.194h-8.767c-1.211,0-2.193-0.981-2.193-2.194v-8.765
	c0-1.214,0.982-2.193,2.193-2.193h8.767c1.21,0,2.193,0.979,2.193,2.193V158.254z"/>
<path fill="#050101" d="M437.588,158.254c0,1.213-0.982,2.194-2.193,2.194h-8.766c-1.211,0-2.191-0.981-2.191-2.194v-8.765
	c0-1.214,0.98-2.193,2.191-2.193h8.766c1.211,0,2.193,0.979,2.193,2.193V158.254z"/>
<path fill="#050101" d="M453.973,158.254c0,1.213-0.983,2.194-2.193,2.194h-8.767c-1.21,0-2.192-0.981-2.192-2.194v-8.765
	c0-1.214,0.982-2.193,2.192-2.193h8.767c1.21,0,2.193,0.979,2.193,2.193V158.254z"/>
<path fill="#050101" d="M470.356,158.254c0,1.213-0.983,2.194-2.193,2.194h-8.766c-1.211,0-2.192-0.981-2.192-2.194v-8.765
	c0-1.214,0.981-2.193,2.192-2.193h8.766c1.21,0,2.193,0.979,2.193,2.193V158.254z"/>
<path fill="#050101" d="M486.74,158.254c0,1.213-0.981,2.194-2.191,2.194h-8.768c-1.211,0-2.191-0.981-2.191-2.194v-8.765
	c0-1.214,0.98-2.193,2.191-2.193h8.768c1.21,0,2.191,0.979,2.191,2.193V158.254z"/>
<path fill="#050101" d="M503.124,158.254c0,1.213-0.982,2.194-2.191,2.194h-8.768c-1.212,0-2.191-0.981-2.191-2.194v-8.765
	c0-1.214,0.979-2.193,2.191-2.193h8.768c1.209,0,2.191,0.979,2.191,2.193V158.254z"/>
<path fill="#050101" d="M519.508,158.254c0,1.213-0.98,2.194-2.191,2.194h-8.768c-1.209,0-2.191-0.981-2.191-2.194v-8.765
	c0-1.214,0.982-2.193,2.191-2.193h8.768c1.211,0,2.191,0.979,2.191,2.193V158.254z"/>
<path fill="#050101" d="M535.893,158.254c0,1.213-0.982,2.194-2.193,2.194h-8.766c-1.21,0-2.191-0.981-2.191-2.194v-8.765
	c0-1.214,0.981-2.193,2.191-2.193h8.766c1.211,0,2.193,0.979,2.193,2.193V158.254z"/>
<path fill="#050101" d="M552.277,158.254c0,1.213-0.982,2.194-2.192,2.194h-8.769c-1.209,0-2.19-0.981-2.19-2.194v-8.765
	c0-1.214,0.981-2.193,2.19-2.193h8.769c1.21,0,2.192,0.979,2.192,2.193V158.254z"/>
<path fill="#050101" d="M568.662,158.254c0,1.213-0.982,2.194-2.191,2.194h-8.77c-1.209,0-2.191-0.981-2.191-2.194v-8.765
	c0-1.214,0.982-2.193,2.191-2.193h8.77c1.209,0,2.191,0.979,2.191,2.193V158.254z"/>
<path fill="#050101" d="M585.045,158.254c0,1.213-0.98,2.194-2.191,2.194h-8.768c-1.209,0-2.191-0.981-2.191-2.194v-8.765
	c0-1.214,0.982-2.193,2.191-2.193h8.768c1.211,0,2.191,0.979,2.191,2.193V158.254z"/>
<path fill="#050101" d="M601.431,158.254c0,1.213-0.983,2.194-2.194,2.194h-8.767c-1.21,0-2.191-0.981-2.191-2.194v-8.765
	c0-1.214,0.981-2.193,2.191-2.193h8.767c1.211,0,2.194,0.979,2.194,2.193V158.254z"/>
<path fill="#050101" d="M617.814,158.254c0,1.213-0.983,2.194-2.193,2.194h-8.766c-1.211,0-2.192-0.981-2.192-2.194v-8.765
	c0-1.214,0.981-2.193,2.192-2.193h8.766c1.21,0,2.193,0.979,2.193,2.193V158.254z"/>
<path fill="#050101" d="M634.198,158.254c0,1.213-0.98,2.194-2.191,2.194h-8.768c-1.211,0-2.191-0.981-2.191-2.194v-8.765
	c0-1.214,0.98-2.193,2.191-2.193h8.768c1.211,0,2.191,0.979,2.191,2.193V158.254z"/>
<path fill="#050101" d="M388.435,175.088c0,1.213-0.982,2.194-2.193,2.194h-8.766c-1.21,0-2.191-0.981-2.191-2.194v-8.765
	c0-1.214,0.981-2.193,2.191-2.193h8.766c1.211,0,2.193,0.979,2.193,2.193V175.088z"/>
<path fill="#050101" d="M404.819,175.088c0,1.213-0.982,2.194-2.192,2.194h-8.767c-1.211,0-2.192-0.981-2.192-2.194v-8.765
	c0-1.214,0.981-2.193,2.192-2.193h8.767c1.21,0,2.192,0.979,2.192,2.193V175.088z"/>
<path fill="#050101" d="M421.204,175.088c0,1.213-0.983,2.194-2.193,2.194h-8.767c-1.211,0-2.193-0.981-2.193-2.194v-8.765
	c0-1.214,0.982-2.193,2.193-2.193h8.767c1.21,0,2.193,0.979,2.193,2.193V175.088z"/>
<path fill="#050101" d="M437.588,175.088c0,1.213-0.982,2.194-2.193,2.194h-8.766c-1.211,0-2.191-0.981-2.191-2.194v-8.765
	c0-1.214,0.98-2.193,2.191-2.193h8.766c1.211,0,2.193,0.979,2.193,2.193V175.088z"/>
<path fill="#050101" d="M453.973,175.088c0,1.213-0.983,2.194-2.193,2.194h-8.767c-1.21,0-2.192-0.981-2.192-2.194v-8.765
	c0-1.214,0.982-2.193,2.192-2.193h8.767c1.21,0,2.193,0.979,2.193,2.193V175.088z"/>
<path fill="#050101" d="M470.356,175.088c0,1.213-0.983,2.194-2.193,2.194h-8.766c-1.211,0-2.192-0.981-2.192-2.194v-8.765
	c0-1.214,0.981-2.193,2.192-2.193h8.766c1.21,0,2.193,0.979,2.193,2.193V175.088z"/>
<path fill="#050101" d="M486.74,175.088c0,1.213-0.981,2.194-2.191,2.194h-8.768c-1.211,0-2.191-0.981-2.191-2.194v-8.765
	c0-1.214,0.98-2.193,2.191-2.193h8.768c1.21,0,2.191,0.979,2.191,2.193V175.088z"/>
<path fill="#050101" d="M503.124,175.088c0,1.213-0.982,2.194-2.191,2.194h-8.768c-1.212,0-2.191-0.981-2.191-2.194v-8.765
	c0-1.214,0.979-2.193,2.191-2.193h8.768c1.209,0,2.191,0.979,2.191,2.193V175.088z"/>
<path fill="#050101" d="M519.508,175.088c0,1.213-0.98,2.194-2.191,2.194h-8.768c-1.209,0-2.191-0.981-2.191-2.194v-8.765
	c0-1.214,0.982-2.193,2.191-2.193h8.768c1.211,0,2.191,0.979,2.191,2.193V175.088z"/>
<path fill="#050101" d="M535.893,175.088c0,1.213-0.982,2.194-2.193,2.194h-8.766c-1.21,0-2.191-0.981-2.191-2.194v-8.765
	c0-1.214,0.981-2.193,2.191-2.193h8.766c1.211,0,2.193,0.979,2.193,2.193V175.088z"/>
<path fill="#050101" d="M552.277,175.088c0,1.213-0.982,2.194-2.192,2.194h-8.769c-1.209,0-2.19-0.981-2.19-2.194v-8.765
	c0-1.214,0.981-2.193,2.19-2.193h8.769c1.21,0,2.192,0.979,2.192,2.193V175.088z"/>
<path fill="#050101" d="M568.662,175.088c0,1.213-0.982,2.194-2.191,2.194h-8.77c-1.209,0-2.191-0.981-2.191-2.194v-8.765
	c0-1.214,0.982-2.193,2.191-2.193h8.77c1.209,0,2.191,0.979,2.191,2.193V175.088z"/>
<path fill="#050101" d="M585.045,175.088c0,1.213-0.98,2.194-2.191,2.194h-8.768c-1.209,0-2.191-0.981-2.191-2.194v-8.765
	c0-1.214,0.982-2.193,2.191-2.193h8.768c1.211,0,2.191,0.979,2.191,2.193V175.088z"/>
<path fill="#050101" d="M601.431,175.088c0,1.213-0.983,2.194-2.194,2.194h-8.767c-1.21,0-2.191-0.981-2.191-2.194v-8.765
	c0-1.214,0.981-2.193,2.191-2.193h8.767c1.211,0,2.194,0.979,2.194,2.193V175.088z"/>
<path fill="#050101" d="M617.814,175.088c0,1.213-0.983,2.194-2.193,2.194h-8.766c-1.211,0-2.192-0.981-2.192-2.194v-8.765
	c0-1.214,0.981-2.193,2.192-2.193h8.766c1.21,0,2.193,0.979,2.193,2.193V175.088z"/>
<path fill="#050101" d="M634.198,175.088c0,1.213-0.98,2.194-2.191,2.194h-8.768c-1.211,0-2.191-0.981-2.191-2.194v-8.765
	c0-1.214,0.98-2.193,2.191-2.193h8.768c1.211,0,2.191,0.979,2.191,2.193V175.088z"/>
<path fill="#050101" d="M650.657,141.42c0,1.213-0.982,2.194-2.192,2.194h-8.769c-1.209,0-2.19-0.981-2.19-2.194v-8.765
	c0-1.214,0.981-2.193,2.19-2.193h8.769c1.21,0,2.192,0.979,2.192,2.193V141.42z"/>
<path fill="#050101" d="M667.042,141.42c0,1.213-0.982,2.194-2.191,2.194h-8.77c-1.209,0-2.191-0.981-2.191-2.194v-8.765
	c0-1.214,0.982-2.193,2.191-2.193h8.77c1.209,0,2.191,0.979,2.191,2.193V141.42z"/>
<path fill="#050101" d="M683.425,141.42c0,1.213-0.98,2.194-2.191,2.194h-8.768c-1.209,0-2.191-0.981-2.191-2.194v-8.765
	c0-1.214,0.982-2.193,2.191-2.193h8.768c1.211,0,2.191,0.979,2.191,2.193V141.42z"/>
<path fill="#050101" d="M699.811,141.42c0,1.213-0.983,2.194-2.193,2.194h-8.768c-1.21,0-2.191-0.981-2.191-2.194v-8.765
	c0-1.214,0.981-2.193,2.191-2.193h8.768c1.21,0,2.193,0.979,2.193,2.193V141.42z"/>
<path fill="#050101" d="M650.657,158.254c0,1.213-0.982,2.194-2.192,2.194h-8.769c-1.209,0-2.19-0.981-2.19-2.194v-8.765
	c0-1.214,0.981-2.193,2.19-2.193h8.769c1.21,0,2.192,0.979,2.192,2.193V158.254z"/>
<path fill="#050101" d="M667.042,158.254c0,1.213-0.982,2.194-2.191,2.194h-8.77c-1.209,0-2.191-0.981-2.191-2.194v-8.765
	c0-1.214,0.982-2.193,2.191-2.193h8.77c1.209,0,2.191,0.979,2.191,2.193V158.254z"/>
<path fill="#050101" d="M683.425,158.254c0,1.213-0.98,2.194-2.191,2.194h-8.768c-1.209,0-2.191-0.981-2.191-2.194v-8.765
	c0-1.214,0.982-2.193,2.191-2.193h8.768c1.211,0,2.191,0.979,2.191,2.193V158.254z"/>
<path fill="#050101" d="M699.811,158.254c0,1.213-0.983,2.194-2.193,2.194h-8.768c-1.21,0-2.191-0.981-2.191-2.194v-8.765
	c0-1.214,0.981-2.193,2.191-2.193h8.768c1.21,0,2.193,0.979,2.193,2.193V158.254z"/>
<path fill="#050101" d="M650.657,175.088c0,1.213-0.982,2.194-2.192,2.194h-8.769c-1.209,0-2.19-0.981-2.19-2.194v-8.765
	c0-1.214,0.981-2.193,2.19-2.193h8.769c1.21,0,2.192,0.979,2.192,2.193V175.088z"/>
<path fill="#050101" d="M667.042,175.088c0,1.213-0.982,2.194-2.191,2.194h-8.77c-1.209,0-2.191-0.981-2.191-2.194v-8.765
	c0-1.214,0.982-2.193,2.191-2.193h8.77c1.209,0,2.191,0.979,2.191,2.193V175.088z"/>
<path fill="#050101" d="M683.425,175.088c0,1.213-0.98,2.194-2.191,2.194h-8.768c-1.209,0-2.191-0.981-2.191-2.194v-8.765
	c0-1.214,0.982-2.193,2.191-2.193h8.768c1.211,0,2.191,0.979,2.191,2.193V175.088z"/>
<path fill="#050101" d="M699.811,175.088c0,1.213-0.983,2.194-2.193,2.194h-8.768c-1.21,0-2.191-0.981-2.191-2.194v-8.765
	c0-1.214,0.981-2.193,2.191-2.193h8.768c1.21,0,2.193,0.979,2.193,2.193V175.088z"/>
<path fill="#050101" d="M737.089,83.166c0,1.213-0.983,2.194-2.193,2.194h-8.768c-1.21,0-2.19-0.981-2.19-2.194v-8.765
	c0-1.214,0.98-2.193,2.19-2.193h8.768c1.21,0,2.193,0.979,2.193,2.193V83.166z"/>
<path fill="#050101" d="M737.089,100c0,1.213-0.983,2.194-2.193,2.194h-8.768c-1.21,0-2.19-0.981-2.19-2.194v-8.765
	c0-1.214,0.98-2.193,2.19-2.193h8.768c1.21,0,2.193,0.979,2.193,2.193V100z"/>
<path fill="#050101" d="M737.089,116.834c0,1.213-0.983,2.194-2.193,2.194h-8.768c-1.21,0-2.19-0.981-2.19-2.194v-8.765
	c0-1.214,0.98-2.193,2.19-2.193h8.768c1.21,0,2.193,0.979,2.193,2.193V116.834z"/>
<path fill="#050101" d="M323.152,168.262c0,1.272-1.03,2.303-2.301,2.303h-9.204c-1.271,0-2.301-1.03-2.301-2.303v-9.203
	c0-1.273,1.03-2.302,2.301-2.302h9.204c1.271,0,2.301,1.028,2.301,2.302V168.262z"/>
<path fill="#050101" d="M323.152,185.299c0,1.273-1.03,2.304-2.301,2.304h-9.204c-1.271,0-2.301-1.03-2.301-2.304v-9.202
	c0-1.273,1.03-2.302,2.301-2.302h9.204c1.271,0,2.301,1.028,2.301,2.302V185.299z"/>
<path fill="#EDEDED" stroke="#222222" stroke-miterlimit="10" d="M340.375,126.241c0,4.996-4.05,9.047-9.047,9.047h-30.156
	c-4.996,0-9.046-4.051-9.046-9.047V30.882c0-4.996,4.05-9.047,9.046-9.047h30.156c4.997,0,9.047,4.051,9.047,9.047V126.241z"/>
<path fill="#E2E4E9" stroke="#222222" stroke-miterlimit="10" d="M1273.391,0.693H2.581c-1.106,0-2.004,1.094-2.004,2.439v8.629
	c0,1.348,0.897,2.438,2.004,2.438h292.084v6.396c0,1.541,3.098,2.792,6.921,2.792h23.462c3.821,0,6.922-1.251,6.922-2.792V14.2
	h358.463v6.396c0,1.541,3.098,2.792,6.921,2.792h23.462c3.821,0,6.921-1.251,6.921-2.792V14.2h309.898v6.396
	c0,1.541,3.099,2.792,6.922,2.792h23.461c3.822,0,6.922-1.251,6.922-2.792V14.2h198.451c1.105,0,2.004-1.091,2.004-2.438V3.133
	C1275.395,1.787,1274.496,0.693,1273.391,0.693z"/>
<g>
	<path fill="#A2A3A5" stroke="#373838" stroke-miterlimit="10" d="M642.548,61.549c0,1.045-0.761,1.893-1.703,1.893H344.147
		c-0.939,0-1.703-0.848-1.703-1.893V30.004c0-1.045,0.764-1.893,1.703-1.893h296.697c0.942,0,1.703,0.848,1.703,1.893V61.549z"/>
	<path fill="#E2E4E9" stroke="#040000" stroke-miterlimit="10" d="M615.715,52.921c0,4.555-4.029,8.247-9,8.247H370.916
		c-4.971,0-9-3.692-9-8.247v-14.66c0-4.555,4.029-8.246,9-8.246h235.799c4.971,0,9,3.691,9,8.246V52.921z"/>
	<path fill="#040000" d="M384.833,50.74c0,0.505-0.45,0.916-1,0.916h-10.5c-0.552,0-1-0.411-1-0.916v-9.927
		c0-0.506,0.448-0.917,1-0.917h10.5c0.55,0,1,0.411,1,0.917V50.74z"/>
	<path fill="#040000" d="M404.833,50.74c0,0.505-0.45,0.916-1,0.916h-10.5c-0.552,0-1-0.411-1-0.916v-9.927
		c0-0.506,0.448-0.917,1-0.917h10.5c0.55,0,1,0.411,1,0.917V50.74z"/>
	<path fill="#040000" d="M424.833,50.74c0,0.505-0.45,0.916-1,0.916h-10.5c-0.552,0-1-0.411-1-0.916v-9.927
		c0-0.506,0.448-0.917,1-0.917h10.5c0.55,0,1,0.411,1,0.917V50.74z"/>
	<path fill="#040000" d="M444.652,50.74c0,0.505-0.449,0.916-1,0.916h-10.5c-0.552,0-1-0.411-1-0.916v-9.927
		c0-0.506,0.448-0.917,1-0.917h10.5c0.551,0,1,0.411,1,0.917V50.74z"/>
	<path fill="#040000" d="M464.833,50.74c0,0.505-0.45,0.916-1,0.916h-10.5c-0.552,0-1-0.411-1-0.916v-9.927
		c0-0.506,0.448-0.917,1-0.917h10.5c0.55,0,1,0.411,1,0.917V50.74z"/>
	<path fill="#040000" d="M484.833,50.74c0,0.505-0.45,0.916-1,0.916h-10.5c-0.552,0-1-0.411-1-0.916v-9.927
		c0-0.506,0.448-0.917,1-0.917h10.5c0.55,0,1,0.411,1,0.917V50.74z"/>
	<path fill="#040000" d="M504.999,50.74c0,0.505-0.449,0.916-1,0.916h-10.5c-0.552,0-1-0.411-1-0.916v-9.927
		c0-0.506,0.448-0.917,1-0.917h10.5c0.551,0,1,0.411,1,0.917V50.74z"/>
	<path fill="#040000" d="M524.999,50.74c0,0.505-0.449,0.916-1,0.916h-10.5c-0.552,0-1-0.411-1-0.916v-9.927
		c0-0.506,0.448-0.917,1-0.917h10.5c0.551,0,1,0.411,1,0.917V50.74z"/>
	<path fill="#040000" d="M544.999,50.74c0,0.505-0.449,0.916-1,0.916h-10.5c-0.552,0-1-0.411-1-0.916v-9.927
		c0-0.506,0.448-0.917,1-0.917h10.5c0.551,0,1,0.411,1,0.917V50.74z"/>
	<path fill="#040000" d="M564.818,50.74c0,0.505-0.449,0.916-1,0.916h-10.5c-0.552,0-1-0.411-1-0.916v-9.927
		c0-0.506,0.448-0.917,1-0.917h10.5c0.551,0,1,0.411,1,0.917V50.74z"/>
	<path fill="#040000" d="M584.999,50.74c0,0.505-0.449,0.916-1,0.916h-10.5c-0.552,0-1-0.411-1-0.916v-9.927
		c0-0.506,0.448-0.917,1-0.917h10.5c0.551,0,1,0.411,1,0.917V50.74z"/>
	<path fill="#040000" d="M604.999,50.74c0,0.505-0.449,0.916-1,0.916h-10.5c-0.552,0-1-0.411-1-0.916v-9.927
		c0-0.506,0.448-0.917,1-0.917h10.5c0.551,0,1,0.411,1,0.917V50.74z"/>
	<path fill="#040000" d="M633.873,41.982c0,0.505-0.449,0.916-1,0.916h-10.5c-0.553,0-1-0.411-1-0.916v-9.927
		c0-0.506,0.447-0.917,1-0.917h10.5c0.551,0,1,0.411,1,0.917V41.982z"/>
	<path fill="#040000" d="M633.873,59.316c0,0.505-0.449,0.916-1,0.916h-10.5c-0.553,0-1-0.411-1-0.916V49.39
		c0-0.506,0.447-0.917,1-0.917h10.5c0.551,0,1,0.411,1,0.917V59.316z"/>
</g>
<g>
	<path fill="#A2A3A5" stroke="#373838" stroke-miterlimit="10" d="M1025.04,61.549c0,1.045-0.76,1.893-1.703,1.893H726.64
		c-0.939,0-1.702-0.848-1.702-1.893V30.004c0-1.045,0.763-1.893,1.702-1.893h296.697c0.943,0,1.703,0.848,1.703,1.893V61.549z"/>
	<path fill="#E2E4E9" stroke="#040000" stroke-miterlimit="10" d="M998.207,52.921c0,4.555-4.029,8.247-9,8.247H753.408
		c-4.971,0-9-3.692-9-8.247v-14.66c0-4.555,4.029-8.246,9-8.246h235.799c4.971,0,9,3.691,9,8.246V52.921z"/>
	<path fill="#040000" d="M767.325,50.74c0,0.505-0.449,0.916-1,0.916h-10.5c-0.552,0-1-0.411-1-0.916v-9.927
		c0-0.506,0.448-0.917,1-0.917h10.5c0.551,0,1,0.411,1,0.917V50.74z"/>
	<path fill="#040000" d="M787.325,50.74c0,0.505-0.449,0.916-1,0.916h-10.5c-0.552,0-1-0.411-1-0.916v-9.927
		c0-0.506,0.448-0.917,1-0.917h10.5c0.551,0,1,0.411,1,0.917V50.74z"/>
	<path fill="#040000" d="M807.325,50.74c0,0.505-0.449,0.916-1,0.916h-10.5c-0.552,0-1-0.411-1-0.916v-9.927
		c0-0.506,0.448-0.917,1-0.917h10.5c0.551,0,1,0.411,1,0.917V50.74z"/>
	<path fill="#040000" d="M827.145,50.74c0,0.505-0.449,0.916-1,0.916h-10.5c-0.552,0-1-0.411-1-0.916v-9.927
		c0-0.506,0.448-0.917,1-0.917h10.5c0.551,0,1,0.411,1,0.917V50.74z"/>
	<path fill="#040000" d="M847.325,50.74c0,0.505-0.449,0.916-1,0.916h-10.5c-0.552,0-1-0.411-1-0.916v-9.927
		c0-0.506,0.448-0.917,1-0.917h10.5c0.551,0,1,0.411,1,0.917V50.74z"/>
	<path fill="#040000" d="M867.325,50.74c0,0.505-0.449,0.916-1,0.916h-10.5c-0.552,0-1-0.411-1-0.916v-9.927
		c0-0.506,0.448-0.917,1-0.917h10.5c0.551,0,1,0.411,1,0.917V50.74z"/>
	<path fill="#040000" d="M887.491,50.74c0,0.505-0.449,0.916-1,0.916h-10.5c-0.552,0-1-0.411-1-0.916v-9.927
		c0-0.506,0.448-0.917,1-0.917h10.5c0.551,0,1,0.411,1,0.917V50.74z"/>
	<path fill="#040000" d="M907.491,50.74c0,0.505-0.449,0.916-1,0.916h-10.5c-0.552,0-1-0.411-1-0.916v-9.927
		c0-0.506,0.448-0.917,1-0.917h10.5c0.551,0,1,0.411,1,0.917V50.74z"/>
	<path fill="#040000" d="M927.491,50.74c0,0.505-0.449,0.916-1,0.916h-10.5c-0.552,0-1-0.411-1-0.916v-9.927
		c0-0.506,0.448-0.917,1-0.917h10.5c0.551,0,1,0.411,1,0.917V50.74z"/>
	<path fill="#040000" d="M947.311,50.74c0,0.505-0.449,0.916-1,0.916h-10.5c-0.552,0-1-0.411-1-0.916v-9.927
		c0-0.506,0.448-0.917,1-0.917h10.5c0.551,0,1,0.411,1,0.917V50.74z"/>
	<path fill="#040000" d="M967.491,50.74c0,0.505-0.449,0.916-1,0.916h-10.5c-0.552,0-1-0.411-1-0.916v-9.927
		c0-0.506,0.448-0.917,1-0.917h10.5c0.551,0,1,0.411,1,0.917V50.74z"/>
	<path fill="#040000" d="M987.491,50.74c0,0.505-0.449,0.916-1,0.916h-10.5c-0.552,0-1-0.411-1-0.916v-9.927
		c0-0.506,0.448-0.917,1-0.917h10.5c0.551,0,1,0.411,1,0.917V50.74z"/>
	<path fill="#040000" d="M1016.365,41.982c0,0.505-0.449,0.916-1,0.916h-10.5c-0.552,0-1-0.411-1-0.916v-9.927
		c0-0.506,0.448-0.917,1-0.917h10.5c0.551,0,1,0.411,1,0.917V41.982z"/>
	<path fill="#040000" d="M1016.365,59.316c0,0.505-0.449,0.916-1,0.916h-10.5c-0.552,0-1-0.411-1-0.916V49.39
		c0-0.506,0.448-0.917,1-0.917h10.5c0.551,0,1,0.411,1,0.917V59.316z"/>
</g>
<g>
	<path fill="#A2A3A5" stroke="#373838" stroke-miterlimit="10" d="M642.548,120.148c0,1.045-0.761,1.893-1.703,1.893H344.147
		c-0.939,0-1.703-0.848-1.703-1.893V88.604c0-1.045,0.764-1.893,1.703-1.893h296.697c0.942,0,1.703,0.848,1.703,1.893V120.148z"/>
	<path fill="#E2E4E9" stroke="#040000" stroke-miterlimit="10" d="M615.715,111.521c0,4.555-4.029,8.247-9,8.247H370.916
		c-4.971,0-9-3.692-9-8.247V96.86c0-4.555,4.029-8.246,9-8.246h235.799c4.971,0,9,3.691,9,8.246V111.521z"/>
	<path fill="#040000" d="M384.833,109.34c0,0.505-0.45,0.916-1,0.916h-10.5c-0.552,0-1-0.411-1-0.916v-9.927
		c0-0.506,0.448-0.917,1-0.917h10.5c0.55,0,1,0.411,1,0.917V109.34z"/>
	<path fill="#040000" d="M404.833,109.34c0,0.505-0.45,0.916-1,0.916h-10.5c-0.552,0-1-0.411-1-0.916v-9.927
		c0-0.506,0.448-0.917,1-0.917h10.5c0.55,0,1,0.411,1,0.917V109.34z"/>
	<path fill="#040000" d="M424.833,109.34c0,0.505-0.45,0.916-1,0.916h-10.5c-0.552,0-1-0.411-1-0.916v-9.927
		c0-0.506,0.448-0.917,1-0.917h10.5c0.55,0,1,0.411,1,0.917V109.34z"/>
	<path fill="#040000" d="M444.652,109.34c0,0.505-0.449,0.916-1,0.916h-10.5c-0.552,0-1-0.411-1-0.916v-9.927
		c0-0.506,0.448-0.917,1-0.917h10.5c0.551,0,1,0.411,1,0.917V109.34z"/>
	<path fill="#040000" d="M464.833,109.34c0,0.505-0.45,0.916-1,0.916h-10.5c-0.552,0-1-0.411-1-0.916v-9.927
		c0-0.506,0.448-0.917,1-0.917h10.5c0.55,0,1,0.411,1,0.917V109.34z"/>
	<path fill="#040000" d="M484.833,109.34c0,0.505-0.45,0.916-1,0.916h-10.5c-0.552,0-1-0.411-1-0.916v-9.927
		c0-0.506,0.448-0.917,1-0.917h10.5c0.55,0,1,0.411,1,0.917V109.34z"/>
	<path fill="#040000" d="M504.999,109.34c0,0.505-0.449,0.916-1,0.916h-10.5c-0.552,0-1-0.411-1-0.916v-9.927
		c0-0.506,0.448-0.917,1-0.917h10.5c0.551,0,1,0.411,1,0.917V109.34z"/>
	<path fill="#040000" d="M524.999,109.34c0,0.505-0.449,0.916-1,0.916h-10.5c-0.552,0-1-0.411-1-0.916v-9.927
		c0-0.506,0.448-0.917,1-0.917h10.5c0.551,0,1,0.411,1,0.917V109.34z"/>
	<path fill="#040000" d="M544.999,109.34c0,0.505-0.449,0.916-1,0.916h-10.5c-0.552,0-1-0.411-1-0.916v-9.927
		c0-0.506,0.448-0.917,1-0.917h10.5c0.551,0,1,0.411,1,0.917V109.34z"/>
	<path fill="#040000" d="M564.818,109.34c0,0.505-0.449,0.916-1,0.916h-10.5c-0.552,0-1-0.411-1-0.916v-9.927
		c0-0.506,0.448-0.917,1-0.917h10.5c0.551,0,1,0.411,1,0.917V109.34z"/>
	<path fill="#040000" d="M584.999,109.34c0,0.505-0.449,0.916-1,0.916h-10.5c-0.552,0-1-0.411-1-0.916v-9.927
		c0-0.506,0.448-0.917,1-0.917h10.5c0.551,0,1,0.411,1,0.917V109.34z"/>
	<path fill="#040000" d="M604.999,109.34c0,0.505-0.449,0.916-1,0.916h-10.5c-0.552,0-1-0.411-1-0.916v-9.927
		c0-0.506,0.448-0.917,1-0.917h10.5c0.551,0,1,0.411,1,0.917V109.34z"/>
	<path fill="#040000" d="M633.873,100.582c0,0.505-0.449,0.916-1,0.916h-10.5c-0.553,0-1-0.411-1-0.916v-9.927
		c0-0.506,0.447-0.917,1-0.917h10.5c0.551,0,1,0.411,1,0.917V100.582z"/>
	<path fill="#040000" d="M633.873,117.916c0,0.505-0.449,0.916-1,0.916h-10.5c-0.553,0-1-0.411-1-0.916v-9.927
		c0-0.506,0.447-0.917,1-0.917h10.5c0.551,0,1,0.411,1,0.917V117.916z"/>
</g>
<path fill="#C0C1C3" stroke="#565859" stroke-miterlimit="10" d="M638.172,74.17c0,2.762-2.387,5-5.33,5H352.15
	c-2.943,0-5.33-2.238-5.33-5l0,0c0-2.762,2.387-5,5.33-5h280.691C635.785,69.17,638.172,71.408,638.172,74.17L638.172,74.17z"/>
<path fill="#EAEAEA" stroke="#565859" stroke-miterlimit="10" d="M637.8,71.263c0,1.155-0.935,2.093-2.088,2.093H348.908
	c-1.152,0-2.088-0.938-2.088-2.093l0,0c0-1.155,0.936-2.093,2.088-2.093h286.804C636.865,69.17,637.8,70.107,637.8,71.263
	L637.8,71.263z"/>
<g>
	<polygon fill="#CACACC" stroke="#666666" stroke-miterlimit="10" points="650.828,0.921 650.828,129.415 683.796,129.415 
		683.796,119.963 694.914,119.963 694.914,0.921 	"/>
	
		<text transform="matrix(1.2319 0 0 1 677.7617 28.9453)" fill="#131313" stroke="#131313" stroke-miterlimit="10" font-family="'MicrosoftYaHei'" font-size="18.0421">4</text>
	
		<text transform="matrix(1.2319 0 0 1 677.7617 91.5684)" fill="#131313" stroke="#131313" stroke-miterlimit="10" font-family="'MicrosoftYaHei'" font-size="18.0421">5</text>
	<rect x="653.413" y="12.146" fill="#050101" width="9.452" height="36.038"/>
	<rect x="653.413" y="57.933" fill="#050101" width="11.372" height="47.556"/>
	<rect x="650.828" y="113.021" fill="#050101" width="14.845" height="8.566"/>
	<path fill="#050101" d="M692.469,46.972c0,1.371-1.041,2.483-2.326,2.483h-11.891c-1.283,0-2.325-1.112-2.325-2.483v-3.311
		c0-1.372,1.042-2.482,2.325-2.482h11.891c1.285,0,2.326,1.11,2.326,2.482V46.972z"/>
	<path fill="#050101" d="M692.469,66.764c0,1.371-1.041,2.483-2.326,2.483h-11.891c-1.283,0-2.325-1.112-2.325-2.483v-3.311
		c0-1.371,1.042-2.483,2.325-2.483h11.891c1.285,0,2.326,1.112,2.326,2.483V66.764z"/>
	<path fill="#050101" d="M692.469,104.42c0,1.372-1.041,2.483-2.326,2.483h-11.891c-1.283,0-2.325-1.111-2.325-2.483v-3.311
		c0-1.371,1.042-2.483,2.325-2.483h11.891c1.285,0,2.326,1.112,2.326,2.483V104.42z"/>
</g>
<polygon fill="#050101" points="969.064,73.826 947.007,73.826 947.007,69.848 934.342,69.848 934.342,74.549 780.316,74.549 
	780.316,69.848 768.33,69.848 768.33,74.186 745.548,74.186 745.548,122.088 745.548,123.158 757.209,123.158 757.209,125.791 
	771.674,125.791 771.674,123.158 924.951,123.158 924.951,125.791 939.416,125.791 939.416,123.158 969.064,123.158 "/>
<polygon fill="#050101" points="1203.883,73.826 1181.826,73.826 1181.826,69.848 1169.161,69.848 1169.161,74.549 1015.135,74.549 
	1015.135,69.848 1003.149,69.848 1003.149,74.186 980.367,74.186 980.367,122.088 980.367,123.158 992.029,123.158 992.029,125.791 
	1006.493,125.791 1006.493,123.158 1159.77,123.158 1159.77,125.791 1174.234,125.791 1174.234,123.158 1203.883,123.158 "/>
<rect x="755.438" y="135.288" fill="#060404" width="520.73" height="117.406"/>
<rect x="1013.604" y="135.509" fill="#DBDCE1" width="4.229" height="117.186"/>
<rect x="703.436" y="169.551" fill="#DBDCE1" width="52.002" height="79.994"/>
<path fill="#050101" d="M737.089,177.688c0,1.213-0.983,2.194-2.193,2.194h-8.768c-1.21,0-2.19-0.981-2.19-2.194v-8.765
	c0-1.214,0.98-2.193,2.19-2.193h8.768c1.21,0,2.193,0.979,2.193,2.193V177.688z"/>
<path fill="#050101" d="M737.089,194.522c0,1.213-0.983,2.194-2.193,2.194h-8.768c-1.21,0-2.19-0.981-2.19-2.194v-8.765
	c0-1.214,0.98-2.193,2.19-2.193h8.768c1.21,0,2.193,0.979,2.193,2.193V194.522z"/>
<path fill="#050101" d="M753.262,177.688c0,1.213-0.983,2.194-2.193,2.194h-8.768c-1.21,0-2.191-0.981-2.191-2.194v-8.765
	c0-1.214,0.981-2.193,2.191-2.193h8.768c1.21,0,2.193,0.979,2.193,2.193V177.688z"/>
<path fill="#050101" d="M753.262,194.522c0,1.213-0.983,2.194-2.193,2.194h-8.768c-1.21,0-2.191-0.981-2.191-2.194v-8.765
	c0-1.214,0.981-2.193,2.191-2.193h8.768c1.21,0,2.193,0.979,2.193,2.193V194.522z"/>
<path fill="#050101" d="M737.089,211.356c0,1.213-0.983,2.194-2.193,2.194h-8.768c-1.21,0-2.19-0.981-2.19-2.194v-8.765
	c0-1.214,0.98-2.193,2.19-2.193h8.768c1.21,0,2.193,0.979,2.193,2.193V211.356z"/>
<path fill="#050101" d="M737.089,228.66c0,1.213-0.983,2.194-2.193,2.194h-8.768c-1.21,0-2.19-0.981-2.19-2.194v-8.765
	c0-1.214,0.98-2.193,2.19-2.193h8.768c1.21,0,2.193,0.979,2.193,2.193V228.66z"/>
<path fill="#050101" d="M737.089,245.494c0,1.213-0.983,2.194-2.193,2.194h-8.768c-1.21,0-2.19-0.981-2.19-2.194v-8.765
	c0-1.214,0.98-2.193,2.19-2.193h8.768c1.21,0,2.193,0.979,2.193,2.193V245.494z"/>
<path fill="#050101" d="M720.923,211.356c0,1.213-0.983,2.194-2.193,2.194h-8.768c-1.21,0-2.19-0.981-2.19-2.194v-8.765
	c0-1.214,0.98-2.193,2.19-2.193h8.768c1.21,0,2.193,0.979,2.193,2.193V211.356z"/>
<path fill="#050101" d="M720.923,228.66c0,1.213-0.983,2.194-2.193,2.194h-8.768c-1.21,0-2.19-0.981-2.19-2.194v-8.765
	c0-1.214,0.98-2.193,2.19-2.193h8.768c1.21,0,2.193,0.979,2.193,2.193V228.66z"/>
<path fill="#050101" d="M720.923,245.494c0,1.213-0.983,2.194-2.193,2.194h-8.768c-1.21,0-2.19-0.981-2.19-2.194v-8.765
	c0-1.214,0.98-2.193,2.19-2.193h8.768c1.21,0,2.193,0.979,2.193,2.193V245.494z"/>
<path fill="#050101" d="M753.262,211.356c0,1.213-0.983,2.194-2.193,2.194h-8.768c-1.21,0-2.191-0.981-2.191-2.194v-8.765
	c0-1.214,0.981-2.193,2.191-2.193h8.768c1.21,0,2.193,0.979,2.193,2.193V211.356z"/>
<path fill="#050101" d="M753.262,228.66c0,1.213-0.983,2.194-2.193,2.194h-8.768c-1.21,0-2.191-0.981-2.191-2.194v-8.765
	c0-1.214,0.981-2.193,2.191-2.193h8.768c1.21,0,2.193,0.979,2.193,2.193V228.66z"/>
<path fill="#050101" d="M753.262,245.494c0,1.213-0.983,2.194-2.193,2.194h-8.768c-1.21,0-2.191-0.981-2.191-2.194v-8.765
	c0-1.214,0.981-2.193,2.191-2.193h8.768c1.21,0,2.193,0.979,2.193,2.193V245.494z"/>
<text transform="matrix(1.175 0 0 1 728.5898 159.0322)" fill="#131313" stroke="#131313" stroke-miterlimit="10" font-family="'MicrosoftYaHei'" font-size="14.9679">1</text>
<rect x="367.716" y="190.141" fill="#DBDCE1" width="336.845" height="62.554"/>
<path fill="#E2E4E9" stroke="#040000" stroke-width="2" stroke-miterlimit="10" d="M696.298,224.501c0,1.572-1.352,2.849-3.02,2.849
	H430.897c-1.668,0-3.022-1.276-3.022-2.849V188.42c0-1.573,1.354-2.849,3.022-2.849h262.381c1.668,0,3.02,1.275,3.02,2.849V224.501z
	"/>
<path fill="#F2F2F2" stroke="#8E8E8E" stroke-miterlimit="10" d="M696.298,233.354c0,1.656-1.343,3-3,3H430.875
	c-1.656,0-3-1.344-3-3v-1.499c0-1.657,1.344-3,3-3h262.423c1.657,0,3,1.343,3,3V233.354z"/>
<path fill="#231815" d="M447.103,243.99c0,1.587-1.089,2.876-2.429,2.876h-11.231c-1.343,0-2.43-1.289-2.43-2.876l0,0
	c0-1.59,1.087-2.878,2.43-2.878h11.231C446.014,241.112,447.103,242.4,447.103,243.99L447.103,243.99z"/>
<path fill="#231815" d="M465.529,243.99c0,1.587-1.089,2.876-2.429,2.876h-11.231c-1.343,0-2.43-1.289-2.43-2.876l0,0
	c0-1.59,1.087-2.878,2.43-2.878h11.231C464.44,241.112,465.529,242.4,465.529,243.99L465.529,243.99z"/>
<path fill="#231815" d="M484.103,243.99c0,1.587-1.089,2.876-2.429,2.876h-11.231c-1.343,0-2.43-1.289-2.43-2.876l0,0
	c0-1.59,1.087-2.878,2.43-2.878h11.231C483.014,241.112,484.103,242.4,484.103,243.99L484.103,243.99z"/>
<path fill="#231815" d="M502.529,243.99c0,1.587-1.089,2.876-2.429,2.876h-11.231c-1.343,0-2.43-1.289-2.43-2.876l0,0
	c0-1.59,1.087-2.878,2.43-2.878h11.231C501.44,241.112,502.529,242.4,502.529,243.99L502.529,243.99z"/>
<path fill="#231815" d="M521.103,243.99c0,1.587-1.089,2.876-2.429,2.876h-11.231c-1.343,0-2.43-1.289-2.43-2.876l0,0
	c0-1.59,1.087-2.878,2.43-2.878h11.231C520.014,241.112,521.103,242.4,521.103,243.99L521.103,243.99z"/>
<path fill="#231815" d="M539.529,243.99c0,1.587-1.089,2.876-2.429,2.876h-11.231c-1.343,0-2.43-1.289-2.43-2.876l0,0
	c0-1.59,1.087-2.878,2.43-2.878h11.231C538.44,241.112,539.529,242.4,539.529,243.99L539.529,243.99z"/>
<path fill="#231815" d="M558.103,243.99c0,1.587-1.089,2.876-2.429,2.876h-11.231c-1.343,0-2.43-1.289-2.43-2.876l0,0
	c0-1.59,1.087-2.878,2.43-2.878h11.231C557.014,241.112,558.103,242.4,558.103,243.99L558.103,243.99z"/>
<path fill="#231815" d="M576.529,243.99c0,1.587-1.089,2.876-2.429,2.876h-11.231c-1.343,0-2.43-1.289-2.43-2.876l0,0
	c0-1.59,1.087-2.878,2.43-2.878h11.231C575.44,241.112,576.529,242.4,576.529,243.99L576.529,243.99z"/>
<path fill="#231815" d="M595.103,243.99c0,1.587-1.089,2.876-2.429,2.876h-11.231c-1.343,0-2.43-1.289-2.43-2.876l0,0
	c0-1.59,1.087-2.878,2.43-2.878h11.231C594.014,241.112,595.103,242.4,595.103,243.99L595.103,243.99z"/>
<path fill="#231815" d="M613.529,243.99c0,1.587-1.089,2.876-2.429,2.876h-11.231c-1.343,0-2.43-1.289-2.43-2.876l0,0
	c0-1.59,1.087-2.878,2.43-2.878h11.231C612.44,241.112,613.529,242.4,613.529,243.99L613.529,243.99z"/>
<path fill="#231815" d="M632.103,243.99c0,1.587-1.089,2.876-2.429,2.876h-11.231c-1.343,0-2.43-1.289-2.43-2.876l0,0
	c0-1.59,1.087-2.878,2.43-2.878h11.231C631.014,241.112,632.103,242.4,632.103,243.99L632.103,243.99z"/>
<path fill="#231815" d="M650.529,243.99c0,1.587-1.089,2.876-2.429,2.876h-11.231c-1.343,0-2.43-1.289-2.43-2.876l0,0
	c0-1.59,1.087-2.878,2.43-2.878h11.231C649.44,241.112,650.529,242.4,650.529,243.99L650.529,243.99z"/>
<path fill="#231815" d="M669.103,243.99c0,1.587-1.089,2.876-2.429,2.876h-11.231c-1.343,0-2.43-1.289-2.43-2.876l0,0
	c0-1.59,1.087-2.878,2.43-2.878h11.231C668.014,241.112,669.103,242.4,669.103,243.99L669.103,243.99z"/>
<path fill="#231815" d="M687.529,243.99c0,1.587-1.089,2.876-2.429,2.876h-11.231c-1.343,0-2.43-1.289-2.43-2.876l0,0
	c0-1.59,1.087-2.878,2.43-2.878h11.231C686.44,241.112,687.529,242.4,687.529,243.99L687.529,243.99z"/>
<rect x="169.886" y="192.301" fill="#81B6CD" width="99.379" height="55.388"/>
<rect x="108.686" y="192.301" fill="#707070" width="61.2" height="55.388"/>
<rect x="269.265" y="192.301" fill="#2D5496" width="99.379" height="55.388"/>
<circle fill="#151209" cx="89.881" cy="221.418" r="5.494"/>
<polygon fill="#CACACC" stroke="#101010" stroke-miterlimit="10" points="1073.516,60.472 1082.182,60.472 1082.182,0.693 
	1031.979,0.693 1031.979,68.942 1073.516,68.942 "/>
<rect x="1031.979" y="8.222" fill="#050101" width="11.536" height="34.449"/>
<text transform="matrix(1.175 0 0 1 1057.0811 26.7568)" fill="#131313" stroke="#131313" stroke-miterlimit="10" font-family="'MicrosoftYaHei'" font-size="19.1618">6</text>
<rect x="1051.516" y="0.693" fill="#050101" width="19.75" height="3.028"/>
<path fill="#050101" d="M1076.936,39.898c0,1.656-1.344,3-3,3h-8.332c-1.658,0-3-1.344-3-3v-0.532c0-1.657,1.342-3,3-3h8.332
	c1.656,0,3,1.343,3,3V39.898z"/>
<rect x="1086.936" y="34.818" fill="#CACACC" stroke="#101010" stroke-miterlimit="10" width="97.139" height="19.534"/>
<rect x="1092.125" y="38.824" fill="#101010" width="86.23" height="11.375"/>
<path fill="#707070" d="M423.994,247.558v-48.735c0-1.639-1.328-2.967-2.967-2.967h-46.149c-1.639,0-2.967,1.328-2.967,2.967v48.735
	H423.994z"/>
<path fill="#040000" d="M1102.875,67.724c0,0.475-0.401,0.86-0.892,0.86h-9.369c-0.493,0-0.894-0.386-0.894-0.86v-9.315
	c0-0.476,0.4-0.86,0.894-0.86h9.369c0.49,0,0.892,0.385,0.892,0.86V67.724z"/>
<path fill="#040000" d="M1117.896,67.724c0,0.475-0.401,0.86-0.894,0.86h-9.368c-0.492,0-0.893-0.386-0.893-0.86v-9.315
	c0-0.476,0.4-0.86,0.893-0.86h9.368c0.492,0,0.894,0.385,0.894,0.86V67.724z"/>
<path fill="#040000" d="M1133.837,67.724c0,0.475-0.401,0.86-0.893,0.86h-9.369c-0.492,0-0.893-0.386-0.893-0.86v-9.315
	c0-0.476,0.4-0.86,0.893-0.86h9.369c0.491,0,0.893,0.385,0.893,0.86V67.724z"/>
<path fill="#040000" d="M1148.856,67.724c0,0.475-0.4,0.86-0.893,0.86h-9.369c-0.491,0-0.894-0.386-0.894-0.86v-9.315
	c0-0.476,0.402-0.86,0.894-0.86h9.369c0.492,0,0.893,0.385,0.893,0.86V67.724z"/>
<path fill="#040000" d="M1163.736,67.724c0,0.475-0.399,0.86-0.891,0.86h-9.369c-0.492,0-0.893-0.386-0.893-0.86v-9.315
	c0-0.476,0.4-0.86,0.893-0.86h9.369c0.491,0,0.891,0.385,0.891,0.86V67.724z"/>
<path fill="#040000" d="M1178.759,67.724c0,0.475-0.401,0.86-0.893,0.86h-9.369c-0.493,0-0.894-0.386-0.894-0.86v-9.315
	c0-0.476,0.4-0.86,0.894-0.86h9.369c0.491,0,0.893,0.385,0.893,0.86V67.724z"/>
<path fill="#040000" d="M1102.875,24.296c0,0.475-0.401,0.86-0.892,0.86h-9.369c-0.493,0-0.894-0.386-0.894-0.86V14.98
	c0-0.476,0.4-0.86,0.894-0.86h9.369c0.49,0,0.892,0.385,0.892,0.86V24.296z"/>
<path fill="#040000" d="M1117.896,24.296c0,0.475-0.401,0.86-0.894,0.86h-9.368c-0.492,0-0.893-0.386-0.893-0.86V14.98
	c0-0.476,0.4-0.86,0.893-0.86h9.368c0.492,0,0.894,0.385,0.894,0.86V24.296z"/>
<path fill="#040000" d="M1133.837,24.296c0,0.475-0.401,0.86-0.893,0.86h-9.369c-0.492,0-0.893-0.386-0.893-0.86V14.98
	c0-0.476,0.4-0.86,0.893-0.86h9.369c0.491,0,0.893,0.385,0.893,0.86V24.296z"/>
<path fill="#040000" d="M1148.856,24.296c0,0.475-0.4,0.86-0.893,0.86h-9.369c-0.491,0-0.894-0.386-0.894-0.86V14.98
	c0-0.476,0.402-0.86,0.894-0.86h9.369c0.492,0,0.893,0.385,0.893,0.86V24.296z"/>
<path fill="#040000" d="M1163.736,24.296c0,0.475-0.399,0.86-0.891,0.86h-9.369c-0.492,0-0.893-0.386-0.893-0.86V14.98
	c0-0.476,0.4-0.86,0.893-0.86h9.369c0.491,0,0.891,0.385,0.891,0.86V24.296z"/>
<path fill="#040000" d="M1178.759,24.296c0,0.475-0.401,0.86-0.893,0.86h-9.369c-0.493,0-0.894-0.386-0.894-0.86V14.98
	c0-0.476,0.4-0.86,0.894-0.86h9.369c0.491,0,0.893,0.385,0.893,0.86V24.296z"/>
<path fill="#040000" d="M1194.51,24.296c0,0.475-0.4,0.86-0.893,0.86h-9.369c-0.492,0-0.893-0.386-0.893-0.86V14.98
	c0-0.476,0.4-0.86,0.893-0.86h9.369c0.492,0,0.893,0.385,0.893,0.86V24.296z"/>
<path fill="#040000" d="M1209.391,24.296c0,0.475-0.4,0.86-0.892,0.86h-9.369c-0.493,0-0.894-0.386-0.894-0.86V14.98
	c0-0.476,0.4-0.86,0.894-0.86h9.369c0.491,0,0.892,0.385,0.892,0.86V24.296z"/>
<path fill="#040000" d="M1224.412,24.296c0,0.475-0.401,0.86-0.893,0.86h-9.369c-0.492,0-0.893-0.386-0.893-0.86V14.98
	c0-0.476,0.4-0.86,0.893-0.86h9.369c0.491,0,0.893,0.385,0.893,0.86V24.296z"/>
<path fill="#040000" d="M1240.004,24.296c0,0.475-0.4,0.86-0.893,0.86h-9.369c-0.492,0-0.893-0.386-0.893-0.86V14.98
	c0-0.476,0.4-0.86,0.893-0.86h9.369c0.492,0,0.893,0.385,0.893,0.86V24.296z"/>
<path fill="#040000" d="M1224.412,46.542c0,0.475-0.401,0.86-0.893,0.86h-9.369c-0.492,0-0.893-0.386-0.893-0.86v-9.315
	c0-0.476,0.4-0.86,0.893-0.86h9.369c0.491,0,0.893,0.385,0.893,0.86V46.542z"/>
<path fill="#040000" d="M1224.412,67.724c0,0.475-0.401,0.86-0.893,0.86h-9.369c-0.492,0-0.893-0.386-0.893-0.86v-9.315
	c0-0.476,0.4-0.86,0.893-0.86h9.369c0.491,0,0.893,0.385,0.893,0.86V67.724z"/>
<path fill="#040000" d="M1258.081,46.542c0,0.475-0.401,0.86-0.894,0.86h-9.368c-0.492,0-0.893-0.386-0.893-0.86v-9.315
	c0-0.476,0.4-0.86,0.893-0.86h9.368c0.492,0,0.894,0.385,0.894,0.86V46.542z"/>
<path fill="#040000" d="M1238.685,46.542c0,0.475-0.237,0.86-0.526,0.86h-5.537c-0.292,0-0.528-0.386-0.528-0.86v-9.315
	c0-0.476,0.236-0.86,0.528-0.86h5.537c0.289,0,0.526,0.385,0.526,0.86V46.542z"/>
<path fill="#040000" d="M1238.685,60.375c0,0.475-0.237,0.86-0.526,0.86h-5.537c-0.292,0-0.528-0.386-0.528-0.86V51.06
	c0-0.476,0.236-0.86,0.528-0.86h5.537c0.289,0,0.526,0.385,0.526,0.86V60.375z"/>
<path fill="#040000" d="M1208.502,46.542c0,0.475-0.237,0.86-0.526,0.86h-5.538c-0.291,0-0.527-0.386-0.527-0.86v-9.315
	c0-0.476,0.236-0.86,0.527-0.86h5.538c0.289,0,0.526,0.385,0.526,0.86V46.542z"/>
<path fill="#040000" d="M1208.502,60.375c0,0.475-0.237,0.86-0.526,0.86h-5.538c-0.291,0-0.527-0.386-0.527-0.86V51.06
	c0-0.476,0.236-0.86,0.527-0.86h5.538c0.289,0,0.526,0.385,0.526,0.86V60.375z"/>
<path fill="#040000" d="M1195.459,46.542c0,0.475-0.238,0.86-0.526,0.86h-5.537c-0.292,0-0.528-0.386-0.528-0.86v-9.315
	c0-0.476,0.236-0.86,0.528-0.86h5.537c0.288,0,0.526,0.385,0.526,0.86V46.542z"/>
<path fill="#040000" d="M1195.459,60.375c0,0.475-0.238,0.86-0.526,0.86h-5.537c-0.292,0-0.528-0.386-0.528-0.86V51.06
	c0-0.476,0.236-0.86,0.528-0.86h5.537c0.288,0,0.526,0.385,0.526,0.86V60.375z"/>
<path fill="#040000" d="M1238.685,75.042c0,0.475-0.237,0.86-0.526,0.86h-5.537c-0.292,0-0.528-0.386-0.528-0.86v-9.315
	c0-0.476,0.236-0.86,0.528-0.86h5.537c0.289,0,0.526,0.385,0.526,0.86V75.042z"/>
<path fill="#040000" d="M1238.685,88.875c0,0.475-0.237,0.86-0.526,0.86h-5.537c-0.292,0-0.528-0.386-0.528-0.86V79.56
	c0-0.476,0.236-0.86,0.528-0.86h5.537c0.289,0,0.526,0.385,0.526,0.86V88.875z"/>
<path fill="#040000" d="M1238.685,102.58c0,0.475-0.237,0.86-0.526,0.86h-5.537c-0.292,0-0.528-0.386-0.528-0.86v-9.315
	c0-0.476,0.236-0.86,0.528-0.86h5.537c0.289,0,0.526,0.385,0.526,0.86V102.58z"/>
<path fill="#040000" d="M1238.685,116.413c0,0.475-0.237,0.86-0.526,0.86h-5.537c-0.292,0-0.528-0.386-0.528-0.86v-9.315
	c0-0.476,0.236-0.86,0.528-0.86h5.537c0.289,0,0.526,0.385,0.526,0.86V116.413z"/>
<path fill="#040000" d="M1258.081,24.296c0,0.475-0.401,0.86-0.894,0.86h-9.368c-0.492,0-0.893-0.386-0.893-0.86V14.98
	c0-0.476,0.4-0.86,0.893-0.86h9.368c0.492,0,0.894,0.385,0.894,0.86V24.296z"/>
<path fill="#040000" d="M1258.081,67.724c0,0.475-0.401,0.86-0.894,0.86h-9.368c-0.492,0-0.893-0.386-0.893-0.86v-9.315
	c0-0.476,0.4-0.86,0.893-0.86h9.368c0.492,0,0.894,0.385,0.894,0.86V67.724z"/>
</svg>
