<?xml version="1.0" encoding="utf-8"?>
<!-- Generator: Adobe Illustrator 16.0.0, SVG Export Plug-In . SVG Version: 6.00 Build 0)  -->
<!DOCTYPE svg PUBLIC "-//W3C//DTD SVG 1.1//EN" "http://www.w3.org/Graphics/SVG/1.1/DTD/svg11.dtd">
<svg version="1.1" id="图层_1" xmlns="http://www.w3.org/2000/svg" xmlns:xlink="http://www.w3.org/1999/xlink" x="0px" y="0px"
	 width="1275.59px" height="252px" viewBox="0 0 1275.59 252" enable-background="new 0 0 1275.59 252" xml:space="preserve">
<rect fill="#1C1D20" width="1275.592" height="252"/>
<rect y="16.446" fill="#8C8C8C" width="3.679" height="235.554"/>
<rect x="1271.912" y="16.446" fill="#8C8C8C" width="3.678" height="235.554"/>
<rect x="4.233" y="248.375" fill="#8C8C8C" width="1267.188" height="3.625"/>
<rect x="4.233" y="16.446" fill="#8C8C8C" width="1266.149" height="231.138"/>
<polygon fill="#565656" points="1275.592,1 0,1 0,16.446 163.039,16.446 177.89,37.779 197.661,37.779 210.454,16.446 
	1275.592,16.446 "/>
<polygon fill="#8C8C8C" points="1275.592,0 0,0 0,15.446 163.039,15.446 177.89,36.779 197.661,36.779 210.454,15.446 
	1275.592,15.446 "/>
<circle fill="#4B5C7B" cx="187.483" cy="24.001" r="10.25"/>
<circle fill="#4B555D" stroke="#2C2D2D" stroke-width="0.75" stroke-miterlimit="10" cx="187.483" cy="23.999" r="6.229"/>
<path fill="#040000" d="M31.237,78.815c0,2.245-1.818,4.065-4.063,4.065h-6.096c-2.243,0-4.064-1.82-4.064-4.065V72.72
	c0-2.243,1.821-4.064,4.064-4.064h6.096c2.245,0,4.063,1.821,4.063,4.064V78.815z"/>
<path fill="#040000" d="M31.237,97.311c0,2.243-1.818,4.066-4.063,4.066h-6.096c-2.243,0-4.064-1.823-4.064-4.066v-6.096
	c0-2.242,1.821-4.061,4.064-4.061h6.096c2.245,0,4.063,1.818,4.063,4.061V97.311z"/>
<path fill="#040000" d="M49.396,79.258c0,2.244-1.818,4.065-4.065,4.065h-6.096c-2.242,0-4.061-1.821-4.061-4.065v-6.096
	c0-2.245,1.818-4.066,4.061-4.066h6.096c2.247,0,4.065,1.821,4.065,4.066V79.258z"/>
<path fill="#040000" d="M49.396,97.752c0,2.245-1.818,4.066-4.065,4.066h-6.096c-2.242,0-4.061-1.821-4.061-4.066v-6.095
	c0-2.245,1.818-4.063,4.061-4.063h6.096c2.247,0,4.065,1.818,4.065,4.063V97.752z"/>
<path fill="#040000" d="M67.46,78.815c0,2.245-1.82,4.065-4.064,4.065H57.3c-2.246,0-4.063-1.82-4.063-4.065V72.72
	c0-2.243,1.817-4.064,4.063-4.064h6.096c2.244,0,4.064,1.821,4.064,4.064V78.815z"/>
<path fill="#040000" d="M67.46,97.311c0,2.243-1.82,4.066-4.064,4.066H57.3c-2.246,0-4.063-1.823-4.063-4.066v-6.096
	c0-2.242,1.817-4.061,4.063-4.061h6.096c2.244,0,4.064,1.818,4.064,4.061V97.311z"/>
<path fill="#040000" d="M85.614,79.258c0,2.244-1.815,4.065-4.061,4.065h-6.095c-2.245,0-4.063-1.821-4.063-4.065v-6.096
	c0-2.245,1.818-4.066,4.063-4.066h6.095c2.245,0,4.061,1.821,4.061,4.066V79.258z"/>
<path fill="#040000" d="M85.614,97.752c0,2.245-1.815,4.066-4.061,4.066h-6.095c-2.245,0-4.063-1.821-4.063-4.066v-6.095
	c0-2.245,1.818-4.063,4.063-4.063h6.095c2.245,0,4.061,1.818,4.061,4.063V97.752z"/>
<path fill="#040000" d="M103.679,78.815c0,2.245-1.816,4.065-4.063,4.065h-6.095c-2.246,0-4.065-1.82-4.065-4.065V72.72
	c0-2.243,1.819-4.064,4.065-4.064h6.095c2.246,0,4.063,1.821,4.063,4.064V78.815z"/>
<path fill="#040000" d="M103.679,97.311c0,2.243-1.816,4.066-4.063,4.066h-6.095c-2.246,0-4.065-1.823-4.065-4.066v-6.096
	c0-2.242,1.819-4.061,4.065-4.061h6.095c2.246,0,4.063,1.818,4.063,4.061V97.311z"/>
<path fill="#040000" d="M121.837,79.258c0,2.244-1.817,4.065-4.063,4.065h-6.095c-2.244,0-4.064-1.821-4.064-4.065v-6.096
	c0-2.245,1.82-4.066,4.064-4.066h6.095c2.246,0,4.063,1.821,4.063,4.066V79.258z"/>
<path fill="#040000" d="M121.837,97.752c0,2.245-1.817,4.066-4.063,4.066h-6.095c-2.244,0-4.064-1.821-4.064-4.066v-6.095
	c0-2.245,1.82-4.063,4.064-4.063h6.095c2.246,0,4.063,1.818,4.063,4.063V97.752z"/>
<path fill="#040000" d="M139.901,78.815c0,2.245-1.822,4.065-4.063,4.065h-6.095c-2.244,0-4.063-1.82-4.063-4.065V72.72
	c0-2.243,1.819-4.064,4.063-4.064h6.095c2.241,0,4.063,1.821,4.063,4.064V78.815z"/>
<path fill="#040000" d="M139.901,97.311c0,2.243-1.822,4.066-4.063,4.066h-6.095c-2.244,0-4.063-1.823-4.063-4.066v-6.096
	c0-2.242,1.819-4.061,4.063-4.061h6.095c2.241,0,4.063,1.818,4.063,4.061V97.311z"/>
<path fill="#040000" d="M158.06,79.258c0,2.244-1.818,4.065-4.063,4.065H147.9c-2.246,0-4.065-1.821-4.065-4.065v-6.096
	c0-2.245,1.819-4.066,4.065-4.066h6.096c2.245,0,4.063,1.821,4.063,4.066V79.258z"/>
<path fill="#040000" d="M158.06,97.752c0,2.245-1.818,4.066-4.063,4.066H147.9c-2.246,0-4.065-1.821-4.065-4.066v-6.095
	c0-2.245,1.819-4.063,4.065-4.063h6.096c2.245,0,4.063,1.818,4.063,4.063V97.752z"/>
<path fill="#040000" d="M176.12,78.815c0,2.245-1.816,4.065-4.063,4.065h-6.094c-2.246,0-4.066-1.82-4.066-4.065V72.72
	c0-2.243,1.82-4.064,4.066-4.064h6.094c2.246,0,4.063,1.821,4.063,4.064V78.815z"/>
<path fill="#040000" d="M176.12,97.311c0,2.243-1.816,4.066-4.063,4.066h-6.094c-2.246,0-4.066-1.823-4.066-4.066v-6.096
	c0-2.242,1.82-4.061,4.066-4.061h6.094c2.246,0,4.063,1.818,4.063,4.061V97.311z"/>
<path fill="#040000" d="M194.278,79.258c0,2.244-1.816,4.065-4.063,4.065h-6.093c-2.248,0-4.066-1.821-4.066-4.065v-6.096
	c0-2.245,1.818-4.066,4.066-4.066h6.093c2.246,0,4.063,1.821,4.063,4.066V79.258z"/>
<path fill="#040000" d="M194.278,97.752c0,2.245-1.816,4.066-4.063,4.066h-6.093c-2.248,0-4.066-1.821-4.066-4.066v-6.095
	c0-2.245,1.818-4.063,4.066-4.063h6.093c2.246,0,4.063,1.818,4.063,4.063V97.752z"/>
<path fill="#040000" d="M212.341,78.815c0,2.245-1.818,4.065-4.061,4.065h-6.096c-2.243,0-4.066-1.82-4.066-4.065V72.72
	c0-2.243,1.823-4.064,4.066-4.064h6.096c2.242,0,4.061,1.821,4.061,4.064V78.815z"/>
<path fill="#040000" d="M212.341,97.311c0,2.243-1.818,4.066-4.061,4.066h-6.096c-2.243,0-4.066-1.823-4.066-4.066v-6.096
	c0-2.242,1.823-4.061,4.066-4.061h6.096c2.242,0,4.061,1.818,4.061,4.061V97.311z"/>
<path fill="#040000" d="M230.501,79.258c0,2.244-1.82,4.065-4.063,4.065h-6.097c-2.243,0-4.062-1.821-4.062-4.065v-6.096
	c0-2.245,1.818-4.066,4.062-4.066h6.097c2.243,0,4.063,1.821,4.063,4.066V79.258z"/>
<path fill="#040000" d="M230.501,97.752c0,2.245-1.82,4.066-4.063,4.066h-6.097c-2.243,0-4.062-1.821-4.062-4.066v-6.095
	c0-2.245,1.818-4.063,4.062-4.063h6.097c2.243,0,4.063,1.818,4.063,4.063V97.752z"/>
<path fill="#040000" d="M248.562,78.815c0,2.245-1.816,4.065-4.063,4.065h-6.096c-2.244,0-4.063-1.82-4.063-4.065V72.72
	c0-2.243,1.818-4.064,4.063-4.064h6.096c2.246,0,4.063,1.821,4.063,4.064V78.815z"/>
<path fill="#040000" d="M248.562,97.311c0,2.243-1.816,4.066-4.063,4.066h-6.096c-2.244,0-4.063-1.823-4.063-4.066v-6.096
	c0-2.242,1.818-4.061,4.063-4.061h6.096c2.246,0,4.063,1.818,4.063,4.061V97.311z"/>
<path fill="#040000" d="M266.72,79.258c0,2.244-1.816,4.065-4.061,4.065h-6.094c-2.247,0-4.066-1.821-4.066-4.065v-6.096
	c0-2.245,1.819-4.066,4.066-4.066h6.094c2.244,0,4.061,1.821,4.061,4.066V79.258z"/>
<path fill="#040000" d="M266.72,97.752c0,2.245-1.816,4.066-4.061,4.066h-6.094c-2.247,0-4.066-1.821-4.066-4.066v-6.095
	c0-2.245,1.819-4.063,4.066-4.063h6.094c2.244,0,4.061,1.818,4.061,4.063V97.752z"/>
<path fill="#040000" d="M284.783,78.815c0,2.245-1.815,4.065-4.062,4.065h-6.096c-2.242,0-4.064-1.82-4.064-4.065V72.72
	c0-2.243,1.822-4.064,4.064-4.064h6.096c2.246,0,4.062,1.821,4.062,4.064V78.815z"/>
<path fill="#040000" d="M284.783,97.311c0,2.243-1.815,4.066-4.062,4.066h-6.096c-2.242,0-4.064-1.823-4.064-4.066v-6.096
	c0-2.242,1.822-4.061,4.064-4.061h6.096c2.246,0,4.062,1.818,4.062,4.061V97.311z"/>
<path fill="#040000" d="M302.942,79.258c0,2.244-1.82,4.065-4.063,4.065h-6.098c-2.242,0-4.061-1.821-4.061-4.065v-6.096
	c0-2.245,1.818-4.066,4.061-4.066h6.098c2.242,0,4.063,1.821,4.063,4.066V79.258z"/>
<path fill="#040000" d="M302.942,97.752c0,2.245-1.82,4.066-4.063,4.066h-6.098c-2.242,0-4.061-1.821-4.061-4.066v-6.095
	c0-2.245,1.818-4.063,4.061-4.063h6.098c2.242,0,4.063,1.818,4.063,4.063V97.752z"/>
<path fill="#040000" d="M321.004,78.815c0,2.245-1.82,4.065-4.062,4.065h-6.096c-2.242,0-4.061-1.82-4.061-4.065V72.72
	c0-2.243,1.818-4.064,4.061-4.064h6.096c2.241,0,4.062,1.821,4.062,4.064V78.815z"/>
<path fill="#040000" d="M176.12,60.774c0,2.245-1.816,4.065-4.063,4.065h-6.094c-2.246,0-4.066-1.82-4.066-4.065v-6.096
	c0-2.243,1.82-4.064,4.066-4.064h6.094c2.246,0,4.063,1.821,4.063,4.064V60.774z"/>
<path fill="#040000" d="M194.278,61.217c0,2.244-1.816,4.065-4.063,4.065h-6.093c-2.248,0-4.066-1.821-4.066-4.065v-6.096
	c0-2.245,1.818-4.066,4.066-4.066h6.093c2.246,0,4.063,1.821,4.063,4.066V61.217z"/>
<path fill="#040000" d="M212.341,60.774c0,2.245-1.818,4.065-4.061,4.065h-6.096c-2.243,0-4.066-1.82-4.066-4.065v-6.096
	c0-2.243,1.823-4.064,4.066-4.064h6.096c2.242,0,4.061,1.821,4.061,4.064V60.774z"/>
<path fill="#040000" d="M230.501,61.217c0,2.244-1.82,4.065-4.063,4.065h-6.097c-2.243,0-4.062-1.821-4.062-4.065v-6.096
	c0-2.245,1.818-4.066,4.062-4.066h6.097c2.243,0,4.063,1.821,4.063,4.066V61.217z"/>
<path fill="#040000" d="M248.562,60.774c0,2.245-1.816,4.065-4.063,4.065h-6.096c-2.244,0-4.063-1.82-4.063-4.065v-6.096
	c0-2.243,1.818-4.064,4.063-4.064h6.096c2.246,0,4.063,1.821,4.063,4.064V60.774z"/>
<path fill="#040000" d="M266.72,61.217c0,2.244-1.816,4.065-4.061,4.065h-6.094c-2.247,0-4.066-1.821-4.066-4.065v-6.096
	c0-2.245,1.819-4.066,4.066-4.066h6.094c2.244,0,4.061,1.821,4.061,4.066V61.217z"/>
<path fill="#040000" d="M284.783,60.774c0,2.245-1.815,4.065-4.062,4.065h-6.096c-2.242,0-4.064-1.82-4.064-4.065v-6.096
	c0-2.243,1.822-4.064,4.064-4.064h6.096c2.246,0,4.062,1.821,4.062,4.064V60.774z"/>
<path fill="#040000" d="M302.942,61.217c0,2.244-1.82,4.065-4.063,4.065h-6.098c-2.242,0-4.061-1.821-4.061-4.065v-6.096
	c0-2.245,1.818-4.066,4.061-4.066h6.098c2.242,0,4.063,1.821,4.063,4.066V61.217z"/>
<path fill="#040000" d="M321.004,60.774c0,2.245-1.82,4.065-4.062,4.065h-6.096c-2.242,0-4.061-1.82-4.061-4.065v-6.096
	c0-2.243,1.818-4.064,4.061-4.064h6.096c2.241,0,4.062,1.821,4.062,4.064V60.774z"/>
<path fill="#040000" d="M230.501,43.521c0,2.244-1.82,4.066-4.063,4.066h-6.097c-2.243,0-4.062-1.822-4.062-4.066v-6.096
	c0-2.245,1.818-4.066,4.062-4.066h6.097c2.243,0,4.063,1.821,4.063,4.066V43.521z"/>
<path fill="#040000" d="M248.562,43.078c0,2.245-1.816,4.065-4.063,4.065h-6.096c-2.244,0-4.063-1.82-4.063-4.065v-6.096
	c0-2.243,1.818-4.064,4.063-4.064h6.096c2.246,0,4.063,1.821,4.063,4.064V43.078z"/>
<path fill="#040000" d="M266.72,43.521c0,2.244-1.816,4.066-4.061,4.066h-6.094c-2.247,0-4.066-1.822-4.066-4.066v-6.096
	c0-2.245,1.819-4.066,4.066-4.066h6.094c2.244,0,4.061,1.821,4.061,4.066V43.521z"/>
<path fill="#040000" d="M284.783,43.078c0,2.245-1.815,4.065-4.062,4.065h-6.096c-2.242,0-4.064-1.82-4.064-4.065v-6.096
	c0-2.243,1.822-4.064,4.064-4.064h6.096c2.246,0,4.062,1.821,4.062,4.064V43.078z"/>
<path fill="#040000" d="M302.942,43.521c0,2.244-1.82,4.066-4.063,4.066h-6.098c-2.242,0-4.061-1.822-4.061-4.066v-6.096
	c0-2.245,1.818-4.066,4.061-4.066h6.098c2.242,0,4.063,1.821,4.063,4.066V43.521z"/>
<path fill="#040000" d="M321.004,43.078c0,2.245-1.82,4.065-4.062,4.065h-6.096c-2.242,0-4.061-1.82-4.061-4.065v-6.096
	c0-2.243,1.818-4.064,4.061-4.064h6.096c2.241,0,4.062,1.821,4.062,4.064V43.078z"/>
<path fill="#040000" d="M230.501,26.164c0,2.244-1.82,4.065-4.063,4.065h-6.097c-2.243,0-4.062-1.821-4.062-4.065v-6.096
	c0-2.245,1.818-4.066,4.062-4.066h6.097c2.243,0,4.063,1.821,4.063,4.066V26.164z"/>
<path fill="#040000" d="M248.562,25.722c0,2.245-1.816,4.065-4.063,4.065h-6.096c-2.244,0-4.063-1.82-4.063-4.065v-6.096
	c0-2.243,1.818-4.064,4.063-4.064h6.096c2.246,0,4.063,1.821,4.063,4.064V25.722z"/>
<path fill="#040000" d="M266.72,26.164c0,2.244-1.816,4.065-4.061,4.065h-6.094c-2.247,0-4.066-1.821-4.066-4.065v-6.096
	c0-2.245,1.819-4.066,4.066-4.066h6.094c2.244,0,4.061,1.821,4.061,4.066V26.164z"/>
<path fill="#040000" d="M284.783,25.722c0,2.245-1.815,4.065-4.062,4.065h-6.096c-2.242,0-4.064-1.82-4.064-4.065v-6.096
	c0-2.243,1.822-4.064,4.064-4.064h6.096c2.246,0,4.062,1.821,4.062,4.064V25.722z"/>
<path fill="#040000" d="M302.942,26.164c0,2.244-1.82,4.065-4.063,4.065h-6.098c-2.242,0-4.061-1.821-4.061-4.065v-6.096
	c0-2.245,1.818-4.066,4.061-4.066h6.098c2.242,0,4.063,1.821,4.063,4.066V26.164z"/>
<path fill="#040000" d="M321.004,25.722c0,2.245-1.82,4.065-4.062,4.065h-6.096c-2.242,0-4.061-1.82-4.061-4.065v-6.096
	c0-2.243,1.818-4.064,4.061-4.064h6.096c2.241,0,4.062,1.821,4.062,4.064V25.722z"/>
<path fill="#040000" d="M321.004,97.311c0,2.243-1.82,4.066-4.062,4.066h-6.096c-2.242,0-4.061-1.823-4.061-4.066v-6.096
	c0-2.242,1.818-4.061,4.061-4.061h6.096c2.241,0,4.062,1.818,4.062,4.061V97.311z"/>
<path fill="#040000" d="M31.237,116.066c0,2.244-1.818,4.064-4.063,4.064h-6.096c-2.243,0-4.064-1.82-4.064-4.064v-6.096
	c0-2.243,1.821-4.064,4.064-4.064h6.096c2.245,0,4.063,1.821,4.063,4.064V116.066z"/>
<path fill="#040000" d="M31.237,134.561c0,2.242-1.818,4.066-4.063,4.066h-6.096c-2.243,0-4.064-1.824-4.064-4.066v-6.096
	c0-2.243,1.821-4.061,4.064-4.061h6.096c2.245,0,4.063,1.818,4.063,4.061V134.561z"/>
<path fill="#040000" d="M49.396,116.507c0,2.244-1.818,4.066-4.065,4.066h-6.096c-2.242,0-4.061-1.822-4.061-4.066v-6.096
	c0-2.245,1.818-4.066,4.061-4.066h6.096c2.247,0,4.065,1.821,4.065,4.066V116.507z"/>
<path fill="#040000" d="M49.396,135.002c0,2.244-1.818,4.066-4.065,4.066h-6.096c-2.242,0-4.061-1.822-4.061-4.066v-6.096
	c0-2.245,1.818-4.063,4.061-4.063h6.096c2.247,0,4.065,1.818,4.065,4.063V135.002z"/>
<path fill="#040000" d="M67.46,116.066c0,2.244-1.82,4.064-4.064,4.064H57.3c-2.246,0-4.063-1.82-4.063-4.064v-6.096
	c0-2.243,1.817-4.064,4.063-4.064h6.096c2.244,0,4.064,1.821,4.064,4.064V116.066z"/>
<path fill="#040000" d="M67.46,134.561c0,2.242-1.82,4.066-4.064,4.066H57.3c-2.246,0-4.063-1.824-4.063-4.066v-6.096
	c0-2.243,1.817-4.061,4.063-4.061h6.096c2.244,0,4.064,1.818,4.064,4.061V134.561z"/>
<path fill="#040000" d="M85.614,116.507c0,2.244-1.815,4.066-4.061,4.066h-6.095c-2.245,0-4.063-1.822-4.063-4.066v-6.096
	c0-2.245,1.818-4.066,4.063-4.066h6.095c2.245,0,4.061,1.821,4.061,4.066V116.507z"/>
<path fill="#040000" d="M85.614,135.002c0,2.244-1.815,4.066-4.061,4.066h-6.095c-2.245,0-4.063-1.822-4.063-4.066v-6.096
	c0-2.245,1.818-4.063,4.063-4.063h6.095c2.245,0,4.061,1.818,4.061,4.063V135.002z"/>
<path fill="#040000" d="M103.679,116.066c0,2.244-1.816,4.064-4.063,4.064h-6.095c-2.246,0-4.065-1.82-4.065-4.064v-6.096
	c0-2.243,1.819-4.064,4.065-4.064h6.095c2.246,0,4.063,1.821,4.063,4.064V116.066z"/>
<path fill="#040000" d="M103.679,134.561c0,2.242-1.816,4.066-4.063,4.066h-6.095c-2.246,0-4.065-1.824-4.065-4.066v-6.096
	c0-2.243,1.819-4.061,4.065-4.061h6.095c2.246,0,4.063,1.818,4.063,4.061V134.561z"/>
<path fill="#040000" d="M121.837,116.507c0,2.244-1.817,4.066-4.063,4.066h-6.095c-2.244,0-4.064-1.822-4.064-4.066v-6.096
	c0-2.245,1.82-4.066,4.064-4.066h6.095c2.246,0,4.063,1.821,4.063,4.066V116.507z"/>
<path fill="#040000" d="M121.837,135.002c0,2.244-1.817,4.066-4.063,4.066h-6.095c-2.244,0-4.064-1.822-4.064-4.066v-6.096
	c0-2.245,1.82-4.063,4.064-4.063h6.095c2.246,0,4.063,1.818,4.063,4.063V135.002z"/>
<path fill="#040000" d="M139.901,116.066c0,2.244-1.822,4.064-4.063,4.064h-6.095c-2.244,0-4.063-1.82-4.063-4.064v-6.096
	c0-2.243,1.819-4.064,4.063-4.064h6.095c2.241,0,4.063,1.821,4.063,4.064V116.066z"/>
<path fill="#040000" d="M139.901,134.561c0,2.242-1.822,4.066-4.063,4.066h-6.095c-2.244,0-4.063-1.824-4.063-4.066v-6.096
	c0-2.243,1.819-4.061,4.063-4.061h6.095c2.241,0,4.063,1.818,4.063,4.061V134.561z"/>
<path fill="#040000" d="M158.06,116.507c0,2.244-1.818,4.066-4.063,4.066H147.9c-2.246,0-4.065-1.822-4.065-4.066v-6.096
	c0-2.245,1.819-4.066,4.065-4.066h6.096c2.245,0,4.063,1.821,4.063,4.066V116.507z"/>
<path fill="#040000" d="M158.06,135.002c0,2.244-1.818,4.066-4.063,4.066H147.9c-2.246,0-4.065-1.822-4.065-4.066v-6.096
	c0-2.245,1.819-4.063,4.065-4.063h6.096c2.245,0,4.063,1.818,4.063,4.063V135.002z"/>
<path fill="#040000" d="M176.12,116.066c0,2.244-1.816,4.064-4.063,4.064h-6.094c-2.246,0-4.066-1.82-4.066-4.064v-6.096
	c0-2.243,1.82-4.064,4.066-4.064h6.094c2.246,0,4.063,1.821,4.063,4.064V116.066z"/>
<path fill="#040000" d="M176.12,134.561c0,2.242-1.816,4.066-4.063,4.066h-6.094c-2.246,0-4.066-1.824-4.066-4.066v-6.096
	c0-2.243,1.82-4.061,4.066-4.061h6.094c2.246,0,4.063,1.818,4.063,4.061V134.561z"/>
<path fill="#040000" d="M194.278,116.507c0,2.244-1.816,4.066-4.063,4.066h-6.093c-2.248,0-4.066-1.822-4.066-4.066v-6.096
	c0-2.245,1.818-4.066,4.066-4.066h6.093c2.246,0,4.063,1.821,4.063,4.066V116.507z"/>
<path fill="#040000" d="M194.278,135.002c0,2.244-1.816,4.066-4.063,4.066h-6.093c-2.248,0-4.066-1.822-4.066-4.066v-6.096
	c0-2.245,1.818-4.063,4.066-4.063h6.093c2.246,0,4.063,1.818,4.063,4.063V135.002z"/>
<path fill="#040000" d="M212.341,116.066c0,2.244-1.818,4.064-4.061,4.064h-6.096c-2.243,0-4.066-1.82-4.066-4.064v-6.096
	c0-2.243,1.823-4.064,4.066-4.064h6.096c2.242,0,4.061,1.821,4.061,4.064V116.066z"/>
<path fill="#040000" d="M212.341,134.561c0,2.242-1.818,4.066-4.061,4.066h-6.096c-2.243,0-4.066-1.824-4.066-4.066v-6.096
	c0-2.243,1.823-4.061,4.066-4.061h6.096c2.242,0,4.061,1.818,4.061,4.061V134.561z"/>
<path fill="#040000" d="M230.501,116.507c0,2.244-1.82,4.066-4.063,4.066h-6.097c-2.243,0-4.062-1.822-4.062-4.066v-6.096
	c0-2.245,1.818-4.066,4.062-4.066h6.097c2.243,0,4.063,1.821,4.063,4.066V116.507z"/>
<path fill="#040000" d="M230.501,135.002c0,2.244-1.82,4.066-4.063,4.066h-6.097c-2.243,0-4.062-1.822-4.062-4.066v-6.096
	c0-2.245,1.818-4.063,4.062-4.063h6.097c2.243,0,4.063,1.818,4.063,4.063V135.002z"/>
<path fill="#040000" d="M248.562,116.066c0,2.244-1.816,4.064-4.063,4.064h-6.096c-2.244,0-4.063-1.82-4.063-4.064v-6.096
	c0-2.243,1.818-4.064,4.063-4.064h6.096c2.246,0,4.063,1.821,4.063,4.064V116.066z"/>
<path fill="#040000" d="M248.562,134.561c0,2.242-1.816,4.066-4.063,4.066h-6.096c-2.244,0-4.063-1.824-4.063-4.066v-6.096
	c0-2.243,1.818-4.061,4.063-4.061h6.096c2.246,0,4.063,1.818,4.063,4.061V134.561z"/>
<path fill="#040000" d="M266.72,116.507c0,2.244-1.816,4.066-4.061,4.066h-6.094c-2.247,0-4.066-1.822-4.066-4.066v-6.096
	c0-2.245,1.819-4.066,4.066-4.066h6.094c2.244,0,4.061,1.821,4.061,4.066V116.507z"/>
<path fill="#040000" d="M266.72,135.002c0,2.244-1.816,4.066-4.061,4.066h-6.094c-2.247,0-4.066-1.822-4.066-4.066v-6.096
	c0-2.245,1.819-4.063,4.066-4.063h6.094c2.244,0,4.061,1.818,4.061,4.063V135.002z"/>
<path fill="#040000" d="M284.783,116.066c0,2.244-1.815,4.064-4.062,4.064h-6.096c-2.242,0-4.064-1.82-4.064-4.064v-6.096
	c0-2.243,1.822-4.064,4.064-4.064h6.096c2.246,0,4.062,1.821,4.062,4.064V116.066z"/>
<path fill="#040000" d="M284.783,134.561c0,2.242-1.815,4.066-4.062,4.066h-6.096c-2.242,0-4.064-1.824-4.064-4.066v-6.096
	c0-2.243,1.822-4.061,4.064-4.061h6.096c2.246,0,4.062,1.818,4.062,4.061V134.561z"/>
<path fill="#040000" d="M302.942,116.507c0,2.244-1.82,4.066-4.063,4.066h-6.098c-2.242,0-4.061-1.822-4.061-4.066v-6.096
	c0-2.245,1.818-4.066,4.061-4.066h6.098c2.242,0,4.063,1.821,4.063,4.066V116.507z"/>
<path fill="#040000" d="M302.942,135.002c0,2.244-1.82,4.066-4.063,4.066h-6.098c-2.242,0-4.061-1.822-4.061-4.066v-6.096
	c0-2.245,1.818-4.063,4.061-4.063h6.098c2.242,0,4.063,1.818,4.063,4.063V135.002z"/>
<path fill="#040000" d="M321.004,116.066c0,2.244-1.82,4.064-4.062,4.064h-6.096c-2.242,0-4.061-1.82-4.061-4.064v-6.096
	c0-2.243,1.818-4.064,4.061-4.064h6.096c2.241,0,4.062,1.821,4.062,4.064V116.066z"/>
<path fill="#040000" d="M431.471,160.008c0,2.246-1.818,4.066-4.063,4.066h-6.096c-2.243,0-4.064-1.82-4.064-4.066v-6.096
	c0-2.242,1.821-4.064,4.064-4.064h6.096c2.245,0,4.063,1.822,4.063,4.064V160.008z"/>
<path fill="#040000" d="M431.471,178.504c0,2.242-1.818,4.066-4.063,4.066h-6.096c-2.243,0-4.064-1.824-4.064-4.066v-6.096
	c0-2.242,1.821-4.061,4.064-4.061h6.096c2.245,0,4.063,1.818,4.063,4.061V178.504z"/>
<path fill="#040000" d="M412.747,160.008c0,2.246-1.818,4.066-4.063,4.066h-6.096c-2.243,0-4.064-1.82-4.064-4.066v-6.096
	c0-2.242,1.821-4.064,4.064-4.064h6.096c2.245,0,4.063,1.822,4.063,4.064V160.008z"/>
<path fill="#040000" d="M412.747,178.504c0,2.242-1.818,4.066-4.063,4.066h-6.096c-2.243,0-4.064-1.824-4.064-4.066v-6.096
	c0-2.242,1.821-4.061,4.064-4.061h6.096c2.245,0,4.063,1.818,4.063,4.061V178.504z"/>
<path fill="#040000" d="M449.63,160.451c0,2.244-1.818,4.064-4.065,4.064h-6.096c-2.243,0-4.062-1.82-4.062-4.064v-6.096
	c0-2.246,1.818-4.066,4.062-4.066h6.096c2.247,0,4.065,1.82,4.065,4.066V160.451z"/>
<path fill="#040000" d="M449.63,178.945c0,2.244-1.818,4.066-4.065,4.066h-6.096c-2.243,0-4.062-1.822-4.062-4.066v-6.096
	c0-2.244,1.818-4.063,4.062-4.063h6.096c2.247,0,4.065,1.818,4.065,4.063V178.945z"/>
<path fill="#040000" d="M467.694,160.008c0,2.246-1.822,4.066-4.065,4.066h-6.096c-2.246,0-4.063-1.82-4.063-4.066v-6.096
	c0-2.242,1.817-4.064,4.063-4.064h6.096c2.243,0,4.065,1.822,4.065,4.064V160.008z"/>
<path fill="#040000" d="M467.694,178.504c0,2.242-1.822,4.066-4.065,4.066h-6.096c-2.246,0-4.063-1.824-4.063-4.066v-6.096
	c0-2.242,1.817-4.061,4.063-4.061h6.096c2.243,0,4.065,1.818,4.065,4.061V178.504z"/>
<path fill="#040000" d="M485.848,160.451c0,2.244-1.815,4.064-4.061,4.064h-6.095c-2.245,0-4.063-1.82-4.063-4.064v-6.096
	c0-2.246,1.818-4.066,4.063-4.066h6.095c2.245,0,4.061,1.82,4.061,4.066V160.451z"/>
<path fill="#040000" d="M485.848,178.945c0,2.244-1.815,4.066-4.061,4.066h-6.095c-2.245,0-4.063-1.822-4.063-4.066v-6.096
	c0-2.244,1.818-4.063,4.063-4.063h6.095c2.245,0,4.061,1.818,4.061,4.063V178.945z"/>
<path fill="#040000" d="M503.912,160.008c0,2.246-1.816,4.066-4.063,4.066h-6.095c-2.246,0-4.064-1.82-4.064-4.066v-6.096
	c0-2.242,1.818-4.064,4.064-4.064h6.095c2.246,0,4.063,1.822,4.063,4.064V160.008z"/>
<path fill="#040000" d="M503.912,178.504c0,2.242-1.816,4.066-4.063,4.066h-6.095c-2.246,0-4.064-1.824-4.064-4.066v-6.096
	c0-2.242,1.818-4.061,4.064-4.061h6.095c2.246,0,4.063,1.818,4.063,4.061V178.504z"/>
<path fill="#040000" d="M522.07,160.451c0,2.244-1.817,4.064-4.063,4.064h-6.095c-2.244,0-4.064-1.82-4.064-4.064v-6.096
	c0-2.246,1.82-4.066,4.064-4.066h6.095c2.246,0,4.063,1.82,4.063,4.066V160.451z"/>
<path fill="#040000" d="M522.07,178.945c0,2.244-1.817,4.066-4.063,4.066h-6.095c-2.244,0-4.064-1.822-4.064-4.066v-6.096
	c0-2.244,1.82-4.063,4.064-4.063h6.095c2.246,0,4.063,1.818,4.063,4.063V178.945z"/>
<path fill="#040000" d="M540.135,160.008c0,2.246-1.822,4.066-4.063,4.066h-6.095c-2.244,0-4.063-1.82-4.063-4.066v-6.096
	c0-2.242,1.819-4.064,4.063-4.064h6.095c2.241,0,4.063,1.822,4.063,4.064V160.008z"/>
<path fill="#040000" d="M540.135,178.504c0,2.242-1.822,4.066-4.063,4.066h-6.095c-2.244,0-4.063-1.824-4.063-4.066v-6.096
	c0-2.242,1.819-4.061,4.063-4.061h6.095c2.241,0,4.063,1.818,4.063,4.061V178.504z"/>
<path fill="#040000" d="M558.292,160.451c0,2.244-1.818,4.064-4.063,4.064h-6.096c-2.246,0-4.065-1.82-4.065-4.064v-6.096
	c0-2.246,1.819-4.066,4.065-4.066h6.096c2.244,0,4.063,1.82,4.063,4.066V160.451z"/>
<path fill="#040000" d="M558.292,178.945c0,2.244-1.818,4.066-4.063,4.066h-6.096c-2.246,0-4.065-1.822-4.065-4.066v-6.096
	c0-2.244,1.819-4.063,4.065-4.063h6.096c2.244,0,4.063,1.818,4.063,4.063V178.945z"/>
<path fill="#040000" d="M576.354,160.008c0,2.246-1.816,4.066-4.063,4.066h-6.094c-2.246,0-4.066-1.82-4.066-4.066v-6.096
	c0-2.242,1.82-4.064,4.066-4.064h6.094c2.246,0,4.063,1.822,4.063,4.064V160.008z"/>
<path fill="#040000" d="M576.354,178.504c0,2.242-1.816,4.066-4.063,4.066h-6.094c-2.246,0-4.066-1.824-4.066-4.066v-6.096
	c0-2.242,1.82-4.061,4.066-4.061h6.094c2.246,0,4.063,1.818,4.063,4.061V178.504z"/>
<path fill="#040000" d="M594.512,160.451c0,2.244-1.816,4.064-4.063,4.064h-6.093c-2.248,0-4.066-1.82-4.066-4.064v-6.096
	c0-2.246,1.818-4.066,4.066-4.066h6.093c2.246,0,4.063,1.82,4.063,4.066V160.451z"/>
<path fill="#040000" d="M594.512,178.945c0,2.244-1.816,4.066-4.063,4.066h-6.093c-2.248,0-4.066-1.822-4.066-4.066v-6.096
	c0-2.244,1.818-4.063,4.066-4.063h6.093c2.246,0,4.063,1.818,4.063,4.063V178.945z"/>
<path fill="#040000" d="M612.574,160.008c0,2.246-1.818,4.066-4.061,4.066h-6.096c-2.243,0-4.066-1.82-4.066-4.066v-6.096
	c0-2.242,1.823-4.064,4.066-4.064h6.096c2.242,0,4.061,1.822,4.061,4.064V160.008z"/>
<path fill="#040000" d="M612.574,178.504c0,2.242-1.818,4.066-4.061,4.066h-6.096c-2.243,0-4.066-1.824-4.066-4.066v-6.096
	c0-2.242,1.823-4.061,4.066-4.061h6.096c2.242,0,4.061,1.818,4.061,4.061V178.504z"/>
<path fill="#040000" d="M630.735,160.451c0,2.244-1.821,4.064-4.064,4.064h-6.097c-2.243,0-4.062-1.82-4.062-4.064v-6.096
	c0-2.246,1.818-4.066,4.062-4.066h6.097c2.243,0,4.064,1.82,4.064,4.066V160.451z"/>
<path fill="#040000" d="M630.735,178.945c0,2.244-1.821,4.066-4.064,4.066h-6.097c-2.243,0-4.062-1.822-4.062-4.066v-6.096
	c0-2.244,1.818-4.063,4.062-4.063h6.097c2.243,0,4.064,1.818,4.064,4.063V178.945z"/>
<path fill="#040000" d="M648.795,160.008c0,2.246-1.816,4.066-4.063,4.066h-6.096c-2.244,0-4.062-1.82-4.062-4.066v-6.096
	c0-2.242,1.818-4.064,4.062-4.064h6.096c2.246,0,4.063,1.822,4.063,4.064V160.008z"/>
<path fill="#040000" d="M648.795,178.504c0,2.242-1.816,4.066-4.063,4.066h-6.096c-2.244,0-4.062-1.824-4.062-4.066v-6.096
	c0-2.242,1.818-4.061,4.062-4.061h6.096c2.246,0,4.063,1.818,4.063,4.061V178.504z"/>
<path fill="#040000" d="M666.953,160.451c0,2.244-1.816,4.064-4.059,4.064h-6.096c-2.246,0-4.066-1.82-4.066-4.064v-6.096
	c0-2.246,1.82-4.066,4.066-4.066h6.096c2.242,0,4.059,1.82,4.059,4.066V160.451z"/>
<path fill="#040000" d="M666.953,178.945c0,2.244-1.816,4.066-4.059,4.066h-6.096c-2.246,0-4.066-1.822-4.066-4.066v-6.096
	c0-2.244,1.82-4.063,4.066-4.063h6.096c2.242,0,4.059,1.818,4.059,4.063V178.945z"/>
<path fill="#040000" d="M540.135,197.041c0,2.242-1.822,4.066-4.063,4.066h-6.095c-2.244,0-4.063-1.824-4.063-4.066v-6.096
	c0-2.242,1.819-4.061,4.063-4.061h6.095c2.241,0,4.063,1.818,4.063,4.061V197.041z"/>
<path fill="#040000" d="M558.292,197.482c0,2.244-1.818,4.066-4.063,4.066h-6.096c-2.246,0-4.065-1.822-4.065-4.066v-6.096
	c0-2.244,1.819-4.063,4.065-4.063h6.096c2.244,0,4.063,1.818,4.063,4.063V197.482z"/>
<path fill="#040000" d="M576.354,197.041c0,2.242-1.816,4.066-4.063,4.066h-6.094c-2.246,0-4.066-1.824-4.066-4.066v-6.096
	c0-2.242,1.82-4.061,4.066-4.061h6.094c2.246,0,4.063,1.818,4.063,4.061V197.041z"/>
<path fill="#040000" d="M594.512,197.482c0,2.244-1.816,4.066-4.063,4.066h-6.093c-2.248,0-4.066-1.822-4.066-4.066v-6.096
	c0-2.244,1.818-4.063,4.066-4.063h6.093c2.246,0,4.063,1.818,4.063,4.063V197.482z"/>
<path fill="#040000" d="M612.574,197.041c0,2.242-1.818,4.066-4.061,4.066h-6.096c-2.243,0-4.066-1.824-4.066-4.066v-6.096
	c0-2.242,1.823-4.061,4.066-4.061h6.096c2.242,0,4.061,1.818,4.061,4.061V197.041z"/>
<path fill="#040000" d="M630.735,197.482c0,2.244-1.821,4.066-4.064,4.066h-6.097c-2.243,0-4.062-1.822-4.062-4.066v-6.096
	c0-2.244,1.818-4.063,4.062-4.063h6.097c2.243,0,4.064,1.818,4.064,4.063V197.482z"/>
<path fill="#040000" d="M648.795,197.041c0,2.242-1.816,4.066-4.063,4.066h-6.096c-2.244,0-4.062-1.824-4.062-4.066v-6.096
	c0-2.242,1.818-4.061,4.062-4.061h6.096c2.246,0,4.063,1.818,4.063,4.061V197.041z"/>
<path fill="#040000" d="M666.953,197.482c0,2.244-1.816,4.066-4.059,4.066h-6.096c-2.246,0-4.066-1.822-4.066-4.066v-6.096
	c0-2.244,1.82-4.063,4.066-4.063h6.096c2.242,0,4.059,1.818,4.059,4.063V197.482z"/>
<path fill="#040000" d="M540.135,215.578c0,2.242-1.822,4.066-4.063,4.066h-6.095c-2.244,0-4.063-1.824-4.063-4.066v-6.096
	c0-2.242,1.819-4.061,4.063-4.061h6.095c2.241,0,4.063,1.818,4.063,4.061V215.578z"/>
<path fill="#040000" d="M558.292,216.02c0,2.244-1.818,4.066-4.063,4.066h-6.096c-2.246,0-4.065-1.822-4.065-4.066v-6.096
	c0-2.244,1.819-4.063,4.065-4.063h6.096c2.244,0,4.063,1.818,4.063,4.063V216.02z"/>
<path fill="#040000" d="M576.354,215.578c0,2.242-1.816,4.066-4.063,4.066h-6.094c-2.246,0-4.066-1.824-4.066-4.066v-6.096
	c0-2.242,1.82-4.061,4.066-4.061h6.094c2.246,0,4.063,1.818,4.063,4.061V215.578z"/>
<path fill="#040000" d="M594.512,216.02c0,2.244-1.816,4.066-4.063,4.066h-6.093c-2.248,0-4.066-1.822-4.066-4.066v-6.096
	c0-2.244,1.818-4.063,4.066-4.063h6.093c2.246,0,4.063,1.818,4.063,4.063V216.02z"/>
<path fill="#040000" d="M612.574,215.578c0,2.242-1.818,4.066-4.061,4.066h-6.096c-2.243,0-4.066-1.824-4.066-4.066v-6.096
	c0-2.242,1.823-4.061,4.066-4.061h6.096c2.242,0,4.061,1.818,4.061,4.061V215.578z"/>
<path fill="#040000" d="M630.735,216.02c0,2.244-1.821,4.066-4.064,4.066h-6.097c-2.243,0-4.062-1.822-4.062-4.066v-6.096
	c0-2.244,1.818-4.063,4.062-4.063h6.097c2.243,0,4.064,1.818,4.064,4.063V216.02z"/>
<path fill="#040000" d="M648.795,215.578c0,2.242-1.816,4.066-4.063,4.066h-6.096c-2.244,0-4.062-1.824-4.062-4.066v-6.096
	c0-2.242,1.818-4.061,4.062-4.061h6.096c2.246,0,4.063,1.818,4.063,4.061V215.578z"/>
<path fill="#040000" d="M666.953,216.02c0,2.244-1.816,4.066-4.059,4.066h-6.096c-2.246,0-4.066-1.822-4.066-4.066v-6.096
	c0-2.244,1.82-4.063,4.066-4.063h6.096c2.242,0,4.059,1.818,4.059,4.063V216.02z"/>
<path fill="#040000" d="M540.135,234.115c0,2.242-1.822,4.066-4.063,4.066h-6.095c-2.244,0-4.063-1.824-4.063-4.066v-6.096
	c0-2.242,1.819-4.061,4.063-4.061h6.095c2.241,0,4.063,1.818,4.063,4.061V234.115z"/>
<path fill="#040000" d="M558.292,234.557c0,2.244-1.818,4.066-4.063,4.066h-6.096c-2.246,0-4.065-1.822-4.065-4.066v-6.096
	c0-2.244,1.819-4.063,4.065-4.063h6.096c2.244,0,4.063,1.818,4.063,4.063V234.557z"/>
<path fill="#040000" d="M576.354,234.115c0,2.242-1.816,4.066-4.063,4.066h-6.094c-2.246,0-4.066-1.824-4.066-4.066v-6.096
	c0-2.242,1.82-4.061,4.066-4.061h6.094c2.246,0,4.063,1.818,4.063,4.061V234.115z"/>
<path fill="#040000" d="M594.512,234.557c0,2.244-1.816,4.066-4.063,4.066h-6.093c-2.248,0-4.066-1.822-4.066-4.066v-6.096
	c0-2.244,1.818-4.063,4.066-4.063h6.093c2.246,0,4.063,1.818,4.063,4.063V234.557z"/>
<path fill="#040000" d="M612.574,234.115c0,2.242-1.818,4.066-4.061,4.066h-6.096c-2.243,0-4.066-1.824-4.066-4.066v-6.096
	c0-2.242,1.823-4.061,4.066-4.061h6.096c2.242,0,4.061,1.818,4.061,4.061V234.115z"/>
<path fill="#040000" d="M630.735,234.557c0,2.244-1.821,4.066-4.064,4.066h-6.097c-2.243,0-4.062-1.822-4.062-4.066v-6.096
	c0-2.244,1.818-4.063,4.062-4.063h6.097c2.243,0,4.064,1.818,4.064,4.063V234.557z"/>
<path fill="#040000" d="M648.795,234.115c0,2.242-1.816,4.066-4.063,4.066h-6.096c-2.244,0-4.062-1.824-4.062-4.066v-6.096
	c0-2.242,1.818-4.061,4.062-4.061h6.096c2.246,0,4.063,1.818,4.063,4.061V234.115z"/>
<path fill="#040000" d="M666.953,234.557c0,2.244-1.816,4.066-4.059,4.066h-6.096c-2.246,0-4.066-1.822-4.066-4.066v-6.096
	c0-2.244,1.82-4.063,4.066-4.063h6.096c2.242,0,4.059,1.818,4.059,4.063V234.557z"/>
<path fill="#040000" d="M321.004,134.561c0,2.242-1.82,4.066-4.062,4.066h-6.096c-2.242,0-4.061-1.824-4.061-4.066v-6.096
	c0-2.243,1.818-4.061,4.061-4.061h6.096c2.241,0,4.062,1.818,4.062,4.061V134.561z"/>
<path fill="#040000" d="M230.501,153.334c0,2.246-1.82,4.066-4.063,4.066h-6.097c-2.243,0-4.062-1.82-4.062-4.066v-6.094
	c0-2.246,1.818-4.064,4.062-4.064h6.097c2.243,0,4.063,1.818,4.063,4.064V153.334z"/>
<path fill="#040000" d="M248.562,152.893c0,2.244-1.816,4.066-4.063,4.066h-6.096c-2.244,0-4.063-1.822-4.063-4.066v-6.096
	c0-2.242,1.818-4.061,4.063-4.061h6.096c2.246,0,4.063,1.818,4.063,4.061V152.893z"/>
<path fill="#040000" d="M266.72,153.334c0,2.246-1.816,4.066-4.061,4.066h-6.094c-2.247,0-4.066-1.82-4.066-4.066v-6.094
	c0-2.246,1.819-4.064,4.066-4.064h6.094c2.244,0,4.061,1.818,4.061,4.064V153.334z"/>
<path fill="#040000" d="M284.783,152.893c0,2.244-1.815,4.066-4.062,4.066h-6.096c-2.242,0-4.064-1.822-4.064-4.066v-6.096
	c0-2.242,1.822-4.061,4.064-4.061h6.096c2.246,0,4.062,1.818,4.062,4.061V152.893z"/>
<path fill="#040000" d="M302.942,153.334c0,2.246-1.82,4.066-4.063,4.066h-6.098c-2.242,0-4.061-1.82-4.061-4.066v-6.094
	c0-2.246,1.818-4.064,4.061-4.064h6.098c2.242,0,4.063,1.818,4.063,4.064V153.334z"/>
<path fill="#040000" d="M321.004,152.893c0,2.244-1.82,4.066-4.062,4.066h-6.096c-2.242,0-4.061-1.822-4.061-4.066v-6.096
	c0-2.242,1.818-4.061,4.061-4.061h6.096c2.241,0,4.062,1.818,4.062,4.061V152.893z"/>
<path fill="#040000" d="M230.501,171.959c0,2.246-1.82,4.066-4.063,4.066h-6.097c-2.243,0-4.062-1.82-4.062-4.066v-6.094
	c0-2.246,1.818-4.064,4.062-4.064h6.097c2.243,0,4.063,1.818,4.063,4.064V171.959z"/>
<path fill="#040000" d="M248.562,171.518c0,2.244-1.816,4.066-4.063,4.066h-6.096c-2.244,0-4.063-1.822-4.063-4.066v-6.096
	c0-2.242,1.818-4.061,4.063-4.061h6.096c2.246,0,4.063,1.818,4.063,4.061V171.518z"/>
<path fill="#040000" d="M266.72,171.959c0,2.246-1.816,4.066-4.061,4.066h-6.094c-2.247,0-4.066-1.82-4.066-4.066v-6.094
	c0-2.246,1.819-4.064,4.066-4.064h6.094c2.244,0,4.061,1.818,4.061,4.064V171.959z"/>
<path fill="#040000" d="M284.783,171.518c0,2.244-1.815,4.066-4.062,4.066h-6.096c-2.242,0-4.064-1.822-4.064-4.066v-6.096
	c0-2.242,1.822-4.061,4.064-4.061h6.096c2.246,0,4.062,1.818,4.062,4.061V171.518z"/>
<path fill="#040000" d="M302.942,171.959c0,2.246-1.82,4.066-4.063,4.066h-6.098c-2.242,0-4.061-1.82-4.061-4.066v-6.094
	c0-2.246,1.818-4.064,4.061-4.064h6.098c2.242,0,4.063,1.818,4.063,4.064V171.959z"/>
<path fill="#040000" d="M321.004,171.518c0,2.244-1.82,4.066-4.062,4.066h-6.096c-2.242,0-4.061-1.822-4.061-4.066v-6.096
	c0-2.242,1.818-4.061,4.061-4.061h6.096c2.241,0,4.062,1.818,4.062,4.061V171.518z"/>
<path fill="#DDDDDD" d="M155.378,59.282c0,3.313-2.688,6-6,6H33.194c-3.313,0-6-2.687-6-6V25.39c0-3.313,2.687-6,6-6h116.184
	c3.313,0,6,2.687,6,6V59.282z"/>
<path fill="#DDDDDD" d="M393.525,188.111v-47.264h-69.552v35.178h-90.471h-1.395h-16.569v-30.289c0-3.313-2.687-6-6-6H16.17
	c-3.313,0-6,2.688-6,6v96.959c0,3.166,2.456,5.754,5.566,5.977l-0.065,0.023h0.499h193.369h314.319v-60.584H393.525z"/>
<path fill="#040000" d="M158.058,178.189c0,2.246-1.814,4.066-4.061,4.066h-6.096c-2.242,0-4.064-1.82-4.064-4.066v-6.096
	c0-2.242,1.822-4.064,4.064-4.064h6.096c2.246,0,4.061,1.822,4.061,4.064V178.189z"/>
<path fill="#040000" d="M158.058,196.686c0,2.242-1.814,4.066-4.061,4.066h-6.096c-2.242,0-4.064-1.824-4.064-4.066v-6.096
	c0-2.242,1.822-4.061,4.064-4.061h6.096c2.246,0,4.061,1.818,4.061,4.061V196.686z"/>
<path fill="#040000" d="M176.218,178.633c0,2.244-1.82,4.064-4.063,4.064h-6.098c-2.242,0-4.061-1.82-4.061-4.064v-6.096
	c0-2.246,1.818-4.066,4.061-4.066h6.098c2.242,0,4.063,1.82,4.063,4.066V178.633z"/>
<path fill="#040000" d="M176.218,197.127c0,2.244-1.82,4.066-4.063,4.066h-6.098c-2.242,0-4.061-1.822-4.061-4.066v-6.096
	c0-2.244,1.818-4.063,4.061-4.063h6.098c2.242,0,4.063,1.818,4.063,4.063V197.127z"/>
<path fill="#040000" d="M194.279,178.189c0,2.246-1.82,4.066-4.062,4.066h-6.096c-2.242,0-4.061-1.82-4.061-4.066v-6.096
	c0-2.242,1.818-4.064,4.061-4.064h6.096c2.241,0,4.062,1.822,4.062,4.064V178.189z"/>
<path fill="#040000" d="M158.058,160.148c0,2.246-1.814,4.066-4.061,4.066h-6.096c-2.242,0-4.064-1.82-4.064-4.066v-6.096
	c0-2.242,1.822-4.064,4.064-4.064h6.096c2.246,0,4.061,1.822,4.061,4.064V160.148z"/>
<path fill="#040000" d="M176.218,160.592c0,2.244-1.82,4.064-4.063,4.064h-6.098c-2.242,0-4.061-1.82-4.061-4.064v-6.096
	c0-2.246,1.818-4.066,4.061-4.066h6.098c2.242,0,4.063,1.82,4.063,4.066V160.592z"/>
<path fill="#040000" d="M194.279,160.148c0,2.246-1.82,4.066-4.062,4.066h-6.096c-2.242,0-4.061-1.82-4.061-4.066v-6.096
	c0-2.242,1.818-4.064,4.061-4.064h6.096c2.241,0,4.062,1.822,4.062,4.064V160.148z"/>
<path fill="#040000" d="M194.279,196.686c0,2.242-1.82,4.066-4.062,4.066h-6.096c-2.242,0-4.061-1.824-4.061-4.066v-6.096
	c0-2.242,1.818-4.061,4.061-4.061h6.096c2.241,0,4.062,1.818,4.062,4.061V196.686z"/>
<path fill="#040000" d="M158.058,215.439c0,2.246-1.814,4.066-4.061,4.066h-6.096c-2.242,0-4.064-1.82-4.064-4.066v-6.096
	c0-2.242,1.822-4.064,4.064-4.064h6.096c2.246,0,4.061,1.822,4.061,4.064V215.439z"/>
<path fill="#040000" d="M158.058,233.936c0,2.242-1.814,4.066-4.061,4.066h-6.096c-2.242,0-4.064-1.824-4.064-4.066v-6.096
	c0-2.242,1.822-4.061,4.064-4.061h6.096c2.246,0,4.061,1.818,4.061,4.061V233.936z"/>
<path fill="#040000" d="M176.218,215.883c0,2.244-1.82,4.064-4.063,4.064h-6.098c-2.242,0-4.061-1.82-4.061-4.064v-6.096
	c0-2.246,1.818-4.066,4.061-4.066h6.098c2.242,0,4.063,1.82,4.063,4.066V215.883z"/>
<path fill="#040000" d="M176.218,234.377c0,2.244-1.82,4.066-4.063,4.066h-6.098c-2.242,0-4.061-1.822-4.061-4.066v-6.096
	c0-2.244,1.818-4.063,4.061-4.063h6.098c2.242,0,4.063,1.818,4.063,4.063V234.377z"/>
<path fill="#040000" d="M194.279,215.439c0,2.246-1.82,4.066-4.062,4.066h-6.096c-2.242,0-4.061-1.82-4.061-4.066v-6.096
	c0-2.242,1.818-4.064,4.061-4.064h6.096c2.241,0,4.062,1.822,4.062,4.064V215.439z"/>
<path fill="#040000" d="M194.279,233.936c0,2.242-1.82,4.066-4.062,4.066h-6.096c-2.242,0-4.061-1.824-4.061-4.066v-6.096
	c0-2.242,1.818-4.061,4.061-4.061h6.096c2.241,0,4.062,1.818,4.062,4.061V233.936z"/>
<circle fill="#393A3A" cx="347.324" cy="206.199" r="9.716"/>
<circle fill="#393A3A" cx="226.665" cy="202.039" r="5.802"/>
<rect x="514.042" y="216.5" fill="#231815" width="1.938" height="5.5"/>
<rect x="987.109" y="16.446" fill="#231815" width="261.563" height="231.929"/>
<rect x="989.316" y="45.721" fill="#101010" width="12.668" height="9.5"/>
<rect x="989.316" y="87.388" fill="#101010" width="12.668" height="9.5"/>
<rect x="989.316" y="162.721" fill="#101010" width="12.668" height="9.5"/>
<rect x="989.316" y="204.387" fill="#101010" width="12.668" height="9.5"/>
<path fill="#555656" d="M345.092,29.531v103.664h326.705c0,0,13.652,3.072,18.26,18.432v63.748c0,0,2.045,22.016,18.43,25.598
	h225.301c0,0,24.029-0.768,31.709-19.582V29.531H345.092z"/>
<path fill="#939392" d="M345.955,24.223v103.664H672.66c0,0,13.652,3.072,18.26,18.432v63.748c0,0,2.045,22.016,18.43,25.598H934.65
	c0,0,24.029-0.768,31.709-19.582V24.223H345.955z"/>
<path fill="#040000" d="M734.252,217.721c0,2.055-1.664,3.719-3.719,3.719h-5.578c-2.051,0-3.719-1.664-3.719-3.719v-5.576
	c0-2.053,1.668-3.721,3.719-3.721h5.578c2.055,0,3.719,1.668,3.719,3.721V217.721z"/>
<path fill="#040000" d="M717.121,217.721c0,2.055-1.664,3.719-3.719,3.719h-5.578c-2.051,0-3.719-1.664-3.719-3.719v-5.576
	c0-2.053,1.668-3.721,3.719-3.721h5.578c2.055,0,3.719,1.668,3.719,3.721V217.721z"/>
<path fill="#040000" d="M750.865,218.127c0,2.051-1.664,3.719-3.719,3.719h-5.578c-2.051,0-3.715-1.668-3.715-3.719v-5.578
	c0-2.055,1.664-3.721,3.715-3.721h5.578c2.055,0,3.719,1.666,3.719,3.721V218.127z"/>
<path fill="#040000" d="M767.393,217.721c0,2.055-1.664,3.719-3.719,3.719h-5.576c-2.055,0-3.719-1.664-3.719-3.719v-5.576
	c0-2.053,1.664-3.721,3.719-3.721h5.576c2.055,0,3.719,1.668,3.719,3.721V217.721z"/>
<path fill="#040000" d="M784.004,218.127c0,2.051-1.662,3.719-3.717,3.719h-5.576c-2.053,0-3.717-1.668-3.717-3.719v-5.578
	c0-2.055,1.664-3.721,3.717-3.721h5.576c2.055,0,3.717,1.666,3.717,3.721V218.127z"/>
<path fill="#040000" d="M800.531,217.721c0,2.055-1.662,3.719-3.717,3.719h-5.576c-2.055,0-3.719-1.664-3.719-3.719v-5.576
	c0-2.053,1.664-3.721,3.719-3.721h5.576c2.055,0,3.717,1.668,3.717,3.721V217.721z"/>
<path fill="#040000" d="M817.145,218.127c0,2.051-1.662,3.719-3.717,3.719h-5.576c-2.055,0-3.719-1.668-3.719-3.719v-5.578
	c0-2.055,1.664-3.721,3.719-3.721h5.576c2.055,0,3.717,1.666,3.717,3.721V218.127z"/>
<path fill="#040000" d="M833.674,217.721c0,2.055-1.668,3.719-3.719,3.719h-5.576c-2.053,0-3.719-1.664-3.719-3.719v-5.576
	c0-2.053,1.666-3.721,3.719-3.721h5.576c2.051,0,3.719,1.668,3.719,3.721V217.721z"/>
<path fill="#040000" d="M850.287,218.127c0,2.051-1.662,3.719-3.717,3.719h-5.578c-2.055,0-3.721-1.668-3.721-3.719v-5.578
	c0-2.055,1.666-3.721,3.721-3.721h5.578c2.055,0,3.717,1.666,3.717,3.721V218.127z"/>
<path fill="#040000" d="M866.813,217.721c0,2.055-1.664,3.719-3.717,3.719h-5.576c-2.057,0-3.721-1.664-3.721-3.719v-5.576
	c0-2.053,1.664-3.721,3.721-3.721h5.576c2.053,0,3.717,1.668,3.717,3.721V217.721z"/>
<path fill="#040000" d="M883.426,218.127c0,2.051-1.66,3.719-3.717,3.719h-5.574c-2.059,0-3.721-1.668-3.721-3.719v-5.578
	c0-2.055,1.662-3.721,3.721-3.721h5.574c2.057,0,3.717,1.666,3.717,3.721V218.127z"/>
<path fill="#040000" d="M899.953,217.721c0,2.055-1.664,3.719-3.717,3.719h-5.576c-2.053,0-3.721-1.664-3.721-3.719v-5.576
	c0-2.053,1.668-3.721,3.721-3.721h5.576c2.053,0,3.717,1.668,3.717,3.721V217.721z"/>
<path fill="#040000" d="M916.568,218.127c0,2.051-1.666,3.719-3.719,3.719h-5.578c-2.053,0-3.717-1.668-3.717-3.719v-5.578
	c0-2.055,1.664-3.721,3.717-3.721h5.578c2.053,0,3.719,1.666,3.719,3.721V218.127z"/>
<path fill="#040000" d="M933.092,217.721c0,2.055-1.662,3.719-3.717,3.719h-5.576c-2.055,0-3.717-1.664-3.717-3.719v-5.576
	c0-2.053,1.662-3.721,3.717-3.721h5.576c2.055,0,3.717,1.668,3.717,3.721V217.721z"/>
<path fill="#040000" d="M949.707,218.127c0,2.051-1.664,3.719-3.715,3.719h-5.578c-2.055,0-3.721-1.668-3.721-3.719v-5.578
	c0-2.055,1.666-3.721,3.721-3.721h5.578c2.051,0,3.715,1.666,3.715,3.721V218.127z"/>
<path fill="#040000" d="M734.252,201.332c0,2.055-1.664,3.719-3.719,3.719h-5.578c-2.051,0-3.719-1.664-3.719-3.719v-5.576
	c0-2.053,1.668-3.721,3.719-3.721h5.578c2.055,0,3.719,1.668,3.719,3.721V201.332z"/>
<path fill="#040000" d="M717.121,201.332c0,2.055-1.664,3.719-3.719,3.719h-5.578c-2.051,0-3.719-1.664-3.719-3.719v-5.576
	c0-2.053,1.668-3.721,3.719-3.721h5.578c2.055,0,3.719,1.668,3.719,3.721V201.332z"/>
<path fill="#040000" d="M750.865,201.736c0,2.053-1.664,3.719-3.719,3.719h-5.578c-2.051,0-3.715-1.666-3.715-3.719v-5.578
	c0-2.053,1.664-3.719,3.715-3.719h5.578c2.055,0,3.719,1.666,3.719,3.719V201.736z"/>
<path fill="#040000" d="M767.393,201.332c0,2.055-1.664,3.719-3.719,3.719h-5.576c-2.055,0-3.719-1.664-3.719-3.719v-5.576
	c0-2.053,1.664-3.721,3.719-3.721h5.576c2.055,0,3.719,1.668,3.719,3.721V201.332z"/>
<path fill="#040000" d="M784.004,201.736c0,2.053-1.662,3.719-3.717,3.719h-5.576c-2.053,0-3.717-1.666-3.717-3.719v-5.578
	c0-2.053,1.664-3.719,3.717-3.719h5.576c2.055,0,3.717,1.666,3.717,3.719V201.736z"/>
<path fill="#040000" d="M800.531,201.332c0,2.055-1.662,3.719-3.717,3.719h-5.576c-2.055,0-3.719-1.664-3.719-3.719v-5.576
	c0-2.053,1.664-3.721,3.719-3.721h5.576c2.055,0,3.717,1.668,3.717,3.721V201.332z"/>
<path fill="#040000" d="M817.145,201.736c0,2.053-1.662,3.719-3.717,3.719h-5.576c-2.055,0-3.719-1.666-3.719-3.719v-5.578
	c0-2.053,1.664-3.719,3.719-3.719h5.576c2.055,0,3.717,1.666,3.717,3.719V201.736z"/>
<path fill="#040000" d="M833.674,201.332c0,2.055-1.668,3.719-3.719,3.719h-5.576c-2.053,0-3.719-1.664-3.719-3.719v-5.576
	c0-2.053,1.666-3.721,3.719-3.721h5.576c2.051,0,3.719,1.668,3.719,3.721V201.332z"/>
<path fill="#040000" d="M850.287,201.736c0,2.053-1.662,3.719-3.717,3.719h-5.578c-2.055,0-3.721-1.666-3.721-3.719v-5.578
	c0-2.053,1.666-3.719,3.721-3.719h5.578c2.055,0,3.717,1.666,3.717,3.719V201.736z"/>
<path fill="#040000" d="M866.813,201.332c0,2.055-1.664,3.719-3.717,3.719h-5.576c-2.057,0-3.721-1.664-3.721-3.719v-5.576
	c0-2.053,1.664-3.721,3.721-3.721h5.576c2.053,0,3.717,1.668,3.717,3.721V201.332z"/>
<path fill="#040000" d="M883.426,201.736c0,2.053-1.66,3.719-3.717,3.719h-5.574c-2.059,0-3.721-1.666-3.721-3.719v-5.578
	c0-2.053,1.662-3.719,3.721-3.719h5.574c2.057,0,3.717,1.666,3.717,3.719V201.736z"/>
<path fill="#040000" d="M899.953,201.332c0,2.055-1.664,3.719-3.717,3.719h-5.576c-2.053,0-3.721-1.664-3.721-3.719v-5.576
	c0-2.053,1.668-3.721,3.721-3.721h5.576c2.053,0,3.717,1.668,3.717,3.721V201.332z"/>
<path fill="#040000" d="M916.568,201.736c0,2.053-1.666,3.719-3.719,3.719h-5.578c-2.053,0-3.717-1.666-3.717-3.719v-5.578
	c0-2.053,1.664-3.719,3.717-3.719h5.578c2.053,0,3.719,1.666,3.719,3.719V201.736z"/>
<path fill="#040000" d="M933.092,201.332c0,2.055-1.662,3.719-3.717,3.719h-5.576c-2.055,0-3.717-1.664-3.717-3.719v-5.576
	c0-2.053,1.662-3.721,3.717-3.721h5.576c2.055,0,3.717,1.668,3.717,3.721V201.332z"/>
<path fill="#040000" d="M949.707,201.736c0,2.053-1.664,3.719-3.715,3.719h-5.578c-2.055,0-3.721-1.666-3.721-3.719v-5.578
	c0-2.053,1.666-3.719,3.721-3.719h5.578c2.051,0,3.715,1.666,3.715,3.719V201.736z"/>
<path fill="#040000" d="M734.252,185.195c0,2.055-1.664,3.719-3.719,3.719h-5.578c-2.051,0-3.719-1.664-3.719-3.719v-5.576
	c0-2.053,1.668-3.721,3.719-3.721h5.578c2.055,0,3.719,1.668,3.719,3.721V185.195z"/>
<path fill="#040000" d="M717.121,185.195c0,2.055-1.664,3.719-3.719,3.719h-5.578c-2.051,0-3.719-1.664-3.719-3.719v-5.576
	c0-2.053,1.668-3.721,3.719-3.721h5.578c2.055,0,3.719,1.668,3.719,3.721V185.195z"/>
<path fill="#040000" d="M750.865,185.602c0,2.051-1.664,3.719-3.719,3.719h-5.578c-2.051,0-3.715-1.668-3.715-3.719v-5.578
	c0-2.055,1.664-3.721,3.715-3.721h5.578c2.055,0,3.719,1.666,3.719,3.721V185.602z"/>
<path fill="#040000" d="M767.393,185.195c0,2.055-1.664,3.719-3.719,3.719h-5.576c-2.055,0-3.719-1.664-3.719-3.719v-5.576
	c0-2.053,1.664-3.721,3.719-3.721h5.576c2.055,0,3.719,1.668,3.719,3.721V185.195z"/>
<path fill="#040000" d="M784.004,185.602c0,2.051-1.662,3.719-3.717,3.719h-5.576c-2.053,0-3.717-1.668-3.717-3.719v-5.578
	c0-2.055,1.664-3.721,3.717-3.721h5.576c2.055,0,3.717,1.666,3.717,3.721V185.602z"/>
<path fill="#040000" d="M800.531,185.195c0,2.055-1.662,3.719-3.717,3.719h-5.576c-2.055,0-3.719-1.664-3.719-3.719v-5.576
	c0-2.053,1.664-3.721,3.719-3.721h5.576c2.055,0,3.717,1.668,3.717,3.721V185.195z"/>
<path fill="#040000" d="M817.145,185.602c0,2.051-1.662,3.719-3.717,3.719h-5.576c-2.055,0-3.719-1.668-3.719-3.719v-5.578
	c0-2.055,1.664-3.721,3.719-3.721h5.576c2.055,0,3.717,1.666,3.717,3.721V185.602z"/>
<path fill="#040000" d="M833.674,185.195c0,2.055-1.668,3.719-3.719,3.719h-5.576c-2.053,0-3.719-1.664-3.719-3.719v-5.576
	c0-2.053,1.666-3.721,3.719-3.721h5.576c2.051,0,3.719,1.668,3.719,3.721V185.195z"/>
<path fill="#040000" d="M850.287,185.602c0,2.051-1.662,3.719-3.717,3.719h-5.578c-2.055,0-3.721-1.668-3.721-3.719v-5.578
	c0-2.055,1.666-3.721,3.721-3.721h5.578c2.055,0,3.717,1.666,3.717,3.721V185.602z"/>
<path fill="#040000" d="M866.813,185.195c0,2.055-1.664,3.719-3.717,3.719h-5.576c-2.057,0-3.721-1.664-3.721-3.719v-5.576
	c0-2.053,1.664-3.721,3.721-3.721h5.576c2.053,0,3.717,1.668,3.717,3.721V185.195z"/>
<path fill="#040000" d="M883.426,185.602c0,2.051-1.66,3.719-3.717,3.719h-5.574c-2.059,0-3.721-1.668-3.721-3.719v-5.578
	c0-2.055,1.662-3.721,3.721-3.721h5.574c2.057,0,3.717,1.666,3.717,3.721V185.602z"/>
<path fill="#040000" d="M899.953,185.195c0,2.055-1.664,3.719-3.717,3.719h-5.576c-2.053,0-3.721-1.664-3.721-3.719v-5.576
	c0-2.053,1.668-3.721,3.721-3.721h5.576c2.053,0,3.717,1.668,3.717,3.721V185.195z"/>
<path fill="#040000" d="M916.568,185.602c0,2.051-1.666,3.719-3.719,3.719h-5.578c-2.053,0-3.717-1.668-3.717-3.719v-5.578
	c0-2.055,1.664-3.721,3.717-3.721h5.578c2.053,0,3.719,1.666,3.719,3.721V185.602z"/>
<path fill="#040000" d="M933.092,185.195c0,2.055-1.662,3.719-3.717,3.719h-5.576c-2.055,0-3.717-1.664-3.717-3.719v-5.576
	c0-2.053,1.662-3.721,3.717-3.721h5.576c2.055,0,3.717,1.668,3.717,3.721V185.195z"/>
<path fill="#040000" d="M949.707,185.602c0,2.051-1.664,3.719-3.715,3.719h-5.578c-2.055,0-3.721-1.668-3.721-3.719v-5.578
	c0-2.055,1.666-3.721,3.721-3.721h5.578c2.051,0,3.715,1.666,3.715,3.721V185.602z"/>
<path fill="#040000" d="M800.531,168.641c0,2.055-1.662,3.719-3.717,3.719h-5.576c-2.055,0-3.719-1.664-3.719-3.719v-5.576
	c0-2.053,1.664-3.721,3.719-3.721h5.576c2.055,0,3.717,1.668,3.717,3.721V168.641z"/>
<path fill="#040000" d="M817.145,169.045c0,2.053-1.662,3.719-3.717,3.719h-5.576c-2.055,0-3.719-1.666-3.719-3.719v-5.578
	c0-2.053,1.664-3.719,3.719-3.719h5.576c2.055,0,3.717,1.666,3.717,3.719V169.045z"/>
<path fill="#040000" d="M833.674,168.641c0,2.055-1.668,3.719-3.719,3.719h-5.576c-2.053,0-3.719-1.664-3.719-3.719v-5.576
	c0-2.053,1.666-3.721,3.719-3.721h5.576c2.051,0,3.719,1.668,3.719,3.721V168.641z"/>
<path fill="#040000" d="M850.287,169.045c0,2.053-1.662,3.719-3.717,3.719h-5.578c-2.055,0-3.721-1.666-3.721-3.719v-5.578
	c0-2.053,1.666-3.719,3.721-3.719h5.578c2.055,0,3.717,1.666,3.717,3.719V169.045z"/>
<path fill="#040000" d="M866.813,168.641c0,2.055-1.664,3.719-3.717,3.719h-5.576c-2.057,0-3.721-1.664-3.721-3.719v-5.576
	c0-2.053,1.664-3.721,3.721-3.721h5.576c2.053,0,3.717,1.668,3.717,3.721V168.641z"/>
<path fill="#040000" d="M883.426,169.045c0,2.053-1.66,3.719-3.717,3.719h-5.574c-2.059,0-3.721-1.666-3.721-3.719v-5.578
	c0-2.053,1.662-3.719,3.721-3.719h5.574c2.057,0,3.717,1.666,3.717,3.719V169.045z"/>
<path fill="#040000" d="M899.953,168.641c0,2.055-1.664,3.719-3.717,3.719h-5.576c-2.053,0-3.721-1.664-3.721-3.719v-5.576
	c0-2.053,1.668-3.721,3.721-3.721h5.576c2.053,0,3.717,1.668,3.717,3.721V168.641z"/>
<path fill="#040000" d="M916.568,169.045c0,2.053-1.666,3.719-3.719,3.719h-5.578c-2.053,0-3.717-1.666-3.717-3.719v-5.578
	c0-2.053,1.664-3.719,3.717-3.719h5.578c2.053,0,3.719,1.666,3.719,3.719V169.045z"/>
<path fill="#040000" d="M933.092,168.641c0,2.055-1.662,3.719-3.717,3.719h-5.576c-2.055,0-3.717-1.664-3.717-3.719v-5.576
	c0-2.053,1.662-3.721,3.717-3.721h5.576c2.055,0,3.717,1.668,3.717,3.721V168.641z"/>
<path fill="#040000" d="M949.707,169.045c0,2.053-1.664,3.719-3.715,3.719h-5.578c-2.055,0-3.721-1.666-3.721-3.719v-5.578
	c0-2.053,1.666-3.719,3.721-3.719h5.578c2.051,0,3.715,1.666,3.715,3.719V169.045z"/>
<path fill="#040000" d="M817.145,152.91c0,2.051-1.662,3.719-3.717,3.719h-5.576c-2.055,0-3.719-1.668-3.719-3.719v-5.578
	c0-2.055,1.664-3.721,3.719-3.721h5.576c2.055,0,3.717,1.666,3.717,3.721V152.91z"/>
<path fill="#040000" d="M833.674,152.504c0,2.055-1.668,3.719-3.719,3.719h-5.576c-2.053,0-3.719-1.664-3.719-3.719v-5.576
	c0-2.053,1.666-3.721,3.719-3.721h5.576c2.051,0,3.719,1.668,3.719,3.721V152.504z"/>
<path fill="#040000" d="M850.287,152.91c0,2.051-1.662,3.719-3.717,3.719h-5.578c-2.055,0-3.721-1.668-3.721-3.719v-5.578
	c0-2.055,1.666-3.721,3.721-3.721h5.578c2.055,0,3.717,1.666,3.717,3.721V152.91z"/>
<path fill="#040000" d="M866.813,152.504c0,2.055-1.664,3.719-3.717,3.719h-5.576c-2.057,0-3.721-1.664-3.721-3.719v-5.576
	c0-2.053,1.664-3.721,3.721-3.721h5.576c2.053,0,3.717,1.668,3.717,3.721V152.504z"/>
<path fill="#040000" d="M883.426,152.91c0,2.051-1.66,3.719-3.717,3.719h-5.574c-2.059,0-3.721-1.668-3.721-3.719v-5.578
	c0-2.055,1.662-3.721,3.721-3.721h5.574c2.057,0,3.717,1.666,3.717,3.721V152.91z"/>
<path fill="#040000" d="M899.953,152.504c0,2.055-1.664,3.719-3.717,3.719h-5.576c-2.053,0-3.721-1.664-3.721-3.719v-5.576
	c0-2.053,1.668-3.721,3.721-3.721h5.576c2.053,0,3.717,1.668,3.717,3.721V152.504z"/>
<path fill="#040000" d="M916.568,152.91c0,2.051-1.666,3.719-3.719,3.719h-5.578c-2.053,0-3.717-1.668-3.717-3.719v-5.578
	c0-2.055,1.664-3.721,3.717-3.721h5.578c2.053,0,3.719,1.666,3.719,3.721V152.91z"/>
<path fill="#040000" d="M933.092,152.504c0,2.055-1.662,3.719-3.717,3.719h-5.576c-2.055,0-3.717-1.664-3.717-3.719v-5.576
	c0-2.053,1.662-3.721,3.717-3.721h5.576c2.055,0,3.717,1.668,3.717,3.721V152.504z"/>
<path fill="#040000" d="M949.707,152.91c0,2.051-1.664,3.719-3.715,3.719h-5.578c-2.055,0-3.721-1.668-3.721-3.719v-5.578
	c0-2.055,1.666-3.721,3.721-3.721h5.578c2.051,0,3.715,1.666,3.715,3.721V152.91z"/>
<g>
	<path fill="#A2A3A5" stroke="#373838" stroke-miterlimit="10" d="M767.135,77.909c0,1.045,0.76,1.893,1.703,1.893h188.51
		c0.939,0,1.703-0.848,1.703-1.893V46.364c0-1.045-0.764-1.893-1.703-1.893h-188.51c-0.943,0-1.703,0.848-1.703,1.893V77.909z"/>
	<g>
		<path fill="#D3D3D3" stroke="#040000" stroke-miterlimit="10" d="M781.127,69.466c0,4.555,4.029,8.247,9,8.247h133
			c4.971,0,9-3.692,9-8.247v-14.66c0-4.555-4.029-8.246-9-8.246h-133c-4.971,0-9,3.691-9,8.246V69.466z"/>
		<path fill="#040000" d="M910.377,67.285c0,0.505,0.451,0.916,1,0.916h10.5c0.553,0,1-0.411,1-0.916v-9.927
			c0-0.506-0.447-0.917-1-0.917h-10.5c-0.549,0-1,0.411-1,0.917V67.285z"/>
		<path fill="#040000" d="M890.377,67.285c0,0.505,0.451,0.916,1,0.916h10.5c0.553,0,1-0.411,1-0.916v-9.927
			c0-0.506-0.447-0.917-1-0.917h-10.5c-0.549,0-1,0.411-1,0.917V67.285z"/>
		<path fill="#040000" d="M870.377,67.285c0,0.505,0.451,0.916,1,0.916h10.5c0.553,0,1-0.411,1-0.916v-9.927
			c0-0.506-0.447-0.917-1-0.917h-10.5c-0.549,0-1,0.411-1,0.917V67.285z"/>
		<path fill="#040000" d="M850.559,67.285c0,0.505,0.449,0.916,1,0.916h10.5c0.553,0,1-0.411,1-0.916v-9.927
			c0-0.506-0.447-0.917-1-0.917h-10.5c-0.551,0-1,0.411-1,0.917V67.285z"/>
		<path fill="#040000" d="M830.377,67.285c0,0.505,0.451,0.916,1,0.916h10.5c0.553,0,1-0.411,1-0.916v-9.927
			c0-0.506-0.447-0.917-1-0.917h-10.5c-0.549,0-1,0.411-1,0.917V67.285z"/>
		<path fill="#040000" d="M810.377,67.285c0,0.505,0.451,0.916,1,0.916h10.5c0.553,0,1-0.411,1-0.916v-9.927
			c0-0.506-0.447-0.917-1-0.917h-10.5c-0.549,0-1,0.411-1,0.917V67.285z"/>
		<path fill="#040000" d="M790.377,67.285c0,0.505,0.451,0.916,1,0.916h10.5c0.553,0,1-0.411,1-0.916v-9.927
			c0-0.506-0.447-0.917-1-0.917h-10.5c-0.549,0-1,0.411-1,0.917V67.285z"/>
	</g>
	<path fill="#050101" d="M940.041,57.528c0,1.214,0.982,2.196,2.195,2.196h8.775c1.211,0,2.193-0.982,2.193-2.196v-8.774
		c0-1.214-0.982-2.194-2.193-2.194h-8.775c-1.213,0-2.195,0.98-2.195,2.194V57.528z"/>
	<path fill="#050101" d="M940.041,75.793c0,1.214,0.982,2.196,2.195,2.196h8.775c1.211,0,2.193-0.982,2.193-2.196v-8.774
		c0-1.214-0.982-2.194-2.193-2.194h-8.775c-1.213,0-2.195,0.98-2.195,2.194V75.793z"/>
</g>
<g>
	<path fill="#A2A3A5" stroke="#373838" stroke-miterlimit="10" d="M767.135,138.303c0,1.045,0.76,1.893,1.703,1.893h188.51
		c0.939,0,1.703-0.848,1.703-1.893v-31.544c0-1.045-0.764-1.893-1.703-1.893h-188.51c-0.943,0-1.703,0.848-1.703,1.893V138.303z"/>
	<g>
		<path fill="#D3D3D3" stroke="#040000" stroke-miterlimit="10" d="M781.127,129.859c0,4.555,4.029,8.248,9,8.248h133
			c4.971,0,9-3.693,9-8.248v-14.659c0-4.555-4.029-8.247-9-8.247h-133c-4.971,0-9,3.692-9,8.247V129.859z"/>
		<path fill="#040000" d="M910.377,127.68c0,0.504,0.451,0.916,1,0.916h10.5c0.553,0,1-0.412,1-0.916v-9.926
			c0-0.506-0.447-0.916-1-0.916h-10.5c-0.549,0-1,0.41-1,0.916V127.68z"/>
		<path fill="#040000" d="M890.377,127.68c0,0.504,0.451,0.916,1,0.916h10.5c0.553,0,1-0.412,1-0.916v-9.926
			c0-0.506-0.447-0.916-1-0.916h-10.5c-0.549,0-1,0.41-1,0.916V127.68z"/>
		<path fill="#040000" d="M870.377,127.68c0,0.504,0.451,0.916,1,0.916h10.5c0.553,0,1-0.412,1-0.916v-9.926
			c0-0.506-0.447-0.916-1-0.916h-10.5c-0.549,0-1,0.41-1,0.916V127.68z"/>
		<path fill="#040000" d="M850.559,127.68c0,0.504,0.449,0.916,1,0.916h10.5c0.553,0,1-0.412,1-0.916v-9.926
			c0-0.506-0.447-0.916-1-0.916h-10.5c-0.551,0-1,0.41-1,0.916V127.68z"/>
		<path fill="#040000" d="M830.377,127.68c0,0.504,0.451,0.916,1,0.916h10.5c0.553,0,1-0.412,1-0.916v-9.926
			c0-0.506-0.447-0.916-1-0.916h-10.5c-0.549,0-1,0.41-1,0.916V127.68z"/>
		<path fill="#040000" d="M810.377,127.68c0,0.504,0.451,0.916,1,0.916h10.5c0.553,0,1-0.412,1-0.916v-9.926
			c0-0.506-0.447-0.916-1-0.916h-10.5c-0.549,0-1,0.41-1,0.916V127.68z"/>
		<path fill="#040000" d="M790.377,127.68c0,0.504,0.451,0.916,1,0.916h10.5c0.553,0,1-0.412,1-0.916v-9.926
			c0-0.506-0.447-0.916-1-0.916h-10.5c-0.549,0-1,0.41-1,0.916V127.68z"/>
	</g>
	<path fill="#050101" d="M940.041,117.923c0,1.213,0.982,2.195,2.195,2.195h8.775c1.211,0,2.193-0.982,2.193-2.195v-8.775
		c0-1.214-0.982-2.194-2.193-2.194h-8.775c-1.213,0-2.195,0.98-2.195,2.194V117.923z"/>
	<path fill="#050101" d="M940.041,136.188c0,1.213,0.982,2.195,2.195,2.195h8.775c1.211,0,2.193-0.982,2.193-2.195v-8.775
		c0-1.213-0.982-2.194-2.193-2.194h-8.775c-1.213,0-2.195,0.98-2.195,2.194V136.188z"/>
</g>
<path fill="#A2A3A5" stroke="#373838" stroke-miterlimit="10" d="M387.358,65.183c0,1.045,0.783,1.893,1.752,1.893h305.194
	c0.967,0,1.752-0.848,1.752-1.893V33.638c0-1.045-0.785-1.893-1.752-1.893H389.11c-0.969,0-1.752,0.848-1.752,1.893V65.183z"/>
<path fill="#D3D3D3" stroke="#040000" stroke-miterlimit="10" d="M422.785,56.555c0,4.555,4.029,8.247,9,8.247h235.799
	c4.971,0,9-3.692,9-8.247v-14.66c0-4.555-4.029-8.246-9-8.246H431.785c-4.971,0-9,3.691-9,8.246V56.555z"/>
<path fill="#040000" d="M653.668,54.374c0,0.505,0.449,0.916,1,0.916h10.5c0.551,0,1-0.411,1-0.916v-9.927
	c0-0.506-0.449-0.917-1-0.917h-10.5c-0.551,0-1,0.411-1,0.917V54.374z"/>
<path fill="#040000" d="M633.667,54.374c0,0.505,0.45,0.916,1,0.916h10.501c0.551,0,1-0.411,1-0.916v-9.927
	c0-0.506-0.449-0.917-1-0.917h-10.501c-0.55,0-1,0.411-1,0.917V54.374z"/>
<path fill="#040000" d="M613.667,54.374c0,0.505,0.45,0.916,1,0.916h10.5c0.552,0,1-0.411,1-0.916v-9.927
	c0-0.506-0.448-0.917-1-0.917h-10.5c-0.55,0-1,0.411-1,0.917V54.374z"/>
<path fill="#040000" d="M593.848,54.374c0,0.505,0.449,0.916,1,0.916h10.5c0.552,0,1-0.411,1-0.916v-9.927
	c0-0.506-0.448-0.917-1-0.917h-10.5c-0.551,0-1,0.411-1,0.917V54.374z"/>
<path fill="#040000" d="M573.667,54.374c0,0.505,0.45,0.916,1,0.916h10.5c0.552,0,1-0.411,1-0.916v-9.927
	c0-0.506-0.448-0.917-1-0.917h-10.5c-0.55,0-1,0.411-1,0.917V54.374z"/>
<path fill="#040000" d="M553.667,54.374c0,0.505,0.45,0.916,1,0.916h10.5c0.552,0,1-0.411,1-0.916v-9.927
	c0-0.506-0.448-0.917-1-0.917h-10.5c-0.55,0-1,0.411-1,0.917V54.374z"/>
<path fill="#040000" d="M533.501,54.374c0,0.505,0.449,0.916,1,0.916h10.5c0.552,0,1-0.411,1-0.916v-9.927
	c0-0.506-0.448-0.917-1-0.917h-10.5c-0.551,0-1,0.411-1,0.917V54.374z"/>
<path fill="#040000" d="M513.501,54.374c0,0.505,0.449,0.916,1,0.916h10.5c0.552,0,1-0.411,1-0.916v-9.927
	c0-0.506-0.448-0.917-1-0.917h-10.5c-0.551,0-1,0.411-1,0.917V54.374z"/>
<path fill="#040000" d="M493.501,54.374c0,0.505,0.449,0.916,1,0.916h10.5c0.552,0,1-0.411,1-0.916v-9.927
	c0-0.506-0.448-0.917-1-0.917h-10.5c-0.551,0-1,0.411-1,0.917V54.374z"/>
<path fill="#040000" d="M473.682,54.374c0,0.505,0.449,0.916,1,0.916h10.5c0.552,0,1-0.411,1-0.916v-9.927
	c0-0.506-0.448-0.917-1-0.917h-10.5c-0.551,0-1,0.411-1,0.917V54.374z"/>
<path fill="#040000" d="M453.501,54.374c0,0.505,0.449,0.916,1,0.916h10.5c0.552,0,1-0.411,1-0.916v-9.927
	c0-0.506-0.448-0.917-1-0.917h-10.5c-0.551,0-1,0.411-1,0.917V54.374z"/>
<path fill="#040000" d="M433.501,54.374c0,0.505,0.449,0.916,1,0.916h10.5c0.552,0,1-0.411,1-0.916v-9.927
	c0-0.506-0.448-0.917-1-0.917h-10.5c-0.551,0-1,0.411-1,0.917V54.374z"/>
<path fill="#040000" d="M404.627,45.616c0,0.505,0.448,0.916,1,0.916h10.5c0.553,0,1-0.411,1-0.916v-9.927
	c0-0.506-0.447-0.917-1-0.917h-10.5c-0.552,0-1,0.411-1,0.917V45.616z"/>
<path fill="#040000" d="M404.627,62.95c0,0.505,0.448,0.916,1,0.916h10.5c0.553,0,1-0.411,1-0.916v-9.927
	c0-0.506-0.447-0.917-1-0.917h-10.5c-0.552,0-1,0.411-1,0.917V62.95z"/>
<path fill="#707070" stroke="#373838" stroke-miterlimit="10" d="M695.523,115.468c0,1.045-0.76,1.893-1.703,1.893H505.31
	c-0.939,0-1.703-0.848-1.703-1.893V83.923c0-1.045,0.764-1.893,1.703-1.893H693.82c0.943,0,1.703,0.848,1.703,1.893V115.468z"/>
<path fill="#9B9B9B" stroke="#373838" stroke-miterlimit="10" d="M382.213,125.718c0,1.198-0.896,2.168-2,2.168h-32.258
	c-1.104,0-2-0.97-2-2.168V17.616c0-1.198,0.896-2.17,2-2.17h32.258c1.104,0,2,0.972,2,2.17V125.718z"/>
<path fill="#9B9B9B" stroke="#373838" stroke-miterlimit="10" d="M990.471,144.514c0,1.402-0.732,2.539-1.635,2.539h-26.344
	c-0.9,0-1.633-1.137-1.633-2.539V17.986c0-1.403,0.732-2.54,1.633-2.54h26.344c0.902,0,1.635,1.137,1.635,2.54V144.514z"/>
<circle fill="#040000" cx="364.083" cy="25.834" r="6.558"/>
<path fill="#040000" d="M357.834,50.139c0,0.505,0.449,0.916,1,0.916h10.5c0.553,0,1-0.411,1-0.916v-9.927
	c0-0.506-0.447-0.917-1-0.917h-10.5c-0.551,0-1,0.411-1,0.917V50.139z"/>
<path fill="#040000" d="M357.834,66.645c0,0.505,0.449,0.916,1,0.916h10.5c0.553,0,1-0.411,1-0.916v-9.927
	c0-0.506-0.447-0.917-1-0.917h-10.5c-0.551,0-1,0.411-1,0.917V66.645z"/>
<path fill="#040000" d="M357.834,83.15c0,0.505,0.449,0.916,1,0.916h10.5c0.553,0,1-0.411,1-0.916v-9.927
	c0-0.506-0.447-0.917-1-0.917h-10.5c-0.551,0-1,0.411-1,0.917V83.15z"/>
<path fill="#040000" d="M357.834,99.656c0,0.505,0.449,0.916,1,0.916h10.5c0.553,0,1-0.411,1-0.916v-9.927
	c0-0.506-0.447-0.917-1-0.917h-10.5c-0.551,0-1,0.411-1,0.917V99.656z"/>
<path fill="#040000" d="M357.834,116.162c0,0.506,0.449,0.916,1,0.916h10.5c0.553,0,1-0.41,1-0.916v-9.926
	c0-0.506-0.447-0.917-1-0.917h-10.5c-0.551,0-1,0.411-1,0.917V116.162z"/>
<g>
	<rect x="745.33" y="34.585" fill="#040000" width="18.432" height="50.28"/>
	<rect x="752.596" y="34.585" fill="#757575" width="3.9" height="50.28"/>
	<polygon fill="#919191" points="763.164,38.653 760.875,41.343 745.33,41.343 745.33,77.882 760.35,77.882 763.164,80.796 	"/>
</g>
<g>
	<rect x="745.33" y="103.455" fill="#040000" width="18.432" height="50.279"/>
	<rect x="752.596" y="103.455" fill="#757575" width="3.9" height="50.279"/>
	<polygon fill="#919191" points="763.164,107.523 760.875,110.213 745.33,110.213 745.33,146.752 760.35,146.752 763.164,149.666 	
		"/>
</g>
<g>
	<rect x="698.385" y="74.556" fill="#040000" width="18.432" height="50.282"/>
	<rect x="705.65" y="74.556" fill="#757575" width="3.9" height="50.282"/>
	<polygon fill="#919191" points="716.219,78.624 713.93,81.313 698.385,81.313 698.385,117.853 713.404,117.853 716.219,120.767 	
		"/>
</g>
<path fill="#A2A3A5" stroke="#0A090A" stroke-miterlimit="10" d="M739.842,65.655c0-1.943-0.973-3.517-2.172-3.517h-0.891
	c-1.199,0-2.172,1.573-2.172,3.517v81.667h-28.803c-1.199,0-2.172,0.973-2.172,2.172v1.242c0,1.199,0.973,2.172,2.172,2.172h30.975
	h0.891c1.199,0,2.172-0.973,2.172-2.172v-1.242c0-0.012-0.002-0.025-0.002-0.039c0-0.021,0.002-0.041,0.002-0.064V65.655z"/>
<path fill="#424C85" stroke="#131313" stroke-width="0.5" stroke-miterlimit="10" d="M985.941,44.521h-19.914V31.199
	c0-0.933-0.758-1.688-1.689-1.688s-1.686,0.755-1.686,1.688v15.095c-0.145,0.375-0.229,0.789-0.229,1.228v8.004
	c0,1.657,1.139,3,2.541,3h20.977c1.404,0,2.545-1.343,2.545-3v-8.004C988.486,45.864,987.346,44.521,985.941,44.521z"/>
<rect x="969.609" y="58.263" fill="#131313" width="12.25" height="80.972"/>
<rect x="970.111" y="58.173" fill="#424C85" width="11.291" height="80.21"/>
<rect x="970.111" y="63.626" fill="#546298" width="11.291" height="31.423"/>
</svg>
