<?xml version="1.0" encoding="utf-8"?>
<!-- Generator: Adobe Illustrator 16.0.0, SVG Export Plug-In . SVG Version: 6.00 Build 0)  -->
<!DOCTYPE svg PUBLIC "-//W3C//DTD SVG 1.1//EN" "http://www.w3.org/Graphics/SVG/1.1/DTD/svg11.dtd">
<svg version="1.1" id="图层_1" xmlns="http://www.w3.org/2000/svg" xmlns:xlink="http://www.w3.org/1999/xlink" x="0px" y="0px"
	 width="1275.59px" height="126.14px" viewBox="0 0 1275.59 126.14" enable-background="new 0 0 1275.59 126.14"
	 xml:space="preserve">
<rect x="-0.002" fill="#040000" width="1275.592" height="126.141"/>
<polygon fill="#E2E4E9" points="685.456,116.709 685.456,110.459 681.206,110.459 681.206,103.375 684.873,103.375 684.873,95.791 
	681.206,95.791 681.206,88.875 684.873,88.875 684.873,81.291 681.206,81.291 681.206,73.791 684.873,73.791 684.873,66.209 
	681.123,66.209 681.123,69.709 680.289,69.707 680.289,66.209 669.289,66.209 669.289,69.676 661.789,69.652 661.789,66.209 
	650.789,66.209 650.789,69.621 644.539,69.604 644.539,66.209 633.539,66.209 633.539,69.57 626.039,69.549 626.039,66.209 
	615.039,66.209 615.039,69.518 609.289,69.5 609.289,66.209 598.289,66.209 598.289,69.469 590.789,69.445 590.789,66.209 
	579.789,66.209 579.789,69.414 574.039,69.396 574.039,66.209 563.039,66.209 563.039,69.365 555.539,69.344 555.539,66.209 
	544.539,66.209 544.539,69.311 538.789,69.295 538.789,66.209 527.789,66.209 527.789,69.262 520.289,69.24 520.289,66.209 
	509.289,66.209 509.289,69.209 503.539,69.191 503.539,66.209 492.539,66.209 492.539,69.16 485.039,69.137 485.039,66.209 
	474.039,66.209 474.039,69.105 468.289,69.088 468.289,66.209 457.289,66.209 457.289,69.057 449.789,69.035 449.789,66.209 
	453.164,66.209 453.164,52.959 308.956,52.959 446.082,52.959 446.062,20.209 95.456,20.209 95.456,62.906 75.707,62.906 
	75.707,92.709 134.456,92.709 135.331,92.709 342.456,92.709 342.456,121.709 694.706,121.709 694.706,116.709 "/>
<rect x="23.539" y="92.709" fill="#393A3A" width="318.917" height="23.92"/>
<rect x="162.808" y="93.92" fill="#75AFC2" width="80.5" height="21.5"/>
<rect x="243.308" y="93.92" fill="#4978AC" width="78" height="21.5"/>
<polygon fill="#888889" points="-0.002,0 -0.002,126.141 26.899,126.141 26.899,124.172 1.995,124.172 1.995,1.969 1273.594,1.969 
	1273.594,124.172 341.883,124.172 341.883,126.141 1275.59,126.141 1275.59,0 "/>
<polygon fill="#D3D7D9" points="-0.002,67.15 -0.002,37.818 4.664,37.818 4.664,3.484 12.331,3.484 12.331,67.15 "/>
<polygon fill="#E2E4E9" points="727.956,59.724 727.956,61.056 725.956,61.056 725.956,64.391 717.186,64.391 717.186,60.724 
	714.457,60.724 714.457,58.891 711.514,58.891 711.514,63.724 701.123,63.724 701.123,50.13 707.123,50.13 707.123,28.224 
	700.623,28.224 700.623,13.859 697.623,13.859 697.623,16.058 683.123,16.058 683.123,20.391 697.623,20.391 697.623,31.224 
	683.123,31.224 683.123,35.557 697.623,35.557 697.623,45.226 683.123,45.226 683.123,49.559 697.623,49.559 697.623,60.392 
	683.123,60.392 683.123,64.725 697.623,64.725 697.623,75.393 683.123,75.393 683.123,79.725 697.623,79.725 697.623,90.559 
	683.123,90.559 683.123,94.891 697.623,94.891 697.623,104.725 683.123,104.725 683.123,109.059 697.623,109.059 697.623,124.225 
	700.456,124.225 700.456,116.598 701.873,116.598 701.873,114.598 710.998,114.598 710.998,116.535 712.873,116.535 
	712.873,124.225 714.686,124.225 714.686,116.348 716.623,116.348 716.623,114.41 725.936,114.41 725.936,116.41 727.748,116.41 
	727.748,124.225 733.873,124.225 733.873,121.598 735.373,121.598 735.373,119.223 736.748,119.223 736.748,59.724 "/>
<polygon fill="#E2E4E9" points="701.998,62.746 701.998,51.245 708.498,51.245 708.498,27.745 701.998,27.745 701.998,15.745 
	701.998,13.245 695.998,13.245 695.998,8.785 489.498,8.785 489.498,0.245 474.498,0.245 474.498,8.785 88.998,8.785 88.998,0.245 
	730.165,0.245 730.165,4.245 736.498,4.245 736.498,59.255 735.082,59.255 735.082,57.505 725.915,57.505 725.915,59.75 
	724.165,59.75 724.165,62.906 718.415,62.906 718.415,59.75 716.582,59.75 716.582,57.505 711.082,57.505 711.082,59.088 
	710.415,59.088 710.415,62.746 "/>
<g>
	<path fill="#839BCC" d="M446.072,9.36v13.5h8.775v28.25c0,0,1.463,6.25,7.021,8h13.457c0,0,11.701-2.875,12.287-13.625V9.36
		H446.072z"/>
	<path fill="#040000" d="M474.156,47.923c0,3.279-3.111,5.938-6.947,5.938l0,0c-3.838,0-6.949-2.658-6.949-5.938V29.798
		c0-3.279,3.111-5.938,6.949-5.938l0,0c3.836,0,6.947,2.658,6.947,5.938V47.923z"/>
	<rect x="459.335" y="14.277" fill="#040000" width="14.821" height="4"/>
</g>
<rect x="42.216" y="10.547" fill="#E2E4E9" width="69.115" height="6.625"/>
<rect x="268.997" y="10.547" fill="#E2E4E9" width="176.711" height="6.625"/>
<rect x="113.163" y="10.547" fill="#E2E4E9" width="154.043" height="6.625"/>
<rect x="15.249" fill="#E2E4E9" width="67.874" height="9.167"/>
<polygon fill="#E2E4E9" points="2.539,67.859 2.539,122.834 26.872,122.834 26.872,116.629 23.539,116.629 23.539,100.002 
	39.205,100.002 39.205,96.834 76.539,96.834 76.539,67.859 59.872,67.859 59.872,75.359 45.122,75.359 45.122,67.859 23.372,67.859 
	23.372,75.359 10.372,75.359 10.372,67.859 "/>
<path fill="#040000" d="M22.499,115.629c0,0.553-0.448,1-1,1H10.665c-0.552,0-1-0.447-1-1v-8.166c0-0.553,0.448-1,1-1h10.834
	c0.552,0,1,0.447,1,1V115.629z"/>
<circle fill="#E2E4E9" cx="33.832" cy="94.971" r="12.333"/>
<circle fill="#3B58A6" cx="33.998" cy="95.346" r="10.333"/>
<circle fill="#E2E4E9" cx="62.499" cy="94.971" r="12.333"/>
<circle fill="#101010" cx="62.499" cy="96.512" r="9.167"/>
<path fill="#101010" d="M18.331,95.512c0,0.553-0.448,1-1,1h-2.249c-0.553,0-1-0.447-1-1v-2.527c0-0.553,0.447-1,1-1h2.249
	c0.552,0,1,0.447,1,1V95.512z"/>
<rect x="26.872" y="116.629" fill="#BBBABA" width="315.584" height="1.898"/>
<linearGradient id="SVGID_1_" gradientUnits="userSpaceOnUse" x1="44.1436" y1="116.6641" x2="44.1436" y2="124.5155">
	<stop  offset="0" style="stop-color:#C0C4C6"/>
	<stop  offset="0.1379" style="stop-color:#C2C4C8"/>
	<stop  offset="0.7832" style="stop-color:#8F9296"/>
	<stop  offset="1" style="stop-color:#333A39"/>
</linearGradient>
<path fill="url(#SVGID_1_)" d="M46.07,124.344c0,0.439-0.376,0.797-0.841,0.797h-2.172c-0.464,0-0.841-0.357-0.841-0.797v-6.77
	c0-0.439,0.377-0.797,0.841-0.797h2.172c0.465,0,0.841,0.357,0.841,0.797V124.344z"/>
<linearGradient id="SVGID_2_" gradientUnits="userSpaceOnUse" x1="61.3096" y1="116.6641" x2="61.3096" y2="124.5155">
	<stop  offset="0" style="stop-color:#C0C4C6"/>
	<stop  offset="0.1379" style="stop-color:#C2C4C8"/>
	<stop  offset="0.7832" style="stop-color:#8F9296"/>
	<stop  offset="1" style="stop-color:#333A39"/>
</linearGradient>
<path fill="url(#SVGID_2_)" d="M63.236,124.344c0,0.439-0.376,0.797-0.841,0.797h-2.172c-0.464,0-0.841-0.357-0.841-0.797v-6.77
	c0-0.439,0.377-0.797,0.841-0.797h2.172c0.465,0,0.841,0.357,0.841,0.797V124.344z"/>
<linearGradient id="SVGID_3_" gradientUnits="userSpaceOnUse" x1="78.8936" y1="116.6641" x2="78.8936" y2="124.5155">
	<stop  offset="0" style="stop-color:#C0C4C6"/>
	<stop  offset="0.1379" style="stop-color:#C2C4C8"/>
	<stop  offset="0.7832" style="stop-color:#8F9296"/>
	<stop  offset="1" style="stop-color:#333A39"/>
</linearGradient>
<path fill="url(#SVGID_3_)" d="M80.82,124.344c0,0.439-0.376,0.797-0.841,0.797h-2.172c-0.464,0-0.841-0.357-0.841-0.797v-6.77
	c0-0.439,0.377-0.797,0.841-0.797h2.172c0.465,0,0.841,0.357,0.841,0.797V124.344z"/>
<linearGradient id="SVGID_4_" gradientUnits="userSpaceOnUse" x1="96.0596" y1="116.6641" x2="96.0596" y2="124.5155">
	<stop  offset="0" style="stop-color:#C0C4C6"/>
	<stop  offset="0.1379" style="stop-color:#C2C4C8"/>
	<stop  offset="0.7832" style="stop-color:#8F9296"/>
	<stop  offset="1" style="stop-color:#333A39"/>
</linearGradient>
<path fill="url(#SVGID_4_)" d="M97.986,124.344c0,0.439-0.376,0.797-0.841,0.797h-2.172c-0.464,0-0.841-0.357-0.841-0.797v-6.77
	c0-0.439,0.377-0.797,0.841-0.797h2.172c0.465,0,0.841,0.357,0.841,0.797V124.344z"/>
<linearGradient id="SVGID_5_" gradientUnits="userSpaceOnUse" x1="114.8418" y1="116.6641" x2="114.8418" y2="124.5155">
	<stop  offset="0" style="stop-color:#C0C4C6"/>
	<stop  offset="0.1379" style="stop-color:#C2C4C8"/>
	<stop  offset="0.7832" style="stop-color:#8F9296"/>
	<stop  offset="1" style="stop-color:#333A39"/>
</linearGradient>
<path fill="url(#SVGID_5_)" d="M116.769,124.344c0,0.439-0.376,0.797-0.841,0.797h-2.172c-0.464,0-0.841-0.357-0.841-0.797v-6.77
	c0-0.439,0.377-0.797,0.841-0.797h2.172c0.465,0,0.841,0.357,0.841,0.797V124.344z"/>
<linearGradient id="SVGID_6_" gradientUnits="userSpaceOnUse" x1="132.0078" y1="116.6641" x2="132.0078" y2="124.5155">
	<stop  offset="0" style="stop-color:#C0C4C6"/>
	<stop  offset="0.1379" style="stop-color:#C2C4C8"/>
	<stop  offset="0.7832" style="stop-color:#8F9296"/>
	<stop  offset="1" style="stop-color:#333A39"/>
</linearGradient>
<path fill="url(#SVGID_6_)" d="M133.935,124.344c0,0.439-0.376,0.797-0.841,0.797h-2.172c-0.464,0-0.841-0.357-0.841-0.797v-6.77
	c0-0.439,0.377-0.797,0.841-0.797h2.172c0.465,0,0.841,0.357,0.841,0.797V124.344z"/>
<linearGradient id="SVGID_7_" gradientUnits="userSpaceOnUse" x1="149.0918" y1="116.6641" x2="149.0918" y2="124.5155">
	<stop  offset="0" style="stop-color:#C0C4C6"/>
	<stop  offset="0.1379" style="stop-color:#C2C4C8"/>
	<stop  offset="0.7832" style="stop-color:#8F9296"/>
	<stop  offset="1" style="stop-color:#333A39"/>
</linearGradient>
<path fill="url(#SVGID_7_)" d="M151.019,124.344c0,0.439-0.376,0.797-0.841,0.797h-2.172c-0.464,0-0.841-0.357-0.841-0.797v-6.77
	c0-0.439,0.377-0.797,0.841-0.797h2.172c0.465,0,0.841,0.357,0.841,0.797V124.344z"/>
<linearGradient id="SVGID_8_" gradientUnits="userSpaceOnUse" x1="166.2578" y1="116.6641" x2="166.2578" y2="124.5155">
	<stop  offset="0" style="stop-color:#C0C4C6"/>
	<stop  offset="0.1379" style="stop-color:#C2C4C8"/>
	<stop  offset="0.7832" style="stop-color:#8F9296"/>
	<stop  offset="1" style="stop-color:#333A39"/>
</linearGradient>
<path fill="url(#SVGID_8_)" d="M168.185,124.344c0,0.439-0.376,0.797-0.841,0.797h-2.172c-0.464,0-0.841-0.357-0.841-0.797v-6.77
	c0-0.439,0.377-0.797,0.841-0.797h2.172c0.465,0,0.841,0.357,0.841,0.797V124.344z"/>
<linearGradient id="SVGID_9_" gradientUnits="userSpaceOnUse" x1="185.04" y1="116.6641" x2="185.04" y2="124.5155">
	<stop  offset="0" style="stop-color:#C0C4C6"/>
	<stop  offset="0.1379" style="stop-color:#C2C4C8"/>
	<stop  offset="0.7832" style="stop-color:#8F9296"/>
	<stop  offset="1" style="stop-color:#333A39"/>
</linearGradient>
<path fill="url(#SVGID_9_)" d="M186.967,124.344c0,0.439-0.376,0.797-0.841,0.797h-2.172c-0.464,0-0.841-0.357-0.841-0.797v-6.77
	c0-0.439,0.377-0.797,0.841-0.797h2.172c0.465,0,0.841,0.357,0.841,0.797V124.344z"/>
<linearGradient id="SVGID_10_" gradientUnits="userSpaceOnUse" x1="202.2061" y1="116.6641" x2="202.2061" y2="124.5155">
	<stop  offset="0" style="stop-color:#C0C4C6"/>
	<stop  offset="0.1379" style="stop-color:#C2C4C8"/>
	<stop  offset="0.7832" style="stop-color:#8F9296"/>
	<stop  offset="1" style="stop-color:#333A39"/>
</linearGradient>
<path fill="url(#SVGID_10_)" d="M204.133,124.344c0,0.439-0.376,0.797-0.841,0.797h-2.172c-0.464,0-0.841-0.357-0.841-0.797v-6.77
	c0-0.439,0.377-0.797,0.841-0.797h2.172c0.465,0,0.841,0.357,0.841,0.797V124.344z"/>
<linearGradient id="SVGID_11_" gradientUnits="userSpaceOnUse" x1="220.3418" y1="116.6641" x2="220.3418" y2="124.5155">
	<stop  offset="0" style="stop-color:#C0C4C6"/>
	<stop  offset="0.1379" style="stop-color:#C2C4C8"/>
	<stop  offset="0.7832" style="stop-color:#8F9296"/>
	<stop  offset="1" style="stop-color:#333A39"/>
</linearGradient>
<path fill="url(#SVGID_11_)" d="M222.269,124.344c0,0.439-0.376,0.797-0.841,0.797h-2.172c-0.464,0-0.841-0.357-0.841-0.797v-6.77
	c0-0.439,0.377-0.797,0.841-0.797h2.172c0.465,0,0.841,0.357,0.841,0.797V124.344z"/>
<linearGradient id="SVGID_12_" gradientUnits="userSpaceOnUse" x1="237.5078" y1="116.6641" x2="237.5078" y2="124.5155">
	<stop  offset="0" style="stop-color:#C0C4C6"/>
	<stop  offset="0.1379" style="stop-color:#C2C4C8"/>
	<stop  offset="0.7832" style="stop-color:#8F9296"/>
	<stop  offset="1" style="stop-color:#333A39"/>
</linearGradient>
<path fill="url(#SVGID_12_)" d="M239.435,124.344c0,0.439-0.376,0.797-0.841,0.797h-2.172c-0.464,0-0.841-0.357-0.841-0.797v-6.77
	c0-0.439,0.377-0.797,0.841-0.797h2.172c0.465,0,0.841,0.357,0.841,0.797V124.344z"/>
<linearGradient id="SVGID_13_" gradientUnits="userSpaceOnUse" x1="256.29" y1="116.6641" x2="256.29" y2="124.5155">
	<stop  offset="0" style="stop-color:#C0C4C6"/>
	<stop  offset="0.1379" style="stop-color:#C2C4C8"/>
	<stop  offset="0.7832" style="stop-color:#8F9296"/>
	<stop  offset="1" style="stop-color:#333A39"/>
</linearGradient>
<path fill="url(#SVGID_13_)" d="M258.217,124.344c0,0.439-0.376,0.797-0.841,0.797h-2.172c-0.464,0-0.841-0.357-0.841-0.797v-6.77
	c0-0.439,0.377-0.797,0.841-0.797h2.172c0.465,0,0.841,0.357,0.841,0.797V124.344z"/>
<linearGradient id="SVGID_14_" gradientUnits="userSpaceOnUse" x1="273.4561" y1="116.6641" x2="273.4561" y2="124.5155">
	<stop  offset="0" style="stop-color:#C0C4C6"/>
	<stop  offset="0.1379" style="stop-color:#C2C4C8"/>
	<stop  offset="0.7832" style="stop-color:#8F9296"/>
	<stop  offset="1" style="stop-color:#333A39"/>
</linearGradient>
<path fill="url(#SVGID_14_)" d="M275.383,124.344c0,0.439-0.376,0.797-0.841,0.797h-2.172c-0.464,0-0.841-0.357-0.841-0.797v-6.77
	c0-0.439,0.377-0.797,0.841-0.797h2.172c0.465,0,0.841,0.357,0.841,0.797V124.344z"/>
<linearGradient id="SVGID_15_" gradientUnits="userSpaceOnUse" x1="291.3418" y1="116.6641" x2="291.3418" y2="124.5155">
	<stop  offset="0" style="stop-color:#C0C4C6"/>
	<stop  offset="0.1379" style="stop-color:#C2C4C8"/>
	<stop  offset="0.7832" style="stop-color:#8F9296"/>
	<stop  offset="1" style="stop-color:#333A39"/>
</linearGradient>
<path fill="url(#SVGID_15_)" d="M293.269,124.344c0,0.439-0.376,0.797-0.841,0.797h-2.172c-0.464,0-0.841-0.357-0.841-0.797v-6.77
	c0-0.439,0.377-0.797,0.841-0.797h2.172c0.465,0,0.841,0.357,0.841,0.797V124.344z"/>
<linearGradient id="SVGID_16_" gradientUnits="userSpaceOnUse" x1="308.5078" y1="116.6641" x2="308.5078" y2="124.5155">
	<stop  offset="0" style="stop-color:#C0C4C6"/>
	<stop  offset="0.1379" style="stop-color:#C2C4C8"/>
	<stop  offset="0.7832" style="stop-color:#8F9296"/>
	<stop  offset="1" style="stop-color:#333A39"/>
</linearGradient>
<path fill="url(#SVGID_16_)" d="M310.435,124.344c0,0.439-0.376,0.797-0.841,0.797h-2.172c-0.464,0-0.841-0.357-0.841-0.797v-6.77
	c0-0.439,0.377-0.797,0.841-0.797h2.172c0.465,0,0.841,0.357,0.841,0.797V124.344z"/>
<linearGradient id="SVGID_17_" gradientUnits="userSpaceOnUse" x1="327.29" y1="116.6641" x2="327.29" y2="124.5155">
	<stop  offset="0" style="stop-color:#C0C4C6"/>
	<stop  offset="0.1379" style="stop-color:#C2C4C8"/>
	<stop  offset="0.7832" style="stop-color:#8F9296"/>
	<stop  offset="1" style="stop-color:#333A39"/>
</linearGradient>
<path fill="url(#SVGID_17_)" d="M329.217,124.344c0,0.439-0.376,0.797-0.841,0.797h-2.172c-0.464,0-0.841-0.357-0.841-0.797v-6.77
	c0-0.439,0.377-0.797,0.841-0.797h2.172c0.465,0,0.841,0.357,0.841,0.797V124.344z"/>
<linearGradient id="SVGID_18_" gradientUnits="userSpaceOnUse" x1="34.3428" y1="120.2402" x2="34.3428" y2="125.4099">
	<stop  offset="0" style="stop-color:#C0C4C6"/>
	<stop  offset="0.1379" style="stop-color:#E3E5E8"/>
	<stop  offset="0.8714" style="stop-color:#8F9296"/>
	<stop  offset="1" style="stop-color:#3D383D"/>
</linearGradient>
<rect x="27.968" y="120.115" fill="url(#SVGID_18_)" width="12.75" height="5.438"/>
<linearGradient id="SVGID_19_" gradientUnits="userSpaceOnUse" x1="52.7744" y1="120.084" x2="52.7744" y2="125.2537">
	<stop  offset="0" style="stop-color:#C0C4C6"/>
	<stop  offset="0.1379" style="stop-color:#E3E5E8"/>
	<stop  offset="0.8714" style="stop-color:#8F9296"/>
	<stop  offset="1" style="stop-color:#3D383D"/>
</linearGradient>
<rect x="46.707" y="119.959" fill="url(#SVGID_19_)" width="12.135" height="5.438"/>
<linearGradient id="SVGID_20_" gradientUnits="userSpaceOnUse" x1="70.1074" y1="120.084" x2="70.1074" y2="125.2537">
	<stop  offset="0" style="stop-color:#C0C4C6"/>
	<stop  offset="0.1379" style="stop-color:#E3E5E8"/>
	<stop  offset="0.8714" style="stop-color:#8F9296"/>
	<stop  offset="1" style="stop-color:#3D383D"/>
</linearGradient>
<rect x="64.04" y="119.959" fill="url(#SVGID_20_)" width="12.135" height="5.438"/>
<linearGradient id="SVGID_21_" gradientUnits="userSpaceOnUse" x1="87.4404" y1="120.084" x2="87.4404" y2="125.2537">
	<stop  offset="0" style="stop-color:#C0C4C6"/>
	<stop  offset="0.1379" style="stop-color:#E3E5E8"/>
	<stop  offset="0.8714" style="stop-color:#8F9296"/>
	<stop  offset="1" style="stop-color:#3D383D"/>
</linearGradient>
<rect x="81.373" y="119.959" fill="url(#SVGID_21_)" width="12.135" height="5.438"/>
<linearGradient id="SVGID_22_" gradientUnits="userSpaceOnUse" x1="105.5186" y1="120.084" x2="105.5186" y2="125.2537">
	<stop  offset="0" style="stop-color:#C0C4C6"/>
	<stop  offset="0.1379" style="stop-color:#E3E5E8"/>
	<stop  offset="0.8714" style="stop-color:#8F9296"/>
	<stop  offset="1" style="stop-color:#3D383D"/>
</linearGradient>
<rect x="99.451" y="119.959" fill="url(#SVGID_22_)" width="12.135" height="5.438"/>
<linearGradient id="SVGID_23_" gradientUnits="userSpaceOnUse" x1="123.4814" y1="120.084" x2="123.4814" y2="125.2537">
	<stop  offset="0" style="stop-color:#C0C4C6"/>
	<stop  offset="0.1379" style="stop-color:#E3E5E8"/>
	<stop  offset="0.8714" style="stop-color:#8F9296"/>
	<stop  offset="1" style="stop-color:#3D383D"/>
</linearGradient>
<rect x="117.414" y="119.959" fill="url(#SVGID_23_)" width="12.135" height="5.438"/>
<linearGradient id="SVGID_24_" gradientUnits="userSpaceOnUse" x1="140.5654" y1="120.084" x2="140.5654" y2="125.2537">
	<stop  offset="0" style="stop-color:#C0C4C6"/>
	<stop  offset="0.1379" style="stop-color:#E3E5E8"/>
	<stop  offset="0.8714" style="stop-color:#8F9296"/>
	<stop  offset="1" style="stop-color:#3D383D"/>
</linearGradient>
<rect x="134.498" y="119.959" fill="url(#SVGID_24_)" width="12.135" height="5.438"/>
<linearGradient id="SVGID_25_" gradientUnits="userSpaceOnUse" x1="157.6064" y1="120.084" x2="157.6064" y2="125.2537">
	<stop  offset="0" style="stop-color:#C0C4C6"/>
	<stop  offset="0.1379" style="stop-color:#E3E5E8"/>
	<stop  offset="0.8714" style="stop-color:#8F9296"/>
	<stop  offset="1" style="stop-color:#3D383D"/>
</linearGradient>
<rect x="151.539" y="119.959" fill="url(#SVGID_25_)" width="12.135" height="5.438"/>
<linearGradient id="SVGID_26_" gradientUnits="userSpaceOnUse" x1="175.5742" y1="120.084" x2="175.5742" y2="125.2537">
	<stop  offset="0" style="stop-color:#C0C4C6"/>
	<stop  offset="0.1379" style="stop-color:#E3E5E8"/>
	<stop  offset="0.8714" style="stop-color:#8F9296"/>
	<stop  offset="1" style="stop-color:#3D383D"/>
</linearGradient>
<rect x="169.507" y="119.959" fill="url(#SVGID_26_)" width="12.135" height="5.438"/>
<linearGradient id="SVGID_27_" gradientUnits="userSpaceOnUse" x1="193.626" y1="120.084" x2="193.626" y2="125.2537">
	<stop  offset="0" style="stop-color:#C0C4C6"/>
	<stop  offset="0.1379" style="stop-color:#E3E5E8"/>
	<stop  offset="0.8714" style="stop-color:#8F9296"/>
	<stop  offset="1" style="stop-color:#3D383D"/>
</linearGradient>
<rect x="187.559" y="119.959" fill="url(#SVGID_27_)" width="12.135" height="5.438"/>
<linearGradient id="SVGID_28_" gradientUnits="userSpaceOnUse" x1="211.2715" y1="120.084" x2="211.2715" y2="125.2537">
	<stop  offset="0" style="stop-color:#C0C4C6"/>
	<stop  offset="0.1379" style="stop-color:#E3E5E8"/>
	<stop  offset="0.8714" style="stop-color:#8F9296"/>
	<stop  offset="1" style="stop-color:#3D383D"/>
</linearGradient>
<rect x="205.204" y="119.959" fill="url(#SVGID_28_)" width="12.135" height="5.438"/>
<linearGradient id="SVGID_29_" gradientUnits="userSpaceOnUse" x1="228.9795" y1="120.084" x2="228.9795" y2="125.2537">
	<stop  offset="0" style="stop-color:#C0C4C6"/>
	<stop  offset="0.1379" style="stop-color:#E3E5E8"/>
	<stop  offset="0.8714" style="stop-color:#8F9296"/>
	<stop  offset="1" style="stop-color:#3D383D"/>
</linearGradient>
<rect x="222.912" y="119.959" fill="url(#SVGID_29_)" width="12.135" height="5.438"/>
<linearGradient id="SVGID_30_" gradientUnits="userSpaceOnUse" x1="246.875" y1="120.084" x2="246.875" y2="125.2537">
	<stop  offset="0" style="stop-color:#C0C4C6"/>
	<stop  offset="0.1379" style="stop-color:#E3E5E8"/>
	<stop  offset="0.8714" style="stop-color:#8F9296"/>
	<stop  offset="1" style="stop-color:#3D383D"/>
</linearGradient>
<rect x="240.808" y="119.959" fill="url(#SVGID_30_)" width="12.135" height="5.438"/>
<linearGradient id="SVGID_31_" gradientUnits="userSpaceOnUse" x1="264.9893" y1="120.084" x2="264.9893" y2="125.2537">
	<stop  offset="0" style="stop-color:#C0C4C6"/>
	<stop  offset="0.1379" style="stop-color:#E3E5E8"/>
	<stop  offset="0.8714" style="stop-color:#8F9296"/>
	<stop  offset="1" style="stop-color:#3D383D"/>
</linearGradient>
<rect x="258.922" y="119.959" fill="url(#SVGID_31_)" width="12.135" height="5.438"/>
<linearGradient id="SVGID_32_" gradientUnits="userSpaceOnUse" x1="282.4155" y1="120.084" x2="282.4155" y2="125.2537">
	<stop  offset="0" style="stop-color:#C0C4C6"/>
	<stop  offset="0.1379" style="stop-color:#E3E5E8"/>
	<stop  offset="0.8714" style="stop-color:#8F9296"/>
	<stop  offset="1" style="stop-color:#3D383D"/>
</linearGradient>
<rect x="276.348" y="119.959" fill="url(#SVGID_32_)" width="12.136" height="5.438"/>
<linearGradient id="SVGID_33_" gradientUnits="userSpaceOnUse" x1="299.8535" y1="120.084" x2="299.8535" y2="125.2537">
	<stop  offset="0" style="stop-color:#C0C4C6"/>
	<stop  offset="0.1379" style="stop-color:#E3E5E8"/>
	<stop  offset="0.8714" style="stop-color:#8F9296"/>
	<stop  offset="1" style="stop-color:#3D383D"/>
</linearGradient>
<rect x="293.786" y="119.959" fill="url(#SVGID_33_)" width="12.135" height="5.438"/>
<linearGradient id="SVGID_34_" gradientUnits="userSpaceOnUse" x1="317.9365" y1="120.084" x2="317.9365" y2="125.2537">
	<stop  offset="0" style="stop-color:#C0C4C6"/>
	<stop  offset="0.1379" style="stop-color:#E3E5E8"/>
	<stop  offset="0.8714" style="stop-color:#8F9296"/>
	<stop  offset="1" style="stop-color:#3D383D"/>
</linearGradient>
<rect x="311.869" y="119.959" fill="url(#SVGID_34_)" width="12.135" height="5.438"/>
<linearGradient id="SVGID_35_" gradientUnits="userSpaceOnUse" x1="335.9355" y1="120.084" x2="335.9355" y2="125.2537">
	<stop  offset="0" style="stop-color:#C0C4C6"/>
	<stop  offset="0.1379" style="stop-color:#E3E5E8"/>
	<stop  offset="0.8714" style="stop-color:#8F9296"/>
	<stop  offset="1" style="stop-color:#3D383D"/>
</linearGradient>
<rect x="329.868" y="119.959" fill="url(#SVGID_35_)" width="12.135" height="5.438"/>
<linearGradient id="SVGID_36_" gradientUnits="userSpaceOnUse" x1="706.8105" y1="117.4727" x2="706.8105" y2="123.9366">
	<stop  offset="0" style="stop-color:#C0C4C6"/>
	<stop  offset="0.1379" style="stop-color:#E3E5E8"/>
	<stop  offset="0.8714" style="stop-color:#8F9296"/>
	<stop  offset="1" style="stop-color:#3D383D"/>
</linearGradient>
<rect x="701.654" y="117.316" fill="url(#SVGID_36_)" width="10.313" height="6.799"/>
<linearGradient id="SVGID_37_" gradientUnits="userSpaceOnUse" x1="721.2793" y1="117.4727" x2="721.2793" y2="123.9366">
	<stop  offset="0" style="stop-color:#C0C4C6"/>
	<stop  offset="0.1379" style="stop-color:#E3E5E8"/>
	<stop  offset="0.8714" style="stop-color:#8F9296"/>
	<stop  offset="1" style="stop-color:#3D383D"/>
</linearGradient>
<rect x="716.123" y="117.316" fill="url(#SVGID_37_)" width="10.313" height="6.799"/>
<path fill="#D9EAF9" d="M35.748,96.109c0,1.104-0.896,2-2,2l0,0c-1.104,0-2-0.896-2-2v-0.75c0-1.105,0.896-2,2-2l0,0
	c1.104,0,2,0.895,2,2V96.109z"/>
<path fill="#D9EAF9" d="M63.499,97.357c0,0.652-0.448,1.182-1,1.182l0,0c-0.552,0-1-0.529-1-1.182v-0.443c0-0.652,0.448-1.18,1-1.18
	l0,0c0.552,0,1,0.527,1,1.18V97.357z"/>
<path fill="#040000" d="M206.748,42.438c0,0.552-0.449,1-1,1h-10.5c-0.552,0-1-0.448-1-1V31.604c0-0.552,0.448-1,1-1h10.5
	c0.551,0,1,0.448,1,1V42.438z"/>
<path fill="#F4F4F4" stroke="#CCCCCC" stroke-miterlimit="10" d="M236.731,55.036c0,0.553-0.447,1-1,1H45.398c-0.552,0-1-0.447-1-1
	v-33c0-0.553,0.448-1,1-1h190.333c0.553,0,1,0.447,1,1V55.036z"/>
<path fill="#E2E4E9" stroke="#040000" stroke-width="2" stroke-miterlimit="10" d="M224.192,44.819c0,4.971-4.029,9-9,9h-133
	c-4.971,0-9-4.029-9-9v-16c0-4.971,4.029-9,9-9h133c4.971,0,9,4.029,9,9V44.819z"/>
<path fill="#040000" d="M94.942,42.438c0,0.552-0.449,1-1,1h-10.5c-0.552,0-1-0.448-1-1V31.604c0-0.552,0.448-1,1-1h10.5
	c0.551,0,1,0.448,1,1V42.438z"/>
<path fill="#040000" d="M69.286,32.902c0,0.552-0.448,1-1,1h-10.5c-0.552,0-1-0.448-1-1V22.068c0-0.552,0.448-1,1-1h10.5
	c0.552,0,1,0.448,1,1V32.902z"/>
<path fill="#040000" d="M69.286,51.652c0,0.552-0.448,1-1,1h-10.5c-0.552,0-1-0.448-1-1V40.818c0-0.552,0.448-1,1-1h10.5
	c0.552,0,1,0.448,1,1V51.652z"/>
<path fill="#040000" d="M442.374,32.902c0,0.552-0.448,1-1,1h-10.5c-0.552,0-1-0.448-1-1V22.068c0-0.552,0.448-1,1-1h10.5
	c0.552,0,1,0.448,1,1V32.902z"/>
<path fill="#040000" d="M442.374,51.652c0,0.552-0.448,1-1,1h-10.5c-0.552,0-1-0.448-1-1V40.818c0-0.552,0.448-1,1-1h10.5
	c0.552,0,1,0.448,1,1V51.652z"/>
<path fill="#040000" d="M114.942,42.438c0,0.552-0.449,1-1,1h-10.5c-0.552,0-1-0.448-1-1V31.604c0-0.552,0.448-1,1-1h10.5
	c0.551,0,1,0.448,1,1V42.438z"/>
<path fill="#040000" d="M134.942,42.438c0,0.552-0.449,1-1,1h-10.5c-0.552,0-1-0.448-1-1V31.604c0-0.552,0.448-1,1-1h10.5
	c0.551,0,1,0.448,1,1V42.438z"/>
<path fill="#040000" d="M154.762,42.438c0,0.552-0.449,1-1,1h-10.5c-0.552,0-1-0.448-1-1V31.604c0-0.552,0.448-1,1-1h10.5
	c0.551,0,1,0.448,1,1V42.438z"/>
<path fill="#040000" d="M174.942,42.438c0,0.552-0.449,1-1,1h-10.5c-0.552,0-1-0.448-1-1V31.604c0-0.552,0.448-1,1-1h10.5
	c0.551,0,1,0.448,1,1V42.438z"/>
<path fill="#040000" d="M194.942,42.438c0,0.552-0.449,1-1,1h-10.5c-0.552,0-1-0.448-1-1V31.604c0-0.552,0.448-1,1-1h10.5
	c0.551,0,1,0.448,1,1V42.438z"/>
<path fill="#040000" d="M214.942,42.438c0,0.552-0.449,1-1,1h-10.5c-0.552,0-1-0.448-1-1V31.604c0-0.552,0.448-1,1-1h10.5
	c0.551,0,1,0.448,1,1V42.438z"/>
<path fill="#E2E4E9" stroke="#040000" stroke-width="2" stroke-miterlimit="10" d="M423.058,44.819c0,4.971-4.029,9-9,9h-133
	c-4.971,0-9-4.029-9-9v-16c0-4.971,4.029-9,9-9h133c4.971,0,9,4.029,9,9V44.819z"/>
<path fill="#040000" d="M293.808,42.438c0,0.552-0.449,1-1,1h-10.5c-0.552,0-1-0.448-1-1V31.604c0-0.552,0.448-1,1-1h10.5
	c0.551,0,1,0.448,1,1V42.438z"/>
<path fill="#040000" d="M313.808,42.438c0,0.552-0.449,1-1,1h-10.5c-0.552,0-1-0.448-1-1V31.604c0-0.552,0.448-1,1-1h10.5
	c0.551,0,1,0.448,1,1V42.438z"/>
<path fill="#040000" d="M333.808,42.438c0,0.552-0.449,1-1,1h-10.5c-0.552,0-1-0.448-1-1V31.604c0-0.552,0.448-1,1-1h10.5
	c0.551,0,1,0.448,1,1V42.438z"/>
<path fill="#040000" d="M353.627,42.438c0,0.552-0.449,1-1,1h-10.5c-0.552,0-1-0.448-1-1V31.604c0-0.552,0.448-1,1-1h10.5
	c0.551,0,1,0.448,1,1V42.438z"/>
<path fill="#040000" d="M373.808,42.438c0,0.552-0.449,1-1,1h-10.5c-0.552,0-1-0.448-1-1V31.604c0-0.552,0.448-1,1-1h10.5
	c0.551,0,1,0.448,1,1V42.438z"/>
<path fill="#040000" d="M393.808,42.438c0,0.552-0.449,1-1,1h-10.5c-0.552,0-1-0.448-1-1V31.604c0-0.552,0.448-1,1-1h10.5
	c0.551,0,1,0.448,1,1V42.438z"/>
<path fill="#040000" d="M413.808,42.438c0,0.552-0.449,1-1,1h-10.5c-0.552,0-1-0.448-1-1V31.604c0-0.552,0.448-1,1-1h10.5
	c0.551,0,1,0.448,1,1V42.438z"/>
<path fill="#E2E4E9" stroke="#040000" stroke-width="2" stroke-miterlimit="10" d="M661.581,117.137
	c0,1.572-1.302,2.848-2.907,2.848H406.156c-1.605,0-2.908-1.275-2.908-2.848V81.055c0-1.572,1.303-2.848,2.908-2.848h252.518
	c1.605,0,2.907,1.275,2.907,2.848V117.137z"/>
<polygon fill="#FFFFFF" points="736.498,3.521 736.498,6.021 996.498,6.021 996.498,121.27 1000.248,121.27 1000.248,6.021 
	1258.498,6.021 1258.498,3.521 "/>
<rect x="1261.832" y="6.021" fill="#FFFFFF" width="6" height="32.667"/>
<rect x="1261.832" y="47.688" fill="#FFFFFF" width="10.666" height="68.332"/>
<rect x="1267.873" y="4.438" fill="#B2B3B9" width="4" height="34.25"/>
<rect x="737.248" y="6.021" fill="#9E9E9E" width="2.75" height="118.204"/>
<rect x="741.165" y="37.486" fill="#101010" width="12.667" height="9.5"/>
<rect x="741.165" y="79.152" fill="#101010" width="12.667" height="9.5"/>
<rect x="1003.081" y="37.486" fill="#101010" width="12.667" height="9.5"/>
<polygon fill="#E2E4E9" points="685.331,14.798 685.331,9.36 681.602,9.36 681.602,13.777 490.857,13.777 490.857,61.445 
	504.539,61.445 504.539,66.734 508.289,66.734 508.289,61.445 522.039,61.445 522.039,66.734 525.789,66.734 525.789,61.445 
	539.789,61.445 539.789,66.734 543.539,66.734 543.539,61.445 557.039,61.445 557.039,66.734 560.789,66.734 560.789,61.445 
	575.352,61.445 575.352,66.734 579.102,66.734 579.102,61.445 592.852,61.445 592.852,66.734 596.602,66.734 596.602,61.445 
	610.602,61.445 610.602,66.734 614.352,66.734 614.352,61.445 627.852,61.445 627.852,66.734 631.602,66.734 631.602,61.445 
	645.477,61.445 645.477,66.734 649.227,66.734 649.227,61.445 662.977,61.445 662.977,66.734 666.727,66.734 666.727,61.445 
	681.997,61.445 681.997,59.194 685.331,59.194 685.331,51.694 681.997,51.694 681.997,44.527 685.331,44.527 685.331,37.027 
	681.997,37.027 681.997,29.444 685.331,29.444 685.331,21.944 681.997,21.944 681.997,14.798 "/>
<circle fill="#F1EC57" stroke="#222222" stroke-miterlimit="10" cx="417.113" cy="91.836" r="4.416"/>
<circle fill="#3D3B2B" stroke="#222222" stroke-miterlimit="10" cx="417.113" cy="104.992" r="4.416"/>
<rect x="493.783" y="15.609" fill="#707070" width="186.465" height="39.552"/>
<polygon fill="#CCCDCE" stroke="#3C3D3D" stroke-miterlimit="10" points="404.096,55.817 401.223,55.817 353.199,55.817 
	352.869,55.817 347.054,55.817 346.054,55.817 16.929,55.817 16.929,67.641 346.054,67.641 346.054,75.484 353.199,75.484 
	353.199,67.641 401.223,67.641 401.223,78.484 453.164,78.484 453.164,55.817 "/>
<path fill="#E2E4E9" d="M491.508,19.209V7.626h-2.832v6.917h-39V7.626h-3.969v52.083h9.135v3.3h36.666v-3.133h-6.958V19.209H491.508
	z M465.092,58.584h-15.333v-11h15.333V58.584z M465.092,44.918h-15.333v-11h15.333V44.918z M465.092,30.418h-15.333v-11h15.333
	V30.418z M482.215,58.584h-14.123v-11h14.123V58.584z M482.215,44.918h-14.123v-11h14.123V44.918z M482.215,30.418h-14.123v-11
	h14.123V30.418z"/>
<rect x="15.249" y="10.547" fill="#E2E4E9" width="26.968" height="44.677"/>
<rect x="701.654" y="67.15" fill="#393A3A" width="30.511" height="46.232"/>
<rect x="714.623" y="79.152" fill="#5E5F5F" width="2.287" height="13.133"/>
<rect x="709.436" y="82.086" fill="#5E5F5F" width="2.287" height="15.549"/>
<rect x="709.436" y="99.02" fill="#5E5F5F" width="2.287" height="13.133"/>
<rect x="720.136" y="82.086" fill="#5E5F5F" width="2.287" height="15.549"/>
<rect x="720.136" y="99.02" fill="#5E5F5F" width="2.287" height="13.133"/>
<rect x="714.623" y="92.777" fill="#5E5F5F" width="2.287" height="9.717"/>
<rect x="714.623" y="103.053" fill="#5E5F5F" width="2.287" height="9.717"/>
<g>
	<rect x="230.596" y="18.911" fill="#AFAFAF" stroke="#7B7B7C" stroke-miterlimit="10" width="5.825" height="33.223"/>
	<rect x="261.498" y="18.911" fill="#AFAFAF" stroke="#7B7B7C" stroke-miterlimit="10" width="5.825" height="33.223"/>
	<path fill="#CCCDCE" stroke="#4F4F4F" stroke-miterlimit="10" d="M230.596,40.682c0,0,15.797-8.688,36.728,0v24.879h-36.728V40.682
		z"/>
</g>
<text transform="matrix(1.1148 0 0 1 245.333 48.5693)" fill="#101010" font-family="'Helvetica-Condensed-Black-Se'" font-size="13.5898">1</text>
<text transform="matrix(1.1148 0 0 1 245.333 61.0029)" fill="#101010" font-family="'Helvetica-Condensed-Black-Se'" font-size="13.5898">2</text>
<polygon fill="#101010" points="244.404,48.137 241.46,46.437 244.404,44.736 "/>
<polygon fill="#101010" points="253.41,57.974 256.354,56.273 253.41,54.573 "/>
</svg>
