<?xml version="1.0" encoding="utf-8"?>
<!-- Generator: Adobe Illustrator 16.0.0, SVG Export Plug-In . SVG Version: 6.00 Build 0)  -->
<!DOCTYPE svg PUBLIC "-//W3C//DTD SVG 1.1//EN" "http://www.w3.org/Graphics/SVG/1.1/DTD/svg11.dtd">
<svg version="1.1" id="图层_1" xmlns="http://www.w3.org/2000/svg" xmlns:xlink="http://www.w3.org/1999/xlink" x="0px" y="0px"
	 width="197.5px" height="43.33px" viewBox="0 0 197.5 43.33" enable-background="new 0 0 197.5 43.33" xml:space="preserve">
<g>
	<rect x="0.002" y="0.002" fill="#3D3D3F" width="189.869" height="43.334"/>
	<g>
		<defs>
			<rect id="SVGID_1_" x="189.877" y="0.002" width="7.617" height="43.334"/>
		</defs>
		<clipPath id="SVGID_2_">
			<use xlink:href="#SVGID_1_"  overflow="visible"/>
		</clipPath>
		
			<linearGradient id="SVGID_3_" gradientUnits="userSpaceOnUse" x1="327.1113" y1="-247.1973" x2="328.037" y2="-247.1973" gradientTransform="matrix(7 0 0 -7 -2099.1328 -1708.7109)">
			<stop  offset="0" style="stop-color:#3D3D3F"/>
			<stop  offset="0.1854" style="stop-color:#46474A"/>
			<stop  offset="0.3005" style="stop-color:#454649"/>
			<stop  offset="0.3601" style="stop-color:#424245"/>
			<stop  offset="0.4069" style="stop-color:#3B3C3F"/>
			<stop  offset="0.4469" style="stop-color:#333437"/>
			<stop  offset="0.4762" style="stop-color:#2A2B2E"/>
			<stop  offset="0.7296" style="stop-color:#282A2D"/>
			<stop  offset="0.8704" style="stop-color:#242629"/>
			<stop  offset="0.9835" style="stop-color:#1E1F22"/>
			<stop  offset="1" style="stop-color:#1C1E21"/>
		</linearGradient>
		<rect x="189.877" y="0.002" clip-path="url(#SVGID_2_)" fill="url(#SVGID_3_)" width="7.617" height="43.334"/>
	</g>
	<rect x="16.598" y="8.844" fill="#040000" width="149.705" height="27.459"/>
	<rect x="66.184" y="8.844" fill="#1C1D20" width="50.113" height="27.459"/>
	<path fill="#3D3D3F" d="M88.982,14.117l-4.568,2.639l-4.566-2.639V8.846h-3.016v5.271l-4.566,2.639l-4.568-2.639V8.846h-1.512
		v7.207l4.443,2.564v5.275l-4.443,2.566v9.844h6.08l-4.568-2.637v-5.275l4.568-2.635l4.566,2.635v5.275l-4.566,2.637h12.148
		l-4.566-2.637v-5.275l4.566-2.635l4.568,2.635v5.275l-4.568,2.637h12.15l-4.566-2.637v-5.275l4.566-2.635l4.567,2.635v5.275
		l-4.567,2.637h12.151l-4.566-2.637v-5.275l4.566-2.635l4.566,2.635v5.275l-4.566,2.637h8.059v-2.363l-0.477-0.273v-5.275
		l0.477-0.275v-2.807l-2.111,1.221l-4.568-2.637v-5.275l4.568-2.637l2.111,1.221v-2.809l-0.477-0.275V8.846h-3.016v5.271
		l-4.566,2.639l-4.566-2.639V8.846h-3.018v5.271l-4.567,2.639l-4.566-2.639V8.846h-3.016V14.117z M78.21,26.529l-4.567-2.637v-5.275
		l4.567-2.637l4.568,2.637v5.275L78.21,26.529z M102.512,15.98l4.566,2.637v5.275l-4.566,2.637l-4.567-2.637v-5.275L102.512,15.98z
		 M94.929,18.617v5.275l-4.568,2.637l-4.566-2.637v-5.275l4.566-2.637L94.929,18.617z"/>
	<polygon fill="#1C1D20" points="70.629,18.617 66.184,16.053 66.184,26.459 70.629,23.893 	"/>
	<polygon fill="#1C1D20" points="82.779,18.617 78.212,15.98 73.644,18.617 73.644,23.893 78.212,26.529 82.779,23.893 	"/>
	<polygon fill="#1C1D20" points="85.794,23.893 90.361,26.529 94.927,23.893 94.927,18.617 90.361,15.98 85.794,18.617 	"/>
	<polygon fill="#1C1D20" points="97.942,23.893 102.512,26.529 107.078,23.893 107.078,18.617 102.512,15.98 97.942,18.617 	"/>
	<polygon fill="#1C1D20" points="110.094,18.617 110.094,23.893 114.662,26.529 116.775,25.309 116.775,17.201 114.662,15.98 	"/>
	<polygon fill="#1C1D20" points="72.265,16.756 76.832,14.119 76.832,8.844 67.697,8.844 67.697,14.119 	"/>
	<polygon fill="#1C1D20" points="84.414,16.756 88.982,14.119 88.982,8.844 79.847,8.844 79.847,14.119 	"/>
	<polygon fill="#1C1D20" points="96.564,16.756 101.131,14.119 101.131,8.844 91.998,8.844 91.998,14.119 	"/>
	<polygon fill="#1C1D20" points="108.715,16.756 113.281,14.119 113.281,8.844 104.148,8.844 104.148,14.119 	"/>
	<polygon fill="#1C1D20" points="116.773,14.393 116.773,8.844 116.297,8.844 116.297,14.119 	"/>
	<polygon fill="#1C1D20" points="76.832,28.391 72.265,25.754 67.697,28.391 67.697,33.666 72.265,36.303 76.832,33.666 	"/>
	<polygon fill="#1C1D20" points="88.982,28.391 84.414,25.754 79.847,28.391 79.847,33.666 84.414,36.303 88.982,33.666 	"/>
	<polygon fill="#1C1D20" points="101.131,28.391 96.564,25.754 91.998,28.391 91.998,33.666 96.564,36.303 101.131,33.666 	"/>
	<polygon fill="#1C1D20" points="113.281,28.391 108.715,25.754 104.148,28.391 104.148,33.666 108.715,36.303 113.281,33.666 	"/>
	<polygon fill="#1C1D20" points="116.297,33.666 116.775,33.939 116.775,28.117 116.297,28.391 	"/>
	<g>
		<defs>
			<path id="SVGID_4_" d="M104.148,33.666v-5.275l4.566-2.637l4.568,2.637v5.275l-4.568,2.637L104.148,33.666z M102.512,26.529
				l-4.569-2.637v-5.273l4.569-2.639l4.568,2.639v5.273L102.512,26.529z M91.998,33.666v-5.275l4.566-2.637l4.569,2.637v5.275
				l-4.569,2.637L91.998,33.666z M90.361,26.529l-4.566-2.637v-5.273l4.566-2.639l4.568,2.639v5.273L90.361,26.529z M79.847,33.666
				v-5.275l4.566-2.637l4.568,2.637v5.275l-4.568,2.637L79.847,33.666z M78.21,26.529l-4.567-2.637v-5.273l4.567-2.639l4.568,2.639
				v5.273L78.21,26.529z M67.697,33.666v-5.275l4.566-2.637l4.568,2.637v5.275l-4.568,2.637L67.697,33.666z M66.186,16.053
				l4.443,2.566v5.273l-4.443,2.566v9.844h6.078h12.15h12.15h12.151h8.059v-2.361l-0.477-0.275v-5.275l0.477-0.275v-2.807
				l-2.111,1.221l-4.568-2.637v-5.273l4.568-2.639l2.111,1.221v-2.809l-0.477-0.273V8.844h-3.014v5.275l-4.568,2.637l-4.566-2.637
				V8.844h-3.016v5.275l-4.569,2.637l-4.566-2.637V8.844h-3.016v5.275l-4.568,2.637l-4.566-2.637V8.844h-3.016v5.275l-4.568,2.637
				l-4.566-2.637V8.844h-1.512V16.053z"/>
		</defs>
		<clipPath id="SVGID_5_">
			<use xlink:href="#SVGID_4_"  overflow="visible"/>
		</clipPath>
		
			<radialGradient id="SVGID_6_" cx="-711.6577" cy="-18.6865" r="1" gradientTransform="matrix(0 -15.9302 -36.4233 0 -589.1563 -11314.2734)" gradientUnits="userSpaceOnUse">
			<stop  offset="0" style="stop-color:#858585"/>
			<stop  offset="1" style="stop-color:#1C1D20"/>
		</radialGradient>
		<rect x="66.186" y="8.844" clip-path="url(#SVGID_5_)" fill="url(#SVGID_6_)" width="50.588" height="27.459"/>
	</g>
	<g>
		<defs>
			<path id="SVGID_7_" d="M44.777,33.666v-5.275l4.568-2.637l4.564,2.637v5.275l-4.564,2.637L44.777,33.666z M43.141,26.529
				l-4.566-2.637v-5.273l4.566-2.639l4.568,2.639v5.273L43.141,26.529z M32.627,33.666v-5.275l4.568-2.637l4.566,2.637v5.275
				l-4.566,2.637L32.627,33.666z M30.992,26.529l-4.566-2.637v-5.273l4.566-2.639l4.566,2.639v5.273L30.992,26.529z M20.477,33.666
				v-5.275l4.568-2.637l4.566,2.637v5.275l-4.566,2.637L20.477,33.666z M16.596,17.277l2.246-1.297l4.566,2.639v5.273l-4.566,2.637
				l-2.246-1.297v11.07h8.449h12.15h12.15h9.576v-1.484l-1.994-1.152v-5.275l1.994-1.15v-2.809l-3.631,2.098l-4.566-2.637v-5.273
				l4.566-2.639l3.631,2.098V15.27l-1.994-1.15V8.844H53.91v5.275l-4.564,2.637l-4.568-2.637V8.844h-3.016v5.275l-4.566,2.637
				l-4.568-2.637V8.844h-3.016v5.275l-4.566,2.637l-4.568-2.637V8.844h-3.881V17.277z"/>
		</defs>
		<clipPath id="SVGID_8_">
			<use xlink:href="#SVGID_7_"  overflow="visible"/>
		</clipPath>
		
			<radialGradient id="SVGID_9_" cx="-757.8228" cy="-82.5059" r="1.0004" gradientTransform="matrix(0 -12.5851 -26.3374 0 -2135.2031 -9514.7031)" gradientUnits="userSpaceOnUse">
			<stop  offset="0" style="stop-color:#858585"/>
			<stop  offset="1" style="stop-color:#1C1D20"/>
		</radialGradient>
		<rect x="16.596" y="8.844" clip-path="url(#SVGID_8_)" fill="url(#SVGID_9_)" width="42.326" height="27.459"/>
	</g>
	<g>
		<defs>
			<path id="SVGID_10_" d="M152.16,33.666v-5.275l4.566-2.637l4.566,2.637v5.275l-4.566,2.637L152.16,33.666z M150.523,26.529
				l-4.566-2.637v-5.273l4.566-2.639l4.566,2.639v5.273L150.523,26.529z M140.01,33.666v-5.275l4.566-2.637l4.566,2.637v5.275
				l-4.566,2.637L140.01,33.666z M138.375,26.529l-4.568-2.637v-5.273l4.568-2.639l4.564,2.639v5.273L138.375,26.529z
				 M127.859,33.666v-5.275l4.568-2.637l4.566,2.637v5.275l-4.566,2.637L127.859,33.666z M123.979,17.277l2.246-1.297l4.566,2.639
				v5.273l-4.566,2.637l-2.246-1.297v11.07h8.449h12.148h12.15h9.576v-1.484l-1.994-1.152v-5.275l1.994-1.15v-2.809l-3.629,2.098
				l-4.568-2.637v-5.273l4.568-2.639l3.629,2.098V15.27l-1.994-1.15V8.844h-3.016v5.275l-4.566,2.637l-4.566-2.637V8.844h-3.018
				v5.275l-4.566,2.637l-4.566-2.637V8.844h-3.016v5.275l-4.566,2.637l-4.568-2.637V8.844h-3.881V17.277z"/>
		</defs>
		<clipPath id="SVGID_11_">
			<use xlink:href="#SVGID_10_"  overflow="visible"/>
		</clipPath>
		
			<radialGradient id="SVGID_12_" cx="-757.8228" cy="-82.5088" r="1" gradientTransform="matrix(0 -12.5851 -26.3374 0 -2027.9219 -9514.7031)" gradientUnits="userSpaceOnUse">
			<stop  offset="0" style="stop-color:#858585"/>
			<stop  offset="1" style="stop-color:#1C1D20"/>
		</radialGradient>
		<rect x="123.979" y="8.844" clip-path="url(#SVGID_11_)" fill="url(#SVGID_12_)" width="42.324" height="27.459"/>
	</g>
	<g>
		<defs>
			<rect id="SVGID_13_" x="58.922" y="8.844" width="7.264" height="27.459"/>
		</defs>
		<clipPath id="SVGID_14_">
			<use xlink:href="#SVGID_13_"  overflow="visible"/>
		</clipPath>
		
			<linearGradient id="SVGID_15_" gradientUnits="userSpaceOnUse" x1="-638.7456" y1="-73.0996" x2="-637.7456" y2="-73.0996" gradientTransform="matrix(0 -27.4575 -27.4575 0 -1944.5938 -17502.0625)">
			<stop  offset="0" style="stop-color:#1C1D20"/>
			<stop  offset="0.0466" style="stop-color:#2E3032"/>
			<stop  offset="0.0973" style="stop-color:#3F3F41"/>
			<stop  offset="0.1525" style="stop-color:#4E4C4D"/>
			<stop  offset="0.2128" style="stop-color:#595757"/>
			<stop  offset="0.281" style="stop-color:#605F5F"/>
			<stop  offset="0.3635" style="stop-color:#656363"/>
			<stop  offset="0.5" style="stop-color:#666564"/>
			<stop  offset="0.6365" style="stop-color:#656363"/>
			<stop  offset="0.719" style="stop-color:#605F5F"/>
			<stop  offset="0.7872" style="stop-color:#595757"/>
			<stop  offset="0.8475" style="stop-color:#4E4C4D"/>
			<stop  offset="0.9027" style="stop-color:#3F3F41"/>
			<stop  offset="0.9534" style="stop-color:#2E3032"/>
			<stop  offset="1" style="stop-color:#1C1D20"/>
		</linearGradient>
		<rect x="58.922" y="8.844" clip-path="url(#SVGID_14_)" fill="url(#SVGID_15_)" width="7.264" height="27.459"/>
	</g>
	<g>
		<defs>
			<rect id="SVGID_16_" x="116.773" y="8.844" width="7.264" height="27.459"/>
		</defs>
		<clipPath id="SVGID_17_">
			<use xlink:href="#SVGID_16_"  overflow="visible"/>
		</clipPath>
		
			<linearGradient id="SVGID_18_" gradientUnits="userSpaceOnUse" x1="-638.7456" y1="-73.0991" x2="-637.7456" y2="-73.0991" gradientTransform="matrix(0 -27.4575 -27.4575 0 -1886.7344 -17502.0625)">
			<stop  offset="0" style="stop-color:#1C1D20"/>
			<stop  offset="0.0466" style="stop-color:#2E3032"/>
			<stop  offset="0.0973" style="stop-color:#3F3F41"/>
			<stop  offset="0.1525" style="stop-color:#4E4C4D"/>
			<stop  offset="0.2128" style="stop-color:#595757"/>
			<stop  offset="0.281" style="stop-color:#605F5F"/>
			<stop  offset="0.3635" style="stop-color:#656363"/>
			<stop  offset="0.5" style="stop-color:#666564"/>
			<stop  offset="0.6365" style="stop-color:#656363"/>
			<stop  offset="0.719" style="stop-color:#605F5F"/>
			<stop  offset="0.7872" style="stop-color:#595757"/>
			<stop  offset="0.8475" style="stop-color:#4E4C4D"/>
			<stop  offset="0.9027" style="stop-color:#3F3F41"/>
			<stop  offset="0.9534" style="stop-color:#2E3032"/>
			<stop  offset="1" style="stop-color:#1C1D20"/>
		</linearGradient>
		<rect x="116.773" y="8.844" clip-path="url(#SVGID_17_)" fill="url(#SVGID_18_)" width="7.264" height="27.459"/>
	</g>
	<g>
		<defs>
			<rect id="SVGID_19_" y="0.002" width="5.089" height="43.334"/>
		</defs>
		<clipPath id="SVGID_20_">
			<use xlink:href="#SVGID_19_"  overflow="visible"/>
		</clipPath>
		
			<linearGradient id="SVGID_21_" gradientUnits="userSpaceOnUse" x1="655.2217" y1="-395.7324" x2="656.2217" y2="-395.7324" gradientTransform="matrix(5.0879 0 0 -5.0879 -3333.8359 -1991.7773)">
			<stop  offset="0" style="stop-color:#703631"/>
			<stop  offset="0.0327" style="stop-color:#89443A"/>
			<stop  offset="0.074" style="stop-color:#A05245"/>
			<stop  offset="0.1228" style="stop-color:#B35E4E"/>
			<stop  offset="0.1831" style="stop-color:#C06755"/>
			<stop  offset="0.2675" style="stop-color:#C86C59"/>
			<stop  offset="0.5" style="stop-color:#CA6D5A"/>
			<stop  offset="0.7325" style="stop-color:#C86C59"/>
			<stop  offset="0.8169" style="stop-color:#C06755"/>
			<stop  offset="0.8772" style="stop-color:#B35E4E"/>
			<stop  offset="0.926" style="stop-color:#A05245"/>
			<stop  offset="0.9673" style="stop-color:#89443A"/>
			<stop  offset="1" style="stop-color:#703631"/>
		</linearGradient>
		<rect y="0.002" clip-path="url(#SVGID_20_)" fill="url(#SVGID_21_)" width="5.089" height="43.334"/>
	</g>
</g>
</svg>
