<?xml version="1.0" encoding="utf-8"?>
<!-- Generator: Adobe Illustrator 16.0.0, SVG Export Plug-In . SVG Version: 6.00 Build 0)  -->
<!DOCTYPE svg PUBLIC "-//W3C//DTD SVG 1.1//EN" "http://www.w3.org/Graphics/SVG/1.1/DTD/svg11.dtd">
<svg version="1.1" id="图层_1" xmlns="http://www.w3.org/2000/svg" xmlns:xlink="http://www.w3.org/1999/xlink" x="0px" y="0px"
	 width="213.32px" height="43.33px" viewBox="0 0 213.32 43.33" enable-background="new 0 0 213.32 43.33" xml:space="preserve">
<g>
	<rect fill="#3D3D3F" width="205.089" height="43.332"/>
	<g>
		<defs>
			<rect id="SVGID_1_" x="205.095" y="0.002" width="8.229" height="43.332"/>
		</defs>
		<clipPath id="SVGID_2_">
			<use xlink:href="#SVGID_1_"  overflow="visible"/>
		</clipPath>
		
			<linearGradient id="SVGID_3_" gradientUnits="userSpaceOnUse" x1="-230.2993" y1="1477.8164" x2="-229.2993" y2="1477.8164" gradientTransform="matrix(7 0 0 -7 1818.0195 10366.3828)">
			<stop  offset="0" style="stop-color:#3D3D3F"/>
			<stop  offset="0.1854" style="stop-color:#46474A"/>
			<stop  offset="0.3005" style="stop-color:#454649"/>
			<stop  offset="0.3601" style="stop-color:#424245"/>
			<stop  offset="0.4069" style="stop-color:#3B3C3F"/>
			<stop  offset="0.4469" style="stop-color:#333437"/>
			<stop  offset="0.4762" style="stop-color:#2A2B2E"/>
			<stop  offset="0.7296" style="stop-color:#282A2D"/>
			<stop  offset="0.8704" style="stop-color:#242629"/>
			<stop  offset="0.9835" style="stop-color:#1E1F22"/>
			<stop  offset="1" style="stop-color:#1C1E21"/>
		</linearGradient>
		<rect x="205.095" y="0.002" clip-path="url(#SVGID_2_)" fill="url(#SVGID_3_)" width="8.229" height="43.332"/>
	</g>
	<rect x="169.876" y="1.594" fill="#1F2123" width="35.213" height="40.146"/>
	<rect x="16.596" y="8.844" fill="#1F2123" width="149.708" height="27.457"/>
	<path fill="#3D3D3F" d="M88.981,14.117l-4.567,2.637l-4.566-2.637V8.844h-3.016v5.273l-4.568,2.637l-4.566-2.637V8.844h-1.514
		v7.207l4.445,2.566v5.273l-4.445,2.566v9.844h6.08l-4.566-2.637v-5.275l4.566-2.635l4.568,2.635v5.275l-4.568,2.637h12.15
		l-4.566-2.637v-5.275l4.566-2.635l4.567,2.635v5.275l-4.567,2.637h12.151l-4.567-2.637v-5.275l4.567-2.635l4.566,2.635v5.275
		l-4.566,2.637h12.15l-4.568-2.637v-5.275l4.568-2.635l4.566,2.635v5.275l-4.566,2.637h8.059v-2.361l-0.477-0.275v-5.275
		l0.477-0.273v-2.809l-2.113,1.221l-4.566-2.637v-5.273l4.566-2.637l2.113,1.22v-2.81l-0.477-0.273V8.844h-3.016v5.273l-4.566,2.637
		l-4.568-2.637V8.844h-3.016v5.273l-4.566,2.637l-4.567-2.637V8.844h-3.017V14.117z M78.212,26.527l-4.566-2.637v-5.273l4.566-2.637
		l4.566,2.637v5.273L78.212,26.527z M102.513,15.98l4.566,2.637v5.273l-4.566,2.637l-4.568-2.637v-5.273L102.513,15.98z
		 M94.929,18.617v5.273l-4.566,2.637l-4.566-2.637v-5.273l4.566-2.637L94.929,18.617z"/>
	<polygon fill="#1C1D20" points="116.774,14.393 116.774,8.844 116.298,8.844 116.298,14.117 	"/>
	<polygon fill="#1C1D20" points="116.298,33.664 116.774,33.939 116.774,28.115 116.298,28.391 	"/>
	<g>
		<defs>
			<path id="SVGID_4_" d="M104.149,33.664v-5.273l4.564-2.637l4.568,2.637v5.273l-4.568,2.637L104.149,33.664z M102.511,26.527
				l-4.566-2.637v-5.273l4.566-2.637l4.568,2.637v5.273L102.511,26.527z M91.999,33.664v-5.273l4.567-2.637l4.566,2.637v5.273
				l-4.566,2.637L91.999,33.664z M90.362,26.527l-4.568-2.637v-5.273l4.568-2.637l4.566,2.637v5.273L90.362,26.527z M79.849,33.664
				v-5.273l4.566-2.637l4.569,2.637v5.273l-4.569,2.637L79.849,33.664z M78.212,26.527l-4.566-2.637v-5.273l4.566-2.637l4.568,2.637
				v5.273L78.212,26.527z M67.698,33.664v-5.273l4.566-2.637l4.568,2.637v5.273l-4.568,2.637L67.698,33.664z M66.187,16.051
				l4.443,2.566v5.273l-4.443,2.566v9.844h6.078h12.15h12.151h12.148h8.061v-2.363l-0.477-0.273v-5.273l0.477-0.277v-2.807
				l-2.113,1.221l-4.566-2.637v-5.273l4.566-2.637l2.113,1.219v-2.807l-0.477-0.275V8.844h-3.016v5.273l-4.568,2.637l-4.564-2.637
				V8.844h-3.018v5.273l-4.566,2.637l-4.567-2.637V8.844h-3.015v5.273l-4.569,2.637l-4.566-2.637V8.844h-3.016v5.273l-4.568,2.637
				l-4.566-2.637V8.844h-1.512V16.051z"/>
		</defs>
		<clipPath id="SVGID_5_">
			<use xlink:href="#SVGID_4_"  overflow="visible"/>
		</clipPath>
		
			<radialGradient id="SVGID_6_" cx="54.3433" cy="90.3965" r="1.0002" gradientTransform="matrix(0 -15.9302 -36.4233 0 3384.0313 888.2656)" gradientUnits="userSpaceOnUse">
			<stop  offset="0" style="stop-color:#858585"/>
			<stop  offset="1" style="stop-color:#1C1D20"/>
		</radialGradient>
		<rect x="66.187" y="8.844" clip-path="url(#SVGID_5_)" fill="url(#SVGID_6_)" width="50.588" height="27.457"/>
	</g>
	<g>
		<defs>
			<path id="SVGID_7_" d="M44.777,33.664v-5.273l4.567-2.637l4.566,2.637v5.273l-4.566,2.637L44.777,33.664z M43.141,26.527
				l-4.566-2.637v-5.273l4.566-2.637l4.569,2.637v5.273L43.141,26.527z M32.627,33.664v-5.273l4.568-2.637l4.564,2.637v5.273
				l-4.564,2.637L32.627,33.664z M30.992,26.527l-4.568-2.637v-5.273l4.568-2.637l4.566,2.637v5.273L30.992,26.527z M20.477,33.664
				v-5.273l4.568-2.637l4.566,2.637v5.273l-4.566,2.637L20.477,33.664z M16.596,17.275l2.246-1.295l4.566,2.637v5.273l-4.566,2.637
				l-2.246-1.297v11.07h8.449h12.15h12.149h9.578v-1.486l-1.996-1.15v-5.273l1.996-1.152v-2.807l-3.632,2.096l-4.565-2.637v-5.273
				l4.565-2.637l3.632,2.096V15.27l-1.996-1.152V8.844h-3.016v5.273l-4.566,2.637l-4.567-2.637V8.844H41.76v5.273l-4.564,2.637
				l-4.568-2.637V8.844h-3.016v5.273l-4.566,2.637l-4.568-2.637V8.844h-3.881V17.275z"/>
		</defs>
		<clipPath id="SVGID_8_">
			<use xlink:href="#SVGID_7_"  overflow="visible"/>
		</clipPath>
		
			<radialGradient id="SVGID_9_" cx="209.6533" cy="68.3496" r="1.0001" gradientTransform="matrix(0 -12.5851 -26.3374 0 1837.9375 2661.0703)" gradientUnits="userSpaceOnUse">
			<stop  offset="0" style="stop-color:#858585"/>
			<stop  offset="1" style="stop-color:#1C1D20"/>
		</radialGradient>
		<rect x="16.596" y="8.844" clip-path="url(#SVGID_8_)" fill="url(#SVGID_9_)" width="42.327" height="27.457"/>
	</g>
	<g>
		<defs>
			<path id="SVGID_10_" d="M152.159,33.664v-5.273l4.568-2.637l4.566,2.637v5.273l-4.566,2.637L152.159,33.664z M150.522,26.527
				l-4.566-2.637v-5.273l4.566-2.637l4.568,2.637v5.273L150.522,26.527z M140.009,33.664v-5.273l4.568-2.637l4.566,2.637v5.273
				l-4.566,2.637L140.009,33.664z M138.374,26.527l-4.568-2.637v-5.273l4.568-2.637l4.566,2.637v5.273L138.374,26.527z
				 M127.858,33.664v-5.273l4.568-2.637l4.568,2.637v5.273l-4.568,2.637L127.858,33.664z M123.978,17.275l2.246-1.295l4.566,2.637
				v5.273l-4.566,2.637l-2.246-1.297v11.07h8.449h12.15h12.15h9.576v-1.486l-1.994-1.15v-5.273l1.994-1.152v-2.807l-3.631,2.096
				l-4.566-2.637v-5.273l4.566-2.637l3.631,2.096V15.27l-1.994-1.152V8.844h-3.016v5.273l-4.566,2.637l-4.568-2.637V8.844h-3.016
				v5.273l-4.566,2.637l-4.568-2.637V8.844h-3.014v5.273l-4.568,2.637l-4.568-2.637V8.844h-3.881V17.275z"/>
		</defs>
		<clipPath id="SVGID_11_">
			<use xlink:href="#SVGID_10_"  overflow="visible"/>
		</clipPath>
		
			<radialGradient id="SVGID_12_" cx="209.6533" cy="68.3477" r="0.9993" gradientTransform="matrix(0 -12.5851 -26.3374 0 1945.2344 2661.0703)" gradientUnits="userSpaceOnUse">
			<stop  offset="0" style="stop-color:#858585"/>
			<stop  offset="1" style="stop-color:#1C1D20"/>
		</radialGradient>
		<rect x="123.978" y="8.844" clip-path="url(#SVGID_11_)" fill="url(#SVGID_12_)" width="42.326" height="27.457"/>
	</g>
	<g>
		<defs>
			<rect id="SVGID_13_" x="58.923" y="8.844" width="7.264" height="27.457"/>
		</defs>
		<clipPath id="SVGID_14_">
			<use xlink:href="#SVGID_13_"  overflow="visible"/>
		</clipPath>
		
			<linearGradient id="SVGID_15_" gradientUnits="userSpaceOnUse" x1="-190.9717" y1="71.6074" x2="-189.9717" y2="71.6074" gradientTransform="matrix(0 -27.4575 -27.4575 0 2028.6875 -5207.3125)">
			<stop  offset="0" style="stop-color:#1C1D20"/>
			<stop  offset="0.0466" style="stop-color:#2E3032"/>
			<stop  offset="0.0973" style="stop-color:#3F3F41"/>
			<stop  offset="0.1525" style="stop-color:#4E4C4D"/>
			<stop  offset="0.2128" style="stop-color:#595757"/>
			<stop  offset="0.281" style="stop-color:#605F5F"/>
			<stop  offset="0.3635" style="stop-color:#656363"/>
			<stop  offset="0.5" style="stop-color:#666564"/>
			<stop  offset="0.6365" style="stop-color:#656363"/>
			<stop  offset="0.719" style="stop-color:#605F5F"/>
			<stop  offset="0.7872" style="stop-color:#595757"/>
			<stop  offset="0.8475" style="stop-color:#4E4C4D"/>
			<stop  offset="0.9027" style="stop-color:#3F3F41"/>
			<stop  offset="0.9534" style="stop-color:#2E3032"/>
			<stop  offset="1" style="stop-color:#1C1D20"/>
		</linearGradient>
		<rect x="58.923" y="8.844" clip-path="url(#SVGID_14_)" fill="url(#SVGID_15_)" width="7.264" height="27.457"/>
	</g>
	<g>
		<defs>
			<rect id="SVGID_16_" x="116.774" y="8.844" width="7.262" height="27.457"/>
		</defs>
		<clipPath id="SVGID_17_">
			<use xlink:href="#SVGID_16_"  overflow="visible"/>
		</clipPath>
		
			<linearGradient id="SVGID_18_" gradientUnits="userSpaceOnUse" x1="-190.9717" y1="71.6035" x2="-189.9717" y2="71.6035" gradientTransform="matrix(0 -27.4575 -27.4575 0 2086.4375 -5207.3125)">
			<stop  offset="0" style="stop-color:#1C1D20"/>
			<stop  offset="0.0466" style="stop-color:#2E3032"/>
			<stop  offset="0.0973" style="stop-color:#3F3F41"/>
			<stop  offset="0.1525" style="stop-color:#4E4C4D"/>
			<stop  offset="0.2128" style="stop-color:#595757"/>
			<stop  offset="0.281" style="stop-color:#605F5F"/>
			<stop  offset="0.3635" style="stop-color:#656363"/>
			<stop  offset="0.5" style="stop-color:#666564"/>
			<stop  offset="0.6365" style="stop-color:#656363"/>
			<stop  offset="0.719" style="stop-color:#605F5F"/>
			<stop  offset="0.7872" style="stop-color:#595757"/>
			<stop  offset="0.8475" style="stop-color:#4E4C4D"/>
			<stop  offset="0.9027" style="stop-color:#3F3F41"/>
			<stop  offset="0.9534" style="stop-color:#2E3032"/>
			<stop  offset="1" style="stop-color:#1C1D20"/>
		</linearGradient>
		<rect x="116.774" y="8.844" clip-path="url(#SVGID_17_)" fill="url(#SVGID_18_)" width="7.262" height="27.457"/>
	</g>
	<rect x="176.089" y="11.618" fill="#78787A" width="2.832" height="22.321"/>
	<rect x="184.649" y="14.393" fill="#78787A" width="2.832" height="19.547"/>
	<rect x="193.21" y="21.254" fill="#78787A" width="2.831" height="12.684"/>
	<g>
		<defs>
			<rect id="SVGID_19_" y="0.002" width="5.088" height="43.332"/>
		</defs>
		<clipPath id="SVGID_20_">
			<use xlink:href="#SVGID_19_"  overflow="visible"/>
		</clipPath>
		
			<linearGradient id="SVGID_21_" gradientUnits="userSpaceOnUse" x1="-117.6807" y1="1977.5645" x2="-116.6807" y2="1977.5645" gradientTransform="matrix(5.0879 0 0 -5.0879 598.6133 10083.3164)">
			<stop  offset="0" style="stop-color:#703631"/>
			<stop  offset="0.0327" style="stop-color:#89443A"/>
			<stop  offset="0.074" style="stop-color:#A05245"/>
			<stop  offset="0.1228" style="stop-color:#B35E4E"/>
			<stop  offset="0.1831" style="stop-color:#C06755"/>
			<stop  offset="0.2675" style="stop-color:#C86C59"/>
			<stop  offset="0.5" style="stop-color:#CA6D5A"/>
			<stop  offset="0.7325" style="stop-color:#C86C59"/>
			<stop  offset="0.8169" style="stop-color:#C06755"/>
			<stop  offset="0.8772" style="stop-color:#B35E4E"/>
			<stop  offset="0.926" style="stop-color:#A05245"/>
			<stop  offset="0.9673" style="stop-color:#89443A"/>
			<stop  offset="1" style="stop-color:#703631"/>
		</linearGradient>
		<rect y="0.002" clip-path="url(#SVGID_20_)" fill="url(#SVGID_21_)" width="5.088" height="43.332"/>
	</g>
</g>
</svg>
