<?xml version="1.0" encoding="utf-8"?>
<!-- Generator: Adobe Illustrator 16.0.0, SVG Export Plug-In . SVG Version: 6.00 Build 0)  -->
<!DOCTYPE svg PUBLIC "-//W3C//DTD SVG 1.1//EN" "http://www.w3.org/Graphics/SVG/1.1/DTD/svg11.dtd">
<svg version="1.1" id="图层_1" xmlns="http://www.w3.org/2000/svg" xmlns:xlink="http://www.w3.org/1999/xlink" x="0px" y="0px"
	 width="41.69px" height="240.54px" viewBox="0 0 41.69 240.54" enable-background="new 0 0 41.69 240.54" xml:space="preserve">
<g>
	<linearGradient id="SVGID_1_" gradientUnits="userSpaceOnUse" x1="20.8462" y1="21.7188" x2="20.8462" y2="238.8155">
		<stop  offset="0" style="stop-color:#AAABA7"/>
		<stop  offset="0.0147" style="stop-color:#373836"/>
		<stop  offset="0.7843" style="stop-color:#AAA39E"/>
		<stop  offset="0.9069" style="stop-color:#C3BEBA"/>
		<stop  offset="0.9363" style="stop-color:#130E0E"/>
	</linearGradient>
	<rect y="21.719" fill="url(#SVGID_1_)" width="41.693" height="218.818"/>
	<rect x="5.139" y="80.133" fill="#393A3A" width="31.5" height="92.125"/>
	<g>
		<rect fill="#3D3D3F" width="41.693" height="21.719"/>
		<circle fill="#2F3030" stroke="#050101" stroke-width="0.75" stroke-miterlimit="10" cx="12.042" cy="10.407" r="2.569"/>
		<circle fill="#2F3030" stroke="#050101" stroke-width="0.75" stroke-miterlimit="10" cx="29.544" cy="10.407" r="2.569"/>
		<rect x="5.139" y="28.133" fill="#1D1D1D" width="31.5" height="46.941"/>
		<polygon fill="#0C0C0C" points="18.605,80.133 16.158,84.372 18.605,88.611 23.5,88.611 25.947,84.372 23.5,80.133 		"/>
		<polygon fill="#0C0C0C" points="18.605,90.852 16.158,95.091 18.605,99.33 23.5,99.33 25.947,95.091 23.5,90.852 		"/>
		<polygon fill="#0C0C0C" points="18.605,100.963 16.158,105.202 18.605,109.441 23.5,109.441 25.947,105.202 23.5,100.963 		"/>
		<polygon fill="#0C0C0C" points="18.605,111.682 16.158,115.921 18.605,120.16 23.5,120.16 25.947,115.921 23.5,111.682 		"/>
		<polygon fill="#0C0C0C" points="18.605,121.809 16.158,126.049 18.605,130.289 23.5,130.289 25.947,126.049 23.5,121.809 		"/>
		<polygon fill="#0C0C0C" points="18.605,132.527 16.158,136.768 18.605,141.006 23.5,141.006 25.947,136.768 23.5,132.527 		"/>
		<polygon fill="#0C0C0C" points="18.605,142.641 16.158,146.879 18.605,151.119 23.5,151.119 25.947,146.879 23.5,142.641 		"/>
		<polygon fill="#0C0C0C" points="18.605,153.357 16.158,157.598 18.605,161.836 23.5,161.836 25.947,157.598 23.5,153.357 		"/>
		<polygon fill="#0C0C0C" points="18.605,163.713 16.158,167.953 18.605,172.191 23.5,172.191 25.947,167.953 23.5,163.713 		"/>
		<polygon fill="#0C0C0C" points="9.152,85.23 6.705,89.471 9.152,93.709 14.047,93.709 16.494,89.471 14.047,85.23 		"/>
		<polygon fill="#0C0C0C" points="9.152,95.949 6.705,100.189 9.152,104.428 14.047,104.428 16.494,100.189 14.047,95.949 		"/>
		<polygon fill="#0C0C0C" points="9.152,106.063 6.705,110.301 9.152,114.539 14.047,114.539 16.494,110.301 14.047,106.063 		"/>
		<polygon fill="#0C0C0C" points="9.152,116.781 6.705,121.02 9.152,125.26 14.047,125.26 16.494,121.02 14.047,116.781 		"/>
		<polygon fill="#0C0C0C" points="9.152,126.908 6.705,131.146 9.152,135.387 14.047,135.387 16.494,131.146 14.047,126.908 		"/>
		<polygon fill="#0C0C0C" points="9.152,137.627 6.705,141.865 9.152,146.105 14.047,146.105 16.494,141.865 14.047,137.627 		"/>
		<polygon fill="#0C0C0C" points="9.152,147.738 6.705,151.979 9.152,156.217 14.047,156.217 16.494,151.979 14.047,147.738 		"/>
		<polygon fill="#0C0C0C" points="9.152,158.457 6.705,162.697 9.152,166.936 14.047,166.936 16.494,162.697 14.047,158.457 		"/>
		<polygon fill="#0C0C0C" points="27.645,85.23 25.197,89.471 27.645,93.709 32.541,93.709 34.988,89.471 32.541,85.23 		"/>
		<polygon fill="#0C0C0C" points="27.645,95.949 25.197,100.189 27.645,104.428 32.541,104.428 34.988,100.189 32.541,95.949 		"/>
		<polygon fill="#0C0C0C" points="27.645,106.063 25.197,110.301 27.645,114.539 32.541,114.539 34.988,110.301 32.541,106.063 		
			"/>
		<polygon fill="#0C0C0C" points="27.645,116.781 25.197,121.02 27.645,125.26 32.541,125.26 34.988,121.02 32.541,116.781 		"/>
		<polygon fill="#0C0C0C" points="27.645,126.908 25.197,131.146 27.645,135.387 32.541,135.387 34.988,131.146 32.541,126.908 		
			"/>
		<polygon fill="#0C0C0C" points="27.645,137.627 25.197,141.865 27.645,146.105 32.541,146.105 34.988,141.865 32.541,137.627 		
			"/>
		<polygon fill="#0C0C0C" points="27.645,147.738 25.197,151.979 27.645,156.217 32.541,156.217 34.988,151.979 32.541,147.738 		
			"/>
		<polygon fill="#0C0C0C" points="27.645,158.457 25.197,162.697 27.645,166.936 32.541,166.936 34.988,162.697 32.541,158.457 		
			"/>
	</g>
</g>
</svg>
