<?xml version="1.0" encoding="utf-8"?>
<!-- Generator: Adobe Illustrator 16.0.0, SVG Export Plug-In . SVG Version: 6.00 Build 0)  -->
<!DOCTYPE svg PUBLIC "-//W3C//DTD SVG 1.1//EN" "http://www.w3.org/Graphics/SVG/1.1/DTD/svg11.dtd">
<svg version="1.1" id="图层_1" xmlns="http://www.w3.org/2000/svg" xmlns:xlink="http://www.w3.org/1999/xlink" x="0px" y="0px"
	 width="43.33px" height="213.32px" viewBox="0 0 43.33 213.32" enable-background="new 0 0 43.33 213.32" xml:space="preserve">
<g>
	<rect x="0.002" fill="#3D3D3F" width="43.332" height="205.089"/>
	<g>
		<defs>
			<rect id="SVGID_1_" y="205.095" width="43.334" height="8.229"/>
		</defs>
		<clipPath id="SVGID_2_">
			<use xlink:href="#SVGID_1_"  overflow="visible"/>
		</clipPath>
		
			<linearGradient id="SVGID_3_" gradientUnits="userSpaceOnUse" x1="-1636.2319" y1="1325.2695" x2="-1635.2316" y2="1325.2695" gradientTransform="matrix(0 7 7 0 -9255.2188 11659.543)">
			<stop  offset="0" style="stop-color:#3D3D3F"/>
			<stop  offset="0.1854" style="stop-color:#46474A"/>
			<stop  offset="0.3005" style="stop-color:#454649"/>
			<stop  offset="0.3601" style="stop-color:#424245"/>
			<stop  offset="0.4069" style="stop-color:#3B3C3F"/>
			<stop  offset="0.4469" style="stop-color:#333437"/>
			<stop  offset="0.4762" style="stop-color:#2A2B2E"/>
			<stop  offset="0.7296" style="stop-color:#282A2D"/>
			<stop  offset="0.8704" style="stop-color:#242629"/>
			<stop  offset="0.9835" style="stop-color:#1E1F22"/>
			<stop  offset="1" style="stop-color:#1C1E21"/>
		</linearGradient>
		<rect y="205.095" clip-path="url(#SVGID_2_)" fill="url(#SVGID_3_)" width="43.334" height="8.229"/>
	</g>
	<rect x="7.034" y="16.596" fill="#1F2123" width="27.458" height="149.708"/>
	<path fill="#3D3D3F" d="M29.219,88.981l-2.637-4.566l2.637-4.566h5.273v-3.016h-5.273l-2.637-4.568l2.637-4.566h5.273v-1.514
		h-7.207l-2.566,4.445h-5.273l-2.567-4.445H7.035v6.08l2.636-4.566h5.275l2.636,4.566l-2.636,4.568H9.671l-2.636-4.568v12.15
		l2.636-4.566h5.275l2.636,4.566l-2.636,4.566H9.671l-2.636-4.566v12.15l2.636-4.566h5.275l2.636,4.566l-2.636,4.566H9.671
		l-2.636-4.566v12.15l2.636-4.568h5.275l2.636,4.568l-2.636,4.566H9.671l-2.636-4.566v8.059h2.361l0.274-0.477h5.275l0.274,0.477
		h2.808l-1.221-2.113l2.638-4.566h5.273l2.637,4.566l-1.22,2.113h2.809l0.274-0.477h5.273v-3.016h-5.273l-2.637-4.566l2.637-4.568
		h5.273v-3.016h-5.273l-2.637-4.566l2.637-4.566h5.273v-3.018H29.219z M16.807,78.212l2.638-4.566h5.273l2.637,4.566l-2.637,4.566
		h-5.273L16.807,78.212z M27.355,102.513l-2.637,4.566h-5.273l-2.638-4.566l2.638-4.568h5.273L27.355,102.513z M24.719,94.929
		h-5.273l-2.638-4.566l2.638-4.566h5.273l2.637,4.566L24.719,94.929z"/>
	<polygon fill="#1C1D20" points="28.943,116.774 34.492,116.774 34.492,116.298 29.219,116.298 	"/>
	<polygon fill="#1C1D20" points="9.671,116.298 9.396,116.774 15.221,116.774 14.945,116.298 	"/>
	<g>
		<defs>
			<path id="SVGID_4_" d="M9.671,104.149h5.274l2.637,4.564l-2.637,4.568H9.671l-2.637-4.568L9.671,104.149z M16.808,102.511
				l2.637-4.566h5.273l2.637,4.566l-2.637,4.568h-5.273L16.808,102.511z M9.671,91.999h5.274l2.637,4.566l-2.637,4.566H9.671
				l-2.637-4.566L9.671,91.999z M16.808,90.362l2.637-4.568h5.273l2.637,4.568l-2.637,4.566h-5.273L16.808,90.362z M9.671,79.849
				h5.274l2.637,4.566l-2.637,4.568H9.671l-2.637-4.568L9.671,79.849z M16.808,78.212l2.637-4.566h5.273l2.637,4.566l-2.637,4.568
				h-5.273L16.808,78.212z M9.671,67.698h5.274l2.637,4.566l-2.637,4.568H9.671l-2.637-4.568L9.671,67.698z M27.285,66.187
				l-2.566,4.443h-5.273l-2.567-4.443H7.034v6.078v12.15v12.15v12.148v8.061h2.363l0.273-0.477h5.274l0.276,0.477h2.807l-1.22-2.113
				l2.637-4.566h5.273l2.637,4.566l-1.219,2.113h2.807l0.275-0.477h5.273v-3.016h-5.273l-2.638-4.568l2.638-4.564h5.273v-3.018
				h-5.273l-2.638-4.566l2.638-4.566h5.273v-3.016h-5.273l-2.638-4.568l2.638-4.566h5.273v-3.016h-5.273l-2.638-4.568l2.638-4.566
				h5.273v-1.512H27.285z"/>
		</defs>
		<clipPath id="SVGID_5_">
			<use xlink:href="#SVGID_4_"  overflow="visible"/>
		</clipPath>
		
			<radialGradient id="SVGID_6_" cx="-135.0386" cy="429.2598" r="0.9997" gradientTransform="matrix(15.9302 0 0 -36.4233 2171.9531 15726.5313)" gradientUnits="userSpaceOnUse">
			<stop  offset="0" style="stop-color:#858585"/>
			<stop  offset="1" style="stop-color:#1C1D20"/>
		</radialGradient>
		<rect x="7.034" y="66.187" clip-path="url(#SVGID_5_)" fill="url(#SVGID_6_)" width="27.458" height="50.588"/>
	</g>
	<g>
		<defs>
			<path id="SVGID_7_" d="M9.671,44.777h5.274l2.637,4.567l-2.637,4.566H9.671l-2.637-4.566L9.671,44.777z M16.808,43.141
				l2.637-4.566h5.273l2.637,4.566l-2.637,4.569h-5.273L16.808,43.141z M9.671,32.627h5.274l2.637,4.568l-2.637,4.564H9.671
				l-2.637-4.564L9.671,32.627z M16.808,30.992l2.637-4.568h5.273l2.637,4.568l-2.637,4.566h-5.273L16.808,30.992z M9.671,20.477
				h5.274l2.637,4.568l-2.637,4.566H9.671l-2.637-4.566L9.671,20.477z M26.059,16.596l1.297,2.246l-2.637,4.566h-5.273l-2.637-4.566
				l1.296-2.246H7.034v8.449v12.15v12.149v9.578h1.486l1.15-1.996h5.274l1.152,1.996h2.807l-2.096-3.632l2.637-4.565h5.273
				l2.637,4.565l-2.096,3.632h2.807l1.152-1.996h5.273v-3.016h-5.273l-2.638-4.566l2.638-4.567h5.273V41.76h-5.273l-2.638-4.564
				l2.638-4.568h5.273v-3.016h-5.273l-2.638-4.566l2.638-4.568h5.273v-3.881H26.059z"/>
		</defs>
		<clipPath id="SVGID_8_">
			<use xlink:href="#SVGID_7_"  overflow="visible"/>
		</clipPath>
		
			<radialGradient id="SVGID_9_" cx="-7.4736" cy="504.4297" r="1.0004" gradientTransform="matrix(12.5851 0 0 -26.3374 114.8125 13323.1406)" gradientUnits="userSpaceOnUse">
			<stop  offset="0" style="stop-color:#858585"/>
			<stop  offset="1" style="stop-color:#1C1D20"/>
		</radialGradient>
		<rect x="7.034" y="16.596" clip-path="url(#SVGID_8_)" fill="url(#SVGID_9_)" width="27.458" height="42.327"/>
	</g>
	<g>
		<defs>
			<path id="SVGID_10_" d="M9.671,152.159h5.274l2.637,4.568l-2.637,4.566H9.671l-2.637-4.566L9.671,152.159z M16.808,150.522
				l2.637-4.566h5.273l2.637,4.566l-2.637,4.568h-5.273L16.808,150.522z M9.671,140.009h5.274l2.637,4.568l-2.637,4.566H9.671
				l-2.637-4.566L9.671,140.009z M16.808,138.374l2.637-4.568h5.273l2.637,4.568l-2.637,4.566h-5.273L16.808,138.374z
				 M9.671,127.858h5.274l2.637,4.568l-2.637,4.568H9.671l-2.637-4.568L9.671,127.858z M26.059,123.978l1.297,2.246l-2.637,4.566
				h-5.273l-2.637-4.566l1.296-2.246H7.034v8.449v12.15v12.15v9.576h1.486l1.15-1.994h5.274l1.152,1.994h2.807l-2.096-3.631
				l2.637-4.566h5.273l2.637,4.566l-2.096,3.631h2.807l1.152-1.994h5.273v-3.016h-5.273l-2.638-4.566l2.638-4.568h5.273v-3.016
				h-5.273l-2.638-4.566l2.638-4.568h5.273v-3.014h-5.273l-2.638-4.568l2.638-4.568h5.273v-3.881H26.059z"/>
		</defs>
		<clipPath id="SVGID_11_">
			<use xlink:href="#SVGID_10_"  overflow="visible"/>
		</clipPath>
		
			<radialGradient id="SVGID_12_" cx="-7.4736" cy="504.4277" r="0.9996" gradientTransform="matrix(12.5851 0 0 -26.3374 114.8125 13430.4375)" gradientUnits="userSpaceOnUse">
			<stop  offset="0" style="stop-color:#858585"/>
			<stop  offset="1" style="stop-color:#1C1D20"/>
		</radialGradient>
		<rect x="7.034" y="123.978" clip-path="url(#SVGID_11_)" fill="url(#SVGID_12_)" width="27.458" height="42.326"/>
	</g>
	<g>
		<defs>
			<rect id="SVGID_13_" x="7.034" y="58.923" width="27.458" height="7.264"/>
		</defs>
		<clipPath id="SVGID_14_">
			<use xlink:href="#SVGID_13_"  overflow="visible"/>
		</clipPath>
		
			<linearGradient id="SVGID_15_" gradientUnits="userSpaceOnUse" x1="-336.5317" y1="493.3633" x2="-335.5317" y2="493.3633" gradientTransform="matrix(27.4575 0 0 -27.4575 9247.3594 13609.0781)">
			<stop  offset="0" style="stop-color:#1C1D20"/>
			<stop  offset="0.0466" style="stop-color:#2E3032"/>
			<stop  offset="0.0973" style="stop-color:#3F3F41"/>
			<stop  offset="0.1525" style="stop-color:#4E4C4D"/>
			<stop  offset="0.2128" style="stop-color:#595757"/>
			<stop  offset="0.281" style="stop-color:#605F5F"/>
			<stop  offset="0.3635" style="stop-color:#656363"/>
			<stop  offset="0.5" style="stop-color:#666564"/>
			<stop  offset="0.6365" style="stop-color:#656363"/>
			<stop  offset="0.719" style="stop-color:#605F5F"/>
			<stop  offset="0.7872" style="stop-color:#595757"/>
			<stop  offset="0.8475" style="stop-color:#4E4C4D"/>
			<stop  offset="0.9027" style="stop-color:#3F3F41"/>
			<stop  offset="0.9534" style="stop-color:#2E3032"/>
			<stop  offset="1" style="stop-color:#1C1D20"/>
		</linearGradient>
		<rect x="7.034" y="58.923" clip-path="url(#SVGID_14_)" fill="url(#SVGID_15_)" width="27.458" height="7.264"/>
	</g>
	<g>
		<defs>
			<rect id="SVGID_16_" x="7.034" y="116.774" width="27.458" height="7.262"/>
		</defs>
		<clipPath id="SVGID_17_">
			<use xlink:href="#SVGID_16_"  overflow="visible"/>
		</clipPath>
		
			<linearGradient id="SVGID_18_" gradientUnits="userSpaceOnUse" x1="-336.5317" y1="493.3594" x2="-335.5317" y2="493.3594" gradientTransform="matrix(27.4575 0 0 -27.4575 9247.3594 13666.8281)">
			<stop  offset="0" style="stop-color:#1C1D20"/>
			<stop  offset="0.0466" style="stop-color:#2E3032"/>
			<stop  offset="0.0973" style="stop-color:#3F3F41"/>
			<stop  offset="0.1525" style="stop-color:#4E4C4D"/>
			<stop  offset="0.2128" style="stop-color:#595757"/>
			<stop  offset="0.281" style="stop-color:#605F5F"/>
			<stop  offset="0.3635" style="stop-color:#656363"/>
			<stop  offset="0.5" style="stop-color:#666564"/>
			<stop  offset="0.6365" style="stop-color:#656363"/>
			<stop  offset="0.719" style="stop-color:#605F5F"/>
			<stop  offset="0.7872" style="stop-color:#595757"/>
			<stop  offset="0.8475" style="stop-color:#4E4C4D"/>
			<stop  offset="0.9027" style="stop-color:#3F3F41"/>
			<stop  offset="0.9534" style="stop-color:#2E3032"/>
			<stop  offset="1" style="stop-color:#1C1D20"/>
		</linearGradient>
		<rect x="7.034" y="116.774" clip-path="url(#SVGID_17_)" fill="url(#SVGID_18_)" width="27.458" height="7.262"/>
	</g>
</g>
</svg>
