<?xml version="1.0" encoding="utf-8"?>
<!-- Generator: Adobe Illustrator 16.0.0, SVG Export Plug-In . SVG Version: 6.00 Build 0)  -->
<!DOCTYPE svg PUBLIC "-//W3C//DTD SVG 1.1//EN" "http://www.w3.org/Graphics/SVG/1.1/DTD/svg11.dtd">
<svg version="1.1" id="图层_1" xmlns="http://www.w3.org/2000/svg" xmlns:xlink="http://www.w3.org/1999/xlink" x="0px" y="0px"
	 width="245.94px" height="40.74px" viewBox="0 0 245.94 40.74" enable-background="new 0 0 245.94 40.74" xml:space="preserve">
<g>
	<g>
		<rect y="0" fill="#323333" width="245.94" height="40.74"/>
		<rect x="208.69" y="0" fill="#3F3F3F" width="36.991" height="40.74"/>
		<rect x="205.652" y="0" fill="#E4E981" width="3.038" height="40.74"/>
		<rect x="4.91" y="3.41" fill="#323333" stroke="#101010" stroke-miterlimit="10" width="25.196" height="33.92"/>
	</g>
	<g>
		<defs>
			<rect id="SVGID_1_" y="0" width="245.94" height="40.74"/>
		</defs>
		<clipPath id="SVGID_2_">
			<use xlink:href="#SVGID_1_"  overflow="visible"/>
		</clipPath>
		<polygon clip-path="url(#SVGID_2_)" fill="#040000" points="46.204,39.707 43.119,34.363 46.204,29.023 52.373,29.023 
			55.457,34.363 52.373,39.707 		"/>
		<polygon clip-path="url(#SVGID_2_)" fill="#040000" points="68.859,39.707 65.775,34.363 68.859,29.023 75.029,29.023 
			78.113,34.363 75.029,39.707 		"/>
		<polygon clip-path="url(#SVGID_2_)" fill="#040000" points="91.518,39.707 88.432,34.363 91.518,29.023 97.686,29.023 
			100.768,34.363 97.686,39.707 		"/>
		<polygon clip-path="url(#SVGID_2_)" fill="#040000" points="114.172,39.707 111.088,34.363 114.172,29.023 120.341,29.023 
			123.425,34.363 120.341,39.707 		"/>
		<polygon clip-path="url(#SVGID_2_)" fill="#040000" points="136.826,39.707 133.744,34.363 136.826,29.023 142.996,29.023 
			146.081,34.363 142.996,39.707 		"/>
		<polygon clip-path="url(#SVGID_2_)" fill="#040000" points="159.484,39.707 156.4,34.363 159.484,29.023 165.652,29.023 
			168.736,34.363 165.652,39.707 		"/>
		<polygon clip-path="url(#SVGID_2_)" fill="#040000" points="182.141,39.707 179.055,34.363 182.141,29.023 188.308,29.023 
			191.394,34.363 188.308,39.707 		"/>
		<polygon clip-path="url(#SVGID_2_)" fill="#040000" points="46.204,11.282 43.119,5.941 46.204,0.598 52.373,0.598 55.457,5.941 
			52.373,11.282 		"/>
		<polygon clip-path="url(#SVGID_2_)" fill="#040000" points="46.204,25.494 43.119,20.153 46.204,14.811 52.373,14.811 
			55.457,20.153 52.373,25.494 		"/>
		<polygon clip-path="url(#SVGID_2_)" fill="#040000" points="68.859,11.282 65.775,5.941 68.859,0.598 75.029,0.598 78.113,5.941 
			75.029,11.282 		"/>
		<polygon clip-path="url(#SVGID_2_)" fill="#040000" points="68.859,25.494 65.775,20.153 68.859,14.811 75.029,14.811 
			78.113,20.153 75.029,25.494 		"/>
		<polygon clip-path="url(#SVGID_2_)" fill="#040000" points="91.518,11.282 88.432,5.941 91.518,0.598 97.686,0.598 100.768,5.941 
			97.686,11.282 		"/>
		<polygon clip-path="url(#SVGID_2_)" fill="#040000" points="91.518,25.494 88.432,20.153 91.518,14.811 97.686,14.811 
			100.768,20.153 97.686,25.494 		"/>
		<polygon clip-path="url(#SVGID_2_)" fill="#040000" points="114.172,11.282 111.088,5.941 114.172,0.598 120.341,0.598 
			123.425,5.941 120.341,11.282 		"/>
		<polygon clip-path="url(#SVGID_2_)" fill="#040000" points="114.172,25.494 111.088,20.153 114.172,14.811 120.341,14.811 
			123.425,20.153 120.341,25.494 		"/>
		<polygon clip-path="url(#SVGID_2_)" fill="#040000" points="136.826,11.282 133.744,5.941 136.826,0.598 142.996,0.598 
			146.081,5.941 142.996,11.282 		"/>
		<polygon clip-path="url(#SVGID_2_)" fill="#040000" points="136.826,25.494 133.744,20.153 136.826,14.811 142.996,14.811 
			146.081,20.153 142.996,25.494 		"/>
		<polygon clip-path="url(#SVGID_2_)" fill="#040000" points="159.484,11.282 156.4,5.941 159.484,0.598 165.652,0.598 
			168.736,5.941 165.652,11.282 		"/>
		<polygon clip-path="url(#SVGID_2_)" fill="#040000" points="159.484,25.494 156.4,20.153 159.484,14.811 165.652,14.811 
			168.736,20.153 165.652,25.494 		"/>
		<polygon clip-path="url(#SVGID_2_)" fill="#040000" points="182.141,11.282 179.055,5.941 182.141,0.598 188.308,0.598 
			191.394,5.941 188.308,11.282 		"/>
		<polygon clip-path="url(#SVGID_2_)" fill="#040000" points="182.141,25.494 179.055,20.153 182.141,14.811 188.308,14.811 
			191.394,20.153 188.308,25.494 		"/>
		<polygon clip-path="url(#SVGID_2_)" fill="#040000" points="57.533,-6.212 54.447,-0.87 57.533,4.471 63.701,4.471 66.785,-0.87 
			63.701,-6.212 		"/>
		<polygon clip-path="url(#SVGID_2_)" fill="#040000" points="57.533,7.999 54.447,13.342 57.533,18.684 63.701,18.684 
			66.785,13.342 63.701,7.999 		"/>
		<polygon clip-path="url(#SVGID_2_)" fill="#040000" points="57.533,22.213 54.447,27.553 57.533,32.896 63.701,32.896 
			66.785,27.553 63.701,22.213 		"/>
		<polygon clip-path="url(#SVGID_2_)" fill="#040000" points="80.187,-6.212 77.104,-0.87 80.187,4.471 86.357,4.471 89.441,-0.87 
			86.357,-6.212 		"/>
		<polygon clip-path="url(#SVGID_2_)" fill="#040000" points="80.187,7.999 77.104,13.342 80.187,18.684 86.357,18.684 
			89.441,13.342 86.357,7.999 		"/>
		<polygon clip-path="url(#SVGID_2_)" fill="#040000" points="80.187,22.213 77.104,27.553 80.187,32.896 86.357,32.896 
			89.441,27.553 86.357,22.213 		"/>
		<polygon clip-path="url(#SVGID_2_)" fill="#040000" points="102.844,-6.212 99.76,-0.87 102.844,4.471 109.014,4.471 
			112.097,-0.87 109.014,-6.212 		"/>
		<polygon clip-path="url(#SVGID_2_)" fill="#040000" points="102.844,7.999 99.76,13.342 102.844,18.684 109.014,18.684 
			112.097,13.342 109.014,7.999 		"/>
		<polygon clip-path="url(#SVGID_2_)" fill="#040000" points="102.844,22.213 99.76,27.553 102.844,32.896 109.014,32.896 
			112.097,27.553 109.014,22.213 		"/>
		<polygon clip-path="url(#SVGID_2_)" fill="#040000" points="125.5,-6.212 122.416,-0.87 125.5,4.471 131.67,4.471 134.752,-0.87 
			131.67,-6.212 		"/>
		<polygon clip-path="url(#SVGID_2_)" fill="#040000" points="125.5,7.999 122.416,13.342 125.5,18.684 131.67,18.684 
			134.752,13.342 131.67,7.999 		"/>
		<polygon clip-path="url(#SVGID_2_)" fill="#040000" points="125.5,22.213 122.416,27.553 125.5,32.896 131.67,32.896 
			134.752,27.553 131.67,22.213 		"/>
		<polygon clip-path="url(#SVGID_2_)" fill="#040000" points="148.155,-6.212 145.07,-0.87 148.155,4.471 154.326,4.471 
			157.409,-0.87 154.326,-6.212 		"/>
		<polygon clip-path="url(#SVGID_2_)" fill="#040000" points="148.155,7.999 145.07,13.342 148.155,18.684 154.326,18.684 
			157.409,13.342 154.326,7.999 		"/>
		<polygon clip-path="url(#SVGID_2_)" fill="#040000" points="148.155,22.213 145.07,27.553 148.155,32.896 154.326,32.896 
			157.409,27.553 154.326,22.213 		"/>
		<polygon clip-path="url(#SVGID_2_)" fill="#040000" points="170.811,-6.212 167.727,-0.87 170.811,4.471 176.98,4.471 
			180.066,-0.87 176.98,-6.212 		"/>
		<polygon clip-path="url(#SVGID_2_)" fill="#040000" points="57.533,36.268 54.447,41.609 57.533,46.951 63.701,46.951 
			66.785,41.609 63.701,36.268 		"/>
		<polygon clip-path="url(#SVGID_2_)" fill="#040000" points="80.187,36.268 77.104,41.609 80.187,46.951 86.357,46.951 
			89.441,41.609 86.357,36.268 		"/>
		<polygon clip-path="url(#SVGID_2_)" fill="#040000" points="102.844,36.268 99.76,41.609 102.844,46.951 109.014,46.951 
			112.097,41.609 109.014,36.268 		"/>
		<polygon clip-path="url(#SVGID_2_)" fill="#040000" points="125.5,36.268 122.416,41.609 125.5,46.951 131.67,46.951 
			134.752,41.609 131.67,36.268 		"/>
		<polygon clip-path="url(#SVGID_2_)" fill="#040000" points="148.155,36.268 145.07,41.609 148.155,46.951 154.326,46.951 
			157.409,41.609 154.326,36.268 		"/>
		<polygon clip-path="url(#SVGID_2_)" fill="#040000" points="170.811,36.268 167.727,41.609 170.811,46.951 176.98,46.951 
			180.066,41.609 176.98,36.268 		"/>
		<polygon clip-path="url(#SVGID_2_)" fill="#040000" points="170.811,7.999 167.727,13.342 170.811,18.684 176.98,18.684 
			180.066,13.342 176.98,7.999 		"/>
		<polygon clip-path="url(#SVGID_2_)" fill="#040000" points="170.811,22.213 167.727,27.553 170.811,32.896 176.98,32.896 
			180.066,27.553 176.98,22.213 		"/>
	</g>
</g>
</svg>
