<?xml version="1.0" encoding="utf-8"?>
<!-- Generator: Adobe Illustrator 16.0.0, SVG Export Plug-In . SVG Version: 6.00 Build 0)  -->
<!DOCTYPE svg PUBLIC "-//W3C//DTD SVG 1.1//EN" "http://www.w3.org/Graphics/SVG/1.1/DTD/svg11.dtd">
<svg version="1.1" id="图层_1" xmlns="http://www.w3.org/2000/svg" xmlns:xlink="http://www.w3.org/1999/xlink" x="0px" y="0px"
	 width="1276.59px" height="127.14px" viewBox="0 0 1276.59 127.14" enable-background="new 0 0 1276.59 127.14"
	 xml:space="preserve">
<g>
	<rect x="0.501" y="0.5" fill="#E5E5E4" width="1275.589" height="126.142"/>
	<path fill="#202020" d="M1276.59,127.142H0.001V0H1276.59V127.142z M1.001,126.142H1275.59V1H1.001V126.142z"/>
</g>
<g>
	<polygon fill="#C8C9CA" points="1174.103,86.042 1174.103,75.311 1176.144,75.311 1176.144,49.993 1174.103,49.993 
		1174.103,39.262 1176.144,39.262 1176.144,25.72 1131.79,25.72 1131.79,27.113 1121.058,27.113 1121.058,25.72 1087.087,25.72 
		1087.087,27.113 1076.356,27.113 1076.356,25.72 1042.509,25.72 1042.509,27.113 1031.778,27.113 1031.778,25.72 988.224,25.72 
		988.224,39.262 990.69,39.262 990.69,49.993 988.224,49.993 988.224,75.311 990.69,75.311 990.69,86.042 988.224,86.042 
		988.224,99.587 1031.778,99.587 1031.778,98.135 1042.509,98.135 1042.509,99.587 1076.356,99.587 1076.356,98.135 
		1087.087,98.135 1087.087,99.587 1121.058,99.587 1121.058,98.135 1131.79,98.135 1131.79,99.587 1176.144,99.587 1176.144,86.042 
			"/>
	<path fill="#202020" d="M1176.644,100.087h-45.354v-1.452h-9.732v1.452h-34.971v-1.452h-9.73v1.452h-34.848v-1.452h-9.73v1.452
		h-44.555V85.542h2.467v-9.731h-2.467V49.493h2.467v-9.731h-2.467V25.22h44.555v1.394h9.73V25.22h34.848v1.394h9.73V25.22h34.971
		v1.394h9.732V25.22h45.354v14.542h-2.041v9.731h2.041v26.317h-2.041v9.731h2.041V100.087z M1132.29,99.087h43.354V86.542h-2.041
		V74.811h2.041V50.493h-2.041V38.762h2.041V26.22h-43.354v1.394h-11.732V26.22h-32.971v1.394h-11.73V26.22h-32.848v1.394h-11.73
		V26.22h-42.555v12.542h2.467v11.731h-2.467v24.317h2.467v11.731h-2.467v12.545h42.555v-1.452h11.73v1.452h32.848v-1.452h11.73
		v1.452h32.971v-1.452h11.732V99.087z"/>
</g>
<g>
	<polygon fill="#C8C9CA" points="964.179,86.042 964.179,75.311 966.219,75.311 966.219,49.993 964.179,49.993 964.179,39.262 
		966.219,39.262 966.219,25.72 921.865,25.72 921.865,27.113 911.134,27.113 911.134,25.72 877.163,25.72 877.163,27.113 
		866.432,27.113 866.432,25.72 832.585,25.72 832.585,27.113 821.854,27.113 821.854,25.72 778.299,25.72 778.299,39.262 
		780.767,39.262 780.767,49.993 778.299,49.993 778.299,75.311 780.767,75.311 780.767,86.042 778.299,86.042 778.299,99.587 
		821.854,99.587 821.854,98.135 832.585,98.135 832.585,99.587 866.432,99.587 866.432,98.135 877.163,98.135 877.163,99.587 
		911.134,99.587 911.134,98.135 921.865,98.135 921.865,99.587 966.219,99.587 966.219,86.042 	"/>
	<path fill="#202020" d="M966.719,100.087h-45.354v-1.452h-9.731v1.452h-34.971v-1.452h-9.731v1.452h-34.847v-1.452h-9.731v1.452
		h-44.555V85.542h2.468v-9.731h-2.468V49.493h2.468v-9.731h-2.468V25.22h44.555v1.394h9.731V25.22h34.847v1.394h9.731V25.22h34.971
		v1.394h9.731V25.22h45.354v14.542h-2.04v9.731h2.04v26.317h-2.04v9.731h2.04V100.087z M922.365,99.087h43.354V86.542h-2.04V74.811
		h2.04V50.493h-2.04V38.762h2.04V26.22h-43.354v1.394h-11.731V26.22h-32.971v1.394h-11.731V26.22h-32.847v1.394h-11.731V26.22
		h-42.555v12.542h2.468v11.731h-2.468v24.317h2.468v11.731h-2.468v12.545h42.555v-1.452h11.731v1.452h32.847v-1.452h11.731v1.452
		h32.971v-1.452h11.731V99.087z"/>
</g>
<g>
	<polygon fill="#C8C9CA" points="754.253,86.042 754.253,75.311 756.294,75.311 756.294,49.993 754.253,49.993 754.253,39.262 
		756.294,39.262 756.294,25.72 711.94,25.72 711.94,27.113 701.209,27.113 701.209,25.72 667.239,25.72 667.239,27.113 
		656.507,27.113 656.507,25.72 622.661,25.72 622.661,27.113 611.929,27.113 611.929,25.72 568.375,25.72 568.375,39.262 
		570.842,39.262 570.842,49.993 568.375,49.993 568.375,75.311 570.842,75.311 570.842,86.042 568.375,86.042 568.375,99.587 
		611.929,99.587 611.929,98.135 622.661,98.135 622.661,99.587 656.507,99.587 656.507,98.135 667.239,98.135 667.239,99.587 
		701.209,99.587 701.209,98.135 711.94,98.135 711.94,99.587 756.294,99.587 756.294,86.042 	"/>
	<path fill="#202020" d="M756.794,100.087H711.44v-1.452h-9.731v1.452h-34.97v-1.452h-9.732v1.452h-34.846v-1.452h-9.731v1.452
		h-44.555V85.542h2.468v-9.731h-2.468V49.493h2.468v-9.731h-2.468V25.22h44.555v1.394h9.731V25.22h34.846v1.394h9.732V25.22h34.97
		v1.394h9.731V25.22h45.354v14.542h-2.041v9.731h2.041v26.317h-2.041v9.731h2.041V100.087z M712.44,99.087h43.354V86.542h-2.041
		V74.811h2.041V50.493h-2.041V38.762h2.041V26.22H712.44v1.394h-11.731V26.22h-32.97v1.394h-11.732V26.22h-32.846v1.394h-11.731
		V26.22h-42.555v12.542h2.468v11.731h-2.468v24.317h2.468v11.731h-2.468v12.545h42.555v-1.452h11.731v1.452h32.846v-1.452h11.732
		v1.452h32.97v-1.452h11.731V99.087z"/>
</g>
<g>
	<g>
		<path fill="#444344" d="M26.226,13.116c0-0.275-0.075-0.482-0.223-0.622c-0.15-0.138-0.41-0.208-0.781-0.208h-0.67v-0.623h5.022
			c2.306,0,4.147,0.693,5.525,2.076c1.376,1.386,2.064,3.529,2.064,6.437c0,3.184-0.669,5.519-2.009,7.006
			c-1.339,1.489-3.312,2.232-5.916,2.232H24.44v-0.623h0.781c0.371,0,0.631-0.068,0.781-0.208c0.148-0.138,0.223-0.345,0.223-0.622
			V13.116z M35.044,20.383c0-2.975-0.485-5.068-1.451-6.28c-0.968-1.21-2.308-1.816-4.019-1.816c-0.521,0-0.912,0.07-1.172,0.208
			c-0.262,0.14-0.391,0.347-0.391,0.622v14.845c0,0.277,0.111,0.484,0.335,0.622c0.224,0.14,0.52,0.208,0.893,0.208
			c1.636,0,3.013-0.571,4.129-1.713S35.044,23.705,35.044,20.383z"/>
		<path fill="#444344" d="M29.24,29.914H23.94v-1.623h1.281c0.351,0,0.44-0.074,0.441-0.074c0.041-0.038,0.063-0.131,0.063-0.256
			V13.116c0-0.073-0.008-0.204-0.066-0.258c-0.018-0.017-0.144-0.072-0.438-0.072h-1.17v-1.623h5.522
			c2.431,0,4.41,0.748,5.879,2.223c1.467,1.478,2.21,3.761,2.21,6.79c0,3.296-0.719,5.766-2.137,7.34
			C34.096,29.107,31.98,29.914,29.24,29.914z M26.379,28.914h1.571c-0.284-0.229-0.438-0.562-0.438-0.953V13.116
			c0-0.392,0.169-0.724,0.48-0.953h-1.613c0.232,0.238,0.347,0.558,0.347,0.953v14.845C26.726,28.36,26.609,28.681,26.379,28.914z
			 M33.102,12.912c0.32,0.251,0.614,0.544,0.882,0.878c1.05,1.318,1.561,3.475,1.561,6.593c0,3.49-0.594,5.794-1.817,7.045
			c-0.344,0.352-0.711,0.654-1.103,0.906c0.856-0.344,1.578-0.84,2.16-1.487c1.248-1.386,1.88-3.63,1.88-6.671
			c0-2.754-0.646-4.802-1.919-6.084C34.263,13.608,33.714,13.214,33.102,12.912z M29.574,12.786c-0.542,0-0.809,0.082-0.938,0.15
			c-0.117,0.062-0.125,0.109-0.125,0.18v14.845c0,0.127,0.04,0.161,0.097,0.196c0.143,0.089,0.354,0.134,0.631,0.134
			c1.51,0,2.744-0.511,3.772-1.563c1.017-1.04,1.532-3.175,1.532-6.346c0-2.843-0.452-4.851-1.342-5.969
			C32.326,13.319,31.139,12.786,29.574,12.786z"/>
	</g>
	<g>
		<path fill="#444344" d="M39.204,20.591v-0.935h12.39v0.935H39.204z"/>
		<rect x="38.704" y="19.156" fill="#444344" width="13.39" height="1.935"/>
	</g>
	<g>
		<path fill="#444344" d="M57.206,27.961c0,0.277,0.093,0.484,0.279,0.622c0.185,0.14,0.427,0.208,0.726,0.208h3.014
			c1.041,0,1.934-0.294,2.679-0.882c0.743-0.588,1.301-1.506,1.674-2.751l0.559,0.207l-1.005,4.049H53.634v-0.623h0.782
			c0.371,0,0.631-0.068,0.781-0.208c0.148-0.138,0.223-0.345,0.223-0.622V13.116c0-0.275-0.075-0.482-0.223-0.622
			c-0.15-0.138-0.41-0.208-0.781-0.208h-0.67v-0.623h5.246v0.623h-0.781c-0.299,0-0.541,0.07-0.726,0.208
			c-0.187,0.14-0.279,0.347-0.279,0.622V27.961z"/>
		<path fill="#444344" d="M65.522,29.914H53.134v-1.623h1.282c0.351,0,0.44-0.074,0.441-0.074c0.04-0.037,0.063-0.13,0.063-0.256
			V13.116c0-0.073-0.009-0.205-0.066-0.258c-0.018-0.016-0.143-0.072-0.438-0.072h-1.17v-1.623h6.246v1.623h-1.281
			c-0.187,0-0.33,0.037-0.427,0.109c-0.027,0.02-0.078,0.059-0.078,0.221v14.845c0,0.164,0.051,0.202,0.076,0.22
			c0.099,0.074,0.241,0.11,0.429,0.11h3.014c0.934,0,1.708-0.253,2.369-0.774c0.656-0.52,1.163-1.362,1.504-2.502l0.153-0.511
			l1.478,0.548L65.522,29.914z M63.18,28.914h1.56l0.403-1.623c-0.273,0.399-0.583,0.736-0.929,1.01
			C63.894,28.553,63.549,28.758,63.18,28.914z M55.574,28.914h1.527c-0.194-0.173-0.395-0.471-0.395-0.953V13.116
			c0-0.479,0.199-0.776,0.396-0.953h-1.528c0.231,0.239,0.347,0.558,0.347,0.953v14.845C55.92,28.36,55.804,28.681,55.574,28.914z"
			/>
	</g>
	<g>
		<path fill="#444344" d="M73.533,19.398c0-0.275-0.075-0.5-0.223-0.672c-0.15-0.172-0.41-0.258-0.781-0.258l-2.344-0.053v-0.628
			l1.116-0.02c0.669,0.013,1.301-0.032,1.897-0.137c0.595-0.104,1.153-0.293,1.674-0.57h0.223v10.899
			c0,0.277,0.092,0.484,0.279,0.622c0.185,0.14,0.428,0.208,0.726,0.208h2.344v0.623h-8.259v-0.623h2.344
			c0.371,0,0.631-0.068,0.781-0.206c0.148-0.138,0.223-0.344,0.223-0.619V19.398z M74.427,11.456c0.371,0,0.706,0.121,1.004,0.363
			c0.297,0.243,0.447,0.537,0.447,0.882c0,0.348-0.15,0.659-0.447,0.935c-0.298,0.277-0.633,0.415-1.004,0.415
			c-0.374,0-0.708-0.138-1.005-0.415c-0.298-0.275-0.446-0.587-0.446-0.935c0-0.345,0.148-0.639,0.446-0.882
			C73.718,11.577,74.053,11.456,74.427,11.456z"/>
		<path fill="#444344" d="M78.944,29.914h-9.259v-1.623h2.844c0.352,0,0.443-0.074,0.443-0.075c0.052-0.049,0.061-0.178,0.061-0.25
			v-8.567c0-0.153-0.033-0.266-0.102-0.346c-0.005-0.006-0.083-0.084-0.402-0.084l-2.844-0.064v-1.608l1.607-0.028l0.228,0.002
			c0.559,0,1.095-0.044,1.592-0.131c0.542-0.094,1.056-0.269,1.526-0.519l0.11-0.059h0.848v11.399c0,0.164,0.051,0.202,0.076,0.22
			c0.099,0.074,0.241,0.11,0.429,0.11h2.844V29.914z M73.689,28.914h1.301c-0.194-0.173-0.394-0.471-0.394-0.953V17.745
			c-0.408,0.169-0.838,0.295-1.283,0.375c0.147,0.069,0.272,0.162,0.374,0.278c0.23,0.268,0.346,0.604,0.346,1.001v8.567
			C74.033,28.362,73.917,28.681,73.689,28.914z M74.427,14.551c-0.503,0-0.957-0.185-1.347-0.55c-0.4-0.371-0.604-0.809-0.604-1.3
			c0-0.494,0.218-0.933,0.63-1.269c0.771-0.63,1.863-0.633,2.641,0c0.414,0.338,0.631,0.777,0.631,1.27
			c0,0.49-0.204,0.928-0.607,1.301C75.38,14.366,74.928,14.551,74.427,14.551z M74.427,11.956c-0.257,0-0.482,0.082-0.688,0.25
			c-0.233,0.19-0.263,0.364-0.263,0.495s0.03,0.331,0.286,0.567c0.411,0.385,0.916,0.385,1.329,0.001
			c0.258-0.239,0.288-0.439,0.288-0.569c0-0.13-0.03-0.304-0.264-0.495C74.907,12.038,74.682,11.956,74.427,11.956z"/>
	</g>
	<g>
		<path fill="#444344" d="M82.494,29.414v-0.623h0.558c0.372,0,0.632-0.068,0.782-0.208c0.148-0.138,0.223-0.345,0.223-0.622v-8.928
			c0-0.207-0.038-0.363-0.111-0.467c-0.075-0.104-0.224-0.155-0.447-0.155h-0.893v-0.623h0.781c0.372,0,0.726-0.034,1.061-0.104
			c0.335-0.067,0.65-0.207,0.949-0.415h0.223v2.388c0.67-0.69,1.34-1.21,2.009-1.557c0.669-0.346,1.376-0.52,2.121-0.52
			c1.265,0,2.194,0.312,2.79,0.935c0.595,0.623,0.894,1.557,0.894,2.803v6.644c0,0.277,0.092,0.484,0.279,0.622
			c0.185,0.14,0.427,0.208,0.726,0.208h0.558v0.623h-4.688v-0.623h0.558c0.371,0,0.631-0.068,0.781-0.208
			c0.148-0.138,0.224-0.345,0.224-0.622v-6.955c0-0.83-0.187-1.47-0.559-1.921c-0.373-0.449-0.931-0.674-1.674-0.674
			c-0.67,0-1.359,0.207-2.065,0.622c-0.708,0.415-1.358,1.004-1.953,1.765v7.163c0,0.277,0.093,0.484,0.279,0.622
			c0.185,0.14,0.427,0.208,0.726,0.208h0.558v0.623H82.494z"/>
		<path fill="#444344" d="M95.495,29.914h-5.688v-1.623h1.058c0.351,0,0.44-0.074,0.441-0.074c0.041-0.038,0.064-0.131,0.064-0.256
			v-6.955c0-0.706-0.149-1.245-0.444-1.603c-0.542-0.653-1.836-0.681-3.1,0.062c-0.607,0.356-1.181,0.863-1.707,1.508v6.988
			c0,0.164,0.051,0.202,0.076,0.22c0.099,0.074,0.241,0.11,0.429,0.11h1.058v1.623h-5.688v-1.623h1.058
			c0.35,0,0.44-0.073,0.441-0.074c0.041-0.038,0.064-0.131,0.064-0.256v-8.928c0-0.053-0.003-0.092-0.008-0.121
			c-0.014-0.001-0.031-0.001-0.051-0.001h-1.393v-1.623h1.281c0.339,0,0.661-0.032,0.958-0.094c0.27-0.054,0.519-0.164,0.765-0.336
			l0.129-0.09h0.88v1.745c0.426-0.35,0.854-0.637,1.279-0.857c0.74-0.382,1.53-0.576,2.351-0.576c1.4,0,2.46,0.366,3.151,1.089
			c0.685,0.718,1.032,1.777,1.032,3.148v6.644c0,0.164,0.051,0.202,0.076,0.22c0.099,0.074,0.241,0.11,0.429,0.11h1.058V29.914z
			 M92.023,28.914h1.304c-0.194-0.173-0.394-0.471-0.394-0.953v-6.644c0-1.105-0.254-1.933-0.755-2.458
			c-0.276-0.289-0.654-0.499-1.127-0.627c0.248,0.135,0.464,0.313,0.646,0.533c0.448,0.543,0.674,1.296,0.674,2.24v6.955
			C92.37,28.36,92.253,28.681,92.023,28.914z M84.21,28.914h1.304c-0.194-0.173-0.395-0.471-0.395-0.953v-9.967
			c-0.187,0.081-0.378,0.141-0.573,0.18c-0.079,0.017-0.158,0.031-0.239,0.044c0.015,0.018,0.029,0.036,0.043,0.055
			c0.138,0.196,0.207,0.45,0.207,0.761v8.928C84.557,28.36,84.44,28.681,84.21,28.914z"/>
	</g>
	<g>
		<path fill="#444344" d="M103.509,21.94l4.242,6.124c0.223,0.277,0.427,0.467,0.614,0.571c0.185,0.104,0.391,0.155,0.614,0.155
			h0.446v0.623h-4.576v-0.623h0.335c0.371,0,0.631-0.052,0.781-0.155c0.148-0.104,0.111-0.294-0.112-0.571l-3.46-5.014l-2.232,2.107
			v2.803c0,0.277,0.092,0.484,0.279,0.622c0.185,0.14,0.428,0.208,0.726,0.208h0.558v0.623h-4.688v-0.623h0.559
			c0.371,0,0.631-0.068,0.781-0.208c0.148-0.138,0.223-0.345,0.223-0.622V13.116c0-0.275-0.075-0.482-0.223-0.622
			c-0.15-0.138-0.41-0.208-0.781-0.208h-0.67v-0.623h1.004c0.447,0,0.837-0.067,1.172-0.207c0.335-0.138,0.614-0.346,0.837-0.623
			h0.223v13.183l4.688-4.671c0.147-0.275,0.204-0.501,0.167-0.675c-0.038-0.172-0.206-0.259-0.502-0.259h-0.67v-0.623h4.688v0.623
			h-0.558c-0.223,0-0.502,0.052-0.837,0.155s-0.652,0.295-0.949,0.571L103.509,21.94z"/>
		<path fill="#444344" d="M109.925,29.914h-5.576v-1.623h0.835c0.084,0,0.155-0.003,0.214-0.008l-3.086-4.469l-1.651,1.559v2.587
			c0,0.164,0.051,0.202,0.076,0.22c0.099,0.074,0.241,0.11,0.429,0.11h1.058v1.623h-5.688v-1.623h1.059
			c0.351,0,0.44-0.074,0.441-0.074c0.04-0.037,0.063-0.13,0.063-0.256V13.116c0-0.073-0.009-0.205-0.066-0.258
			c-0.018-0.016-0.143-0.072-0.438-0.072h-1.17v-1.623h1.504c0.382,0,0.711-0.057,0.979-0.168c0.26-0.107,0.469-0.262,0.641-0.476
			l0.15-0.186h0.962v12.479l3.779-3.766c0.026-0.053,0.044-0.098,0.057-0.135h-1.153v-1.623h5.688v1.623h-1.058
			c-0.118,0-0.333,0.023-0.689,0.133c-0.261,0.081-0.515,0.235-0.756,0.46l-2.376,2.487l4.01,5.789
			c0.204,0.251,0.357,0.37,0.447,0.42c0.11,0.062,0.231,0.091,0.37,0.091h0.946V29.914z M106.395,28.914h1.491
			c-0.17-0.134-0.344-0.311-0.525-0.536l-4.439-6.407l-0.395,0.394l3.738,5.416c0.131,0.161,0.329,0.453,0.282,0.79
			C106.529,28.698,106.476,28.816,106.395,28.914z M98.751,28.914h1.303c-0.194-0.173-0.394-0.471-0.394-0.953V11.731
			c-0.117,0.071-0.241,0.134-0.371,0.187c-0.187,0.078-0.391,0.138-0.609,0.179c0.011,0.009,0.021,0.019,0.032,0.028
			c0.258,0.243,0.385,0.574,0.385,0.991v14.845C99.098,28.36,98.981,28.681,98.751,28.914z M105.386,18.288
			c0.07,0.103,0.103,0.205,0.118,0.273c0.04,0.188,0.027,0.39-0.04,0.609l0.362-0.379c0.225-0.21,0.454-0.377,0.689-0.504H105.386z"
			/>
	</g>
</g>
<g>
	<g>
		<path fill="#444344" d="M119.86,21.306h0.553h2.821c1.043,0,1.737,0.372,2.083,1.115c0.346,0.742,0.291,1.741-0.167,2.996
			c-0.455,1.252-1.134,2.247-2.034,2.988c-0.901,0.741-1.888,1.111-2.96,1.111h-2.731h-0.553L119.86,21.306z M118.329,28.567h2.033
			c0.797,0,1.511-0.273,2.145-0.821c0.633-0.547,1.133-1.323,1.499-2.329c0.367-1.009,0.442-1.788,0.225-2.338
			c-0.217-0.549-0.709-0.823-1.476-0.823h-2.128L118.329,28.567z"/>
		<path fill="#444344" d="M120.156,30.017h-3.998l3.352-9.211h3.724c1.556,0,2.238,0.764,2.536,1.404
			c0.403,0.863,0.352,2-0.15,3.378c-0.483,1.329-1.219,2.407-2.186,3.204C122.445,29.604,121.342,30.017,120.156,30.017z
			 M117.586,29.017h0.047l2.625-7.211h-0.047L117.586,29.017z M119.043,28.067h1.319c0.678,0,1.273-0.229,1.817-0.7
			c0.565-0.488,1.021-1.202,1.356-2.122c0.318-0.873,0.397-1.559,0.229-1.983c-0.093-0.236-0.292-0.507-1.011-0.507h-1.778
			L119.043,28.067z M123.325,21.807c0.825,0.159,1.2,0.658,1.37,1.089c0.267,0.674,0.195,1.555-0.22,2.692
			c-0.139,0.381-0.297,0.734-0.474,1.057c0.267-0.421,0.493-0.888,0.679-1.399c0.408-1.121,0.47-2,0.183-2.614
			C124.703,22.287,124.369,21.832,123.325,21.807z"/>
	</g>
	<g>
		<path fill="#444344" d="M125.246,29.517l2.988-8.211h6.005l-0.179,0.492l-0.179,0.491h-4.893l-0.913,2.509h4.469l-0.179,0.49
			l-0.179,0.492h-4.468l-1.002,2.754h4.954l-0.179,0.491l-0.179,0.491H125.246z"/>
		<path fill="#444344" d="M131.661,30.017h-7.129l3.352-9.211h7.068l-0.722,1.983h-4.893l-0.549,1.509h4.469l-0.722,1.982h-4.468
			l-0.639,1.754h4.954L131.661,30.017z M125.96,29.017h0.048l2.625-7.211h-0.048L125.96,29.017z"/>
	</g>
	<g>
		<path fill="#444344" d="M139.946,23.686c0.14-0.518,0.081-0.917-0.176-1.198c-0.257-0.281-0.689-0.422-1.295-0.422
			c-0.625,0-1.145,0.121-1.557,0.363s-0.703,0.596-0.872,1.062c-0.115,0.316-0.094,0.553,0.065,0.709
			c0.159,0.157,0.537,0.311,1.133,0.464l1.307,0.341c0.7,0.183,1.149,0.452,1.347,0.81c0.2,0.354,0.182,0.855-0.053,1.503
			c-0.271,0.744-0.769,1.335-1.491,1.771s-1.566,0.653-2.531,0.653c-1.073,0-1.82-0.251-2.24-0.754
			c-0.408-0.495-0.456-1.173-0.143-2.033l0.022-0.062h1.021c-0.198,0.597-0.149,1.057,0.146,1.38
			c0.295,0.324,0.813,0.485,1.551,0.485c0.682,0,1.242-0.117,1.682-0.352s0.742-0.579,0.907-1.033
			c0.144-0.395,0.134-0.687-0.03-0.877c-0.163-0.187-0.565-0.363-1.205-0.53l-1.308-0.341c-0.661-0.171-1.09-0.41-1.289-0.716
			c-0.196-0.305-0.196-0.728,0-1.267c0.286-0.786,0.78-1.409,1.481-1.869c0.701-0.459,1.506-0.689,2.414-0.689
			c0.924,0,1.574,0.231,1.953,0.692c0.38,0.462,0.44,1.099,0.182,1.91H139.946z"/>
		<path fill="#444344" d="M135.822,30.24c-1.224,0-2.106-0.314-2.624-0.933c-0.529-0.642-0.605-1.491-0.229-2.525l0.12-0.329
			l0.373-0.062h1.714l-0.218,0.658c-0.205,0.616-0.02,0.818,0.041,0.885c0.193,0.211,0.602,0.323,1.182,0.323
			c0.596,0,1.082-0.099,1.446-0.293c0.33-0.176,0.55-0.425,0.673-0.763c0.095-0.262,0.07-0.369,0.061-0.38
			c-0.003-0.004-0.152-0.164-0.952-0.373l-1.308-0.341c-0.792-0.205-1.31-0.508-1.582-0.927c-0.286-0.444-0.303-1.019-0.051-1.71
			c0.322-0.886,0.887-1.598,1.677-2.116c0.782-0.512,1.687-0.771,2.688-0.771c1.075,0,1.862,0.294,2.339,0.875
			c0.492,0.599,0.584,1.399,0.272,2.379l-0.111,0.348h-2.04l0.17-0.63c0.138-0.511-0.013-0.676-0.063-0.73
			c-0.196-0.214-0.612-0.259-0.926-0.259c-0.532,0-0.971,0.099-1.303,0.294c-0.312,0.183-0.526,0.445-0.656,0.801
			c-0.075,0.208-0.041,0.203-0.041,0.203c0.011,0,0.173,0.129,0.894,0.314l1.308,0.341c0.847,0.221,1.39,0.565,1.659,1.051
			c0.272,0.482,0.266,1.127-0.021,1.916c-0.31,0.852-0.883,1.534-1.703,2.028C137.813,29.996,136.875,30.24,135.822,30.24z
			 M133.827,27.392c-0.222,0.836,0.046,1.162,0.141,1.277c0.31,0.371,0.916,0.563,1.798,0.571c-0.678-0.058-1.172-0.266-1.505-0.631
			c-0.219-0.239-0.432-0.628-0.389-1.217H133.827z M135.502,23.577c-0.034,0.076-0.066,0.155-0.095,0.235
			c-0.096,0.263-0.182,0.619-0.049,0.825c0.071,0.109,0.296,0.322,0.994,0.503l1.309,0.341c0.768,0.2,1.216,0.412,1.456,0.685
			c0.249,0.289,0.315,0.667,0.2,1.129c0.021-0.049,0.041-0.099,0.059-0.149c0.18-0.494,0.21-0.87,0.087-1.086
			c-0.126-0.229-0.494-0.43-1.038-0.572l-1.307-0.341c-0.709-0.183-1.128-0.365-1.358-0.592
			C135.61,24.407,135.397,24.096,135.502,23.577z M140.519,23.186h0.063c0.094-0.47,0.034-0.83-0.183-1.093
			c-0.276-0.336-0.799-0.508-1.553-0.51c0.565,0.056,1,0.246,1.292,0.567C140.329,22.357,140.519,22.688,140.519,23.186z"/>
	</g>
	<g>
		<path fill="#444344" d="M141.479,25.836h2.804l-0.376,1.033h-2.804L141.479,25.836z"/>
		<path fill="#444344" d="M144.257,27.369h-3.868l0.74-2.033h3.868L144.257,27.369z M141.817,26.369l1.752-0.033L141.817,26.369z"/>
	</g>
	<g>
		<path fill="#444344" d="M148.62,23.809h-1.882l0.292-0.805c0.55,0.012,1.044-0.107,1.482-0.357
			c0.442-0.253,0.843-0.645,1.203-1.173h0.821l-2.928,8.043h-0.53h-0.536L148.62,23.809z"/>
		<path fill="#444344" d="M147.959,30.017h-2.13l2.077-5.708h-1.882l0.659-1.812l0.358,0.007c0.001,0,0.003,0,0.005,0
			c0.497,0,0.875-0.096,1.218-0.292c0.373-0.213,0.722-0.557,1.038-1.02l0.149-0.219h1.799L147.959,30.017z M147.257,29.017h0.002
			l2.444-6.715c-0.292,0.326-0.607,0.587-0.943,0.779c-0.158,0.09-0.323,0.167-0.494,0.228h1.067L147.257,29.017z"/>
	</g>
	<g>
		<path fill="#444344" d="M151.376,28.663c-0.218-0.715-0.087-1.734,0.395-3.057c0.481-1.321,1.091-2.341,1.831-3.058
			c0.739-0.717,1.548-1.075,2.427-1.075c0.886,0,1.437,0.358,1.653,1.075s0.083,1.736-0.398,3.058
			c-0.481,1.322-1.09,2.342-1.828,3.057c-0.736,0.715-1.548,1.071-2.434,1.071C152.144,29.734,151.595,29.378,151.376,28.663z
			 M154.917,28.025c0.479-0.536,0.912-1.342,1.299-2.419c0.396-1.075,0.55-1.883,0.462-2.421c-0.086-0.538-0.413-0.807-0.979-0.807
			c-0.563,0-1.081,0.269-1.556,0.807c-0.476,0.538-0.911,1.346-1.306,2.421c-0.388,1.077-0.54,1.883-0.456,2.419
			s0.407,0.805,0.97,0.805C153.917,28.83,154.439,28.562,154.917,28.025z"/>
		<path fill="#444344" d="M153.022,30.234c-1.396,0-1.926-0.775-2.125-1.425c-0.253-0.83-0.122-1.934,0.403-3.374
			c0.505-1.387,1.162-2.479,1.953-3.246c0.833-0.807,1.766-1.216,2.775-1.216c1.406,0,1.935,0.778,2.132,1.431
			c0.25,0.831,0.117,1.934-0.407,3.373c-0.505,1.389-1.161,2.48-1.949,3.245C154.976,29.826,154.04,30.234,153.022,30.234z
			 M152.337,25.521c-0.033,0.084-0.065,0.17-0.097,0.257c-0.441,1.212-0.571,2.134-0.386,2.74c0.088,0.287,0.267,0.611,0.85,0.696
			c-0.442-0.18-0.73-0.563-0.816-1.11C151.792,27.491,151.939,26.646,152.337,25.521z M155.699,22.879
			c-0.416,0-0.802,0.208-1.181,0.638c-0.432,0.488-0.839,1.249-1.212,2.263c-0.444,1.231-0.479,1.859-0.431,2.169
			c0.041,0.259,0.122,0.382,0.476,0.382c0.42,0,0.81-0.208,1.193-0.637c0.434-0.486,0.838-1.245,1.202-2.256
			c0.455-1.235,0.49-1.862,0.439-2.171C156.144,23.009,156.058,22.879,155.699,22.879z M156.346,21.995
			c0.447,0.18,0.738,0.563,0.826,1.112c0.1,0.61-0.047,1.451-0.448,2.568c0.03-0.078,0.061-0.158,0.09-0.239
			c0.441-1.212,0.572-2.135,0.389-2.743C157.116,22.404,156.937,22.079,156.346,21.995z"/>
	</g>
	<g>
		<path fill="#444344" d="M164.211,23.842c-0.215,0.592-0.544,1.079-0.987,1.461c-0.442,0.382-1.166,0.804-2.172,1.265
			c-1.09,0.499-1.876,0.955-2.358,1.368c-0.204,0.18-0.39,0.38-0.561,0.604h4.368l-0.356,0.977h-5.508l0.001-0.001
			c0.307-0.845,0.77-1.537,1.386-2.074c0.617-0.538,1.62-1.125,3.01-1.762c0.677-0.313,1.164-0.601,1.465-0.862
			c0.299-0.261,0.524-0.597,0.673-1.007c0.156-0.428,0.131-0.779-0.075-1.051c-0.206-0.273-0.547-0.409-1.024-0.409
			c-0.499,0-0.953,0.171-1.362,0.513c-0.41,0.342-0.738,0.826-0.985,1.453h-0.978c0.308-0.886,0.798-1.581,1.469-2.086
			c0.672-0.505,1.443-0.757,2.315-0.757c0.745,0,1.274,0.222,1.59,0.664C164.435,22.577,164.465,23.146,164.211,23.842z"/>
		<path fill="#444344" d="M162.496,30.017h-6.572l0.245-0.671c0.336-0.923,0.85-1.69,1.528-2.281
			c0.659-0.575,1.683-1.176,3.13-1.839c0.628-0.291,1.081-0.555,1.345-0.785c0.233-0.204,0.412-0.473,0.531-0.8
			c0.142-0.388,0.033-0.531-0.003-0.578c-0.041-0.054-0.16-0.212-0.626-0.212c-0.382,0-0.722,0.129-1.041,0.396
			c-0.343,0.286-0.626,0.707-0.84,1.252l-0.125,0.317h-2.022l0.231-0.664c0.34-0.977,0.892-1.758,1.64-2.321
			c0.757-0.569,1.637-0.857,2.616-0.857c0.911,0,1.583,0.294,1.997,0.873c0.414,0.582,0.464,1.31,0.152,2.167
			c-0.243,0.669-0.624,1.231-1.13,1.668c-0.482,0.417-1.232,0.855-2.29,1.34c-0.8,0.366-1.43,0.708-1.88,1.018h3.836L162.496,30.017
			z M162.894,21.997c0.245,0.102,0.446,0.256,0.602,0.462c0.19,0.25,0.37,0.667,0.222,1.275c0.008-0.021,0.016-0.042,0.023-0.063
			c0.196-0.537,0.188-0.944-0.026-1.244C163.546,22.191,163.275,22.049,162.894,21.997z"/>
	</g>
	<g>
		<path fill="#444344" d="M163.747,27.59l0.171-0.469l0.171-0.47l5.604-5.178h0.419h0.419l-1.913,5.257h1.14l-0.313,0.859h-1.14
			l-0.702,1.927h-1.011l0.701-1.927H163.747z M167.607,26.73l1.334-3.666l-3.869,3.588l-0.084,0.078H167.607z"/>
		<path fill="#444344" d="M167.954,30.017h-2.075l0.701-1.927h-3.547l0.628-1.724l5.837-5.393h1.748l-1.913,5.257h1.14l-0.677,1.859
			h-1.14L167.954,30.017z M166.262,26.23h0.995l0.506-1.392L166.262,26.23z"/>
	</g>
	<g>
		<path fill="#444344" d="M173.174,21.306h0.553h3.268c0.871,0,1.465,0.189,1.782,0.567s0.343,0.932,0.077,1.662
			c-0.262,0.718-0.703,1.28-1.323,1.687c-0.156,0.101-0.317,0.189-0.483,0.268l0.151,0.09c0.395,0.286,0.479,0.77,0.25,1.446
			l-0.5,1.498c-0.082,0.245-0.114,0.422-0.098,0.53s0.091,0.201,0.223,0.279l-0.065,0.179h-1.367
			c-0.005-0.067,0.029-0.242,0.102-0.525s0.166-0.598,0.277-0.944l0.211-0.647c0.17-0.511,0.179-0.875,0.022-1.092
			c-0.155-0.218-0.499-0.327-1.031-0.327h-2.636l-1.289,3.541h-0.553h-0.559L173.174,21.306z M172.936,25.015h2.748
			c0.514,0,0.931-0.112,1.251-0.338s0.569-0.581,0.747-1.069c0.172-0.473,0.172-0.818,0.001-1.039
			c-0.171-0.22-0.529-0.329-1.072-0.329h-2.664L172.936,25.015z"/>
		<path fill="#444344" d="M171.647,30.017h-2.175l3.352-9.211h4.171c1.037,0,1.745,0.244,2.165,0.747
			c0.438,0.523,0.493,1.248,0.164,2.154c-0.289,0.792-0.776,1.426-1.45,1.888c0.212,0.352,0.297,0.857,0.049,1.592l-0.5,1.496
			c-0.037,0.111-0.056,0.187-0.066,0.236l0.303,0.18l-0.301,0.915h-2.183l-0.033-0.464c-0.008-0.114,0.008-0.268,0.117-0.687
			c0.075-0.292,0.17-0.615,0.285-0.972l0.211-0.649c0.168-0.503,0.093-0.644,0.092-0.645c-0.002-0.003-0.112-0.119-0.625-0.119
			h-2.286L171.647,30.017z M170.899,29.017h0.047l1.275-3.502h0l1.351-3.709h-0.048L170.899,29.017z M176.253,29.012h0.093
			c-0.003-0.172,0.038-0.378,0.128-0.647l0.5-1.498c0.226-0.669,0.012-0.825-0.069-0.883l-0.83-0.49
			c-0.106,0.012-0.217,0.019-0.33,0.021c0.425,0.07,0.727,0.234,0.915,0.499c0.256,0.355,0.271,0.86,0.044,1.54l-0.209,0.644
			C176.4,28.491,176.319,28.763,176.253,29.012z M173.65,24.515h2.034c0.407,0,0.73-0.083,0.963-0.247
			c0.234-0.165,0.424-0.445,0.565-0.832c0.129-0.355,0.106-0.522,0.076-0.562c0-0.001-0.112-0.136-0.677-0.136h-2.314L173.65,24.515
			z M177.34,21.818c0.327,0.082,0.57,0.229,0.737,0.443c0.284,0.365,0.309,0.875,0.074,1.518c-0.031,0.084-0.063,0.166-0.099,0.244
			c0.133-0.198,0.243-0.417,0.331-0.659c0.199-0.546,0.202-0.94,0.009-1.17C178.217,21.984,177.856,21.856,177.34,21.818z"/>
	</g>
</g>
</svg>
