<?xml version="1.0" encoding="utf-8"?>
<!-- Generator: Adobe Illustrator 16.0.0, SVG Export Plug-In . SVG Version: 6.00 Build 0)  -->
<!DOCTYPE svg PUBLIC "-//W3C//DTD SVG 1.1//EN" "http://www.w3.org/Graphics/SVG/1.1/DTD/svg11.dtd">
<svg version="1.1" id="图层_1" xmlns="http://www.w3.org/2000/svg" xmlns:xlink="http://www.w3.org/1999/xlink" x="0px" y="0px"
	 width="1275.59px" height="126.14px" viewBox="0 0 1275.59 126.14" enable-background="new 0 0 1275.59 126.14"
	 xml:space="preserve">
<g>
	<rect fill="#484747" width="1275.589" height="126.142"/>
	<rect x="18.581" fill="#222323" width="36.581" height="126.142"/>
	<rect x="1221.429" fill="#222323" width="36.58" height="126.142"/>
	<rect fill="#353535" width="51.161" height="126.142"/>
	<rect x="1224.429" fill="#353535" width="51.16" height="126.142"/>
	<g>
		<g>
			<g>
				<path fill="#4A4949" d="M36.709,30.765c0,7.332-5.946,13.277-13.281,13.277s-13.281-5.945-13.281-13.277
					c0-7.334,5.946-13.277,13.281-13.277S36.709,23.431,36.709,30.765"/>
				<g>
					<circle fill="none" stroke="#131313" stroke-width="0.75" stroke-miterlimit="10" cx="23.428" cy="30.765" r="13.281"/>
				</g>
				<polygon fill="#040000" points="21.787,38.294 21.787,32.403 15.896,32.403 15.896,29.124 21.787,29.124 21.787,23.233 
					25.07,23.233 25.07,29.124 30.96,29.124 30.96,32.403 25.07,32.403 25.07,38.294 				"/>
				<path fill="#231815" d="M24.792,23.511v5.336v0.553h0.554h5.338v2.728h-5.338h-0.554v0.554v5.336h-2.728v-5.336v-0.554H21.51
					h-5.338v-2.728h5.338h0.555v-0.553v-5.336H24.792z M25.346,22.958H21.51v5.889h-5.892v3.834h5.892v5.891h3.836v-5.891h5.892
					v-3.834h-5.892V22.958z"/>
			</g>
			<g>
				<path fill="#4A4949" d="M36.709,95.376c0,7.332-5.946,13.277-13.281,13.277s-13.281-5.945-13.281-13.277
					c0-7.334,5.946-13.277,13.281-13.277S36.709,88.042,36.709,95.376"/>
				<g>
					<circle fill="none" stroke="#131313" stroke-width="0.75" stroke-miterlimit="10" cx="23.428" cy="95.376" r="13.281"/>
				</g>
				<polygon fill="#040000" points="21.787,102.905 21.787,97.015 15.896,97.015 15.896,93.734 21.787,93.734 21.787,87.845 
					25.07,87.845 25.07,93.734 30.96,93.734 30.96,97.015 25.07,97.015 25.07,102.905 				"/>
				<path fill="#231815" d="M24.792,88.123v5.335v0.553h0.554h5.338v2.728h-5.338h-0.554v0.554v5.336h-2.728v-5.336v-0.554H21.51
					h-5.338v-2.728h5.338h0.555v-0.553v-5.335H24.792z M25.346,87.568H21.51v5.89h-5.892v3.834h5.892v5.891h3.836v-5.891h5.892
					v-3.834h-5.892V87.568z"/>
			</g>
		</g>
		<g>
			<g>
				<path fill="#4A4949" d="M1265.442,30.765c0,7.332-5.947,13.277-13.282,13.277s-13.28-5.945-13.28-13.277
					c0-7.334,5.945-13.277,13.28-13.277S1265.442,23.431,1265.442,30.765"/>
				<g>
					<circle fill="none" stroke="#131313" stroke-width="0.75" stroke-miterlimit="10" cx="1252.161" cy="30.765" r="13.281"/>
				</g>
				<polygon fill="#040000" points="1250.521,38.294 1250.521,32.403 1244.629,32.403 1244.629,29.124 1250.521,29.124 
					1250.521,23.233 1253.802,23.233 1253.802,29.124 1259.693,29.124 1259.693,32.403 1253.802,32.403 1253.802,38.294 				"/>
				<path fill="#231815" d="M1253.525,23.511v5.336v0.553h0.553h5.339v2.728h-5.339h-0.553v0.554v5.336h-2.728v-5.336v-0.554h-0.555
					h-5.338v-2.728h5.338h0.555v-0.553v-5.336H1253.525z M1254.078,22.958h-3.835v5.889h-5.893v3.834h5.893v5.891h3.835v-5.891
					h5.892v-3.834h-5.892V22.958z"/>
			</g>
			<g>
				<path fill="#4A4949" d="M1265.442,95.376c0,7.332-5.947,13.277-13.282,13.277s-13.28-5.945-13.28-13.277
					c0-7.334,5.945-13.277,13.28-13.277S1265.442,88.042,1265.442,95.376"/>
				<g>
					<circle fill="none" stroke="#131313" stroke-width="0.75" stroke-miterlimit="10" cx="1252.161" cy="95.376" r="13.281"/>
				</g>
				<polygon fill="#040000" points="1250.521,102.905 1250.521,97.015 1244.629,97.015 1244.629,93.734 1250.521,93.734 
					1250.521,87.845 1253.802,87.845 1253.802,93.734 1259.693,93.734 1259.693,97.015 1253.802,97.015 1253.802,102.905 				"/>
				<path fill="#231815" d="M1253.525,88.123v5.335v0.553h0.553h5.339v2.728h-5.339h-0.553v0.554v5.336h-2.728v-5.336v-0.554h-0.555
					h-5.338v-2.728h5.338h0.555v-0.553v-5.335H1253.525z M1254.078,87.568h-3.835v5.89h-5.893v3.834h5.893v5.891h3.835v-5.891h5.892
					v-3.834h-5.892V87.568z"/>
			</g>
		</g>
	</g>
	<rect x="316.542" y="30.765" fill="#523623" width="246.094" height="64.612"/>
	<path fill="#313331" d="M843.624,119.727H725.442c-10.244,0-18.55-8.305-18.55-18.55V24.965c0-10.245,8.306-18.551,18.55-18.551
		h118.182c10.245,0,18.55,8.306,18.55,18.551v76.212C862.174,111.422,853.869,119.727,843.624,119.727z"/>
	<g>
		<g>
			<g>
				<circle fill="#DE7E57" cx="748.396" cy="65.813" r="13.337"/>
				<polygon fill="#2A2B2B" points="740.208,65.813 754.586,57.512 754.586,74.114 				"/>
			</g>
			<g>
				<circle fill="#DE7E57" cx="781.838" cy="98.486" r="13.336"/>
				<polygon fill="#2A2B2B" points="781.839,106.676 773.537,92.297 790.14,92.297 				"/>
			</g>
			<g>
				<circle fill="#DE7E57" cx="782.07" cy="32.139" r="13.337"/>
				<polygon fill="#2A2B2B" points="782.07,23.95 773.77,38.328 790.371,38.328 				"/>
			</g>
			<g>
				<circle fill="#DE7E57" cx="815.744" cy="65.813" r="13.337"/>
				<polygon fill="#2A2B2B" points="823.933,65.813 809.555,74.114 809.555,57.512 				"/>
			</g>
		</g>
		<g>
			<circle fill="#DE7E57" cx="781.838" cy="65.313" r="13.336"/>
			
				<text transform="matrix(1 0 0 1 773.4463 70.0078)" fill="#040000" font-family="'AdobeSongStd-Light-GBpc-EUC-H'" font-size="15">ok</text>
		</g>
	</g>
	<g>
		<circle fill="#C6DA56" cx="1109.456" cy="17.554" r="6.462"/>
		<circle fill="#C6DA56" cx="1109.456" cy="35.761" r="6.462"/>
		<circle fill="#040000" cx="1109.456" cy="53.968" r="6.462"/>
		<circle fill="#040000" cx="1109.456" cy="72.174" r="6.462"/>
		<circle fill="#C6DA56" cx="1109.456" cy="90.381" r="6.462"/>
		<circle fill="#040000" cx="1109.456" cy="108.587" r="6.462"/>
	</g>
</g>
</svg>
