<?xml version="1.0" encoding="utf-8"?>
<!-- Generator: Adobe Illustrator 16.0.0, SVG Export Plug-In . SVG Version: 6.00 Build 0)  -->
<!DOCTYPE svg PUBLIC "-//W3C//DTD SVG 1.1//EN" "http://www.w3.org/Graphics/SVG/1.1/DTD/svg11.dtd">
<svg version="1.1" id="图层_1" xmlns="http://www.w3.org/2000/svg" xmlns:xlink="http://www.w3.org/1999/xlink" x="0px" y="0px"
	 width="1275.59px" height="126.14px" viewBox="0 0 1275.59 126.14" enable-background="new 0 0 1275.59 126.14"
	 xml:space="preserve">
<g>
	<g>
		<rect y="-0.001" fill="#D6D7D7" width="1275.59" height="126.142"/>
	</g>
	<rect x="18.581" y="-0.001" fill="#565657" width="36.581" height="126.142"/>
	<rect y="-0.001" fill="#888888" width="51.161" height="126.142"/>
	<g>
		<g>
			<path fill="#4A4949" d="M36.709,30.763c0,7.332-5.946,13.277-13.281,13.277s-13.281-5.945-13.281-13.277
				c0-7.334,5.946-13.276,13.281-13.276S36.709,23.429,36.709,30.763"/>
			<g>
				<circle fill="none" stroke="#131313" stroke-width="0.75" stroke-miterlimit="10" cx="23.428" cy="30.763" r="13.281"/>
			</g>
			<polygon fill="#040000" points="21.788,38.292 21.788,32.403 15.896,32.403 15.896,29.122 21.788,29.122 21.788,23.232 
				25.07,23.232 25.07,29.122 30.96,29.122 30.96,32.403 25.07,32.403 25.07,38.292 			"/>
			<path fill="#231815" d="M24.793,23.509v5.336v0.554h0.553h5.338v2.727h-5.338h-0.553v0.554v5.336h-2.728v-5.336v-0.554h-0.554
				h-5.338v-2.727h5.338h0.554v-0.554v-5.336H24.793z M25.346,22.957h-3.835v5.889h-5.892v3.834h5.892v5.891h3.835v-5.891h5.892
				v-3.834h-5.892V22.957z"/>
		</g>
		<g>
			<path fill="#4A4949" d="M36.709,95.375c0,7.332-5.946,13.277-13.281,13.277s-13.281-5.945-13.281-13.277
				c0-7.334,5.946-13.277,13.281-13.277S36.709,88.041,36.709,95.375"/>
			<g>
				<circle fill="none" stroke="#131313" stroke-width="0.75" stroke-miterlimit="10" cx="23.428" cy="95.375" r="13.281"/>
			</g>
			<polygon fill="#040000" points="21.788,102.904 21.788,97.014 15.896,97.014 15.896,93.732 21.788,93.732 21.788,87.844 
				25.07,87.844 25.07,93.732 30.96,93.732 30.96,97.014 25.07,97.014 25.07,102.904 			"/>
			<path fill="#231815" d="M24.793,88.121v5.336v0.553h0.553h5.338v2.727h-5.338h-0.553v0.555v5.336h-2.728v-5.336v-0.555h-0.554
				h-5.338V94.01h5.338h0.554v-0.553v-5.336H24.793z M25.346,87.566h-3.835v5.891h-5.892v3.834h5.892v5.891h3.835v-5.891h5.892
				v-3.834h-5.892V87.566z"/>
		</g>
	</g>
	<rect x="1221.43" y="0" fill="#565657" width="36.58" height="126.141"/>
	<rect x="1224.43" y="0" fill="#888888" width="51.16" height="126.141"/>
	<g>
		<g>
			<path fill="#4A4949" d="M1265.443,30.764c0,7.332-5.947,13.277-13.281,13.277c-7.336,0-13.281-5.945-13.281-13.277
				c0-7.334,5.945-13.276,13.281-13.276C1259.496,17.488,1265.443,23.43,1265.443,30.764"/>
			<g>
				<circle fill="none" stroke="#131313" stroke-width="0.75" stroke-miterlimit="10" cx="1252.162" cy="30.764" r="13.281"/>
			</g>
			<polygon fill="#040000" points="1250.521,38.293 1250.521,32.403 1244.629,32.403 1244.629,29.123 1250.521,29.123 
				1250.521,23.233 1253.803,23.233 1253.803,29.123 1259.693,29.123 1259.693,32.403 1253.803,32.403 1253.803,38.293 			"/>
			<path fill="#231815" d="M1253.525,23.51v5.336v0.553h0.555h5.338v2.728h-5.338h-0.555v0.554v5.336h-2.727V32.68v-0.554h-0.555
				h-5.338v-2.728h5.338h0.555v-0.553V23.51H1253.525z M1254.08,22.957h-3.836v5.89h-5.893v3.834h5.893v5.891h3.836V32.68h5.891
				v-3.834h-5.891V22.957z"/>
		</g>
		<g>
			<path fill="#4A4949" d="M1265.443,95.375c0,7.332-5.947,13.277-13.281,13.277c-7.336,0-13.281-5.945-13.281-13.277
				c0-7.334,5.945-13.277,13.281-13.277C1259.496,82.098,1265.443,88.041,1265.443,95.375"/>
			<g>
				<circle fill="none" stroke="#131313" stroke-width="0.75" stroke-miterlimit="10" cx="1252.162" cy="95.375" r="13.281"/>
			</g>
			<polygon fill="#040000" points="1250.521,102.904 1250.521,97.014 1244.629,97.014 1244.629,93.734 1250.521,93.734 
				1250.521,87.844 1253.803,87.844 1253.803,93.734 1259.693,93.734 1259.693,97.014 1253.803,97.014 1253.803,102.904 			"/>
			<path fill="#231815" d="M1253.525,88.121v5.336v0.553h0.555h5.338v2.729h-5.338h-0.555v0.553v5.336h-2.727v-5.336v-0.553h-0.555
				h-5.338V94.01h5.338h0.555v-0.553v-5.336H1253.525z M1254.08,87.568h-3.836v5.889h-5.893v3.834h5.893v5.891h3.836v-5.891h5.891
				v-3.834h-5.891V87.568z"/>
		</g>
	</g>
</g>
<g>
	<rect x="67.439" y="8.167" fill="#565657" width="416.273" height="14.302"/>
	<g>
		<path fill="#565657" d="M574.083,9.167v12.302H159.809V9.167H574.083 M575.083,8.167H158.809v14.302h416.274V8.167L575.083,8.167z
			"/>
	</g>
</g>
<rect x="592.687" y="49.318" fill="none" stroke="#565657" stroke-miterlimit="10" width="188.352" height="15"/>
<circle fill="#C6DA56" stroke="#2A2B2B" stroke-width="0.5" stroke-miterlimit="10" cx="1201.909" cy="19.957" r="5.517"/>
<circle fill="#C6DA56" stroke="#2A2B2B" stroke-width="0.5" stroke-miterlimit="10" cx="1201.909" cy="35.809" r="5.517"/>
<circle fill="#222323" cx="1189.474" cy="35.809" r="5.517"/>
<rect x="612.509" y="52.822" fill="#565657" width="7.994" height="7.993"/>
<rect x="659.412" y="52.822" fill="#565657" width="7.994" height="7.993"/>
<rect x="707.318" y="52.822" fill="#565657" width="7.994" height="7.993"/>
<rect x="754.223" y="52.822" fill="#565657" width="7.994" height="7.993"/>
<g>
	<rect x="893.688" y="32.946" fill="#A6A6A5" width="144.393" height="58.117"/>
	
		<text transform="matrix(1 0 0 1 911.8701 69.8184)" fill="#040000" font-family="'STHeitiSC-Light'" font-size="27.418" letter-spacing="1">交换机A</text>
</g>
<g>
	
		<rect x="1049.162" y="51.822" fill="none" stroke="#A6A6A5" stroke-width="3" stroke-miterlimit="10" width="163.504" height="73.157"/>
	<g>
		<path fill="#262626" d="M1211.393,63.042c0,5.234-4.246,9.48-9.484,9.48c-5.236,0-9.482-4.246-9.482-9.48
			c0-5.236,4.246-9.481,9.482-9.481C1207.146,53.56,1211.393,57.805,1211.393,63.042"/>
		<circle fill="none" stroke="#131313" stroke-width="0.75" stroke-miterlimit="10" cx="1201.909" cy="63.042" r="9.483"/>
		<polygon fill="#040000" points="1200.736,68.418 1200.736,64.211 1196.531,64.211 1196.531,61.869 1200.736,61.869 
			1200.736,57.664 1203.08,57.664 1203.08,61.869 1207.287,61.869 1207.287,64.211 1203.08,64.211 1203.08,68.418 		"/>
		<path fill="#231815" d="M1202.883,57.862v3.81v0.396h0.395h3.813v1.947h-3.813h-0.395v0.395v3.811h-1.947v-3.811v-0.395h-0.396
			h-3.811v-1.947h3.811h0.396v-0.396v-3.81H1202.883z M1203.277,57.466h-2.738v4.205h-4.207v2.737h4.207v4.207h2.738v-4.207h4.207
			v-2.737h-4.207V57.466z"/>
	</g>
</g>
<g>
	<path fill="#262626" d="M1068.807,63.042c0,5.234-4.246,9.48-9.484,9.48c-5.236,0-9.482-4.246-9.482-9.48
		c0-5.236,4.246-9.481,9.482-9.481C1064.561,53.56,1068.807,57.805,1068.807,63.042"/>
	<circle fill="none" stroke="#131313" stroke-width="0.75" stroke-miterlimit="10" cx="1059.323" cy="63.042" r="9.483"/>
	<polygon fill="#040000" points="1058.152,68.418 1058.152,64.211 1053.945,64.211 1053.945,61.869 1058.152,61.869 
		1058.152,57.664 1060.494,57.664 1060.494,61.869 1064.701,61.869 1064.701,64.211 1060.494,64.211 1060.494,68.418 	"/>
	<path fill="#231815" d="M1060.297,57.862v3.81v0.396h0.396h3.811v1.947h-3.811h-0.396v0.395v3.811h-1.947v-3.811v-0.395h-0.396
		h-3.811v-1.947h3.811h0.396v-0.396v-3.81H1060.297z M1060.693,57.466h-2.74v4.205h-4.207v2.737h4.207v4.207h2.74v-4.207h4.205
		v-2.737h-4.205V57.466z"/>
</g>
</svg>
