<?xml version="1.0" encoding="utf-8"?>
<!-- Generator: Adobe Illustrator 16.0.0, SVG Export Plug-In . SVG Version: 6.00 Build 0)  -->
<!DOCTYPE svg PUBLIC "-//W3C//DTD SVG 1.1//EN" "http://www.w3.org/Graphics/SVG/1.1/DTD/svg11.dtd">
<svg version="1.1" id="图层_1" xmlns="http://www.w3.org/2000/svg" xmlns:xlink="http://www.w3.org/1999/xlink" x="0px" y="0px"
	 width="1275.59px" height="252px" viewBox="0 0 1275.59 252" enable-background="new 0 0 1275.59 252" xml:space="preserve">
<rect fill="#3D3D3F" width="1275.59" height="252"/>
<path fill="none" stroke="#0A090A" stroke-width="2" stroke-miterlimit="10" d="M568.209,199.745c0,3.909-2.971,7.077-6.635,7.077
	h-442.78c-3.664,0-6.635-3.168-6.635-7.077V75.041c0-3.907,2.971-7.075,6.635-7.075h442.78c3.664,0,6.635,3.168,6.635,7.075V199.745
	z"/>
<g>
	<polygon fill="#FFFFFF" points="25.474,26.504 23.181,21.674 27.029,21.674 28.913,26.504 27.234,26.504 28.913,30.722 
		25.31,30.722 23.181,26.545 	"/>
	<polygon fill="#FFFFFF" points="25.433,33.219 23.181,43.945 27.193,43.945 29.199,33.219 	"/>
	<polygon fill="#FFFFFF" points="33.361,21.674 30.195,26.197 34.29,26.197 35.054,25.03 49.302,25.03 49.302,23.721 36.2,23.721 
		37.565,21.674 	"/>
	<path fill="#FFFFFF" d="M48.401,34.897V28.47c-0.368-1.023-1.679-1.188-1.679-1.188H31.819l-0.041,7.574h-1.965v1.474h2.006v7.615
		h14.698c1.679-0.367,1.843-1.514,1.843-1.514v-6.02h1.229v-1.515H48.401z M44.47,42.896h-1.882l-1.679-3.685h-3.522l1.394,3.685
		h-3.194v-0.368v-6.143h8.884V42.896z M44.47,35.225h-1.882l-1.679-3.684h-3.522l1.394,3.684h-3.194v-0.368v-6.142h8.884V35.225z"/>
	<path fill="#FFFFFF" d="M77.58,30.08v-2.865c-0.273-0.847-1.038-1.018-1.038-1.018h-6.714v-1.604h8.516v-1.665h-8.626v-1.255h-4.53
		v1.119H52.885c0,0,0.082,18.922,0,19.372c-0.083,0.45-0.778,1.78-0.778,1.78h3.992c0.594-0.122,0.614-0.859,0.614-0.859V31.459
		h8.393v2.62h-6.755v1.72h6.837v8.146h4.477v-8.242h7.124c0.764-0.301,0.846-1.01,0.846-1.01v-3.33h1.338V30.08H77.58z
		 M65.133,25.877h-6.796v1.691h6.796v2.457h-8.488v-5.923h8.488V25.877z M73.684,34.119h-4.238v-2.66h4.238V34.119z M73.766,30.169
		h-4.32v-3.104h4.32V30.169z"/>
	<path fill="#FFFFFF" d="M77.688,37.286h-6.933c0,0-0.873,0.519-0.437,1.747l3.002,4.912h4.858l-3.493-5.459h2.975L77.688,37.286z"
		/>
	<path fill="#FFFFFF" d="M57.654,37.149h6.06c0,0,0.818,0.19,0.818,1.966l-3.057,4.83h-3.821l3.439-5.377h-3.439V37.149z"/>
	<path fill="#A52724" d="M80.364,23.338c0,0-0.785-1.705-1.194-1.972c0,0-1.167-2.313,1.903-0.39c0,0,1.576,0.287,1.638,0.287
		s1.372,1.371,1.372,1.371l0.635,0.84l0.441,0.818l0.664,1.639l0.572,2.579c0,0,0.614,6.755,0.532,7.411
		c-0.081,0.654-0.245,3.562-0.572,2.129c-0.328-1.434-0.369-1.762-0.369-1.762s-0.614,1.521-0.696,2.153
		c-0.081,0.632,0.492,0.714,0.492,0.714l-0.205,1.023c0,0,1.27,1.433-0.041,1.678c-1.311,0.246-0.818,0.246-0.818,0.246
		s-3.604,6.756-8.558,9.131c0,0-0.818-0.082,0.737-1.803c1.556-1.719-2.539,1.516-3.275,1.803c0,0,9.089-8.271,9.498-17.033
		c0,0-0.45,0.205,0.041-1.678c0.491-1.884,0-0.287,0-0.287s0.123,1.352-0.901-2.743c0,0-1.269-2.661,0.041-2.333
		c1.312,0.327-0.122-1.188-1.269-2.334S79.899,24.308,80.364,23.338z"/>
	<path fill="#FFFFFF" d="M84.145,23.68h16.09l-0.204-2.006h4.421v2.006h2.17l0.86-2.006h2.825l-1.556,3.234h-4.013l0.573,5.977
		l1.351-3.93h2.948l-3.439,9.457l0.573,5.363c0,0,0.614,0.819,0.778,0.819h2.047v1.351h-5.568c0,0-1.31-1.269-1.31-2.906
		c0,0-2.539,1.27-3.071,0.982c0,0,2.334-2.457,2.539-3.767l-1.105-10.44H87.379v-0.941h13.306V25.03H85.159L84.145,23.68z"/>
	<path fill="#FFFFFF" d="M98.801,35.962v-3.356h1.68V31.5h-1.597v-2.621h-3.234V31.5h-2.58v-2.621h-3.644v2.498h-1.27v1.433h1.679
		v3.675c0.287,1.873,2.579,3.695,2.579,3.695l-4.667,3.91h4.401l2.149-2.15l2.006,2.006h4.177l-4.34-3.807
		C98.146,38.623,98.801,35.962,98.801,35.962z M95.956,36.597c0,0-1.494,3.05-3.112-0.267V32.81h3.112V36.597z"/>
	<rect x="114.155" y="21.674" fill="#FFFFFF" width="3.603" height="3.084"/>
	<path fill="#FFFFFF" d="M111.616,26.014h8.517c0,0,1.31,0.437,0.601,2.129l-2.266,3.548l2.948,6.196h-2.103l-1.31-2.593v8.516
		h-3.658v-6.47h-3.029l4.64-8.68c0,0,0.628-1.445-0.491-1.5h-3.821L111.616,26.014z"/>
	<path fill="#FFFFFF" d="M122.016,22.082v15.204c0,0,3.112,0,3.275,0c0.164,0,0.246-14.07,0.246-14.07h6.756
		c0,0,0.941-0.123,1.474,1.542v12.27h3.111V24.171c0,0-0.164-1.966-2.129-2.089H122.016z"/>
	<path fill="#FFFFFF" d="M127.625,26.955v8.475l-5.609,8.229h3.849l3.583-4.79c0,0,1.126,4.313,2.271,4.94h5.609v-1.174h-3.07
		l-2.621-7.725v-7.956H127.625z"/>
</g>
<rect x="15.754" y="11.18" fill="none" stroke="#0C0C0C" stroke-miterlimit="10" width="129" height="44"/>
<rect x="568.209" y="163.18" fill="#101010" stroke="#040000" stroke-miterlimit="10" width="25.545" height="43.643"/>
<path fill="#444344" stroke="#050101" stroke-width="2" stroke-miterlimit="10" d="M1275.59,69.443H671.081
	c-28,0-50.699,22.699-50.699,50.701v9.892c0,28.001,22.699,50.7,50.699,50.7h604.509V69.443z"/>
<g>
	<circle fill="#FFFFFF" stroke="#040000" stroke-miterlimit="10" cx="675.947" cy="126.001" r="47.831"/>
	<circle fill="#1D1D1D" stroke="#040000" stroke-miterlimit="10" cx="675.947" cy="126.001" r="42.331"/>
	<circle fill="#323333" stroke="#050101" stroke-miterlimit="10" cx="675.421" cy="126" r="17.904"/>
	<line fill="none" stroke="#040000" stroke-miterlimit="10" x1="707.587" y1="97.888" x2="690.048" y2="115.682"/>
	<line fill="none" stroke="#040000" stroke-miterlimit="10" x1="643.483" y1="97.888" x2="661.023" y2="115.682"/>
	<line fill="none" stroke="#040000" stroke-miterlimit="10" x1="707.587" y1="154.014" x2="690.048" y2="136.22"/>
	<line fill="none" stroke="#040000" stroke-miterlimit="10" x1="643.483" y1="154.014" x2="661.023" y2="136.22"/>
	<polygon fill="none" stroke="#FFFFFF" stroke-width="2" stroke-miterlimit="10" points="670.462,102.446 675.421,92.5 
		680.38,102.446 	"/>
	<polygon fill="none" stroke="#FFFFFF" stroke-width="2" stroke-miterlimit="10" points="670.462,149.04 675.421,158.986 
		680.38,149.04 	"/>
	<polygon fill="none" stroke="#FFFFFF" stroke-width="2" stroke-miterlimit="10" points="650.422,120.131 640.476,125.09 
		650.422,130.049 	"/>
	<polygon fill="none" stroke="#FFFFFF" stroke-width="2" stroke-miterlimit="10" points="698.817,120.131 708.764,125.09 
		698.817,130.049 	"/>
	<g>
		<polygon fill="#FFFFFF" points="672.907,120.131 664.546,125.09 672.907,130.049 		"/>
		<polyline fill="none" stroke="#FFFFFF" stroke-width="2" stroke-miterlimit="10" points="672.421,125.09 686.296,125.09 
			686.296,118.119 		"/>
	</g>
</g>
<path fill="#222222" stroke="#050101" stroke-width="2" stroke-miterlimit="10" d="M1151.141,125.09
	c0,23.736-19.243,42.98-42.98,42.98H781.747c-23.737,0-42.98-19.244-42.98-42.98l0,0c0-23.738,19.243-42.98,42.98-42.98h326.413
	C1131.897,82.109,1151.141,101.352,1151.141,125.09L1151.141,125.09z"/>
<circle fill="#444344" stroke="#050101" stroke-width="2" stroke-miterlimit="10" cx="1151.141" cy="125.09" r="62.049"/>
<circle fill="#444344" stroke="#050101" stroke-width="2" stroke-miterlimit="10" cx="1151.141" cy="125.09" r="54.308"/>
<circle fill="#4F4F4F" stroke="#050101" stroke-width="2" stroke-miterlimit="10" cx="1170.421" cy="154.847" r="12"/>
<line fill="none" stroke="#050101" stroke-width="3" stroke-miterlimit="10" x1="800.421" y1="82.109" x2="800.421" y2="168.331"/>
<line fill="none" stroke="#050101" stroke-width="3" stroke-miterlimit="10" x1="852.754" y1="82.109" x2="852.754" y2="168.331"/>
<line fill="none" stroke="#050101" stroke-width="3" stroke-miterlimit="10" x1="905.087" y1="82.109" x2="905.087" y2="168.331"/>
<line fill="none" stroke="#050101" stroke-width="3" stroke-miterlimit="10" x1="957.42" y1="82.109" x2="957.42" y2="168.331"/>
<line fill="none" stroke="#050101" stroke-width="3" stroke-miterlimit="10" x1="1009.753" y1="82.109" x2="1009.753" y2="168.331"/>
<line fill="none" stroke="#050101" stroke-width="3" stroke-miterlimit="10" x1="1062.086" y1="82.109" x2="1062.086" y2="168.331"/>
<line fill="none" stroke="#050101" stroke-width="3" stroke-miterlimit="10" x1="738.767" y1="125.09" x2="1089.104" y2="125.09"/>
<g>
	<path fill="#FFFFFF" stroke="#FFFFFF" stroke-width="0.75" stroke-miterlimit="10" d="M809.932,87.987
		c-0.312,0.406-0.706,0.797-1.185,1.172v-0.891c0.598-0.531,1.089-1.156,1.472-1.875h0.431v8.063h-0.718V87.987z"/>
</g>
<g>
	<path fill="#FFFFFF" stroke="#FFFFFF" stroke-width="0.75" stroke-miterlimit="10" d="M860.602,94.269
		c0.023-0.469,0.191-0.891,0.503-1.266c0.311-0.375,0.706-0.961,1.186-1.758c0.479-0.797,0.789-1.414,0.934-1.852
		c0.143-0.438,0.197-0.813,0.161-1.125s-0.149-0.57-0.341-0.773c-0.192-0.203-0.413-0.289-0.665-0.258
		c-0.251,0.031-0.49,0.156-0.718,0.375s-0.401,0.547-0.521,0.984l-0.683-0.141c0.191-0.719,0.437-1.242,0.736-1.57
		c0.299-0.328,0.652-0.508,1.06-0.539c0.239-0.031,0.454-0.023,0.646,0.023s0.39,0.156,0.593,0.328s0.371,0.43,0.503,0.773
		c0.131,0.344,0.18,0.758,0.144,1.242s-0.222,1.063-0.557,1.734c-0.336,0.672-0.981,1.727-1.938,3.164h2.585v0.844h-3.627V94.269z"
		/>
</g>
<g>
	<path fill="#FFFFFF" stroke="#FFFFFF" stroke-width="0.75" stroke-miterlimit="10" d="M913.523,92.44l0.646-0.141
		c0.096,0.406,0.252,0.742,0.467,1.008c0.216,0.266,0.485,0.391,0.809,0.375s0.58-0.188,0.771-0.516s0.275-0.703,0.252-1.125
		c-0.024-0.422-0.15-0.75-0.377-0.984c-0.229-0.234-0.593-0.398-1.096-0.492v-0.609c0.503-0.063,0.867-0.234,1.096-0.516
		c0.227-0.281,0.328-0.648,0.305-1.102c-0.024-0.453-0.18-0.781-0.467-0.984s-0.592-0.227-0.915-0.07s-0.581,0.594-0.772,1.313
		l-0.646-0.141c0.144-0.563,0.342-1.031,0.593-1.406s0.593-0.594,1.023-0.656s0.808,0.008,1.131,0.211s0.551,0.516,0.683,0.938
		c0.131,0.422,0.148,0.883,0.054,1.383c-0.096,0.5-0.372,0.938-0.826,1.313c0.335,0.188,0.593,0.469,0.772,0.844
		c0.179,0.375,0.238,0.867,0.179,1.477s-0.269,1.102-0.628,1.477s-0.767,0.555-1.221,0.539c-0.455-0.016-0.85-0.203-1.186-0.563
		C913.834,93.651,913.618,93.128,913.523,92.44z"/>
</g>
<g>
	<path fill="#FFFFFF" stroke="#FFFFFF" stroke-width="0.75" stroke-miterlimit="10" d="M966.78,92.675h-2.766v-0.797l2.909-5.484
		h0.538v5.484h0.862v0.797h-0.862v1.781h-0.682V92.675z M966.78,91.878v-3.703l-2.012,3.703H966.78z"/>
</g>
<g>
	<path fill="#FFFFFF" stroke="#FFFFFF" stroke-width="0.75" stroke-miterlimit="10" d="M1016.274,92.253
		c0.167,0.844,0.454,1.313,0.861,1.406s0.736,0.039,0.988-0.164c0.251-0.203,0.431-0.469,0.538-0.797
		c0.108-0.328,0.155-0.695,0.144-1.102s-0.096-0.75-0.251-1.031c-0.156-0.281-0.354-0.469-0.593-0.563s-0.509-0.094-0.808,0
		c-0.3,0.094-0.545,0.313-0.736,0.656l-0.61-0.094c0.048-0.188,0.275-1.531,0.682-4.031h2.838v0.844h-2.299
		c-0.12,0.844-0.239,1.516-0.359,2.016c0.359-0.219,0.694-0.32,1.006-0.305c0.311,0.016,0.61,0.109,0.897,0.281
		s0.497,0.406,0.629,0.703c0.131,0.297,0.227,0.594,0.287,0.891c0.06,0.297,0.083,0.617,0.071,0.961s-0.066,0.695-0.161,1.055
		c-0.096,0.359-0.239,0.656-0.431,0.891c-0.192,0.234-0.426,0.422-0.7,0.563c-0.276,0.141-0.593,0.195-0.952,0.164
		s-0.7-0.203-1.023-0.516c-0.322-0.313-0.545-0.844-0.664-1.594L1016.274,92.253z"/>
</g>
<g>
	<path fill="#FFFFFF" stroke="#FFFFFF" stroke-width="0.75" stroke-miterlimit="10" d="M863.109,131.878h-3.089v-0.844h3.843v0.797
		c-1.126,2.375-1.867,4.75-2.227,7.125h-0.79C861.278,136.581,862.032,134.222,863.109,131.878z"/>
</g>
<g>
	<path fill="#FFFFFF" stroke="#FFFFFF" stroke-width="0.75" stroke-miterlimit="10" d="M808.28,136.214
		c0.023-0.453,0.09-0.836,0.197-1.148s0.27-0.703,0.484-1.172l1.473-3h0.826l-1.509,3.094c0.646-0.219,1.161-0.188,1.544,0.094
		s0.641,0.602,0.772,0.961c0.131,0.359,0.203,0.75,0.216,1.172c0.012,0.422-0.036,0.836-0.145,1.242
		c-0.107,0.406-0.299,0.773-0.574,1.102s-0.658,0.508-1.148,0.539c-0.491,0.031-0.91-0.086-1.258-0.352
		c-0.347-0.266-0.586-0.641-0.718-1.125S808.256,136.667,808.28,136.214z M809.394,137.761c0.215,0.297,0.502,0.461,0.861,0.492
		s0.658-0.125,0.897-0.469s0.359-0.844,0.359-1.5s-0.149-1.109-0.449-1.359s-0.634-0.344-1.005-0.281s-0.641,0.297-0.809,0.703
		c-0.167,0.406-0.239,0.836-0.215,1.289C809.058,137.089,809.178,137.464,809.394,137.761z"/>
</g>
<g>
	<path fill="#FFFFFF" stroke="#FFFFFF" stroke-width="0.75" stroke-miterlimit="10" d="M912.128,136.659
		c0-0.375,0.071-0.742,0.215-1.102s0.383-0.648,0.719-0.867c-0.288-0.219-0.479-0.461-0.575-0.727s-0.149-0.57-0.161-0.914
		c-0.013-0.344,0.023-0.641,0.107-0.891s0.209-0.484,0.377-0.703c0.167-0.219,0.354-0.367,0.557-0.445s0.425-0.117,0.664-0.117
		s0.455,0.031,0.646,0.094s0.395,0.195,0.61,0.398s0.371,0.492,0.467,0.867s0.09,0.813-0.018,1.313
		c-0.108,0.5-0.39,0.891-0.844,1.172c0.406,0.156,0.693,0.398,0.861,0.727c0.167,0.328,0.251,0.727,0.251,1.195
		s-0.053,0.844-0.161,1.125c-0.107,0.281-0.228,0.516-0.358,0.703c-0.133,0.188-0.313,0.336-0.539,0.445
		c-0.229,0.109-0.516,0.164-0.862,0.164s-0.646-0.055-0.897-0.164c-0.251-0.109-0.461-0.273-0.628-0.492
		c-0.168-0.219-0.282-0.477-0.342-0.773S912.128,137.034,912.128,136.659z M912.863,136.612c-0.013,0.375,0.036,0.703,0.144,0.984
		s0.306,0.461,0.593,0.539s0.586,0.07,0.897-0.023c0.311-0.094,0.526-0.313,0.646-0.656c0.119-0.344,0.162-0.688,0.126-1.031
		s-0.187-0.633-0.449-0.867c-0.264-0.234-0.551-0.336-0.861-0.305c-0.312,0.031-0.569,0.172-0.772,0.422
		S912.875,136.237,912.863,136.612z M912.989,132.956c0,0.313,0.084,0.609,0.251,0.891s0.431,0.422,0.79,0.422
		s0.629-0.141,0.809-0.422c0.179-0.281,0.263-0.617,0.251-1.008c-0.013-0.391-0.12-0.68-0.323-0.867s-0.479-0.266-0.826-0.234
		s-0.592,0.164-0.736,0.398C913.062,132.37,912.989,132.644,912.989,132.956z"/>
</g>
<g>
	<path fill="#FFFFFF" stroke="#FFFFFF" stroke-width="0.75" stroke-miterlimit="10" d="M966.019,139.097
		c0.525-1.156,0.957-2.203,1.292-3.141c-0.599,0.125-1.095,0.023-1.489-0.305c-0.396-0.328-0.635-0.773-0.719-1.336
		s-0.078-1.07,0.018-1.523s0.246-0.828,0.449-1.125s0.449-0.508,0.736-0.633s0.544-0.188,0.771-0.188s0.461,0.063,0.7,0.188
		s0.455,0.313,0.646,0.563s0.323,0.508,0.396,0.773c0.071,0.266,0.107,0.609,0.107,1.031s-0.12,0.961-0.359,1.617
		s-0.826,2.016-1.76,4.078H966.019z M965.821,133.847c0.035,0.406,0.166,0.742,0.395,1.008c0.227,0.266,0.473,0.383,0.736,0.352
		c0.263-0.031,0.473-0.125,0.628-0.281s0.306-0.422,0.449-0.797c0.095-0.469,0.119-0.867,0.071-1.195s-0.174-0.602-0.377-0.82
		s-0.425-0.328-0.664-0.328c-0.144-0.031-0.329,0.016-0.557,0.141s-0.407,0.375-0.539,0.75
		C965.833,133.05,965.785,133.44,965.821,133.847z"/>
</g>
<g>
	<path fill="#FFFFFF" stroke="#FFFFFF" stroke-width="0.75" stroke-miterlimit="10" d="M1015.808,134.479
		c0.023-0.828,0.113-1.484,0.27-1.969c0.155-0.484,0.377-0.883,0.664-1.195s0.641-0.469,1.06-0.469c0.418,0,0.783,0.227,1.095,0.68
		c0.311,0.453,0.515,1.023,0.61,1.711s0.126,1.477,0.09,2.367s-0.155,1.617-0.358,2.18c-0.204,0.563-0.51,0.953-0.916,1.172
		c-0.407,0.219-0.814,0.195-1.221-0.07c-0.408-0.266-0.695-0.617-0.862-1.055s-0.287-0.898-0.358-1.383
		C1015.808,135.964,1015.783,135.308,1015.808,134.479z M1016.562,134.198c-0.072,0.859-0.048,1.625,0.072,2.297
		c0.119,0.672,0.316,1.148,0.592,1.43s0.557,0.336,0.844,0.164s0.497-0.516,0.629-1.031c0.131-0.516,0.197-1.078,0.197-1.688
		s-0.018-1.164-0.054-1.664s-0.144-0.953-0.323-1.359s-0.419-0.617-0.718-0.633c-0.3-0.016-0.563,0.18-0.79,0.586
		C1016.782,132.706,1016.634,133.339,1016.562,134.198z"/>
</g>
<path fill="#444344" stroke="#050101" stroke-width="0.75" stroke-miterlimit="10" d="M978.301,40.18c0,1.656-0.789,3-1.763,3
	H675.533c-0.974,0-1.763-1.344-1.763-3v-26c0-1.656,0.789-3,1.763-3h301.005c0.974,0,1.763,1.344,1.763,3V40.18z"/>
<g>
	<rect x="680.307" y="21.345" fill="#EAEAEA" width="7.683" height="7.683"/>
	<rect x="690.58" y="21.345" fill="#EAEAEA" width="7.683" height="7.683"/>
	<rect x="701.26" y="23.383" fill="#919090" width="3.606" height="3.607"/>
</g>
<g>
	<rect x="733.843" y="21.345" fill="#EAEAEA" width="7.683" height="7.683"/>
	<rect x="744.116" y="21.345" fill="#EAEAEA" width="7.683" height="7.683"/>
	<rect x="754.796" y="23.383" fill="#919090" width="3.606" height="3.607"/>
</g>
<g>
	<rect x="787.378" y="21.345" fill="#EAEAEA" width="7.683" height="7.683"/>
	<rect x="797.651" y="21.345" fill="#EAEAEA" width="7.683" height="7.683"/>
	<rect x="808.331" y="23.383" fill="#919090" width="3.606" height="3.607"/>
</g>
<g>
	<rect x="840.914" y="21.345" fill="#EAEAEA" width="7.683" height="7.683"/>
	<rect x="851.188" y="21.345" fill="#EAEAEA" width="7.683" height="7.683"/>
	<rect x="861.867" y="23.383" fill="#919090" width="3.606" height="3.607"/>
</g>
<g>
	<rect x="894.45" y="21.345" fill="#EAEAEA" width="7.683" height="7.683"/>
	<rect x="904.724" y="21.345" fill="#EAEAEA" width="7.683" height="7.683"/>
	<rect x="915.403" y="23.383" fill="#919090" width="3.606" height="3.607"/>
</g>
<g>
	<rect x="947.985" y="21.345" fill="#EAEAEA" width="7.683" height="7.683"/>
	<rect x="958.259" y="21.345" fill="#EAEAEA" width="7.683" height="7.683"/>
	<rect x="968.938" y="23.383" fill="#919090" width="3.606" height="3.607"/>
</g>
<rect x="835.728" y="156.347" fill="#6285C3" width="2.794" height="5"/>
<rect x="839.267" y="156.347" fill="#6285C3" width="2.794" height="5"/>
<rect x="888.357" y="156.347" fill="#6285C3" width="2.794" height="5"/>
<rect x="891.896" y="156.347" fill="#6285C3" width="2.794" height="5"/>
<rect x="895.607" y="156.347" fill="#6285C3" width="2.794" height="5"/>
<rect x="992.46" y="156.347" fill="#6285C3" width="2.794" height="5"/>
<rect x="995.999" y="156.347" fill="#6285C3" width="2.794" height="5"/>
<rect x="999.71" y="156.347" fill="#6285C3" width="2.794" height="5"/>
<rect x="1044.293" y="156.347" fill="#6285C3" width="2.794" height="5"/>
<rect x="1047.832" y="156.347" fill="#6285C3" width="2.794" height="5"/>
<rect x="1051.543" y="156.347" fill="#6285C3" width="2.794" height="5"/>
<rect x="936.626" y="156.347" fill="#6285C3" width="2.794" height="5"/>
<rect x="940.165" y="156.347" fill="#6285C3" width="2.794" height="5"/>
<rect x="943.876" y="156.347" fill="#6285C3" width="2.794" height="5"/>
<rect x="947.357" y="156.347" fill="#6285C3" width="2.794" height="5"/>
<rect x="835.728" y="113.597" fill="#6285C3" width="2.794" height="5"/>
<rect x="839.267" y="113.597" fill="#6285C3" width="2.794" height="5"/>
<rect x="888.357" y="113.597" fill="#6285C3" width="2.794" height="5"/>
<rect x="891.896" y="113.597" fill="#6285C3" width="2.794" height="5"/>
<rect x="895.607" y="113.597" fill="#6285C3" width="2.794" height="5"/>
<rect x="992.46" y="113.597" fill="#6285C3" width="2.794" height="5"/>
<rect x="995.999" y="113.597" fill="#6285C3" width="2.794" height="5"/>
<rect x="999.71" y="113.597" fill="#6285C3" width="2.794" height="5"/>
<rect x="1044.293" y="113.597" fill="#6285C3" width="2.794" height="5"/>
<rect x="1047.832" y="113.597" fill="#6285C3" width="2.794" height="5"/>
<rect x="1051.543" y="113.597" fill="#6285C3" width="2.794" height="5"/>
<rect x="936.626" y="113.597" fill="#6285C3" width="2.794" height="5"/>
<rect x="940.165" y="113.597" fill="#6285C3" width="2.794" height="5"/>
<rect x="943.876" y="113.597" fill="#6285C3" width="2.794" height="5"/>
<rect x="947.357" y="113.597" fill="#6285C3" width="2.794" height="5"/>
</svg>
