<?xml version="1.0" encoding="utf-8"?>
<!-- Generator: Adobe Illustrator 16.0.0, SVG Export Plug-In . SVG Version: 6.00 Build 0)  -->
<!DOCTYPE svg PUBLIC "-//W3C//DTD SVG 1.1//EN" "http://www.w3.org/Graphics/SVG/1.1/DTD/svg11.dtd">
<svg version="1.1" id="图层_1" xmlns="http://www.w3.org/2000/svg" xmlns:xlink="http://www.w3.org/1999/xlink" x="0px" y="0px"
	 width="390px" height="26.09px" viewBox="0 0 390 26.09" enable-background="new 0 0 390 26.09" xml:space="preserve">
<g>
	<defs>
		<path id="SVGID_1_" d="M387.624,13.539l-2.314,8.713c-0.605,2.279-2.67,3.869-5.031,3.869h-1.946
			c-5.198,0-9.145-4.678-8.274-9.803l2.187-12.833l16.004,0.779l0.095,3.465c0.002,0.076,0.002,0.153,0.002,0.231
			C388.345,9.735,388.042,11.842,387.624,13.539"/>
	</defs>
	<clipPath id="SVGID_2_">
		<use xlink:href="#SVGID_1_"  overflow="visible"/>
	</clipPath>
	
		<linearGradient id="SVGID_3_" gradientUnits="userSpaceOnUse" x1="-186.6177" y1="103.5625" x2="-185.6177" y2="103.5625" gradientTransform="matrix(-8.6407 -21.6016 21.6016 -8.6407 -3465.5469 -3108.375)">
		<stop  offset="0" style="stop-color:#575555"/>
		<stop  offset="1" style="stop-color:#2F2C2D"/>
	</linearGradient>
	<polygon clip-path="url(#SVGID_2_)" fill="url(#SVGID_3_)" points="396.151,22.998 385.702,-3.122 361.381,6.607 371.829,32.727 	
		"/>
</g>
<g>
	<defs>
		<path id="SVGID_4_" d="M3.093,12.73l2.314,8.713c0.605,2.279,2.67,3.869,5.031,3.869h1.947c5.197,0,9.144-4.678,8.273-9.803
			L18.473,2.676L2.469,3.456L2.374,6.92C2.372,6.997,2.372,7.074,2.372,7.152C2.372,8.926,2.675,11.034,3.093,12.73"/>
	</defs>
	<clipPath id="SVGID_5_">
		<use xlink:href="#SVGID_4_"  overflow="visible"/>
	</clipPath>
	
		<linearGradient id="SVGID_6_" gradientUnits="userSpaceOnUse" x1="-322.8374" y1="444.2012" x2="-321.8374" y2="444.2012" gradientTransform="matrix(8.6407 -21.6016 -21.6016 -8.6407 12391.6719 -3108.375)">
		<stop  offset="0" style="stop-color:#575555"/>
		<stop  offset="1" style="stop-color:#2F2C2D"/>
	</linearGradient>
	<polygon clip-path="url(#SVGID_5_)" fill="url(#SVGID_6_)" points="-5.436,22.189 5.014,-3.93 29.335,5.798 18.888,31.918 	"/>
</g>
<g>
	<defs>
		<path id="SVGID_7_" d="M390.001,9.909c0,5.451-4.422,9.873-9.875,9.873H9.875C4.421,19.781,0,15.361,0,9.909
			c0-5.454,4.421-9.874,9.875-9.874h370.251C385.579,0.035,390.001,4.455,390.001,9.909L390.001,9.909z"/>
	</defs>
	<clipPath id="SVGID_8_">
		<use xlink:href="#SVGID_7_"  overflow="visible"/>
	</clipPath>
	
		<linearGradient id="SVGID_9_" gradientUnits="userSpaceOnUse" x1="-1022.4077" y1="736.5723" x2="-1021.4077" y2="736.5723" gradientTransform="matrix(0 19.7471 -19.7471 0 14740.1563 20189.625)">
		<stop  offset="0" style="stop-color:#090808"/>
		<stop  offset="0.2966" style="stop-color:#666565"/>
		<stop  offset="0.9951" style="stop-color:#1F2023"/>
	</linearGradient>
	<rect y="0.035" clip-path="url(#SVGID_8_)" fill="url(#SVGID_9_)" width="390.001" height="19.747"/>
</g>
</svg>
