<?xml version="1.0" encoding="utf-8"?>
<!-- Generator: Adobe Illustrator 16.0.0, SVG Export Plug-In . SVG Version: 6.00 Build 0)  -->
<!DOCTYPE svg PUBLIC "-//W3C//DTD SVG 1.1//EN" "http://www.w3.org/Graphics/SVG/1.1/DTD/svg11.dtd">
<svg version="1.1" id="图层_1" xmlns="http://www.w3.org/2000/svg" xmlns:xlink="http://www.w3.org/1999/xlink" x="0px" y="0px"
	 width="1275.59px" height="252px" viewBox="0 0 1275.59 252" enable-background="new 0 0 1275.59 252" xml:space="preserve">
<rect fill="#3D3D3F" width="1275.59" height="252"/>
<path fill="#0E0E0E" d="M88.101,113.023h6.769h319.519c0,0,72.775-2.059,98.695,19.941c25.92,22,68.788,16,68.788,16h605.789V3.023
	H88.101V113.023z"/>
<path fill="#474747" d="M88.101,110h6.769h319.519c0,0,72.775-2.059,98.695,19.941c25.92,22,68.788,16,68.788,16h605.789V0H88.101
	V110z"/>
<g>
	<g>
		<path fill="none" stroke="#285EAB" stroke-miterlimit="10" d="M190.622,47.206"/>
		<path fill="none" stroke="#285EAB" stroke-miterlimit="10" d="M190.051,47.206"/>
		<path fill="#FFFFFF" d="M189.759,48.277c0,0-6.709-20.2,13.847-25.875c20.557-5.674,24.625,11.135,24.625,11.135
			s-3.105,5.889-6.103,2.355c-2.998-3.533-1.071,33.084,27.623,17.023c0,0-8.601,15.489-28.016,2.57c0,0-0.784-0.445-1.818-1.588
			c-2.455-2.714-6.321-9.36-4.463-23.322c0,0-7.28,13.275,2.57,22.27c0,0-15.275-3.141-10.992-23.982
			C207.032,28.863,187.403,29.289,189.759,48.277z"/>
		<path fill="#FFFFFF" d="M206.111,19.583c0,0,17.202-12.205,29.764,6.995l-3.569,4.212
			C232.306,30.79,225.811,17.798,206.111,19.583z"/>
	</g>
	<g>
		<path fill="#FFFFFF" stroke="#FFFFFF" stroke-width="0.5" stroke-miterlimit="10" d="M182.864,70.77
			c-0.288-0.217-0.955-1.027-1.099-1.332c-0.18-0.379-0.162-0.523,0.432-0.414c1.081,0.197,1.531,0.666,1.513,1.188
			C183.674,70.877,183.313,71.129,182.864,70.77z M183.062,76.711c-0.18,0.99-0.378,1.008-0.99-0.252
			c-0.432-0.918-0.432-1.117-0.234-1.225c0.252-0.125,0.324-0.197,0.666-0.811c0.288-0.559,0.955-1.891,1.278-2.557
			c0.36-0.738,0.63-0.611,0.396,0.127C183.656,73.758,183.368,74.947,183.062,76.711z M184.25,67.385
			c-0.414-0.289-0.81-0.738-1.278-1.332c-0.252-0.324-0.216-0.541,0.342-0.451c1.099,0.162,1.729,0.559,1.711,1.17
			C185.006,67.51,184.682,67.709,184.25,67.385z M185.708,72.93c-0.324,0.234-0.468,0.27-1.044-0.18
			c-0.378-0.307-0.378-0.469,0.072-0.521c0.27-0.037,0.432-0.072,1.368-0.434c0.09-2.143,0.036-2.52-0.414-2.844
			c-0.45,0.053-0.81,0.035-0.918-0.018c-0.324-0.162-0.306-0.324,0.072-0.414c0.486-0.109,1.188-0.289,1.603-0.434
			c0.702-0.252,1.134-0.342,1.512-0.215c0.63,0.215,0.522,0.467,0.18,0.576c-0.414,0.125-0.684,0.197-1.891,0.414
			c0.882,0.287,0.918,0.449,0.756,0.863c-0.108,0.289-0.144,0.721-0.18,1.766c1.314-0.523,1.531-0.613,1.765-0.648
			c0.504-0.072,0.558,0.143,0.18,0.324C187.869,71.598,186.285,72.553,185.708,72.93z M192.82,75.451
			c-0.99-0.145-2.665-0.018-5.149,0.611c-0.522,0.127-0.792,0.072-1.26-0.307c-0.45-0.322-0.432-0.414,0.198-0.432
			c0.828-0.018,1.89-0.145,5.186-0.721c0.702-0.125,1.008-0.125,1.638,0.199C193.937,75.072,193.811,75.594,192.82,75.451z
			 M195.954,74.947c-0.234,2.682-0.63,3.6-1.693,4.465c-0.486,0.414-0.828,0.396-0.936,0.018c-0.144-0.449-0.396-0.955-0.846-1.584
			c-0.252-0.379-0.198-0.504,0.216-0.324c0.918,0.432,1.243,0.521,1.531,0c0.45-0.775,0.81-2.342,0.72-3.816
			c-0.036-0.559-0.108-0.648-0.792-0.668c-0.594-0.018-0.918,0-2.628,0.252c-0.973,0.145-1.603,0.324-2.017,0.576
			c-0.36,0.234-0.576,0.199-0.738-0.09c-0.198-0.359-0.252-0.504,0.018-0.828c0.378-0.467,0.45-1.098,0.433-3.061
			c-0.018-2.053-0.036-2.287-0.378-2.844c-0.252-0.434-0.09-0.631,0.667-0.252c1.206-1.748,1.476-2.305,1.368-2.611
			c-0.144-0.486,0.036-0.648,0.972-0.414c0.918,0.234,0.918,0.486,0.306,0.918c-0.144,0.107-0.846,0.684-2.269,2.088
			c0.936-0.143,1.927-0.396,2.539-0.648c0.486-0.197,0.63-0.232,1.26,0.072c0.829,0.414,0.937,0.648,0.594,0.99
			c-0.306,0.289-0.36,0.414-0.45,1.027c-0.378,2.592-0.396,2.701-0.721,3.168c-0.342,0.541-0.666,0.596-0.936,0.289
			c-0.216-0.252-0.306-0.361-0.846-0.828c-0.198-0.18-0.144-0.289,0.126-0.271c0.882,0.037,0.99-0.107,1.098-0.484
			c0.234-0.883,0.27-1.262,0.27-2.594c0-0.576-0.09-0.684-0.882-0.594c-0.234,0.018-0.774,0.107-1.999,0.287
			c0.09,1.01,0.036,2.971-0.162,5.799c3.475-0.432,3.655-0.469,4.465-0.703c0.594-0.162,0.918-0.145,1.584,0.252
			c0.792,0.469,0.846,0.631,0.54,0.973C196.098,73.813,196.025,74.082,195.954,74.947z M191.362,69.418
			c-0.342-0.18-0.72-0.539-0.918-0.846c-0.09-0.125-0.018-0.377,0.288-0.342c0.756,0.09,1.152,0.289,1.17,0.828
			C191.92,69.473,191.704,69.6,191.362,69.418z"/>
		<path fill="#FFFFFF" stroke="#FFFFFF" stroke-width="0.5" stroke-miterlimit="10" d="M215.808,74.73
			c-2.899,0.342-3.169,0.252-3.637-0.234c-0.648-0.684-2.287-2.557-3.655-4.105c-0.846,0.109-1.548,0.217-2.125,0.307
			c-1.333,2.557-3.529,4.645-5.87,5.365c-0.54,0.162-0.594-0.072-0.126-0.342c2.053-1.117,3.925-2.936,5.042-4.879
			c-0.414,0.072-0.738,0.143-0.972,0.215c-0.54,0.162-1.477,0.182-1.999-0.162c-0.324-0.215-0.324-0.395,0.09-0.414
			c0.378-0.018,2.233-0.162,3.223-0.305c0.216-0.451,0.378-0.938,0.486-1.369c-1.062,0.107-1.404,0.09-1.873-0.018
			c-0.324-0.109-0.342-0.324,0.09-0.379c0.72-0.09,1.368-0.162,1.926-0.234c0.126-0.557,0.234-1.025,0.306-1.477
			c-1.603,0.217-2.017,0.162-2.575-0.035c-0.486-0.145-0.504-0.342,0.036-0.379c0.774-0.053,1.747-0.162,2.683-0.287
			c0.108-0.955,0.072-1.404-0.054-1.639c-0.396-0.631-0.216-0.846,0.738-0.541c0.9,0.324,0.9,0.506,0.72,0.9
			c-0.18,0.361-0.306,0.721-0.414,1.117c0.792-0.127,1.477-0.289,1.945-0.414c0.648-0.18,1.26-0.289,1.747-0.055
			c0.36,0.127,0.288,0.432-0.054,0.559c-0.396,0.145-1.35,0.307-3.799,0.631c-0.108,0.539-0.234,1.025-0.36,1.494
			c0.81-0.145,1.44-0.289,1.891-0.396c0.558-0.162,0.918-0.234,1.314-0.18c0.378,0.053,0.504,0.504-0.036,0.648
			c-0.558,0.162-1.152,0.252-3.349,0.539c-0.18,0.576-0.324,1.063-0.468,1.369c1.242-0.18,2.143-0.307,3.169-0.521
			c1.476-0.289,1.944-0.289,2.521,0c0.648,0.342,0.486,0.738-0.378,0.701c-0.882-0.035-2.125,0.018-2.881,0.107
			c2.61,2.576,4.141,3.404,6.752,3.998C216.24,74.406,216.222,74.676,215.808,74.73z M205.635,76.404
			c-0.918,0.486-1.531,0.848-1.945,1.135c-0.414,0.324-0.666,0.359-1.098-0.234c-0.288-0.414-0.234-0.701,0.126-0.684
			c0.306,0.018,0.54-0.018,1.134-0.145c0.702-0.145,1.063-0.234,1.692-0.449c0.378-0.109,0.541-0.09,0.576-0.018
			C206.157,76.1,206.049,76.189,205.635,76.404z M205.203,75.307c-0.306-0.18-0.72-0.684-0.955-1.063
			c-0.18-0.307-0.072-0.469,0.234-0.359c1.206,0.359,1.296,0.449,1.278,1.043C205.743,75.324,205.509,75.504,205.203,75.307z
			 M207.742,77.07c0,1.441-0.144,1.801-0.648,2.449c-0.252,0.324-0.504,0.27-0.685-0.145c-0.198-0.449-0.468-0.881-0.81-1.295
			c-0.324-0.396-0.144-0.486,0.216-0.342c0.72,0.232,0.864,0.16,0.954-0.396c0.09-0.576,0.108-1.045,0.108-2.846
			c0-0.539-0.144-1.549-0.324-1.854c-0.288-0.486-0.036-0.721,0.829-0.324c0.522,0.234,0.54,0.432,0.414,0.9
			C207.742,73.416,207.724,75.162,207.742,77.07z M209.614,74.533c-0.324,0.215-0.738,0.432-1.188,0.594
			c-0.27,0.09-0.36-0.037-0.144-0.252c0.9-0.828,1.296-1.404,1.279-1.693c-0.018-0.197,0.126-0.359,0.396-0.234
			c0.828,0.451,0.9,0.793,0.522,1.045C210.245,74.137,209.92,74.334,209.614,74.533z M211.055,77.918
			c-0.666-0.414-1.494-0.973-2.413-1.656c-0.324-0.234-0.288-0.469,0.144-0.379c2.611,0.521,3.025,0.9,3.115,1.531
			C211.991,78.08,211.577,78.26,211.055,77.918z"/>
		<path fill="#FFFFFF" stroke="#FFFFFF" stroke-width="0.5" stroke-miterlimit="10" d="M232.26,74.695
			c-0.108,2.43-0.414,3.365-1.242,4.248c-0.684,0.756-0.9,0.721-1.17,0.127c-0.162-0.342-0.648-1.027-0.811-1.152
			c-0.738-0.721-0.684-0.811-0.054-0.613c1.351,0.414,1.566,0.324,1.836-0.811c0.234-1.008,0.36-2.43,0.324-3.457
			c-0.036-0.953-0.144-1.043-1.314-1.061c-1.098-0.02-3.943,0.252-8.409,0.828c0.09,0.791,0.216,1.98,0.216,3.223
			c0,0.486-0.018,1.387-0.072,1.801c-0.144,0.99-0.522,1.008-0.99-0.072c-0.234-0.559-0.216-0.828,0.108-1.818
			c0.216-0.648-0.018-2.666-0.414-3.225c-0.54-0.736-0.432-0.898,0.955-0.467c2.575-0.217,9.128-1.063,9.309-1.135
			c0.504-0.197,0.918-0.145,1.657,0.324c0.828,0.521,0.864,0.811,0.414,1.35C232.404,73.02,232.314,73.451,232.26,74.695z
			 M230.316,66.447c-1.207-0.143-5.834,0.307-7.238,0.648c-1.098,0.271-1.495,0.217-1.765,0.037
			c-0.594-0.396-0.54-0.631,0.126-0.631c0.63,0,5.798-0.631,7.004-0.863c1.548-0.324,1.944-0.307,2.431-0.162
			C232.296,65.871,232.116,66.682,230.316,66.447z M227.849,74.875c-0.162,0.18-0.09,0.359,0.072,0.521s0.054,0.451-0.396,0.486
			c-0.216,0.018-1.098,0.107-1.8,0.18c-0.342,0.037-0.882,0.072-1.333,0.09c-0.162,0.686-0.558,0.594-0.667-0.035
			c-0.09-0.684-0.396-1.621-0.702-1.98c-0.288-0.324-0.18-0.559,0.685-0.361c1.134-0.053,2.683-0.377,2.881-0.467
			c0.684-0.307,0.792-0.307,1.476,0.053c0.864,0.486,0.882,0.631,0.541,0.865C228.317,74.424,228.065,74.604,227.849,74.875z
			 M228.299,69.311c-0.108,0.127-0.126,0.379-0.072,0.559c0.054,0.217-0.018,0.469-0.432,0.469c-0.198,0-0.9,0.053-1.639,0.143
			c-0.558,0.09-1.152,0.127-1.566,0.145c-0.126,0.414-0.414,0.396-0.576-0.197c-0.216-0.631-0.468-1.404-0.702-1.766
			c-0.342-0.486-0.216-0.629,0.973-0.359c1.314-0.107,2.736-0.396,2.898-0.486c0.541-0.289,0.685-0.289,1.314-0.018
			c0.792,0.324,0.846,0.684,0.594,0.828C228.894,68.752,228.497,69.076,228.299,69.311z M226.462,73.92
			c-0.432,0.037-1.386,0.145-2.269,0.307c0.108,0.359,0.198,0.863,0.216,1.387c0.882-0.109,1.62-0.252,1.926-0.324
			c0.324-0.072,0.432-0.145,0.63-0.99C227.039,73.957,226.841,73.902,226.462,73.92z M226.931,68.447
			c-0.504,0.035-1.692,0.18-2.467,0.287c0.108,0.414,0.162,0.811,0.18,1.404c0.936-0.125,1.854-0.287,2.179-0.342
			c0.324-0.072,0.378-0.162,0.576-1.025C227.489,68.465,227.345,68.428,226.931,68.447z M226.336,65.367
			c-0.198-0.09-1.026-0.811-1.368-1.26c-0.234-0.324-0.18-0.451,0.378-0.451c1.26,0.02,1.854,0.324,1.891,1.117
			C227.255,65.314,226.823,65.602,226.336,65.367z"/>
		<path fill="#FFFFFF" stroke="#FFFFFF" stroke-width="0.5" stroke-miterlimit="10" d="M244.661,69.6
			c-0.504,0.09-1.333,0.27-1.909,0.395c0,0.307-0.018,0.721-0.054,1.152c1.44-0.215,1.854-0.07,2.088,0.434
			c0.162,0.342-0.09,0.648-0.486,0.576c-0.378-0.072-0.756-0.252-1.603-0.738c-0.018,1.295-0.018,2.953,0,4.43
			c0.036,0.971-0.072,1.619-0.27,2.322c-0.198,0.666-0.522,0.594-0.756-0.09c-0.288-0.865-0.324-1.189-0.072-1.98
			c0.234-0.775,0.468-3.043,0.559-4.881c-0.99,2.035-2.971,3.871-4.592,4.412c-0.342,0.107-0.414-0.107-0.198-0.27
			c2.323-1.873,3.493-3.188,4.429-5.113c-1.134,0.322-1.71,0.504-2.809,0.863c-0.702,0.234-0.864,0.217-1.458-0.197
			c-0.504-0.344-0.432-0.703,0.27-0.648c0.324,0.035,3.061-0.451,4.393-0.793c-0.018-1.35-0.144-2.016-0.342-2.412
			c-0.756,0.252-1.531,0.467-1.819,0.521c-0.396,0.072-0.468-0.125-0.126-0.307c2.647-1.385,3.025-1.729,3.169-2.178
			c0.126-0.414,0.324-0.432,1.243,0.055c0.846,0.414,0.882,0.791,0.378,0.9c-0.252,0.053-1.134,0.342-1.333,0.432
			c-0.234,0.107-0.558,0.234-0.954,0.359c0.792,0.252,0.864,0.396,0.72,0.9c-0.09,0.342-0.234,1.008-0.306,1.549
			c1.495-0.451,1.891-0.504,2.269-0.307C245.345,69.131,245.255,69.49,244.661,69.6z M252.943,72.264
			c-0.918,0.035-2.035,0.09-2.809,0.18c0.018,4.789-0.072,6.104-0.432,7.166c-0.216,0.703-0.468,0.703-0.576-0.09
			c-0.09-0.666-0.072-3.475-0.018-6.914c-1.368,0.217-1.89,0.342-2.593,0.541c-1.044,0.287-1.224,0.215-1.602,0
			c-0.486-0.271-0.63-0.486,0.378-0.559c0.432-0.035,1.854-0.289,3.817-0.666c0.018-1.332,0-3.854-0.018-5.096
			c-0.018-1.422-0.126-1.98-0.396-2.34c-0.432-0.576-0.018-0.793,0.811-0.416c0.936,0.416,1.026,0.559,0.9,1.082
			c-0.054,0.215-0.18,1.205-0.216,2.016c-0.036,0.684-0.054,2.756-0.054,4.574c0.63-0.127,1.17-0.252,1.422-0.324
			c0.937-0.271,1.513-0.252,2.053,0.143C254.132,71.939,254.114,72.229,252.943,72.264z M247.506,70.77
			c-0.378-0.09-0.9-0.379-1.495-0.828c-0.198-0.162-0.198-0.324,0.18-0.379c1.098-0.18,1.638,0.217,1.746,0.756
			C248.01,70.715,247.794,70.842,247.506,70.77z M247.506,68.338c-0.324-0.107-0.864-0.359-1.477-0.773
			c-0.162-0.107-0.108-0.342,0.162-0.414c1.008-0.289,1.746,0.09,1.854,0.846C248.1,68.32,247.812,68.428,247.506,68.338z"/>
	</g>
	<g>
		<path fill="#FFFFFF" stroke="#FFFFFF" stroke-width="0.5" stroke-miterlimit="10" d="M181.488,82.957h0.353h0.356v2.148h2.731
			v-2.148h0.353h0.356v5.234h-0.352h-0.356v-2.459h-2.731v2.459h-0.353h-0.356V82.957z"/>
		<path fill="#FFFFFF" stroke="#FFFFFF" stroke-width="0.5" stroke-miterlimit="10" d="M187.546,87.574
			c-0.47-0.508-0.705-1.172-0.705-1.996c0-0.826,0.235-1.492,0.705-2c0.47-0.508,1.085-0.764,1.845-0.764
			c0.764,0,1.381,0.256,1.85,0.764s0.703,1.174,0.703,2c0,0.824-0.234,1.488-0.703,1.996c-0.469,0.506-1.085,0.76-1.85,0.76
			C188.631,88.334,188.017,88.08,187.546,87.574z M190.712,87.121c0.334-0.393,0.502-0.906,0.502-1.543
			c0-0.639-0.167-1.154-0.502-1.547c-0.335-0.393-0.775-0.59-1.321-0.59c-0.544,0-0.983,0.197-1.318,0.59
			c-0.334,0.393-0.502,0.908-0.502,1.547c0,0.637,0.167,1.15,0.502,1.543c0.335,0.391,0.774,0.586,1.318,0.586
			C189.937,87.707,190.377,87.512,190.712,87.121z"/>
		<path fill="#FFFFFF" stroke="#FFFFFF" stroke-width="0.5" stroke-miterlimit="10" d="M193.832,88.191h-0.342h-0.342v-5.234h0.423
			h0.427l2.621,4.254v-4.254h0.342h0.342v5.234h-0.388h-0.388l-2.695-4.27V88.191z"/>
		<path fill="#FFFFFF" stroke="#FFFFFF" stroke-width="0.5" stroke-miterlimit="10" d="M201.007,88.334
			c-0.726,0-1.313-0.254-1.762-0.76c-0.448-0.508-0.672-1.172-0.672-1.996c0-0.826,0.229-1.492,0.687-2s1.058-0.764,1.798-0.764
			c0.572,0,1.064,0.162,1.476,0.482s0.653,0.73,0.725,1.23h-0.684c-0.066-0.346-0.235-0.613-0.506-0.803
			c-0.271-0.188-0.622-0.283-1.054-0.283c-0.51,0-0.923,0.199-1.239,0.594c-0.315,0.395-0.474,0.912-0.474,1.555
			c0,0.68,0.153,1.207,0.458,1.58c0.305,0.373,0.735,0.559,1.291,0.559c0.539,0,0.975-0.197,1.307-0.59
			c0.052-0.063,0.1-0.127,0.143-0.197c0.057-0.092,0.105-0.221,0.144-0.387c0.04-0.166,0.059-0.324,0.059-0.475v-0.064h-1.641
			v-0.598h2.292v2.77h-0.441l-0.171-0.658l-0.039,0.047C202.272,88.082,201.708,88.334,201.007,88.334z"/>
		<path fill="#FFFFFF" stroke="#FFFFFF" stroke-width="0.5" stroke-miterlimit="10" d="M208.524,83.584h-1.77v-0.313v-0.314h4.248
			v0.314v0.313h-1.77v4.607h-0.353h-0.356V83.584z"/>
		<path fill="#FFFFFF" stroke="#FFFFFF" stroke-width="0.5" stroke-miterlimit="10" d="M213.549,82.957h0.402h0.406l1.88,5.234
			h-0.38h-0.38l-0.534-1.516h-2.09l-0.55,1.516h-0.364h-0.367L213.549,82.957z M213.078,86.049h1.647l-0.807-2.322h0.002
			L213.078,86.049z"/>
		<path fill="#FFFFFF" stroke="#FFFFFF" stroke-width="0.5" stroke-miterlimit="10" d="M217.36,82.957h0.353h0.356v5.234h-0.352
			h-0.356V82.957z"/>
		<path fill="#FFFFFF" stroke="#FFFFFF" stroke-width="0.5" stroke-miterlimit="10" d="M222.041,82.957h0.353h0.356v2.148h2.731
			v-2.148h0.353h0.356v5.234h-0.352h-0.356v-2.459h-2.731v2.459h-0.353h-0.356V82.957z"/>
		<path fill="#FFFFFF" stroke="#FFFFFF" stroke-width="0.5" stroke-miterlimit="10" d="M227.771,82.957h0.353h0.356v5.234h-0.352
			h-0.356V82.957z"/>
		<path fill="#FFFFFF" stroke="#FFFFFF" stroke-width="0.5" stroke-miterlimit="10" d="M229.82,85.846h1.788v0.658h-1.788V85.846z"
			/>
		<path fill="#FFFFFF" stroke="#FFFFFF" stroke-width="0.5" stroke-miterlimit="10" d="M234.166,83.584h-1.77v-0.313v-0.314h4.248
			v0.314v0.313h-1.77v4.607h-0.353h-0.356V83.584z"/>
		<path fill="#FFFFFF" stroke="#FFFFFF" stroke-width="0.5" stroke-miterlimit="10" d="M237.738,88.191v-5.234h3.828v0.314v0.313
			h-3.119v1.6h2.848v0.313v0.314h-2.848v1.754h3.158v0.314v0.313H237.738z"/>
		<path fill="#FFFFFF" stroke="#FFFFFF" stroke-width="0.5" stroke-miterlimit="10" d="M247.307,86.266
			c-0.09,0.646-0.338,1.152-0.743,1.52c-0.405,0.365-0.917,0.549-1.536,0.549c-0.722,0-1.297-0.248-1.725-0.746
			c-0.429-0.496-0.643-1.166-0.643-2.01c0-0.842,0.223-1.514,0.668-2.014c0.445-0.5,1.042-0.75,1.792-0.75
			c0.591,0,1.077,0.152,1.457,0.457c0.379,0.303,0.607,0.723,0.684,1.256h-0.684c-0.067-0.346-0.228-0.613-0.482-0.803
			c-0.255-0.188-0.583-0.283-0.985-0.283c-0.524,0-0.942,0.193-1.253,0.58c-0.311,0.385-0.467,0.904-0.467,1.557
			c0,0.693,0.145,1.221,0.433,1.584c0.289,0.363,0.707,0.545,1.255,0.545c0.406,0,0.743-0.125,1.011-0.375
			c0.268-0.25,0.446-0.605,0.534-1.066H247.307z"/>
		<path fill="#FFFFFF" stroke="#FFFFFF" stroke-width="0.5" stroke-miterlimit="10" d="M248.533,82.957h0.353h0.356v2.148h2.731
			v-2.148h0.353h0.356v5.234h-0.352h-0.356v-2.459h-2.731v2.459h-0.353h-0.356V82.957z"/>
	</g>
</g>
<path fill="#3D3D3F" stroke="#0E0E0E" stroke-miterlimit="10" d="M1195.049,71.484c0,3.781-3.066,6.848-6.848,6.848H667.596
	c-3.781,0-6.848-3.066-6.848-6.848l0,0c0-3.781,3.066-6.848,6.848-6.848h520.605C1191.982,64.637,1195.049,67.703,1195.049,71.484
	L1195.049,71.484z"/>
<path fill="#3D3D3F" stroke="#0E0E0E" stroke-miterlimit="10" d="M1195.049,104.847c0,3.781-3.066,6.848-6.848,6.848H758.393
	c-3.783,0-6.848-3.066-6.848-6.848l0,0c0-3.781,3.064-6.848,6.848-6.848h429.809C1191.982,97.999,1195.049,101.065,1195.049,104.847
	L1195.049,104.847z"/>
<rect x="1187.66" fill="#050101" width="3.965" height="252"/>
<rect x="1191.455" fill="#494949" width="84.135" height="252"/>
<g>
	<g>
		<defs>
			<path id="SVGID_1_" d="M1233.111,52.796l-10.855,2.651c-2.84,0.695-4.82,3.063-4.82,5.769v2.231
				c0,5.956,5.826,10.479,12.213,9.481l15.99-2.505l-0.971-18.343l-4.316-0.11c-0.096,0-0.191-0.002-0.289-0.002
				C1237.852,51.969,1235.225,52.316,1233.111,52.796"/>
		</defs>
		<clipPath id="SVGID_2_">
			<use xlink:href="#SVGID_1_"  overflow="visible"/>
		</clipPath>
		
			<linearGradient id="SVGID_3_" gradientUnits="userSpaceOnUse" x1="-188.7241" y1="422.9443" x2="-187.4601" y2="422.9443" gradientTransform="matrix(21.6016 8.6407 8.6407 -21.6016 1637.0156 10823.25)">
			<stop  offset="0" style="stop-color:#E1E0DF"/>
			<stop  offset="1" style="stop-color:#666767"/>
		</linearGradient>
		<polygon clip-path="url(#SVGID_2_)" fill="url(#SVGID_3_)" points="1221.326,43.024 1253.871,54.998 1241.748,82.873 
			1209.203,70.898 		"/>
	</g>
	<g>
		<defs>
			<path id="SVGID_4_" d="M1217.438,186.242v1.143c-0.002,4.545,3.338,8.521,8.139,9.691l6.461,1.574
				c3.752,0.916,7.619,1.381,11.502,1.381l2.102-18.109l-18.26-3.197c-0.535-0.094-1.068-0.139-1.592-0.139
				C1221.277,178.586,1217.438,181.936,1217.438,186.242"/>
		</defs>
		<clipPath id="SVGID_5_">
			<use xlink:href="#SVGID_4_"  overflow="visible"/>
		</clipPath>
		
			<linearGradient id="SVGID_6_" gradientUnits="userSpaceOnUse" x1="-189.8838" y1="421.4727" x2="-188.6379" y2="421.4727" gradientTransform="matrix(14.9609 0 0 -14.9609 4055.2656 6494.9219)">
			<stop  offset="0" style="stop-color:#E1E0DF"/>
			<stop  offset="1" style="stop-color:#666767"/>
		</linearGradient>
		<rect x="1217.434" y="178.586" clip-path="url(#SVGID_5_)" fill="url(#SVGID_6_)" width="28.207" height="21.445"/>
	</g>
	<g>
		<defs>
			<path id="SVGID_7_" d="M1239.037,51.975c-5.836,0-10.572,6.567-10.572,14.669v118.716c0,8.104,4.734,14.672,10.572,14.672
				c5.84,0,10.572-6.568,10.572-14.672V66.644c0-8.102-4.732-14.669-10.57-14.669H1239.037z"/>
		</defs>
		<clipPath id="SVGID_8_">
			<use xlink:href="#SVGID_7_"  overflow="visible"/>
		</clipPath>
		
			<linearGradient id="SVGID_9_" gradientUnits="userSpaceOnUse" x1="-183.1519" y1="423.002" x2="-182.0811" y2="423.002" gradientTransform="matrix(-19.7471 0 0 19.7471 -2367.125 -8227.0469)">
			<stop  offset="0" style="stop-color:#CCCDCD"/>
			<stop  offset="0.4731" style="stop-color:#E1E0DF"/>
			<stop  offset="1" style="stop-color:#666767"/>
		</linearGradient>
		<rect x="1228.465" y="51.975" clip-path="url(#SVGID_8_)" fill="url(#SVGID_9_)" width="21.145" height="148.057"/>
	</g>
</g>
<g>
	<path fill="#FDFDFE" stroke="#FDFDFE" stroke-miterlimit="10" d="M837.002,26.878h0.865h0.875v5.268h6.701v-5.268h0.863h0.875
		v12.843h-0.865h-0.873v-6.037h-6.701v6.037h-0.865h-0.875V26.878z"/>
	<path fill="#FDFDFE" stroke="#FDFDFE" stroke-miterlimit="10" d="M854.035,28.416h-4.344v-0.769v-0.769h10.424v0.769v0.769h-4.342
		v11.306h-0.865h-0.873V28.416z"/>
	<path fill="#FDFDFE" stroke="#FDFDFE" stroke-miterlimit="10" d="M862.801,39.721V26.878h9.393v0.769v0.769h-7.654v3.923h6.99
		v0.769v0.77h-6.99v4.307h7.75v0.77v0.769H862.801z"/>
	<path fill="#FDFDFE" stroke="#FDFDFE" stroke-miterlimit="10" d="M886.281,34.995c-0.223,1.584-0.83,2.826-1.822,3.727
		c-0.994,0.899-2.25,1.35-3.77,1.35c-1.771,0-3.182-0.61-4.234-1.83c-1.051-1.221-1.576-2.864-1.576-4.933
		c0-2.067,0.547-3.714,1.639-4.94s2.559-1.839,4.398-1.839c1.451,0,2.641,0.372,3.574,1.118c0.932,0.745,1.49,1.773,1.676,3.084
		h-1.676c-0.164-0.851-0.559-1.507-1.186-1.97c-0.625-0.464-1.43-0.695-2.414-0.695c-1.287,0-2.313,0.474-3.076,1.42
		s-1.145,2.221-1.145,3.822c0,1.701,0.354,2.997,1.063,3.888c0.707,0.892,1.734,1.337,3.078,1.337c0.996,0,1.824-0.307,2.482-0.922
		c0.658-0.614,1.094-1.486,1.311-2.616H886.281z"/>
	<path fill="#FDFDFE" stroke="#FDFDFE" stroke-miterlimit="10" d="M889.289,26.878h0.865h0.873v5.268h6.703v-5.268h0.863h0.875
		v12.843h-0.865h-0.873v-6.037h-6.703v6.037h-0.865h-0.873V26.878z"/>
	<path fill="#FDFDFE" stroke="#FDFDFE" stroke-miterlimit="10" d="M907.047,27.14c1.105,0,1.988,0.299,2.643,0.896
		c0.656,0.597,1.006,1.42,1.053,2.468h-1.555c-0.059-0.623-0.273-1.104-0.646-1.441s-0.871-0.507-1.494-0.507
		c-0.973,0-1.721,0.467-2.246,1.398c-0.453,0.798-0.705,1.884-0.75,3.259c0.779-0.996,1.775-1.494,2.986-1.494
		c1.189,0,2.146,0.383,2.871,1.148c0.725,0.767,1.088,1.775,1.088,3.027c0,1.253-0.395,2.261-1.184,3.023s-1.828,1.145-3.115,1.145
		c-1.375,0-2.434-0.531-3.176-1.595c-0.742-1.063-1.113-2.576-1.113-4.539c0-2.172,0.404-3.847,1.213-5.023
		C904.426,27.728,905.566,27.14,907.047,27.14z M904.242,35.894c0,0.811,0.236,1.472,0.713,1.983c0.475,0.513,1.084,0.77,1.83,0.77
		c0.744,0,1.355-0.257,1.83-0.77c0.475-0.512,0.711-1.173,0.711-1.983c0-0.81-0.236-1.472-0.711-1.987s-1.086-0.773-1.83-0.773
		c-0.746,0-1.357,0.26-1.836,0.778C904.479,34.423,904.242,35.084,904.242,35.894z"/>
	<path fill="#FDFDFE" stroke="#FDFDFE" stroke-miterlimit="10" d="M914.359,38.384c-0.75-1.118-1.123-2.711-1.123-4.779
		c0-2.067,0.373-3.662,1.123-4.783c0.748-1.121,1.809-1.682,3.184-1.682c1.387,0,2.453,0.561,3.197,1.682
		c0.746,1.121,1.119,2.716,1.119,4.783c0,2.068-0.373,3.661-1.119,4.779c-0.744,1.118-1.811,1.678-3.197,1.678
		C916.168,40.062,915.107,39.502,914.359,38.384z M919.535,37.388c0.443-0.839,0.662-2.1,0.656-3.783
		c0.006-1.683-0.213-2.945-0.656-3.787s-1.107-1.263-1.992-1.263c-0.879,0-1.537,0.421-1.975,1.263
		c-0.436,0.842-0.658,2.104-0.664,3.787c0.006,1.684,0.229,2.944,0.664,3.783c0.438,0.839,1.096,1.259,1.975,1.259
		C918.428,38.647,919.092,38.227,919.535,37.388z"/>
	<path fill="#FDFDFE" stroke="#FDFDFE" stroke-miterlimit="10" d="M925.205,38.384c-0.75-1.118-1.123-2.711-1.123-4.779
		c0-2.067,0.373-3.662,1.123-4.783c0.748-1.121,1.809-1.682,3.184-1.682c1.387,0,2.453,0.561,3.197,1.682
		c0.746,1.121,1.119,2.716,1.119,4.783c0,2.068-0.373,3.661-1.119,4.779c-0.744,1.118-1.811,1.678-3.197,1.678
		C927.014,40.062,925.953,39.502,925.205,38.384z M930.381,37.388c0.443-0.839,0.662-2.1,0.656-3.783
		c0.006-1.683-0.213-2.945-0.656-3.787s-1.107-1.263-1.992-1.263c-0.879,0-1.537,0.421-1.975,1.263
		c-0.436,0.842-0.658,2.104-0.664,3.787c0.006,1.684,0.229,2.944,0.664,3.783c0.438,0.839,1.096,1.259,1.975,1.259
		C929.273,38.647,929.938,38.227,930.381,37.388z"/>
	<path fill="#FDFDFE" stroke="#FDFDFE" stroke-miterlimit="10" d="M936.051,38.384c-0.75-1.118-1.123-2.711-1.123-4.779
		c0-2.067,0.373-3.662,1.123-4.783c0.748-1.121,1.809-1.682,3.184-1.682c1.387,0,2.453,0.561,3.197,1.682
		c0.746,1.121,1.119,2.716,1.119,4.783c0,2.068-0.373,3.661-1.119,4.779c-0.744,1.118-1.811,1.678-3.197,1.678
		C937.859,40.062,936.799,39.502,936.051,38.384z M941.227,37.388c0.443-0.839,0.662-2.1,0.656-3.783
		c0.006-1.683-0.213-2.945-0.656-3.787s-1.107-1.263-1.992-1.263c-0.879,0-1.537,0.421-1.975,1.263
		c-0.436,0.842-0.658,2.104-0.664,3.787c0.006,1.684,0.229,2.944,0.664,3.783c0.438,0.839,1.096,1.259,1.975,1.259
		C940.119,38.647,940.783,38.227,941.227,37.388z"/>
	<path fill="#FDFDFE" stroke="#FDFDFE" stroke-miterlimit="10" d="M961.201,25.904c0.107,0.071,0.16,0.125,0.16,0.179
		s-0.053,0.107-0.143,0.179l-0.502,0.358v12.672c0,0.734-0.232,1.092-1.289,1.593c-0.053,0.019-0.088,0.036-0.125,0.036
		c-0.07,0-0.107-0.054-0.125-0.179c-0.16-0.698-0.465-1.057-2.596-1.593l0.072-0.233c1.289,0.305,2.076,0.43,2.541,0.43
		c0.555,0,0.662-0.179,0.662-0.447V26.297h-11.705v10.256c0,1.343,0.018,2.648,0.055,3.437v0.144c0,0.232-0.055,0.304-0.43,0.465
		c-0.162,0.071-0.27,0.107-0.359,0.107c-0.125,0-0.16-0.125-0.16-0.412v-0.16c0.035-1.038,0.053-2.613,0.053-3.616v-8.913
		c0-0.716-0.035-1.915-0.07-2.56l1.162,0.859h11.115l0.537-0.823L961.201,25.904z M953.646,28.535
		c0.055,0.018,0.072,0.054,0.072,0.09c0,0.018-0.018,0.054-0.09,0.089c-0.5,0.251-0.572,0.322-0.752,0.788
		c-0.375,0.966-0.697,1.789-1.02,2.506c0.717,1.02,1.217,1.915,1.557,2.631c0.055,0.125,0.072,0.269,0.072,0.411
		c0,0.502-0.25,1.11-0.572,1.11c-0.18,0-0.252-0.107-0.412-0.984c-0.09-0.466-0.447-1.307-1.002-2.363
		c-0.877,1.915-1.646,3.114-2.738,4.547l-0.197-0.144c1.002-1.575,1.826-3.258,2.541-5.137c-0.59-1.038-1.342-2.22-2.184-3.4
		l0.197-0.144c0.895,1.021,1.629,1.951,2.256,2.792c0.393-1.092,0.75-2.273,1.109-3.526L953.646,28.535z M958.588,28.642
		c0.053,0.036,0.088,0.071,0.088,0.09c0,0.035-0.035,0.054-0.125,0.089c-0.447,0.161-0.482,0.215-0.715,0.806
		c-0.359,0.931-0.717,1.808-1.092,2.613c0.77,1.181,1.664,2.936,1.664,3.472c0,0.52-0.322,1.003-0.59,1.003
		c-0.18,0-0.305-0.125-0.447-0.984c-0.107-0.608-0.412-1.558-0.986-2.738c-0.965,1.969-2.004,3.562-3.186,4.797l-0.197-0.144
		c1.074-1.45,2.148-3.437,2.973-5.441c-0.52-0.967-1.182-2.04-2.006-3.204l0.197-0.143c0.842,0.967,1.521,1.861,2.076,2.667
		c0.52-1.307,0.895-2.596,1.074-3.705L958.588,28.642z"/>
	<path fill="#FDFDFE" stroke="#FDFDFE" stroke-miterlimit="10" d="M971.092,28.75c0.107,0.054,0.145,0.107,0.145,0.161
		c0,0.035-0.037,0.071-0.145,0.089c-0.393,0.072-0.77,0.341-1.127,0.788c-1.234,1.557-2.363,2.882-3.885,4.475l4.547-0.645
		l0.035,0.251c-3.775,0.948-4.545,1.253-4.975,1.629c-0.055,0.035-0.09,0.054-0.125,0.054c-0.037,0-0.072-0.019-0.107-0.072
		l-0.682-1.109c0.574-0.125,1.057-0.376,1.541-0.984c0.732-0.913,1.592-1.987,2.326-3.24c-1.879,0.341-2.846,0.627-3.348,0.949
		c-0.053,0.035-0.09,0.035-0.125,0.035s-0.072-0.018-0.107-0.071l-0.627-1.021c0.43,0,0.824-0.16,1.109-0.482
		c0.932-1.057,2.273-3.616,2.721-4.833l1.164,0.698c0.09,0.054,0.143,0.089,0.143,0.125s-0.053,0.071-0.125,0.09
		c-0.305,0.107-0.537,0.304-0.859,0.733c-0.787,1.074-1.717,2.256-2.971,3.651l3.223-0.161c0.465-0.68,0.859-1.414,1.092-1.915
		L971.092,28.75z M970.537,37.125l-2.971,1.021c-1.164,0.394-1.826,0.734-2.076,1.021c-0.055,0.054-0.09,0.071-0.125,0.071
		c-0.018,0-0.055-0.018-0.09-0.071l-0.627-1.092l5.818-1.182L970.537,37.125z M981.455,33.815c-0.84,0.089-1.162,0.286-1.414,0.662
		c-0.035,0.054-0.088,0.09-0.143,0.09c-0.018,0-0.035,0-0.072-0.019c-1.896-0.877-3.186-1.646-4.115-2.648
		c-0.877,0.877-1.861,1.646-3.168,2.398l0.68,0.411h4.313l0.484-0.626l0.967,0.68c0.09,0.054,0.143,0.107,0.143,0.144
		c0,0.054-0.053,0.089-0.502,0.43v3.149c0,0.341,0.072,1.915,0.072,2.095c0,0.25-0.072,0.34-0.447,0.501
		c-0.162,0.054-0.27,0.09-0.34,0.09c-0.107,0-0.125-0.072-0.125-0.233v-1.36h-4.762v0.896c0,0.376-0.59,0.572-0.734,0.572
		c-0.125,0-0.16-0.125-0.16-0.411c0-0.394,0.053-2.273,0.053-2.471v-3.65c-0.787,0.429-1.682,0.858-2.721,1.306l-0.107-0.232
		c2.848-1.575,4.619-2.863,5.871-4.242c-0.68-0.931-1.182-2.022-1.646-3.472c-1.234,2.147-1.986,3.186-2.791,3.955l-0.18-0.143
		c1.127-1.521,3.025-5.352,3.543-7.195l1.289,0.662c0.107,0.054,0.162,0.09,0.162,0.144c0,0.035-0.072,0.089-0.197,0.143
		c-0.447,0.179-0.572,0.269-0.807,0.681c-0.213,0.357-0.393,0.697-0.59,1.02h3.563l0.572-0.716l1.109,0.806
		c0.107,0.071,0.143,0.125,0.143,0.161c0,0.054-0.053,0.09-0.178,0.125c-0.412,0.126-0.717,0.412-0.932,0.823
		c-0.555,1.057-1.27,2.13-2.094,3.043c1.217,1.109,2.828,1.754,5.262,2.184V33.815z M977.787,39.184v-4.081h-4.762v4.081H977.787z
		 M973.795,27.514c0.555,1.378,1.127,2.488,1.861,3.329c0.859-1.038,1.486-2.076,1.969-3.329H973.795z"/>
	<path fill="#FDFDFE" stroke="#FDFDFE" stroke-miterlimit="10" d="M998.688,36.822c0.053,1.825,0.215,2.255,0.625,2.452
		c0.125,0.071,0.162,0.125,0.125,0.25c-0.428,1.164-1.072,1.289-3.256,1.289c-3.24,0-3.49-0.125-3.49-1.558v-5.44h-2.74
		c-0.018,4.546-1.217,6.426-6.316,7.518l-0.09-0.251c4.582-1.629,5.459-2.882,5.477-7.267h-3.545c-0.375,0-0.895,0.071-1.199,0.196
		l-0.5-0.662c0.447,0.036,0.895,0.071,1.307,0.071h11.938l0.807-1.056l1.092,1.128c0.125,0.125,0.178,0.196,0.178,0.25
		s-0.07,0.072-0.215,0.072h-5.369v5.28c0,0.751,0.072,0.912,2.686,0.912c2.039,0,2.219,0,2.201-3.186H998.688z M999.35,27.622
		c0.107,0.09,0.16,0.161,0.16,0.215c0,0.036-0.053,0.054-0.16,0.071c-0.717,0.036-1.379,0.412-2.363,1.54l-0.232-0.107l0.895-1.575
		H986.48c-0.197,1.253-0.734,2.272-1.629,2.272c-0.395,0-0.609-0.214-0.609-0.411s0.18-0.43,0.645-0.716
		c0.662-0.43,1.217-1.217,1.414-2.452h0.268c0,0.322-0.018,0.626-0.035,0.913h11.063l0.59-0.788L999.35,27.622z M996.736,30.414
		c0.143,0.144,0.215,0.233,0.215,0.305s-0.09,0.09-0.287,0.09h-8.287c-0.375,0-0.895,0.071-1.199,0.196l-0.502-0.662
		c0.449,0.036,0.896,0.071,1.307,0.071h6.945l0.77-1.002L996.736,30.414z M990.148,24.525c1.289,0.483,2.453,1.021,2.453,1.809
		c0,0.394-0.359,0.966-0.717,0.966c-0.215,0-0.322-0.125-0.43-0.77c-0.07-0.376-0.645-1.253-1.432-1.825L990.148,24.525z"/>
	<path fill="#FDFDFE" stroke="#FDFDFE" stroke-miterlimit="10" d="M1018.889,32.007c-0.895-0.019-1.451,0.232-1.701,0.68
		c-0.018,0.036-0.053,0.054-0.09,0.054c-0.035,0-0.088-0.018-0.16-0.054c-2.578-1.558-4.582-3.4-6.193-6.729
		c-0.09,0.071-0.18,0.143-0.232,0.215c-2.971,3.705-4.922,5.655-8.484,7.839l-0.16-0.196c3.99-2.936,6.604-6.211,8.125-9.146
		l1.289,0.681c0.143,0.071,0.215,0.143,0.215,0.196c0,0.071-0.395,0.197-0.465,0.232c1.844,3.419,5.404,5.764,7.857,5.979V32.007z
		 M1017.797,39.9c0.143,0.144,0.232,0.233,0.232,0.287c0,0.071-0.107,0.089-0.322,0.089h-13.549c-0.377,0-0.877,0.071-1.164,0.179
		l-0.502-0.644c0.43,0.035,0.896,0.071,1.307,0.071h6.016v-3.938h-3.275c-0.377,0-0.877,0.071-1.164,0.179l-0.502-0.645
		c0.43,0.036,0.896,0.072,1.307,0.072h3.635v-3.204h-2.936c-0.377,0-0.877,0.071-1.164,0.179l-0.502-0.645
		c0.43,0.036,0.896,0.072,1.307,0.072h6.516l0.68-0.967l1.092,0.967c0.162,0.143,0.232,0.232,0.232,0.286
		c0,0.089-0.105,0.107-0.32,0.107h-4.01v3.204h2.791l0.734-1.003l1.146,1.003c0.16,0.125,0.232,0.232,0.232,0.286
		c0,0.071-0.107,0.107-0.322,0.107h-4.582v3.938h5.064l0.807-1.109L1017.797,39.9z"/>
	<path fill="#FDFDFE" stroke="#FDFDFE" stroke-miterlimit="10" d="M1027.08,25.958c0.072,0.054,0.107,0.107,0.107,0.143
		c0,0.036-0.035,0.054-0.125,0.09c-0.682,0.215-0.807,0.376-1.344,1.485l-1.199,2.488c1.219,1.683,1.844,3.222,1.844,4.224
		c0,0.842-0.393,1.485-1.574,2.237c-0.055,0.019-0.09,0.036-0.107,0.036c-0.055,0-0.09-0.036-0.107-0.125
		c-0.09-0.448-0.43-0.752-1.449-0.967v-0.322c0.375,0.071,0.697,0.107,0.984,0.107c1.037,0,1.467-0.501,1.467-1.485
		s-0.375-2.184-1.414-3.724l1.361-4.026h-2.471v10.918c0,1.253,0.018,2.487,0.072,3.222v0.107c0,0.232-0.072,0.304-0.412,0.447
		c-0.162,0.071-0.27,0.107-0.34,0.107c-0.125,0-0.162-0.107-0.162-0.376v-0.161c0.037-0.967,0.055-2.452,0.055-3.383v-9.934
		c0-0.68-0.037-1.808-0.072-2.416l1.164,1.073h2.039l0.574-0.697L1027.08,25.958z M1036.871,32.472
		c0.125,0.071,0.178,0.144,0.178,0.197s-0.053,0.107-0.178,0.179l-0.52,0.34v6.301c0,0.662-0.197,1.002-1.199,1.503
		c-0.055,0.036-0.09,0.036-0.125,0.036c-0.055,0-0.09-0.036-0.107-0.107c-0.145-0.573-0.359-0.806-1.791-1.235l0.037-0.25
		c0.822,0.143,1.359,0.215,1.717,0.215c0.557,0,0.627-0.18,0.627-0.483v-6.336h-7.5v3.974c0,0.501,0.037,2.953,0.037,3.508
		c0,0.215-0.055,0.286-0.412,0.447c-0.162,0.071-0.268,0.107-0.34,0.107c-0.125,0-0.162-0.107-0.162-0.394v-0.161
		c0.037-1.003,0.055-2.56,0.055-3.526v-2.738c0-0.698-0.035-1.879-0.072-2.506l1.164,0.895h6.963l0.482-0.77L1036.871,32.472z
		 M1036.834,26.083c0.107,0.107,0.18,0.197,0.18,0.251c0,0.071-0.09,0.107-0.27,0.107h-7.516c-0.377,0-0.896,0.071-1.199,0.196
		l-0.502-0.662c0.447,0.036,0.895,0.071,1.307,0.071h6.229l0.752-0.966L1036.834,26.083z M1034.99,36.087
		c0.09,0.107,0.127,0.18,0.127,0.215c0,0.072-0.072,0.09-0.215,0.09h-2.811v1.343c0,1.199,0.018,1.61,0.07,2.147
		c0,0.054,0.02,0.107,0.02,0.144c0,0.215-0.107,0.286-0.447,0.429c-0.162,0.072-0.287,0.107-0.359,0.107
		c-0.125,0-0.16-0.089-0.16-0.321v-0.215c0.035-0.645,0.053-1.36,0.053-2.327v-1.307h-1.234c-0.375,0-0.932,0.09-1.234,0.197
		l-0.502-0.663c0.447,0.036,0.912,0.072,1.324,0.072h2.166c0.59-1.021,1.002-1.88,1.396-2.899l1.092,0.68
		c0.053,0.036,0.07,0.054,0.07,0.09c0,0.035-0.035,0.054-0.105,0.071c-0.43,0.125-0.914,0.52-2.078,2.059h1.486l0.592-0.788
		L1034.99,36.087z M1035.332,28.087c0.088,0.071,0.125,0.107,0.125,0.143c0,0.054-0.037,0.09-0.107,0.126l-0.484,0.286v0.841
		c0,0.18,0.055,1.11,0.055,1.307c0,0.233-0.072,0.305-0.377,0.43c-0.178,0.071-0.285,0.107-0.357,0.107
		c-0.143,0-0.143-0.071-0.143-0.626h-4.475c0,0.34,0,0.394-0.359,0.519c-0.16,0.071-0.268,0.107-0.34,0.107
		c-0.09,0-0.107-0.054-0.107-0.179s0.018-0.949,0.018-1.128v-1.146c0-0.394-0.018-1.181-0.035-1.7l0.949,0.716h4.17l0.502-0.572
		L1035.332,28.087z M1029.479,33.242c0.895,0.43,1.592,1.092,1.682,1.378c0.037,0.09,0.037,0.18,0.037,0.269
		c0,0.376-0.215,0.627-0.467,0.627c-0.195,0-0.303-0.071-0.41-0.483c-0.107-0.43-0.449-1.128-0.984-1.646L1029.479,33.242z
		 M1034.043,30.306v-2.022h-4.475v2.022H1034.043z"/>
	<path fill="#FDFDFE" stroke="#FDFDFE" stroke-miterlimit="10" d="M1056.141,26.923c0.125,0.107,0.197,0.215,0.197,0.269
		c0,0.09-0.107,0.144-0.268,0.144h-5.352l0.68,0.787c0.053,0.054,0.07,0.09,0.07,0.126c0,0.054-0.07,0.071-0.178,0.071
		c-0.27,0-0.484,0.054-0.627,0.161c-0.607,0.447-1.074,0.752-1.754,1.146c1.826,0.913,2.219,1.235,2.219,1.79
		c0,0.286-0.143,0.501-0.303,0.501c-0.127,0-0.215-0.071-0.807-0.573c-0.5-0.429-1.109-0.841-1.844-1.288
		c-1.199,0.698-2.506,1.324-3.49,1.736l-0.125-0.233c0.967-0.555,2.006-1.146,3.025-1.843c-0.984-0.573-1.916-0.984-2.703-1.36
		l0.09-0.197c1.074,0.269,2.059,0.608,3.221,1.128c0.932-0.645,1.719-1.325,2.256-1.951h-9.002c-0.377,0-0.896,0.071-1.199,0.197
		l-0.502-0.663c0.447,0.036,0.895,0.072,1.307,0.072h13.102l0.77-1.074L1056.141,26.923z M1055.174,34.817
		c0.055,0.054,0.09,0.107,0.09,0.144c0,0.089-0.053,0.107-0.518,0.376v4.277c0,0.967-0.072,1.199-1.199,1.665
		c-0.055,0.018-0.107,0.035-0.145,0.035c-0.07,0-0.125-0.054-0.143-0.143c-0.107-0.483-0.484-0.717-2.166-1.164l0.072-0.232
		c1.055,0.125,1.699,0.197,2.111,0.197c0.609,0,0.645-0.161,0.645-0.591v-4.225h-6.82c-0.59,0.752-1.18,1.468-1.879,2.256
		l5.496-0.126c-0.305-0.501-0.752-0.966-1.486-1.539l0.107-0.179c2.004,0.948,2.666,1.7,2.738,2.147
		c0.018,0.054,0.018,0.126,0.018,0.18c0,0.465-0.268,0.858-0.572,0.858c-0.16,0-0.287-0.143-0.375-0.483
		c-0.072-0.269-0.162-0.501-0.287-0.733c-4.689,0.465-5.549,0.645-5.889,0.913c-0.035,0.035-0.072,0.035-0.09,0.035
		c-0.053,0-0.09-0.018-0.125-0.089l-0.572-0.913c0.572-0.161,1.289-0.591,2.236-2.327h-3.92v3.58c0,0.859,0.018,1.575,0.037,2.059
		c0,0.34-0.824,0.608-0.859,0.608c-0.09,0-0.125-0.071-0.125-0.215c0-0.197,0.125-2.076,0.125-2.47V35.73
		c0-0.627-0.018-1.038-0.055-1.593l0.932,0.626h4.098c0.395-0.752,0.682-1.449,0.859-2.005h-3.883l-0.34,0.483
		c-0.037,0.036-0.072,0.072-0.107,0.072c-0.037,0-0.072-0.019-0.127-0.054l-1.02-0.609l0.609-0.501v-2.255
		c0-0.412,0-0.806-0.055-1.396l1.217,0.698c0.072,0.036,0.125,0.09,0.125,0.144c0,0.071-0.053,0.107-0.5,0.376v2.648h9.432V29.77
		c0-0.591,0-1.021-0.035-1.433l1.145,0.608c0.09,0.054,0.162,0.126,0.162,0.197s-0.035,0.107-0.447,0.376v2.255
		c0,0.215,0.09,1.289,0.09,1.379c0,0.286-0.717,0.555-0.789,0.555c-0.107,0-0.125-0.09-0.125-0.251v-0.698h-4.992l0.662,0.609
		c0.053,0.053,0.088,0.089,0.088,0.125c0,0.054-0.053,0.107-0.16,0.143c-0.232,0.09-0.322,0.161-0.465,0.341
		c-0.197,0.269-0.395,0.537-0.592,0.787h6.086l0.572-0.841L1055.174,34.817z M1046.816,24.436c1.914,0.572,2.451,0.913,2.451,1.575
		c0,0.465-0.357,0.895-0.68,0.895c-0.125,0-0.268-0.144-0.322-0.411c-0.072-0.358-0.555-1.164-1.539-1.88L1046.816,24.436z"/>
	<path fill="#FDFDFE" stroke="#FDFDFE" stroke-miterlimit="10" d="M1064.979,36.625c0.088,0.054,0.125,0.107,0.125,0.144
		c0,0.054-0.072,0.107-0.197,0.143c-0.305,0.09-0.662,0.251-0.859,0.412c-1.771,1.468-3.293,2.685-4.887,3.508l-0.178-0.215
		c2.129-1.646,3.883-3.257,4.922-4.725L1064.979,36.625z M1073.658,25.743c0.055,0.089,0.09,0.143,0.09,0.179
		s-0.018,0.036-0.072,0.036c-0.053,0-0.125,0-0.232-0.036c-0.143-0.036-0.412-0.071-0.77-0.071c-0.322,0-0.734,0.035-1.217,0.089
		c-1.879,0.251-3.418,0.448-4.707,0.608l0.967,0.681c0.07,0.054,0.125,0.107,0.125,0.144c0,0.035-0.072,0.054-0.197,0.071
		c-0.232,0.018-0.68,0.197-0.895,0.376c-0.984,0.787-2.631,1.986-3.49,2.523l5.102-0.054c1.109-0.823,2.021-1.629,2.701-2.345
		l1.021,0.895c0.053,0.054,0.09,0.107,0.09,0.126c0,0.054-0.055,0.071-0.162,0.071c-0.232,0-0.68,0.161-1.342,0.591
		c-2.543,1.683-5.227,3.204-7.857,4.511l9.002-0.251c-0.59-0.608-1.396-1.217-2.596-1.915l0.107-0.232
		c2.023,0.733,3.545,1.646,4.027,2.165c0.27,0.287,0.412,0.663,0.412,0.967c0,0.501-0.393,0.591-0.465,0.591
		c-0.162,0-0.34-0.144-0.609-0.537c-0.197-0.286-0.41-0.555-0.662-0.823l-4.33,0.412v4.868c0,1.002-0.127,1.253-1.129,1.736
		c-0.053,0.018-0.09,0.035-0.125,0.035c-0.072,0-0.107-0.035-0.125-0.143c-0.09-0.502-0.592-0.877-2.004-1.307l0.035-0.251
		c0.912,0.197,1.504,0.286,1.879,0.286c0.572,0,0.662-0.215,0.662-0.608v-4.546l-2.918,0.269c-1.252,0.125-1.521,0.179-1.879,0.322
		c-0.035,0.018-0.07,0.018-0.107,0.018c-0.07,0-0.125-0.036-0.178-0.107l-0.734-1.128c0.59,0.019,1.699-0.304,2.451-0.68
		c1.646-0.842,3.098-1.754,4.35-2.631c-2.811,0.196-4.439,0.411-4.975,0.751c-0.055,0.036-0.09,0.036-0.127,0.036
		c-0.053,0-0.088-0.018-0.125-0.071l-0.715-1.057c0.555-0.035,1.002-0.179,1.664-0.697c1.379-1.092,2.471-2.273,3.025-3.043
		c-3.15,0.376-4.779,0.537-6.426,0.645l-0.018-0.287c4.277-0.411,10.881-1.646,12.6-2.291L1073.658,25.743z M1069.291,35.873
		c2.453,0.932,4.367,1.951,4.922,2.649c0.215,0.269,0.287,0.591,0.287,0.859c0,0.43-0.197,0.77-0.395,0.77s-0.322-0.071-0.822-0.823
		c-0.395-0.591-2.166-2.166-4.1-3.24L1069.291,35.873z"/>
	<path fill="#FDFDFE" stroke="#FDFDFE" stroke-miterlimit="10" d="M1083.836,28.767c0.107,0.071,0.145,0.125,0.145,0.161
		c0,0.054-0.055,0.071-0.18,0.107c-0.232,0.054-0.375,0.125-0.5,0.286c-1.756,2.256-2.453,3.133-4.297,5.209l4.529-0.537
		l0.035,0.232c-4.367,1.146-4.492,1.199-4.797,1.414c-0.053,0.036-0.107,0.071-0.143,0.071c-0.055,0-0.107-0.035-0.145-0.106
		l-0.607-1.021c0.59-0.107,0.895-0.286,1.467-0.984c0.537-0.645,1.521-2.059,2.131-3.133c-2.523,0.395-2.883,0.537-3.418,0.877
		c-0.072,0.036-0.107,0.072-0.145,0.072c-0.053,0-0.09-0.036-0.125-0.107l-0.537-1.057c0.824-0.125,0.932-0.215,1.432-0.966
		c0.717-1.057,1.916-3.329,2.436-4.547l1.092,0.823c0.088,0.054,0.143,0.107,0.143,0.161c0,0.036-0.055,0.072-0.143,0.107
		c-0.467,0.161-0.537,0.197-0.682,0.376c-1.199,1.611-2.076,2.738-3.15,4.045l3.258-0.054c0.807-1.396,1.004-1.808,1.182-2.219
		L1083.836,28.767z M1084.248,36.661l-4.08,1.718c-1.414,0.591-1.701,0.771-1.898,1.003c-0.053,0.054-0.088,0.089-0.125,0.089
		c-0.053,0-0.088-0.035-0.125-0.089l-0.52-0.823l6.695-2.13L1084.248,36.661z M1093.162,36.553
		c-0.055,1.629,0.125,2.201,0.482,2.309c0.09,0.019,0.127,0.054,0.127,0.126c0,0.035-0.02,0.071-0.037,0.125
		c-0.465,1.021-0.84,1.253-2.863,1.253c-1.701,0-2.184-0.232-2.184-1.683v-6.067l-1.701,0.161c-0.195,5.154-1.109,6.443-5.691,8.305
		l-0.09-0.197c4.314-2.309,4.887-3.472,4.904-8.019c-1.199,0.126-1.682,0.269-1.879,0.412c-0.053,0.054-0.107,0.071-0.143,0.071
		c-0.055,0-0.072-0.054-0.107-0.107l-0.592-1.092c0.627,0.036,1.057-0.215,1.754-1.002c1.039-1.163,1.451-1.719,2.328-3.061
		l1.055,0.645c0.072,0.054,0.127,0.089,0.127,0.143c0,0.036-0.055,0.071-0.162,0.09c-0.285,0.035-0.375,0.089-0.715,0.411
		c-0.43,0.412-1.881,1.754-3.133,2.882l6.676-0.179c-0.482-0.734-1.182-1.539-2.094-2.184l0.09-0.179
		c2.684,1.449,3.598,2.345,3.598,3.275c0,0.394-0.18,0.662-0.412,0.662c-0.197,0-0.447-0.107-0.609-0.52
		c-0.088-0.232-0.232-0.501-0.393-0.787l-1.969,0.196v6.176c0,0.805,0.107,0.948,1.467,0.948c1.449,0,1.736-0.107,1.951-3.114
		H1093.162z M1093.645,27.729c0.127,0.107,0.18,0.197,0.18,0.251c0,0.071-0.072,0.107-0.25,0.107h-8.287
		c-0.377,0-0.895,0.071-1.199,0.196l-0.502-0.662c0.447,0.036,0.895,0.072,1.307,0.072h6.838l0.805-1.021L1093.645,27.729z
		 M1086.879,24.668c1.594,0.681,2.148,1.182,2.291,1.575c0.037,0.107,0.055,0.215,0.055,0.322c0,0.411-0.287,0.823-0.572,0.823
		c-0.234,0-0.322-0.125-0.43-0.537c-0.125-0.519-0.359-1.109-1.396-1.986L1086.879,24.668z"/>
</g>
<path fill="#2A2B2B" stroke="#0E0E0E" stroke-miterlimit="10" d="M84.136,143.405c0,3.781,3.066,6.848,6.848,6.848h242.192
	c3.782,0,6.848-3.066,6.848-6.848l0,0c0-3.781-3.066-6.848-6.848-6.848H90.983C87.202,136.558,84.136,139.624,84.136,143.405
	L84.136,143.405z"/>
<path fill="#2A2B2B" stroke="#0E0E0E" stroke-miterlimit="10" d="M84.136,176.768c0,3.781,3.066,6.848,6.848,6.848h161.142
	c3.782,0,6.848-3.066,6.848-6.848l0,0c0-3.781-3.066-6.848-6.848-6.848H90.983C87.202,169.92,84.136,172.986,84.136,176.768
	L84.136,176.768z"/>
<path fill="#2A2B2B" stroke="#0E0E0E" stroke-miterlimit="10" d="M84.136,213.768c0,3.781,3.066,6.848,6.848,6.848h106.858
	c3.782,0,6.848-3.066,6.848-6.848l0,0c0-3.781-3.066-6.848-6.848-6.848H90.983C87.202,206.92,84.136,209.986,84.136,213.768
	L84.136,213.768z"/>
<rect fill="#494949" width="84.136" height="252"/>
<g>
	<g>
		<defs>
			<path id="SVGID_10_" d="M42.478,52.796l10.856,2.651c2.841,0.695,4.821,3.063,4.821,5.769v2.231
				c0,5.956-5.827,10.479-12.213,9.481l-15.991-2.505l0.971-18.343l4.317-0.11c0.095,0,0.191-0.002,0.289-0.002
				C37.739,51.969,40.365,52.316,42.478,52.796"/>
		</defs>
		<clipPath id="SVGID_11_">
			<use xlink:href="#SVGID_10_"  overflow="visible"/>
		</clipPath>
		
			<linearGradient id="SVGID_12_" gradientUnits="userSpaceOnUse" x1="-209.2559" y1="414.7314" x2="-207.9918" y2="414.7314" gradientTransform="matrix(-21.6016 8.6407 -8.6407 -21.6016 -875.9063 10823.25)">
			<stop  offset="0" style="stop-color:#E1E0DF"/>
			<stop  offset="1" style="stop-color:#666767"/>
		</linearGradient>
		<polygon clip-path="url(#SVGID_11_)" fill="url(#SVGID_12_)" points="54.265,43.024 21.72,54.998 33.841,82.873 66.386,70.898 		
			"/>
	</g>
	<g>
		<defs>
			<path id="SVGID_13_" d="M58.152,186.242v1.143c0.002,4.545-3.338,8.521-8.139,9.691l-6.459,1.574
				c-3.752,0.916-7.62,1.381-11.502,1.381l-2.102-18.109l18.259-3.197c0.536-0.094,1.068-0.139,1.592-0.139
				C54.312,178.586,58.152,181.936,58.152,186.242"/>
		</defs>
		<clipPath id="SVGID_14_">
			<use xlink:href="#SVGID_13_"  overflow="visible"/>
		</clipPath>
		
			<linearGradient id="SVGID_15_" gradientUnits="userSpaceOnUse" x1="-224.2715" y1="421.4727" x2="-223.0256" y2="421.4727" gradientTransform="matrix(-14.9609 0 0 -14.9609 -3294.1484 6494.9219)">
			<stop  offset="0" style="stop-color:#E1E0DF"/>
			<stop  offset="1" style="stop-color:#666767"/>
		</linearGradient>
		<rect x="29.95" y="178.586" clip-path="url(#SVGID_14_)" fill="url(#SVGID_15_)" width="28.206" height="21.445"/>
	</g>
	<g>
		<defs>
			<path id="SVGID_16_" d="M36.553,51.975c5.836,0,10.572,6.567,10.572,14.669v118.716c0,8.104-4.734,14.672-10.572,14.672
				c-5.84,0-10.573-6.568-10.573-14.672V66.644c0-8.102,4.733-14.669,10.572-14.669H36.553z"/>
		</defs>
		<clipPath id="SVGID_17_">
			<use xlink:href="#SVGID_16_"  overflow="visible"/>
		</clipPath>
		
			<linearGradient id="SVGID_18_" gradientUnits="userSpaceOnUse" x1="-157.0986" y1="423.002" x2="-156.0278" y2="423.002" gradientTransform="matrix(19.7471 0 0 19.7471 3128.2344 -8227.0469)">
			<stop  offset="0" style="stop-color:#CCCDCD"/>
			<stop  offset="0.4731" style="stop-color:#E1E0DF"/>
			<stop  offset="1" style="stop-color:#666767"/>
		</linearGradient>
		<rect x="25.98" y="51.975" clip-path="url(#SVGID_17_)" fill="url(#SVGID_18_)" width="21.145" height="148.057"/>
	</g>
</g>
<rect x="84.136" fill="#050101" width="3.965" height="252"/>
<path fill="#343535" stroke="#050101" stroke-miterlimit="10" d="M1054.455,209.254c0,6.273-6.102,11.361-13.627,11.361H444.748
	c-7.526,0-13.627-5.088-13.627-11.361V166.49c0-6.271,6.101-11.359,13.627-11.359h596.081c7.525,0,13.627,5.088,13.627,11.359
	V209.254z"/>
<g>
	<path fill="#FFFFFF" stroke="#FFFFFF" stroke-width="0.5" stroke-miterlimit="10" d="M679.459,230.268v-5.234h0.354h0.355v4.607
		h2.652v0.314v0.313H679.459z"/>
	<path fill="#FFFFFF" stroke="#FFFFFF" stroke-width="0.5" stroke-miterlimit="10" d="M685.404,225.033h0.402h0.406l1.879,5.234
		h-0.381h-0.379l-0.533-1.516h-2.09l-0.551,1.516h-0.363h-0.367L685.404,225.033z M684.934,228.125h1.646l-0.807-2.322h0.002
		L684.934,228.125z"/>
	<path fill="#FFFFFF" stroke="#FFFFFF" stroke-width="0.5" stroke-miterlimit="10" d="M689.791,230.268h-0.342h-0.342v-5.234h0.424
		h0.428l2.621,4.254v-4.254h0.342h0.342v5.234h-0.389h-0.389l-2.695-4.27V230.268z"/>
	<path fill="#FFFFFF" stroke="#FFFFFF" stroke-width="0.5" stroke-miterlimit="10" d="M697.146,226.535
		c0-0.242-0.092-0.441-0.277-0.594c-0.184-0.154-0.418-0.23-0.707-0.23c-0.303,0-0.535,0.092-0.697,0.279
		c-0.16,0.186-0.25,0.465-0.268,0.834h-0.623c0-0.535,0.141-0.951,0.422-1.244s0.68-0.439,1.195-0.439
		c0.486,0,0.879,0.121,1.178,0.365c0.297,0.244,0.445,0.564,0.445,0.963c0,0.396-0.148,0.717-0.447,0.961
		c-0.059,0.049-0.119,0.09-0.186,0.129c0.123,0.055,0.232,0.119,0.328,0.195c0.32,0.252,0.48,0.592,0.48,1.02
		c0,0.479-0.166,0.871-0.5,1.176c-0.332,0.305-0.758,0.457-1.281,0.457c-0.574,0-1.008-0.137-1.299-0.414
		c-0.293-0.277-0.451-0.699-0.479-1.27h0.67c0.039,0.398,0.145,0.684,0.318,0.855c0.174,0.174,0.443,0.26,0.809,0.26
		c0.316,0,0.576-0.092,0.777-0.273c0.203-0.182,0.303-0.414,0.303-0.699c0-0.299-0.096-0.537-0.291-0.713
		c-0.166-0.15-0.379-0.236-0.641-0.256c-0.121-0.008-0.236-0.01-0.344-0.01s-0.18,0.004-0.215,0.014v-0.559
		c0.051,0.012,0.133,0.018,0.242,0.018c0.107,0,0.217-0.008,0.324-0.021c0.205-0.025,0.373-0.094,0.502-0.203
		C697.059,226.992,697.146,226.791,697.146,226.535z"/>
</g>
<g>
	<path fill="#FFFFFF" stroke="#FFFFFF" stroke-width="0.5" stroke-miterlimit="10" d="M730.709,230.268v-5.234h0.354h0.355v4.607
		h2.652v0.314v0.313H730.709z"/>
	<path fill="#FFFFFF" stroke="#FFFFFF" stroke-width="0.5" stroke-miterlimit="10" d="M736.654,225.033h0.402h0.406l1.879,5.234
		h-0.381h-0.379l-0.533-1.516h-2.09l-0.551,1.516h-0.363h-0.367L736.654,225.033z M736.184,228.125h1.646l-0.807-2.322h0.002
		L736.184,228.125z"/>
	<path fill="#FFFFFF" stroke="#FFFFFF" stroke-width="0.5" stroke-miterlimit="10" d="M741.041,230.268h-0.342h-0.342v-5.234h0.424
		h0.428l2.621,4.254v-4.254h0.342h0.342v5.234h-0.389h-0.389l-2.695-4.27V230.268z"/>
	<path fill="#FFFFFF" stroke="#FFFFFF" stroke-width="0.5" stroke-miterlimit="10" d="M745.615,229.039v-0.299v-0.299l2.371-3.301
		h0.268h0.266v3.352h0.727v0.547h-0.727v1.229h-0.645v-1.229H745.615z M747.875,228.492v-2.338l-1.633,2.287l-0.035,0.051H747.875z"
		/>
</g>
<g>
	<path fill="#FFFFFF" stroke="#FFFFFF" stroke-width="0.5" stroke-miterlimit="10" d="M850.637,225.033h0.354h0.355v2.148h2.73
		v-2.148h0.354h0.355v5.234h-0.352h-0.357v-2.459h-2.73v2.459h-0.352h-0.357V225.033z"/>
	<path fill="#FFFFFF" stroke="#FFFFFF" stroke-width="0.5" stroke-miterlimit="10" d="M857.785,225.033h0.402h0.406l1.879,5.234
		h-0.379h-0.381l-0.533-1.516h-2.09l-0.551,1.516h-0.363h-0.367L857.785,225.033z M857.314,228.125h1.648l-0.809-2.322h0.002
		L857.314,228.125z"/>
</g>
<g>
	<path fill="#FFFFFF" stroke="#FFFFFF" stroke-width="0.5" stroke-miterlimit="10" d="M898.223,230.268h-0.342h-0.346v-5.234h0.51
		h0.508l1.498,4.455l1.482-4.455h0.51h0.51v5.234h-0.342h-0.346v-4.43h-0.002l-1.477,4.43h-0.342h-0.342l-1.479-4.414h-0.002
		V230.268z"/>
	<path fill="#FFFFFF" stroke="#FFFFFF" stroke-width="0.5" stroke-miterlimit="10" d="M904.68,230.268h-0.342h-0.342v-5.234h0.424
		h0.426l2.621,4.254v-4.254h0.342h0.342v5.234h-0.387h-0.389l-2.695-4.27V230.268z"/>
	<path fill="#FFFFFF" stroke="#FFFFFF" stroke-width="0.5" stroke-miterlimit="10" d="M911.854,230.41
		c-0.725,0-1.313-0.254-1.762-0.76c-0.447-0.508-0.672-1.172-0.672-1.996c0-0.826,0.229-1.492,0.688-2
		c0.457-0.508,1.057-0.764,1.797-0.764c0.572,0,1.064,0.162,1.477,0.482s0.652,0.73,0.725,1.23h-0.684
		c-0.066-0.346-0.234-0.613-0.506-0.803c-0.271-0.188-0.621-0.283-1.055-0.283c-0.51,0-0.922,0.199-1.238,0.594
		s-0.475,0.912-0.475,1.555c0,0.68,0.154,1.207,0.459,1.58s0.734,0.559,1.291,0.559c0.539,0,0.975-0.197,1.307-0.59
		c0.051-0.063,0.1-0.127,0.143-0.197c0.057-0.092,0.104-0.221,0.143-0.387c0.041-0.166,0.061-0.324,0.061-0.475v-0.064h-1.643
		v-0.598h2.293v2.77h-0.441l-0.172-0.658l-0.039,0.047C913.119,230.158,912.555,230.41,911.854,230.41z"/>
</g>
<g>
	<path fill="#FFFFFF" stroke="#FFFFFF" stroke-width="0.5" stroke-miterlimit="10" d="M945.715,228.342
		c-0.09,0.646-0.338,1.152-0.742,1.52c-0.406,0.365-0.918,0.549-1.537,0.549c-0.721,0-1.297-0.248-1.725-0.746
		c-0.43-0.496-0.643-1.166-0.643-2.01c0-0.842,0.223-1.514,0.668-2.014c0.443-0.5,1.041-0.75,1.791-0.75
		c0.592,0,1.078,0.152,1.457,0.457c0.379,0.303,0.607,0.723,0.684,1.256h-0.684c-0.066-0.346-0.227-0.613-0.482-0.803
		c-0.256-0.188-0.584-0.283-0.984-0.283c-0.525,0-0.943,0.193-1.254,0.58c-0.311,0.385-0.467,0.904-0.467,1.557
		c0,0.693,0.145,1.221,0.434,1.584s0.707,0.545,1.256,0.545c0.404,0,0.742-0.125,1.01-0.375c0.27-0.25,0.447-0.605,0.535-1.066
		H945.715z"/>
	<path fill="#FFFFFF" stroke="#FFFFFF" stroke-width="0.5" stroke-miterlimit="10" d="M947.367,229.65
		c-0.469-0.508-0.705-1.172-0.705-1.996c0-0.826,0.236-1.492,0.705-2c0.471-0.508,1.086-0.764,1.846-0.764
		c0.764,0,1.381,0.256,1.85,0.764s0.703,1.174,0.703,2c0,0.824-0.234,1.488-0.703,1.996c-0.469,0.506-1.086,0.76-1.85,0.76
		C948.453,230.41,947.838,230.156,947.367,229.65z M950.533,229.197c0.334-0.393,0.502-0.906,0.502-1.543
		c0-0.639-0.168-1.154-0.502-1.547s-0.775-0.59-1.32-0.59s-0.982,0.197-1.318,0.59c-0.334,0.393-0.502,0.908-0.502,1.547
		c0,0.637,0.168,1.15,0.502,1.543c0.336,0.391,0.773,0.586,1.318,0.586S950.199,229.588,950.533,229.197z"/>
	<path fill="#FFFFFF" stroke="#FFFFFF" stroke-width="0.5" stroke-miterlimit="10" d="M953.654,230.268h-0.342h-0.342v-5.234h0.422
		h0.428l2.621,4.254v-4.254h0.342h0.342v5.234h-0.389h-0.387l-2.695-4.27V230.268z"/>
	<path fill="#FFFFFF" stroke="#FFFFFF" stroke-width="0.5" stroke-miterlimit="10" d="M961.789,226.551
		c-0.031-0.33-0.16-0.584-0.391-0.764c-0.229-0.18-0.535-0.27-0.924-0.27c-0.398,0-0.701,0.078-0.906,0.232
		c-0.207,0.154-0.311,0.379-0.311,0.676c0,0.203,0.068,0.354,0.207,0.453c0.137,0.1,0.414,0.197,0.83,0.295l0.91,0.217
		c0.49,0.117,0.838,0.289,1.047,0.518c0.211,0.225,0.314,0.545,0.314,0.957c0,0.475-0.18,0.852-0.539,1.129
		s-0.848,0.416-1.463,0.416c-0.684,0-1.217-0.16-1.602-0.48c-0.375-0.316-0.563-0.748-0.563-1.297v-0.039h0.65
		c0.012,0.381,0.15,0.674,0.414,0.881c0.264,0.205,0.631,0.309,1.102,0.309c0.434,0,0.764-0.074,0.99-0.225
		c0.225-0.148,0.338-0.369,0.338-0.658c0-0.252-0.074-0.438-0.223-0.559c-0.146-0.119-0.443-0.232-0.891-0.338l-0.912-0.217
		c-0.463-0.109-0.791-0.262-0.988-0.457c-0.197-0.193-0.295-0.463-0.295-0.809c0-0.5,0.17-0.896,0.512-1.189
		c0.34-0.293,0.799-0.441,1.379-0.441c0.588,0,1.057,0.148,1.406,0.443c0.348,0.293,0.535,0.699,0.559,1.217H961.789z"/>
	<path fill="#FFFFFF" stroke="#FFFFFF" stroke-width="0.5" stroke-miterlimit="10" d="M964.264,229.65
		c-0.471-0.508-0.705-1.172-0.705-1.996c0-0.826,0.234-1.492,0.705-2s1.084-0.764,1.844-0.764c0.766,0,1.381,0.256,1.85,0.764
		s0.703,1.174,0.703,2c0,0.824-0.234,1.488-0.703,1.996c-0.469,0.506-1.084,0.76-1.85,0.76
		C965.348,230.41,964.734,230.156,964.264,229.65z M967.43,229.197c0.334-0.393,0.502-0.906,0.502-1.543
		c0-0.639-0.168-1.154-0.502-1.547c-0.336-0.393-0.775-0.59-1.322-0.59c-0.543,0-0.982,0.197-1.316,0.59
		c-0.336,0.393-0.502,0.908-0.502,1.547c0,0.637,0.166,1.15,0.502,1.543c0.334,0.391,0.773,0.586,1.316,0.586
		C966.654,229.783,967.094,229.588,967.43,229.197z"/>
	<path fill="#FFFFFF" stroke="#FFFFFF" stroke-width="0.5" stroke-miterlimit="10" d="M969.865,230.268v-5.234h0.354h0.355v4.607
		h2.652v0.314v0.313H969.865z"/>
	<path fill="#FFFFFF" stroke="#FFFFFF" stroke-width="0.5" stroke-miterlimit="10" d="M974.357,230.268v-5.234h3.826v0.314v0.313
		h-3.117v1.6h2.848v0.313v0.314h-2.848v1.754h3.158v0.314v0.313H974.357z"/>
	<path fill="#FFFFFF" stroke="#FFFFFF" stroke-width="0.5" stroke-miterlimit="10" d="M980.896,226.629h-1.201v-0.512
		c0.354,0.006,0.641-0.07,0.861-0.229c0.225-0.162,0.389-0.41,0.496-0.748h0.523v5.127h-0.338h-0.342V226.629z"/>
</g>
<g>
	<path fill="#FFFFFF" stroke="#FFFFFF" stroke-width="0.5" stroke-miterlimit="10" d="M991.389,228.342
		c-0.09,0.646-0.338,1.152-0.742,1.52c-0.404,0.365-0.918,0.549-1.537,0.549c-0.721,0-1.297-0.248-1.725-0.746
		c-0.428-0.496-0.643-1.166-0.643-2.01c0-0.842,0.223-1.514,0.668-2.014s1.043-0.75,1.793-0.75c0.59,0,1.076,0.152,1.455,0.457
		c0.381,0.303,0.607,0.723,0.684,1.256h-0.684c-0.066-0.346-0.227-0.613-0.482-0.803c-0.254-0.188-0.582-0.283-0.984-0.283
		c-0.523,0-0.941,0.193-1.252,0.58c-0.313,0.385-0.467,0.904-0.467,1.557c0,0.693,0.145,1.221,0.432,1.584
		c0.289,0.363,0.707,0.545,1.256,0.545c0.406,0,0.742-0.125,1.012-0.375c0.268-0.25,0.445-0.605,0.533-1.066H991.389z"/>
	<path fill="#FFFFFF" stroke="#FFFFFF" stroke-width="0.5" stroke-miterlimit="10" d="M993.043,229.65
		c-0.471-0.508-0.705-1.172-0.705-1.996c0-0.826,0.234-1.492,0.705-2c0.469-0.508,1.084-0.764,1.844-0.764
		c0.764,0,1.381,0.256,1.85,0.764s0.703,1.174,0.703,2c0,0.824-0.234,1.488-0.703,1.996c-0.469,0.506-1.086,0.76-1.85,0.76
		C994.127,230.41,993.512,230.156,993.043,229.65z M996.207,229.197c0.336-0.393,0.502-0.906,0.502-1.543
		c0-0.639-0.166-1.154-0.502-1.547c-0.334-0.393-0.773-0.59-1.32-0.59c-0.543,0-0.982,0.197-1.318,0.59
		c-0.334,0.393-0.502,0.908-0.502,1.547c0,0.637,0.168,1.15,0.502,1.543c0.336,0.391,0.775,0.586,1.318,0.586
		C995.434,229.783,995.873,229.588,996.207,229.197z"/>
	<path fill="#FFFFFF" stroke="#FFFFFF" stroke-width="0.5" stroke-miterlimit="10" d="M999.328,230.268h-0.342h-0.342v-5.234h0.424
		h0.426l2.621,4.254v-4.254h0.342h0.342v5.234h-0.387h-0.389l-2.695-4.27V230.268z"/>
	<path fill="#FFFFFF" stroke="#FFFFFF" stroke-width="0.5" stroke-miterlimit="10" d="M1007.463,226.551
		c-0.029-0.33-0.16-0.584-0.389-0.764c-0.23-0.18-0.537-0.27-0.924-0.27c-0.398,0-0.701,0.078-0.908,0.232s-0.311,0.379-0.311,0.676
		c0,0.203,0.068,0.354,0.207,0.453c0.137,0.1,0.414,0.197,0.83,0.295l0.912,0.217c0.488,0.117,0.838,0.289,1.047,0.518
		c0.209,0.225,0.314,0.545,0.314,0.957c0,0.475-0.18,0.852-0.541,1.129c-0.359,0.277-0.846,0.416-1.461,0.416
		c-0.684,0-1.219-0.16-1.604-0.48c-0.375-0.316-0.563-0.748-0.563-1.297v-0.039h0.65c0.014,0.381,0.15,0.674,0.414,0.881
		c0.264,0.205,0.631,0.309,1.102,0.309c0.434,0,0.764-0.074,0.99-0.225c0.227-0.148,0.338-0.369,0.338-0.658
		c0-0.252-0.074-0.438-0.223-0.559c-0.146-0.119-0.443-0.232-0.891-0.338l-0.912-0.217c-0.461-0.109-0.791-0.262-0.988-0.457
		c-0.195-0.193-0.295-0.463-0.295-0.809c0-0.5,0.172-0.896,0.512-1.189s0.801-0.441,1.379-0.441c0.588,0,1.057,0.148,1.406,0.443
		c0.348,0.293,0.535,0.699,0.559,1.217H1007.463z"/>
	<path fill="#FFFFFF" stroke="#FFFFFF" stroke-width="0.5" stroke-miterlimit="10" d="M1009.938,229.65
		c-0.469-0.508-0.705-1.172-0.705-1.996c0-0.826,0.236-1.492,0.705-2c0.471-0.508,1.086-0.764,1.846-0.764
		c0.764,0,1.381,0.256,1.85,0.764s0.703,1.174,0.703,2c0,0.824-0.234,1.488-0.703,1.996c-0.469,0.506-1.086,0.76-1.85,0.76
		C1011.023,230.41,1010.408,230.156,1009.938,229.65z M1013.104,229.197c0.334-0.393,0.502-0.906,0.502-1.543
		c0-0.639-0.168-1.154-0.502-1.547c-0.336-0.393-0.775-0.59-1.32-0.59s-0.984,0.197-1.318,0.59s-0.502,0.908-0.502,1.547
		c0,0.637,0.168,1.15,0.502,1.543c0.334,0.391,0.773,0.586,1.318,0.586S1012.768,229.588,1013.104,229.197z"/>
	<path fill="#FFFFFF" stroke="#FFFFFF" stroke-width="0.5" stroke-miterlimit="10" d="M1015.541,230.268v-5.234h0.352h0.355v4.607
		h2.652v0.314v0.313H1015.541z"/>
	<path fill="#FFFFFF" stroke="#FFFFFF" stroke-width="0.5" stroke-miterlimit="10" d="M1020.031,230.268v-5.234h3.828v0.314v0.313
		h-3.119v1.6h2.848v0.313v0.314h-2.848v1.754h3.158v0.314v0.313H1020.031z"/>
	<path fill="#FFFFFF" stroke="#FFFFFF" stroke-width="0.5" stroke-miterlimit="10" d="M1028.332,226.65
		c0,0.377-0.096,0.688-0.289,0.932c-0.193,0.242-0.559,0.512-1.092,0.807c-0.58,0.318-0.975,0.607-1.186,0.871
		c-0.088,0.115-0.16,0.242-0.217,0.385h2.783v0.623h-3.51l0,0c0-0.539,0.133-0.98,0.402-1.322c0.268-0.344,0.771-0.717,1.51-1.123
		c0.357-0.199,0.602-0.383,0.732-0.549c0.131-0.168,0.197-0.381,0.197-0.643c0-0.273-0.098-0.498-0.293-0.67
		c-0.195-0.174-0.443-0.262-0.748-0.262c-0.318,0-0.568,0.109-0.75,0.328c-0.182,0.217-0.277,0.525-0.289,0.926h-0.623
		c-0.01-0.564,0.141-1.008,0.451-1.33c0.313-0.322,0.744-0.482,1.301-0.482c0.475,0,0.863,0.141,1.168,0.424
		C1028.182,225.844,1028.332,226.207,1028.332,226.65z"/>
</g>
</svg>
