<?xml version="1.0" encoding="utf-8"?>
<!-- Generator: Adobe Illustrator 19.0.0, SVG Export Plug-In . SVG Version: 6.00 Build 0)  -->
<svg version="1.1" id="图层_1" xmlns="http://www.w3.org/2000/svg" xmlns:xlink="http://www.w3.org/1999/xlink" x="0px" y="0px"
	 width="1275.6px" height="126px" viewBox="0 0 1275.6 126" style="enable-background:new 0 0 1275.6 126;" xml:space="preserve">
<style type="text/css">
	.st0{fill:#DADADA;}
	.st1{fill:#B7B6B6;}
	.st2{fill:#060404;}
	.st3{fill:#615A69;}
</style>
<g>
	<rect id="XMLID_1451_" x="0" class="st0" width="1275.6" height="126.1"/>
</g>
<g>
	<rect id="XMLID_1450_" x="21.2" y="32.7" class="st1" width="264.1" height="72.8"/>
	<path class="st2" d="M286.3,106.5H20.2V31.7h266.1V106.5z M22.2,104.5h262.1V33.7H22.2V104.5z"/>
</g>
<g>
	<rect id="XMLID_1147_" x="293.2" y="32.7" class="st1" width="264.1" height="72.8"/>
	<path class="st2" d="M558.3,106.5H292.2V31.7h266.1V106.5z M294.2,104.5h262.1V33.7H294.2V104.5z"/>
</g>
<g>
	<rect id="XMLID_844_" x="565.2" y="32.7" class="st1" width="264.1" height="72.8"/>
	<path class="st2" d="M830.3,106.5H564.2V31.7h266.1V106.5z M566.2,104.5h262.1V33.7H566.2V104.5z"/>
</g>
<g>
	<rect id="XMLID_541_" x="837.2" y="32.7" class="st1" width="264.1" height="72.8"/>
	<path class="st2" d="M1102.3,106.5H836.2V31.7h266.1V106.5z M838.2,104.5h262.1V33.7H838.2V104.5z"/>
</g>
<g>
	<rect id="XMLID_12_" x="21.2" y="15.9" class="st3" width="264.1" height="9.3"/>
</g>
<g>
	<rect id="XMLID_11_" x="293.2" y="15.9" class="st3" width="264.1" height="9.3"/>
</g>
<g>
	<rect id="XMLID_10_" x="565.2" y="15.9" class="st3" width="264.1" height="9.3"/>
</g>
<g>
	<rect id="XMLID_9_" x="837.2" y="15.9" class="st3" width="264.1" height="9.3"/>
</g>
</svg>
