<?xml version="1.0" encoding="utf-8"?>
<!-- Generator: Adobe Illustrator 16.0.0, SVG Export Plug-In . SVG Version: 6.00 Build 0)  -->
<!DOCTYPE svg PUBLIC "-//W3C//DTD SVG 1.1//EN" "http://www.w3.org/Graphics/SVG/1.1/DTD/svg11.dtd">
<svg version="1.1" id="图层_1" xmlns="http://www.w3.org/2000/svg" xmlns:xlink="http://www.w3.org/1999/xlink" x="0px" y="0px"
	 width="1275.59px" height="378.43px" viewBox="0 0 1275.59 378.43" enable-background="new 0 0 1275.59 378.43"
	 xml:space="preserve">
<polygon fill="#101010" points="0,0 0,126.142 0,252.283 0,378.425 1275.589,378.425 1275.589,252.283 1275.589,126.142 1275.589,0 
	"/>
<rect x="1158.728" fill="#A3A3A3" width="116.861" height="378.425"/>
<g>
	<g>
		<defs>
			<path id="SVGID_1_" d="M1220.595,158.849l-10.855,2.651c-2.84,0.695-4.82,3.063-4.82,5.769v2.231
				c0,5.956,5.826,10.479,12.213,9.481l15.99-2.505l-0.971-18.343l-4.316-0.11c-0.096,0-0.191-0.002-0.289-0.002
				C1225.335,158.021,1222.708,158.369,1220.595,158.849"/>
		</defs>
		<clipPath id="SVGID_2_">
			<use xlink:href="#SVGID_1_"  overflow="visible"/>
		</clipPath>
		
			<linearGradient id="SVGID_3_" gradientUnits="userSpaceOnUse" x1="-188.5366" y1="484.0264" x2="-187.2726" y2="484.0264" gradientTransform="matrix(21.6016 8.6407 8.6407 -21.6016 1092.6406 12247.1406)">
			<stop  offset="0" style="stop-color:#E1E0DF"/>
			<stop  offset="1" style="stop-color:#666767"/>
		</linearGradient>
		<polygon clip-path="url(#SVGID_2_)" fill="url(#SVGID_3_)" points="1208.81,149.077 1241.354,161.051 1229.231,188.926 
			1196.687,176.951 		"/>
	</g>
	<g>
		<defs>
			<path id="SVGID_4_" d="M1204.921,292.295v1.144c-0.002,4.545,3.338,8.521,8.139,9.691l6.461,1.574
				c3.752,0.916,7.619,1.38,11.502,1.38l2.102-18.108l-18.26-3.198c-0.535-0.094-1.068-0.139-1.592-0.139
				C1208.761,284.639,1204.921,287.988,1204.921,292.295"/>
		</defs>
		<clipPath id="SVGID_5_">
			<use xlink:href="#SVGID_4_"  overflow="visible"/>
		</clipPath>
		
			<linearGradient id="SVGID_6_" gradientUnits="userSpaceOnUse" x1="-190.7202" y1="481.5957" x2="-189.4743" y2="481.5957" gradientTransform="matrix(14.9609 0 0 -14.9609 4055.2656 7500.4609)">
			<stop  offset="0" style="stop-color:#E1E0DF"/>
			<stop  offset="1" style="stop-color:#666767"/>
		</linearGradient>
		<rect x="1204.917" y="284.639" clip-path="url(#SVGID_5_)" fill="url(#SVGID_6_)" width="28.207" height="21.445"/>
	</g>
	<g>
		<defs>
			<path id="SVGID_7_" d="M1226.521,158.027c-5.836,0-10.572,6.567-10.572,14.669v118.716c0,8.104,4.734,14.672,10.572,14.672
				c5.84,0,10.572-6.568,10.572-14.672V172.696c0-8.102-4.732-14.669-10.57-14.669H1226.521z"/>
		</defs>
		<clipPath id="SVGID_8_">
			<use xlink:href="#SVGID_7_"  overflow="visible"/>
		</clipPath>
		
			<linearGradient id="SVGID_9_" gradientUnits="userSpaceOnUse" x1="-182.5181" y1="488.1816" x2="-181.4473" y2="488.1816" gradientTransform="matrix(-19.7471 0 0 19.7471 -2367.125 -9408.125)">
			<stop  offset="0" style="stop-color:#CCCDCD"/>
			<stop  offset="0.4731" style="stop-color:#E1E0DF"/>
			<stop  offset="1" style="stop-color:#666767"/>
		</linearGradient>
		<rect x="1215.948" y="158.027" clip-path="url(#SVGID_8_)" fill="url(#SVGID_9_)" width="21.145" height="148.057"/>
	</g>
</g>
<circle fill="#202020" cx="1263.368" cy="105.935" r="10"/>
<circle fill="#202020" cx="1263.368" cy="331.935" r="10"/>
<circle fill="#9E9E9E" stroke="#202020" stroke-miterlimit="10" cx="1179.366" cy="326.435" r="13"/>
<circle fill="#202020" cx="1179.366" cy="326.435" r="6.125"/>
<rect fill="#A3A3A3" width="576.427" height="126.328"/>
<rect x="579.636" fill="#A3A3A3" width="576.425" height="126.328"/>
<rect y="130.107" fill="#A3A3A3" width="576.427" height="126.327"/>
<rect x="579.636" y="130.107" fill="#A3A3A3" width="576.425" height="126.327"/>
<rect y="260.468" fill="#A3A3A3" width="1156.062" height="105.935"/>
<circle fill="#202020" cx="593.363" cy="27.555" r="10"/>
<circle fill="#202020" cx="593.363" cy="98.435" r="10"/>
<circle fill="#202020" cx="562.863" cy="27.555" r="10"/>
<circle fill="#202020" cx="562.863" cy="98.435" r="10"/>
<circle fill="#202020" cx="593.363" cy="153.772" r="10"/>
<circle fill="#202020" cx="593.363" cy="224.651" r="10"/>
<circle fill="#202020" cx="1141.778" cy="27.555" r="10"/>
<circle fill="#202020" cx="1141.778" cy="98.435" r="10"/>
<circle fill="#202020" cx="1141.778" cy="153.772" r="10"/>
<circle fill="#202020" cx="1141.778" cy="224.651" r="10"/>
<circle fill="#202020" cx="1141.778" cy="277.995" r="10"/>
<circle fill="#202020" cx="1141.778" cy="348.874" r="10"/>
<circle fill="#202020" cx="562.863" cy="153.772" r="10"/>
<circle fill="#202020" cx="562.863" cy="224.651" r="10"/>
<circle fill="#202020" cx="10" cy="27.555" r="10"/>
<circle fill="#202020" cx="10" cy="98.435" r="10"/>
<circle fill="#202020" cx="10" cy="153.772" r="10"/>
<circle fill="#202020" cx="10" cy="224.651" r="10"/>
<circle fill="#202020" cx="10" cy="277.996" r="10"/>
<circle fill="#202020" cx="10" cy="348.875" r="10"/>
<g>
	<path fill="#5D5E5E" d="M879.421,36.305c-0.516-0.556-0.773-1.286-0.773-2.189c0-0.906,0.258-1.638,0.773-2.195
		s1.189-0.836,2.023-0.836c0.838,0,1.516,0.278,2.029,0.836s0.771,1.289,0.771,2.195c0,0.903-0.258,1.634-0.771,2.189
		s-1.191,0.834-2.029,0.834C880.61,37.139,879.937,36.86,879.421,36.305z M882.894,35.807c0.367-0.43,0.551-0.993,0.551-1.691
		c0-0.7-0.184-1.267-0.551-1.697s-0.85-0.646-1.449-0.646c-0.596,0-1.078,0.216-1.445,0.646s-0.551,0.997-0.551,1.697
		c0,0.698,0.184,1.262,0.551,1.691s0.85,0.645,1.445,0.645C882.044,36.451,882.526,36.236,882.894,35.807z"/>
	<path fill="#5D5E5E" d="M886.317,36.982h-0.375h-0.375V31.24h0.465h0.469l2.875,4.667V31.24h0.375h0.375v5.742H889.7h-0.426
		l-2.957-4.685V36.982z"/>
</g>
<g>
	<path fill="#5D5E5E" d="M906.499,349.009v-5.742h4.199v0.344v0.344h-3.422v1.754h3.125v0.344v0.344h-3.125v1.926h3.465v0.344v0.344
		H906.499z"/>
	<path fill="#5D5E5E" d="M912.907,349.009h-0.375h-0.375v-5.742h0.465h0.469l2.875,4.666v-4.666h0.375h0.375v5.742h-0.426h-0.426
		l-2.957-4.685V349.009z"/>
</g>
<g>
	<path fill="#5D5E5E" d="M566.005,355.99h0.389h0.391l1.814,5.049h-0.367h-0.367l-0.514-1.463h-2.017l-0.53,1.463h-0.352h-0.354
		L566.005,355.99z M565.552,358.972h1.588l-0.778-2.24h0.003L565.552,358.972z"/>
	<path fill="#5D5E5E" d="M573.834,359.181c-0.087,0.623-0.325,1.111-0.716,1.465c-0.391,0.354-0.885,0.531-1.482,0.531
		c-0.696,0-1.251-0.24-1.664-0.72c-0.414-0.479-0.62-1.126-0.62-1.939c0-0.813,0.215-1.46,0.644-1.942
		c0.43-0.481,1.006-0.723,1.73-0.723c0.57,0,1.038,0.146,1.404,0.439s0.586,0.697,0.66,1.213h-0.66
		c-0.064-0.335-0.219-0.593-0.465-0.774c-0.246-0.183-0.563-0.273-0.95-0.273c-0.507,0-0.909,0.186-1.209,0.559
		c-0.3,0.372-0.45,0.873-0.45,1.502c0,0.669,0.139,1.179,0.418,1.529c0.277,0.35,0.682,0.525,1.211,0.525
		c0.391,0,0.716-0.121,0.975-0.362c0.259-0.242,0.431-0.585,0.516-1.029H573.834z"/>
	<path fill="#5D5E5E" d="M576.282,356.595h-1.707v-0.303v-0.302h4.098v0.302v0.303h-1.707v4.444h-0.34h-0.344V356.595z"/>
	<path fill="#5D5E5E" d="M580.079,360.443c-0.454-0.489-0.681-1.131-0.681-1.926c0-0.797,0.227-1.44,0.681-1.93
		c0.453-0.49,1.046-0.735,1.778-0.735c0.738,0,1.333,0.245,1.785,0.735c0.452,0.489,0.678,1.133,0.678,1.93
		c0,0.795-0.226,1.437-0.678,1.926c-0.452,0.488-1.047,0.733-1.785,0.733C581.125,361.177,580.532,360.932,580.079,360.443z
		 M583.132,360.005c0.322-0.378,0.484-0.873,0.484-1.487c0-0.615-0.162-1.113-0.484-1.492c-0.323-0.379-0.748-0.568-1.275-0.568
		c-0.523,0-0.947,0.189-1.27,0.568c-0.324,0.379-0.484,0.877-0.484,1.492c0,0.614,0.16,1.109,0.484,1.487
		c0.322,0.378,0.746,0.567,1.27,0.567C582.384,360.572,582.809,360.383,583.132,360.005z"/>
</g>
<g>
	<path fill="#5D5E5E" d="M596.818,355.99h0.389h0.391l1.814,5.049h-0.367h-0.367l-0.514-1.463h-2.017l-0.53,1.463h-0.352h-0.354
		L596.818,355.99z M596.365,358.972h1.588l-0.778-2.24h0.003L596.365,358.972z"/>
	<path fill="#5D5E5E" d="M604.647,359.181c-0.087,0.623-0.325,1.111-0.716,1.465c-0.391,0.354-0.885,0.531-1.482,0.531
		c-0.696,0-1.251-0.24-1.664-0.72c-0.414-0.479-0.62-1.126-0.62-1.939c0-0.813,0.215-1.46,0.644-1.942
		c0.43-0.481,1.006-0.723,1.73-0.723c0.57,0,1.038,0.146,1.404,0.439s0.586,0.697,0.66,1.213h-0.66
		c-0.064-0.335-0.219-0.593-0.465-0.774c-0.246-0.183-0.563-0.273-0.95-0.273c-0.507,0-0.909,0.186-1.209,0.559
		c-0.3,0.372-0.45,0.873-0.45,1.502c0,0.669,0.139,1.179,0.418,1.529c0.277,0.35,0.682,0.525,1.211,0.525
		c0.391,0,0.716-0.121,0.975-0.362c0.259-0.242,0.431-0.585,0.516-1.029H604.647z"/>
	<path fill="#5D5E5E" d="M607.094,356.595h-1.707v-0.303v-0.302h4.098v0.302v0.303h-1.707v4.444h-0.34h-0.344V356.595z"/>
	<path fill="#5D5E5E" d="M611.804,357.528h-1.157v-0.494c0.341,0.007,0.618-0.066,0.831-0.22c0.215-0.156,0.375-0.396,0.478-0.722
		h0.505v4.946h-0.326h-0.33V357.528z"/>
</g>
<g>
	<path fill="#5D5E5E" d="M595.347,316.349V311.3h0.341h0.343v4.444h2.56v0.302v0.303H595.347z"/>
	<path fill="#5D5E5E" d="M599.714,311.3h0.34h0.344v5.049h-0.34h-0.344V311.3z"/>
	<path fill="#5D5E5E" d="M602.578,316.349h-0.33h-0.33V311.3h0.409h0.413l2.527,4.103V311.3h0.33h0.33v5.049h-0.375h-0.375
		l-2.6-4.119V316.349z"/>
	<path fill="#5D5E5E" d="M607.349,311.3h0.341h0.343v2.451l2.46-2.451h0.471h0.474l-2.14,2.062l2.181,2.987h-0.442h-0.446
		l-1.794-2.498l-0.763,0.736v1.762h-0.34h-0.344V311.3z"/>
	<path fill="#5D5E5E" d="M613.726,312.838h-1.158v-0.494c0.342,0.007,0.619-0.066,0.832-0.22c0.215-0.156,0.374-0.396,0.477-0.722
		h0.506v4.946h-0.326h-0.33V312.838z"/>
</g>
<g>
	<path fill="#5D5E5E" d="M565.681,316.349V311.3h0.34h0.344v4.444h2.559v0.302v0.303H565.681z"/>
	<path fill="#5D5E5E" d="M570.048,311.3h0.34h0.344v5.049h-0.34h-0.344V311.3z"/>
	<path fill="#5D5E5E" d="M572.912,316.349h-0.33h-0.33V311.3h0.408h0.413l2.528,4.103V311.3h0.329h0.33v5.049h-0.374h-0.375
		l-2.6-4.119V316.349z"/>
	<path fill="#5D5E5E" d="M577.683,311.3h0.34h0.344v2.451l2.459-2.451h0.471h0.475l-2.141,2.062l2.182,2.987h-0.443h-0.445
		l-1.795-2.498l-0.762,0.736v1.762h-0.34h-0.344V311.3z"/>
	<path fill="#5D5E5E" d="M582.894,315.823c-0.295-0.439-0.441-1.066-0.441-1.879s0.146-1.439,0.441-1.881
		c0.293-0.44,0.711-0.661,1.252-0.661c0.545,0,0.963,0.221,1.256,0.661c0.294,0.441,0.44,1.068,0.44,1.881s-0.146,1.439-0.44,1.879
		c-0.293,0.439-0.711,0.659-1.256,0.659C583.605,316.482,583.187,316.263,582.894,315.823z M584.929,315.432
		c0.174-0.33,0.26-0.825,0.257-1.487c0.003-0.662-0.083-1.158-0.257-1.489c-0.175-0.331-0.436-0.496-0.783-0.496
		c-0.347,0-0.605,0.165-0.777,0.496s-0.258,0.827-0.261,1.489c0.003,0.662,0.089,1.157,0.261,1.487s0.431,0.494,0.777,0.494
		C584.494,315.926,584.754,315.762,584.929,315.432z"/>
</g>
<g>
	<path fill="#5D5E5E" d="M424.818,331.503h0.388h0.392l1.813,5.049h-0.367h-0.367l-0.515-1.463h-2.016l-0.53,1.463h-0.351h-0.354
		L424.818,331.503z M424.364,334.484h1.589l-0.779-2.24h0.002L424.364,334.484z"/>
	<path fill="#5D5E5E" d="M432.647,334.693c-0.087,0.623-0.326,1.111-0.716,1.465c-0.39,0.354-0.884,0.531-1.482,0.531
		c-0.696,0-1.251-0.24-1.664-0.72c-0.414-0.479-0.62-1.126-0.62-1.939c0-0.813,0.215-1.46,0.644-1.942
		c0.429-0.481,1.006-0.723,1.729-0.723c0.57,0,1.039,0.146,1.405,0.439s0.586,0.697,0.66,1.213h-0.66
		c-0.064-0.335-0.219-0.593-0.465-0.774c-0.246-0.183-0.563-0.273-0.95-0.273c-0.506,0-0.909,0.186-1.209,0.559
		c-0.3,0.372-0.45,0.873-0.45,1.502c0,0.669,0.139,1.179,0.417,1.529c0.278,0.35,0.682,0.525,1.211,0.525
		c0.392,0,0.716-0.121,0.975-0.362c0.259-0.242,0.431-0.585,0.516-1.029H432.647z"/>
	<path fill="#5D5E5E" d="M435.094,332.107h-1.707v-0.303v-0.302h4.098v0.302v0.303h-1.707v4.444h-0.34h-0.344V332.107z"/>
</g>
<g>
	<path fill="#5D5E5E" d="M955.249,349.009v-5.742h4.199v0.344v0.344h-3.422v1.754h3.125v0.344v0.344h-3.125v1.926h3.465v0.344v0.344
		H955.249z"/>
	<path fill="#5D5E5E" d="M961.657,349.009h-0.375h-0.375v-5.742h0.465h0.469l2.875,4.666v-4.666h0.375h0.375v5.742h-0.426h-0.426
		l-2.957-4.685V349.009z"/>
</g>
<g>
	<path fill="#5D5E5E" d="M685.442,44.015c-0.033-0.362-0.176-0.642-0.428-0.838c-0.25-0.197-0.588-0.295-1.014-0.295
		c-0.438,0-0.77,0.084-0.996,0.254c-0.227,0.169-0.34,0.416-0.34,0.742c0,0.221,0.076,0.387,0.227,0.496
		c0.152,0.109,0.455,0.217,0.91,0.324l1,0.238c0.537,0.127,0.92,0.316,1.148,0.566c0.23,0.247,0.346,0.598,0.346,1.051
		c0,0.521-0.197,0.934-0.592,1.238s-0.93,0.457-1.604,0.457c-0.75,0-1.338-0.176-1.76-0.527c-0.41-0.347-0.617-0.82-0.617-1.422
		v-0.043h0.715c0.014,0.416,0.164,0.738,0.453,0.965c0.291,0.227,0.693,0.34,1.209,0.34c0.477,0,0.84-0.082,1.086-0.246
		c0.248-0.164,0.371-0.405,0.371-0.723c0-0.276-0.08-0.48-0.244-0.613c-0.16-0.131-0.486-0.254-0.977-0.371l-1.002-0.238
		c-0.506-0.12-0.867-0.287-1.084-0.5c-0.215-0.214-0.322-0.51-0.322-0.887c0-0.55,0.188-0.985,0.561-1.307
		c0.373-0.322,0.877-0.482,1.514-0.482c0.645,0,1.158,0.161,1.541,0.484c0.383,0.322,0.588,0.768,0.613,1.336H685.442z"/>
	<path fill="#5D5E5E" d="M689.126,43.038h-1.941v-0.344v-0.344h4.66v0.344v0.344h-1.941v5.055h-0.387h-0.391V43.038z"/>
	<path fill="#5D5E5E" d="M694.64,42.351h0.441h0.445l2.063,5.742h-0.418h-0.416l-0.586-1.664h-2.293l-0.604,1.664h-0.398h-0.402
		L694.64,42.351z M694.122,45.741h1.809l-0.887-2.547h0.002L694.122,45.741z"/>
	<path fill="#5D5E5E" d="M700.149,43.038h-1.941v-0.344v-0.344h4.66v0.344v0.344h-1.941v5.055h-0.387h-0.391V43.038z"/>
	<path fill="#5D5E5E" d="M708.532,45.987c0,0.708-0.199,1.262-0.598,1.662c-0.398,0.399-0.951,0.6-1.66,0.6
		c-0.736,0-1.297-0.192-1.684-0.576c-0.385-0.385-0.578-0.946-0.578-1.686v-3.637h0.387h0.391v3.578
		c0,0.533,0.127,0.939,0.379,1.217c0.254,0.277,0.621,0.416,1.105,0.416s0.854-0.139,1.104-0.416
		c0.252-0.277,0.377-0.684,0.377-1.217v-3.578h0.387h0.391V45.987z"/>
	<path fill="#5D5E5E" d="M713.665,44.015c-0.033-0.362-0.176-0.642-0.428-0.838c-0.25-0.197-0.588-0.295-1.014-0.295
		c-0.438,0-0.77,0.084-0.996,0.254c-0.227,0.169-0.34,0.416-0.34,0.742c0,0.221,0.076,0.387,0.227,0.496
		c0.152,0.109,0.455,0.217,0.91,0.324l1,0.238c0.537,0.127,0.92,0.316,1.148,0.566c0.23,0.247,0.346,0.598,0.346,1.051
		c0,0.521-0.197,0.934-0.592,1.238s-0.93,0.457-1.604,0.457c-0.75,0-1.338-0.176-1.76-0.527c-0.41-0.347-0.617-0.82-0.617-1.422
		v-0.043h0.715c0.014,0.416,0.164,0.738,0.453,0.965c0.291,0.227,0.693,0.34,1.209,0.34c0.477,0,0.84-0.082,1.086-0.246
		c0.248-0.164,0.371-0.405,0.371-0.723c0-0.276-0.08-0.48-0.244-0.613c-0.16-0.131-0.486-0.254-0.977-0.371l-1.002-0.238
		c-0.506-0.12-0.867-0.287-1.084-0.5c-0.215-0.214-0.322-0.51-0.322-0.887c0-0.55,0.188-0.985,0.561-1.307
		c0.373-0.322,0.877-0.482,1.514-0.482c0.645,0,1.158,0.161,1.541,0.484c0.383,0.322,0.588,0.768,0.613,1.336H713.665z"/>
</g>
<g>
	<path fill="#5D5E5E" d="M879.421,59.638c-0.516-0.557-0.773-1.285-0.773-2.189c0-0.906,0.258-1.639,0.773-2.195
		s1.189-0.836,2.023-0.836c0.838,0,1.516,0.279,2.029,0.836s0.771,1.289,0.771,2.195c0,0.904-0.258,1.633-0.771,2.189
		s-1.191,0.834-2.029,0.834C880.61,60.472,879.937,60.194,879.421,59.638z M882.894,59.14c0.367-0.43,0.551-0.994,0.551-1.691
		c0-0.701-0.184-1.266-0.551-1.697s-0.85-0.646-1.449-0.646c-0.596,0-1.078,0.215-1.445,0.646s-0.551,0.996-0.551,1.697
		c0,0.697,0.184,1.262,0.551,1.691s0.85,0.645,1.445,0.645C882.044,59.784,882.526,59.569,882.894,59.14z"/>
	<path fill="#5D5E5E" d="M885.646,60.315v-5.742h3.977v0.344v0.344h-3.199v1.754h2.801v0.344v0.344h-2.801v2.613h-0.387H885.646z"/>
	<path fill="#5D5E5E" d="M890.931,60.315v-5.742h3.977v0.344v0.344h-3.199v1.754h2.801v0.344v0.344h-2.801v2.613h-0.387H890.931z"/>
</g>
<g>
	<path fill="#5D5E5E" d="M330.112,36.305c-0.516-0.556-0.773-1.286-0.773-2.189c0-0.906,0.258-1.638,0.773-2.195
		s1.19-0.836,2.023-0.836c0.838,0,1.515,0.278,2.029,0.836s0.771,1.289,0.771,2.195c0,0.903-0.257,1.634-0.771,2.189
		s-1.191,0.834-2.029,0.834C331.302,37.139,330.627,36.86,330.112,36.305z M333.584,35.807c0.367-0.43,0.551-0.993,0.551-1.691
		c0-0.7-0.184-1.267-0.551-1.697s-0.85-0.646-1.449-0.646c-0.596,0-1.078,0.216-1.445,0.646s-0.551,0.997-0.551,1.697
		c0,0.698,0.184,1.262,0.551,1.691s0.849,0.645,1.445,0.645C332.734,36.451,333.217,36.236,333.584,35.807z"/>
	<path fill="#5D5E5E" d="M337.008,36.982h-0.375h-0.375V31.24h0.465h0.469l2.875,4.667V31.24h0.375h0.375v5.742h-0.426h-0.426
		l-2.957-4.685V36.982z"/>
</g>
<g>
	<path fill="#5D5E5E" d="M330.112,59.638c-0.516-0.557-0.773-1.285-0.773-2.189c0-0.906,0.258-1.639,0.773-2.195
		s1.19-0.836,2.023-0.836c0.838,0,1.515,0.279,2.029,0.836s0.771,1.289,0.771,2.195c0,0.904-0.257,1.633-0.771,2.189
		s-1.191,0.834-2.029,0.834C331.302,60.472,330.627,60.194,330.112,59.638z M333.584,59.14c0.367-0.43,0.551-0.994,0.551-1.691
		c0-0.701-0.184-1.266-0.551-1.697s-0.85-0.646-1.449-0.646c-0.596,0-1.078,0.215-1.445,0.646s-0.551,0.996-0.551,1.697
		c0,0.697,0.184,1.262,0.551,1.691s0.849,0.645,1.445,0.645C332.734,59.784,333.217,59.569,333.584,59.14z"/>
	<path fill="#5D5E5E" d="M336.336,60.315v-5.742h3.977v0.344v0.344h-3.199v1.754h2.801v0.344v0.344h-2.801v2.613h-0.387H336.336z"/>
	<path fill="#5D5E5E" d="M341.623,60.315v-5.742h3.977v0.344v0.344H342.4v1.754h2.801v0.344v0.344H342.4v2.613h-0.387H341.623z"/>
</g>
<path fill="#B2B2B2" stroke="#1D1D1D" stroke-width="0.5" stroke-miterlimit="10" d="M982.562,70.688
	c0,0.609-0.869,1.104-1.943,1.104h-26.834c-1.072,0-1.943-0.495-1.943-1.104V55.422c0-0.611,0.871-1.105,1.943-1.105h26.834
	c1.074,0,1.943,0.494,1.943,1.105V70.688z"/>
<polygon fill="#BAA45B" stroke="#231815" stroke-width="0.874" stroke-linecap="round" stroke-linejoin="round" stroke-miterlimit="10" points="
	960.579,57.387 967.124,68.723 954.034,68.723 "/>
<path fill="#231815" d="M960.308,64.823l-0.264-3.726V59.54h1.068v1.558l-0.248,3.726H960.308z M960.083,65.586h0.992v0.982h-0.992
	V65.586z"/>
<path fill="#B2B2B2" stroke="#1D1D1D" stroke-width="0.5" stroke-miterlimit="10" d="M432.562,70.688
	c0,0.609-0.868,1.104-1.943,1.104h-26.834c-1.072,0-1.943-0.495-1.943-1.104V55.422c0-0.611,0.871-1.105,1.943-1.105h26.834
	c1.075,0,1.943,0.494,1.943,1.105V70.688z"/>
<polygon fill="#BAA45B" stroke="#231815" stroke-width="0.874" stroke-linecap="round" stroke-linejoin="round" stroke-miterlimit="10" points="
	410.579,57.387 417.124,68.723 404.034,68.723 "/>
<path fill="#231815" d="M410.308,64.823l-0.264-3.726V59.54h1.069v1.558l-0.249,3.726H410.308z M410.083,65.586h0.992v0.982h-0.992
	V65.586z"/>
<path fill="#070001" d="M697.56,20.383c4.801,0,8.691,3.892,8.691,8.691c0,4.799-3.891,8.69-8.691,8.69s-8.691-3.892-8.691-8.69
	C688.868,24.274,692.759,20.383,697.56,20.383"/>
<path fill="none" d="M690.577,29.074c0,3.857,3.127,6.983,6.984,6.983s6.984-3.126,6.984-6.983s-3.127-6.984-6.984-6.984
	S690.577,25.217,690.577,29.074"/>
<g>
	<defs>
		<circle id="SVGID_10_" cx="697.562" cy="29.074" r="6.984"/>
	</defs>
	<clipPath id="SVGID_11_">
		<use xlink:href="#SVGID_10_"  overflow="visible"/>
	</clipPath>
	
		<radialGradient id="SVGID_12_" cx="-184.7329" cy="477.1953" r="1.2259" gradientTransform="matrix(8.3884 0 0 8.3884 2245.4648 -3976.3203)" gradientUnits="userSpaceOnUse">
		<stop  offset="0" style="stop-color:#CBE2A3"/>
		<stop  offset="1" style="stop-color:#7CC05C"/>
	</radialGradient>
	<rect x="690.577" y="22.09" clip-path="url(#SVGID_11_)" fill="url(#SVGID_12_)" width="13.969" height="13.968"/>
</g>
<g opacity="0.5" enable-background="new    ">
	<g>
		<defs>
			<rect id="SVGID_13_" x="694.302" y="25.039" width="2.328" height="2.328"/>
		</defs>
		<clipPath id="SVGID_14_">
			<use xlink:href="#SVGID_13_"  overflow="visible"/>
		</clipPath>
		<rect x="694.302" y="25.039" clip-path="url(#SVGID_14_)" fill="#FFFFFF" width="2.328" height="2.327"/>
	</g>
</g>
<g opacity="0.5" enable-background="new    ">
	<g>
		<defs>
			<rect id="SVGID_15_" x="694.302" y="25.039" width="1.164" height="2.328"/>
		</defs>
		<clipPath id="SVGID_16_">
			<use xlink:href="#SVGID_15_"  overflow="visible"/>
		</clipPath>
		<rect x="694.302" y="25.039" clip-path="url(#SVGID_16_)" fill="#FFFFFF" width="1.164" height="2.327"/>
	</g>
</g>
<g>
	<path fill="#5D5E5E" d="M116.708,44.015c-0.034-0.362-0.176-0.642-0.428-0.838c-0.251-0.197-0.589-0.295-1.014-0.295
		c-0.438,0-0.77,0.084-0.996,0.254c-0.227,0.169-0.339,0.416-0.339,0.742c0,0.221,0.075,0.387,0.227,0.496
		c0.151,0.109,0.454,0.217,0.91,0.324l1,0.238c0.537,0.127,0.919,0.316,1.148,0.566c0.23,0.247,0.345,0.598,0.345,1.051
		c0,0.521-0.197,0.934-0.592,1.238c-0.395,0.305-0.93,0.457-1.604,0.457c-0.75,0-1.336-0.176-1.758-0.527
		c-0.412-0.347-0.618-0.82-0.618-1.422v-0.043h0.715c0.013,0.416,0.165,0.738,0.454,0.965c0.29,0.227,0.692,0.34,1.208,0.34
		c0.477,0,0.839-0.082,1.086-0.246c0.248-0.164,0.372-0.405,0.372-0.723c0-0.276-0.082-0.48-0.244-0.613
		c-0.162-0.131-0.488-0.254-0.978-0.371l-1.001-0.238c-0.506-0.12-0.867-0.287-1.083-0.5c-0.215-0.214-0.323-0.51-0.323-0.887
		c0-0.55,0.187-0.985,0.561-1.307c0.373-0.322,0.877-0.482,1.513-0.482c0.646,0,1.16,0.161,1.542,0.484
		c0.382,0.322,0.587,0.768,0.613,1.336H116.708z"/>
	<path fill="#5D5E5E" d="M120.391,43.038h-1.941v-0.344v-0.344h4.66v0.344v0.344h-1.941v5.055h-0.387h-0.391V43.038z"/>
	<path fill="#5D5E5E" d="M125.904,42.351h0.441h0.445l2.063,5.742h-0.417h-0.417l-0.585-1.664h-2.293l-0.603,1.664h-0.399h-0.403
		L125.904,42.351z M125.388,45.741h1.807l-0.886-2.547h0.002L125.388,45.741z"/>
	<path fill="#5D5E5E" d="M131.414,43.038h-1.941v-0.344v-0.344h4.66v0.344v0.344h-1.941v5.055h-0.387h-0.391V43.038z"/>
	<path fill="#5D5E5E" d="M139.798,45.987c0,0.708-0.199,1.262-0.598,1.662c-0.398,0.399-0.952,0.6-1.66,0.6
		c-0.737,0-1.298-0.192-1.684-0.576c-0.385-0.385-0.578-0.946-0.578-1.686v-3.637h0.387h0.391v3.578
		c0,0.533,0.126,0.939,0.379,1.217s0.621,0.416,1.105,0.416s0.852-0.139,1.104-0.416s0.377-0.684,0.377-1.217v-3.578h0.387h0.391
		V45.987z"/>
	<path fill="#5D5E5E" d="M144.931,44.015c-0.034-0.362-0.176-0.642-0.428-0.838c-0.251-0.197-0.589-0.295-1.014-0.295
		c-0.438,0-0.77,0.084-0.996,0.254c-0.227,0.169-0.339,0.416-0.339,0.742c0,0.221,0.075,0.387,0.227,0.496
		c0.151,0.109,0.454,0.217,0.91,0.324l1,0.238c0.537,0.127,0.919,0.316,1.148,0.566c0.23,0.247,0.345,0.598,0.345,1.051
		c0,0.521-0.197,0.934-0.592,1.238c-0.395,0.305-0.93,0.457-1.604,0.457c-0.75,0-1.336-0.176-1.758-0.527
		c-0.412-0.347-0.618-0.82-0.618-1.422v-0.043h0.715c0.013,0.416,0.165,0.738,0.454,0.965c0.29,0.227,0.692,0.34,1.208,0.34
		c0.477,0,0.839-0.082,1.086-0.246c0.248-0.164,0.372-0.405,0.372-0.723c0-0.276-0.082-0.48-0.244-0.613
		c-0.162-0.131-0.488-0.254-0.978-0.371l-1.001-0.238c-0.506-0.12-0.867-0.287-1.083-0.5c-0.215-0.214-0.323-0.51-0.323-0.887
		c0-0.55,0.187-0.985,0.561-1.307c0.373-0.322,0.877-0.482,1.513-0.482c0.646,0,1.16,0.161,1.542,0.484
		c0.382,0.322,0.587,0.768,0.613,1.336H144.931z"/>
</g>
<path fill="#070001" d="M128.825,20.383c4.8,0,8.691,3.892,8.691,8.691c0,4.799-3.891,8.69-8.691,8.69
	c-4.8,0-8.691-3.892-8.691-8.69C120.134,24.274,124.025,20.383,128.825,20.383"/>
<path fill="none" d="M121.843,29.074c0,3.857,3.127,6.983,6.983,6.983c3.857,0,6.985-3.126,6.985-6.983s-3.127-6.984-6.985-6.984
	C124.97,22.09,121.843,25.217,121.843,29.074"/>
<g>
	<defs>
		<circle id="SVGID_17_" cx="128.827" cy="29.074" r="6.985"/>
	</defs>
	<clipPath id="SVGID_18_">
		<use xlink:href="#SVGID_17_"  overflow="visible"/>
	</clipPath>
	
		<radialGradient id="SVGID_19_" cx="-252.5327" cy="477.1953" r="1.2259" gradientTransform="matrix(8.3884 0 0 8.3884 2245.4648 -3976.3203)" gradientUnits="userSpaceOnUse">
		<stop  offset="0" style="stop-color:#CBE2A3"/>
		<stop  offset="1" style="stop-color:#7CC05C"/>
	</radialGradient>
	<rect x="121.842" y="22.09" clip-path="url(#SVGID_18_)" fill="url(#SVGID_19_)" width="13.969" height="13.968"/>
</g>
<g opacity="0.5" enable-background="new    ">
	<g>
		<defs>
			<rect id="SVGID_20_" x="125.567" y="25.039" width="2.327" height="2.328"/>
		</defs>
		<clipPath id="SVGID_21_">
			<use xlink:href="#SVGID_20_"  overflow="visible"/>
		</clipPath>
		<rect x="125.567" y="25.039" clip-path="url(#SVGID_21_)" fill="#FFFFFF" width="2.327" height="2.327"/>
	</g>
</g>
<g opacity="0.5" enable-background="new    ">
	<g>
		<defs>
			<rect id="SVGID_22_" x="125.567" y="25.039" width="1.163" height="2.328"/>
		</defs>
		<clipPath id="SVGID_23_">
			<use xlink:href="#SVGID_22_"  overflow="visible"/>
		</clipPath>
		<rect x="125.567" y="25.039" clip-path="url(#SVGID_23_)" fill="#FFFFFF" width="1.164" height="2.327"/>
	</g>
</g>
<rect x="622.783" y="277.996" fill="#767777" stroke="#060404" stroke-miterlimit="10" width="49.279" height="80.878"/>
<circle fill="#D3D3D3" cx="911.812" cy="355.826" r="4.25"/>
<circle fill="#DCEBBE" cx="960.937" cy="355.826" r="4.25"/>
<circle fill="#666666" stroke="#040000" stroke-miterlimit="10" cx="574.125" cy="323.807" r="3.906"/>
<circle fill="#666666" stroke="#040000" stroke-miterlimit="10" cx="603.362" cy="323.807" r="3.907"/>
<circle fill="#666666" stroke="#040000" stroke-miterlimit="10" cx="574.125" cy="347.947" r="3.906"/>
<circle fill="#666666" stroke="#040000" stroke-miterlimit="10" cx="430.219" cy="344.436" r="3.907"/>
<circle fill="#666666" stroke="#040000" stroke-miterlimit="10" cx="603.362" cy="347.947" r="3.907"/>
<path fill="#4F4F4F" d="M369.916,356.581l-1.97-1.178v0.877h-8.813h-0.784h-0.708l2.001-2.002c0.181-0.182,0.432-0.285,0.687-0.285
	h1.768c0.16,0.365,0.526,0.621,0.951,0.621c0.573,0,1.038-0.463,1.038-1.039c0-0.572-0.465-1.037-1.038-1.037
	c-0.509,0-0.932,0.365-1.021,0.848h-1.698c-0.415,0-0.82,0.17-1.115,0.465l-2.151,2.15c-0.178,0.18-0.418,0.279-0.671,0.279h-0.264
	h-0.699c-0.142-0.783-0.827-1.377-1.649-1.377c-0.929,0-1.681,0.75-1.681,1.678c0,0.93,0.752,1.68,1.681,1.68
	c0.822,0,1.508-0.594,1.649-1.375h0.699h0.264h1.958h0.784c0.253,0,0.489,0.098,0.667,0.275l2.061,2.061
	c0.298,0.297,0.692,0.461,1.111,0.461h1.489v0.789h1.969v-1.971h-1.969v0.574h-1.489c-0.258,0-0.499-0.1-0.683-0.283l-1.907-1.906
	h7.564v0.875L369.916,356.581z"/>
<path fill="#4F4F4F" d="M504.44,356.581l-1.971-1.178v0.877h-8.813h-0.785h-0.707l2-2.002c0.182-0.182,0.432-0.285,0.688-0.285
	h1.768c0.16,0.365,0.525,0.621,0.951,0.621c0.572,0,1.037-0.463,1.037-1.039c0-0.572-0.465-1.037-1.037-1.037
	c-0.51,0-0.932,0.365-1.021,0.848h-1.697c-0.416,0-0.82,0.17-1.115,0.465l-2.151,2.15c-0.179,0.18-0.419,0.279-0.671,0.279h-0.264
	h-0.699c-0.143-0.783-0.828-1.377-1.65-1.377c-0.928,0-1.68,0.75-1.68,1.678c0,0.93,0.752,1.68,1.68,1.68
	c0.822,0,1.508-0.594,1.65-1.375h0.699h0.264h1.957h0.785c0.252,0,0.488,0.098,0.666,0.275l2.061,2.061
	c0.299,0.297,0.693,0.461,1.111,0.461h1.49v0.789h1.969v-1.971h-1.969v0.574h-1.49c-0.258,0-0.498-0.1-0.682-0.283l-1.908-1.906
	h7.564v0.875L504.44,356.581z"/>
</svg>
