<?xml version="1.0" encoding="utf-8"?>
<!-- Generator: Adobe Illustrator 16.0.0, SVG Export Plug-In . SVG Version: 6.00 Build 0)  -->
<!DOCTYPE svg PUBLIC "-//W3C//DTD SVG 1.1//EN" "http://www.w3.org/Graphics/SVG/1.1/DTD/svg11.dtd">
<svg version="1.1" id="图层_1" xmlns="http://www.w3.org/2000/svg" xmlns:xlink="http://www.w3.org/1999/xlink" x="0px" y="0px"
	 width="1276.59px" height="127.14px" viewBox="0 0 1276.59 127.14" enable-background="new 0 0 1276.59 127.14"
	 xml:space="preserve">
<g>
	<rect x="0.501" y="0.5" fill="#DBDBDB" width="1275.589" height="126.141"/>
	<path fill="#202020" d="M1276.59,127.141H0.001V0H1276.59V127.141z M1.001,126.141H1275.59V1H1.001V126.141z"/>
</g>
<g>
	<rect x="21.706" y="33.182" fill="#B7B7B7" width="264.119" height="72.777"/>
	<path fill="#060404" d="M286.825,106.959H20.706V32.182h266.119V106.959z M22.706,104.959h262.119V34.182H22.706V104.959z"/>
</g>
<g>
	<rect x="293.706" y="33.182" fill="#B7B7B7" width="264.119" height="72.777"/>
	<path fill="#060404" d="M558.825,106.959H292.706V32.182h266.119V106.959z M294.706,104.959h262.119V34.182H294.706V104.959z"/>
</g>
<g>
	<rect x="565.706" y="33.182" fill="#B7B7B7" width="264.118" height="72.777"/>
	<path fill="#060404" d="M830.824,106.959H564.706V32.182h266.118V106.959z M566.706,104.959h262.118V34.182H566.706V104.959z"/>
</g>
<g>
	<rect x="837.706" y="33.182" fill="#B7B7B7" width="264.119" height="72.777"/>
	<path fill="#060404" d="M1102.825,106.959H836.706V32.182h266.119V106.959z M838.706,104.959h262.119V34.182H838.706V104.959z"/>
</g>
<rect x="21.706" y="16.404" fill="#615A69" width="264.119" height="9.277"/>
<rect x="293.706" y="16.404" fill="#615A69" width="264.119" height="9.277"/>
<rect x="565.706" y="16.404" fill="#615A69" width="264.118" height="9.277"/>
<rect x="837.706" y="16.404" fill="#615A69" width="264.119" height="9.277"/>
</svg>
