<?xml version="1.0" encoding="utf-8"?>
<!-- Generator: Adobe Illustrator 16.0.0, SVG Export Plug-In . SVG Version: 6.00 Build 0)  -->
<!DOCTYPE svg PUBLIC "-//W3C//DTD SVG 1.1//EN" "http://www.w3.org/Graphics/SVG/1.1/DTD/svg11.dtd">
<svg version="1.1" id="图层_1" xmlns="http://www.w3.org/2000/svg" xmlns:xlink="http://www.w3.org/1999/xlink" x="0px" y="0px"
	 width="1275.59px" height="252px" viewBox="0 0 1275.59 252" enable-background="new 0 0 1275.59 252" xml:space="preserve">
<rect fill="#3D3D3F" width="1275.589" height="252"/>
<rect x="421.592" y="17.666" fill="#070606" width="789.39" height="216.902"/>
<path fill="#FBFBFD" d="M242.354,111.877l-1.97-1.178v0.877h-8.813h-0.784h-0.708l2.001-2.002c0.18-0.182,0.432-0.285,0.687-0.285
	h1.768c0.16,0.365,0.526,0.621,0.951,0.621c0.574,0,1.038-0.463,1.038-1.039c0-0.572-0.464-1.037-1.038-1.037
	c-0.508,0-0.931,0.365-1.02,0.848h-1.698c-0.415,0-0.82,0.17-1.115,0.465l-2.151,2.15c-0.178,0.18-0.418,0.279-0.671,0.279h-0.264
	h-0.699c-0.142-0.783-0.827-1.377-1.65-1.377c-0.928,0-1.68,0.75-1.68,1.678c0,0.93,0.752,1.68,1.68,1.68
	c0.823,0,1.509-0.594,1.65-1.375h0.699h0.264h1.958h0.784c0.253,0,0.489,0.098,0.667,0.275l2.061,2.061
	c0.298,0.297,0.692,0.461,1.111,0.461h1.489v0.789h1.969v-1.971h-1.969v0.574h-1.489c-0.258,0-0.499-0.1-0.683-0.283l-1.908-1.906
	h7.564v0.875L242.354,111.877z"/>
<polygon fill="#232527" points="94.316,14.154 91.1,8.584 94.316,3.014 100.749,3.014 103.964,8.584 100.749,14.154 "/>
<polygon fill="#232527" points="82.505,10.73 79.29,16.301 82.505,21.871 88.937,21.871 92.153,16.301 88.937,10.73 "/>
<polygon fill="#232527" points="117.907,14.154 114.69,8.584 117.907,3.014 124.339,3.014 127.555,8.584 124.339,14.154 "/>
<polygon fill="#232527" points="141.529,14.154 138.313,8.584 141.529,3.014 147.961,3.014 151.177,8.584 147.961,14.154 "/>
<polygon fill="#232527" points="165.152,14.154 161.936,8.584 165.152,3.014 171.583,3.014 174.799,8.584 171.583,14.154 "/>
<polygon fill="#232527" points="188.774,14.154 185.558,8.584 188.774,3.014 195.206,3.014 198.421,8.584 195.206,14.154 "/>
<polygon fill="#232527" points="212.396,14.154 209.18,8.584 212.396,3.014 218.828,3.014 222.043,8.584 218.828,14.154 "/>
<polygon fill="#232527" points="236.018,14.154 232.802,8.584 236.018,3.014 242.449,3.014 245.667,8.584 242.449,14.154 "/>
<polygon fill="#232527" points="259.64,14.154 256.424,8.584 259.64,3.014 266.072,3.014 269.289,8.584 266.072,14.154 "/>
<polygon fill="#232527" points="283.262,14.154 280.046,8.584 283.262,3.014 289.694,3.014 292.911,8.584 289.694,14.154 "/>
<polygon fill="#232527" points="306.884,14.154 303.668,8.584 306.884,3.014 313.316,3.014 316.532,8.584 313.316,14.154 "/>
<polygon fill="#232527" points="330.506,14.154 327.291,8.584 330.506,3.014 336.939,3.014 340.154,8.584 336.939,14.154 "/>
<polygon fill="#232527" points="354.128,14.154 350.913,8.584 354.128,3.014 360.561,3.014 363.777,8.584 360.561,14.154 "/>
<polygon fill="#232527" points="377.75,14.154 374.534,8.584 377.75,3.014 384.183,3.014 387.399,8.584 384.183,14.154 "/>
<polygon fill="#232527" points="106.096,10.73 102.88,16.301 106.096,21.871 112.527,21.871 115.745,16.301 112.527,10.73 "/>
<polygon fill="#232527" points="129.718,10.73 126.502,16.301 129.718,21.871 136.15,21.871 139.367,16.301 136.15,10.73 "/>
<polygon fill="#232527" points="153.34,10.73 150.125,16.301 153.34,21.871 159.773,21.871 162.988,16.301 159.773,10.73 "/>
<polygon fill="#232527" points="176.962,10.73 173.747,16.301 176.962,21.871 183.395,21.871 186.61,16.301 183.395,10.73 "/>
<polygon fill="#232527" points="200.584,10.73 197.368,16.301 200.584,21.871 207.017,21.871 210.232,16.301 207.017,10.73 "/>
<polygon fill="#232527" points="224.207,10.73 220.99,16.301 224.207,21.871 230.639,21.871 233.855,16.301 230.639,10.73 "/>
<polygon fill="#232527" points="247.83,10.73 244.612,16.301 247.83,21.871 254.261,21.871 257.477,16.301 254.261,10.73 "/>
<polygon fill="#232527" points="271.451,10.73 268.235,16.301 271.451,21.871 277.883,21.871 281.099,16.301 277.883,10.73 "/>
<polygon fill="#232527" points="295.074,10.73 291.857,16.301 295.074,21.871 301.505,21.871 304.721,16.301 301.505,10.73 "/>
<polygon fill="#232527" points="318.695,10.73 315.48,16.301 318.695,21.871 325.127,21.871 328.343,16.301 325.127,10.73 "/>
<polygon fill="#232527" points="342.318,10.73 339.102,16.301 342.318,21.871 348.75,21.871 351.965,16.301 348.75,10.73 "/>
<polygon fill="#232527" points="365.94,10.73 362.724,16.301 365.94,21.871 372.372,21.871 375.588,16.301 372.372,10.73 "/>
<polygon fill="#232527" points="389.562,10.73 386.346,16.301 389.562,21.871 395.993,21.871 399.209,16.301 395.993,10.73 "/>
<polygon fill="#232527" points="94.316,28.238 91.1,22.668 94.316,17.098 100.749,17.098 103.964,22.668 100.749,28.238 "/>
<polygon fill="#232527" points="82.505,24.814 79.29,30.385 82.505,35.955 88.937,35.955 92.153,30.385 88.937,24.814 "/>
<polygon fill="#232527" points="117.907,28.238 114.69,22.668 117.907,17.098 124.339,17.098 127.555,22.668 124.339,28.238 "/>
<polygon fill="#232527" points="141.529,28.238 138.313,22.668 141.529,17.098 147.961,17.098 151.177,22.668 147.961,28.238 "/>
<polygon fill="#232527" points="165.152,28.238 161.936,22.668 165.152,17.098 171.583,17.098 174.799,22.668 171.583,28.238 "/>
<polygon fill="#232527" points="188.774,28.238 185.558,22.668 188.774,17.098 195.206,17.098 198.421,22.668 195.206,28.238 "/>
<polygon fill="#232527" points="212.396,28.238 209.18,22.668 212.396,17.098 218.828,17.098 222.043,22.668 218.828,28.238 "/>
<polygon fill="#232527" points="236.018,28.238 232.802,22.668 236.018,17.098 242.449,17.098 245.667,22.668 242.449,28.238 "/>
<polygon fill="#232527" points="259.64,28.238 256.424,22.668 259.64,17.098 266.072,17.098 269.289,22.668 266.072,28.238 "/>
<polygon fill="#232527" points="283.262,28.238 280.046,22.668 283.262,17.098 289.694,17.098 292.911,22.668 289.694,28.238 "/>
<polygon fill="#232527" points="306.884,28.238 303.668,22.668 306.884,17.098 313.316,17.098 316.532,22.668 313.316,28.238 "/>
<polygon fill="#232527" points="330.506,28.238 327.291,22.668 330.506,17.098 336.939,17.098 340.154,22.668 336.939,28.238 "/>
<polygon fill="#232527" points="354.128,28.238 350.913,22.668 354.128,17.098 360.561,17.098 363.777,22.668 360.561,28.238 "/>
<polygon fill="#232527" points="377.75,28.238 374.534,22.668 377.75,17.098 384.183,17.098 387.399,22.668 384.183,28.238 "/>
<polygon fill="#232527" points="106.096,24.814 102.88,30.385 106.096,35.955 112.527,35.955 115.745,30.385 112.527,24.814 "/>
<polygon fill="#232527" points="129.718,24.814 126.502,30.385 129.718,35.955 136.15,35.955 139.367,30.385 136.15,24.814 "/>
<polygon fill="#232527" points="153.34,24.814 150.125,30.385 153.34,35.955 159.773,35.955 162.988,30.385 159.773,24.814 "/>
<polygon fill="#232527" points="176.962,24.814 173.747,30.385 176.962,35.955 183.395,35.955 186.61,30.385 183.395,24.814 "/>
<polygon fill="#232527" points="200.584,24.814 197.368,30.385 200.584,35.955 207.017,35.955 210.232,30.385 207.017,24.814 "/>
<polygon fill="#232527" points="224.207,24.814 220.99,30.385 224.207,35.955 230.639,35.955 233.855,30.385 230.639,24.814 "/>
<polygon fill="#232527" points="247.83,24.814 244.612,30.385 247.83,35.955 254.261,35.955 257.477,30.385 254.261,24.814 "/>
<polygon fill="#232527" points="271.451,24.814 268.235,30.385 271.451,35.955 277.883,35.955 281.099,30.385 277.883,24.814 "/>
<polygon fill="#232527" points="295.074,24.814 291.857,30.385 295.074,35.955 301.505,35.955 304.721,30.385 301.505,24.814 "/>
<polygon fill="#232527" points="318.695,24.814 315.48,30.385 318.695,35.955 325.127,35.955 328.343,30.385 325.127,24.814 "/>
<polygon fill="#232527" points="342.318,24.814 339.102,30.385 342.318,35.955 348.75,35.955 351.965,30.385 348.75,24.814 "/>
<polygon fill="#232527" points="365.94,24.814 362.724,30.385 365.94,35.955 372.372,35.955 375.588,30.385 372.372,24.814 "/>
<polygon fill="#232527" points="389.562,24.814 386.346,30.385 389.562,35.955 395.993,35.955 399.209,30.385 395.993,24.814 "/>
<polygon fill="#232527" points="94.316,41.525 91.1,35.955 94.316,30.385 100.749,30.385 103.964,35.955 100.749,41.525 "/>
<polygon fill="#232527" points="82.505,38.102 79.29,43.672 82.505,49.242 88.937,49.242 92.153,43.672 88.937,38.102 "/>
<polygon fill="#232527" points="117.907,41.525 114.69,35.955 117.907,30.385 124.339,30.385 127.555,35.955 124.339,41.525 "/>
<polygon fill="#232527" points="141.529,41.525 138.313,35.955 141.529,30.385 147.961,30.385 151.177,35.955 147.961,41.525 "/>
<polygon fill="#232527" points="165.152,41.525 161.936,35.955 165.152,30.385 171.583,30.385 174.799,35.955 171.583,41.525 "/>
<polygon fill="#232527" points="188.774,41.525 185.558,35.955 188.774,30.385 195.206,30.385 198.421,35.955 195.206,41.525 "/>
<polygon fill="#232527" points="212.396,41.525 209.18,35.955 212.396,30.385 218.828,30.385 222.043,35.955 218.828,41.525 "/>
<polygon fill="#232527" points="236.018,41.525 232.802,35.955 236.018,30.385 242.449,30.385 245.667,35.955 242.449,41.525 "/>
<polygon fill="#232527" points="259.64,41.525 256.424,35.955 259.64,30.385 266.072,30.385 269.289,35.955 266.072,41.525 "/>
<polygon fill="#232527" points="283.262,41.525 280.046,35.955 283.262,30.385 289.694,30.385 292.911,35.955 289.694,41.525 "/>
<polygon fill="#232527" points="306.884,41.525 303.668,35.955 306.884,30.385 313.316,30.385 316.532,35.955 313.316,41.525 "/>
<polygon fill="#232527" points="330.506,41.525 327.291,35.955 330.506,30.385 336.939,30.385 340.154,35.955 336.939,41.525 "/>
<polygon fill="#232527" points="354.128,41.525 350.913,35.955 354.128,30.385 360.561,30.385 363.777,35.955 360.561,41.525 "/>
<polygon fill="#232527" points="377.75,41.525 374.534,35.955 377.75,30.385 384.183,30.385 387.399,35.955 384.183,41.525 "/>
<polygon fill="#232527" points="106.096,38.102 102.88,43.672 106.096,49.242 112.527,49.242 115.745,43.672 112.527,38.102 "/>
<polygon fill="#232527" points="129.718,38.102 126.502,43.672 129.718,49.242 136.15,49.242 139.367,43.672 136.15,38.102 "/>
<polygon fill="#232527" points="153.34,38.102 150.125,43.672 153.34,49.242 159.773,49.242 162.988,43.672 159.773,38.102 "/>
<polygon fill="#232527" points="176.962,38.102 173.747,43.672 176.962,49.242 183.395,49.242 186.61,43.672 183.395,38.102 "/>
<polygon fill="#232527" points="200.584,38.102 197.368,43.672 200.584,49.242 207.017,49.242 210.232,43.672 207.017,38.102 "/>
<polygon fill="#232527" points="224.207,38.102 220.99,43.672 224.207,49.242 230.639,49.242 233.855,43.672 230.639,38.102 "/>
<polygon fill="#232527" points="247.83,38.102 244.612,43.672 247.83,49.242 254.261,49.242 257.477,43.672 254.261,38.102 "/>
<polygon fill="#232527" points="271.451,38.102 268.235,43.672 271.451,49.242 277.883,49.242 281.099,43.672 277.883,38.102 "/>
<polygon fill="#232527" points="295.074,38.102 291.857,43.672 295.074,49.242 301.505,49.242 304.721,43.672 301.505,38.102 "/>
<polygon fill="#232527" points="318.695,38.102 315.48,43.672 318.695,49.242 325.127,49.242 328.343,43.672 325.127,38.102 "/>
<polygon fill="#232527" points="342.318,38.102 339.102,43.672 342.318,49.242 348.75,49.242 351.965,43.672 348.75,38.102 "/>
<polygon fill="#232527" points="365.94,38.102 362.724,43.672 365.94,49.242 372.372,49.242 375.588,43.672 372.372,38.102 "/>
<polygon fill="#232527" points="389.562,38.102 386.346,43.672 389.562,49.242 395.993,49.242 399.209,43.672 395.993,38.102 "/>
<polygon fill="#232527" points="94.316,55.609 91.1,50.039 94.316,44.469 100.749,44.469 103.964,50.039 100.749,55.609 "/>
<polygon fill="#232527" points="82.505,52.186 79.29,57.756 82.505,63.326 88.937,63.326 92.153,57.756 88.937,52.186 "/>
<polygon fill="#232527" points="117.907,55.609 114.69,50.039 117.907,44.469 124.339,44.469 127.555,50.039 124.339,55.609 "/>
<polygon fill="#232527" points="141.529,55.609 138.313,50.039 141.529,44.469 147.961,44.469 151.177,50.039 147.961,55.609 "/>
<polygon fill="#232527" points="165.152,55.609 161.936,50.039 165.152,44.469 171.583,44.469 174.799,50.039 171.583,55.609 "/>
<polygon fill="#232527" points="188.774,55.609 185.558,50.039 188.774,44.469 195.206,44.469 198.421,50.039 195.206,55.609 "/>
<polygon fill="#232527" points="212.396,55.609 209.18,50.039 212.396,44.469 218.828,44.469 222.043,50.039 218.828,55.609 "/>
<polygon fill="#232527" points="236.018,55.609 232.802,50.039 236.018,44.469 242.449,44.469 245.667,50.039 242.449,55.609 "/>
<polygon fill="#232527" points="259.64,55.609 256.424,50.039 259.64,44.469 266.072,44.469 269.289,50.039 266.072,55.609 "/>
<polygon fill="#232527" points="283.262,55.609 280.046,50.039 283.262,44.469 289.694,44.469 292.911,50.039 289.694,55.609 "/>
<polygon fill="#232527" points="306.884,55.609 303.668,50.039 306.884,44.469 313.316,44.469 316.532,50.039 313.316,55.609 "/>
<polygon fill="#232527" points="330.506,55.609 327.291,50.039 330.506,44.469 336.939,44.469 340.154,50.039 336.939,55.609 "/>
<polygon fill="#232527" points="354.128,55.609 350.913,50.039 354.128,44.469 360.561,44.469 363.777,50.039 360.561,55.609 "/>
<polygon fill="#232527" points="377.75,55.609 374.534,50.039 377.75,44.469 384.183,44.469 387.399,50.039 384.183,55.609 "/>
<polygon fill="#232527" points="106.096,52.186 102.88,57.756 106.096,63.326 112.527,63.326 115.745,57.756 112.527,52.186 "/>
<polygon fill="#232527" points="129.718,52.186 126.502,57.756 129.718,63.326 136.15,63.326 139.367,57.756 136.15,52.186 "/>
<polygon fill="#232527" points="153.34,52.186 150.125,57.756 153.34,63.326 159.773,63.326 162.988,57.756 159.773,52.186 "/>
<polygon fill="#232527" points="176.962,52.186 173.747,57.756 176.962,63.326 183.395,63.326 186.61,57.756 183.395,52.186 "/>
<polygon fill="#232527" points="200.584,52.186 197.368,57.756 200.584,63.326 207.017,63.326 210.232,57.756 207.017,52.186 "/>
<polygon fill="#232527" points="224.207,52.186 220.99,57.756 224.207,63.326 230.639,63.326 233.855,57.756 230.639,52.186 "/>
<polygon fill="#232527" points="247.83,52.186 244.612,57.756 247.83,63.326 254.261,63.326 257.477,57.756 254.261,52.186 "/>
<polygon fill="#232527" points="271.451,52.186 268.235,57.756 271.451,63.326 277.883,63.326 281.099,57.756 277.883,52.186 "/>
<polygon fill="#232527" points="295.074,52.186 291.857,57.756 295.074,63.326 301.505,63.326 304.721,57.756 301.505,52.186 "/>
<polygon fill="#232527" points="318.695,52.186 315.48,57.756 318.695,63.326 325.127,63.326 328.343,57.756 325.127,52.186 "/>
<polygon fill="#232527" points="342.318,52.186 339.102,57.756 342.318,63.326 348.75,63.326 351.965,57.756 348.75,52.186 "/>
<polygon fill="#232527" points="365.94,52.186 362.724,57.756 365.94,63.326 372.372,63.326 375.588,57.756 372.372,52.186 "/>
<polygon fill="#232527" points="389.562,52.186 386.346,57.756 389.562,63.326 395.993,63.326 399.209,57.756 395.993,52.186 "/>
<polygon fill="#232527" points="94.316,68.916 91.1,63.346 94.316,57.775 100.749,57.775 103.964,63.346 100.749,68.916 "/>
<polygon fill="#232527" points="82.505,65.492 79.29,71.063 82.505,76.633 88.937,76.633 92.153,71.063 88.937,65.492 "/>
<polygon fill="#232527" points="117.907,68.916 114.69,63.346 117.907,57.775 124.339,57.775 127.555,63.346 124.339,68.916 "/>
<polygon fill="#232527" points="141.529,68.916 138.313,63.346 141.529,57.775 147.961,57.775 151.177,63.346 147.961,68.916 "/>
<polygon fill="#232527" points="165.152,68.916 161.936,63.346 165.152,57.775 171.583,57.775 174.799,63.346 171.583,68.916 "/>
<polygon fill="#232527" points="188.774,68.916 185.558,63.346 188.774,57.775 195.206,57.775 198.421,63.346 195.206,68.916 "/>
<polygon fill="#232527" points="212.396,68.916 209.18,63.346 212.396,57.775 218.828,57.775 222.043,63.346 218.828,68.916 "/>
<polygon fill="#232527" points="236.018,68.916 232.802,63.346 236.018,57.775 242.449,57.775 245.667,63.346 242.449,68.916 "/>
<polygon fill="#232527" points="259.64,68.916 256.424,63.346 259.64,57.775 266.072,57.775 269.289,63.346 266.072,68.916 "/>
<polygon fill="#232527" points="283.262,68.916 280.046,63.346 283.262,57.775 289.694,57.775 292.911,63.346 289.694,68.916 "/>
<polygon fill="#232527" points="306.884,68.916 303.668,63.346 306.884,57.775 313.316,57.775 316.532,63.346 313.316,68.916 "/>
<polygon fill="#232527" points="330.506,68.916 327.291,63.346 330.506,57.775 336.939,57.775 340.154,63.346 336.939,68.916 "/>
<polygon fill="#232527" points="354.128,68.916 350.913,63.346 354.128,57.775 360.561,57.775 363.777,63.346 360.561,68.916 "/>
<polygon fill="#232527" points="377.75,68.916 374.534,63.346 377.75,57.775 384.183,57.775 387.399,63.346 384.183,68.916 "/>
<polygon fill="#232527" points="106.096,65.492 102.88,71.063 106.096,76.633 112.527,76.633 115.745,71.063 112.527,65.492 "/>
<polygon fill="#232527" points="129.718,65.492 126.502,71.063 129.718,76.633 136.15,76.633 139.367,71.063 136.15,65.492 "/>
<polygon fill="#232527" points="153.34,65.492 150.125,71.063 153.34,76.633 159.773,76.633 162.988,71.063 159.773,65.492 "/>
<polygon fill="#232527" points="176.962,65.492 173.747,71.063 176.962,76.633 183.395,76.633 186.61,71.063 183.395,65.492 "/>
<polygon fill="#232527" points="200.584,65.492 197.368,71.063 200.584,76.633 207.017,76.633 210.232,71.063 207.017,65.492 "/>
<polygon fill="#232527" points="224.207,65.492 220.99,71.063 224.207,76.633 230.639,76.633 233.855,71.063 230.639,65.492 "/>
<polygon fill="#232527" points="247.83,65.492 244.612,71.063 247.83,76.633 254.261,76.633 257.477,71.063 254.261,65.492 "/>
<polygon fill="#232527" points="271.451,65.492 268.235,71.063 271.451,76.633 277.883,76.633 281.099,71.063 277.883,65.492 "/>
<polygon fill="#232527" points="295.074,65.492 291.857,71.063 295.074,76.633 301.505,76.633 304.721,71.063 301.505,65.492 "/>
<polygon fill="#232527" points="318.695,65.492 315.48,71.063 318.695,76.633 325.127,76.633 328.343,71.063 325.127,65.492 "/>
<polygon fill="#232527" points="342.318,65.492 339.102,71.063 342.318,76.633 348.75,76.633 351.965,71.063 348.75,65.492 "/>
<polygon fill="#232527" points="365.94,65.492 362.724,71.063 365.94,76.633 372.372,76.633 375.588,71.063 372.372,65.492 "/>
<polygon fill="#232527" points="389.562,65.492 386.346,71.063 389.562,76.633 395.993,76.633 399.209,71.063 395.993,65.492 "/>
<polygon fill="#232527" points="94.316,83 91.1,77.43 94.316,71.859 100.749,71.859 103.964,77.43 100.749,83 "/>
<polygon fill="#232527" points="117.907,83 114.69,77.43 117.907,71.859 124.339,71.859 127.555,77.43 124.339,83 "/>
<polygon fill="#232527" points="141.529,83 138.313,77.43 141.529,71.859 147.961,71.859 151.177,77.43 147.961,83 "/>
<polygon fill="#232527" points="165.152,83 161.936,77.43 165.152,71.859 171.583,71.859 174.799,77.43 171.583,83 "/>
<polygon fill="#232527" points="188.774,83 185.558,77.43 188.774,71.859 195.206,71.859 198.421,77.43 195.206,83 "/>
<polygon fill="#232527" points="212.396,83 209.18,77.43 212.396,71.859 218.828,71.859 222.043,77.43 218.828,83 "/>
<polygon fill="#232527" points="236.018,83 232.802,77.43 236.018,71.859 242.449,71.859 245.667,77.43 242.449,83 "/>
<polygon fill="#232527" points="259.64,83 256.424,77.43 259.64,71.859 266.072,71.859 269.289,77.43 266.072,83 "/>
<polygon fill="#232527" points="283.262,83 280.046,77.43 283.262,71.859 289.694,71.859 292.911,77.43 289.694,83 "/>
<polygon fill="#232527" points="306.884,83 303.668,77.43 306.884,71.859 313.316,71.859 316.532,77.43 313.316,83 "/>
<polygon fill="#232527" points="330.506,83 327.291,77.43 330.506,71.859 336.939,71.859 340.154,77.43 336.939,83 "/>
<polygon fill="#232527" points="354.128,83 350.913,77.43 354.128,71.859 360.561,71.859 363.777,77.43 360.561,83 "/>
<polygon fill="#232527" points="377.75,83 374.534,77.43 377.75,71.859 384.183,71.859 387.399,77.43 384.183,83 "/>
<path fill="#232426" d="M272.065,181.582c0,0.613-0.406,1.107-0.905,1.107H82.183c-0.5,0-0.906-0.494-0.906-1.107v-28.428
	c0-0.613,0.406-1.107,0.906-1.107H271.16c0.5,0,0.905,0.494,0.905,1.107V181.582z"/>
<path fill="#232426" d="M394.592,181.582c0,0.613-0.262,1.107-0.584,1.107H271.941c-0.323,0-0.585-0.494-0.585-1.107v-28.428
	c0-0.613,0.263-1.107,0.585-1.107h122.066c0.323,0,0.584,0.494,0.584,1.107V181.582z"/>
<rect x="82.607" y="155.572" fill="#3D3D3F" width="167.731" height="23.594"/>
<rect x="251.123" y="155.572" fill="#C5D4ED" width="19.471" height="22.844"/>
<path fill="#1C1D20" d="M113.103,166.994c0,3.025-2.372,5.48-5.299,5.48c-2.927,0-5.299-2.455-5.299-5.48
	c0-3.027,2.372-5.48,5.299-5.48C110.731,161.514,113.103,163.967,113.103,166.994"/>
<path fill="#EFEEEE" d="M112.338,166.994c0,2.59-2.03,4.689-4.535,4.689s-4.535-2.1-4.535-4.689s2.03-4.689,4.535-4.689
	S112.338,164.404,112.338,166.994"/>
<path fill="none" stroke="#CBCCCD" stroke-miterlimit="10" d="M107.014,164.955c-0.784,0.324-1.337,1.113-1.337,2.039
	c0,1.215,0.953,2.199,2.127,2.199c1.175,0,2.127-0.984,2.127-2.199c0-0.926-0.554-1.715-1.337-2.039"/>
<rect x="107.366" y="163.607" fill="#CBCCCD" width="0.874" height="2.811"/>
<path fill="#3D3D3F" d="M103.216,175.031c-2.304-2.004-3.626-4.934-3.626-8.037c0-3.105,1.322-6.035,3.626-8.037l0.915,1.125
	c-1.984,1.723-3.12,4.242-3.12,6.912s1.136,5.189,3.12,6.912L103.216,175.031z"/>
<path fill="none" stroke="#353537" stroke-miterlimit="10" d="M100.946,173.766c-2.305-1.688-3.626-4.156-3.626-6.771
	c0-2.617,1.321-5.086,3.626-6.773l0.914,0.947c-1.982,1.453-3.119,3.576-3.119,5.826c0,2.248,1.137,4.371,3.119,5.824
	L100.946,173.766z"/>
<path fill="none" stroke="#353537" stroke-miterlimit="10" d="M115.076,173.766c2.304-1.688,3.626-4.156,3.626-6.771
	c0-2.617-1.322-5.086-3.626-6.773l-0.915,0.947c1.983,1.453,3.121,3.576,3.121,5.826c0,2.248-1.138,4.371-3.121,5.824
	L115.076,173.766z"/>
<polyline fill="none" stroke="#FFFFFF" stroke-miterlimit="10" points="123.37,161.891 123.37,159.238 176.199,159.238 
	176.199,161.891 "/>
<polyline fill="none" stroke="#FFFFFF" stroke-miterlimit="10" points="123.37,172.115 123.37,174.768 176.199,174.768 
	176.199,172.115 "/>
<line fill="none" stroke="#FFFFFF" stroke-miterlimit="10" x1="127.218" y1="161.695" x2="127.218" y2="172.543"/>
<line fill="none" stroke="#FFFFFF" stroke-miterlimit="10" x1="125.03" y1="167.119" x2="127.218" y2="167.119"/>
<rect x="122.937" y="165.871" fill="#FFFFFF" width="2.792" height="2.557"/>
<rect x="128.276" y="161.695" fill="#FFFFFF" width="2.792" height="2.557"/>
<rect x="128.276" y="169.988" fill="#FFFFFF" width="2.792" height="2.555"/>
<rect x="182.085" y="161.219" fill="#848484" width="11.472" height="11.861"/>
<line fill="none" stroke="#FFFFFF" stroke-miterlimit="10" x1="127.468" y1="162.973" x2="128.827" y2="162.973"/>
<line fill="none" stroke="#FFFFFF" stroke-miterlimit="10" x1="127.468" y1="171.266" x2="128.827" y2="171.266"/>
<path fill="#232426" d="M1223.997,251.977h50.971V104.102h-50.971V251.977z M1263.276,146.654c0,5.314-4.346,9.662-9.66,9.662
	h-8.268c-5.314,0-9.662-4.348-9.662-9.662v-0.623c0-5.313,4.348-9.66,9.662-9.66h8.268c5.314,0,9.66,4.348,9.66,9.66V146.654z"/>
<path fill="#313133" d="M1228.468,163.025v36.951h42.029v-37.443c-5.293,3.898-12.904,6.342-21.361,6.342
	C1241.038,168.875,1233.722,166.635,1228.468,163.025"/>
<path fill="#2B2B2D" d="M1228.468,174.264v36.951h42.029v-37.441c-5.293,3.896-12.904,6.34-21.361,6.34
	C1241.038,180.113,1233.722,177.873,1228.468,174.264"/>
<path fill="#97A5C4" d="M1228.468,157.877v5.148c5.254,3.607,12.57,5.85,20.668,5.85c8.457,0,16.068-2.445,21.361-6.34v-5.15
	c-5.293,3.896-12.904,6.342-21.361,6.342C1241.038,163.727,1233.722,161.486,1228.468,157.877"/>
<path fill="#4A494B" d="M1227.765,176.643h-3.768v75.334h50.971v-75.334h-3.217c-6.051,3.967-13.686,6.34-21.992,6.34
	S1233.817,180.609,1227.765,176.643"/>
<g>
	<rect x="1210.981" y="8.893" fill-rule="evenodd" clip-rule="evenodd" fill="#1C1D20" width="64.607" height="67.613"/>
	<rect x="1212.817" y="8.893" fill-rule="evenodd" clip-rule="evenodd" fill="#4A494B" width="61.854" height="65.775"/>
	<path fill-rule="evenodd" clip-rule="evenodd" fill="#FFFFFF" d="M1235.853,49.602h4.186h4.744
		c-0.086,0.498-0.234,0.986-0.447,1.441h-15.77v-1.441H1235.853z M1239.747,48.176l-0.293-1.443h5.133
		c0.146,0.467,0.238,0.953,0.27,1.443H1239.747z M1235.853,48.176h-4.363v-1.443h4.363V48.176z M1231.491,45.289v-1.443h10.922
		c0.605,0.379,1.1,0.875,1.482,1.443H1231.491z M1231.491,42.422v-1.443h4.361h3.602h4.539c-0.391,0.576-0.906,1.074-1.549,1.443
		H1231.491z M1231.491,38.092h4.363v1.443h-4.363V38.092z M1228.565,36.666v-1.443h15.729c0.23,0.457,0.396,0.943,0.498,1.443
		H1228.565z M1244.907,38.092c-0.018,0.49-0.096,0.977-0.234,1.443h-4.928l0.293-1.443H1244.907z M1253.663,45.289h-4.238v-1.443
		h4.238V45.289z M1249.425,42.422v-1.443h8.445l0.553,1.443H1249.425z M1249.425,39.535v-1.443h7.338l0.553,1.443H1249.425z
		 M1246.45,36.666v-1.443h9.213l0.553,1.443H1246.45z M1258.433,42.422l0.566-1.443h8.205v1.443H1258.433z M1259.563,39.535
		l0.563-1.443h7.078v1.443H1259.563z M1260.683,36.666l0.564-1.443h9.033v1.443H1260.683z M1267.204,45.289h-4.061v-1.443h4.061
		V45.289z M1261.911,43.846l-0.5,1.443h-6.164l-0.523-1.443H1261.911z M1253.663,48.176h-4.238v-1.443h4.238V48.176z
		 M1267.204,48.176h-4.061v-1.443h4.061V48.176z M1260.913,46.732l-0.5,1.443h-4.117l-0.523-1.443H1260.913z M1253.663,51.043
		h-7.213v-1.441h7.213V51.043z M1270.28,51.043h-7.137v-1.441h7.137V51.043z M1259.921,49.602l-0.5,1.441h-2.084l-0.523-1.441
		H1259.921z M1253.663,53.986h-7.213v-1.5h7.213V53.986z M1270.28,53.986h-7.137v-1.5h7.137V53.986z M1258.921,52.486l-0.52,1.5
		l-0.543-1.5H1258.921z M1246.45,33.781v-1.408h8.119l0.539,1.408H1246.45z M1261.812,33.781l0.551-1.408h7.918v1.408H1261.812z
		 M1228.565,32.373v1.408h14.652c-0.912-0.855-2.191-1.408-3.834-1.408H1228.565z M1228.565,52.486v1.5h10.818
		c1.729-0.008,3.039-0.598,3.943-1.5H1228.565z M1216.472,32.373h10.037v1.408h-10.037V32.373z M1226.509,36.666h-10.037v-1.441
		h10.037V36.666z M1223.583,39.535h-4.262v-1.443h4.262V39.535z M1223.583,42.422h-4.262v-1.443h4.262V42.422z M1223.583,45.289
		h-4.262v-1.443h4.262V45.289z M1223.583,48.176h-4.262v-1.443h4.262V48.176z M1226.509,51.043h-10.037v-1.441h10.037V51.043z
		 M1226.509,53.986h-10.037v-1.5h10.037V53.986z"/>
</g>
<g>
	<rect x="1010.591" y="20.463" fill="#3D3D3F" width="197.852" height="210.334"/>
	<polygon fill="#232527" points="1028.776,50.479 1024.896,57.199 1028.776,63.922 1036.538,63.922 1040.419,57.199 
		1036.538,50.479 	"/>
	<polygon fill="#232527" points="1028.776,67.473 1024.896,74.195 1028.776,80.916 1036.538,80.916 1040.419,74.195 
		1036.538,67.473 	"/>
	<polygon fill="#232527" points="1028.776,83.506 1024.896,90.227 1028.776,96.947 1036.538,96.947 1040.419,90.227 
		1036.538,83.506 	"/>
	<polygon fill="#232527" points="1028.776,100.5 1024.896,107.221 1028.776,113.941 1036.538,113.941 1040.419,107.221 
		1036.538,100.5 	"/>
	<polygon fill="#232527" points="1028.776,116.557 1024.896,123.279 1028.776,130 1036.538,130 1040.419,123.279 1036.538,116.557 	
		"/>
	<polygon fill="#232527" points="1028.776,133.551 1024.896,140.271 1028.776,146.992 1036.538,146.992 1040.419,140.271 
		1036.538,133.551 	"/>
	<polygon fill="#232527" points="1028.776,149.582 1024.896,156.305 1028.776,163.025 1036.538,163.025 1040.419,156.305 
		1036.538,149.582 	"/>
	<polygon fill="#232527" points="1028.776,166.576 1024.896,173.299 1028.776,180.02 1036.538,180.02 1040.419,173.299 
		1036.538,166.576 	"/>
	<polygon fill="#232527" points="1028.776,182.967 1024.896,189.688 1028.776,196.408 1036.538,196.408 1040.419,189.688 
		1036.538,182.967 	"/>
	<polygon fill="#232527" points="1028.776,199.961 1024.896,206.682 1028.776,213.402 1036.538,213.402 1040.419,206.682 
		1036.538,199.961 	"/>
	<polygon fill="#232527" points="1059.267,50.479 1055.386,57.199 1059.267,63.922 1067.028,63.922 1070.907,57.199 
		1067.028,50.479 	"/>
	<polygon fill="#232527" points="1059.267,67.473 1055.386,74.195 1059.267,80.916 1067.028,80.916 1070.907,74.195 
		1067.028,67.473 	"/>
	<polygon fill="#232527" points="1059.267,83.506 1055.386,90.227 1059.267,96.947 1067.028,96.947 1070.907,90.227 
		1067.028,83.506 	"/>
	<polygon fill="#232527" points="1059.267,100.5 1055.386,107.221 1059.267,113.941 1067.028,113.941 1070.907,107.221 
		1067.028,100.5 	"/>
	<polygon fill="#232527" points="1090.31,50.479 1086.431,57.199 1090.31,63.922 1098.071,63.922 1101.952,57.199 1098.071,50.479 	
		"/>
	<polygon fill="#232527" points="1090.31,67.473 1086.431,74.195 1090.31,80.916 1098.071,80.916 1101.952,74.195 1098.071,67.473 	
		"/>
	<polygon fill="#232527" points="1090.31,83.506 1086.431,90.227 1090.31,96.947 1098.071,96.947 1101.952,90.227 1098.071,83.506 	
		"/>
	<polygon fill="#232527" points="1090.31,100.5 1086.431,107.221 1090.31,113.941 1098.071,113.941 1101.952,107.221 
		1098.071,100.5 	"/>
	<polygon fill="#232527" points="1090.31,117.168 1086.431,123.889 1090.31,130.611 1098.071,130.611 1101.952,123.889 
		1098.071,117.168 	"/>
	<polygon fill="#232527" points="1090.31,132.959 1086.431,139.68 1090.31,146.402 1098.071,146.402 1101.952,139.68 
		1098.071,132.959 	"/>
	<polygon fill="#232527" points="1121.354,50.479 1117.474,57.199 1121.354,63.922 1129.116,63.922 1132.995,57.199 
		1129.116,50.479 	"/>
	<polygon fill="#232527" points="1121.354,67.473 1117.474,74.195 1121.354,80.916 1129.116,80.916 1132.995,74.195 
		1129.116,67.473 	"/>
	<polygon fill="#232527" points="1121.354,83.506 1117.474,90.227 1121.354,96.947 1129.116,96.947 1132.995,90.227 
		1129.116,83.506 	"/>
	<polygon fill="#232527" points="1121.354,100.5 1117.474,107.221 1121.354,113.941 1129.116,113.941 1132.995,107.221 
		1129.116,100.5 	"/>
	<polygon fill="#232527" points="1121.354,117.168 1117.474,123.889 1121.354,130.611 1129.116,130.611 1132.995,123.889 
		1129.116,117.168 	"/>
	<polygon fill="#232527" points="1121.354,133.551 1117.474,140.271 1121.354,146.992 1129.116,146.992 1132.995,140.271 
		1129.116,133.551 	"/>
	<polygon fill="#232527" points="1059.267,116.557 1055.386,123.279 1059.267,130 1067.028,130 1070.907,123.279 1067.028,116.557 	
		"/>
	<polygon fill="#232527" points="1059.267,133.551 1055.386,140.271 1059.267,146.992 1067.028,146.992 1070.907,140.271 
		1067.028,133.551 	"/>
	<polygon fill="#232527" points="1059.267,149.582 1055.386,156.305 1059.267,163.025 1067.028,163.025 1070.907,156.305 
		1067.028,149.582 	"/>
	<polygon fill="#232527" points="1059.267,166.576 1055.386,173.299 1059.267,180.02 1067.028,180.02 1070.907,173.299 
		1067.028,166.576 	"/>
	<polygon fill="#232527" points="1059.267,182.967 1055.386,189.688 1059.267,196.408 1067.028,196.408 1070.907,189.688 
		1067.028,182.967 	"/>
	<polygon fill="#232527" points="1059.267,199.961 1055.386,206.682 1059.267,213.402 1067.028,213.402 1070.907,206.682 
		1067.028,199.961 	"/>
	<polygon fill="#232527" points="1043.745,58.811 1039.864,65.531 1043.745,72.252 1051.507,72.252 1055.386,65.531 
		1051.507,58.811 	"/>
	<polygon fill="#232527" points="1043.745,75.805 1039.864,82.525 1043.745,89.246 1051.507,89.246 1055.386,82.525 
		1051.507,75.805 	"/>
	<polygon fill="#232527" points="1043.745,91.836 1039.864,98.557 1043.745,105.279 1051.507,105.279 1055.386,98.557 
		1051.507,91.836 	"/>
	<polygon fill="#232527" points="1043.745,108.83 1039.864,115.551 1043.745,122.273 1051.507,122.273 1055.386,115.551 
		1051.507,108.83 	"/>
	<polygon fill="#232527" points="1043.745,124.887 1039.864,131.609 1043.745,138.33 1051.507,138.33 1055.386,131.609 
		1051.507,124.887 	"/>
	<polygon fill="#232527" points="1074.788,58.811 1070.907,65.531 1074.788,72.252 1082.55,72.252 1086.431,65.531 1082.55,58.811 	
		"/>
	<polygon fill="#232527" points="1074.788,75.805 1070.907,82.525 1074.788,89.246 1082.55,89.246 1086.431,82.525 1082.55,75.805 	
		"/>
	<polygon fill="#232527" points="1074.788,91.836 1070.907,98.557 1074.788,105.279 1082.55,105.279 1086.431,98.557 
		1082.55,91.836 	"/>
	<polygon fill="#232527" points="1074.788,108.83 1070.907,115.551 1074.788,122.273 1082.55,122.273 1086.431,115.551 
		1082.55,108.83 	"/>
	<polygon fill="#232527" points="1105.831,58.811 1101.952,65.531 1105.831,72.252 1113.593,72.252 1117.474,65.531 
		1113.593,58.811 	"/>
	<polygon fill="#232527" points="1105.831,75.805 1101.952,82.525 1105.831,89.246 1113.593,89.246 1117.474,82.525 
		1113.593,75.805 	"/>
	<polygon fill="#232527" points="1105.831,91.836 1101.952,98.557 1105.831,105.279 1113.593,105.279 1117.474,98.557 
		1113.593,91.836 	"/>
	<polygon fill="#232527" points="1105.831,124.889 1101.952,131.609 1105.831,138.33 1113.593,138.33 1117.474,131.609 
		1113.593,124.889 	"/>
	<polygon fill="#232527" points="1105.831,108.83 1101.952,115.551 1105.831,122.273 1113.593,122.273 1117.474,115.551 
		1113.593,108.83 	"/>
	<polygon fill="#232527" points="1074.788,124.887 1070.907,131.609 1074.788,138.33 1082.55,138.33 1086.431,131.609 
		1082.55,124.887 	"/>
	<polygon fill="#232527" points="1043.745,141.881 1039.864,148.602 1043.745,155.324 1051.507,155.324 1055.386,148.602 
		1051.507,141.881 	"/>
	<polygon fill="#232527" points="1043.745,157.914 1039.864,164.635 1043.745,171.357 1051.507,171.357 1055.386,164.635 
		1051.507,157.914 	"/>
	<polygon fill="#232527" points="1043.745,174.908 1039.864,181.629 1043.745,188.35 1051.507,188.35 1055.386,181.629 
		1051.507,174.908 	"/>
	<polygon fill="#232527" points="1043.745,191.297 1039.864,198.018 1043.745,204.738 1051.507,204.738 1055.386,198.018 
		1051.507,191.297 	"/>
	<polygon fill="#232527" points="1152.397,50.479 1148.517,57.199 1152.397,63.922 1160.159,63.922 1164.04,57.199 1160.159,50.479 
			"/>
	<polygon fill="#232527" points="1152.397,67.473 1148.517,74.195 1152.397,80.916 1160.159,80.916 1164.04,74.195 1160.159,67.473 
			"/>
	<polygon fill="#232527" points="1152.397,83.506 1148.517,90.227 1152.397,96.947 1160.159,96.947 1164.04,90.227 1160.159,83.506 
			"/>
	<polygon fill="#232527" points="1152.397,100.5 1148.517,107.221 1152.397,113.941 1160.159,113.941 1164.04,107.221 
		1160.159,100.5 	"/>
	<polygon fill="#232527" points="1152.397,116.557 1148.517,123.279 1152.397,130 1160.159,130 1164.04,123.279 1160.159,116.557 	
		"/>
	<polygon fill="#232527" points="1152.397,133.551 1148.517,140.271 1152.397,146.992 1160.159,146.992 1164.04,140.271 
		1160.159,133.551 	"/>
	<polygon fill="#232527" points="1152.397,149.582 1148.517,156.305 1152.397,163.025 1160.159,163.025 1164.04,156.305 
		1160.159,149.582 	"/>
	<polygon fill="#232527" points="1152.397,166.576 1148.517,173.299 1152.397,180.02 1160.159,180.02 1164.04,173.299 
		1160.159,166.576 	"/>
	<polygon fill="#232527" points="1152.397,182.967 1148.517,189.688 1152.397,196.408 1160.159,196.408 1164.04,189.688 
		1160.159,182.967 	"/>
	<polygon fill="#232527" points="1152.397,199.961 1148.517,206.682 1152.397,213.402 1160.159,213.402 1164.04,206.682 
		1160.159,199.961 	"/>
	<polygon fill="#232527" points="1136.876,58.811 1132.995,65.531 1136.876,72.252 1144.638,72.252 1148.517,65.531 
		1144.638,58.811 	"/>
	<polygon fill="#232527" points="1136.876,75.805 1132.995,82.525 1136.876,89.246 1144.638,89.246 1148.517,82.525 
		1144.638,75.805 	"/>
	<polygon fill="#232527" points="1136.876,91.836 1132.995,98.557 1136.876,105.279 1144.638,105.279 1148.517,98.557 
		1144.638,91.836 	"/>
	<polygon fill="#232527" points="1136.876,108.83 1132.995,115.551 1136.876,122.273 1144.638,122.273 1148.517,115.551 
		1144.638,108.83 	"/>
	<polygon fill="#232527" points="1136.876,124.887 1132.995,131.609 1136.876,138.33 1144.638,138.33 1148.517,131.609 
		1144.638,124.887 	"/>
	<polygon fill="#232527" points="1183.44,50.479 1179.562,57.199 1183.44,63.922 1191.202,63.922 1195.083,57.199 1191.202,50.479 	
		"/>
	<polygon fill="#232527" points="1028.776,33.861 1024.896,40.582 1028.776,47.305 1036.538,47.305 1040.419,40.582 
		1036.538,33.861 	"/>
	<polygon fill="#232527" points="1059.267,33.861 1055.386,40.582 1059.267,47.305 1067.028,47.305 1070.907,40.582 
		1067.028,33.861 	"/>
	<polygon fill="#232527" points="1090.31,33.861 1086.431,40.582 1090.31,47.305 1098.071,47.305 1101.952,40.582 1098.071,33.861 	
		"/>
	<polygon fill="#232527" points="1121.354,33.861 1117.474,40.582 1121.354,47.305 1129.116,47.305 1132.995,40.582 
		1129.116,33.861 	"/>
	<polygon fill="#232527" points="1152.397,33.861 1148.517,40.582 1152.397,47.305 1160.159,47.305 1164.04,40.582 1160.159,33.861 
			"/>
	<polygon fill="#232527" points="1183.44,33.861 1179.562,40.582 1183.44,47.305 1191.202,47.305 1195.083,40.582 1191.202,33.861 	
		"/>
	<polygon fill="#232527" points="1183.44,67.473 1179.562,74.195 1183.44,80.916 1191.202,80.916 1195.083,74.195 1191.202,67.473 	
		"/>
	<polygon fill="#232527" points="1183.44,83.506 1179.562,90.227 1183.44,96.947 1191.202,96.947 1195.083,90.227 1191.202,83.506 	
		"/>
	<polygon fill="#232527" points="1183.44,100.5 1179.562,107.221 1183.44,113.941 1191.202,113.941 1195.083,107.221 
		1191.202,100.5 	"/>
	<polygon fill="#232527" points="1183.44,116.557 1179.562,123.279 1183.44,130 1191.202,130 1195.083,123.279 1191.202,116.557 	
		"/>
	<polygon fill="#232527" points="1183.44,133.551 1179.562,140.271 1183.44,146.992 1191.202,146.992 1195.083,140.271 
		1191.202,133.551 	"/>
	<polygon fill="#232527" points="1183.44,149.582 1179.562,156.305 1183.44,163.025 1191.202,163.025 1195.083,156.305 
		1191.202,149.582 	"/>
	<polygon fill="#232527" points="1183.44,166.576 1179.562,173.299 1183.44,180.02 1191.202,180.02 1195.083,173.299 
		1191.202,166.576 	"/>
	<polygon fill="#232527" points="1183.44,182.967 1179.562,189.688 1183.44,196.408 1191.202,196.408 1195.083,189.688 
		1191.202,182.967 	"/>
	<polygon fill="#232527" points="1183.44,199.961 1179.562,206.682 1183.44,213.402 1191.202,213.402 1195.083,206.682 
		1191.202,199.961 	"/>
	<polygon fill="#232527" points="1167.919,58.811 1164.04,65.531 1167.919,72.252 1175.681,72.252 1179.562,65.531 1175.681,58.811 
			"/>
	<polygon fill="#232527" points="1043.745,42.699 1039.864,49.42 1043.745,56.141 1051.507,56.141 1055.386,49.42 1051.507,42.699 	
		"/>
	<polygon fill="#232527" points="1074.788,42.699 1070.907,49.42 1074.788,56.141 1082.55,56.141 1086.431,49.42 1082.55,42.699 	
		"/>
	<polygon fill="#232527" points="1105.831,42.699 1101.952,49.42 1105.831,56.141 1113.593,56.141 1117.474,49.42 1113.593,42.699 	
		"/>
	<polygon fill="#232527" points="1136.876,42.699 1132.995,49.42 1136.876,56.141 1144.638,56.141 1148.517,49.42 1144.638,42.699 	
		"/>
	<polygon fill="#232527" points="1167.919,42.699 1164.04,49.42 1167.919,56.141 1175.681,56.141 1179.562,49.42 1175.681,42.699 	
		"/>
	<polygon fill="#232527" points="1167.919,75.805 1164.04,82.525 1167.919,89.246 1175.681,89.246 1179.562,82.525 1175.681,75.805 
			"/>
	<polygon fill="#232527" points="1167.919,91.836 1164.04,98.557 1167.919,105.279 1175.681,105.279 1179.562,98.557 
		1175.681,91.836 	"/>
	<polygon fill="#232527" points="1167.919,108.83 1164.04,115.551 1167.919,122.273 1175.681,122.273 1179.562,115.551 
		1175.681,108.83 	"/>
	<polygon fill="#232527" points="1167.919,124.887 1164.04,131.609 1167.919,138.33 1175.681,138.33 1179.562,131.609 
		1175.681,124.887 	"/>
	<polygon fill="#232527" points="1167.919,141.881 1164.04,148.602 1167.919,155.324 1175.681,155.324 1179.562,148.602 
		1175.681,141.881 	"/>
	<polygon fill="#232527" points="1167.919,157.914 1164.04,164.635 1167.919,171.357 1175.681,171.357 1179.562,164.635 
		1175.681,157.914 	"/>
	<polygon fill="#232527" points="1167.919,174.908 1164.04,181.629 1167.919,188.35 1175.681,188.35 1179.562,181.629 
		1175.681,174.908 	"/>
	<polygon fill="#232527" points="1167.919,191.297 1164.04,198.018 1167.919,204.738 1175.681,204.738 1179.562,198.018 
		1175.681,191.297 	"/>
	<rect x="1074.651" y="152.621" fill="#050101" stroke="#050101" stroke-miterlimit="10" width="70.121" height="65.676"/>
</g>
<g>
	<rect x="810.591" y="20.463" fill="#3D3D3F" width="197.852" height="210.334"/>
	<polygon fill="#232527" points="828.776,50.479 824.896,57.199 828.776,63.922 836.538,63.922 840.419,57.199 836.538,50.479 	"/>
	<polygon fill="#232527" points="828.776,67.473 824.896,74.195 828.776,80.916 836.538,80.916 840.419,74.195 836.538,67.473 	"/>
	<polygon fill="#232527" points="828.776,83.506 824.896,90.227 828.776,96.947 836.538,96.947 840.419,90.227 836.538,83.506 	"/>
	<polygon fill="#232527" points="828.776,100.5 824.896,107.221 828.776,113.941 836.538,113.941 840.419,107.221 836.538,100.5 	
		"/>
	<polygon fill="#232527" points="828.776,116.557 824.896,123.279 828.776,130 836.538,130 840.419,123.279 836.538,116.557 	"/>
	<polygon fill="#232527" points="828.776,133.551 824.896,140.271 828.776,146.992 836.538,146.992 840.419,140.271 
		836.538,133.551 	"/>
	<polygon fill="#232527" points="828.776,149.582 824.896,156.305 828.776,163.025 836.538,163.025 840.419,156.305 
		836.538,149.582 	"/>
	<polygon fill="#232527" points="828.776,166.576 824.896,173.299 828.776,180.02 836.538,180.02 840.419,173.299 836.538,166.576 	
		"/>
	<polygon fill="#232527" points="828.776,182.967 824.896,189.688 828.776,196.408 836.538,196.408 840.419,189.688 
		836.538,182.967 	"/>
	<polygon fill="#232527" points="828.776,199.961 824.896,206.682 828.776,213.402 836.538,213.402 840.419,206.682 
		836.538,199.961 	"/>
	<polygon fill="#232527" points="859.267,50.479 855.386,57.199 859.267,63.922 867.028,63.922 870.907,57.199 867.028,50.479 	"/>
	<polygon fill="#232527" points="859.267,67.473 855.386,74.195 859.267,80.916 867.028,80.916 870.907,74.195 867.028,67.473 	"/>
	<polygon fill="#232527" points="859.267,83.506 855.386,90.227 859.267,96.947 867.028,96.947 870.907,90.227 867.028,83.506 	"/>
	<polygon fill="#232527" points="859.267,100.5 855.386,107.221 859.267,113.941 867.028,113.941 870.907,107.221 867.028,100.5 	
		"/>
	<polygon fill="#232527" points="890.31,50.479 886.431,57.199 890.31,63.922 898.071,63.922 901.952,57.199 898.071,50.479 	"/>
	<polygon fill="#232527" points="890.31,67.473 886.431,74.195 890.31,80.916 898.071,80.916 901.952,74.195 898.071,67.473 	"/>
	<polygon fill="#232527" points="890.31,83.506 886.431,90.227 890.31,96.947 898.071,96.947 901.952,90.227 898.071,83.506 	"/>
	<polygon fill="#232527" points="890.31,100.5 886.431,107.221 890.31,113.941 898.071,113.941 901.952,107.221 898.071,100.5 	"/>
	<polygon fill="#232527" points="890.31,117.168 886.431,123.889 890.31,130.611 898.071,130.611 901.952,123.889 898.071,117.168 	
		"/>
	<polygon fill="#232527" points="890.31,132.959 886.431,139.68 890.31,146.402 898.071,146.402 901.952,139.68 898.071,132.959 	
		"/>
	<polygon fill="#232527" points="921.354,50.479 917.474,57.199 921.354,63.922 929.116,63.922 932.995,57.199 929.116,50.479 	"/>
	<polygon fill="#232527" points="921.354,67.473 917.474,74.195 921.354,80.916 929.116,80.916 932.995,74.195 929.116,67.473 	"/>
	<polygon fill="#232527" points="921.354,83.506 917.474,90.227 921.354,96.947 929.116,96.947 932.995,90.227 929.116,83.506 	"/>
	<polygon fill="#232527" points="921.354,100.5 917.474,107.221 921.354,113.941 929.116,113.941 932.995,107.221 929.116,100.5 	
		"/>
	<polygon fill="#232527" points="921.354,117.168 917.474,123.889 921.354,130.611 929.116,130.611 932.995,123.889 
		929.116,117.168 	"/>
	<polygon fill="#232527" points="921.354,133.551 917.474,140.271 921.354,146.992 929.116,146.992 932.995,140.271 
		929.116,133.551 	"/>
	<polygon fill="#232527" points="859.267,116.557 855.386,123.279 859.267,130 867.028,130 870.907,123.279 867.028,116.557 	"/>
	<polygon fill="#232527" points="859.267,133.551 855.386,140.271 859.267,146.992 867.028,146.992 870.907,140.271 
		867.028,133.551 	"/>
	<polygon fill="#232527" points="859.267,149.582 855.386,156.305 859.267,163.025 867.028,163.025 870.907,156.305 
		867.028,149.582 	"/>
	<polygon fill="#232527" points="859.267,166.576 855.386,173.299 859.267,180.02 867.028,180.02 870.907,173.299 867.028,166.576 	
		"/>
	<polygon fill="#232527" points="859.267,182.967 855.386,189.688 859.267,196.408 867.028,196.408 870.907,189.688 
		867.028,182.967 	"/>
	<polygon fill="#232527" points="859.267,199.961 855.386,206.682 859.267,213.402 867.028,213.402 870.907,206.682 
		867.028,199.961 	"/>
	<polygon fill="#232527" points="843.745,58.811 839.864,65.531 843.745,72.252 851.507,72.252 855.386,65.531 851.507,58.811 	"/>
	<polygon fill="#232527" points="843.745,75.805 839.864,82.525 843.745,89.246 851.507,89.246 855.386,82.525 851.507,75.805 	"/>
	<polygon fill="#232527" points="843.745,91.836 839.864,98.557 843.745,105.279 851.507,105.279 855.386,98.557 851.507,91.836 	
		"/>
	<polygon fill="#232527" points="843.745,108.83 839.864,115.551 843.745,122.273 851.507,122.273 855.386,115.551 851.507,108.83 	
		"/>
	<polygon fill="#232527" points="843.745,124.887 839.864,131.609 843.745,138.33 851.507,138.33 855.386,131.609 851.507,124.887 	
		"/>
	<polygon fill="#232527" points="874.788,58.811 870.907,65.531 874.788,72.252 882.55,72.252 886.431,65.531 882.55,58.811 	"/>
	<polygon fill="#232527" points="874.788,75.805 870.907,82.525 874.788,89.246 882.55,89.246 886.431,82.525 882.55,75.805 	"/>
	<polygon fill="#232527" points="874.788,91.836 870.907,98.557 874.788,105.279 882.55,105.279 886.431,98.557 882.55,91.836 	"/>
	<polygon fill="#232527" points="874.788,108.83 870.907,115.551 874.788,122.273 882.55,122.273 886.431,115.551 882.55,108.83 	
		"/>
	<polygon fill="#232527" points="905.831,58.811 901.952,65.531 905.831,72.252 913.593,72.252 917.474,65.531 913.593,58.811 	"/>
	<polygon fill="#232527" points="905.831,75.805 901.952,82.525 905.831,89.246 913.593,89.246 917.474,82.525 913.593,75.805 	"/>
	<polygon fill="#232527" points="905.831,91.836 901.952,98.557 905.831,105.279 913.593,105.279 917.474,98.557 913.593,91.836 	
		"/>
	<polygon fill="#232527" points="905.831,124.889 901.952,131.609 905.831,138.33 913.593,138.33 917.474,131.609 913.593,124.889 	
		"/>
	<polygon fill="#232527" points="905.831,108.83 901.952,115.551 905.831,122.273 913.593,122.273 917.474,115.551 913.593,108.83 	
		"/>
	<polygon fill="#232527" points="874.788,124.887 870.907,131.609 874.788,138.33 882.55,138.33 886.431,131.609 882.55,124.887 	
		"/>
	<polygon fill="#232527" points="843.745,141.881 839.864,148.602 843.745,155.324 851.507,155.324 855.386,148.602 
		851.507,141.881 	"/>
	<polygon fill="#232527" points="843.745,157.914 839.864,164.635 843.745,171.357 851.507,171.357 855.386,164.635 
		851.507,157.914 	"/>
	<polygon fill="#232527" points="843.745,174.908 839.864,181.629 843.745,188.35 851.507,188.35 855.386,181.629 851.507,174.908 	
		"/>
	<polygon fill="#232527" points="843.745,191.297 839.864,198.018 843.745,204.738 851.507,204.738 855.386,198.018 
		851.507,191.297 	"/>
	<polygon fill="#232527" points="952.397,50.479 948.517,57.199 952.397,63.922 960.159,63.922 964.04,57.199 960.159,50.479 	"/>
	<polygon fill="#232527" points="952.397,67.473 948.517,74.195 952.397,80.916 960.159,80.916 964.04,74.195 960.159,67.473 	"/>
	<polygon fill="#232527" points="952.397,83.506 948.517,90.227 952.397,96.947 960.159,96.947 964.04,90.227 960.159,83.506 	"/>
	<polygon fill="#232527" points="952.397,100.5 948.517,107.221 952.397,113.941 960.159,113.941 964.04,107.221 960.159,100.5 	"/>
	<polygon fill="#232527" points="952.397,116.557 948.517,123.279 952.397,130 960.159,130 964.04,123.279 960.159,116.557 	"/>
	<polygon fill="#232527" points="952.397,133.551 948.517,140.271 952.397,146.992 960.159,146.992 964.04,140.271 960.159,133.551 
			"/>
	<polygon fill="#232527" points="952.397,149.582 948.517,156.305 952.397,163.025 960.159,163.025 964.04,156.305 960.159,149.582 
			"/>
	<polygon fill="#232527" points="952.397,166.576 948.517,173.299 952.397,180.02 960.159,180.02 964.04,173.299 960.159,166.576 	
		"/>
	<polygon fill="#232527" points="952.397,182.967 948.517,189.688 952.397,196.408 960.159,196.408 964.04,189.688 960.159,182.967 
			"/>
	<polygon fill="#232527" points="952.397,199.961 948.517,206.682 952.397,213.402 960.159,213.402 964.04,206.682 960.159,199.961 
			"/>
	<polygon fill="#232527" points="936.876,58.811 932.995,65.531 936.876,72.252 944.638,72.252 948.517,65.531 944.638,58.811 	"/>
	<polygon fill="#232527" points="936.876,75.805 932.995,82.525 936.876,89.246 944.638,89.246 948.517,82.525 944.638,75.805 	"/>
	<polygon fill="#232527" points="936.876,91.836 932.995,98.557 936.876,105.279 944.638,105.279 948.517,98.557 944.638,91.836 	
		"/>
	<polygon fill="#232527" points="936.876,108.83 932.995,115.551 936.876,122.273 944.638,122.273 948.517,115.551 944.638,108.83 	
		"/>
	<polygon fill="#232527" points="936.876,124.887 932.995,131.609 936.876,138.33 944.638,138.33 948.517,131.609 944.638,124.887 	
		"/>
	<polygon fill="#232527" points="983.44,50.479 979.562,57.199 983.44,63.922 991.202,63.922 995.083,57.199 991.202,50.479 	"/>
	<polygon fill="#232527" points="828.776,33.861 824.896,40.582 828.776,47.305 836.538,47.305 840.419,40.582 836.538,33.861 	"/>
	<polygon fill="#232527" points="859.267,33.861 855.386,40.582 859.267,47.305 867.028,47.305 870.907,40.582 867.028,33.861 	"/>
	<polygon fill="#232527" points="890.31,33.861 886.431,40.582 890.31,47.305 898.071,47.305 901.952,40.582 898.071,33.861 	"/>
	<polygon fill="#232527" points="921.354,33.861 917.474,40.582 921.354,47.305 929.116,47.305 932.995,40.582 929.116,33.861 	"/>
	<polygon fill="#232527" points="952.397,33.861 948.517,40.582 952.397,47.305 960.159,47.305 964.04,40.582 960.159,33.861 	"/>
	<polygon fill="#232527" points="983.44,33.861 979.562,40.582 983.44,47.305 991.202,47.305 995.083,40.582 991.202,33.861 	"/>
	<polygon fill="#232527" points="983.44,67.473 979.562,74.195 983.44,80.916 991.202,80.916 995.083,74.195 991.202,67.473 	"/>
	<polygon fill="#232527" points="983.44,83.506 979.562,90.227 983.44,96.947 991.202,96.947 995.083,90.227 991.202,83.506 	"/>
	<polygon fill="#232527" points="983.44,100.5 979.562,107.221 983.44,113.941 991.202,113.941 995.083,107.221 991.202,100.5 	"/>
	<polygon fill="#232527" points="983.44,116.557 979.562,123.279 983.44,130 991.202,130 995.083,123.279 991.202,116.557 	"/>
	<polygon fill="#232527" points="983.44,133.551 979.562,140.271 983.44,146.992 991.202,146.992 995.083,140.271 991.202,133.551 	
		"/>
	<polygon fill="#232527" points="983.44,149.582 979.562,156.305 983.44,163.025 991.202,163.025 995.083,156.305 991.202,149.582 	
		"/>
	<polygon fill="#232527" points="983.44,166.576 979.562,173.299 983.44,180.02 991.202,180.02 995.083,173.299 991.202,166.576 	
		"/>
	<polygon fill="#232527" points="983.44,182.967 979.562,189.688 983.44,196.408 991.202,196.408 995.083,189.688 991.202,182.967 	
		"/>
	<polygon fill="#232527" points="983.44,199.961 979.562,206.682 983.44,213.402 991.202,213.402 995.083,206.682 991.202,199.961 	
		"/>
	<polygon fill="#232527" points="967.919,58.811 964.04,65.531 967.919,72.252 975.681,72.252 979.562,65.531 975.681,58.811 	"/>
	<polygon fill="#232527" points="843.745,42.699 839.864,49.42 843.745,56.141 851.507,56.141 855.386,49.42 851.507,42.699 	"/>
	<polygon fill="#232527" points="874.788,42.699 870.907,49.42 874.788,56.141 882.55,56.141 886.431,49.42 882.55,42.699 	"/>
	<polygon fill="#232527" points="905.831,42.699 901.952,49.42 905.831,56.141 913.593,56.141 917.474,49.42 913.593,42.699 	"/>
	<polygon fill="#232527" points="936.876,42.699 932.995,49.42 936.876,56.141 944.638,56.141 948.517,49.42 944.638,42.699 	"/>
	<polygon fill="#232527" points="967.919,42.699 964.04,49.42 967.919,56.141 975.681,56.141 979.562,49.42 975.681,42.699 	"/>
	<polygon fill="#232527" points="967.919,75.805 964.04,82.525 967.919,89.246 975.681,89.246 979.562,82.525 975.681,75.805 	"/>
	<polygon fill="#232527" points="967.919,91.836 964.04,98.557 967.919,105.279 975.681,105.279 979.562,98.557 975.681,91.836 	"/>
	<polygon fill="#232527" points="967.919,108.83 964.04,115.551 967.919,122.273 975.681,122.273 979.562,115.551 975.681,108.83 	
		"/>
	<polygon fill="#232527" points="967.919,124.887 964.04,131.609 967.919,138.33 975.681,138.33 979.562,131.609 975.681,124.887 	
		"/>
	<polygon fill="#232527" points="967.919,141.881 964.04,148.602 967.919,155.324 975.681,155.324 979.562,148.602 975.681,141.881 
			"/>
	<polygon fill="#232527" points="967.919,157.914 964.04,164.635 967.919,171.357 975.681,171.357 979.562,164.635 975.681,157.914 
			"/>
	<polygon fill="#232527" points="967.919,174.908 964.04,181.629 967.919,188.35 975.681,188.35 979.562,181.629 975.681,174.908 	
		"/>
	<polygon fill="#232527" points="967.919,191.297 964.04,198.018 967.919,204.738 975.681,204.738 979.562,198.018 975.681,191.297 
			"/>
	<rect x="874.651" y="152.621" fill="#050101" stroke="#050101" stroke-miterlimit="10" width="70.121" height="65.676"/>
</g>
<g>
	<rect x="610.298" y="20.463" fill="#3D3D3F" width="197.851" height="210.334"/>
	<polygon fill="#232527" points="628.483,50.479 624.603,57.199 628.483,63.922 636.245,63.922 640.124,57.199 636.245,50.479 	"/>
	<polygon fill="#232527" points="628.483,67.473 624.603,74.195 628.483,80.916 636.245,80.916 640.124,74.195 636.245,67.473 	"/>
	<polygon fill="#232527" points="628.483,83.506 624.603,90.227 628.483,96.947 636.245,96.947 640.124,90.227 636.245,83.506 	"/>
	<polygon fill="#232527" points="628.483,100.5 624.603,107.221 628.483,113.941 636.245,113.941 640.124,107.221 636.245,100.5 	
		"/>
	<polygon fill="#232527" points="628.483,116.557 624.603,123.279 628.483,130 636.245,130 640.124,123.279 636.245,116.557 	"/>
	<polygon fill="#232527" points="628.483,133.551 624.603,140.271 628.483,146.992 636.245,146.992 640.124,140.271 
		636.245,133.551 	"/>
	<polygon fill="#232527" points="628.483,149.582 624.603,156.305 628.483,163.025 636.245,163.025 640.124,156.305 
		636.245,149.582 	"/>
	<polygon fill="#232527" points="628.483,166.576 624.603,173.299 628.483,180.02 636.245,180.02 640.124,173.299 636.245,166.576 	
		"/>
	<polygon fill="#232527" points="628.483,182.967 624.603,189.688 628.483,196.408 636.245,196.408 640.124,189.688 
		636.245,182.967 	"/>
	<polygon fill="#232527" points="628.483,199.961 624.603,206.682 628.483,213.402 636.245,213.402 640.124,206.682 
		636.245,199.961 	"/>
	<polygon fill="#232527" points="658.974,50.479 655.093,57.199 658.974,63.922 666.735,63.922 670.614,57.199 666.735,50.479 	"/>
	<polygon fill="#232527" points="658.974,67.473 655.093,74.195 658.974,80.916 666.735,80.916 670.614,74.195 666.735,67.473 	"/>
	<polygon fill="#232527" points="658.974,83.506 655.093,90.227 658.974,96.947 666.735,96.947 670.614,90.227 666.735,83.506 	"/>
	<polygon fill="#232527" points="658.974,100.5 655.093,107.221 658.974,113.941 666.735,113.941 670.614,107.221 666.735,100.5 	
		"/>
	<polygon fill="#232527" points="690.017,50.479 686.136,57.199 690.017,63.922 697.778,63.922 701.659,57.199 697.778,50.479 	"/>
	<polygon fill="#232527" points="690.017,67.473 686.136,74.195 690.017,80.916 697.778,80.916 701.659,74.195 697.778,67.473 	"/>
	<polygon fill="#232527" points="690.017,83.506 686.136,90.227 690.017,96.947 697.778,96.947 701.659,90.227 697.778,83.506 	"/>
	<polygon fill="#232527" points="690.017,100.5 686.136,107.221 690.017,113.941 697.778,113.941 701.659,107.221 697.778,100.5 	
		"/>
	<polygon fill="#232527" points="690.017,117.168 686.136,123.889 690.017,130.611 697.778,130.611 701.659,123.889 
		697.778,117.168 	"/>
	<polygon fill="#232527" points="690.017,132.959 686.136,139.68 690.017,146.402 697.778,146.402 701.659,139.68 697.778,132.959 	
		"/>
	<polygon fill="#232527" points="721.06,50.479 717.181,57.199 721.06,63.922 728.821,63.922 732.702,57.199 728.821,50.479 	"/>
	<polygon fill="#232527" points="721.06,67.473 717.181,74.195 721.06,80.916 728.821,80.916 732.702,74.195 728.821,67.473 	"/>
	<polygon fill="#232527" points="721.06,83.506 717.181,90.227 721.06,96.947 728.821,96.947 732.702,90.227 728.821,83.506 	"/>
	<polygon fill="#232527" points="721.06,100.5 717.181,107.221 721.06,113.941 728.821,113.941 732.702,107.221 728.821,100.5 	"/>
	<polygon fill="#232527" points="721.06,117.168 717.181,123.889 721.06,130.611 728.821,130.611 732.702,123.889 728.821,117.168 	
		"/>
	<polygon fill="#232527" points="721.06,133.551 717.181,140.271 721.06,146.992 728.821,146.992 732.702,140.271 728.821,133.551 	
		"/>
	<polygon fill="#232527" points="658.974,116.557 655.093,123.279 658.974,130 666.735,130 670.614,123.279 666.735,116.557 	"/>
	<polygon fill="#232527" points="658.974,133.551 655.093,140.271 658.974,146.992 666.735,146.992 670.614,140.271 
		666.735,133.551 	"/>
	<polygon fill="#232527" points="658.974,149.582 655.093,156.305 658.974,163.025 666.735,163.025 670.614,156.305 
		666.735,149.582 	"/>
	<polygon fill="#232527" points="658.974,166.576 655.093,173.299 658.974,180.02 666.735,180.02 670.614,173.299 666.735,166.576 	
		"/>
	<polygon fill="#232527" points="658.974,182.967 655.093,189.688 658.974,196.408 666.735,196.408 670.614,189.688 
		666.735,182.967 	"/>
	<polygon fill="#232527" points="658.974,199.961 655.093,206.682 658.974,213.402 666.735,213.402 670.614,206.682 
		666.735,199.961 	"/>
	<polygon fill="#232527" points="643.45,58.811 639.571,65.531 643.45,72.252 651.212,72.252 655.093,65.531 651.212,58.811 	"/>
	<polygon fill="#232527" points="643.45,75.805 639.571,82.525 643.45,89.246 651.212,89.246 655.093,82.525 651.212,75.805 	"/>
	<polygon fill="#232527" points="643.45,91.836 639.571,98.557 643.45,105.279 651.212,105.279 655.093,98.557 651.212,91.836 	"/>
	<polygon fill="#232527" points="643.45,108.83 639.571,115.551 643.45,122.273 651.212,122.273 655.093,115.551 651.212,108.83 	
		"/>
	<polygon fill="#232527" points="643.45,124.887 639.571,131.609 643.45,138.33 651.212,138.33 655.093,131.609 651.212,124.887 	
		"/>
	<polygon fill="#232527" points="674.495,58.811 670.614,65.531 674.495,72.252 682.255,72.252 686.136,65.531 682.255,58.811 	"/>
	<polygon fill="#232527" points="674.495,75.805 670.614,82.525 674.495,89.246 682.255,89.246 686.136,82.525 682.255,75.805 	"/>
	<polygon fill="#232527" points="674.495,91.836 670.614,98.557 674.495,105.279 682.255,105.279 686.136,98.557 682.255,91.836 	
		"/>
	<polygon fill="#232527" points="674.495,108.83 670.614,115.551 674.495,122.273 682.255,122.273 686.136,115.551 682.255,108.83 	
		"/>
	<polygon fill="#232527" points="705.538,58.811 701.659,65.531 705.538,72.252 713.3,72.252 717.181,65.531 713.3,58.811 	"/>
	<polygon fill="#232527" points="705.538,75.805 701.659,82.525 705.538,89.246 713.3,89.246 717.181,82.525 713.3,75.805 	"/>
	<polygon fill="#232527" points="705.538,91.836 701.659,98.557 705.538,105.279 713.3,105.279 717.181,98.557 713.3,91.836 	"/>
	<polygon fill="#232527" points="705.538,124.889 701.659,131.609 705.538,138.33 713.3,138.33 717.181,131.609 713.3,124.889 	"/>
	<polygon fill="#232527" points="705.538,108.83 701.659,115.551 705.538,122.273 713.3,122.273 717.181,115.551 713.3,108.83 	"/>
	<polygon fill="#232527" points="674.495,124.887 670.614,131.609 674.495,138.33 682.255,138.33 686.136,131.609 682.255,124.887 	
		"/>
	<polygon fill="#232527" points="643.45,141.881 639.571,148.602 643.45,155.324 651.212,155.324 655.093,148.602 651.212,141.881 	
		"/>
	<polygon fill="#232527" points="643.45,157.914 639.571,164.635 643.45,171.357 651.212,171.357 655.093,164.635 651.212,157.914 	
		"/>
	<polygon fill="#232527" points="643.45,174.908 639.571,181.629 643.45,188.35 651.212,188.35 655.093,181.629 651.212,174.908 	
		"/>
	<polygon fill="#232527" points="643.45,191.297 639.571,198.018 643.45,204.738 651.212,204.738 655.093,198.018 651.212,191.297 	
		"/>
	<polygon fill="#232527" points="752.104,50.479 748.224,57.199 752.104,63.922 759.866,63.922 763.745,57.199 759.866,50.479 	"/>
	<polygon fill="#232527" points="752.104,67.473 748.224,74.195 752.104,80.916 759.866,80.916 763.745,74.195 759.866,67.473 	"/>
	<polygon fill="#232527" points="752.104,83.506 748.224,90.227 752.104,96.947 759.866,96.947 763.745,90.227 759.866,83.506 	"/>
	<polygon fill="#232527" points="752.104,100.5 748.224,107.221 752.104,113.941 759.866,113.941 763.745,107.221 759.866,100.5 	
		"/>
	<polygon fill="#232527" points="752.104,116.557 748.224,123.279 752.104,130 759.866,130 763.745,123.279 759.866,116.557 	"/>
	<polygon fill="#232527" points="752.104,133.551 748.224,140.271 752.104,146.992 759.866,146.992 763.745,140.271 
		759.866,133.551 	"/>
	<polygon fill="#232527" points="752.104,149.582 748.224,156.305 752.104,163.025 759.866,163.025 763.745,156.305 
		759.866,149.582 	"/>
	<polygon fill="#232527" points="752.104,166.576 748.224,173.299 752.104,180.02 759.866,180.02 763.745,173.299 759.866,166.576 	
		"/>
	<polygon fill="#232527" points="752.104,182.967 748.224,189.688 752.104,196.408 759.866,196.408 763.745,189.688 
		759.866,182.967 	"/>
	<polygon fill="#232527" points="752.104,199.961 748.224,206.682 752.104,213.402 759.866,213.402 763.745,206.682 
		759.866,199.961 	"/>
	<polygon fill="#232527" points="736.583,58.811 732.702,65.531 736.583,72.252 744.345,72.252 748.224,65.531 744.345,58.811 	"/>
	<polygon fill="#232527" points="736.583,75.805 732.702,82.525 736.583,89.246 744.345,89.246 748.224,82.525 744.345,75.805 	"/>
	<polygon fill="#232527" points="736.583,91.836 732.702,98.557 736.583,105.279 744.345,105.279 748.224,98.557 744.345,91.836 	
		"/>
	<polygon fill="#232527" points="736.583,108.83 732.702,115.551 736.583,122.273 744.345,122.273 748.224,115.551 744.345,108.83 	
		"/>
	<polygon fill="#232527" points="736.583,124.887 732.702,131.609 736.583,138.33 744.345,138.33 748.224,131.609 744.345,124.887 	
		"/>
	<polygon fill="#232527" points="783.147,50.479 779.267,57.199 783.147,63.922 790.909,63.922 794.79,57.199 790.909,50.479 	"/>
	<polygon fill="#232527" points="628.483,33.861 624.603,40.582 628.483,47.305 636.245,47.305 640.124,40.582 636.245,33.861 	"/>
	<polygon fill="#232527" points="658.974,33.861 655.093,40.582 658.974,47.305 666.735,47.305 670.614,40.582 666.735,33.861 	"/>
	<polygon fill="#232527" points="690.017,33.861 686.136,40.582 690.017,47.305 697.778,47.305 701.659,40.582 697.778,33.861 	"/>
	<polygon fill="#232527" points="721.06,33.861 717.181,40.582 721.06,47.305 728.821,47.305 732.702,40.582 728.821,33.861 	"/>
	<polygon fill="#232527" points="752.104,33.861 748.224,40.582 752.104,47.305 759.866,47.305 763.745,40.582 759.866,33.861 	"/>
	<polygon fill="#232527" points="783.147,33.861 779.267,40.582 783.147,47.305 790.909,47.305 794.79,40.582 790.909,33.861 	"/>
	<polygon fill="#232527" points="783.147,67.473 779.267,74.195 783.147,80.916 790.909,80.916 794.79,74.195 790.909,67.473 	"/>
	<polygon fill="#232527" points="783.147,83.506 779.267,90.227 783.147,96.947 790.909,96.947 794.79,90.227 790.909,83.506 	"/>
	<polygon fill="#232527" points="783.147,100.5 779.267,107.221 783.147,113.941 790.909,113.941 794.79,107.221 790.909,100.5 	"/>
	<polygon fill="#232527" points="783.147,116.557 779.267,123.279 783.147,130 790.909,130 794.79,123.279 790.909,116.557 	"/>
	<polygon fill="#232527" points="783.147,133.551 779.267,140.271 783.147,146.992 790.909,146.992 794.79,140.271 790.909,133.551 
			"/>
	<polygon fill="#232527" points="783.147,149.582 779.267,156.305 783.147,163.025 790.909,163.025 794.79,156.305 790.909,149.582 
			"/>
	<polygon fill="#232527" points="783.147,166.576 779.267,173.299 783.147,180.02 790.909,180.02 794.79,173.299 790.909,166.576 	
		"/>
	<polygon fill="#232527" points="783.147,182.967 779.267,189.688 783.147,196.408 790.909,196.408 794.79,189.688 790.909,182.967 
			"/>
	<polygon fill="#232527" points="783.147,199.961 779.267,206.682 783.147,213.402 790.909,213.402 794.79,206.682 790.909,199.961 
			"/>
	<polygon fill="#232527" points="767.626,58.811 763.745,65.531 767.626,72.252 775.388,72.252 779.267,65.531 775.388,58.811 	"/>
	<polygon fill="#232527" points="643.45,42.699 639.571,49.42 643.45,56.141 651.212,56.141 655.093,49.42 651.212,42.699 	"/>
	<polygon fill="#232527" points="674.495,42.699 670.614,49.42 674.495,56.141 682.255,56.141 686.136,49.42 682.255,42.699 	"/>
	<polygon fill="#232527" points="705.538,42.699 701.659,49.42 705.538,56.141 713.3,56.141 717.181,49.42 713.3,42.699 	"/>
	<polygon fill="#232527" points="736.583,42.699 732.702,49.42 736.583,56.141 744.345,56.141 748.224,49.42 744.345,42.699 	"/>
	<polygon fill="#232527" points="767.626,42.699 763.745,49.42 767.626,56.141 775.388,56.141 779.267,49.42 775.388,42.699 	"/>
	<polygon fill="#232527" points="767.626,75.805 763.745,82.525 767.626,89.246 775.388,89.246 779.267,82.525 775.388,75.805 	"/>
	<polygon fill="#232527" points="767.626,91.836 763.745,98.557 767.626,105.279 775.388,105.279 779.267,98.557 775.388,91.836 	
		"/>
	<polygon fill="#232527" points="767.626,108.83 763.745,115.551 767.626,122.273 775.388,122.273 779.267,115.551 775.388,108.83 	
		"/>
	<polygon fill="#232527" points="767.626,124.887 763.745,131.609 767.626,138.33 775.388,138.33 779.267,131.609 775.388,124.887 	
		"/>
	<polygon fill="#232527" points="767.626,141.881 763.745,148.602 767.626,155.324 775.388,155.324 779.267,148.602 
		775.388,141.881 	"/>
	<polygon fill="#232527" points="767.626,157.914 763.745,164.635 767.626,171.357 775.388,171.357 779.267,164.635 
		775.388,157.914 	"/>
	<polygon fill="#232527" points="767.626,174.908 763.745,181.629 767.626,188.35 775.388,188.35 779.267,181.629 775.388,174.908 	
		"/>
	<polygon fill="#232527" points="767.626,191.297 763.745,198.018 767.626,204.738 775.388,204.738 779.267,198.018 
		775.388,191.297 	"/>
	<rect x="674.358" y="152.621" fill="#050101" stroke="#050101" stroke-miterlimit="10" width="70.121" height="65.676"/>
</g>
<rect x="9.228" y="19.898" fill-rule="evenodd" clip-rule="evenodd" fill="#4A494B" width="41.743" height="44.391"/>
<path fill="#232426" d="M0,251.371h50.971V103.496H0V251.371z M39.28,146.049c0,5.314-4.347,9.662-9.661,9.662h-8.268
	c-5.314,0-9.663-4.348-9.663-9.662v-0.623c0-5.313,4.348-9.66,9.663-9.66h8.268c5.314,0,9.661,4.348,9.661,9.66V146.049z"/>
<path fill="#313133" d="M4.472,162.42v36.951h42.027v-37.443c-5.293,3.898-12.902,6.342-21.36,6.342
	C17.041,168.27,9.726,166.029,4.472,162.42"/>
<path fill="#2B2B2D" d="M4.472,173.658v36.951h42.027v-37.441c-5.293,3.896-12.902,6.34-21.36,6.34
	C17.041,179.508,9.726,177.268,4.472,173.658"/>
<path fill="#97A5C4" d="M4.472,157.271v5.148c5.254,3.607,12.569,5.85,20.667,5.85c8.458,0,16.067-2.445,21.36-6.34v-5.15
	c-5.293,3.896-12.902,6.342-21.36,6.342C17.041,163.121,9.726,160.881,4.472,157.271"/>
<path fill="#4A494B" d="M3.768,176.037H0.001v75.334h50.97v-75.334h-3.216c-6.052,3.967-13.688,6.34-21.993,6.34
	C17.454,182.377,9.819,180.004,3.768,176.037"/>
<path fill="#FBFBFD" d="M289.86,169.879v-2.25h0.797l0.197,1.496l0.122,0.184c0.108,0.025,0.215,0.043,0.325,0.055
	c0.107,0.01,0.216,0.016,0.328,0.016c0.331,0,0.594-0.1,0.789-0.305c0.195-0.203,0.293-0.475,0.293-0.814
	c0-0.111-0.013-0.217-0.04-0.318c-0.026-0.1-0.065-0.193-0.114-0.275c-0.135-0.209-0.419-0.434-0.852-0.67
	c-0.213-0.111-0.376-0.205-0.49-0.277c-0.445-0.281-0.771-0.609-0.978-0.979c-0.205-0.369-0.308-0.814-0.308-1.33
	c0-0.768,0.202-1.387,0.606-1.852c0.406-0.467,0.948-0.701,1.628-0.701c0.283,0,0.582,0.041,0.892,0.125
	c0.311,0.082,0.625,0.205,0.944,0.361v2.053h-0.797l-0.173-1.346l-0.104-0.148c-0.078-0.035-0.161-0.063-0.245-0.08
	c-0.086-0.018-0.176-0.029-0.271-0.029c-0.324,0-0.578,0.1-0.763,0.293c-0.185,0.195-0.276,0.457-0.276,0.789
	c0,0.455,0.353,0.893,1.06,1.313c0.081,0.045,0.143,0.084,0.185,0.111c0.632,0.377,1.05,0.734,1.255,1.078
	c0.206,0.342,0.307,0.783,0.307,1.324c0,0.795-0.219,1.43-0.662,1.904c-0.44,0.475-1.036,0.713-1.786,0.713
	c-0.251,0-0.527-0.035-0.828-0.107C290.601,170.139,290.254,170.029,289.86,169.879"/>
<path fill="#FBFBFD" d="M294.577,164.201h2.572v0.6l-0.435,0.084l-0.081,0.146l0.884,3.145l0.852-3.133l-0.087-0.158l-0.461-0.084
	v-0.6h1.827v0.6l-0.474,0.119l-1.664,5.504c-0.224,0.742-0.516,1.336-0.875,1.783c-0.359,0.449-0.72,0.674-1.083,0.674
	c-0.238,0-0.439-0.113-0.607-0.34c-0.168-0.225-0.252-0.492-0.252-0.807c0-0.252,0.063-0.475,0.188-0.666
	c0.124-0.191,0.293-0.324,0.508-0.4l0.73,0.984c0.128-0.109,0.247-0.26,0.358-0.445c0.11-0.186,0.216-0.42,0.319-0.697l-1.697-5.566
	l-0.523-0.143V164.201z"/>
<path fill="#FBFBFD" d="M303.476,164.314v1.855h-0.616l-0.114-0.959l-0.113-0.168c-0.116-0.074-0.224-0.129-0.327-0.166
	c-0.104-0.035-0.204-0.053-0.298-0.053c-0.202,0-0.36,0.059-0.479,0.176c-0.117,0.115-0.174,0.271-0.174,0.465
	c0,0.344,0.257,0.65,0.771,0.92c0.167,0.086,0.297,0.158,0.39,0.215c0.451,0.26,0.755,0.516,0.92,0.77
	c0.163,0.252,0.246,0.574,0.246,0.967c0,0.563-0.188,1.035-0.564,1.418c-0.376,0.383-0.848,0.576-1.419,0.576
	c-0.27,0-0.56-0.029-0.865-0.09c-0.307-0.059-0.627-0.146-0.963-0.266v-2.031h0.616l0.104,1.109l0.097,0.156
	c0.152,0.102,0.301,0.18,0.451,0.229c0.15,0.049,0.299,0.074,0.451,0.074c0.196,0,0.351-0.064,0.467-0.189
	c0.117-0.129,0.174-0.299,0.174-0.512c0-0.307-0.201-0.582-0.603-0.824c-0.089-0.055-0.157-0.098-0.201-0.125
	c-0.624-0.389-1.031-0.717-1.221-0.986c-0.189-0.271-0.284-0.598-0.284-0.982c0-0.566,0.175-1.025,0.526-1.377
	c0.351-0.354,0.814-0.529,1.389-0.529c0.219,0,0.462,0.027,0.732,0.082C302.838,164.123,303.14,164.203,303.476,164.314"/>
<path fill="#FBFBFD" d="M304.738,165.221h-0.616v-0.557l0.736-0.652l0.542-1.412h0.762v1.727h1.305v0.895h-1.305v2.836
	c0,0.416,0.058,0.695,0.17,0.84c0.114,0.145,0.332,0.219,0.656,0.219c0.067,0,0.14-0.008,0.219-0.02
	c0.077-0.012,0.165-0.029,0.26-0.053v0.699c-0.306,0.162-0.59,0.285-0.857,0.371c-0.268,0.084-0.505,0.129-0.711,0.129
	c-0.227,0-0.428-0.051-0.604-0.148c-0.177-0.102-0.313-0.24-0.411-0.424c-0.053-0.098-0.09-0.238-0.112-0.424
	c-0.023-0.184-0.034-0.475-0.034-0.875V165.221z"/>
<path fill="#FBFBFD" d="M312.255,168.455v1.121c-0.329,0.232-0.665,0.406-1.007,0.52c-0.344,0.113-0.708,0.168-1.09,0.168
	c-0.716,0-1.284-0.281-1.705-0.846c-0.42-0.563-0.631-1.322-0.631-2.273c0-0.953,0.218-1.721,0.651-2.299
	c0.432-0.58,1.005-0.869,1.716-0.869c0.664,0,1.177,0.266,1.541,0.795c0.366,0.529,0.547,1.275,0.547,2.242v0.154h-2.958
	c0.007,0.602,0.125,1.074,0.35,1.422c0.224,0.35,0.524,0.523,0.898,0.523c0.291,0,0.574-0.055,0.851-0.162
	C311.696,168.842,311.975,168.678,312.255,168.455 M310.748,166.402c0-0.561-0.052-0.975-0.158-1.24
	c-0.108-0.264-0.271-0.396-0.491-0.396c-0.249,0-0.436,0.133-0.562,0.4c-0.125,0.266-0.188,0.664-0.188,1.188v0.049H310.748z"/>
<path fill="#FBFBFD" d="M317.444,164.871c0.361-0.287,0.682-0.504,0.965-0.646c0.282-0.143,0.526-0.213,0.737-0.213
	c0.427,0,0.742,0.178,0.943,0.531c0.202,0.354,0.302,0.912,0.302,1.676v3.09l0.083,0.154l0.475,0.061v0.646h-2.415v-0.646
	l0.334-0.061l0.104-0.154v-2.59c0-0.531-0.066-0.898-0.199-1.096c-0.133-0.201-0.366-0.301-0.702-0.301
	c-0.121,0-0.22,0.008-0.299,0.021c-0.081,0.016-0.152,0.035-0.216,0.063v3.902l0.104,0.166l0.378,0.066v0.629h-2.294v-0.67
	l0.31-0.025l0.101-0.207v-2.705c0-0.436-0.068-0.75-0.203-0.945c-0.135-0.195-0.354-0.295-0.656-0.295h-0.155
	c-0.087,0-0.154,0.004-0.202,0.008c-0.046,0.008-0.09,0.016-0.13,0.029v3.949l0.109,0.154l0.319,0.061v0.646h-2.402v-0.646
	l0.444-0.061l0.096-0.154v-3.998h-0.54v-0.598l1.476-0.701h0.497v0.789c0.323-0.268,0.609-0.469,0.86-0.598
	c0.251-0.127,0.479-0.191,0.683-0.191c0.229,0,0.43,0.066,0.603,0.203C317.128,164.352,317.291,164.57,317.444,164.871"/>
<polygon fill="#FBFBFD" points="323.909,164.178 326.281,164.178 326.281,164.74 326.013,164.824 325.979,164.967 326.667,166.295 
	327.371,164.908 327.009,164.801 327.009,164.178 328.674,164.178 328.674,164.859 328.175,164.908 327.069,166.793 
	328.418,169.428 328.846,169.553 328.846,170.17 326.57,170.17 326.57,169.658 326.831,169.523 326.864,169.404 326.109,167.934 
	325.326,169.463 325.676,169.553 325.676,170.17 323.909,170.17 323.909,169.553 324.47,169.379 325.676,167.361 324.39,164.908 
	323.909,164.859 "/>
<path fill="#FBFBFD" d="M332.046,165.869c0.583,0.047,1.033,0.248,1.35,0.602c0.315,0.354,0.473,0.832,0.473,1.439
	c0,0.693-0.236,1.271-0.704,1.73c-0.47,0.461-1.07,0.689-1.803,0.689c-0.657,0-1.177-0.15-1.561-0.451
	c-0.385-0.301-0.577-0.701-0.577-1.203c0-0.311,0.071-0.559,0.212-0.748c0.141-0.189,0.328-0.285,0.56-0.285
	c0.077,0,0.157,0.008,0.238,0.029c0.082,0.02,0.165,0.049,0.252,0.09l0.29,1.596c0.108,0.031,0.203,0.055,0.283,0.07
	c0.08,0.016,0.149,0.025,0.208,0.025c0.307,0,0.556-0.139,0.745-0.414c0.19-0.275,0.285-0.635,0.285-1.084s-0.109-0.805-0.329-1.064
	c-0.22-0.258-0.52-0.387-0.899-0.387c-0.102,0-0.198,0.008-0.293,0.023c-0.095,0.016-0.189,0.039-0.281,0.07v-1.055
	c0.062,0.012,0.12,0.02,0.175,0.025c0.057,0.006,0.109,0.01,0.16,0.01c0.392,0,0.699-0.123,0.92-0.365s0.334-0.578,0.334-1
	c0-0.451-0.101-0.805-0.303-1.064c-0.201-0.26-0.479-0.389-0.833-0.389c-0.019,0-0.043,0.002-0.075,0.006
	c-0.034,0.004-0.061,0.006-0.081,0.006v1.697c-0.099,0.07-0.197,0.123-0.296,0.156c-0.099,0.035-0.2,0.051-0.303,0.051
	c-0.244,0-0.437-0.09-0.582-0.273c-0.143-0.182-0.214-0.424-0.214-0.723c0-0.527,0.2-0.959,0.601-1.295
	c0.401-0.334,0.926-0.502,1.578-0.502c0.629,0,1.131,0.186,1.505,0.559c0.375,0.375,0.562,0.869,0.562,1.48
	c0,0.504-0.139,0.924-0.415,1.262S332.557,165.75,332.046,165.869"/>
<path fill="#FBFBFD" d="M340.79,162.02h3.811v1.566h-2.955v1.689c0.229-0.115,0.447-0.201,0.658-0.258
	c0.209-0.059,0.41-0.088,0.604-0.088c0.623,0,1.126,0.227,1.507,0.678c0.382,0.449,0.573,1.045,0.573,1.779
	c0,0.895-0.244,1.605-0.731,2.137c-0.485,0.529-1.144,0.795-1.973,0.795c-0.562,0-1.018-0.15-1.367-0.453
	c-0.349-0.303-0.524-0.688-0.524-1.156c0-0.318,0.077-0.584,0.23-0.797c0.154-0.211,0.35-0.318,0.587-0.318
	c0.076,0,0.156,0.012,0.243,0.037c0.086,0.023,0.183,0.059,0.291,0.107l0.254,1.703c0.009,0,0.022,0.002,0.043,0.004
	c0.08,0.014,0.142,0.018,0.184,0.018c0.365,0,0.667-0.158,0.902-0.48c0.233-0.32,0.352-0.732,0.352-1.234
	c0-0.484-0.136-0.881-0.407-1.182c-0.271-0.303-0.628-0.455-1.073-0.455c-0.184,0-0.376,0.025-0.577,0.076
	c-0.202,0.047-0.413,0.121-0.63,0.215V162.02z"/>
<path fill="#FBFBFD" d="M348.256,161.869c0.755,0,1.349,0.377,1.786,1.129c0.436,0.75,0.654,1.781,0.654,3.09
	s-0.219,2.34-0.654,3.096c-0.437,0.756-1.031,1.135-1.786,1.135c-0.742,0-1.331-0.377-1.758-1.131
	c-0.43-0.754-0.644-1.787-0.644-3.1c0-1.309,0.214-2.34,0.641-3.09C346.923,162.246,347.509,161.869,348.256,161.869
	 M348.265,162.658c-0.287,0-0.501,0.281-0.639,0.84c-0.138,0.561-0.207,1.418-0.207,2.578c0,1.197,0.067,2.07,0.204,2.615
	c0.135,0.547,0.349,0.82,0.643,0.82c0.299,0,0.517-0.273,0.654-0.82c0.137-0.545,0.205-1.418,0.205-2.615
	c0-1.184-0.068-2.049-0.208-2.596C348.777,162.934,348.561,162.658,348.265,162.658"/>
<g>
	<path fill="#FDFDFE" stroke="#FBFBFD" stroke-miterlimit="10" d="M335.193,164.462c0.065-0.447,0.108-0.93,0.151-1.389h3.83
		l0.076,0.135c-1.049,2.15-1.98,4.391-2.921,6.584l-0.649,0.09l-0.076-0.1c1.233-2.016,2.239-4.078,3.116-6.16h-2.304
		c-0.736,0-0.79,0.078-1.049,0.84H335.193z"/>
</g>
<g>
	<path fill="#FDFDFE" stroke="#FBFBFD" stroke-miterlimit="10" d="M367.785,162.95v4.436h1.07v0.459h-1.07v0.75
		c0,0.783,0.032,0.93,0.952,1.008v0.156h-2.554v-0.156c0.996-0.078,1.061-0.191,1.061-0.996v-0.762h-2.791v-0.236
		c0.995-1.512,2.034-3.09,3.17-4.658H367.785z M367.244,167.386v-3.428h-0.021c-0.779,1.029-1.504,2.162-2.24,3.428H367.244z"/>
</g>
<g>
	<path fill="#FDFDFE" stroke="#FBFBFD" stroke-miterlimit="10" d="M354.236,162.749h1.374l2.856,5.936l2.867-5.936h1.558v0.156
		c-1.006,0.1-1.104,0.213-1.06,1.332l0.075,3.977c0.032,1.154,0.076,1.299,1.093,1.389v0.156h-2.65v-0.156
		c0.952-0.078,0.984-0.225,0.974-1.389l-0.043-4.705h-0.043l-2.932,6.127h-0.097l-2.661-5.746h-0.022l-0.141,3.025
		c-0.032,0.525-0.043,0.906-0.043,1.209c0,1.076,0.108,1.377,1.114,1.479v0.156h-2.607v-0.156c0.671-0.057,0.898-0.246,0.984-0.695
		c0.076-0.336,0.163-1.008,0.238-2.16l0.151-2.051c0.011-0.303,0.021-0.549,0.021-0.75c0-0.795-0.184-0.941-1.006-1.041V162.749z"/>
</g>
<rect x="81.306" y="193.646" fill="#474849" stroke="#070606" stroke-miterlimit="10" width="311.471" height="35.27"/>
<g>
	<path fill="#E5E5E4" d="M125.499,198.305h-9.159l-0.3,1.576h2.159h0.435h3.949c0,0,0.266,4.484-2.387,5.045h-2.63l0.449-4.045
		h-2.179l-0.677,5.377h5.17C126.428,205.275,125.499,198.305,125.499,198.305z"/>
	<path fill="#E5E5E4" d="M144.723,198.305h-9.159l-0.301,1.576h2.159h0.435h3.948c0,0,0.265,4.484-2.386,5.045h-2.63l0.448-4.045
		h-2.177l-0.679,5.377h5.172C145.651,205.275,144.723,198.305,144.723,198.305z"/>
	<polygon fill="#E5E5E4" points="127.616,198.35 128.758,206.301 130.282,206.301 135.45,198.35 132.948,198.35 130.827,201.992 
		129.737,202.051 129.03,198.35 	"/>
	<rect x="124.19" y="198.35" fill="#E5E5E4" width="3.652" height="1.572"/>
</g>
<path fill="#E5E5E4" d="M128.865,209.373c-8.228,0-14.896,0.98-14.896,2.191c0,1.209,6.668,2.189,14.896,2.189
	c8.227,0,14.896-0.98,14.896-2.189C143.761,210.354,137.092,209.373,128.865,209.373z M129.286,211.928
	c-1.547,0-2.803-0.275-2.803-0.613s1.256-0.613,2.803-0.613c1.547,0,2.803,0.275,2.803,0.613S130.833,211.928,129.286,211.928z"/>
<path fill="#E5E5E4" d="M197.681,197.129h-28.695c-0.989,0-1.793,0.803-1.793,1.795v17.186c0,0.99,0.804,1.793,1.793,1.793h28.695
	c0.99,0,1.793-0.803,1.793-1.793v-17.186C199.475,197.932,198.671,197.129,197.681,197.129z M180.648,206.992
	c0,0-0.372,1.232-1.531,1.625l1.27,4.316h-1.868l-1.345-4.316h-1.737c0,0-0.187,0.076-0.374,0.318v3.998h-1.793v-3.998
	c0,0,0.15-1.234,1.251-1.85h4.072c0,0,0.804-1.869,0-3.137h-5.137v-1.85h5.38c0,0,1.345,0.336,1.811,1.867V206.992z
	 M193.398,211.439c-0.476,1.232-1.4,1.316-1.4,1.316h-2.55c-0.981-0.252-1.233-1.232-1.233-1.232
	c-0.56,1.121-1.428,1.232-1.428,1.232h-2.578c-1.037-0.391-1.317-1.68-1.317-1.68v-8.855h1.233v8.742h3.278v-8.742h1.401v8.742
	h3.223v-8.742h1.372V211.439z"/>
<path fill="#E5E5E4" d="M114.016,214.133v6.42h29.697v-6.42H114.016z M120.899,219.57h-0.284h-0.289v-3.465h-0.002l-1.229,3.465
	h-0.285h-0.286l-1.234-3.455h-0.001v3.455h-0.286h-0.289v-4.096h0.426h0.424l1.249,3.484l1.237-3.484h0.425h0.424V219.57z
	 M127.278,218.068c0,0.506-0.151,0.9-0.454,1.186c-0.304,0.285-0.723,0.428-1.263,0.428c-0.56,0-0.986-0.137-1.279-0.41
	c-0.292-0.275-0.439-0.676-0.439-1.203v-2.594h0.294h0.297v2.551c0,0.381,0.096,0.672,0.289,0.869
	c0.191,0.197,0.471,0.295,0.839,0.295c0.37,0,0.648-0.098,0.84-0.295c0.19-0.197,0.286-0.488,0.286-0.869v-2.551h0.294h0.296
	V218.068z M132.695,219.324v0.246h-2.804v-4.096h0.295h0.295v3.605h2.213V219.324z M137.855,215.719v0.246h-1.475v3.605h-0.293
	h-0.297v-3.605h-1.476v-0.246v-0.244h3.542V215.719z M141.014,219.57h-0.294h-0.297v-4.096h0.294h0.297V219.57z"/>
<g>
	<path fill="#E5E5E4" d="M117.676,221.624h0.18h1.061c0.283,0,0.488,0.063,0.613,0.186c0.126,0.121,0.168,0.303,0.126,0.539
		c-0.041,0.234-0.15,0.416-0.327,0.547c-0.044,0.033-0.092,0.063-0.141,0.088l0.055,0.029c0.146,0.094,0.202,0.25,0.169,0.471
		l-0.071,0.484c-0.012,0.08-0.011,0.139,0,0.174s0.042,0.064,0.089,0.09l-0.01,0.059h-0.444c-0.006-0.021-0.005-0.08,0.001-0.17
		c0.007-0.094,0.017-0.195,0.032-0.307l0.029-0.211c0.024-0.166,0.004-0.283-0.059-0.355c-0.064-0.07-0.182-0.105-0.355-0.105
		h-0.856l-0.203,1.15h-0.18h-0.181L117.676,221.624z M117.825,222.829h0.893c0.167,0,0.295-0.035,0.386-0.109
		c0.09-0.072,0.149-0.189,0.177-0.348c0.027-0.152,0.006-0.266-0.063-0.336c-0.069-0.072-0.191-0.107-0.368-0.107h-0.865
		L117.825,222.829z"/>
	<path fill="#E5E5E4" d="M119.882,224.292l0.47-2.668h1.95l-0.028,0.16l-0.028,0.16h-1.589l-0.144,0.814h1.452l-0.028,0.16
		l-0.028,0.158h-1.451l-0.158,0.895h1.609l-0.028,0.16l-0.028,0.16H119.882z"/>
	<path fill="#E5E5E4" d="M124.744,223.312c-0.104,0.328-0.275,0.586-0.515,0.771c-0.239,0.188-0.516,0.281-0.832,0.281
		c-0.367,0-0.638-0.127-0.812-0.381c-0.174-0.252-0.223-0.594-0.147-1.023c0.076-0.43,0.249-0.771,0.521-1.025
		c0.271-0.256,0.599-0.383,0.98-0.383c0.301,0,0.535,0.078,0.701,0.232c0.167,0.154,0.245,0.369,0.235,0.641h-0.348
		c-0.003-0.178-0.061-0.313-0.174-0.408c-0.112-0.096-0.271-0.145-0.476-0.145c-0.268,0-0.498,0.098-0.69,0.295
		c-0.193,0.197-0.319,0.461-0.378,0.793c-0.062,0.354-0.036,0.621,0.078,0.807c0.115,0.186,0.312,0.277,0.591,0.277
		c0.207,0,0.39-0.063,0.549-0.191c0.159-0.127,0.282-0.307,0.368-0.541H124.744z"/>
	<path fill="#E5E5E4" d="M125.283,223.978c-0.194-0.26-0.254-0.598-0.18-1.018s0.254-0.76,0.539-1.02s0.621-0.389,1.008-0.389
		c0.389,0,0.681,0.129,0.874,0.389c0.193,0.26,0.253,0.6,0.179,1.02s-0.253,0.758-0.538,1.018c-0.284,0.258-0.622,0.387-1.01,0.387
		C125.767,224.364,125.477,224.235,125.283,223.978z M126.937,223.745c0.206-0.199,0.337-0.461,0.394-0.785
		c0.058-0.326,0.019-0.588-0.117-0.787c-0.135-0.201-0.342-0.301-0.62-0.301c-0.277,0-0.519,0.1-0.725,0.301
		c-0.206,0.199-0.337,0.461-0.395,0.787c-0.057,0.324-0.018,0.586,0.117,0.785c0.135,0.201,0.342,0.299,0.619,0.299
		C126.489,224.044,126.731,223.946,126.937,223.745z"/>
	<path fill="#E5E5E4" d="M128.41,221.624h0.18h1.061c0.283,0,0.488,0.063,0.613,0.186c0.126,0.121,0.168,0.303,0.126,0.539
		c-0.041,0.234-0.15,0.416-0.327,0.547c-0.044,0.033-0.092,0.063-0.141,0.088l0.055,0.029c0.146,0.094,0.202,0.25,0.169,0.471
		l-0.071,0.484c-0.012,0.08-0.011,0.139,0,0.174s0.042,0.064,0.089,0.09l-0.01,0.059h-0.444c-0.006-0.021-0.005-0.08,0.001-0.17
		c0.007-0.094,0.017-0.195,0.032-0.307l0.029-0.211c0.024-0.166,0.004-0.283-0.059-0.355c-0.064-0.07-0.182-0.105-0.355-0.105
		h-0.856l-0.203,1.15h-0.18h-0.182L128.41,221.624z M128.558,222.829h0.893c0.167,0,0.295-0.035,0.386-0.109
		c0.09-0.072,0.149-0.189,0.177-0.348c0.027-0.152,0.006-0.266-0.063-0.336c-0.069-0.072-0.191-0.107-0.368-0.107h-0.865
		L128.558,222.829z"/>
	<path fill="#E5E5E4" d="M131.067,221.624h0.18h0.916c0.339,0,0.587,0.121,0.745,0.363c0.158,0.24,0.2,0.566,0.128,0.973
		c-0.072,0.406-0.231,0.73-0.479,0.971c-0.248,0.24-0.545,0.361-0.894,0.361h-0.887h-0.18L131.067,221.624z M131.012,223.983h0.66
		c0.259,0,0.475-0.09,0.646-0.268c0.172-0.178,0.287-0.43,0.345-0.756c0.058-0.328,0.035-0.58-0.069-0.76
		c-0.104-0.178-0.281-0.268-0.53-0.268h-0.691L131.012,223.983z"/>
	<path fill="#E5E5E4" d="M133.737,224.292l-0.228-2.668h0.194h0.196l0.104,2.109c0.002,0.035,0.003,0.068,0.003,0.1
		c0,0.033-0.001,0.057-0.003,0.068h0c0.003-0.016,0.01-0.039,0.022-0.072c0.011-0.033,0.024-0.064,0.039-0.096l0.936-2.109h0.203
		h0.203l0.19,2.098c0.004,0.033,0.006,0.066,0.006,0.1c0,0.035-0.001,0.059-0.004,0.074h-0.001c0.002-0.012,0.01-0.037,0.021-0.07
		c0.012-0.033,0.025-0.068,0.04-0.104l0.851-2.098h0.194h0.194l-1.168,2.668h-0.194h-0.194l-0.215-2.063
		c-0.003-0.035-0.006-0.07-0.007-0.104c-0.001-0.033,0-0.059,0.002-0.072h0c-0.003,0.018-0.011,0.041-0.022,0.074
		c-0.012,0.033-0.026,0.066-0.042,0.102l-0.929,2.063h-0.194H133.737z"/>
	<path fill="#E5E5E4" d="M137.282,221.624h0.18h1.062c0.283,0,0.487,0.063,0.613,0.186c0.126,0.121,0.168,0.303,0.126,0.539
		c-0.042,0.234-0.15,0.416-0.327,0.547c-0.044,0.033-0.091,0.063-0.141,0.088l0.055,0.029c0.146,0.094,0.202,0.25,0.169,0.471
		l-0.071,0.484c-0.012,0.08-0.012,0.139,0,0.174c0.012,0.035,0.042,0.064,0.089,0.09l-0.01,0.059h-0.444
		c-0.006-0.021-0.005-0.08,0.001-0.17c0.007-0.094,0.018-0.195,0.033-0.307l0.029-0.211c0.024-0.166,0.004-0.283-0.059-0.355
		c-0.063-0.07-0.182-0.105-0.354-0.105h-0.856l-0.203,1.15h-0.18h-0.182L137.282,221.624z M137.43,222.829h0.893
		c0.167,0,0.296-0.035,0.386-0.109c0.09-0.072,0.149-0.189,0.177-0.348c0.027-0.152,0.006-0.266-0.063-0.336
		c-0.069-0.072-0.192-0.107-0.369-0.107h-0.865L137.43,222.829z"/>
</g>
<g>
	<path fill="#E5E5E4" stroke="#E5E5E4" stroke-width="0.25" stroke-miterlimit="10" d="M164.773,220.62h0.256h1.308
		c0.483,0,0.868,0.145,1.154,0.436c0.286,0.289,0.429,0.678,0.429,1.166s-0.146,0.877-0.439,1.166
		c-0.293,0.287-0.688,0.432-1.185,0.432h-1.266h-0.256V220.62z M165.288,223.45h0.943c0.369,0,0.654-0.107,0.855-0.32
		s0.302-0.516,0.302-0.908s-0.097-0.695-0.29-0.91s-0.468-0.32-0.823-0.32h-0.987V223.45z"/>
	<path fill="#E5E5E4" stroke="#E5E5E4" stroke-width="0.25" stroke-miterlimit="10" d="M168.279,220.62h0.285h0.289l1.09,2.736
		h0.003l1.088-2.736h0.285h0.285l-1.385,3.199h-0.277h-0.277L168.279,220.62z"/>
	<path fill="#E5E5E4" stroke="#E5E5E4" stroke-width="0.25" stroke-miterlimit="10" d="M172.14,220.62h0.257h1.308
		c0.483,0,0.868,0.145,1.153,0.436c0.286,0.289,0.429,0.678,0.429,1.166s-0.146,0.877-0.439,1.166
		c-0.292,0.287-0.688,0.432-1.185,0.432h-1.266h-0.257V220.62z M172.656,223.45h0.942c0.37,0,0.655-0.107,0.856-0.32
		s0.302-0.516,0.302-0.908s-0.097-0.695-0.29-0.91c-0.194-0.215-0.468-0.32-0.824-0.32h-0.986V223.45z"/>
	<path fill="#E5E5E4" stroke="#E5E5E4" stroke-width="0.25" stroke-miterlimit="10" d="M176.895,222.862h-1.147v-0.328h1.147v-0.965
		h0.391v0.965h1.147v0.328h-1.147v0.965h-0.391V222.862z"/>
	<path fill="#E5E5E4" stroke="#E5E5E4" stroke-width="0.25" stroke-miterlimit="10" d="M179.104,220.62h0.256h1.515
		c0.404,0,0.711,0.074,0.922,0.221c0.211,0.148,0.316,0.363,0.316,0.648c0,0.279-0.109,0.498-0.329,0.656
		c-0.055,0.039-0.115,0.074-0.179,0.105l0.086,0.035c0.231,0.111,0.351,0.299,0.36,0.563l0.021,0.584
		c0.003,0.096,0.018,0.164,0.044,0.207c0.026,0.041,0.076,0.078,0.15,0.107v0.07h-0.633c-0.014-0.025-0.028-0.094-0.042-0.205
		c-0.014-0.109-0.024-0.232-0.031-0.367l-0.011-0.252c-0.007-0.199-0.065-0.342-0.174-0.426c-0.108-0.084-0.286-0.127-0.533-0.127
		h-1.222v1.379h-0.256h-0.259V220.62z M179.619,222.065h1.274c0.238,0,0.413-0.043,0.523-0.131c0.11-0.088,0.166-0.227,0.166-0.418
		c0-0.184-0.058-0.318-0.175-0.404s-0.301-0.129-0.553-0.129h-1.235V222.065z"/>
	<path fill="#E5E5E4" stroke="#E5E5E4" stroke-width="0.25" stroke-miterlimit="10" d="M183.941,223.884
		c-0.392,0-0.7-0.105-0.925-0.314c-0.224-0.209-0.336-0.498-0.336-0.865c0-0.393,0.119-0.703,0.356-0.936
		c0.237-0.23,0.556-0.348,0.957-0.348c0.362,0,0.655,0.113,0.878,0.34c0.223,0.227,0.334,0.523,0.334,0.893l-0.005,0.139h-2.024
		c0.019,0.232,0.082,0.41,0.189,0.531c0.131,0.148,0.338,0.223,0.621,0.223c0.178,0,0.333-0.043,0.466-0.127
		s0.214-0.191,0.243-0.322h0.461c-0.069,0.256-0.207,0.451-0.414,0.584C184.534,223.815,184.268,223.884,183.941,223.884z
		 M184.719,222.478c-0.014-0.217-0.078-0.385-0.192-0.506c-0.126-0.133-0.311-0.199-0.554-0.199c-0.245,0-0.441,0.076-0.588,0.23
		c-0.116,0.121-0.186,0.277-0.21,0.475H184.719z"/>
	<path fill="#E5E5E4" stroke="#E5E5E4" stroke-width="0.25" stroke-miterlimit="10" d="M186.5,223.819l-0.997-3.199h0.277h0.28
		l0.679,2.529c0.012,0.043,0.022,0.082,0.03,0.121s0.012,0.066,0.012,0.082h0c0-0.02,0.004-0.049,0.013-0.088
		c0.009-0.039,0.019-0.078,0.031-0.115l0.806-2.529h0.29h0.29l0.8,2.516c0.014,0.039,0.025,0.08,0.034,0.121
		c0.009,0.039,0.013,0.07,0.013,0.088h0c0-0.016,0.003-0.043,0.011-0.084s0.018-0.082,0.03-0.125l0.688-2.516h0.277h0.277
		l-0.997,3.199h-0.277h-0.277l-0.826-2.475c-0.014-0.041-0.026-0.082-0.036-0.123c-0.011-0.041-0.016-0.068-0.016-0.086h-0.001
		c0,0.02-0.004,0.049-0.013,0.088c-0.009,0.041-0.02,0.082-0.034,0.121l-0.807,2.475h-0.277H186.5z"/>
	<path fill="#E5E5E4" stroke="#E5E5E4" stroke-width="0.25" stroke-miterlimit="10" d="M190.833,221.491h0.22h0.223v0.398
		c0.04-0.063,0.082-0.119,0.127-0.17c0.176-0.199,0.393-0.299,0.65-0.299c0.043,0,0.087,0.008,0.132,0.02v0.4l-0.096-0.002
		c-0.252,0-0.447,0.064-0.584,0.191s-0.206,0.307-0.206,0.543v1.246h-0.233h-0.232V221.491z"/>
	<path fill="#E5E5E4" stroke="#E5E5E4" stroke-width="0.25" stroke-miterlimit="10" d="M192.544,220.62h0.477v0.445h-0.477V220.62z
		 M192.549,221.491h0.233h0.233v2.328h-0.233h-0.233V221.491z"/>
	<path fill="#E5E5E4" stroke="#E5E5E4" stroke-width="0.25" stroke-miterlimit="10" d="M194.729,223.817
		c-0.158,0.021-0.274,0.031-0.346,0.031c-0.204,0-0.348-0.039-0.431-0.113c-0.084-0.076-0.126-0.205-0.126-0.391v-1.533h-0.383
		v-0.32h0.383v-0.652h0.466v0.652h0.437v0.32h-0.437v1.533c0,0.053,0.024,0.094,0.074,0.125c0.049,0.029,0.115,0.045,0.198,0.045
		h0.165V223.817z"/>
	<path fill="#E5E5E4" stroke="#E5E5E4" stroke-width="0.25" stroke-miterlimit="10" d="M195.916,223.884
		c-0.271,0-0.486-0.063-0.645-0.184c-0.159-0.121-0.238-0.287-0.238-0.494c0-0.209,0.074-0.375,0.224-0.498
		c0.149-0.123,0.367-0.201,0.654-0.23l0.634-0.068c0.052-0.004,0.101-0.012,0.148-0.021c0.06-0.014,0.107-0.039,0.14-0.078
		s0.049-0.088,0.049-0.148v-0.02c0-0.125-0.056-0.223-0.168-0.293s-0.269-0.105-0.469-0.105c-0.191,0-0.341,0.037-0.449,0.113
		c-0.108,0.074-0.173,0.186-0.196,0.334h-0.43c0.022-0.256,0.129-0.447,0.321-0.576c0.191-0.129,0.466-0.193,0.823-0.193
		c0.337,0,0.594,0.063,0.77,0.184c0.176,0.123,0.264,0.303,0.264,0.537v1.279c0,0.039,0.014,0.072,0.043,0.096
		c0.028,0.023,0.067,0.035,0.115,0.035c0.014,0,0.034-0.002,0.061-0.004c0.027-0.004,0.056-0.008,0.087-0.014v0.283
		c-0.045,0.016-0.092,0.027-0.143,0.035c-0.05,0.008-0.092,0.014-0.126,0.014c-0.176,0-0.304-0.041-0.383-0.123
		c-0.052-0.053-0.089-0.129-0.112-0.229c-0.034,0.037-0.074,0.072-0.119,0.105C196.537,223.796,196.252,223.884,195.916,223.884z
		 M196.882,222.897v-0.252c-0.086,0.033-0.182,0.059-0.288,0.07l-0.427,0.053c-0.225,0.025-0.389,0.07-0.492,0.131
		c-0.104,0.063-0.155,0.146-0.155,0.252c0,0.131,0.042,0.23,0.126,0.301c0.085,0.072,0.205,0.107,0.36,0.107
		c0.245,0,0.452-0.057,0.622-0.168c0.116-0.078,0.192-0.168,0.23-0.266c0.007-0.02,0.012-0.049,0.016-0.09
		C196.879,222.995,196.882,222.948,196.882,222.897z"/>
	<path fill="#E5E5E4" stroke="#E5E5E4" stroke-width="0.25" stroke-miterlimit="10" d="M198.099,220.62h0.233h0.233v1.174
		c0.204-0.252,0.467-0.375,0.79-0.373c0.362,0,0.649,0.105,0.861,0.314c0.211,0.211,0.317,0.494,0.317,0.85
		c0,0.406-0.107,0.723-0.32,0.953c-0.213,0.23-0.509,0.346-0.887,0.346c-0.313,0-0.561-0.102-0.746-0.303l-0.044-0.049v0.287h-0.438
		V220.62z M199.303,223.544c0.244,0,0.428-0.078,0.554-0.232s0.189-0.379,0.189-0.676c0-0.291-0.061-0.508-0.182-0.646
		c-0.121-0.141-0.307-0.211-0.559-0.211c-0.257,0-0.445,0.08-0.563,0.238s-0.177,0.408-0.177,0.75c0,0.248,0.064,0.439,0.191,0.574
		C198.884,223.476,199.066,223.544,199.303,223.544z"/>
	<path fill="#E5E5E4" stroke="#E5E5E4" stroke-width="0.25" stroke-miterlimit="10" d="M201.095,220.62h0.233h0.233v3.199h-0.233
		h-0.233V220.62z"/>
	<path fill="#E5E5E4" stroke="#E5E5E4" stroke-width="0.25" stroke-miterlimit="10" d="M203.392,223.884
		c-0.392,0-0.7-0.105-0.925-0.314c-0.224-0.209-0.336-0.498-0.336-0.865c0-0.393,0.119-0.703,0.356-0.936
		c0.237-0.23,0.557-0.348,0.957-0.348c0.362,0,0.655,0.113,0.878,0.34s0.334,0.523,0.334,0.893l-0.005,0.139h-2.024
		c0.019,0.232,0.082,0.41,0.188,0.531c0.131,0.148,0.338,0.223,0.622,0.223c0.178,0,0.333-0.043,0.466-0.127
		s0.214-0.191,0.243-0.322h0.46c-0.068,0.256-0.207,0.451-0.414,0.584C203.985,223.815,203.718,223.884,203.392,223.884z
		 M204.17,222.478c-0.014-0.217-0.078-0.385-0.192-0.506c-0.126-0.133-0.311-0.199-0.554-0.199c-0.245,0-0.441,0.076-0.588,0.23
		c-0.116,0.121-0.186,0.277-0.209,0.475H204.17z"/>
</g>
<path fill="#BDCCE8" stroke="#0E0E0E" stroke-width="0.75" stroke-miterlimit="10" d="M300.062,220.313
	c0,0.99-0.803,1.793-1.793,1.793h-22.642c-0.99,0-1.793-0.803-1.793-1.793v-6.613c0-0.99,0.803-1.793,1.793-1.793h22.642
	c0.99,0,1.793,0.803,1.793,1.793V220.313z"/>
<rect x="257.021" y="217.734" fill="#8C8C8C" width="8.631" height="6.166"/>
</svg>
