<?xml version="1.0" encoding="utf-8"?>
<!-- Generator: Adobe Illustrator 16.0.0, SVG Export Plug-In . SVG Version: 6.00 Build 0)  -->
<!DOCTYPE svg PUBLIC "-//W3C//DTD SVG 1.1//EN" "http://www.w3.org/Graphics/SVG/1.1/DTD/svg11.dtd">
<svg version="1.1" id="图层_1" xmlns="http://www.w3.org/2000/svg" xmlns:xlink="http://www.w3.org/1999/xlink" x="0px" y="0px"
	 width="1275.59px" height="252px" viewBox="0 0 1275.59 252" enable-background="new 0 0 1275.59 252" xml:space="preserve">
<rect x="0" fill="#3D3D3F" width="1275.589" height="252"/>
<rect x="51.715" y="15.922" fill="#070606" width="772.469" height="216.902"/>
<rect x="6.605" y="20.526" fill-rule="evenodd" clip-rule="evenodd" fill="#4A494B" width="41.743" height="44.392"/>
<path fill="#232426" d="M1223.998,252h50.97V104.125h-50.97V252z M1263.278,146.678c0,5.314-4.348,9.662-9.661,9.662h-8.269
	c-5.313,0-9.661-4.348-9.661-9.662v-0.623c0-5.313,4.348-9.66,9.661-9.66h8.269c5.313,0,9.661,4.348,9.661,9.66V146.678z"/>
<path fill="#313133" d="M1228.469,163.049V200h42.028v-37.443c-5.293,3.898-12.903,6.342-21.361,6.342
	C1241.039,168.898,1233.723,166.658,1228.469,163.049"/>
<path fill="#2B2B2D" d="M1228.469,174.287v36.951h42.028v-37.441c-5.293,3.896-12.903,6.34-21.361,6.34
	C1241.039,180.137,1233.723,177.896,1228.469,174.287"/>
<path fill="#97A5C4" d="M1228.469,157.9v5.148c5.254,3.607,12.57,5.85,20.667,5.85c8.458,0,16.068-2.445,21.361-6.34v-5.15
	c-5.293,3.896-12.903,6.342-21.361,6.342C1241.039,163.75,1233.723,161.51,1228.469,157.9"/>
<path fill="#4A494B" d="M1227.766,176.666h-3.768V252h50.97v-75.334h-3.216c-6.052,3.967-13.687,6.34-21.993,6.34
	S1233.817,180.633,1227.766,176.666"/>
<path fill="#232426" d="M0,252h50.97V104.125H0V252z M39.28,146.678c0,5.314-4.347,9.662-9.661,9.662h-8.268
	c-5.314,0-9.662-4.348-9.662-9.662v-0.623c0-5.313,4.348-9.66,9.662-9.66h8.268c5.314,0,9.661,4.348,9.661,9.66V146.678z"/>
<path fill="#313133" d="M4.471,163.049V200h42.028v-37.443c-5.293,3.898-12.903,6.342-21.361,6.342
	C17.041,168.898,9.725,166.658,4.471,163.049"/>
<path fill="#2B2B2D" d="M4.471,174.287v36.951h42.028v-37.441c-5.293,3.896-12.903,6.34-21.361,6.34
	C17.041,180.137,9.725,177.896,4.471,174.287"/>
<path fill="#97A5C4" d="M4.471,157.9v5.148c5.254,3.607,12.57,5.85,20.667,5.85c8.458,0,16.068-2.445,21.361-6.34v-5.15
	c-5.293,3.896-12.903,6.342-21.361,6.342C17.041,163.75,9.725,161.51,4.471,157.9"/>
<path fill="#4A494B" d="M3.768,176.666H0V252h50.97v-75.334h-3.216c-6.052,3.967-13.687,6.34-21.993,6.34
	C17.454,183.006,9.819,180.633,3.768,176.666"/>
<path fill="#FBFBFD" d="M848.002,157.493l-1.294,2.164h0.962v9.678v0.861v0.777l-2.197-2.197c-0.199-0.197-0.313-0.473-0.313-0.754
	v-1.941c0.401-0.176,0.683-0.576,0.683-1.043c0-0.631-0.51-1.141-1.141-1.141c-0.63,0-1.141,0.51-1.141,1.141
	c0,0.559,0.402,1.021,0.933,1.119v1.865c0,0.457,0.185,0.902,0.509,1.225l2.361,2.363c0.197,0.195,0.307,0.459,0.307,0.736v0.291
	v0.768c-0.859,0.154-1.512,0.908-1.512,1.811c0,1.02,0.825,1.846,1.844,1.846c1.02,0,1.844-0.826,1.844-1.846
	c0-0.902-0.651-1.656-1.51-1.811v-0.768v-0.291v-2.15v-0.861c0-0.277,0.107-0.537,0.303-0.732l2.263-2.262
	c0.325-0.328,0.506-0.76,0.506-1.221v-1.635h0.866v-2.164h-2.163v2.164h0.631v1.635c0,0.283-0.11,0.549-0.312,0.75l-2.094,2.094
	v-8.307h0.961L848.002,157.493z"/>
<g>
	<path fill="#FBFBFD" d="M1116.154,13.625v-2.176h0.797l0.196,1.447l0.122,0.178c0.107,0.023,0.215,0.04,0.324,0.053
		c0.107,0.01,0.217,0.016,0.328,0.016c0.33,0,0.594-0.098,0.789-0.295c0.194-0.197,0.293-0.459,0.293-0.789
		c0-0.106-0.014-0.209-0.041-0.307c-0.025-0.098-0.064-0.187-0.113-0.268c-0.135-0.201-0.42-0.418-0.852-0.647
		c-0.213-0.106-0.377-0.197-0.49-0.269c-0.445-0.271-0.771-0.588-0.979-0.945c-0.205-0.357-0.309-0.787-0.309-1.287
		c0-0.742,0.203-1.34,0.607-1.79c0.405-0.451,0.947-0.677,1.627-0.677c0.284,0,0.582,0.039,0.893,0.119
		c0.311,0.081,0.625,0.198,0.943,0.35v1.985h-0.797l-0.172-1.302l-0.104-0.143c-0.077-0.035-0.161-0.061-0.245-0.077
		c-0.086-0.018-0.176-0.028-0.271-0.028c-0.324,0-0.578,0.096-0.762,0.283c-0.186,0.188-0.276,0.441-0.276,0.762
		c0,0.441,0.353,0.863,1.06,1.27c0.082,0.045,0.143,0.082,0.186,0.108c0.631,0.364,1.049,0.71,1.254,1.042
		c0.207,0.33,0.309,0.758,0.309,1.281c0,0.769-0.221,1.383-0.662,1.842s-1.037,0.688-1.785,0.688c-0.252,0-0.527-0.034-0.828-0.104
		S1116.548,13.771,1116.154,13.625"/>
	<path fill="#FBFBFD" d="M1120.871,8.135h2.571v0.58l-0.435,0.08l-0.08,0.143l0.883,3.041l0.853-3.029l-0.087-0.154l-0.461-0.08
		v-0.58h1.826v0.58l-0.474,0.115l-1.663,5.322c-0.225,0.717-0.516,1.291-0.875,1.725s-0.721,0.65-1.084,0.65
		c-0.237,0-0.439-0.109-0.606-0.327c-0.169-0.218-0.253-0.478-0.253-0.78c0-0.244,0.063-0.459,0.188-0.645
		c0.125-0.186,0.295-0.314,0.508-0.387l0.73,0.951c0.129-0.106,0.248-0.25,0.359-0.43c0.109-0.18,0.217-0.406,0.319-0.676
		l-1.697-5.383l-0.522-0.137V8.135z"/>
	<path fill="#FBFBFD" d="M1129.77,8.244v1.795h-0.616l-0.114-0.929l-0.111-0.161c-0.117-0.072-0.225-0.125-0.328-0.161
		c-0.104-0.034-0.203-0.052-0.297-0.052c-0.203,0-0.361,0.058-0.48,0.17c-0.117,0.112-0.174,0.264-0.174,0.451
		c0,0.332,0.257,0.629,0.771,0.889c0.167,0.084,0.298,0.152,0.39,0.207c0.451,0.252,0.756,0.5,0.92,0.745
		c0.164,0.243,0.246,0.556,0.246,0.936c0,0.544-0.188,1.001-0.564,1.37c-0.377,0.371-0.848,0.558-1.419,0.558
		c-0.271,0-0.56-0.029-0.865-0.087c-0.308-0.057-0.628-0.143-0.963-0.258v-1.963h0.616l0.105,1.073l0.096,0.149
		c0.152,0.1,0.301,0.174,0.451,0.222s0.299,0.071,0.451,0.071c0.195,0,0.351-0.062,0.467-0.184c0.117-0.123,0.174-0.287,0.174-0.494
		c0-0.297-0.201-0.563-0.604-0.797c-0.089-0.054-0.156-0.094-0.2-0.121c-0.624-0.375-1.03-0.693-1.222-0.954
		c-0.189-0.263-0.283-0.578-0.283-0.95c0-0.547,0.174-0.99,0.526-1.33c0.351-0.342,0.813-0.512,1.388-0.512
		c0.219,0,0.463,0.026,0.732,0.078C1129.131,8.059,1129.434,8.137,1129.77,8.244"/>
	<path fill="#FBFBFD" d="M1131.031,9.121h-0.615V8.582l0.736-0.631l0.541-1.365h0.762v1.67h1.306v0.865h-1.306v2.742
		c0,0.402,0.059,0.673,0.171,0.813c0.114,0.139,0.331,0.21,0.656,0.21c0.066,0,0.14-0.007,0.218-0.019
		c0.078-0.011,0.166-0.028,0.261-0.051v0.677c-0.306,0.157-0.591,0.276-0.857,0.358s-0.505,0.124-0.711,0.124
		c-0.227,0-0.428-0.048-0.604-0.144c-0.176-0.097-0.313-0.231-0.41-0.408c-0.053-0.096-0.09-0.231-0.112-0.41
		c-0.022-0.178-0.034-0.459-0.034-0.846V9.121z"/>
	<path fill="#FBFBFD" d="M1138.549,12.248v1.085c-0.329,0.225-0.664,0.392-1.008,0.501c-0.344,0.11-0.707,0.164-1.09,0.164
		c-0.715,0-1.283-0.273-1.705-0.818c-0.42-0.545-0.631-1.278-0.631-2.199c0-0.922,0.219-1.663,0.652-2.223
		c0.431-0.561,1.004-0.841,1.717-0.841c0.663,0,1.176,0.257,1.541,0.769c0.365,0.513,0.547,1.234,0.547,2.168v0.15h-2.959
		c0.008,0.581,0.125,1.039,0.35,1.375c0.225,0.338,0.525,0.506,0.898,0.506c0.291,0,0.574-0.053,0.852-0.157
		C1137.99,12.622,1138.268,12.463,1138.549,12.248 M1137.041,10.264c0-0.543-0.051-0.943-0.157-1.199
		c-0.108-0.256-0.271-0.385-0.491-0.385c-0.249,0-0.436,0.129-0.563,0.388c-0.125,0.258-0.188,0.642-0.188,1.149v0.047H1137.041z"/>
	<path fill="#FBFBFD" d="M1143.738,8.783c0.359-0.278,0.682-0.488,0.965-0.625c0.281-0.139,0.525-0.207,0.736-0.207
		c0.427,0,0.742,0.172,0.943,0.514s0.302,0.882,0.302,1.621v2.988l0.083,0.148l0.475,0.059v0.625h-2.414v-0.625l0.334-0.059
		l0.105-0.148v-2.506c0-0.514-0.066-0.867-0.199-1.06c-0.133-0.194-0.365-0.29-0.702-0.29c-0.12,0-0.22,0.007-0.299,0.021
		c-0.081,0.015-0.151,0.034-0.216,0.061v3.774l0.104,0.16l0.379,0.064v0.607h-2.295v-0.647l0.311-0.024l0.102-0.2v-2.616
		c0-0.421-0.068-0.725-0.203-0.914s-0.355-0.285-0.656-0.285h-0.156c-0.086,0-0.154,0.004-0.201,0.008
		c-0.047,0.007-0.09,0.015-0.131,0.027v3.82l0.109,0.148l0.319,0.059v0.625h-2.401v-0.625l0.443-0.059l0.097-0.148V9.208h-0.54
		V8.629l1.477-0.678h0.496v0.764c0.324-0.26,0.609-0.453,0.861-0.578c0.25-0.123,0.479-0.186,0.682-0.186
		c0.23,0,0.431,0.065,0.604,0.197C1143.422,8.28,1143.584,8.492,1143.738,8.783"/>
	<polygon fill="#FBFBFD" points="1150.202,8.111 1152.574,8.111 1152.574,8.656 1152.307,8.736 1152.273,8.875 1152.961,10.16 
		1153.664,8.818 1153.303,8.715 1153.303,8.111 1154.968,8.111 1154.968,8.771 1154.469,8.818 1153.363,10.642 1154.711,13.188 
		1155.139,13.31 1155.139,13.906 1152.863,13.906 1152.863,13.412 1153.125,13.281 1153.158,13.166 1152.402,11.744 
		1151.619,13.223 1151.971,13.31 1151.971,13.906 1150.202,13.906 1150.202,13.31 1150.764,13.143 1151.971,11.191 1150.684,8.818 
		1150.202,8.771 	"/>
	<path fill="#FBFBFD" d="M1158.34,9.747c0.583,0.046,1.033,0.24,1.35,0.583c0.314,0.342,0.473,0.805,0.473,1.391
		c0,0.672-0.234,1.23-0.703,1.675c-0.471,0.444-1.07,0.665-1.803,0.665c-0.657,0-1.178-0.145-1.562-0.436
		c-0.386-0.291-0.577-0.678-0.577-1.164c0-0.299,0.07-0.539,0.213-0.723c0.141-0.184,0.327-0.276,0.559-0.276
		c0.077,0,0.158,0.009,0.238,0.029c0.082,0.019,0.165,0.048,0.253,0.086l0.29,1.543c0.107,0.03,0.203,0.054,0.281,0.069
		c0.08,0.015,0.149,0.023,0.209,0.023c0.306,0,0.555-0.134,0.744-0.4c0.19-0.266,0.285-0.613,0.285-1.047
		c0-0.436-0.108-0.779-0.328-1.029c-0.22-0.251-0.52-0.375-0.898-0.375c-0.102,0-0.199,0.008-0.293,0.022
		c-0.096,0.015-0.189,0.038-0.281,0.068V9.432c0.061,0.012,0.119,0.02,0.174,0.025c0.057,0.006,0.11,0.009,0.16,0.009
		c0.392,0,0.699-0.118,0.92-0.353c0.223-0.234,0.334-0.559,0.334-0.968c0-0.436-0.1-0.778-0.303-1.029
		c-0.201-0.25-0.479-0.376-0.833-0.376c-0.019,0-0.043,0.002-0.075,0.006c-0.033,0.004-0.061,0.006-0.08,0.006v1.641
		c-0.099,0.069-0.197,0.12-0.297,0.152c-0.098,0.033-0.199,0.049-0.303,0.049c-0.244,0-0.438-0.088-0.582-0.264
		c-0.143-0.176-0.214-0.41-0.214-0.699c0-0.51,0.2-0.928,0.601-1.252c0.401-0.324,0.928-0.486,1.578-0.486
		c0.629,0,1.131,0.18,1.506,0.541c0.375,0.362,0.561,0.84,0.561,1.432c0,0.486-0.139,0.893-0.414,1.219
		C1159.244,9.411,1158.851,9.633,1158.34,9.747"/>
	<path fill="#FBFBFD" d="M1167.084,6.024h3.811v1.515h-2.955v1.635c0.229-0.111,0.447-0.195,0.658-0.25
		c0.209-0.056,0.41-0.084,0.604-0.084c0.622,0,1.125,0.219,1.506,0.654c0.383,0.436,0.574,1.011,0.574,1.721
		c0,0.865-0.244,1.553-0.73,2.066c-0.486,0.512-1.145,0.769-1.975,0.769c-0.562,0-1.018-0.146-1.367-0.438
		c-0.348-0.293-0.523-0.665-0.523-1.117c0-0.309,0.077-0.565,0.23-0.771c0.153-0.203,0.35-0.307,0.586-0.307
		c0.076,0,0.156,0.011,0.244,0.035c0.086,0.022,0.183,0.057,0.291,0.104l0.254,1.646c0.01,0,0.021,0.002,0.043,0.005
		c0.08,0.013,0.141,0.017,0.184,0.017c0.365,0,0.666-0.153,0.902-0.465c0.232-0.309,0.352-0.707,0.352-1.192
		c0-0.47-0.137-0.853-0.408-1.144c-0.27-0.293-0.628-0.439-1.072-0.439c-0.184,0-0.377,0.023-0.578,0.072
		c-0.201,0.047-0.412,0.117-0.629,0.209V6.024z"/>
	<path fill="#FBFBFD" d="M1174.549,5.88c0.756,0,1.35,0.364,1.787,1.091c0.436,0.727,0.654,1.723,0.654,2.988
		s-0.219,2.264-0.654,2.994c-0.438,0.73-1.031,1.097-1.787,1.097c-0.742,0-1.33-0.364-1.758-1.093
		c-0.43-0.729-0.643-1.729-0.643-2.998c0-1.266,0.213-2.262,0.641-2.988S1173.803,5.88,1174.549,5.88 M1174.559,6.643
		c-0.287,0-0.502,0.271-0.64,0.813c-0.138,0.542-0.207,1.371-0.207,2.493c0,1.158,0.067,2.001,0.204,2.529
		c0.135,0.528,0.348,0.792,0.643,0.792c0.299,0,0.516-0.264,0.654-0.792c0.137-0.528,0.205-1.371,0.205-2.529
		c0-1.145-0.068-1.981-0.209-2.511C1175.071,6.908,1174.854,6.643,1174.559,6.643"/>
	<g>
		<path fill="#FDFDFE" stroke="#FBFBFD" stroke-miterlimit="10" d="M1162.904,9.614c0.227-0.119,0.453-0.173,0.703-0.173
			c1.104,0,1.86,0.909,1.86,1.937c0,1.233-0.833,2.25-2.099,2.25c-1.05,0-2.013-0.941-2.013-2.574c0-1.818,1.071-3.646,3.917-4.209
			l0.054,0.228c-0.39,0.065-0.769,0.185-1.169,0.356c-0.746,0.325-1.698,1.05-2.066,2.564L1162.904,9.614z M1162.038,10.253
			c-0.043,0.205-0.054,0.455-0.054,0.746c0,1.299,0.529,2.391,1.59,2.391c1.027,0,1.299-0.994,1.299-1.73
			c0-0.801-0.443-1.785-1.591-1.785C1162.839,9.874,1162.406,10.036,1162.038,10.253z"/>
	</g>
	<g>
		<path fill="#FDFDFE" stroke="#FBFBFD" stroke-miterlimit="10" d="M1194.078,6.932v4.284h1.07v0.443h-1.07v0.725
			c0,0.758,0.032,0.898,0.951,0.975v0.15h-2.553v-0.15c0.996-0.076,1.061-0.185,1.061-0.963v-0.736h-2.791v-0.227
			c0.995-1.461,2.033-2.986,3.17-4.501H1194.078z M1193.537,11.216V7.905h-0.021c-0.779,0.995-1.504,2.088-2.24,3.311H1193.537z"/>
	</g>
	<g>
		<path fill="#FDFDFE" stroke="#FBFBFD" stroke-miterlimit="10" d="M1180.529,6.737h1.374l2.856,5.733l2.866-5.733h1.558v0.15
			c-1.006,0.098-1.104,0.206-1.061,1.288l0.076,3.841c0.033,1.114,0.076,1.255,1.093,1.342v0.15h-2.65v-0.15
			c0.952-0.076,0.984-0.217,0.974-1.342l-0.043-4.544h-0.043l-2.933,5.917h-0.097l-2.662-5.549h-0.021l-0.141,2.92
			c-0.032,0.51-0.043,0.877-0.043,1.169c0,1.038,0.107,1.331,1.114,1.429v0.15h-2.607v-0.15c0.671-0.055,0.897-0.238,0.984-0.672
			c0.075-0.324,0.163-0.973,0.238-2.088l0.151-1.979c0.011-0.292,0.021-0.53,0.021-0.725c0-0.769-0.184-0.909-1.006-1.007V6.737z"/>
	</g>
</g>
<path fill="#232426" d="M1195.271,46.172c0,0.553-0.447,1-1,1H985.605c-0.553,0-1-0.447-1-1V20.506c0-0.553,0.447-1,1-1h208.666
	c0.553,0,1,0.447,1,1V46.172z"/>
<g>
	<rect x="1210.982" y="8.915" fill-rule="evenodd" clip-rule="evenodd" fill="#1C1D20" width="64.607" height="67.614"/>
	<rect x="1212.818" y="8.915" fill-rule="evenodd" clip-rule="evenodd" fill="#4A494B" width="61.854" height="65.776"/>
	<path fill-rule="evenodd" clip-rule="evenodd" fill="#FFFFFF" d="M1235.854,49.624h4.186h4.743
		c-0.085,0.499-0.233,0.987-0.446,1.442h-15.77v-1.442H1235.854z M1239.748,48.199l-0.294-1.443h5.134
		c0.146,0.467,0.238,0.953,0.27,1.443H1239.748z M1235.854,48.199h-4.363v-1.443h4.363V48.199z M1231.492,45.313v-1.443h10.922
		c0.605,0.379,1.1,0.875,1.482,1.443H1231.492z M1231.492,42.444v-1.442h4.361h3.601h4.54c-0.391,0.576-0.906,1.073-1.549,1.442
		H1231.492z M1231.492,38.114h4.363v1.443h-4.363V38.114z M1228.566,36.689v-1.443h15.729c0.229,0.457,0.396,0.943,0.498,1.443
		H1228.566z M1244.908,38.114c-0.018,0.491-0.096,0.978-0.234,1.444h-4.928l0.293-1.444H1244.908z M1253.664,45.313h-4.238v-1.443
		h4.238V45.313z M1249.426,42.444v-1.442h8.445l0.553,1.442H1249.426z M1249.426,39.559v-1.444h7.338l0.553,1.444H1249.426z
		 M1246.451,36.689v-1.443h9.213l0.553,1.443H1246.451z M1258.434,42.444l0.565-1.442h8.206v1.442H1258.434z M1259.564,39.559
		l0.563-1.444h7.078v1.444H1259.564z M1260.684,36.689l0.564-1.443h9.033v1.443H1260.684z M1267.205,45.313h-4.061v-1.443h4.061
		V45.313z M1261.912,43.869l-0.5,1.443h-6.164l-0.523-1.443H1261.912z M1253.664,48.199h-4.238v-1.443h4.238V48.199z
		 M1267.205,48.199h-4.061v-1.443h4.061V48.199z M1260.914,46.756l-0.5,1.443h-4.117l-0.523-1.443H1260.914z M1253.664,51.066
		h-7.213v-1.442h7.213V51.066z M1270.281,51.066h-7.137v-1.442h7.137V51.066z M1259.922,49.624l-0.5,1.442h-2.084l-0.523-1.442
		H1259.922z M1253.664,54.009h-7.213V52.51h7.213V54.009z M1270.281,54.009h-7.137V52.51h7.137V54.009z M1258.922,52.51l-0.52,1.499
		l-0.543-1.499H1258.922z M1246.451,33.805v-1.408h8.119l0.539,1.408H1246.451z M1261.813,33.805l0.551-1.408h7.918v1.408H1261.813z
		 M1228.566,32.396v1.408h14.651c-0.911-0.855-2.19-1.408-3.833-1.408H1228.566z M1228.566,52.51v1.499h10.818
		c1.729-0.007,3.039-0.597,3.943-1.499H1228.566z M1216.473,32.396h10.036v1.408h-10.036V32.396z M1226.509,36.689h-10.036v-1.442
		h10.036V36.689z M1223.584,39.559h-4.262v-1.443h4.262V39.559z M1223.584,42.444h-4.262v-1.442h4.262V42.444z M1223.584,45.313
		h-4.262v-1.443h4.262V45.313z M1223.584,48.199h-4.262v-1.443h4.262V48.199z M1226.509,51.066h-10.036v-1.442h10.036V51.066z
		 M1226.509,54.009h-10.036V52.51h10.036V54.009z"/>
</g>
<rect x="986.074" y="22.688" fill="#3D3D3F" width="185.207" height="21.302"/>
<rect x="1172.148" y="22.688" fill="#C5D4ED" width="21.5" height="20.625"/>
<path fill="#1C1D20" d="M1019.746,33.34c0,3.231-2.619,5.852-5.852,5.852c-3.231,0-5.852-2.62-5.852-5.852s2.62-5.852,5.852-5.852
	C1017.127,27.488,1019.746,30.108,1019.746,33.34"/>
<path fill="#EFEEEE" d="M1018.902,33.34c0,2.766-2.242,5.008-5.008,5.008s-5.008-2.242-5.008-5.008s2.242-5.007,5.008-5.007
	S1018.902,30.574,1018.902,33.34"/>
<path fill="none" stroke="#CBCCCD" stroke-miterlimit="10" d="M1013.023,31.162c-0.865,0.348-1.477,1.189-1.477,2.178
	c0,1.297,1.051,2.35,2.348,2.35c1.298,0,2.35-1.053,2.35-2.35c0-0.988-0.612-1.83-1.477-2.178"/>
<rect x="1013.412" y="29.724" fill="#CBCCCD" width="0.965" height="3.001"/>
<path fill="#3D3D3F" d="M1008.83,41.922c-2.545-2.139-4.004-5.267-4.004-8.582s1.459-6.443,4.004-8.582l1.01,1.201
	c-2.189,1.84-3.445,4.53-3.445,7.381s1.256,5.541,3.445,7.381L1008.83,41.922z"/>
<path fill="none" stroke="#353537" stroke-miterlimit="10" d="M1006.323,40.571c-2.544-1.803-4.003-4.438-4.003-7.232
	s1.459-5.43,4.003-7.232l1.011,1.013c-2.189,1.551-3.445,3.817-3.445,6.22s1.256,4.669,3.445,6.22L1006.323,40.571z"/>
<path fill="none" stroke="#353537" stroke-miterlimit="10" d="M1021.926,40.571c2.545-1.803,4.004-4.438,4.004-7.232
	s-1.459-5.43-4.004-7.232l-1.01,1.013c2.189,1.551,3.445,3.817,3.445,6.22s-1.256,4.669-3.445,6.22L1021.926,40.571z"/>
<polyline fill="none" stroke="#FFFFFF" stroke-miterlimit="10" points="1031.084,27.891 1031.084,25.058 1089.418,25.058 
	1089.418,27.891 "/>
<polyline fill="none" stroke="#FFFFFF" stroke-miterlimit="10" points="1031.084,38.808 1031.084,41.641 1089.418,41.641 
	1089.418,38.808 "/>
<line fill="none" stroke="#FFFFFF" stroke-miterlimit="10" x1="1035.334" y1="27.683" x2="1035.334" y2="39.266"/>
<line fill="none" stroke="#FFFFFF" stroke-miterlimit="10" x1="1032.918" y1="33.475" x2="1035.334" y2="33.475"/>
<rect x="1030.605" y="32.141" fill="#FFFFFF" width="3.082" height="2.729"/>
<rect x="1036.5" y="27.683" fill="#FFFFFF" width="3.084" height="2.729"/>
<rect x="1036.5" y="36.537" fill="#FFFFFF" width="3.084" height="2.729"/>
<rect x="1095.917" y="27.172" fill="#848484" width="12.667" height="12.667"/>
<rect x="847.917" y="56.862" fill="#474849" stroke="#070606" stroke-miterlimit="10" width="347.354" height="39.333"/>
<g>
	<path fill="#E5E5E4" d="M897.201,62.059h-10.214l-0.335,1.758h2.408h0.484h4.403c0,0,0.296,5.001-2.661,5.625h-2.934l0.5-4.512
		h-2.429l-0.756,5.996h5.766C898.236,69.832,897.201,62.059,897.201,62.059z"/>
	<path fill="#E5E5E4" d="M918.64,62.059h-10.214l-0.336,1.758h2.408h0.485h4.402c0,0,0.296,5.001-2.66,5.625h-2.933l0.499-4.512
		h-2.429l-0.757,5.996h5.768C919.675,69.832,918.64,62.059,918.64,62.059z"/>
	<polygon fill="#E5E5E4" points="899.563,62.108 900.836,70.975 902.535,70.975 908.299,62.108 905.509,62.108 903.143,66.17 
		901.928,66.236 901.14,62.108 	"/>
	<rect x="895.741" y="62.108" fill="#E5E5E4" width="4.073" height="1.754"/>
</g>
<path fill="#E5E5E4" d="M900.955,74.402c-9.175,0-16.611,1.094-16.611,2.443c0,1.348,7.437,2.44,16.611,2.44
	c9.174,0,16.611-1.093,16.611-2.44C917.566,75.496,910.129,74.402,900.955,74.402z M901.425,77.25c-1.726,0-3.126-0.307-3.126-0.684
	s1.4-0.685,3.126-0.685s3.126,0.308,3.126,0.685S903.15,77.25,901.425,77.25z"/>
<path fill="#E5E5E4" d="M977.699,60.748h-32c-1.104,0-2,0.895-2,2v19.166c0,1.104,0.896,2,2,2h32c1.104,0,2-0.896,2-2V62.748
	C979.699,61.643,978.804,60.748,977.699,60.748z M958.705,71.747c0,0-0.416,1.375-1.709,1.813l1.417,4.813h-2.083l-1.5-4.813h-1.938
	c0,0-0.209,0.084-0.417,0.354v4.458h-2v-4.458c0,0,0.167-1.376,1.396-2.063h4.542c0,0,0.896-2.084,0-3.5h-5.729v-2.063h6
	c0,0,1.5,0.375,2.021,2.083V71.747z M972.924,76.706c-0.531,1.375-1.563,1.469-1.563,1.469h-2.844
	c-1.094-0.281-1.375-1.375-1.375-1.375c-0.625,1.25-1.594,1.375-1.594,1.375h-2.875c-1.156-0.438-1.469-1.875-1.469-1.875v-9.875
	h1.375v9.75h3.656v-9.75h1.563v9.75h3.594v-9.75h1.531V76.706z"/>
<path fill="#E5E5E4" d="M884.395,79.71v7.158h33.119V79.71H884.395z M892.071,85.773h-0.317h-0.321v-3.865h-0.003l-1.371,3.865
	h-0.318h-0.318l-1.376-3.854h-0.001v3.854h-0.318h-0.321v-4.567h0.474h0.474l1.393,3.886l1.38-3.886h0.473h0.474V85.773z
	 M899.186,84.098c0,0.564-0.168,1.005-0.506,1.322c-0.338,0.318-0.807,0.478-1.407,0.478c-0.625,0-1.101-0.153-1.428-0.458
	c-0.326-0.306-0.489-0.753-0.489-1.342v-2.892h0.327h0.331v2.845c0,0.425,0.107,0.748,0.322,0.969
	c0.213,0.221,0.526,0.33,0.937,0.33c0.411,0,0.722-0.109,0.936-0.33c0.213-0.221,0.319-0.544,0.319-0.969v-2.845h0.328h0.33V84.098z
	 M905.227,85.5v0.273H902.1v-4.567h0.329h0.33v4.021h2.468V85.5z M910.981,81.479v0.273h-1.646v4.021h-0.328h-0.33v-4.021h-1.646
	v-0.273v-0.272h3.95V81.479z M914.504,85.773h-0.328h-0.33v-4.567h0.328h0.33V85.773z"/>
<g>
	<path fill="#E5E5E4" d="M888.481,88.042h0.2h1.184c0.315,0,0.544,0.068,0.684,0.206c0.141,0.136,0.188,0.337,0.141,0.602
		c-0.045,0.261-0.167,0.464-0.364,0.61c-0.05,0.037-0.103,0.069-0.157,0.098l0.062,0.032c0.163,0.104,0.226,0.278,0.188,0.524
		l-0.079,0.542c-0.013,0.089-0.013,0.153,0.001,0.192s0.047,0.072,0.1,0.101l-0.012,0.065h-0.495
		c-0.007-0.025-0.006-0.088,0.001-0.191c0.008-0.102,0.02-0.216,0.036-0.342l0.032-0.234c0.027-0.185,0.006-0.316-0.065-0.395
		c-0.071-0.08-0.203-0.119-0.396-0.119h-0.955l-0.227,1.283h-0.2h-0.202L888.481,88.042z M888.646,89.386h0.996
		c0.186,0,0.33-0.041,0.43-0.123c0.102-0.081,0.167-0.211,0.198-0.387c0.03-0.172,0.007-0.297-0.07-0.377
		c-0.077-0.079-0.214-0.119-0.411-0.119h-0.965L888.646,89.386z"/>
	<path fill="#E5E5E4" d="M890.941,91.017l0.523-2.975h2.176l-0.031,0.178l-0.031,0.179h-1.772l-0.16,0.908h1.618l-0.031,0.179
		l-0.031,0.178h-1.619l-0.176,0.997h1.795l-0.031,0.179l-0.031,0.178H890.941z"/>
	<path fill="#E5E5E4" d="M896.364,89.922c-0.116,0.366-0.308,0.654-0.574,0.862c-0.267,0.209-0.576,0.313-0.929,0.313
		c-0.41,0-0.711-0.141-0.904-0.424c-0.194-0.282-0.249-0.662-0.164-1.142c0.084-0.479,0.277-0.86,0.581-1.144
		c0.303-0.284,0.667-0.426,1.094-0.426c0.336,0,0.596,0.086,0.781,0.258c0.186,0.174,0.272,0.411,0.263,0.715h-0.389
		c-0.003-0.197-0.067-0.35-0.193-0.457c-0.126-0.106-0.303-0.16-0.531-0.16c-0.298,0-0.555,0.109-0.77,0.328
		c-0.216,0.22-0.356,0.516-0.422,0.886c-0.069,0.394-0.04,0.694,0.088,0.9c0.127,0.206,0.347,0.31,0.658,0.31
		c0.23,0,0.435-0.071,0.612-0.213c0.177-0.143,0.313-0.346,0.41-0.606H896.364z"/>
	<path fill="#E5E5E4" d="M896.965,90.665c-0.216-0.288-0.283-0.666-0.2-1.134c0.083-0.47,0.283-0.849,0.601-1.137
		c0.318-0.289,0.693-0.433,1.125-0.433c0.434,0,0.759,0.144,0.975,0.433c0.215,0.288,0.281,0.667,0.199,1.137
		c-0.083,0.468-0.283,0.846-0.6,1.134c-0.317,0.288-0.693,0.432-1.127,0.432C897.506,91.097,897.182,90.953,896.965,90.665z
		 M898.809,90.407c0.23-0.223,0.377-0.514,0.44-0.876s0.021-0.655-0.13-0.879c-0.151-0.224-0.382-0.335-0.691-0.335
		s-0.579,0.111-0.809,0.335c-0.229,0.224-0.376,0.517-0.439,0.879c-0.064,0.362-0.021,0.653,0.131,0.876
		c0.15,0.223,0.381,0.334,0.689,0.334C898.311,90.741,898.58,90.63,898.809,90.407z"/>
	<path fill="#E5E5E4" d="M900.452,88.042h0.2h1.184c0.315,0,0.544,0.068,0.684,0.206c0.141,0.136,0.188,0.337,0.141,0.602
		c-0.045,0.261-0.167,0.464-0.364,0.61c-0.05,0.037-0.103,0.069-0.157,0.098l0.062,0.032c0.163,0.104,0.226,0.278,0.188,0.524
		l-0.079,0.542c-0.013,0.089-0.013,0.153,0.001,0.192c0.013,0.039,0.047,0.072,0.1,0.101l-0.012,0.065h-0.495
		c-0.007-0.025-0.006-0.088,0.001-0.191c0.008-0.102,0.02-0.216,0.036-0.342l0.032-0.234c0.027-0.185,0.006-0.316-0.065-0.395
		c-0.071-0.08-0.203-0.119-0.396-0.119h-0.955l-0.227,1.283h-0.2h-0.202L900.452,88.042z M900.617,89.386h0.996
		c0.186,0,0.33-0.041,0.43-0.123c0.102-0.081,0.167-0.211,0.198-0.387c0.03-0.172,0.007-0.297-0.07-0.377
		c-0.077-0.079-0.214-0.119-0.411-0.119h-0.965L900.617,89.386z"/>
	<path fill="#E5E5E4" d="M903.416,88.042h0.2h1.021c0.378,0,0.655,0.135,0.83,0.404c0.176,0.269,0.224,0.631,0.144,1.085
		c-0.08,0.453-0.258,0.813-0.533,1.083c-0.276,0.268-0.609,0.402-0.997,0.402h-0.989h-0.2L903.416,88.042z M903.354,90.673h0.736
		c0.289,0,0.529-0.1,0.722-0.299c0.191-0.197,0.32-0.479,0.384-0.843c0.064-0.365,0.039-0.647-0.077-0.847
		c-0.115-0.199-0.313-0.299-0.59-0.299h-0.771L903.354,90.673z"/>
	<path fill="#E5E5E4" d="M906.394,91.017l-0.255-2.975h0.217h0.219l0.115,2.352c0.003,0.039,0.004,0.076,0.004,0.111
		c0,0.036-0.002,0.062-0.004,0.076h-0.001c0.003-0.018,0.012-0.045,0.024-0.081c0.014-0.036,0.027-0.071,0.043-0.106l1.044-2.352
		h0.227h0.227l0.213,2.339c0.004,0.036,0.007,0.073,0.007,0.111s-0.002,0.065-0.005,0.083c0.003-0.015,0.01-0.041,0.022-0.078
		c0.014-0.039,0.027-0.077,0.044-0.116l0.948-2.339h0.217h0.217l-1.303,2.975h-0.217h-0.217l-0.24-2.301
		c-0.004-0.039-0.006-0.078-0.008-0.115c-0.001-0.037,0-0.064,0.002-0.078l0,0c-0.004,0.017-0.012,0.045-0.024,0.081
		c-0.014,0.037-0.029,0.075-0.046,0.112l-1.037,2.301h-0.217H906.394z"/>
	<path fill="#E5E5E4" d="M910.348,88.042h0.199h1.184c0.316,0,0.544,0.068,0.685,0.206c0.141,0.136,0.187,0.337,0.141,0.602
		c-0.046,0.261-0.167,0.464-0.364,0.61c-0.05,0.037-0.103,0.069-0.157,0.098l0.062,0.032c0.162,0.104,0.225,0.278,0.188,0.524
		l-0.079,0.542c-0.014,0.089-0.014,0.153,0,0.192s0.047,0.072,0.1,0.101l-0.012,0.065h-0.494c-0.007-0.025-0.007-0.088,0.001-0.191
		c0.007-0.102,0.019-0.216,0.036-0.342l0.031-0.234c0.027-0.185,0.006-0.316-0.064-0.395c-0.072-0.08-0.203-0.119-0.396-0.119
		h-0.955l-0.227,1.283h-0.199h-0.203L910.348,88.042z M910.513,89.386h0.995c0.187,0,0.33-0.041,0.431-0.123
		c0.101-0.081,0.167-0.211,0.198-0.387c0.029-0.172,0.006-0.297-0.07-0.377c-0.077-0.079-0.215-0.119-0.411-0.119h-0.966
		L910.513,89.386z"/>
</g>
<path fill="#474849" stroke="#0C0C0C" stroke-width="2" stroke-miterlimit="10" d="M1193.75,233.412c0,1.19-0.895,2.156-2,2.156
	h-286.5c-1.104,0-2-0.966-2-2.156V110.541c0-1.191,0.896-2.156,2-2.156h286.5c1.105,0,2,0.965,2,2.156V233.412z"/>
<g>
	<path fill="#E5E5E4" stroke="#E5E5E4" stroke-width="0.25" stroke-miterlimit="10" d="M941,86.945h0.285h1.459
		c0.539,0,0.969,0.161,1.287,0.483c0.318,0.323,0.478,0.757,0.478,1.303c0,0.544-0.163,0.977-0.489,1.298
		c-0.326,0.322-0.768,0.483-1.321,0.483h-1.413H941V86.945z M941.574,90.101h1.052c0.411,0,0.729-0.119,0.954-0.357
		c0.225-0.237,0.337-0.575,0.337-1.012c0-0.438-0.108-0.777-0.323-1.016c-0.217-0.239-0.521-0.358-0.919-0.358h-1.101V90.101z"/>
	<path fill="#E5E5E4" stroke="#E5E5E4" stroke-width="0.25" stroke-miterlimit="10" d="M944.91,86.945h0.318h0.321l1.216,3.05h0.004
		l1.213-3.05h0.318h0.318l-1.546,3.567h-0.309h-0.31L944.91,86.945z"/>
	<path fill="#E5E5E4" stroke="#E5E5E4" stroke-width="0.25" stroke-miterlimit="10" d="M949.217,86.945h0.285h1.459
		c0.539,0,0.968,0.161,1.286,0.483c0.319,0.323,0.478,0.757,0.478,1.303c0,0.544-0.162,0.977-0.488,1.298
		c-0.327,0.322-0.768,0.483-1.322,0.483h-1.412h-0.285V86.945z M949.791,90.101h1.051c0.412,0,0.73-0.119,0.955-0.357
		c0.225-0.237,0.336-0.575,0.336-1.012c0-0.438-0.107-0.777-0.323-1.016c-0.216-0.239-0.521-0.358-0.919-0.358h-1.1V90.101z"/>
	<path fill="#E5E5E4" stroke="#E5E5E4" stroke-width="0.25" stroke-miterlimit="10" d="M954.519,89.444h-1.279v-0.366h1.279v-1.075
		h0.437v1.075h1.279v0.366h-1.279v1.075h-0.437V89.444z"/>
	<path fill="#E5E5E4" stroke="#E5E5E4" stroke-width="0.25" stroke-miterlimit="10" d="M956.982,86.945h0.285h1.689
		c0.451,0,0.794,0.082,1.029,0.246c0.234,0.164,0.352,0.405,0.352,0.722c0,0.313-0.122,0.557-0.367,0.733
		c-0.061,0.044-0.127,0.082-0.199,0.116l0.096,0.039c0.258,0.124,0.393,0.334,0.401,0.629l0.023,0.65
		c0.004,0.106,0.021,0.184,0.049,0.23s0.085,0.087,0.167,0.121v0.078h-0.706c-0.015-0.029-0.03-0.105-0.046-0.229
		s-0.027-0.26-0.035-0.41l-0.013-0.281c-0.007-0.222-0.072-0.38-0.193-0.475s-0.319-0.143-0.595-0.143h-1.363v1.539h-0.285h-0.289
		V86.945z M957.557,88.557h1.422c0.266,0,0.459-0.049,0.582-0.146c0.124-0.099,0.186-0.253,0.186-0.465
		c0-0.206-0.064-0.356-0.195-0.452c-0.129-0.095-0.335-0.143-0.616-0.143h-1.378V88.557z"/>
	<path fill="#E5E5E4" stroke="#E5E5E4" stroke-width="0.25" stroke-miterlimit="10" d="M962.377,90.583
		c-0.438,0-0.781-0.116-1.031-0.35c-0.25-0.232-0.375-0.555-0.375-0.966c0-0.437,0.133-0.784,0.396-1.042
		c0.266-0.259,0.621-0.388,1.068-0.388c0.404,0,0.73,0.126,0.979,0.379c0.248,0.252,0.373,0.584,0.373,0.995l-0.007,0.155h-2.257
		c0.021,0.259,0.092,0.456,0.211,0.592c0.146,0.165,0.377,0.248,0.692,0.248c0.198,0,0.371-0.047,0.52-0.141
		c0.147-0.094,0.239-0.214,0.271-0.359h0.514c-0.077,0.285-0.231,0.502-0.462,0.651S962.741,90.583,962.377,90.583z M963.244,89.016
		c-0.015-0.241-0.086-0.429-0.213-0.563c-0.141-0.148-0.347-0.224-0.618-0.224c-0.274,0-0.492,0.086-0.655,0.258
		c-0.13,0.134-0.207,0.311-0.234,0.529H963.244z"/>
	<path fill="#E5E5E4" stroke="#E5E5E4" stroke-width="0.25" stroke-miterlimit="10" d="M965.23,90.513l-1.111-3.567h0.309h0.313
		l0.756,2.82c0.014,0.047,0.025,0.092,0.033,0.134c0.01,0.043,0.014,0.073,0.014,0.092h-0.001c0-0.021,0.005-0.054,0.015-0.098
		c0.01-0.043,0.021-0.086,0.035-0.128l0.898-2.82h0.322h0.324l0.893,2.806c0.016,0.043,0.027,0.088,0.037,0.133
		c0.01,0.046,0.014,0.079,0.014,0.1l0,0c0-0.018,0.004-0.049,0.014-0.095c0.008-0.045,0.02-0.091,0.033-0.138l0.766-2.806h0.309
		h0.31l-1.112,3.567h-0.309h-0.309l-0.922-2.76c-0.016-0.047-0.029-0.093-0.041-0.138c-0.012-0.046-0.017-0.077-0.017-0.095h-0.001
		c0,0.021-0.005,0.054-0.014,0.098c-0.01,0.045-0.023,0.09-0.038,0.135l-0.9,2.76h-0.31H965.23z"/>
	<path fill="#E5E5E4" stroke="#E5E5E4" stroke-width="0.25" stroke-miterlimit="10" d="M970.063,87.916h0.245h0.249v0.444
		c0.044-0.07,0.091-0.133,0.141-0.189c0.197-0.222,0.438-0.333,0.725-0.333c0.049,0,0.098,0.008,0.148,0.022v0.446l-0.107-0.003
		c-0.281,0-0.498,0.071-0.651,0.213s-0.229,0.344-0.229,0.605v1.391h-0.26h-0.26V87.916z"/>
	<path fill="#E5E5E4" stroke="#E5E5E4" stroke-width="0.25" stroke-miterlimit="10" d="M971.971,86.945h0.532v0.495h-0.532V86.945z
		 M971.977,87.916h0.26h0.261v2.597h-0.261h-0.26V87.916z"/>
	<path fill="#E5E5E4" stroke="#E5E5E4" stroke-width="0.25" stroke-miterlimit="10" d="M974.408,90.511
		c-0.177,0.022-0.306,0.033-0.387,0.033c-0.227,0-0.387-0.042-0.48-0.126s-0.141-0.229-0.141-0.435v-1.711h-0.427v-0.356h0.427
		v-0.729h0.521v0.729h0.487v0.356h-0.487v1.711c0,0.059,0.027,0.104,0.082,0.139s0.128,0.051,0.222,0.051h0.184V90.511z"/>
	<path fill="#E5E5E4" stroke="#E5E5E4" stroke-width="0.25" stroke-miterlimit="10" d="M975.731,90.583
		c-0.303,0-0.542-0.068-0.72-0.204c-0.177-0.136-0.266-0.319-0.266-0.551c0-0.232,0.084-0.418,0.25-0.556s0.41-0.224,0.729-0.257
		l0.708-0.075c0.057-0.005,0.111-0.014,0.164-0.024c0.067-0.015,0.119-0.044,0.156-0.088c0.036-0.044,0.055-0.099,0.055-0.165
		v-0.021c0-0.14-0.063-0.248-0.188-0.326c-0.125-0.079-0.3-0.118-0.523-0.118c-0.213,0-0.381,0.042-0.5,0.125
		c-0.121,0.083-0.193,0.208-0.219,0.373h-0.479c0.024-0.285,0.145-0.499,0.358-0.643c0.213-0.143,0.52-0.215,0.918-0.215
		c0.375,0,0.662,0.068,0.857,0.205c0.197,0.137,0.295,0.336,0.295,0.599v1.427c0,0.044,0.016,0.079,0.048,0.105
		c0.032,0.027,0.075,0.04,0.128,0.04c0.016,0,0.039-0.001,0.068-0.005c0.029-0.003,0.063-0.008,0.097-0.015v0.316
		c-0.05,0.016-0.103,0.028-0.159,0.038c-0.055,0.01-0.103,0.015-0.141,0.015c-0.197,0-0.34-0.045-0.428-0.136
		c-0.059-0.06-0.1-0.145-0.125-0.255c-0.037,0.04-0.082,0.079-0.133,0.116C976.424,90.485,976.106,90.583,975.731,90.583z
		 M976.809,89.483v-0.281c-0.097,0.039-0.203,0.065-0.32,0.08l-0.477,0.059c-0.25,0.028-0.434,0.078-0.549,0.146
		s-0.174,0.162-0.174,0.28c0,0.146,0.047,0.258,0.142,0.336c0.095,0.079,0.229,0.118,0.401,0.118c0.273,0,0.505-0.063,0.693-0.188
		c0.129-0.087,0.215-0.186,0.257-0.296c0.008-0.021,0.014-0.054,0.018-0.1C976.806,89.592,976.809,89.54,976.809,89.483z"/>
	<path fill="#E5E5E4" stroke="#E5E5E4" stroke-width="0.25" stroke-miterlimit="10" d="M978.166,86.945h0.26h0.26v1.308
		c0.228-0.279,0.521-0.418,0.881-0.415c0.404,0,0.725,0.117,0.961,0.351c0.235,0.234,0.354,0.55,0.354,0.948
		c0,0.451-0.119,0.806-0.357,1.062c-0.237,0.257-0.566,0.385-0.988,0.385c-0.349,0-0.626-0.112-0.832-0.337l-0.049-0.054v0.32
		h-0.488V86.945z M979.509,90.204c0.271,0,0.478-0.086,0.618-0.258c0.141-0.173,0.211-0.424,0.211-0.754
		c0-0.325-0.067-0.565-0.202-0.722s-0.343-0.234-0.624-0.234c-0.287,0-0.496,0.088-0.628,0.265
		c-0.132,0.176-0.198,0.455-0.198,0.837c0,0.276,0.071,0.49,0.214,0.641S979.245,90.204,979.509,90.204z"/>
	<path fill="#E5E5E4" stroke="#E5E5E4" stroke-width="0.25" stroke-miterlimit="10" d="M981.508,86.945h0.26h0.26v3.567h-0.26h-0.26
		V86.945z"/>
	<path fill="#E5E5E4" stroke="#E5E5E4" stroke-width="0.25" stroke-miterlimit="10" d="M984.068,90.583
		c-0.437,0-0.78-0.116-1.03-0.35c-0.251-0.232-0.376-0.555-0.376-0.966c0-0.437,0.133-0.784,0.397-1.042
		c0.265-0.259,0.62-0.388,1.067-0.388c0.404,0,0.73,0.126,0.979,0.379c0.248,0.252,0.373,0.584,0.373,0.995l-0.006,0.155h-2.258
		c0.021,0.259,0.092,0.456,0.211,0.592c0.146,0.165,0.377,0.248,0.693,0.248c0.197,0,0.371-0.047,0.52-0.141
		c0.147-0.094,0.238-0.214,0.271-0.359h0.514c-0.077,0.285-0.231,0.502-0.463,0.651C984.73,90.508,984.434,90.583,984.068,90.583z
		 M984.937,89.016c-0.015-0.241-0.087-0.429-0.214-0.563c-0.141-0.148-0.346-0.224-0.617-0.224c-0.274,0-0.492,0.086-0.656,0.258
		c-0.129,0.134-0.207,0.311-0.234,0.529H984.937z"/>
</g>
<path fill="#BDCCE8" stroke="#0E0E0E" stroke-width="0.75" stroke-miterlimit="10" d="M1091.875,86.602c0,1.104-0.895,2-2,2h-25.25
	c-1.104,0-2-0.896-2-2v-7.375c0-1.104,0.896-2,2-2h25.25c1.105,0,2,0.896,2,2V86.602z"/>
<rect x="1043.875" y="83.727" fill="#8C8C8C" width="9.625" height="6.875"/>
<line fill="none" stroke="#FFFFFF" stroke-miterlimit="10" x1="1035.609" y1="29.047" x2="1037.109" y2="29.047"/>
<line fill="none" stroke="#FFFFFF" stroke-miterlimit="10" x1="1035.609" y1="37.901" x2="1037.109" y2="37.901"/>
<linearGradient id="SVGID_1_" gradientUnits="userSpaceOnUse" x1="1128.2256" y1="168.8984" x2="1186.75" y2="168.8984">
	<stop  offset="0" style="stop-color:#1C1D20"/>
	<stop  offset="0.5172" style="stop-color:#403D3E"/>
	<stop  offset="1" style="stop-color:#3C3D3D"/>
</linearGradient>
<rect x="1128.226" y="141.087" fill="url(#SVGID_1_)" width="58.524" height="55.622"/>
<linearGradient id="SVGID_2_" gradientUnits="userSpaceOnUse" x1="-5385.5371" y1="149.5449" x2="-5385.5371" y2="141.6593" gradientTransform="matrix(-1 0 0 1 -4227.5684 0)">
	<stop  offset="0" style="stop-color:#1C1D20;stop-opacity:0.6"/>
	<stop  offset="1" style="stop-color:#1C1D20"/>
</linearGradient>
<polygon opacity="0.7" fill="url(#SVGID_2_)" points="1129.188,151.504 1186.75,144.892 1186.75,141.087 1129.188,141.087 "/>
<linearGradient id="SVGID_3_" gradientUnits="userSpaceOnUse" x1="1115.9082" y1="142.8018" x2="1115.9082" y2="197.0508">
	<stop  offset="0" style="stop-color:#666667"/>
	<stop  offset="0.3088" style="stop-color:#7D7C7D"/>
	<stop  offset="0.6422" style="stop-color:#434345"/>
</linearGradient>
<path fill="url(#SVGID_3_)" d="M1129.939,141.301c0,0,2.084,32-0.916,55.334c0,0-28.667,3.166-27.834-31.834
	C1101.189,164.801,1102.356,138.467,1129.939,141.301z"/>
<g>
	<rect x="623.573" y="19.207" fill="#3D3D3F" width="197.852" height="210.333"/>
	<polygon fill="#232527" points="641.758,49.223 637.878,55.943 641.758,62.665 649.521,62.665 653.4,55.943 649.521,49.223 	"/>
	<polygon fill="#232527" points="641.758,66.217 637.878,72.938 641.758,79.659 649.521,79.659 653.4,72.938 649.521,66.217 	"/>
	<polygon fill="#232527" points="641.758,82.249 637.878,88.971 641.758,95.691 649.521,95.691 653.4,88.971 649.521,82.249 	"/>
	<polygon fill="#232527" points="641.758,99.243 637.878,105.965 641.758,112.686 649.521,112.686 653.4,105.965 649.521,99.243 	
		"/>
	<polygon fill="#232527" points="641.758,115.3 637.878,122.022 641.758,128.743 649.521,128.743 653.4,122.022 649.521,115.3 	"/>
	<polygon fill="#232527" points="641.758,132.294 637.878,139.016 641.758,145.736 649.521,145.736 653.4,139.016 649.521,132.294 	
		"/>
	<polygon fill="#232527" points="641.758,148.326 637.878,155.048 641.758,161.77 649.521,161.77 653.4,155.048 649.521,148.326 	
		"/>
	<polygon fill="#232527" points="641.758,165.32 637.878,172.042 641.758,178.763 649.521,178.763 653.4,172.042 649.521,165.32 	
		"/>
	<polygon fill="#232527" points="641.758,181.71 637.878,188.431 641.758,195.152 649.521,195.152 653.4,188.431 649.521,181.71 	
		"/>
	<polygon fill="#232527" points="641.758,198.704 637.878,205.425 641.758,212.146 649.521,212.146 653.4,205.425 649.521,198.704 	
		"/>
	<polygon fill="#232527" points="672.248,49.223 668.368,55.943 672.248,62.665 680.01,62.665 683.89,55.943 680.01,49.223 	"/>
	<polygon fill="#232527" points="672.248,66.217 668.368,72.938 672.248,79.659 680.01,79.659 683.89,72.938 680.01,66.217 	"/>
	<polygon fill="#232527" points="672.248,82.249 668.368,88.971 672.248,95.691 680.01,95.691 683.89,88.971 680.01,82.249 	"/>
	<polygon fill="#232527" points="672.248,99.243 668.368,105.965 672.248,112.686 680.01,112.686 683.89,105.965 680.01,99.243 	"/>
	<polygon fill="#232527" points="703.292,49.223 699.412,55.943 703.292,62.665 711.054,62.665 714.934,55.943 711.054,49.223 	"/>
	<polygon fill="#232527" points="703.292,66.217 699.412,72.938 703.292,79.659 711.054,79.659 714.934,72.938 711.054,66.217 	"/>
	<polygon fill="#232527" points="703.292,82.249 699.412,88.971 703.292,95.691 711.054,95.691 714.934,88.971 711.054,82.249 	"/>
	<polygon fill="#232527" points="703.292,99.243 699.412,105.965 703.292,112.686 711.054,112.686 714.934,105.965 711.054,99.243 	
		"/>
	<polygon fill="#232527" points="703.292,115.912 699.412,122.633 703.292,129.354 711.054,129.354 714.934,122.633 
		711.054,115.912 	"/>
	<polygon fill="#232527" points="703.292,131.703 699.412,138.424 703.292,145.146 711.054,145.146 714.934,138.424 
		711.054,131.703 	"/>
	<polygon fill="#232527" points="734.336,49.223 730.456,55.943 734.336,62.665 742.098,62.665 745.978,55.943 742.098,49.223 	"/>
	<polygon fill="#232527" points="734.336,66.217 730.456,72.938 734.336,79.659 742.098,79.659 745.978,72.938 742.098,66.217 	"/>
	<polygon fill="#232527" points="734.336,82.249 730.456,88.971 734.336,95.691 742.098,95.691 745.978,88.971 742.098,82.249 	"/>
	<polygon fill="#232527" points="734.336,99.243 730.456,105.965 734.336,112.686 742.098,112.686 745.978,105.965 742.098,99.243 	
		"/>
	<polygon fill="#232527" points="734.336,115.912 730.456,122.633 734.336,129.354 742.098,129.354 745.978,122.633 
		742.098,115.912 	"/>
	<polygon fill="#232527" points="734.336,132.294 730.456,139.016 734.336,145.736 742.098,145.736 745.978,139.016 
		742.098,132.294 	"/>
	<polygon fill="#232527" points="672.248,115.3 668.368,122.022 672.248,128.743 680.01,128.743 683.89,122.022 680.01,115.3 	"/>
	<polygon fill="#232527" points="672.248,132.294 668.368,139.016 672.248,145.736 680.01,145.736 683.89,139.016 680.01,132.294 	
		"/>
	<polygon fill="#232527" points="672.248,148.326 668.368,155.048 672.248,161.77 680.01,161.77 683.89,155.048 680.01,148.326 	"/>
	<polygon fill="#232527" points="672.248,165.32 668.368,172.042 672.248,178.763 680.01,178.763 683.89,172.042 680.01,165.32 	"/>
	<polygon fill="#232527" points="672.248,181.71 668.368,188.431 672.248,195.152 680.01,195.152 683.89,188.431 680.01,181.71 	"/>
	<polygon fill="#232527" points="672.248,198.704 668.368,205.425 672.248,212.146 680.01,212.146 683.89,205.425 680.01,198.704 	
		"/>
	<polygon fill="#232527" points="656.727,57.554 652.847,64.274 656.727,70.995 664.488,70.995 668.368,64.274 664.488,57.554 	"/>
	<polygon fill="#232527" points="656.727,74.548 652.847,81.269 656.727,87.989 664.488,87.989 668.368,81.269 664.488,74.548 	"/>
	<polygon fill="#232527" points="656.727,90.58 652.847,97.301 656.727,104.022 664.488,104.022 668.368,97.301 664.488,90.58 	"/>
	<polygon fill="#232527" points="656.727,107.574 652.847,114.295 656.727,121.017 664.488,121.017 668.368,114.295 
		664.488,107.574 	"/>
	<polygon fill="#232527" points="656.727,123.631 652.847,130.353 656.727,137.073 664.488,137.073 668.368,130.353 
		664.488,123.631 	"/>
	<polygon fill="#232527" points="687.771,57.554 683.89,64.274 687.771,70.995 695.531,70.995 699.412,64.274 695.531,57.554 	"/>
	<polygon fill="#232527" points="687.771,74.548 683.89,81.269 687.771,87.989 695.531,87.989 699.412,81.269 695.531,74.548 	"/>
	<polygon fill="#232527" points="687.771,90.58 683.89,97.301 687.771,104.022 695.531,104.022 699.412,97.301 695.531,90.58 	"/>
	<polygon fill="#232527" points="687.771,107.574 683.89,114.295 687.771,121.017 695.531,121.017 699.412,114.295 695.531,107.574 
			"/>
	<polygon fill="#232527" points="718.813,57.554 714.934,64.274 718.813,70.995 726.575,70.995 730.456,64.274 726.575,57.554 	"/>
	<polygon fill="#232527" points="718.813,74.548 714.934,81.269 718.813,87.989 726.575,87.989 730.456,81.269 726.575,74.548 	"/>
	<polygon fill="#232527" points="718.813,90.58 714.934,97.301 718.813,104.022 726.575,104.022 730.456,97.301 726.575,90.58 	"/>
	<polygon fill="#232527" points="718.813,123.632 714.934,130.353 718.813,137.073 726.575,137.073 730.456,130.353 
		726.575,123.632 	"/>
	<polygon fill="#232527" points="718.813,107.574 714.934,114.295 718.813,121.017 726.575,121.017 730.456,114.295 
		726.575,107.574 	"/>
	<polygon fill="#232527" points="687.771,123.631 683.89,130.353 687.771,137.073 695.531,137.073 699.412,130.353 695.531,123.631 
			"/>
	<polygon fill="#232527" points="656.727,140.625 652.847,147.346 656.727,154.067 664.488,154.067 668.368,147.346 
		664.488,140.625 	"/>
	<polygon fill="#232527" points="656.727,156.657 652.847,163.378 656.727,170.101 664.488,170.101 668.368,163.378 
		664.488,156.657 	"/>
	<polygon fill="#232527" points="656.727,173.651 652.847,180.372 656.727,187.094 664.488,187.094 668.368,180.372 
		664.488,173.651 	"/>
	<polygon fill="#232527" points="656.727,190.041 652.847,196.762 656.727,203.482 664.488,203.482 668.368,196.762 
		664.488,190.041 	"/>
	<polygon fill="#232527" points="765.379,49.223 761.499,55.943 765.379,62.665 773.141,62.665 777.021,55.943 773.141,49.223 	"/>
	<polygon fill="#232527" points="765.379,66.217 761.499,72.938 765.379,79.659 773.141,79.659 777.021,72.938 773.141,66.217 	"/>
	<polygon fill="#232527" points="765.379,82.249 761.499,88.971 765.379,95.691 773.141,95.691 777.021,88.971 773.141,82.249 	"/>
	<polygon fill="#232527" points="765.379,99.243 761.499,105.965 765.379,112.686 773.141,112.686 777.021,105.965 773.141,99.243 	
		"/>
	<polygon fill="#232527" points="765.379,115.3 761.499,122.022 765.379,128.743 773.141,128.743 777.021,122.022 773.141,115.3 	
		"/>
	<polygon fill="#232527" points="765.379,132.294 761.499,139.016 765.379,145.736 773.141,145.736 777.021,139.016 
		773.141,132.294 	"/>
	<polygon fill="#232527" points="765.379,148.326 761.499,155.048 765.379,161.77 773.141,161.77 777.021,155.048 773.141,148.326 	
		"/>
	<polygon fill="#232527" points="765.379,165.32 761.499,172.042 765.379,178.763 773.141,178.763 777.021,172.042 773.141,165.32 	
		"/>
	<polygon fill="#232527" points="765.379,181.71 761.499,188.431 765.379,195.152 773.141,195.152 777.021,188.431 773.141,181.71 	
		"/>
	<polygon fill="#232527" points="765.379,198.704 761.499,205.425 765.379,212.146 773.141,212.146 777.021,205.425 
		773.141,198.704 	"/>
	<polygon fill="#232527" points="749.857,57.554 745.978,64.274 749.857,70.995 757.619,70.995 761.499,64.274 757.619,57.554 	"/>
	<polygon fill="#232527" points="749.857,74.548 745.978,81.269 749.857,87.989 757.619,87.989 761.499,81.269 757.619,74.548 	"/>
	<polygon fill="#232527" points="749.857,90.58 745.978,97.301 749.857,104.022 757.619,104.022 761.499,97.301 757.619,90.58 	"/>
	<polygon fill="#232527" points="749.857,107.574 745.978,114.295 749.857,121.017 757.619,121.017 761.499,114.295 
		757.619,107.574 	"/>
	<polygon fill="#232527" points="749.857,123.631 745.978,130.353 749.857,137.073 757.619,137.073 761.499,130.353 
		757.619,123.631 	"/>
	<polygon fill="#232527" points="796.422,49.223 792.543,55.943 796.422,62.665 804.185,62.665 808.064,55.943 804.185,49.223 	"/>
	<polygon fill="#232527" points="641.758,32.605 637.878,39.326 641.758,46.048 649.521,46.048 653.4,39.326 649.521,32.605 	"/>
	<polygon fill="#232527" points="672.248,32.605 668.368,39.326 672.248,46.048 680.01,46.048 683.89,39.326 680.01,32.605 	"/>
	<polygon fill="#232527" points="703.292,32.605 699.412,39.326 703.292,46.048 711.054,46.048 714.934,39.326 711.054,32.605 	"/>
	<polygon fill="#232527" points="734.336,32.605 730.456,39.326 734.336,46.048 742.098,46.048 745.978,39.326 742.098,32.605 	"/>
	<polygon fill="#232527" points="765.379,32.605 761.499,39.326 765.379,46.048 773.141,46.048 777.021,39.326 773.141,32.605 	"/>
	<polygon fill="#232527" points="796.422,32.605 792.543,39.326 796.422,46.048 804.185,46.048 808.064,39.326 804.185,32.605 	"/>
	<polygon fill="#232527" points="796.422,66.217 792.543,72.938 796.422,79.659 804.185,79.659 808.064,72.938 804.185,66.217 	"/>
	<polygon fill="#232527" points="796.422,82.249 792.543,88.971 796.422,95.691 804.185,95.691 808.064,88.971 804.185,82.249 	"/>
	<polygon fill="#232527" points="796.422,99.243 792.543,105.965 796.422,112.686 804.185,112.686 808.064,105.965 804.185,99.243 	
		"/>
	<polygon fill="#232527" points="796.422,115.3 792.543,122.022 796.422,128.743 804.185,128.743 808.064,122.022 804.185,115.3 	
		"/>
	<polygon fill="#232527" points="796.422,132.294 792.543,139.016 796.422,145.736 804.185,145.736 808.064,139.016 
		804.185,132.294 	"/>
	<polygon fill="#232527" points="796.422,148.326 792.543,155.048 796.422,161.77 804.185,161.77 808.064,155.048 804.185,148.326 	
		"/>
	<polygon fill="#232527" points="796.422,165.32 792.543,172.042 796.422,178.763 804.185,178.763 808.064,172.042 804.185,165.32 	
		"/>
	<polygon fill="#232527" points="796.422,181.71 792.543,188.431 796.422,195.152 804.185,195.152 808.064,188.431 804.185,181.71 	
		"/>
	<polygon fill="#232527" points="796.422,198.704 792.543,205.425 796.422,212.146 804.185,212.146 808.064,205.425 
		804.185,198.704 	"/>
	<polygon fill="#232527" points="780.901,57.554 777.021,64.274 780.901,70.995 788.663,70.995 792.543,64.274 788.663,57.554 	"/>
	<polygon fill="#232527" points="656.727,41.443 652.847,48.164 656.727,54.885 664.488,54.885 668.368,48.164 664.488,41.443 	"/>
	<polygon fill="#232527" points="687.771,41.443 683.89,48.164 687.771,54.885 695.531,54.885 699.412,48.164 695.531,41.443 	"/>
	<polygon fill="#232527" points="718.813,41.443 714.934,48.164 718.813,54.885 726.575,54.885 730.456,48.164 726.575,41.443 	"/>
	<polygon fill="#232527" points="749.857,41.443 745.978,48.164 749.857,54.885 757.619,54.885 761.499,48.164 757.619,41.443 	"/>
	<polygon fill="#232527" points="780.901,41.443 777.021,48.164 780.901,54.885 788.663,54.885 792.543,48.164 788.663,41.443 	"/>
	<polygon fill="#232527" points="780.901,74.548 777.021,81.269 780.901,87.989 788.663,87.989 792.543,81.269 788.663,74.548 	"/>
	<polygon fill="#232527" points="780.901,90.58 777.021,97.301 780.901,104.022 788.663,104.022 792.543,97.301 788.663,90.58 	"/>
	<polygon fill="#232527" points="780.901,107.574 777.021,114.295 780.901,121.017 788.663,121.017 792.543,114.295 
		788.663,107.574 	"/>
	<polygon fill="#232527" points="780.901,123.631 777.021,130.353 780.901,137.073 788.663,137.073 792.543,130.353 
		788.663,123.631 	"/>
	<polygon fill="#232527" points="780.901,140.625 777.021,147.346 780.901,154.067 788.663,154.067 792.543,147.346 
		788.663,140.625 	"/>
	<polygon fill="#232527" points="780.901,156.657 777.021,163.378 780.901,170.101 788.663,170.101 792.543,163.378 
		788.663,156.657 	"/>
	<polygon fill="#232527" points="780.901,173.651 777.021,180.372 780.901,187.094 788.663,187.094 792.543,180.372 
		788.663,173.651 	"/>
	<polygon fill="#232527" points="780.901,190.041 777.021,196.762 780.901,203.482 788.663,203.482 792.543,196.762 
		788.663,190.041 	"/>
	<rect x="687.634" y="151.364" fill="#050101" stroke="#050101" stroke-miterlimit="10" width="70.12" height="65.677"/>
</g>
<g>
	<rect x="423.28" y="19.207" fill="#3D3D3F" width="197.852" height="210.333"/>
	<polygon fill="#232527" points="441.465,49.223 437.585,55.943 441.465,62.665 449.227,62.665 453.106,55.943 449.227,49.223 	"/>
	<polygon fill="#232527" points="441.465,66.217 437.585,72.938 441.465,79.659 449.227,79.659 453.106,72.938 449.227,66.217 	"/>
	<polygon fill="#232527" points="441.465,82.249 437.585,88.971 441.465,95.691 449.227,95.691 453.106,88.971 449.227,82.249 	"/>
	<polygon fill="#232527" points="441.465,99.243 437.585,105.965 441.465,112.686 449.227,112.686 453.106,105.965 449.227,99.243 	
		"/>
	<polygon fill="#232527" points="441.465,115.3 437.585,122.022 441.465,128.743 449.227,128.743 453.106,122.022 449.227,115.3 	
		"/>
	<polygon fill="#232527" points="441.465,132.294 437.585,139.016 441.465,145.736 449.227,145.736 453.106,139.016 
		449.227,132.294 	"/>
	<polygon fill="#232527" points="441.465,148.326 437.585,155.048 441.465,161.77 449.227,161.77 453.106,155.048 449.227,148.326 	
		"/>
	<polygon fill="#232527" points="441.465,165.32 437.585,172.042 441.465,178.763 449.227,178.763 453.106,172.042 449.227,165.32 	
		"/>
	<polygon fill="#232527" points="441.465,181.71 437.585,188.431 441.465,195.152 449.227,195.152 453.106,188.431 449.227,181.71 	
		"/>
	<polygon fill="#232527" points="441.465,198.704 437.585,205.425 441.465,212.146 449.227,212.146 453.106,205.425 
		449.227,198.704 	"/>
	<polygon fill="#232527" points="471.955,49.223 468.075,55.943 471.955,62.665 479.717,62.665 483.597,55.943 479.717,49.223 	"/>
	<polygon fill="#232527" points="471.955,66.217 468.075,72.938 471.955,79.659 479.717,79.659 483.597,72.938 479.717,66.217 	"/>
	<polygon fill="#232527" points="471.955,82.249 468.075,88.971 471.955,95.691 479.717,95.691 483.597,88.971 479.717,82.249 	"/>
	<polygon fill="#232527" points="471.955,99.243 468.075,105.965 471.955,112.686 479.717,112.686 483.597,105.965 479.717,99.243 	
		"/>
	<polygon fill="#232527" points="502.998,49.223 499.118,55.943 502.998,62.665 510.76,62.665 514.641,55.943 510.76,49.223 	"/>
	<polygon fill="#232527" points="502.998,66.217 499.118,72.938 502.998,79.659 510.76,79.659 514.641,72.938 510.76,66.217 	"/>
	<polygon fill="#232527" points="502.998,82.249 499.118,88.971 502.998,95.691 510.76,95.691 514.641,88.971 510.76,82.249 	"/>
	<polygon fill="#232527" points="502.998,99.243 499.118,105.965 502.998,112.686 510.76,112.686 514.641,105.965 510.76,99.243 	
		"/>
	<polygon fill="#232527" points="502.998,115.912 499.118,122.633 502.998,129.354 510.76,129.354 514.641,122.633 510.76,115.912 	
		"/>
	<polygon fill="#232527" points="502.998,131.703 499.118,138.424 502.998,145.146 510.76,145.146 514.641,138.424 510.76,131.703 	
		"/>
	<polygon fill="#232527" points="534.042,49.223 530.162,55.943 534.042,62.665 541.804,62.665 545.684,55.943 541.804,49.223 	"/>
	<polygon fill="#232527" points="534.042,66.217 530.162,72.938 534.042,79.659 541.804,79.659 545.684,72.938 541.804,66.217 	"/>
	<polygon fill="#232527" points="534.042,82.249 530.162,88.971 534.042,95.691 541.804,95.691 545.684,88.971 541.804,82.249 	"/>
	<polygon fill="#232527" points="534.042,99.243 530.162,105.965 534.042,112.686 541.804,112.686 545.684,105.965 541.804,99.243 	
		"/>
	<polygon fill="#232527" points="534.042,115.912 530.162,122.633 534.042,129.354 541.804,129.354 545.684,122.633 
		541.804,115.912 	"/>
	<polygon fill="#232527" points="534.042,132.294 530.162,139.016 534.042,145.736 541.804,145.736 545.684,139.016 
		541.804,132.294 	"/>
	<polygon fill="#232527" points="471.955,115.3 468.075,122.022 471.955,128.743 479.717,128.743 483.597,122.022 479.717,115.3 	
		"/>
	<polygon fill="#232527" points="471.955,132.294 468.075,139.016 471.955,145.736 479.717,145.736 483.597,139.016 
		479.717,132.294 	"/>
	<polygon fill="#232527" points="471.955,148.326 468.075,155.048 471.955,161.77 479.717,161.77 483.597,155.048 479.717,148.326 	
		"/>
	<polygon fill="#232527" points="471.955,165.32 468.075,172.042 471.955,178.763 479.717,178.763 483.597,172.042 479.717,165.32 	
		"/>
	<polygon fill="#232527" points="471.955,181.71 468.075,188.431 471.955,195.152 479.717,195.152 483.597,188.431 479.717,181.71 	
		"/>
	<polygon fill="#232527" points="471.955,198.704 468.075,205.425 471.955,212.146 479.717,212.146 483.597,205.425 
		479.717,198.704 	"/>
	<polygon fill="#232527" points="456.433,57.554 452.553,64.274 456.433,70.995 464.194,70.995 468.075,64.274 464.194,57.554 	"/>
	<polygon fill="#232527" points="456.433,74.548 452.553,81.269 456.433,87.989 464.194,87.989 468.075,81.269 464.194,74.548 	"/>
	<polygon fill="#232527" points="456.433,90.58 452.553,97.301 456.433,104.022 464.194,104.022 468.075,97.301 464.194,90.58 	"/>
	<polygon fill="#232527" points="456.433,107.574 452.553,114.295 456.433,121.017 464.194,121.017 468.075,114.295 
		464.194,107.574 	"/>
	<polygon fill="#232527" points="456.433,123.631 452.553,130.353 456.433,137.073 464.194,137.073 468.075,130.353 
		464.194,123.631 	"/>
	<polygon fill="#232527" points="487.477,57.554 483.597,64.274 487.477,70.995 495.238,70.995 499.118,64.274 495.238,57.554 	"/>
	<polygon fill="#232527" points="487.477,74.548 483.597,81.269 487.477,87.989 495.238,87.989 499.118,81.269 495.238,74.548 	"/>
	<polygon fill="#232527" points="487.477,90.58 483.597,97.301 487.477,104.022 495.238,104.022 499.118,97.301 495.238,90.58 	"/>
	<polygon fill="#232527" points="487.477,107.574 483.597,114.295 487.477,121.017 495.238,121.017 499.118,114.295 
		495.238,107.574 	"/>
	<polygon fill="#232527" points="518.521,57.554 514.641,64.274 518.521,70.995 526.282,70.995 530.162,64.274 526.282,57.554 	"/>
	<polygon fill="#232527" points="518.521,74.548 514.641,81.269 518.521,87.989 526.282,87.989 530.162,81.269 526.282,74.548 	"/>
	<polygon fill="#232527" points="518.521,90.58 514.641,97.301 518.521,104.022 526.282,104.022 530.162,97.301 526.282,90.58 	"/>
	<polygon fill="#232527" points="518.521,123.632 514.641,130.353 518.521,137.073 526.282,137.073 530.162,130.353 
		526.282,123.632 	"/>
	<polygon fill="#232527" points="518.521,107.574 514.641,114.295 518.521,121.017 526.282,121.017 530.162,114.295 
		526.282,107.574 	"/>
	<polygon fill="#232527" points="487.477,123.631 483.597,130.353 487.477,137.073 495.238,137.073 499.118,130.353 
		495.238,123.631 	"/>
	<polygon fill="#232527" points="456.433,140.625 452.553,147.346 456.433,154.067 464.194,154.067 468.075,147.346 
		464.194,140.625 	"/>
	<polygon fill="#232527" points="456.433,156.657 452.553,163.378 456.433,170.101 464.194,170.101 468.075,163.378 
		464.194,156.657 	"/>
	<polygon fill="#232527" points="456.433,173.651 452.553,180.372 456.433,187.094 464.194,187.094 468.075,180.372 
		464.194,173.651 	"/>
	<polygon fill="#232527" points="456.433,190.041 452.553,196.762 456.433,203.482 464.194,203.482 468.075,196.762 
		464.194,190.041 	"/>
	<polygon fill="#232527" points="565.086,49.223 561.206,55.943 565.086,62.665 572.848,62.665 576.728,55.943 572.848,49.223 	"/>
	<polygon fill="#232527" points="565.086,66.217 561.206,72.938 565.086,79.659 572.848,79.659 576.728,72.938 572.848,66.217 	"/>
	<polygon fill="#232527" points="565.086,82.249 561.206,88.971 565.086,95.691 572.848,95.691 576.728,88.971 572.848,82.249 	"/>
	<polygon fill="#232527" points="565.086,99.243 561.206,105.965 565.086,112.686 572.848,112.686 576.728,105.965 572.848,99.243 	
		"/>
	<polygon fill="#232527" points="565.086,115.3 561.206,122.022 565.086,128.743 572.848,128.743 576.728,122.022 572.848,115.3 	
		"/>
	<polygon fill="#232527" points="565.086,132.294 561.206,139.016 565.086,145.736 572.848,145.736 576.728,139.016 
		572.848,132.294 	"/>
	<polygon fill="#232527" points="565.086,148.326 561.206,155.048 565.086,161.77 572.848,161.77 576.728,155.048 572.848,148.326 	
		"/>
	<polygon fill="#232527" points="565.086,165.32 561.206,172.042 565.086,178.763 572.848,178.763 576.728,172.042 572.848,165.32 	
		"/>
	<polygon fill="#232527" points="565.086,181.71 561.206,188.431 565.086,195.152 572.848,195.152 576.728,188.431 572.848,181.71 	
		"/>
	<polygon fill="#232527" points="565.086,198.704 561.206,205.425 565.086,212.146 572.848,212.146 576.728,205.425 
		572.848,198.704 	"/>
	<polygon fill="#232527" points="549.564,57.554 545.684,64.274 549.564,70.995 557.326,70.995 561.206,64.274 557.326,57.554 	"/>
	<polygon fill="#232527" points="549.564,74.548 545.684,81.269 549.564,87.989 557.326,87.989 561.206,81.269 557.326,74.548 	"/>
	<polygon fill="#232527" points="549.564,90.58 545.684,97.301 549.564,104.022 557.326,104.022 561.206,97.301 557.326,90.58 	"/>
	<polygon fill="#232527" points="549.564,107.574 545.684,114.295 549.564,121.017 557.326,121.017 561.206,114.295 
		557.326,107.574 	"/>
	<polygon fill="#232527" points="549.564,123.631 545.684,130.353 549.564,137.073 557.326,137.073 561.206,130.353 
		557.326,123.631 	"/>
	<polygon fill="#232527" points="596.129,49.223 592.249,55.943 596.129,62.665 603.892,62.665 607.771,55.943 603.892,49.223 	"/>
	<polygon fill="#232527" points="441.465,32.605 437.585,39.326 441.465,46.048 449.227,46.048 453.106,39.326 449.227,32.605 	"/>
	<polygon fill="#232527" points="471.955,32.605 468.075,39.326 471.955,46.048 479.717,46.048 483.597,39.326 479.717,32.605 	"/>
	<polygon fill="#232527" points="502.998,32.605 499.118,39.326 502.998,46.048 510.76,46.048 514.641,39.326 510.76,32.605 	"/>
	<polygon fill="#232527" points="534.042,32.605 530.162,39.326 534.042,46.048 541.804,46.048 545.684,39.326 541.804,32.605 	"/>
	<polygon fill="#232527" points="565.086,32.605 561.206,39.326 565.086,46.048 572.848,46.048 576.728,39.326 572.848,32.605 	"/>
	<polygon fill="#232527" points="596.129,32.605 592.249,39.326 596.129,46.048 603.892,46.048 607.771,39.326 603.892,32.605 	"/>
	<polygon fill="#232527" points="596.129,66.217 592.249,72.938 596.129,79.659 603.892,79.659 607.771,72.938 603.892,66.217 	"/>
	<polygon fill="#232527" points="596.129,82.249 592.249,88.971 596.129,95.691 603.892,95.691 607.771,88.971 603.892,82.249 	"/>
	<polygon fill="#232527" points="596.129,99.243 592.249,105.965 596.129,112.686 603.892,112.686 607.771,105.965 603.892,99.243 	
		"/>
	<polygon fill="#232527" points="596.129,115.3 592.249,122.022 596.129,128.743 603.892,128.743 607.771,122.022 603.892,115.3 	
		"/>
	<polygon fill="#232527" points="596.129,132.294 592.249,139.016 596.129,145.736 603.892,145.736 607.771,139.016 
		603.892,132.294 	"/>
	<polygon fill="#232527" points="596.129,148.326 592.249,155.048 596.129,161.77 603.892,161.77 607.771,155.048 603.892,148.326 	
		"/>
	<polygon fill="#232527" points="596.129,165.32 592.249,172.042 596.129,178.763 603.892,178.763 607.771,172.042 603.892,165.32 	
		"/>
	<polygon fill="#232527" points="596.129,181.71 592.249,188.431 596.129,195.152 603.892,195.152 607.771,188.431 603.892,181.71 	
		"/>
	<polygon fill="#232527" points="596.129,198.704 592.249,205.425 596.129,212.146 603.892,212.146 607.771,205.425 
		603.892,198.704 	"/>
	<polygon fill="#232527" points="580.607,57.554 576.728,64.274 580.607,70.995 588.369,70.995 592.249,64.274 588.369,57.554 	"/>
	<polygon fill="#232527" points="456.433,41.443 452.553,48.164 456.433,54.885 464.194,54.885 468.075,48.164 464.194,41.443 	"/>
	<polygon fill="#232527" points="487.477,41.443 483.597,48.164 487.477,54.885 495.238,54.885 499.118,48.164 495.238,41.443 	"/>
	<polygon fill="#232527" points="518.521,41.443 514.641,48.164 518.521,54.885 526.282,54.885 530.162,48.164 526.282,41.443 	"/>
	<polygon fill="#232527" points="549.564,41.443 545.684,48.164 549.564,54.885 557.326,54.885 561.206,48.164 557.326,41.443 	"/>
	<polygon fill="#232527" points="580.607,41.443 576.728,48.164 580.607,54.885 588.369,54.885 592.249,48.164 588.369,41.443 	"/>
	<polygon fill="#232527" points="580.607,74.548 576.728,81.269 580.607,87.989 588.369,87.989 592.249,81.269 588.369,74.548 	"/>
	<polygon fill="#232527" points="580.607,90.58 576.728,97.301 580.607,104.022 588.369,104.022 592.249,97.301 588.369,90.58 	"/>
	<polygon fill="#232527" points="580.607,107.574 576.728,114.295 580.607,121.017 588.369,121.017 592.249,114.295 
		588.369,107.574 	"/>
	<polygon fill="#232527" points="580.607,123.631 576.728,130.353 580.607,137.073 588.369,137.073 592.249,130.353 
		588.369,123.631 	"/>
	<polygon fill="#232527" points="580.607,140.625 576.728,147.346 580.607,154.067 588.369,154.067 592.249,147.346 
		588.369,140.625 	"/>
	<polygon fill="#232527" points="580.607,156.657 576.728,163.378 580.607,170.101 588.369,170.101 592.249,163.378 
		588.369,156.657 	"/>
	<polygon fill="#232527" points="580.607,173.651 576.728,180.372 580.607,187.094 588.369,187.094 592.249,180.372 
		588.369,173.651 	"/>
	<polygon fill="#232527" points="580.607,190.041 576.728,196.762 580.607,203.482 588.369,203.482 592.249,196.762 
		588.369,190.041 	"/>
	<rect x="487.341" y="151.364" fill="#050101" stroke="#050101" stroke-miterlimit="10" width="70.121" height="65.677"/>
</g>
</svg>
