<?xml version="1.0" encoding="utf-8"?>
<!-- Generator: Adobe Illustrator 16.0.0, SVG Export Plug-In . SVG Version: 6.00 Build 0)  -->
<!DOCTYPE svg PUBLIC "-//W3C//DTD SVG 1.1//EN" "http://www.w3.org/Graphics/SVG/1.1/DTD/svg11.dtd">
<svg version="1.1" id="图层_1" xmlns="http://www.w3.org/2000/svg" xmlns:xlink="http://www.w3.org/1999/xlink" x="0px" y="0px"
	 width="1275.59px" height="252.29px" viewBox="0 0 1275.59 252.29" enable-background="new 0 0 1275.59 252.29"
	 xml:space="preserve">
<g>
	<g>
		<g>
			<g>
				<rect fill="#A6A6A5" width="1275.589" height="126.142"/>
			</g>
			<g>
				<rect y="126.142" fill="#A6A6A5" width="1275.589" height="126.142"/>
			</g>
		</g>
		<g>
			<g>
				<g>
					<rect x="25.104" y="10.66" fill="#101111" width="9.25" height="9.986"/>
					<rect x="39.545" y="10.66" fill="#101111" width="9.249" height="9.986"/>
					<rect x="11" y="10.66" fill="#101111" width="9.25" height="9.986"/>
				</g>
				<g>
					<rect x="25.104" y="24.028" fill="#101111" width="9.25" height="9.986"/>
					<rect x="39.545" y="24.028" fill="#101111" width="9.249" height="9.986"/>
					<rect x="11" y="24.028" fill="#101111" width="9.25" height="9.986"/>
				</g>
				<g>
					<rect x="25.104" y="37.397" fill="#101111" width="9.25" height="9.986"/>
					<rect x="39.545" y="37.397" fill="#101111" width="9.249" height="9.986"/>
					<rect x="11" y="37.397" fill="#101111" width="9.25" height="9.986"/>
				</g>
				<g>
					<rect x="25.104" y="50.767" fill="#101111" width="9.25" height="9.986"/>
					<rect x="39.545" y="50.767" fill="#101111" width="9.249" height="9.986"/>
					<rect x="11" y="50.767" fill="#101111" width="9.25" height="9.986"/>
				</g>
				<g>
					<rect x="25.104" y="64.135" fill="#101111" width="9.25" height="9.986"/>
					<rect x="39.545" y="64.135" fill="#101111" width="9.249" height="9.986"/>
					<rect x="11" y="64.135" fill="#101111" width="9.25" height="9.986"/>
				</g>
				<g>
					<rect x="25.104" y="77.504" fill="#101111" width="9.25" height="9.986"/>
					<rect x="39.545" y="77.504" fill="#101111" width="9.249" height="9.986"/>
					<rect x="11" y="77.504" fill="#101111" width="9.25" height="9.986"/>
				</g>
				<g>
					<rect x="25.104" y="90.873" fill="#101111" width="9.25" height="9.986"/>
					<rect x="39.545" y="90.873" fill="#101111" width="9.249" height="9.986"/>
					<rect x="11" y="90.873" fill="#101111" width="9.25" height="9.986"/>
				</g>
				<g>
					<rect x="25.104" y="104.241" fill="#101111" width="9.25" height="9.986"/>
					<rect x="39.545" y="104.241" fill="#101111" width="9.249" height="9.986"/>
					<rect x="11" y="104.241" fill="#101111" width="9.25" height="9.986"/>
				</g>
				<g>
					<rect x="25.104" y="117.61" fill="#101111" width="9.25" height="9.986"/>
					<rect x="39.545" y="117.61" fill="#101111" width="9.249" height="9.986"/>
					<rect x="11" y="117.61" fill="#101111" width="9.25" height="9.986"/>
				</g>
				<g>
					<rect x="25.104" y="130.979" fill="#101111" width="9.25" height="9.986"/>
					<rect x="39.545" y="130.979" fill="#101111" width="9.249" height="9.986"/>
					<rect x="11" y="130.979" fill="#101111" width="9.25" height="9.986"/>
				</g>
				<g>
					<rect x="25.104" y="144.348" fill="#101111" width="9.25" height="9.986"/>
					<rect x="39.545" y="144.348" fill="#101111" width="9.249" height="9.986"/>
					<rect x="11" y="144.348" fill="#101111" width="9.25" height="9.986"/>
				</g>
				<g>
					<rect x="25.104" y="157.717" fill="#101111" width="9.25" height="9.986"/>
					<rect x="39.545" y="157.717" fill="#101111" width="9.249" height="9.986"/>
					<rect x="11" y="157.717" fill="#101111" width="9.25" height="9.986"/>
				</g>
				<g>
					<rect x="25.104" y="171.086" fill="#101111" width="9.25" height="9.986"/>
					<rect x="39.545" y="171.086" fill="#101111" width="9.249" height="9.986"/>
					<rect x="11" y="171.086" fill="#101111" width="9.25" height="9.986"/>
				</g>
				<g>
					<rect x="25.104" y="184.454" fill="#101111" width="9.25" height="9.986"/>
					<rect x="39.545" y="184.454" fill="#101111" width="9.249" height="9.986"/>
					<rect x="11" y="184.454" fill="#101111" width="9.25" height="9.986"/>
				</g>
				<g>
					<g>
						<rect x="104.495" y="10.632" fill="#101111" width="9.249" height="9.987"/>
						<rect x="76.032" y="10.66" fill="#101111" width="9.25" height="9.986"/>
						<rect x="90.474" y="10.66" fill="#101111" width="9.249" height="9.986"/>
						<rect x="61.929" y="10.66" fill="#101111" width="9.25" height="9.986"/>
					</g>
					<g>
						<rect x="104.495" y="24.015" fill="#101111" width="9.249" height="9.987"/>
						<rect x="76.032" y="24.043" fill="#101111" width="9.25" height="9.986"/>
						<rect x="90.474" y="24.043" fill="#101111" width="9.249" height="9.986"/>
						<rect x="61.929" y="24.043" fill="#101111" width="9.25" height="9.986"/>
					</g>
					<g>
						<rect x="104.495" y="37.397" fill="#101111" width="9.249" height="9.987"/>
						<rect x="76.032" y="37.426" fill="#101111" width="9.25" height="9.986"/>
						<rect x="90.474" y="37.426" fill="#101111" width="9.249" height="9.986"/>
						<rect x="61.929" y="37.426" fill="#101111" width="9.25" height="9.986"/>
					</g>
					<g>
						<rect x="104.495" y="50.78" fill="#101111" width="9.249" height="9.987"/>
						<rect x="76.032" y="50.809" fill="#101111" width="9.25" height="9.986"/>
						<rect x="90.474" y="50.809" fill="#101111" width="9.249" height="9.986"/>
						<rect x="61.929" y="50.809" fill="#101111" width="9.25" height="9.986"/>
					</g>
					<g>
						<rect x="104.495" y="64.163" fill="#101111" width="9.249" height="9.987"/>
						<rect x="76.032" y="64.191" fill="#101111" width="9.25" height="9.986"/>
						<rect x="90.474" y="64.191" fill="#101111" width="9.249" height="9.986"/>
						<rect x="61.929" y="64.191" fill="#101111" width="9.25" height="9.986"/>
					</g>
					<g>
						<rect x="104.495" y="77.546" fill="#101111" width="9.249" height="9.987"/>
						<rect x="76.032" y="77.574" fill="#101111" width="9.25" height="9.986"/>
						<rect x="90.474" y="77.574" fill="#101111" width="9.249" height="9.986"/>
						<rect x="61.929" y="77.574" fill="#101111" width="9.25" height="9.986"/>
					</g>
					<g>
						<rect x="104.495" y="90.93" fill="#101111" width="9.249" height="9.987"/>
						<rect x="76.032" y="90.958" fill="#101111" width="9.25" height="9.986"/>
						<rect x="90.474" y="90.958" fill="#101111" width="9.249" height="9.986"/>
						<rect x="61.929" y="90.958" fill="#101111" width="9.25" height="9.986"/>
					</g>
					<g>
						<rect x="104.495" y="104.313" fill="#101111" width="9.249" height="9.987"/>
						<rect x="76.032" y="104.341" fill="#101111" width="9.25" height="9.986"/>
						<rect x="90.474" y="104.341" fill="#101111" width="9.249" height="9.986"/>
						<rect x="61.929" y="104.341" fill="#101111" width="9.25" height="9.986"/>
					</g>
				</g>
				<g>
					<circle fill="#101111" cx="23.984" cy="211.256" r="3.734"/>
					<circle fill="#222323" cx="36.179" cy="211.256" r="3.734"/>
				</g>
			</g>
			<g>
				<path fill="#262626" d="M102.159,151.027c0,8.661-7.025,15.685-15.691,15.685c-8.666,0-15.69-7.023-15.69-15.685
					c0-8.665,7.025-15.688,15.69-15.688C95.134,135.339,102.159,142.362,102.159,151.027"/>
				
					<ellipse fill="none" stroke="#131313" stroke-width="0.75" stroke-miterlimit="10" cx="86.468" cy="151.027" rx="15.691" ry="15.685"/>
				<polygon fill="#040000" points="84.53,159.922 84.53,152.963 77.57,152.963 77.57,149.086 84.53,149.086 84.53,142.129 
					88.407,142.129 88.407,149.086 95.368,149.086 95.368,152.963 88.407,152.963 88.407,159.922 				"/>
				<path fill="#231815" d="M88.081,142.456v6.304v0.654h0.653h6.307v3.223h-6.307h-0.653v0.653v6.305h-3.223v-6.305v-0.653h-0.656
					h-6.305v-3.223h6.305h0.656v-0.654v-6.304H88.081z M88.734,141.802h-4.532v6.958h-6.96v4.53h6.96v6.959h4.532v-6.959h6.96v-4.53
					h-6.96V141.802z"/>
			</g>
			<g>
				<rect x="80.657" y="194.44" fill="#202121" width="33.087" height="30.071"/>
				<rect x="80.657" y="222.212" fill="#5D362B" width="33.087" height="30.071"/>
				<rect x="90.086" y="230.782" fill="#35241F" width="14.229" height="12.932"/>
			</g>
		</g>
		<g>
			<g>
				<g>
					<rect x="1241.235" y="231.638" fill="#101111" width="9.25" height="9.986"/>
					<rect x="1226.796" y="231.638" fill="#101111" width="9.248" height="9.986"/>
					<rect x="1255.339" y="231.638" fill="#101111" width="9.25" height="9.986"/>
				</g>
				<g>
					<rect x="1241.235" y="218.269" fill="#101111" width="9.25" height="9.986"/>
					<rect x="1226.796" y="218.269" fill="#101111" width="9.248" height="9.986"/>
					<rect x="1255.339" y="218.269" fill="#101111" width="9.25" height="9.986"/>
				</g>
				<g>
					<rect x="1241.235" y="204.899" fill="#101111" width="9.25" height="9.986"/>
					<rect x="1226.796" y="204.899" fill="#101111" width="9.248" height="9.986"/>
					<rect x="1255.339" y="204.899" fill="#101111" width="9.25" height="9.986"/>
				</g>
				<g>
					<rect x="1241.235" y="191.531" fill="#101111" width="9.25" height="9.986"/>
					<rect x="1226.796" y="191.531" fill="#101111" width="9.248" height="9.986"/>
					<rect x="1255.339" y="191.531" fill="#101111" width="9.25" height="9.986"/>
				</g>
				<g>
					<rect x="1241.235" y="178.162" fill="#101111" width="9.25" height="9.986"/>
					<rect x="1226.796" y="178.162" fill="#101111" width="9.248" height="9.986"/>
					<rect x="1255.339" y="178.162" fill="#101111" width="9.25" height="9.986"/>
				</g>
				<g>
					<rect x="1241.235" y="164.793" fill="#101111" width="9.25" height="9.986"/>
					<rect x="1226.796" y="164.793" fill="#101111" width="9.248" height="9.986"/>
					<rect x="1255.339" y="164.793" fill="#101111" width="9.25" height="9.986"/>
				</g>
				<g>
					<rect x="1241.235" y="151.425" fill="#101111" width="9.25" height="9.986"/>
					<rect x="1226.796" y="151.425" fill="#101111" width="9.248" height="9.986"/>
					<rect x="1255.339" y="151.425" fill="#101111" width="9.25" height="9.986"/>
				</g>
				<g>
					<rect x="1241.235" y="138.056" fill="#101111" width="9.25" height="9.986"/>
					<rect x="1226.796" y="138.056" fill="#101111" width="9.248" height="9.986"/>
					<rect x="1255.339" y="138.056" fill="#101111" width="9.25" height="9.986"/>
				</g>
				<g>
					<rect x="1241.235" y="124.687" fill="#101111" width="9.25" height="9.986"/>
					<rect x="1226.796" y="124.687" fill="#101111" width="9.248" height="9.986"/>
					<rect x="1255.339" y="124.687" fill="#101111" width="9.25" height="9.986"/>
				</g>
				<g>
					<rect x="1241.235" y="111.317" fill="#101111" width="9.25" height="9.986"/>
					<rect x="1226.796" y="111.317" fill="#101111" width="9.248" height="9.986"/>
					<rect x="1255.339" y="111.317" fill="#101111" width="9.25" height="9.986"/>
				</g>
				<g>
					<rect x="1241.235" y="97.949" fill="#101111" width="9.25" height="9.986"/>
					<rect x="1226.796" y="97.949" fill="#101111" width="9.248" height="9.986"/>
					<rect x="1255.339" y="97.949" fill="#101111" width="9.25" height="9.986"/>
				</g>
				<g>
					<rect x="1241.235" y="84.58" fill="#101111" width="9.25" height="9.986"/>
					<rect x="1226.796" y="84.58" fill="#101111" width="9.248" height="9.986"/>
					<rect x="1255.339" y="84.58" fill="#101111" width="9.25" height="9.986"/>
				</g>
				<g>
					<rect x="1241.235" y="71.211" fill="#101111" width="9.25" height="9.986"/>
					<rect x="1226.796" y="71.211" fill="#101111" width="9.248" height="9.986"/>
					<rect x="1255.339" y="71.211" fill="#101111" width="9.25" height="9.986"/>
				</g>
				<g>
					<rect x="1241.235" y="57.843" fill="#101111" width="9.25" height="9.986"/>
					<rect x="1226.796" y="57.843" fill="#101111" width="9.248" height="9.986"/>
					<rect x="1255.339" y="57.843" fill="#101111" width="9.25" height="9.986"/>
				</g>
				<g>
					<g>
						<rect x="1161.845" y="231.665" fill="#101111" width="9.25" height="9.987"/>
						<rect x="1190.308" y="231.638" fill="#101111" width="9.25" height="9.986"/>
						<rect x="1175.866" y="231.638" fill="#101111" width="9.25" height="9.986"/>
						<rect x="1204.411" y="231.638" fill="#101111" width="9.25" height="9.986"/>
					</g>
					<g>
						<rect x="1161.845" y="218.281" fill="#101111" width="9.25" height="9.987"/>
						<rect x="1190.308" y="218.254" fill="#101111" width="9.25" height="9.986"/>
						<rect x="1175.866" y="218.254" fill="#101111" width="9.25" height="9.986"/>
						<rect x="1204.411" y="218.254" fill="#101111" width="9.25" height="9.986"/>
					</g>
					<g>
						<rect x="1161.845" y="204.898" fill="#101111" width="9.25" height="9.987"/>
						<rect x="1190.308" y="204.871" fill="#101111" width="9.25" height="9.986"/>
						<rect x="1175.866" y="204.871" fill="#101111" width="9.25" height="9.986"/>
						<rect x="1204.411" y="204.871" fill="#101111" width="9.25" height="9.986"/>
					</g>
					<g>
						<rect x="1161.845" y="191.516" fill="#101111" width="9.25" height="9.987"/>
						<rect x="1190.308" y="191.488" fill="#101111" width="9.25" height="9.986"/>
						<rect x="1175.866" y="191.488" fill="#101111" width="9.25" height="9.986"/>
						<rect x="1204.411" y="191.488" fill="#101111" width="9.25" height="9.986"/>
					</g>
					<g>
						<rect x="1161.845" y="178.133" fill="#101111" width="9.25" height="9.987"/>
						<rect x="1190.308" y="178.105" fill="#101111" width="9.25" height="9.986"/>
						<rect x="1175.866" y="178.105" fill="#101111" width="9.25" height="9.986"/>
						<rect x="1204.411" y="178.105" fill="#101111" width="9.25" height="9.986"/>
					</g>
					<g>
						<rect x="1161.845" y="164.75" fill="#101111" width="9.25" height="9.987"/>
						<rect x="1190.308" y="164.723" fill="#101111" width="9.25" height="9.986"/>
						<rect x="1175.866" y="164.723" fill="#101111" width="9.25" height="9.986"/>
						<rect x="1204.411" y="164.723" fill="#101111" width="9.25" height="9.986"/>
					</g>
					<g>
						<rect x="1161.845" y="151.367" fill="#101111" width="9.25" height="9.987"/>
						<rect x="1190.308" y="151.34" fill="#101111" width="9.25" height="9.986"/>
						<rect x="1175.866" y="151.34" fill="#101111" width="9.25" height="9.986"/>
						<rect x="1204.411" y="151.34" fill="#101111" width="9.25" height="9.986"/>
					</g>
					<g>
						<rect x="1161.845" y="137.983" fill="#101111" width="9.25" height="9.987"/>
						<rect x="1190.308" y="137.956" fill="#101111" width="9.25" height="9.986"/>
						<rect x="1175.866" y="137.956" fill="#101111" width="9.25" height="9.986"/>
						<rect x="1204.411" y="137.956" fill="#101111" width="9.25" height="9.986"/>
					</g>
				</g>
				<g>
					<circle fill="#101111" cx="1251.604" cy="41.027" r="3.734"/>
					<circle fill="#222323" cx="1239.411" cy="41.027" r="3.734"/>
				</g>
			</g>
			<g>
				<path fill="#262626" d="M1173.43,101.257c0-8.662,7.026-15.686,15.692-15.686c8.665,0,15.689,7.023,15.689,15.686
					c0,8.664-7.024,15.688-15.689,15.688C1180.456,116.944,1173.43,109.921,1173.43,101.257"/>
				
					<ellipse fill="none" stroke="#131313" stroke-width="0.75" stroke-miterlimit="10" cx="1189.121" cy="101.257" rx="15.691" ry="15.686"/>
				<polygon fill="#040000" points="1191.06,92.361 1191.06,99.32 1198.02,99.32 1198.02,103.197 1191.06,103.197 1191.06,110.154 
					1187.183,110.154 1187.183,103.197 1180.222,103.197 1180.222,99.32 1187.183,99.32 1187.183,92.361 				"/>
				<path fill="#231815" d="M1187.509,109.827v-6.304v-0.653h-0.653h-6.307v-3.224h6.307h0.653v-0.653v-6.305h3.223v6.305v0.653
					h0.656h6.306v3.224h-6.306h-0.656v0.653v6.304H1187.509z M1186.855,110.481h4.532v-6.958h6.96v-4.53h-6.96v-6.959h-4.532v6.959
					h-6.96v4.53h6.96V110.481z"/>
			</g>
			<g>
				<rect x="1161.845" y="27.771" fill="#202121" width="33.088" height="30.071"/>
				<rect x="1161.845" fill="#5D362B" width="33.088" height="30.071"/>
				<rect x="1171.274" y="8.569" fill="#35241F" width="14.229" height="12.933"/>
			</g>
		</g>
	</g>
	<g>
		<g>
			<path fill="#8A8A8A" d="M619.464,82.567H135.208c-6.383,0-11.607-5.223-11.607-11.606V22.267c0-6.384,5.224-11.606,11.607-11.606
				h484.256c6.384,0,11.607,5.223,11.607,11.606v48.694C631.071,77.345,625.848,82.567,619.464,82.567z"/>
			<path fill="#5D362B" d="M254.041,82.567H135.208c-6.383,0-11.607-5.223-11.607-11.606V22.267c0-6.384,5.224-11.606,11.607-11.606
				h118.833V82.567z"/>
		</g>
		<path fill="#5D362B" d="M558.651,82.567h60.301c6.384,0,11.607-5.223,11.607-11.606V22.267c0-6.384-5.223-11.606-11.607-11.606
			h-60.301V82.567z"/>
	</g>
	<g>
		<path fill="#8A8A8A" d="M1142.398,82.567H658.142c-6.383,0-11.606-5.223-11.606-11.606V22.267c0-6.384,5.224-11.606,11.606-11.606
			h484.257c6.384,0,11.606,5.223,11.606,11.606v48.694C1154.005,77.345,1148.782,82.567,1142.398,82.567z"/>
		<path fill="none" stroke="#282828" stroke-width="4" stroke-miterlimit="10" d="M1142.398,82.567H658.142
			c-6.383,0-11.606-5.223-11.606-11.606V22.267c0-6.384,5.224-11.606,11.606-11.606h484.257c6.384,0,11.606,5.223,11.606,11.606
			v48.694C1154.005,77.345,1148.782,82.567,1142.398,82.567z"/>
	</g>
	<g>
		<g>
			<path fill="#8A8A8A" d="M1142.398,82.567H658.142c-6.383,0-11.606-5.223-11.606-11.606V22.267
				c0-6.384,5.224-11.606,11.606-11.606h484.257c6.384,0,11.606,5.223,11.606,11.606v48.694
				C1154.005,77.345,1148.782,82.567,1142.398,82.567z"/>
			<path fill="#5D362B" d="M776.976,82.567H658.142c-6.383,0-11.606-5.223-11.606-11.606V22.267c0-6.384,5.224-11.606,11.606-11.606
				h118.834V82.567z"/>
		</g>
		<path fill="#5D362B" d="M1081.586,82.567h60.301c6.384,0,11.606-5.223,11.606-11.606V22.267c0-6.384-5.223-11.606-11.606-11.606
			h-60.301V82.567z"/>
	</g>
	<path fill="none" stroke="#282828" stroke-width="4" stroke-miterlimit="10" d="M619.464,82.567H135.208
		c-6.383,0-11.607-5.223-11.607-11.606V22.267c0-6.384,5.224-11.606,11.607-11.606h484.256c6.384,0,11.607,5.223,11.607,11.606
		v48.694C631.071,77.345,625.848,82.567,619.464,82.567z"/>
	<g>
		<g>
			<rect x="150.207" y="18.619" fill="#333333" width="26.793" height="24.821"/>
			<rect x="148.207" y="18.619" fill="#D6D7D7" width="26.793" height="22.902"/>
		</g>
		<g>
			<rect x="153.271" y="28.466" fill="#1D1E1E" width="6.333" height="13.056"/>
			<rect x="163.604" y="28.466" fill="#1D1E1E" width="6.333" height="13.056"/>
		</g>
	</g>
	<rect x="208.523" y="18.619" fill="#191919" width="29.25" height="22.902"/>
	<rect x="567.491" y="18.619" fill="#191919" width="29.25" height="22.902"/>
	<circle fill="#D2E063" stroke="#040000" stroke-miterlimit="10" cx="177" cy="63.362" r="6.916"/>
	<circle fill="#D2E063" stroke="#040000" stroke-miterlimit="10" cx="230.435" cy="63.362" r="6.916"/>
	<circle fill="#D2E063" stroke="#040000" stroke-miterlimit="10" cx="573.543" cy="63.362" r="6.916"/>
	<circle fill="#E4D03F" stroke="#040000" stroke-miterlimit="10" cx="522.272" cy="63.362" r="6.916"/>
	<linearGradient id="SVGID_1_" gradientUnits="userSpaceOnUse" x1="329.5952" y1="70.2773" x2="329.5952" y2="0">
		<stop  offset="0" style="stop-color:#333333"/>
		<stop  offset="0.0965" style="stop-color:#4E4D4D"/>
		<stop  offset="0.1641" style="stop-color:#1A1A1A"/>
		<stop  offset="0.9987" style="stop-color:#040000"/>
	</linearGradient>
	<rect x="318.023" fill="url(#SVGID_1_)" width="23.144" height="70.277"/>
	<g>
		<path fill="#424244" d="M505.179,25.442h-26.955c-3.737,0-6.954,2.641-7.679,6.307l-1.806,9.119
			c-0.551,3.123,1.982,5.968,5.313,5.968h35.297c3.331,0,5.864-2.845,5.313-5.968l-1.807-9.119
			C512.131,28.083,508.917,25.442,505.179,25.442"/>
		<path fill="none" stroke="#BABAB9" stroke-miterlimit="10" d="M505.179,25.442h-26.955c-3.737,0-6.954,2.641-7.679,6.307
			l-1.806,9.119c-0.551,3.123,1.982,5.968,5.313,5.968h35.297c3.331,0,5.864-2.845,5.313-5.968l-1.807-9.119
			C512.131,28.083,508.917,25.442,505.179,25.442z"/>
		<path fill="#040000" d="M479.138,41.983c0-1.219-0.985-2.206-2.199-2.206c-1.215,0-2.199,0.987-2.199,2.206
			c0,1.218,0.984,2.206,2.199,2.206C478.153,44.189,479.138,43.201,479.138,41.983"/>
		<path fill="#040000" d="M485.798,41.983c0-1.219-0.984-2.206-2.199-2.206s-2.198,0.987-2.198,2.206
			c0,1.218,0.983,2.206,2.198,2.206S485.798,43.201,485.798,41.983"/>
		<path fill="#040000" d="M492.459,41.983c0-1.219-0.985-2.206-2.199-2.206c-1.215,0-2.2,0.987-2.2,2.206
			c0,1.218,0.985,2.206,2.2,2.206C491.474,44.189,492.459,43.201,492.459,41.983"/>
		<path fill="#040000" d="M499.12,41.983c0-1.219-0.985-2.206-2.199-2.206c-1.215,0-2.198,0.987-2.198,2.206
			c0,1.218,0.983,2.206,2.198,2.206C498.134,44.189,499.12,43.201,499.12,41.983"/>
		<path fill="#040000" d="M505.781,41.983c0-1.219-0.985-2.206-2.199-2.206c-1.215,0-2.2,0.987-2.2,2.206
			c0,1.218,0.985,2.206,2.2,2.206C504.795,44.189,505.781,43.201,505.781,41.983"/>
		<path fill="#040000" d="M482.701,36.139c0-1.218-0.985-2.206-2.199-2.206c-1.215,0-2.2,0.988-2.2,2.206s0.985,2.206,2.2,2.206
			C481.715,38.345,482.701,37.356,482.701,36.139"/>
		<path fill="#040000" d="M489.361,36.139c0-1.218-0.985-2.206-2.199-2.206c-1.215,0-2.199,0.988-2.199,2.206
			s0.984,2.206,2.199,2.206C488.375,38.345,489.361,37.356,489.361,36.139"/>
		<path fill="#040000" d="M496.021,36.139c0-1.218-0.984-2.206-2.198-2.206c-1.216,0-2.199,0.988-2.199,2.206
			s0.983,2.206,2.199,2.206C495.037,38.345,496.021,37.356,496.021,36.139"/>
		<path fill="#040000" d="M502.682,36.139c0-1.218-0.985-2.206-2.199-2.206c-1.215,0-2.199,0.988-2.199,2.206
			s0.984,2.206,2.199,2.206C501.697,38.345,502.682,37.356,502.682,36.139"/>
		<path fill="#040000" d="M509.342,36.139c0-1.218-0.984-2.206-2.199-2.206s-2.199,0.988-2.199,2.206s0.984,2.206,2.199,2.206
			S509.342,37.356,509.342,36.139"/>
		<path fill="#040000" d="M478.458,30.294c0-1.218-0.985-2.206-2.199-2.206c-1.215,0-2.199,0.988-2.199,2.206
			c0,1.219,0.984,2.206,2.199,2.206C477.473,32.5,478.458,31.513,478.458,30.294"/>
		<path fill="#040000" d="M485.12,30.294c0-1.218-0.985-2.206-2.199-2.206c-1.215,0-2.2,0.988-2.2,2.206
			c0,1.219,0.985,2.206,2.2,2.206C484.134,32.5,485.12,31.513,485.12,30.294"/>
		<path fill="#040000" d="M491.78,30.294c0-1.218-0.985-2.206-2.199-2.206c-1.215,0-2.2,0.988-2.2,2.206
			c0,1.219,0.985,2.206,2.2,2.206C490.794,32.5,491.78,31.513,491.78,30.294"/>
		<path fill="#040000" d="M498.441,30.294c0-1.218-0.985-2.206-2.199-2.206c-1.215,0-2.2,0.988-2.2,2.206
			c0,1.219,0.985,2.206,2.2,2.206C497.456,32.5,498.441,31.513,498.441,30.294"/>
		<path fill="#040000" d="M505.101,30.294c0-1.218-0.984-2.206-2.199-2.206c-1.215,0-2.199,0.988-2.199,2.206
			c0,1.219,0.984,2.206,2.199,2.206C504.117,32.5,505.101,31.513,505.101,30.294"/>
		<path fill="#BEBDBD" d="M460.308,32.02c-0.473,0-0.915,0.255-1.15,0.665l-1.796,3.11c-0.238,0.411-0.238,0.919,0.001,1.33
			l1.795,3.111c0.238,0.41,0.678,0.665,1.15,0.665h3.595c0.472,0,0.914-0.255,1.149-0.665l1.797-3.112
			c0.237-0.41,0.237-0.918-0.001-1.33l-1.796-3.109c-0.234-0.41-0.677-0.665-1.149-0.665H460.308z"/>
		<path fill="#8F8F8F" d="M463.902,40.525h-3.593c-0.34,0-0.656-0.182-0.826-0.477l-1.797-3.112c-0.169-0.295-0.169-0.658,0-0.953
			l1.797-3.111c0.17-0.296,0.485-0.478,0.826-0.478h3.593c0.341,0,0.656,0.182,0.826,0.478l1.797,3.111
			c0.17,0.295,0.17,0.658,0,0.953l-1.797,3.112C464.558,40.344,464.243,40.525,463.902,40.525 M463.902,41.275
			c0.607,0,1.172-0.326,1.475-0.852l1.798-3.112c0.302-0.525,0.302-1.178,0-1.703l-1.798-3.111
			c-0.303-0.526-0.867-0.853-1.475-0.853h-3.593c-0.607,0-1.171,0.326-1.476,0.853l-1.796,3.111c-0.304,0.525-0.304,1.178,0,1.703
			l1.796,3.112c0.305,0.525,0.869,0.852,1.476,0.852H463.902"/>
		<path fill="#CECECF" d="M465.714,36.432c0-1.999-1.615-3.62-3.608-3.62c-1.994,0-3.61,1.621-3.61,3.62s1.616,3.62,3.61,3.62
			C464.099,40.052,465.714,38.431,465.714,36.432"/>
		
			<ellipse fill="none" stroke="#8F8F8F" stroke-width="0.25" stroke-miterlimit="10" cx="462.105" cy="36.432" rx="3.609" ry="3.62"/>
		<path fill="#424244" d="M464.335,36.432c0-1.235-0.998-2.236-2.23-2.236c-1.23,0-2.229,1.001-2.229,2.236s0.999,2.236,2.229,2.236
			C463.337,38.668,464.335,37.667,464.335,36.432"/>
		
			<ellipse fill="none" stroke="#040000" stroke-width="0.25" stroke-miterlimit="10" cx="462.105" cy="36.432" rx="2.23" ry="2.236"/>
		<path fill="#8F8F8F" d="M462.798,36.432c0-0.384-0.31-0.695-0.693-0.695c-0.383,0-0.692,0.312-0.692,0.695s0.31,0.695,0.692,0.695
			C462.489,37.127,462.798,36.815,462.798,36.432"/>
		<path fill="#BEBDBD" d="M519.501,32.02c-0.474,0-0.914,0.255-1.151,0.665l-1.797,3.11c-0.236,0.411-0.236,0.919,0,1.329
			l1.797,3.112c0.238,0.41,0.678,0.665,1.151,0.665h3.594c0.472,0,0.914-0.255,1.149-0.665l1.798-3.112
			c0.234-0.41,0.234-0.918,0-1.329l-1.798-3.11c-0.234-0.41-0.677-0.665-1.149-0.665H519.501z"/>
		<path fill="#8F8F8F" d="M523.094,40.525h-3.593c-0.341,0-0.656-0.182-0.826-0.477l-1.797-3.112c-0.17-0.295-0.17-0.658,0-0.953
			l1.797-3.111c0.17-0.296,0.485-0.478,0.826-0.478h3.593c0.34,0,0.656,0.182,0.826,0.478l1.797,3.111
			c0.17,0.295,0.17,0.658,0,0.953l-1.797,3.112C523.75,40.344,523.435,40.525,523.094,40.525 M523.094,41.275
			c0.607,0,1.172-0.326,1.476-0.852l1.797-3.112c0.303-0.525,0.303-1.178,0-1.703l-1.797-3.111
			c-0.304-0.526-0.868-0.853-1.476-0.853h-3.593c-0.608,0-1.172,0.326-1.477,0.853l-1.796,3.111c-0.304,0.525-0.304,1.178,0,1.703
			l1.796,3.112c0.305,0.525,0.869,0.852,1.477,0.852H523.094"/>
		<path fill="#CECECF" d="M524.907,36.432c0-1.999-1.615-3.62-3.608-3.62c-1.994,0-3.611,1.621-3.611,3.62s1.617,3.62,3.611,3.62
			C523.292,40.052,524.907,38.431,524.907,36.432"/>
		
			<ellipse fill="none" stroke="#8F8F8F" stroke-width="0.25" stroke-miterlimit="10" cx="521.297" cy="36.432" rx="3.61" ry="3.62"/>
		<path fill="#424244" d="M523.528,36.432c0-1.235-0.998-2.236-2.23-2.236c-1.23,0-2.229,1.001-2.229,2.236s0.999,2.236,2.229,2.236
			C522.53,38.668,523.528,37.667,523.528,36.432"/>
		
			<ellipse fill="none" stroke="#040000" stroke-width="0.25" stroke-miterlimit="10" cx="521.298" cy="36.432" rx="2.23" ry="2.236"/>
		<path fill="#8F8F8F" d="M521.991,36.432c0-0.384-0.31-0.695-0.692-0.695c-0.384,0-0.693,0.312-0.693,0.695s0.31,0.695,0.693,0.695
			C521.681,37.127,521.991,36.815,521.991,36.432"/>
	</g>
	<path fill="none" stroke="#282828" stroke-width="4" stroke-miterlimit="10" d="M1142.398,82.567H658.142
		c-6.383,0-11.606-5.223-11.606-11.606V22.267c0-6.384,5.224-11.606,11.606-11.606h484.257c6.384,0,11.606,5.223,11.606,11.606
		v48.694C1154.005,77.345,1148.782,82.567,1142.398,82.567z"/>
	<g>
		<g>
			<rect x="673.142" y="18.619" fill="#333333" width="26.793" height="24.821"/>
			<rect x="671.142" y="18.619" fill="#D6D7D7" width="26.793" height="22.902"/>
		</g>
		<g>
			<rect x="676.204" y="28.466" fill="#1D1E1E" width="6.334" height="13.056"/>
			<rect x="686.538" y="28.466" fill="#1D1E1E" width="6.334" height="13.056"/>
		</g>
	</g>
	<rect x="731.458" y="18.619" fill="#191919" width="29.25" height="22.902"/>
	<rect x="1090.426" y="18.619" fill="#191919" width="29.25" height="22.902"/>
	<circle fill="#D2E063" stroke="#040000" stroke-miterlimit="10" cx="699.935" cy="63.362" r="6.916"/>
	<circle fill="#D2E063" stroke="#040000" stroke-miterlimit="10" cx="753.37" cy="63.362" r="6.916"/>
	<circle fill="#D2E063" stroke="#040000" stroke-miterlimit="10" cx="1096.478" cy="63.362" r="6.916"/>
	<circle fill="#E4D03F" stroke="#040000" stroke-miterlimit="10" cx="1045.207" cy="63.362" r="6.916"/>
	<linearGradient id="SVGID_2_" gradientUnits="userSpaceOnUse" x1="852.5293" y1="70.2773" x2="852.5293" y2="0">
		<stop  offset="0" style="stop-color:#333333"/>
		<stop  offset="0.0965" style="stop-color:#4E4D4D"/>
		<stop  offset="0.1641" style="stop-color:#1A1A1A"/>
		<stop  offset="0.9987" style="stop-color:#040000"/>
	</linearGradient>
	<rect x="840.958" fill="url(#SVGID_2_)" width="23.144" height="70.277"/>
	<g>
		<path fill="#424244" d="M1028.113,25.442h-26.955c-3.737,0-6.953,2.641-7.679,6.307l-1.806,9.119
			c-0.551,3.123,1.982,5.968,5.313,5.968h35.297c3.331,0,5.864-2.845,5.313-5.968l-1.807-9.119
			C1035.065,28.083,1031.851,25.442,1028.113,25.442"/>
		<path fill="none" stroke="#BABAB9" stroke-miterlimit="10" d="M1028.113,25.442h-26.955c-3.737,0-6.953,2.641-7.679,6.307
			l-1.806,9.119c-0.551,3.123,1.982,5.968,5.313,5.968h35.297c3.331,0,5.864-2.845,5.313-5.968l-1.807-9.119
			C1035.065,28.083,1031.851,25.442,1028.113,25.442z"/>
		<path fill="#040000" d="M1002.072,41.983c0-1.219-0.985-2.206-2.199-2.206c-1.215,0-2.199,0.987-2.199,2.206
			c0,1.218,0.984,2.206,2.199,2.206C1001.087,44.189,1002.072,43.201,1002.072,41.983"/>
		<path fill="#040000" d="M1008.732,41.983c0-1.219-0.984-2.206-2.199-2.206s-2.198,0.987-2.198,2.206
			c0,1.218,0.983,2.206,2.198,2.206S1008.732,43.201,1008.732,41.983"/>
		<path fill="#040000" d="M1015.394,41.983c0-1.219-0.985-2.206-2.199-2.206c-1.215,0-2.199,0.987-2.199,2.206
			c0,1.218,0.984,2.206,2.199,2.206C1014.408,44.189,1015.394,43.201,1015.394,41.983"/>
		<path fill="#040000" d="M1022.054,41.983c0-1.219-0.985-2.206-2.199-2.206c-1.215,0-2.198,0.987-2.198,2.206
			c0,1.218,0.983,2.206,2.198,2.206C1021.068,44.189,1022.054,43.201,1022.054,41.983"/>
		<path fill="#040000" d="M1028.715,41.983c0-1.219-0.985-2.206-2.199-2.206c-1.215,0-2.2,0.987-2.2,2.206
			c0,1.218,0.985,2.206,2.2,2.206C1027.729,44.189,1028.715,43.201,1028.715,41.983"/>
		<path fill="#040000" d="M1005.635,36.139c0-1.218-0.985-2.206-2.199-2.206c-1.215,0-2.2,0.988-2.2,2.206s0.985,2.206,2.2,2.206
			C1004.649,38.345,1005.635,37.356,1005.635,36.139"/>
		<path fill="#040000" d="M1012.295,36.139c0-1.218-0.985-2.206-2.199-2.206c-1.215,0-2.199,0.988-2.199,2.206
			s0.984,2.206,2.199,2.206C1011.31,38.345,1012.295,37.356,1012.295,36.139"/>
		<path fill="#040000" d="M1018.955,36.139c0-1.218-0.984-2.206-2.198-2.206c-1.216,0-2.199,0.988-2.199,2.206
			s0.983,2.206,2.199,2.206C1017.971,38.345,1018.955,37.356,1018.955,36.139"/>
		<path fill="#040000" d="M1025.616,36.139c0-1.218-0.985-2.206-2.199-2.206c-1.215,0-2.199,0.988-2.199,2.206
			s0.984,2.206,2.199,2.206C1024.631,38.345,1025.616,37.356,1025.616,36.139"/>
		<path fill="#040000" d="M1032.276,36.139c0-1.218-0.984-2.206-2.198-2.206c-1.215,0-2.199,0.988-2.199,2.206
			s0.984,2.206,2.199,2.206C1031.292,38.345,1032.276,37.356,1032.276,36.139"/>
		<path fill="#040000" d="M1001.393,30.294c0-1.218-0.985-2.206-2.199-2.206c-1.215,0-2.198,0.988-2.198,2.206
			c0,1.219,0.983,2.206,2.198,2.206C1000.407,32.5,1001.393,31.513,1001.393,30.294"/>
		<path fill="#040000" d="M1008.054,30.294c0-1.218-0.985-2.206-2.199-2.206c-1.215,0-2.2,0.988-2.2,2.206
			c0,1.219,0.985,2.206,2.2,2.206C1007.068,32.5,1008.054,31.513,1008.054,30.294"/>
		<path fill="#040000" d="M1014.714,30.294c0-1.218-0.985-2.206-2.199-2.206c-1.215,0-2.2,0.988-2.2,2.206
			c0,1.219,0.985,2.206,2.2,2.206C1013.729,32.5,1014.714,31.513,1014.714,30.294"/>
		<path fill="#040000" d="M1021.375,30.294c0-1.218-0.985-2.206-2.199-2.206c-1.215,0-2.2,0.988-2.2,2.206
			c0,1.219,0.985,2.206,2.2,2.206C1020.39,32.5,1021.375,31.513,1021.375,30.294"/>
		<path fill="#040000" d="M1028.035,30.294c0-1.218-0.984-2.206-2.199-2.206s-2.199,0.988-2.199,2.206
			c0,1.219,0.984,2.206,2.199,2.206S1028.035,31.513,1028.035,30.294"/>
		<path fill="#BEBDBD" d="M983.242,32.02c-0.473,0-0.914,0.255-1.15,0.665l-1.796,3.11c-0.238,0.411-0.238,0.919,0.001,1.33
			l1.795,3.111c0.238,0.41,0.678,0.665,1.15,0.665h3.595c0.472,0,0.914-0.255,1.149-0.665l1.797-3.112
			c0.237-0.41,0.237-0.918-0.001-1.33l-1.796-3.109c-0.234-0.41-0.677-0.665-1.149-0.665H983.242z"/>
		<path fill="#8F8F8F" d="M986.836,40.525h-3.593c-0.341,0-0.656-0.182-0.826-0.477l-1.797-3.112c-0.17-0.295-0.17-0.658,0-0.953
			l1.797-3.111c0.17-0.296,0.485-0.478,0.826-0.478h3.593c0.341,0,0.656,0.182,0.826,0.478l1.797,3.111
			c0.17,0.295,0.17,0.658,0,0.953l-1.797,3.112C987.492,40.344,987.177,40.525,986.836,40.525 M986.836,41.275
			c0.607,0,1.172-0.326,1.475-0.852l1.798-3.112c0.303-0.525,0.303-1.178,0-1.703l-1.798-3.111
			c-0.303-0.526-0.867-0.853-1.475-0.853h-3.593c-0.607,0-1.172,0.326-1.477,0.853l-1.796,3.111c-0.304,0.525-0.304,1.178,0,1.703
			l1.796,3.112c0.305,0.525,0.869,0.852,1.477,0.852H986.836"/>
		<path fill="#CECECF" d="M988.648,36.432c0-1.999-1.615-3.62-3.608-3.62c-1.994,0-3.61,1.621-3.61,3.62s1.616,3.62,3.61,3.62
			C987.033,40.052,988.648,38.431,988.648,36.432"/>
		
			<ellipse fill="none" stroke="#8F8F8F" stroke-width="0.25" stroke-miterlimit="10" cx="985.039" cy="36.432" rx="3.609" ry="3.62"/>
		<path fill="#424244" d="M987.27,36.432c0-1.235-0.998-2.236-2.23-2.236c-1.23,0-2.229,1.001-2.229,2.236s0.999,2.236,2.229,2.236
			C986.271,38.668,987.27,37.667,987.27,36.432"/>
		
			<ellipse fill="none" stroke="#040000" stroke-width="0.25" stroke-miterlimit="10" cx="985.04" cy="36.432" rx="2.23" ry="2.236"/>
		<path fill="#8F8F8F" d="M985.732,36.432c0-0.384-0.31-0.695-0.693-0.695c-0.383,0-0.692,0.312-0.692,0.695s0.31,0.695,0.692,0.695
			C985.423,37.127,985.732,36.815,985.732,36.432"/>
		<path fill="#BEBDBD" d="M1042.436,32.02c-0.474,0-0.914,0.255-1.151,0.665l-1.797,3.11c-0.236,0.411-0.236,0.919,0,1.329
			l1.797,3.112c0.238,0.41,0.678,0.665,1.151,0.665h3.594c0.472,0,0.914-0.255,1.149-0.665l1.798-3.112
			c0.234-0.41,0.234-0.918,0-1.329l-1.798-3.11c-0.234-0.41-0.677-0.665-1.149-0.665H1042.436z"/>
		<path fill="#8F8F8F" d="M1046.028,40.525h-3.593c-0.341,0-0.656-0.182-0.826-0.477l-1.797-3.112c-0.17-0.295-0.17-0.658,0-0.953
			l1.797-3.111c0.17-0.296,0.485-0.478,0.826-0.478h3.593c0.341,0,0.656,0.182,0.826,0.478l1.797,3.111
			c0.17,0.295,0.17,0.658,0,0.953l-1.797,3.112C1046.685,40.344,1046.369,40.525,1046.028,40.525 M1046.028,41.275
			c0.607,0,1.172-0.326,1.476-0.852l1.797-3.112c0.303-0.525,0.303-1.178,0-1.703l-1.797-3.111
			c-0.304-0.526-0.868-0.853-1.476-0.853h-3.593c-0.607,0-1.172,0.326-1.477,0.853l-1.796,3.111c-0.304,0.525-0.304,1.178,0,1.703
			l1.796,3.112c0.305,0.525,0.869,0.852,1.477,0.852H1046.028"/>
		<path fill="#CECECF" d="M1047.841,36.432c0-1.999-1.615-3.62-3.608-3.62c-1.994,0-3.61,1.621-3.61,3.62s1.616,3.62,3.61,3.62
			C1046.226,40.052,1047.841,38.431,1047.841,36.432"/>
		
			<ellipse fill="none" stroke="#8F8F8F" stroke-width="0.25" stroke-miterlimit="10" cx="1044.231" cy="36.432" rx="3.609" ry="3.62"/>
		<path fill="#424244" d="M1046.462,36.432c0-1.235-0.998-2.236-2.23-2.236c-1.23,0-2.229,1.001-2.229,2.236
			s0.999,2.236,2.229,2.236C1045.464,38.668,1046.462,37.667,1046.462,36.432"/>
		
			<ellipse fill="none" stroke="#040000" stroke-width="0.25" stroke-miterlimit="10" cx="1044.232" cy="36.432" rx="2.23" ry="2.236"/>
		<path fill="#8F8F8F" d="M1044.925,36.432c0-0.384-0.31-0.695-0.692-0.695c-0.384,0-0.693,0.312-0.693,0.695
			s0.31,0.695,0.693,0.695C1044.615,37.127,1044.925,36.815,1044.925,36.432"/>
	</g>
	<rect x="123.601" y="89.573" fill="#191919" width="449.942" height="14.668"/>
	<rect x="701.083" y="89.573" fill="#191919" width="452.922" height="14.668"/>
	<path fill="#C9C9C9" d="M553.238,252.283H137.583c-9.468,0-17.144-7.676-17.144-17.145V121.386c0-9.469,7.676-17.145,17.144-17.145
		h415.654c9.468,0,17.144,7.676,17.144,17.145v113.753C570.382,244.607,562.706,252.283,553.238,252.283z"/>
	<g>
		<path fill="#222323" d="M553.238,109.241c6.696,0,12.144,5.448,12.144,12.145v113.753c0,6.696-5.448,12.145-12.144,12.145H137.583
			c-6.696,0-12.144-5.448-12.144-12.145V121.386c0-6.696,5.448-12.145,12.144-12.145H553.238 M553.238,104.241H137.583
			c-9.468,0-17.144,7.676-17.144,17.145v113.753c0,9.469,7.676,17.145,17.144,17.145h415.654c9.468,0,17.144-7.676,17.144-17.145
			V121.386C570.382,111.917,562.706,104.241,553.238,104.241L553.238,104.241z"/>
	</g>
	<circle fill="#D2E063" stroke="#040000" stroke-miterlimit="10" cx="476.658" cy="161.411" r="6.916"/>
	<circle fill="#191919" cx="476.658" cy="194.44" r="6.916"/>
	<g>
		<g>
			<g>
				<rect x="236.5" y="126.961" fill="#222323" width="43.448" height="37.395"/>
			</g>
			<path fill="#222323" d="M230.748,162.821l-13.54-8.002c-7.164-4.234-7.058-14.637,0.191-18.724l13.7-7.725
				c7.249-4.087,16.204,1.206,16.12,9.527l-0.161,15.727C246.974,161.946,237.913,167.056,230.748,162.821z"/>
			<path fill="#222323" d="M285.669,162.821l13.54-8.002c7.164-4.234,7.058-14.637-0.191-18.724l-13.7-7.725
				c-7.249-4.087-16.205,1.206-16.12,9.527l0.161,15.727C269.443,161.946,278.505,167.056,285.669,162.821z"/>
		</g>
		<g>
			<g>
				<path fill="#AFAFAF" d="M231.461,145.658c0,3.584-2.908,6.489-6.495,6.489c-3.587,0-6.495-2.905-6.495-6.489
					s2.908-6.489,6.495-6.489C228.554,139.169,231.461,142.074,231.461,145.658"/>
				<ellipse fill="none" stroke="#949394" stroke-miterlimit="10" cx="224.966" cy="145.658" rx="6.495" ry="6.489"/>
				<path fill="#AFAFAF" d="M229.739,145.658c0,2.633-2.137,4.768-4.772,4.768s-4.772-2.135-4.772-4.768s2.137-4.768,4.772-4.768
					S229.739,143.025,229.739,145.658"/>
				<circle fill="none" stroke="#949394" stroke-miterlimit="10" cx="224.967" cy="145.658" r="4.772"/>
				<g>
					<g>
						<defs>
							<rect id="SVGID_3_" x="220.467" y="141.164" width="8.999" height="8.987"/>
						</defs>
						<clipPath id="SVGID_4_">
							<use xlink:href="#SVGID_3_"  overflow="visible"/>
						</clipPath>
						<path clip-path="url(#SVGID_4_)" fill="#BFBFBF" d="M229.464,145.658c0,2.481-2.014,4.493-4.498,4.493
							c-2.484,0-4.498-2.012-4.498-4.493s2.014-4.494,4.498-4.494C227.451,141.164,229.464,143.177,229.464,145.658"/>
						<path clip-path="url(#SVGID_4_)" fill="#C1C1C1" d="M229.358,145.658c0,2.423-1.967,4.388-4.392,4.388
							s-4.392-1.965-4.392-4.388s1.966-4.388,4.392-4.388S229.358,143.235,229.358,145.658"/>
						<path clip-path="url(#SVGID_4_)" fill="#C3C4C4" d="M229.252,145.658c0,2.364-1.919,4.282-4.286,4.282
							s-4.286-1.918-4.286-4.282s1.919-4.282,4.286-4.282S229.252,143.294,229.252,145.658"/>
						<path clip-path="url(#SVGID_4_)" fill="#C5C6C6" d="M229.146,145.658c0,2.307-1.871,4.177-4.18,4.177
							c-2.309,0-4.181-1.87-4.181-4.177s1.872-4.177,4.181-4.177C227.275,141.481,229.146,143.352,229.146,145.658"/>
						<path clip-path="url(#SVGID_4_)" fill="#C7C9C9" d="M229.042,145.658c0,2.248-1.825,4.071-4.075,4.071
							s-4.074-1.823-4.074-4.071s1.824-4.071,4.074-4.071S229.042,143.41,229.042,145.658"/>
						<path clip-path="url(#SVGID_4_)" fill="#CACBCB" d="M228.935,145.658c0,2.189-1.776,3.965-3.969,3.965
							c-2.192,0-3.969-1.775-3.969-3.965s1.777-3.966,3.969-3.966C227.159,141.692,228.935,143.469,228.935,145.658"/>
						<path clip-path="url(#SVGID_4_)" fill="#CCCECE" d="M228.83,145.658c0,2.131-1.73,3.859-3.863,3.859s-3.863-1.729-3.863-3.859
							c0-2.132,1.729-3.859,3.863-3.859S228.83,143.526,228.83,145.658"/>
						<path clip-path="url(#SVGID_4_)" fill="#CED0D0" d="M228.724,145.658c0,2.072-1.682,3.754-3.757,3.754
							c-2.075,0-3.757-1.682-3.757-3.754c0-2.073,1.683-3.754,3.757-3.754C227.042,141.904,228.724,143.585,228.724,145.658"/>
						<path clip-path="url(#SVGID_4_)" fill="#D1D3D3" d="M228.618,145.658c0,2.015-1.634,3.648-3.651,3.648
							c-2.017,0-3.651-1.634-3.651-3.648s1.635-3.648,3.651-3.648C226.983,142.01,228.618,143.644,228.618,145.658"/>
						<path clip-path="url(#SVGID_4_)" fill="#D3D5D5" d="M228.512,145.658c0,1.956-1.588,3.542-3.546,3.542
							c-1.958,0-3.545-1.586-3.545-3.542s1.587-3.542,3.545-3.542C226.924,142.116,228.512,143.702,228.512,145.658"/>
					</g>
				</g>
				<polygon fill="#5F5F5E" points="224.379,148.36 224.379,146.245 222.262,146.245 222.262,145.071 224.379,145.071 
					224.379,142.956 225.554,142.956 225.554,145.071 227.671,145.071 227.671,146.245 225.554,146.245 225.554,148.36 				"/>
				<path fill="#231815" d="M225.453,143.058v1.911v0.204h0.203h1.914v0.971h-1.914h-0.203v0.203v1.912h-0.972v-1.912v-0.203h-0.204
					h-1.913v-0.971h1.913h0.204v-0.204v-1.911H225.453z M225.656,142.854h-1.379v2.114h-2.117v1.378h2.117v2.115h1.379v-2.115h2.116
					v-1.378h-2.116V142.854z"/>
			</g>
			<g>
				<path fill="#AFAFAF" d="M297.946,145.658c0,3.584-2.908,6.489-6.495,6.489c-3.587,0-6.495-2.905-6.495-6.489
					s2.908-6.489,6.495-6.489C295.038,139.169,297.946,142.074,297.946,145.658"/>
				<ellipse fill="none" stroke="#949394" stroke-miterlimit="10" cx="291.451" cy="145.658" rx="6.495" ry="6.489"/>
				<path fill="#AFAFAF" d="M296.223,145.658c0,2.633-2.137,4.768-4.772,4.768c-2.635,0-4.772-2.135-4.772-4.768
					s2.137-4.768,4.772-4.768C294.086,140.891,296.223,143.025,296.223,145.658"/>
				<circle fill="none" stroke="#949394" stroke-miterlimit="10" cx="291.451" cy="145.658" r="4.772"/>
				<g>
					<g>
						<defs>
							<rect id="SVGID_5_" x="286.952" y="141.164" width="8.998" height="8.987"/>
						</defs>
						<clipPath id="SVGID_6_">
							<use xlink:href="#SVGID_5_"  overflow="visible"/>
						</clipPath>
						<path clip-path="url(#SVGID_6_)" fill="#BFBFBF" d="M295.949,145.658c0,2.481-2.014,4.493-4.498,4.493
							c-2.484,0-4.498-2.012-4.498-4.493s2.014-4.494,4.498-4.494C293.935,141.164,295.949,143.177,295.949,145.658"/>
						<path clip-path="url(#SVGID_6_)" fill="#C1C1C1" d="M295.843,145.658c0,2.423-1.967,4.388-4.392,4.388
							s-4.392-1.965-4.392-4.388s1.966-4.388,4.392-4.388S295.843,143.235,295.843,145.658"/>
						<path clip-path="url(#SVGID_6_)" fill="#C3C4C4" d="M295.737,145.658c0,2.364-1.919,4.282-4.287,4.282
							c-2.367,0-4.286-1.918-4.286-4.282s1.919-4.282,4.286-4.282C293.818,141.376,295.737,143.294,295.737,145.658"/>
						<path clip-path="url(#SVGID_6_)" fill="#C5C6C6" d="M295.631,145.658c0,2.307-1.872,4.177-4.181,4.177
							c-2.309,0-4.18-1.87-4.18-4.177s1.872-4.177,4.18-4.177C293.76,141.481,295.631,143.352,295.631,145.658"/>
						<path clip-path="url(#SVGID_6_)" fill="#C7C9C9" d="M295.526,145.658c0,2.248-1.825,4.071-4.075,4.071
							c-2.25,0-4.074-1.823-4.074-4.071s1.824-4.071,4.074-4.071C293.701,141.587,295.526,143.41,295.526,145.658"/>
						<path clip-path="url(#SVGID_6_)" fill="#CACBCB" d="M295.42,145.658c0,2.189-1.777,3.965-3.969,3.965
							c-2.192,0-3.968-1.775-3.968-3.965s1.776-3.966,3.968-3.966C293.643,141.692,295.42,143.469,295.42,145.658"/>
						<path clip-path="url(#SVGID_6_)" fill="#CCCECE" d="M295.314,145.658c0,2.131-1.73,3.859-3.863,3.859
							s-3.862-1.729-3.862-3.859c0-2.132,1.729-3.859,3.862-3.859S295.314,143.526,295.314,145.658"/>
						<path clip-path="url(#SVGID_6_)" fill="#CED0D0" d="M295.208,145.658c0,2.072-1.683,3.754-3.758,3.754
							c-2.075,0-3.757-1.682-3.757-3.754c0-2.073,1.683-3.754,3.757-3.754C293.526,141.904,295.208,143.585,295.208,145.658"/>
						<path clip-path="url(#SVGID_6_)" fill="#D1D3D3" d="M295.102,145.658c0,2.015-1.634,3.648-3.651,3.648
							c-2.016,0-3.651-1.634-3.651-3.648s1.635-3.648,3.651-3.648C293.468,142.01,295.102,143.644,295.102,145.658"/>
						<path clip-path="url(#SVGID_6_)" fill="#D3D5D5" d="M294.997,145.658c0,1.956-1.587,3.542-3.546,3.542
							c-1.958,0-3.545-1.586-3.545-3.542s1.587-3.542,3.545-3.542C293.409,142.116,294.997,143.702,294.997,145.658"/>
					</g>
				</g>
				<polygon fill="#5F5F5E" points="290.863,148.36 290.863,146.245 288.746,146.245 288.746,145.071 290.863,145.071 
					290.863,142.956 292.039,142.956 292.039,145.071 294.155,145.071 294.155,146.245 292.039,146.245 292.039,148.36 				"/>
				<path fill="#231815" d="M291.937,143.058v1.911v0.204h0.203h1.914v0.971h-1.914h-0.203v0.203v1.912h-0.972v-1.912v-0.203h-0.204
					h-1.914v-0.971h1.914h0.204v-0.204v-1.911H291.937z M292.14,142.854h-1.378v2.114h-2.117v1.378h2.117v2.115h1.378v-2.115h2.116
					v-1.378h-2.116V142.854z"/>
			</g>
		</g>
	</g>
	<g>
		<g>
			<defs>
				<rect id="SVGID_7_" x="375.375" y="128.058" width="50.56" height="30.069"/>
			</defs>
			<clipPath id="SVGID_8_">
				<use xlink:href="#SVGID_7_"  overflow="visible"/>
			</clipPath>
			
				<linearGradient id="SVGID_9_" gradientUnits="userSpaceOnUse" x1="-368.1738" y1="612.7344" x2="-367.3289" y2="612.7344" gradientTransform="matrix(-79.8244 0 0 -79.8244 -28954.1875 49054.25)">
				<stop  offset="0" style="stop-color:#103677"/>
				<stop  offset="0.2581" style="stop-color:#162146"/>
				<stop  offset="1" style="stop-color:#04051E"/>
			</linearGradient>
			<rect x="375.375" y="128.058" clip-path="url(#SVGID_8_)" fill="url(#SVGID_9_)" width="50.56" height="30.069"/>
		</g>
		<g>
			<defs>
				<path id="SVGID_10_" d="M376.611,127.981h49.386c0.24,0,0.381,0.118,0.388,0.075v30.707c-0.049,0.051-0.182,0.136-0.388,0.136
					h-49.386c-0.241,0-0.383-0.114-0.39-0.072l-0.017-30.683C376.229,128.101,376.371,127.981,376.611,127.981"/>
			</defs>
			<clipPath id="SVGID_11_">
				<use xlink:href="#SVGID_10_"  overflow="visible"/>
			</clipPath>
			
				<linearGradient id="SVGID_12_" gradientUnits="userSpaceOnUse" x1="62.2529" y1="164.6533" x2="63.0982" y2="164.6533" gradientTransform="matrix(58.6222 0 0 58.6222 -3272.6875 -9508.9063)">
				<stop  offset="0" style="stop-color:#2E2623"/>
				<stop  offset="1" style="stop-color:#342E2C"/>
			</linearGradient>
			<rect x="376.204" y="127.981" clip-path="url(#SVGID_11_)" fill="url(#SVGID_12_)" width="50.181" height="30.918"/>
		</g>
		<path d="M377.066,157.881v-28.878h48.474v28.878H377.066z M375.375,158.827c0,0.604,0.553,1.095,1.236,1.095h49.386
			c0.683,0,1.233-0.49,1.233-1.095v-30.771c0-0.602-0.551-1.096-1.233-1.096h-49.386c-0.683,0-1.236,0.494-1.236,1.096V158.827"/>
		<path fill="#030303" d="M418.951,154.328c0.489,0,0.882-0.324,0.882-0.724v-20.325c0-0.399-0.393-0.724-0.882-0.724h-35.292
			c-0.487,0-0.883,0.324-0.883,0.724v20.325c0,0.399,0.396,0.724,0.883,0.724H418.951z"/>
		<g>
			<defs>
				<path id="SVGID_13_" d="M385.223,134.623c0-0.349,0.344-0.628,0.768-0.628h15.313v18.895h-15.313
					c-0.424,0-0.768-0.282-0.768-0.628V134.623z"/>
			</defs>
			<clipPath id="SVGID_14_">
				<use xlink:href="#SVGID_13_"  overflow="visible"/>
			</clipPath>
			
				<linearGradient id="SVGID_15_" gradientUnits="userSpaceOnUse" x1="457.1885" y1="-246.4766" x2="458.034" y2="-246.4766" gradientTransform="matrix(22.6221 0 0 22.6221 -9950.5156 5719.2656)">
				<stop  offset="0" style="stop-color:#261C19"/>
				<stop  offset="1" style="stop-color:#524E4E"/>
			</linearGradient>
			<rect x="385.223" y="133.995" clip-path="url(#SVGID_14_)" fill="url(#SVGID_15_)" width="16.081" height="18.895"/>
		</g>
		<path fill="#050505" d="M401.304,133.995h15.314c0.424,0,0.765,0.28,0.765,0.627v17.641c0,0.346-0.341,0.626-0.765,0.626h-15.314
			V133.995z"/>
		<path fill="#121212" d="M401.304,133.995h15.314c0.424,0,0.765,0.28,0.765,0.627v17.641c0,0.346-0.341,0.626-0.765,0.626h-15.314
			V133.995z"/>
		<rect x="401.304" y="133.996" fill="#030303" width="0.663" height="18.894"/>
		<rect x="389.405" y="142.061" fill="#4D4D4D" width="7.717" height="2.063"/>
		
			<ellipse fill="none" stroke="#4D4D4D" stroke-width="0.783" stroke-miterlimit="10" cx="409.382" cy="143.493" rx="1.353" ry="1.633"/>
	</g>
	<g>
		<rect x="287.032" y="206.871" fill="#191919" width="66.306" height="23.261"/>
		<g>
			<circle fill="#191919" cx="338.14" cy="218.501" r="15.198"/>
			<rect x="337.063" y="215.126" fill="#E3E2E2" width="2.155" height="6.75"/>
		</g>
	</g>
	<g>
		<path fill="#C9C9C9" d="M1138.005,252.283H722.352c-9.468,0-17.144-7.676-17.144-17.145V121.386
			c0-9.469,7.676-17.145,17.144-17.145h415.653c9.469,0,17.145,7.676,17.145,17.145v113.753
			C1155.149,244.607,1147.474,252.283,1138.005,252.283z"/>
		<g>
			<path fill="#222323" d="M1138.005,109.241c6.696,0,12.145,5.448,12.145,12.145v113.753c0,6.696-5.448,12.145-12.145,12.145
				H722.352c-6.696,0-12.144-5.448-12.144-12.145V121.386c0-6.696,5.447-12.145,12.144-12.145H1138.005 M1138.005,104.241H722.352
				c-9.468,0-17.144,7.676-17.144,17.145v113.753c0,9.469,7.676,17.145,17.144,17.145h415.653c9.469,0,17.145-7.676,17.145-17.145
				V121.386C1155.149,111.917,1147.474,104.241,1138.005,104.241L1138.005,104.241z"/>
		</g>
		<circle fill="#D2E063" stroke="#040000" stroke-miterlimit="10" cx="1061.426" cy="161.411" r="6.916"/>
		<circle fill="#191919" cx="1061.426" cy="194.44" r="6.916"/>
		<g>
			<g>
				<g>
					<rect x="821.269" y="126.961" fill="#222323" width="43.447" height="37.395"/>
				</g>
				<path fill="#222323" d="M815.516,162.821l-13.539-8.002c-7.164-4.234-7.058-14.637,0.191-18.724l13.7-7.725
					c7.249-4.087,16.204,1.206,16.119,9.527l-0.16,15.727C831.741,161.946,822.681,167.056,815.516,162.821z"/>
				<path fill="#222323" d="M870.437,162.821l13.54-8.002c7.164-4.234,7.058-14.637-0.191-18.724l-13.7-7.725
					c-7.249-4.087-16.204,1.206-16.119,9.527l0.16,15.727C854.211,161.946,863.272,167.056,870.437,162.821z"/>
			</g>
			<g>
				<g>
					<path fill="#AFAFAF" d="M816.229,145.658c0,3.584-2.908,6.489-6.495,6.489s-6.495-2.905-6.495-6.489s2.908-6.489,6.495-6.489
						S816.229,142.074,816.229,145.658"/>
					<ellipse fill="none" stroke="#949394" stroke-miterlimit="10" cx="809.734" cy="145.658" rx="6.495" ry="6.489"/>
					<path fill="#AFAFAF" d="M814.507,145.658c0,2.633-2.137,4.768-4.772,4.768s-4.772-2.135-4.772-4.768s2.137-4.768,4.772-4.768
						S814.507,143.025,814.507,145.658"/>
					<circle fill="none" stroke="#949394" stroke-miterlimit="10" cx="809.734" cy="145.658" r="4.772"/>
					<g>
						<g>
							<defs>
								<rect id="SVGID_16_" x="805.234" y="141.164" width="8.999" height="8.987"/>
							</defs>
							<clipPath id="SVGID_17_">
								<use xlink:href="#SVGID_16_"  overflow="visible"/>
							</clipPath>
							<path clip-path="url(#SVGID_17_)" fill="#BFBFBF" d="M814.232,145.658c0,2.481-2.015,4.493-4.498,4.493
								c-2.484,0-4.498-2.012-4.498-4.493s2.014-4.494,4.498-4.494C812.218,141.164,814.232,143.177,814.232,145.658"/>
							<path clip-path="url(#SVGID_17_)" fill="#C1C1C1" d="M814.126,145.658c0,2.423-1.967,4.388-4.392,4.388
								c-2.426,0-4.392-1.965-4.392-4.388s1.966-4.388,4.392-4.388C812.159,141.271,814.126,143.235,814.126,145.658"/>
							<path clip-path="url(#SVGID_17_)" fill="#C3C4C4" d="M814.021,145.658c0,2.364-1.919,4.282-4.286,4.282
								s-4.286-1.918-4.286-4.282s1.919-4.282,4.286-4.282S814.021,143.294,814.021,145.658"/>
							<path clip-path="url(#SVGID_17_)" fill="#C5C6C6" d="M813.915,145.658c0,2.307-1.872,4.177-4.181,4.177
								c-2.31,0-4.181-1.87-4.181-4.177s1.871-4.177,4.181-4.177C812.043,141.481,813.915,143.352,813.915,145.658"/>
							<path clip-path="url(#SVGID_17_)" fill="#C7C9C9" d="M813.81,145.658c0,2.248-1.825,4.071-4.075,4.071
								s-4.075-1.823-4.075-4.071s1.825-4.071,4.075-4.071S813.81,143.41,813.81,145.658"/>
							<path clip-path="url(#SVGID_17_)" fill="#CACBCB" d="M813.703,145.658c0,2.189-1.776,3.965-3.969,3.965
								s-3.969-1.775-3.969-3.965s1.776-3.966,3.969-3.966S813.703,143.469,813.703,145.658"/>
							<path clip-path="url(#SVGID_17_)" fill="#CCCECE" d="M813.598,145.658c0,2.131-1.73,3.859-3.863,3.859
								c-2.134,0-3.862-1.729-3.862-3.859c0-2.132,1.729-3.859,3.862-3.859C811.867,141.799,813.598,143.526,813.598,145.658"/>
							<path clip-path="url(#SVGID_17_)" fill="#CED0D0" d="M813.491,145.658c0,2.072-1.682,3.754-3.757,3.754
								s-3.758-1.682-3.758-3.754c0-2.073,1.683-3.754,3.758-3.754S813.491,143.585,813.491,145.658"/>
							<path clip-path="url(#SVGID_17_)" fill="#D1D3D3" d="M813.386,145.658c0,2.015-1.635,3.648-3.651,3.648
								s-3.651-1.634-3.651-3.648s1.635-3.648,3.651-3.648S813.386,143.644,813.386,145.658"/>
							<path clip-path="url(#SVGID_17_)" fill="#D3D5D5" d="M813.28,145.658c0,1.956-1.588,3.542-3.546,3.542
								s-3.546-1.586-3.546-3.542s1.588-3.542,3.546-3.542S813.28,143.702,813.28,145.658"/>
						</g>
					</g>
					<polygon fill="#5F5F5E" points="809.146,148.36 809.146,146.245 807.029,146.245 807.029,145.071 809.146,145.071 
						809.146,142.956 810.321,142.956 810.321,145.071 812.438,145.071 812.438,146.245 810.321,146.245 810.321,148.36 					"/>
					<path fill="#231815" d="M810.22,143.058v1.911v0.204h0.204h1.913v0.971h-1.913h-0.204v0.203v1.912h-0.971v-1.912v-0.203h-0.204
						h-1.913v-0.971h1.913h0.204v-0.204v-1.911H810.22z M810.424,142.854h-1.379v2.114h-2.116v1.378h2.116v2.115h1.379v-2.115h2.116
						v-1.378h-2.116V142.854z"/>
				</g>
				<g>
					<path fill="#AFAFAF" d="M882.714,145.658c0,3.584-2.908,6.489-6.495,6.489s-6.495-2.905-6.495-6.489s2.908-6.489,6.495-6.489
						S882.714,142.074,882.714,145.658"/>
					<ellipse fill="none" stroke="#949394" stroke-miterlimit="10" cx="876.219" cy="145.658" rx="6.495" ry="6.489"/>
					<path fill="#AFAFAF" d="M880.991,145.658c0,2.633-2.137,4.768-4.772,4.768s-4.772-2.135-4.772-4.768s2.137-4.768,4.772-4.768
						S880.991,143.025,880.991,145.658"/>
					<circle fill="none" stroke="#949394" stroke-miterlimit="10" cx="876.219" cy="145.658" r="4.772"/>
					<g>
						<g>
							<defs>
								<rect id="SVGID_18_" x="871.72" y="141.164" width="8.998" height="8.987"/>
							</defs>
							<clipPath id="SVGID_19_">
								<use xlink:href="#SVGID_18_"  overflow="visible"/>
							</clipPath>
							<path clip-path="url(#SVGID_19_)" fill="#BFBFBF" d="M880.717,145.658c0,2.481-2.014,4.493-4.498,4.493
								s-4.498-2.012-4.498-4.493s2.014-4.494,4.498-4.494S880.717,143.177,880.717,145.658"/>
							<path clip-path="url(#SVGID_19_)" fill="#C1C1C1" d="M880.61,145.658c0,2.423-1.967,4.388-4.392,4.388
								c-2.426,0-4.392-1.965-4.392-4.388s1.966-4.388,4.392-4.388C878.644,141.271,880.61,143.235,880.61,145.658"/>
							<path clip-path="url(#SVGID_19_)" fill="#C3C4C4" d="M880.505,145.658c0,2.364-1.919,4.282-4.286,4.282
								s-4.286-1.918-4.286-4.282s1.919-4.282,4.286-4.282S880.505,143.294,880.505,145.658"/>
							<path clip-path="url(#SVGID_19_)" fill="#C5C6C6" d="M880.399,145.658c0,2.307-1.872,4.177-4.181,4.177
								c-2.31,0-4.181-1.87-4.181-4.177s1.871-4.177,4.181-4.177C878.527,141.481,880.399,143.352,880.399,145.658"/>
							<path clip-path="url(#SVGID_19_)" fill="#C7C9C9" d="M880.294,145.658c0,2.248-1.825,4.071-4.075,4.071
								s-4.074-1.823-4.074-4.071s1.824-4.071,4.074-4.071S880.294,143.41,880.294,145.658"/>
							<path clip-path="url(#SVGID_19_)" fill="#CACBCB" d="M880.188,145.658c0,2.189-1.776,3.965-3.969,3.965
								s-3.969-1.775-3.969-3.965s1.776-3.966,3.969-3.966S880.188,143.469,880.188,145.658"/>
							<path clip-path="url(#SVGID_19_)" fill="#CCCECE" d="M880.082,145.658c0,2.131-1.729,3.859-3.863,3.859
								s-3.862-1.729-3.862-3.859c0-2.132,1.729-3.859,3.862-3.859S880.082,143.526,880.082,145.658"/>
							<path clip-path="url(#SVGID_19_)" fill="#CED0D0" d="M879.976,145.658c0,2.072-1.682,3.754-3.757,3.754
								s-3.758-1.682-3.758-3.754c0-2.073,1.683-3.754,3.758-3.754S879.976,143.585,879.976,145.658"/>
							<path clip-path="url(#SVGID_19_)" fill="#D1D3D3" d="M879.87,145.658c0,2.015-1.635,3.648-3.651,3.648
								s-3.651-1.634-3.651-3.648s1.635-3.648,3.651-3.648S879.87,143.644,879.87,145.658"/>
							<path clip-path="url(#SVGID_19_)" fill="#D3D5D5" d="M879.765,145.658c0,1.956-1.588,3.542-3.546,3.542
								s-3.546-1.586-3.546-3.542s1.588-3.542,3.546-3.542S879.765,143.702,879.765,145.658"/>
						</g>
					</g>
					<polygon fill="#5F5F5E" points="875.631,148.36 875.631,146.245 873.515,146.245 873.515,145.071 875.631,145.071 
						875.631,142.956 876.806,142.956 876.806,145.071 878.923,145.071 878.923,146.245 876.806,146.245 876.806,148.36 					"/>
					<path fill="#231815" d="M876.705,143.058v1.911v0.204h0.203h1.913v0.971h-1.913h-0.203v0.203v1.912h-0.972v-1.912v-0.203
						h-0.204h-1.913v-0.971h1.913h0.204v-0.204v-1.911H876.705z M876.908,142.854h-1.379v2.114h-2.116v1.378h2.116v2.115h1.379
						v-2.115h2.116v-1.378h-2.116V142.854z"/>
				</g>
			</g>
		</g>
		<g>
			<g>
				<defs>
					<rect id="SVGID_20_" x="960.144" y="128.058" width="50.561" height="30.069"/>
				</defs>
				<clipPath id="SVGID_21_">
					<use xlink:href="#SVGID_20_"  overflow="visible"/>
				</clipPath>
				
					<linearGradient id="SVGID_22_" gradientUnits="userSpaceOnUse" x1="-375.4995" y1="612.7344" x2="-374.6546" y2="612.7344" gradientTransform="matrix(-79.8244 0 0 -79.8244 -28954.1875 49054.25)">
					<stop  offset="0" style="stop-color:#103677"/>
					<stop  offset="0.2581" style="stop-color:#162146"/>
					<stop  offset="1" style="stop-color:#04051E"/>
				</linearGradient>
				<rect x="960.144" y="128.058" clip-path="url(#SVGID_21_)" fill="url(#SVGID_22_)" width="50.561" height="30.069"/>
			</g>
			<g>
				<defs>
					<path id="SVGID_23_" d="M961.379,127.981h49.386c0.24,0,0.381,0.118,0.389,0.075v30.707c-0.049,0.051-0.182,0.136-0.389,0.136
						h-49.386c-0.241,0-0.383-0.114-0.39-0.072l-0.018-30.683C960.996,128.101,961.138,127.981,961.379,127.981"/>
				</defs>
				<clipPath id="SVGID_24_">
					<use xlink:href="#SVGID_23_"  overflow="visible"/>
				</clipPath>
				
					<linearGradient id="SVGID_25_" gradientUnits="userSpaceOnUse" x1="72.228" y1="164.6533" x2="73.0737" y2="164.6533" gradientTransform="matrix(58.6222 0 0 58.6222 -3272.6875 -9508.9063)">
					<stop  offset="0" style="stop-color:#2E2623"/>
					<stop  offset="1" style="stop-color:#342E2C"/>
				</linearGradient>
				<rect x="960.972" y="127.981" clip-path="url(#SVGID_24_)" fill="url(#SVGID_25_)" width="50.182" height="30.918"/>
			</g>
			<path d="M961.834,157.881v-28.878h48.474v28.878H961.834z M960.144,158.827c0,0.604,0.553,1.095,1.235,1.095h49.386
				c0.683,0,1.233-0.49,1.233-1.095v-30.771c0-0.602-0.551-1.096-1.233-1.096h-49.386c-0.683,0-1.235,0.494-1.235,1.096V158.827"/>
			<path fill="#030303" d="M1003.719,154.328c0.488,0,0.882-0.324,0.882-0.724v-20.325c0-0.399-0.394-0.724-0.882-0.724h-35.293
				c-0.487,0-0.882,0.324-0.882,0.724v20.325c0,0.399,0.395,0.724,0.882,0.724H1003.719z"/>
			<g>
				<defs>
					<path id="SVGID_26_" d="M969.991,134.623c0-0.349,0.344-0.628,0.768-0.628h15.313v18.895h-15.313
						c-0.424,0-0.768-0.282-0.768-0.628V134.623z"/>
				</defs>
				<clipPath id="SVGID_27_">
					<use xlink:href="#SVGID_26_"  overflow="visible"/>
				</clipPath>
				
					<linearGradient id="SVGID_28_" gradientUnits="userSpaceOnUse" x1="483.0376" y1="-246.4766" x2="483.8831" y2="-246.4766" gradientTransform="matrix(22.6221 0 0 22.6221 -9950.5156 5719.2656)">
					<stop  offset="0" style="stop-color:#261C19"/>
					<stop  offset="1" style="stop-color:#524E4E"/>
				</linearGradient>
				<rect x="969.991" y="133.995" clip-path="url(#SVGID_27_)" fill="url(#SVGID_28_)" width="16.08" height="18.895"/>
			</g>
			<path fill="#050505" d="M986.071,133.995h15.314c0.425,0,0.766,0.28,0.766,0.627v17.641c0,0.346-0.341,0.626-0.766,0.626h-15.314
				V133.995z"/>
			<path fill="#121212" d="M986.071,133.995h15.314c0.425,0,0.766,0.28,0.766,0.627v17.641c0,0.346-0.341,0.626-0.766,0.626h-15.314
				V133.995z"/>
			<rect x="986.071" y="133.996" fill="#030303" width="0.663" height="18.894"/>
			<rect x="974.173" y="142.061" fill="#4D4D4D" width="7.718" height="2.063"/>
			
				<ellipse fill="none" stroke="#4D4D4D" stroke-width="0.783" stroke-miterlimit="10" cx="994.149" cy="143.493" rx="1.354" ry="1.633"/>
		</g>
		<g>
			<rect x="871.8" y="206.871" fill="#191919" width="66.306" height="23.261"/>
			<g>
				<circle fill="#191919" cx="922.908" cy="218.501" r="15.198"/>
				<rect x="921.83" y="215.126" fill="#E3E2E2" width="2.155" height="6.75"/>
			</g>
		</g>
	</g>
	<rect x="577.235" y="89.573" fill="#C9C9C9" width="121.12" height="162.71"/>
	<g>
		<path fill="#191919" d="M693.354,94.573v152.71h-111.12V94.573H693.354 M698.354,89.573h-121.12v162.71h121.12V89.573
			L698.354,89.573z"/>
	</g>
	<rect x="611.525" y="149.047" fill="#262626" width="52.538" height="41.337"/>
	<circle fill="#D2E063" stroke="#040000" stroke-miterlimit="10" cx="679.372" cy="169.411" r="6.916"/>
	<circle fill="#191919" cx="679.372" cy="202.44" r="6.916"/>
</g>
</svg>
