<?xml version="1.0" encoding="utf-8"?>
<!-- Generator: Adobe Illustrator 16.0.0, SVG Export Plug-In . SVG Version: 6.00 Build 0)  -->
<!DOCTYPE svg PUBLIC "-//W3C//DTD SVG 1.1//EN" "http://www.w3.org/Graphics/SVG/1.1/DTD/svg11.dtd">
<svg version="1.1" id="图层_1" xmlns="http://www.w3.org/2000/svg" xmlns:xlink="http://www.w3.org/1999/xlink" x="0px" y="0px"
	 width="1275.59px" height="252.29px" viewBox="0 0 1275.59 252.29" enable-background="new 0 0 1275.59 252.29"
	 xml:space="preserve">
<g>
	<g>
		<rect y="0.003" fill="#A6A6A5" width="1275.59" height="126.142"/>
		<g>
			<rect y="126.145" fill="#A6A6A5" width="1275.59" height="126.142"/>
		</g>
	</g>
	<g>
		<path fill="#8A8A8A" d="M1246.246,161.914H667.242c-8.287,0-15.006-6.717-15.006-15.006V32.921
			c0-8.288,6.719-15.006,15.006-15.006h579.004c8.287,0,15.006,6.719,15.006,15.006v113.987
			C1261.252,155.197,1254.533,161.914,1246.246,161.914z"/>
		<path fill="none" stroke="#222323" stroke-width="5" stroke-miterlimit="10" d="M1246.246,161.914H667.242
			c-8.287,0-15.006-6.717-15.006-15.006V32.921c0-8.288,6.719-15.006,15.006-15.006h579.004c8.287,0,15.006,6.719,15.006,15.006
			v113.987C1261.252,155.197,1254.533,161.914,1246.246,161.914z"/>
	</g>
	<g>
		<g>
			<polygon fill="#222427" points="668.867,93.212 665.253,98.46 668.867,103.709 676.098,103.709 679.713,98.46 676.098,93.212 			
				"/>
		</g>
		<g>
			<polygon fill="#222427" points="668.867,106.483 665.253,111.732 668.867,116.98 676.098,116.98 679.713,111.732 
				676.098,106.483 			"/>
		</g>
		<g>
			<polygon fill="#222427" points="668.867,119.002 665.253,124.251 668.867,129.5 676.098,129.5 679.713,124.251 676.098,119.002 
							"/>
		</g>
		<g>
			<polygon fill="#222427" points="668.867,132.273 665.253,137.521 668.867,142.77 676.098,142.77 679.713,137.521 
				676.098,132.273 			"/>
		</g>
		<g>
			<polygon fill="#222427" points="668.867,144.813 665.253,150.061 668.867,155.309 676.098,155.309 679.713,150.061 
				676.098,144.813 			"/>
		</g>
		<g>
			<polygon fill="#222427" points="697.271,93.212 693.657,98.46 697.271,103.709 704.502,103.709 708.117,98.46 704.502,93.212 			
				"/>
		</g>
		<g>
			<polygon fill="#222427" points="697.271,106.483 693.657,111.732 697.271,116.98 704.502,116.98 708.117,111.732 
				704.502,106.483 			"/>
		</g>
		<g>
			<polygon fill="#222427" points="697.271,119.002 693.657,124.251 697.271,129.5 704.502,129.5 708.117,124.251 704.502,119.002 
							"/>
		</g>
		<g>
			<polygon fill="#222427" points="697.271,132.273 693.657,137.521 697.271,142.77 704.502,142.77 708.117,137.521 
				704.502,132.273 			"/>
		</g>
		<g>
			<polygon fill="#222427" points="726.191,93.212 722.576,98.46 726.191,103.709 733.422,103.709 737.037,98.46 733.422,93.212 			
				"/>
		</g>
		<g>
			<polygon fill="#222427" points="726.191,106.483 722.576,111.732 726.191,116.98 733.422,116.98 737.037,111.732 
				733.422,106.483 			"/>
		</g>
		<g>
			<polygon fill="#222427" points="726.191,119.002 722.576,124.251 726.191,129.5 733.422,129.5 737.037,124.251 733.422,119.002 
							"/>
		</g>
		<g>
			<polygon fill="#222427" points="726.191,132.273 722.576,137.521 726.191,142.77 733.422,142.77 737.037,137.521 
				733.422,132.273 			"/>
		</g>
		<g>
			<polygon fill="#222427" points="726.191,145.289 722.576,150.537 726.191,155.787 733.422,155.787 737.037,150.537 
				733.422,145.289 			"/>
		</g>
		<g>
			<polygon fill="#222427" points="755.111,93.212 751.497,98.46 755.111,103.709 762.342,103.709 765.957,98.46 762.342,93.212 			
				"/>
		</g>
		<g>
			<polygon fill="#222427" points="755.111,106.483 751.497,111.732 755.111,116.98 762.342,116.98 765.957,111.732 
				762.342,106.483 			"/>
		</g>
		<g>
			<polygon fill="#222427" points="755.111,119.002 751.497,124.251 755.111,129.5 762.342,129.5 765.957,124.251 762.342,119.002 
							"/>
		</g>
		<g>
			<polygon fill="#222427" points="755.111,132.273 751.497,137.521 755.111,142.77 762.342,142.77 765.957,137.521 
				762.342,132.273 			"/>
		</g>
		<g>
			<polygon fill="#222427" points="755.111,145.289 751.497,150.537 755.111,155.787 762.342,155.787 765.957,150.537 
				762.342,145.289 			"/>
		</g>
		<g>
			<polygon fill="#222427" points="697.271,144.813 693.657,150.061 697.271,155.309 704.502,155.309 708.117,150.061 
				704.502,144.813 			"/>
		</g>
		<g>
			<polygon fill="#222427" points="682.811,99.718 679.197,104.966 682.811,110.214 690.042,110.214 693.657,104.966 
				690.042,99.718 			"/>
		</g>
		<g>
			<polygon fill="#222427" points="682.811,112.989 679.197,118.236 682.811,123.485 690.042,123.485 693.657,118.236 
				690.042,112.989 			"/>
		</g>
		<g>
			<polygon fill="#222427" points="682.811,125.507 679.197,130.756 682.811,136.006 690.042,136.006 693.657,130.756 
				690.042,125.507 			"/>
		</g>
		<g>
			<polygon fill="#222427" points="682.811,138.779 679.197,144.027 682.811,149.275 690.042,149.275 693.657,144.027 
				690.042,138.779 			"/>
		</g>
		<g>
			<polygon fill="#222427" points="711.731,99.718 708.117,104.966 711.731,110.214 718.963,110.214 722.576,104.966 
				718.963,99.718 			"/>
		</g>
		<g>
			<polygon fill="#222427" points="711.731,112.989 708.117,118.236 711.731,123.485 718.963,123.485 722.576,118.236 
				718.963,112.989 			"/>
		</g>
		<g>
			<polygon fill="#222427" points="711.731,125.507 708.117,130.756 711.731,136.006 718.963,136.006 722.576,130.756 
				718.963,125.507 			"/>
		</g>
		<g>
			<polygon fill="#222427" points="711.731,138.779 708.117,144.027 711.731,149.275 718.963,149.275 722.576,144.027 
				718.963,138.779 			"/>
		</g>
		<g>
			<polygon fill="#222427" points="740.652,99.718 737.037,104.966 740.652,110.214 747.883,110.214 751.497,104.966 
				747.883,99.718 			"/>
		</g>
		<g>
			<polygon fill="#222427" points="740.652,112.989 737.037,118.236 740.652,123.485 747.883,123.485 751.497,118.236 
				747.883,112.989 			"/>
		</g>
		<g>
			<polygon fill="#222427" points="740.652,125.507 737.037,130.756 740.652,136.006 747.883,136.006 751.497,130.756 
				747.883,125.507 			"/>
		</g>
		<g>
			<polygon fill="#222427" points="740.652,138.779 737.037,144.027 740.652,149.275 747.883,149.275 751.497,144.027 
				747.883,138.779 			"/>
		</g>
		<g>
			<polygon fill="#222427" points="784.031,93.212 780.418,98.46 784.031,103.709 791.262,103.709 794.877,98.46 791.262,93.212 			
				"/>
		</g>
		<g>
			<polygon fill="#222427" points="784.031,106.483 780.418,111.732 784.031,116.98 791.262,116.98 794.877,111.732 
				791.262,106.483 			"/>
		</g>
		<g>
			<polygon fill="#222427" points="784.031,119.002 780.418,124.251 784.031,129.5 791.262,129.5 794.877,124.251 791.262,119.002 
							"/>
		</g>
		<g>
			<polygon fill="#222427" points="784.031,132.273 780.418,137.521 784.031,142.77 791.262,142.77 794.877,137.521 
				791.262,132.273 			"/>
		</g>
		<g>
			<polygon fill="#222427" points="784.031,144.813 780.418,150.061 784.031,155.309 791.262,155.309 794.877,150.061 
				791.262,144.813 			"/>
		</g>
		<g>
			<polygon fill="#222427" points="769.572,99.718 765.957,104.966 769.572,110.214 776.803,110.214 780.418,104.966 
				776.803,99.718 			"/>
		</g>
		<g>
			<polygon fill="#222427" points="769.572,112.989 765.957,118.236 769.572,123.485 776.803,123.485 780.418,118.236 
				776.803,112.989 			"/>
		</g>
		<g>
			<polygon fill="#222427" points="769.572,125.507 765.957,130.756 769.572,136.006 776.803,136.006 780.418,130.756 
				776.803,125.507 			"/>
		</g>
		<g>
			<polygon fill="#222427" points="769.572,138.779 765.957,144.027 769.572,149.275 776.803,149.275 780.418,144.027 
				776.803,138.779 			"/>
		</g>
		<g>
			<polygon fill="#222427" points="812.951,93.212 809.336,98.46 812.951,103.709 820.183,103.709 823.797,98.46 820.183,93.212 			
				"/>
		</g>
		<g>
			<polygon fill="#222427" points="668.867,80.236 665.253,85.484 668.867,90.733 676.098,90.733 679.713,85.484 676.098,80.236 			
				"/>
		</g>
		<g>
			<polygon fill="#222427" points="697.271,80.236 693.657,85.484 697.271,90.733 704.502,90.733 708.117,85.484 704.502,80.236 			
				"/>
		</g>
		<g>
			<polygon fill="#222427" points="726.191,80.236 722.576,85.484 726.191,90.733 733.422,90.733 737.037,85.484 733.422,80.236 			
				"/>
		</g>
		<g>
			<polygon fill="#222427" points="755.111,80.236 751.497,85.484 755.111,90.733 762.342,90.733 765.957,85.484 762.342,80.236 			
				"/>
		</g>
		<g>
			<polygon fill="#222427" points="784.031,80.236 780.418,85.484 784.031,90.733 791.262,90.733 794.877,85.484 791.262,80.236 			
				"/>
		</g>
		<g>
			<polygon fill="#222427" points="812.951,80.236 809.336,85.484 812.951,90.733 820.183,90.733 823.797,85.484 820.183,80.236 			
				"/>
		</g>
		<g>
			<polygon fill="#222427" points="812.951,106.483 809.336,111.732 812.951,116.98 820.183,116.98 823.797,111.732 
				820.183,106.483 			"/>
		</g>
		<g>
			<polygon fill="#222427" points="812.951,119.002 809.336,124.251 812.951,129.5 820.183,129.5 823.797,124.251 820.183,119.002 
							"/>
		</g>
		<g>
			<polygon fill="#222427" points="812.951,132.273 809.336,137.521 812.951,142.77 820.183,142.77 823.797,137.521 
				820.183,132.273 			"/>
		</g>
		<g>
			<polygon fill="#222427" points="812.951,144.813 809.336,150.061 812.951,155.309 820.183,155.309 823.797,150.061 
				820.183,144.813 			"/>
		</g>
		<g>
			<polygon fill="#222427" points="798.491,99.718 794.877,104.966 798.491,110.214 805.723,110.214 809.336,104.966 
				805.723,99.718 			"/>
		</g>
		<g>
			<polygon fill="#222427" points="682.811,87.137 679.197,92.386 682.811,97.634 690.042,97.634 693.657,92.386 690.042,87.137 			
				"/>
		</g>
		<g>
			<polygon fill="#222427" points="711.731,87.137 708.117,92.386 711.731,97.634 718.963,97.634 722.576,92.386 718.963,87.137 			
				"/>
		</g>
		<g>
			<polygon fill="#222427" points="740.652,87.137 737.037,92.386 740.652,97.634 747.883,97.634 751.497,92.386 747.883,87.137 			
				"/>
		</g>
		<g>
			<polygon fill="#222427" points="769.572,87.137 765.957,92.386 769.572,97.634 776.803,97.634 780.418,92.386 776.803,87.137 			
				"/>
		</g>
		<g>
			<polygon fill="#222427" points="798.491,87.137 794.877,92.386 798.491,97.634 805.723,97.634 809.336,92.386 805.723,87.137 			
				"/>
		</g>
		<g>
			<polygon fill="#222427" points="798.491,112.989 794.877,118.236 798.491,123.485 805.723,123.485 809.336,118.236 
				805.723,112.989 			"/>
		</g>
		<g>
			<polygon fill="#222427" points="798.491,125.507 794.877,130.756 798.491,136.006 805.723,136.006 809.336,130.756 
				805.723,125.507 			"/>
		</g>
		<g>
			<polygon fill="#222427" points="798.491,138.779 794.877,144.027 798.491,149.275 805.723,149.275 809.336,144.027 
				805.723,138.779 			"/>
		</g>
	</g>
	<g>
		<g>
			<polygon fill="#222427" points="470.326,137.115 466.712,142.363 470.326,147.613 477.558,147.613 481.172,142.363 
				477.558,137.115 			"/>
		</g>
		<g>
			<polygon fill="#222427" points="470.326,150.387 466.712,155.635 470.326,160.883 477.558,160.883 481.172,155.635 
				477.558,150.387 			"/>
		</g>
		<g>
			<polygon fill="#222427" points="470.326,162.906 466.712,168.154 470.326,173.402 477.558,173.402 481.172,168.154 
				477.558,162.906 			"/>
		</g>
		<g>
			<polygon fill="#222427" points="470.326,176.176 466.712,181.426 470.326,186.674 477.558,186.674 481.172,181.426 
				477.558,176.176 			"/>
		</g>
		<g>
			<polygon fill="#222427" points="470.326,188.715 466.712,193.965 470.326,199.213 477.558,199.213 481.172,193.965 
				477.558,188.715 			"/>
		</g>
		<g>
			<polygon fill="#222427" points="498.73,137.115 495.117,142.363 498.73,147.613 505.962,147.613 509.576,142.363 
				505.962,137.115 			"/>
		</g>
		<g>
			<polygon fill="#222427" points="498.73,150.387 495.117,155.635 498.73,160.883 505.962,160.883 509.576,155.635 
				505.962,150.387 			"/>
		</g>
		<g>
			<polygon fill="#222427" points="498.73,162.906 495.117,168.154 498.73,173.402 505.962,173.402 509.576,168.154 
				505.962,162.906 			"/>
		</g>
		<g>
			<polygon fill="#222427" points="498.73,176.176 495.117,181.426 498.73,186.674 505.962,186.674 509.576,181.426 
				505.962,176.176 			"/>
		</g>
		<g>
			<polygon fill="#222427" points="527.65,137.115 524.036,142.363 527.65,147.613 534.881,147.613 538.496,142.363 
				534.881,137.115 			"/>
		</g>
		<g>
			<polygon fill="#222427" points="527.65,150.387 524.036,155.635 527.65,160.883 534.881,160.883 538.496,155.635 
				534.881,150.387 			"/>
		</g>
		<g>
			<polygon fill="#222427" points="527.65,162.906 524.036,168.154 527.65,173.402 534.881,173.402 538.496,168.154 
				534.881,162.906 			"/>
		</g>
		<g>
			<polygon fill="#222427" points="527.65,176.176 524.036,181.426 527.65,186.674 534.881,186.674 538.496,181.426 
				534.881,176.176 			"/>
		</g>
		<g>
			<polygon fill="#222427" points="527.65,189.193 524.036,194.441 527.65,199.689 534.881,199.689 538.496,194.441 
				534.881,189.193 			"/>
		</g>
		<g>
			<polygon fill="#222427" points="556.57,137.115 552.956,142.363 556.57,147.613 563.801,147.613 567.416,142.363 
				563.801,137.115 			"/>
		</g>
		<g>
			<polygon fill="#222427" points="556.57,150.387 552.956,155.635 556.57,160.883 563.801,160.883 567.416,155.635 
				563.801,150.387 			"/>
		</g>
		<g>
			<polygon fill="#222427" points="556.57,162.906 552.956,168.154 556.57,173.402 563.801,173.402 567.416,168.154 
				563.801,162.906 			"/>
		</g>
		<g>
			<polygon fill="#222427" points="556.57,176.176 552.956,181.426 556.57,186.674 563.801,186.674 567.416,181.426 
				563.801,176.176 			"/>
		</g>
		<g>
			<polygon fill="#222427" points="556.57,189.193 552.956,194.441 556.57,199.689 563.801,199.689 567.416,194.441 
				563.801,189.193 			"/>
		</g>
		<g>
			<polygon fill="#222427" points="498.73,188.715 495.117,193.965 498.73,199.213 505.962,199.213 509.576,193.965 
				505.962,188.715 			"/>
		</g>
		<g>
			<polygon fill="#222427" points="484.271,143.621 480.656,148.869 484.271,154.117 491.501,154.117 495.117,148.869 
				491.501,143.621 			"/>
		</g>
		<g>
			<polygon fill="#222427" points="484.271,156.893 480.656,162.141 484.271,167.389 491.501,167.389 495.117,162.141 
				491.501,156.893 			"/>
		</g>
		<g>
			<polygon fill="#222427" points="484.271,169.412 480.656,174.66 484.271,179.908 491.501,179.908 495.117,174.66 
				491.501,169.412 			"/>
		</g>
		<g>
			<polygon fill="#222427" points="484.271,182.682 480.656,187.93 484.271,193.18 491.501,193.18 495.117,187.93 491.501,182.682 
							"/>
		</g>
		<g>
			<polygon fill="#222427" points="513.191,143.621 509.576,148.869 513.191,154.117 520.422,154.117 524.036,148.869 
				520.422,143.621 			"/>
		</g>
		<g>
			<polygon fill="#222427" points="513.191,156.893 509.576,162.141 513.191,167.389 520.422,167.389 524.036,162.141 
				520.422,156.893 			"/>
		</g>
		<g>
			<polygon fill="#222427" points="513.191,169.412 509.576,174.66 513.191,179.908 520.422,179.908 524.036,174.66 
				520.422,169.412 			"/>
		</g>
		<g>
			<polygon fill="#222427" points="513.191,182.682 509.576,187.93 513.191,193.18 520.422,193.18 524.036,187.93 520.422,182.682 
							"/>
		</g>
		<g>
			<polygon fill="#222427" points="542.111,143.621 538.496,148.869 542.111,154.117 549.342,154.117 552.956,148.869 
				549.342,143.621 			"/>
		</g>
		<g>
			<polygon fill="#222427" points="542.111,156.893 538.496,162.141 542.111,167.389 549.342,167.389 552.956,162.141 
				549.342,156.893 			"/>
		</g>
		<g>
			<polygon fill="#222427" points="542.111,169.412 538.496,174.66 542.111,179.908 549.342,179.908 552.956,174.66 
				549.342,169.412 			"/>
		</g>
		<g>
			<polygon fill="#222427" points="542.111,182.682 538.496,187.93 542.111,193.18 549.342,193.18 552.956,187.93 549.342,182.682 
							"/>
		</g>
		<g>
			<polygon fill="#222427" points="585.491,137.115 581.877,142.363 585.491,147.613 592.722,147.613 596.336,142.363 
				592.722,137.115 			"/>
		</g>
		<g>
			<polygon fill="#222427" points="585.491,150.387 581.877,155.635 585.491,160.883 592.722,160.883 596.336,155.635 
				592.722,150.387 			"/>
		</g>
		<g>
			<polygon fill="#222427" points="585.491,162.906 581.877,168.154 585.491,173.402 592.722,173.402 596.336,168.154 
				592.722,162.906 			"/>
		</g>
		<g>
			<polygon fill="#222427" points="585.491,176.176 581.877,181.426 585.491,186.674 592.722,186.674 596.336,181.426 
				592.722,176.176 			"/>
		</g>
		<g>
			<polygon fill="#222427" points="585.491,188.715 581.877,193.965 585.491,199.213 592.722,199.213 596.336,193.965 
				592.722,188.715 			"/>
		</g>
		<g>
			<polygon fill="#222427" points="571.031,143.621 567.416,148.869 571.031,154.117 578.262,154.117 581.877,148.869 
				578.262,143.621 			"/>
		</g>
		<g>
			<polygon fill="#222427" points="571.031,156.893 567.416,162.141 571.031,167.389 578.262,167.389 581.877,162.141 
				578.262,156.893 			"/>
		</g>
		<g>
			<polygon fill="#222427" points="571.031,169.412 567.416,174.66 571.031,179.908 578.262,179.908 581.877,174.66 
				578.262,169.412 			"/>
		</g>
		<g>
			<polygon fill="#222427" points="571.031,182.682 567.416,187.93 571.031,193.18 578.262,193.18 581.877,187.93 578.262,182.682 
							"/>
		</g>
		<g>
			<polygon fill="#222427" points="614.41,137.115 610.796,142.363 614.41,147.613 621.643,147.613 625.256,142.363 
				621.643,137.115 			"/>
		</g>
		<g>
			<polygon fill="#222427" points="470.326,124.14 466.712,129.387 470.326,134.637 477.558,134.637 481.172,129.387 
				477.558,124.14 			"/>
		</g>
		<g>
			<polygon fill="#222427" points="498.73,124.14 495.117,129.387 498.73,134.637 505.962,134.637 509.576,129.387 505.962,124.14 
							"/>
		</g>
		<g>
			<polygon fill="#222427" points="527.65,124.14 524.036,129.387 527.65,134.637 534.881,134.637 538.496,129.387 534.881,124.14 
							"/>
		</g>
		<g>
			<polygon fill="#222427" points="556.57,124.14 552.956,129.387 556.57,134.637 563.801,134.637 567.416,129.387 563.801,124.14 
							"/>
		</g>
		<g>
			<polygon fill="#222427" points="585.491,124.14 581.877,129.387 585.491,134.637 592.722,134.637 596.336,129.387 
				592.722,124.14 			"/>
		</g>
		<g>
			<polygon fill="#222427" points="614.41,124.14 610.796,129.387 614.41,134.637 621.643,134.637 625.256,129.387 621.643,124.14 
							"/>
		</g>
		<g>
			<polygon fill="#222427" points="614.41,150.387 610.796,155.635 614.41,160.883 621.643,160.883 625.256,155.635 
				621.643,150.387 			"/>
		</g>
		<g>
			<polygon fill="#222427" points="614.41,162.906 610.796,168.154 614.41,173.402 621.643,173.402 625.256,168.154 
				621.643,162.906 			"/>
		</g>
		<g>
			<polygon fill="#222427" points="614.41,176.176 610.796,181.426 614.41,186.674 621.643,186.674 625.256,181.426 
				621.643,176.176 			"/>
		</g>
		<g>
			<polygon fill="#222427" points="614.41,188.715 610.796,193.965 614.41,199.213 621.643,199.213 625.256,193.965 
				621.643,188.715 			"/>
		</g>
		<g>
			<polygon fill="#222427" points="599.951,143.621 596.336,148.869 599.951,154.117 607.182,154.117 610.796,148.869 
				607.182,143.621 			"/>
		</g>
		<g>
			<polygon fill="#222427" points="484.271,131.041 480.656,136.289 484.271,141.537 491.501,141.537 495.117,136.289 
				491.501,131.041 			"/>
		</g>
		<g>
			<polygon fill="#222427" points="513.191,131.041 509.576,136.289 513.191,141.537 520.422,141.537 524.036,136.289 
				520.422,131.041 			"/>
		</g>
		<g>
			<polygon fill="#222427" points="542.111,131.041 538.496,136.289 542.111,141.537 549.342,141.537 552.956,136.289 
				549.342,131.041 			"/>
		</g>
		<g>
			<polygon fill="#222427" points="571.031,131.041 567.416,136.289 571.031,141.537 578.262,141.537 581.877,136.289 
				578.262,131.041 			"/>
		</g>
		<g>
			<polygon fill="#222427" points="599.951,131.041 596.336,136.289 599.951,141.537 607.182,141.537 610.796,136.289 
				607.182,131.041 			"/>
		</g>
		<g>
			<polygon fill="#222427" points="599.951,156.893 596.336,162.141 599.951,167.389 607.182,167.389 610.796,162.141 
				607.182,156.893 			"/>
		</g>
		<g>
			<polygon fill="#222427" points="599.951,169.412 596.336,174.66 599.951,179.908 607.182,179.908 610.796,174.66 
				607.182,169.412 			"/>
		</g>
		<g>
			<polygon fill="#222427" points="599.951,182.682 596.336,187.93 599.951,193.18 607.182,193.18 610.796,187.93 607.182,182.682 
							"/>
		</g>
	</g>
	<g>
		<g>
			<polygon fill="#222427" points="193.062,137.115 189.448,142.363 193.062,147.613 200.293,147.613 203.908,142.363 
				200.293,137.115 			"/>
		</g>
		<g>
			<polygon fill="#222427" points="193.062,150.387 189.448,155.635 193.062,160.883 200.293,160.883 203.908,155.635 
				200.293,150.387 			"/>
		</g>
		<g>
			<polygon fill="#222427" points="193.062,162.906 189.448,168.154 193.062,173.402 200.293,173.402 203.908,168.154 
				200.293,162.906 			"/>
		</g>
		<g>
			<polygon fill="#222427" points="193.062,176.176 189.448,181.426 193.062,186.674 200.293,186.674 203.908,181.426 
				200.293,176.176 			"/>
		</g>
		<g>
			<polygon fill="#222427" points="193.062,188.715 189.448,193.965 193.062,199.213 200.293,199.213 203.908,193.965 
				200.293,188.715 			"/>
		</g>
		<g>
			<polygon fill="#222427" points="221.467,137.115 217.853,142.363 221.467,147.613 228.698,147.613 232.313,142.363 
				228.698,137.115 			"/>
		</g>
		<g>
			<polygon fill="#222427" points="221.467,150.387 217.853,155.635 221.467,160.883 228.698,160.883 232.313,155.635 
				228.698,150.387 			"/>
		</g>
		<g>
			<polygon fill="#222427" points="221.467,162.906 217.853,168.154 221.467,173.402 228.698,173.402 232.313,168.154 
				228.698,162.906 			"/>
		</g>
		<g>
			<polygon fill="#222427" points="221.467,176.176 217.853,181.426 221.467,186.674 228.698,186.674 232.313,181.426 
				228.698,176.176 			"/>
		</g>
		<g>
			<polygon fill="#222427" points="250.386,137.115 246.772,142.363 250.386,147.613 257.617,147.613 261.232,142.363 
				257.617,137.115 			"/>
		</g>
		<g>
			<polygon fill="#222427" points="250.386,150.387 246.772,155.635 250.386,160.883 257.617,160.883 261.232,155.635 
				257.617,150.387 			"/>
		</g>
		<g>
			<polygon fill="#222427" points="250.386,162.906 246.772,168.154 250.386,173.402 257.617,173.402 261.232,168.154 
				257.617,162.906 			"/>
		</g>
		<g>
			<polygon fill="#222427" points="250.386,176.176 246.772,181.426 250.386,186.674 257.617,186.674 261.232,181.426 
				257.617,176.176 			"/>
		</g>
		<g>
			<polygon fill="#222427" points="250.386,189.193 246.772,194.441 250.386,199.689 257.617,199.689 261.232,194.441 
				257.617,189.193 			"/>
		</g>
		<g>
			<polygon fill="#222427" points="279.307,137.115 275.692,142.363 279.307,147.613 286.537,147.613 290.152,142.363 
				286.537,137.115 			"/>
		</g>
		<g>
			<polygon fill="#222427" points="279.307,150.387 275.692,155.635 279.307,160.883 286.537,160.883 290.152,155.635 
				286.537,150.387 			"/>
		</g>
		<g>
			<polygon fill="#222427" points="279.307,162.906 275.692,168.154 279.307,173.402 286.537,173.402 290.152,168.154 
				286.537,162.906 			"/>
		</g>
		<g>
			<polygon fill="#222427" points="279.307,176.176 275.692,181.426 279.307,186.674 286.537,186.674 290.152,181.426 
				286.537,176.176 			"/>
		</g>
		<g>
			<polygon fill="#222427" points="279.307,189.193 275.692,194.441 279.307,199.689 286.537,199.689 290.152,194.441 
				286.537,189.193 			"/>
		</g>
		<g>
			<polygon fill="#222427" points="221.467,188.715 217.853,193.965 221.467,199.213 228.698,199.213 232.313,193.965 
				228.698,188.715 			"/>
		</g>
		<g>
			<polygon fill="#222427" points="207.006,143.621 203.392,148.869 207.006,154.117 214.237,154.117 217.853,148.869 
				214.237,143.621 			"/>
		</g>
		<g>
			<polygon fill="#222427" points="207.006,156.893 203.392,162.141 207.006,167.389 214.237,167.389 217.853,162.141 
				214.237,156.893 			"/>
		</g>
		<g>
			<polygon fill="#222427" points="207.006,169.412 203.392,174.66 207.006,179.908 214.237,179.908 217.853,174.66 
				214.237,169.412 			"/>
		</g>
		<g>
			<polygon fill="#222427" points="207.006,182.682 203.392,187.93 207.006,193.18 214.237,193.18 217.853,187.93 214.237,182.682 
							"/>
		</g>
		<g>
			<polygon fill="#222427" points="235.927,143.621 232.313,148.869 235.927,154.117 243.157,154.117 246.772,148.869 
				243.157,143.621 			"/>
		</g>
		<g>
			<polygon fill="#222427" points="235.927,156.893 232.313,162.141 235.927,167.389 243.157,167.389 246.772,162.141 
				243.157,156.893 			"/>
		</g>
		<g>
			<polygon fill="#222427" points="235.927,169.412 232.313,174.66 235.927,179.908 243.157,179.908 246.772,174.66 
				243.157,169.412 			"/>
		</g>
		<g>
			<polygon fill="#222427" points="235.927,182.682 232.313,187.93 235.927,193.18 243.157,193.18 246.772,187.93 243.157,182.682 
							"/>
		</g>
		<g>
			<polygon fill="#222427" points="264.847,143.621 261.232,148.869 264.847,154.117 272.078,154.117 275.692,148.869 
				272.078,143.621 			"/>
		</g>
		<g>
			<polygon fill="#222427" points="264.847,156.893 261.232,162.141 264.847,167.389 272.078,167.389 275.692,162.141 
				272.078,156.893 			"/>
		</g>
		<g>
			<polygon fill="#222427" points="264.847,169.412 261.232,174.66 264.847,179.908 272.078,179.908 275.692,174.66 
				272.078,169.412 			"/>
		</g>
		<g>
			<polygon fill="#222427" points="264.847,182.682 261.232,187.93 264.847,193.18 272.078,193.18 275.692,187.93 272.078,182.682 
							"/>
		</g>
		<g>
			<polygon fill="#222427" points="308.227,137.115 304.612,142.363 308.227,147.613 315.458,147.613 319.072,142.363 
				315.458,137.115 			"/>
		</g>
		<g>
			<polygon fill="#222427" points="308.227,150.387 304.612,155.635 308.227,160.883 315.458,160.883 319.072,155.635 
				315.458,150.387 			"/>
		</g>
		<g>
			<polygon fill="#222427" points="308.227,162.906 304.612,168.154 308.227,173.402 315.458,173.402 319.072,168.154 
				315.458,162.906 			"/>
		</g>
		<g>
			<polygon fill="#222427" points="308.227,176.176 304.612,181.426 308.227,186.674 315.458,186.674 319.072,181.426 
				315.458,176.176 			"/>
		</g>
		<g>
			<polygon fill="#222427" points="308.227,188.715 304.612,193.965 308.227,199.213 315.458,199.213 319.072,193.965 
				315.458,188.715 			"/>
		</g>
		<g>
			<polygon fill="#222427" points="293.768,143.621 290.152,148.869 293.768,154.117 300.998,154.117 304.612,148.869 
				300.998,143.621 			"/>
		</g>
		<g>
			<polygon fill="#222427" points="293.768,156.893 290.152,162.141 293.768,167.389 300.998,167.389 304.612,162.141 
				300.998,156.893 			"/>
		</g>
		<g>
			<polygon fill="#222427" points="293.768,169.412 290.152,174.66 293.768,179.908 300.998,179.908 304.612,174.66 
				300.998,169.412 			"/>
		</g>
		<g>
			<polygon fill="#222427" points="293.768,182.682 290.152,187.93 293.768,193.18 300.998,193.18 304.612,187.93 300.998,182.682 
							"/>
		</g>
		<g>
			<polygon fill="#222427" points="337.147,137.115 333.532,142.363 337.147,147.613 344.378,147.613 347.992,142.363 
				344.378,137.115 			"/>
		</g>
		<g>
			<polygon fill="#222427" points="193.062,124.14 189.448,129.387 193.062,134.637 200.293,134.637 203.908,129.387 
				200.293,124.14 			"/>
		</g>
		<g>
			<polygon fill="#222427" points="221.467,124.14 217.853,129.387 221.467,134.637 228.698,134.637 232.313,129.387 
				228.698,124.14 			"/>
		</g>
		<g>
			<polygon fill="#222427" points="250.386,124.14 246.772,129.387 250.386,134.637 257.617,134.637 261.232,129.387 
				257.617,124.14 			"/>
		</g>
		<g>
			<polygon fill="#222427" points="279.307,124.14 275.692,129.387 279.307,134.637 286.537,134.637 290.152,129.387 
				286.537,124.14 			"/>
		</g>
		<g>
			<polygon fill="#222427" points="308.227,124.14 304.612,129.387 308.227,134.637 315.458,134.637 319.072,129.387 
				315.458,124.14 			"/>
		</g>
		<g>
			<polygon fill="#222427" points="337.147,124.14 333.532,129.387 337.147,134.637 344.378,134.637 347.992,129.387 
				344.378,124.14 			"/>
		</g>
		<g>
			<polygon fill="#222427" points="337.147,150.387 333.532,155.635 337.147,160.883 344.378,160.883 347.992,155.635 
				344.378,150.387 			"/>
		</g>
		<g>
			<polygon fill="#222427" points="337.147,162.906 333.532,168.154 337.147,173.402 344.378,173.402 347.992,168.154 
				344.378,162.906 			"/>
		</g>
		<g>
			<polygon fill="#222427" points="337.147,176.176 333.532,181.426 337.147,186.674 344.378,186.674 347.992,181.426 
				344.378,176.176 			"/>
		</g>
		<g>
			<polygon fill="#222427" points="337.147,188.715 333.532,193.965 337.147,199.213 344.378,199.213 347.992,193.965 
				344.378,188.715 			"/>
		</g>
		<g>
			<polygon fill="#222427" points="322.687,143.621 319.072,148.869 322.687,154.117 329.917,154.117 333.532,148.869 
				329.917,143.621 			"/>
		</g>
		<g>
			<polygon fill="#222427" points="207.006,131.041 203.392,136.289 207.006,141.537 214.237,141.537 217.853,136.289 
				214.237,131.041 			"/>
		</g>
		<g>
			<polygon fill="#222427" points="235.927,131.041 232.313,136.289 235.927,141.537 243.157,141.537 246.772,136.289 
				243.157,131.041 			"/>
		</g>
		<g>
			<polygon fill="#222427" points="264.847,131.041 261.232,136.289 264.847,141.537 272.078,141.537 275.692,136.289 
				272.078,131.041 			"/>
		</g>
		<g>
			<polygon fill="#222427" points="293.768,131.041 290.152,136.289 293.768,141.537 300.998,141.537 304.612,136.289 
				300.998,131.041 			"/>
		</g>
		<g>
			<polygon fill="#222427" points="322.687,131.041 319.072,136.289 322.687,141.537 329.917,141.537 333.532,136.289 
				329.917,131.041 			"/>
		</g>
		<g>
			<polygon fill="#222427" points="322.687,156.893 319.072,162.141 322.687,167.389 329.917,167.389 333.532,162.141 
				329.917,156.893 			"/>
		</g>
		<g>
			<polygon fill="#222427" points="322.687,169.412 319.072,174.66 322.687,179.908 329.917,179.908 333.532,174.66 
				329.917,169.412 			"/>
		</g>
		<g>
			<polygon fill="#222427" points="322.687,182.682 319.072,187.93 322.687,193.18 329.917,193.18 333.532,187.93 329.917,182.682 
							"/>
		</g>
	</g>
	<g>
		<g>
			<polygon fill="#222427" points="966.361,93.212 962.748,98.46 966.361,103.709 973.593,103.709 977.207,98.46 973.593,93.212 			
				"/>
		</g>
		<g>
			<polygon fill="#222427" points="966.361,106.483 962.748,111.732 966.361,116.98 973.593,116.98 977.207,111.732 
				973.593,106.483 			"/>
		</g>
		<g>
			<polygon fill="#222427" points="966.361,119.002 962.748,124.251 966.361,129.5 973.593,129.5 977.207,124.251 973.593,119.002 
							"/>
		</g>
		<g>
			<polygon fill="#222427" points="966.361,132.273 962.748,137.521 966.361,142.77 973.593,142.77 977.207,137.521 
				973.593,132.273 			"/>
		</g>
		<g>
			<polygon fill="#222427" points="966.361,144.813 962.748,150.061 966.361,155.309 973.593,155.309 977.207,150.061 
				973.593,144.813 			"/>
		</g>
		<g>
			<polygon fill="#222427" points="994.766,93.212 991.152,98.46 994.766,103.709 1001.997,103.709 1005.611,98.46 1001.997,93.212 
							"/>
		</g>
		<g>
			<polygon fill="#222427" points="994.766,106.483 991.152,111.732 994.766,116.98 1001.997,116.98 1005.611,111.732 
				1001.997,106.483 			"/>
		</g>
		<g>
			<polygon fill="#222427" points="994.766,119.002 991.152,124.251 994.766,129.5 1001.997,129.5 1005.611,124.251 
				1001.997,119.002 			"/>
		</g>
		<g>
			<polygon fill="#222427" points="994.766,132.273 991.152,137.521 994.766,142.77 1001.997,142.77 1005.611,137.521 
				1001.997,132.273 			"/>
		</g>
		<g>
			<polygon fill="#222427" points="1023.686,93.212 1020.071,98.46 1023.686,103.709 1030.916,103.709 1034.531,98.46 
				1030.916,93.212 			"/>
		</g>
		<g>
			<polygon fill="#222427" points="1023.686,106.483 1020.071,111.732 1023.686,116.98 1030.916,116.98 1034.531,111.732 
				1030.916,106.483 			"/>
		</g>
		<g>
			<polygon fill="#222427" points="1023.686,119.002 1020.071,124.251 1023.686,129.5 1030.916,129.5 1034.531,124.251 
				1030.916,119.002 			"/>
		</g>
		<g>
			<polygon fill="#222427" points="1023.686,132.273 1020.071,137.521 1023.686,142.77 1030.916,142.77 1034.531,137.521 
				1030.916,132.273 			"/>
		</g>
		<g>
			<polygon fill="#222427" points="1023.686,145.289 1020.071,150.537 1023.686,155.787 1030.916,155.787 1034.531,150.537 
				1030.916,145.289 			"/>
		</g>
		<g>
			<polygon fill="#222427" points="1052.605,93.212 1048.992,98.46 1052.605,103.709 1059.837,103.709 1063.451,98.46 
				1059.837,93.212 			"/>
		</g>
		<g>
			<polygon fill="#222427" points="1052.605,106.483 1048.992,111.732 1052.605,116.98 1059.837,116.98 1063.451,111.732 
				1059.837,106.483 			"/>
		</g>
		<g>
			<polygon fill="#222427" points="1052.605,119.002 1048.992,124.251 1052.605,129.5 1059.837,129.5 1063.451,124.251 
				1059.837,119.002 			"/>
		</g>
		<g>
			<polygon fill="#222427" points="1052.605,132.273 1048.992,137.521 1052.605,142.77 1059.837,142.77 1063.451,137.521 
				1059.837,132.273 			"/>
		</g>
		<g>
			<polygon fill="#222427" points="1052.605,145.289 1048.992,150.537 1052.605,155.787 1059.837,155.787 1063.451,150.537 
				1059.837,145.289 			"/>
		</g>
		<g>
			<polygon fill="#222427" points="994.766,144.813 991.152,150.061 994.766,155.309 1001.997,155.309 1005.611,150.061 
				1001.997,144.813 			"/>
		</g>
		<g>
			<polygon fill="#222427" points="980.306,99.718 976.691,104.966 980.306,110.214 987.537,110.214 991.152,104.966 
				987.537,99.718 			"/>
		</g>
		<g>
			<polygon fill="#222427" points="980.306,112.989 976.691,118.236 980.306,123.485 987.537,123.485 991.152,118.236 
				987.537,112.989 			"/>
		</g>
		<g>
			<polygon fill="#222427" points="980.306,125.507 976.691,130.756 980.306,136.006 987.537,136.006 991.152,130.756 
				987.537,125.507 			"/>
		</g>
		<g>
			<polygon fill="#222427" points="980.306,138.779 976.691,144.027 980.306,149.275 987.537,149.275 991.152,144.027 
				987.537,138.779 			"/>
		</g>
		<g>
			<polygon fill="#222427" points="1009.227,99.718 1005.611,104.966 1009.227,110.214 1016.457,110.214 1020.071,104.966 
				1016.457,99.718 			"/>
		</g>
		<g>
			<polygon fill="#222427" points="1009.227,112.989 1005.611,118.236 1009.227,123.485 1016.457,123.485 1020.071,118.236 
				1016.457,112.989 			"/>
		</g>
		<g>
			<polygon fill="#222427" points="1009.227,125.507 1005.611,130.756 1009.227,136.006 1016.457,136.006 1020.071,130.756 
				1016.457,125.507 			"/>
		</g>
		<g>
			<polygon fill="#222427" points="1009.227,138.779 1005.611,144.027 1009.227,149.275 1016.457,149.275 1020.071,144.027 
				1016.457,138.779 			"/>
		</g>
		<g>
			<polygon fill="#222427" points="1038.146,99.718 1034.531,104.966 1038.146,110.214 1045.377,110.214 1048.992,104.966 
				1045.377,99.718 			"/>
		</g>
		<g>
			<polygon fill="#222427" points="1038.146,112.989 1034.531,118.236 1038.146,123.485 1045.377,123.485 1048.992,118.236 
				1045.377,112.989 			"/>
		</g>
		<g>
			<polygon fill="#222427" points="1038.146,125.507 1034.531,130.756 1038.146,136.006 1045.377,136.006 1048.992,130.756 
				1045.377,125.507 			"/>
		</g>
		<g>
			<polygon fill="#222427" points="1038.146,138.779 1034.531,144.027 1038.146,149.275 1045.377,149.275 1048.992,144.027 
				1045.377,138.779 			"/>
		</g>
		<g>
			<polygon fill="#222427" points="1081.526,93.212 1077.912,98.46 1081.526,103.709 1088.758,103.709 1092.371,98.46 
				1088.758,93.212 			"/>
		</g>
		<g>
			<polygon fill="#222427" points="1081.526,106.483 1077.912,111.732 1081.526,116.98 1088.758,116.98 1092.371,111.732 
				1088.758,106.483 			"/>
		</g>
		<g>
			<polygon fill="#222427" points="1081.526,119.002 1077.912,124.251 1081.526,129.5 1088.758,129.5 1092.371,124.251 
				1088.758,119.002 			"/>
		</g>
		<g>
			<polygon fill="#222427" points="1081.526,132.273 1077.912,137.521 1081.526,142.77 1088.758,142.77 1092.371,137.521 
				1088.758,132.273 			"/>
		</g>
		<g>
			<polygon fill="#222427" points="1081.526,144.813 1077.912,150.061 1081.526,155.309 1088.758,155.309 1092.371,150.061 
				1088.758,144.813 			"/>
		</g>
		<g>
			<polygon fill="#222427" points="1067.066,99.718 1063.451,104.966 1067.066,110.214 1074.297,110.214 1077.912,104.966 
				1074.297,99.718 			"/>
		</g>
		<g>
			<polygon fill="#222427" points="1067.066,112.989 1063.451,118.236 1067.066,123.485 1074.297,123.485 1077.912,118.236 
				1074.297,112.989 			"/>
		</g>
		<g>
			<polygon fill="#222427" points="1067.066,125.507 1063.451,130.756 1067.066,136.006 1074.297,136.006 1077.912,130.756 
				1074.297,125.507 			"/>
		</g>
		<g>
			<polygon fill="#222427" points="1067.066,138.779 1063.451,144.027 1067.066,149.275 1074.297,149.275 1077.912,144.027 
				1074.297,138.779 			"/>
		</g>
		<g>
			<polygon fill="#222427" points="1110.446,93.212 1106.832,98.46 1110.446,103.709 1117.678,103.709 1121.292,98.46 
				1117.678,93.212 			"/>
		</g>
		<g>
			<polygon fill="#222427" points="966.361,80.236 962.748,85.484 966.361,90.733 973.593,90.733 977.207,85.484 973.593,80.236 			
				"/>
		</g>
		<g>
			<polygon fill="#222427" points="994.766,80.236 991.152,85.484 994.766,90.733 1001.997,90.733 1005.611,85.484 1001.997,80.236 
							"/>
		</g>
		<g>
			<polygon fill="#222427" points="1023.686,80.236 1020.071,85.484 1023.686,90.733 1030.916,90.733 1034.531,85.484 
				1030.916,80.236 			"/>
		</g>
		<g>
			<polygon fill="#222427" points="1052.605,80.236 1048.992,85.484 1052.605,90.733 1059.837,90.733 1063.451,85.484 
				1059.837,80.236 			"/>
		</g>
		<g>
			<polygon fill="#222427" points="1081.526,80.236 1077.912,85.484 1081.526,90.733 1088.758,90.733 1092.371,85.484 
				1088.758,80.236 			"/>
		</g>
		<g>
			<polygon fill="#222427" points="1110.446,80.236 1106.832,85.484 1110.446,90.733 1117.678,90.733 1121.292,85.484 
				1117.678,80.236 			"/>
		</g>
		<g>
			<polygon fill="#222427" points="1110.446,106.483 1106.832,111.732 1110.446,116.98 1117.678,116.98 1121.292,111.732 
				1117.678,106.483 			"/>
		</g>
		<g>
			<polygon fill="#222427" points="1110.446,119.002 1106.832,124.251 1110.446,129.5 1117.678,129.5 1121.292,124.251 
				1117.678,119.002 			"/>
		</g>
		<g>
			<polygon fill="#222427" points="1110.446,132.273 1106.832,137.521 1110.446,142.77 1117.678,142.77 1121.292,137.521 
				1117.678,132.273 			"/>
		</g>
		<g>
			<polygon fill="#222427" points="1110.446,144.813 1106.832,150.061 1110.446,155.309 1117.678,155.309 1121.292,150.061 
				1117.678,144.813 			"/>
		</g>
		<g>
			<polygon fill="#222427" points="1095.986,99.718 1092.371,104.966 1095.986,110.214 1103.217,110.214 1106.832,104.966 
				1103.217,99.718 			"/>
		</g>
		<g>
			<polygon fill="#222427" points="980.306,87.137 976.691,92.386 980.306,97.634 987.537,97.634 991.152,92.386 987.537,87.137 			
				"/>
		</g>
		<g>
			<polygon fill="#222427" points="1009.227,87.137 1005.611,92.386 1009.227,97.634 1016.457,97.634 1020.071,92.386 
				1016.457,87.137 			"/>
		</g>
		<g>
			<polygon fill="#222427" points="1038.146,87.137 1034.531,92.386 1038.146,97.634 1045.377,97.634 1048.992,92.386 
				1045.377,87.137 			"/>
		</g>
		<g>
			<polygon fill="#222427" points="1067.066,87.137 1063.451,92.386 1067.066,97.634 1074.297,97.634 1077.912,92.386 
				1074.297,87.137 			"/>
		</g>
		<g>
			<polygon fill="#222427" points="1095.986,87.137 1092.371,92.386 1095.986,97.634 1103.217,97.634 1106.832,92.386 
				1103.217,87.137 			"/>
		</g>
		<g>
			<polygon fill="#222427" points="1095.986,112.989 1092.371,118.236 1095.986,123.485 1103.217,123.485 1106.832,118.236 
				1103.217,112.989 			"/>
		</g>
		<g>
			<polygon fill="#222427" points="1095.986,125.507 1092.371,130.756 1095.986,136.006 1103.217,136.006 1106.832,130.756 
				1103.217,125.507 			"/>
		</g>
		<g>
			<polygon fill="#222427" points="1095.986,138.779 1092.371,144.027 1095.986,149.275 1103.217,149.275 1106.832,144.027 
				1103.217,138.779 			"/>
		</g>
	</g>
	<circle fill="#77C074" stroke="#141413" stroke-miterlimit="10" cx="605.714" cy="227.783" r="7.905"/>
	<circle fill="#77C074" stroke="#141413" stroke-miterlimit="10" cx="91.311" cy="144.447" r="9.67"/>
	<circle fill="#77C074" stroke="#141413" stroke-miterlimit="10" cx="1170.903" cy="116.98" r="7.905"/>
	<path fill="#222323" d="M1218.979,80.236h-69.807c-6.6,0-12-5.4-12-12V42.907c0-6.6,5.4-12,12-12h69.807c6.601,0,12,5.4,12,12
		v25.329C1230.979,74.836,1225.579,80.236,1218.979,80.236z"/>
	<g>
		<path fill="#8A8A8A" d="M1246.246,252.287H667.242c-8.287,0-15.006-6.719-15.006-15.006v-51.74
			c0-8.287,6.719-15.006,15.006-15.006h579.004c8.287,0,15.006,6.719,15.006,15.006v51.74
			C1261.252,245.568,1254.533,252.287,1246.246,252.287z"/>
		<g>
			<path fill="#222323" d="M1246.246,175.535c5.518,0,10.006,4.488,10.006,10.006v51.74c0,5.518-4.488,10.006-10.006,10.006H667.242
				c-5.518,0-10.006-4.488-10.006-10.006v-51.74c0-5.518,4.488-10.006,10.006-10.006H1246.246 M1246.246,170.535H667.242
				c-8.287,0-15.006,6.719-15.006,15.006v51.74c0,8.287,6.719,15.006,15.006,15.006h579.004c8.287,0,15.006-6.719,15.006-15.006
				v-51.74C1261.252,177.254,1254.533,170.535,1246.246,170.535L1246.246,170.535z"/>
		</g>
	</g>
	<g>
		<circle fill="#060001" cx="1012.728" cy="213.412" r="18.833"/>
		<path fill="#090305" d="M1038.238,243.914h-51.02c-0.996,0-1.811-0.986-1.811-2.195l-2.472-9.279c0-1.207,0.813-2.195,1.81-2.195
			h55.964c0.995,0,1.81,0.988,1.81,2.195l-2.473,9.279C1040.047,242.928,1039.232,243.914,1038.238,243.914z"/>
	</g>
	<circle fill="#77C074" stroke="#141413" stroke-width="0.5" stroke-miterlimit="10" cx="1112.536" cy="196.35" r="3.952"/>
	<circle fill="#77C074" stroke="#141413" stroke-width="0.5" stroke-miterlimit="10" cx="1099.601" cy="196.35" r="3.953"/>
	<circle fill="#77C074" stroke="#141413" stroke-width="0.5" stroke-miterlimit="10" cx="1072.837" cy="196.35" r="3.952"/>
	<circle fill="#424242" stroke="#141413" stroke-width="0.5" stroke-miterlimit="10" cx="1060.636" cy="196.35" r="3.952"/>
	<circle fill="#424242" stroke="#141413" stroke-width="0.5" stroke-miterlimit="10" cx="1048.991" cy="196.35" r="3.952"/>
	<path fill="#262626" d="M1117.777,230.426h-68.998c-3.443,0-6.26-2.816-6.26-6.26v-16.961c0-3.443,2.816-6.26,6.26-6.26h68.998
		c3.442,0,6.259,2.816,6.259,6.26v16.961C1124.036,227.609,1121.22,230.426,1117.777,230.426z"/>
	<rect x="1053.52" y="208.096" fill="#C2C1C1" width="38.635" height="22.33"/>
	<path fill="#222323" stroke="#141413" stroke-width="0.5" stroke-miterlimit="10" d="M867.708,193.094h-202.06
		c-2.441,0-4.42-1.979-4.42-4.42v-8.414c0-2.441,1.979-4.42,4.42-4.42h202.06c2.441,0,4.421,1.979,4.421,4.42v8.414
		C872.129,191.115,870.149,193.094,867.708,193.094z"/>
	<g>
		<circle fill="#77C074" stroke="#141413" stroke-width="0.5" stroke-miterlimit="10" cx="688.632" cy="198.854" r="3.952"/>
		<circle fill="#77C074" stroke="#141413" stroke-width="0.5" stroke-miterlimit="10" cx="672.483" cy="198.854" r="3.953"/>
	</g>
	<g>
		<circle fill="#5A9D6B" stroke="#141413" stroke-width="0.5" stroke-miterlimit="10" cx="726.288" cy="199.693" r="3.112"/>
		<circle fill="#5A9D6B" stroke="#141413" stroke-width="0.5" stroke-miterlimit="10" cx="713.573" cy="199.693" r="3.112"/>
	</g>
	<g>
		<g>
			<circle fill="#7B94CB" stroke="#141413" stroke-width="0.5" stroke-miterlimit="10" cx="1166.95" cy="207.914" r="3.952"/>
			<circle fill="#454444" stroke="#141413" stroke-width="0.5" stroke-miterlimit="10" cx="1149.376" cy="207.914" r="3.952"/>
			<circle fill="#77C074" stroke="#141413" stroke-width="0.5" stroke-miterlimit="10" cx="1184.076" cy="207.914" r="3.953"/>
			<circle fill="#77C074" stroke="#141413" stroke-width="0.5" stroke-miterlimit="10" cx="1200.732" cy="207.914" r="3.953"/>
		</g>
		<g>
			<polygon fill="#222323" points="1135.753,175.84 1127.252,175.84 1127.252,247.914 1135.753,247.914 1135.753,175.84 			"/>
		</g>
	</g>
	<g>
		<path fill="#8A8A8A" d="M38.023,22.198h579.004c8.287,0,15.006,6.719,15.006,15.007v51.739c0,8.288-6.719,15.006-15.006,15.006
			H38.023c-8.288,0-15.006-6.719-15.006-15.006V37.205C23.017,28.917,29.736,22.198,38.023,22.198z"/>
		<g>
			<path fill="#222323" d="M617.027,27.198c5.518,0,10.006,4.489,10.006,10.007v51.739c0,5.518-4.488,10.006-10.006,10.006H38.023
				c-5.518,0-10.006-4.489-10.006-10.006V37.205c0-5.518,4.489-10.007,10.006-10.007H617.027 M617.027,22.198H38.023
				c-8.288,0-15.006,6.719-15.006,15.007v51.739c0,8.288,6.719,15.006,15.006,15.006h579.004c8.287,0,15.006-6.719,15.006-15.006
				V37.205C632.033,28.917,625.314,22.198,617.027,22.198L617.027,22.198z"/>
		</g>
	</g>
	<g>
		<circle fill="#060001" cx="271.542" cy="61.075" r="18.833"/>
		<path fill="#090305" d="M246.032,30.571h51.02c0.996,0,1.81,0.988,1.81,2.196l2.472,9.279c0,1.208-0.814,2.196-1.81,2.196H243.56
			c-0.995,0-1.81-0.988-1.81-2.196l2.472-9.279C244.222,31.559,245.037,30.571,246.032,30.571z"/>
	</g>
	<circle fill="#77C074" stroke="#141413" stroke-width="0.5" stroke-miterlimit="10" cx="171.734" cy="78.136" r="3.952"/>
	<circle fill="#77C074" stroke="#141413" stroke-width="0.5" stroke-miterlimit="10" cx="184.668" cy="78.136" r="3.952"/>
	<circle fill="#77C074" stroke="#141413" stroke-width="0.5" stroke-miterlimit="10" cx="211.432" cy="78.136" r="3.953"/>
	<circle fill="#424242" stroke="#141413" stroke-width="0.5" stroke-miterlimit="10" cx="223.634" cy="78.136" r="3.952"/>
	<circle fill="#424242" stroke="#141413" stroke-width="0.5" stroke-miterlimit="10" cx="235.278" cy="78.136" r="3.952"/>
	<path fill="#222323" stroke="#141413" stroke-width="0.5" stroke-miterlimit="10" d="M416.562,81.392h202.06
		c2.441,0,4.42,1.979,4.42,4.42v8.414c0,2.441-1.979,4.42-4.42,4.42h-202.06c-2.441,0-4.42-1.979-4.42-4.42v-8.414
		C412.142,83.371,414.12,81.392,416.562,81.392z"/>
	<g>
		<circle fill="#77C074" stroke="#141413" stroke-width="0.5" stroke-miterlimit="10" cx="595.638" cy="75.632" r="3.953"/>
		<circle fill="#77C074" stroke="#141413" stroke-width="0.5" stroke-miterlimit="10" cx="611.787" cy="75.632" r="3.953"/>
	</g>
	<g>
		<circle fill="#5A9D6B" stroke="#141413" stroke-width="0.5" stroke-miterlimit="10" cx="557.981" cy="74.792" r="3.112"/>
		<circle fill="#5A9D6B" stroke="#141413" stroke-width="0.5" stroke-miterlimit="10" cx="570.697" cy="74.792" r="3.112"/>
	</g>
	<g>
		<g>
			<circle fill="#7B94CB" stroke="#141413" stroke-width="0.5" stroke-miterlimit="10" cx="117.319" cy="66.571" r="3.952"/>
			<circle fill="#454444" stroke="#141413" stroke-width="0.5" stroke-miterlimit="10" cx="134.894" cy="66.571" r="3.953"/>
			<circle fill="#77C074" stroke="#141413" stroke-width="0.5" stroke-miterlimit="10" cx="100.194" cy="66.571" r="3.953"/>
			<circle fill="#77C074" stroke="#141413" stroke-width="0.5" stroke-miterlimit="10" cx="83.538" cy="66.571" r="3.953"/>
		</g>
		<g>
			<polygon fill="#222323" points="157.017,26.571 148.517,26.571 148.517,98.646 157.017,98.646 157.017,26.571 			"/>
		</g>
	</g>
	<rect x="22.094" y="162.906" fill="#353535" width="130.673" height="89.381"/>
</g>
</svg>
