<?xml version="1.0" encoding="utf-8"?>
<!-- Generator: Adobe Illustrator 16.0.0, SVG Export Plug-In . SVG Version: 6.00 Build 0)  -->
<!DOCTYPE svg PUBLIC "-//W3C//DTD SVG 1.1//EN" "http://www.w3.org/Graphics/SVG/1.1/DTD/svg11.dtd">
<svg version="1.1" id="图层_1" xmlns="http://www.w3.org/2000/svg" xmlns:xlink="http://www.w3.org/1999/xlink" x="0px" y="0px"
	 width="1275.59px" height="126.39px" viewBox="0 0 1275.59 126.39" enable-background="new 0 0 1275.59 126.39"
	 xml:space="preserve">
<rect x="0.141" y="-0.001" fill="#3D3D3F" width="1275.589" height="126.142"/>
<rect x="0.141" y="-0.001" fill="#232426" width="50.97" height="126.394"/>
<path fill="#424142" d="M4.612,37.441v36.952H46.64V36.951c-5.293,3.896-12.903,6.342-21.361,6.342
	C17.182,43.293,9.866,41.051,4.612,37.441"/>
<path fill="#2B2B2D" d="M4.612,48.682v36.951H46.64V48.189c-5.293,3.896-12.903,6.342-21.361,6.342
	C17.182,54.531,9.866,52.289,4.612,48.682"/>
<path fill="#97A5C4" d="M4.612,32.293v5.148c5.254,3.609,12.57,5.851,20.667,5.851c8.458,0,16.068-2.444,21.361-6.341v-5.148
	c-5.293,3.896-12.903,6.34-21.361,6.34C17.182,38.143,9.866,35.902,4.612,32.293"/>
<path fill="#4A494B" d="M3.909,51.061H0.141v75.332h50.97V51.061h-3.216c-6.052,3.967-13.687,6.34-21.993,6.34
	C17.595,57.4,9.959,55.027,3.909,51.061"/>
<rect x="1224.761" y="-0.001" fill="#232426" width="50.97" height="126.394"/>
<path fill="#424142" d="M1229.231,37.441v36.952h42.028V36.951c-5.293,3.896-12.903,6.342-21.361,6.342
	C1241.802,43.293,1234.485,41.051,1229.231,37.441"/>
<path fill="#2B2B2D" d="M1229.231,48.682v36.951h42.028V48.189c-5.293,3.896-12.903,6.342-21.361,6.342
	C1241.802,54.531,1234.485,52.289,1229.231,48.682"/>
<path fill="#97A5C4" d="M1229.231,32.293v5.148c5.254,3.609,12.57,5.851,20.667,5.851c8.458,0,16.068-2.444,21.361-6.341v-5.148
	c-5.293,3.896-12.903,6.34-21.361,6.34C1241.802,38.143,1234.485,35.902,1229.231,32.293"/>
<path fill="#4A494B" d="M1228.528,51.061h-3.768v75.332h50.97V51.061h-3.216c-6.052,3.967-13.687,6.34-21.993,6.34
	S1234.58,55.027,1228.528,51.061"/>
<rect x="1227.233" y="70.198" fill-rule="evenodd" clip-rule="evenodd" fill="#4A494B" stroke="#060404" stroke-miterlimit="10" width="46.024" height="48.943"/>
<path fill-rule="evenodd" clip-rule="evenodd" fill="#FFFFFF" d="M1244.649,100.489h3.113h3.53
	c-0.064,0.372-0.175,0.734-0.333,1.073h-11.734v-1.073H1244.649z M1247.547,99.429l-0.22-1.074h3.82
	c0.109,0.349,0.177,0.71,0.2,1.074H1247.547z M1244.649,99.429h-3.247v-1.074h3.247V99.429z M1241.402,97.281v-1.074h8.128
	c0.45,0.281,0.818,0.651,1.104,1.074H1241.402z M1241.402,95.147v-1.074h3.247h2.678h3.378c-0.29,0.43-0.674,0.8-1.152,1.074
	H1241.402z M1241.402,91.926h3.248v1.073h-3.248V91.926z M1239.226,90.866v-1.075h11.703c0.172,0.339,0.296,0.702,0.372,1.075
	H1239.226z M1251.387,91.926c-0.014,0.365-0.072,0.727-0.176,1.073h-3.666l0.218-1.073H1251.387z M1257.9,97.281h-3.152v-1.074
	h3.152V97.281z M1254.748,95.147v-1.074h6.283l0.411,1.074H1254.748z M1254.748,92.999v-1.073h5.459l0.412,1.073H1254.748z
	 M1252.533,90.866v-1.075h6.855l0.412,1.075H1252.533z M1261.45,95.147l0.421-1.074h6.105v1.074H1261.45z M1262.291,92.999
	l0.42-1.073h5.266v1.073H1262.291z M1263.125,90.866l0.42-1.075h6.721v1.075H1263.125z M1267.977,97.281h-3.021v-1.074h3.021V97.281
	z M1264.038,96.207l-0.372,1.074h-4.586l-0.39-1.074H1264.038z M1257.9,99.429h-3.152v-1.074h3.152V99.429z M1267.977,99.429h-3.021
	v-1.074h3.021V99.429z M1263.295,98.354l-0.371,1.074h-3.064l-0.39-1.074H1263.295z M1257.9,101.563h-5.367v-1.073h5.367V101.563z
	 M1270.266,101.563h-5.311v-1.073h5.311V101.563z M1262.557,100.489l-0.372,1.073h-1.55l-0.391-1.073H1262.557z M1257.9,103.752
	h-5.367v-1.115h5.367V103.752z M1270.266,103.752h-5.311v-1.115h5.311V103.752z M1261.813,102.637l-0.386,1.115l-0.404-1.115
	H1261.813z M1252.533,88.718v-1.047h6.042l0.401,1.047H1252.533z M1263.965,88.718l0.408-1.047h5.893v1.047H1263.965z
	 M1239.226,87.671v1.047h10.902c-0.679-0.635-1.63-1.047-2.853-1.047H1239.226z M1239.226,102.637v1.115h8.05
	c1.287-0.006,2.262-0.443,2.935-1.115H1239.226z M1230.227,87.671h7.469v1.047h-7.469V87.671z M1237.695,90.866h-7.469v-1.075h7.469
	V90.866z M1235.518,92.999h-3.17v-1.073h3.17V92.999z M1235.518,95.147h-3.17v-1.074h3.17V95.147z M1235.518,97.281h-3.17v-1.074
	h3.17V97.281z M1235.518,99.429h-3.17v-1.074h3.17V99.429z M1237.695,101.563h-7.469v-1.073h7.469V101.563z M1237.695,103.752
	h-7.469v-1.115h7.469V103.752z"/>
<path fill="#FBFBFD" d="M904.098,21.841v-2.176h0.797l0.197,1.447l0.121,0.178c0.109,0.023,0.216,0.04,0.325,0.053
	c0.106,0.01,0.216,0.016,0.327,0.016c0.332,0,0.594-0.098,0.789-0.295s0.293-0.459,0.293-0.789c0-0.106-0.012-0.209-0.039-0.307
	s-0.065-0.187-0.115-0.268c-0.134-0.201-0.418-0.418-0.852-0.647c-0.213-0.106-0.375-0.197-0.489-0.269
	c-0.446-0.271-0.771-0.588-0.978-0.945c-0.206-0.357-0.309-0.787-0.309-1.287c0-0.742,0.201-1.34,0.605-1.79
	c0.406-0.451,0.948-0.677,1.629-0.677c0.283,0,0.582,0.039,0.891,0.119c0.312,0.081,0.625,0.198,0.945,0.35v1.985h-0.797
	l-0.174-1.302l-0.104-0.143c-0.078-0.035-0.16-0.061-0.245-0.077c-0.087-0.018-0.177-0.028-0.271-0.028
	c-0.324,0-0.578,0.096-0.764,0.283c-0.184,0.188-0.275,0.441-0.275,0.762c0,0.441,0.354,0.863,1.061,1.27
	c0.08,0.045,0.142,0.082,0.184,0.108c0.633,0.364,1.051,0.71,1.256,1.042c0.205,0.33,0.307,0.758,0.307,1.281
	c0,0.769-0.219,1.383-0.662,1.842c-0.439,0.459-1.035,0.688-1.785,0.688c-0.252,0-0.527-0.034-0.828-0.104
	S904.492,21.986,904.098,21.841"/>
<path fill="#FBFBFD" d="M908.814,16.351h2.572v0.58l-0.434,0.08l-0.082,0.143l0.885,3.041l0.852-3.029l-0.088-0.154l-0.461-0.08
	v-0.58h1.828v0.58l-0.475,0.115l-1.664,5.322c-0.224,0.717-0.516,1.291-0.874,1.725s-0.72,0.65-1.083,0.65
	c-0.238,0-0.439-0.109-0.607-0.327s-0.252-0.478-0.252-0.78c0-0.244,0.063-0.459,0.188-0.645c0.123-0.186,0.293-0.314,0.508-0.387
	l0.73,0.951c0.127-0.106,0.246-0.25,0.357-0.43s0.217-0.406,0.32-0.676l-1.697-5.383l-0.523-0.137V16.351z"/>
<path fill="#FBFBFD" d="M917.713,16.46v1.795h-0.615l-0.113-0.929l-0.113-0.161c-0.115-0.072-0.225-0.125-0.326-0.161
	c-0.105-0.034-0.205-0.052-0.299-0.052c-0.201,0-0.36,0.058-0.479,0.17c-0.117,0.112-0.175,0.264-0.175,0.451
	c0,0.332,0.257,0.629,0.771,0.889c0.168,0.084,0.297,0.152,0.391,0.207c0.451,0.252,0.756,0.5,0.92,0.745
	c0.162,0.243,0.245,0.556,0.245,0.936c0,0.544-0.188,1.001-0.564,1.37c-0.376,0.371-0.849,0.558-1.419,0.558
	c-0.27,0-0.561-0.029-0.865-0.087c-0.308-0.057-0.627-0.143-0.963-0.258V19.97h0.617l0.104,1.073l0.098,0.149
	c0.151,0.1,0.301,0.174,0.449,0.222c0.15,0.048,0.301,0.071,0.453,0.071c0.195,0,0.35-0.062,0.465-0.184
	c0.118-0.123,0.175-0.287,0.175-0.494c0-0.297-0.2-0.563-0.603-0.797c-0.09-0.054-0.158-0.094-0.201-0.121
	c-0.623-0.375-1.031-0.693-1.221-0.954c-0.189-0.263-0.284-0.578-0.284-0.95c0-0.547,0.175-0.99,0.526-1.33
	c0.35-0.342,0.813-0.512,1.389-0.512c0.219,0,0.463,0.026,0.732,0.078C917.076,16.274,917.377,16.353,917.713,16.46"/>
<path fill="#FBFBFD" d="M918.977,17.337h-0.617v-0.539l0.736-0.631l0.542-1.365h0.763v1.67h1.305v0.865H920.4v2.742
	c0,0.402,0.057,0.673,0.17,0.813c0.113,0.139,0.332,0.21,0.656,0.21c0.066,0,0.139-0.007,0.219-0.019
	c0.076-0.011,0.164-0.028,0.26-0.051v0.677c-0.306,0.157-0.59,0.276-0.857,0.358s-0.504,0.124-0.711,0.124
	c-0.227,0-0.428-0.048-0.604-0.144c-0.178-0.097-0.313-0.231-0.41-0.408c-0.055-0.096-0.092-0.231-0.113-0.41
	c-0.023-0.178-0.033-0.459-0.033-0.846V17.337z"/>
<path fill="#FBFBFD" d="M926.492,20.464v1.085c-0.328,0.225-0.664,0.392-1.006,0.501c-0.344,0.11-0.708,0.164-1.09,0.164
	c-0.717,0-1.285-0.273-1.705-0.818s-0.632-1.278-0.632-2.199c0-0.922,0.218-1.663,0.651-2.223c0.432-0.561,1.006-0.841,1.717-0.841
	c0.664,0,1.178,0.257,1.541,0.769c0.366,0.513,0.547,1.234,0.547,2.168v0.15h-2.957c0.007,0.581,0.125,1.039,0.35,1.375
	c0.223,0.338,0.523,0.506,0.898,0.506c0.291,0,0.574-0.053,0.85-0.157C925.934,20.838,926.213,20.679,926.492,20.464
	 M924.986,18.479c0-0.543-0.053-0.943-0.158-1.199c-0.108-0.256-0.271-0.385-0.491-0.385c-0.249,0-0.437,0.129-0.562,0.388
	c-0.125,0.258-0.188,0.642-0.188,1.149v0.047H924.986z"/>
<path fill="#FBFBFD" d="M931.682,16.999c0.361-0.278,0.682-0.488,0.965-0.625c0.282-0.139,0.527-0.207,0.738-0.207
	c0.426,0,0.74,0.172,0.941,0.514c0.203,0.342,0.303,0.882,0.303,1.621v2.988l0.084,0.148l0.475,0.059v0.625h-2.415v-0.625
	l0.335-0.059l0.104-0.148v-2.506c0-0.514-0.065-0.867-0.198-1.06c-0.134-0.194-0.366-0.29-0.702-0.29
	c-0.12,0-0.219,0.007-0.299,0.021c-0.08,0.015-0.152,0.034-0.217,0.061v3.774l0.105,0.16l0.378,0.064v0.607h-2.294v-0.647
	l0.31-0.024l0.101-0.2v-2.616c0-0.421-0.068-0.725-0.203-0.914s-0.354-0.285-0.656-0.285h-0.154c-0.088,0-0.154,0.004-0.202,0.008
	c-0.046,0.007-0.091,0.015-0.13,0.027v3.82l0.109,0.148l0.318,0.059v0.625h-2.401v-0.625l0.443-0.059l0.097-0.148v-3.866h-0.54
	v-0.579l1.476-0.678h0.498v0.764c0.322-0.26,0.609-0.453,0.859-0.578c0.252-0.123,0.479-0.186,0.684-0.186
	c0.229,0,0.43,0.065,0.603,0.197C931.365,16.496,931.528,16.708,931.682,16.999"/>
<polygon fill="#FBFBFD" points="938.146,16.327 940.519,16.327 940.519,16.872 940.251,16.952 940.217,17.091 940.904,18.376 
	941.609,17.034 941.248,16.931 941.248,16.327 942.912,16.327 942.912,16.987 942.414,17.034 941.307,18.857 942.656,21.404 
	943.084,21.525 943.084,22.122 940.809,22.122 940.809,21.628 941.068,21.497 941.102,21.382 940.348,19.96 939.564,21.438 
	939.914,21.525 939.914,22.122 938.146,22.122 938.146,21.525 938.708,21.358 939.914,19.407 938.627,17.034 938.146,16.987 "/>
<path fill="#FBFBFD" d="M946.283,17.963c0.584,0.046,1.033,0.24,1.352,0.583c0.314,0.342,0.473,0.805,0.473,1.391
	c0,0.672-0.236,1.23-0.705,1.675s-1.07,0.665-1.803,0.665c-0.656,0-1.176-0.145-1.561-0.436s-0.577-0.678-0.577-1.164
	c0-0.299,0.071-0.539,0.212-0.723s0.328-0.276,0.561-0.276c0.076,0,0.157,0.009,0.238,0.029c0.081,0.019,0.164,0.048,0.252,0.086
	l0.289,1.543c0.108,0.03,0.203,0.054,0.283,0.069c0.08,0.015,0.148,0.023,0.207,0.023c0.307,0,0.556-0.134,0.746-0.4
	c0.189-0.266,0.285-0.613,0.285-1.047c0-0.436-0.109-0.779-0.33-1.029c-0.219-0.251-0.519-0.375-0.898-0.375
	c-0.102,0-0.197,0.008-0.293,0.022c-0.095,0.015-0.189,0.038-0.281,0.068v-1.021c0.063,0.012,0.121,0.02,0.176,0.025
	c0.057,0.006,0.109,0.009,0.159,0.009c0.392,0,0.699-0.118,0.921-0.353c0.221-0.234,0.334-0.559,0.334-0.968
	c0-0.436-0.102-0.778-0.304-1.029c-0.2-0.25-0.478-0.376-0.833-0.376c-0.018,0-0.043,0.002-0.074,0.006
	c-0.035,0.004-0.061,0.006-0.081,0.006v1.641c-0.099,0.069-0.196,0.12-0.296,0.152c-0.1,0.033-0.201,0.049-0.303,0.049
	c-0.244,0-0.438-0.088-0.582-0.264s-0.215-0.41-0.215-0.699c0-0.51,0.2-0.928,0.602-1.252c0.4-0.324,0.926-0.486,1.577-0.486
	c0.63,0,1.132,0.18,1.505,0.541c0.375,0.362,0.563,0.84,0.563,1.432c0,0.486-0.139,0.893-0.416,1.219
	C947.189,17.627,946.795,17.849,946.283,17.963"/>
<path fill="#FBFBFD" d="M955.027,14.24h3.811v1.515h-2.954v1.635c0.229-0.111,0.448-0.195,0.657-0.25
	c0.209-0.056,0.41-0.084,0.604-0.084c0.623,0,1.127,0.219,1.508,0.654c0.382,0.436,0.572,1.011,0.572,1.721
	c0,0.865-0.244,1.553-0.73,2.066c-0.486,0.512-1.145,0.769-1.974,0.769c-0.562,0-1.019-0.146-1.366-0.438
	c-0.35-0.293-0.524-0.665-0.524-1.117c0-0.309,0.077-0.565,0.229-0.771c0.154-0.203,0.35-0.307,0.588-0.307
	c0.076,0,0.156,0.011,0.242,0.035c0.086,0.022,0.184,0.057,0.291,0.104l0.254,1.646c0.01,0,0.023,0.002,0.043,0.005
	c0.08,0.013,0.143,0.017,0.184,0.017c0.366,0,0.668-0.153,0.902-0.465c0.234-0.309,0.352-0.707,0.352-1.192
	c0-0.47-0.135-0.853-0.406-1.144c-0.271-0.293-0.629-0.439-1.074-0.439c-0.184,0-0.376,0.023-0.576,0.072
	c-0.203,0.047-0.412,0.117-0.631,0.209V14.24z"/>
<path fill="#FBFBFD" d="M949.611,14.24h3.811v1.515h-2.955v1.635c0.229-0.111,0.448-0.195,0.658-0.25
	c0.209-0.056,0.41-0.084,0.604-0.084c0.623,0,1.126,0.219,1.507,0.654c0.382,0.436,0.573,1.011,0.573,1.721
	c0,0.865-0.244,1.553-0.73,2.066c-0.486,0.512-1.145,0.769-1.975,0.769c-0.561,0-1.018-0.146-1.366-0.438s-0.524-0.665-0.524-1.117
	c0-0.309,0.078-0.565,0.23-0.771c0.154-0.203,0.35-0.307,0.587-0.307c0.076,0,0.156,0.011,0.243,0.035
	c0.086,0.022,0.184,0.057,0.291,0.104l0.254,1.646c0.01,0,0.022,0.002,0.043,0.005c0.08,0.013,0.142,0.017,0.184,0.017
	c0.365,0,0.667-0.153,0.902-0.465c0.233-0.309,0.352-0.707,0.352-1.192c0-0.47-0.136-0.853-0.407-1.144
	c-0.271-0.293-0.629-0.439-1.073-0.439c-0.184,0-0.377,0.023-0.577,0.072c-0.202,0.047-0.412,0.117-0.63,0.209V14.24z"/>
<path fill="#FBFBFD" d="M962.494,14.096c0.754,0,1.35,0.364,1.785,1.091s0.654,1.723,0.654,2.988s-0.219,2.264-0.654,2.994
	s-1.031,1.097-1.785,1.097c-0.742,0-1.33-0.364-1.758-1.093c-0.43-0.729-0.645-1.729-0.645-2.998c0-1.266,0.214-2.262,0.641-2.988
	C961.16,14.46,961.748,14.096,962.494,14.096 M962.502,14.858c-0.287,0-0.5,0.271-0.639,0.813c-0.139,0.542-0.207,1.371-0.207,2.493
	c0,1.158,0.068,2.001,0.203,2.529c0.137,0.528,0.35,0.792,0.643,0.792c0.301,0,0.517-0.264,0.654-0.792
	c0.137-0.528,0.205-1.371,0.205-2.529c0-1.145-0.068-1.981-0.207-2.511S962.799,14.858,962.502,14.858"/>
<g>
	<path fill="#FDFDFE" stroke="#FBFBFD" stroke-miterlimit="10" d="M982.023,15.148v4.283h1.07v0.443h-1.07v0.726
		c0,0.757,0.031,0.897,0.951,0.974v0.151h-2.553v-0.151c0.995-0.076,1.061-0.184,1.061-0.963v-0.736h-2.791v-0.227
		c0.994-1.461,2.033-2.986,3.169-4.5H982.023z M981.482,19.432v-3.311h-0.021c-0.779,0.996-1.504,2.088-2.24,3.311H981.482z"/>
</g>
<g>
	<path fill="#FDFDFE" stroke="#FBFBFD" stroke-miterlimit="10" d="M968.475,14.953h1.373l2.856,5.734l2.866-5.734h1.559v0.151
		c-1.006,0.098-1.104,0.206-1.061,1.288l0.076,3.84c0.032,1.115,0.075,1.256,1.092,1.342v0.151h-2.65v-0.151
		c0.953-0.076,0.984-0.217,0.975-1.342l-0.044-4.543h-0.043l-2.933,5.917h-0.097l-2.661-5.55h-0.021l-0.141,2.921
		c-0.033,0.509-0.043,0.876-0.043,1.169c0,1.038,0.107,1.33,1.113,1.428v0.151h-2.607v-0.151c0.672-0.055,0.898-0.238,0.984-0.671
		c0.076-0.325,0.163-0.974,0.238-2.088l0.152-1.979c0.01-0.293,0.021-0.53,0.021-0.725c0-0.769-0.184-0.909-1.006-1.007V14.953z"/>
</g>
<rect x="74.728" y="14.592" fill="#060404" width="200" height="97.5"/>
<rect x="279.238" y="14.592" fill="#060404" width="200" height="97.5"/>
<rect x="468.994" y="14.592" fill="#060404" width="205.965" height="97.5"/>
<rect x="472.627" y="18.725" fill="#3D3D3F" width="198.711" height="89.233"/>
<polygon fill="#0C0C0C" points="567.587,30.186 561.935,26.922 556.281,30.186 556.281,36.717 561.935,39.981 567.587,36.717 "/>
<polygon fill="#0C0C0C" points="553.291,30.186 547.638,26.922 541.983,30.186 541.983,36.717 547.638,39.981 553.291,36.717 "/>
<polygon fill="#0C0C0C" points="539.783,30.186 534.131,26.922 528.475,30.186 528.475,36.717 534.131,39.981 539.783,36.717 "/>
<polygon fill="#0C0C0C" points="525.488,30.186 519.834,26.922 514.18,30.186 514.18,36.717 519.834,39.981 525.488,36.717 "/>
<polygon fill="#0C0C0C" points="512,30.186 506.346,26.922 500.691,30.186 500.691,36.717 506.346,39.981 512,36.717 "/>
<polygon fill="#0C0C0C" points="497.704,30.186 492.05,26.922 486.396,30.186 486.396,36.717 492.05,39.981 497.704,36.717 "/>
<polygon fill="#0C0C0C" points="560.43,42.328 554.777,39.063 549.124,42.328 549.124,48.858 554.777,52.123 560.43,48.858 "/>
<polygon fill="#0C0C0C" points="546.133,42.328 540.48,39.063 534.826,42.328 534.826,48.858 540.48,52.123 546.133,48.858 "/>
<polygon fill="#0C0C0C" points="532.626,42.328 526.973,39.063 521.317,42.328 521.317,48.858 526.973,52.123 532.626,48.858 "/>
<polygon fill="#0C0C0C" points="518.331,42.328 512.676,39.063 507.022,42.328 507.022,48.858 512.676,52.123 518.331,48.858 "/>
<polygon fill="#0C0C0C" points="504.843,42.328 499.188,39.063 493.534,42.328 493.534,48.858 499.188,52.123 504.843,48.858 "/>
<polygon fill="#0C0C0C" points="490.547,42.328 484.892,39.063 479.238,42.328 479.238,48.858 484.892,52.123 490.547,48.858 "/>
<polygon fill="#0C0C0C" points="567.587,54.527 561.935,51.264 556.281,54.527 556.281,61.059 561.935,64.323 567.587,61.059 "/>
<polygon fill="#0C0C0C" points="553.291,54.527 547.638,51.264 541.983,54.527 541.983,61.059 547.638,64.323 553.291,61.059 "/>
<polygon fill="#0C0C0C" points="539.783,54.527 534.131,51.264 528.475,54.527 528.475,61.059 534.131,64.323 539.783,61.059 "/>
<polygon fill="#0C0C0C" points="525.488,54.527 519.834,51.264 514.18,54.527 514.18,61.059 519.834,64.323 525.488,61.059 "/>
<polygon fill="#0C0C0C" points="512,54.527 506.346,51.264 500.691,54.527 500.691,61.059 506.346,64.323 512,61.059 "/>
<polygon fill="#0C0C0C" points="497.704,54.527 492.05,51.264 486.396,54.527 486.396,61.059 492.05,64.323 497.704,61.059 "/>
<polygon fill="#0C0C0C" points="560.43,66.67 554.777,63.405 549.124,66.67 549.124,73.2 554.777,76.465 560.43,73.2 "/>
<polygon fill="#0C0C0C" points="546.133,66.67 540.48,63.405 534.826,66.67 534.826,73.2 540.48,76.465 546.133,73.2 "/>
<polygon fill="#0C0C0C" points="532.626,66.67 526.973,63.405 521.317,66.67 521.317,73.2 526.973,76.465 532.626,73.2 "/>
<polygon fill="#0C0C0C" points="518.331,66.67 512.676,63.405 507.022,66.67 507.022,73.2 512.676,76.465 518.331,73.2 "/>
<polygon fill="#0C0C0C" points="504.843,66.67 499.188,63.405 493.534,66.67 493.534,73.2 499.188,76.465 504.843,73.2 "/>
<polygon fill="#0C0C0C" points="490.547,66.67 484.892,63.405 479.238,66.67 479.238,73.2 484.892,76.465 490.547,73.2 "/>
<polygon fill="#0C0C0C" points="567.587,78.869 561.935,75.604 556.281,78.869 556.281,85.4 561.935,88.664 567.587,85.4 "/>
<polygon fill="#0C0C0C" points="553.291,78.869 547.638,75.604 541.983,78.869 541.983,85.4 547.638,88.664 553.291,85.4 "/>
<polygon fill="#0C0C0C" points="539.783,78.869 534.131,75.604 528.475,78.869 528.475,85.4 534.131,88.664 539.783,85.4 "/>
<polygon fill="#0C0C0C" points="525.488,78.869 519.834,75.604 514.18,78.869 514.18,85.4 519.834,88.664 525.488,85.4 "/>
<polygon fill="#0C0C0C" points="512,78.869 506.346,75.604 500.691,78.869 500.691,85.4 506.346,88.664 512,85.4 "/>
<polygon fill="#0C0C0C" points="497.704,78.869 492.05,75.604 486.396,78.869 486.396,85.4 492.05,88.664 497.704,85.4 "/>
<polygon fill="#0C0C0C" points="560.43,91.011 554.777,87.747 549.124,91.011 549.124,97.542 554.777,100.807 560.43,97.542 "/>
<polygon fill="#0C0C0C" points="546.133,91.011 540.48,87.747 534.826,91.011 534.826,97.542 540.48,100.807 546.133,97.542 "/>
<polygon fill="#0C0C0C" points="532.626,91.011 526.973,87.747 521.317,91.011 521.317,97.542 526.973,100.807 532.626,97.542 "/>
<polygon fill="#0C0C0C" points="518.331,91.011 512.676,87.747 507.022,91.011 507.022,97.542 512.676,100.807 518.331,97.542 "/>
<polygon fill="#0C0C0C" points="504.843,91.011 499.188,87.747 493.534,91.011 493.534,97.542 499.188,100.807 504.843,97.542 "/>
<polygon fill="#0C0C0C" points="490.547,91.011 484.892,87.747 479.238,91.011 479.238,97.542 484.892,100.807 490.547,97.542 "/>
<linearGradient id="SVGID_1_" gradientUnits="userSpaceOnUse" x1="597.2119" y1="63.0693" x2="658.6641" y2="63.0693">
	<stop  offset="0" style="stop-color:#151618"/>
	<stop  offset="0.5172" style="stop-color:#403D3E"/>
	<stop  offset="1" style="stop-color:#262626"/>
</linearGradient>
<rect x="597.212" y="32.539" fill="url(#SVGID_1_)" width="61.452" height="61.061"/>
<linearGradient id="SVGID_2_" gradientUnits="userSpaceOnUse" x1="-4856.0107" y1="41.8237" x2="-4856.0107" y2="33.1671" gradientTransform="matrix(-1 0 0 1 -4227.5684 0)">
	<stop  offset="0" style="stop-color:#1C1D20;stop-opacity:0.6"/>
	<stop  offset="1" style="stop-color:#1C1D20"/>
</linearGradient>
<polygon opacity="0.7" fill="url(#SVGID_2_)" points="598.221,43.975 658.664,36.716 658.664,32.539 598.221,32.539 "/>
<linearGradient id="SVGID_3_" gradientUnits="userSpaceOnUse" x1="589.5225" y1="34.4209" x2="589.5225" y2="93.9752">
	<stop  offset="0" style="stop-color:#666667"/>
	<stop  offset="0.3088" style="stop-color:#7D7C7D"/>
	<stop  offset="0.6422" style="stop-color:#434345"/>
</linearGradient>
<path fill="url(#SVGID_3_)" d="M604.926,32.773c0,0,2.287,35.129-1.006,60.745c0,0-31.47,3.476-30.555-34.947
	C573.365,58.571,574.646,29.663,604.926,32.773z"/>
<rect x="685.661" y="14.592" fill="#060404" width="205.964" height="97.5"/>
<rect x="689.294" y="18.725" fill="#3D3D3F" width="198.711" height="89.233"/>
<polygon fill="#0C0C0C" points="784.254,30.186 778.602,26.922 772.948,30.186 772.948,36.717 778.602,39.981 784.254,36.717 "/>
<polygon fill="#0C0C0C" points="769.957,30.186 764.305,26.922 758.65,30.186 758.65,36.717 764.305,39.981 769.957,36.717 "/>
<polygon fill="#0C0C0C" points="756.45,30.186 750.798,26.922 745.142,30.186 745.142,36.717 750.798,39.981 756.45,36.717 "/>
<polygon fill="#0C0C0C" points="742.155,30.186 736.501,26.922 730.847,30.186 730.847,36.717 736.501,39.981 742.155,36.717 "/>
<polygon fill="#0C0C0C" points="728.668,30.186 723.013,26.922 717.358,30.186 717.358,36.717 723.013,39.981 728.668,36.717 "/>
<g>
	<polygon fill="#0C0C0C" points="1000.946,67.168 1004.21,61.515 1000.946,55.861 994.415,55.861 991.15,61.515 994.415,67.168 	"/>
	<polygon fill="#0C0C0C" points="1000.946,52.871 1004.21,47.218 1000.946,41.563 994.415,41.563 991.15,47.218 994.415,52.871 	"/>
	<polygon fill="#0C0C0C" points="1000.946,39.363 1004.21,33.711 1000.946,28.055 994.415,28.055 991.15,33.711 994.415,39.363 	"/>
	<polygon fill="#0C0C0C" points="1000.946,25.068 1004.21,19.414 1000.946,13.76 994.415,13.76 991.15,19.414 994.415,25.068 	"/>
	<polygon fill="#0C0C0C" points="1000.946,11.58 1004.21,5.926 1000.946,0.271 994.415,0.271 991.15,5.926 994.415,11.58 	"/>
	<polygon fill="#0C0C0C" points="1025.363,67.168 1028.627,61.515 1025.363,55.861 1018.832,55.861 1015.566,61.515 
		1018.832,67.168 	"/>
	<polygon fill="#0C0C0C" points="1025.363,52.871 1028.627,47.218 1025.363,41.563 1018.832,41.563 1015.566,47.218 
		1018.832,52.871 	"/>
	<polygon fill="#0C0C0C" points="1025.363,39.363 1028.627,33.711 1025.363,28.055 1018.832,28.055 1015.566,33.711 
		1018.832,39.363 	"/>
	<polygon fill="#0C0C0C" points="1025.363,25.068 1028.627,19.414 1025.363,13.76 1018.832,13.76 1015.566,19.414 1018.832,25.068 	
		"/>
	<polygon fill="#0C0C0C" points="1025.363,11.58 1028.627,5.926 1025.363,0.271 1018.832,0.271 1015.566,5.926 1018.832,11.58 	"/>
	<polygon fill="#0C0C0C" points="1013.279,60.641 1016.543,54.987 1013.279,49.334 1006.748,49.334 1003.484,54.987 
		1006.748,60.641 	"/>
	<polygon fill="#0C0C0C" points="1013.279,46.344 1016.543,40.69 1013.279,35.036 1006.748,35.036 1003.484,40.69 1006.748,46.344 	
		"/>
	<polygon fill="#0C0C0C" points="1013.279,32.836 1016.543,27.184 1013.279,21.527 1006.748,21.527 1003.484,27.184 
		1006.748,32.836 	"/>
	<polygon fill="#0C0C0C" points="1013.279,18.541 1016.543,12.887 1013.279,7.232 1006.748,7.232 1003.484,12.887 1006.748,18.541 	
		"/>
</g>
<polygon fill="#0C0C0C" points="714.371,30.186 708.717,26.922 703.063,30.186 703.063,36.717 708.717,39.981 714.371,36.717 "/>
<polygon fill="#0C0C0C" points="777.097,42.328 771.443,39.063 765.791,42.328 765.791,48.858 771.443,52.123 777.097,48.858 "/>
<polygon fill="#0C0C0C" points="762.8,42.328 757.147,39.063 751.493,42.328 751.493,48.858 757.147,52.123 762.8,48.858 "/>
<polygon fill="#0C0C0C" points="749.293,42.328 743.641,39.063 737.984,42.328 737.984,48.858 743.641,52.123 749.293,48.858 "/>
<polygon fill="#0C0C0C" points="734.998,42.328 729.344,39.063 723.689,42.328 723.689,48.858 729.344,52.123 734.998,48.858 "/>
<polygon fill="#0C0C0C" points="721.51,42.328 715.855,39.063 710.201,42.328 710.201,48.858 715.855,52.123 721.51,48.858 "/>
<polygon fill="#0C0C0C" points="707.214,42.328 701.559,39.063 695.904,42.328 695.904,48.858 701.559,52.123 707.214,48.858 "/>
<polygon fill="#0C0C0C" points="784.254,54.527 778.602,51.264 772.948,54.527 772.948,61.059 778.602,64.323 784.254,61.059 "/>
<polygon fill="#0C0C0C" points="769.957,54.527 764.305,51.264 758.65,54.527 758.65,61.059 764.305,64.323 769.957,61.059 "/>
<polygon fill="#0C0C0C" points="756.45,54.527 750.798,51.264 745.142,54.527 745.142,61.059 750.798,64.323 756.45,61.059 "/>
<polygon fill="#0C0C0C" points="742.155,54.527 736.501,51.264 730.847,54.527 730.847,61.059 736.501,64.323 742.155,61.059 "/>
<polygon fill="#0C0C0C" points="728.668,54.527 723.013,51.264 717.358,54.527 717.358,61.059 723.013,64.323 728.668,61.059 "/>
<polygon fill="#0C0C0C" points="714.371,54.527 708.717,51.264 703.063,54.527 703.063,61.059 708.717,64.323 714.371,61.059 "/>
<polygon fill="#0C0C0C" points="777.097,66.67 771.443,63.405 765.791,66.67 765.791,73.2 771.443,76.465 777.097,73.2 "/>
<polygon fill="#0C0C0C" points="762.8,66.67 757.147,63.405 751.493,66.67 751.493,73.2 757.147,76.465 762.8,73.2 "/>
<polygon fill="#0C0C0C" points="749.293,66.67 743.641,63.405 737.984,66.67 737.984,73.2 743.641,76.465 749.293,73.2 "/>
<polygon fill="#0C0C0C" points="734.998,66.67 729.344,63.405 723.689,66.67 723.689,73.2 729.344,76.465 734.998,73.2 "/>
<polygon fill="#0C0C0C" points="721.51,66.67 715.855,63.405 710.201,66.67 710.201,73.2 715.855,76.465 721.51,73.2 "/>
<polygon fill="#0C0C0C" points="707.214,66.67 701.559,63.405 695.904,66.67 695.904,73.2 701.559,76.465 707.214,73.2 "/>
<polygon fill="#0C0C0C" points="784.254,78.869 778.602,75.604 772.948,78.869 772.948,85.4 778.602,88.664 784.254,85.4 "/>
<polygon fill="#0C0C0C" points="769.957,78.869 764.305,75.604 758.65,78.869 758.65,85.4 764.305,88.664 769.957,85.4 "/>
<polygon fill="#0C0C0C" points="756.45,78.869 750.798,75.604 745.142,78.869 745.142,85.4 750.798,88.664 756.45,85.4 "/>
<polygon fill="#0C0C0C" points="742.155,78.869 736.501,75.604 730.847,78.869 730.847,85.4 736.501,88.664 742.155,85.4 "/>
<polygon fill="#0C0C0C" points="728.668,78.869 723.013,75.604 717.358,78.869 717.358,85.4 723.013,88.664 728.668,85.4 "/>
<polygon fill="#0C0C0C" points="714.371,78.869 708.717,75.604 703.063,78.869 703.063,85.4 708.717,88.664 714.371,85.4 "/>
<polygon fill="#0C0C0C" points="777.097,91.011 771.443,87.747 765.791,91.011 765.791,97.542 771.443,100.807 777.097,97.542 "/>
<polygon fill="#0C0C0C" points="762.8,91.011 757.147,87.747 751.493,91.011 751.493,97.542 757.147,100.807 762.8,97.542 "/>
<polygon fill="#0C0C0C" points="749.293,91.011 743.641,87.747 737.984,91.011 737.984,97.542 743.641,100.807 749.293,97.542 "/>
<polygon fill="#0C0C0C" points="734.998,91.011 729.344,87.747 723.689,91.011 723.689,97.542 729.344,100.807 734.998,97.542 "/>
<polygon fill="#0C0C0C" points="721.51,91.011 715.855,87.747 710.201,91.011 710.201,97.542 715.855,100.807 721.51,97.542 "/>
<polygon fill="#0C0C0C" points="707.214,91.011 701.559,87.747 695.904,91.011 695.904,97.542 701.559,100.807 707.214,97.542 "/>
<linearGradient id="SVGID_4_" gradientUnits="userSpaceOnUse" x1="813.8789" y1="63.0693" x2="875.3301" y2="63.0693">
	<stop  offset="0" style="stop-color:#151618"/>
	<stop  offset="0.5172" style="stop-color:#403D3E"/>
	<stop  offset="1" style="stop-color:#262626"/>
</linearGradient>
<rect x="813.879" y="32.539" fill="url(#SVGID_4_)" width="61.451" height="61.061"/>
<linearGradient id="SVGID_5_" gradientUnits="userSpaceOnUse" x1="-5072.6768" y1="41.8237" x2="-5072.6768" y2="33.1671" gradientTransform="matrix(-1 0 0 1 -4227.5684 0)">
	<stop  offset="0" style="stop-color:#1C1D20;stop-opacity:0.6"/>
	<stop  offset="1" style="stop-color:#1C1D20"/>
</linearGradient>
<polygon opacity="0.7" fill="url(#SVGID_5_)" points="814.888,43.975 875.33,36.716 875.33,32.539 814.888,32.539 "/>
<linearGradient id="SVGID_6_" gradientUnits="userSpaceOnUse" x1="806.1895" y1="34.4209" x2="806.1895" y2="93.9752">
	<stop  offset="0" style="stop-color:#666667"/>
	<stop  offset="0.3088" style="stop-color:#7D7C7D"/>
	<stop  offset="0.6422" style="stop-color:#434345"/>
</linearGradient>
<path fill="url(#SVGID_6_)" d="M821.593,32.773c0,0,2.287,35.129-1.006,60.745c0,0-31.47,3.476-30.555-34.947
	C790.032,58.571,791.313,29.663,821.593,32.773z"/>
<rect x="897.292" y="69.935" fill="#3D3D3F" stroke="#060404" stroke-width="2" stroke-miterlimit="10" width="318.667" height="42.157"/>
<path fill="#FBFBFD" d="M1086.328,33.785l-1.971-1.178v0.877h-8.813h-0.785h-0.707l2-2.002c0.182-0.182,0.432-0.285,0.688-0.285
	h1.768c0.16,0.365,0.525,0.621,0.951,0.621c0.572,0,1.037-0.463,1.037-1.039c0-0.572-0.465-1.037-1.037-1.037
	c-0.51,0-0.932,0.365-1.021,0.848h-1.697c-0.416,0-0.82,0.17-1.115,0.465l-2.151,2.15c-0.179,0.18-0.419,0.279-0.671,0.279h-0.264
	h-0.699c-0.143-0.783-0.828-1.377-1.65-1.377c-0.928,0-1.68,0.75-1.68,1.678c0,0.93,0.752,1.68,1.68,1.68
	c0.822,0,1.508-0.594,1.65-1.375h0.699h0.264h1.957h0.785c0.252,0,0.488,0.098,0.666,0.275l2.061,2.061
	c0.299,0.297,0.693,0.461,1.111,0.461h1.49v0.789h1.969v-1.971h-1.969v0.574h-1.49c-0.258,0-0.498-0.1-0.682-0.283l-1.908-1.906
	h7.564v0.875L1086.328,33.785z"/>
<g>
	<path fill="#E5E5E4" d="M940.025,77.19h-10.214l-0.335,1.758h2.408h0.484h4.403c0,0,0.296,5.001-2.661,5.625h-2.934l0.5-4.512
		h-2.429l-0.756,5.996h5.766C941.061,84.964,940.025,77.19,940.025,77.19z"/>
	<path fill="#E5E5E4" d="M961.464,77.19H951.25l-0.336,1.758h2.408h0.485h4.402c0,0,0.296,5.001-2.66,5.625h-2.933l0.499-4.512
		h-2.429l-0.757,5.996h5.768C962.499,84.964,961.464,77.19,961.464,77.19z"/>
	<polygon fill="#E5E5E4" points="942.387,77.24 943.66,86.106 945.359,86.106 951.123,77.24 948.333,77.24 945.967,81.302 
		944.752,81.368 943.964,77.24 	"/>
	<rect x="938.565" y="77.24" fill="#E5E5E4" width="4.073" height="1.754"/>
</g>
<path fill="#E5E5E4" d="M943.779,89.534c-9.175,0-16.611,1.094-16.611,2.443c0,1.348,7.437,2.44,16.611,2.44
	c9.174,0,16.611-1.093,16.611-2.44C960.391,90.628,952.953,89.534,943.779,89.534z M944.249,92.382
	c-1.726,0-3.126-0.307-3.126-0.684s1.4-0.685,3.126-0.685s3.126,0.308,3.126,0.685S945.975,92.382,944.249,92.382z"/>
<path fill="#E5E5E4" d="M1020.523,75.88h-32c-1.104,0-2,0.895-2,2v19.166c0,1.104,0.896,2,2,2h32c1.104,0,2-0.896,2-2V77.88
	C1022.523,76.774,1021.628,75.88,1020.523,75.88z M1001.529,86.879c0,0-0.416,1.375-1.709,1.813l1.417,4.813h-2.083l-1.5-4.813
	h-1.938c0,0-0.209,0.084-0.417,0.354v4.458h-2v-4.458c0,0,0.167-1.376,1.396-2.063h4.542c0,0,0.896-2.084,0-3.5h-5.729v-2.063h6
	c0,0,1.5,0.375,2.021,2.083V86.879z M1015.748,91.838c-0.531,1.375-1.563,1.469-1.563,1.469h-2.844
	c-1.094-0.281-1.375-1.375-1.375-1.375c-0.625,1.25-1.594,1.375-1.594,1.375h-2.875c-1.156-0.438-1.469-1.875-1.469-1.875v-9.875
	h1.375v9.75h3.655v-9.75h1.563v9.75h3.594v-9.75h1.531V91.838z"/>
<path fill="#E5E5E4" d="M927.219,94.842V102h33.119v-7.158H927.219z M934.896,100.905h-0.317h-0.321V97.04h-0.003l-1.371,3.865
	h-0.318h-0.318l-1.376-3.854h-0.001v3.854h-0.318h-0.321v-4.567h0.474h0.474l1.393,3.886l1.38-3.886h0.473h0.474V100.905z
	 M942.01,99.229c0,0.564-0.168,1.005-0.506,1.322c-0.338,0.318-0.807,0.478-1.407,0.478c-0.625,0-1.101-0.153-1.428-0.458
	c-0.326-0.306-0.489-0.753-0.489-1.342v-2.892h0.327h0.331v2.845c0,0.425,0.107,0.748,0.322,0.969
	c0.213,0.221,0.526,0.33,0.937,0.33c0.411,0,0.722-0.109,0.936-0.33c0.213-0.221,0.319-0.544,0.319-0.969v-2.845h0.328h0.33V99.229z
	 M948.051,100.632v0.273h-3.127v-4.567h0.329h0.33v4.021h2.468V100.632z M953.806,96.61v0.273h-1.646v4.021h-0.328h-0.33v-4.021
	h-1.646V96.61v-0.272h3.95V96.61z M957.328,100.905H957h-0.33v-4.567h0.328h0.33V100.905z"/>
<g>
	<path fill="#E5E5E4" d="M931.305,103.174h0.201h1.184c0.314,0,0.543,0.068,0.684,0.206c0.141,0.136,0.188,0.337,0.141,0.602
		c-0.046,0.261-0.168,0.464-0.365,0.61c-0.049,0.037-0.102,0.069-0.156,0.098l0.061,0.032c0.163,0.104,0.227,0.278,0.189,0.524
		l-0.08,0.542c-0.013,0.089-0.012,0.153,0.001,0.192c0.014,0.039,0.047,0.072,0.1,0.101l-0.011,0.065h-0.496
		c-0.006-0.025-0.006-0.088,0.002-0.191c0.008-0.102,0.02-0.216,0.035-0.342l0.033-0.234c0.027-0.185,0.005-0.316-0.066-0.395
		c-0.07-0.08-0.203-0.119-0.395-0.119h-0.955l-0.227,1.283h-0.201h-0.201L931.305,103.174z M931.471,104.518h0.996
		c0.186,0,0.329-0.041,0.43-0.123c0.101-0.081,0.166-0.211,0.197-0.387c0.031-0.172,0.008-0.297-0.07-0.377
		c-0.076-0.079-0.213-0.119-0.41-0.119h-0.965L931.471,104.518z"/>
	<path fill="#E5E5E4" d="M933.765,106.148l0.524-2.975h2.175l-0.031,0.178l-0.031,0.179h-1.772l-0.16,0.908h1.619l-0.031,0.179
		l-0.032,0.178h-1.618l-0.176,0.997h1.795l-0.031,0.179l-0.032,0.178H933.765z"/>
	<path fill="#E5E5E4" d="M939.188,105.054c-0.115,0.366-0.307,0.654-0.574,0.862c-0.266,0.209-0.576,0.313-0.928,0.313
		c-0.41,0-0.712-0.141-0.905-0.424c-0.194-0.282-0.249-0.662-0.163-1.142c0.084-0.479,0.277-0.86,0.58-1.144
		c0.303-0.284,0.668-0.426,1.094-0.426c0.336,0,0.596,0.086,0.781,0.258c0.186,0.174,0.272,0.411,0.264,0.715h-0.389
		c-0.004-0.197-0.068-0.35-0.193-0.457c-0.127-0.106-0.304-0.16-0.531-0.16c-0.299,0-0.555,0.109-0.771,0.328
		c-0.216,0.22-0.356,0.516-0.421,0.886c-0.07,0.394-0.041,0.694,0.088,0.9c0.127,0.206,0.346,0.31,0.658,0.31
		c0.23,0,0.434-0.071,0.611-0.213c0.178-0.143,0.314-0.346,0.41-0.606H939.188z"/>
	<path fill="#E5E5E4" d="M939.789,105.797c-0.217-0.288-0.283-0.666-0.201-1.134c0.083-0.47,0.283-0.849,0.602-1.137
		c0.318-0.289,0.693-0.433,1.125-0.433c0.434,0,0.758,0.144,0.974,0.433c0.216,0.288,0.282,0.667,0.2,1.137
		c-0.084,0.468-0.283,0.846-0.601,1.134s-0.692,0.432-1.127,0.432C940.329,106.229,940.006,106.085,939.789,105.797z
		 M941.633,105.539c0.23-0.223,0.376-0.514,0.439-0.876c0.064-0.362,0.021-0.655-0.13-0.879s-0.382-0.335-0.691-0.335
		s-0.579,0.111-0.808,0.335s-0.377,0.517-0.439,0.879c-0.064,0.362-0.021,0.653,0.13,0.876s0.381,0.334,0.69,0.334
		S941.404,105.762,941.633,105.539z"/>
	<path fill="#E5E5E4" d="M943.275,103.174h0.201h1.184c0.314,0,0.543,0.068,0.684,0.206c0.141,0.136,0.188,0.337,0.141,0.602
		c-0.046,0.261-0.168,0.464-0.365,0.61c-0.049,0.037-0.102,0.069-0.156,0.098l0.061,0.032c0.163,0.104,0.227,0.278,0.189,0.524
		l-0.08,0.542c-0.013,0.089-0.012,0.153,0.001,0.192c0.014,0.039,0.047,0.072,0.101,0.101l-0.012,0.065h-0.496
		c-0.006-0.025-0.006-0.088,0.002-0.191c0.008-0.102,0.02-0.216,0.035-0.342l0.033-0.234c0.027-0.185,0.005-0.316-0.066-0.395
		c-0.07-0.08-0.203-0.119-0.395-0.119h-0.955l-0.227,1.283h-0.201h-0.201L943.275,103.174z M943.441,104.518h0.996
		c0.186,0,0.329-0.041,0.43-0.123c0.101-0.081,0.166-0.211,0.197-0.387c0.03-0.172,0.008-0.297-0.07-0.377
		c-0.076-0.079-0.213-0.119-0.41-0.119h-0.965L943.441,104.518z"/>
	<path fill="#E5E5E4" d="M946.24,103.174h0.199h1.021c0.379,0,0.655,0.135,0.83,0.404c0.176,0.269,0.225,0.631,0.145,1.085
		c-0.08,0.453-0.258,0.813-0.534,1.083c-0.276,0.268-0.608,0.402-0.997,0.402h-0.988h-0.201L946.24,103.174z M946.178,105.805h0.736
		c0.289,0,0.529-0.1,0.723-0.299c0.191-0.197,0.319-0.479,0.383-0.843c0.064-0.365,0.039-0.647-0.076-0.847
		c-0.116-0.199-0.313-0.299-0.591-0.299h-0.771L946.178,105.805z"/>
	<path fill="#E5E5E4" d="M949.217,106.148l-0.254-2.975h0.217h0.219l0.114,2.352c0.003,0.039,0.005,0.076,0.005,0.111
		c-0.001,0.036-0.002,0.062-0.005,0.076h-0.001c0.004-0.018,0.012-0.045,0.025-0.081c0.013-0.036,0.027-0.071,0.043-0.106
		l1.043-2.352h0.227h0.227l0.213,2.339c0.004,0.036,0.007,0.073,0.008,0.111c0,0.038-0.002,0.065-0.006,0.083
		c0.003-0.015,0.01-0.041,0.023-0.078c0.013-0.039,0.027-0.077,0.043-0.116l0.949-2.339h0.217h0.217l-1.304,2.975h-0.217h-0.216
		l-0.24-2.301c-0.004-0.039-0.006-0.078-0.008-0.115s0-0.064,0.002-0.078h-0.001c-0.003,0.017-0.011,0.045-0.024,0.081
		c-0.014,0.037-0.029,0.075-0.046,0.112l-1.036,2.301h-0.217H949.217z"/>
	<path fill="#E5E5E4" d="M953.171,103.174h0.2h1.184c0.315,0,0.543,0.068,0.684,0.206c0.141,0.136,0.188,0.337,0.141,0.602
		c-0.045,0.261-0.167,0.464-0.364,0.61c-0.05,0.037-0.103,0.069-0.157,0.098l0.062,0.032c0.163,0.104,0.226,0.278,0.188,0.524
		l-0.078,0.542c-0.014,0.089-0.014,0.153,0,0.192s0.047,0.072,0.1,0.101l-0.012,0.065h-0.495c-0.007-0.025-0.007-0.088,0.001-0.191
		c0.008-0.102,0.02-0.216,0.036-0.342l0.032-0.234c0.027-0.185,0.006-0.316-0.065-0.395c-0.071-0.08-0.202-0.119-0.396-0.119h-0.955
		l-0.227,1.283h-0.2h-0.202L953.171,103.174z M953.336,104.518h0.996c0.186,0,0.33-0.041,0.43-0.123
		c0.102-0.081,0.168-0.211,0.198-0.387c0.03-0.172,0.007-0.297-0.07-0.377c-0.077-0.079-0.214-0.119-0.411-0.119h-0.965
		L953.336,104.518z"/>
</g>
<g>
	<path fill="#E5E5E4" stroke="#E5E5E4" stroke-width="0.25" stroke-miterlimit="10" d="M983.824,102.076h0.285h1.459
		c0.539,0,0.968,0.162,1.286,0.484c0.319,0.322,0.478,0.756,0.478,1.303c0,0.543-0.162,0.977-0.488,1.297
		c-0.327,0.322-0.768,0.484-1.322,0.484h-1.412h-0.285V102.076z M984.398,105.232h1.051c0.412,0,0.73-0.119,0.955-0.357
		s0.336-0.576,0.336-1.012c0-0.439-0.107-0.777-0.323-1.016c-0.216-0.24-0.521-0.359-0.919-0.359h-1.1V105.232z"/>
	<path fill="#E5E5E4" stroke="#E5E5E4" stroke-width="0.25" stroke-miterlimit="10" d="M987.734,102.076h0.318h0.32l1.217,3.051
		h0.003l1.214-3.051h0.317h0.318l-1.545,3.568h-0.31h-0.309L987.734,102.076z"/>
	<path fill="#E5E5E4" stroke="#E5E5E4" stroke-width="0.25" stroke-miterlimit="10" d="M992.04,102.076h0.286h1.458
		c0.539,0,0.968,0.162,1.286,0.484c0.319,0.322,0.479,0.756,0.479,1.303c0,0.543-0.163,0.977-0.489,1.297
		c-0.327,0.322-0.767,0.484-1.321,0.484h-1.412h-0.286V102.076z M992.615,105.232h1.051c0.412,0,0.73-0.119,0.955-0.357
		c0.224-0.238,0.336-0.576,0.336-1.012c0-0.439-0.107-0.777-0.324-1.016c-0.215-0.24-0.521-0.359-0.918-0.359h-1.1V105.232z"/>
	<path fill="#E5E5E4" stroke="#E5E5E4" stroke-width="0.25" stroke-miterlimit="10" d="M997.342,104.576h-1.279v-0.367h1.279v-1.074
		h0.437v1.074h1.28v0.367h-1.28v1.074h-0.437V104.576z"/>
	<path fill="#E5E5E4" stroke="#E5E5E4" stroke-width="0.25" stroke-miterlimit="10" d="M999.807,102.076h0.285h1.689
		c0.451,0,0.793,0.082,1.028,0.246s0.353,0.406,0.353,0.723c0,0.313-0.123,0.557-0.367,0.732c-0.062,0.045-0.128,0.082-0.199,0.117
		l0.096,0.039c0.258,0.123,0.392,0.334,0.4,0.629l0.023,0.65c0.004,0.105,0.021,0.184,0.049,0.23
		c0.029,0.047,0.086,0.086,0.168,0.121v0.078h-0.707c-0.015-0.029-0.03-0.105-0.045-0.229c-0.016-0.123-0.027-0.26-0.035-0.41
		l-0.014-0.281c-0.007-0.223-0.072-0.381-0.193-0.475c-0.121-0.096-0.318-0.143-0.594-0.143h-1.363v1.539h-0.286h-0.288V102.076z
		 M1000.381,103.688h1.421c0.266,0,0.46-0.049,0.583-0.146s0.186-0.252,0.186-0.465c0-0.205-0.065-0.355-0.195-0.451
		s-0.336-0.143-0.617-0.143h-1.377V103.688z"/>
	<path fill="#E5E5E4" stroke="#E5E5E4" stroke-width="0.25" stroke-miterlimit="10" d="M1005.201,105.715
		c-0.438,0-0.781-0.117-1.031-0.35s-0.375-0.555-0.375-0.967c0-0.436,0.132-0.783,0.396-1.041c0.265-0.26,0.621-0.389,1.067-0.389
		c0.404,0,0.73,0.127,0.979,0.379c0.248,0.252,0.372,0.584,0.372,0.996l-0.007,0.154h-2.256c0.021,0.26,0.091,0.457,0.21,0.592
		c0.146,0.166,0.377,0.248,0.692,0.248c0.199,0,0.371-0.047,0.52-0.141s0.239-0.213,0.271-0.359h0.514
		c-0.076,0.285-0.23,0.502-0.461,0.652C1005.862,105.639,1005.564,105.715,1005.201,105.715z M1006.068,104.146
		c-0.016-0.24-0.086-0.428-0.214-0.563c-0.14-0.148-0.347-0.225-0.618-0.225c-0.273,0-0.492,0.086-0.655,0.258
		c-0.13,0.135-0.207,0.311-0.233,0.529H1006.068z"/>
	<path fill="#E5E5E4" stroke="#E5E5E4" stroke-width="0.25" stroke-miterlimit="10" d="M1008.054,105.645l-1.111-3.568h0.31h0.312
		l0.757,2.82c0.014,0.047,0.024,0.092,0.033,0.135s0.013,0.072,0.013,0.092h-0.001c0-0.021,0.006-0.055,0.016-0.098
		s0.021-0.086,0.034-0.129l0.898-2.82h0.323h0.324l0.892,2.807c0.016,0.043,0.028,0.088,0.038,0.133s0.014,0.078,0.014,0.1l0,0
		c0-0.018,0.004-0.049,0.013-0.096c0.009-0.045,0.02-0.09,0.033-0.137l0.767-2.807h0.309h0.309l-1.111,3.568h-0.309h-0.31
		l-0.921-2.76c-0.016-0.047-0.029-0.094-0.041-0.139s-0.018-0.076-0.018-0.094l0,0c0,0.02-0.006,0.053-0.015,0.098
		c-0.01,0.045-0.022,0.09-0.038,0.135l-0.9,2.76h-0.309H1008.054z"/>
	<path fill="#E5E5E4" stroke="#E5E5E4" stroke-width="0.25" stroke-miterlimit="10" d="M1012.887,103.047h0.244h0.249v0.445
		c0.044-0.07,0.091-0.133,0.142-0.189c0.196-0.223,0.438-0.334,0.725-0.334c0.049,0,0.098,0.008,0.147,0.023v0.445l-0.106-0.002
		c-0.281,0-0.498,0.07-0.652,0.213c-0.152,0.141-0.229,0.344-0.229,0.605v1.391h-0.26h-0.26V103.047z"/>
	<path fill="#E5E5E4" stroke="#E5E5E4" stroke-width="0.25" stroke-miterlimit="10" d="M1014.795,102.076h0.531v0.496h-0.531
		V102.076z M1014.801,103.047h0.26h0.26v2.598h-0.26h-0.26V103.047z"/>
	<path fill="#E5E5E4" stroke="#E5E5E4" stroke-width="0.25" stroke-miterlimit="10" d="M1017.232,105.643
		c-0.178,0.021-0.307,0.033-0.387,0.033c-0.228,0-0.388-0.043-0.48-0.127c-0.094-0.084-0.141-0.229-0.141-0.434v-1.711h-0.428
		v-0.357h0.428v-0.729h0.52v0.729h0.488v0.357h-0.488v1.711c0,0.059,0.027,0.104,0.082,0.139c0.055,0.033,0.129,0.051,0.222,0.051
		h0.185V105.643z"/>
	<path fill="#E5E5E4" stroke="#E5E5E4" stroke-width="0.25" stroke-miterlimit="10" d="M1018.555,105.715
		c-0.303,0-0.542-0.068-0.719-0.205c-0.178-0.135-0.266-0.318-0.266-0.551s0.083-0.418,0.25-0.555
		c0.166-0.139,0.409-0.225,0.729-0.258l0.708-0.074c0.058-0.006,0.112-0.014,0.165-0.025c0.066-0.014,0.119-0.043,0.155-0.088
		c0.036-0.043,0.056-0.098,0.056-0.164v-0.021c0-0.141-0.063-0.248-0.188-0.326c-0.125-0.08-0.3-0.119-0.522-0.119
		c-0.214,0-0.381,0.043-0.501,0.125c-0.12,0.084-0.193,0.209-0.218,0.373h-0.48c0.025-0.285,0.145-0.498,0.359-0.643
		c0.213-0.143,0.52-0.215,0.918-0.215c0.375,0,0.661,0.068,0.857,0.205s0.295,0.336,0.295,0.6v1.426c0,0.045,0.016,0.08,0.047,0.105
		c0.032,0.027,0.075,0.041,0.129,0.041c0.016,0,0.038-0.002,0.068-0.006c0.029-0.002,0.062-0.008,0.096-0.014v0.316
		c-0.049,0.016-0.103,0.027-0.158,0.037s-0.104,0.016-0.142,0.016c-0.196,0-0.339-0.045-0.427-0.137
		c-0.059-0.059-0.1-0.145-0.125-0.254c-0.038,0.039-0.082,0.078-0.133,0.115C1019.248,105.617,1018.93,105.715,1018.555,105.715z
		 M1019.633,104.615v-0.281c-0.098,0.039-0.203,0.064-0.321,0.08l-0.477,0.059c-0.25,0.027-0.433,0.078-0.549,0.146
		c-0.115,0.068-0.173,0.162-0.173,0.279c0,0.146,0.047,0.258,0.141,0.336c0.096,0.08,0.229,0.119,0.402,0.119
		c0.273,0,0.504-0.063,0.693-0.188c0.129-0.088,0.215-0.186,0.256-0.297c0.008-0.02,0.014-0.053,0.018-0.1
		C1019.629,104.723,1019.633,104.672,1019.633,104.615z"/>
	<path fill="#E5E5E4" stroke="#E5E5E4" stroke-width="0.25" stroke-miterlimit="10" d="M1020.99,102.076h0.26h0.26v1.309
		c0.227-0.279,0.521-0.418,0.881-0.416c0.404,0,0.725,0.117,0.96,0.352s0.354,0.549,0.354,0.947c0,0.451-0.119,0.807-0.357,1.063
		s-0.567,0.385-0.989,0.385c-0.349,0-0.626-0.113-0.831-0.338l-0.05-0.053v0.32h-0.487V102.076z M1022.332,105.336
		c0.271,0,0.479-0.086,0.619-0.258c0.141-0.174,0.211-0.424,0.211-0.754c0-0.326-0.068-0.566-0.203-0.723s-0.342-0.234-0.623-0.234
		c-0.287,0-0.496,0.088-0.629,0.266c-0.132,0.176-0.197,0.455-0.197,0.836c0,0.277,0.07,0.49,0.213,0.641
		S1022.068,105.336,1022.332,105.336z"/>
	<path fill="#E5E5E4" stroke="#E5E5E4" stroke-width="0.25" stroke-miterlimit="10" d="M1024.331,102.076h0.261h0.26v3.568h-0.26
		h-0.261V102.076z"/>
	<path fill="#E5E5E4" stroke="#E5E5E4" stroke-width="0.25" stroke-miterlimit="10" d="M1026.893,105.715
		c-0.438,0-0.781-0.117-1.031-0.35s-0.375-0.555-0.375-0.967c0-0.436,0.133-0.783,0.396-1.041c0.266-0.26,0.621-0.389,1.068-0.389
		c0.404,0,0.73,0.127,0.979,0.379s0.373,0.584,0.373,0.996l-0.007,0.154h-2.257c0.021,0.26,0.092,0.457,0.211,0.592
		c0.146,0.166,0.377,0.248,0.692,0.248c0.198,0,0.371-0.047,0.52-0.141c0.147-0.094,0.239-0.213,0.271-0.359h0.514
		c-0.077,0.285-0.231,0.502-0.462,0.652C1027.554,105.639,1027.257,105.715,1026.893,105.715z M1027.76,104.146
		c-0.015-0.24-0.086-0.428-0.213-0.563c-0.141-0.148-0.347-0.225-0.618-0.225c-0.274,0-0.492,0.086-0.655,0.258
		c-0.13,0.135-0.207,0.311-0.234,0.529H1027.76z"/>
</g>
<rect x="1040.958" y="43.292" fill="#3D3D3F" stroke="#060404" stroke-width="2" stroke-miterlimit="10" width="175.001" height="26.643"/>
<path fill="#1C1D20" d="M1066.516,56.584c0,3.231-2.619,5.852-5.852,5.852s-5.852-2.62-5.852-5.852s2.619-5.852,5.852-5.852
	S1066.516,53.353,1066.516,56.584"/>
<path fill="#EFEEEE" d="M1065.672,56.584c0,2.766-2.242,5.008-5.008,5.008s-5.008-2.242-5.008-5.008s2.242-5.007,5.008-5.007
	S1065.672,53.818,1065.672,56.584"/>
<path fill="none" stroke="#CBCCCD" stroke-miterlimit="10" d="M1059.792,54.406c-0.865,0.348-1.477,1.189-1.477,2.178
	c0,1.297,1.052,2.35,2.349,2.35s2.349-1.053,2.349-2.35c0-0.988-0.612-1.83-1.476-2.178"/>
<rect x="1060.182" y="52.968" fill="#CBCCCD" width="0.965" height="3.001"/>
<path fill="#3D3D3F" d="M1055.6,65.166c-2.545-2.139-4.004-5.267-4.004-8.582s1.459-6.443,4.004-8.582l1.01,1.201
	c-2.189,1.84-3.445,4.53-3.445,7.381s1.256,5.541,3.445,7.381L1055.6,65.166z"/>
<path fill="none" stroke="#353537" stroke-miterlimit="10" d="M1053.093,63.815c-2.545-1.803-4.004-4.438-4.004-7.232
	s1.459-5.43,4.004-7.232l1.01,1.013c-2.189,1.551-3.445,3.817-3.445,6.22s1.256,4.669,3.445,6.22L1053.093,63.815z"/>
<path fill="none" stroke="#353537" stroke-miterlimit="10" d="M1068.695,63.815c2.545-1.803,4.004-4.438,4.004-7.232
	s-1.459-5.43-4.004-7.232l-1.01,1.013c2.189,1.551,3.445,3.817,3.445,6.22s-1.256,4.669-3.445,6.22L1068.695,63.815z"/>
<polyline fill="none" stroke="#FFFFFF" stroke-miterlimit="10" points="1077.854,51.135 1077.854,48.302 1136.187,48.302 
	1136.187,51.135 "/>
<polyline fill="none" stroke="#FFFFFF" stroke-miterlimit="10" points="1077.854,62.052 1077.854,64.885 1136.187,64.885 
	1136.187,62.052 "/>
<line fill="none" stroke="#FFFFFF" stroke-miterlimit="10" x1="1082.104" y1="50.927" x2="1082.104" y2="62.51"/>
<line fill="none" stroke="#FFFFFF" stroke-miterlimit="10" x1="1079.687" y1="56.719" x2="1082.104" y2="56.719"/>
<rect x="1077.374" y="55.385" fill="#FFFFFF" width="3.083" height="2.729"/>
<rect x="1083.27" y="50.927" fill="#FFFFFF" width="3.083" height="2.729"/>
<rect x="1083.27" y="59.781" fill="#FFFFFF" width="3.083" height="2.729"/>
<rect x="1142.686" y="50.416" fill="#848484" width="12.668" height="12.667"/>
<line fill="none" stroke="#FFFFFF" stroke-miterlimit="10" x1="1082.379" y1="52.291" x2="1083.879" y2="52.291"/>
<line fill="none" stroke="#FFFFFF" stroke-miterlimit="10" x1="1082.379" y1="61.146" x2="1083.879" y2="61.146"/>
<rect x="1188.275" y="46.271" fill="#C5D4ED" width="21.5" height="20.625"/>
</svg>
