<?xml version="1.0" encoding="utf-8"?>
<!-- Generator: Adobe Illustrator 16.0.0, SVG Export Plug-In . SVG Version: 6.00 Build 0)  -->
<!DOCTYPE svg PUBLIC "-//W3C//DTD SVG 1.1//EN" "http://www.w3.org/Graphics/SVG/1.1/DTD/svg11.dtd">
<svg version="1.1" id="图层_1" xmlns="http://www.w3.org/2000/svg" xmlns:xlink="http://www.w3.org/1999/xlink" x="0px" y="0px"
	 width="1275.59px" height="126.14px" viewBox="0 0 1275.59 126.14" enable-background="new 0 0 1275.59 126.14"
	 xml:space="preserve">
<g>
	<rect x="0.593" y="-0.135" fill="#3D3D3F" width="1275.589" height="126.142"/>
</g>
<g>
	<path fill-rule="evenodd" clip-rule="evenodd" fill="#FFFFFF" d="M40.302,32.526h4.185h4.744c-0.085,0.499-0.234,0.987-0.447,1.442
		h-15.77v-1.442H40.302z M44.196,31.102l-0.294-1.443h5.135c0.146,0.467,0.237,0.953,0.269,1.443H44.196z M40.302,31.102h-4.363
		v-1.443h4.363V31.102z M35.939,28.215v-1.443h10.923c0.604,0.379,1.1,0.875,1.482,1.443H35.939z M35.939,25.347v-1.442h4.362h3.6
		h4.541c-0.392,0.576-0.907,1.073-1.55,1.442H35.939z M35.939,21.017h4.363v1.443h-4.363V21.017z M33.014,19.592v-1.443h15.728
		c0.23,0.457,0.397,0.943,0.5,1.443H33.014z M49.356,21.017c-0.019,0.491-0.097,0.978-0.235,1.444h-4.927l0.292-1.444H49.356z
		 M58.111,28.215h-4.237v-1.443h4.237V28.215z M53.874,25.347v-1.442h8.444l0.553,1.442H53.874z M53.874,22.461v-1.444h7.337
		l0.553,1.444H53.874z M50.898,19.592v-1.443h9.213l0.553,1.443H50.898z M62.882,25.347l0.565-1.442h8.207v1.442H62.882z
		 M64.012,22.461l0.563-1.444h7.079v1.444H64.012z M65.132,19.592l0.564-1.443h9.032v1.443H65.132z M71.653,28.215h-4.061v-1.443
		h4.061V28.215z M66.359,26.771l-0.499,1.443h-6.164l-0.523-1.443H66.359z M58.111,31.102h-4.237v-1.443h4.237V31.102z
		 M71.653,31.102h-4.061v-1.443h4.061V31.102z M65.361,29.658l-0.499,1.443h-4.118l-0.523-1.443H65.361z M58.111,33.969h-7.213
		v-1.442h7.213V33.969z M74.729,33.969h-7.137v-1.442h7.137V33.969z M64.369,32.526l-0.5,1.442h-2.084l-0.523-1.442H64.369z
		 M58.111,36.911h-7.213v-1.499h7.213V36.911z M74.729,36.911h-7.137v-1.499h7.137V36.911z M63.37,35.412l-0.519,1.499l-0.543-1.499
		H63.37z M50.898,16.707v-1.408h8.12l0.54,1.408H50.898z M66.261,16.707l0.55-1.408h7.918v1.408H66.261z M33.014,15.299v1.408
		h14.652c-0.912-0.855-2.191-1.408-3.833-1.408H33.014z M33.014,35.412v1.499h10.818c1.729-0.007,3.039-0.597,3.943-1.499H33.014z
		 M20.92,15.299h10.037v1.408H20.92V15.299z M30.957,19.592H20.92v-1.442h10.037V19.592z M28.031,22.461H23.77v-1.443h4.261V22.461z
		 M28.031,25.347H23.77v-1.442h4.261V25.347z M28.031,28.215H23.77v-1.443h4.261V28.215z M28.031,31.102H23.77v-1.443h4.261V31.102z
		 M30.957,33.969H20.92v-1.442h10.037V33.969z M30.957,36.911H20.92v-1.499h10.037V36.911z"/>
</g>
<g>
	<g>
		<polygon fill="#232527" points="208.031,77.295 205.205,72.398 208.031,67.502 213.684,67.502 216.511,72.398 213.684,77.295 		
			"/>
	</g>
	<g>
		<polygon fill="#232527" points="228.794,77.295 225.968,72.398 228.794,67.502 234.448,67.502 237.274,72.398 234.448,77.295 		
			"/>
	</g>
	<g>
		<polygon fill="#232527" points="249.558,77.295 246.731,72.398 249.558,67.502 255.211,67.502 258.038,72.398 255.211,77.295 		
			"/>
	</g>
	<g>
		<polygon fill="#232527" points="270.321,77.295 267.495,72.398 270.321,67.502 275.975,67.502 278.802,72.398 275.975,77.295 		
			"/>
	</g>
	<g>
		<polygon fill="#232527" points="291.084,77.295 288.258,72.398 291.084,67.502 296.738,67.502 299.566,72.398 296.738,77.295 		
			"/>
	</g>
	<g>
		<polygon fill="#232527" points="311.848,77.295 309.021,72.398 311.848,67.502 317.501,67.502 320.329,72.398 317.501,77.295 		
			"/>
	</g>
	<g>
		<polygon fill="#232527" points="332.612,77.295 329.785,72.398 332.612,67.502 338.266,67.502 341.092,72.398 338.266,77.295 		
			"/>
	</g>
	<g>
		<polygon fill="#232527" points="353.375,77.295 350.548,72.398 353.375,67.502 359.029,67.502 361.856,72.398 359.029,77.295 		
			"/>
	</g>
	<g>
		<polygon fill="#232527" points="374.138,77.295 371.312,72.398 374.138,67.502 379.792,67.502 382.619,72.398 379.792,77.295 		
			"/>
	</g>
	<g>
		<polygon fill="#232527" points="218.412,74.285 215.585,79.182 218.412,84.077 224.067,84.077 226.893,79.182 224.067,74.285 		
			"/>
	</g>
	<g>
		<polygon fill="#232527" points="239.175,74.285 236.349,79.182 239.175,84.077 244.83,84.077 247.657,79.182 244.83,74.285 		"/>
	</g>
	<g>
		<polygon fill="#232527" points="259.939,74.285 257.113,79.182 259.939,84.077 265.593,84.077 268.42,79.182 265.593,74.285 		"/>
	</g>
	<g>
		<polygon fill="#232527" points="280.704,74.285 277.876,79.182 280.704,84.077 286.357,84.077 289.183,79.182 286.357,74.285 		
			"/>
	</g>
	<g>
		<polygon fill="#232527" points="301.466,74.285 298.639,79.182 301.466,84.077 307.12,84.077 309.947,79.182 307.12,74.285 		"/>
	</g>
	<g>
		<polygon fill="#232527" points="322.23,74.285 319.403,79.182 322.23,84.077 327.883,84.077 330.71,79.182 327.883,74.285 		"/>
	</g>
	<g>
		<polygon fill="#232527" points="342.994,74.285 340.167,79.182 342.994,84.077 348.646,84.077 351.474,79.182 348.646,74.285 		
			"/>
	</g>
	<g>
		<polygon fill="#232527" points="363.757,74.285 360.93,79.182 363.757,84.077 369.411,84.077 372.237,79.182 369.411,74.285 		"/>
	</g>
	<g>
		<polygon fill="#232527" points="384.521,74.285 381.694,79.182 384.521,84.077 390.174,84.077 393.001,79.182 390.174,74.285 		
			"/>
	</g>
	<g>
		<polygon fill="#232527" points="208.031,89.674 205.205,84.777 208.031,79.882 213.684,79.882 216.511,84.777 213.684,89.674 		
			"/>
	</g>
	<g>
		<polygon fill="#232527" points="228.794,89.674 225.968,84.777 228.794,79.882 234.448,79.882 237.274,84.777 234.448,89.674 		
			"/>
	</g>
	<g>
		<polygon fill="#232527" points="249.558,89.674 246.731,84.777 249.558,79.882 255.211,79.882 258.038,84.777 255.211,89.674 		
			"/>
	</g>
	<g>
		<polygon fill="#232527" points="270.321,89.674 267.495,84.777 270.321,79.882 275.975,79.882 278.802,84.777 275.975,89.674 		
			"/>
	</g>
	<g>
		<polygon fill="#232527" points="291.084,89.674 288.258,84.777 291.084,79.882 296.738,79.882 299.566,84.777 296.738,89.674 		
			"/>
	</g>
	<g>
		<polygon fill="#232527" points="311.848,89.674 309.021,84.777 311.848,79.882 317.501,79.882 320.329,84.777 317.501,89.674 		
			"/>
	</g>
	<g>
		<polygon fill="#232527" points="332.612,89.674 329.785,84.777 332.612,79.882 338.266,79.882 341.092,84.777 338.266,89.674 		
			"/>
	</g>
	<g>
		<polygon fill="#232527" points="353.375,89.674 350.548,84.777 353.375,79.882 359.029,79.882 361.856,84.777 359.029,89.674 		
			"/>
	</g>
	<g>
		<polygon fill="#232527" points="374.138,89.674 371.312,84.777 374.138,79.882 379.792,79.882 382.619,84.777 379.792,89.674 		
			"/>
	</g>
	<g>
		<polygon fill="#232527" points="218.412,86.664 215.585,91.561 218.412,96.457 224.067,96.457 226.893,91.561 224.067,86.664 		
			"/>
	</g>
	<g>
		<polygon fill="#232527" points="239.175,86.664 236.349,91.561 239.175,96.457 244.83,96.457 247.657,91.561 244.83,86.664 		"/>
	</g>
	<g>
		<polygon fill="#232527" points="259.939,86.664 257.113,91.561 259.939,96.457 265.593,96.457 268.42,91.561 265.593,86.664 		"/>
	</g>
	<g>
		<polygon fill="#232527" points="280.704,86.664 277.876,91.561 280.704,96.457 286.357,96.457 289.183,91.561 286.357,86.664 		
			"/>
	</g>
	<g>
		<polygon fill="#232527" points="301.466,86.664 298.639,91.561 301.466,96.457 307.12,96.457 309.947,91.561 307.12,86.664 		"/>
	</g>
	<g>
		<polygon fill="#232527" points="322.23,86.664 319.403,91.561 322.23,96.457 327.883,96.457 330.71,91.561 327.883,86.664 		"/>
	</g>
	<g>
		<polygon fill="#232527" points="342.994,86.664 340.167,91.561 342.994,96.457 348.646,96.457 351.474,91.561 348.646,86.664 		
			"/>
	</g>
	<g>
		<polygon fill="#232527" points="363.757,86.664 360.93,91.561 363.757,96.457 369.411,96.457 372.237,91.561 369.411,86.664 		"/>
	</g>
	<g>
		<polygon fill="#232527" points="384.521,86.664 381.694,91.561 384.521,96.457 390.174,96.457 393.001,91.561 390.174,86.664 		
			"/>
	</g>
	<g>
		<polygon fill="#232527" points="208.031,101.354 205.205,96.457 208.031,91.561 213.684,91.561 216.511,96.457 213.684,101.354 		
			"/>
	</g>
	<g>
		<polygon fill="#232527" points="228.794,101.354 225.968,96.457 228.794,91.561 234.448,91.561 237.274,96.457 234.448,101.354 		
			"/>
	</g>
	<g>
		<polygon fill="#232527" points="249.558,101.354 246.731,96.457 249.558,91.561 255.211,91.561 258.038,96.457 255.211,101.354 		
			"/>
	</g>
	<g>
		<polygon fill="#232527" points="270.321,101.354 267.495,96.457 270.321,91.561 275.975,91.561 278.802,96.457 275.975,101.354 		
			"/>
	</g>
	<g>
		<polygon fill="#232527" points="291.084,101.354 288.258,96.457 291.084,91.561 296.738,91.561 299.566,96.457 296.738,101.354 		
			"/>
	</g>
	<g>
		<polygon fill="#232527" points="311.848,101.354 309.021,96.457 311.848,91.561 317.501,91.561 320.329,96.457 317.501,101.354 		
			"/>
	</g>
	<g>
		<polygon fill="#232527" points="332.612,101.354 329.785,96.457 332.612,91.561 338.266,91.561 341.092,96.457 338.266,101.354 		
			"/>
	</g>
	<g>
		<polygon fill="#232527" points="353.375,101.354 350.548,96.457 353.375,91.561 359.029,91.561 361.856,96.457 359.029,101.354 		
			"/>
	</g>
	<g>
		<polygon fill="#232527" points="374.138,101.354 371.312,96.457 374.138,91.561 379.792,91.561 382.619,96.457 379.792,101.354 		
			"/>
	</g>
	<g>
		<polygon fill="#232527" points="218.412,98.344 215.585,103.24 218.412,108.136 224.067,108.136 226.893,103.24 224.067,98.344 		
			"/>
	</g>
	<g>
		<polygon fill="#232527" points="239.175,98.344 236.349,103.24 239.175,108.136 244.83,108.136 247.657,103.24 244.83,98.344 		
			"/>
	</g>
	<g>
		<polygon fill="#232527" points="259.939,98.344 257.113,103.24 259.939,108.136 265.593,108.136 268.42,103.24 265.593,98.344 		
			"/>
	</g>
	<g>
		<polygon fill="#232527" points="280.704,98.344 277.876,103.24 280.704,108.136 286.357,108.136 289.183,103.24 286.357,98.344 		
			"/>
	</g>
	<g>
		<polygon fill="#232527" points="301.466,98.344 298.639,103.24 301.466,108.136 307.12,108.136 309.947,103.24 307.12,98.344 		
			"/>
	</g>
	<g>
		<polygon fill="#232527" points="322.23,98.344 319.403,103.24 322.23,108.136 327.883,108.136 330.71,103.24 327.883,98.344 		"/>
	</g>
	<g>
		<polygon fill="#232527" points="342.994,98.344 340.167,103.24 342.994,108.136 348.646,108.136 351.474,103.24 348.646,98.344 		
			"/>
	</g>
	<g>
		<polygon fill="#232527" points="363.757,98.344 360.93,103.24 363.757,108.136 369.411,108.136 372.237,103.24 369.411,98.344 		
			"/>
	</g>
	<g>
		<polygon fill="#232527" points="384.521,98.344 381.694,103.24 384.521,108.136 390.174,108.136 393.001,103.24 390.174,98.344 		
			"/>
	</g>
	<g>
		<polygon fill="#232527" points="208.031,113.732 205.205,108.837 208.031,103.94 213.684,103.94 216.511,108.837 213.684,113.732 
					"/>
	</g>
	<g>
		<polygon fill="#232527" points="228.794,113.732 225.968,108.837 228.794,103.94 234.448,103.94 237.274,108.837 234.448,113.732 
					"/>
	</g>
	<g>
		<polygon fill="#232527" points="249.558,113.732 246.731,108.837 249.558,103.94 255.211,103.94 258.038,108.837 255.211,113.732 
					"/>
	</g>
	<g>
		<polygon fill="#232527" points="270.321,113.732 267.495,108.837 270.321,103.94 275.975,103.94 278.802,108.837 275.975,113.732 
					"/>
	</g>
	<g>
		<polygon fill="#232527" points="291.084,113.732 288.258,108.837 291.084,103.94 296.738,103.94 299.566,108.837 296.738,113.732 
					"/>
	</g>
	<g>
		<polygon fill="#232527" points="311.848,113.732 309.021,108.837 311.848,103.94 317.501,103.94 320.329,108.837 317.501,113.732 
					"/>
	</g>
	<g>
		<polygon fill="#232527" points="332.612,113.732 329.785,108.837 332.612,103.94 338.266,103.94 341.092,108.837 338.266,113.732 
					"/>
	</g>
	<g>
		<polygon fill="#232527" points="353.375,113.732 350.548,108.837 353.375,103.94 359.029,103.94 361.856,108.837 359.029,113.732 
					"/>
	</g>
	<g>
		<polygon fill="#232527" points="374.138,113.732 371.312,108.837 374.138,103.94 379.792,103.94 382.619,108.837 379.792,113.732 
					"/>
	</g>
	<g>
		<polygon fill="#232527" points="218.412,110.724 215.585,115.619 218.412,120.516 224.067,120.516 226.893,115.619 
			224.067,110.724 		"/>
	</g>
	<g>
		<polygon fill="#232527" points="239.175,110.724 236.349,115.619 239.175,120.516 244.83,120.516 247.657,115.619 244.83,110.724 
					"/>
	</g>
	<g>
		<polygon fill="#232527" points="259.939,110.724 257.113,115.619 259.939,120.516 265.593,120.516 268.42,115.619 
			265.593,110.724 		"/>
	</g>
	<g>
		<polygon fill="#232527" points="280.704,110.724 277.876,115.619 280.704,120.516 286.357,120.516 289.183,115.619 
			286.357,110.724 		"/>
	</g>
	<g>
		<polygon fill="#232527" points="301.466,110.724 298.639,115.619 301.466,120.516 307.12,120.516 309.947,115.619 307.12,110.724 
					"/>
	</g>
	<g>
		<polygon fill="#232527" points="322.23,110.724 319.403,115.619 322.23,120.516 327.883,120.516 330.71,115.619 327.883,110.724 
					"/>
	</g>
	<g>
		<polygon fill="#232527" points="342.994,110.724 340.167,115.619 342.994,120.516 348.646,120.516 351.474,115.619 
			348.646,110.724 		"/>
	</g>
	<g>
		<polygon fill="#232527" points="363.757,110.724 360.93,115.619 363.757,120.516 369.411,120.516 372.237,115.619 
			369.411,110.724 		"/>
	</g>
	<g>
		<polygon fill="#232527" points="384.521,110.724 381.694,115.619 384.521,120.516 390.174,120.516 393.001,115.619 
			390.174,110.724 		"/>
	</g>
</g>
<g>
	<g>
		<polygon fill="#232527" points="401.668,10.316 398.841,5.42 401.668,0.523 407.321,0.523 410.148,5.42 407.321,10.316 		"/>
	</g>
	<g>
		<polygon fill="#232527" points="422.431,10.316 419.604,5.42 422.431,0.523 428.084,0.523 430.911,5.42 428.084,10.316 		"/>
	</g>
	<g>
		<polygon fill="#232527" points="443.195,10.316 440.368,5.42 443.195,0.523 448.848,0.523 451.674,5.42 448.848,10.316 		"/>
	</g>
	<g>
		<polygon fill="#232527" points="463.958,10.316 461.131,5.42 463.958,0.523 469.611,0.523 472.438,5.42 469.611,10.316 		"/>
	</g>
	<g>
		<polygon fill="#232527" points="484.721,10.316 481.895,5.42 484.721,0.523 490.375,0.523 493.203,5.42 490.375,10.316 		"/>
	</g>
	<g>
		<polygon fill="#232527" points="505.485,10.316 502.658,5.42 505.485,0.523 511.138,0.523 513.965,5.42 511.138,10.316 		"/>
	</g>
	<g>
		<polygon fill="#232527" points="526.249,10.316 523.421,5.42 526.249,0.523 531.902,0.523 534.729,5.42 531.902,10.316 		"/>
	</g>
	<g>
		<polygon fill="#232527" points="547.012,10.316 544.185,5.42 547.012,0.523 552.666,0.523 555.493,5.42 552.666,10.316 		"/>
	</g>
	<g>
		<polygon fill="#232527" points="567.775,10.316 564.949,5.42 567.775,0.523 573.429,0.523 576.256,5.42 573.429,10.316 		"/>
	</g>
	<g>
		<polygon fill="#232527" points="412.048,7.307 409.222,12.203 412.048,17.099 417.704,17.099 420.53,12.203 417.704,7.307 		"/>
	</g>
	<g>
		<polygon fill="#232527" points="432.812,7.307 429.986,12.203 432.812,17.099 438.467,17.099 441.293,12.203 438.467,7.307 		"/>
	</g>
	<g>
		<polygon fill="#232527" points="453.576,7.307 450.75,12.203 453.576,17.099 459.23,17.099 462.057,12.203 459.23,7.307 		"/>
	</g>
	<g>
		<polygon fill="#232527" points="474.34,7.307 471.513,12.203 474.34,17.099 479.994,17.099 482.82,12.203 479.994,7.307 		"/>
	</g>
	<g>
		<polygon fill="#232527" points="495.103,7.307 492.276,12.203 495.103,17.099 500.757,17.099 503.583,12.203 500.757,7.307 		"/>
	</g>
	<g>
		<polygon fill="#232527" points="515.867,7.307 513.04,12.203 515.867,17.099 521.52,17.099 524.347,12.203 521.52,7.307 		"/>
	</g>
	<g>
		<polygon fill="#232527" points="536.63,7.307 533.804,12.203 536.63,17.099 542.283,17.099 545.11,12.203 542.283,7.307 		"/>
	</g>
	<g>
		<polygon fill="#232527" points="557.394,7.307 554.567,12.203 557.394,17.099 563.047,17.099 565.874,12.203 563.047,7.307 		"/>
	</g>
	<g>
		<polygon fill="#232527" points="578.157,7.307 575.331,12.203 578.157,17.099 583.811,17.099 586.638,12.203 583.811,7.307 		"/>
	</g>
	<g>
		<polygon fill="#232527" points="401.668,22.695 398.841,17.799 401.668,12.903 407.321,12.903 410.148,17.799 407.321,22.695 		
			"/>
	</g>
	<g>
		<polygon fill="#232527" points="422.431,22.695 419.604,17.799 422.431,12.903 428.084,12.903 430.911,17.799 428.084,22.695 		
			"/>
	</g>
	<g>
		<polygon fill="#232527" points="443.195,22.695 440.368,17.799 443.195,12.903 448.848,12.903 451.674,17.799 448.848,22.695 		
			"/>
	</g>
	<g>
		<polygon fill="#232527" points="463.958,22.695 461.131,17.799 463.958,12.903 469.611,12.903 472.438,17.799 469.611,22.695 		
			"/>
	</g>
	<g>
		<polygon fill="#232527" points="484.721,22.695 481.895,17.799 484.721,12.903 490.375,12.903 493.203,17.799 490.375,22.695 		
			"/>
	</g>
	<g>
		<polygon fill="#232527" points="505.485,22.695 502.658,17.799 505.485,12.903 511.138,12.903 513.965,17.799 511.138,22.695 		
			"/>
	</g>
	<g>
		<polygon fill="#232527" points="526.249,22.695 523.421,17.799 526.249,12.903 531.902,12.903 534.729,17.799 531.902,22.695 		
			"/>
	</g>
	<g>
		<polygon fill="#232527" points="547.012,22.695 544.185,17.799 547.012,12.903 552.666,12.903 555.493,17.799 552.666,22.695 		
			"/>
	</g>
	<g>
		<polygon fill="#232527" points="567.775,22.695 564.949,17.799 567.775,12.903 573.429,12.903 576.256,17.799 573.429,22.695 		
			"/>
	</g>
	<g>
		<polygon fill="#232527" points="412.048,19.686 409.222,24.582 412.048,29.479 417.704,29.479 420.53,24.582 417.704,19.686 		"/>
	</g>
	<g>
		<polygon fill="#232527" points="432.812,19.686 429.986,24.582 432.812,29.479 438.467,29.479 441.293,24.582 438.467,19.686 		
			"/>
	</g>
	<g>
		<polygon fill="#232527" points="453.576,19.686 450.75,24.582 453.576,29.479 459.23,29.479 462.057,24.582 459.23,19.686 		"/>
	</g>
	<g>
		<polygon fill="#232527" points="474.34,19.686 471.513,24.582 474.34,29.479 479.994,29.479 482.82,24.582 479.994,19.686 		"/>
	</g>
	<g>
		<polygon fill="#232527" points="495.103,19.686 492.276,24.582 495.103,29.479 500.757,29.479 503.583,24.582 500.757,19.686 		
			"/>
	</g>
	<g>
		<polygon fill="#232527" points="515.867,19.686 513.04,24.582 515.867,29.479 521.52,29.479 524.347,24.582 521.52,19.686 		"/>
	</g>
	<g>
		<polygon fill="#232527" points="536.63,19.686 533.804,24.582 536.63,29.479 542.283,29.479 545.11,24.582 542.283,19.686 		"/>
	</g>
	<g>
		<polygon fill="#232527" points="557.394,19.686 554.567,24.582 557.394,29.479 563.047,29.479 565.874,24.582 563.047,19.686 		
			"/>
	</g>
	<g>
		<polygon fill="#232527" points="578.157,19.686 575.331,24.582 578.157,29.479 583.811,29.479 586.638,24.582 583.811,19.686 		
			"/>
	</g>
</g>
<g>
	<g>
		<polygon fill="#232527" points="589.465,10.316 586.638,5.42 589.465,0.523 595.118,0.523 597.945,5.42 595.118,10.316 		"/>
	</g>
	<g>
		<polygon fill="#232527" points="610.228,10.316 607.401,5.42 610.228,0.523 615.881,0.523 618.708,5.42 615.881,10.316 		"/>
	</g>
	<g>
		<polygon fill="#232527" points="630.992,10.316 628.165,5.42 630.992,0.523 636.645,0.523 639.471,5.42 636.645,10.316 		"/>
	</g>
	<g>
		<polygon fill="#232527" points="651.755,10.316 648.928,5.42 651.755,0.523 657.408,0.523 660.235,5.42 657.408,10.316 		"/>
	</g>
	<g>
		<polygon fill="#232527" points="672.518,10.316 669.691,5.42 672.518,0.523 678.172,0.523 681,5.42 678.172,10.316 		"/>
	</g>
	<g>
		<polygon fill="#232527" points="693.281,10.316 690.455,5.42 693.281,0.523 698.936,0.523 701.762,5.42 698.936,10.316 		"/>
	</g>
	<g>
		<polygon fill="#232527" points="714.045,10.316 711.219,5.42 714.045,0.523 719.699,0.523 722.525,5.42 719.699,10.316 		"/>
	</g>
	<g>
		<polygon fill="#232527" points="734.809,10.316 731.982,5.42 734.809,0.523 740.463,0.523 743.289,5.42 740.463,10.316 		"/>
	</g>
	<g>
		<polygon fill="#232527" points="755.572,10.316 752.746,5.42 755.572,0.523 761.227,0.523 764.053,5.42 761.227,10.316 		"/>
	</g>
	<g>
		<polygon fill="#232527" points="599.845,7.307 597.019,12.203 599.845,17.099 605.5,17.099 608.327,12.203 605.5,7.307 		"/>
	</g>
	<g>
		<polygon fill="#232527" points="620.609,7.307 617.783,12.203 620.609,17.099 626.264,17.099 629.09,12.203 626.264,7.307 		"/>
	</g>
	<g>
		<polygon fill="#232527" points="641.373,7.307 638.546,12.203 641.373,17.099 647.027,17.099 649.854,12.203 647.027,7.307 		"/>
	</g>
	<g>
		<polygon fill="#232527" points="662.137,7.307 659.31,12.203 662.137,17.099 667.791,17.099 670.617,12.203 667.791,7.307 		"/>
	</g>
	<g>
		<polygon fill="#232527" points="682.9,7.307 680.072,12.203 682.9,17.099 688.554,17.099 691.38,12.203 688.554,7.307 		"/>
	</g>
	<g>
		<polygon fill="#232527" points="703.664,7.307 700.836,12.203 703.664,17.099 709.316,17.099 712.145,12.203 709.316,7.307 		"/>
	</g>
	<g>
		<polygon fill="#232527" points="724.428,7.307 721.601,12.203 724.428,17.099 730.08,17.099 732.907,12.203 730.08,7.307 		"/>
	</g>
	<g>
		<polygon fill="#232527" points="745.191,7.307 742.363,12.203 745.191,17.099 750.844,17.099 753.67,12.203 750.844,7.307 		"/>
	</g>
	<g>
		<polygon fill="#232527" points="765.954,7.307 763.127,12.203 765.954,17.099 771.607,17.099 774.436,12.203 771.607,7.307 		"/>
	</g>
	<g>
		<polygon fill="#232527" points="589.465,22.695 586.638,17.799 589.465,12.903 595.118,12.903 597.945,17.799 595.118,22.695 		
			"/>
	</g>
	<g>
		<polygon fill="#232527" points="610.228,22.695 607.401,17.799 610.228,12.903 615.881,12.903 618.708,17.799 615.881,22.695 		
			"/>
	</g>
	<g>
		<polygon fill="#232527" points="630.992,22.695 628.165,17.799 630.992,12.903 636.645,12.903 639.471,17.799 636.645,22.695 		
			"/>
	</g>
	<g>
		<polygon fill="#232527" points="651.755,22.695 648.928,17.799 651.755,12.903 657.408,12.903 660.235,17.799 657.408,22.695 		
			"/>
	</g>
	<g>
		<polygon fill="#232527" points="672.518,22.695 669.691,17.799 672.518,12.903 678.172,12.903 681,17.799 678.172,22.695 		"/>
	</g>
	<g>
		<polygon fill="#232527" points="693.281,22.695 690.455,17.799 693.281,12.903 698.936,12.903 701.762,17.799 698.936,22.695 		
			"/>
	</g>
	<g>
		<polygon fill="#232527" points="714.045,22.695 711.219,17.799 714.045,12.903 719.699,12.903 722.525,17.799 719.699,22.695 		
			"/>
	</g>
	<g>
		<polygon fill="#232527" points="734.809,22.695 731.982,17.799 734.809,12.903 740.463,12.903 743.289,17.799 740.463,22.695 		
			"/>
	</g>
	<g>
		<polygon fill="#232527" points="755.572,22.695 752.746,17.799 755.572,12.903 761.227,12.903 764.053,17.799 761.227,22.695 		
			"/>
	</g>
	<g>
		<polygon fill="#232527" points="599.845,19.686 597.019,24.582 599.845,29.479 605.5,29.479 608.327,24.582 605.5,19.686 		"/>
	</g>
	<g>
		<polygon fill="#232527" points="620.609,19.686 617.783,24.582 620.609,29.479 626.264,29.479 629.09,24.582 626.264,19.686 		"/>
	</g>
	<g>
		<polygon fill="#232527" points="641.373,19.686 638.546,24.582 641.373,29.479 647.027,29.479 649.854,24.582 647.027,19.686 		
			"/>
	</g>
	<g>
		<polygon fill="#232527" points="662.137,19.686 659.31,24.582 662.137,29.479 667.791,29.479 670.617,24.582 667.791,19.686 		"/>
	</g>
	<g>
		<polygon fill="#232527" points="682.9,19.686 680.072,24.582 682.9,29.479 688.554,29.479 691.38,24.582 688.554,19.686 		"/>
	</g>
	<g>
		<polygon fill="#232527" points="703.664,19.686 700.836,24.582 703.664,29.479 709.316,29.479 712.145,24.582 709.316,19.686 		
			"/>
	</g>
	<g>
		<polygon fill="#232527" points="724.428,19.686 721.601,24.582 724.428,29.479 730.08,29.479 732.907,24.582 730.08,19.686 		"/>
	</g>
	<g>
		<polygon fill="#232527" points="745.191,19.686 742.363,24.582 745.191,29.479 750.844,29.479 753.67,24.582 750.844,19.686 		"/>
	</g>
	<g>
		<polygon fill="#232527" points="765.954,19.686 763.127,24.582 765.954,29.479 771.607,29.479 774.436,24.582 771.607,19.686 		
			"/>
	</g>
</g>
<g>
	<g>
		<polygon fill="#232527" points="777.262,10.316 774.436,5.42 777.262,0.523 782.914,0.523 785.742,5.42 782.914,10.316 		"/>
	</g>
	<g>
		<polygon fill="#232527" points="798.025,10.316 795.198,5.42 798.025,0.523 803.678,0.523 806.504,5.42 803.678,10.316 		"/>
	</g>
	<g>
		<polygon fill="#232527" points="818.789,10.316 815.961,5.42 818.789,0.523 824.441,0.523 827.268,5.42 824.441,10.316 		"/>
	</g>
	<g>
		<polygon fill="#232527" points="839.552,10.316 836.725,5.42 839.552,0.523 845.205,0.523 848.032,5.42 845.205,10.316 		"/>
	</g>
	<g>
		<polygon fill="#232527" points="860.314,10.316 857.488,5.42 860.314,0.523 865.969,0.523 868.797,5.42 865.969,10.316 		"/>
	</g>
	<g>
		<polygon fill="#232527" points="881.078,10.316 878.252,5.42 881.078,0.523 886.732,0.523 889.559,5.42 886.732,10.316 		"/>
	</g>
	<g>
		<polygon fill="#232527" points="901.842,10.316 899.016,5.42 901.842,0.523 907.496,0.523 910.322,5.42 907.496,10.316 		"/>
	</g>
	<g>
		<polygon fill="#232527" points="922.605,10.316 919.779,5.42 922.605,0.523 928.26,0.523 931.086,5.42 928.26,10.316 		"/>
	</g>
	<g>
		<polygon fill="#232527" points="943.369,10.316 940.543,5.42 943.369,0.523 949.023,0.523 951.85,5.42 949.023,10.316 		"/>
	</g>
	<g>
		<polygon fill="#232527" points="787.643,7.307 784.816,12.203 787.643,17.099 793.297,17.099 796.123,12.203 793.297,7.307 		"/>
	</g>
	<g>
		<polygon fill="#232527" points="808.406,7.307 805.58,12.203 808.406,17.099 814.061,17.099 816.887,12.203 814.061,7.307 		"/>
	</g>
	<g>
		<polygon fill="#232527" points="829.17,7.307 826.344,12.203 829.17,17.099 834.824,17.099 837.65,12.203 834.824,7.307 		"/>
	</g>
	<g>
		<polygon fill="#232527" points="849.934,7.307 847.106,12.203 849.934,17.099 855.588,17.099 858.414,12.203 855.588,7.307 		"/>
	</g>
	<g>
		<polygon fill="#232527" points="870.697,7.307 867.869,12.203 870.697,17.099 876.351,17.099 879.178,12.203 876.351,7.307 		"/>
	</g>
	<g>
		<polygon fill="#232527" points="891.461,7.307 888.633,12.203 891.461,17.099 897.113,17.099 899.941,12.203 897.113,7.307 		"/>
	</g>
	<g>
		<polygon fill="#232527" points="912.225,7.307 909.397,12.203 912.225,17.099 917.877,17.099 920.704,12.203 917.877,7.307 		"/>
	</g>
	<g>
		<polygon fill="#232527" points="932.988,7.307 930.16,12.203 932.988,17.099 938.641,17.099 941.467,12.203 938.641,7.307 		"/>
	</g>
	<g>
		<polygon fill="#232527" points="953.751,7.307 950.924,12.203 953.751,17.099 959.404,17.099 962.232,12.203 959.404,7.307 		"/>
	</g>
	<g>
		<polygon fill="#232527" points="777.262,22.695 774.436,17.799 777.262,12.903 782.914,12.903 785.742,17.799 782.914,22.695 		
			"/>
	</g>
	<g>
		<polygon fill="#232527" points="798.025,22.695 795.198,17.799 798.025,12.903 803.678,12.903 806.504,17.799 803.678,22.695 		
			"/>
	</g>
	<g>
		<polygon fill="#232527" points="818.789,22.695 815.961,17.799 818.789,12.903 824.441,12.903 827.268,17.799 824.441,22.695 		
			"/>
	</g>
	<g>
		<polygon fill="#232527" points="839.552,22.695 836.725,17.799 839.552,12.903 845.205,12.903 848.032,17.799 845.205,22.695 		
			"/>
	</g>
	<g>
		<polygon fill="#232527" points="860.314,22.695 857.488,17.799 860.314,12.903 865.969,12.903 868.797,17.799 865.969,22.695 		
			"/>
	</g>
	<g>
		<polygon fill="#232527" points="881.078,22.695 878.252,17.799 881.078,12.903 886.732,12.903 889.559,17.799 886.732,22.695 		
			"/>
	</g>
	<g>
		<polygon fill="#232527" points="901.842,22.695 899.016,17.799 901.842,12.903 907.496,12.903 910.322,17.799 907.496,22.695 		
			"/>
	</g>
	<g>
		<polygon fill="#232527" points="922.605,22.695 919.779,17.799 922.605,12.903 928.26,12.903 931.086,17.799 928.26,22.695 		"/>
	</g>
	<g>
		<polygon fill="#232527" points="943.369,22.695 940.543,17.799 943.369,12.903 949.023,12.903 951.85,17.799 949.023,22.695 		"/>
	</g>
	<g>
		<polygon fill="#232527" points="787.643,19.686 784.816,24.582 787.643,29.479 793.297,29.479 796.123,24.582 793.297,19.686 		
			"/>
	</g>
	<g>
		<polygon fill="#232527" points="808.406,19.686 805.58,24.582 808.406,29.479 814.061,29.479 816.887,24.582 814.061,19.686 		"/>
	</g>
	<g>
		<polygon fill="#232527" points="829.17,19.686 826.344,24.582 829.17,29.479 834.824,29.479 837.65,24.582 834.824,19.686 		"/>
	</g>
	<g>
		<polygon fill="#232527" points="849.934,19.686 847.106,24.582 849.934,29.479 855.588,29.479 858.414,24.582 855.588,19.686 		
			"/>
	</g>
	<g>
		<polygon fill="#232527" points="870.697,19.686 867.869,24.582 870.697,29.479 876.351,29.479 879.178,24.582 876.351,19.686 		
			"/>
	</g>
	<g>
		<polygon fill="#232527" points="891.461,19.686 888.633,24.582 891.461,29.479 897.113,29.479 899.941,24.582 897.113,19.686 		
			"/>
	</g>
	<g>
		<polygon fill="#232527" points="912.225,19.686 909.397,24.582 912.225,29.479 917.877,29.479 920.704,24.582 917.877,19.686 		
			"/>
	</g>
	<g>
		<polygon fill="#232527" points="932.988,19.686 930.16,24.582 932.988,29.479 938.641,29.479 941.467,24.582 938.641,19.686 		"/>
	</g>
	<g>
		<polygon fill="#232527" points="953.751,19.686 950.924,24.582 953.751,29.479 959.404,29.479 962.232,24.582 959.404,19.686 		
			"/>
	</g>
</g>
<g>
	<polygon fill="#232527" points="965.059,11.055 962.232,6.158 965.059,1.262 970.711,1.262 973.539,6.158 970.711,11.055 	"/>
</g>
<g>
	<polygon fill="#232527" points="985.822,11.055 982.995,6.158 985.822,1.262 991.475,1.262 994.301,6.158 991.475,11.055 	"/>
</g>
<g>
	<polygon fill="#232527" points="1006.586,11.055 1003.758,6.158 1006.586,1.262 1012.238,1.262 1015.064,6.158 1012.238,11.055 	
		"/>
</g>
<g>
	<polygon fill="#232527" points="1027.349,11.055 1024.521,6.158 1027.349,1.262 1033.002,1.262 1035.829,6.158 1033.002,11.055 	
		"/>
</g>
<g>
	<polygon fill="#232527" points="1048.111,11.055 1045.285,6.158 1048.111,1.262 1053.766,1.262 1056.594,6.158 1053.766,11.055 	
		"/>
</g>
<g>
	<polygon fill="#232527" points="975.439,8.045 972.613,12.941 975.439,17.837 981.094,17.837 983.92,12.941 981.094,8.045 	"/>
</g>
<g>
	<polygon fill="#232527" points="996.203,8.045 993.377,12.941 996.203,17.837 1001.857,17.837 1004.684,12.941 1001.857,8.045 	"/>
</g>
<g>
	<polygon fill="#232527" points="1016.967,8.045 1014.141,12.941 1016.967,17.837 1022.621,17.837 1025.447,12.941 1022.621,8.045 	
		"/>
</g>
<g>
	<polygon fill="#232527" points="1037.73,8.045 1034.903,12.941 1037.73,17.837 1043.385,17.837 1046.211,12.941 1043.385,8.045 	
		"/>
</g>
<g>
	<polygon fill="#232527" points="965.059,23.434 962.232,18.537 965.059,13.642 970.711,13.642 973.539,18.537 970.711,23.434 	"/>
</g>
<g>
	<polygon fill="#232527" points="985.822,23.434 982.995,18.537 985.822,13.642 991.475,13.642 994.301,18.537 991.475,23.434 	"/>
</g>
<g>
	<polygon fill="#232527" points="1006.586,23.434 1003.758,18.537 1006.586,13.642 1012.238,13.642 1015.064,18.537 
		1012.238,23.434 	"/>
</g>
<g>
	<polygon fill="#232527" points="1027.349,23.434 1024.521,18.537 1027.349,13.642 1033.002,13.642 1035.829,18.537 
		1033.002,23.434 	"/>
</g>
<g>
	<polygon fill="#232527" points="1048.111,23.434 1045.285,18.537 1048.111,13.642 1053.766,13.642 1056.594,18.537 
		1053.766,23.434 	"/>
</g>
<g>
	<polygon fill="#232527" points="975.439,20.424 972.613,25.32 975.439,30.217 981.094,30.217 983.92,25.32 981.094,20.424 	"/>
</g>
<g>
	<polygon fill="#232527" points="996.203,20.424 993.377,25.32 996.203,30.217 1001.857,30.217 1004.684,25.32 1001.857,20.424 	"/>
</g>
<g>
	<polygon fill="#232527" points="1016.967,20.424 1014.141,25.32 1016.967,30.217 1022.621,30.217 1025.447,25.32 1022.621,20.424 	
		"/>
</g>
<g>
	<polygon fill="#232527" points="1037.73,20.424 1034.903,25.32 1037.73,30.217 1043.385,30.217 1046.211,25.32 1043.385,20.424 	
		"/>
</g>
<g>
	<polygon fill="#232527" points="985.822,35.771 982.995,30.875 985.822,25.979 991.475,25.979 994.301,30.875 991.475,35.771 	"/>
</g>
<g>
	<polygon fill="#232527" points="1006.586,35.771 1003.758,30.875 1006.586,25.979 1012.238,25.979 1015.064,30.875 
		1012.238,35.771 	"/>
</g>
<g>
	<polygon fill="#232527" points="1027.349,35.771 1024.521,30.875 1027.349,25.979 1033.002,25.979 1035.829,30.875 
		1033.002,35.771 	"/>
</g>
<g>
	<polygon fill="#232527" points="1048.111,35.771 1045.285,30.875 1048.111,25.979 1053.766,25.979 1056.594,30.875 
		1053.766,35.771 	"/>
</g>
<g>
	<polygon fill="#232527" points="1069.339,11.055 1066.513,6.158 1069.339,1.262 1074.992,1.262 1077.82,6.158 1074.992,11.055 	"/>
</g>
<g>
	<polygon fill="#232527" points="1058.958,8.045 1056.13,12.941 1058.958,17.837 1064.611,17.837 1067.438,12.941 1064.611,8.045 	
		"/>
</g>
<g>
	<polygon fill="#232527" points="1069.339,23.434 1066.513,18.537 1069.339,13.642 1074.992,13.642 1077.82,18.537 1074.992,23.434 
			"/>
</g>
<g>
	<polygon fill="#232527" points="1058.958,20.424 1056.13,25.32 1058.958,30.217 1064.611,30.217 1067.438,25.32 1064.611,20.424 	
		"/>
</g>
<g>
	<polygon fill="#232527" points="1058.958,31.836 1056.13,36.732 1058.958,41.629 1064.611,41.629 1067.438,36.732 1064.611,31.836 
			"/>
</g>
<g>
	<polygon fill="#232527" points="1058.958,44.65 1056.13,49.547 1058.958,54.442 1064.611,54.442 1067.438,49.547 1064.611,44.65 	
		"/>
</g>
<g>
	<polygon fill="#232527" points="1058.958,57.029 1056.13,61.926 1058.958,66.822 1064.611,66.822 1067.438,61.926 1064.611,57.029 
			"/>
</g>
<g>
	<polygon fill="#232527" points="1058.958,68.441 1056.13,73.338 1058.958,78.234 1064.611,78.234 1067.438,73.338 1064.611,68.441 
			"/>
</g>
<g>
	<polygon fill="#232527" points="1058.958,81.263 1056.13,86.159 1058.958,91.055 1064.611,91.055 1067.438,86.159 1064.611,81.263 
			"/>
</g>
<g>
	<polygon fill="#232527" points="1058.958,93.642 1056.13,98.538 1058.958,103.435 1064.611,103.435 1067.438,98.538 
		1064.611,93.642 	"/>
</g>
<g>
	<polygon fill="#232527" points="1058.958,105.054 1056.13,109.95 1058.958,114.847 1064.611,114.847 1067.438,109.95 
		1064.611,105.054 	"/>
</g>
<g>
	<polygon fill="#232527" points="1069.339,35.771 1066.513,30.875 1069.339,25.979 1074.992,25.979 1077.82,30.875 1074.992,35.771 
			"/>
</g>
<g>
	<polygon fill="#232527" points="1091.029,11.055 1088.203,6.158 1091.029,1.262 1096.682,1.262 1099.51,6.158 1096.682,11.055 	"/>
</g>
<g>
	<polygon fill="#232527" points="1091.029,23.434 1088.203,18.537 1091.029,13.641 1096.682,13.641 1099.51,18.537 1096.682,23.434 
			"/>
</g>
<g>
	<polygon fill="#232527" points="1080.648,8.045 1077.82,12.941 1080.648,17.837 1086.301,17.837 1089.127,12.941 1086.301,8.045 	
		"/>
</g>
<g>
	<polygon fill="#232527" points="1080.648,19.504 1077.82,24.4 1080.648,29.296 1086.301,29.296 1089.127,24.4 1086.301,19.504 	"/>
</g>
<g>
	<polygon fill="#232527" points="1069.339,97.254 1066.513,92.357 1069.339,87.461 1074.992,87.461 1077.82,92.357 1074.992,97.254 
			"/>
</g>
<g>
	<polygon fill="#232527" points="1069.339,109.633 1066.513,104.736 1069.339,99.841 1074.992,99.841 1077.82,104.736 
		1074.992,109.633 	"/>
</g>
<g>
	<polygon fill="#232527" points="1069.339,121.971 1066.513,117.074 1069.339,112.178 1074.992,112.178 1077.82,117.074 
		1074.992,121.971 	"/>
</g>
<g>
	<polygon fill="#232527" points="1080.648,94.244 1077.82,99.141 1080.648,104.036 1086.301,104.036 1089.127,99.141 
		1086.301,94.244 	"/>
</g>
<g>
	<polygon fill="#232527" points="1080.648,105.703 1077.82,110.6 1080.648,115.495 1086.301,115.495 1089.127,110.6 
		1086.301,105.703 	"/>
</g>
<g>
	<polygon fill="#232527" points="1091.029,109.633 1088.203,104.736 1091.029,99.841 1096.682,99.841 1099.51,104.736 
		1096.682,109.633 	"/>
</g>
<g>
	<polygon fill="#232527" points="1091.029,35.771 1088.203,30.875 1091.029,25.979 1096.682,25.979 1099.51,30.875 1096.682,35.771 
			"/>
</g>
<g>
	<polygon fill="#232527" points="975.439,32.762 972.613,37.658 975.439,42.554 981.094,42.554 983.92,37.658 981.094,32.762 	"/>
</g>
<g>
	<polygon fill="#232527" points="996.203,32.762 993.377,37.658 996.203,42.554 1001.857,42.554 1004.684,37.658 1001.857,32.762 	
		"/>
</g>
<g>
	<polygon fill="#232527" points="1016.967,32.762 1014.141,37.658 1016.967,42.554 1022.621,42.554 1025.447,37.658 
		1022.621,32.762 	"/>
</g>
<g>
	<polygon fill="#232527" points="1037.73,32.762 1034.903,37.658 1037.73,42.554 1043.385,42.554 1046.211,37.658 1043.385,32.762 	
		"/>
</g>
<g>
	<polygon fill="#232527" points="985.822,48.15 982.995,43.254 985.822,38.358 991.475,38.358 994.301,43.254 991.475,48.15 	"/>
</g>
<g>
	<polygon fill="#232527" points="1006.586,48.15 1003.758,43.254 1006.586,38.358 1012.238,38.358 1015.064,43.254 1012.238,48.15 	
		"/>
</g>
<g>
	<polygon fill="#232527" points="1027.349,48.15 1024.521,43.254 1027.349,38.358 1033.002,38.358 1035.829,43.254 1033.002,48.15 	
		"/>
</g>
<g>
	<polygon fill="#232527" points="1048.111,48.15 1045.285,43.254 1048.111,38.358 1053.766,38.358 1056.594,43.254 1053.766,48.15 	
		"/>
</g>
<g>
	<polygon fill="#232527" points="975.439,45.141 972.613,50.037 975.439,54.934 981.094,54.934 983.92,50.037 981.094,45.141 	"/>
</g>
<g>
	<polygon fill="#232527" points="996.203,45.141 993.377,50.037 996.203,54.934 1001.857,54.934 1004.684,50.037 1001.857,45.141 	
		"/>
</g>
<g>
	<polygon fill="#232527" points="1016.967,45.141 1014.141,50.037 1016.967,54.934 1022.621,54.934 1025.447,50.037 
		1022.621,45.141 	"/>
</g>
<g>
	<polygon fill="#232527" points="1037.73,45.141 1034.903,50.037 1037.73,54.934 1043.385,54.934 1046.211,50.037 1043.385,45.141 	
		"/>
</g>
<g>
	<polygon fill="#232527" points="985.822,60.959 982.995,56.063 985.822,51.166 991.475,51.166 994.301,56.063 991.475,60.959 	"/>
</g>
<g>
	<polygon fill="#232527" points="1006.586,60.959 1003.758,56.063 1006.586,51.166 1012.238,51.166 1015.064,56.063 
		1012.238,60.959 	"/>
</g>
<g>
	<polygon fill="#232527" points="1027.349,60.959 1024.521,56.063 1027.349,51.166 1033.002,51.166 1035.829,56.063 
		1033.002,60.959 	"/>
</g>
<g>
	<polygon fill="#232527" points="1048.111,60.959 1045.285,56.063 1048.111,51.166 1053.766,51.166 1056.594,56.063 
		1053.766,60.959 	"/>
</g>
<g>
	<polygon fill="#232527" points="975.439,57.949 972.613,62.846 975.439,67.741 981.094,67.741 983.92,62.846 981.094,57.949 	"/>
</g>
<g>
	<polygon fill="#232527" points="996.203,57.949 993.377,62.846 996.203,67.741 1001.857,67.741 1004.684,62.846 1001.857,57.949 	
		"/>
</g>
<g>
	<polygon fill="#232527" points="1016.967,57.949 1014.141,62.846 1016.967,67.741 1022.621,67.741 1025.447,62.846 
		1022.621,57.949 	"/>
</g>
<g>
	<polygon fill="#232527" points="1037.73,57.949 1034.903,62.846 1037.73,67.741 1043.385,67.741 1046.211,62.846 1043.385,57.949 	
		"/>
</g>
<g>
	<polygon fill="#232527" points="985.822,73.338 982.995,68.441 985.822,63.546 991.475,63.546 994.301,68.441 991.475,73.338 	"/>
</g>
<g>
	<polygon fill="#232527" points="1006.586,73.338 1003.758,68.441 1006.586,63.546 1012.238,63.546 1015.064,68.441 
		1012.238,73.338 	"/>
</g>
<g>
	<polygon fill="#232527" points="1027.349,73.338 1024.521,68.441 1027.349,63.546 1033.002,63.546 1035.829,68.441 
		1033.002,73.338 	"/>
</g>
<g>
	<polygon fill="#232527" points="1048.111,73.338 1045.285,68.441 1048.111,63.546 1053.766,63.546 1056.594,68.441 
		1053.766,73.338 	"/>
</g>
<g>
	<polygon fill="#232527" points="975.439,70.328 972.613,75.225 975.439,80.121 981.094,80.121 983.92,75.225 981.094,70.328 	"/>
</g>
<g>
	<polygon fill="#232527" points="996.203,70.328 993.377,75.225 996.203,80.121 1001.857,80.121 1004.684,75.225 1001.857,70.328 	
		"/>
</g>
<g>
	<polygon fill="#232527" points="1016.967,70.328 1014.141,75.225 1016.967,80.121 1022.621,80.121 1025.447,75.225 
		1022.621,70.328 	"/>
</g>
<g>
	<polygon fill="#232527" points="1037.73,70.328 1034.903,75.225 1037.73,80.121 1043.385,80.121 1046.211,75.225 1043.385,70.328 	
		"/>
</g>
<g>
	<polygon fill="#232527" points="985.822,85.676 982.995,80.779 985.822,75.883 991.475,75.883 994.301,80.779 991.475,85.676 	"/>
</g>
<g>
	<polygon fill="#232527" points="1006.586,85.676 1003.758,80.779 1006.586,75.883 1012.238,75.883 1015.064,80.779 
		1012.238,85.676 	"/>
</g>
<g>
	<polygon fill="#232527" points="1027.349,85.676 1024.521,80.779 1027.349,75.883 1033.002,75.883 1035.829,80.779 
		1033.002,85.676 	"/>
</g>
<g>
	<polygon fill="#232527" points="1048.111,85.676 1045.285,80.779 1048.111,75.883 1053.766,75.883 1056.594,80.779 
		1053.766,85.676 	"/>
</g>
<g>
	<polygon fill="#232527" points="975.439,82.666 972.613,87.563 975.439,92.458 981.094,92.458 983.92,87.563 981.094,82.666 	"/>
</g>
<g>
	<polygon fill="#232527" points="996.203,82.666 993.377,87.563 996.203,92.458 1001.857,92.458 1004.684,87.563 1001.857,82.666 	
		"/>
</g>
<g>
	<polygon fill="#232527" points="1016.967,82.666 1014.141,87.563 1016.967,92.458 1022.621,92.458 1025.447,87.563 
		1022.621,82.666 	"/>
</g>
<g>
	<polygon fill="#232527" points="1037.73,82.666 1034.903,87.563 1037.73,92.458 1043.385,92.458 1046.211,87.563 1043.385,82.666 	
		"/>
</g>
<g>
	<polygon fill="#232527" points="985.822,98.055 982.995,93.158 985.822,88.263 991.475,88.263 994.301,93.158 991.475,98.055 	"/>
</g>
<g>
	<polygon fill="#232527" points="1006.586,98.055 1003.758,93.158 1006.586,88.263 1012.238,88.263 1015.064,93.158 
		1012.238,98.055 	"/>
</g>
<g>
	<polygon fill="#232527" points="1027.349,98.055 1024.521,93.158 1027.349,88.263 1033.002,88.263 1035.829,93.158 
		1033.002,98.055 	"/>
</g>
<g>
	<polygon fill="#232527" points="1048.111,98.055 1045.285,93.158 1048.111,88.263 1053.766,88.263 1056.594,93.158 
		1053.766,98.055 	"/>
</g>
<g>
	<polygon fill="#232527" points="975.439,95.045 972.613,99.941 975.439,104.838 981.094,104.838 983.92,99.941 981.094,95.045 	"/>
</g>
<g>
	<polygon fill="#232527" points="996.203,95.045 993.377,99.941 996.203,104.838 1001.857,104.838 1004.684,99.941 1001.857,95.045 
			"/>
</g>
<g>
	<polygon fill="#232527" points="1016.967,95.045 1014.141,99.941 1016.967,104.838 1022.621,104.838 1025.447,99.941 
		1022.621,95.045 	"/>
</g>
<g>
	<polygon fill="#232527" points="1037.73,95.045 1034.903,99.941 1037.73,104.838 1043.385,104.838 1046.211,99.941 
		1043.385,95.045 	"/>
</g>
<g>
	<polygon fill="#232527" points="985.822,110.222 982.995,105.325 985.822,100.43 991.475,100.43 994.301,105.325 991.475,110.222 	
		"/>
</g>
<g>
	<polygon fill="#232527" points="1006.586,110.222 1003.758,105.325 1006.586,100.43 1012.238,100.43 1015.064,105.325 
		1012.238,110.222 	"/>
</g>
<g>
	<polygon fill="#232527" points="1027.349,110.222 1024.521,105.325 1027.349,100.43 1033.002,100.43 1035.829,105.325 
		1033.002,110.222 	"/>
</g>
<g>
	<polygon fill="#232527" points="1048.111,110.222 1045.285,105.325 1048.111,100.43 1053.766,100.43 1056.594,105.325 
		1053.766,110.222 	"/>
</g>
<g>
	<polygon fill="#232527" points="996.203,107.212 993.377,112.108 996.203,117.005 1001.857,117.005 1004.684,112.108 
		1001.857,107.212 	"/>
</g>
<g>
	<polygon fill="#232527" points="1016.967,107.212 1014.141,112.108 1016.967,117.005 1022.621,117.005 1025.447,112.108 
		1022.621,107.212 	"/>
</g>
<g>
	<polygon fill="#232527" points="1037.73,107.212 1034.903,112.108 1037.73,117.005 1043.385,117.005 1046.211,112.108 
		1043.385,107.212 	"/>
</g>
<g>
	<g>
		<polygon fill="#232527" points="398.335,110.724 395.509,115.62 398.335,120.516 403.99,120.516 406.816,115.62 403.99,110.724 		
			"/>
	</g>
	<g>
		<polygon fill="#232527" points="411.2,110.724 408.374,115.62 411.2,120.516 416.854,120.516 419.681,115.62 416.854,110.724 		
			"/>
	</g>
	<g>
		<polygon fill="#232527" points="424.752,110.724 421.926,115.62 424.752,120.516 430.408,120.516 433.234,115.62 430.408,110.724 
					"/>
	</g>
	<g>
		<polygon fill="#232527" points="437.617,110.724 434.791,115.62 437.617,120.516 443.272,120.516 446.099,115.62 443.272,110.724 
					"/>
	</g>
	<g>
		<polygon fill="#232527" points="451.17,110.724 448.344,115.62 451.17,120.516 456.825,120.516 459.651,115.62 456.825,110.724 		
			"/>
	</g>
	<g>
		<polygon fill="#232527" points="464.035,110.724 461.208,115.62 464.035,120.516 469.689,120.516 472.516,115.62 469.689,110.724 
					"/>
	</g>
	<g>
		<polygon fill="#232527" points="477.587,110.724 474.761,115.62 477.587,120.516 483.243,120.516 486.069,115.62 483.243,110.724 
					"/>
	</g>
	<g>
		<polygon fill="#232527" points="490.452,110.724 487.626,115.62 490.452,120.516 496.107,120.516 498.934,115.62 496.107,110.724 
					"/>
	</g>
	<g>
		<polygon fill="#232527" points="504.005,110.724 501.179,115.62 504.005,120.516 509.66,120.516 512.486,115.62 509.66,110.724 		
			"/>
	</g>
	<g>
		<polygon fill="#232527" points="516.87,110.724 514.043,115.62 516.87,120.516 522.524,120.516 525.351,115.62 522.524,110.724 		
			"/>
	</g>
	<g>
		<polygon fill="#232527" points="530.422,110.724 527.596,115.62 530.422,120.516 536.078,120.516 538.904,115.62 536.078,110.724 
					"/>
	</g>
	<g>
		<polygon fill="#232527" points="543.287,110.724 540.461,115.62 543.287,120.516 548.942,120.516 551.769,115.62 548.942,110.724 
					"/>
	</g>
	<g>
		<polygon fill="#232527" points="556.84,110.724 554.014,115.62 556.84,120.516 562.495,120.516 565.321,115.62 562.495,110.724 		
			"/>
	</g>
	<g>
		<polygon fill="#232527" points="569.705,110.724 566.878,115.62 569.705,120.516 575.359,120.516 578.186,115.62 575.359,110.724 
					"/>
	</g>
</g>
<g>
	<g>
		<polygon fill="#232527" points="596.874,110.724 594.047,115.62 596.874,120.516 602.529,120.516 605.355,115.62 602.529,110.724 
					"/>
	</g>
	<g>
		<polygon fill="#232527" points="609.738,110.724 606.912,115.62 609.738,120.516 615.393,120.516 618.22,115.62 615.393,110.724 
					"/>
	</g>
	<g>
		<polygon fill="#232527" points="623.291,110.724 620.465,115.62 623.291,120.516 628.946,120.516 631.772,115.62 628.946,110.724 
					"/>
	</g>
	<g>
		<polygon fill="#232527" points="636.156,110.724 633.33,115.62 636.156,120.516 641.811,120.516 644.637,115.62 641.811,110.724 
					"/>
	</g>
	<g>
		<polygon fill="#232527" points="649.709,110.724 646.882,115.62 649.709,120.516 655.363,120.516 658.189,115.62 655.363,110.724 
					"/>
	</g>
	<g>
		<polygon fill="#232527" points="662.573,110.724 659.747,115.62 662.573,120.516 668.229,120.516 671.055,115.62 668.229,110.724 
					"/>
	</g>
	<g>
		<polygon fill="#232527" points="676.126,110.724 673.3,115.62 676.126,120.516 681.781,120.516 684.607,115.62 681.781,110.724 		
			"/>
	</g>
	<g>
		<polygon fill="#232527" points="688.99,110.724 686.164,115.62 688.99,120.516 694.646,120.516 697.472,115.62 694.646,110.724 		
			"/>
	</g>
	<g>
		<polygon fill="#232527" points="702.543,110.724 699.717,115.62 702.543,120.516 708.199,120.516 711.025,115.62 708.199,110.724 
					"/>
	</g>
	<g>
		<polygon fill="#232527" points="715.408,110.724 712.582,115.62 715.408,120.516 721.063,120.516 723.89,115.62 721.063,110.724 
					"/>
	</g>
	<g>
		<polygon fill="#232527" points="728.961,110.724 726.135,115.62 728.961,120.516 734.616,120.516 737.442,115.62 734.616,110.724 
					"/>
	</g>
	<g>
		<polygon fill="#232527" points="741.826,110.724 739,115.62 741.826,120.516 747.48,120.516 750.307,115.62 747.48,110.724 		"/>
	</g>
	<g>
		<polygon fill="#232527" points="755.379,110.724 752.553,115.62 755.379,120.516 761.033,120.516 763.859,115.62 761.033,110.724 
					"/>
	</g>
	<g>
		<polygon fill="#232527" points="768.243,110.724 765.417,115.62 768.243,120.516 773.898,120.516 776.725,115.62 773.898,110.724 
					"/>
	</g>
</g>
<g>
	<g>
		<polygon fill="#232527" points="795.412,110.724 792.586,115.62 795.412,120.516 801.067,120.516 803.894,115.62 801.067,110.724 
					"/>
	</g>
	<g>
		<polygon fill="#232527" points="808.277,110.724 805.451,115.62 808.277,120.516 813.932,120.516 816.758,115.62 813.932,110.724 
					"/>
	</g>
	<g>
		<polygon fill="#232527" points="821.83,110.724 819.004,115.62 821.83,120.516 827.484,120.516 830.311,115.62 827.484,110.724 		
			"/>
	</g>
	<g>
		<polygon fill="#232527" points="834.694,110.724 831.868,115.62 834.694,120.516 840.35,120.516 843.176,115.62 840.35,110.724 		
			"/>
	</g>
	<g>
		<polygon fill="#232527" points="848.247,110.724 845.421,115.62 848.247,120.516 853.902,120.516 856.729,115.62 853.902,110.724 
					"/>
	</g>
	<g>
		<polygon fill="#232527" points="861.111,110.724 858.285,115.62 861.111,120.516 866.767,120.516 869.594,115.62 866.767,110.724 
					"/>
	</g>
	<g>
		<polygon fill="#232527" points="874.664,110.724 871.838,115.62 874.664,120.516 880.32,120.516 883.146,115.62 880.32,110.724 		
			"/>
	</g>
	<g>
		<polygon fill="#232527" points="887.529,110.724 884.703,115.62 887.529,120.516 893.184,120.516 896.011,115.62 893.184,110.724 
					"/>
	</g>
	<g>
		<polygon fill="#232527" points="901.082,110.724 898.256,115.62 901.082,120.516 906.737,120.516 909.563,115.62 906.737,110.724 
					"/>
	</g>
	<g>
		<polygon fill="#232527" points="913.947,110.724 911.121,115.62 913.947,120.516 919.602,120.516 922.428,115.62 919.602,110.724 
					"/>
	</g>
	<g>
		<polygon fill="#232527" points="927.5,110.724 924.673,115.62 927.5,120.516 933.154,120.516 935.98,115.62 933.154,110.724 		"/>
	</g>
	<g>
		<polygon fill="#232527" points="940.364,110.724 937.538,115.62 940.364,120.516 946.02,120.516 948.846,115.62 946.02,110.724 		
			"/>
	</g>
	<g>
		<polygon fill="#232527" points="953.917,110.724 951.091,115.62 953.917,120.516 959.572,120.516 962.398,115.62 959.572,110.724 
					"/>
	</g>
	<g>
		<polygon fill="#232527" points="966.781,110.724 963.955,115.62 966.781,120.516 972.437,120.516 975.263,115.62 972.437,110.724 
					"/>
	</g>
</g>
<g>
	<path fill="#D6D7D7" d="M575.444,62.612c0,1.875-1.791,3.396-4,3.396H402.251c-2.209,0-4-1.521-4-3.396v-29.71
		c0-1.875,1.791-3.396,4-3.396h169.193c2.209,0,4,1.521,4,3.396V62.612z"/>
	<path fill="#070404" d="M571.444,66.508H402.251c-2.481,0-4.5-1.747-4.5-3.896v-29.71c0-2.148,2.019-3.896,4.5-3.896h169.193
		c2.481,0,4.5,1.747,4.5,3.896v29.71C575.944,64.761,573.926,66.508,571.444,66.508z M402.251,30.007c-1.93,0-3.5,1.299-3.5,2.896
		v29.71c0,1.597,1.57,2.896,3.5,2.896h169.193c1.93,0,3.5-1.299,3.5-2.896v-29.71c0-1.597-1.57-2.896-3.5-2.896H402.251z"/>
</g>
<g>
	<path fill="#D6D7D7" d="M575.444,72.595c0-1.875-1.791-3.396-4-3.396H402.251c-2.209,0-4,1.521-4,3.396v29.71
		c0,1.875,1.791,3.396,4,3.396h169.193c2.209,0,4-1.521,4-3.396V72.595z"/>
	<path fill="#070404" d="M571.444,106.2H402.251c-2.481,0-4.5-1.747-4.5-3.896v-29.71c0-2.148,2.019-3.896,4.5-3.896h169.193
		c2.481,0,4.5,1.747,4.5,3.896v29.71C575.944,104.453,573.926,106.2,571.444,106.2z M402.251,69.699c-1.93,0-3.5,1.299-3.5,2.896
		v29.71c0,1.597,1.57,2.896,3.5,2.896h169.193c1.93,0,3.5-1.299,3.5-2.896v-29.71c0-1.597-1.57-2.896-3.5-2.896H402.251z"/>
</g>
<g>
	<path fill="#D6D7D7" d="M772.482,62.612c0,1.875-1.791,3.396-4,3.396H599.289c-2.209,0-4-1.521-4-3.396v-29.71
		c0-1.875,1.791-3.396,4-3.396h169.193c2.209,0,4,1.521,4,3.396V62.612z"/>
	<path fill="#070404" d="M768.482,66.508H599.289c-2.481,0-4.5-1.747-4.5-3.896v-29.71c0-2.148,2.019-3.896,4.5-3.896h169.193
		c2.481,0,4.5,1.747,4.5,3.896v29.71C772.982,64.761,770.964,66.508,768.482,66.508z M599.289,30.007c-1.93,0-3.5,1.299-3.5,2.896
		v29.71c0,1.597,1.57,2.896,3.5,2.896h169.193c1.93,0,3.5-1.299,3.5-2.896v-29.71c0-1.597-1.57-2.896-3.5-2.896H599.289z"/>
</g>
<g>
	<path fill="#D6D7D7" d="M772.482,72.595c0-1.875-1.791-3.396-4-3.396H599.289c-2.209,0-4,1.521-4,3.396v29.71
		c0,1.875,1.791,3.396,4,3.396h169.193c2.209,0,4-1.521,4-3.396V72.595z"/>
	<path fill="#070404" d="M768.482,106.2H599.289c-2.481,0-4.5-1.747-4.5-3.896v-29.71c0-2.148,2.019-3.896,4.5-3.896h169.193
		c2.481,0,4.5,1.747,4.5,3.896v29.71C772.982,104.453,770.964,106.2,768.482,106.2z M599.289,69.699c-1.93,0-3.5,1.299-3.5,2.896
		v29.71c0,1.597,1.57,2.896,3.5,2.896h169.193c1.93,0,3.5-1.299,3.5-2.896v-29.71c0-1.597-1.57-2.896-3.5-2.896H599.289z"/>
</g>
<g>
	<polygon fill="#232527" points="1236.584,10.397 1239.41,5.501 1236.584,0.604 1230.931,0.604 1228.103,5.501 1230.931,10.397 	"/>
</g>
<g>
	<polygon fill="#232527" points="1246.965,7.388 1249.793,12.284 1246.965,17.18 1241.312,17.18 1238.485,12.284 1241.312,7.388 	
		"/>
</g>
<g>
	<polygon fill="#232527" points="1236.584,22.776 1239.41,17.88 1236.584,12.984 1230.931,12.984 1228.103,17.88 1230.931,22.776 	
		"/>
</g>
<g>
	<polygon fill="#232527" points="1246.965,19.767 1249.793,24.663 1246.965,29.56 1241.312,29.56 1238.485,24.663 1241.312,19.767 	
		"/>
</g>
<g>
	<polygon fill="#232527" points="1236.584,35.114 1239.41,30.218 1236.584,25.321 1230.931,25.321 1228.103,30.218 1230.931,35.114 
			"/>
</g>
<g>
	<polygon fill="#232527" points="1215.357,10.397 1218.184,5.501 1215.357,0.604 1209.703,0.604 1206.875,5.501 1209.703,10.397 	
		"/>
</g>
<g>
	<polygon fill="#232527" points="1225.738,7.388 1228.565,12.284 1225.738,17.18 1220.084,17.18 1217.258,12.284 1220.084,7.388 	
		"/>
</g>
<g>
	<polygon fill="#232527" points="1215.357,22.776 1218.184,17.88 1215.357,12.984 1209.703,12.984 1206.875,17.88 1209.703,22.776 	
		"/>
</g>
<g>
	<polygon fill="#232527" points="1225.738,19.767 1228.565,24.663 1225.738,29.56 1220.084,29.56 1217.258,24.663 1220.084,19.767 	
		"/>
</g>
<g>
	<polygon fill="#232527" points="1225.738,31.179 1228.565,36.075 1225.738,40.972 1220.084,40.972 1217.258,36.075 
		1220.084,31.179 	"/>
</g>
<g>
	<polygon fill="#232527" points="1225.738,43.993 1228.565,48.89 1225.738,53.785 1220.084,53.785 1217.258,48.89 1220.084,43.993 	
		"/>
</g>
<g>
	<polygon fill="#232527" points="1225.738,56.372 1228.565,61.269 1225.738,66.165 1220.084,66.165 1217.258,61.269 
		1220.084,56.372 	"/>
</g>
<g>
	<polygon fill="#232527" points="1225.738,67.784 1228.565,72.681 1225.738,77.577 1220.084,77.577 1217.258,72.681 
		1220.084,67.784 	"/>
</g>
<g>
	<polygon fill="#232527" points="1225.738,80.605 1228.565,85.502 1225.738,90.397 1220.084,90.397 1217.258,85.502 
		1220.084,80.605 	"/>
</g>
<g>
	<polygon fill="#232527" points="1225.738,92.984 1228.565,97.881 1225.738,102.777 1220.084,102.777 1217.258,97.881 
		1220.084,92.984 	"/>
</g>
<g>
	<polygon fill="#232527" points="1225.738,104.396 1228.565,109.293 1225.738,114.189 1220.084,114.189 1217.258,109.293 
		1220.084,104.396 	"/>
</g>
<g>
	<polygon fill="#232527" points="1215.357,35.114 1218.184,30.218 1215.357,25.321 1209.703,25.321 1206.875,30.218 
		1209.703,35.114 	"/>
</g>
<g>
	<polygon fill="#232527" points="1193.667,10.397 1196.493,5.501 1193.667,0.604 1188.014,0.604 1185.186,5.501 1188.014,10.397 	
		"/>
</g>
<g>
	<polygon fill="#232527" points="1193.667,22.777 1196.493,17.881 1193.667,12.984 1188.014,12.984 1185.186,17.881 
		1188.014,22.777 	"/>
</g>
<g>
	<polygon fill="#232527" points="1204.048,7.388 1206.875,12.284 1204.048,17.18 1198.395,17.18 1195.568,12.284 1198.395,7.388 	
		"/>
</g>
<g>
	<polygon fill="#232527" points="1204.048,18.847 1206.875,23.743 1204.048,28.639 1198.395,28.639 1195.568,23.743 
		1198.395,18.847 	"/>
</g>
<g>
	<polygon fill="#232527" points="1215.357,96.597 1218.184,91.7 1215.357,86.804 1209.703,86.804 1206.875,91.7 1209.703,96.597 	
		"/>
</g>
<g>
	<polygon fill="#232527" points="1215.357,108.976 1218.184,104.079 1215.357,99.184 1209.703,99.184 1206.875,104.079 
		1209.703,108.976 	"/>
</g>
<g>
	<polygon fill="#232527" points="1215.357,121.313 1218.184,116.417 1215.357,111.521 1209.703,111.521 1206.875,116.417 
		1209.703,121.313 	"/>
</g>
<g>
	<polygon fill="#232527" points="1204.048,93.587 1206.875,98.483 1204.048,103.379 1198.395,103.379 1195.568,98.483 
		1198.395,93.587 	"/>
</g>
<g>
	<polygon fill="#232527" points="1204.048,105.046 1206.875,109.942 1204.048,114.838 1198.395,114.838 1195.568,109.942 
		1198.395,105.046 	"/>
</g>
<g>
	<polygon fill="#232527" points="1193.667,108.976 1196.493,104.079 1193.667,99.184 1188.014,99.184 1185.186,104.079 
		1188.014,108.976 	"/>
</g>
<g>
	<polygon fill="#232527" points="1193.667,35.114 1196.493,30.218 1193.667,25.321 1188.014,25.321 1185.186,30.218 
		1188.014,35.114 	"/>
</g>
<g>
	<polygon fill="#232527" points="1246.965,32.104 1249.793,37.001 1246.965,41.896 1241.312,41.896 1238.485,37.001 
		1241.312,32.104 	"/>
</g>
<g>
	<polygon fill="#232527" points="1236.584,47.493 1239.41,42.597 1236.584,37.701 1230.931,37.701 1228.103,42.597 1230.931,47.493 
			"/>
</g>
<g>
	<polygon fill="#232527" points="1246.965,44.483 1249.793,49.38 1246.965,54.276 1241.312,54.276 1238.485,49.38 1241.312,44.483 	
		"/>
</g>
<g>
	<polygon fill="#232527" points="1236.584,60.302 1239.41,55.405 1236.584,50.509 1230.931,50.509 1228.103,55.405 1230.931,60.302 
			"/>
</g>
<g>
	<polygon fill="#232527" points="1246.965,57.292 1249.793,62.188 1246.965,67.084 1241.312,67.084 1238.485,62.188 
		1241.312,57.292 	"/>
</g>
<g>
	<polygon fill="#232527" points="1236.584,72.681 1239.41,67.784 1236.584,62.889 1230.931,62.889 1228.103,67.784 1230.931,72.681 
			"/>
</g>
<g>
	<polygon fill="#232527" points="1246.965,69.671 1249.793,74.567 1246.965,79.464 1241.312,79.464 1238.485,74.567 
		1241.312,69.671 	"/>
</g>
<g>
	<polygon fill="#232527" points="1236.584,85.019 1239.41,80.122 1236.584,75.226 1230.931,75.226 1228.103,80.122 1230.931,85.019 
			"/>
</g>
<g>
	<polygon fill="#232527" points="1246.965,82.009 1249.793,86.905 1246.965,91.801 1241.312,91.801 1238.485,86.905 
		1241.312,82.009 	"/>
</g>
<g>
	<polygon fill="#232527" points="1236.584,97.397 1239.41,92.501 1236.584,87.605 1230.931,87.605 1228.103,92.501 1230.931,97.397 
			"/>
</g>
<g>
	<polygon fill="#232527" points="1246.965,94.388 1249.793,99.284 1246.965,104.181 1241.312,104.181 1238.485,99.284 
		1241.312,94.388 	"/>
</g>
<g>
	<polygon fill="#232527" points="1236.584,109.564 1239.41,104.668 1236.584,99.772 1230.931,99.772 1228.103,104.668 
		1230.931,109.564 	"/>
</g>
<g>
	<polygon fill="#232527" points="1246.965,106.555 1249.793,111.451 1246.965,116.348 1241.312,116.348 1238.485,111.451 
		1241.312,106.555 	"/>
</g>
<g>
	<polygon fill="#232527" points="1257.648,10.647 1260.475,5.751 1257.648,0.854 1251.996,0.854 1249.168,5.751 1251.996,10.647 	
		"/>
</g>
<g>
	<polygon fill="#232527" points="1268.029,7.638 1270.857,12.534 1268.029,17.43 1262.377,17.43 1259.551,12.534 1262.377,7.638 	
		"/>
</g>
<g>
	<polygon fill="#232527" points="1257.648,23.026 1260.475,18.13 1257.648,13.234 1251.996,13.234 1249.168,18.13 1251.996,23.026 	
		"/>
</g>
<g>
	<polygon fill="#232527" points="1268.029,20.017 1270.857,24.913 1268.029,29.81 1262.377,29.81 1259.551,24.913 1262.377,20.017 	
		"/>
</g>
<g>
	<polygon fill="#232527" points="1257.648,35.364 1260.475,30.468 1257.648,25.571 1251.996,25.571 1249.168,30.468 
		1251.996,35.364 	"/>
</g>
<g>
	<polygon fill="#232527" points="1268.029,32.354 1270.857,37.251 1268.029,42.146 1262.377,42.146 1259.551,37.251 
		1262.377,32.354 	"/>
</g>
<g>
	<polygon fill="#232527" points="1257.648,47.743 1260.475,42.847 1257.648,37.951 1251.996,37.951 1249.168,42.847 
		1251.996,47.743 	"/>
</g>
<g>
	<polygon fill="#232527" points="1268.029,44.733 1270.857,49.63 1268.029,54.526 1262.377,54.526 1259.551,49.63 1262.377,44.733 	
		"/>
</g>
<g>
	<polygon fill="#232527" points="1257.648,60.552 1260.475,55.655 1257.648,50.759 1251.996,50.759 1249.168,55.655 
		1251.996,60.552 	"/>
</g>
<g>
	<polygon fill="#232527" points="1268.029,57.542 1270.857,62.438 1268.029,67.334 1262.377,67.334 1259.551,62.438 
		1262.377,57.542 	"/>
</g>
<g>
	<polygon fill="#232527" points="1257.648,72.931 1260.475,68.034 1257.648,63.139 1251.996,63.139 1249.168,68.034 
		1251.996,72.931 	"/>
</g>
<g>
	<polygon fill="#232527" points="1268.029,69.921 1270.857,74.817 1268.029,79.714 1262.377,79.714 1259.551,74.817 
		1262.377,69.921 	"/>
</g>
<g>
	<polygon fill="#232527" points="1257.648,85.269 1260.475,80.372 1257.648,75.476 1251.996,75.476 1249.168,80.372 
		1251.996,85.269 	"/>
</g>
<g>
	<polygon fill="#232527" points="1268.029,82.259 1270.857,87.155 1268.029,92.051 1262.377,92.051 1259.551,87.155 
		1262.377,82.259 	"/>
</g>
<g>
	<polygon fill="#232527" points="1257.648,97.647 1260.475,92.751 1257.648,87.855 1251.996,87.855 1249.168,92.751 
		1251.996,97.647 	"/>
</g>
<g>
	<polygon fill="#232527" points="1268.029,94.638 1270.857,99.534 1268.029,104.431 1262.377,104.431 1259.551,99.534 
		1262.377,94.638 	"/>
</g>
<g>
	<polygon fill="#232527" points="1257.648,109.814 1260.475,104.918 1257.648,100.022 1251.996,100.022 1249.168,104.918 
		1251.996,109.814 	"/>
</g>
<g>
	<polygon fill="#232527" points="1268.029,106.805 1270.857,111.701 1268.029,116.598 1262.377,116.598 1259.551,111.701 
		1262.377,106.805 	"/>
</g>
<g>
	<path fill="#FBFCFE" d="M377.509,35.936l-1.97-1.178v0.877h-8.813h-0.784h-0.708l2-2.002c0.181-0.182,0.432-0.285,0.687-0.285
		h1.768c0.16,0.365,0.526,0.621,0.951,0.621c0.573,0,1.038-0.463,1.038-1.039c0-0.572-0.465-1.037-1.038-1.037
		c-0.509,0-0.932,0.365-1.021,0.848h-1.698c-0.415,0-0.82,0.17-1.115,0.465l-2.151,2.15c-0.178,0.18-0.418,0.279-0.671,0.279h-0.264
		h-0.699c-0.142-0.783-0.828-1.377-1.649-1.377c-0.929,0-1.681,0.75-1.681,1.678c0,0.93,0.752,1.68,1.681,1.68
		c0.822,0,1.508-0.594,1.649-1.375h0.699h0.264h1.958h0.784c0.253,0,0.489,0.098,0.667,0.275l2.061,2.061
		c0.298,0.297,0.692,0.461,1.111,0.461h1.489v0.789h1.969v-1.971h-1.969v0.574h-1.489c-0.258,0-0.499-0.1-0.683-0.283l-1.907-1.906
		h7.564v0.875L377.509,35.936z"/>
</g>
<g>
	<path fill="#D6D7D7" d="M969.521,62.612c0,1.875-1.791,3.396-4,3.396H796.327c-2.209,0-4-1.521-4-3.396v-29.71
		c0-1.875,1.791-3.396,4-3.396h169.193c2.209,0,4,1.521,4,3.396V62.612z"/>
	<path fill="#070404" d="M965.521,66.508H796.327c-2.481,0-4.5-1.747-4.5-3.896v-29.71c0-2.148,2.019-3.896,4.5-3.896h169.193
		c2.481,0,4.5,1.747,4.5,3.896v29.71C970.021,64.761,968.002,66.508,965.521,66.508z M796.327,30.007c-1.93,0-3.5,1.299-3.5,2.896
		v29.71c0,1.597,1.57,2.896,3.5,2.896h169.193c1.93,0,3.5-1.299,3.5-2.896v-29.71c0-1.597-1.57-2.896-3.5-2.896H796.327z"/>
</g>
<g>
	<path fill="#D6D7D7" d="M969.521,72.595c0-1.875-1.791-3.396-4-3.396H796.327c-2.209,0-4,1.521-4,3.396v29.71
		c0,1.875,1.791,3.396,4,3.396h169.193c2.209,0,4-1.521,4-3.396V72.595z"/>
	<path fill="#070404" d="M965.521,106.2H796.327c-2.481,0-4.5-1.747-4.5-3.896v-29.71c0-2.148,2.019-3.896,4.5-3.896h169.193
		c2.481,0,4.5,1.747,4.5,3.896v29.71C970.021,104.453,968.002,106.2,965.521,106.2z M796.327,69.699c-1.93,0-3.5,1.299-3.5,2.896
		v29.71c0,1.597,1.57,2.896,3.5,2.896h169.193c1.93,0,3.5-1.299,3.5-2.896v-29.71c0-1.597-1.57-2.896-3.5-2.896H796.327z"/>
</g>
<g>
	<path fill="#3E3A39" d="M1211.758,44.754l-19.311-19.31h-8.082l0,0h-85.906h-8.083l-19.31,19.31c0,0-12.125,13.322,0,28.891
		l19.534,20.208h7.858h85.906l0,0h7.857l19.535-20.208C1223.881,58.076,1211.758,44.754,1211.758,44.754z"/>
	<path fill="#070607" d="M1192.436,94.353h-102.047l-19.682-20.36c-12.277-15.759-0.135-29.438-0.011-29.575l19.473-19.473h102.485
		l19.457,19.456c0.14,0.153,12.281,13.833,0.041,29.552L1192.436,94.353z M1090.813,93.353h101.199l19.387-20.056
		c11.68-15.004,0.472-27.675-0.012-28.207l-19.146-19.146h-101.657l-19.163,19.163c-0.467,0.515-11.676,13.186,0.041,28.229
		L1090.813,93.353z"/>
</g>
<g>
	<circle fill="#040000" cx="1081.562" cy="59.648" r="5.769"/>
</g>
<g>
	<circle fill="#040000" cx="1202.562" cy="59.648" r="5.769"/>
</g>
</svg>
