<?xml version="1.0" encoding="utf-8"?>
<!-- Generator: Adobe Illustrator 16.0.0, SVG Export Plug-In . SVG Version: 6.00 Build 0)  -->
<!DOCTYPE svg PUBLIC "-//W3C//DTD SVG 1.1//EN" "http://www.w3.org/Graphics/SVG/1.1/DTD/svg11.dtd">
<svg version="1.1" id="图层_1" xmlns="http://www.w3.org/2000/svg" xmlns:xlink="http://www.w3.org/1999/xlink" x="0px" y="0px"
	 width="1275.6px" height="252px" viewBox="0 0 1275.6 252" enable-background="new 0 0 1275.6 252" xml:space="preserve">
<rect x="0.318" y="0.452" fill="#3D3D3F" width="1275.59" height="252"/>
<path fill="#232426" d="M1224.938,251.086h50.971V103.211h-50.971V251.086z M1264.217,145.764c0,5.314-4.346,9.662-9.66,9.662
	h-8.268c-5.314,0-9.662-4.348-9.662-9.662v-0.623c0-5.313,4.348-9.66,9.662-9.66h8.268c5.314,0,9.66,4.348,9.66,9.66V145.764z"/>
<path fill="#313133" d="M1229.408,162.135v36.951h42.029v-37.443c-5.293,3.898-12.904,6.342-21.361,6.342
	C1241.979,167.984,1234.662,165.744,1229.408,162.135"/>
<path fill="#2B2B2D" d="M1229.408,173.373v36.951h42.029v-37.441c-5.293,3.896-12.904,6.34-21.361,6.34
	C1241.979,179.223,1234.662,176.982,1229.408,173.373"/>
<path fill="#97A5C4" d="M1229.408,156.986v5.148c5.254,3.607,12.57,5.85,20.668,5.85c8.457,0,16.068-2.445,21.361-6.34v-5.15
	c-5.293,3.896-12.904,6.342-21.361,6.342C1241.979,162.836,1234.662,160.596,1229.408,156.986"/>
<path fill="#4A494B" d="M1228.705,175.752h-3.768v75.334h50.971v-75.334h-3.217c-6.053,3.967-13.686,6.34-21.992,6.34
	C1242.391,182.092,1234.758,179.719,1228.705,175.752"/>
<g>
	<rect x="1211.922" y="8.001" fill-rule="evenodd" clip-rule="evenodd" fill="#1C1D20" width="64.607" height="67.614"/>
	<rect x="1213.758" y="8.001" fill-rule="evenodd" clip-rule="evenodd" fill="#4A494B" width="61.854" height="65.776"/>
	<path fill-rule="evenodd" clip-rule="evenodd" fill="#FFFFFF" d="M1236.793,48.71h4.186h4.744
		c-0.086,0.499-0.234,0.987-0.447,1.442h-15.77V48.71H1236.793z M1240.688,47.285l-0.293-1.443h5.133
		c0.146,0.467,0.238,0.953,0.27,1.443H1240.688z M1236.793,47.285h-4.363v-1.443h4.363V47.285z M1232.432,44.398v-1.443h10.922
		c0.605,0.379,1.1,0.875,1.482,1.443H1232.432z M1232.432,41.53v-1.442h4.361h3.602h4.539c-0.391,0.576-0.906,1.073-1.549,1.442
		H1232.432z M1232.432,37.2h4.363v1.443h-4.363V37.2z M1229.506,35.775v-1.443h15.729c0.23,0.457,0.396,0.943,0.498,1.443H1229.506z
		 M1245.848,37.2c-0.018,0.491-0.096,0.978-0.234,1.444h-4.928l0.293-1.444H1245.848z M1254.604,44.398h-4.238v-1.443h4.238V44.398z
		 M1250.365,41.53v-1.442h8.445l0.553,1.442H1250.365z M1250.365,38.645V37.2h7.338l0.553,1.444H1250.365z M1247.391,35.775v-1.443
		h9.213l0.553,1.443H1247.391z M1259.373,41.53l0.566-1.442h8.205v1.442H1259.373z M1260.504,38.645l0.563-1.444h7.078v1.444
		H1260.504z M1261.623,35.775l0.564-1.443h9.033v1.443H1261.623z M1268.145,44.398h-4.061v-1.443h4.061V44.398z M1262.852,42.955
		l-0.5,1.443h-6.164l-0.523-1.443H1262.852z M1254.604,47.285h-4.238v-1.443h4.238V47.285z M1268.145,47.285h-4.061v-1.443h4.061
		V47.285z M1261.854,45.842l-0.5,1.443h-4.117l-0.523-1.443H1261.854z M1254.604,50.152h-7.213V48.71h7.213V50.152z
		 M1271.221,50.152h-7.137V48.71h7.137V50.152z M1260.861,48.71l-0.5,1.442h-2.084l-0.523-1.442H1260.861z M1254.604,53.095h-7.213
		v-1.499h7.213V53.095z M1271.221,53.095h-7.137v-1.499h7.137V53.095z M1259.861,51.596l-0.52,1.499l-0.543-1.499H1259.861z
		 M1247.391,32.891v-1.408h8.119l0.539,1.408H1247.391z M1262.752,32.891l0.551-1.408h7.918v1.408H1262.752z M1229.506,31.482v1.408
		h14.652c-0.912-0.855-2.191-1.408-3.834-1.408H1229.506z M1229.506,51.596v1.499h10.818c1.729-0.007,3.039-0.597,3.943-1.499
		H1229.506z M1217.412,31.482h10.037v1.408h-10.037V31.482z M1227.449,35.775h-10.037v-1.442h10.037V35.775z M1224.523,38.645
		h-4.262v-1.443h4.262V38.645z M1224.523,41.53h-4.262v-1.442h4.262V41.53z M1224.523,44.398h-4.262v-1.443h4.262V44.398z
		 M1224.523,47.285h-4.262v-1.443h4.262V47.285z M1227.449,50.152h-10.037V48.71h10.037V50.152z M1227.449,53.095h-10.037v-1.499
		h10.037V53.095z"/>
</g>
<rect x="10.168" y="21.301" fill-rule="evenodd" clip-rule="evenodd" fill="#4A494B" width="41.743" height="44.392"/>
<path fill="#232426" d="M0.94,252.628h50.97V104.753H0.94V252.628z M40.221,147.306c0,5.314-4.347,9.662-9.661,9.662h-8.268
	c-5.314,0-9.662-4.348-9.662-9.662v-0.623c0-5.313,4.348-9.66,9.662-9.66h8.268c5.314,0,9.661,4.348,9.661,9.66V147.306z"/>
<path fill="#313133" d="M5.412,163.677v36.951h42.028v-37.443c-5.293,3.898-12.903,6.342-21.361,6.342
	C17.981,169.526,10.666,167.286,5.412,163.677"/>
<path fill="#2B2B2D" d="M5.412,174.915v36.951h42.028v-37.441c-5.293,3.896-12.903,6.34-21.361,6.34
	C17.981,180.765,10.666,178.524,5.412,174.915"/>
<path fill="#97A5C4" d="M5.412,158.528v5.148c5.254,3.607,12.57,5.85,20.667,5.85c8.458,0,16.068-2.445,21.361-6.34v-5.15
	c-5.293,3.896-12.903,6.342-21.361,6.342C17.981,164.378,10.666,162.138,5.412,158.528"/>
<path fill="#4A494B" d="M4.708,177.294H0.941v75.334h50.969v-75.334h-3.215c-6.052,3.967-13.688,6.34-21.994,6.34
	C18.395,183.634,10.76,181.261,4.708,177.294"/>
<path fill="#FBFBFD" d="M1037.303,122.562l-1.971-1.178v0.877h-8.813h-0.785h-0.707l2-2.002c0.182-0.182,0.432-0.285,0.688-0.285
	h1.768c0.16,0.365,0.525,0.621,0.951,0.621c0.572,0,1.037-0.463,1.037-1.039c0-0.572-0.465-1.037-1.037-1.037
	c-0.51,0-0.932,0.365-1.021,0.848h-1.697c-0.416,0-0.82,0.17-1.115,0.465l-2.15,2.15c-0.18,0.18-0.42,0.279-0.672,0.279h-0.264
	h-0.699c-0.143-0.783-0.828-1.377-1.65-1.377c-0.928,0-1.68,0.75-1.68,1.678c0,0.93,0.752,1.68,1.68,1.68
	c0.822,0,1.508-0.594,1.65-1.375h0.699h0.264h1.957h0.785c0.252,0,0.488,0.098,0.666,0.275l2.061,2.061
	c0.299,0.297,0.693,0.461,1.111,0.461h1.49v0.789h1.969v-1.971h-1.969v0.574h-1.49c-0.258,0-0.498-0.1-0.682-0.283l-1.908-1.906
	h7.564v0.875L1037.303,122.562z"/>
<polygon fill="#232527" points="889.266,24.838 886.051,19.268 889.266,13.697 895.697,13.697 898.912,19.268 895.697,24.838 "/>
<polygon fill="#232527" points="877.453,21.414 874.24,26.984 877.453,32.555 883.887,32.555 887.104,26.984 883.887,21.414 "/>
<polygon fill="#232527" points="912.855,24.838 909.639,19.268 912.855,13.697 919.287,13.697 922.504,19.268 919.287,24.838 "/>
<polygon fill="#232527" points="936.479,24.838 933.262,19.268 936.479,13.697 942.91,13.697 946.127,19.268 942.91,24.838 "/>
<polygon fill="#232527" points="960.102,24.838 956.885,19.268 960.102,13.697 966.533,13.697 969.748,19.268 966.533,24.838 "/>
<polygon fill="#232527" points="983.723,24.838 980.508,19.268 983.723,13.697 990.154,13.697 993.369,19.268 990.154,24.838 "/>
<polygon fill="#232527" points="1007.346,24.838 1004.129,19.268 1007.346,13.697 1013.777,13.697 1016.992,19.268 1013.777,24.838 
	"/>
<polygon fill="#232527" points="1030.967,24.838 1027.752,19.268 1030.967,13.697 1037.398,13.697 1040.615,19.268 1037.398,24.838 
	"/>
<polygon fill="#232527" points="1054.59,24.838 1051.373,19.268 1054.59,13.697 1061.021,13.697 1064.238,19.268 1061.021,24.838 
	"/>
<polygon fill="#232527" points="1078.211,24.838 1074.994,19.268 1078.211,13.697 1084.643,13.697 1087.859,19.268 1084.643,24.838 
	"/>
<polygon fill="#232527" points="1101.834,24.838 1098.617,19.268 1101.834,13.697 1108.266,13.697 1111.48,19.268 1108.266,24.838 
	"/>
<polygon fill="#232527" points="1125.455,24.838 1122.24,19.268 1125.455,13.697 1131.889,13.697 1135.104,19.268 1131.889,24.838 
	"/>
<polygon fill="#232527" points="1149.078,24.838 1145.861,19.268 1149.078,13.697 1155.51,13.697 1158.727,19.268 1155.51,24.838 
	"/>
<polygon fill="#232527" points="1172.699,24.838 1169.482,19.268 1172.699,13.697 1179.133,13.697 1182.348,19.268 1179.133,24.838 
	"/>
<polygon fill="#232527" points="901.045,21.414 897.828,26.984 901.045,32.555 907.477,32.555 910.693,26.984 907.477,21.414 "/>
<polygon fill="#232527" points="924.668,21.414 921.451,26.984 924.668,32.555 931.1,32.555 934.316,26.984 931.1,21.414 "/>
<polygon fill="#232527" points="948.289,21.414 945.074,26.984 948.289,32.555 954.723,32.555 957.938,26.984 954.723,21.414 "/>
<polygon fill="#232527" points="971.912,21.414 968.695,26.984 971.912,32.555 978.344,32.555 981.559,26.984 978.344,21.414 "/>
<polygon fill="#232527" points="995.533,21.414 992.316,26.984 995.533,32.555 1001.967,32.555 1005.182,26.984 1001.967,21.414 "/>
<polygon fill="#232527" points="1019.156,21.414 1015.939,26.984 1019.156,32.555 1025.588,32.555 1028.805,26.984 1025.588,21.414 
	"/>
<polygon fill="#232527" points="1042.779,21.414 1039.561,26.984 1042.779,32.555 1049.211,32.555 1052.426,26.984 1049.211,21.414 
	"/>
<polygon fill="#232527" points="1066.4,21.414 1063.184,26.984 1066.4,32.555 1072.832,32.555 1076.049,26.984 1072.832,21.414 "/>
<polygon fill="#232527" points="1090.023,21.414 1086.807,26.984 1090.023,32.555 1096.453,32.555 1099.67,26.984 1096.453,21.414 
	"/>
<polygon fill="#232527" points="1113.645,21.414 1110.43,26.984 1113.645,32.555 1120.076,32.555 1123.293,26.984 1120.076,21.414 
	"/>
<polygon fill="#232527" points="1137.268,21.414 1134.051,26.984 1137.268,32.555 1143.699,32.555 1146.914,26.984 1143.699,21.414 
	"/>
<polygon fill="#232527" points="1160.889,21.414 1157.674,26.984 1160.889,32.555 1167.32,32.555 1170.537,26.984 1167.32,21.414 
	"/>
<polygon fill="#232527" points="889.266,38.922 886.051,33.352 889.266,27.781 895.697,27.781 898.912,33.352 895.697,38.922 "/>
<polygon fill="#232527" points="877.453,35.498 874.24,41.068 877.453,46.639 883.887,46.639 887.104,41.068 883.887,35.498 "/>
<polygon fill="#232527" points="912.855,38.922 909.639,33.352 912.855,27.781 919.287,27.781 922.504,33.352 919.287,38.922 "/>
<polygon fill="#232527" points="936.479,38.922 933.262,33.352 936.479,27.781 942.91,27.781 946.127,33.352 942.91,38.922 "/>
<polygon fill="#232527" points="960.102,38.922 956.885,33.352 960.102,27.781 966.533,27.781 969.748,33.352 966.533,38.922 "/>
<polygon fill="#232527" points="983.723,38.922 980.508,33.352 983.723,27.781 990.154,27.781 993.369,33.352 990.154,38.922 "/>
<polygon fill="#232527" points="1007.346,38.922 1004.129,33.352 1007.346,27.781 1013.777,27.781 1016.992,33.352 1013.777,38.922 
	"/>
<polygon fill="#232527" points="1030.967,38.922 1027.752,33.352 1030.967,27.781 1037.398,27.781 1040.615,33.352 1037.398,38.922 
	"/>
<polygon fill="#232527" points="1054.59,38.922 1051.373,33.352 1054.59,27.781 1061.021,27.781 1064.238,33.352 1061.021,38.922 
	"/>
<polygon fill="#232527" points="1078.211,38.922 1074.994,33.352 1078.211,27.781 1084.643,27.781 1087.859,33.352 1084.643,38.922 
	"/>
<polygon fill="#232527" points="1101.834,38.922 1098.617,33.352 1101.834,27.781 1108.266,27.781 1111.48,33.352 1108.266,38.922 
	"/>
<polygon fill="#232527" points="1125.455,38.922 1122.24,33.352 1125.455,27.781 1131.889,27.781 1135.104,33.352 1131.889,38.922 
	"/>
<polygon fill="#232527" points="1149.078,38.922 1145.861,33.352 1149.078,27.781 1155.51,27.781 1158.727,33.352 1155.51,38.922 
	"/>
<polygon fill="#232527" points="1172.699,38.922 1169.482,33.352 1172.699,27.781 1179.133,27.781 1182.348,33.352 1179.133,38.922 
	"/>
<polygon fill="#232527" points="901.045,35.498 897.828,41.068 901.045,46.639 907.477,46.639 910.693,41.068 907.477,35.498 "/>
<polygon fill="#232527" points="924.668,35.498 921.451,41.068 924.668,46.639 931.1,46.639 934.316,41.068 931.1,35.498 "/>
<polygon fill="#232527" points="948.289,35.498 945.074,41.068 948.289,46.639 954.723,46.639 957.938,41.068 954.723,35.498 "/>
<polygon fill="#232527" points="971.912,35.498 968.695,41.068 971.912,46.639 978.344,46.639 981.559,41.068 978.344,35.498 "/>
<polygon fill="#232527" points="995.533,35.498 992.316,41.068 995.533,46.639 1001.967,46.639 1005.182,41.068 1001.967,35.498 "/>
<polygon fill="#232527" points="1019.156,35.498 1015.939,41.068 1019.156,46.639 1025.588,46.639 1028.805,41.068 1025.588,35.498 
	"/>
<polygon fill="#232527" points="1042.779,35.498 1039.561,41.068 1042.779,46.639 1049.211,46.639 1052.426,41.068 1049.211,35.498 
	"/>
<polygon fill="#232527" points="1066.4,35.498 1063.184,41.068 1066.4,46.639 1072.832,46.639 1076.049,41.068 1072.832,35.498 "/>
<polygon fill="#232527" points="1090.023,35.498 1086.807,41.068 1090.023,46.639 1096.453,46.639 1099.67,41.068 1096.453,35.498 
	"/>
<polygon fill="#232527" points="1113.645,35.498 1110.43,41.068 1113.645,46.639 1120.076,46.639 1123.293,41.068 1120.076,35.498 
	"/>
<polygon fill="#232527" points="1137.268,35.498 1134.051,41.068 1137.268,46.639 1143.699,46.639 1146.914,41.068 1143.699,35.498 
	"/>
<polygon fill="#232527" points="1160.889,35.498 1157.674,41.068 1160.889,46.639 1167.32,46.639 1170.537,41.068 1167.32,35.498 
	"/>
<polygon fill="#232527" points="889.266,52.209 886.051,46.639 889.266,41.068 895.697,41.068 898.912,46.639 895.697,52.209 "/>
<polygon fill="#232527" points="877.453,48.785 874.24,54.355 877.453,59.926 883.887,59.926 887.104,54.355 883.887,48.785 "/>
<polygon fill="#232527" points="912.855,52.209 909.639,46.639 912.855,41.068 919.287,41.068 922.504,46.639 919.287,52.209 "/>
<polygon fill="#232527" points="936.479,52.209 933.262,46.639 936.479,41.068 942.91,41.068 946.127,46.639 942.91,52.209 "/>
<polygon fill="#232527" points="960.102,52.209 956.885,46.639 960.102,41.068 966.533,41.068 969.748,46.639 966.533,52.209 "/>
<polygon fill="#232527" points="983.723,52.209 980.508,46.639 983.723,41.068 990.154,41.068 993.369,46.639 990.154,52.209 "/>
<polygon fill="#232527" points="1007.346,52.209 1004.129,46.639 1007.346,41.068 1013.777,41.068 1016.992,46.639 1013.777,52.209 
	"/>
<polygon fill="#232527" points="1030.967,52.209 1027.752,46.639 1030.967,41.068 1037.398,41.068 1040.615,46.639 1037.398,52.209 
	"/>
<polygon fill="#232527" points="1054.59,52.209 1051.373,46.639 1054.59,41.068 1061.021,41.068 1064.238,46.639 1061.021,52.209 
	"/>
<polygon fill="#232527" points="1078.211,52.209 1074.994,46.639 1078.211,41.068 1084.643,41.068 1087.859,46.639 1084.643,52.209 
	"/>
<polygon fill="#232527" points="1101.834,52.209 1098.617,46.639 1101.834,41.068 1108.266,41.068 1111.48,46.639 1108.266,52.209 
	"/>
<polygon fill="#232527" points="1125.455,52.209 1122.24,46.639 1125.455,41.068 1131.889,41.068 1135.104,46.639 1131.889,52.209 
	"/>
<polygon fill="#232527" points="1149.078,52.209 1145.861,46.639 1149.078,41.068 1155.51,41.068 1158.727,46.639 1155.51,52.209 
	"/>
<polygon fill="#232527" points="1172.699,52.209 1169.482,46.639 1172.699,41.068 1179.133,41.068 1182.348,46.639 1179.133,52.209 
	"/>
<polygon fill="#232527" points="901.045,48.785 897.828,54.355 901.045,59.926 907.477,59.926 910.693,54.355 907.477,48.785 "/>
<polygon fill="#232527" points="924.668,48.785 921.451,54.355 924.668,59.926 931.1,59.926 934.316,54.355 931.1,48.785 "/>
<polygon fill="#232527" points="948.289,48.785 945.074,54.355 948.289,59.926 954.723,59.926 957.938,54.355 954.723,48.785 "/>
<polygon fill="#232527" points="971.912,48.785 968.695,54.355 971.912,59.926 978.344,59.926 981.559,54.355 978.344,48.785 "/>
<polygon fill="#232527" points="995.533,48.785 992.316,54.355 995.533,59.926 1001.967,59.926 1005.182,54.355 1001.967,48.785 "/>
<polygon fill="#232527" points="1019.156,48.785 1015.939,54.355 1019.156,59.926 1025.588,59.926 1028.805,54.355 1025.588,48.785 
	"/>
<polygon fill="#232527" points="1042.779,48.785 1039.561,54.355 1042.779,59.926 1049.211,59.926 1052.426,54.355 1049.211,48.785 
	"/>
<polygon fill="#232527" points="1066.4,48.785 1063.184,54.355 1066.4,59.926 1072.832,59.926 1076.049,54.355 1072.832,48.785 "/>
<polygon fill="#232527" points="1090.023,48.785 1086.807,54.355 1090.023,59.926 1096.453,59.926 1099.67,54.355 1096.453,48.785 
	"/>
<polygon fill="#232527" points="1113.645,48.785 1110.43,54.355 1113.645,59.926 1120.076,59.926 1123.293,54.355 1120.076,48.785 
	"/>
<polygon fill="#232527" points="1137.268,48.785 1134.051,54.355 1137.268,59.926 1143.699,59.926 1146.914,54.355 1143.699,48.785 
	"/>
<polygon fill="#232527" points="1160.889,48.785 1157.674,54.355 1160.889,59.926 1167.32,59.926 1170.537,54.355 1167.32,48.785 
	"/>
<polygon fill="#232527" points="889.266,66.293 886.051,60.723 889.266,55.152 895.697,55.152 898.912,60.723 895.697,66.293 "/>
<polygon fill="#232527" points="877.453,62.869 874.24,68.439 877.453,74.01 883.887,74.01 887.104,68.439 883.887,62.869 "/>
<polygon fill="#232527" points="912.855,66.293 909.639,60.723 912.855,55.152 919.287,55.152 922.504,60.723 919.287,66.293 "/>
<polygon fill="#232527" points="936.479,66.293 933.262,60.723 936.479,55.152 942.91,55.152 946.127,60.723 942.91,66.293 "/>
<polygon fill="#232527" points="960.102,66.293 956.885,60.723 960.102,55.152 966.533,55.152 969.748,60.723 966.533,66.293 "/>
<polygon fill="#232527" points="983.723,66.293 980.508,60.723 983.723,55.152 990.154,55.152 993.369,60.723 990.154,66.293 "/>
<polygon fill="#232527" points="1007.346,66.293 1004.129,60.723 1007.346,55.152 1013.777,55.152 1016.992,60.723 1013.777,66.293 
	"/>
<polygon fill="#232527" points="1030.967,66.293 1027.752,60.723 1030.967,55.152 1037.398,55.152 1040.615,60.723 1037.398,66.293 
	"/>
<polygon fill="#232527" points="1054.59,66.293 1051.373,60.723 1054.59,55.152 1061.021,55.152 1064.238,60.723 1061.021,66.293 
	"/>
<polygon fill="#232527" points="1078.211,66.293 1074.994,60.723 1078.211,55.152 1084.643,55.152 1087.859,60.723 1084.643,66.293 
	"/>
<polygon fill="#232527" points="1101.834,66.293 1098.617,60.723 1101.834,55.152 1108.266,55.152 1111.48,60.723 1108.266,66.293 
	"/>
<polygon fill="#232527" points="1125.455,66.293 1122.24,60.723 1125.455,55.152 1131.889,55.152 1135.104,60.723 1131.889,66.293 
	"/>
<polygon fill="#232527" points="1149.078,66.293 1145.861,60.723 1149.078,55.152 1155.51,55.152 1158.727,60.723 1155.51,66.293 
	"/>
<polygon fill="#232527" points="1172.699,66.293 1169.482,60.723 1172.699,55.152 1179.133,55.152 1182.348,60.723 1179.133,66.293 
	"/>
<polygon fill="#232527" points="901.045,62.869 897.828,68.439 901.045,74.01 907.477,74.01 910.693,68.439 907.477,62.869 "/>
<polygon fill="#232527" points="924.668,62.869 921.451,68.439 924.668,74.01 931.1,74.01 934.316,68.439 931.1,62.869 "/>
<polygon fill="#232527" points="948.289,62.869 945.074,68.439 948.289,74.01 954.723,74.01 957.938,68.439 954.723,62.869 "/>
<polygon fill="#232527" points="971.912,62.869 968.695,68.439 971.912,74.01 978.344,74.01 981.559,68.439 978.344,62.869 "/>
<polygon fill="#232527" points="995.533,62.869 992.316,68.439 995.533,74.01 1001.967,74.01 1005.182,68.439 1001.967,62.869 "/>
<polygon fill="#232527" points="1019.156,62.869 1015.939,68.439 1019.156,74.01 1025.588,74.01 1028.805,68.439 1025.588,62.869 
	"/>
<polygon fill="#232527" points="1042.779,62.869 1039.561,68.439 1042.779,74.01 1049.211,74.01 1052.426,68.439 1049.211,62.869 
	"/>
<polygon fill="#232527" points="1066.4,62.869 1063.184,68.439 1066.4,74.01 1072.832,74.01 1076.049,68.439 1072.832,62.869 "/>
<polygon fill="#232527" points="1090.023,62.869 1086.807,68.439 1090.023,74.01 1096.453,74.01 1099.67,68.439 1096.453,62.869 "/>
<polygon fill="#232527" points="1113.645,62.869 1110.43,68.439 1113.645,74.01 1120.076,74.01 1123.293,68.439 1120.076,62.869 "/>
<polygon fill="#232527" points="1137.268,62.869 1134.051,68.439 1137.268,74.01 1143.699,74.01 1146.914,68.439 1143.699,62.869 
	"/>
<polygon fill="#232527" points="1160.889,62.869 1157.674,68.439 1160.889,74.01 1167.32,74.01 1170.537,68.439 1167.32,62.869 "/>
<polygon fill="#232527" points="889.266,79.601 886.051,74.03 889.266,68.46 895.697,68.46 898.912,74.03 895.697,79.601 "/>
<polygon fill="#232527" points="877.453,76.177 874.24,81.747 877.453,87.317 883.887,87.317 887.104,81.747 883.887,76.177 "/>
<polygon fill="#232527" points="912.855,79.601 909.639,74.03 912.855,68.46 919.287,68.46 922.504,74.03 919.287,79.601 "/>
<polygon fill="#232527" points="936.479,79.601 933.262,74.03 936.479,68.46 942.91,68.46 946.127,74.03 942.91,79.601 "/>
<polygon fill="#232527" points="960.102,79.601 956.885,74.03 960.102,68.46 966.533,68.46 969.748,74.03 966.533,79.601 "/>
<polygon fill="#232527" points="983.723,79.601 980.508,74.03 983.723,68.46 990.154,68.46 993.369,74.03 990.154,79.601 "/>
<polygon fill="#232527" points="1007.346,79.601 1004.129,74.03 1007.346,68.46 1013.777,68.46 1016.992,74.03 1013.777,79.601 "/>
<polygon fill="#232527" points="1030.967,79.601 1027.752,74.03 1030.967,68.46 1037.398,68.46 1040.615,74.03 1037.398,79.601 "/>
<polygon fill="#232527" points="1054.59,79.601 1051.373,74.03 1054.59,68.46 1061.021,68.46 1064.238,74.03 1061.021,79.601 "/>
<polygon fill="#232527" points="1078.211,79.601 1074.994,74.03 1078.211,68.46 1084.643,68.46 1087.859,74.03 1084.643,79.601 "/>
<polygon fill="#232527" points="1101.834,79.601 1098.617,74.03 1101.834,68.46 1108.266,68.46 1111.48,74.03 1108.266,79.601 "/>
<polygon fill="#232527" points="1125.455,79.601 1122.24,74.03 1125.455,68.46 1131.889,68.46 1135.104,74.03 1131.889,79.601 "/>
<polygon fill="#232527" points="1149.078,79.601 1145.861,74.03 1149.078,68.46 1155.51,68.46 1158.727,74.03 1155.51,79.601 "/>
<polygon fill="#232527" points="1172.699,79.601 1169.482,74.03 1172.699,68.46 1179.133,68.46 1182.348,74.03 1179.133,79.601 "/>
<polygon fill="#232527" points="901.045,76.177 897.828,81.747 901.045,87.317 907.477,87.317 910.693,81.747 907.477,76.177 "/>
<polygon fill="#232527" points="924.668,76.177 921.451,81.747 924.668,87.317 931.1,87.317 934.316,81.747 931.1,76.177 "/>
<polygon fill="#232527" points="948.289,76.177 945.074,81.747 948.289,87.317 954.723,87.317 957.938,81.747 954.723,76.177 "/>
<polygon fill="#232527" points="971.912,76.177 968.695,81.747 971.912,87.317 978.344,87.317 981.559,81.747 978.344,76.177 "/>
<polygon fill="#232527" points="995.533,76.177 992.316,81.747 995.533,87.317 1001.967,87.317 1005.182,81.747 1001.967,76.177 "/>
<polygon fill="#232527" points="1019.156,76.177 1015.939,81.747 1019.156,87.317 1025.588,87.317 1028.805,81.747 1025.588,76.177 
	"/>
<polygon fill="#232527" points="1042.779,76.177 1039.561,81.747 1042.779,87.317 1049.211,87.317 1052.426,81.747 1049.211,76.177 
	"/>
<polygon fill="#232527" points="1066.4,76.177 1063.184,81.747 1066.4,87.317 1072.832,87.317 1076.049,81.747 1072.832,76.177 "/>
<polygon fill="#232527" points="1090.023,76.177 1086.807,81.747 1090.023,87.317 1096.453,87.317 1099.67,81.747 1096.453,76.177 
	"/>
<polygon fill="#232527" points="1113.645,76.177 1110.43,81.747 1113.645,87.317 1120.076,87.317 1123.293,81.747 1120.076,76.177 
	"/>
<polygon fill="#232527" points="1137.268,76.177 1134.051,81.747 1137.268,87.317 1143.699,87.317 1146.914,81.747 1143.699,76.177 
	"/>
<polygon fill="#232527" points="1160.889,76.177 1157.674,81.747 1160.889,87.317 1167.32,87.317 1170.537,81.747 1167.32,76.177 
	"/>
<polygon fill="#232527" points="889.266,93.685 886.051,88.114 889.266,82.544 895.697,82.544 898.912,88.114 895.697,93.685 "/>
<polygon fill="#232527" points="865.203,24.838 861.988,19.268 865.203,13.697 871.637,13.697 874.852,19.268 871.637,24.838 "/>
<polygon fill="#232527" points="865.203,38.922 861.988,33.352 865.203,27.781 871.637,27.781 874.852,33.352 871.637,38.922 "/>
<polygon fill="#232527" points="865.203,52.209 861.988,46.639 865.203,41.068 871.637,41.068 874.852,46.639 871.637,52.209 "/>
<polygon fill="#232527" points="865.203,66.293 861.988,60.723 865.203,55.152 871.637,55.152 874.852,60.723 871.637,66.293 "/>
<polygon fill="#232527" points="865.203,79.601 861.988,74.03 865.203,68.46 871.637,68.46 874.852,74.03 871.637,79.601 "/>
<polygon fill="#232527" points="865.203,93.685 861.988,88.114 865.203,82.544 871.637,82.544 874.852,88.114 871.637,93.685 "/>
<polygon fill="#232527" points="852.549,31.928 849.332,26.357 852.549,20.787 858.98,20.787 862.195,26.357 858.98,31.928 "/>
<polygon fill="#232527" points="852.549,46.012 849.332,40.441 852.549,34.871 858.98,34.871 862.195,40.441 858.98,46.012 "/>
<polygon fill="#232527" points="852.549,18.012 849.332,12.441 852.549,6.871 858.98,6.871 862.195,12.441 858.98,18.012 "/>
<polygon fill="#232527" points="852.549,59.299 849.332,53.729 852.549,48.158 858.98,48.158 862.195,53.729 858.98,59.299 "/>
<polygon fill="#232527" points="852.549,73.383 849.332,67.813 852.549,62.242 858.98,62.242 862.195,67.813 858.98,73.383 "/>
<polygon fill="#232527" points="852.549,86.69 849.332,81.12 852.549,75.55 858.98,75.55 862.195,81.12 858.98,86.69 "/>
<polygon fill="#232527" points="852.549,100.774 849.332,95.204 852.549,89.634 858.98,89.634 862.195,95.204 858.98,100.774 "/>
<polygon fill="#232527" points="852.549,115.237 849.332,109.667 852.549,104.097 858.98,104.097 862.195,109.667 858.98,115.237 
	"/>
<polygon fill="#232527" points="852.549,129.321 849.332,123.751 852.549,118.181 858.98,118.181 862.195,123.751 858.98,129.321 
	"/>
<polygon fill="#232527" points="852.549,142.608 849.332,137.038 852.549,131.468 858.98,131.468 862.195,137.038 858.98,142.608 
	"/>
<polygon fill="#232527" points="852.549,156.692 849.332,151.122 852.549,145.552 858.98,145.552 862.195,151.122 858.98,156.692 
	"/>
<polygon fill="#232527" points="852.549,170 849.332,164.43 852.549,158.859 858.98,158.859 862.195,164.43 858.98,170 "/>
<polygon fill="#232527" points="852.549,184.084 849.332,178.514 852.549,172.943 858.98,172.943 862.195,178.514 858.98,184.084 
	"/>
<polygon fill="#232527" points="852.549,199.21 849.332,193.64 852.549,188.069 858.98,188.069 862.195,193.64 858.98,199.21 "/>
<polygon fill="#232527" points="852.549,213.294 849.332,207.724 852.549,202.153 858.98,202.153 862.195,207.724 858.98,213.294 
	"/>
<polygon fill="#232527" points="852.549,226.602 849.332,221.031 852.549,215.461 858.98,215.461 862.195,221.031 858.98,226.602 
	"/>
<polygon fill="#232527" points="852.549,240.686 849.332,235.115 852.549,229.545 858.98,229.545 862.195,235.115 858.98,240.686 
	"/>
<polygon fill="#232527" points="840.465,24.755 837.248,19.185 840.465,13.614 846.896,13.614 850.113,19.185 846.896,24.755 "/>
<polygon fill="#232527" points="840.465,38.839 837.248,33.269 840.465,27.698 846.896,27.698 850.113,33.269 846.896,38.839 "/>
<polygon fill="#232527" points="840.465,52.126 837.248,46.556 840.465,40.985 846.896,40.985 850.113,46.556 846.896,52.126 "/>
<polygon fill="#232527" points="840.465,66.21 837.248,60.64 840.465,55.069 846.896,55.069 850.113,60.64 846.896,66.21 "/>
<polygon fill="#232527" points="840.465,79.518 837.248,73.947 840.465,68.377 846.896,68.377 850.113,73.947 846.896,79.518 "/>
<polygon fill="#232527" points="840.465,93.602 837.248,88.031 840.465,82.461 846.896,82.461 850.113,88.031 846.896,93.602 "/>
<polygon fill="#232527" points="840.465,108.064 837.248,102.494 840.465,96.924 846.896,96.924 850.113,102.494 846.896,108.064 
	"/>
<polygon fill="#232527" points="840.465,122.148 837.248,116.578 840.465,111.008 846.896,111.008 850.113,116.578 846.896,122.148 
	"/>
<polygon fill="#232527" points="840.465,135.436 837.248,129.865 840.465,124.295 846.896,124.295 850.113,129.865 846.896,135.436 
	"/>
<polygon fill="#232527" points="840.465,149.52 837.248,143.949 840.465,138.379 846.896,138.379 850.113,143.949 846.896,149.52 
	"/>
<polygon fill="#232527" points="840.465,162.827 837.248,157.257 840.465,151.687 846.896,151.687 850.113,157.257 846.896,162.827 
	"/>
<polygon fill="#232527" points="840.465,176.911 837.248,171.341 840.465,165.771 846.896,165.771 850.113,171.341 846.896,176.911 
	"/>
<polygon fill="#232527" points="840.465,192.037 837.248,186.467 840.465,180.896 846.896,180.896 850.113,186.467 846.896,192.037 
	"/>
<polygon fill="#232527" points="840.465,206.121 837.248,200.551 840.465,194.98 846.896,194.98 850.113,200.551 846.896,206.121 
	"/>
<polygon fill="#232527" points="840.465,219.429 837.248,213.858 840.465,208.288 846.896,208.288 850.113,213.858 846.896,219.429 
	"/>
<polygon fill="#232527" points="840.465,233.513 837.248,227.942 840.465,222.372 846.896,222.372 850.113,227.942 846.896,233.513 
	"/>
<polygon fill="#232527" points="840.465,247.305 837.248,241.734 840.465,236.164 846.896,236.164 850.113,241.734 846.896,247.305 
	"/>
<polygon fill="#232527" points="208.865,31.928 205.648,26.357 208.865,20.787 215.297,20.787 218.512,26.357 215.297,31.928 "/>
<polygon fill="#232527" points="208.865,46.012 205.648,40.441 208.865,34.871 215.297,34.871 218.512,40.441 215.297,46.012 "/>
<polygon fill="#232527" points="208.865,18.012 205.648,12.441 208.865,6.871 215.297,6.871 218.512,12.441 215.297,18.012 "/>
<polygon fill="#232527" points="208.865,59.299 205.648,53.729 208.865,48.158 215.297,48.158 218.512,53.729 215.297,59.299 "/>
<polygon fill="#232527" points="208.865,73.383 205.648,67.813 208.865,62.242 215.297,62.242 218.512,67.813 215.297,73.383 "/>
<polygon fill="#232527" points="208.865,86.69 205.648,81.12 208.865,75.55 215.297,75.55 218.512,81.12 215.297,86.69 "/>
<polygon fill="#232527" points="208.865,100.774 205.648,95.204 208.865,89.634 215.297,89.634 218.512,95.204 215.297,100.774 "/>
<polygon fill="#232527" points="208.865,115.237 205.648,109.667 208.865,104.097 215.297,104.097 218.512,109.667 215.297,115.237 
	"/>
<polygon fill="#232527" points="208.865,129.321 205.648,123.751 208.865,118.181 215.297,118.181 218.512,123.751 215.297,129.321 
	"/>
<polygon fill="#232527" points="208.865,142.608 205.648,137.038 208.865,131.468 215.297,131.468 218.512,137.038 215.297,142.608 
	"/>
<polygon fill="#232527" points="208.865,156.692 205.648,151.122 208.865,145.552 215.297,145.552 218.512,151.122 215.297,156.692 
	"/>
<polygon fill="#232527" points="208.865,170 205.648,164.43 208.865,158.859 215.297,158.859 218.512,164.43 215.297,170 "/>
<polygon fill="#232527" points="208.865,184.084 205.648,178.514 208.865,172.943 215.297,172.943 218.512,178.514 215.297,184.084 
	"/>
<polygon fill="#232527" points="208.865,199.21 205.648,193.64 208.865,188.069 215.297,188.069 218.512,193.64 215.297,199.21 "/>
<polygon fill="#232527" points="208.865,213.294 205.648,207.724 208.865,202.153 215.297,202.153 218.512,207.724 215.297,213.294 
	"/>
<polygon fill="#232527" points="208.865,226.602 205.648,221.031 208.865,215.461 215.297,215.461 218.512,221.031 215.297,226.602 
	"/>
<polygon fill="#232527" points="208.865,240.686 205.648,235.115 208.865,229.545 215.297,229.545 218.512,235.115 215.297,240.686 
	"/>
<polygon fill="#232527" points="196.782,24.755 193.565,19.185 196.782,13.614 203.214,13.614 206.429,19.185 203.214,24.755 "/>
<polygon fill="#232527" points="196.782,38.839 193.565,33.269 196.782,27.698 203.214,27.698 206.429,33.269 203.214,38.839 "/>
<polygon fill="#232527" points="196.782,52.126 193.565,46.556 196.782,40.985 203.214,40.985 206.429,46.556 203.214,52.126 "/>
<polygon fill="#232527" points="196.782,66.21 193.565,60.64 196.782,55.069 203.214,55.069 206.429,60.64 203.214,66.21 "/>
<polygon fill="#232527" points="196.782,79.518 193.565,73.947 196.782,68.377 203.214,68.377 206.429,73.947 203.214,79.518 "/>
<polygon fill="#232527" points="196.782,93.602 193.565,88.031 196.782,82.461 203.214,82.461 206.429,88.031 203.214,93.602 "/>
<polygon fill="#232527" points="196.782,108.064 193.565,102.494 196.782,96.924 203.214,96.924 206.429,102.494 203.214,108.064 
	"/>
<polygon fill="#232527" points="196.782,122.148 193.565,116.578 196.782,111.008 203.214,111.008 206.429,116.578 203.214,122.148 
	"/>
<polygon fill="#232527" points="196.782,135.436 193.565,129.865 196.782,124.295 203.214,124.295 206.429,129.865 203.214,135.436 
	"/>
<polygon fill="#232527" points="196.782,149.52 193.565,143.949 196.782,138.379 203.214,138.379 206.429,143.949 203.214,149.52 
	"/>
<polygon fill="#232527" points="196.782,162.827 193.565,157.257 196.782,151.687 203.214,151.687 206.429,157.257 203.214,162.827 
	"/>
<polygon fill="#232527" points="196.782,176.911 193.565,171.341 196.782,165.771 203.214,165.771 206.429,171.341 203.214,176.911 
	"/>
<polygon fill="#232527" points="196.782,192.037 193.565,186.467 196.782,180.896 203.214,180.896 206.429,186.467 203.214,192.037 
	"/>
<polygon fill="#232527" points="196.782,206.121 193.565,200.551 196.782,194.98 203.214,194.98 206.429,200.551 203.214,206.121 
	"/>
<polygon fill="#232527" points="196.782,219.429 193.565,213.858 196.782,208.288 203.214,208.288 206.429,213.858 203.214,219.429 
	"/>
<polygon fill="#232527" points="196.782,233.513 193.565,227.942 196.782,222.372 203.214,222.372 206.429,227.942 203.214,233.513 
	"/>
<polygon fill="#232527" points="196.782,247.305 193.565,241.734 196.782,236.164 203.214,236.164 206.429,241.734 203.214,247.305 
	"/>
<polygon fill="#232527" points="183.918,31.928 180.702,26.357 183.918,20.787 190.35,20.787 193.565,26.357 190.35,31.928 "/>
<polygon fill="#232527" points="183.918,46.012 180.702,40.441 183.918,34.871 190.35,34.871 193.565,40.441 190.35,46.012 "/>
<polygon fill="#232527" points="183.918,18.012 180.702,12.441 183.918,6.871 190.35,6.871 193.565,12.441 190.35,18.012 "/>
<polygon fill="#232527" points="183.918,59.299 180.702,53.729 183.918,48.158 190.35,48.158 193.565,53.729 190.35,59.299 "/>
<polygon fill="#232527" points="183.918,73.383 180.702,67.813 183.918,62.242 190.35,62.242 193.565,67.813 190.35,73.383 "/>
<polygon fill="#232527" points="183.918,86.69 180.702,81.12 183.918,75.55 190.35,75.55 193.565,81.12 190.35,86.69 "/>
<polygon fill="#232527" points="183.918,100.774 180.702,95.204 183.918,89.634 190.35,89.634 193.565,95.204 190.35,100.774 "/>
<polygon fill="#232527" points="183.918,115.237 180.702,109.667 183.918,104.097 190.35,104.097 193.565,109.667 190.35,115.237 
	"/>
<polygon fill="#232527" points="183.918,129.321 180.702,123.751 183.918,118.181 190.35,118.181 193.565,123.751 190.35,129.321 
	"/>
<polygon fill="#232527" points="183.918,142.608 180.702,137.038 183.918,131.468 190.35,131.468 193.565,137.038 190.35,142.608 
	"/>
<polygon fill="#232527" points="183.918,156.692 180.702,151.122 183.918,145.552 190.35,145.552 193.565,151.122 190.35,156.692 
	"/>
<polygon fill="#232527" points="183.918,170 180.702,164.43 183.918,158.859 190.35,158.859 193.565,164.43 190.35,170 "/>
<polygon fill="#232527" points="183.918,184.084 180.702,178.514 183.918,172.943 190.35,172.943 193.565,178.514 190.35,184.084 
	"/>
<polygon fill="#232527" points="183.918,199.21 180.702,193.64 183.918,188.069 190.35,188.069 193.565,193.64 190.35,199.21 "/>
<polygon fill="#232527" points="183.918,213.294 180.702,207.724 183.918,202.153 190.35,202.153 193.565,207.724 190.35,213.294 
	"/>
<polygon fill="#232527" points="183.918,226.602 180.702,221.031 183.918,215.461 190.35,215.461 193.565,221.031 190.35,226.602 
	"/>
<polygon fill="#232527" points="183.918,240.686 180.702,235.115 183.918,229.545 190.35,229.545 193.565,235.115 190.35,240.686 
	"/>
<polygon fill="#232527" points="171.835,24.755 168.619,19.185 171.835,13.614 178.267,13.614 181.482,19.185 178.267,24.755 "/>
<polygon fill="#232527" points="171.835,38.839 168.619,33.269 171.835,27.698 178.267,27.698 181.482,33.269 178.267,38.839 "/>
<polygon fill="#232527" points="171.835,52.126 168.619,46.556 171.835,40.985 178.267,40.985 181.482,46.556 178.267,52.126 "/>
<polygon fill="#232527" points="171.835,66.21 168.619,60.64 171.835,55.069 178.267,55.069 181.482,60.64 178.267,66.21 "/>
<polygon fill="#232527" points="171.835,79.518 168.619,73.947 171.835,68.377 178.267,68.377 181.482,73.947 178.267,79.518 "/>
<polygon fill="#232527" points="171.835,93.602 168.619,88.031 171.835,82.461 178.267,82.461 181.482,88.031 178.267,93.602 "/>
<polygon fill="#232527" points="171.835,108.064 168.619,102.494 171.835,96.924 178.267,96.924 181.482,102.494 178.267,108.064 
	"/>
<polygon fill="#232527" points="171.835,122.148 168.619,116.578 171.835,111.008 178.267,111.008 181.482,116.578 178.267,122.148 
	"/>
<polygon fill="#232527" points="171.835,135.436 168.619,129.865 171.835,124.295 178.267,124.295 181.482,129.865 178.267,135.436 
	"/>
<polygon fill="#232527" points="171.835,149.52 168.619,143.949 171.835,138.379 178.267,138.379 181.482,143.949 178.267,149.52 
	"/>
<polygon fill="#232527" points="171.835,162.827 168.619,157.257 171.835,151.687 178.267,151.687 181.482,157.257 178.267,162.827 
	"/>
<polygon fill="#232527" points="171.835,176.911 168.619,171.341 171.835,165.771 178.267,165.771 181.482,171.341 178.267,176.911 
	"/>
<polygon fill="#232527" points="171.835,192.037 168.619,186.467 171.835,180.896 178.267,180.896 181.482,186.467 178.267,192.037 
	"/>
<polygon fill="#232527" points="171.835,206.121 168.619,200.551 171.835,194.98 178.267,194.98 181.482,200.551 178.267,206.121 
	"/>
<polygon fill="#232527" points="171.835,219.429 168.619,213.858 171.835,208.288 178.267,208.288 181.482,213.858 178.267,219.429 
	"/>
<polygon fill="#232527" points="171.835,233.513 168.619,227.942 171.835,222.372 178.267,222.372 181.482,227.942 178.267,233.513 
	"/>
<polygon fill="#232527" points="171.835,247.305 168.619,241.734 171.835,236.164 178.267,236.164 181.482,241.734 178.267,247.305 
	"/>
<polygon fill="#232527" points="160.161,31.928 156.944,26.357 160.161,20.787 166.593,20.787 169.808,26.357 166.593,31.928 "/>
<polygon fill="#232527" points="160.161,46.012 156.944,40.441 160.161,34.871 166.593,34.871 169.808,40.441 166.593,46.012 "/>
<polygon fill="#232527" points="160.161,18.012 156.944,12.441 160.161,6.871 166.593,6.871 169.808,12.441 166.593,18.012 "/>
<polygon fill="#232527" points="160.161,59.299 156.944,53.729 160.161,48.158 166.593,48.158 169.808,53.729 166.593,59.299 "/>
<polygon fill="#232527" points="160.161,73.383 156.944,67.813 160.161,62.242 166.593,62.242 169.808,67.813 166.593,73.383 "/>
<polygon fill="#232527" points="160.161,86.69 156.944,81.12 160.161,75.55 166.593,75.55 169.808,81.12 166.593,86.69 "/>
<polygon fill="#232527" points="160.161,100.774 156.944,95.204 160.161,89.634 166.593,89.634 169.808,95.204 166.593,100.774 "/>
<polygon fill="#232527" points="160.161,115.237 156.944,109.667 160.161,104.097 166.593,104.097 169.808,109.667 166.593,115.237 
	"/>
<polygon fill="#232527" points="160.161,129.321 156.944,123.751 160.161,118.181 166.593,118.181 169.808,123.751 166.593,129.321 
	"/>
<polygon fill="#232527" points="160.161,142.608 156.944,137.038 160.161,131.468 166.593,131.468 169.808,137.038 166.593,142.608 
	"/>
<polygon fill="#232527" points="160.161,156.692 156.944,151.122 160.161,145.552 166.593,145.552 169.808,151.122 166.593,156.692 
	"/>
<polygon fill="#232527" points="160.161,170 156.944,164.43 160.161,158.859 166.593,158.859 169.808,164.43 166.593,170 "/>
<polygon fill="#232527" points="160.161,184.084 156.944,178.514 160.161,172.943 166.593,172.943 169.808,178.514 166.593,184.084 
	"/>
<polygon fill="#232527" points="160.161,199.21 156.944,193.64 160.161,188.069 166.593,188.069 169.808,193.64 166.593,199.21 "/>
<polygon fill="#232527" points="160.161,213.294 156.944,207.724 160.161,202.153 166.593,202.153 169.808,207.724 166.593,213.294 
	"/>
<polygon fill="#232527" points="160.161,226.602 156.944,221.031 160.161,215.461 166.593,215.461 169.808,221.031 166.593,226.602 
	"/>
<polygon fill="#232527" points="160.161,240.686 156.944,235.115 160.161,229.545 166.593,229.545 169.808,235.115 166.593,240.686 
	"/>
<polygon fill="#232527" points="148.078,24.755 144.861,19.185 148.078,13.614 154.51,13.614 157.725,19.185 154.51,24.755 "/>
<polygon fill="#232527" points="148.078,38.839 144.861,33.269 148.078,27.698 154.51,27.698 157.725,33.269 154.51,38.839 "/>
<polygon fill="#232527" points="148.078,52.126 144.861,46.556 148.078,40.985 154.51,40.985 157.725,46.556 154.51,52.126 "/>
<polygon fill="#232527" points="148.078,66.21 144.861,60.64 148.078,55.069 154.51,55.069 157.725,60.64 154.51,66.21 "/>
<polygon fill="#232527" points="148.078,79.518 144.861,73.947 148.078,68.377 154.51,68.377 157.725,73.947 154.51,79.518 "/>
<polygon fill="#232527" points="148.078,93.602 144.861,88.031 148.078,82.461 154.51,82.461 157.725,88.031 154.51,93.602 "/>
<polygon fill="#232527" points="148.078,108.064 144.861,102.494 148.078,96.924 154.51,96.924 157.725,102.494 154.51,108.064 "/>
<polygon fill="#232527" points="148.078,122.148 144.861,116.578 148.078,111.008 154.51,111.008 157.725,116.578 154.51,122.148 
	"/>
<polygon fill="#232527" points="148.078,135.436 144.861,129.865 148.078,124.295 154.51,124.295 157.725,129.865 154.51,135.436 
	"/>
<polygon fill="#232527" points="148.078,149.52 144.861,143.949 148.078,138.379 154.51,138.379 157.725,143.949 154.51,149.52 "/>
<polygon fill="#232527" points="148.078,162.827 144.861,157.257 148.078,151.687 154.51,151.687 157.725,157.257 154.51,162.827 
	"/>
<polygon fill="#232527" points="148.078,176.911 144.861,171.341 148.078,165.771 154.51,165.771 157.725,171.341 154.51,176.911 
	"/>
<polygon fill="#232527" points="148.078,192.037 144.861,186.467 148.078,180.896 154.51,180.896 157.725,186.467 154.51,192.037 
	"/>
<polygon fill="#232527" points="148.078,206.121 144.861,200.551 148.078,194.98 154.51,194.98 157.725,200.551 154.51,206.121 "/>
<polygon fill="#232527" points="148.078,219.429 144.861,213.858 148.078,208.288 154.51,208.288 157.725,213.858 154.51,219.429 
	"/>
<polygon fill="#232527" points="148.078,233.513 144.861,227.942 148.078,222.372 154.51,222.372 157.725,227.942 154.51,233.513 
	"/>
<polygon fill="#232527" points="148.078,247.305 144.861,241.734 148.078,236.164 154.51,236.164 157.725,241.734 154.51,247.305 
	"/>
<polygon fill="#232527" points="135.214,31.928 131.998,26.357 135.214,20.787 141.646,20.787 144.861,26.357 141.646,31.928 "/>
<polygon fill="#232527" points="135.214,46.012 131.998,40.441 135.214,34.871 141.646,34.871 144.861,40.441 141.646,46.012 "/>
<polygon fill="#232527" points="135.214,18.012 131.998,12.441 135.214,6.871 141.646,6.871 144.861,12.441 141.646,18.012 "/>
<polygon fill="#232527" points="135.214,59.299 131.998,53.729 135.214,48.158 141.646,48.158 144.861,53.729 141.646,59.299 "/>
<polygon fill="#232527" points="135.214,73.383 131.998,67.813 135.214,62.242 141.646,62.242 144.861,67.813 141.646,73.383 "/>
<polygon fill="#232527" points="135.214,86.69 131.998,81.12 135.214,75.55 141.646,75.55 144.861,81.12 141.646,86.69 "/>
<polygon fill="#232527" points="135.214,100.774 131.998,95.204 135.214,89.634 141.646,89.634 144.861,95.204 141.646,100.774 "/>
<polygon fill="#232527" points="135.214,115.237 131.998,109.667 135.214,104.097 141.646,104.097 144.861,109.667 141.646,115.237 
	"/>
<polygon fill="#232527" points="135.214,129.321 131.998,123.751 135.214,118.181 141.646,118.181 144.861,123.751 141.646,129.321 
	"/>
<polygon fill="#232527" points="135.214,142.608 131.998,137.038 135.214,131.468 141.646,131.468 144.861,137.038 141.646,142.608 
	"/>
<polygon fill="#232527" points="135.214,156.692 131.998,151.122 135.214,145.552 141.646,145.552 144.861,151.122 141.646,156.692 
	"/>
<polygon fill="#232527" points="135.214,170 131.998,164.43 135.214,158.859 141.646,158.859 144.861,164.43 141.646,170 "/>
<polygon fill="#232527" points="135.214,184.084 131.998,178.514 135.214,172.943 141.646,172.943 144.861,178.514 141.646,184.084 
	"/>
<polygon fill="#232527" points="135.214,199.21 131.998,193.64 135.214,188.069 141.646,188.069 144.861,193.64 141.646,199.21 "/>
<polygon fill="#232527" points="135.214,213.294 131.998,207.724 135.214,202.153 141.646,202.153 144.861,207.724 141.646,213.294 
	"/>
<polygon fill="#232527" points="135.214,226.602 131.998,221.031 135.214,215.461 141.646,215.461 144.861,221.031 141.646,226.602 
	"/>
<polygon fill="#232527" points="135.214,240.686 131.998,235.115 135.214,229.545 141.646,229.545 144.861,235.115 141.646,240.686 
	"/>
<polygon fill="#232527" points="123.131,24.755 119.915,19.185 123.131,13.614 129.563,13.614 132.778,19.185 129.563,24.755 "/>
<polygon fill="#232527" points="123.131,38.839 119.915,33.269 123.131,27.698 129.563,27.698 132.778,33.269 129.563,38.839 "/>
<polygon fill="#232527" points="123.131,52.126 119.915,46.556 123.131,40.985 129.563,40.985 132.778,46.556 129.563,52.126 "/>
<polygon fill="#232527" points="123.131,66.21 119.915,60.64 123.131,55.069 129.563,55.069 132.778,60.64 129.563,66.21 "/>
<polygon fill="#232527" points="123.131,79.518 119.915,73.947 123.131,68.377 129.563,68.377 132.778,73.947 129.563,79.518 "/>
<polygon fill="#232527" points="123.131,93.602 119.915,88.031 123.131,82.461 129.563,82.461 132.778,88.031 129.563,93.602 "/>
<polygon fill="#232527" points="123.131,108.064 119.915,102.494 123.131,96.924 129.563,96.924 132.778,102.494 129.563,108.064 
	"/>
<polygon fill="#232527" points="123.131,122.148 119.915,116.578 123.131,111.008 129.563,111.008 132.778,116.578 129.563,122.148 
	"/>
<polygon fill="#232527" points="123.131,135.436 119.915,129.865 123.131,124.295 129.563,124.295 132.778,129.865 129.563,135.436 
	"/>
<polygon fill="#232527" points="123.131,149.52 119.915,143.949 123.131,138.379 129.563,138.379 132.778,143.949 129.563,149.52 
	"/>
<polygon fill="#232527" points="123.131,162.827 119.915,157.257 123.131,151.687 129.563,151.687 132.778,157.257 129.563,162.827 
	"/>
<polygon fill="#232527" points="123.131,176.911 119.915,171.341 123.131,165.771 129.563,165.771 132.778,171.341 129.563,176.911 
	"/>
<polygon fill="#232527" points="123.131,192.037 119.915,186.467 123.131,180.896 129.563,180.896 132.778,186.467 129.563,192.037 
	"/>
<polygon fill="#232527" points="123.131,206.121 119.915,200.551 123.131,194.98 129.563,194.98 132.778,200.551 129.563,206.121 
	"/>
<polygon fill="#232527" points="123.131,219.429 119.915,213.858 123.131,208.288 129.563,208.288 132.778,213.858 129.563,219.429 
	"/>
<polygon fill="#232527" points="123.131,233.513 119.915,227.942 123.131,222.372 129.563,222.372 132.778,227.942 129.563,233.513 
	"/>
<polygon fill="#232527" points="123.131,247.305 119.915,241.734 123.131,236.164 129.563,236.164 132.778,241.734 129.563,247.305 
	"/>
<polygon fill="#232527" points="110.267,31.928 107.051,26.357 110.267,20.787 116.699,20.787 119.915,26.357 116.699,31.928 "/>
<polygon fill="#232527" points="110.267,46.012 107.051,40.441 110.267,34.871 116.699,34.871 119.915,40.441 116.699,46.012 "/>
<polygon fill="#232527" points="110.267,18.012 107.051,12.441 110.267,6.871 116.699,6.871 119.915,12.441 116.699,18.012 "/>
<polygon fill="#232527" points="110.267,59.299 107.051,53.729 110.267,48.158 116.699,48.158 119.915,53.729 116.699,59.299 "/>
<polygon fill="#232527" points="110.267,73.383 107.051,67.813 110.267,62.242 116.699,62.242 119.915,67.813 116.699,73.383 "/>
<polygon fill="#232527" points="110.267,86.69 107.051,81.12 110.267,75.55 116.699,75.55 119.915,81.12 116.699,86.69 "/>
<polygon fill="#232527" points="110.267,100.774 107.051,95.204 110.267,89.634 116.699,89.634 119.915,95.204 116.699,100.774 "/>
<polygon fill="#232527" points="110.267,115.237 107.051,109.667 110.267,104.097 116.699,104.097 119.915,109.667 116.699,115.237 
	"/>
<polygon fill="#232527" points="110.267,129.321 107.051,123.751 110.267,118.181 116.699,118.181 119.915,123.751 116.699,129.321 
	"/>
<polygon fill="#232527" points="110.267,142.608 107.051,137.038 110.267,131.468 116.699,131.468 119.915,137.038 116.699,142.608 
	"/>
<polygon fill="#232527" points="110.267,156.692 107.051,151.122 110.267,145.552 116.699,145.552 119.915,151.122 116.699,156.692 
	"/>
<polygon fill="#232527" points="110.267,170 107.051,164.43 110.267,158.859 116.699,158.859 119.915,164.43 116.699,170 "/>
<polygon fill="#232527" points="110.267,184.084 107.051,178.514 110.267,172.943 116.699,172.943 119.915,178.514 116.699,184.084 
	"/>
<polygon fill="#232527" points="110.267,199.21 107.051,193.64 110.267,188.069 116.699,188.069 119.915,193.64 116.699,199.21 "/>
<polygon fill="#232527" points="110.267,213.294 107.051,207.724 110.267,202.153 116.699,202.153 119.915,207.724 116.699,213.294 
	"/>
<polygon fill="#232527" points="110.267,226.602 107.051,221.031 110.267,215.461 116.699,215.461 119.915,221.031 116.699,226.602 
	"/>
<polygon fill="#232527" points="110.267,240.686 107.051,235.115 110.267,229.545 116.699,229.545 119.915,235.115 116.699,240.686 
	"/>
<polygon fill="#232527" points="98.184,24.755 94.968,19.185 98.184,13.614 104.616,13.614 107.832,19.185 104.616,24.755 "/>
<polygon fill="#232527" points="98.184,38.839 94.968,33.269 98.184,27.698 104.616,27.698 107.832,33.269 104.616,38.839 "/>
<polygon fill="#232527" points="98.184,52.126 94.968,46.556 98.184,40.985 104.616,40.985 107.832,46.556 104.616,52.126 "/>
<polygon fill="#232527" points="98.184,66.21 94.968,60.64 98.184,55.069 104.616,55.069 107.832,60.64 104.616,66.21 "/>
<polygon fill="#232527" points="98.184,79.518 94.968,73.947 98.184,68.377 104.616,68.377 107.832,73.947 104.616,79.518 "/>
<polygon fill="#232527" points="98.184,93.602 94.968,88.031 98.184,82.461 104.616,82.461 107.832,88.031 104.616,93.602 "/>
<polygon fill="#232527" points="98.184,108.064 94.968,102.494 98.184,96.924 104.616,96.924 107.832,102.494 104.616,108.064 "/>
<polygon fill="#232527" points="98.184,122.148 94.968,116.578 98.184,111.008 104.616,111.008 107.832,116.578 104.616,122.148 "/>
<polygon fill="#232527" points="98.184,135.436 94.968,129.865 98.184,124.295 104.616,124.295 107.832,129.865 104.616,135.436 "/>
<polygon fill="#232527" points="98.184,149.52 94.968,143.949 98.184,138.379 104.616,138.379 107.832,143.949 104.616,149.52 "/>
<polygon fill="#232527" points="98.184,162.827 94.968,157.257 98.184,151.687 104.616,151.687 107.832,157.257 104.616,162.827 "/>
<polygon fill="#232527" points="98.184,176.911 94.968,171.341 98.184,165.771 104.616,165.771 107.832,171.341 104.616,176.911 "/>
<polygon fill="#232527" points="98.184,192.037 94.968,186.467 98.184,180.896 104.616,180.896 107.832,186.467 104.616,192.037 "/>
<polygon fill="#232527" points="98.184,206.121 94.968,200.551 98.184,194.98 104.616,194.98 107.832,200.551 104.616,206.121 "/>
<polygon fill="#232527" points="98.184,219.429 94.968,213.858 98.184,208.288 104.616,208.288 107.832,213.858 104.616,219.429 "/>
<polygon fill="#232527" points="98.184,233.513 94.968,227.942 98.184,222.372 104.616,222.372 107.832,227.942 104.616,233.513 "/>
<polygon fill="#232527" points="98.184,247.305 94.968,241.734 98.184,236.164 104.616,236.164 107.832,241.734 104.616,247.305 "/>
<polygon fill="#232527" points="85.32,31.928 82.104,26.357 85.32,20.787 91.752,20.787 94.968,26.357 91.752,31.928 "/>
<polygon fill="#232527" points="85.32,46.012 82.104,40.441 85.32,34.871 91.752,34.871 94.968,40.441 91.752,46.012 "/>
<polygon fill="#232527" points="85.32,18.012 82.104,12.441 85.32,6.871 91.752,6.871 94.968,12.441 91.752,18.012 "/>
<polygon fill="#232527" points="85.32,59.299 82.104,53.729 85.32,48.158 91.752,48.158 94.968,53.729 91.752,59.299 "/>
<polygon fill="#232527" points="85.32,73.383 82.104,67.813 85.32,62.242 91.752,62.242 94.968,67.813 91.752,73.383 "/>
<polygon fill="#232527" points="85.32,86.69 82.104,81.12 85.32,75.55 91.752,75.55 94.968,81.12 91.752,86.69 "/>
<polygon fill="#232527" points="85.32,100.774 82.104,95.204 85.32,89.634 91.752,89.634 94.968,95.204 91.752,100.774 "/>
<polygon fill="#232527" points="85.32,115.237 82.104,109.667 85.32,104.097 91.752,104.097 94.968,109.667 91.752,115.237 "/>
<polygon fill="#232527" points="85.32,129.321 82.104,123.751 85.32,118.181 91.752,118.181 94.968,123.751 91.752,129.321 "/>
<polygon fill="#232527" points="85.32,142.608 82.104,137.038 85.32,131.468 91.752,131.468 94.968,137.038 91.752,142.608 "/>
<polygon fill="#232527" points="85.32,156.692 82.104,151.122 85.32,145.552 91.752,145.552 94.968,151.122 91.752,156.692 "/>
<polygon fill="#232527" points="85.32,170 82.104,164.43 85.32,158.859 91.752,158.859 94.968,164.43 91.752,170 "/>
<polygon fill="#232527" points="85.32,184.084 82.104,178.514 85.32,172.943 91.752,172.943 94.968,178.514 91.752,184.084 "/>
<polygon fill="#232527" points="85.32,199.21 82.104,193.64 85.32,188.069 91.752,188.069 94.968,193.64 91.752,199.21 "/>
<polygon fill="#232527" points="85.32,213.294 82.104,207.724 85.32,202.153 91.752,202.153 94.968,207.724 91.752,213.294 "/>
<polygon fill="#232527" points="85.32,226.602 82.104,221.031 85.32,215.461 91.752,215.461 94.968,221.031 91.752,226.602 "/>
<polygon fill="#232527" points="85.32,240.686 82.104,235.115 85.32,229.545 91.752,229.545 94.968,235.115 91.752,240.686 "/>
<polygon fill="#232527" points="912.855,93.685 909.639,88.114 912.855,82.544 919.287,82.544 922.504,88.114 919.287,93.685 "/>
<polygon fill="#232527" points="936.479,93.685 933.262,88.114 936.479,82.544 942.91,82.544 946.127,88.114 942.91,93.685 "/>
<polygon fill="#232527" points="960.102,93.685 956.885,88.114 960.102,82.544 966.533,82.544 969.748,88.114 966.533,93.685 "/>
<polygon fill="#232527" points="983.723,93.685 980.508,88.114 983.723,82.544 990.154,82.544 993.369,88.114 990.154,93.685 "/>
<polygon fill="#232527" points="1007.346,93.685 1004.129,88.114 1007.346,82.544 1013.777,82.544 1016.992,88.114 1013.777,93.685 
	"/>
<polygon fill="#232527" points="1030.967,93.685 1027.752,88.114 1030.967,82.544 1037.398,82.544 1040.615,88.114 1037.398,93.685 
	"/>
<polygon fill="#232527" points="1054.59,93.685 1051.373,88.114 1054.59,82.544 1061.021,82.544 1064.238,88.114 1061.021,93.685 
	"/>
<polygon fill="#232527" points="1078.211,93.685 1074.994,88.114 1078.211,82.544 1084.643,82.544 1087.859,88.114 1084.643,93.685 
	"/>
<polygon fill="#232527" points="1101.834,93.685 1098.617,88.114 1101.834,82.544 1108.266,82.544 1111.48,88.114 1108.266,93.685 
	"/>
<polygon fill="#232527" points="1125.455,93.685 1122.24,88.114 1125.455,82.544 1131.889,82.544 1135.104,88.114 1131.889,93.685 
	"/>
<polygon fill="#232527" points="1149.078,93.685 1145.861,88.114 1149.078,82.544 1155.51,82.544 1158.727,88.114 1155.51,93.685 
	"/>
<polygon fill="#232527" points="1172.699,93.685 1169.482,88.114 1172.699,82.544 1179.133,82.544 1182.348,88.114 1179.133,93.685 
	"/>
<polygon fill="#232527" points="1197.373,24.838 1194.158,19.268 1197.373,13.697 1203.807,13.697 1207.021,19.268 1203.807,24.838 
	"/>
<polygon fill="#232527" points="1185.563,21.414 1182.348,26.984 1185.563,32.555 1191.994,32.555 1195.211,26.984 1191.994,21.414 
	"/>
<polygon fill="#232527" points="1197.373,38.922 1194.158,33.352 1197.373,27.781 1203.807,27.781 1207.021,33.352 1203.807,38.922 
	"/>
<polygon fill="#232527" points="1185.563,35.498 1182.348,41.068 1185.563,46.639 1191.994,46.639 1195.211,41.068 1191.994,35.498 
	"/>
<polygon fill="#232527" points="1197.373,52.209 1194.158,46.639 1197.373,41.068 1203.807,41.068 1207.021,46.639 1203.807,52.209 
	"/>
<polygon fill="#232527" points="1185.563,48.785 1182.348,54.355 1185.563,59.926 1191.994,59.926 1195.211,54.355 1191.994,48.785 
	"/>
<polygon fill="#232527" points="1197.373,66.293 1194.158,60.723 1197.373,55.152 1203.807,55.152 1207.021,60.723 1203.807,66.293 
	"/>
<polygon fill="#232527" points="1185.563,62.869 1182.348,68.439 1185.563,74.01 1191.994,74.01 1195.211,68.439 1191.994,62.869 
	"/>
<polygon fill="#232527" points="1197.373,79.601 1194.158,74.03 1197.373,68.46 1203.807,68.46 1207.021,74.03 1203.807,79.601 "/>
<polygon fill="#232527" points="1185.563,76.177 1182.348,81.747 1185.563,87.317 1191.994,87.317 1195.211,81.747 1191.994,76.177 
	"/>
<polygon fill="#232527" points="1197.373,93.685 1194.158,88.114 1197.373,82.544 1203.807,82.544 1207.021,88.114 1203.807,93.685 
	"/>
<path fill="#232426" d="M1067.014,192.267c0,0.612-0.406,1.107-0.904,1.107H877.133c-0.5,0-0.906-0.495-0.906-1.107v-28.428
	c0-0.613,0.406-1.108,0.906-1.108h188.977c0.498,0,0.904,0.495,0.904,1.108V192.267z"/>
<path fill="#060404" d="M1220.098,192.267c0,0.612-0.326,1.107-0.73,1.107h-152.332c-0.402,0-0.729-0.495-0.729-1.107v-28.428
	c0-0.613,0.326-1.108,0.729-1.108h152.332c0.404,0,0.73,0.495,0.73,1.108V192.267z"/>
<rect x="877.557" y="166.256" fill="#3D3D3F" width="167.73" height="23.594"/>
<path fill="#1C1D20" d="M908.051,177.679c0,3.025-2.371,5.479-5.299,5.479s-5.299-2.454-5.299-5.479
	c0-3.027,2.371-5.481,5.299-5.481S908.051,174.651,908.051,177.679"/>
<path fill="#EFEEEE" d="M907.287,177.679c0,2.589-2.029,4.689-4.535,4.689c-2.504,0-4.535-2.101-4.535-4.689
	c0-2.591,2.031-4.69,4.535-4.69C905.258,172.988,907.287,175.088,907.287,177.679"/>
<path fill="none" stroke="#CBCCCD" stroke-miterlimit="10" d="M901.963,175.639c-0.783,0.325-1.338,1.113-1.338,2.04
	c0,1.214,0.953,2.199,2.127,2.199c1.176,0,2.127-0.985,2.127-2.199c0-0.927-0.555-1.715-1.336-2.04"/>
<rect x="902.314" y="174.291" fill="#CBCCCD" width="0.875" height="2.811"/>
<path fill="#3D3D3F" d="M898.166,185.715c-2.305-2.003-3.627-4.933-3.627-8.036c0-3.105,1.322-6.035,3.627-8.038l0.914,1.125
	c-1.984,1.723-3.119,4.242-3.119,6.913c0,2.669,1.135,5.188,3.119,6.911L898.166,185.715z"/>
<path fill="none" stroke="#353537" stroke-miterlimit="10" d="M895.895,184.45c-2.305-1.688-3.625-4.156-3.625-6.772
	c0-2.617,1.32-5.086,3.625-6.773l0.914,0.948c-1.982,1.452-3.119,3.575-3.119,5.825c0,2.248,1.137,4.371,3.119,5.824L895.895,184.45
	z"/>
<path fill="none" stroke="#353537" stroke-miterlimit="10" d="M910.025,184.45c2.303-1.688,3.625-4.156,3.625-6.772
	c0-2.617-1.322-5.086-3.625-6.773l-0.916,0.948c1.984,1.452,3.121,3.575,3.121,5.825c0,2.248-1.137,4.371-3.121,5.824
	L910.025,184.45z"/>
<polyline fill="none" stroke="#FFFFFF" stroke-miterlimit="10" points="918.318,172.574 918.318,169.922 971.148,169.922 
	971.148,172.574 "/>
<polyline fill="none" stroke="#FFFFFF" stroke-miterlimit="10" points="918.318,182.799 918.318,185.451 971.148,185.451 
	971.148,182.799 "/>
<line fill="none" stroke="#FFFFFF" stroke-miterlimit="10" x1="922.168" y1="172.38" x2="922.168" y2="183.228"/>
<line fill="none" stroke="#FFFFFF" stroke-miterlimit="10" x1="919.979" y1="177.804" x2="922.168" y2="177.804"/>
<rect x="917.885" y="176.555" fill="#FFFFFF" width="2.793" height="2.557"/>
<rect x="923.225" y="172.38" fill="#FFFFFF" width="2.793" height="2.556"/>
<rect x="923.225" y="180.673" fill="#FFFFFF" width="2.793" height="2.555"/>
<rect x="977.033" y="171.902" fill="#848484" width="11.473" height="11.862"/>
<line fill="none" stroke="#FFFFFF" stroke-miterlimit="10" x1="922.418" y1="173.657" x2="923.775" y2="173.657"/>
<line fill="none" stroke="#FFFFFF" stroke-miterlimit="10" x1="922.418" y1="181.95" x2="923.775" y2="181.95"/>
<rect x="876.256" y="204.33" fill="#474849" stroke="#070606" stroke-miterlimit="10" width="295.176" height="35.27"/>
<rect x="1171.43" y="204.33" fill="#3D3D3F" stroke="#070606" stroke-miterlimit="10" width="48.668" height="35.27"/>
<g>
	<path fill="#E5E5E4" d="M920.447,208.989h-9.158l-0.301,1.576h2.16h0.434h3.949c0,0,0.266,4.484-2.387,5.044h-2.631l0.449-4.045
		h-2.178l-0.678,5.377h5.17C921.377,215.959,920.447,208.989,920.447,208.989z"/>
	<path fill="#E5E5E4" d="M939.672,208.989h-9.158l-0.301,1.576h2.158h0.436h3.947c0,0,0.266,4.484-2.385,5.044h-2.631l0.447-4.045
		h-2.176l-0.68,5.377h5.172C940.6,215.959,939.672,208.989,939.672,208.989z"/>
	<polygon fill="#E5E5E4" points="922.564,209.034 923.707,216.984 925.23,216.984 930.398,209.034 927.896,209.034 925.775,212.676 
		924.686,212.735 923.979,209.034 	"/>
	<rect x="919.139" y="209.034" fill="#E5E5E4" width="3.652" height="1.572"/>
</g>
<path fill="#E5E5E4" d="M923.814,220.058c-8.229,0-14.896,0.98-14.896,2.191c0,1.208,6.668,2.188,14.896,2.188
	c8.227,0,14.896-0.98,14.896-2.188C938.711,221.038,932.041,220.058,923.814,220.058z M924.234,222.611
	c-1.547,0-2.803-0.275-2.803-0.613s1.256-0.613,2.803-0.613c1.549,0,2.803,0.275,2.803,0.613S925.783,222.611,924.234,222.611z"/>
<path fill="#E5E5E4" d="M992.631,207.813h-28.695c-0.99,0-1.793,0.803-1.793,1.794v17.187c0,0.99,0.803,1.793,1.793,1.793h28.695
	c0.988,0,1.793-0.803,1.793-1.793v-17.187C994.424,208.616,993.619,207.813,992.631,207.813z M975.598,217.677
	c0,0-0.373,1.232-1.531,1.625l1.27,4.315h-1.867l-1.346-4.315h-1.736c0,0-0.188,0.076-0.375,0.318v3.997h-1.793v-3.997
	c0,0,0.15-1.234,1.252-1.85h4.072c0,0,0.803-1.869,0-3.138h-5.137v-1.85h5.379c0,0,1.346,0.336,1.813,1.867V217.677z
	 M988.348,222.123c-0.477,1.233-1.4,1.317-1.4,1.317h-2.551c-0.98-0.252-1.234-1.232-1.234-1.232
	c-0.559,1.121-1.428,1.232-1.428,1.232h-2.578c-1.037-0.392-1.316-1.681-1.316-1.681v-8.855h1.232v8.742h3.279v-8.742h1.4v8.742
	h3.223v-8.742h1.373V222.123z"/>
<path fill="#E5E5E4" d="M908.965,224.817v6.419h29.697v-6.419H908.965z M915.848,230.255h-0.283h-0.289v-3.466h-0.002l-1.23,3.466
	h-0.285h-0.285l-1.234-3.456l0,0v3.456h-0.287h-0.289v-4.096h0.428h0.424l1.248,3.484l1.238-3.484h0.424h0.424V230.255z
	 M922.227,228.752c0,0.506-0.15,0.901-0.453,1.186c-0.303,0.286-0.723,0.428-1.262,0.428c-0.561,0-0.986-0.137-1.279-0.41
	c-0.293-0.274-0.439-0.675-0.439-1.203v-2.593h0.293h0.297v2.551c0,0.38,0.096,0.671,0.289,0.868
	c0.191,0.198,0.471,0.296,0.84,0.296s0.648-0.098,0.84-0.296c0.189-0.197,0.285-0.488,0.285-0.868v-2.551h0.295h0.295V228.752z
	 M927.645,230.009v0.246h-2.805v-4.096h0.295h0.297v3.604h2.213V230.009z M932.805,226.403v0.245h-1.477v3.606h-0.293h-0.297v-3.606
	h-1.477v-0.245v-0.244h3.543V226.403z M935.963,230.255h-0.293h-0.299v-4.096h0.295h0.297V230.255z"/>
<g>
	<path fill="#E5E5E4" d="M912.625,232.309h0.18h1.063c0.283,0,0.486,0.062,0.613,0.185c0.125,0.122,0.168,0.303,0.125,0.54
		c-0.041,0.233-0.148,0.415-0.326,0.547c-0.045,0.033-0.092,0.063-0.141,0.088l0.055,0.028c0.146,0.094,0.201,0.25,0.17,0.471
		l-0.072,0.485c-0.012,0.08-0.012,0.138,0.002,0.173c0.012,0.035,0.041,0.065,0.088,0.091l-0.01,0.058h-0.443
		c-0.006-0.021-0.006-0.079,0-0.17c0.008-0.093,0.018-0.194,0.033-0.307l0.029-0.211c0.023-0.165,0.004-0.283-0.061-0.354
		c-0.063-0.07-0.182-0.106-0.354-0.106h-0.857l-0.201,1.15h-0.18h-0.182L912.625,232.309z M912.773,233.514h0.893
		c0.168,0,0.297-0.036,0.387-0.109s0.148-0.189,0.178-0.349c0.027-0.152,0.006-0.265-0.063-0.336
		c-0.07-0.072-0.193-0.107-0.369-0.107h-0.865L912.773,233.514z"/>
	<path fill="#E5E5E4" d="M914.832,234.976l0.469-2.667h1.951l-0.029,0.16l-0.027,0.159h-1.59l-0.143,0.814h1.451l-0.029,0.16
		l-0.027,0.159h-1.451l-0.158,0.895h1.609l-0.027,0.16l-0.029,0.159H914.832z"/>
	<path fill="#E5E5E4" d="M919.693,233.995c-0.104,0.328-0.275,0.586-0.514,0.772c-0.24,0.188-0.518,0.28-0.832,0.28
		c-0.369,0-0.639-0.126-0.813-0.38c-0.174-0.253-0.223-0.595-0.146-1.023c0.074-0.43,0.248-0.771,0.52-1.026
		c0.273-0.255,0.6-0.382,0.982-0.382c0.301,0,0.533,0.077,0.699,0.232c0.168,0.154,0.246,0.368,0.236,0.641h-0.348
		c-0.004-0.178-0.061-0.313-0.174-0.409c-0.113-0.096-0.271-0.145-0.477-0.145c-0.268,0-0.498,0.099-0.691,0.295
		c-0.191,0.197-0.318,0.461-0.377,0.794c-0.063,0.354-0.035,0.621,0.078,0.807c0.115,0.186,0.311,0.277,0.59,0.277
		c0.207,0,0.391-0.063,0.549-0.191c0.16-0.127,0.283-0.308,0.369-0.542H919.693z"/>
	<path fill="#E5E5E4" d="M920.232,234.661c-0.193-0.259-0.254-0.597-0.18-1.017c0.074-0.421,0.254-0.761,0.539-1.021
		c0.285-0.259,0.621-0.388,1.008-0.388c0.389,0,0.682,0.129,0.875,0.388c0.191,0.26,0.252,0.6,0.178,1.021
		c-0.074,0.42-0.254,0.758-0.537,1.017c-0.285,0.258-0.621,0.387-1.012,0.387C920.717,235.048,920.426,234.919,920.232,234.661z
		 M921.887,234.43c0.205-0.199,0.336-0.461,0.395-0.785c0.057-0.326,0.018-0.589-0.117-0.788c-0.135-0.2-0.342-0.301-0.621-0.301
		c-0.277,0-0.518,0.101-0.725,0.301c-0.205,0.199-0.336,0.462-0.395,0.788c-0.057,0.324-0.018,0.586,0.117,0.785
		c0.137,0.2,0.342,0.299,0.619,0.299C921.439,234.729,921.68,234.63,921.887,234.43z"/>
	<path fill="#E5E5E4" d="M923.359,232.309h0.18h1.061c0.283,0,0.488,0.062,0.613,0.185c0.127,0.122,0.168,0.303,0.127,0.54
		c-0.041,0.233-0.15,0.415-0.328,0.547c-0.043,0.033-0.09,0.063-0.141,0.088l0.055,0.028c0.146,0.094,0.203,0.25,0.17,0.471
		l-0.07,0.485c-0.012,0.08-0.012,0.138,0,0.173s0.041,0.065,0.09,0.091l-0.012,0.058h-0.443c-0.006-0.021-0.006-0.079,0.002-0.17
		c0.006-0.093,0.018-0.194,0.031-0.307l0.029-0.211c0.025-0.165,0.004-0.283-0.059-0.354c-0.064-0.07-0.182-0.106-0.355-0.106
		h-0.855l-0.203,1.15h-0.18h-0.182L923.359,232.309z M923.508,233.514h0.893c0.166,0,0.295-0.036,0.387-0.109
		c0.09-0.073,0.148-0.189,0.176-0.349c0.027-0.152,0.006-0.265-0.063-0.336c-0.068-0.072-0.191-0.107-0.369-0.107h-0.865
		L923.508,233.514z"/>
	<path fill="#E5E5E4" d="M926.018,232.309h0.18h0.916c0.338,0,0.586,0.121,0.744,0.363c0.156,0.24,0.199,0.565,0.127,0.973
		c-0.07,0.406-0.23,0.729-0.479,0.971c-0.246,0.24-0.545,0.36-0.893,0.36h-0.887h-0.18L926.018,232.309z M925.961,234.667h0.662
		c0.258,0,0.473-0.089,0.646-0.267c0.172-0.178,0.287-0.43,0.344-0.756c0.059-0.328,0.035-0.581-0.068-0.76
		c-0.105-0.178-0.281-0.268-0.531-0.268h-0.689L925.961,234.667z"/>
	<path fill="#E5E5E4" d="M928.688,234.976l-0.229-2.667h0.193h0.195l0.104,2.108c0.004,0.035,0.004,0.068,0.004,0.101
		s-0.002,0.056-0.004,0.067c0.002-0.015,0.01-0.039,0.021-0.072c0.012-0.032,0.025-0.064,0.039-0.096l0.936-2.108h0.203h0.203
		l0.191,2.098c0.004,0.033,0.006,0.065,0.006,0.1s-0.002,0.059-0.004,0.074c0.002-0.013,0.008-0.037,0.02-0.07
		c0.012-0.034,0.025-0.068,0.039-0.104l0.852-2.098h0.193h0.195l-1.17,2.667h-0.193h-0.193l-0.217-2.063
		c-0.002-0.035-0.006-0.069-0.006-0.104c-0.002-0.033-0.002-0.058,0.002-0.071h-0.002c-0.002,0.017-0.01,0.041-0.021,0.074
		s-0.025,0.066-0.041,0.101l-0.93,2.063h-0.193H928.688z"/>
	<path fill="#E5E5E4" d="M932.232,232.309h0.18h1.061c0.283,0,0.486,0.062,0.613,0.185c0.125,0.122,0.168,0.303,0.125,0.54
		c-0.041,0.233-0.148,0.415-0.326,0.547c-0.045,0.033-0.092,0.063-0.141,0.088l0.055,0.028c0.146,0.094,0.203,0.25,0.17,0.471
		l-0.072,0.485c-0.012,0.08-0.01,0.138,0.002,0.173s0.041,0.065,0.088,0.091l-0.01,0.058h-0.443c-0.006-0.021-0.006-0.079,0-0.17
		c0.008-0.093,0.018-0.194,0.033-0.307l0.029-0.211c0.023-0.165,0.004-0.283-0.059-0.354c-0.064-0.07-0.184-0.106-0.355-0.106
		h-0.857l-0.201,1.15h-0.18h-0.182L932.232,232.309z M932.381,233.514h0.893c0.166,0,0.295-0.036,0.385-0.109
		s0.15-0.189,0.178-0.349c0.027-0.152,0.006-0.265-0.063-0.336c-0.07-0.072-0.191-0.107-0.369-0.107h-0.865L932.381,233.514z"/>
</g>
<g>
	<path fill="#E5E5E4" stroke="#E5E5E4" stroke-width="0.25" stroke-miterlimit="10" d="M959.723,231.305h0.256h1.309
		c0.482,0,0.867,0.145,1.152,0.435c0.287,0.289,0.43,0.679,0.43,1.167c0,0.487-0.146,0.876-0.439,1.165
		c-0.293,0.288-0.688,0.433-1.184,0.433h-1.268h-0.256V231.305z M960.238,234.134h0.941c0.371,0,0.656-0.106,0.857-0.319
		c0.201-0.214,0.301-0.517,0.301-0.908c0-0.393-0.096-0.696-0.289-0.91c-0.193-0.215-0.469-0.321-0.824-0.321h-0.986V234.134z"/>
	<path fill="#E5E5E4" stroke="#E5E5E4" stroke-width="0.25" stroke-miterlimit="10" d="M963.229,231.305h0.285h0.289l1.09,2.735
		h0.004l1.088-2.735h0.285h0.285l-1.387,3.199h-0.277h-0.275L963.229,231.305z"/>
	<path fill="#E5E5E4" stroke="#E5E5E4" stroke-width="0.25" stroke-miterlimit="10" d="M967.09,231.305h0.256h1.309
		c0.482,0,0.867,0.145,1.154,0.435c0.285,0.289,0.428,0.679,0.428,1.167c0,0.487-0.146,0.876-0.439,1.165
		c-0.293,0.288-0.688,0.433-1.184,0.433h-1.268h-0.256V231.305z M967.605,234.134h0.943c0.369,0,0.654-0.106,0.855-0.319
		c0.201-0.214,0.301-0.517,0.301-0.908c0-0.393-0.096-0.696-0.289-0.91c-0.193-0.215-0.469-0.321-0.824-0.321h-0.986V234.134z"/>
	<path fill="#E5E5E4" stroke="#E5E5E4" stroke-width="0.25" stroke-miterlimit="10" d="M971.844,233.546h-1.146v-0.328h1.146v-0.964
		h0.393v0.964h1.146v0.328h-1.146v0.965h-0.393V233.546z"/>
	<path fill="#E5E5E4" stroke="#E5E5E4" stroke-width="0.25" stroke-miterlimit="10" d="M974.053,231.305h0.258h1.514
		c0.404,0,0.711,0.073,0.922,0.221s0.316,0.363,0.316,0.647c0,0.28-0.109,0.499-0.328,0.657c-0.057,0.039-0.115,0.074-0.18,0.104
		l0.086,0.035c0.23,0.111,0.352,0.3,0.359,0.563l0.021,0.583c0.004,0.096,0.018,0.165,0.043,0.207
		c0.027,0.042,0.076,0.078,0.15,0.108v0.07h-0.633c-0.014-0.026-0.027-0.095-0.041-0.205s-0.025-0.232-0.031-0.367l-0.012-0.253
		c-0.008-0.198-0.064-0.341-0.174-0.426c-0.109-0.084-0.287-0.127-0.533-0.127h-1.223v1.38h-0.256h-0.26V231.305z M974.568,232.75
		h1.275c0.238,0,0.412-0.044,0.521-0.132c0.111-0.088,0.166-0.227,0.166-0.417c0-0.184-0.059-0.319-0.174-0.404
		c-0.117-0.086-0.301-0.129-0.553-0.129h-1.236V232.75z"/>
	<path fill="#E5E5E4" stroke="#E5E5E4" stroke-width="0.25" stroke-miterlimit="10" d="M978.891,234.567
		c-0.391,0-0.699-0.104-0.924-0.313s-0.338-0.498-0.338-0.866c0-0.392,0.119-0.703,0.357-0.935c0.236-0.231,0.557-0.348,0.957-0.348
		c0.361,0,0.654,0.113,0.877,0.34s0.334,0.523,0.334,0.893l-0.006,0.139h-2.023c0.02,0.232,0.082,0.409,0.189,0.531
		c0.131,0.147,0.338,0.222,0.621,0.222c0.178,0,0.332-0.042,0.465-0.126s0.215-0.191,0.244-0.322h0.461
		c-0.068,0.256-0.207,0.45-0.414,0.584C979.484,234.5,979.217,234.567,978.891,234.567z M979.668,233.161
		c-0.014-0.216-0.076-0.385-0.191-0.505c-0.125-0.134-0.311-0.2-0.553-0.2c-0.246,0-0.441,0.077-0.588,0.23
		c-0.117,0.121-0.188,0.278-0.211,0.475H979.668z"/>
	<path fill="#E5E5E4" stroke="#E5E5E4" stroke-width="0.25" stroke-miterlimit="10" d="M981.449,234.504l-0.996-3.199h0.277h0.279
		l0.678,2.529c0.012,0.042,0.021,0.082,0.029,0.12c0.008,0.039,0.012,0.066,0.012,0.082c0-0.019,0.004-0.048,0.014-0.087
		c0.008-0.039,0.02-0.078,0.031-0.115l0.805-2.529h0.291h0.289l0.801,2.516c0.014,0.039,0.025,0.079,0.033,0.12
		c0.008,0.04,0.014,0.07,0.014,0.089h-0.002c0-0.016,0.004-0.044,0.012-0.085c0.008-0.04,0.018-0.082,0.031-0.124l0.686-2.516h0.277
		h0.277l-0.996,3.199h-0.277h-0.277l-0.826-2.475c-0.014-0.042-0.025-0.083-0.037-0.124c-0.01-0.04-0.016-0.068-0.016-0.085
		c0,0.02-0.004,0.049-0.014,0.088c-0.008,0.04-0.02,0.081-0.033,0.121l-0.807,2.475h-0.277H981.449z"/>
	<path fill="#E5E5E4" stroke="#E5E5E4" stroke-width="0.25" stroke-miterlimit="10" d="M985.781,232.175h0.221h0.223v0.398
		c0.039-0.063,0.082-0.119,0.127-0.17c0.176-0.198,0.393-0.298,0.65-0.298c0.043,0,0.086,0.007,0.131,0.02v0.4l-0.096-0.002
		c-0.252,0-0.445,0.063-0.584,0.19c-0.137,0.127-0.205,0.308-0.205,0.543v1.247h-0.232h-0.234V232.175z"/>
	<path fill="#E5E5E4" stroke="#E5E5E4" stroke-width="0.25" stroke-miterlimit="10" d="M987.494,231.305h0.477v0.444h-0.477V231.305
		z M987.498,232.175h0.234h0.232v2.329h-0.232h-0.234V232.175z"/>
	<path fill="#E5E5E4" stroke="#E5E5E4" stroke-width="0.25" stroke-miterlimit="10" d="M989.68,234.502
		c-0.16,0.021-0.275,0.03-0.348,0.03c-0.203,0-0.348-0.038-0.432-0.113s-0.125-0.205-0.125-0.39v-1.534h-0.383v-0.32h0.383v-0.652
		h0.467v0.652h0.438v0.32h-0.438v1.534c0,0.053,0.023,0.094,0.074,0.124c0.049,0.03,0.115,0.046,0.197,0.046h0.166V234.502z"/>
	<path fill="#E5E5E4" stroke="#E5E5E4" stroke-width="0.25" stroke-miterlimit="10" d="M990.865,234.567
		c-0.271,0-0.486-0.062-0.645-0.184c-0.158-0.121-0.238-0.286-0.238-0.493c0-0.209,0.074-0.375,0.225-0.499
		c0.148-0.123,0.367-0.2,0.652-0.23l0.635-0.067c0.053-0.005,0.102-0.012,0.148-0.021c0.061-0.014,0.107-0.039,0.139-0.079
		c0.033-0.039,0.051-0.088,0.051-0.147v-0.02c0-0.125-0.057-0.223-0.17-0.293c-0.111-0.07-0.268-0.105-0.469-0.105
		c-0.191,0-0.34,0.037-0.449,0.112c-0.107,0.074-0.172,0.186-0.195,0.334h-0.43c0.023-0.256,0.131-0.447,0.322-0.576
		c0.191-0.128,0.465-0.192,0.822-0.192c0.338,0,0.594,0.062,0.77,0.184c0.176,0.123,0.264,0.302,0.264,0.537v1.279
		c0,0.039,0.016,0.071,0.043,0.095c0.029,0.024,0.066,0.036,0.115,0.036c0.014,0,0.035-0.002,0.061-0.005
		c0.027-0.003,0.057-0.007,0.088-0.013v0.283c-0.045,0.015-0.094,0.026-0.143,0.034c-0.051,0.009-0.092,0.014-0.127,0.014
		c-0.176,0-0.305-0.041-0.383-0.122c-0.053-0.054-0.09-0.13-0.111-0.229c-0.035,0.036-0.074,0.071-0.119,0.104
		C991.486,234.479,991.201,234.567,990.865,234.567z M991.832,233.581v-0.252c-0.088,0.034-0.184,0.059-0.289,0.071l-0.426,0.053
		c-0.225,0.025-0.389,0.069-0.492,0.131c-0.104,0.063-0.156,0.146-0.156,0.252c0,0.131,0.043,0.23,0.127,0.301
		c0.084,0.071,0.205,0.106,0.359,0.106c0.246,0,0.453-0.057,0.623-0.168c0.115-0.078,0.191-0.167,0.23-0.266
		c0.006-0.019,0.012-0.049,0.016-0.089C991.828,233.679,991.832,233.632,991.832,233.581z"/>
	<path fill="#E5E5E4" stroke="#E5E5E4" stroke-width="0.25" stroke-miterlimit="10" d="M993.049,231.305h0.232h0.232v1.173
		c0.205-0.251,0.469-0.375,0.791-0.372c0.361,0,0.648,0.105,0.861,0.314c0.211,0.21,0.316,0.493,0.316,0.85
		c0,0.405-0.105,0.723-0.32,0.952c-0.213,0.23-0.508,0.346-0.887,0.346c-0.313,0-0.561-0.102-0.746-0.303l-0.043-0.048v0.287h-0.438
		V231.305z M994.252,234.228c0.244,0,0.43-0.077,0.555-0.231c0.127-0.155,0.189-0.38,0.189-0.676c0-0.292-0.061-0.508-0.182-0.647
		c-0.121-0.141-0.307-0.21-0.559-0.21c-0.258,0-0.445,0.079-0.564,0.237c-0.117,0.158-0.178,0.408-0.178,0.75
		c0,0.248,0.064,0.44,0.193,0.575C993.834,234.16,994.016,234.228,994.252,234.228z"/>
	<path fill="#E5E5E4" stroke="#E5E5E4" stroke-width="0.25" stroke-miterlimit="10" d="M996.045,231.305h0.232h0.234v3.199h-0.234
		h-0.232V231.305z"/>
	<path fill="#E5E5E4" stroke="#E5E5E4" stroke-width="0.25" stroke-miterlimit="10" d="M998.342,234.567
		c-0.393,0-0.701-0.104-0.924-0.313c-0.225-0.209-0.338-0.498-0.338-0.866c0-0.392,0.119-0.703,0.357-0.935
		c0.236-0.231,0.555-0.348,0.955-0.348c0.363,0,0.656,0.113,0.879,0.34s0.334,0.523,0.334,0.893l-0.006,0.139h-2.023
		c0.02,0.232,0.082,0.409,0.189,0.531c0.131,0.147,0.338,0.222,0.621,0.222c0.178,0,0.332-0.042,0.465-0.126
		s0.215-0.191,0.244-0.322h0.461c-0.07,0.256-0.207,0.45-0.414,0.584C998.936,234.5,998.668,234.567,998.342,234.567z
		 M999.119,233.161c-0.014-0.216-0.078-0.385-0.191-0.505c-0.125-0.134-0.311-0.2-0.555-0.2s-0.441,0.077-0.588,0.23
		c-0.115,0.121-0.186,0.278-0.209,0.475H999.119z"/>
</g>
<path fill="#BDCCE8" stroke="#0E0E0E" stroke-width="0.75" stroke-miterlimit="10" d="M1095.012,230.997
	c0,0.99-0.803,1.793-1.793,1.793h-22.643c-0.99,0-1.793-0.803-1.793-1.793v-6.613c0-0.99,0.803-1.793,1.793-1.793h22.643
	c0.99,0,1.793,0.803,1.793,1.793V230.997z"/>
<rect x="1051.971" y="228.419" fill="#8C8C8C" width="8.631" height="6.165"/>
<g>
	<defs>
		<path id="SVGID_1_" d="M1074.031,166.822c4.266,0,7.725,4.403,7.725,9.838c0,5.428-3.453,9.829-7.715,9.836h135.637h0.012h0.01
			c4.262-0.007,7.713-4.408,7.713-9.836c0-5.435-3.455-9.838-7.723-9.838H1074.031z"/>
	</defs>
	<clipPath id="SVGID_2_">
		<use xlink:href="#SVGID_1_"  overflow="visible"/>
	</clipPath>
	
		<linearGradient id="SVGID_3_" gradientUnits="userSpaceOnUse" x1="1.9023" y1="251.9141" x2="2.4788" y2="251.9141" gradientTransform="matrix(0 32.5937 32.5937 0 -7065.125 105.1563)">
		<stop  offset="0" style="stop-color:#1C1D20"/>
		<stop  offset="0.5094" style="stop-color:#383A3C"/>
		<stop  offset="1" style="stop-color:#1C1D20"/>
	</linearGradient>
	<rect x="1074.031" y="166.822" clip-path="url(#SVGID_2_)" fill="url(#SVGID_3_)" width="143.381" height="19.674"/>
</g>
<path fill="#FBFBFD" d="M1106.063,180.563v-2.25h0.797l0.197,1.497l0.121,0.184c0.109,0.024,0.215,0.042,0.324,0.055
	c0.107,0.01,0.217,0.016,0.328,0.016c0.332,0,0.594-0.101,0.789-0.305s0.293-0.475,0.293-0.815c0-0.11-0.012-0.217-0.039-0.317
	s-0.066-0.193-0.115-0.276c-0.135-0.208-0.418-0.433-0.852-0.67c-0.213-0.11-0.375-0.204-0.49-0.277
	c-0.445-0.281-0.771-0.608-0.979-0.978c-0.203-0.37-0.307-0.814-0.307-1.331c0-0.768,0.201-1.386,0.605-1.852
	c0.406-0.467,0.947-0.7,1.629-0.7c0.283,0,0.582,0.041,0.891,0.124c0.311,0.083,0.625,0.205,0.945,0.361v2.053h-0.797l-0.174-1.346
	l-0.104-0.147c-0.078-0.036-0.16-0.063-0.246-0.08s-0.176-0.029-0.27-0.029c-0.324,0-0.578,0.099-0.764,0.293
	c-0.184,0.194-0.275,0.456-0.275,0.788c0,0.456,0.354,0.893,1.061,1.313c0.08,0.046,0.143,0.085,0.184,0.112
	c0.633,0.376,1.051,0.734,1.256,1.077c0.205,0.342,0.307,0.784,0.307,1.325c0,0.795-0.219,1.43-0.662,1.904
	c-0.439,0.475-1.035,0.712-1.785,0.712c-0.252,0-0.527-0.035-0.828-0.106C1106.803,180.823,1106.457,180.713,1106.063,180.563"/>
<path fill="#FBFBFD" d="M1110.779,174.886h2.572v0.6l-0.436,0.083l-0.08,0.147l0.885,3.145l0.852-3.133l-0.088-0.159l-0.461-0.083
	v-0.6h1.828v0.6l-0.475,0.119l-1.664,5.504c-0.225,0.741-0.516,1.335-0.875,1.783s-0.719,0.673-1.082,0.673
	c-0.238,0-0.439-0.113-0.607-0.339c-0.17-0.225-0.254-0.493-0.254-0.807c0-0.252,0.064-0.475,0.189-0.666
	c0.123-0.192,0.293-0.325,0.508-0.4l0.73,0.983c0.127-0.109,0.246-0.259,0.357-0.444s0.217-0.42,0.32-0.698l-1.697-5.566
	l-0.523-0.142V174.886z"/>
<path fill="#FBFBFD" d="M1119.678,174.998v1.856h-0.615l-0.113-0.96l-0.113-0.167c-0.115-0.074-0.225-0.129-0.326-0.167
	c-0.105-0.035-0.205-0.053-0.299-0.053c-0.201,0-0.361,0.06-0.479,0.176s-0.176,0.272-0.176,0.466c0,0.344,0.258,0.65,0.771,0.919
	c0.168,0.087,0.297,0.158,0.391,0.215c0.449,0.26,0.756,0.517,0.92,0.771c0.162,0.251,0.244,0.574,0.244,0.967
	c0,0.563-0.188,1.035-0.564,1.417c-0.375,0.384-0.848,0.577-1.418,0.577c-0.27,0-0.561-0.03-0.865-0.09
	c-0.307-0.059-0.627-0.147-0.963-0.267v-2.03h0.615l0.105,1.109l0.098,0.155c0.15,0.103,0.301,0.18,0.449,0.229
	c0.15,0.05,0.301,0.074,0.451,0.074c0.197,0,0.352-0.063,0.467-0.189c0.117-0.128,0.174-0.298,0.174-0.512
	c0-0.307-0.199-0.582-0.602-0.824c-0.09-0.055-0.158-0.097-0.201-0.125c-0.623-0.388-1.031-0.717-1.221-0.986
	c-0.189-0.271-0.285-0.598-0.285-0.982c0-0.565,0.176-1.024,0.527-1.376c0.35-0.354,0.813-0.529,1.389-0.529
	c0.219,0,0.461,0.027,0.732,0.081C1119.041,174.807,1119.342,174.888,1119.678,174.998"/>
<path fill="#FBFBFD" d="M1120.941,175.905h-0.617v-0.558l0.736-0.652l0.543-1.411h0.762v1.727h1.305v0.895h-1.305v2.836
	c0,0.416,0.057,0.695,0.17,0.84c0.113,0.144,0.332,0.218,0.656,0.218c0.066,0,0.139-0.008,0.219-0.02
	c0.076-0.011,0.164-0.029,0.26-0.053v0.7c-0.307,0.162-0.59,0.285-0.857,0.37s-0.504,0.129-0.711,0.129
	c-0.227,0-0.428-0.05-0.604-0.148c-0.178-0.101-0.314-0.239-0.412-0.423c-0.053-0.099-0.09-0.239-0.111-0.424
	c-0.023-0.184-0.033-0.475-0.033-0.875V175.905z"/>
<path fill="#FBFBFD" d="M1128.457,179.139v1.122c-0.328,0.232-0.664,0.405-1.006,0.519c-0.344,0.114-0.709,0.169-1.09,0.169
	c-0.717,0-1.285-0.282-1.705-0.846s-0.631-1.322-0.631-2.274c0-0.953,0.217-1.72,0.65-2.299c0.432-0.579,1.006-0.869,1.717-0.869
	c0.664,0,1.178,0.266,1.541,0.795c0.365,0.53,0.547,1.276,0.547,2.242v0.155h-2.957c0.006,0.601,0.125,1.074,0.35,1.422
	c0.223,0.35,0.523,0.523,0.898,0.523c0.289,0,0.574-0.055,0.85-0.163C1127.898,179.525,1128.178,179.361,1128.457,179.139
	 M1126.951,177.087c0-0.562-0.053-0.976-0.158-1.24c-0.109-0.265-0.271-0.397-0.492-0.397c-0.248,0-0.436,0.133-0.561,0.4
	c-0.125,0.267-0.188,0.664-0.188,1.188v0.049H1126.951z"/>
<path fill="#FBFBFD" d="M1133.646,175.556c0.361-0.287,0.682-0.505,0.965-0.646c0.281-0.143,0.527-0.214,0.738-0.214
	c0.426,0,0.74,0.178,0.941,0.531c0.203,0.354,0.303,0.912,0.303,1.677v3.09l0.084,0.153l0.475,0.061v0.646h-2.416v-0.646
	l0.336-0.061l0.104-0.153v-2.591c0-0.531-0.066-0.897-0.199-1.096c-0.133-0.201-0.365-0.3-0.701-0.3
	c-0.121,0-0.219,0.007-0.299,0.021c-0.082,0.016-0.152,0.035-0.217,0.063v3.903l0.105,0.166l0.377,0.066v0.628h-2.293v-0.669
	l0.309-0.025l0.102-0.207v-2.706c0-0.435-0.068-0.749-0.203-0.945c-0.135-0.195-0.354-0.294-0.656-0.294h-0.154
	c-0.088,0-0.154,0.004-0.203,0.008c-0.045,0.007-0.09,0.015-0.129,0.028v3.95l0.109,0.153l0.318,0.061v0.646h-2.402v-0.646
	l0.445-0.061l0.096-0.153v-3.998h-0.541v-0.599l1.477-0.701h0.498v0.79c0.322-0.269,0.609-0.469,0.859-0.598
	c0.252-0.128,0.48-0.192,0.684-0.192c0.229,0,0.43,0.067,0.602,0.204S1133.492,175.255,1133.646,175.556"/>
<polygon fill="#FBFBFD" points="1140.111,174.861 1142.484,174.861 1142.484,175.425 1142.215,175.508 1142.182,175.651 
	1142.869,176.979 1143.574,175.593 1143.211,175.485 1143.211,174.861 1144.877,174.861 1144.877,175.544 1144.377,175.593 
	1143.271,177.478 1144.621,180.111 1145.049,180.236 1145.049,180.854 1142.773,180.854 1142.773,180.343 1143.033,180.207 
	1143.066,180.088 1142.311,178.618 1141.529,180.146 1141.879,180.236 1141.879,180.854 1140.111,180.854 1140.111,180.236 
	1140.672,180.063 1141.879,178.046 1140.592,175.593 1140.111,175.544 "/>
<path fill="#FBFBFD" d="M1148.248,176.553c0.584,0.048,1.033,0.248,1.352,0.603c0.314,0.354,0.473,0.832,0.473,1.438
	c0,0.694-0.236,1.272-0.705,1.731c-0.469,0.46-1.07,0.688-1.803,0.688c-0.656,0-1.176-0.149-1.561-0.451
	c-0.385-0.301-0.578-0.7-0.578-1.203c0-0.31,0.072-0.558,0.213-0.747c0.141-0.19,0.328-0.286,0.561-0.286
	c0.076,0,0.156,0.009,0.236,0.03c0.082,0.02,0.166,0.049,0.252,0.089l0.291,1.596c0.107,0.031,0.203,0.056,0.283,0.071
	s0.148,0.024,0.207,0.024c0.307,0,0.557-0.139,0.746-0.414c0.189-0.274,0.285-0.634,0.285-1.083c0-0.45-0.109-0.806-0.33-1.064
	c-0.219-0.259-0.52-0.388-0.898-0.388c-0.102,0-0.197,0.009-0.293,0.023c-0.096,0.016-0.189,0.04-0.281,0.071v-1.056
	c0.063,0.012,0.121,0.021,0.176,0.026c0.057,0.006,0.109,0.009,0.158,0.009c0.393,0,0.699-0.122,0.922-0.364
	c0.221-0.242,0.334-0.578,0.334-1.001c0-0.45-0.102-0.805-0.303-1.064c-0.201-0.259-0.479-0.389-0.834-0.389
	c-0.018,0-0.043,0.002-0.074,0.006c-0.035,0.004-0.061,0.006-0.082,0.006v1.697c-0.098,0.071-0.195,0.124-0.295,0.157
	c-0.1,0.034-0.201,0.051-0.305,0.051c-0.242,0-0.436-0.091-0.582-0.273c-0.143-0.182-0.213-0.424-0.213-0.723
	c0-0.527,0.199-0.959,0.602-1.295c0.4-0.335,0.926-0.503,1.576-0.503c0.631,0,1.133,0.187,1.506,0.56
	c0.375,0.375,0.563,0.869,0.563,1.48c0,0.503-0.139,0.923-0.416,1.261C1149.154,176.205,1148.76,176.435,1148.248,176.553"/>
<path fill="#FBFBFD" d="M1156.992,172.703h3.811v1.566h-2.955v1.69c0.23-0.115,0.447-0.202,0.658-0.259
	c0.209-0.058,0.41-0.087,0.604-0.087c0.623,0,1.127,0.227,1.508,0.677s0.572,1.045,0.572,1.779c0,0.895-0.244,1.605-0.73,2.137
	c-0.486,0.529-1.145,0.795-1.975,0.795c-0.561,0-1.018-0.15-1.365-0.453c-0.35-0.303-0.525-0.688-0.525-1.155
	c0-0.319,0.078-0.585,0.23-0.798c0.154-0.21,0.35-0.317,0.588-0.317c0.076,0,0.156,0.012,0.242,0.036
	c0.086,0.023,0.184,0.059,0.291,0.107l0.254,1.703c0.01,0,0.023,0.002,0.043,0.005c0.08,0.013,0.143,0.017,0.184,0.017
	c0.365,0,0.668-0.158,0.902-0.48c0.232-0.319,0.352-0.731,0.352-1.233c0-0.485-0.135-0.881-0.406-1.182
	c-0.271-0.304-0.629-0.455-1.074-0.455c-0.184,0-0.377,0.024-0.576,0.075c-0.203,0.048-0.414,0.121-0.631,0.216V172.703z"/>
<path fill="#FBFBFD" d="M1164.459,172.554c0.754,0,1.35,0.377,1.785,1.128s0.654,1.781,0.654,3.09c0,1.31-0.219,2.341-0.654,3.097
	c-0.436,0.755-1.031,1.134-1.785,1.134c-0.742,0-1.332-0.376-1.758-1.13c-0.43-0.754-0.645-1.787-0.645-3.101
	c0-1.309,0.213-2.339,0.641-3.09S1163.711,172.554,1164.459,172.554 M1164.467,173.343c-0.287,0-0.5,0.28-0.639,0.84
	c-0.139,0.561-0.207,1.418-0.207,2.578c0,1.197,0.066,2.069,0.203,2.615c0.135,0.547,0.35,0.819,0.643,0.819
	c0.301,0,0.518-0.272,0.654-0.819c0.137-0.546,0.205-1.418,0.205-2.615c0-1.184-0.068-2.049-0.207-2.597
	C1164.979,173.617,1164.764,173.343,1164.467,173.343"/>
<g>
	<path fill="#FDFDFE" stroke="#FBFBFD" stroke-miterlimit="10" d="M1152.813,176.411c0.229-0.123,0.455-0.179,0.703-0.179
		c1.104,0,1.861,0.94,1.861,2.005c0,1.276-0.832,2.329-2.098,2.329c-1.051,0-2.014-0.975-2.014-2.665
		c0-1.882,1.072-3.774,3.916-4.357l0.055,0.235c-0.389,0.067-0.768,0.19-1.168,0.37c-0.746,0.336-1.699,1.086-2.066,2.654
		L1152.813,176.411z M1151.947,177.072c-0.043,0.213-0.053,0.471-0.053,0.772c0,1.344,0.529,2.476,1.59,2.476
		c1.027,0,1.299-1.03,1.299-1.792c0-0.829-0.445-1.848-1.592-1.848C1152.748,176.681,1152.316,176.849,1151.947,177.072z"/>
</g>
<g>
	<path fill="#FDFDFE" stroke="#FBFBFD" stroke-miterlimit="10" d="M1184.875,179.223c-0.119,0.347-0.205,0.694-0.336,1.221h-3.797
		v-0.179c0.596-0.616,1.201-1.244,1.721-1.882c0.563-0.672,1.449-1.546,1.449-2.666c0-1.019-0.508-1.557-1.363-1.557
		c-0.811,0-1.266,0.672-1.504,1.042l-0.162-0.135l0.584-0.84c0.293-0.313,0.779-0.594,1.352-0.594c0.855,0,1.678,0.627,1.678,1.714
		c0,0.985-0.508,1.69-1.373,2.654l-1.678,1.893h2.229c0.541,0,0.703-0.056,0.984-0.739L1184.875,179.223z"/>
</g>
<g>
	<path fill="#FDFDFE" stroke="#FBFBFD" stroke-miterlimit="10" d="M1170.439,173.433h1.373l2.855,5.936l2.867-5.936h1.559v0.156
		c-1.006,0.101-1.104,0.213-1.061,1.333l0.076,3.976c0.031,1.154,0.076,1.3,1.092,1.389v0.157h-2.65v-0.157
		c0.953-0.078,0.984-0.224,0.975-1.389l-0.043-4.704h-0.045l-2.932,6.127h-0.098l-2.66-5.746h-0.021l-0.141,3.024
		c-0.033,0.526-0.043,0.907-0.043,1.21c0,1.075,0.107,1.377,1.113,1.478v0.157h-2.607v-0.157c0.672-0.056,0.898-0.246,0.984-0.694
		c0.076-0.336,0.162-1.008,0.238-2.161l0.152-2.05c0.01-0.303,0.021-0.549,0.021-0.75c0-0.796-0.184-0.941-1.006-1.042V173.433z"/>
</g>
<g>
	<defs>
		<path id="SVGID_4_" d="M1076.742,166.823L1076.742,166.823l-8.498-0.001c1.893,0,3.426,4.441,3.426,9.923
			c0,5.475-1.531,9.914-3.422,9.921h8.494h0.01c1.891-0.007,3.424-4.446,3.424-9.921c0-5.481-1.537-9.923-3.43-9.923l-0.002,0.001"
			/>
	</defs>
	<clipPath id="SVGID_5_">
		<use xlink:href="#SVGID_4_"  overflow="visible"/>
	</clipPath>
	
		<linearGradient id="SVGID_6_" gradientUnits="userSpaceOnUse" x1="1.8701" y1="251.5322" x2="2.4517" y2="251.5322" gradientTransform="matrix(0 33.5455 33.5455 0 -7363.5625 104.1719)">
		<stop  offset="0" style="stop-color:#455177"/>
		<stop  offset="0.5379" style="stop-color:#C0CFEA"/>
		<stop  offset="1" style="stop-color:#455177"/>
	</linearGradient>
	<rect x="1068.244" y="166.822" clip-path="url(#SVGID_5_)" fill="url(#SVGID_6_)" width="11.932" height="19.844"/>
</g>
<rect x="240.132" y="16.28" fill="#060404" width="578.208" height="216.51"/>
<g>
	<rect x="618.603" y="17.838" fill="#3D3D3F" width="197.851" height="210.333"/>
	<polygon fill="#232527" points="636.787,47.854 632.907,54.574 636.787,61.296 644.549,61.296 648.43,54.574 644.549,47.854 	"/>
	<polygon fill="#232527" points="636.787,64.848 632.907,71.569 636.787,78.29 644.549,78.29 648.43,71.569 644.549,64.848 	"/>
	<polygon fill="#232527" points="636.787,80.88 632.907,87.602 636.787,94.322 644.549,94.322 648.43,87.602 644.549,80.88 	"/>
	<polygon fill="#232527" points="636.787,97.874 632.907,104.596 636.787,111.316 644.549,111.316 648.43,104.596 644.549,97.874 	
		"/>
	<polygon fill="#232527" points="636.787,113.931 632.907,120.653 636.787,127.374 644.549,127.374 648.43,120.653 644.549,113.931 
			"/>
	<polygon fill="#232527" points="636.787,130.925 632.907,137.646 636.787,144.367 644.549,144.367 648.43,137.646 644.549,130.925 
			"/>
	<polygon fill="#232527" points="636.787,146.957 632.907,153.679 636.787,160.4 644.549,160.4 648.43,153.679 644.549,146.957 	"/>
	<polygon fill="#232527" points="636.787,163.951 632.907,170.673 636.787,177.394 644.549,177.394 648.43,170.673 644.549,163.951 
			"/>
	<polygon fill="#232527" points="636.787,180.341 632.907,187.062 636.787,193.783 644.549,193.783 648.43,187.062 644.549,180.341 
			"/>
	<polygon fill="#232527" points="636.787,197.335 632.907,204.056 636.787,210.777 644.549,210.777 648.43,204.056 644.549,197.335 
			"/>
	<polygon fill="#232527" points="667.277,47.854 663.398,54.574 667.277,61.296 675.039,61.296 678.92,54.574 675.039,47.854 	"/>
	<polygon fill="#232527" points="667.277,64.848 663.398,71.569 667.277,78.29 675.039,78.29 678.92,71.569 675.039,64.848 	"/>
	<polygon fill="#232527" points="667.277,80.88 663.398,87.602 667.277,94.322 675.039,94.322 678.92,87.602 675.039,80.88 	"/>
	<polygon fill="#232527" points="667.277,97.874 663.398,104.596 667.277,111.316 675.039,111.316 678.92,104.596 675.039,97.874 	
		"/>
	<polygon fill="#232527" points="698.32,47.854 694.441,54.574 698.32,61.296 706.082,61.296 709.963,54.574 706.082,47.854 	"/>
	<polygon fill="#232527" points="698.32,64.848 694.441,71.569 698.32,78.29 706.082,78.29 709.963,71.569 706.082,64.848 	"/>
	<polygon fill="#232527" points="698.32,80.88 694.441,87.602 698.32,94.322 706.082,94.322 709.963,87.602 706.082,80.88 	"/>
	<polygon fill="#232527" points="698.32,97.874 694.441,104.596 698.32,111.316 706.082,111.316 709.963,104.596 706.082,97.874 	
		"/>
	<polygon fill="#232527" points="698.32,114.543 694.441,121.264 698.32,127.985 706.082,127.985 709.963,121.264 706.082,114.543 	
		"/>
	<polygon fill="#232527" points="698.32,130.334 694.441,137.055 698.32,143.776 706.082,143.776 709.963,137.055 706.082,130.334 	
		"/>
	<polygon fill="#232527" points="729.365,47.854 725.484,54.574 729.365,61.296 737.127,61.296 741.006,54.574 737.127,47.854 	"/>
	<polygon fill="#232527" points="729.365,64.848 725.484,71.569 729.365,78.29 737.127,78.29 741.006,71.569 737.127,64.848 	"/>
	<polygon fill="#232527" points="729.365,80.88 725.484,87.602 729.365,94.322 737.127,94.322 741.006,87.602 737.127,80.88 	"/>
	<polygon fill="#232527" points="729.365,97.874 725.484,104.596 729.365,111.316 737.127,111.316 741.006,104.596 737.127,97.874 	
		"/>
	<polygon fill="#232527" points="729.365,114.543 725.484,121.264 729.365,127.985 737.127,127.985 741.006,121.264 
		737.127,114.543 	"/>
	<polygon fill="#232527" points="729.365,130.925 725.484,137.646 729.365,144.367 737.127,144.367 741.006,137.646 
		737.127,130.925 	"/>
	<polygon fill="#232527" points="667.277,113.931 663.398,120.653 667.277,127.374 675.039,127.374 678.92,120.653 675.039,113.931 
			"/>
	<polygon fill="#232527" points="667.277,130.925 663.398,137.646 667.277,144.367 675.039,144.367 678.92,137.646 675.039,130.925 
			"/>
	<polygon fill="#232527" points="667.277,146.957 663.398,153.679 667.277,160.4 675.039,160.4 678.92,153.679 675.039,146.957 	"/>
	<polygon fill="#232527" points="667.277,163.951 663.398,170.673 667.277,177.394 675.039,177.394 678.92,170.673 675.039,163.951 
			"/>
	<polygon fill="#232527" points="667.277,180.341 663.398,187.062 667.277,193.783 675.039,193.783 678.92,187.062 675.039,180.341 
			"/>
	<polygon fill="#232527" points="667.277,197.335 663.398,204.056 667.277,210.777 675.039,210.777 678.92,204.056 675.039,197.335 
			"/>
	<polygon fill="#232527" points="651.756,56.185 647.875,62.905 651.756,69.626 659.518,69.626 663.398,62.905 659.518,56.185 	"/>
	<polygon fill="#232527" points="651.756,73.179 647.875,79.899 651.756,86.62 659.518,86.62 663.398,79.899 659.518,73.179 	"/>
	<polygon fill="#232527" points="651.756,89.211 647.875,95.932 651.756,102.653 659.518,102.653 663.398,95.932 659.518,89.211 	
		"/>
	<polygon fill="#232527" points="651.756,106.205 647.875,112.926 651.756,119.647 659.518,119.647 663.398,112.926 
		659.518,106.205 	"/>
	<polygon fill="#232527" points="651.756,122.262 647.875,128.983 651.756,135.704 659.518,135.704 663.398,128.983 
		659.518,122.262 	"/>
	<polygon fill="#232527" points="682.799,56.185 678.92,62.905 682.799,69.626 690.561,69.626 694.441,62.905 690.561,56.185 	"/>
	<polygon fill="#232527" points="682.799,73.179 678.92,79.899 682.799,86.62 690.561,86.62 694.441,79.899 690.561,73.179 	"/>
	<polygon fill="#232527" points="682.799,89.211 678.92,95.932 682.799,102.653 690.561,102.653 694.441,95.932 690.561,89.211 	"/>
	<polygon fill="#232527" points="682.799,106.205 678.92,112.926 682.799,119.647 690.561,119.647 694.441,112.926 690.561,106.205 
			"/>
	<polygon fill="#232527" points="713.844,56.185 709.963,62.905 713.844,69.626 721.605,69.626 725.484,62.905 721.605,56.185 	"/>
	<polygon fill="#232527" points="713.844,73.179 709.963,79.899 713.844,86.62 721.605,86.62 725.484,79.899 721.605,73.179 	"/>
	<polygon fill="#232527" points="713.844,89.211 709.963,95.932 713.844,102.653 721.605,102.653 725.484,95.932 721.605,89.211 	
		"/>
	<polygon fill="#232527" points="713.844,122.263 709.963,128.983 713.844,135.704 721.605,135.704 725.484,128.983 
		721.605,122.263 	"/>
	<polygon fill="#232527" points="713.844,106.205 709.963,112.926 713.844,119.647 721.605,119.647 725.484,112.926 
		721.605,106.205 	"/>
	<polygon fill="#232527" points="682.799,122.262 678.92,128.983 682.799,135.704 690.561,135.704 694.441,128.983 690.561,122.262 
			"/>
	<polygon fill="#232527" points="651.756,139.256 647.875,145.977 651.756,152.698 659.518,152.698 663.398,145.977 
		659.518,139.256 	"/>
	<polygon fill="#232527" points="651.756,155.288 647.875,162.009 651.756,168.731 659.518,168.731 663.398,162.009 
		659.518,155.288 	"/>
	<polygon fill="#232527" points="651.756,172.282 647.875,179.003 651.756,185.725 659.518,185.725 663.398,179.003 
		659.518,172.282 	"/>
	<polygon fill="#232527" points="651.756,188.672 647.875,195.393 651.756,202.113 659.518,202.113 663.398,195.393 
		659.518,188.672 	"/>
	<polygon fill="#232527" points="760.408,47.854 756.529,54.574 760.408,61.296 768.17,61.296 772.051,54.574 768.17,47.854 	"/>
	<polygon fill="#232527" points="760.408,64.848 756.529,71.569 760.408,78.29 768.17,78.29 772.051,71.569 768.17,64.848 	"/>
	<polygon fill="#232527" points="760.408,80.88 756.529,87.602 760.408,94.322 768.17,94.322 772.051,87.602 768.17,80.88 	"/>
	<polygon fill="#232527" points="760.408,97.874 756.529,104.596 760.408,111.316 768.17,111.316 772.051,104.596 768.17,97.874 	
		"/>
	<polygon fill="#232527" points="760.408,113.931 756.529,120.653 760.408,127.374 768.17,127.374 772.051,120.653 768.17,113.931 	
		"/>
	<polygon fill="#232527" points="760.408,130.925 756.529,137.646 760.408,144.367 768.17,144.367 772.051,137.646 768.17,130.925 	
		"/>
	<polygon fill="#232527" points="760.408,146.957 756.529,153.679 760.408,160.4 768.17,160.4 772.051,153.679 768.17,146.957 	"/>
	<polygon fill="#232527" points="760.408,163.951 756.529,170.673 760.408,177.394 768.17,177.394 772.051,170.673 768.17,163.951 	
		"/>
	<polygon fill="#232527" points="760.408,180.341 756.529,187.062 760.408,193.783 768.17,193.783 772.051,187.062 768.17,180.341 	
		"/>
	<polygon fill="#232527" points="760.408,197.335 756.529,204.056 760.408,210.777 768.17,210.777 772.051,204.056 768.17,197.335 	
		"/>
	<polygon fill="#232527" points="744.887,56.185 741.006,62.905 744.887,69.626 752.648,69.626 756.529,62.905 752.648,56.185 	"/>
	<polygon fill="#232527" points="744.887,73.179 741.006,79.899 744.887,86.62 752.648,86.62 756.529,79.899 752.648,73.179 	"/>
	<polygon fill="#232527" points="744.887,89.211 741.006,95.932 744.887,102.653 752.648,102.653 756.529,95.932 752.648,89.211 	
		"/>
	<polygon fill="#232527" points="744.887,106.205 741.006,112.926 744.887,119.647 752.648,119.647 756.529,112.926 
		752.648,106.205 	"/>
	<polygon fill="#232527" points="744.887,122.262 741.006,128.983 744.887,135.704 752.648,135.704 756.529,128.983 
		752.648,122.262 	"/>
	<polygon fill="#232527" points="791.451,47.854 787.572,54.574 791.451,61.296 799.215,61.296 803.094,54.574 799.215,47.854 	"/>
	<polygon fill="#232527" points="636.787,31.236 632.907,37.957 636.787,44.679 644.549,44.679 648.43,37.957 644.549,31.236 	"/>
	<polygon fill="#232527" points="667.277,31.236 663.398,37.957 667.277,44.679 675.039,44.679 678.92,37.957 675.039,31.236 	"/>
	<polygon fill="#232527" points="698.32,31.236 694.441,37.957 698.32,44.679 706.082,44.679 709.963,37.957 706.082,31.236 	"/>
	<polygon fill="#232527" points="729.365,31.236 725.484,37.957 729.365,44.679 737.127,44.679 741.006,37.957 737.127,31.236 	"/>
	<polygon fill="#232527" points="760.408,31.236 756.529,37.957 760.408,44.679 768.17,44.679 772.051,37.957 768.17,31.236 	"/>
	<polygon fill="#232527" points="791.451,31.236 787.572,37.957 791.451,44.679 799.215,44.679 803.094,37.957 799.215,31.236 	"/>
	<polygon fill="#232527" points="791.451,64.848 787.572,71.569 791.451,78.29 799.215,78.29 803.094,71.569 799.215,64.848 	"/>
	<polygon fill="#232527" points="791.451,80.88 787.572,87.602 791.451,94.322 799.215,94.322 803.094,87.602 799.215,80.88 	"/>
	<polygon fill="#232527" points="791.451,97.874 787.572,104.596 791.451,111.316 799.215,111.316 803.094,104.596 799.215,97.874 	
		"/>
	<polygon fill="#232527" points="791.451,113.931 787.572,120.653 791.451,127.374 799.215,127.374 803.094,120.653 
		799.215,113.931 	"/>
	<polygon fill="#232527" points="791.451,130.925 787.572,137.646 791.451,144.367 799.215,144.367 803.094,137.646 
		799.215,130.925 	"/>
	<polygon fill="#232527" points="791.451,146.957 787.572,153.679 791.451,160.4 799.215,160.4 803.094,153.679 799.215,146.957 	
		"/>
	<polygon fill="#232527" points="791.451,163.951 787.572,170.673 791.451,177.394 799.215,177.394 803.094,170.673 
		799.215,163.951 	"/>
	<polygon fill="#232527" points="791.451,180.341 787.572,187.062 791.451,193.783 799.215,193.783 803.094,187.062 
		799.215,180.341 	"/>
	<polygon fill="#232527" points="791.451,197.335 787.572,204.056 791.451,210.777 799.215,210.777 803.094,204.056 
		799.215,197.335 	"/>
	<polygon fill="#232527" points="775.93,56.185 772.051,62.905 775.93,69.626 783.691,69.626 787.572,62.905 783.691,56.185 	"/>
	<polygon fill="#232527" points="651.756,40.074 647.875,46.795 651.756,53.516 659.518,53.516 663.398,46.795 659.518,40.074 	"/>
	<polygon fill="#232527" points="682.799,40.074 678.92,46.795 682.799,53.516 690.561,53.516 694.441,46.795 690.561,40.074 	"/>
	<polygon fill="#232527" points="713.844,40.074 709.963,46.795 713.844,53.516 721.605,53.516 725.484,46.795 721.605,40.074 	"/>
	<polygon fill="#232527" points="744.887,40.074 741.006,46.795 744.887,53.516 752.648,53.516 756.529,46.795 752.648,40.074 	"/>
	<polygon fill="#232527" points="775.93,40.074 772.051,46.795 775.93,53.516 783.691,53.516 787.572,46.795 783.691,40.074 	"/>
	<polygon fill="#232527" points="775.93,73.179 772.051,79.899 775.93,86.62 783.691,86.62 787.572,79.899 783.691,73.179 	"/>
	<polygon fill="#232527" points="775.93,89.211 772.051,95.932 775.93,102.653 783.691,102.653 787.572,95.932 783.691,89.211 	"/>
	<polygon fill="#232527" points="775.93,106.205 772.051,112.926 775.93,119.647 783.691,119.647 787.572,112.926 783.691,106.205 	
		"/>
	<polygon fill="#232527" points="775.93,122.262 772.051,128.983 775.93,135.704 783.691,135.704 787.572,128.983 783.691,122.262 	
		"/>
	<polygon fill="#232527" points="775.93,139.256 772.051,145.977 775.93,152.698 783.691,152.698 787.572,145.977 783.691,139.256 	
		"/>
	<polygon fill="#232527" points="775.93,155.288 772.051,162.009 775.93,168.731 783.691,168.731 787.572,162.009 783.691,155.288 	
		"/>
	<polygon fill="#232527" points="775.93,172.282 772.051,179.003 775.93,185.725 783.691,185.725 787.572,179.003 783.691,172.282 	
		"/>
	<polygon fill="#232527" points="775.93,188.672 772.051,195.393 775.93,202.113 783.691,202.113 787.572,195.393 783.691,188.672 	
		"/>
	<rect x="682.662" y="149.995" fill="#050101" stroke="#050101" stroke-miterlimit="10" width="70.121" height="65.677"/>
</g>
</svg>
