<?xml version="1.0" encoding="utf-8"?>
<!-- Generator: Adobe Illustrator 16.0.0, SVG Export Plug-In . SVG Version: 6.00 Build 0)  -->
<!DOCTYPE svg PUBLIC "-//W3C//DTD SVG 1.1//EN" "http://www.w3.org/Graphics/SVG/1.1/DTD/svg11.dtd">
<svg version="1.1" id="图层_1" xmlns="http://www.w3.org/2000/svg" xmlns:xlink="http://www.w3.org/1999/xlink" x="0px" y="0px"
	 width="1275.59px" height="252px" viewBox="0 0 1275.59 252" enable-background="new 0 0 1275.59 252" xml:space="preserve">
<rect x="0" fill="#3D3D3F" width="1275.589" height="252"/>
<rect x="54.046" y="17.666" fill="#1C1D20" width="1156.917" height="216.902"/>
<g>
	<rect x="1210.982" y="7.915" fill-rule="evenodd" clip-rule="evenodd" fill="#1C1D20" width="64.607" height="67.614"/>
	<rect x="1212.818" y="7.915" fill-rule="evenodd" clip-rule="evenodd" fill="#4A494B" width="61.854" height="65.776"/>
	<path fill-rule="evenodd" clip-rule="evenodd" fill="#FFFFFF" d="M1235.854,48.624h4.186h4.744
		c-0.086,0.499-0.234,0.987-0.447,1.442h-15.77v-1.442H1235.854z M1239.748,47.199l-0.295-1.443h5.135
		c0.146,0.467,0.238,0.953,0.27,1.443H1239.748z M1235.854,47.199h-4.363v-1.443h4.363V47.199z M1231.492,44.313v-1.443h10.922
		c0.605,0.379,1.1,0.875,1.482,1.443H1231.492z M1231.492,41.444v-1.442h4.361h3.6h4.541c-0.391,0.576-0.906,1.073-1.549,1.442
		H1231.492z M1231.492,37.114h4.363v1.443h-4.363V37.114z M1228.566,35.689v-1.443h15.729c0.23,0.457,0.396,0.943,0.498,1.443
		H1228.566z M1244.908,37.114c-0.018,0.491-0.096,0.978-0.234,1.444h-4.928l0.293-1.444H1244.908z M1253.664,44.313h-4.238v-1.443
		h4.238V44.313z M1249.426,41.444v-1.442h8.445l0.553,1.442H1249.426z M1249.426,38.559v-1.444h7.338l0.553,1.444H1249.426z
		 M1246.451,35.689v-1.443h9.213l0.553,1.443H1246.451z M1258.434,41.444l0.566-1.442h8.205v1.442H1258.434z M1259.564,38.559
		l0.563-1.444h7.078v1.444H1259.564z M1260.684,35.689l0.564-1.443h9.033v1.443H1260.684z M1267.205,44.313h-4.061v-1.443h4.061
		V44.313z M1261.912,42.869l-0.5,1.443h-6.164l-0.523-1.443H1261.912z M1253.664,47.199h-4.238v-1.443h4.238V47.199z
		 M1267.205,47.199h-4.061v-1.443h4.061V47.199z M1260.914,45.756l-0.5,1.443h-4.117l-0.523-1.443H1260.914z M1253.664,50.066
		h-7.213v-1.442h7.213V50.066z M1270.281,50.066h-7.137v-1.442h7.137V50.066z M1259.922,48.624l-0.5,1.442h-2.084l-0.523-1.442
		H1259.922z M1253.664,53.009h-7.213V51.51h7.213V53.009z M1270.281,53.009h-7.137V51.51h7.137V53.009z M1258.922,51.51l-0.52,1.499
		l-0.543-1.499H1258.922z M1246.451,32.805v-1.408h8.119l0.539,1.408H1246.451z M1261.813,32.805l0.551-1.408h7.918v1.408H1261.813z
		 M1228.566,31.396v1.408h14.652c-0.912-0.855-2.191-1.408-3.834-1.408H1228.566z M1228.566,51.51v1.499h10.818
		c1.729-0.007,3.039-0.597,3.943-1.499H1228.566z M1216.473,31.396h10.037v1.408h-10.037V31.396z M1226.51,35.689h-10.037v-1.442
		h10.037V35.689z M1223.584,38.559h-4.262v-1.443h4.262V38.559z M1223.584,41.444h-4.262v-1.442h4.262V41.444z M1223.584,44.313
		h-4.262v-1.443h4.262V44.313z M1223.584,47.199h-4.262v-1.443h4.262V47.199z M1226.51,50.066h-10.037v-1.442h10.037V50.066z
		 M1226.51,53.009h-10.037V51.51h10.037V53.009z"/>
</g>
<rect x="1212.23" y="75.357" fill-rule="evenodd" clip-rule="evenodd" fill="#4A494B" width="61.852" height="172.531"/>
<rect x="437.087" y="18.348" fill="#3D3D3F" width="5.292" height="214.432"/>
<rect x="822.795" y="18.348" fill="#3D3D3F" width="5.293" height="214.432"/>
<rect x="1205.672" y="18.348" fill="#3D3D3F" width="5.291" height="216.221"/>
<rect x="1249.379" y="108.246" fill-rule="evenodd" clip-rule="evenodd" fill="#2B2B2D" width="26.211" height="67.977"/>
<rect x="1249.379" y="108.246" fill-rule="evenodd" clip-rule="evenodd" fill="#97A5C4" width="4.75" height="67.977"/>
<rect x="0" fill-rule="evenodd" clip-rule="evenodd" fill="#4A494B" width="52.879" height="247.889"/>
<rect x="0" y="108.246" fill-rule="evenodd" clip-rule="evenodd" fill="#2B2B2D" width="26.21" height="67.977"/>
<rect x="0" y="108.246" fill-rule="evenodd" clip-rule="evenodd" fill="#97A5C4" width="4.75" height="67.977"/>
<g>
	<path fill="#FDFDFE" stroke="#FBFBFD" stroke-width="0.5" stroke-miterlimit="10" d="M9.184,10.648
		c-0.046-0.49-0.239-0.868-0.579-1.135c-0.34-0.266-0.797-0.398-1.372-0.398c-0.592,0-1.041,0.114-1.348,0.344
		c-0.307,0.229-0.46,0.563-0.46,1.004c0,0.299,0.102,0.523,0.307,0.672c0.204,0.147,0.615,0.294,1.232,0.438l1.353,0.323
		c0.726,0.173,1.244,0.429,1.554,0.767c0.312,0.334,0.467,0.809,0.467,1.422c0,0.705-0.267,1.264-0.801,1.676
		s-1.258,0.618-2.171,0.618c-1.015,0-1.808-0.237-2.379-0.714c-0.557-0.469-0.835-1.109-0.835-1.924v-0.059h0.967
		c0.018,0.564,0.222,1,0.614,1.307c0.391,0.307,0.936,0.459,1.634,0.459c0.646,0,1.136-0.111,1.471-0.332
		c0.335-0.223,0.502-0.549,0.502-0.979c0-0.373-0.11-0.65-0.331-0.83c-0.219-0.176-0.66-0.344-1.323-0.502l-1.355-0.322
		c-0.684-0.162-1.173-0.388-1.465-0.677c-0.292-0.289-0.437-0.688-0.437-1.2c0-0.743,0.252-1.333,0.758-1.768
		c0.506-0.436,1.188-0.653,2.047-0.653c0.874,0,1.569,0.219,2.087,0.655c0.518,0.438,0.794,1.04,0.83,1.809H9.184z"/>
	<path fill="#FDFDFE" stroke="#FBFBFD" stroke-width="0.5" stroke-miterlimit="10" d="M13.626,16.161
		c-0.324,0.05-0.56,0.074-0.708,0.074c-0.416,0-0.709-0.092-0.88-0.274c-0.171-0.184-0.256-0.499-0.256-0.947v-3.727H11V10.51h0.782
		V8.925h0.952v1.585h0.893v0.777h-0.893v3.727c0,0.127,0.05,0.228,0.15,0.302c0.101,0.074,0.235,0.11,0.405,0.11h0.338V16.161z"/>
	<path fill="#FDFDFE" stroke="#FBFBFD" stroke-width="0.5" stroke-miterlimit="10" d="M14.961,15.495
		c-0.484-0.55-0.727-1.271-0.727-2.162c0-0.896,0.243-1.617,0.727-2.167s1.118-0.824,1.9-0.824c0.789,0,1.425,0.274,1.908,0.824
		c0.483,0.55,0.724,1.271,0.724,2.167c0,0.892-0.241,1.612-0.724,2.162c-0.483,0.55-1.119,0.825-1.908,0.825
		C16.08,16.32,15.446,16.045,14.961,15.495z M18.057,14.914c0.296-0.392,0.444-0.918,0.444-1.581c0-0.662-0.148-1.19-0.444-1.583
		c-0.296-0.393-0.694-0.59-1.195-0.59s-0.898,0.197-1.192,0.59c-0.294,0.393-0.441,0.921-0.441,1.583
		c0,0.663,0.147,1.189,0.441,1.581c0.294,0.391,0.691,0.586,1.192,0.586S17.76,15.305,18.057,14.914z"/>
	<path fill="#FDFDFE" stroke="#FBFBFD" stroke-width="0.5" stroke-miterlimit="10" d="M20.71,10.51h0.45h0.455v0.969
		c0.081-0.152,0.167-0.289,0.258-0.413c0.36-0.483,0.802-0.724,1.327-0.724c0.088,0,0.178,0.016,0.27,0.047v0.973l-0.196-0.005
		c-0.515,0-0.912,0.153-1.192,0.462c-0.28,0.309-0.42,0.748-0.42,1.319v3.028h-0.476H20.71V10.51z"/>
	<path fill="#FDFDFE" stroke="#FBFBFD" stroke-width="0.5" stroke-miterlimit="10" d="M25.24,16.166l-1.607-5.656h0.522h0.522
		l1.087,4.504h-0.001l1.104-4.504h0.529h0.529l1.137,4.536h0.001l1.147-4.536h0.47h0.475l-1.602,5.656h-0.507h-0.513l-1.169-4.418
		h0.001l-1.105,4.418h-0.507H25.24z"/>
	<path fill="#FDFDFE" stroke="#FBFBFD" stroke-width="0.5" stroke-miterlimit="10" d="M32.022,8.396h0.973v1.078h-0.973V8.396z
		 M32.033,10.51h0.476h0.476v5.656h-0.476h-0.476V10.51z"/>
	<path fill="#FDFDFE" stroke="#FBFBFD" stroke-width="0.5" stroke-miterlimit="10" d="M34.036,15.422l3.396-4.119H34.29v-0.396
		V10.51h4.414v0.371v0.375l-3.395,4.117h3.475v0.396v0.396h-4.747v-0.369V15.422z"/>
	<path fill="#FDFDFE" stroke="#FBFBFD" stroke-width="0.5" stroke-miterlimit="10" d="M42.124,16.32c-0.8,0-1.429-0.254-1.887-0.762
		s-0.687-1.209-0.687-2.104c0-0.951,0.242-1.709,0.727-2.271c0.485-0.562,1.135-0.843,1.953-0.843c0.74,0,1.337,0.274,1.792,0.824
		s0.682,1.271,0.682,2.167l-0.011,0.339h-4.131c0.039,0.563,0.167,0.993,0.386,1.289c0.268,0.359,0.69,0.539,1.268,0.539
		c0.363,0,0.68-0.102,0.951-0.307c0.271-0.203,0.437-0.465,0.496-0.781h0.941c-0.141,0.619-0.423,1.093-0.846,1.419
		C43.334,16.156,42.79,16.32,42.124,16.32z M43.712,12.904c-0.028-0.524-0.159-0.934-0.391-1.226
		c-0.257-0.324-0.635-0.486-1.131-0.486c-0.5,0-0.901,0.187-1.2,0.56c-0.236,0.293-0.379,0.678-0.428,1.152H43.712z"/>
</g>
<g>
	<path fill="#FDFDFE" stroke="#FBFBFD" stroke-width="0.5" stroke-miterlimit="10" d="M3.842,20.063h0.583h0.587l2.227,6.643h0.005
		l2.221-6.643h0.583h0.582l-2.828,7.771H7.236H6.67L3.842,20.063z"/>
	<path fill="#FDFDFE" stroke="#FBFBFD" stroke-width="0.5" stroke-miterlimit="10" d="M16.413,25.386
		c0,0.778-0.244,1.415-0.732,1.911c-0.488,0.494-1.114,0.742-1.879,0.742c-0.762,0-1.373-0.19-1.834-0.57
		c-0.461-0.381-0.719-0.906-0.771-1.576h0.994c0.053,0.424,0.223,0.75,0.512,0.98c0.289,0.231,0.67,0.347,1.145,0.347
		c0.458,0,0.832-0.16,1.122-0.481c0.29-0.32,0.436-0.732,0.436-1.236c0-0.529-0.152-0.949-0.455-1.261
		c-0.303-0.312-0.714-0.468-1.232-0.468c-0.278,0-0.549,0.066-0.811,0.201c-0.263,0.134-0.461,0.305-0.595,0.512l-0.804-0.053
		l0.55-4.059H16v0.924h-3.231l-0.33,2.084l0.032-0.021c0.419-0.289,0.862-0.434,1.328-0.434c0.8,0,1.437,0.222,1.91,0.666
		C16.178,24.034,16.413,24.631,16.413,25.386z"/>
	<path fill="#FDFDFE" stroke="#FBFBFD" stroke-width="0.5" stroke-miterlimit="10" d="M17.948,27.024
		c-0.453-0.677-0.679-1.641-0.679-2.892s0.226-2.216,0.679-2.895c0.453-0.678,1.095-1.018,1.927-1.018
		c0.838,0,1.483,0.34,1.935,1.018c0.451,0.679,0.677,1.644,0.677,2.895s-0.226,2.215-0.677,2.892s-1.096,1.015-1.935,1.015
		C19.043,28.039,18.401,27.701,17.948,27.024z M21.08,26.422c0.269-0.508,0.4-1.271,0.397-2.289
		c0.003-1.019-0.128-1.782-0.397-2.291c-0.267-0.51-0.669-0.764-1.205-0.764c-0.532,0-0.93,0.254-1.195,0.764
		c-0.264,0.509-0.398,1.272-0.402,2.291c0.004,1.019,0.138,1.781,0.402,2.289c0.265,0.508,0.663,0.761,1.195,0.761
		C20.411,27.183,20.813,26.93,21.08,26.422z"/>
	<path fill="#FDFDFE" stroke="#FBFBFD" stroke-width="0.5" stroke-miterlimit="10" d="M23.969,27.024
		c-0.453-0.677-0.68-1.641-0.68-2.892s0.227-2.216,0.68-2.895c0.453-0.678,1.095-1.018,1.927-1.018c0.838,0,1.483,0.34,1.935,1.018
		c0.451,0.679,0.677,1.644,0.677,2.895s-0.226,2.215-0.677,2.892s-1.096,1.015-1.935,1.015
		C25.064,28.039,24.422,27.701,23.969,27.024z M27.101,26.422c0.268-0.508,0.4-1.271,0.396-2.289
		c0.003-1.019-0.128-1.782-0.396-2.291c-0.268-0.51-0.669-0.764-1.205-0.764c-0.532,0-0.93,0.254-1.195,0.764
		c-0.264,0.509-0.398,1.272-0.402,2.291c0.004,1.019,0.138,1.781,0.402,2.289c0.265,0.508,0.663,0.761,1.195,0.761
		C26.432,27.183,26.833,26.93,27.101,26.422z"/>
	<path fill="#FDFDFE" stroke="#FBFBFD" stroke-width="0.5" stroke-miterlimit="10" d="M29.99,27.024
		c-0.454-0.677-0.679-1.641-0.679-2.892s0.226-2.216,0.679-2.895c0.453-0.678,1.095-1.018,1.927-1.018
		c0.838,0,1.483,0.34,1.935,1.018c0.451,0.679,0.677,1.644,0.677,2.895s-0.226,2.215-0.677,2.892s-1.096,1.015-1.935,1.015
		C31.085,28.039,30.443,27.701,29.99,27.024z M33.122,26.422c0.269-0.508,0.4-1.271,0.397-2.289
		c0.003-1.019-0.128-1.782-0.397-2.291c-0.267-0.51-0.669-0.764-1.205-0.764c-0.532,0-0.93,0.254-1.195,0.764
		c-0.264,0.509-0.398,1.272-0.402,2.291c0.004,1.019,0.138,1.781,0.402,2.289c0.265,0.508,0.663,0.761,1.195,0.761
		C32.453,27.183,32.854,26.93,33.122,26.422z"/>
</g>
</svg>
