<?xml version="1.0" encoding="utf-8"?>
<!-- Generator: Adobe Illustrator 16.0.0, SVG Export Plug-In . SVG Version: 6.00 Build 0)  -->
<!DOCTYPE svg PUBLIC "-//W3C//DTD SVG 1.1//EN" "http://www.w3.org/Graphics/SVG/1.1/DTD/svg11.dtd">
<svg version="1.1" id="图层_1" xmlns="http://www.w3.org/2000/svg" xmlns:xlink="http://www.w3.org/1999/xlink" x="0px" y="0px"
	 width="1275.59px" height="252px" viewBox="0 0 1275.59 252" enable-background="new 0 0 1275.59 252" xml:space="preserve">
<rect fill="#3D3D3F" width="1275.59" height="252.001"/>
<rect x="54.045" y="17.666" fill="#1C1D20" width="1156.917" height="216.903"/>
<polygon fill="#1C1D20" points="335.401,44.652 340.676,44.652 343.313,40.086 342.016,37.842 334.06,37.842 332.765,40.086 "/>
<g>
	<rect x="1210.982" y="7.915" fill-rule="evenodd" clip-rule="evenodd" fill="#1C1D20" width="64.607" height="67.614"/>
	<rect x="1212.818" y="7.915" fill-rule="evenodd" clip-rule="evenodd" fill="#4A494B" width="61.852" height="65.776"/>
	<path fill-rule="evenodd" clip-rule="evenodd" fill="#FFFFFF" d="M1235.854,48.624h4.184h4.744
		c-0.084,0.499-0.232,0.987-0.447,1.442h-15.77v-1.442H1235.854z M1239.748,47.199l-0.295-1.443h5.135
		c0.146,0.467,0.236,0.953,0.268,1.443H1239.748z M1235.854,47.199h-4.363v-1.443h4.363V47.199z M1231.49,44.313v-1.443h10.924
		c0.604,0.379,1.1,0.875,1.482,1.443H1231.49z M1231.49,41.444v-1.442h4.363h3.6h4.541c-0.393,0.576-0.908,1.073-1.551,1.442
		H1231.49z M1231.49,37.114h4.365v1.443h-4.365V37.114z M1228.564,35.689v-1.443h15.729c0.23,0.457,0.396,0.943,0.5,1.443H1228.564z
		 M1244.908,37.114c-0.02,0.491-0.098,0.978-0.236,1.444h-4.926l0.291-1.444H1244.908z M1253.662,44.313h-4.236v-1.443h4.236V44.313
		z M1249.426,41.444v-1.442h8.443l0.553,1.442H1249.426z M1249.426,38.559v-1.444h7.338l0.553,1.444H1249.426z M1246.449,35.689
		v-1.443h9.213l0.555,1.443H1246.449z M1258.434,41.444l0.564-1.442h8.207v1.442H1258.434z M1259.563,38.559l0.564-1.444h7.078
		v1.444H1259.563z M1260.684,35.689l0.564-1.443h9.031v1.443H1260.684z M1267.205,44.313h-4.061v-1.443h4.061V44.313z
		 M1261.91,42.869l-0.498,1.443h-6.164l-0.523-1.443H1261.91z M1253.662,47.199h-4.236v-1.443h4.236V47.199z M1267.205,47.199
		h-4.061v-1.443h4.061V47.199z M1260.912,45.756l-0.498,1.443h-4.119l-0.523-1.443H1260.912z M1253.662,50.066h-7.213v-1.442h7.213
		V50.066z M1270.279,50.066h-7.137v-1.442h7.137V50.066z M1259.92,48.624l-0.5,1.442h-2.084l-0.523-1.442H1259.92z M1253.662,53.009
		h-7.213V51.51h7.213V53.009z M1270.279,53.009h-7.137V51.51h7.137V53.009z M1258.922,51.51l-0.52,1.499l-0.543-1.499H1258.922z
		 M1246.449,32.805v-1.408h8.121l0.539,1.408H1246.449z M1261.813,32.805l0.549-1.408h7.918v1.408H1261.813z M1228.564,31.396v1.408
		h14.652c-0.912-0.855-2.191-1.408-3.834-1.408H1228.564z M1228.564,51.51v1.499h10.818c1.73-0.007,3.039-0.597,3.943-1.499
		H1228.564z M1216.471,31.396h10.037v1.408h-10.037V31.396z M1226.508,35.689h-10.037v-1.442h10.037V35.689z M1223.582,38.559h-4.26
		v-1.443h4.26V38.559z M1223.582,41.444h-4.26v-1.442h4.26V41.444z M1223.582,44.313h-4.26v-1.443h4.26V44.313z M1223.582,47.199
		h-4.26v-1.443h4.26V47.199z M1226.508,50.066h-10.037v-1.442h10.037V50.066z M1226.508,53.009h-10.037V51.51h10.037V53.009z"/>
</g>
<rect x="1212.229" y="75.357" fill-rule="evenodd" clip-rule="evenodd" fill="#4A494B" width="61.854" height="172.532"/>
<rect x="437.086" y="18.348" fill="#3D3D3F" width="5.292" height="214.433"/>
<rect x="822.795" y="18.348" fill="#3D3D3F" width="5.291" height="214.433"/>
<rect x="1205.67" y="18.348" fill="#3D3D3F" width="5.293" height="216.222"/>
<rect x="1249.379" y="108.247" fill-rule="evenodd" clip-rule="evenodd" fill="#2B2B2D" width="26.211" height="67.977"/>
<rect x="1249.379" y="108.247" fill-rule="evenodd" clip-rule="evenodd" fill="#97A5C4" width="4.75" height="67.977"/>
<rect fill-rule="evenodd" clip-rule="evenodd" fill="#4A494B" width="52.878" height="247.89"/>
<rect y="108.247" fill-rule="evenodd" clip-rule="evenodd" fill="#2B2B2D" width="26.21" height="67.977"/>
<rect y="108.247" fill-rule="evenodd" clip-rule="evenodd" fill="#97A5C4" width="4.75" height="67.977"/>
<g>
	<path fill="#FDFDFE" stroke="#FBFBFD" stroke-width="0.5" stroke-miterlimit="10" d="M9.184,10.647
		C9.138,10.158,8.945,9.78,8.604,9.515c-0.34-0.267-0.797-0.4-1.372-0.4c-0.592,0-1.041,0.115-1.348,0.344
		c-0.307,0.229-0.46,0.564-0.46,1.005c0,0.3,0.102,0.523,0.307,0.671c0.204,0.148,0.615,0.295,1.232,0.439l1.353,0.322
		c0.726,0.172,1.244,0.428,1.554,0.766c0.312,0.336,0.467,0.81,0.467,1.423c0,0.704-0.267,1.263-0.801,1.675
		c-0.534,0.413-1.258,0.619-2.171,0.619c-1.015,0-1.808-0.238-2.379-0.713c-0.557-0.469-0.835-1.111-0.835-1.925v-0.058h0.967
		c0.018,0.563,0.222,0.998,0.614,1.305c0.391,0.307,0.936,0.461,1.634,0.461c0.646,0,1.136-0.111,1.471-0.334
		c0.335-0.222,0.502-0.547,0.502-0.978c0-0.374-0.11-0.65-0.331-0.83c-0.219-0.177-0.66-0.343-1.323-0.502l-1.355-0.323
		c-0.685-0.161-1.173-0.387-1.466-0.676c-0.292-0.289-0.437-0.689-0.437-1.2c0-0.743,0.252-1.333,0.758-1.769
		c0.506-0.435,1.188-0.652,2.047-0.652c0.874,0,1.569,0.219,2.087,0.655c0.518,0.437,0.794,1.04,0.83,1.808H9.184z"/>
	<path fill="#FDFDFE" stroke="#FBFBFD" stroke-width="0.5" stroke-miterlimit="10" d="M13.626,16.161
		c-0.324,0.049-0.56,0.074-0.708,0.074c-0.416,0-0.709-0.092-0.88-0.275c-0.171-0.183-0.256-0.498-0.256-0.945v-3.727h-0.782v-0.777
		h0.782V8.925h0.952v1.586h0.893v0.777h-0.893v3.727c0,0.127,0.05,0.227,0.15,0.301c0.101,0.074,0.235,0.111,0.405,0.111h0.338
		V16.161z"/>
	<path fill="#FDFDFE" stroke="#FBFBFD" stroke-width="0.5" stroke-miterlimit="10" d="M14.961,15.495
		c-0.484-0.55-0.727-1.271-0.727-2.162c0-0.895,0.243-1.617,0.727-2.167s1.118-0.825,1.9-0.825c0.789,0,1.425,0.275,1.908,0.825
		s0.724,1.272,0.724,2.167c0,0.892-0.241,1.612-0.724,2.162s-1.119,0.824-1.908,0.824C16.079,16.319,15.445,16.045,14.961,15.495z
		 M18.056,14.913c0.296-0.391,0.444-0.918,0.444-1.58s-0.148-1.189-0.444-1.583c-0.296-0.394-0.694-0.589-1.195-0.589
		s-0.898,0.195-1.192,0.589c-0.294,0.394-0.441,0.921-0.441,1.583s0.147,1.189,0.441,1.58c0.294,0.392,0.691,0.588,1.192,0.588
		S17.76,15.305,18.056,14.913z"/>
	<path fill="#FDFDFE" stroke="#FBFBFD" stroke-width="0.5" stroke-miterlimit="10" d="M20.709,10.511h0.45h0.455v0.967
		c0.081-0.151,0.167-0.289,0.259-0.412c0.359-0.482,0.802-0.725,1.327-0.725c0.088,0,0.178,0.016,0.27,0.048v0.973l-0.196-0.005
		c-0.515,0-0.912,0.154-1.192,0.463c-0.28,0.308-0.42,0.748-0.42,1.318v3.029h-0.476h-0.476V10.511z"/>
	<path fill="#FDFDFE" stroke="#FBFBFD" stroke-width="0.5" stroke-miterlimit="10" d="M25.24,16.167l-1.607-5.656h0.522h0.522
		l1.087,4.504h-0.001l1.104-4.504h0.529h0.529l1.137,4.535h0.001l1.147-4.535h0.47h0.475l-1.602,5.656h-0.507h-0.513l-1.169-4.42
		h0.001l-1.105,4.42h-0.507H25.24z"/>
	<path fill="#FDFDFE" stroke="#FBFBFD" stroke-width="0.5" stroke-miterlimit="10" d="M32.021,8.396h0.973v1.079h-0.973V8.396z
		 M32.032,10.511h0.476h0.476v5.656h-0.476h-0.476V10.511z"/>
	<path fill="#FDFDFE" stroke="#FBFBFD" stroke-width="0.5" stroke-miterlimit="10" d="M34.036,15.421l3.396-4.117H34.29v-0.396
		v-0.396h4.414v0.369v0.376l-3.395,4.118h3.475v0.396v0.396h-4.747v-0.371V15.421z"/>
	<path fill="#FDFDFE" stroke="#FBFBFD" stroke-width="0.5" stroke-miterlimit="10" d="M42.124,16.319
		c-0.8,0-1.429-0.254-1.887-0.761s-0.687-1.208-0.687-2.104c0-0.951,0.242-1.707,0.727-2.27c0.485-0.563,1.136-0.844,1.953-0.844
		c0.74,0,1.337,0.275,1.792,0.825s0.682,1.272,0.682,2.167l-0.011,0.338h-4.131c0.039,0.564,0.167,0.994,0.386,1.291
		c0.268,0.359,0.69,0.539,1.268,0.539c0.363,0,0.68-0.103,0.951-0.307c0.271-0.205,0.437-0.466,0.497-0.783h0.941
		c-0.141,0.621-0.423,1.094-0.846,1.42S42.79,16.319,42.124,16.319z M43.711,12.905c-0.028-0.525-0.159-0.934-0.391-1.227
		c-0.257-0.324-0.635-0.486-1.131-0.486c-0.5,0-0.901,0.188-1.2,0.561c-0.236,0.293-0.379,0.676-0.428,1.152H43.711z"/>
</g>
<g>
	<path fill="#FDFDFE" stroke="#FBFBFD" stroke-width="0.5" stroke-miterlimit="10" d="M3.842,20.063h0.583h0.587l2.227,6.644h0.005
		l2.221-6.644h0.583h0.582l-2.828,7.771H7.235H6.67L3.842,20.063z"/>
	<path fill="#FDFDFE" stroke="#FBFBFD" stroke-width="0.5" stroke-miterlimit="10" d="M15.244,22.29c0-0.359-0.137-0.654-0.41-0.881
		c-0.273-0.229-0.623-0.342-1.049-0.342c-0.451,0-0.796,0.138-1.036,0.414c-0.24,0.277-0.372,0.69-0.396,1.24h-0.925
		c0-0.797,0.208-1.412,0.626-1.848c0.417-0.436,1.009-0.652,1.773-0.652c0.722,0,1.305,0.18,1.747,0.541
		c0.442,0.361,0.663,0.838,0.663,1.43c0,0.589-0.222,1.064-0.666,1.428c-0.084,0.07-0.176,0.134-0.275,0.19
		c0.184,0.081,0.346,0.178,0.486,0.29c0.476,0.374,0.714,0.878,0.714,1.512c0,0.713-0.247,1.295-0.74,1.748
		c-0.493,0.453-1.127,0.679-1.903,0.679c-0.853,0-1.496-0.205-1.93-0.616c-0.433-0.41-0.669-1.038-0.708-1.884h0.994
		c0.057,0.592,0.213,1.016,0.471,1.271c0.258,0.256,0.658,0.384,1.202,0.384c0.469,0,0.854-0.135,1.154-0.404
		c0.3-0.27,0.45-0.616,0.45-1.038c0-0.445-0.145-0.797-0.434-1.059c-0.247-0.225-0.563-0.352-0.951-0.38
		c-0.18-0.011-0.35-0.016-0.51-0.016s-0.267,0.007-0.32,0.021v-0.83c0.078,0.018,0.197,0.027,0.359,0.027s0.323-0.012,0.481-0.032
		c0.307-0.038,0.555-0.14,0.746-0.302C15.115,22.969,15.244,22.672,15.244,22.29z"/>
	<path fill="#FDFDFE" stroke="#FBFBFD" stroke-width="0.5" stroke-miterlimit="10" d="M18.368,27.833
		c0.243-1.275,0.627-2.456,1.153-3.541c0.515-1.051,1.178-2.048,1.989-2.992h-4.242v-0.926h5.259v0.424v0.422
		c-0.832,0.98-1.501,2.01-2.008,3.088c-0.508,1.082-0.871,2.257-1.089,3.525H18.368z"/>
	<path fill="#FDFDFE" stroke="#FBFBFD" stroke-width="0.5" stroke-miterlimit="10" d="M23.969,27.024
		c-0.453-0.677-0.679-1.641-0.679-2.892s0.226-2.216,0.679-2.894c0.453-0.679,1.095-1.018,1.927-1.018
		c0.838,0,1.483,0.339,1.935,1.018c0.451,0.678,0.677,1.643,0.677,2.894s-0.226,2.215-0.677,2.892
		c-0.451,0.676-1.096,1.015-1.935,1.015C25.064,28.039,24.421,27.7,23.969,27.024z M27.101,26.422
		c0.268-0.508,0.4-1.271,0.396-2.289c0.003-1.019-0.128-1.782-0.396-2.292c-0.268-0.509-0.669-0.764-1.205-0.764
		c-0.532,0-0.93,0.255-1.195,0.764c-0.264,0.51-0.398,1.273-0.402,2.292c0.004,1.019,0.138,1.781,0.402,2.289
		c0.265,0.507,0.663,0.761,1.195,0.761C26.431,27.183,26.833,26.929,27.101,26.422z"/>
	<path fill="#FDFDFE" stroke="#FBFBFD" stroke-width="0.5" stroke-miterlimit="10" d="M29.99,27.024
		c-0.453-0.677-0.679-1.641-0.679-2.892s0.226-2.216,0.679-2.894c0.453-0.679,1.095-1.018,1.927-1.018
		c0.838,0,1.483,0.339,1.935,1.018c0.451,0.678,0.677,1.643,0.677,2.894s-0.226,2.215-0.677,2.892
		c-0.451,0.676-1.096,1.015-1.935,1.015C31.085,28.039,30.442,27.7,29.99,27.024z M33.122,26.422c0.268-0.508,0.4-1.271,0.396-2.289
		c0.003-1.019-0.128-1.782-0.396-2.292c-0.268-0.509-0.669-0.764-1.205-0.764c-0.532,0-0.93,0.255-1.195,0.764
		c-0.264,0.51-0.398,1.273-0.402,2.292c0.004,1.019,0.138,1.781,0.402,2.289c0.265,0.507,0.663,0.761,1.195,0.761
		C32.452,27.183,32.854,26.929,33.122,26.422z"/>
</g>
</svg>
