<?xml version="1.0" encoding="utf-8"?>
<!-- Generator: Adobe Illustrator 19.0.0, SVG Export Plug-In . SVG Version: 6.00 Build 0)  -->
<svg version="1.1" id="图层_1" xmlns="http://www.w3.org/2000/svg" xmlns:xlink="http://www.w3.org/1999/xlink" x="0px" y="0px"
	 width="80.2px" height="38.5px" viewBox="0 0 80.2 38.5" style="enable-background:new 0 0 80.2 38.5;" xml:space="preserve">
<style type="text/css">
	.st0{fill:#FFFFFF;}
	.st1{fill:#060404;}
	.st2{fill:#231815;}
</style>
<g id="XMLID_28_">
	<rect id="XMLID_8_" class="st0" width="80.2" height="38.5"/>
</g>
<g id="XMLID_24_">
	<path id="XMLID_25_" class="st1" d="M79.1,38H0.4V0.5h78.7V38z M1.4,37h76.7V1.5H1.4V37z"/>
</g>
<g id="XMLID_14_">
	<path id="XMLID_22_" class="st2" d="M20.6,9.2v15.3c0,1.3-0.4,2.4-1.3,3.2c-0.9,0.8-2.1,1.2-3.6,1.2c-1.6,0-2.9-0.4-3.9-1.2
		c-1-0.8-1.5-2.4-1.5-5c0-0.1,0-0.1,0-0.2c0-0.1,0-0.1,0-0.2c0,0,0-0.1,0-0.1c0,0,0-0.1,0-0.1c0,0,0-0.1,0-0.1c0,0,0-0.1,0-0.1h3.8
		v2.5c0,0.3,0.1,0.5,0.3,0.7c0.2,0.1,0.4,0.2,0.6,0.2c0.2,0,0.4-0.1,0.6-0.2c0.2-0.1,0.2-0.3,0.2-0.5V9.2H20.6z"/>
	<path id="XMLID_20_" class="st2" d="M36.8,20.8v3.1c0,1.5-0.5,2.6-1.4,3.3c-0.9,0.8-1.9,1.2-3,1.5c-0.3,0.1-0.7,0.1-1,0.2
		c-0.3,0-0.6,0-0.9,0c-2.2,0-3.8-0.5-4.8-1.5c-1-1-1.6-2.6-1.6-4.8v-8.6c0-1.5,0.5-2.8,1.4-3.9c0.9-1.1,2.6-1.6,4.9-1.6
		c1.9,0,3.4,0.5,4.6,1.4c1.2,0.9,1.7,2.4,1.7,4.3V16h-4.9v-2.5c0-0.4-0.1-0.7-0.4-0.9c-0.3-0.2-0.6-0.4-0.9-0.4c0,0,0,0-0.1,0
		s-0.1,0-0.1,0c0,0,0,0-0.1,0s-0.1,0-0.1,0c-0.4,0-0.7,0.2-1,0.4c-0.3,0.2-0.4,0.6-0.4,1.1v10.2c0,0.4,0.1,0.8,0.4,1.1
		c0.3,0.3,0.6,0.4,1,0.5c0,0,0,0,0.1,0s0.1,0,0.1,0c0,0,0.1,0,0.1,0c0,0,0.1,0,0.1,0c0.4,0,0.7-0.2,1-0.6c0.3-0.3,0.5-0.8,0.5-1.4
		v-2.7H36.8z"/>
	<path id="XMLID_18_" class="st2" d="M52.8,20.8v3.1c0,1.5-0.5,2.6-1.4,3.3c-0.9,0.8-1.9,1.2-3,1.5c-0.3,0.1-0.7,0.1-1,0.2
		c-0.3,0-0.6,0-0.9,0c-2.2,0-3.8-0.5-4.8-1.5c-1-1-1.6-2.6-1.6-4.8v-8.6c0-1.5,0.5-2.8,1.4-3.9c0.9-1.1,2.6-1.6,4.9-1.6
		c1.9,0,3.4,0.5,4.6,1.4c1.2,0.9,1.7,2.4,1.7,4.3V16h-4.9v-2.5c0-0.4-0.1-0.7-0.4-0.9c-0.3-0.2-0.6-0.4-0.9-0.4c0,0,0,0-0.1,0
		c0,0-0.1,0-0.1,0c0,0,0,0-0.1,0c0,0-0.1,0-0.1,0c-0.4,0-0.7,0.2-1,0.4c-0.3,0.2-0.4,0.6-0.4,1.1v10.2c0,0.4,0.1,0.8,0.4,1.1
		c0.3,0.3,0.6,0.4,1,0.5c0,0,0,0,0.1,0c0,0,0.1,0,0.1,0c0,0,0.1,0,0.1,0c0,0,0.1,0,0.1,0c0.4,0,0.7-0.2,1-0.6
		c0.3-0.3,0.5-0.8,0.5-1.4v-2.7H52.8z"/>
	<path id="XMLID_15_" class="st2" d="M59.9,9.2h5.3l4.3,19.3h-4.7l-0.6-3.8h-3.5l-0.6,3.8h-4.6L59.9,9.2z M63.6,21.2l-1.2-8.6
		l-1.3,8.6H63.6z"/>
</g>
</svg>
