<?xml version="1.0" encoding="utf-8"?>
<!-- Generator: Adobe Illustrator 16.0.0, SVG Export Plug-In . SVG Version: 6.00 Build 0)  -->
<!DOCTYPE svg PUBLIC "-//W3C//DTD SVG 1.1//EN" "http://www.w3.org/Graphics/SVG/1.1/DTD/svg11.dtd">
<svg version="1.1" id="图层_1" xmlns="http://www.w3.org/2000/svg" xmlns:xlink="http://www.w3.org/1999/xlink" x="0px" y="0px"
	 width="1275.6px" height="252px" viewBox="0 0 1275.6 252" enable-background="new 0 0 1275.6 252" xml:space="preserve">
<g>
	<rect fill="#151515" width="1275.59" height="252"/>
</g>
<g>
	<path fill="#1B2B7A" d="M10.47,11.57v81.104c0,0,29.711,34.529,0,94.754v53h282.565v-54.207c0,0,18.935-50.324,0-104.931V11.57
		H10.47z"/>
</g>
<g>
	<path fill="#203C86" d="M293.035,81.291c0,0-42.726,56.35,0,104.931C293.035,186.222,312.142,132.542,293.035,81.291z"/>
</g>
<g>
	<path fill="#070606" d="M294.303,146.07c0,2.957-2.996,5.353-6.692,5.353l0,0c-3.696,0-6.692-2.396-6.692-5.353v-23.021
		c0-2.956,2.996-5.354,6.692-5.354l0,0c3.696,0,6.692,2.397,6.692,5.354V146.07z"/>
</g>
<g>
	<path fill="#070606" d="M287.611,24.534c0,2.034-1.438,3.682-3.212,3.682H24.195c-1.775,0-3.211-1.647-3.211-3.682l0,0
		c0-2.033,1.437-3.68,3.211-3.68h260.204C286.172,20.854,287.611,22.501,287.611,24.534L287.611,24.534z"/>
</g>
<g>
	<path fill="#070606" d="M287.611,37.491c0,2.032-1.438,3.682-3.212,3.682H24.195c-1.775,0-3.211-1.649-3.211-3.682l0,0
		c0-2.033,1.437-3.682,3.211-3.682h260.204C286.172,33.81,287.611,35.458,287.611,37.491L287.611,37.491z"/>
</g>
<g>
	<path fill="#070606" d="M287.611,50.446c0,2.035-1.438,3.682-3.212,3.682H24.195c-1.775,0-3.211-1.646-3.211-3.682l0,0
		c0-2.031,1.437-3.682,3.211-3.682h260.204C286.172,46.765,287.611,48.415,287.611,50.446L287.611,50.446z"/>
</g>
<g>
	<path fill="#070606" d="M287.611,63.403c0,2.034-1.438,3.682-3.212,3.682H24.195c-1.775,0-3.211-1.647-3.211-3.682l0,0
		c0-2.033,1.437-3.682,3.211-3.682h260.204C286.172,59.722,287.611,61.37,287.611,63.403L287.611,63.403z"/>
</g>
<g>
	<path fill="#070606" d="M280.919,76.358c0,2.035-1.366,3.684-3.051,3.684H30.741c-1.685,0-3.051-1.648-3.051-3.684l0,0
		c0-2.031,1.366-3.68,3.051-3.68h247.127C279.553,72.679,280.919,74.327,280.919,76.358L280.919,76.358z"/>
</g>
<g>
	<path fill="#070606" d="M271.818,90.544c0,2.032-1.259,3.682-2.813,3.682H41.21c-1.552,0-2.812-1.649-2.812-3.682l0,0
		c0-2.032,1.26-3.683,2.812-3.683h227.795C270.559,86.861,271.818,88.512,271.818,90.544L271.818,90.544z"/>
</g>
<g>
	<path fill="#070606" d="M282.257,227.671c0-2.223-1.41-4.027-3.147-4.027H24.13c-1.738,0-3.146,1.805-3.146,4.027l0,0
		c0,2.225,1.409,4.029,3.146,4.029H279.11C280.847,231.7,282.257,229.896,282.257,227.671L282.257,227.671z"/>
</g>
<g>
	<path fill="#070606" d="M282.257,213.497c0-2.224-1.41-4.029-3.147-4.029H24.13c-1.738,0-3.146,1.806-3.146,4.029l0,0
		c0,2.223,1.409,4.025,3.146,4.025H279.11C280.847,217.522,282.257,215.72,282.257,213.497L282.257,213.497z"/>
</g>
<g>
	<path fill="#070606" d="M282.257,199.321c0-2.225-1.41-4.029-3.147-4.029H24.13c-1.738,0-3.146,1.805-3.146,4.029l0,0
		c0,2.225,1.409,4.027,3.146,4.027H279.11C280.847,203.349,282.257,201.546,282.257,199.321L282.257,199.321z"/>
</g>
<g>
	<path fill="#070606" d="M282.971,185.146c0-2.227-1.413-4.028-3.156-4.028H24.139c-1.744,0-3.155,1.802-3.155,4.028l0,0
		c0,2.222,1.412,4.026,3.155,4.026h255.676C281.558,189.173,282.971,187.368,282.971,185.146L282.971,185.146z"/>
</g>
<g>
	<path fill="#070606" d="M275.699,170.971c0-2.226-1.338-4.028-2.989-4.028H30.545c-1.652,0-2.988,1.803-2.988,4.028l0,0
		c0,2.224,1.336,4.026,2.988,4.026H272.71C274.361,174.997,275.699,173.194,275.699,170.971L275.699,170.971z"/>
</g>
<g>
	<path fill="#070606" d="M266.78,155.452c0-2.225-1.234-4.029-2.755-4.029H40.803c-1.521,0-2.755,1.805-2.755,4.029l0,0
		c0,2.224,1.234,4.027,2.755,4.027h223.222C265.546,159.479,266.78,157.676,266.78,155.452L266.78,155.452z"/>
</g>
<g>
	<g>
		<rect x="323.53" y="5.012" fill="#E2E2E2" width="450.821" height="187.75"/>
	</g>
	<g>
		<g>
			<g>
				<path fill="#B2B2B2" d="M335.645,26.663c4.324,0,7.833,3.563,7.833,7.958s-3.508,7.957-7.833,7.957
					c-4.326,0-7.832-3.562-7.832-7.957S331.318,26.663,335.645,26.663"/>
			</g>
			<g>
				<rect x="331.577" y="33.173" fill="#040000" width="8.136" height="2.893"/>
			</g>
			<g>
				<rect x="334.22" y="30.486" fill="#040000" width="2.85" height="8.268"/>
			</g>
		</g>
		<g>
			<g>
				<path fill="#B2B2B2" d="M335.645,91.44c4.324,0,7.833,3.563,7.833,7.958c0,4.395-3.508,7.957-7.833,7.957
					c-4.326,0-7.832-3.563-7.832-7.957C327.813,95.003,331.318,91.44,335.645,91.44"/>
			</g>
			<g>
				<rect x="331.577" y="97.95" fill="#040000" width="8.136" height="2.893"/>
			</g>
			<g>
				<rect x="334.22" y="95.264" fill="#040000" width="2.85" height="8.268"/>
			</g>
		</g>
		<g>
			<g>
				<path fill="#B2B2B2" d="M335.645,156.218c4.324,0,7.833,3.563,7.833,7.958c0,4.395-3.508,7.957-7.833,7.957
					c-4.326,0-7.832-3.563-7.832-7.957C327.813,159.78,331.318,156.218,335.645,156.218"/>
			</g>
			<g>
				<rect x="331.577" y="162.728" fill="#040000" width="8.136" height="2.893"/>
			</g>
			<g>
				<rect x="334.22" y="160.041" fill="#040000" width="2.85" height="8.269"/>
			</g>
		</g>
		<g>
			<g>
				<path fill="#B2B2B2" d="M759.773,26.663c4.324,0,7.832,3.563,7.832,7.958s-3.508,7.957-7.832,7.957
					c-4.326,0-7.832-3.562-7.832-7.957S755.447,26.663,759.773,26.663"/>
			</g>
			<g>
				<rect x="755.707" y="33.173" fill="#040000" width="8.135" height="2.893"/>
			</g>
			<g>
				<rect x="758.35" y="30.486" fill="#040000" width="2.85" height="8.268"/>
			</g>
		</g>
		<g>
			<g>
				<path fill="#B2B2B2" d="M759.773,91.44c4.324,0,7.832,3.563,7.832,7.958c0,4.395-3.508,7.957-7.832,7.957
					c-4.326,0-7.832-3.563-7.832-7.957C751.941,95.003,755.447,91.44,759.773,91.44"/>
			</g>
			<g>
				<rect x="755.707" y="97.95" fill="#040000" width="8.135" height="2.893"/>
			</g>
			<g>
				<rect x="758.35" y="95.264" fill="#040000" width="2.85" height="8.268"/>
			</g>
		</g>
		<g>
			<g>
				<path fill="#B2B2B2" d="M759.773,156.218c4.324,0,7.832,3.563,7.832,7.958c0,4.395-3.508,7.957-7.832,7.957
					c-4.326,0-7.832-3.563-7.832-7.957C751.941,159.78,755.447,156.218,759.773,156.218"/>
			</g>
			<g>
				<rect x="755.707" y="162.728" fill="#040000" width="8.135" height="2.893"/>
			</g>
			<g>
				<rect x="758.35" y="160.041" fill="#040000" width="2.85" height="8.269"/>
			</g>
		</g>
		<g>
			<ellipse fill="#585959" cx="548.941" cy="66.981" rx="225.411" ry="1.25"/>
		</g>
		<g>
			<ellipse fill="#585959" cx="548.941" cy="135.239" rx="225.411" ry="1.25"/>
		</g>
		<g>
			<rect x="347.806" y="5.012" fill="#101010" width="5.338" height="11.565"/>
		</g>
		<g>
			<rect x="347.806" y="181.196" fill="#101010" width="5.338" height="11.565"/>
		</g>
		<g>
			<rect x="347.806" y="59.542" fill="#101010" width="5.338" height="14.879"/>
		</g>
		<g>
			<rect x="347.806" y="127.8" fill="#101010" width="5.338" height="14.879"/>
		</g>
		<g>
			<rect x="743.807" y="6.968" fill="#101010" width="5.338" height="11.565"/>
		</g>
		<g>
			<rect x="743.807" y="183.152" fill="#101010" width="5.338" height="11.565"/>
		</g>
		<g>
			<rect x="743.807" y="61.498" fill="#101010" width="5.338" height="14.879"/>
		</g>
		<g>
			<rect x="743.807" y="129.756" fill="#101010" width="5.338" height="14.879"/>
		</g>
	</g>
</g>
<g>
	<g>
		<rect x="777.262" y="5.012" fill="#E2E2E2" width="450.822" height="187.75"/>
	</g>
	<g>
		<g>
			<g>
				<path fill="#B2B2B2" d="M789.377,26.663c4.322,0,7.832,3.563,7.832,7.958s-3.51,7.957-7.832,7.957
					c-4.326,0-7.832-3.562-7.832-7.957S785.051,26.663,789.377,26.663"/>
			</g>
			<g>
				<rect x="785.309" y="33.173" fill="#040000" width="8.137" height="2.893"/>
			</g>
			<g>
				<rect x="787.951" y="30.486" fill="#040000" width="2.85" height="8.268"/>
			</g>
		</g>
		<g>
			<g>
				<path fill="#B2B2B2" d="M789.377,91.44c4.322,0,7.832,3.563,7.832,7.958c0,4.395-3.51,7.957-7.832,7.957
					c-4.326,0-7.832-3.563-7.832-7.957C781.545,95.003,785.051,91.44,789.377,91.44"/>
			</g>
			<g>
				<rect x="785.309" y="97.95" fill="#040000" width="8.137" height="2.893"/>
			</g>
			<g>
				<rect x="787.951" y="95.264" fill="#040000" width="2.85" height="8.268"/>
			</g>
		</g>
		<g>
			<g>
				<path fill="#B2B2B2" d="M789.377,156.218c4.322,0,7.832,3.563,7.832,7.958c0,4.395-3.51,7.957-7.832,7.957
					c-4.326,0-7.832-3.563-7.832-7.957C781.545,159.78,785.051,156.218,789.377,156.218"/>
			</g>
			<g>
				<rect x="785.309" y="162.728" fill="#040000" width="8.137" height="2.893"/>
			</g>
			<g>
				<rect x="787.951" y="160.041" fill="#040000" width="2.85" height="8.269"/>
			</g>
		</g>
		<g>
			<g>
				<path fill="#B2B2B2" d="M1213.506,26.663c4.324,0,7.832,3.563,7.832,7.958s-3.508,7.957-7.832,7.957
					c-4.326,0-7.832-3.562-7.832-7.957S1209.18,26.663,1213.506,26.663"/>
			</g>
			<g>
				<rect x="1209.439" y="33.173" fill="#040000" width="8.135" height="2.893"/>
			</g>
			<g>
				<rect x="1212.082" y="30.486" fill="#040000" width="2.85" height="8.268"/>
			</g>
		</g>
		<g>
			<g>
				<path fill="#B2B2B2" d="M1213.506,91.44c4.324,0,7.832,3.563,7.832,7.958c0,4.395-3.508,7.957-7.832,7.957
					c-4.326,0-7.832-3.563-7.832-7.957C1205.674,95.003,1209.18,91.44,1213.506,91.44"/>
			</g>
			<g>
				<rect x="1209.439" y="97.95" fill="#040000" width="8.135" height="2.893"/>
			</g>
			<g>
				<rect x="1212.082" y="95.264" fill="#040000" width="2.85" height="8.268"/>
			</g>
		</g>
		<g>
			<g>
				<path fill="#B2B2B2" d="M1213.506,156.218c4.324,0,7.832,3.563,7.832,7.958c0,4.395-3.508,7.957-7.832,7.957
					c-4.326,0-7.832-3.563-7.832-7.957C1205.674,159.78,1209.18,156.218,1213.506,156.218"/>
			</g>
			<g>
				<rect x="1209.439" y="162.728" fill="#040000" width="8.135" height="2.893"/>
			</g>
			<g>
				<rect x="1212.082" y="160.041" fill="#040000" width="2.85" height="8.269"/>
			</g>
		</g>
		<g>
			<ellipse fill="#585959" cx="1002.673" cy="66.981" rx="225.411" ry="1.25"/>
		</g>
		<g>
			<ellipse fill="#585959" cx="1002.673" cy="135.239" rx="225.411" ry="1.25"/>
		</g>
		<g>
			<rect x="801.537" y="5.012" fill="#101010" width="5.338" height="11.565"/>
		</g>
		<g>
			<rect x="801.537" y="181.196" fill="#101010" width="5.338" height="11.565"/>
		</g>
		<g>
			<rect x="801.537" y="59.542" fill="#101010" width="5.338" height="14.879"/>
		</g>
		<g>
			<rect x="801.537" y="127.8" fill="#101010" width="5.338" height="14.879"/>
		</g>
		<g>
			<rect x="1197.539" y="6.968" fill="#101010" width="5.338" height="11.565"/>
		</g>
		<g>
			<rect x="1197.539" y="183.152" fill="#101010" width="5.338" height="11.565"/>
		</g>
		<g>
			<rect x="1197.539" y="61.498" fill="#101010" width="5.338" height="14.879"/>
		</g>
		<g>
			<rect x="1197.539" y="129.756" fill="#101010" width="5.338" height="14.879"/>
		</g>
	</g>
</g>
<g>
	<rect x="1228.084" fill="#393A3A" width="47.506" height="252"/>
</g>
<g>
	<rect x="813.742" y="201.209" fill="#C6C6C6" width="92.963" height="37.424"/>
</g>
<g>
	<rect x="539.43" y="194.718" fill="#C6C6C6" width="194.066" height="44.883"/>
</g>
<g>
	<g>
		<circle fill="#E2E87D" cx="400.264" cy="215.519" r="8.25"/>
	</g>
	<g>
		<circle fill="#C6C6C6" cx="400.264" cy="234.769" r="5.25"/>
	</g>
</g>
<g>
	<g>
		<circle fill="#E2E87D" cx="423.264" cy="215.519" r="8.25"/>
	</g>
	<g>
		<circle fill="#C6C6C6" cx="423.264" cy="234.769" r="5.25"/>
	</g>
</g>
<g>
	<path fill="#FFFFFF" d="M1070.646,228.454c0,0.059,0,0.116,0,0.174c0,0.059,0,0.116,0,0.174c-0.029,0.059-0.043,0.124-0.043,0.196
		s0,0.138,0,0.195c-0.029,0.116-0.053,0.232-0.066,0.348c-0.016,0.116-0.021,0.218-0.021,0.305c0,1.305,0.262,2.291,0.783,2.958
		c0.521,0.668,1.102,1.016,1.74,1.044c0.027,0,0.051,0,0.064,0s0.037,0,0.066,0c0.057,0,0.123,0,0.195,0s0.137-0.014,0.195-0.043
		c0.521-0.116,0.992-0.414,1.414-0.893c0.42-0.479,0.631-1.123,0.631-1.936c0-0.841-0.283-1.565-0.848-2.175
		c-0.566-0.609-1.27-1.188-2.111-1.74c-0.406-0.289-0.826-0.565-1.262-0.826c-0.434-0.261-0.869-0.551-1.305-0.87
		c-1.391-0.898-2.668-2.016-3.828-3.35c-1.16-1.333-1.74-3.132-1.74-5.394c0-0.028,0.008-0.058,0.023-0.087
		c0.014-0.029,0.021-0.072,0.021-0.131c0-0.028,0.006-0.058,0.021-0.087c0.014-0.028,0.021-0.058,0.021-0.087
		c0-0.145,0.006-0.29,0.021-0.436c0.014-0.145,0.021-0.289,0.021-0.435c0.262-1.711,1.146-3.27,2.654-4.677
		c1.508-1.406,3.436-2.109,5.785-2.109s4.416,0.711,6.199,2.132s2.676,3.669,2.676,6.742v0.609h-6.352v-0.827
		c0-1.015-0.203-1.798-0.609-2.349s-0.855-0.898-1.348-1.044c-0.117-0.028-0.219-0.051-0.305-0.065
		c-0.088-0.015-0.174-0.021-0.262-0.021c-0.029,0-0.051,0-0.064,0c-0.016,0-0.037,0-0.066,0c-0.492,0.029-0.949,0.246-1.369,0.652
		c-0.422,0.406-0.631,0.913-0.631,1.522c0,0.899,0.311,1.646,0.936,2.24c0.623,0.595,1.383,1.152,2.283,1.675
		c0.348,0.232,0.717,0.457,1.109,0.674c0.391,0.218,0.789,0.443,1.195,0.675c1.334,0.783,2.559,1.791,3.676,3.023
		s1.719,2.979,1.807,5.241v0.739c0,3.423-0.922,5.765-2.764,7.025c-1.842,1.262-3.98,1.893-6.416,1.893l-0.914,0.044
		c-2.465-0.146-4.357-0.972-5.676-2.479c-1.32-1.508-1.979-3.64-1.979-6.395c0-0.146,0.006-0.29,0.021-0.436
		c0.014-0.145,0.021-0.289,0.021-0.435c0-0.058,0-0.116,0-0.175c0-0.058,0-0.115,0-0.174c0.027-0.087,0.043-0.188,0.043-0.304
		s0-0.218,0-0.305H1070.646z"/>
	<path fill="#FFFFFF" d="M1089.83,228.454c0,0.059,0,0.116,0,0.174c0,0.059,0,0.116,0,0.174c-0.029,0.059-0.045,0.124-0.045,0.196
		s0,0.138,0,0.195c-0.029,0.116-0.051,0.232-0.064,0.348c-0.016,0.116-0.021,0.218-0.021,0.305c0,1.305,0.262,2.291,0.783,2.958
		c0.521,0.668,1.102,1.016,1.74,1.044c0.027,0,0.049,0,0.064,0c0.014,0,0.037,0,0.064,0c0.059,0,0.123,0,0.197,0
		c0.072,0,0.137-0.014,0.195-0.043c0.521-0.116,0.992-0.414,1.414-0.893c0.42-0.479,0.631-1.123,0.631-1.936
		c0-0.841-0.283-1.565-0.85-2.175c-0.564-0.609-1.268-1.188-2.109-1.74c-0.406-0.289-0.826-0.565-1.262-0.826
		c-0.434-0.261-0.869-0.551-1.305-0.87c-1.393-0.898-2.668-2.016-3.828-3.35c-1.16-1.333-1.74-3.132-1.74-5.394
		c0-0.028,0.008-0.058,0.021-0.087c0.016-0.029,0.023-0.072,0.023-0.131c0-0.028,0.006-0.058,0.021-0.087
		c0.014-0.028,0.021-0.058,0.021-0.087c0-0.145,0.006-0.29,0.021-0.436c0.014-0.145,0.021-0.289,0.021-0.435
		c0.262-1.711,1.146-3.27,2.654-4.677c1.508-1.406,3.436-2.109,5.785-2.109s4.416,0.711,6.199,2.132s2.674,3.669,2.674,6.742v0.609
		h-6.35v-0.827c0-1.015-0.203-1.798-0.609-2.349s-0.855-0.898-1.35-1.044c-0.115-0.028-0.217-0.051-0.303-0.065
		c-0.088-0.015-0.176-0.021-0.262-0.021c-0.029,0-0.051,0-0.064,0c-0.016,0-0.037,0-0.066,0c-0.494,0.029-0.949,0.246-1.369,0.652
		c-0.422,0.406-0.631,0.913-0.631,1.522c0,0.899,0.311,1.646,0.934,2.24c0.625,0.595,1.385,1.152,2.285,1.675
		c0.348,0.232,0.717,0.457,1.109,0.674c0.391,0.218,0.789,0.443,1.195,0.675c1.334,0.783,2.559,1.791,3.676,3.023
		s1.719,2.979,1.805,5.241v0.739c0,3.423-0.92,5.765-2.762,7.025c-1.842,1.262-3.98,1.893-6.416,1.893l-0.914,0.044
		c-2.465-0.146-4.357-0.972-5.676-2.479c-1.32-1.508-1.98-3.64-1.98-6.395c0-0.146,0.008-0.29,0.023-0.436
		c0.014-0.145,0.021-0.289,0.021-0.435c0-0.058,0-0.116,0-0.175c0-0.058,0-0.115,0-0.174c0.027-0.087,0.043-0.188,0.043-0.304
		s0-0.218,0-0.305H1089.83z"/>
	<path fill="#FFFFFF" d="M1114.973,238.328c-1.277,0.638-2.684,0.957-4.221,0.957c-0.086,0-0.166,0-0.238,0s-0.152,0-0.24,0
		c-1.652-0.087-3.174-0.739-4.566-1.957c-1.393-1.219-2.088-3.335-2.088-6.352v-14.138c0-2.58,0.725-4.604,2.174-6.067
		c1.451-1.465,3.799-2.197,7.049-2.197c2.869,0,5.117,0.689,6.742,2.066c1.623,1.378,2.436,3.444,2.436,6.198v2.523h-7.09v-3.741
		c0-0.579-0.219-1-0.654-1.262c-0.434-0.261-0.912-0.391-1.434-0.391c-0.029,0-0.066,0-0.109,0s-0.08,0-0.109,0
		c-0.58,0.058-1.109,0.254-1.588,0.587c-0.479,0.334-0.717,0.79-0.717,1.37v15.66c0,0.783,0.238,1.392,0.717,1.827
		c0.479,0.435,1.008,0.682,1.588,0.739c0.029,0,0.066,0,0.109,0s0.08,0,0.109,0c0.057,0,0.115,0,0.174,0c0.057,0,0.1,0,0.129,0
		c0.523-0.087,1.002-0.326,1.436-0.718c0.436-0.392,0.652-0.906,0.652-1.544v-3.741h-2.391v-5.177h9.178v15.573h-4.654l-0.305-2.437
		C1116.943,236.951,1116.248,237.69,1114.973,238.328z"/>
</g>
<g>
	<path fill="#FFFFFF" d="M1140.293,219.449c0.971-0.405,2.008-0.609,3.109-0.609c0.145,0,0.297,0.008,0.457,0.022
		c0.158,0.015,0.311,0.021,0.457,0.021c1.363,0.174,2.609,0.819,3.74,1.936c1.131,1.117,1.77,2.951,1.914,5.503
		c0,0.116,0,0.232,0,0.348c0,0.116,0,0.247,0,0.392c0.029,0.087,0.043,0.174,0.043,0.262c0,0.087,0,0.174,0,0.261
		c0,0.203,0.008,0.406,0.023,0.608c0.014,0.204,0.021,0.392,0.021,0.566c0,3.625-0.646,6.126-1.936,7.503
		c-1.291,1.378-2.719,2.227-4.285,2.545c-0.406,0.087-0.805,0.152-1.197,0.196c-0.391,0.043-0.775,0.079-1.152,0.108l-0.609,0.044
		c-2.697-0.029-4.713-0.929-6.045-2.697c-1.336-1.769-2.002-3.756-2.002-5.96c0-0.058,0.008-0.115,0.021-0.174
		c0.014-0.058,0.021-0.131,0.021-0.218c0-0.058,0.008-0.115,0.021-0.174c0.016-0.058,0.023-0.115,0.023-0.174h6.045
		c0,1.827,0.219,2.995,0.652,3.502c0.436,0.508,1.059,0.761,1.871,0.761c0.668,0,1.16-0.456,1.479-1.37
		c0.32-0.913,0.479-1.95,0.479-3.11c0-0.174,0-0.354,0-0.543s-0.014-0.37-0.043-0.544c-0.086-1.219-0.326-2.334-0.717-3.35
		c-0.393-1.015-0.922-1.522-1.588-1.522c-0.756,0-1.313,0.123-1.676,0.369c-0.363,0.247-0.615,0.834-0.762,1.762h-5.74l0.912-15.529
		h14.922v5.133h-10.094l-0.303,5.568C1138.676,220.334,1139.32,219.855,1140.293,219.449z"/>
	<path fill="#FFFFFF" d="M1153.32,231.173c1.131-1.986,2.363-3.704,3.697-5.155c0.783-0.87,1.559-1.675,2.328-2.414
		c0.768-0.739,1.414-1.442,1.936-2.109c0.203-0.29,0.383-0.58,0.543-0.87s0.283-0.58,0.371-0.87
		c0.145-0.377,0.246-0.739,0.303-1.088c0.059-0.348,0.088-0.681,0.088-1c0-0.87-0.189-1.632-0.566-2.284s-0.826-0.979-1.348-0.979
		c-1.248,0-2.029,0.457-2.35,1.37c-0.318,0.914-0.479,2.313-0.479,4.198h-6.35c0.145-3.104,0.754-5.612,1.826-7.525
		c1.072-1.914,3.523-2.871,7.352-2.871c3.307,0,5.561,0.805,6.764,2.414s1.807,3.458,1.807,5.546c0,0.29,0,0.588,0,0.892
		c0,0.305-0.029,0.617-0.088,0.936c-0.232,1.479-0.842,2.864-1.826,4.154c-0.986,1.291-2.045,2.487-3.176,3.589
		c-1.219,1.16-2.336,2.24-3.35,3.24c-1.016,1.001-1.596,1.922-1.74,2.763h10.396v5.438h-17.965
		C1151.58,235.617,1152.189,233.159,1153.32,231.173z"/>
	<path fill="#FFFFFF" d="M1170.98,216.839c0-0.376,0.029-0.789,0.088-1.239c0.059-0.449,0.158-0.906,0.305-1.37
		c0.406-1.16,1.203-2.226,2.393-3.197c1.188-0.972,3.088-1.457,5.697-1.457c3.539,0,5.902,0.775,7.092,2.327
		c1.188,1.552,1.783,3.4,1.783,5.546v13.833c0,3.161-0.906,5.307-2.719,6.438c-1.813,1.131-3.967,1.696-6.459,1.696
		c-3.018-0.146-5.135-0.906-6.352-2.284c-1.219-1.377-1.828-3.124-1.828-5.241V216.839z M1181.182,234.021
		c0.334-0.405,0.5-1.522,0.5-3.35v-12.614c0-1.073-0.129-1.95-0.391-2.632s-0.871-1.022-1.828-1.022
		c-0.898,0-1.479,0.341-1.738,1.022c-0.262,0.682-0.393,1.559-0.393,2.632v12.614c0,1.364,0.166,2.364,0.5,3.002
		c0.334,0.639,0.877,0.957,1.631,0.957C1180.275,234.631,1180.848,234.429,1181.182,234.021z"/>
	<path fill="#FFFFFF" d="M1191.383,209.575h9.787l3.35,17.356l3.611-17.356h9.482v28.971h-6.352l0.609-22.315l-4.959,22.315h-4.828
		l-4.959-22.315l0.914,22.315h-6.656V209.575z"/>
</g>
</svg>
