<?xml version="1.0" encoding="utf-8"?>
<!-- Generator: Adobe Illustrator 16.0.0, SVG Export Plug-In . SVG Version: 6.00 Build 0)  -->
<!DOCTYPE svg PUBLIC "-//W3C//DTD SVG 1.1//EN" "http://www.w3.org/Graphics/SVG/1.1/DTD/svg11.dtd">
<svg version="1.1" id="图层_1" xmlns="http://www.w3.org/2000/svg" xmlns:xlink="http://www.w3.org/1999/xlink" x="0px" y="0px"
	 width="169.74px" height="42.74px" viewBox="0 0 169.74 42.74" enable-background="new 0 0 169.74 42.74" xml:space="preserve">
<g>
	<g>
		<path fill="#F4F4F4" d="M23.667,6.104c0,0,20.333,0.834,18.833,11.167c-1.48,10.2-23.75,22.188-41.797,18.966
			C0.469,36.194,0.234,36.15,0,36.104c0,0,10.625,13.499,38.5,1.999S75.458-9.021,23.667,6.104z"/>
	</g>
	<g>
		<g>
			<path fill="#FAFAFA" d="M67.268,14.828c-0.195-0.527-0.402-0.999-0.621-1.418c2.281-3.42,4.045-7.345,5.287-11.771l1.304,0.364
				c-0.658,2.017-1.381,3.948-2.169,5.797v17.895h-1.303V10.587C68.937,12.235,68.104,13.648,67.268,14.828z M80.425,2.004
				l1.218-0.514c0.488,0.961,0.955,1.952,1.401,2.973l-1.071,0.465h8.26v1.255H73.639V4.928h8.127
				C81.245,3.715,80.799,2.74,80.425,2.004z M74.979,8.993h13.804v1.255H74.979V8.993z M74.979,13.046h13.804v1.268H74.979V13.046z
				 M75.234,17.137h13.316v8.559H87.26v-1.493H76.526v1.493h-1.292V17.137z M76.526,18.367v4.604H87.26v-4.604H76.526z"/>
			<path fill="#FAFAFA" d="M89.551,26.695H86.26v-1.493h-8.733v1.493h-3.292V16.137h15.316V26.695z M77.526,21.972h8.733v-2.604
				h-8.733V21.972z M72.068,26.695h-3.303V14.393c-0.228,0.354-0.455,0.693-0.682,1.014l-1.096,1.546l-0.658-1.776
				c-0.179-0.482-0.37-0.921-0.57-1.303l-0.273-0.525l0.328-0.492c2.214-3.319,3.948-7.184,5.156-11.486l0.27-0.961l3.271,0.914
				l-0.324,0.992c-0.177,0.542-0.359,1.08-0.546,1.613h6.592c-0.26-0.572-0.494-1.064-0.7-1.471L79.047,1.5l3.065-1.293l0.422,0.83
				c0.47,0.926,0.93,1.896,1.367,2.891h7.331v3.255H72.639V6.611c-0.187,0.471-0.377,0.935-0.57,1.393V26.695z M89.782,15.313
				H73.979v-3.268h15.804V15.313z M89.782,11.248H73.979V7.993h15.804V11.248z"/>
		</g>
		<g>
			<path fill="#FAFAFA" d="M103.504,23.612c1.819,0.041,4.102,0.058,6.847,0.05c2.632-0.009,4.642-0.033,6.03-0.075
				c-0.275,0.661-0.435,1.112-0.475,1.355c-6.465-0.009-10.782-0.051-12.951-0.126c-2.574,0.009-4.621-1.037-6.14-3.137
				c-1.178,1.18-2.209,2.313-3.095,3.4l-0.9-1.079c0.99-1.079,2.115-2.213,3.374-3.4v-8.909h-3.192v-1.343h4.532v10.177
				C99.004,22.633,100.994,23.662,103.504,23.612z M98.01,6.885c-0.805-1.02-1.97-2.367-3.496-4.04l0.998-0.766
				c1.097,1.104,2.303,2.405,3.619,3.902L98.01,6.885z M106.623,1.615h1.34c0,2.1-0.057,4.069-0.171,5.91h7.712v1.33h-7.834
				c-0.162,1.665-0.43,3.07-0.804,4.216l0.78-0.69c2.704,2.594,5.323,5.153,7.857,7.68l-1.072,1.004
				c-2.322-2.435-4.861-5.036-7.614-7.805c-0.885,2.819-3.046,5.483-6.481,7.993c-0.389-0.502-0.715-0.883-0.975-1.142
				c4.484-2.853,6.803-6.604,6.957-11.256h-6.53v-1.33h6.651C106.554,5.835,106.614,3.865,106.623,1.615z"/>
			<path fill="#FAFAFA" d="M93.73,26.652l-2.238-2.683l0.592-0.645c0.918-1.002,1.964-2.062,3.11-3.154v-7.479h-3.192V9.349h6.532
				v10.104l0.29-0.185c3.885-2.471,5.994-5.559,6.421-9.412h-6.457V7.542l-0.938,0.755l-0.626-0.793
				c-0.794-1.006-1.954-2.347-3.449-3.985l-0.734-0.804l2.561-1.965l0.62,0.625c1.103,1.11,2.334,2.438,3.66,3.946l0.689,0.784
				l-0.521,0.42h5.448c0.076-1.443,0.118-3.092,0.125-4.914l0.004-0.996h3.336v1c0,1.717-0.038,3.363-0.114,4.91h7.655v3.33h-7.94
				c-0.078,0.618-0.174,1.2-0.285,1.746l0.061,0.058c2.704,2.595,5.353,5.183,7.871,7.693l0.733,0.73l-2.552,2.389l-0.684-0.717
				c-1.983-2.08-4.173-4.33-6.521-6.703c-1.164,2.467-3.263,4.818-6.261,7.009l-0.075,0.055c0.742,0.334,1.566,0.499,2.48,0.499
				l0.153-0.002c1.563,0.034,3.411,0.052,5.584,0.052l1.279-0.002c2.671-0.009,4.635-0.033,6.003-0.075l1.55-0.047l-0.597,1.432
				c-0.353,0.848-0.404,1.093-0.411,1.133l-0.138,0.839l-0.85-0.001c-6.446-0.009-10.815-0.052-12.984-0.127
				c-0.001,0-0.002,0-0.003,0c-2.483,0-4.554-0.886-6.169-2.638c-0.837,0.873-1.592,1.722-2.253,2.534L93.73,26.652z"/>
		</g>
		<g>
			<path fill="#FAFAFA" d="M119.565,11.816h3.192V5.342h-3.363V4.1h7.956v1.242h-3.265v6.475h3.24v1.229h-3.24v7.743
				c0.3-0.076,0.746-0.181,1.34-0.314c0.86-0.209,1.502-0.363,1.925-0.464c0,0.594,0.008,1.041,0.024,1.343
				c-2.737,0.577-5.422,1.2-8.053,1.869l-0.231-1.38c0.04-0.009,0.105-0.021,0.194-0.038c1.454-0.284,2.611-0.531,3.473-0.74v-8.019
				h-3.192V11.816z M128.824,4.488V3.233h12.877v1.255h-5.811c-1.893,6.366-4.487,11.465-7.785,15.297
				c-0.301-0.31-0.666-0.627-1.096-0.954c3.28-3.63,5.774-8.411,7.479-14.343H128.824z M133.893,10.449h1.315v15.246h-1.315V10.449z
				 M136.207,11.892l1.097-0.665c1.706,2.443,3.419,5.012,5.142,7.705l-1.17,0.828C139.456,16.79,137.767,14.167,136.207,11.892z"/>
			<path fill="#FAFAFA" d="M136.208,26.695h-3.315V14.526c-1.207,2.221-2.553,4.195-4.029,5.911l-0.501,0.582
				c0.003,0.104,0.007,0.197,0.011,0.279l0.048,0.856l-0.84,0.177c-2.713,0.572-5.408,1.197-8.013,1.859l-1.053,0.269l-0.568-3.39
				l1.052-0.229c1.104-0.216,2.017-0.405,2.759-0.571v-6.225h-3.192v-3.229h3.192V6.342h-3.363V3.1h9.43V2.233h14.877v3.255h-6.069
				c-0.427,1.377-0.89,2.698-1.387,3.961h0.963v1.272l1.379-0.836l0.537,0.769c1.693,2.426,3.432,5.03,5.164,7.738l0.514,0.804
				l-2.821,1.997l-0.558-0.911c-1.487-2.428-2.901-4.643-4.215-6.605V26.695z M125.086,14.046v5.48
				c0.039-0.009,0.079-0.019,0.12-0.027l0.782-0.188l-0.45-0.343l0.729-0.808c2.927-3.237,5.236-7.496,6.875-12.672h-4.792v0.854
				h-3.265v4.475h3.24v3.229H125.086z"/>
		</g>
		<g>
			<path fill="#FAFAFA" d="M145.447,15.77h11.476v-4.492h-8.284v-1.205h17.458v1.205h-7.833v4.492h10.477v1.242h-10.477v4.932
				c0.113,2.241-0.91,3.338-3.07,3.287c-0.942,0.033-1.998,0.051-3.168,0.051c-0.064-0.561-0.17-1.051-0.316-1.469
				c0.479,0.025,0.896,0.038,1.254,0.038c0.18,0.008,0.398,0.013,0.658,0.013c0.211,0,0.605,0,1.182,0
				c0.829,0.008,1.385-0.139,1.67-0.439c0.309-0.276,0.458-0.82,0.45-1.632v-4.78h-11.476V15.77z M155.973,1.867l1.193-0.566
				c0.568,1.004,1.146,2.059,1.73,3.162l-1.133,0.54h10.063v4.041h-1.328V6.232H147.64v2.812h-1.328V5.003h11.257
				C157.139,4.041,156.606,2.995,155.973,1.867z"/>
			<path fill="#FAFAFA" d="M152.025,26.281h-0.892l-0.102-0.886c-0.056-0.485-0.146-0.906-0.267-1.252l-0.494-1.409l1.49,0.079
				c0.459,0.024,0.858,0.037,1.201,0.037c0.211,0.008,0.416,0.013,0.658,0.013h1.182c0.001,0,0.002,0,0.003,0
				c0.764,0,0.949-0.135,0.951-0.137c0.038-0.037,0.173-0.223,0.166-0.925v-3.79h-11.476V14.77h11.476v-2.492h-8.284v-2.233h-2.327
				V4.003h10.671c-0.268-0.527-0.563-1.077-0.882-1.646l-0.524-0.934l3.002-1.426l0.458,0.811c0.573,1.012,1.154,2.074,1.744,3.186
				l0.004,0.009h9.042v6.041l-1.729,0.028v2.205h-7.833v2.492h10.477v3.242h-10.477v3.932c0.07,1.358-0.256,2.454-0.971,3.206
				c-0.684,0.718-1.679,1.083-2.958,1.083l-0.165-0.002C154.275,26.264,153.208,26.281,152.025,26.281z M148.64,9.072l16.858-0.028
				V7.232H148.64V9.072z"/>
		</g>
	</g>
	<g>
		<g>
			<path fill="#FAFAFA" d="M75.119,38.389l-2.146-2.835c-0.133-0.176-0.247-0.349-0.344-0.519H72.6
				c-0.117,0.192-0.241,0.365-0.373,0.519l-2.184,2.835h-0.771l2.942-3.746l-2.768-3.685h0.775l2.082,2.792
				c0.107,0.147,0.221,0.313,0.336,0.499h0.031l0.342-0.499l2.069-2.792h0.753l-2.798,3.675l2.857,3.756H75.119z"/>
			<path fill="#FAFAFA" d="M76.652,38.764h-1.72l-2.259-2.983c-0.024-0.032-0.047-0.063-0.07-0.095
				c-0.03,0.039-0.062,0.076-0.093,0.112l-2.283,2.966h-1.727l3.241-4.126l-3.046-4.055h1.715l2.194,2.942
				c0.019,0.025,0.036,0.051,0.055,0.077l0.044-0.064l2.19-2.955h1.698l-3.083,4.05L76.652,38.764z"/>
		</g>
		<g>
			<path fill="#FAFAFA" d="M78.178,38.389v-7.431h0.645v7.431H78.178z"/>
			<rect x="77.803" y="30.583" fill="#FAFAFA" width="1.395" height="8.181"/>
		</g>
		<g>
			<path fill="#FAFAFA" d="M88.413,38.389l-5.546-6.006c-0.117-0.121-0.217-0.241-0.301-0.359l-0.085-0.105h-0.03
				c0.013,0.089,0.019,0.199,0.019,0.326v6.145h-0.644v-7.431h0.493l5.511,5.953c0.119,0.131,0.252,0.291,0.396,0.479h0.03
				c-0.021-0.243-0.03-0.45-0.03-0.623v-5.81h0.638v7.431H88.413z"/>
			<polygon fill="#FAFAFA" points="89.239,38.764 88.249,38.764 82.845,32.911 82.845,38.764 81.451,38.764 81.451,30.583 
				82.483,30.583 87.852,36.382 87.852,30.583 89.239,30.583 			"/>
		</g>
		<g>
			<path fill="#FAFAFA" d="M91.875,38.389v-7.431h2.328c1.547,0,2.725,0.308,3.53,0.924c0.806,0.615,1.21,1.512,1.21,2.688
				c0,1.132-0.433,2.052-1.297,2.758c-0.864,0.707-2.057,1.061-3.576,1.061H91.875z M92.518,31.434v6.49h1.463
				c1.379,0,2.439-0.287,3.182-0.859s1.113-1.397,1.113-2.475c0-2.104-1.391-3.156-4.169-3.156H92.518z"/>
			<path fill="#FAFAFA" d="M94.07,38.764H91.5v-8.181h2.703c1.625,0,2.89,0.337,3.758,1.001c0.9,0.688,1.357,1.692,1.357,2.986
				c0,1.245-0.482,2.271-1.435,3.048C96.955,38.378,95.672,38.764,94.07,38.764z M92.893,37.549h1.088
				c1.287,0,2.28-0.263,2.953-0.781c0.65-0.502,0.967-1.214,0.967-2.178c0-1.871-1.241-2.781-3.794-2.781h-1.214V37.549z"/>
		</g>
		<g>
			<path fill="#FAFAFA" d="M107.199,38.389l-1.065-2.313h-4.036l-1.071,2.313h-0.704l3.514-7.431h0.613l3.471,7.431H107.199z
				 M104.342,32.172c-0.049-0.103-0.087-0.205-0.115-0.307c-0.031-0.087-0.064-0.173-0.096-0.26h-0.03
				c-0.072,0.23-0.143,0.416-0.21,0.557l-1.57,3.444h3.597L104.342,32.172z"/>
			<path fill="#FAFAFA" d="M108.509,38.764h-1.55l-1.065-2.313h-3.557l-1.071,2.313H99.73l3.868-8.181h1.089L108.509,38.764z
				 M102.903,35.231h2.429l-1.218-2.656L102.903,35.231z"/>
		</g>
		<g>
			<path fill="#FAFAFA" d="M120.354,38.389v-3.564h-5.33v3.564h-0.644v-7.431h0.644v3.401h5.33v-3.401h0.638v7.431H120.354z"/>
			<polygon fill="#FAFAFA" points="121.366,38.764 119.979,38.764 119.979,35.199 115.398,35.199 115.398,38.764 114.005,38.764 
				114.005,30.583 115.398,30.583 115.398,33.984 119.979,33.984 119.979,30.583 121.366,30.583 			"/>
		</g>
		<g>
			<path fill="#FAFAFA" d="M130.348,35.419c0,2.066-1.104,3.1-3.314,3.1c-2.102,0-3.152-0.995-3.152-2.984v-4.576h0.638v4.505
				c0,1.724,0.88,2.585,2.642,2.585c1.699,0,2.55-0.838,2.55-2.514v-4.576h0.638V35.419z"/>
			<path fill="#FAFAFA" d="M127.033,38.894c-2.308,0-3.527-1.162-3.527-3.359v-4.951h1.388v4.88c0,1.508,0.721,2.21,2.267,2.21
				c1.483,0,2.175-0.68,2.175-2.139v-4.951h1.388v4.836C130.723,37.692,129.447,38.894,127.033,38.894z"/>
		</g>
		<g>
			<path fill="#FAFAFA" d="M138.904,38.389l-1.064-2.313h-4.037l-1.07,2.313h-0.704l3.513-7.431h0.614l3.471,7.431H138.904z
				 M136.047,32.172c-0.048-0.103-0.086-0.205-0.114-0.307c-0.032-0.087-0.063-0.173-0.097-0.26h-0.029
				c-0.072,0.23-0.143,0.416-0.211,0.557l-1.57,3.444h3.598L136.047,32.172z"/>
			<path fill="#FAFAFA" d="M140.215,38.764h-1.551l-1.064-2.313h-3.558l-1.07,2.313h-1.535l3.867-8.181h1.09L140.215,38.764z
				 M134.608,35.231h2.43l-1.219-2.656L134.608,35.231z"/>
		</g>
		<g>
			<path fill="#FAFAFA" d="M148.411,38.389l-5.546-6.006c-0.117-0.121-0.217-0.241-0.301-0.359l-0.084-0.105h-0.03
				c0.012,0.089,0.018,0.199,0.018,0.326v6.145h-0.644v-7.431h0.493l5.511,5.953c0.12,0.131,0.252,0.291,0.396,0.479h0.03
				c-0.021-0.243-0.03-0.45-0.03-0.623v-5.81h0.638v7.431H148.411z"/>
			<polygon fill="#FAFAFA" points="149.237,38.764 148.247,38.764 142.843,32.911 142.843,38.764 141.449,38.764 141.449,30.583 
				142.481,30.583 147.85,36.382 147.85,30.583 149.237,30.583 			"/>
		</g>
		<g>
			<path fill="#FAFAFA" d="M154.563,35.563v2.825h-0.639v-2.811l-2.852-4.62h0.723l2.166,3.584c0.079,0.121,0.178,0.304,0.294,0.547
				h0.024c0.064-0.128,0.17-0.308,0.318-0.538l2.274-3.593h0.698L154.563,35.563z"/>
			<polygon fill="#FAFAFA" points="154.938,38.764 153.549,38.764 153.549,35.685 150.4,30.583 152.007,30.583 154.282,34.348 
				154.282,34.349 154.282,34.348 156.666,30.583 158.263,30.583 154.938,35.675 			"/>
		</g>
		<g>
			<path fill="#FAFAFA" d="M166.018,35.419c0,2.066-1.104,3.1-3.314,3.1c-2.102,0-3.152-0.995-3.152-2.984v-4.576h0.639v4.505
				c0,1.724,0.88,2.585,2.641,2.585c1.7,0,2.551-0.838,2.551-2.514v-4.576h0.637V35.419z"/>
			<path fill="#FAFAFA" d="M162.703,38.894c-2.308,0-3.527-1.162-3.527-3.359v-4.951h1.389v4.88c0,1.508,0.72,2.21,2.266,2.21
				c1.484,0,2.176-0.68,2.176-2.139v-4.951h1.387v4.836C166.393,37.692,165.117,38.894,162.703,38.894z"/>
		</g>
	</g>
</g>
</svg>
