<?xml version="1.0" encoding="utf-8"?>
<!-- Generator: Adobe Illustrator 16.0.0, SVG Export Plug-In . SVG Version: 6.00 Build 0)  -->
<!DOCTYPE svg PUBLIC "-//W3C//DTD SVG 1.1//EN" "http://www.w3.org/Graphics/SVG/1.1/DTD/svg11.dtd">
<svg version="1.1" id="图层_1" xmlns="http://www.w3.org/2000/svg" xmlns:xlink="http://www.w3.org/1999/xlink" x="0px" y="0px"
	 width="75.62px" height="24.22px" viewBox="0 0 75.62 24.22" enable-background="new 0 0 75.62 24.22" xml:space="preserve">
<path fill="#DEDEDE" d="M10.122,19.4c-0.075,0.018-0.149,0.031-0.225,0.041c-0.076,0.01-0.179,0.014-0.31,0.014
	c-1.523,0-2.882-0.258-4.076-0.775c-1.193-0.516-2.198-1.217-3.017-2.1c-0.817-0.883-1.437-1.912-1.86-3.088
	C0.211,12.318,0,11.063,0,9.729s0.211-2.59,0.635-3.764c0.424-1.176,1.043-2.205,1.86-3.088c0.818-0.883,1.823-1.584,3.017-2.102
	C6.706,0.26,8.064,0,9.588,0c1.521,0,2.875,0.26,4.06,0.775c1.184,0.518,2.185,1.219,3.002,2.102s1.442,1.912,1.876,3.088
	c0.432,1.174,0.648,2.43,0.648,3.764c0,1.73-0.354,3.313-1.058,4.75c-0.705,1.439-1.725,2.59-3.059,3.455l4.51,2.988l-2.17,3.299
	L10.122,19.4z M9.588,15.791c0.808,0,1.521-0.15,2.143-0.451c0.62-0.301,1.141-0.719,1.563-1.256
	c0.423-0.535,0.738-1.174,0.945-1.916c0.206-0.742,0.31-1.557,0.31-2.439s-0.104-1.695-0.31-2.439
	c-0.207-0.742-0.522-1.381-0.945-1.916c-0.423-0.537-0.943-0.955-1.563-1.256c-0.621-0.301-1.335-0.451-2.143-0.451
	c-0.828,0-1.548,0.15-2.158,0.451C6.818,4.418,6.303,4.836,5.879,5.373C5.456,5.908,5.142,6.547,4.936,7.289
	C4.729,8.033,4.624,8.846,4.624,9.729s0.104,1.697,0.312,2.439c0.206,0.742,0.521,1.381,0.943,1.916
	c0.424,0.537,0.939,0.955,1.551,1.256C8.04,15.641,8.76,15.791,9.588,15.791"/>
<polygon fill="#DEDEDE" points="34.174,19.117 26.419,7.924 26.419,19.117 21.964,19.117 21.964,0.34 26.419,0.34 34.174,11.533 
	34.174,0.34 38.628,0.34 38.628,19.117 "/>
<path fill="#DEDEDE" d="M53.91,15.48h-7.19l-1.156,3.637H40.8L47.792,0.34h5.075l6.992,18.777h-4.766L53.91,15.48z M47.904,11.814
	h4.821L50.33,3.893L47.904,11.814z"/>
<path fill="#DEDEDE" d="M75.621,6.457c0,0.998-0.217,1.891-0.648,2.68c-0.434,0.789-1.029,1.451-1.79,1.988
	c-0.763,0.535-1.66,0.943-2.693,1.227c-1.034,0.281-2.153,0.422-3.354,0.422h-0.48v6.344H62.03V0.34h5.413
	c1.186,0,2.28,0.121,3.286,0.365c1.005,0.246,1.87,0.617,2.593,1.115c0.725,0.498,1.288,1.133,1.693,1.902
	C75.418,4.494,75.621,5.404,75.621,6.457 M71.166,6.486c0-1.73-1.23-2.594-3.693-2.594h-0.818v5.328h0.762
	c1.223,0,2.151-0.244,2.791-0.732S71.166,7.332,71.166,6.486"/>
</svg>
