<?xml version="1.0" encoding="utf-8"?>
<!-- Generator: Adobe Illustrator 16.0.0, SVG Export Plug-In . SVG Version: 6.00 Build 0)  -->
<!DOCTYPE svg PUBLIC "-//W3C//DTD SVG 1.1//EN" "http://www.w3.org/Graphics/SVG/1.1/DTD/svg11.dtd">
<svg version="1.1" id="图层_1" xmlns="http://www.w3.org/2000/svg" xmlns:xlink="http://www.w3.org/1999/xlink" x="0px" y="0px"
	 width="101.36px" height="23.86px" viewBox="0 0 101.36 23.86" enable-background="new 0 0 101.36 23.86" xml:space="preserve">
<polygon fill="#202020" points="40.336,13.793 45.504,13.793 45.504,9.662 47.827,9.662 47.827,19.854 45.504,19.854 45.504,15.598 
	40.336,15.598 40.336,19.854 38.014,19.854 38.014,9.662 40.336,9.662 "/>
<path fill="#202020" d="M52.037,15.768c0,1.805,0.57,2.553,2.49,2.553c1.922,0,2.477-0.748,2.477-2.553V9.662h2.32v6.16
	c0,1.308-0.156,2.201-0.646,2.74c-0.908,0.996-2.229,1.404-4.15,1.404c-1.92,0-3.257-0.408-4.164-1.404
	c-0.507-0.553-0.632-1.449-0.632-2.74v-6.16h2.305V15.768z"/>
<path fill="#202020" d="M66.906,9.661l4.705,10.193h-2.582l-1.016-2.427h-4.795l-0.982,2.427h-2.459l4.668-10.193H66.906z
	 M63.971,15.613h3.291l-1.676-3.919L63.971,15.613z"/>
<polygon fill="#202020" points="72.662,9.662 75.217,17.498 77.367,9.662 80.105,9.662 82.578,17.498 84.959,9.662 87.342,9.662 
	83.93,19.854 81.086,19.854 78.734,12.248 76.678,19.854 73.848,19.854 70.172,9.662 "/>
<path fill="#202020" d="M90.467,13.807h6.424v1.773h-6.438c0.014,1.832,0.799,2.5,2.625,2.5h3.813v1.773h-3.918
	c-1.338,0-2.367-0.099-3.443-0.895c-1.137-0.836-1.688-2.17-1.688-4.016c0-3.604,1.643-5.281,5.193-5.281h3.855v1.775h-3.813
	C91.404,11.438,90.559,12.203,90.467,13.807"/>
<rect x="98.936" y="9.662" fill="#202020" width="2.428" height="10.191"/>
<path fill="#202020" d="M13.633,18.615c0,0,0.057-0.043,0.028-0.117h0.001C9.94,10.366,4.849,4.206,4.849,4.206
	s-2.769,2.626-2.573,5.26c0.107,1.991,1.604,3.173,1.604,3.173c2.417,2.354,8.265,5.324,9.623,6
	C13.524,18.645,13.593,18.668,13.633,18.615"/>
<path fill="#202020" d="M12.727,20.628c-0.023-0.087-0.123-0.087-0.123-0.087v-0.002l-9.736,0.34
	c1.057,1.88,2.834,3.342,4.686,2.895c1.282-0.32,4.178-2.34,5.131-3.023h-0.001C12.756,20.682,12.727,20.628,12.727,20.628"/>
<path fill="#202020" d="M12.875,19.754c0.047-0.078-0.035-0.146-0.035-0.146v-0.003c-4.275-2.883-12.563-7.311-12.563-7.311
	c-0.752,2.333,0.262,4.211,0.262,4.211c1.055,2.232,3.073,2.908,3.073,2.908c0.93,0.383,1.862,0.409,1.862,0.409
	c0.144,0.027,5.789,0.003,7.303-0.005C12.84,19.818,12.875,19.754,12.875,19.754"/>
<path fill="#202020" d="M13.522,0c-0.424,0.035-1.568,0.297-1.568,0.297C9.378,0.963,8.768,3.303,8.768,3.303
	C8.299,4.773,8.78,6.391,8.78,6.391c0.86,3.816,5.095,10.09,6.002,11.405c0.068,0.065,0.117,0.042,0.117,0.042
	c0.098-0.027,0.09-0.121,0.09-0.121l0.004,0.002C16.394,3.713,13.522,0,13.522,0"/>
<path fill="#202020" d="M16.745,17.836c0.095,0.035,0.143-0.053,0.143-0.053h0.001c0.935-1.351,5.142-7.59,5.999-11.393
	c0,0,0.464-1.842,0.014-3.088c0,0-0.635-2.375-3.215-3.004c0,0-0.746-0.187-1.534-0.299c0,0-2.883,3.714-1.482,17.727
	C16.68,17.815,16.745,17.836,16.745,17.836"/>
<path fill="#202020" d="M19.049,20.547c0,0-0.086,0.012-0.107,0.075c0,0-0.023,0.086,0.034,0.132
	c0.931,0.666,3.757,2.645,5.12,3.025c0,0,2.516,0.859,4.703-2.896l-9.75-0.338V20.547z"/>
<path fill="#202020" d="M31.388,12.275c0,0-8.275,4.44-12.556,7.327l0.003,0.001c0,0-0.075,0.05-0.049,0.141
	c0,0,0.04,0.074,0.101,0.074c1.531,0.002,7.328,0.01,7.475-0.018c0,0,0.75-0.03,1.679-0.387c0,0,2.062-0.654,3.134-2.998
	C31.174,16.416,32.127,14.506,31.388,12.275"/>
<path fill="#202020" d="M18.053,18.615c0,0,0.066,0.05,0.131,0.008v0.002c1.395-0.693,7.199-3.646,9.602-5.986
	c0,0,1.523-1.225,1.603-3.186c0.175-2.726-2.569-5.247-2.569-5.247s-5.077,6.142-8.795,14.254h0.004
	C18.028,18.46,17.981,18.554,18.053,18.615"/>
</svg>
