<?xml version="1.0" encoding="utf-8"?>
<!-- Generator: Adobe Illustrator 19.0.0, SVG Export Plug-In . SVG Version: 6.00 Build 0)  -->
<svg version="1.1" id="图层_1" xmlns="http://www.w3.org/2000/svg" xmlns:xlink="http://www.w3.org/1999/xlink" x="0px" y="0px"
	 width="162.6px" height="85.7px" viewBox="0 0 162.6 85.7" style="enable-background:new 0 0 162.6 85.7;" xml:space="preserve">
<style type="text/css">
	.st0{fill:#EC8B95;}
	.st1{fill:#7C9BB5;}
</style>
<g id="XMLID_42_">
	<g id="XMLID_4610_">
		<g id="XMLID_4611_">
			<rect id="XMLID_4618_" x="46" y="56.9" class="st0" width="7.1" height="28.2"/>
			<path id="XMLID_4617_" class="st0" d="M110.6,65c-0.3-0.2-2.6-1.5-6-1.5c-4.6,0-7.8,3.2-7.8,7.5c0,4.2,3.1,7.5,7.8,7.5
				c3.4,0,5.7-1.3,6-1.5v7.6c-0.9,0.3-3.3,1-6.5,1c-8,0-15.1-5.5-15.1-14.6c0-8.4,6.4-14.6,15.1-14.6c3.3,0,5.8,0.8,6.5,1V65z"/>
			<path id="XMLID_4616_" class="st0" d="M36.2,65c-0.3-0.2-2.6-1.5-6-1.5c-4.6,0-7.8,3.2-7.8,7.5c0,4.2,3.1,7.5,7.8,7.5
				c3.4,0,5.7-1.3,6-1.5v7.6c-0.9,0.3-3.3,1-6.5,1c-8,0-15-5.5-15-14.6c0-8.4,6.4-14.6,15-14.6c3.4,0,5.8,0.8,6.5,1V65z"/>
			<path id="XMLID_4613_" class="st0" d="M147.9,71c0,8.1-6.2,14.6-14.9,14.6c-8.7,0-14.9-6.6-14.9-14.6c0-8.1,6.2-14.6,14.9-14.6
				C141.7,56.4,147.9,63,147.9,71z M133,63.6c-4.2,0-7.4,3.3-7.4,7.4c0,4.1,3.1,7.4,7.4,7.4c4.2,0,7.4-3.3,7.4-7.4
				C140.4,66.9,137.2,63.6,133,63.6z"/>
			<path id="XMLID_4612_" class="st0" d="M80.1,63.4c-0.1,0-3.1-0.9-5.6-0.9c-2.9,0-4.4,1-4.4,2.3c0,1.7,2.1,2.3,3.3,2.7l2,0.6
				c4.6,1.5,6.7,4.6,6.7,8.1c0,7.1-6.2,9.5-11.7,9.5c-3.8,0-7.3-0.7-7.7-0.8v-6.5c0.6,0.2,3.6,1,6.7,1c3.5,0,5.2-1,5.2-2.6
				c0-1.4-1.4-2.3-3.2-2.8c-0.4-0.1-1.1-0.3-1.5-0.5c-4-1.3-7.3-3.6-7.3-8.3c0-5.3,4-8.8,10.5-8.8c3.5,0,6.7,0.8,6.9,0.9V63.4z"/>
		</g>
	</g>
	<path id="XMLID_4609_" class="st1" d="M7.1,26.6c0-2-1.6-3.5-3.5-3.5C1.6,23,0,24.6,0,26.6V34c0,2,1.6,3.5,3.5,3.5
		c1.9,0,3.5-1.6,3.5-3.5V26.6z"/>
	<path id="XMLID_4608_" class="st1" d="M26.5,16.8c0-1.9-1.6-3.5-3.5-3.5c-2,0-3.5,1.6-3.5,3.5V34c0,2,1.6,3.5,3.5,3.5
		c2,0,3.5-1.6,3.5-3.5V16.8z"/>
	<path id="XMLID_4607_" class="st1" d="M46,3.5C46,1.6,44.4,0,42.4,0c-2,0-3.5,1.6-3.5,3.5V41c0,2,1.6,3.5,3.5,3.5
		c1.9,0,3.5-1.6,3.5-3.5V3.5z"/>
	<path id="XMLID_4606_" class="st1" d="M65.4,16.8c0-1.9-1.6-3.5-3.5-3.5c-1.9,0-3.5,1.6-3.5,3.5V34c0,2,1.6,3.5,3.5,3.5
		c1.9,0,3.5-1.6,3.5-3.5V16.8z"/>
	<path id="XMLID_4605_" class="st1" d="M84.8,26.6c0-2-1.6-3.5-3.5-3.5c-2,0-3.5,1.6-3.5,3.5V34c0,2,1.6,3.5,3.5,3.5
		c1.9,0,3.5-1.6,3.5-3.5V26.6z"/>
	<path id="XMLID_4604_" class="st1" d="M104.3,16.8c0-1.9-1.6-3.5-3.5-3.5c-1.9,0-3.5,1.6-3.5,3.5V34c0,2,1.6,3.5,3.5,3.5
		c2,0,3.5-1.6,3.5-3.5V16.8z"/>
	<path id="XMLID_4603_" class="st1" d="M123.7,3.5c0-1.9-1.6-3.5-3.5-3.5c-1.9,0-3.5,1.6-3.5,3.5V41c0,2,1.6,3.5,3.5,3.5
		c2,0,3.5-1.6,3.5-3.5V3.5z"/>
	<path id="XMLID_4602_" class="st1" d="M143.2,16.8c0-1.9-1.6-3.5-3.6-3.5c-1.9,0-3.5,1.6-3.5,3.5V34c0,2,1.6,3.5,3.5,3.5
		c2,0,3.6-1.6,3.6-3.5V16.8z"/>
	<path id="XMLID_4601_" class="st1" d="M162.6,26.6c0-2-1.6-3.5-3.5-3.5c-2,0-3.5,1.6-3.5,3.5V34c0,2,1.6,3.5,3.5,3.5
		c1.9,0,3.5-1.6,3.5-3.5V26.6z"/>
</g>
</svg>
