<?xml version="1.0" encoding="utf-8"?>
<!-- Generator: Adobe Illustrator 19.0.0, SVG Export Plug-In . SVG Version: 6.00 Build 0)  -->
<svg version="1.1" id="图层_1" xmlns="http://www.w3.org/2000/svg" xmlns:xlink="http://www.w3.org/1999/xlink" x="0px" y="0px"
	 width="97.4px" height="55.6px" viewBox="0 0 97.4 55.6" style="enable-background:new 0 0 97.4 55.6;" xml:space="preserve">
<style type="text/css">
	.st0{fill:#EDEDED;}
</style>
<g id="XMLID_14335_">
	<polygon id="XMLID_3527_" class="st0" points="0,55.6 2.5,55.6 2.5,53.3 4.1,53.3 4.1,55.6 6.1,55.6 6.1,52.8 7.7,52.8 7.7,55.6 
		9.8,55.6 9.8,51.6 11.4,51.6 11.4,55.6 13.5,55.6 13.5,48.9 15.1,48.9 15.1,55.6 17.1,55.6 17.1,45 18.7,45 18.7,55.6 20.8,55.6 
		20.8,38.5 22.4,38.5 22.4,55.6 24.4,55.6 24.4,30.9 26,30.9 26,55.6 28.1,55.6 28.1,38.5 29.7,38.5 29.7,55.6 31.7,55.6 31.7,45 
		33.4,45 33.4,55.6 35.4,55.6 35.4,48.9 37,48.9 37,55.6 39,55.6 39,51.6 40.7,51.6 40.7,55.6 42.7,55.6 42.7,52.8 44.3,52.8 
		44.3,55.6 46.3,55.6 46.3,53.3 48,53.3 48,55.6 50,55.6 50,53.3 51.6,53.3 51.6,55.6 53.6,55.6 53.6,52.8 55.3,52.8 55.3,55.6 
		57.3,55.6 57.3,51.6 58.9,51.6 58.9,55.6 61,55.6 61,48.9 62.6,48.9 62.6,55.6 64.6,55.6 64.6,45 66.2,45 66.2,55.6 68.3,55.6 
		68.3,38.5 69.9,38.5 69.9,55.6 71.9,55.6 71.9,30.9 73.5,30.9 73.5,55.6 75.6,55.6 75.6,38.5 77.2,38.5 77.2,55.6 79.2,55.6 
		79.2,45 80.8,45 80.8,55.6 82.9,55.6 82.9,48.9 84.5,48.9 84.5,55.6 86.5,55.6 86.5,51.6 88.2,51.6 88.2,55.6 90.2,55.6 90.2,52.8 
		91.8,52.8 91.8,55.6 93.8,55.6 93.8,53.3 95.5,53.3 95.5,55.6 97.4,55.6 97.4,18.5 0,18.5 	"/>
	<g id="XMLID_14331_">
		<path id="XMLID_14322_" class="st0" d="M5.8,6.7H3.3V4.1c0-0.7,0-1.2-0.1-1.4C3.2,2.6,3.1,2.5,2.9,2.5c-0.2,0-0.3,0.1-0.4,0.3
			c0,0.2-0.1,0.7-0.1,1.4V11c0,0.7,0,1.2,0.1,1.4c0.1,0.2,0.2,0.3,0.4,0.3c0.2,0,0.3-0.1,0.3-0.3c0.1-0.2,0.1-0.7,0.1-1.5V9h2.5v0.6
			c0,1.5-0.1,2.6-0.2,3.2c-0.1,0.6-0.4,1.2-0.9,1.7c-0.5,0.5-1.1,0.7-1.8,0.7c-0.7,0-1.3-0.2-1.8-0.6c-0.4-0.4-0.8-0.9-0.9-1.7
			C0.1,12.2,0,11.1,0,9.7V5.5c0-1.1,0-1.9,0.1-2.4c0-0.5,0.2-1,0.4-1.5c0.2-0.5,0.6-0.9,1-1.2C1.9,0.1,2.3,0,2.9,0
			c0.7,0,1.3,0.2,1.8,0.6c0.5,0.4,0.8,1,0.9,1.6c0.1,0.7,0.2,1.6,0.2,3V6.7L5.8,6.7z"/>
		<polygon id="XMLID_14321_" class="st0" points="11.3,4.3 11.3,15.2 9,15.2 9,4.3 11.3,4.3 		"/>
		<path id="XMLID_14296_" class="st0" d="M18.8,7.4h-2.1V6.6c0-0.4,0-0.6-0.1-0.7c0-0.1-0.1-0.1-0.3-0.1c-0.1,0-0.2,0.1-0.3,0.2
			C16,6,16,6.3,16,6.5c0,0.4,0,0.7,0.1,0.8c0.1,0.2,0.3,0.4,0.6,0.7c1,0.8,1.6,1.4,1.9,1.9c0.3,0.5,0.4,1.2,0.4,2.3
			c0,0.8-0.1,1.3-0.2,1.7c-0.1,0.4-0.4,0.7-0.8,0.9c-0.4,0.3-0.9,0.4-1.4,0.4c-0.6,0-1.1-0.1-1.5-0.4c-0.4-0.3-0.7-0.7-0.8-1.1
			c-0.1-0.4-0.2-1.1-0.2-1.9v-0.7H16v1.3c0,0.4,0,0.7,0.1,0.8c0.1,0.1,0.2,0.2,0.3,0.2c0.1,0,0.3-0.1,0.3-0.2
			c0.1-0.1,0.1-0.4,0.1-0.7c0-0.6-0.1-1.1-0.2-1.2c-0.1-0.2-0.5-0.5-1.1-1c-0.6-0.5-0.9-0.8-1.1-1C14.3,9,14.1,8.7,14,8.3
			c-0.1-0.4-0.2-0.8-0.2-1.4c0-0.8,0.1-1.4,0.3-1.8c0.2-0.4,0.4-0.7,0.8-0.9c0.4-0.2,0.8-0.3,1.4-0.3c0.6,0,1.1,0.1,1.5,0.4
			c0.4,0.2,0.7,0.5,0.8,0.9c0.1,0.4,0.2,1,0.2,1.8V7.4L18.8,7.4z"/>
		<path id="XMLID_14295_" class="st0" d="M26.9,8.8h-2.1V6.9c0-0.5,0-0.9-0.1-1c0-0.1-0.1-0.2-0.3-0.2c-0.2,0-0.3,0.1-0.3,0.2
			c0,0.2-0.1,0.5-0.1,1.1v5c0,0.5,0,0.9,0.1,1.1c0.1,0.1,0.1,0.2,0.3,0.2c0.1,0,0.2-0.1,0.3-0.2c0-0.2,0.1-0.5,0.1-1.2v-1.4h2.1V11
			c0,1.1-0.1,1.9-0.2,2.4c-0.1,0.5-0.4,0.9-0.8,1.2c-0.4,0.3-0.9,0.5-1.4,0.5c-0.6,0-1.1-0.1-1.5-0.5c-0.4-0.3-0.7-0.7-0.8-1.2
			c-0.1-0.5-0.2-1.3-0.2-2.4V7.9c0-0.8,0-1.4,0-1.8c0-0.4,0.1-0.8,0.4-1.1c0.2-0.4,0.4-0.7,0.8-0.9C23.6,4,24,3.9,24.5,3.9
			c0.6,0,1.1,0.2,1.5,0.5c0.4,0.3,0.6,0.7,0.8,1.2c0.1,0.5,0.2,1.2,0.2,2.3V8.8L26.9,8.8z"/>
		<path id="XMLID_3647_" class="st0" d="M32.7,11.9c0,0.7,0,1.1-0.1,1.2c0,0.2-0.1,0.3-0.3,0.3c-0.1,0-0.2-0.1-0.3-0.2
			C32,13,32,12.6,32,12V6.9c0-0.6,0-0.9,0.1-1c0.1-0.1,0.1-0.2,0.3-0.2c0.1,0,0.2,0.1,0.3,0.2c0,0.1,0.1,0.5,0.1,1V11.9L32.7,11.9z
			 M35,8.6c0-1.1,0-1.9-0.1-2.4c0-0.4-0.2-0.9-0.4-1.2c-0.2-0.4-0.5-0.7-0.9-0.8c-0.4-0.2-0.8-0.3-1.3-0.3c-0.5,0-0.9,0.1-1.3,0.3
			c-0.4,0.2-0.7,0.5-0.9,0.9c-0.2,0.4-0.3,0.8-0.4,1.2c0,0.4-0.1,1.2-0.1,2.3v1.9c0,1.1,0,1.9,0.1,2.3c0,0.5,0.2,0.9,0.4,1.3
			c0.2,0.4,0.5,0.7,0.9,0.8c0.4,0.2,0.8,0.3,1.3,0.3c0.5,0,0.9-0.1,1.3-0.3c0.4-0.2,0.7-0.5,0.9-0.9c0.2-0.4,0.4-0.8,0.4-1.2
			c0-0.5,0.1-1.2,0.1-2.3V8.6L35,8.6z"/>
		<path id="XMLID_3646_" class="st0" d="M49.7,4.7h-2.3V3.6c0-0.5,0-0.8-0.1-1c-0.1-0.1-0.1-0.2-0.3-0.2c-0.1,0-0.3,0.1-0.3,0.3
			c-0.1,0.2-0.1,0.5-0.1,0.8c0,0.5,0,0.9,0.1,1.1c0.1,0.2,0.3,0.5,0.7,0.9c1.1,1,1.7,1.8,2,2.5c0.3,0.7,0.4,1.7,0.4,3.1
			c0,1-0.1,1.8-0.2,2.3c-0.1,0.5-0.5,0.9-0.9,1.2c-0.4,0.3-1,0.5-1.6,0.5c-0.7,0-1.2-0.2-1.7-0.6c-0.5-0.4-0.8-0.9-0.9-1.5
			c-0.1-0.6-0.2-1.5-0.2-2.6V9.7h2.3v1.8c0,0.5,0,0.9,0.1,1.1c0.1,0.2,0.2,0.2,0.3,0.2c0.2,0,0.3-0.1,0.4-0.3
			c0.1-0.2,0.1-0.5,0.1-0.9c0-0.9-0.1-1.4-0.2-1.7c-0.2-0.3-0.6-0.7-1.2-1.3c-0.6-0.6-1-1.1-1.2-1.3c-0.2-0.3-0.4-0.7-0.5-1.2
			c-0.1-0.5-0.2-1.1-0.2-1.9c0-1.1,0.1-1.9,0.3-2.4c0.2-0.5,0.5-0.9,0.9-1.2C45.9,0.1,46.4,0,47,0c0.6,0,1.2,0.1,1.6,0.5
			c0.4,0.3,0.7,0.7,0.8,1.2c0.1,0.5,0.2,1.3,0.2,2.5V4.7L49.7,4.7z"/>
		<path id="XMLID_3645_" class="st0" d="M57.7,4.3l-1.7,7v3.9h-2.2v-3.9l-1.7-7h2.1c0.4,2.1,0.6,3.6,0.6,4.3C55,7.5,55.2,6,55.5,4.3
			H57.7L57.7,4.3z"/>
		<path id="XMLID_3643_" class="st0" d="M64.4,7.4h-2V6.6c0-0.4,0-0.6-0.1-0.7c-0.1-0.1-0.1-0.1-0.3-0.1c-0.1,0-0.2,0.1-0.3,0.2
			c-0.1,0.1-0.1,0.3-0.1,0.6c0,0.4,0,0.7,0.1,0.8C62,7.5,62.1,7.8,62.5,8c0.9,0.8,1.5,1.4,1.7,1.9c0.2,0.5,0.4,1.2,0.4,2.3
			c0,0.8-0.1,1.3-0.2,1.7c-0.1,0.4-0.4,0.7-0.8,0.9c-0.4,0.3-0.8,0.4-1.3,0.4c-0.6,0-1-0.1-1.4-0.4c-0.4-0.3-0.6-0.7-0.8-1.1
			c-0.1-0.4-0.2-1.1-0.2-1.9v-0.7h2v1.3c0,0.4,0,0.7,0.1,0.8c0,0.1,0.1,0.2,0.3,0.2c0.1,0,0.3-0.1,0.3-0.2c0.1-0.1,0.1-0.4,0.1-0.7
			c0-0.6-0.1-1.1-0.2-1.2c-0.1-0.2-0.4-0.5-1-1c-0.5-0.5-0.8-0.8-1-1C60.2,9,60.1,8.7,60,8.3c-0.1-0.4-0.2-0.8-0.2-1.4
			c0-0.8,0.1-1.4,0.3-1.8c0.1-0.4,0.4-0.7,0.7-0.9c0.4-0.2,0.8-0.3,1.3-0.3c0.6,0,1,0.1,1.4,0.4c0.4,0.2,0.6,0.5,0.8,0.9
			c0.1,0.4,0.2,1,0.2,1.8V7.4L64.4,7.4z"/>
		<polygon id="XMLID_3642_" class="st0" points="72,4.3 72,6.5 70.8,6.5 70.8,15.2 68.7,15.2 68.7,6.5 67.4,6.5 67.4,4.3 72,4.3 		
			"/>
		<polygon id="XMLID_3530_" class="st0" points="75.5,4.3 79.3,4.3 79.3,6.5 77.8,6.5 77.8,8.6 79.2,8.6 79.2,10.6 77.8,10.6 
			77.8,13 79.4,13 79.4,15.2 75.5,15.2 75.5,4.3 		"/>
		<path id="XMLID_3529_" class="st0" d="M89.6,4.3v10.9h-1.8l0-7.4L87,15.2h-1.3L85,8v7.2h-1.8V4.3h2.7C85.9,5,86,5.8,86.1,6.6
			l0.3,2.8l0.5-5.1H89.6L89.6,4.3z"/>
		<path id="XMLID_3552_" class="st0" d="M97.2,7.4h-2V6.6c0-0.4,0-0.6-0.1-0.7c0-0.1-0.1-0.1-0.2-0.1c-0.1,0-0.2,0.1-0.3,0.2
			c-0.1,0.1-0.1,0.3-0.1,0.6c0,0.4,0,0.7,0.1,0.8C94.8,7.5,95,7.8,95.3,8c0.9,0.8,1.5,1.4,1.7,1.9c0.3,0.5,0.4,1.2,0.4,2.3
			c0,0.8-0.1,1.3-0.2,1.7c-0.1,0.4-0.4,0.7-0.8,0.9c-0.4,0.3-0.8,0.4-1.3,0.4c-0.6,0-1-0.1-1.4-0.4c-0.4-0.3-0.7-0.7-0.8-1.1
			c-0.1-0.4-0.2-1.1-0.2-1.9v-0.7h1.9v1.3c0,0.4,0,0.7,0.1,0.8c0.1,0.1,0.1,0.2,0.3,0.2c0.1,0,0.2-0.1,0.3-0.2
			c0.1-0.1,0.1-0.4,0.1-0.7c0-0.6-0.1-1.1-0.2-1.2c-0.1-0.2-0.5-0.5-1-1c-0.5-0.5-0.9-0.8-1-1c-0.2-0.2-0.3-0.5-0.4-0.9
			c-0.1-0.4-0.2-0.8-0.2-1.4c0-0.8,0.1-1.4,0.2-1.8c0.1-0.4,0.4-0.7,0.8-0.9C94,4,94.4,3.9,94.9,3.9c0.6,0,1,0.1,1.4,0.4
			c0.4,0.2,0.6,0.5,0.8,0.9c0.1,0.4,0.2,1,0.2,1.8V7.4L97.2,7.4z"/>
	</g>
</g>
</svg>
