<?xml version="1.0" encoding="utf-8"?>
<!-- Generator: Adobe Illustrator 19.0.0, SVG Export Plug-In . SVG Version: 6.00 Build 0)  -->
<svg version="1.1" id="图层_1" xmlns="http://www.w3.org/2000/svg" xmlns:xlink="http://www.w3.org/1999/xlink" x="0px" y="0px"
	 width="61.3px" height="32.3px" viewBox="0 0 61.3 32.3" style="enable-background:new 0 0 61.3 32.3;" xml:space="preserve">
<style type="text/css">
	.st0{fill:#FFFFFF;}
</style>
<g id="XMLID_14270_">
	<g id="XMLID_14280_">
		<g id="XMLID_14281_">
			<rect id="XMLID_14288_" x="17.3" y="21.5" class="st0" width="2.7" height="10.7"/>
			<path id="XMLID_14287_" class="st0" d="M41.7,24.5c-0.1-0.1-1-0.6-2.3-0.6c-1.7,0-2.9,1.2-2.9,2.8c0,1.6,1.2,2.8,2.9,2.8
				c1.3,0,2.1-0.5,2.3-0.6v2.9c-0.3,0.1-1.3,0.4-2.5,0.4c-3,0-5.7-2.1-5.7-5.5c0-3.2,2.4-5.5,5.7-5.5c1.3,0,2.2,0.3,2.5,0.4V24.5z"
				/>
			<path id="XMLID_14286_" class="st0" d="M13.6,24.5c-0.1-0.1-1-0.6-2.3-0.6c-1.7,0-2.9,1.2-2.9,2.8c0,1.6,1.2,2.8,2.9,2.8
				c1.3,0,2.1-0.5,2.3-0.6v2.9c-0.3,0.1-1.3,0.4-2.5,0.4c-3,0-5.7-2.1-5.7-5.5c0-3.2,2.4-5.5,5.7-5.5c1.3,0,2.2,0.3,2.5,0.4V24.5z"
				/>
			<path id="XMLID_14283_" class="st0" d="M55.8,26.8c0,3-2.4,5.5-5.6,5.5c-3.3,0-5.6-2.5-5.6-5.5c0-3,2.4-5.5,5.6-5.5
				C53.5,21.3,55.8,23.8,55.8,26.8z M50.2,24c-1.6,0-2.8,1.3-2.8,2.8c0,1.6,1.2,2.8,2.8,2.8c1.6,0,2.8-1.3,2.8-2.8
				C53,25.3,51.8,24,50.2,24z"/>
			<path id="XMLID_14282_" class="st0" d="M30.2,23.9c0,0-1.2-0.3-2.1-0.3c-1.1,0-1.7,0.4-1.7,0.9c0,0.7,0.8,0.9,1.2,1l0.7,0.2
				c1.7,0.6,2.5,1.7,2.5,3c0,2.7-2.4,3.6-4.4,3.6c-1.4,0-2.8-0.3-2.9-0.3v-2.5c0.2,0.1,1.4,0.4,2.5,0.4c1.3,0,2-0.4,2-1
				c0-0.5-0.5-0.8-1.2-1.1c-0.2-0.1-0.4-0.1-0.6-0.2c-1.5-0.5-2.7-1.4-2.7-3.1c0-2,1.5-3.3,4-3.3c1.3,0,2.5,0.3,2.6,0.3V23.9z"/>
		</g>
	</g>
	<path id="XMLID_14279_" class="st0" d="M2.7,10c0-0.7-0.6-1.3-1.3-1.3C0.6,8.7,0,9.3,0,10v2.8c0,0.7,0.6,1.3,1.3,1.3
		c0.7,0,1.3-0.6,1.3-1.3V10z"/>
	<path id="XMLID_14278_" class="st0" d="M10,6.4C10,5.6,9.4,5,8.7,5C7.9,5,7.3,5.6,7.3,6.4v6.5c0,0.7,0.6,1.3,1.3,1.3
		c0.7,0,1.3-0.6,1.3-1.3V6.4z"/>
	<path id="XMLID_14277_" class="st0" d="M17.3,1.3C17.3,0.6,16.7,0,16,0c-0.7,0-1.3,0.6-1.3,1.3v14.2c0,0.7,0.6,1.3,1.3,1.3
		c0.7,0,1.3-0.6,1.3-1.3V1.3z"/>
	<path id="XMLID_14276_" class="st0" d="M24.7,6.4c0-0.7-0.6-1.3-1.3-1.3C22.6,5,22,5.6,22,6.4v6.5c0,0.7,0.6,1.3,1.3,1.3
		c0.7,0,1.3-0.6,1.3-1.3V6.4z"/>
	<path id="XMLID_14275_" class="st0" d="M32,10c0-0.7-0.6-1.3-1.3-1.3c-0.7,0-1.3,0.6-1.3,1.3v2.8c0,0.7,0.6,1.3,1.3,1.3
		c0.7,0,1.3-0.6,1.3-1.3V10z"/>
	<path id="XMLID_14274_" class="st0" d="M39.3,6.4C39.3,5.6,38.7,5,38,5c-0.7,0-1.3,0.6-1.3,1.3v6.5c0,0.7,0.6,1.3,1.3,1.3
		c0.7,0,1.3-0.6,1.3-1.3V6.4z"/>
	<path id="XMLID_14273_" class="st0" d="M46.7,1.3c0-0.7-0.6-1.3-1.3-1.3C44.6,0,44,0.6,44,1.3v14.2c0,0.7,0.6,1.3,1.3,1.3
		c0.7,0,1.3-0.6,1.3-1.3V1.3z"/>
	<path id="XMLID_14272_" class="st0" d="M54,6.4C54,5.6,53.4,5,52.7,5c-0.7,0-1.3,0.6-1.3,1.3v6.5c0,0.7,0.6,1.3,1.3,1.3
		c0.8,0,1.3-0.6,1.3-1.3V6.4z"/>
	<path id="XMLID_14271_" class="st0" d="M61.3,10c0-0.7-0.6-1.3-1.3-1.3c-0.7,0-1.3,0.6-1.3,1.3v2.8c0,0.7,0.6,1.3,1.3,1.3
		c0.7,0,1.3-0.6,1.3-1.3V10z"/>
</g>
</svg>
