<?xml version="1.0" encoding="utf-8"?>
<!-- Generator: Adobe Illustrator 16.0.0, SVG Export Plug-In . SVG Version: 6.00 Build 0)  -->
<!DOCTYPE svg PUBLIC "-//W3C//DTD SVG 1.1//EN" "http://www.w3.org/Graphics/SVG/1.1/DTD/svg11.dtd">
<svg version="1.1" id="图层_1" xmlns="http://www.w3.org/2000/svg" xmlns:xlink="http://www.w3.org/1999/xlink" x="0px" y="0px"
	 width="126.38px" height="31.65px" viewBox="0 0 126.38 31.65" enable-background="new 0 0 126.38 31.65" xml:space="preserve">
<g>
	<g>
		<path fill="#FFFFFF" d="M50.176,2.313h1.222h1.234v15.117c0,2.068-0.45,3.666-1.351,4.791s-2.182,1.688-3.844,1.688
			c-1.695,0-3.002-0.524-3.924-1.573s-1.345-2.493-1.271-4.334v-1.458h2.295v1.458c0,1.116,0.239,1.977,0.716,2.582
			s1.156,0.908,2.036,0.908c0.888,0,1.592-0.365,2.11-1.095c0.518-0.729,0.777-1.718,0.777-2.967V2.313z"/>
		<path fill="#FFFFFF" d="M47.437,24.409c-1.837,0-3.283-0.587-4.299-1.743c-1.005-1.144-1.474-2.72-1.395-4.685l0-1.938h3.295
			v1.958c0,0.995,0.205,1.76,0.608,2.272c0.381,0.483,0.918,0.718,1.644,0.718c0.723,0,1.28-0.289,1.702-0.884
			c0.455-0.64,0.685-1.54,0.685-2.678V1.813h3.456v15.617c0,2.176-0.492,3.894-1.461,5.104
			C50.675,23.778,49.25,24.409,47.437,24.409z M42.742,17.044v0.958c-0.069,1.72,0.317,3.06,1.146,4.004s1.99,1.403,3.548,1.403
			c1.516,0,2.645-0.49,3.454-1.5c0.824-1.028,1.241-2.535,1.241-4.479V2.813h-1.456v14.617c0,1.35-0.292,2.445-0.87,3.257
			c-0.615,0.865-1.461,1.305-2.517,1.305c-1.037,0-1.854-0.37-2.429-1.099c-0.546-0.693-0.823-1.666-0.823-2.892v-0.958H42.742z"/>
	</g>
	<g>
		<path fill="#FFFFFF" d="M58.584,17.902c0,1.287,0.214,2.215,0.642,2.781c0.428,0.567,1.123,0.852,2.085,0.852
			c1.069,0,1.917-0.479,2.542-1.438s0.938-2.258,0.938-3.897V8.034H65.9h1.111v15.303h-1.049h-1.061v-2.331
			c-0.148,0.276-0.314,0.539-0.494,0.786c-0.946,1.307-2.13,1.96-3.554,1.96c-1.497,0-2.62-0.434-3.369-1.302
			c-0.749-0.867-1.123-2.169-1.123-3.904V8.034h1.11h1.11V17.902z"/>
		<path fill="#FFFFFF" d="M60.854,24.252c-1.643,0-2.903-0.496-3.748-1.476c-0.825-0.956-1.244-2.379-1.244-4.23V7.534h3.221v10.368
			c0,1.171,0.182,2.005,0.541,2.479c0.332,0.439,0.883,0.653,1.687,0.653c0.897,0,1.591-0.396,2.124-1.211
			c0.568-0.871,0.856-2.091,0.856-3.624V7.534h3.221v16.303h-3.109V22.6C63.43,23.696,62.239,24.252,60.854,24.252z M56.863,8.534
			v10.012c0,1.604,0.337,2.808,1.001,3.577c0.655,0.76,1.633,1.129,2.99,1.129c1.265,0,2.295-0.573,3.148-1.753
			c0.169-0.23,0.321-0.474,0.458-0.729l0.941-1.757v3.824h1.109V8.534h-1.221V16.2c0,1.73-0.344,3.134-1.02,4.171
			c-0.721,1.104-1.717,1.664-2.96,1.664c-1.123,0-1.959-0.354-2.485-1.051c-0.5-0.661-0.742-1.67-0.742-3.082V8.534H56.863z"/>
	</g>
	<g>
		<path fill="#FFFFFF" d="M70.545,8.034h1.049h1.063v2.26l0.492-0.759c0.963-1.306,2.168-1.959,3.615-1.959
			c1.457,0,2.58,0.458,3.369,1.373s1.186,2.217,1.186,3.904v10.483h-1.111h-1.111v-9.611c0-1.344-0.223-2.314-0.672-2.91
			s-1.174-0.894-2.178-0.894c-1.07,0-1.916,0.47-2.541,1.408c-0.627,0.939-0.939,2.21-0.939,3.812v8.195h-1.109h-1.111V8.034z"/>
		<path fill="#FFFFFF" d="M81.818,23.837h-3.223V13.726c0-1.228-0.191-2.105-0.57-2.609c-0.354-0.467-0.934-0.694-1.779-0.694
			c-0.898,0-1.594,0.388-2.125,1.186c-0.566,0.851-0.855,2.04-0.855,3.534v8.695h-3.221V7.534h3.111v1.205
			c0.998-1.109,2.205-1.663,3.607-1.663c1.602,0,2.863,0.521,3.748,1.547c0.867,1.004,1.307,2.428,1.307,4.23V23.837z
			 M79.596,22.837h1.223v-9.983c0-1.557-0.359-2.76-1.064-3.578c-0.695-0.807-1.674-1.199-2.99-1.199
			c-1.291,0-2.342,0.574-3.213,1.756l-1.395,2.147V8.534h-1.111v14.303h1.221v-7.695c0-1.694,0.344-3.07,1.023-4.089
			c0.721-1.082,1.715-1.631,2.957-1.631c1.164,0,2.031,0.367,2.578,1.093c0.52,0.691,0.771,1.741,0.771,3.211V22.837z"/>
	</g>
	<g>
		<path fill="#FFFFFF" d="M84.852,2.313h2.27V5.23h-2.27V2.313z M84.877,8.034h1.109h1.111v15.303h-1.111h-1.109V8.034z"/>
		<path fill="#FFFFFF" d="M87.598,23.837h-3.221V7.534h3.221V23.837z M85.377,22.837h1.221V8.534h-1.221V22.837z M87.621,5.73h-3.27
			V1.813h3.27V5.73z M85.352,4.73h1.27V2.813h-1.27V4.73z"/>
	</g>
	<g>
		<path fill="#FFFFFF" d="M90.445,8.034h1.049h1.063v2.174l0.109-0.187c0.955-1.63,2.209-2.445,3.764-2.445
			c1.729,0,3.096,0.688,4.104,2.066s1.512,3.239,1.512,5.585c0,2.66-0.508,4.746-1.523,6.257c-1.018,1.512-2.426,2.268-4.227,2.268
			c-1.49,0-2.674-0.663-3.555-1.988l-0.074-0.114v7.737h-1.109h-1.111V8.034z M96.184,21.521c1.16,0,2.039-0.508,2.641-1.523
			c0.6-1.015,0.9-2.495,0.9-4.44c0-1.916-0.287-3.335-0.863-4.255s-1.465-1.38-2.666-1.38c-1.225,0-2.119,0.52-2.684,1.559
			c-0.563,1.039-0.846,2.685-0.846,4.935c0,1.63,0.305,2.889,0.914,3.775S95.057,21.521,96.184,21.521z"/>
		<path fill="#FFFFFF" d="M93.166,29.887h-3.221V7.534h3.111v1.095c0.924-1.031,2.055-1.553,3.373-1.553
			c1.889,0,3.404,0.764,4.508,2.271c1.066,1.459,1.607,3.438,1.607,5.88c0,2.749-0.541,4.948-1.609,6.536
			c-1.109,1.651-2.672,2.488-4.641,2.488c-1.225,0-2.271-0.404-3.129-1.205V29.887z M90.945,28.887h1.221v-8.925l0.994,1.529
			c0.785,1.184,1.813,1.761,3.135,1.761c1.639,0,2.885-0.669,3.811-2.047c0.955-1.419,1.439-3.431,1.439-5.978
			c0-2.226-0.477-4.006-1.416-5.29c-0.916-1.252-2.125-1.861-3.699-1.861c-1.375,0-2.465,0.719-3.332,2.198l-1.041,1.754V8.534
			h-1.111V28.887z M96.184,22.021c-1.297,0-2.311-0.521-3.016-1.547c-0.664-0.968-1.002-2.333-1.002-4.059
			c0-2.357,0.297-4.049,0.906-5.173c0.654-1.208,1.707-1.82,3.123-1.82c1.381,0,2.42,0.543,3.09,1.614
			c0.633,1.011,0.939,2.489,0.939,4.521c0,2.027-0.326,3.607-0.971,4.695C98.561,21.426,97.527,22.021,96.184,22.021z
			 M96.195,10.422c-1.037,0-1.771,0.424-2.244,1.297c-0.52,0.96-0.785,2.54-0.785,4.696c0,1.52,0.279,2.695,0.826,3.492
			c0.514,0.749,1.23,1.113,2.191,1.113c0.979,0,1.701-0.418,2.211-1.278c0.551-0.932,0.83-2.34,0.83-4.186
			c0-1.813-0.266-3.154-0.787-3.989C97.955,10.797,97.223,10.422,96.195,10.422z"/>
	</g>
	<g>
		<path fill="#FFFFFF" d="M110.256,23.752c-1.869,0-3.336-0.687-4.406-2.06c-1.068-1.373-1.604-3.271-1.604-5.692
			c0-2.574,0.564-4.622,1.697-6.143c1.131-1.521,2.65-2.281,4.559-2.281c1.727,0,3.121,0.744,4.184,2.231
			c1.061,1.487,1.592,3.441,1.592,5.863l-0.027,0.915h-9.643c0.09,1.526,0.391,2.689,0.9,3.49c0.623,0.973,1.609,1.459,2.959,1.459
			c0.846,0,1.586-0.276,2.221-0.83c0.633-0.553,1.02-1.258,1.158-2.116h2.197c-0.33,1.678-0.988,2.958-1.975,3.84
			C113.08,23.311,111.811,23.752,110.256,23.752z M113.961,14.513c-0.064-1.421-0.369-2.526-0.912-3.318
			c-0.602-0.877-1.48-1.315-2.641-1.315c-1.17,0-2.104,0.505-2.803,1.516c-0.551,0.792-0.885,1.831-0.998,3.118H113.961z"/>
		<path fill="#FFFFFF" d="M110.256,24.252c-2.021,0-3.637-0.758-4.801-2.252c-1.135-1.457-1.709-3.476-1.709-6
			c0-2.673,0.604-4.84,1.795-6.441c1.227-1.647,2.895-2.482,4.961-2.482c1.891,0,3.434,0.821,4.59,2.441
			c1.117,1.566,1.686,3.637,1.686,6.153l-0.041,1.415h-9.59c0.117,1.175,0.379,2.089,0.783,2.722
			c0.529,0.825,1.359,1.228,2.537,1.228c0.729,0,1.348-0.231,1.891-0.706c0.549-0.479,0.873-1.074,0.994-1.82l0.068-0.42h3.23
			l-0.117,0.597c-0.35,1.779-1.066,3.164-2.133,4.116C113.324,23.764,111.93,24.252,110.256,24.252z M110.502,8.076
			c-1.758,0-3.117,0.681-4.158,2.08c-1.061,1.425-1.598,3.391-1.598,5.844c0,2.297,0.504,4.108,1.498,5.385
			c0.979,1.257,2.291,1.867,4.012,1.867c1.439,0,2.578-0.392,3.479-1.196c0.781-0.698,1.346-1.694,1.682-2.967h-1.166
			c-0.207,0.787-0.621,1.456-1.234,1.993c-0.723,0.632-1.582,0.953-2.549,0.953c-1.523,0-2.66-0.568-3.381-1.688
			c-0.563-0.884-0.883-2.104-0.979-3.731l-0.031-0.529h9.689l0.012-0.429c0-2.291-0.506-4.166-1.5-5.56
			C113.307,8.737,112.072,8.076,110.502,8.076z M114.484,15.013h-8.424l0.049-0.544c0.121-1.368,0.486-2.499,1.086-3.359
			c0.795-1.148,1.875-1.73,3.213-1.73c1.328,0,2.355,0.516,3.053,1.533c0.594,0.866,0.932,2.07,1,3.577L114.484,15.013z
			 M107.17,14.013h6.256c-0.104-1.07-0.369-1.922-0.789-2.535c-0.506-0.739-1.236-1.099-2.229-1.099c-1.004,0-1.785,0.425-2.391,1.3
			C107.596,12.284,107.313,13.067,107.17,14.013z"/>
	</g>
	<g>
		<path fill="#FFFFFF" d="M119.439,8.034h1.049h1.063v2.617c0.189-0.41,0.391-0.782,0.604-1.116c0.84-1.306,1.871-1.959,3.098-1.959
			c0.205,0,0.416,0.043,0.629,0.129v2.632l-0.457-0.015c-1.199,0-2.127,0.417-2.781,1.251c-0.654,0.835-0.98,2.024-0.98,3.568v8.195
			h-1.111h-1.111V8.034z"/>
		<path fill="#FFFFFF" d="M122.162,23.837h-3.223V7.534h3.111v1.278c0.879-1.153,1.953-1.736,3.201-1.736
			c0.27,0,0.543,0.056,0.816,0.165l0.313,0.126v3.486l-0.973-0.031c-1.031,0-1.814,0.347-2.373,1.06
			c-0.58,0.741-0.873,1.838-0.873,3.26V23.837z M119.939,22.837h1.223v-7.695c0-1.651,0.365-2.955,1.086-3.877
			c0.744-0.947,1.797-1.432,3.133-1.442V8.085c-0.043-0.006-0.086-0.009-0.129-0.009c-1.053,0-1.928,0.565-2.676,1.729
			c-0.201,0.313-0.393,0.668-0.572,1.055l-0.953,2.071V8.534h-1.111V22.837z"/>
	</g>
</g>
<g>
	<g>
		<path fill="#FFFFFF" d="M42.946,29.896h-0.371h-0.372v-4.702h0.46h0.464l2.848,3.821v-3.821h0.371h0.372v4.702h-0.422h-0.421
			l-2.929-3.836V29.896z"/>
		<path fill="#FFFFFF" d="M46.844,30.021h-1.03l-2.742-3.591v3.591h-0.993v-4.952h1.112l2.66,3.569v-3.569h0.993V30.021z
			 M45.938,29.771h0.656v-4.452h-0.493v4.073l-3.035-4.073h-0.737v4.452h0.493V25.69L45.938,29.771z"/>
	</g>
	<g>
		<path fill="#FFFFFF" d="M48.066,29.896v-4.702h4.159v0.281v0.282h-3.389v1.436h3.095v0.282v0.281h-3.095v1.577h3.432v0.281v0.281
			H48.066z"/>
		<path fill="#FFFFFF" d="M52.394,30.021h-4.452v-4.952h4.409v0.813h-3.389v1.186h3.095v0.813h-3.095v1.327h3.432V30.021z
			 M48.191,29.771h3.952v-0.313h-3.432v-1.827h3.095v-0.313h-3.095v-1.686h3.389v-0.313h-3.909V29.771z"/>
	</g>
	<g>
		<path fill="#FFFFFF" d="M54.769,25.758h-1.923v-0.282v-0.281h4.616v0.281v0.282h-1.923v4.139h-0.383h-0.387V25.758z"/>
		<path fill="#FFFFFF" d="M55.664,30.021h-1.02v-4.139h-1.923v-0.813h4.866v0.813h-1.923V30.021z M54.894,29.771h0.52v-4.139h1.923
			v-0.313h-4.366v0.313h1.923V29.771z"/>
	</g>
	<g>
		<path fill="#FFFFFF" d="M59.255,29.896l-1.49-4.702h0.414h0.418l1.014,3.717c0.018,0.063,0.033,0.121,0.044,0.178
			s0.018,0.097,0.018,0.12h-0.001c0-0.028,0.007-0.07,0.02-0.128s0.028-0.114,0.046-0.17l1.204-3.717h0.434h0.433l1.195,3.698
			c0.021,0.057,0.037,0.116,0.05,0.176c0.013,0.06,0.02,0.104,0.02,0.131h-0.001c0-0.023,0.005-0.065,0.017-0.125
			s0.026-0.12,0.044-0.182l1.026-3.698h0.414h0.414l-1.489,4.702h-0.414h-0.414l-1.234-3.637c-0.021-0.062-0.039-0.123-0.054-0.183
			c-0.015-0.06-0.023-0.101-0.023-0.125h-0.001c0,0.028-0.007,0.071-0.02,0.13s-0.03,0.118-0.05,0.178l-1.206,3.637h-0.414H59.255z"
			/>
		<path fill="#FFFFFF" d="M63.59,30.021h-1.009l-1.218-3.589l-1.19,3.589h-1.009l-1.569-4.952h1.099l0.986,3.617l1.171-3.617h1.048
			l1.166,3.605l1.001-3.605h1.093L63.59,30.021z M62.76,29.771h0.647l1.409-4.452h-0.561l-1.001,3.606
			c-0.018,0.06-0.031,0.116-0.042,0.173c-0.008,0.042-0.013,0.073-0.015,0.095l-0.007,0.117l-0.242,0.014l-0.001-0.125
			c-0.001-0.029-0.007-0.063-0.016-0.104c-0.012-0.054-0.027-0.108-0.046-0.159l-1.168-3.616h-0.685l-1.175,3.63
			c-0.017,0.053-0.032,0.105-0.043,0.159c-0.009,0.04-0.015,0.071-0.017,0.095L59.79,29.32l-0.242,0.014l-0.001-0.125
			c0-0.025-0.006-0.056-0.014-0.095c-0.011-0.054-0.025-0.109-0.042-0.168l-0.989-3.627h-0.565l1.41,4.452h0.646l1.178-3.551
			c0.02-0.057,0.035-0.111,0.047-0.165c0.015-0.067,0.017-0.094,0.017-0.104v-0.125h0.25l0.001,0.125
			c0,0.003,0.001,0.023,0.019,0.094c0.015,0.057,0.032,0.115,0.052,0.175L62.76,29.771z"/>
	</g>
	<g>
		<path fill="#FFFFFF" d="M66.254,29.342c-0.51-0.455-0.766-1.053-0.766-1.793c0-0.742,0.256-1.342,0.766-1.798
			c0.512-0.456,1.18-0.685,2.006-0.685c0.83,0,1.5,0.229,2.01,0.685c0.508,0.456,0.764,1.056,0.764,1.798
			c0,0.74-0.256,1.338-0.764,1.793c-0.51,0.455-1.18,0.683-2.01,0.683C67.434,30.024,66.766,29.797,66.254,29.342z M69.693,28.934
			c0.365-0.352,0.547-0.813,0.547-1.385c0-0.573-0.182-1.037-0.547-1.39c-0.363-0.354-0.842-0.529-1.434-0.529
			s-1.068,0.176-1.432,0.529c-0.365,0.353-0.547,0.816-0.547,1.39c0,0.571,0.182,1.033,0.547,1.385
			c0.363,0.352,0.84,0.528,1.432,0.528S69.33,29.285,69.693,28.934z"/>
		<path fill="#FFFFFF" d="M68.26,30.149c-0.854,0-1.557-0.24-2.088-0.714c-0.537-0.478-0.809-1.112-0.809-1.887
			c0-0.776,0.271-1.413,0.809-1.891c0.531-0.476,1.234-0.717,2.088-0.717c0.857,0,1.563,0.241,2.092,0.717
			c0.535,0.479,0.807,1.114,0.807,1.891c0,0.773-0.271,1.408-0.807,1.886C69.822,29.909,69.117,30.149,68.26,30.149z M68.26,25.191
			c-0.791,0-1.438,0.22-1.922,0.652c-0.48,0.43-0.725,1.003-0.725,1.705c0,0.71,0.238,1.266,0.725,1.699
			c0.484,0.433,1.131,0.651,1.922,0.651c0.795,0,1.443-0.219,1.926-0.65c0.486-0.435,0.723-0.991,0.723-1.7
			c0-0.702-0.244-1.275-0.723-1.705C69.701,25.411,69.053,25.191,68.26,25.191z M68.26,29.587c-0.621,0-1.133-0.189-1.52-0.563
			s-0.584-0.87-0.584-1.475c0-0.606,0.197-1.104,0.584-1.479c0.385-0.374,0.896-0.564,1.52-0.564c0.625,0,1.137,0.19,1.521,0.564
			c0.387,0.376,0.584,0.873,0.584,1.479c0,0.604-0.197,1.101-0.584,1.475S68.883,29.587,68.26,29.587z M68.26,25.755
			c-0.563,0-1.004,0.161-1.346,0.494c-0.336,0.326-0.508,0.764-0.508,1.3c0,0.541,0.166,0.965,0.508,1.295
			c0.338,0.327,0.791,0.493,1.346,0.493c0.557,0,1.01-0.166,1.348-0.493c0.336-0.325,0.508-0.762,0.508-1.295
			c0-0.536-0.172-0.974-0.508-1.3C69.27,25.921,68.816,25.755,68.26,25.755z"/>
	</g>
	<g>
		<path fill="#FFFFFF" d="M72.102,25.194h0.385h2.262c0.604,0,1.063,0.108,1.379,0.325c0.314,0.216,0.471,0.533,0.471,0.951
			c0,0.412-0.164,0.733-0.49,0.966c-0.084,0.058-0.172,0.109-0.268,0.153l0.127,0.052c0.346,0.164,0.525,0.44,0.539,0.828
			l0.031,0.857c0.004,0.141,0.025,0.242,0.064,0.304c0.039,0.063,0.113,0.115,0.225,0.16v0.103h-0.947
			c-0.02-0.039-0.041-0.139-0.061-0.301c-0.021-0.162-0.037-0.343-0.047-0.541l-0.018-0.371c-0.01-0.292-0.096-0.5-0.26-0.625
			c-0.162-0.125-0.428-0.188-0.795-0.188h-1.826v2.028h-0.385h-0.387V25.194z M72.873,27.318h1.902c0.355,0,0.617-0.064,0.781-0.193
			c0.166-0.129,0.248-0.333,0.248-0.612c0-0.271-0.086-0.47-0.262-0.596c-0.174-0.125-0.449-0.188-0.826-0.188h-1.844V27.318z"/>
		<path fill="#FFFFFF" d="M72.998,30.021h-1.021v-4.952h2.771c0.627,0,1.115,0.117,1.449,0.348c0.35,0.239,0.525,0.594,0.525,1.054
			c0,0.452-0.184,0.812-0.543,1.067c-0.021,0.015-0.041,0.028-0.063,0.042c0.33,0.191,0.5,0.488,0.514,0.886l0.031,0.856
			c0.004,0.155,0.031,0.218,0.045,0.242c0.018,0.027,0.059,0.067,0.166,0.11l0.078,0.032v0.312h-1.146l-0.035-0.066
			c-0.021-0.039-0.047-0.11-0.076-0.344c-0.02-0.162-0.035-0.342-0.047-0.55l-0.018-0.372c-0.008-0.256-0.078-0.43-0.211-0.532
			c-0.139-0.106-0.381-0.161-0.719-0.161h-1.701V30.021z M72.227,29.771h0.521v-2.028h1.951c0.4,0,0.686,0.07,0.871,0.214
			c0.193,0.147,0.297,0.39,0.309,0.72l0.018,0.369c0.01,0.198,0.025,0.377,0.045,0.531c0.012,0.092,0.023,0.152,0.031,0.191h0.58
			c-0.021-0.022-0.041-0.047-0.057-0.072c-0.051-0.08-0.078-0.2-0.084-0.365l-0.031-0.856c-0.012-0.341-0.164-0.576-0.467-0.72
			l-0.391-0.158l0.264-0.12c0.086-0.039,0.17-0.087,0.248-0.143c0.295-0.209,0.438-0.491,0.438-0.863
			c0-0.378-0.137-0.655-0.418-0.848c-0.291-0.202-0.73-0.304-1.307-0.304h-2.521V29.771z M74.775,27.443h-2.027v-1.84h1.969
			c0.408,0,0.701,0.069,0.9,0.212c0.207,0.15,0.313,0.385,0.313,0.697c0,0.318-0.1,0.558-0.295,0.711
			C75.445,27.371,75.164,27.443,74.775,27.443z M72.998,27.193h1.777c0.326,0,0.563-0.056,0.705-0.167
			c0.135-0.104,0.199-0.272,0.199-0.514c0-0.23-0.068-0.393-0.209-0.494c-0.152-0.109-0.406-0.165-0.754-0.165h-1.719V27.193z"/>
	</g>
	<g>
		<path fill="#FFFFFF" d="M77.795,25.194h0.383h0.387v2.283l2.771-2.283h0.529h0.533l-2.41,1.92l2.457,2.782h-0.498h-0.504
			l-2.02-2.326l-0.859,0.686v1.641h-0.383h-0.387V25.194z"/>
		<path fill="#FFFFFF" d="M82.723,30.021h-1.336l-1.979-2.278l-0.719,0.573v1.705h-1.02v-4.952h1.02v2.144l2.602-2.144h1.465
			L80.17,27.13L82.723,30.021z M81.502,29.771h0.666l-2.359-2.673l2.232-1.779h-0.66l-2.941,2.423v-2.423h-0.52v4.452h0.52v-1.576
			l1-0.798L81.502,29.771z"/>
	</g>
	<g>
		<path fill="#FFFFFF" d="M86.607,26.558c-0.033-0.297-0.174-0.525-0.424-0.687c-0.248-0.161-0.582-0.241-1.004-0.241
			c-0.432,0-0.762,0.069-0.986,0.208s-0.336,0.341-0.336,0.607c0,0.182,0.074,0.316,0.225,0.406s0.449,0.178,0.902,0.266l0.99,0.195
			c0.531,0.104,0.91,0.259,1.137,0.463c0.229,0.203,0.342,0.49,0.342,0.861c0,0.426-0.195,0.764-0.586,1.014
			c-0.391,0.249-0.92,0.374-1.59,0.374c-0.742,0-1.322-0.144-1.74-0.432c-0.408-0.284-0.611-0.672-0.611-1.164v-0.035h0.707
			c0.014,0.341,0.162,0.604,0.449,0.79s0.686,0.278,1.197,0.278c0.471,0,0.83-0.067,1.076-0.202
			c0.244-0.134,0.367-0.331,0.367-0.592c0-0.226-0.08-0.394-0.242-0.502c-0.16-0.106-0.482-0.208-0.969-0.304l-0.99-0.195
			c-0.502-0.098-0.859-0.234-1.074-0.409c-0.213-0.175-0.32-0.417-0.32-0.727c0-0.449,0.186-0.807,0.557-1.069
			c0.369-0.264,0.869-0.396,1.498-0.396c0.639,0,1.148,0.133,1.527,0.396c0.379,0.265,0.582,0.63,0.607,1.095H86.607z"/>
		<path fill="#FFFFFF" d="M85.277,30.149c-0.766,0-1.375-0.152-1.811-0.454c-0.443-0.308-0.666-0.733-0.666-1.267v-0.16h0.953
			l0.004,0.12c0.012,0.301,0.139,0.526,0.393,0.69c0.264,0.171,0.645,0.258,1.129,0.258c0.447,0,0.789-0.063,1.016-0.187
			c0.207-0.113,0.303-0.267,0.303-0.482c0-0.184-0.061-0.313-0.188-0.398c-0.1-0.066-0.342-0.17-0.922-0.284l-0.992-0.195
			c-0.525-0.103-0.895-0.245-1.127-0.436c-0.244-0.199-0.367-0.476-0.367-0.823c0-0.491,0.205-0.885,0.609-1.171
			c0.389-0.278,0.918-0.419,1.57-0.419c0.66,0,1.199,0.141,1.6,0.419c0.41,0.286,0.631,0.687,0.66,1.19l0.008,0.132h-0.953
			l-0.012-0.111c-0.029-0.26-0.15-0.454-0.367-0.596c-0.227-0.146-0.543-0.221-0.938-0.221c-0.406,0-0.717,0.063-0.92,0.189
			c-0.186,0.115-0.277,0.279-0.277,0.501c0,0.137,0.053,0.232,0.164,0.299c0.135,0.081,0.424,0.165,0.861,0.25l0.99,0.195
			c0.559,0.11,0.951,0.271,1.197,0.493c0.254,0.227,0.383,0.548,0.383,0.954c0,0.47-0.217,0.846-0.645,1.119
			C86.525,30.017,85.967,30.149,85.277,30.149z M83.053,28.519c0.023,0.409,0.205,0.728,0.555,0.972
			c0.395,0.271,0.957,0.409,1.67,0.409c0.641,0,1.154-0.119,1.521-0.354c0.357-0.228,0.529-0.524,0.529-0.908
			c0-0.337-0.098-0.588-0.299-0.768c-0.211-0.188-0.572-0.335-1.08-0.434l-0.99-0.195c-0.471-0.092-0.779-0.184-0.941-0.281
			c-0.186-0.112-0.285-0.29-0.285-0.514c0-0.312,0.133-0.552,0.396-0.714c0.246-0.152,0.59-0.227,1.051-0.227
			c0.445,0,0.805,0.088,1.072,0.262c0.25,0.16,0.404,0.385,0.463,0.666h0.463c-0.051-0.364-0.229-0.649-0.541-0.867
			c-0.355-0.248-0.846-0.374-1.455-0.374c-0.6,0-1.08,0.125-1.426,0.372c-0.338,0.24-0.504,0.557-0.504,0.968
			c0,0.272,0.09,0.479,0.275,0.63c0.197,0.161,0.539,0.29,1.018,0.383l0.992,0.195c0.506,0.101,0.836,0.205,1.014,0.322
			c0.197,0.133,0.297,0.337,0.297,0.606c0,0.309-0.146,0.545-0.434,0.701c-0.266,0.146-0.637,0.218-1.135,0.218
			c-0.533,0-0.959-0.101-1.266-0.299c-0.287-0.186-0.453-0.444-0.496-0.77H83.053z"/>
	</g>
</g>
<g>
	<g>
		<g>
			<path fill="#FFFFFF" d="M3.343,21.467c-0.313-1.035-0.479-2.118-0.479-3.234c0-0.107,0.007-0.215,0.009-0.322H0v3.557H3.343z"/>
		</g>
	</g>
	<g>
		<g>
			<path fill="#FFFFFF" d="M2.933,17.032c0.133-1.248,0.478-2.439,0.998-3.558H0v3.558H2.933z"/>
		</g>
	</g>
	<g>
		<g>
			<path fill="#FFFFFF" d="M0,9.04v3.556h4.378c0.755-1.325,1.767-2.528,2.982-3.556H0z"/>
		</g>
	</g>
	<g>
		<g>
			<path fill="#FFFFFF" d="M5.822,25.901c-0.928-1.072-1.664-2.271-2.169-3.557H0v3.557H5.822z"/>
		</g>
	</g>
	<g>
		<g>
			<path fill="#FFFFFF" d="M36.469,3.726v-1.6c0-1.158-0.936-2.094-2.091-2.094H2.09C0.935,0.032,0,0.968,0,2.126v1.6H36.469z"/>
		</g>
	</g>
	<g>
		<g>
			<path fill="#FFFFFF" d="M29.107,9.04c1.215,1.027,2.229,2.23,2.982,3.556h4.379V9.04H29.107z"/>
		</g>
	</g>
	<g>
		<g>
			<path fill="#FFFFFF" d="M36.469,22.345h-3.654c-0.506,1.286-1.242,2.484-2.168,3.557h5.822V22.345z"/>
		</g>
	</g>
	<g>
		<g>
			<path fill="#FFFFFF" d="M0,4.604v3.555h8.51c2.65-1.833,6.035-2.933,9.725-2.933c3.688,0,7.075,1.1,9.724,2.933h8.51V4.604H0z"/>
		</g>
	</g>
	<g>
		<g>
			<path fill="#FFFFFF" d="M29.813,26.78c-2.817,2.73-6.958,4.459-11.578,4.459c-4.623,0-8.764-1.729-11.581-4.459H0v2.803
				c0,1.159,0.935,2.096,2.09,2.096h32.288c1.156,0,2.091-0.937,2.091-2.096V26.78H29.813z"/>
		</g>
	</g>
	<g>
		<g>
			<path fill="#FFFFFF" d="M32.539,13.475c0.521,1.118,0.863,2.31,0.998,3.558h2.932v-3.558H32.539z"/>
		</g>
	</g>
	<g>
		<g>
			<path fill="#FFFFFF" d="M33.595,17.91c0.003,0.107,0.009,0.215,0.009,0.322c0,1.116-0.166,2.199-0.479,3.234h3.344V17.91H33.595z
				"/>
		</g>
	</g>
</g>
<g>
	<g>
		<path fill="#FFFFFF" d="M10.038,31.437c0,0-6.644-3.719-5.315-10.434c0,0,0.798-1.994,3.544,0.729c0,0,3.986,1.217,2.658-1.434
			c-1.33-2.652-2.126-2.559-1.063-12.358c0,0,6.733,0.546,10.985,7.802c0,0,3.189-3.537,5.847-2.539c0,0,0.532,0.996-0.708,4.443
			c0,0,1.683-0.271,2.126,0c0,0,0.887,0.637,0,4.266c0,0,2.48,0.09,3.809,0.09c0,0-0.886,5.625-3.721,9.436H10.038z"/>
	</g>
</g>
</svg>
