<?xml version="1.0" encoding="utf-8"?>
<!-- Generator: Adobe Illustrator 16.0.0, SVG Export Plug-In . SVG Version: 6.00 Build 0)  -->
<!DOCTYPE svg PUBLIC "-//W3C//DTD SVG 1.1//EN" "http://www.w3.org/Graphics/SVG/1.1/DTD/svg11.dtd">
<svg version="1.1" id="图层_1" xmlns="http://www.w3.org/2000/svg" xmlns:xlink="http://www.w3.org/1999/xlink" x="0px" y="0px"
	 width="59.52px" height="33.32px" viewBox="0 0 59.52 33.32" enable-background="new 0 0 59.52 33.32" xml:space="preserve">
<g>
	<rect x="0.079" y="10.671" fill="#3E555F" width="59.438" height="22.649"/>
	<polygon fill="#CACDCE" points="0.079,10.672 59.518,10.672 59.518,33.32 58.326,33.32 58.326,31.906 57.328,31.906 57.328,33.32 
		56.086,33.32 56.086,31.624 55.102,31.624 55.102,33.32 53.857,33.32 53.857,30.865 52.873,30.865 52.873,33.32 51.631,33.32 
		51.631,29.22 50.646,29.22 50.646,33.32 49.402,33.32 49.402,26.867 48.416,26.867 48.416,33.32 47.174,33.32 47.174,22.883 
		46.178,22.883 46.178,33.32 44.945,33.32 44.945,18.242 43.949,18.242 43.949,33.32 42.705,33.32 42.705,22.883 41.721,22.883 
		41.721,33.32 40.479,33.32 40.479,26.867 39.494,26.867 39.494,33.32 38.25,33.32 38.25,29.22 37.266,29.22 37.266,33.32 
		36.021,33.32 36.021,30.865 35.037,30.865 35.037,33.32 33.793,33.32 33.793,31.624 32.797,31.624 32.797,33.32 31.553,33.32 
		31.553,31.906 30.569,31.906 30.569,33.32 29.339,33.32 29.339,31.906 28.354,31.906 28.354,33.32 27.11,33.32 27.11,31.624 
		26.126,31.624 26.126,33.32 24.884,33.32 24.884,30.865 23.898,30.865 23.898,33.32 22.655,33.32 22.655,29.22 21.671,29.22 
		21.671,33.32 20.428,33.32 20.428,26.867 19.43,26.867 19.43,33.32 18.187,33.32 18.187,22.883 17.202,22.883 17.202,33.32 
		15.958,33.32 15.958,18.242 14.974,18.242 14.974,33.32 13.73,33.32 13.73,22.883 12.747,22.883 12.747,33.32 11.503,33.32 
		11.503,26.867 10.519,26.867 10.519,33.32 9.275,33.32 9.275,29.22 8.29,29.22 8.29,33.32 7.048,33.32 7.048,30.865 6.05,30.865 
		6.05,33.32 4.806,33.32 4.806,31.624 3.823,31.624 3.823,33.32 2.579,33.32 2.579,31.906 1.595,31.906 1.595,33.32 0.079,33.32 	
		"/>
	<path fill="#FFFFFF" d="M3.55,4.065H2.035V2.522c0-0.45-0.013-0.733-0.039-0.848C1.957,1.558,1.892,1.507,1.788,1.507
		c-0.116,0-0.193,0.063-0.232,0.206C1.528,1.841,1.517,2.136,1.517,2.586v4.139c0,0.437,0.012,0.72,0.039,0.849
		c0.039,0.128,0.104,0.192,0.221,0.192c0.115,0,0.181-0.064,0.207-0.192c0.039-0.129,0.052-0.451,0.052-0.939V5.517H3.55v0.347
		c0,0.925-0.052,1.581-0.129,1.966C3.33,8.216,3.149,8.551,2.864,8.846C2.565,9.129,2.216,9.284,1.788,9.284
		c-0.44,0-0.803-0.129-1.087-0.373c-0.272-0.245-0.468-0.58-0.558-1.017c-0.09-0.436-0.143-1.091-0.143-1.965V3.332
		c0-0.643,0.013-1.131,0.039-1.453C0.065,1.558,0.157,1.25,0.299,0.953c0.144-0.294,0.337-0.527,0.583-0.706
		C1.142,0.08,1.426,0.002,1.75,0.002c0.44,0,0.804,0.129,1.088,0.386c0.298,0.271,0.479,0.591,0.57,0.99
		C3.498,1.777,3.55,2.38,3.55,3.216V4.065z"/>
	<rect x="5.493" y="2.638" fill="#FFFFFF" width="1.386" height="6.646"/>
	<path fill="#FFFFFF" d="M11.478,4.502h-1.283V4.013c0-0.231-0.025-0.373-0.051-0.437c-0.026-0.064-0.092-0.09-0.156-0.09
		c-0.077,0-0.143,0.038-0.182,0.129C9.769,3.691,9.742,3.821,9.742,3.988c0,0.23,0.026,0.398,0.077,0.5
		C9.858,4.605,10,4.746,10.207,4.9c0.61,0.463,0.985,0.835,1.141,1.132c0.155,0.282,0.247,0.757,0.247,1.413
		c0,0.476-0.053,0.822-0.144,1.041c-0.078,0.232-0.259,0.411-0.505,0.566c-0.26,0.154-0.545,0.232-0.881,0.232
		c-0.375,0-0.687-0.09-0.945-0.271C8.86,8.846,8.692,8.615,8.603,8.345C8.524,8.076,8.485,7.689,8.485,7.201V6.764h1.283v0.81
		c0,0.244,0.024,0.398,0.051,0.476c0.039,0.063,0.104,0.102,0.195,0.102c0.09,0,0.155-0.039,0.193-0.128
		c0.054-0.091,0.065-0.232,0.065-0.411c0-0.387-0.039-0.644-0.116-0.759C10.065,6.725,9.845,6.532,9.508,6.25
		C9.159,5.968,8.938,5.748,8.835,5.62C8.718,5.492,8.628,5.324,8.55,5.093C8.485,4.861,8.446,4.578,8.446,4.218
		c0-0.501,0.052-0.873,0.156-1.118c0.104-0.23,0.271-0.411,0.504-0.552c0.221-0.129,0.506-0.193,0.83-0.193
		c0.362,0,0.66,0.077,0.92,0.218c0.246,0.142,0.412,0.322,0.492,0.553c0.09,0.219,0.129,0.591,0.129,1.118V4.502z"/>
	<path fill="#FFFFFF" d="M16.412,5.388h-1.256V4.231c0-0.334-0.013-0.54-0.039-0.63c-0.026-0.077-0.078-0.116-0.169-0.116
		c-0.104,0-0.155,0.052-0.194,0.142c-0.026,0.103-0.038,0.322-0.038,0.668v3.072c0,0.334,0.012,0.541,0.038,0.643
		c0.039,0.09,0.091,0.142,0.194,0.142c0.078,0,0.143-0.052,0.169-0.142c0.026-0.102,0.039-0.334,0.039-0.707V6.468h1.256v0.27
		c0,0.681-0.039,1.17-0.103,1.465c-0.078,0.283-0.234,0.54-0.467,0.759c-0.246,0.206-0.531,0.321-0.882,0.321
		c-0.375,0-0.673-0.09-0.905-0.283c-0.246-0.18-0.402-0.436-0.479-0.758c-0.065-0.322-0.104-0.81-0.104-1.466v-1.94
		c0-0.476,0-0.836,0.026-1.08c0.026-0.232,0.09-0.462,0.22-0.682c0.116-0.231,0.272-0.398,0.479-0.526
		c0.208-0.129,0.454-0.193,0.725-0.193c0.363,0,0.661,0.103,0.907,0.295c0.234,0.193,0.389,0.437,0.466,0.733
		c0.078,0.295,0.117,0.758,0.117,1.375V5.388z"/>
	<path fill="#FFFFFF" d="M19.948,7.252c0,0.399-0.014,0.643-0.039,0.746s-0.077,0.154-0.168,0.154c-0.092,0-0.143-0.039-0.168-0.128
		c-0.027-0.091-0.039-0.335-0.039-0.72V4.206c0-0.346,0.025-0.553,0.052-0.617c0.038-0.077,0.091-0.103,0.167-0.103
		c0.079,0,0.131,0.039,0.156,0.129c0.025,0.076,0.039,0.283,0.039,0.591V7.252z M21.347,5.247c0-0.681-0.013-1.157-0.039-1.44
		c-0.025-0.27-0.115-0.527-0.246-0.758c-0.143-0.231-0.323-0.398-0.557-0.514c-0.22-0.128-0.479-0.18-0.764-0.18
		c-0.298,0-0.557,0.064-0.79,0.18c-0.222,0.128-0.401,0.309-0.531,0.539c-0.129,0.22-0.208,0.477-0.233,0.76
		c-0.026,0.269-0.039,0.745-0.039,1.413v1.144c0,0.682,0.013,1.158,0.039,1.427c0.025,0.283,0.104,0.527,0.246,0.772
		c0.143,0.231,0.324,0.397,0.543,0.514c0.234,0.115,0.48,0.18,0.766,0.18c0.297,0,0.57-0.065,0.79-0.193
		c0.22-0.116,0.401-0.296,0.53-0.527c0.143-0.233,0.221-0.476,0.246-0.76c0.026-0.281,0.039-0.745,0.039-1.413V5.247z"/>
	<path fill="#FFFFFF" d="M30.311,2.882h-1.386V2.227c0-0.308-0.026-0.513-0.051-0.591c-0.041-0.09-0.092-0.129-0.17-0.129
		c-0.091,0-0.154,0.052-0.195,0.168c-0.051,0.115-0.076,0.282-0.076,0.513c0,0.308,0.025,0.527,0.076,0.682
		c0.065,0.141,0.195,0.321,0.429,0.54c0.661,0.617,1.061,1.118,1.231,1.504c0.18,0.398,0.258,1.028,0.258,1.902
		c0,0.63-0.039,1.105-0.143,1.401c-0.09,0.309-0.285,0.553-0.543,0.758c-0.273,0.207-0.596,0.309-0.958,0.309
		c-0.402,0-0.738-0.115-1.023-0.36c-0.285-0.231-0.467-0.527-0.558-0.886c-0.09-0.373-0.129-0.888-0.129-1.556V5.902h1.399v1.081
		c0,0.333,0.013,0.552,0.052,0.642c0.038,0.103,0.116,0.141,0.207,0.141c0.103,0,0.168-0.051,0.22-0.18
		c0.039-0.115,0.064-0.295,0.064-0.539c0-0.527-0.038-0.862-0.128-1.029c-0.104-0.154-0.336-0.425-0.713-0.81
		c-0.361-0.372-0.607-0.655-0.726-0.823c-0.129-0.18-0.219-0.41-0.297-0.719c-0.091-0.308-0.13-0.695-0.13-1.171
		c0-0.68,0.064-1.181,0.169-1.49c0.116-0.321,0.297-0.566,0.556-0.745c0.247-0.181,0.545-0.258,0.907-0.258
		c0.39,0,0.713,0.091,0.999,0.284c0.258,0.192,0.439,0.437,0.518,0.731c0.09,0.297,0.143,0.798,0.143,1.505V2.882z"/>
	<path fill="#FFFFFF" d="M35.18,2.637l-1.049,4.242v2.404h-1.334V6.879l-1.01-4.242h1.307c0.221,1.299,0.338,2.173,0.363,2.622
		c0.092-0.706,0.221-1.581,0.4-2.622H35.18z"/>
	<path fill="#FFFFFF" d="M39.285,4.502h-1.191V4.013c0-0.231-0.012-0.373-0.039-0.437c-0.039-0.064-0.076-0.09-0.154-0.09
		c-0.064,0-0.129,0.038-0.156,0.129c-0.037,0.076-0.064,0.206-0.064,0.373c0,0.23,0.027,0.398,0.064,0.5
		c0.053,0.117,0.17,0.258,0.363,0.412c0.557,0.463,0.92,0.835,1.063,1.132c0.143,0.282,0.219,0.757,0.219,1.413
		c0,0.476-0.039,0.822-0.115,1.041c-0.092,0.232-0.246,0.411-0.479,0.566c-0.234,0.154-0.506,0.232-0.816,0.232
		c-0.35,0-0.635-0.09-0.881-0.271c-0.234-0.167-0.389-0.398-0.467-0.668c-0.078-0.269-0.117-0.656-0.117-1.144V6.764h1.193v0.81
		c0,0.244,0.012,0.398,0.051,0.476c0.025,0.063,0.09,0.102,0.168,0.102c0.09,0,0.156-0.039,0.193-0.128
		c0.039-0.091,0.053-0.232,0.053-0.411c0-0.387-0.039-0.644-0.117-0.759c-0.076-0.129-0.271-0.322-0.594-0.604
		c-0.313-0.282-0.52-0.502-0.623-0.63s-0.195-0.296-0.26-0.527c-0.064-0.232-0.104-0.515-0.104-0.875
		c0-0.501,0.053-0.873,0.156-1.118c0.09-0.23,0.246-0.411,0.453-0.552c0.221-0.129,0.479-0.193,0.777-0.193
		c0.336,0,0.609,0.077,0.842,0.218c0.234,0.142,0.389,0.322,0.467,0.553c0.078,0.219,0.115,0.591,0.115,1.118V4.502z"/>
	<polygon fill="#FFFFFF" points="43.922,2.637 43.922,3.975 43.172,3.975 43.172,9.283 41.891,9.283 41.891,3.975 41.139,3.975 
		41.139,2.637 	"/>
	<polygon fill="#FFFFFF" points="46.061,2.637 48.379,2.637 48.379,3.975 47.459,3.975 47.459,5.221 48.328,5.221 48.328,6.495 
		47.459,6.495 47.459,7.947 48.469,7.947 48.469,9.283 46.061,9.283 	"/>
	<path fill="#FFFFFF" d="M54.674,2.637v6.646h-1.113l-0.014-4.486l-0.439,4.486h-0.791L51.85,4.9v4.383h-1.127V2.637h1.658
		c0.053,0.399,0.104,0.875,0.156,1.414l0.182,1.684l0.285-3.098H54.674z"/>
	<path fill="#FFFFFF" d="M59.324,4.502h-1.191V4.013c0-0.231-0.014-0.373-0.039-0.437s-0.078-0.09-0.145-0.09
		c-0.076,0-0.127,0.038-0.166,0.129c-0.039,0.076-0.053,0.206-0.053,0.373c0,0.23,0.014,0.398,0.064,0.5
		c0.039,0.117,0.17,0.258,0.363,0.412c0.557,0.463,0.906,0.835,1.049,1.132c0.156,0.282,0.221,0.757,0.221,1.413
		c0,0.476-0.039,0.822-0.117,1.041c-0.078,0.232-0.246,0.411-0.479,0.566c-0.232,0.154-0.506,0.232-0.816,0.232
		c-0.336,0-0.635-0.09-0.867-0.271c-0.246-0.167-0.402-0.398-0.479-0.668c-0.078-0.269-0.105-0.656-0.105-1.144V6.764h1.18v0.81
		c0,0.244,0.025,0.398,0.051,0.476c0.039,0.063,0.092,0.102,0.182,0.102c0.078,0,0.143-0.039,0.182-0.128
		c0.039-0.091,0.064-0.232,0.064-0.411c0-0.387-0.039-0.644-0.117-0.759c-0.09-0.129-0.283-0.322-0.596-0.604
		c-0.322-0.282-0.531-0.502-0.633-0.63c-0.105-0.128-0.184-0.296-0.246-0.527c-0.078-0.232-0.105-0.515-0.105-0.875
		c0-0.501,0.053-0.873,0.145-1.118c0.09-0.23,0.244-0.411,0.465-0.552c0.207-0.129,0.467-0.193,0.764-0.193
		c0.338,0,0.623,0.077,0.855,0.218c0.232,0.142,0.389,0.322,0.467,0.553c0.064,0.219,0.104,0.591,0.104,1.118V4.502z"/>
</g>
</svg>
