<?xml version="1.0" encoding="utf-8"?>
<!-- Generator: Adobe Illustrator 17.0.0, SVG Export Plug-In . SVG Version: 6.00 Build 0)  -->
<!DOCTYPE svg PUBLIC "-//W3C//DTD SVG 1.1//EN" "http://www.w3.org/Graphics/SVG/1.1/DTD/svg11.dtd">
<svg version="1.1" id="图层_1" xmlns="http://www.w3.org/2000/svg" xmlns:xlink="http://www.w3.org/1999/xlink" x="0px" y="0px"
	 width="1275.59px" height="504.566px" viewBox="0 0 1275.59 504.566" enable-background="new 0 0 1275.59 504.566"
	 xml:space="preserve">
<g>
	<g>
		<g>
			<rect x="0" y="0" fill="#3685B1" width="1275.59" height="126.142"/>
		</g>
	</g>
	<g>
		<g>
			<rect x="0" y="126.142" fill="#3685B1" width="1275.59" height="126.142"/>
		</g>
	</g>
	<g>
		<g>
			<rect x="0" y="252.283" fill="#3685B1" width="1275.59" height="126.142"/>
		</g>
	</g>
	<g>
		<g>
			<rect x="0" y="378.425" fill="#3685B1" width="1275.59" height="126.142"/>
		</g>
	</g>
	<rect x="221.509" y="0" fill="#C6C4C0" width="986.544" height="39.688"/>
	<rect x="221.509" y="0" fill="#252525" width="1.684" height="40.416"/>
	<rect x="221.509" y="39.688" fill="#252525" width="986.544" height="1.456"/>
	<rect x="1206.131" y="0.125" fill="#252525" width="1.922" height="42.481"/>
	<rect x="1095.443" y="39.813" fill="#252525" width="112.61" height="2.793"/>
	<rect x="158.966" y="0" fill="#327D9D" width="26" height="47.604"/>
	<rect x="181.468" y="0" fill="#205264" width="3.163" height="47.604"/>
	<rect x="1226.633" y="0" fill="#327D9D" width="26" height="47.604"/>
	<rect x="1249.135" y="0" fill="#205264" width="3.163" height="47.604"/>
	<rect x="221.524" y="41.145" fill="#408FB2" width="20.889" height="84.998"/>
	<rect x="242.414" y="41.146" fill="#327694" width="54.167" height="84.998"/>
	<rect x="296.581" y="41.145" fill="#408FB2" width="20.889" height="84.998"/>
	<rect x="317.471" y="41.146" fill="#327694" width="54.167" height="84.998"/>
	<rect x="371.638" y="41.145" fill="#408FB2" width="20.889" height="84.998"/>
	<rect x="392.528" y="41.146" fill="#327694" width="54.167" height="84.998"/>
	<rect x="446.694" y="41.145" fill="#408FB2" width="20.889" height="84.998"/>
	<rect x="467.584" y="41.146" fill="#327694" width="54.167" height="84.998"/>
	<rect x="521.751" y="41.145" fill="#408FB2" width="20.889" height="84.998"/>
	<rect x="542.641" y="41.146" fill="#327694" width="54.167" height="84.998"/>
	<rect x="596.807" y="41.145" fill="#408FB2" width="20.889" height="84.998"/>
	<rect x="617.697" y="41.146" fill="#327694" width="54.167" height="84.998"/>
	<rect x="671.864" y="41.145" fill="#408FB2" width="20.889" height="84.998"/>
	<rect x="692.754" y="41.146" fill="#327694" width="54.167" height="84.998"/>
	<rect x="746.921" y="41.145" fill="#408FB2" width="20.889" height="84.998"/>
	<rect x="767.81" y="41.146" fill="#327694" width="54.167" height="84.998"/>
	<rect x="821.977" y="41.145" fill="#408FB2" width="20.889" height="84.998"/>
	<rect x="842.867" y="41.146" fill="#327694" width="54.167" height="84.998"/>
	<rect x="897.034" y="41.145" fill="#408FB2" width="20.889" height="84.998"/>
	<rect x="917.924" y="41.146" fill="#327694" width="54.167" height="84.998"/>
	<rect x="972.09" y="41.145" fill="#408FB2" width="20.889" height="84.998"/>
	<rect x="992.98" y="41.146" fill="#327694" width="54.167" height="84.998"/>
	<rect x="1047.147" y="41.145" fill="#408FB2" width="20.889" height="84.998"/>
	<rect x="1068.037" y="41.146" fill="#327694" width="54.167" height="84.998"/>
	<rect x="221.509" y="126.14" fill="#C6C4C0" width="986.544" height="39.688"/>
	<rect x="221.509" y="126.14" fill="#252525" width="1.684" height="40.416"/>
	<rect x="221.509" y="165.829" fill="#252525" width="986.544" height="1.456"/>
	<rect x="1206.131" y="126.265" fill="#252525" width="1.922" height="42.481"/>
	<rect x="1095.443" y="165.954" fill="#252525" width="112.61" height="2.793"/>
	<rect x="158.966" y="126.14" fill="#327D9D" width="26" height="47.604"/>
	<rect x="181.468" y="126.14" fill="#205264" width="3.163" height="47.604"/>
	<rect x="1226.633" y="126.14" fill="#327D9D" width="26" height="47.604"/>
	<rect x="1249.135" y="126.14" fill="#205264" width="3.163" height="47.604"/>
	<rect x="221.524" y="167.285" fill="#408FB2" width="20.889" height="84.998"/>
	<rect x="242.414" y="167.287" fill="#327694" width="54.167" height="84.998"/>
	<rect x="296.581" y="167.285" fill="#408FB2" width="20.889" height="84.998"/>
	<rect x="317.471" y="167.287" fill="#327694" width="54.167" height="84.998"/>
	<rect x="371.638" y="167.285" fill="#408FB2" width="20.889" height="84.998"/>
	<rect x="392.528" y="167.287" fill="#327694" width="54.167" height="84.998"/>
	<rect x="446.694" y="167.285" fill="#408FB2" width="20.889" height="84.998"/>
	<rect x="467.584" y="167.287" fill="#327694" width="54.167" height="84.998"/>
	<rect x="521.751" y="167.285" fill="#408FB2" width="20.889" height="84.998"/>
	<rect x="542.641" y="167.287" fill="#327694" width="54.167" height="84.998"/>
	<rect x="596.807" y="167.285" fill="#408FB2" width="20.889" height="84.998"/>
	<rect x="617.697" y="167.287" fill="#327694" width="54.167" height="84.998"/>
	<rect x="671.864" y="167.285" fill="#408FB2" width="20.889" height="84.998"/>
	<rect x="692.754" y="167.287" fill="#327694" width="54.167" height="84.998"/>
	<rect x="746.921" y="167.285" fill="#408FB2" width="20.889" height="84.998"/>
	<rect x="767.81" y="167.287" fill="#327694" width="54.167" height="84.998"/>
	<rect x="821.977" y="167.285" fill="#408FB2" width="20.889" height="84.998"/>
	<rect x="842.867" y="167.287" fill="#327694" width="54.167" height="84.998"/>
	<rect x="897.034" y="167.285" fill="#408FB2" width="20.889" height="84.998"/>
	<rect x="917.924" y="167.287" fill="#327694" width="54.167" height="84.998"/>
	<rect x="972.09" y="167.285" fill="#408FB2" width="20.889" height="84.998"/>
	<rect x="992.98" y="167.287" fill="#327694" width="54.167" height="84.998"/>
	<rect x="1047.147" y="167.285" fill="#408FB2" width="20.889" height="84.998"/>
	<rect x="1068.037" y="167.287" fill="#327694" width="54.167" height="84.998"/>
	<rect x="221.509" y="252.281" fill="#C6C4C0" width="986.544" height="39.688"/>
	<rect x="221.509" y="252.281" fill="#252525" width="1.684" height="40.416"/>
	<rect x="221.509" y="291.969" fill="#252525" width="986.544" height="1.456"/>
	<rect x="1206.131" y="252.406" fill="#252525" width="1.922" height="42.481"/>
	<rect x="1095.443" y="292.094" fill="#252525" width="112.61" height="2.793"/>
	<rect x="158.966" y="252.281" fill="#327D9D" width="26" height="47.604"/>
	<rect x="181.468" y="252.281" fill="#205264" width="3.163" height="47.604"/>
	<rect x="1226.633" y="252.281" fill="#327D9D" width="26" height="47.604"/>
	<rect x="1249.135" y="252.281" fill="#205264" width="3.163" height="47.604"/>
	<rect x="221.524" y="293.426" fill="#408FB2" width="20.889" height="84.998"/>
	<rect x="242.414" y="293.427" fill="#327694" width="54.167" height="84.998"/>
	<rect x="296.581" y="293.426" fill="#408FB2" width="20.889" height="84.998"/>
	<rect x="317.471" y="293.427" fill="#327694" width="54.167" height="84.998"/>
	<rect x="371.638" y="293.426" fill="#408FB2" width="20.889" height="84.998"/>
	<rect x="392.528" y="293.427" fill="#327694" width="54.167" height="84.998"/>
	<rect x="446.694" y="293.426" fill="#408FB2" width="20.889" height="84.998"/>
	<rect x="467.584" y="293.427" fill="#327694" width="54.167" height="84.998"/>
	<rect x="521.751" y="293.426" fill="#408FB2" width="20.889" height="84.998"/>
	<rect x="542.641" y="293.427" fill="#327694" width="54.167" height="84.998"/>
	<rect x="596.807" y="293.426" fill="#408FB2" width="20.889" height="84.998"/>
	<rect x="617.697" y="293.427" fill="#327694" width="54.167" height="84.998"/>
	<rect x="671.864" y="293.426" fill="#408FB2" width="20.889" height="84.998"/>
	<rect x="692.754" y="293.427" fill="#327694" width="54.167" height="84.998"/>
	<rect x="746.921" y="293.426" fill="#408FB2" width="20.889" height="84.998"/>
	<rect x="767.81" y="293.427" fill="#327694" width="54.167" height="84.998"/>
	<rect x="821.977" y="293.426" fill="#408FB2" width="20.889" height="84.998"/>
	<rect x="842.867" y="293.427" fill="#327694" width="54.167" height="84.998"/>
	<rect x="897.034" y="293.426" fill="#408FB2" width="20.889" height="84.998"/>
	<rect x="917.924" y="293.427" fill="#327694" width="54.167" height="84.998"/>
	<rect x="972.09" y="293.426" fill="#408FB2" width="20.889" height="84.998"/>
	<rect x="992.98" y="293.427" fill="#327694" width="54.167" height="84.998"/>
	<rect x="1047.147" y="293.426" fill="#408FB2" width="20.889" height="84.998"/>
	<rect x="1068.037" y="293.427" fill="#327694" width="54.167" height="84.998"/>
	<rect x="221.509" y="378.421" fill="#C6C4C0" width="986.544" height="39.688"/>
	<rect x="221.509" y="378.421" fill="#252525" width="1.684" height="40.416"/>
	<rect x="221.509" y="418.11" fill="#252525" width="986.544" height="1.456"/>
	<rect x="1206.131" y="378.546" fill="#252525" width="1.922" height="42.481"/>
	<rect x="1095.443" y="418.235" fill="#252525" width="112.61" height="2.793"/>
	<rect x="158.966" y="378.421" fill="#327D9D" width="26" height="47.604"/>
	<rect x="181.468" y="378.421" fill="#205264" width="3.163" height="47.604"/>
	<rect x="1226.633" y="378.421" fill="#327D9D" width="26" height="47.604"/>
	<rect x="1249.135" y="378.421" fill="#205264" width="3.163" height="47.604"/>
	<rect x="221.524" y="419.566" fill="#408FB2" width="20.889" height="84.998"/>
	<rect x="242.414" y="419.568" fill="#327694" width="54.167" height="84.998"/>
	<rect x="296.581" y="419.566" fill="#408FB2" width="20.889" height="84.998"/>
	<rect x="317.471" y="419.568" fill="#327694" width="54.167" height="84.998"/>
	<rect x="371.638" y="419.566" fill="#408FB2" width="20.889" height="84.998"/>
	<rect x="392.528" y="419.568" fill="#327694" width="54.167" height="84.998"/>
	<rect x="446.694" y="419.566" fill="#408FB2" width="20.889" height="84.998"/>
	<rect x="467.584" y="419.568" fill="#327694" width="54.167" height="84.998"/>
	<rect x="521.751" y="419.566" fill="#408FB2" width="20.889" height="84.998"/>
	<rect x="542.641" y="419.568" fill="#327694" width="54.167" height="84.998"/>
	<rect x="596.807" y="419.566" fill="#408FB2" width="20.889" height="84.998"/>
	<rect x="617.697" y="419.568" fill="#327694" width="54.167" height="84.998"/>
	<rect x="671.864" y="419.566" fill="#408FB2" width="20.889" height="84.998"/>
	<rect x="692.754" y="419.568" fill="#327694" width="54.167" height="84.998"/>
	<rect x="746.921" y="419.566" fill="#408FB2" width="20.889" height="84.998"/>
	<rect x="767.81" y="419.568" fill="#327694" width="54.167" height="84.998"/>
	<rect x="821.977" y="419.566" fill="#408FB2" width="20.889" height="84.998"/>
	<rect x="842.867" y="419.568" fill="#327694" width="54.167" height="84.998"/>
	<rect x="897.034" y="419.566" fill="#408FB2" width="20.889" height="84.998"/>
	<rect x="917.924" y="419.568" fill="#327694" width="54.167" height="84.998"/>
	<rect x="972.09" y="419.566" fill="#408FB2" width="20.889" height="84.998"/>
	<rect x="992.98" y="419.568" fill="#327694" width="54.167" height="84.998"/>
	<rect x="1047.147" y="419.566" fill="#408FB2" width="20.889" height="84.998"/>
	<rect x="1068.037" y="419.568" fill="#327694" width="54.167" height="84.998"/>
	<rect x="158.966" y="126.14" fill="#2C2D2D" width="1116.623" height="2.551"/>
	<rect x="158.966" y="0" fill="#2C2D2D" width="1116.623" height="2.551"/>
	<rect x="158.966" y="252.284" fill="#2C2D2D" width="1116.623" height="2.551"/>
	<rect x="158.966" y="378.428" fill="#2C2D2D" width="1116.623" height="2.551"/>
	<rect x="143.966" y="0" fill="#4C4C4C" width="15" height="504.566"/>
	<path opacity="0.9" fill="#284D4E" d="M13.113,54.384v73.09c0,0,35.708-68.627,109.356-79.785V9.19c0,0,0-2.976-5.579-2.976
		c-5.579,0-7.625,3.534-7.625,24.549c0,0,0,6.323-6.695,10.601c-6.695,4.278-32.733,13.577-59.514,37.196
		c0,0-3.906-34.22-15.994-34.22S13.113,50.478,13.113,54.384z"/>
	<path fill="#3E8EB2" d="M13.113,49.05v73.09c0,0,35.708-68.627,109.356-79.785V3.857c0,0,0-2.976-5.579-2.976
		c-5.579,0-7.625,3.534-7.625,24.549c0,0,0,6.323-6.695,10.601c-6.695,4.278-32.733,13.577-59.514,37.196
		c0,0-3.906-34.22-15.994-34.22S13.113,45.145,13.113,49.05z"/>
	<path opacity="0.9" fill="#284D4E" d="M13.113,180.976v73.09c0,0,35.708-68.627,109.356-79.785v-38.498c0,0,0-2.976-5.579-2.976
		c-5.579,0-7.625,3.534-7.625,24.549c0,0,0,6.323-6.695,10.601c-6.695,4.278-32.733,13.577-59.514,37.196
		c0,0-3.906-34.22-15.994-34.22S13.113,177.07,13.113,180.976z"/>
	<path fill="#3E8EB2" d="M13.113,175.643v73.09c0,0,35.708-68.627,109.356-79.785v-38.498c0,0,0-2.976-5.579-2.976
		c-5.579,0-7.625,3.534-7.625,24.549c0,0,0,6.323-6.695,10.601c-6.695,4.278-32.733,13.577-59.514,37.196
		c0,0-3.906-34.22-15.994-34.22S13.113,171.737,13.113,175.643z"/>
	<path opacity="0.9" fill="#284D4E" d="M13.113,305.568v73.09c0,0,35.708-68.627,109.356-79.786v-38.498c0,0,0-2.976-5.579-2.976
		c-5.579,0-7.625,3.534-7.625,24.549c0,0,0,6.323-6.695,10.601c-6.695,4.278-32.733,13.577-59.514,37.196
		c0,0-3.906-34.22-15.994-34.22S13.113,301.663,13.113,305.568z"/>
	<path fill="#3E8EB2" d="M13.113,300.235v73.09c0,0,35.708-68.627,109.356-79.785v-38.498c0,0,0-2.976-5.579-2.976
		c-5.579,0-7.625,3.534-7.625,24.549c0,0,0,6.323-6.695,10.601c-6.695,4.278-32.733,13.577-59.514,37.196
		c0,0-3.906-34.22-15.994-34.22S13.113,296.329,13.113,300.235z"/>
	<path opacity="0.9" fill="#284D4E" d="M13.113,431.161v73.09c0,0,35.708-68.627,109.356-79.786v-38.498c0,0,0-2.976-5.579-2.976
		c-5.579,0-7.625,3.534-7.625,24.549c0,0,0,6.323-6.695,10.601c-6.695,4.278-32.733,13.577-59.514,37.196
		c0,0-3.906-34.22-15.994-34.22S13.113,427.255,13.113,431.161z"/>
	<path fill="#3E8EB2" d="M13.113,425.827v73.09c0,0,35.708-68.627,109.356-79.785v-38.498c0,0,0-2.976-5.579-2.976
		c-5.579,0-7.625,3.534-7.625,24.549c0,0,0,6.323-6.695,10.601c-6.695,4.278-32.733,13.577-59.514,37.196
		c0,0-3.906-34.22-15.994-34.22S13.113,421.922,13.113,425.827z"/>
	<rect x="143.966" y="252.283" fill="#4C4C4C" width="15" height="252.281"/>
	<g>
		<text transform="matrix(1 0 0 1 249.9664 26.9369)" font-family="'SimHei'" font-size="20">01</text>
		<text transform="matrix(1 0 0 1 324.8148 26.9369)" font-family="'SimHei'" font-size="20">02</text>
		<text transform="matrix(1 0 0 1 399.6635 26.9369)" font-family="'SimHei'" font-size="20">03</text>
		<text transform="matrix(1 0 0 1 474.5118 26.9369)" font-family="'SimHei'" font-size="20">04</text>
		<text transform="matrix(1 0 0 1 549.3605 26.9369)" font-family="'SimHei'" font-size="20">05</text>
		<text transform="matrix(1 0 0 1 624.2089 26.9369)" font-family="'SimHei'" font-size="20">06</text>
		<text transform="matrix(1 0 0 1 699.0575 26.9369)" font-family="'SimHei'" font-size="20">07</text>
		<text transform="matrix(1 0 0 1 773.9059 26.9369)" font-family="'SimHei'" font-size="20">08</text>
		<text transform="matrix(1 0 0 1 848.7545 26.9369)" font-family="'SimHei'" font-size="20">09</text>
		<text transform="matrix(1 0 0 1 923.6029 26.9369)" font-family="'SimHei'" font-size="20">10</text>
		<text transform="matrix(1 0 0 1 998.4515 26.9369)" font-family="'SimHei'" font-size="20">11</text>
		<text transform="matrix(1 0 0 1 1073.2997 26.9369)" font-family="'SimHei'" font-size="20">12</text>
	</g>
	<g>
		<text transform="matrix(1 0 0 1 249.9664 153.2701)" font-family="'SimHei'" font-size="20">01</text>
		<text transform="matrix(1 0 0 1 324.8148 153.2701)" font-family="'SimHei'" font-size="20">02</text>
		<text transform="matrix(1 0 0 1 399.6635 153.2701)" font-family="'SimHei'" font-size="20">03</text>
		<text transform="matrix(1 0 0 1 474.5118 153.2701)" font-family="'SimHei'" font-size="20">04</text>
		<text transform="matrix(1 0 0 1 549.3605 153.2701)" font-family="'SimHei'" font-size="20">05</text>
		<text transform="matrix(1 0 0 1 624.2089 153.2701)" font-family="'SimHei'" font-size="20">06</text>
		<text transform="matrix(1 0 0 1 699.0575 153.2701)" font-family="'SimHei'" font-size="20">07</text>
		<text transform="matrix(1 0 0 1 773.9059 153.2701)" font-family="'SimHei'" font-size="20">08</text>
		<text transform="matrix(1 0 0 1 848.7545 153.2701)" font-family="'SimHei'" font-size="20">09</text>
		<text transform="matrix(1 0 0 1 923.6029 153.2701)" font-family="'SimHei'" font-size="20">10</text>
		<text transform="matrix(1 0 0 1 998.4515 153.2701)" font-family="'SimHei'" font-size="20">11</text>
		<text transform="matrix(1 0 0 1 1073.2997 153.2701)" font-family="'SimHei'" font-size="20">12</text>
	</g>
	<g>
		<text transform="matrix(1 0 0 1 249.9664 279.6035)" font-family="'SimHei'" font-size="20">01</text>
		<text transform="matrix(1 0 0 1 324.8148 279.6035)" font-family="'SimHei'" font-size="20">02</text>
		<text transform="matrix(1 0 0 1 399.6635 279.6035)" font-family="'SimHei'" font-size="20">03</text>
		<text transform="matrix(1 0 0 1 474.5118 279.6035)" font-family="'SimHei'" font-size="20">04</text>
		<text transform="matrix(1 0 0 1 549.3605 279.6035)" font-family="'SimHei'" font-size="20">05</text>
		<text transform="matrix(1 0 0 1 624.2089 279.6035)" font-family="'SimHei'" font-size="20">06</text>
		<text transform="matrix(1 0 0 1 699.0575 279.6035)" font-family="'SimHei'" font-size="20">07</text>
		<text transform="matrix(1 0 0 1 773.9059 279.6035)" font-family="'SimHei'" font-size="20">08</text>
		<text transform="matrix(1 0 0 1 848.7545 279.6035)" font-family="'SimHei'" font-size="20">09</text>
		<text transform="matrix(1 0 0 1 923.6029 279.6035)" font-family="'SimHei'" font-size="20">10</text>
		<text transform="matrix(1 0 0 1 998.4515 279.6035)" font-family="'SimHei'" font-size="20">11</text>
		<text transform="matrix(1 0 0 1 1073.2997 279.6035)" font-family="'SimHei'" font-size="20">12</text>
	</g>
	<g>
		<text transform="matrix(1 0 0 1 249.9664 405.9368)" font-family="'SimHei'" font-size="20">01</text>
		<text transform="matrix(1 0 0 1 324.8148 405.9368)" font-family="'SimHei'" font-size="20">02</text>
		<text transform="matrix(1 0 0 1 399.6635 405.9368)" font-family="'SimHei'" font-size="20">03</text>
		<text transform="matrix(1 0 0 1 474.5118 405.9368)" font-family="'SimHei'" font-size="20">04</text>
		<text transform="matrix(1 0 0 1 549.3605 405.9368)" font-family="'SimHei'" font-size="20">05</text>
		<text transform="matrix(1 0 0 1 624.2089 405.9368)" font-family="'SimHei'" font-size="20">06</text>
		<text transform="matrix(1 0 0 1 699.0575 405.9368)" font-family="'SimHei'" font-size="20">07</text>
		<text transform="matrix(1 0 0 1 773.9059 405.9368)" font-family="'SimHei'" font-size="20">08</text>
		<text transform="matrix(1 0 0 1 848.7545 405.9368)" font-family="'SimHei'" font-size="20">09</text>
		<text transform="matrix(1 0 0 1 923.6029 405.9368)" font-family="'SimHei'" font-size="20">10</text>
		<text transform="matrix(1 0 0 1 998.4515 405.9368)" font-family="'SimHei'" font-size="20">11</text>
		<text transform="matrix(1 0 0 1 1073.2997 405.9368)" font-family="'SimHei'" font-size="20">12</text>
	</g>
	<text transform="matrix(1 0 0 1 1154.2999 91.9368)" font-family="'STZhongsong'" font-size="44">A</text>
	<text transform="matrix(1 0 0 1 1154.2999 218.2036)" font-family="'STZhongsong'" font-size="44">B</text>
	<text transform="matrix(1 0 0 1 1154.2999 344.4701)" font-family="'STZhongsong'" font-size="44">C</text>
	<text transform="matrix(1 0 0 1 1154.2999 470.7366)" font-family="'STZhongsong'" font-size="44">D</text>
</g>
</svg>
