<?xml version="1.0" encoding="utf-8"?>
<!-- Generator: Adobe Illustrator 16.0.0, SVG Export Plug-In . SVG Version: 6.00 Build 0)  -->
<!DOCTYPE svg PUBLIC "-//W3C//DTD SVG 1.1//EN" "http://www.w3.org/Graphics/SVG/1.1/DTD/svg11.dtd">
<svg version="1.1" id="图层_1" xmlns="http://www.w3.org/2000/svg" xmlns:xlink="http://www.w3.org/1999/xlink" x="0px" y="0px"
	 width="1277.29px" height="127.84px" viewBox="0 0 1277.29 127.84" enable-background="new 0 0 1277.29 127.84"
	 xml:space="preserve">
<g>
	<rect x="1.85" y="0.993" fill="#CECECE" width="1275.589" height="126.142"/>
	<path fill="#1F2020" d="M1278.29,127.985H1V0.143h1277.29V127.985z M2.7,126.285h1273.89V1.843H2.7V126.285z"/>
</g>
<g>
	<g>
		<circle cx="27.5" cy="24.239" r="15.371"/>
	</g>
	<g>
		<path fill="#2A2C2D" d="M40.903,24.005c0.13,7.403-5.766,13.509-13.169,13.638s-13.507-5.768-13.637-13.17
			c-0.129-7.401,5.767-13.508,13.17-13.637C34.669,10.708,40.775,16.602,40.903,24.005"/>
		<path d="M27.496,37.895c-7.396,0-13.519-6.019-13.649-13.417c-0.063-3.646,1.297-7.1,3.831-9.724
			c2.534-2.624,5.938-4.104,9.585-4.167l0.242-0.002c7.397,0,13.52,6.019,13.648,13.417c0.064,3.647-1.296,7.101-3.83,9.725
			c-2.534,2.624-5.938,4.104-9.585,4.167L27.496,37.895z M27.505,11.084l-0.233,0.002c-3.514,0.061-6.793,1.487-9.234,4.015
			c-2.44,2.528-3.751,5.854-3.69,9.368c0.125,7.127,6.023,12.926,13.149,12.926l0.233-0.002c3.514-0.061,6.793-1.487,9.234-4.015
			s3.751-5.855,3.689-9.369C40.53,16.883,34.632,11.084,27.505,11.084z"/>
	</g>
	<g>
		<rect x="19.77" y="22.315" transform="matrix(0.9998 -0.0174 0.0174 0.9998 -0.4184 0.4831)" width="15.461" height="3.85"/>
	</g>
	<g>
		<rect x="19.77" y="22.314" transform="matrix(0.0174 0.9998 -0.9998 0.0174 51.2576 -3.6796)" width="15.461" height="3.851"/>
	</g>
</g>
<g>
	<g>
		<circle cx="27.5" cy="99.26" r="15.371"/>
	</g>
	<g>
		<path fill="#2A2C2D" d="M40.903,99.025c0.13,7.402-5.766,13.508-13.169,13.637s-13.507-5.768-13.637-13.17
			c-0.129-7.4,5.767-13.508,13.17-13.637C34.669,85.727,40.775,91.621,40.903,99.025"/>
		<path d="M27.496,112.914c-7.396,0-13.519-6.019-13.649-13.417c-0.063-3.646,1.297-7.1,3.831-9.724
			c2.534-2.623,5.938-4.104,9.585-4.168l0.242-0.002c7.397,0,13.52,6.02,13.648,13.418c0.064,3.646-1.296,7.1-3.83,9.725
			c-2.534,2.623-5.938,4.104-9.585,4.166L27.496,112.914z M27.505,86.104l-0.233,0.002c-3.514,0.062-6.793,1.488-9.234,4.016
			c-2.44,2.527-3.751,5.854-3.69,9.367c0.125,7.127,6.023,12.926,13.149,12.926l0.233-0.002c3.514-0.061,6.793-1.486,9.234-4.014
			s3.751-5.855,3.689-9.368C40.53,91.902,34.632,86.104,27.505,86.104z"/>
	</g>
	<g>
		<rect x="19.77" y="97.333" transform="matrix(0.9998 -0.0176 0.0176 0.9998 -1.7386 0.4982)" width="15.461" height="3.852"/>
	</g>
	<g>
		<rect x="19.77" y="97.333" transform="matrix(0.0174 0.9998 -0.9998 0.0174 126.2653 70.0317)" width="15.461" height="3.851"/>
	</g>
</g>
<g>
	<g>
		<circle cx="1252.833" cy="24.239" r="15.37"/>
	</g>
	<g>
		<path fill="#2A2C2D" d="M1266.236,24.005c0.129,7.403-5.767,13.509-13.17,13.638c-7.402,0.129-13.506-5.768-13.635-13.17
			c-0.131-7.401,5.766-13.508,13.168-13.637S1266.107,16.602,1266.236,24.005"/>
		<path d="M1252.828,37.895c-7.396,0-13.518-6.019-13.646-13.417c-0.064-3.646,1.295-7.1,3.829-9.724s5.938-4.104,9.585-4.167
			l0.242-0.002c7.398,0,13.52,6.019,13.648,13.417c0.063,3.647-1.297,7.101-3.83,9.725c-2.533,2.624-5.938,4.104-9.585,4.167
			L1252.828,37.895z M1252.838,11.084l-0.233,0.002c-3.514,0.061-6.793,1.487-9.233,4.015c-2.441,2.528-3.752,5.854-3.689,9.368
			c0.123,7.127,6.021,12.926,13.146,12.926l0.234-0.002c3.514-0.061,6.793-1.487,9.234-4.015c2.44-2.528,3.75-5.855,3.689-9.369
			C1265.863,16.883,1259.965,11.084,1252.838,11.084z"/>
	</g>
	<g>
		<rect x="1245.103" y="22.315" transform="matrix(0.9998 -0.0174 0.0174 0.9998 -0.2323 21.8438)" width="15.461" height="3.85"/>
	</g>
	<g>
		
			<rect x="1245.103" y="22.314" transform="matrix(0.0174 0.9998 -0.9998 0.0174 1255.2299 -1228.8265)" width="15.461" height="3.852"/>
	</g>
</g>
<g>
	<g>
		<circle cx="1252.833" cy="99.26" r="15.37"/>
	</g>
	<g>
		<path fill="#2A2C2D" d="M1266.236,99.025c0.129,7.402-5.767,13.508-13.17,13.637c-7.402,0.129-13.506-5.768-13.635-13.17
			c-0.131-7.4,5.766-13.508,13.168-13.637S1266.107,91.621,1266.236,99.025"/>
		<path d="M1252.828,112.914c-7.396,0-13.518-6.019-13.646-13.417c-0.064-3.646,1.295-7.099,3.829-9.724
			c2.534-2.623,5.938-4.104,9.585-4.168l0.242-0.002c7.398,0,13.52,6.02,13.648,13.418c0.063,3.646-1.297,7.1-3.83,9.725
			c-2.534,2.623-5.938,4.104-9.585,4.166L1252.828,112.914z M1252.838,86.104l-0.233,0.002c-3.514,0.062-6.793,1.488-9.233,4.016
			c-2.441,2.527-3.752,5.854-3.689,9.367c0.123,7.127,6.021,12.926,13.146,12.926l0.234-0.002c3.514-0.061,6.793-1.486,9.234-4.014
			c2.44-2.527,3.75-5.855,3.689-9.368C1265.863,91.902,1259.965,86.104,1252.838,86.104z"/>
	</g>
	<g>
		<rect x="1245.103" y="97.333" transform="matrix(0.9998 -0.0176 0.0176 0.9998 -1.5497 22.0137)" width="15.461" height="3.852"/>
	</g>
	<g>
		
			<rect x="1245.103" y="97.333" transform="matrix(0.0174 0.9998 -0.9998 0.0174 1330.2375 -1155.1152)" width="15.461" height="3.852"/>
	</g>
</g>
<g>
	<g>
		<path fill="#C6C5C6" d="M143.494,78.467c0,1.842-1.493,3.334-3.336,3.334H70.875c-1.842,0-3.335-1.492-3.335-3.334V49.663
			c0-1.843,1.493-3.336,3.335-3.336h69.283c1.843,0,3.336,1.493,3.336,3.336V78.467z"/>
		<path d="M140.158,82.301H70.875c-2.115,0-3.835-1.719-3.835-3.834V49.663c0-2.115,1.72-3.836,3.835-3.836h69.283
			c2.115,0,3.836,1.721,3.836,3.836v28.804C143.994,80.582,142.273,82.301,140.158,82.301z M70.875,46.827
			c-1.563,0-2.835,1.272-2.835,2.836v28.804c0,1.563,1.272,2.834,2.835,2.834h69.283c1.564,0,2.836-1.271,2.836-2.834V49.663
			c0-1.564-1.272-2.836-2.836-2.836H70.875z"/>
	</g>
	<g>
		<g>
			<circle fill="#1B277A" cx="86.288" cy="64.065" r="12.819"/>
		</g>
		<g>
			<path fill="#FCF00B" d="M87.559,58.596l-0.337-1.52l9.107,1.52l-7.768,6.203l-0.553-2.212c0,0-11.301,6.016-0.506,6.803
				c0,0-7.759,4.217-10.795-0.787C73.672,63.6,86.547,58.876,87.559,58.596z"/>
		</g>
		<g>
			<path fill="#1B277A" stroke="#1B277A" stroke-width="0.5" stroke-miterlimit="10" d="M106.258,59.096h3.111v-1.749h0.446v1.749
				h3.12v3.466h-0.442v-0.43h-2.677V65.1h-0.446v-2.967H106.7v0.43h-0.442V59.096z M106.7,59.51v2.195h2.669V59.51H106.7z
				 M112.493,59.51h-2.677v2.195h2.677V59.51z"/>
			<path fill="#1B277A" stroke="#1B277A" stroke-width="0.5" stroke-miterlimit="10" d="M118.884,57.375h0.422
				c0.008,0.512,0.016,0.977,0.024,1.394h2.211v0.375h-2.195c0.042,1.405,0.159,2.537,0.351,3.395
				c0.419-0.707,0.782-1.574,1.087-2.602l0.407,0.119c-0.412,1.283-0.866,2.303-1.363,3.06c0.239,0.909,0.527,1.367,0.865,1.375
				c0.165-0.005,0.271-0.124,0.319-0.354c0.077-0.377,0.137-0.788,0.179-1.231c0.13,0.064,0.261,0.116,0.395,0.156
				c-0.064,0.555-0.128,0.975-0.191,1.259c-0.09,0.401-0.31,0.604-0.657,0.61c-0.518,0.029-0.922-0.428-1.211-1.371
				c-0.319,0.434-0.727,0.879-1.223,1.339c-0.08-0.085-0.186-0.183-0.319-0.295c0.537-0.48,1.003-1.005,1.398-1.573
				c-0.247-0.933-0.399-2.228-0.458-3.885h-3.793v1.362c0.005,1.174-0.059,2.058-0.191,2.649c-0.117,0.601-0.367,1.21-0.749,1.829
				c-0.056-0.045-0.178-0.124-0.367-0.235c0.369-0.589,0.608-1.15,0.717-1.681c0.119-0.518,0.176-1.323,0.171-2.415V58.77h4.204
				C118.902,58.457,118.892,57.992,118.884,57.375z M118.043,64.088c-0.014-0.008-0.032-0.018-0.056-0.028
				c-0.3-0.189-0.536-0.328-0.706-0.418c-0.401,0.364-0.982,0.728-1.745,1.092c-0.114-0.165-0.207-0.284-0.279-0.358
				c0.747-0.319,1.302-0.635,1.666-0.948c-0.345-0.197-0.729-0.408-1.151-0.634c0.181-0.364,0.352-0.737,0.514-1.119h-0.765v-0.359
				h0.912c0.003-0.008,0.008-0.021,0.016-0.04c0.111-0.279,0.191-0.489,0.239-0.63l0.422,0.096c-0.032,0.082-0.08,0.198-0.143,0.347
				c-0.042,0.104-0.073,0.179-0.092,0.227h1.598c-0.144,0.845-0.439,1.517-0.889,2.016c0.141,0.074,0.35,0.189,0.625,0.347
				c0.045,0.026,0.079,0.046,0.1,0.06L118.043,64.088z M115.553,59.937h2.88v0.358h-2.88V59.937z M118,61.674h-1.279
				c-0.112,0.252-0.265,0.576-0.458,0.972c0.295,0.138,0.619,0.304,0.972,0.498C117.59,62.762,117.845,62.271,118,61.674z
				 M119.681,58.017l0.255-0.299c0.46,0.284,0.787,0.5,0.98,0.649l-0.263,0.327c-0.013-0.011-0.032-0.025-0.056-0.044
				C120.3,58.417,119.994,58.206,119.681,58.017z"/>
			<path fill="#1B277A" stroke="#1B277A" stroke-width="0.5" stroke-miterlimit="10" d="M123.27,61.985v-0.558h-0.968v-0.383h3.637
				v0.383h-0.825v2.49c-0.011,0.332,0.212,0.496,0.669,0.49h2.546c0.521,0.008,0.812-0.189,0.873-0.593
				c0.056-0.332,0.1-0.736,0.131-1.211c0.141,0.051,0.288,0.092,0.442,0.124c-0.053,0.507-0.11,0.917-0.171,1.23
				c-0.09,0.585-0.482,0.867-1.175,0.849h-2.717c-0.677-0.002-1.017-0.285-1.02-0.849v-2.529h-0.996v0.55
				c0.003,0.058,0.004,0.126,0.004,0.203c0,1.15-0.456,2.11-1.367,2.88c-0.093-0.109-0.202-0.22-0.327-0.334
				C122.892,64.027,123.313,63.114,123.27,61.985z M122.366,57.83h7.024v1.307h-0.422v-0.913h-6.175v0.984h-0.426V57.83z
				 M122.776,59.471h2.725v0.382h-2.725V59.471z M128.087,59.088h0.422v0.92h1.02v0.391h-1.02v2.383
				c0.019,0.598-0.301,0.9-0.96,0.908c-0.104,0.003-0.223,0.005-0.359,0.008c-0.063,0-0.135,0-0.215,0c-0.066,0-0.158,0-0.275,0
				c-0.027-0.148-0.063-0.296-0.108-0.442c0.263,0.017,0.557,0.024,0.881,0.024c0.417,0.005,0.621-0.172,0.613-0.53v-2.351h-2.147
				v-0.391h2.147V59.088z M126.314,61.2l0.351-0.171c0.197,0.313,0.432,0.716,0.705,1.207L127,62.439
				C126.763,61.985,126.535,61.572,126.314,61.2z"/>
			<path fill="#1B277A" stroke="#1B277A" stroke-width="0.5" stroke-miterlimit="10" d="M130.51,60.22
				c-0.045-0.093-0.129-0.22-0.251-0.382c0.876-0.584,1.681-1.408,2.414-2.47l0.398,0.195c-0.345,0.481-0.66,0.877-0.944,1.191
				v2.896h-0.434v-2.442C131.311,59.585,130.916,59.922,130.51,60.22z M133.848,61.602h0.438v1.06h3.542v0.406h-3.542v2h-0.438v-2
				h-3.542v-0.406h3.542V61.602z M132.844,60.539c-0.056-0.122-0.133-0.258-0.231-0.406c0.693-0.215,1.319-0.444,1.876-0.686v-1.968
				h0.434v1.772c0.747-0.361,1.483-0.802,2.211-1.322l0.303,0.311c-0.8,0.568-1.638,1.06-2.514,1.474v0.629
				c-0.002,0.266,0.049,0.443,0.155,0.534c0.099,0.093,0.296,0.138,0.594,0.135h0.809c0.491,0.024,0.763-0.156,0.816-0.538
				c0.048-0.224,0.092-0.498,0.132-0.825c0.199,0.083,0.337,0.132,0.414,0.147c-0.045,0.377-0.097,0.676-0.155,0.896
				c-0.114,0.494-0.481,0.733-1.1,0.717h-0.996c-0.775,0.037-1.144-0.303-1.104-1.02v-0.478
				C133.908,60.158,133.359,60.366,132.844,60.539z"/>
		</g>
		<g>
			<path fill="#1B277A" stroke="#1B277A" stroke-width="0.5" stroke-miterlimit="10" d="M110.921,70.814
				c-0.191,0.117-0.419,0.176-0.684,0.176c-0.349,0-0.631-0.119-0.846-0.36s-0.322-0.556-0.322-0.944
				c0-0.408,0.121-0.742,0.362-1.004c0.241-0.26,0.551-0.391,0.93-0.391c0.197,0,0.387,0.041,0.57,0.121v0.26
				c-0.183-0.112-0.385-0.169-0.605-0.169c-0.301,0-0.545,0.108-0.733,0.325c-0.188,0.218-0.282,0.498-0.282,0.844
				c0,0.332,0.085,0.602,0.257,0.803c0.171,0.203,0.398,0.305,0.681,0.305c0.257,0,0.481-0.068,0.672-0.205V70.814z"/>
			<path fill="#1B277A" stroke="#1B277A" stroke-width="0.5" stroke-miterlimit="10" d="M113.29,70.928V69.43
				c0-0.618-0.223-0.927-0.668-0.927c-0.249,0-0.452,0.091-0.612,0.272c-0.16,0.182-0.24,0.406-0.24,0.674v1.479h-0.23v-2.574h0.23
				v0.469h0.012c0.188-0.354,0.481-0.531,0.88-0.531c0.278,0,0.49,0.093,0.638,0.277c0.147,0.186,0.221,0.451,0.221,0.793v1.566
				H113.29z"/>
			<path fill="#1B277A" stroke="#1B277A" stroke-width="0.5" stroke-miterlimit="10" d="M115.14,70.928h-0.212l-0.994-2.574h0.258
				l0.766,2.049c0.037,0.1,0.063,0.189,0.079,0.27h0.009c0.021-0.105,0.046-0.191,0.072-0.258l0.793-2.061h0.251L115.14,70.928z"/>
			<path fill="#1B277A" stroke="#1B277A" stroke-width="0.5" stroke-miterlimit="10" d="M117.661,70.99
				c-0.375,0-0.673-0.123-0.892-0.371s-0.328-0.568-0.328-0.962c0-0.429,0.115-0.763,0.343-1.005c0.229-0.24,0.53-0.361,0.904-0.361
				c0.366,0,0.656,0.119,0.869,0.359s0.32,0.572,0.32,0.995c0,0.399-0.108,0.725-0.326,0.973
				C118.334,70.867,118.038,70.99,117.661,70.99z M117.679,68.503c-0.304,0-0.546,0.103-0.726,0.306
				c-0.18,0.205-0.27,0.488-0.27,0.854c0,0.336,0.088,0.607,0.264,0.811c0.176,0.204,0.416,0.307,0.72,0.307
				c0.31,0,0.549-0.102,0.717-0.302s0.251-0.479,0.251-0.837c0-0.365-0.083-0.646-0.25-0.844
				C118.219,68.602,117.983,68.503,117.679,68.503z"/>
			<path fill="#1B277A" stroke="#1B277A" stroke-width="0.5" stroke-miterlimit="10" d="M122.743,70.928v-1.547
				c0-0.324-0.051-0.553-0.152-0.683s-0.262-0.195-0.48-0.195c-0.204,0-0.379,0.087-0.526,0.261
				c-0.147,0.174-0.221,0.393-0.221,0.656v1.508h-0.23v-1.566c0-0.572-0.218-0.858-0.654-0.858c-0.209,0-0.384,0.087-0.524,0.263
				s-0.209,0.402-0.209,0.68v1.482h-0.23v-2.574h0.23v0.428h0.012c0.179-0.326,0.441-0.49,0.787-0.49
				c0.188,0,0.348,0.055,0.482,0.162c0.133,0.107,0.223,0.25,0.27,0.427c0.081-0.187,0.196-0.331,0.345-0.435
				c0.15-0.103,0.313-0.154,0.488-0.154c0.563,0,0.845,0.348,0.845,1.045v1.592H122.743z"/>
			<path fill="#1B277A" stroke="#1B277A" stroke-width="0.5" stroke-miterlimit="10" d="M126.822,70.814
				c-0.191,0.117-0.419,0.176-0.684,0.176c-0.349,0-0.631-0.119-0.846-0.36s-0.322-0.556-0.322-0.944
				c0-0.408,0.121-0.742,0.362-1.004c0.241-0.26,0.551-0.391,0.93-0.391c0.197,0,0.387,0.041,0.57,0.121v0.26
				c-0.183-0.112-0.385-0.169-0.605-0.169c-0.301,0-0.545,0.108-0.733,0.325c-0.188,0.218-0.282,0.498-0.282,0.844
				c0,0.332,0.085,0.602,0.257,0.803c0.171,0.203,0.398,0.305,0.681,0.305c0.257,0,0.481-0.068,0.672-0.205V70.814z"/>
			<path fill="#1B277A" stroke="#1B277A" stroke-width="0.5" stroke-miterlimit="10" d="M128.475,70.99
				c-0.375,0-0.673-0.123-0.892-0.371s-0.328-0.568-0.328-0.962c0-0.429,0.115-0.763,0.343-1.005c0.229-0.24,0.53-0.361,0.904-0.361
				c0.366,0,0.656,0.119,0.869,0.359s0.32,0.572,0.32,0.995c0,0.399-0.108,0.725-0.326,0.973
				C129.148,70.867,128.852,70.99,128.475,70.99z M128.493,68.503c-0.304,0-0.546,0.103-0.726,0.306
				c-0.18,0.205-0.27,0.488-0.27,0.854c0,0.336,0.088,0.607,0.264,0.811c0.176,0.204,0.416,0.307,0.72,0.307
				c0.31,0,0.549-0.102,0.717-0.302s0.251-0.479,0.251-0.837c0-0.365-0.083-0.646-0.25-0.844
				C129.033,68.602,128.797,68.503,128.493,68.503z"/>
			<path fill="#1B277A" stroke="#1B277A" stroke-width="0.5" stroke-miterlimit="10" d="M133.557,70.928v-1.547
				c0-0.324-0.051-0.553-0.152-0.683s-0.262-0.195-0.48-0.195c-0.204,0-0.379,0.087-0.526,0.261
				c-0.147,0.174-0.221,0.393-0.221,0.656v1.508h-0.23v-1.566c0-0.572-0.218-0.858-0.654-0.858c-0.209,0-0.384,0.087-0.524,0.263
				s-0.209,0.402-0.209,0.68v1.482h-0.23v-2.574h0.23v0.428h0.012c0.179-0.326,0.441-0.49,0.787-0.49
				c0.188,0,0.348,0.055,0.482,0.162c0.133,0.107,0.223,0.25,0.27,0.427c0.081-0.187,0.196-0.331,0.345-0.435
				c0.15-0.103,0.313-0.154,0.488-0.154c0.563,0,0.845,0.348,0.845,1.045v1.592H133.557z"/>
		</g>
	</g>
</g>
<g>
	<path d="M93.196,37.185v2.426h-0.418V33.56h1.457c0.623,0,1.098,0.145,1.428,0.434s0.494,0.71,0.494,1.262
		c0,0.563-0.184,1.025-0.551,1.387c-0.367,0.362-0.881,0.543-1.543,0.543H93.196z M93.196,33.947v2.855h0.859
		c0.544,0,0.959-0.13,1.244-0.391c0.285-0.26,0.428-0.629,0.428-1.105c0-0.906-0.522-1.359-1.566-1.359H93.196z"/>
	<path d="M97.477,39.611V33.56h1.512c1.005,0,1.77,0.251,2.293,0.752c0.523,0.502,0.785,1.231,0.785,2.189
		c0,0.922-0.281,1.671-0.842,2.246c-0.561,0.576-1.335,0.863-2.322,0.863H97.477z M97.895,33.947v5.285h0.949
		c0.896,0,1.584-0.232,2.066-0.699c0.482-0.466,0.723-1.138,0.723-2.016c0-1.713-0.902-2.57-2.707-2.57H97.895z"/>
	<path d="M107.176,39.611v-2.902h-3.461v2.902h-0.418V33.56h0.418v2.77h3.461v-2.77h0.414v6.051H107.176z"/>
	<path d="M111.852,33.56v4.117h0.945v0.352h-0.945v1.582h-0.387v-1.582h-2.887V37.65c0.271-0.307,0.545-0.637,0.824-0.99
		c0.279-0.353,0.545-0.709,0.799-1.068s0.488-0.713,0.701-1.063c0.213-0.349,0.392-0.672,0.535-0.969H111.852z M109.024,37.677
		h2.441v-3.426c-0.206,0.354-0.419,0.697-0.641,1.029s-0.439,0.646-0.654,0.939c-0.215,0.295-0.42,0.565-0.617,0.813
		C109.356,37.281,109.18,37.496,109.024,37.677z"/>
	<path d="M113.407,37.923c0-0.161,0.023-0.319,0.068-0.475c0.045-0.154,0.116-0.301,0.211-0.439
		c0.095-0.138,0.213-0.262,0.354-0.373c0.141-0.11,0.306-0.198,0.496-0.264c-0.141-0.067-0.269-0.149-0.385-0.246
		c-0.116-0.096-0.214-0.202-0.295-0.318c-0.081-0.115-0.143-0.242-0.188-0.379s-0.066-0.277-0.066-0.424
		c0-0.224,0.041-0.43,0.121-0.617s0.191-0.35,0.332-0.488c0.141-0.138,0.308-0.246,0.502-0.324s0.403-0.117,0.627-0.117
		c0.229,0,0.441,0.04,0.635,0.119c0.194,0.08,0.361,0.188,0.502,0.326c0.141,0.139,0.25,0.301,0.328,0.488s0.117,0.393,0.117,0.613
		c0,0.148-0.021,0.291-0.064,0.426c-0.043,0.136-0.104,0.262-0.184,0.379s-0.175,0.224-0.287,0.318
		c-0.112,0.096-0.237,0.177-0.375,0.244c0.185,0.065,0.346,0.153,0.484,0.264c0.138,0.111,0.253,0.235,0.346,0.373
		c0.092,0.139,0.162,0.285,0.207,0.439c0.045,0.155,0.068,0.313,0.068,0.475c0,0.281-0.043,0.533-0.131,0.754
		c-0.087,0.222-0.209,0.408-0.365,0.561s-0.343,0.27-0.561,0.35c-0.217,0.081-0.459,0.121-0.725,0.121
		c-0.258,0-0.495-0.04-0.711-0.121c-0.216-0.08-0.403-0.196-0.561-0.348c-0.158-0.15-0.281-0.337-0.369-0.559
		C113.451,38.46,113.407,38.208,113.407,37.923z M113.805,37.966c0,0.211,0.034,0.402,0.102,0.574s0.162,0.319,0.281,0.441
		c0.12,0.123,0.263,0.217,0.43,0.281c0.167,0.065,0.352,0.098,0.555,0.098c0.201,0,0.385-0.032,0.553-0.098
		c0.168-0.064,0.313-0.158,0.436-0.281c0.123-0.122,0.217-0.27,0.285-0.441s0.102-0.363,0.102-0.574
		c0-0.189-0.033-0.369-0.098-0.537s-0.157-0.314-0.275-0.441c-0.119-0.126-0.263-0.227-0.434-0.303
		c-0.17-0.075-0.36-0.113-0.568-0.113c-0.193,0-0.373,0.035-0.541,0.104c-0.168,0.069-0.313,0.165-0.436,0.287
		c-0.123,0.123-0.218,0.27-0.287,0.441S113.805,37.763,113.805,37.966z M114.016,35.017c0,0.17,0.031,0.326,0.092,0.471
		s0.145,0.271,0.25,0.377c0.105,0.107,0.229,0.191,0.371,0.254s0.292,0.094,0.451,0.094c0.162,0,0.314-0.031,0.457-0.094
		s0.268-0.147,0.373-0.256c0.105-0.107,0.189-0.234,0.25-0.379s0.092-0.3,0.092-0.467c0-0.172-0.03-0.33-0.09-0.477
		c-0.06-0.146-0.143-0.272-0.248-0.381c-0.105-0.107-0.229-0.192-0.371-0.254c-0.142-0.061-0.296-0.092-0.463-0.092
		c-0.174,0-0.333,0.032-0.475,0.096c-0.142,0.064-0.264,0.15-0.367,0.258c-0.103,0.108-0.182,0.235-0.238,0.381
		C114.044,34.695,114.016,34.851,114.016,35.017z"/>
	<path d="M119.579,39.716c-0.557,0-0.993-0.256-1.307-0.768s-0.471-1.256-0.471-2.232c0-1.078,0.165-1.891,0.494-2.438
		s0.801-0.82,1.416-0.82c1.164,0,1.746,1.034,1.746,3.102c0,1.029-0.165,1.813-0.494,2.35
		C120.634,39.448,120.172,39.716,119.579,39.716z M119.676,33.814c-0.463,0-0.825,0.238-1.084,0.713
		c-0.259,0.476-0.389,1.188-0.389,2.139c0,0.867,0.124,1.533,0.371,1.998s0.599,0.697,1.055,0.697c0.448,0,0.796-0.236,1.045-0.711
		c0.249-0.474,0.373-1.15,0.373-2.031C121.047,34.75,120.59,33.814,119.676,33.814z"/>
</g>
<g>
	<path d="M413.489,104.523l-0.805-1.773c-0.167-0.365-0.333-0.609-0.498-0.734s-0.373-0.188-0.623-0.188h-0.75v2.695h-0.418v-6.051
		h1.68c0.534,0,0.953,0.145,1.258,0.434s0.457,0.67,0.457,1.141c0,0.438-0.125,0.803-0.375,1.094s-0.6,0.48-1.051,0.566v0.016
		c0.24,0.096,0.473,0.387,0.699,0.871l0.898,1.93H413.489z M410.813,98.859v2.59h1.039c0.463,0,0.831-0.121,1.102-0.363
		s0.406-0.574,0.406-0.996c0-0.385-0.123-0.688-0.367-0.904s-0.595-0.326-1.051-0.326H410.813z"/>
	<path d="M415,104.309v-0.477c0.432,0.275,0.871,0.414,1.316,0.414c0.474,0,0.833-0.098,1.076-0.293s0.365-0.469,0.365-0.82
		c0-0.311-0.082-0.557-0.246-0.742s-0.521-0.436-1.07-0.754c-0.612-0.357-1-0.656-1.162-0.896s-0.244-0.52-0.244-0.834
		c0-0.428,0.166-0.789,0.498-1.088s0.774-0.447,1.326-0.447c0.362,0,0.723,0.061,1.082,0.184v0.438
		c-0.354-0.158-0.733-0.238-1.137-0.238c-0.409,0-0.734,0.104-0.975,0.311s-0.361,0.473-0.361,0.795
		c0,0.307,0.082,0.553,0.246,0.736s0.52,0.434,1.066,0.748c0.565,0.32,0.941,0.605,1.129,0.854s0.281,0.535,0.281,0.857
		c0,0.463-0.162,0.842-0.484,1.135s-0.777,0.439-1.363,0.439c-0.208,0-0.449-0.033-0.721-0.098S415.144,104.393,415,104.309z"/>
	<path d="M419.114,104.523v-0.281c0-0.189,0.015-0.359,0.045-0.51s0.077-0.287,0.141-0.414s0.143-0.246,0.236-0.357
		s0.204-0.223,0.33-0.334s0.269-0.225,0.428-0.342s0.332-0.244,0.52-0.383c0.182-0.131,0.353-0.26,0.512-0.391
		s0.297-0.27,0.416-0.418s0.212-0.313,0.281-0.49s0.104-0.383,0.104-0.615c0-0.398-0.111-0.709-0.332-0.93s-0.531-0.332-0.93-0.332
		c-0.271,0-0.531,0.059-0.781,0.178s-0.495,0.283-0.734,0.494v-0.457c0.232-0.178,0.481-0.316,0.748-0.418s0.545-0.152,0.834-0.152
		c0.242,0,0.461,0.037,0.658,0.111s0.365,0.178,0.504,0.313s0.247,0.297,0.322,0.488s0.113,0.406,0.113,0.643
		c0,0.279-0.04,0.525-0.119,0.74s-0.188,0.41-0.326,0.586s-0.299,0.338-0.482,0.484s-0.378,0.295-0.584,0.443
		c-0.273,0.193-0.504,0.365-0.693,0.516s-0.342,0.299-0.459,0.441s-0.202,0.291-0.254,0.441s-0.078,0.326-0.078,0.527v0.063h3.008
		v0.355H419.114z"/>
	<path d="M423.641,104.309v-0.441c0.461,0.271,0.896,0.406,1.305,0.406c0.487,0,0.868-0.125,1.143-0.373s0.412-0.574,0.412-0.975
		c0-0.447-0.158-0.787-0.475-1.018s-0.766-0.346-1.35-0.346h-0.465v-0.355h0.414c0.539,0,0.95-0.115,1.232-0.344
		s0.424-0.553,0.424-0.973c0-0.361-0.102-0.646-0.307-0.854s-0.504-0.311-0.9-0.311c-0.377,0-0.775,0.133-1.191,0.398v-0.414
		c0.456-0.227,0.874-0.34,1.254-0.34c0.477,0,0.855,0.129,1.135,0.389s0.42,0.602,0.42,1.029c0,0.82-0.392,1.342-1.176,1.563v0.016
		c0.422,0.041,0.759,0.199,1.012,0.471s0.379,0.615,0.379,1.029c0,0.529-0.183,0.955-0.549,1.277s-0.839,0.484-1.42,0.484
		C424.487,104.629,424.055,104.521,423.641,104.309z"/>
	<path d="M428.012,104.523v-0.281c0-0.189,0.015-0.359,0.045-0.51s0.077-0.287,0.141-0.414s0.143-0.246,0.236-0.357
		s0.204-0.223,0.33-0.334s0.269-0.225,0.428-0.342s0.332-0.244,0.52-0.383c0.182-0.131,0.353-0.26,0.512-0.391
		s0.297-0.27,0.416-0.418s0.212-0.313,0.281-0.49s0.104-0.383,0.104-0.615c0-0.398-0.111-0.709-0.332-0.93s-0.531-0.332-0.93-0.332
		c-0.271,0-0.531,0.059-0.781,0.178s-0.495,0.283-0.734,0.494v-0.457c0.232-0.178,0.481-0.316,0.748-0.418s0.545-0.152,0.834-0.152
		c0.242,0,0.461,0.037,0.658,0.111s0.365,0.178,0.504,0.313s0.247,0.297,0.322,0.488s0.113,0.406,0.113,0.643
		c0,0.279-0.04,0.525-0.119,0.74s-0.188,0.41-0.326,0.586s-0.299,0.338-0.482,0.484s-0.378,0.295-0.584,0.443
		c-0.273,0.193-0.504,0.365-0.693,0.516s-0.342,0.299-0.459,0.441s-0.202,0.291-0.254,0.441s-0.078,0.326-0.078,0.527v0.063h3.008
		v0.355H428.012z"/>
</g>
<g>
	<path d="M356.609,104.523v-2.902h-3.461v2.902h-0.418v-6.051h0.418v2.77h3.461v-2.77h0.414v6.051H356.609z"/>
	<path d="M362.515,104.523l-0.691-1.883h-2.621l-0.695,1.883h-0.457l2.281-6.051h0.398l2.254,6.051H362.515z M360.66,99.461
		c-0.031-0.084-0.056-0.166-0.074-0.25c-0.021-0.07-0.042-0.141-0.063-0.211h-0.02c-0.047,0.188-0.092,0.338-0.137,0.453
		l-1.02,2.805h2.336L360.66,99.461z"/>
	<path d="M368.289,104.523l-3.602-4.891c-0.076-0.1-0.141-0.197-0.195-0.293l-0.055-0.086h-0.02
		c0.008,0.072,0.012,0.162,0.012,0.266v5.004h-0.418v-6.051h0.32l3.578,4.848c0.078,0.107,0.164,0.236,0.258,0.391h0.02
		c-0.013-0.197-0.02-0.367-0.02-0.508v-4.73h0.414v6.051H368.289z"/>
	<path d="M370.136,104.523v-6.051h1.512c1.005,0,1.77,0.25,2.293,0.752s0.785,1.23,0.785,2.189c0,0.922-0.281,1.67-0.842,2.246
		s-1.335,0.863-2.322,0.863H370.136z M370.554,98.859v5.285h0.949c0.896,0,1.584-0.232,2.066-0.699s0.723-1.139,0.723-2.016
		c0-1.713-0.902-2.57-2.707-2.57H370.554z"/>
	<path d="M375.765,104.309v-0.477c0.432,0.275,0.871,0.414,1.316,0.414c0.474,0,0.833-0.098,1.076-0.293s0.365-0.469,0.365-0.82
		c0-0.311-0.082-0.557-0.246-0.742s-0.521-0.436-1.07-0.754c-0.612-0.357-1-0.656-1.162-0.896s-0.244-0.52-0.244-0.834
		c0-0.428,0.166-0.789,0.498-1.088s0.774-0.447,1.326-0.447c0.362,0,0.723,0.061,1.082,0.184v0.438
		c-0.354-0.158-0.733-0.238-1.137-0.238c-0.409,0-0.734,0.104-0.975,0.311s-0.361,0.473-0.361,0.795
		c0,0.307,0.082,0.553,0.246,0.736s0.52,0.434,1.066,0.748c0.565,0.32,0.941,0.605,1.129,0.854s0.281,0.535,0.281,0.857
		c0,0.463-0.162,0.842-0.484,1.135s-0.777,0.439-1.363,0.439c-0.208,0-0.449-0.033-0.721-0.098S375.908,104.393,375.765,104.309z"/>
	<path d="M380.25,104.523v-6.051h2.824v0.387h-2.406v2.426h2.234v0.379h-2.234v2.48h2.547v0.379H380.25z"/>
	<path d="M386.21,98.859v5.664h-0.414v-5.664h-1.746v-0.387h3.906v0.387H386.21z"/>
</g>
<g>
	<path d="M330.583,104.324c-0.49,0.203-1,0.305-1.531,0.305c-0.828,0-1.502-0.277-2.023-0.834s-0.781-1.281-0.781-2.174
		c0-0.982,0.283-1.77,0.848-2.361s1.284-0.889,2.156-0.889c0.463,0,0.908,0.076,1.332,0.227v0.441
		c-0.424-0.189-0.871-0.285-1.34-0.285c-0.76,0-1.378,0.258-1.854,0.771s-0.713,1.199-0.713,2.053c0,0.826,0.227,1.477,0.682,1.953
		s1.031,0.715,1.729,0.715c0.555,0,1.053-0.107,1.496-0.324V104.324z"/>
	<path d="M335.869,104.523l-0.691-1.883h-2.621l-0.695,1.883h-0.457l2.281-6.051h0.398l2.254,6.051H335.869z M334.013,99.461
		c-0.031-0.084-0.056-0.166-0.074-0.25c-0.021-0.07-0.042-0.141-0.063-0.211h-0.02c-0.047,0.188-0.092,0.338-0.137,0.453
		l-1.02,2.805h2.336L334.013,99.461z"/>
	<path d="M337.365,104.523v-6.051h0.418v5.672h2.426v0.379H337.365z"/>
	<path d="M341.322,104.523v-6.051h0.418v5.672h2.426v0.379H341.322z"/>
</g>
<g>
	<path d="M467.898,104.324c-0.49,0.203-1,0.305-1.531,0.305c-0.828,0-1.502-0.277-2.023-0.834s-0.781-1.281-0.781-2.174
		c0-0.982,0.283-1.77,0.848-2.361s1.284-0.889,2.156-0.889c0.463,0,0.908,0.076,1.332,0.227v0.441
		c-0.424-0.189-0.871-0.285-1.34-0.285c-0.76,0-1.378,0.258-1.854,0.771s-0.713,1.199-0.713,2.053c0,0.826,0.227,1.477,0.682,1.953
		s1.031,0.715,1.729,0.715c0.555,0,1.053-0.107,1.496-0.324V104.324z"/>
	<path d="M471.562,104.629c-0.854,0-1.535-0.283-2.043-0.852s-0.762-1.307-0.762-2.215c0-0.967,0.26-1.74,0.781-2.32
		s1.233-0.871,2.137-0.871c0.815,0,1.475,0.279,1.98,0.838s0.758,1.291,0.758,2.197c0,1-0.258,1.787-0.775,2.361
		S472.429,104.629,471.562,104.629z M471.605,98.754c-0.703,0-1.282,0.254-1.736,0.764s-0.682,1.176-0.682,1.998
		c0,0.834,0.215,1.496,0.645,1.99s1.004,0.74,1.723,0.74c0.748,0,1.339-0.244,1.775-0.732s0.654-1.168,0.654-2.041
		c0-0.854-0.213-1.521-0.639-2S472.339,98.754,471.605,98.754z"/>
	<path d="M479.929,104.523l-3.602-4.891c-0.076-0.1-0.141-0.197-0.195-0.293l-0.055-0.086h-0.02
		c0.008,0.072,0.012,0.162,0.012,0.266v5.004h-0.418v-6.051h0.32l3.578,4.848c0.078,0.107,0.164,0.236,0.258,0.391h0.02
		c-0.013-0.197-0.02-0.367-0.02-0.508v-4.73h0.414v6.051H479.929z"/>
	<path d="M481.585,104.309v-0.477c0.432,0.275,0.871,0.414,1.316,0.414c0.474,0,0.833-0.098,1.076-0.293s0.365-0.469,0.365-0.82
		c0-0.311-0.082-0.557-0.246-0.742s-0.521-0.436-1.07-0.754c-0.612-0.357-1-0.656-1.162-0.896s-0.244-0.52-0.244-0.834
		c0-0.428,0.166-0.789,0.498-1.088s0.774-0.447,1.326-0.447c0.362,0,0.723,0.061,1.082,0.184v0.438
		c-0.354-0.158-0.733-0.238-1.137-0.238c-0.409,0-0.734,0.104-0.975,0.311s-0.361,0.473-0.361,0.795
		c0,0.307,0.082,0.553,0.246,0.736s0.52,0.434,1.066,0.748c0.565,0.32,0.941,0.605,1.129,0.854s0.281,0.535,0.281,0.857
		c0,0.463-0.162,0.842-0.484,1.135s-0.777,0.439-1.363,0.439c-0.208,0-0.449-0.033-0.721-0.098S481.729,104.393,481.585,104.309z"/>
	<path d="M488.558,104.629c-0.854,0-1.535-0.283-2.043-0.852s-0.762-1.307-0.762-2.215c0-0.967,0.26-1.74,0.781-2.32
		s1.233-0.871,2.137-0.871c0.815,0,1.475,0.279,1.98,0.838s0.758,1.291,0.758,2.197c0,1-0.258,1.787-0.775,2.361
		S489.425,104.629,488.558,104.629z M488.601,98.754c-0.703,0-1.282,0.254-1.736,0.764s-0.682,1.176-0.682,1.998
		c0,0.834,0.215,1.496,0.645,1.99s1.004,0.74,1.723,0.74c0.748,0,1.339-0.244,1.775-0.732s0.654-1.168,0.654-2.041
		c0-0.854-0.213-1.521-0.639-2S489.335,98.754,488.601,98.754z"/>
	<path d="M492.648,104.523v-6.051h0.418v5.672h2.426v0.379H492.648z"/>
	<path d="M496.605,104.523v-6.051h2.824v0.387h-2.406v2.426h2.234v0.379h-2.234v2.48h2.547v0.379H496.605z"/>
</g>
<g>
	<path d="M595.25,104.309v-0.477c0.432,0.275,0.871,0.414,1.316,0.414c0.474,0,0.833-0.098,1.076-0.293s0.365-0.469,0.365-0.82
		c0-0.311-0.082-0.557-0.246-0.742s-0.521-0.436-1.07-0.754c-0.612-0.357-1-0.656-1.162-0.896s-0.244-0.52-0.244-0.834
		c0-0.428,0.166-0.789,0.498-1.088s0.774-0.447,1.326-0.447c0.362,0,0.723,0.061,1.082,0.184v0.438
		c-0.354-0.158-0.733-0.238-1.137-0.238c-0.409,0-0.734,0.104-0.975,0.311s-0.361,0.473-0.361,0.795
		c0,0.307,0.082,0.553,0.246,0.736s0.52,0.434,1.066,0.748c0.565,0.32,0.941,0.605,1.129,0.854s0.281,0.535,0.281,0.857
		c0,0.463-0.162,0.842-0.484,1.135s-0.777,0.439-1.363,0.439c-0.208,0-0.449-0.033-0.721-0.098S595.394,104.393,595.25,104.309z"/>
	<path d="M599.735,104.523v-6.051h2.824v0.387h-2.406v2.426h2.234v0.379h-2.234v2.48h2.547v0.379H599.735z"/>
	<path d="M604.055,104.523v-6.051h0.418v5.672h2.426v0.379H604.055z"/>
</g>
<g>
	<path d="M634.716,85.133v6.184h-0.387v-5.574c-0.195,0.188-0.417,0.348-0.666,0.482s-0.52,0.254-0.814,0.357V86.23
		c0.177-0.061,0.341-0.127,0.492-0.201s0.296-0.156,0.436-0.248s0.275-0.191,0.406-0.299s0.265-0.225,0.4-0.35H634.716z"/>
</g>
<g>
	<path d="M647.529,91.316v-0.281c0-0.189,0.015-0.359,0.045-0.51c0.029-0.15,0.076-0.287,0.141-0.414
		c0.063-0.127,0.143-0.246,0.236-0.357s0.203-0.223,0.33-0.334c0.126-0.111,0.269-0.225,0.428-0.342
		c0.158-0.117,0.332-0.244,0.52-0.383c0.182-0.131,0.353-0.26,0.512-0.391c0.158-0.131,0.297-0.27,0.416-0.418
		c0.118-0.148,0.212-0.313,0.281-0.49c0.068-0.178,0.104-0.383,0.104-0.615c0-0.398-0.111-0.709-0.332-0.93
		c-0.222-0.221-0.531-0.332-0.93-0.332c-0.271,0-0.531,0.059-0.781,0.178s-0.495,0.283-0.734,0.494v-0.457
		c0.231-0.178,0.48-0.316,0.748-0.418c0.267-0.102,0.545-0.152,0.834-0.152c0.242,0,0.461,0.037,0.658,0.111
		c0.196,0.074,0.364,0.178,0.504,0.313c0.139,0.135,0.246,0.297,0.322,0.488c0.075,0.191,0.113,0.406,0.113,0.643
		c0,0.279-0.04,0.525-0.119,0.74c-0.08,0.215-0.188,0.41-0.326,0.586c-0.139,0.176-0.299,0.338-0.482,0.484
		s-0.379,0.295-0.584,0.443c-0.273,0.193-0.505,0.365-0.693,0.516c-0.189,0.15-0.342,0.299-0.459,0.441s-0.202,0.291-0.254,0.441
		c-0.053,0.15-0.078,0.326-0.078,0.527v0.063h3.008v0.355H647.529z"/>
</g>
<g>
	<path d="M661.982,91.102V90.66c0.461,0.271,0.896,0.406,1.305,0.406c0.486,0,0.867-0.125,1.143-0.373
		c0.274-0.248,0.412-0.574,0.412-0.975c0-0.447-0.158-0.787-0.475-1.018s-0.767-0.346-1.35-0.346h-0.465V88h0.414
		c0.539,0,0.949-0.115,1.232-0.344c0.282-0.229,0.424-0.553,0.424-0.973c0-0.361-0.103-0.646-0.307-0.854
		c-0.205-0.207-0.505-0.311-0.9-0.311c-0.378,0-0.775,0.133-1.191,0.398v-0.414c0.455-0.227,0.873-0.34,1.254-0.34
		c0.477,0,0.854,0.129,1.135,0.389c0.279,0.26,0.42,0.602,0.42,1.029c0,0.82-0.393,1.342-1.176,1.563v0.016
		c0.422,0.041,0.759,0.199,1.012,0.471c0.252,0.271,0.379,0.615,0.379,1.029c0,0.529-0.184,0.955-0.549,1.277
		c-0.366,0.322-0.84,0.484-1.42,0.484C662.828,91.422,662.396,91.314,661.982,91.102z"/>
</g>
<g>
	<path d="M680.982,85.266v4.117h0.945v0.352h-0.945v1.582h-0.387v-1.582h-2.887v-0.379c0.271-0.307,0.545-0.637,0.824-0.99
		c0.278-0.354,0.545-0.709,0.799-1.068s0.487-0.713,0.701-1.063c0.213-0.35,0.392-0.672,0.535-0.969H680.982z M678.154,89.383h2.441
		v-3.426c-0.206,0.354-0.42,0.697-0.641,1.029c-0.222,0.332-0.439,0.645-0.654,0.939s-0.421,0.564-0.617,0.813
		C678.486,88.986,678.311,89.201,678.154,89.383z"/>
</g>
<g>
	<path d="M692.82,91.195v-0.449c0.389,0.213,0.773,0.32,1.156,0.32c0.495,0,0.882-0.137,1.16-0.408
		c0.279-0.271,0.418-0.635,0.418-1.088c0-0.984-0.561-1.477-1.684-1.477c-0.252,0-0.543,0.018-0.871,0.051l0.184-2.879h2.516v0.355
		h-2.172l-0.137,2.152c0.289-0.023,0.496-0.035,0.621-0.035c0.641,0,1.125,0.156,1.453,0.471s0.492,0.75,0.492,1.311
		c0,0.564-0.174,1.023-0.523,1.375c-0.349,0.352-0.846,0.527-1.492,0.527C693.518,91.422,693.144,91.346,692.82,91.195z"/>
</g>
<g>
	<path d="M712.145,85.313v0.414c-0.286-0.139-0.583-0.207-0.891-0.207c-0.299,0-0.568,0.074-0.809,0.221
		c-0.239,0.146-0.443,0.355-0.613,0.623c-0.169,0.268-0.299,0.588-0.389,0.957s-0.135,0.777-0.135,1.223h0.02
		c0.295-0.674,0.799-1.012,1.512-1.012c0.248,0,0.473,0.049,0.676,0.145s0.377,0.229,0.521,0.396s0.257,0.365,0.336,0.592
		c0.08,0.227,0.119,0.471,0.119,0.734c0,0.291-0.044,0.561-0.133,0.809c-0.088,0.248-0.213,0.461-0.373,0.641
		s-0.351,0.32-0.572,0.422c-0.221,0.102-0.465,0.152-0.73,0.152c-0.275,0-0.523-0.061-0.744-0.18
		c-0.22-0.119-0.406-0.295-0.559-0.527s-0.268-0.52-0.348-0.865c-0.079-0.346-0.119-0.74-0.119-1.186
		c0-0.529,0.053-1.008,0.156-1.439c0.104-0.432,0.257-0.799,0.457-1.104c0.201-0.305,0.447-0.541,0.738-0.707
		c0.292-0.166,0.624-0.25,0.996-0.25C711.596,85.164,711.89,85.213,712.145,85.313z M710.754,87.887c-0.2,0-0.386,0.041-0.557,0.125
		c-0.17,0.084-0.317,0.193-0.441,0.328c-0.123,0.135-0.221,0.291-0.291,0.465s-0.105,0.352-0.105,0.531
		c0,0.232,0.033,0.453,0.098,0.662c0.065,0.209,0.157,0.393,0.275,0.551c0.119,0.158,0.262,0.283,0.428,0.377
		c0.167,0.094,0.354,0.141,0.559,0.141c0.195,0,0.377-0.039,0.543-0.119c0.167-0.08,0.311-0.189,0.432-0.332
		s0.217-0.311,0.285-0.504c0.069-0.193,0.104-0.406,0.104-0.635c0-0.236-0.03-0.453-0.092-0.648
		c-0.061-0.195-0.148-0.363-0.264-0.502c-0.114-0.139-0.254-0.248-0.418-0.324S710.96,87.887,710.754,87.887z"/>
</g>
<g>
	<path d="M724.379,91.316c0.089-0.521,0.207-1.023,0.355-1.506s0.322-0.957,0.52-1.424c0.198-0.467,0.414-0.928,0.646-1.385
		c0.233-0.457,0.479-0.918,0.736-1.381h-3.195v-0.355h3.719v0.145c-0.283,0.521-0.549,1.021-0.797,1.504
		c-0.247,0.482-0.471,0.961-0.672,1.436c-0.2,0.475-0.375,0.955-0.525,1.441c-0.149,0.486-0.266,0.994-0.35,1.525H724.379z"/>
</g>
<g>
	<path d="M739.723,89.629c0-0.162,0.023-0.32,0.068-0.475c0.046-0.154,0.116-0.301,0.211-0.439c0.096-0.139,0.213-0.262,0.354-0.373
		s0.307-0.199,0.496-0.264c-0.141-0.068-0.269-0.15-0.385-0.246c-0.115-0.096-0.214-0.203-0.295-0.318
		c-0.08-0.115-0.143-0.242-0.188-0.379c-0.044-0.137-0.066-0.277-0.066-0.424c0-0.225,0.041-0.43,0.121-0.617
		c0.081-0.188,0.191-0.35,0.332-0.488s0.309-0.246,0.502-0.324c0.194-0.078,0.403-0.117,0.627-0.117
		c0.229,0,0.441,0.039,0.635,0.119c0.194,0.08,0.361,0.188,0.502,0.326s0.25,0.301,0.328,0.488s0.117,0.393,0.117,0.613
		c0,0.148-0.021,0.291-0.064,0.426s-0.104,0.262-0.184,0.379c-0.079,0.117-0.175,0.223-0.287,0.318
		c-0.111,0.096-0.236,0.176-0.375,0.244c0.186,0.064,0.347,0.152,0.484,0.264c0.139,0.111,0.254,0.234,0.346,0.373
		c0.093,0.139,0.162,0.285,0.207,0.439c0.046,0.154,0.068,0.313,0.068,0.475c0,0.281-0.043,0.533-0.131,0.754
		c-0.087,0.221-0.209,0.408-0.365,0.561s-0.343,0.27-0.561,0.35c-0.217,0.08-0.459,0.121-0.725,0.121
		c-0.258,0-0.494-0.041-0.711-0.121c-0.216-0.08-0.402-0.197-0.561-0.348c-0.157-0.15-0.28-0.338-0.369-0.559
		C739.768,90.166,739.723,89.912,739.723,89.629z M740.121,89.672c0,0.211,0.034,0.402,0.102,0.574
		c0.068,0.172,0.162,0.318,0.281,0.441c0.12,0.123,0.264,0.217,0.43,0.281c0.167,0.064,0.352,0.098,0.555,0.098
		c0.201,0,0.385-0.033,0.553-0.098s0.313-0.158,0.436-0.281c0.123-0.123,0.218-0.27,0.285-0.441
		c0.068-0.172,0.102-0.363,0.102-0.574c0-0.189-0.032-0.369-0.098-0.537c-0.064-0.168-0.156-0.314-0.275-0.441
		c-0.118-0.127-0.263-0.227-0.434-0.303c-0.17-0.076-0.359-0.113-0.568-0.113c-0.192,0-0.373,0.035-0.541,0.104
		s-0.313,0.164-0.436,0.287c-0.122,0.123-0.218,0.27-0.287,0.441C740.156,89.281,740.121,89.469,740.121,89.672z M740.332,86.723
		c0,0.17,0.031,0.326,0.092,0.471c0.062,0.145,0.145,0.27,0.25,0.377s0.229,0.191,0.371,0.254c0.143,0.063,0.293,0.094,0.451,0.094
		c0.162,0,0.314-0.031,0.457-0.094c0.144-0.063,0.268-0.148,0.373-0.256s0.189-0.234,0.25-0.379
		c0.062-0.145,0.092-0.301,0.092-0.467c0-0.172-0.029-0.33-0.09-0.477c-0.06-0.146-0.143-0.273-0.248-0.381
		s-0.229-0.193-0.371-0.254c-0.142-0.061-0.296-0.092-0.463-0.092c-0.174,0-0.332,0.031-0.475,0.096
		c-0.142,0.064-0.264,0.15-0.367,0.258c-0.103,0.107-0.182,0.234-0.238,0.381C740.36,86.4,740.332,86.557,740.332,86.723z"/>
</g>
<g>
	<path d="M742.357,107.117c-0.489,0.203-1,0.305-1.531,0.305c-0.828,0-1.502-0.277-2.023-0.834
		c-0.521-0.557-0.781-1.281-0.781-2.174c0-0.982,0.283-1.77,0.848-2.361c0.565-0.592,1.284-0.889,2.156-0.889
		c0.464,0,0.908,0.076,1.332,0.227v0.441c-0.424-0.189-0.871-0.285-1.34-0.285c-0.76,0-1.378,0.258-1.854,0.771
		c-0.475,0.514-0.713,1.199-0.713,2.053c0,0.826,0.228,1.477,0.682,1.953c0.455,0.477,1.031,0.715,1.729,0.715
		c0.555,0,1.054-0.107,1.496-0.324V107.117z"/>
	<path d="M743.705,107.316v-6.051h0.418v5.672h2.426v0.379H743.705z"/>
	<path d="M749.705,107.422c-0.854,0-1.535-0.283-2.043-0.852s-0.762-1.307-0.762-2.215c0-0.967,0.261-1.74,0.781-2.32
		c0.521-0.58,1.233-0.871,2.137-0.871c0.815,0,1.476,0.279,1.98,0.838c0.506,0.559,0.758,1.291,0.758,2.197
		c0,1-0.258,1.787-0.775,2.361C751.265,107.135,750.572,107.422,749.705,107.422z M749.748,101.547
		c-0.703,0-1.281,0.254-1.736,0.764c-0.454,0.51-0.682,1.176-0.682,1.998c0,0.834,0.215,1.496,0.645,1.99s1.004,0.74,1.723,0.74
		c0.748,0,1.34-0.244,1.775-0.732c0.437-0.488,0.654-1.168,0.654-2.041c0-0.854-0.213-1.521-0.639-2
		S750.482,101.547,749.748,101.547z"/>
	<path d="M753.604,107.102v-0.477c0.433,0.275,0.871,0.414,1.316,0.414c0.475,0,0.833-0.098,1.076-0.293
		c0.244-0.195,0.365-0.469,0.365-0.82c0-0.311-0.082-0.557-0.246-0.742s-0.521-0.436-1.07-0.754
		c-0.611-0.357-0.999-0.656-1.162-0.896c-0.162-0.24-0.244-0.52-0.244-0.834c0-0.428,0.166-0.789,0.498-1.088
		s0.774-0.447,1.326-0.447c0.362,0,0.723,0.061,1.082,0.184v0.438c-0.354-0.158-0.732-0.238-1.137-0.238
		c-0.408,0-0.733,0.104-0.975,0.311c-0.24,0.207-0.361,0.473-0.361,0.795c0,0.307,0.082,0.553,0.246,0.736s0.52,0.434,1.066,0.748
		c0.565,0.32,0.941,0.605,1.129,0.854s0.281,0.535,0.281,0.857c0,0.463-0.161,0.842-0.484,1.135
		c-0.322,0.293-0.777,0.439-1.363,0.439c-0.208,0-0.448-0.033-0.721-0.098C753.955,107.26,753.747,107.186,753.604,107.102z"/>
</g>
<g>
	<path d="M741.432,55.094l-0.805-1.773c-0.166-0.364-0.332-0.609-0.498-0.734c-0.165-0.125-0.373-0.188-0.623-0.188h-0.75v2.695
		h-0.418v-6.051h1.68c0.534,0,0.953,0.145,1.258,0.434s0.457,0.67,0.457,1.141c0,0.438-0.125,0.803-0.375,1.094
		c-0.25,0.292-0.6,0.48-1.051,0.566v0.016c0.24,0.097,0.473,0.387,0.699,0.871l0.898,1.93H741.432z M738.756,49.43v2.59h1.039
		c0.464,0,0.831-0.121,1.102-0.363c0.271-0.242,0.406-0.574,0.406-0.996c0-0.385-0.122-0.687-0.367-0.904
		c-0.244-0.217-0.595-0.326-1.051-0.326H738.756z"/>
	<path d="M743.135,55.094v-6.051h0.418v5.672h2.426v0.379H743.135z"/>
	<path d="M749.135,55.2c-0.854,0-1.535-0.283-2.043-0.852c-0.508-0.567-0.762-1.306-0.762-2.215c0-0.966,0.261-1.739,0.781-2.32
		c0.521-0.58,1.233-0.871,2.137-0.871c0.815,0,1.476,0.279,1.98,0.838c0.506,0.559,0.758,1.291,0.758,2.197
		c0,1-0.258,1.787-0.775,2.361C750.694,54.913,750.002,55.2,749.135,55.2z M749.178,49.325c-0.703,0-1.281,0.255-1.736,0.764
		c-0.454,0.51-0.682,1.176-0.682,1.998c0,0.834,0.215,1.497,0.645,1.99c0.43,0.494,1.004,0.74,1.723,0.74
		c0.748,0,1.34-0.244,1.775-0.732c0.437-0.488,0.654-1.168,0.654-2.041c0-0.854-0.213-1.521-0.639-2
		C750.492,49.565,749.912,49.325,749.178,49.325z"/>
	<path d="M753.033,54.879v-0.477c0.433,0.276,0.871,0.414,1.316,0.414c0.475,0,0.833-0.098,1.076-0.293
		c0.244-0.195,0.365-0.469,0.365-0.82c0-0.31-0.082-0.557-0.246-0.742c-0.164-0.185-0.521-0.436-1.07-0.754
		c-0.611-0.356-0.999-0.655-1.162-0.896c-0.162-0.24-0.244-0.519-0.244-0.834c0-0.427,0.166-0.789,0.498-1.088
		c0.332-0.298,0.774-0.447,1.326-0.447c0.362,0,0.723,0.062,1.082,0.184v0.438c-0.354-0.158-0.732-0.238-1.137-0.238
		c-0.408,0-0.733,0.104-0.975,0.311c-0.24,0.207-0.361,0.473-0.361,0.795c0,0.308,0.082,0.553,0.246,0.736s0.52,0.434,1.066,0.748
		c0.565,0.32,0.941,0.605,1.129,0.854c0.188,0.249,0.281,0.535,0.281,0.857c0,0.464-0.161,0.842-0.484,1.135
		c-0.322,0.293-0.777,0.439-1.363,0.439c-0.208,0-0.448-0.032-0.721-0.098C753.385,55.038,753.177,54.963,753.033,54.879z"/>
</g>
<g>
	<path d="M729.756,37.428v-6.051h2.824v0.387h-2.406v2.426h2.234v0.379h-2.234v2.48h2.547v0.379H729.756z"/>
	<path d="M735.518,31.245v6.184h-0.387v-5.574c-0.195,0.188-0.418,0.349-0.666,0.482c-0.249,0.135-0.521,0.254-0.814,0.357v-0.352
		c0.177-0.06,0.341-0.127,0.492-0.201c0.15-0.074,0.296-0.156,0.436-0.248c0.139-0.091,0.274-0.19,0.406-0.299
		c0.131-0.107,0.265-0.225,0.4-0.35H735.518z"/>
</g>
<g>
	<path d="M740.896,37.213v-0.477c0.433,0.276,0.871,0.414,1.316,0.414c0.475,0,0.833-0.098,1.076-0.293
		c0.244-0.195,0.365-0.469,0.365-0.82c0-0.31-0.082-0.557-0.246-0.742c-0.164-0.185-0.521-0.436-1.07-0.754
		c-0.611-0.356-0.999-0.655-1.162-0.896c-0.162-0.24-0.244-0.519-0.244-0.834c0-0.427,0.166-0.789,0.498-1.088
		c0.332-0.298,0.774-0.447,1.326-0.447c0.362,0,0.723,0.062,1.082,0.184v0.438c-0.354-0.158-0.732-0.238-1.137-0.238
		c-0.408,0-0.733,0.104-0.975,0.311c-0.24,0.207-0.361,0.473-0.361,0.795c0,0.308,0.082,0.553,0.246,0.736s0.52,0.434,1.066,0.748
		c0.565,0.32,0.941,0.605,1.129,0.854c0.188,0.249,0.281,0.535,0.281,0.857c0,0.464-0.161,0.842-0.484,1.135
		c-0.322,0.293-0.777,0.439-1.363,0.439c-0.208,0-0.448-0.032-0.721-0.098C741.248,37.372,741.04,37.297,740.896,37.213z"/>
	<path d="M747.021,31.764v5.664h-0.414v-5.664h-1.746v-0.387h3.906v0.387H747.021z"/>
	<path d="M752.752,37.428l-0.691-1.883h-2.621l-0.695,1.883h-0.457l2.281-6.051h0.398l2.254,6.051H752.752z M750.896,32.366
		c-0.031-0.083-0.056-0.166-0.074-0.25c-0.021-0.07-0.041-0.141-0.063-0.211h-0.02c-0.047,0.188-0.092,0.339-0.137,0.453
		l-1.02,2.805h2.336L750.896,32.366z"/>
	<path d="M754.947,31.764v5.664h-0.414v-5.664h-1.746v-0.387h3.906v0.387H754.947z"/>
	<path d="M761.846,35.01c0,1.683-0.717,2.523-2.152,2.523c-1.364,0-2.047-0.81-2.047-2.43v-3.727h0.414v3.668
		c0,1.404,0.572,2.105,1.715,2.105c1.104,0,1.656-0.682,1.656-2.047v-3.727h0.414V35.01z"/>
	<path d="M763.131,37.213v-0.477c0.433,0.276,0.871,0.414,1.316,0.414c0.475,0,0.833-0.098,1.076-0.293
		c0.244-0.195,0.365-0.469,0.365-0.82c0-0.31-0.082-0.557-0.246-0.742c-0.164-0.185-0.521-0.436-1.07-0.754
		c-0.611-0.356-0.999-0.655-1.162-0.896c-0.162-0.24-0.244-0.519-0.244-0.834c0-0.427,0.166-0.789,0.498-1.088
		c0.332-0.298,0.774-0.447,1.326-0.447c0.362,0,0.723,0.062,1.082,0.184v0.438c-0.354-0.158-0.732-0.238-1.137-0.238
		c-0.408,0-0.733,0.104-0.975,0.311c-0.24,0.207-0.361,0.473-0.361,0.795c0,0.308,0.082,0.553,0.246,0.736s0.52,0.434,1.066,0.748
		c0.565,0.32,0.941,0.605,1.129,0.854c0.188,0.249,0.281,0.535,0.281,0.857c0,0.464-0.161,0.842-0.484,1.135
		c-0.322,0.293-0.777,0.439-1.363,0.439c-0.208,0-0.448-0.032-0.721-0.098C763.482,37.372,763.274,37.297,763.131,37.213z"/>
</g>
<g>
	<path d="M755.52,91.266V90.84c0.323,0.15,0.62,0.227,0.891,0.227c0.639,0,1.125-0.256,1.459-0.766
		c0.335-0.51,0.502-1.264,0.502-2.258h-0.016c-0.278,0.648-0.773,0.973-1.484,0.973c-0.25,0-0.477-0.047-0.682-0.139
		c-0.204-0.092-0.38-0.221-0.527-0.385c-0.146-0.164-0.261-0.359-0.342-0.586c-0.08-0.227-0.121-0.475-0.121-0.746
		c0-0.297,0.046-0.568,0.137-0.813c0.092-0.244,0.219-0.455,0.383-0.629s0.357-0.311,0.58-0.408s0.466-0.146,0.729-0.146
		c0.266,0,0.508,0.057,0.725,0.172c0.218,0.115,0.402,0.287,0.553,0.516c0.151,0.229,0.268,0.514,0.35,0.855s0.123,0.74,0.123,1.195
		c0,0.563-0.051,1.063-0.154,1.498c-0.103,0.436-0.254,0.805-0.453,1.104s-0.446,0.527-0.742,0.684
		c-0.295,0.156-0.637,0.234-1.025,0.234C756.101,91.422,755.807,91.369,755.52,91.266z M756.973,85.52
		c-0.197,0-0.38,0.039-0.547,0.119c-0.166,0.08-0.311,0.188-0.432,0.326s-0.215,0.303-0.283,0.494
		c-0.067,0.191-0.102,0.398-0.102,0.623c0,0.244,0.033,0.465,0.1,0.66s0.158,0.361,0.275,0.498s0.26,0.242,0.426,0.314
		c0.167,0.072,0.352,0.109,0.555,0.109c0.186,0,0.36-0.037,0.525-0.113c0.166-0.076,0.31-0.176,0.432-0.301
		c0.123-0.125,0.22-0.271,0.291-0.438c0.072-0.166,0.107-0.342,0.107-0.527c0-0.258-0.032-0.494-0.098-0.711
		c-0.064-0.217-0.157-0.402-0.277-0.559c-0.119-0.156-0.263-0.277-0.43-0.365C757.35,85.563,757.168,85.52,756.973,85.52z"/>
</g>
<g>
	<path d="M770.738,85.133v6.184h-0.387v-5.574c-0.195,0.188-0.417,0.348-0.666,0.482c-0.248,0.135-0.52,0.254-0.814,0.357V86.23
		c0.178-0.061,0.342-0.127,0.492-0.201c0.151-0.074,0.297-0.156,0.436-0.248c0.14-0.092,0.275-0.191,0.406-0.299
		c0.132-0.107,0.266-0.225,0.4-0.35H770.738z"/>
	<path d="M773.773,91.422c-0.557,0-0.992-0.256-1.307-0.768c-0.313-0.512-0.471-1.256-0.471-2.232c0-1.078,0.165-1.891,0.494-2.438
		c0.33-0.547,0.802-0.82,1.416-0.82c1.164,0,1.746,1.033,1.746,3.102c0,1.029-0.164,1.813-0.494,2.35
		C774.829,91.152,774.367,91.422,773.773,91.422z M773.871,85.52c-0.463,0-0.824,0.238-1.084,0.713
		c-0.259,0.475-0.389,1.188-0.389,2.139c0,0.867,0.124,1.533,0.371,1.998c0.248,0.465,0.6,0.697,1.055,0.697
		c0.448,0,0.797-0.236,1.045-0.711c0.249-0.475,0.373-1.15,0.373-2.031C775.242,86.455,774.785,85.52,773.871,85.52z"/>
</g>
<g>
	<path d="M786.488,85.133v6.184h-0.387v-5.574c-0.195,0.188-0.417,0.348-0.666,0.482c-0.248,0.135-0.52,0.254-0.814,0.357V86.23
		c0.178-0.061,0.342-0.127,0.492-0.201c0.151-0.074,0.297-0.156,0.436-0.248c0.14-0.092,0.275-0.191,0.406-0.299
		c0.132-0.107,0.266-0.225,0.4-0.35H786.488z"/>
	<path d="M789.566,85.133v6.184h-0.387v-5.574c-0.195,0.188-0.417,0.348-0.666,0.482c-0.248,0.135-0.52,0.254-0.814,0.357V86.23
		c0.178-0.061,0.342-0.127,0.492-0.201c0.151-0.074,0.297-0.156,0.436-0.248c0.14-0.092,0.275-0.191,0.406-0.299
		c0.132-0.107,0.266-0.225,0.4-0.35H789.566z"/>
</g>
<g>
	<path d="M801.988,85.133v6.184h-0.387v-5.574c-0.195,0.188-0.417,0.348-0.666,0.482c-0.248,0.135-0.52,0.254-0.814,0.357V86.23
		c0.178-0.061,0.342-0.127,0.492-0.201c0.151-0.074,0.297-0.156,0.436-0.248c0.14-0.092,0.275-0.191,0.406-0.299
		c0.132-0.107,0.266-0.225,0.4-0.35H801.988z"/>
	<path d="M803.254,91.316v-0.281c0-0.189,0.016-0.359,0.045-0.51c0.03-0.15,0.077-0.287,0.141-0.414
		c0.064-0.127,0.143-0.246,0.236-0.357s0.204-0.223,0.33-0.334c0.127-0.111,0.27-0.225,0.428-0.342
		c0.159-0.117,0.332-0.244,0.52-0.383c0.183-0.131,0.354-0.26,0.512-0.391c0.159-0.131,0.298-0.27,0.416-0.418
		c0.119-0.148,0.213-0.313,0.281-0.49c0.069-0.178,0.104-0.383,0.104-0.615c0-0.398-0.11-0.709-0.332-0.93
		c-0.221-0.221-0.531-0.332-0.93-0.332c-0.271,0-0.531,0.059-0.781,0.178s-0.494,0.283-0.734,0.494v-0.457
		c0.232-0.178,0.481-0.316,0.748-0.418c0.268-0.102,0.545-0.152,0.834-0.152c0.242,0,0.462,0.037,0.658,0.111
		c0.197,0.074,0.365,0.178,0.504,0.313c0.14,0.135,0.247,0.297,0.322,0.488c0.076,0.191,0.113,0.406,0.113,0.643
		c0,0.279-0.039,0.525-0.119,0.74c-0.079,0.215-0.188,0.41-0.326,0.586c-0.138,0.176-0.299,0.338-0.482,0.484
		s-0.378,0.295-0.584,0.443c-0.273,0.193-0.504,0.365-0.693,0.516c-0.188,0.15-0.342,0.299-0.459,0.441s-0.201,0.291-0.254,0.441
		c-0.052,0.15-0.078,0.326-0.078,0.527v0.063h3.008v0.355H803.254z"/>
</g>
<g>
	<path d="M816.863,85.133v6.184h-0.387v-5.574c-0.195,0.188-0.417,0.348-0.666,0.482c-0.248,0.135-0.52,0.254-0.814,0.357V86.23
		c0.178-0.061,0.342-0.127,0.492-0.201c0.151-0.074,0.297-0.156,0.436-0.248c0.14-0.092,0.275-0.191,0.406-0.299
		c0.132-0.107,0.266-0.225,0.4-0.35H816.863z"/>
	<path d="M818.207,91.102V90.66c0.461,0.271,0.896,0.406,1.305,0.406c0.487,0,0.868-0.125,1.143-0.373
		c0.275-0.248,0.412-0.574,0.412-0.975c0-0.447-0.158-0.787-0.475-1.018s-0.766-0.346-1.35-0.346h-0.465V88h0.414
		c0.539,0,0.95-0.115,1.232-0.344c0.283-0.229,0.424-0.553,0.424-0.973c0-0.361-0.102-0.646-0.307-0.854
		c-0.204-0.207-0.504-0.311-0.9-0.311c-0.377,0-0.774,0.133-1.191,0.398v-0.414c0.456-0.227,0.874-0.34,1.254-0.34
		c0.477,0,0.855,0.129,1.135,0.389c0.28,0.26,0.42,0.602,0.42,1.029c0,0.82-0.392,1.342-1.176,1.563v0.016
		c0.422,0.041,0.76,0.199,1.012,0.471c0.253,0.271,0.379,0.615,0.379,1.029c0,0.529-0.183,0.955-0.549,1.277
		c-0.365,0.322-0.839,0.484-1.42,0.484C819.054,91.422,818.621,91.314,818.207,91.102z"/>
</g>
<g>
	<path d="M832.863,85.133v6.184h-0.387v-5.574c-0.195,0.188-0.417,0.348-0.666,0.482c-0.248,0.135-0.52,0.254-0.814,0.357V86.23
		c0.178-0.061,0.342-0.127,0.492-0.201c0.151-0.074,0.297-0.156,0.436-0.248c0.14-0.092,0.275-0.191,0.406-0.299
		c0.132-0.107,0.266-0.225,0.4-0.35H832.863z"/>
	<path d="M837.207,85.266v4.117h0.945v0.352h-0.945v1.582h-0.387v-1.582h-2.887v-0.379c0.271-0.307,0.546-0.637,0.824-0.99
		c0.279-0.354,0.545-0.709,0.799-1.068s0.488-0.713,0.701-1.063c0.214-0.35,0.393-0.672,0.535-0.969H837.207z M834.379,89.383h2.441
		v-3.426c-0.205,0.354-0.419,0.697-0.641,1.029c-0.221,0.332-0.439,0.645-0.654,0.939s-0.42,0.564-0.617,0.813
		C834.712,88.986,834.535,89.201,834.379,89.383z"/>
</g>
<g>
	<path d="M848.154,85.133v6.184h-0.387v-5.574c-0.195,0.188-0.417,0.348-0.666,0.482c-0.248,0.135-0.52,0.254-0.814,0.357V86.23
		c0.178-0.061,0.342-0.127,0.492-0.201c0.151-0.074,0.297-0.156,0.436-0.248c0.14-0.092,0.275-0.191,0.406-0.299
		c0.132-0.107,0.266-0.225,0.4-0.35H848.154z"/>
	<path d="M849.689,91.195v-0.449c0.389,0.213,0.773,0.32,1.156,0.32c0.495,0,0.882-0.137,1.16-0.408
		c0.279-0.271,0.418-0.635,0.418-1.088c0-0.984-0.561-1.477-1.684-1.477c-0.252,0-0.543,0.018-0.871,0.051l0.184-2.879h2.516v0.355
		h-2.172l-0.137,2.152c0.289-0.023,0.496-0.035,0.621-0.035c0.641,0,1.125,0.156,1.453,0.471s0.492,0.75,0.492,1.311
		c0,0.564-0.174,1.023-0.523,1.375c-0.349,0.352-0.846,0.527-1.492,0.527C850.387,91.422,850.013,91.346,849.689,91.195z"/>
</g>
<g>
	<path d="M863.738,85.133v6.184h-0.387v-5.574c-0.195,0.188-0.418,0.348-0.666,0.482c-0.249,0.135-0.521,0.254-0.814,0.357V86.23
		c0.177-0.061,0.341-0.127,0.492-0.201c0.15-0.074,0.296-0.156,0.436-0.248c0.139-0.092,0.274-0.191,0.406-0.299
		c0.131-0.107,0.265-0.225,0.4-0.35H863.738z"/>
	<path d="M868.348,85.313v0.414c-0.287-0.139-0.584-0.207-0.891-0.207c-0.3,0-0.569,0.074-0.809,0.221
		c-0.24,0.146-0.444,0.355-0.613,0.623c-0.17,0.268-0.299,0.588-0.389,0.957s-0.135,0.777-0.135,1.223h0.02
		c0.294-0.674,0.798-1.012,1.512-1.012c0.247,0,0.473,0.049,0.676,0.145s0.377,0.229,0.521,0.396s0.256,0.365,0.336,0.592
		c0.079,0.227,0.119,0.471,0.119,0.734c0,0.291-0.045,0.561-0.133,0.809c-0.089,0.248-0.213,0.461-0.373,0.641
		s-0.352,0.32-0.572,0.422c-0.222,0.102-0.465,0.152-0.73,0.152c-0.276,0-0.524-0.061-0.744-0.18
		c-0.221-0.119-0.406-0.295-0.559-0.527s-0.269-0.52-0.348-0.865c-0.08-0.346-0.119-0.74-0.119-1.186
		c0-0.529,0.052-1.008,0.156-1.439c0.104-0.432,0.256-0.799,0.457-1.104c0.2-0.305,0.446-0.541,0.738-0.707
		c0.291-0.166,0.623-0.25,0.996-0.25C867.798,85.164,868.092,85.213,868.348,85.313z M866.957,87.887
		c-0.201,0-0.387,0.041-0.557,0.125c-0.171,0.084-0.318,0.193-0.441,0.328c-0.124,0.135-0.221,0.291-0.291,0.465
		s-0.105,0.352-0.105,0.531c0,0.232,0.032,0.453,0.098,0.662c0.064,0.209,0.156,0.393,0.275,0.551
		c0.118,0.158,0.261,0.283,0.428,0.377c0.166,0.094,0.353,0.141,0.559,0.141c0.195,0,0.376-0.039,0.543-0.119
		c0.166-0.08,0.311-0.189,0.432-0.332s0.216-0.311,0.285-0.504c0.068-0.193,0.104-0.406,0.104-0.635
		c0-0.236-0.031-0.453-0.092-0.648c-0.062-0.195-0.149-0.363-0.264-0.502c-0.115-0.139-0.254-0.248-0.418-0.324
		S867.162,87.887,866.957,87.887z"/>
</g>
<g>
	<path d="M509.619,88.648h-0.261l-1.008-3.414c-0.051-0.176-0.079-0.318-0.085-0.428h-0.015c-0.006,0.092-0.038,0.232-0.097,0.422
		l-1.075,3.42h-0.261l-1.348-4.539h0.352l1.034,3.637c0.047,0.164,0.08,0.297,0.1,0.4h0.012c0.012-0.078,0.049-0.211,0.111-0.4
		l1.119-3.637h0.158l1.028,3.637c0.049,0.17,0.082,0.303,0.1,0.4h0.012c0.01-0.059,0.026-0.125,0.05-0.201l1.063-3.836h0.34
		L509.619,88.648z"/>
	<path d="M513.559,88.727c-0.641,0-1.151-0.213-1.532-0.639s-0.571-0.979-0.571-1.66c0-0.725,0.195-1.305,0.586-1.74
		s0.925-0.654,1.603-0.654c0.611,0,1.106,0.211,1.485,0.629c0.379,0.42,0.568,0.969,0.568,1.648c0,0.75-0.194,1.34-0.582,1.771
		C514.729,88.512,514.209,88.727,513.559,88.727z M513.591,84.32c-0.527,0-0.961,0.191-1.302,0.574
		c-0.341,0.381-0.511,0.881-0.511,1.498c0,0.625,0.161,1.123,0.483,1.492c0.322,0.371,0.753,0.555,1.292,0.555
		c0.561,0,1.004-0.182,1.332-0.549c0.327-0.365,0.491-0.877,0.491-1.531c0-0.641-0.16-1.141-0.479-1.5S514.142,84.32,513.591,84.32z
		"/>
	<path d="M518.947,88.648l-0.604-1.33c-0.125-0.273-0.25-0.457-0.374-0.551s-0.28-0.141-0.467-0.141h-0.563v2.021h-0.313v-4.539
		h1.26c0.4,0,0.715,0.109,0.943,0.326s0.343,0.502,0.343,0.855c0,0.328-0.094,0.602-0.281,0.82s-0.45,0.359-0.788,0.424v0.012
		c0.18,0.072,0.354,0.291,0.524,0.654l0.674,1.447H518.947z M516.94,84.4v1.941h0.779c0.348,0,0.623-0.09,0.826-0.271
		s0.305-0.432,0.305-0.748c0-0.289-0.092-0.514-0.275-0.678c-0.184-0.162-0.446-0.244-0.788-0.244H516.94z"/>
	<path d="M522.559,88.648l-1.934-2.172c-0.035-0.039-0.061-0.074-0.076-0.105h-0.012v2.277h-0.313v-4.539h0.313v2.139h0.012
		c0.025-0.043,0.053-0.078,0.082-0.107l1.834-2.031h0.41l-1.992,2.201l2.115,2.338H522.559z"/>
</g>
<g>
	<path d="M509.455,58.844v-4.538h0.313v4.538H509.455z"/>
	<path d="M510.931,58.844v-4.538h2.118v0.29h-1.805v1.819h1.676V56.7h-1.676v1.86h1.91v0.284H510.931z"/>
	<path d="M514.048,57.089v-0.287h1.729v0.287H514.048z"/>
	<path d="M516.53,58.683v-0.331c0.346,0.203,0.672,0.305,0.979,0.305c0.365,0,0.651-0.093,0.857-0.279s0.309-0.431,0.309-0.731
		c0-0.336-0.119-0.59-0.356-0.763s-0.575-0.26-1.012-0.26h-0.349v-0.267h0.311c0.404,0,0.712-0.086,0.924-0.258
		s0.318-0.415,0.318-0.729c0-0.271-0.077-0.484-0.23-0.64s-0.378-0.233-0.675-0.233c-0.283,0-0.581,0.1-0.894,0.299v-0.311
		c0.342-0.17,0.655-0.255,0.94-0.255c0.357,0,0.641,0.098,0.851,0.292s0.315,0.451,0.315,0.771c0,0.615-0.294,1.006-0.882,1.172
		v0.012c0.316,0.031,0.569,0.149,0.759,0.354s0.284,0.461,0.284,0.771c0,0.396-0.137,0.716-0.412,0.958s-0.629,0.363-1.065,0.363
		C517.165,58.923,516.84,58.843,516.53,58.683z"/>
</g>
<g>
	<path d="M503.645,51.017V50.66c0.324,0.207,0.653,0.311,0.987,0.311c0.355,0,0.625-0.073,0.807-0.22s0.274-0.352,0.274-0.615
		c0-0.232-0.062-0.418-0.185-0.557s-0.391-0.327-0.803-0.565c-0.459-0.268-0.75-0.491-0.872-0.672s-0.183-0.39-0.183-0.626
		c0-0.32,0.125-0.592,0.374-0.815s0.581-0.336,0.995-0.336c0.271,0,0.542,0.046,0.812,0.138v0.328
		c-0.266-0.119-0.55-0.179-0.853-0.179c-0.307,0-0.55,0.078-0.731,0.233s-0.271,0.354-0.271,0.596c0,0.23,0.062,0.415,0.185,0.553
		s0.39,0.324,0.8,0.561c0.424,0.24,0.706,0.454,0.847,0.641s0.211,0.4,0.211,0.643c0,0.348-0.121,0.632-0.363,0.852
		s-0.583,0.329-1.022,0.329c-0.156,0-0.336-0.024-0.541-0.073S503.752,51.08,503.645,51.017z"/>
	<path d="M508.318,49.453v1.726h-0.311v-1.717l-1.389-2.821h0.352l1.055,2.188c0.039,0.074,0.087,0.186,0.144,0.334h0.012
		c0.031-0.078,0.083-0.188,0.155-0.328l1.107-2.194h0.34L508.318,49.453z"/>
	<path d="M510.506,51.178V46.64h0.313v4.254h1.819v0.284H510.506z"/>
	<path d="M515.006,51.257c-0.641,0-1.151-0.213-1.532-0.639s-0.571-0.979-0.571-1.661c0-0.725,0.195-1.305,0.586-1.74
		s0.925-0.653,1.603-0.653c0.611,0,1.106,0.21,1.485,0.629s0.568,0.968,0.568,1.647c0,0.75-0.194,1.341-0.582,1.771
		S515.657,51.257,515.006,51.257z M515.039,46.851c-0.527,0-0.961,0.191-1.302,0.573s-0.511,0.881-0.511,1.498
		c0,0.625,0.161,1.123,0.483,1.493s0.753,0.555,1.292,0.555c0.561,0,1.004-0.183,1.332-0.549s0.491-0.877,0.491-1.531
		c0-0.641-0.16-1.141-0.479-1.5S515.589,46.851,515.039,46.851z"/>
	<path d="M517.93,51.017V50.66c0.324,0.207,0.653,0.311,0.987,0.311c0.355,0,0.625-0.073,0.807-0.22s0.274-0.352,0.274-0.615
		c0-0.232-0.062-0.418-0.185-0.557s-0.391-0.327-0.803-0.565c-0.459-0.268-0.75-0.491-0.872-0.672s-0.183-0.39-0.183-0.626
		c0-0.32,0.125-0.592,0.374-0.815s0.581-0.336,0.995-0.336c0.271,0,0.542,0.046,0.812,0.138v0.328
		c-0.266-0.119-0.55-0.179-0.853-0.179c-0.307,0-0.55,0.078-0.731,0.233s-0.271,0.354-0.271,0.596c0,0.23,0.062,0.415,0.185,0.553
		s0.39,0.324,0.8,0.561c0.424,0.24,0.706,0.454,0.847,0.641s0.211,0.4,0.211,0.643c0,0.348-0.121,0.632-0.363,0.852
		s-0.583,0.329-1.022,0.329c-0.156,0-0.336-0.024-0.541-0.073S518.038,51.08,517.93,51.017z"/>
</g>
<g>
	<path d="M517.988,39.69c-0.641,0-1.151-0.213-1.532-0.639s-0.571-0.979-0.571-1.661c0-0.725,0.195-1.305,0.586-1.74
		s0.925-0.653,1.603-0.653c0.611,0,1.106,0.21,1.485,0.629s0.568,0.968,0.568,1.647c0,0.75-0.194,1.341-0.582,1.771
		S518.638,39.69,517.988,39.69z M518.02,35.284c-0.527,0-0.961,0.191-1.302,0.573s-0.511,0.881-0.511,1.498
		c0,0.625,0.161,1.123,0.483,1.493s0.753,0.555,1.292,0.555c0.561,0,1.004-0.183,1.332-0.549s0.491-0.877,0.491-1.531
		c0-0.641-0.16-1.141-0.479-1.5S518.571,35.284,518.02,35.284z"/>
	<path d="M521.369,37.792v1.819h-0.313v-4.538h1.093c0.467,0,0.824,0.108,1.071,0.325s0.371,0.532,0.371,0.946
		c0,0.422-0.138,0.769-0.413,1.04s-0.661,0.407-1.157,0.407H521.369z M521.369,35.363v2.142h0.645c0.408,0,0.719-0.098,0.933-0.293
		s0.321-0.472,0.321-0.829c0-0.68-0.392-1.02-1.175-1.02H521.369z"/>
	<path d="M525.81,35.363v4.248H525.5v-4.248h-1.31v-0.29h2.93v0.29H525.81z"/>
</g>
<g>
	<path d="M523.33,58.844v-4.538h0.313v4.538H523.33z"/>
	<path d="M524.806,58.844v-4.538h2.118v0.29h-1.805v1.819h1.676V56.7h-1.676v1.86h1.91v0.284H524.806z"/>
	<path d="M527.923,57.089v-0.287h1.729v0.287H527.923z"/>
	<path d="M532.854,54.341v0.311c-0.215-0.104-0.438-0.155-0.668-0.155c-0.225,0-0.427,0.056-0.606,0.166s-0.333,0.266-0.46,0.467
		s-0.224,0.44-0.292,0.718s-0.101,0.583-0.101,0.917h0.015c0.221-0.506,0.599-0.759,1.134-0.759c0.186,0,0.354,0.036,0.507,0.108
		s0.283,0.172,0.391,0.298s0.192,0.273,0.252,0.443s0.089,0.354,0.089,0.551c0,0.219-0.033,0.421-0.1,0.606s-0.16,0.346-0.28,0.48
		s-0.263,0.24-0.429,0.316s-0.349,0.114-0.548,0.114c-0.207,0-0.393-0.045-0.558-0.135s-0.305-0.222-0.419-0.396
		s-0.201-0.39-0.261-0.648s-0.089-0.556-0.089-0.89c0-0.396,0.039-0.756,0.117-1.079s0.192-0.6,0.343-0.828s0.335-0.405,0.554-0.53
		s0.468-0.188,0.747-0.188C532.442,54.23,532.663,54.267,532.854,54.341z M531.811,56.272c-0.15,0-0.29,0.031-0.417,0.094
		s-0.238,0.145-0.331,0.246s-0.166,0.218-0.218,0.349s-0.079,0.264-0.079,0.398c0,0.174,0.024,0.34,0.073,0.497
		s0.118,0.295,0.207,0.413s0.196,0.212,0.321,0.282s0.265,0.105,0.419,0.105c0.146,0,0.282-0.029,0.407-0.089
		s0.233-0.143,0.324-0.249s0.162-0.232,0.214-0.378s0.078-0.305,0.078-0.477c0-0.178-0.023-0.34-0.069-0.486
		s-0.112-0.271-0.198-0.376s-0.19-0.186-0.313-0.243S531.965,56.272,531.811,56.272z"/>
</g>
<g>
	<path d="M528.254,88.648l-0.604-1.33c-0.125-0.273-0.25-0.457-0.374-0.551s-0.28-0.141-0.467-0.141h-0.563v2.021h-0.313v-4.539
		h1.26c0.4,0,0.715,0.109,0.943,0.326s0.343,0.502,0.343,0.855c0,0.328-0.094,0.602-0.281,0.82s-0.45,0.359-0.788,0.424v0.012
		c0.18,0.072,0.354,0.291,0.524,0.654l0.674,1.447H528.254z M526.248,84.4v1.941h0.779c0.348,0,0.623-0.09,0.826-0.271
		s0.305-0.432,0.305-0.748c0-0.289-0.092-0.514-0.275-0.678c-0.184-0.162-0.446-0.244-0.788-0.244H526.248z"/>
	<path d="M532.485,88.648l-0.519-1.412H530l-0.521,1.412h-0.343l1.711-4.539h0.299l1.69,4.539H532.485z M531.093,84.852
		c-0.023-0.063-0.042-0.125-0.056-0.188c-0.016-0.053-0.031-0.105-0.047-0.158h-0.015c-0.035,0.141-0.069,0.254-0.103,0.34
		l-0.765,2.104h1.752L531.093,84.852z"/>
</g>
<g>
	<path d="M172.778,70.928v-6.051h1.512c1.005,0,1.77,0.25,2.293,0.752s0.785,1.23,0.785,2.189c0,0.922-0.281,1.67-0.842,2.246
		s-1.335,0.863-2.322,0.863H172.778z M173.196,65.264v5.285h0.949c0.896,0,1.584-0.232,2.066-0.699s0.723-1.139,0.723-2.016
		c0-1.713-0.902-2.57-2.707-2.57H173.196z"/>
	<path d="M182.618,70.729c-0.49,0.203-1,0.305-1.531,0.305c-0.828,0-1.502-0.277-2.023-0.834s-0.781-1.281-0.781-2.174
		c0-0.982,0.283-1.77,0.848-2.361s1.284-0.889,2.156-0.889c0.463,0,0.908,0.076,1.332,0.227v0.441
		c-0.424-0.189-0.871-0.285-1.34-0.285c-0.76,0-1.378,0.258-1.854,0.771s-0.713,1.199-0.713,2.053c0,0.826,0.227,1.477,0.682,1.953
		s1.031,0.715,1.729,0.715c0.555,0,1.053-0.107,1.496-0.324V70.729z"/>
</g>
<g>
	<path d="M259.381,70.928l-0.691-1.883h-2.621l-0.695,1.883h-0.457l2.281-6.051h0.398l2.254,6.051H259.381z M257.526,65.865
		c-0.031-0.084-0.056-0.166-0.074-0.25c-0.021-0.07-0.042-0.141-0.063-0.211h-0.02c-0.047,0.188-0.092,0.338-0.137,0.453
		l-1.02,2.805h2.336L257.526,65.865z"/>
	<path d="M264.725,70.729c-0.49,0.203-1,0.305-1.531,0.305c-0.828,0-1.502-0.277-2.023-0.834s-0.781-1.281-0.781-2.174
		c0-0.982,0.283-1.77,0.848-2.361s1.284-0.889,2.156-0.889c0.463,0,0.908,0.076,1.332,0.227v0.441
		c-0.424-0.189-0.871-0.285-1.34-0.285c-0.76,0-1.378,0.258-1.854,0.771s-0.713,1.199-0.713,2.053c0,0.826,0.227,1.477,0.682,1.953
		s1.031,0.715,1.729,0.715c0.555,0,1.053-0.107,1.496-0.324V70.729z"/>
</g>
<g>
	<path d="M274.029,52.668v2.426h-0.418v-6.051h1.457c0.623,0,1.098,0.145,1.428,0.434s0.494,0.71,0.494,1.262
		c0,0.563-0.184,1.025-0.551,1.387c-0.367,0.362-0.881,0.543-1.543,0.543H274.029z M274.029,49.43v2.855h0.859
		c0.544,0,0.959-0.13,1.244-0.391c0.285-0.26,0.428-0.629,0.428-1.105c0-0.906-0.522-1.359-1.566-1.359H274.029z"/>
	<path d="M280.798,55.2c-0.854,0-1.535-0.283-2.043-0.852c-0.508-0.567-0.762-1.306-0.762-2.215c0-0.966,0.26-1.739,0.781-2.32
		c0.521-0.58,1.233-0.871,2.137-0.871c0.815,0,1.475,0.279,1.98,0.838s0.758,1.291,0.758,2.197c0,1-0.258,1.787-0.775,2.361
		S281.666,55.2,280.798,55.2z M280.841,49.325c-0.703,0-1.282,0.255-1.736,0.764c-0.455,0.51-0.682,1.176-0.682,1.998
		c0,0.834,0.215,1.497,0.645,1.99c0.43,0.494,1.004,0.74,1.723,0.74c0.748,0,1.339-0.244,1.775-0.732s0.654-1.168,0.654-2.041
		c0-0.854-0.213-1.521-0.639-2C282.156,49.565,281.576,49.325,280.841,49.325z"/>
	<path d="M289.857,55.094h-0.348l-1.344-4.551c-0.068-0.234-0.105-0.424-0.113-0.57h-0.02c-0.008,0.123-0.051,0.311-0.129,0.563
		l-1.434,4.559h-0.348l-1.797-6.051h0.469l1.379,4.848c0.063,0.219,0.107,0.397,0.133,0.535h0.016
		c0.016-0.104,0.065-0.282,0.148-0.535l1.492-4.848h0.211l1.371,4.848c0.065,0.227,0.109,0.405,0.133,0.535h0.016
		c0.013-0.078,0.035-0.168,0.066-0.27l1.418-5.113h0.453L289.857,55.094z"/>
	<path d="M292.623,55.094v-6.051h2.824v0.387h-2.406v2.426h2.234v0.379h-2.234v2.48h2.547v0.379H292.623z"/>
	<path d="M300.037,55.094l-0.805-1.773c-0.167-0.364-0.333-0.609-0.498-0.734s-0.373-0.188-0.623-0.188h-0.75v2.695h-0.418v-6.051
		h1.68c0.534,0,0.953,0.145,1.258,0.434s0.457,0.67,0.457,1.141c0,0.438-0.125,0.803-0.375,1.094c-0.25,0.292-0.6,0.48-1.051,0.566
		v0.016c0.24,0.097,0.473,0.387,0.699,0.871l0.898,1.93H300.037z M297.361,49.43v2.59h1.039c0.463,0,0.831-0.121,1.102-0.363
		s0.406-0.574,0.406-0.996c0-0.385-0.123-0.687-0.367-0.904c-0.245-0.217-0.595-0.326-1.051-0.326H297.361z"/>
</g>
<g>
	<path d="M445.506,58.629v-0.477c0.432,0.276,0.871,0.414,1.316,0.414c0.474,0,0.833-0.098,1.076-0.293s0.365-0.469,0.365-0.82
		c0-0.31-0.082-0.557-0.246-0.742c-0.164-0.185-0.521-0.436-1.07-0.754c-0.612-0.356-1-0.655-1.162-0.896
		c-0.163-0.24-0.244-0.519-0.244-0.834c0-0.427,0.166-0.789,0.498-1.088c0.332-0.298,0.774-0.447,1.326-0.447
		c0.362,0,0.723,0.062,1.082,0.184v0.438c-0.354-0.158-0.733-0.238-1.137-0.238c-0.409,0-0.734,0.104-0.975,0.311
		s-0.361,0.473-0.361,0.795c0,0.308,0.082,0.553,0.246,0.736s0.52,0.434,1.066,0.748c0.565,0.32,0.941,0.605,1.129,0.854
		c0.188,0.249,0.281,0.535,0.281,0.857c0,0.464-0.162,0.842-0.484,1.135s-0.777,0.439-1.363,0.439c-0.208,0-0.449-0.032-0.721-0.098
		C445.857,58.788,445.649,58.713,445.506,58.629z"/>
	<path d="M451.631,53.18v5.664h-0.414V53.18h-1.746v-0.387h3.906v0.387H451.631z"/>
	<path d="M457.362,58.844l-0.691-1.883h-2.621l-0.695,1.883h-0.457l2.281-6.051h0.398l2.254,6.051H457.362z M455.506,53.782
		c-0.031-0.083-0.056-0.166-0.074-0.25c-0.021-0.07-0.042-0.141-0.063-0.211h-0.02c-0.047,0.188-0.092,0.339-0.137,0.453
		l-1.02,2.805h2.336L455.506,53.782z"/>
</g>
<g>
	<path d="M447.042,90.381l-0.805-1.773c-0.167-0.365-0.333-0.609-0.498-0.734s-0.373-0.188-0.623-0.188h-0.75v2.695h-0.418V84.33
		h1.68c0.534,0,0.953,0.145,1.258,0.434s0.457,0.67,0.457,1.141c0,0.438-0.125,0.803-0.375,1.094s-0.6,0.48-1.051,0.566v0.016
		c0.24,0.096,0.473,0.387,0.699,0.871l0.898,1.93H447.042z M444.366,84.717v2.59h1.039c0.463,0,0.831-0.121,1.102-0.363
		s0.406-0.574,0.406-0.996c0-0.385-0.123-0.688-0.367-0.904s-0.595-0.326-1.051-0.326H444.366z"/>
	<path d="M452.866,87.963c0,1.682-0.717,2.523-2.152,2.523c-1.365,0-2.047-0.811-2.047-2.43V84.33h0.414v3.668
		c0,1.404,0.572,2.105,1.715,2.105c1.104,0,1.656-0.682,1.656-2.047V84.33h0.414V87.963z"/>
	<path d="M458.62,90.381l-3.602-4.891c-0.076-0.1-0.141-0.197-0.195-0.293l-0.055-0.086h-0.02c0.008,0.072,0.012,0.162,0.012,0.266
		v5.004h-0.418V84.33h0.32l3.578,4.848c0.078,0.107,0.164,0.236,0.258,0.391h0.02c-0.013-0.197-0.02-0.367-0.02-0.508v-4.73h0.414
		v6.051H458.62z"/>
</g>
<g opacity="0.5">
	<circle cx="335.016" cy="90.828" r="2.417"/>
</g>
<g>
	<circle cx="335.016" cy="90.381" r="2.417"/>
</g>
<g>
	<circle fill="#FFFFCE" cx="286.182" cy="60.457" r="2.917"/>
	<path fill="#141414" d="M286.182,63.498c-1.677,0-3.042-1.364-3.042-3.041s1.365-3.041,3.042-3.041
		c1.677,0,3.041,1.364,3.041,3.041S287.859,63.498,286.182,63.498z M286.182,57.666c-1.54,0-2.792,1.252-2.792,2.791
		s1.252,2.791,2.792,2.791c1.539,0,2.791-1.252,2.791-2.791S287.721,57.666,286.182,57.666z"/>
</g>
<g>
	<circle fill="#A39952" cx="451.385" cy="66.063" r="2.917"/>
	<path fill="#141414" d="M451.385,69.104c-1.677,0-3.042-1.365-3.042-3.041c0-1.677,1.365-3.042,3.042-3.042
		c1.677,0,3.041,1.364,3.041,3.042C454.426,67.738,453.062,69.104,451.385,69.104z M451.385,63.271c-1.54,0-2.792,1.252-2.792,2.792
		c0,1.539,1.252,2.791,2.792,2.791c1.539,0,2.791-1.252,2.791-2.791C454.176,64.523,452.924,63.271,451.385,63.271z"/>
</g>
<g>
	<circle fill="#5F8931" cx="451.385" cy="76.525" r="2.917"/>
	<path fill="#141414" d="M451.385,79.566c-1.677,0-3.042-1.363-3.042-3.041c0-1.676,1.365-3.041,3.042-3.041
		c1.677,0,3.041,1.365,3.041,3.041C454.426,78.203,453.062,79.566,451.385,79.566z M451.385,73.734c-1.54,0-2.792,1.252-2.792,2.791
		s1.252,2.791,2.792,2.791c1.539,0,2.791-1.252,2.791-2.791S452.924,73.734,451.385,73.734z"/>
</g>
<g>
	<circle fill="#AA393F" cx="514.635" cy="66.063" r="2.917"/>
	<path fill="#141414" d="M514.635,69.104c-1.677,0-3.042-1.365-3.042-3.041c0-1.677,1.365-3.042,3.042-3.042
		c1.677,0,3.041,1.364,3.041,3.042C517.676,67.738,516.312,69.104,514.635,69.104z M514.635,63.271c-1.54,0-2.792,1.252-2.792,2.792
		c0,1.539,1.252,2.791,2.792,2.791c1.539,0,2.791-1.252,2.791-2.791C517.426,64.523,516.174,63.271,514.635,63.271z"/>
</g>
<g>
	<circle fill="#AA393F" cx="634.729" cy="66.063" r="2.917"/>
	<path fill="#141414" d="M634.728,69.104c-1.677,0-3.041-1.365-3.041-3.041c0-1.677,1.364-3.042,3.041-3.042
		c1.677,0,3.042,1.364,3.042,3.042C637.77,67.738,636.405,69.104,634.728,69.104z M634.728,63.271c-1.539,0-2.791,1.252-2.791,2.792
		c0,1.539,1.252,2.791,2.791,2.791c1.54,0,2.792-1.252,2.792-2.791C637.52,64.523,636.268,63.271,634.728,63.271z"/>
</g>
<g>
	<circle fill="#AA393F" cx="634.729" cy="76.525" r="2.917"/>
	<path fill="#141414" d="M634.728,79.566c-1.677,0-3.041-1.363-3.041-3.041c0-1.676,1.364-3.041,3.041-3.041
		c1.677,0,3.042,1.365,3.042,3.041C637.77,78.203,636.405,79.566,634.728,79.566z M634.728,73.734c-1.539,0-2.791,1.252-2.791,2.791
		s1.252,2.791,2.791,2.791c1.54,0,2.792-1.252,2.792-2.791S636.268,73.734,634.728,73.734z"/>
</g>
<g>
	<circle fill="#AA393F" cx="649.395" cy="66.063" r="2.916"/>
	<path fill="#141414" d="M649.395,69.104c-1.677,0-3.041-1.365-3.041-3.041c0-1.677,1.364-3.042,3.041-3.042
		c1.678,0,3.041,1.364,3.041,3.042C652.436,67.738,651.072,69.104,649.395,69.104z M649.395,63.271
		c-1.539,0-2.791,1.252-2.791,2.792c0,1.539,1.252,2.791,2.791,2.791s2.791-1.252,2.791-2.791
		C652.186,64.523,650.934,63.271,649.395,63.271z"/>
</g>
<g>
	<circle fill="#AA393F" cx="649.395" cy="76.525" r="2.916"/>
	<path fill="#141414" d="M649.395,79.566c-1.677,0-3.041-1.363-3.041-3.041c0-1.676,1.364-3.041,3.041-3.041
		c1.678,0,3.041,1.365,3.041,3.041C652.436,78.203,651.072,79.566,649.395,79.566z M649.395,73.734
		c-1.539,0-2.791,1.252-2.791,2.791s1.252,2.791,2.791,2.791s2.791-1.252,2.791-2.791S650.934,73.734,649.395,73.734z"/>
</g>
<g>
	<circle fill="#FFF3F5" cx="664.062" cy="76.525" r="2.917"/>
	<path fill="#FFB1C0" d="M664.061,79.566c-1.676,0-3.041-1.363-3.041-3.041c0-1.676,1.365-3.041,3.041-3.041
		c1.678,0,3.043,1.365,3.043,3.041C667.104,78.203,665.738,79.566,664.061,79.566z M664.061,73.734
		c-1.539,0-2.791,1.252-2.791,2.791s1.252,2.791,2.791,2.791c1.54,0,2.793-1.252,2.793-2.791S665.601,73.734,664.061,73.734z"/>
</g>
<g>
	<circle fill="#FFF3F5" cx="664.062" cy="66.063" r="2.917"/>
	<path fill="#FFB1C0" d="M664.061,69.104c-1.676,0-3.041-1.365-3.041-3.041c0-1.677,1.365-3.042,3.041-3.042
		c1.678,0,3.043,1.364,3.043,3.042C667.104,67.738,665.738,69.104,664.061,69.104z M664.061,63.271
		c-1.539,0-2.791,1.252-2.791,2.792c0,1.539,1.252,2.791,2.791,2.791c1.54,0,2.793-1.252,2.793-2.791
		C666.854,64.523,665.601,63.271,664.061,63.271z"/>
</g>
<g>
	<circle fill="#FFF3F5" cx="679.562" cy="76.525" r="2.917"/>
	<path fill="#FFB1C0" d="M679.561,79.566c-1.676,0-3.041-1.363-3.041-3.041c0-1.676,1.365-3.041,3.041-3.041
		c1.678,0,3.043,1.365,3.043,3.041C682.604,78.203,681.238,79.566,679.561,79.566z M679.561,73.734
		c-1.539,0-2.791,1.252-2.791,2.791s1.252,2.791,2.791,2.791c1.54,0,2.793-1.252,2.793-2.791S681.101,73.734,679.561,73.734z"/>
</g>
<g>
	<circle fill="#FFF3F5" cx="679.562" cy="66.063" r="2.917"/>
	<path fill="#FFB1C0" d="M679.561,69.104c-1.676,0-3.041-1.365-3.041-3.041c0-1.677,1.365-3.042,3.041-3.042
		c1.678,0,3.043,1.364,3.043,3.042C682.604,67.738,681.238,69.104,679.561,69.104z M679.561,63.271
		c-1.539,0-2.791,1.252-2.791,2.792c0,1.539,1.252,2.791,2.791,2.791c1.54,0,2.793-1.252,2.793-2.791
		C682.354,64.523,681.101,63.271,679.561,63.271z"/>
</g>
<g>
	<circle fill="#FFF3F5" cx="695.062" cy="76.525" r="2.917"/>
	<path fill="#FFB1C0" d="M695.061,79.566c-1.676,0-3.041-1.363-3.041-3.041c0-1.676,1.365-3.041,3.041-3.041
		c1.678,0,3.043,1.365,3.043,3.041C698.104,78.203,696.738,79.566,695.061,79.566z M695.061,73.734
		c-1.539,0-2.791,1.252-2.791,2.791s1.252,2.791,2.791,2.791c1.54,0,2.793-1.252,2.793-2.791S696.601,73.734,695.061,73.734z"/>
</g>
<g>
	<circle fill="#FFF3F5" cx="695.062" cy="66.063" r="2.917"/>
	<path fill="#FFB1C0" d="M695.061,69.104c-1.676,0-3.041-1.365-3.041-3.041c0-1.677,1.365-3.042,3.041-3.042
		c1.678,0,3.043,1.364,3.043,3.042C698.104,67.738,696.738,69.104,695.061,69.104z M695.061,63.271
		c-1.539,0-2.791,1.252-2.791,2.792c0,1.539,1.252,2.791,2.791,2.791c1.54,0,2.793-1.252,2.793-2.791
		C697.854,64.523,696.601,63.271,695.061,63.271z"/>
</g>
<g>
	<circle fill="#FFF3F5" cx="710.562" cy="76.525" r="2.917"/>
	<path fill="#FFB1C0" d="M710.561,79.566c-1.676,0-3.041-1.363-3.041-3.041c0-1.676,1.365-3.041,3.041-3.041
		c1.678,0,3.043,1.365,3.043,3.041C713.604,78.203,712.238,79.566,710.561,79.566z M710.561,73.734
		c-1.539,0-2.791,1.252-2.791,2.791s1.252,2.791,2.791,2.791c1.54,0,2.793-1.252,2.793-2.791S712.101,73.734,710.561,73.734z"/>
</g>
<g>
	<circle fill="#FFF3F5" cx="710.562" cy="66.063" r="2.917"/>
	<path fill="#FFB1C0" d="M710.561,69.104c-1.676,0-3.041-1.365-3.041-3.041c0-1.677,1.365-3.042,3.041-3.042
		c1.678,0,3.043,1.364,3.043,3.042C713.604,67.738,712.238,69.104,710.561,69.104z M710.561,63.271
		c-1.539,0-2.791,1.252-2.791,2.792c0,1.539,1.252,2.791,2.791,2.791c1.54,0,2.793-1.252,2.793-2.791
		C713.354,64.523,712.101,63.271,710.561,63.271z"/>
</g>
<g>
	<circle fill="#FFF3F5" cx="726.062" cy="76.525" r="2.917"/>
	<path fill="#FFB1C0" d="M726.061,79.566c-1.676,0-3.041-1.363-3.041-3.041c0-1.676,1.365-3.041,3.041-3.041
		c1.678,0,3.043,1.365,3.043,3.041C729.104,78.203,727.738,79.566,726.061,79.566z M726.061,73.734
		c-1.539,0-2.791,1.252-2.791,2.791s1.252,2.791,2.791,2.791c1.54,0,2.793-1.252,2.793-2.791S727.601,73.734,726.061,73.734z"/>
</g>
<g>
	<circle fill="#FFF3F5" cx="726.062" cy="66.063" r="2.917"/>
	<path fill="#FFB1C0" d="M726.061,69.104c-1.676,0-3.041-1.365-3.041-3.041c0-1.677,1.365-3.042,3.041-3.042
		c1.678,0,3.043,1.364,3.043,3.042C729.104,67.738,727.738,69.104,726.061,69.104z M726.061,63.271
		c-1.539,0-2.791,1.252-2.791,2.792c0,1.539,1.252,2.791,2.791,2.791c1.54,0,2.793-1.252,2.793-2.791
		C728.854,64.523,727.601,63.271,726.061,63.271z"/>
</g>
<g>
	<circle fill="#FFF3F5" cx="741.562" cy="76.525" r="2.917"/>
	<path fill="#FFB1C0" d="M741.561,79.566c-1.676,0-3.041-1.363-3.041-3.041c0-1.676,1.365-3.041,3.041-3.041
		c1.678,0,3.043,1.365,3.043,3.041C744.604,78.203,743.238,79.566,741.561,79.566z M741.561,73.734
		c-1.539,0-2.791,1.252-2.791,2.791s1.252,2.791,2.791,2.791c1.54,0,2.793-1.252,2.793-2.791S743.101,73.734,741.561,73.734z"/>
</g>
<g>
	<circle fill="#FFF3F5" cx="741.562" cy="66.063" r="2.917"/>
	<path fill="#FFB1C0" d="M741.561,69.104c-1.676,0-3.041-1.365-3.041-3.041c0-1.677,1.365-3.042,3.041-3.042
		c1.678,0,3.043,1.364,3.043,3.042C744.604,67.738,743.238,69.104,741.561,69.104z M741.561,63.271
		c-1.539,0-2.791,1.252-2.791,2.792c0,1.539,1.252,2.791,2.791,2.791c1.54,0,2.793-1.252,2.793-2.791
		C744.354,64.523,743.101,63.271,741.561,63.271z"/>
</g>
<g>
	<circle fill="#FFF3F5" cx="757.062" cy="76.525" r="2.917"/>
	<path fill="#FFB1C0" d="M757.061,79.566c-1.676,0-3.041-1.363-3.041-3.041c0-1.676,1.365-3.041,3.041-3.041
		c1.678,0,3.043,1.365,3.043,3.041C760.104,78.203,758.738,79.566,757.061,79.566z M757.061,73.734
		c-1.539,0-2.791,1.252-2.791,2.791s1.252,2.791,2.791,2.791c1.54,0,2.793-1.252,2.793-2.791S758.601,73.734,757.061,73.734z"/>
</g>
<g>
	<circle fill="#FFF3F5" cx="757.062" cy="66.063" r="2.917"/>
	<path fill="#FFB1C0" d="M757.061,69.104c-1.676,0-3.041-1.365-3.041-3.041c0-1.677,1.365-3.042,3.041-3.042
		c1.678,0,3.043,1.364,3.043,3.042C760.104,67.738,758.738,69.104,757.061,69.104z M757.061,63.271
		c-1.539,0-2.791,1.252-2.791,2.792c0,1.539,1.252,2.791,2.791,2.791c1.54,0,2.793-1.252,2.793-2.791
		C759.854,64.523,758.601,63.271,757.061,63.271z"/>
</g>
<g>
	<circle fill="#FFF3F5" cx="772.562" cy="76.525" r="2.917"/>
	<path fill="#FFB1C0" d="M772.561,79.566c-1.676,0-3.041-1.363-3.041-3.041c0-1.676,1.365-3.041,3.041-3.041
		c1.678,0,3.043,1.365,3.043,3.041C775.604,78.203,774.238,79.566,772.561,79.566z M772.561,73.734
		c-1.539,0-2.791,1.252-2.791,2.791s1.252,2.791,2.791,2.791c1.54,0,2.793-1.252,2.793-2.791S774.101,73.734,772.561,73.734z"/>
</g>
<g>
	<circle fill="#FFF3F5" cx="772.562" cy="66.063" r="2.917"/>
	<path fill="#FFB1C0" d="M772.561,69.104c-1.676,0-3.041-1.365-3.041-3.041c0-1.677,1.365-3.042,3.041-3.042
		c1.678,0,3.043,1.364,3.043,3.042C775.604,67.738,774.238,69.104,772.561,69.104z M772.561,63.271
		c-1.539,0-2.791,1.252-2.791,2.792c0,1.539,1.252,2.791,2.791,2.791c1.54,0,2.793-1.252,2.793-2.791
		C775.354,64.523,774.101,63.271,772.561,63.271z"/>
</g>
<g>
	<circle fill="#FFF3F5" cx="788.062" cy="76.525" r="2.917"/>
	<path fill="#FFB1C0" d="M788.061,79.566c-1.676,0-3.041-1.363-3.041-3.041c0-1.676,1.365-3.041,3.041-3.041
		c1.678,0,3.043,1.365,3.043,3.041C791.104,78.203,789.738,79.566,788.061,79.566z M788.061,73.734
		c-1.539,0-2.791,1.252-2.791,2.791s1.252,2.791,2.791,2.791c1.54,0,2.793-1.252,2.793-2.791S789.601,73.734,788.061,73.734z"/>
</g>
<g>
	<circle fill="#FFF3F5" cx="788.062" cy="66.063" r="2.917"/>
	<path fill="#FFB1C0" d="M788.061,69.104c-1.676,0-3.041-1.365-3.041-3.041c0-1.677,1.365-3.042,3.041-3.042
		c1.678,0,3.043,1.364,3.043,3.042C791.104,67.738,789.738,69.104,788.061,69.104z M788.061,63.271
		c-1.539,0-2.791,1.252-2.791,2.792c0,1.539,1.252,2.791,2.791,2.791c1.54,0,2.793-1.252,2.793-2.791
		C790.854,64.523,789.601,63.271,788.061,63.271z"/>
</g>
<g>
	<circle fill="#FFF3F5" cx="803.562" cy="76.525" r="2.917"/>
	<path fill="#FFB1C0" d="M803.561,79.566c-1.676,0-3.041-1.363-3.041-3.041c0-1.676,1.365-3.041,3.041-3.041
		c1.678,0,3.043,1.365,3.043,3.041C806.604,78.203,805.238,79.566,803.561,79.566z M803.561,73.734
		c-1.539,0-2.791,1.252-2.791,2.791s1.252,2.791,2.791,2.791c1.54,0,2.793-1.252,2.793-2.791S805.101,73.734,803.561,73.734z"/>
</g>
<g>
	<circle fill="#FFF3F5" cx="803.562" cy="66.063" r="2.917"/>
	<path fill="#FFB1C0" d="M803.561,69.104c-1.676,0-3.041-1.365-3.041-3.041c0-1.677,1.365-3.042,3.041-3.042
		c1.678,0,3.043,1.364,3.043,3.042C806.604,67.738,805.238,69.104,803.561,69.104z M803.561,63.271
		c-1.539,0-2.791,1.252-2.791,2.792c0,1.539,1.252,2.791,2.791,2.791c1.54,0,2.793-1.252,2.793-2.791
		C806.354,64.523,805.101,63.271,803.561,63.271z"/>
</g>
<g>
	<circle fill="#FFF3F5" cx="819.062" cy="76.525" r="2.917"/>
	<path fill="#FFB1C0" d="M819.061,79.566c-1.676,0-3.041-1.363-3.041-3.041c0-1.676,1.365-3.041,3.041-3.041
		c1.678,0,3.043,1.365,3.043,3.041C822.104,78.203,820.738,79.566,819.061,79.566z M819.061,73.734
		c-1.539,0-2.791,1.252-2.791,2.791s1.252,2.791,2.791,2.791c1.54,0,2.793-1.252,2.793-2.791S820.601,73.734,819.061,73.734z"/>
</g>
<g>
	<circle fill="#FFF3F5" cx="819.062" cy="66.063" r="2.917"/>
	<path fill="#FFB1C0" d="M819.061,69.104c-1.676,0-3.041-1.365-3.041-3.041c0-1.677,1.365-3.042,3.041-3.042
		c1.678,0,3.043,1.364,3.043,3.042C822.104,67.738,820.738,69.104,819.061,69.104z M819.061,63.271
		c-1.539,0-2.791,1.252-2.791,2.792c0,1.539,1.252,2.791,2.791,2.791c1.54,0,2.793-1.252,2.793-2.791
		C821.854,64.523,820.601,63.271,819.061,63.271z"/>
</g>
<g>
	<circle fill="#FFF3F5" cx="834.562" cy="76.525" r="2.917"/>
	<path fill="#FFB1C0" d="M834.561,79.566c-1.676,0-3.041-1.363-3.041-3.041c0-1.676,1.365-3.041,3.041-3.041
		c1.678,0,3.043,1.365,3.043,3.041C837.604,78.203,836.238,79.566,834.561,79.566z M834.561,73.734
		c-1.539,0-2.791,1.252-2.791,2.791s1.252,2.791,2.791,2.791c1.54,0,2.793-1.252,2.793-2.791S836.101,73.734,834.561,73.734z"/>
</g>
<g>
	<circle fill="#FFF3F5" cx="834.562" cy="66.063" r="2.917"/>
	<path fill="#FFB1C0" d="M834.561,69.104c-1.676,0-3.041-1.365-3.041-3.041c0-1.677,1.365-3.042,3.041-3.042
		c1.678,0,3.043,1.364,3.043,3.042C837.604,67.738,836.238,69.104,834.561,69.104z M834.561,63.271
		c-1.539,0-2.791,1.252-2.791,2.792c0,1.539,1.252,2.791,2.791,2.791c1.54,0,2.793-1.252,2.793-2.791
		C837.354,64.523,836.101,63.271,834.561,63.271z"/>
</g>
<g>
	<circle fill="#FFF3F5" cx="850.062" cy="76.525" r="2.917"/>
	<path fill="#FFB1C0" d="M850.061,79.566c-1.676,0-3.041-1.363-3.041-3.041c0-1.676,1.365-3.041,3.041-3.041
		c1.678,0,3.043,1.365,3.043,3.041C853.104,78.203,851.738,79.566,850.061,79.566z M850.061,73.734
		c-1.539,0-2.791,1.252-2.791,2.791s1.252,2.791,2.791,2.791c1.54,0,2.793-1.252,2.793-2.791S851.601,73.734,850.061,73.734z"/>
</g>
<g>
	<circle fill="#FFF3F5" cx="850.062" cy="66.063" r="2.917"/>
	<path fill="#FFB1C0" d="M850.061,69.104c-1.676,0-3.041-1.365-3.041-3.041c0-1.677,1.365-3.042,3.041-3.042
		c1.678,0,3.043,1.364,3.043,3.042C853.104,67.738,851.738,69.104,850.061,69.104z M850.061,63.271
		c-1.539,0-2.791,1.252-2.791,2.792c0,1.539,1.252,2.791,2.791,2.791c1.54,0,2.793-1.252,2.793-2.791
		C852.854,64.523,851.601,63.271,850.061,63.271z"/>
</g>
<g>
	<circle fill="#FFF3F5" cx="865.562" cy="76.525" r="2.917"/>
	<path fill="#FFB1C0" d="M865.561,79.566c-1.676,0-3.041-1.363-3.041-3.041c0-1.676,1.365-3.041,3.041-3.041
		c1.678,0,3.043,1.365,3.043,3.041C868.604,78.203,867.238,79.566,865.561,79.566z M865.561,73.734
		c-1.539,0-2.791,1.252-2.791,2.791s1.252,2.791,2.791,2.791c1.54,0,2.793-1.252,2.793-2.791S867.101,73.734,865.561,73.734z"/>
</g>
<g>
	<circle fill="#FFF3F5" cx="865.562" cy="66.063" r="2.917"/>
	<path fill="#FFB1C0" d="M865.561,69.104c-1.676,0-3.041-1.365-3.041-3.041c0-1.677,1.365-3.042,3.041-3.042
		c1.678,0,3.043,1.364,3.043,3.042C868.604,67.738,867.238,69.104,865.561,69.104z M865.561,63.271
		c-1.539,0-2.791,1.252-2.791,2.792c0,1.539,1.252,2.791,2.791,2.791c1.54,0,2.793-1.252,2.793-2.791
		C868.354,64.523,867.101,63.271,865.561,63.271z"/>
</g>
<g>
	<circle fill="#FFFFCE" cx="514.635" cy="76.525" r="2.917"/>
	<path fill="#141414" d="M514.635,79.566c-1.677,0-3.042-1.363-3.042-3.041c0-1.676,1.365-3.041,3.042-3.041
		c1.677,0,3.041,1.365,3.041,3.041C517.676,78.203,516.312,79.566,514.635,79.566z M514.635,73.734c-1.54,0-2.792,1.252-2.792,2.791
		s1.252,2.791,2.792,2.791c1.539,0,2.791-1.252,2.791-2.791S516.174,73.734,514.635,73.734z"/>
</g>
<g>
	<circle fill="#A39952" cx="528.885" cy="66.063" r="2.917"/>
	<path fill="#141414" d="M528.885,69.104c-1.677,0-3.042-1.365-3.042-3.041c0-1.677,1.365-3.042,3.042-3.042
		c1.677,0,3.041,1.364,3.041,3.042C531.926,67.738,530.562,69.104,528.885,69.104z M528.885,63.271c-1.54,0-2.792,1.252-2.792,2.792
		c0,1.539,1.252,2.791,2.792,2.791c1.539,0,2.791-1.252,2.791-2.791C531.676,64.523,530.424,63.271,528.885,63.271z"/>
</g>
<g>
	<circle fill="#A39952" cx="528.885" cy="76.525" r="2.917"/>
	<path fill="#141414" d="M528.885,79.566c-1.677,0-3.042-1.363-3.042-3.041c0-1.676,1.365-3.041,3.042-3.041
		c1.677,0,3.041,1.365,3.041,3.041C531.926,78.203,530.562,79.566,528.885,79.566z M528.885,73.734c-1.54,0-2.792,1.252-2.792,2.791
		s1.252,2.791,2.792,2.791c1.539,0,2.791-1.252,2.791-2.791S530.424,73.734,528.885,73.734z"/>
</g>
<g>
	<polygon points="505.052,42.164 504.552,42.164 504.552,36.872 515.051,36.872 515.051,37.372 505.052,37.372 	"/>
</g>
<g>
	<polygon points="538.134,42.164 537.634,42.164 537.634,37.372 527.635,37.372 527.635,36.872 538.134,36.872 	"/>
</g>
<g>
	<g>
		<rect x="576.364" y="67" width="50.163" height="24.885"/>
	</g>
	<g>
		<rect x="576.559" y="67" fill="#444444" width="49.771" height="23.221"/>
	</g>
	<g>
		<rect x="576.559" y="67" fill="#BB2E37" width="49.771" height="19.645"/>
	</g>
	<g opacity="0.2">
		<rect x="576.559" y="67" width="49.771" height="6.27"/>
	</g>
	<g opacity="0.2">
		<rect x="576.559" y="88.75" width="49.771" height="3.135"/>
	</g>
	<g>
		<rect x="579.401" y="67" fill="#4C4C4C" width="1.764" height="3.918"/>
	</g>
	<g>
		<rect x="585.573" y="67" fill="#4C4C4C" width="1.764" height="3.918"/>
	</g>
	<g>
		<rect x="591.746" y="67" fill="#4C4C4C" width="1.764" height="3.918"/>
	</g>
	<g>
		<rect x="597.917" y="67" fill="#4C4C4C" width="1.764" height="3.918"/>
	</g>
	<g>
		<rect x="604.09" y="67" fill="#4C4C4C" width="1.764" height="3.918"/>
	</g>
	<g>
		<rect x="610.262" y="67" fill="#4C4C4C" width="1.764" height="3.918"/>
	</g>
	<g>
		<rect x="616.435" y="67" fill="#4C4C4C" width="1.764" height="3.918"/>
	</g>
	<g>
		<rect x="622.608" y="67" fill="#4C4C4C" width="1.764" height="3.918"/>
	</g>
	<g opacity="0.2">
		<rect x="625.939" y="73.27" width="0.392" height="16.951"/>
	</g>
	<g opacity="0.2">
		<rect x="576.559" y="73.27" width="0.979" height="16.951"/>
	</g>
	<g>
		<path fill="#F9F9F9" d="M580.002,78.041v2.381h-0.149v-2.145c-0.075,0.07-0.161,0.133-0.256,0.186
			c-0.096,0.051-0.2,0.096-0.313,0.137v-0.135c0.068-0.023,0.131-0.049,0.189-0.078s0.114-0.061,0.167-0.096
			s0.106-0.072,0.156-0.115c0.051-0.041,0.102-0.086,0.154-0.135H580.002z"/>
	</g>
	<g>
		<path fill="#F9F9F9" d="M580.917,85.125v-2.328h0.582c0.387,0,0.681,0.096,0.882,0.289c0.202,0.193,0.302,0.473,0.302,0.842
			c0,0.355-0.108,0.643-0.324,0.865c-0.216,0.221-0.514,0.332-0.894,0.332H580.917z M581.078,82.945v2.033h0.365
			c0.345,0,0.61-0.09,0.795-0.27c0.185-0.178,0.278-0.438,0.278-0.775c0-0.658-0.347-0.988-1.042-0.988H581.078z"/>
		<path fill="#F9F9F9" d="M583.157,85.125v-2.328h0.161v2.328H583.157z"/>
		<path fill="#F9F9F9" d="M584.075,84.191v0.934h-0.161v-2.328h0.561c0.239,0,0.422,0.055,0.549,0.166s0.19,0.273,0.19,0.486
			c0,0.215-0.07,0.395-0.212,0.533c-0.141,0.139-0.339,0.209-0.594,0.209H584.075z M584.075,82.945v1.098h0.331
			c0.209,0,0.369-0.049,0.479-0.15c0.109-0.1,0.165-0.24,0.165-0.424c0-0.35-0.201-0.523-0.603-0.523H584.075z"/>
	</g>
	<g>
		<path fill="#F9F9F9" d="M619.456,85.166c-0.329,0-0.591-0.109-0.786-0.328c-0.196-0.219-0.293-0.504-0.293-0.854
			c0-0.371,0.1-0.668,0.301-0.893c0.2-0.223,0.475-0.334,0.822-0.334c0.313,0,0.567,0.107,0.762,0.322
			c0.194,0.215,0.292,0.496,0.292,0.846c0,0.385-0.1,0.688-0.298,0.908C620.055,85.055,619.789,85.166,619.456,85.166z
			 M619.472,82.904c-0.271,0-0.493,0.098-0.668,0.293c-0.175,0.197-0.262,0.453-0.262,0.77c0,0.32,0.083,0.576,0.248,0.766
			c0.165,0.191,0.386,0.285,0.663,0.285c0.288,0,0.516-0.094,0.684-0.281c0.167-0.188,0.251-0.449,0.251-0.785
			c0-0.33-0.082-0.586-0.246-0.77C619.978,82.996,619.754,82.904,619.472,82.904z"/>
		<path fill="#F9F9F9" d="M622.675,85.125l-1.386-1.883c-0.029-0.037-0.054-0.076-0.075-0.113l-0.021-0.031h-0.007
			c0.003,0.027,0.004,0.061,0.004,0.102v1.926h-0.161v-2.328h0.123l1.377,1.865c0.03,0.041,0.063,0.09,0.099,0.15h0.007
			c-0.005-0.076-0.007-0.143-0.007-0.195v-1.82h0.159v2.328H622.675z"/>
	</g>
	<g>
		<path fill="#F9F9F9" d="M585.729,80.422v-0.109c0-0.072,0.006-0.139,0.018-0.195c0.011-0.059,0.029-0.111,0.054-0.16
			c0.025-0.049,0.055-0.094,0.091-0.137s0.078-0.086,0.127-0.129c0.048-0.043,0.104-0.086,0.165-0.131s0.128-0.094,0.2-0.148
			c0.07-0.049,0.136-0.1,0.197-0.15c0.061-0.049,0.114-0.104,0.16-0.16c0.046-0.057,0.082-0.119,0.108-0.189
			c0.026-0.068,0.04-0.146,0.04-0.236c0-0.152-0.043-0.271-0.128-0.357s-0.205-0.127-0.358-0.127c-0.104,0-0.204,0.021-0.3,0.068
			c-0.096,0.045-0.19,0.107-0.283,0.189v-0.176c0.089-0.068,0.185-0.121,0.288-0.16c0.103-0.039,0.21-0.059,0.321-0.059
			c0.093,0,0.177,0.014,0.253,0.043c0.076,0.027,0.141,0.068,0.194,0.119c0.054,0.053,0.095,0.115,0.124,0.188
			c0.029,0.074,0.044,0.156,0.044,0.248c0,0.107-0.016,0.201-0.046,0.285c-0.031,0.082-0.072,0.158-0.125,0.225
			c-0.053,0.068-0.115,0.131-0.186,0.188c-0.071,0.057-0.146,0.113-0.225,0.17c-0.105,0.074-0.194,0.141-0.267,0.199
			c-0.073,0.057-0.131,0.113-0.177,0.17c-0.045,0.055-0.078,0.111-0.098,0.17c-0.02,0.057-0.03,0.125-0.03,0.201v0.025h1.157v0.137
			H585.729z"/>
	</g>
	<g>
		<path fill="#F9F9F9" d="M591.932,80.338v-0.17c0.177,0.105,0.345,0.156,0.502,0.156c0.188,0,0.334-0.047,0.439-0.143
			c0.106-0.096,0.159-0.221,0.159-0.375c0-0.172-0.061-0.303-0.183-0.393c-0.122-0.088-0.295-0.133-0.519-0.133h-0.179v-0.137h0.159
			c0.208,0,0.366-0.043,0.475-0.131c0.108-0.09,0.163-0.213,0.163-0.375c0-0.139-0.04-0.248-0.118-0.328s-0.194-0.119-0.346-0.119
			c-0.146,0-0.298,0.051-0.458,0.152v-0.158c0.175-0.088,0.336-0.131,0.482-0.131c0.183,0,0.329,0.049,0.437,0.148
			s0.162,0.232,0.162,0.396c0,0.316-0.151,0.516-0.453,0.602v0.006c0.163,0.016,0.292,0.076,0.39,0.182
			c0.097,0.104,0.146,0.236,0.146,0.395c0,0.205-0.07,0.367-0.211,0.492c-0.141,0.125-0.323,0.188-0.546,0.188
			C592.258,80.463,592.091,80.42,591.932,80.338z"/>
	</g>
	<g>
		<path fill="#F9F9F9" d="M599.259,78.094v1.584h0.364v0.135h-0.364v0.609h-0.149v-0.609h-1.111v-0.146
			c0.104-0.117,0.21-0.244,0.317-0.381c0.107-0.135,0.209-0.271,0.307-0.41s0.188-0.275,0.27-0.41
			c0.082-0.133,0.151-0.258,0.206-0.371H599.259z M598.17,79.678h0.939v-1.318c-0.079,0.137-0.161,0.268-0.247,0.396
			c-0.085,0.127-0.169,0.248-0.251,0.361c-0.083,0.113-0.162,0.217-0.238,0.313S598.23,79.607,598.17,79.678z"/>
	</g>
	<g>
		<path fill="#F9F9F9" d="M604.351,80.375v-0.174c0.149,0.082,0.297,0.123,0.445,0.123c0.19,0,0.339-0.051,0.446-0.156
			s0.161-0.244,0.161-0.418c0-0.379-0.216-0.568-0.647-0.568c-0.097,0-0.209,0.006-0.335,0.02l0.071-1.107h0.968v0.137h-0.835
			l-0.053,0.828c0.111-0.01,0.191-0.014,0.239-0.014c0.247,0,0.433,0.061,0.56,0.182c0.126,0.119,0.189,0.287,0.189,0.504
			s-0.067,0.393-0.202,0.529c-0.134,0.135-0.326,0.203-0.574,0.203C604.619,80.463,604.475,80.434,604.351,80.375z"/>
	</g>
	<g>
		<path fill="#F9F9F9" d="M611.706,78.111v0.158c-0.11-0.053-0.224-0.078-0.343-0.078c-0.115,0-0.219,0.027-0.311,0.084
			s-0.171,0.137-0.236,0.24c-0.065,0.104-0.115,0.227-0.149,0.367c-0.035,0.143-0.052,0.301-0.052,0.471h0.008
			c0.113-0.26,0.307-0.389,0.582-0.389c0.095,0,0.182,0.018,0.26,0.055s0.145,0.088,0.201,0.154
			c0.056,0.064,0.099,0.141,0.129,0.227c0.031,0.088,0.046,0.182,0.046,0.283c0,0.111-0.017,0.215-0.051,0.311
			c-0.034,0.096-0.082,0.178-0.144,0.246c-0.062,0.07-0.135,0.125-0.22,0.164c-0.085,0.039-0.179,0.059-0.281,0.059
			c-0.106,0-0.202-0.023-0.286-0.07c-0.085-0.045-0.157-0.113-0.215-0.203c-0.059-0.088-0.103-0.199-0.134-0.332
			c-0.03-0.133-0.046-0.285-0.046-0.457c0-0.203,0.02-0.387,0.061-0.553c0.04-0.166,0.099-0.309,0.176-0.426
			s0.172-0.207,0.284-0.271c0.112-0.064,0.24-0.096,0.383-0.096C611.495,78.055,611.608,78.072,611.706,78.111z M611.171,79.102
			c-0.077,0-0.148,0.016-0.214,0.049c-0.066,0.031-0.123,0.074-0.17,0.125c-0.048,0.053-0.085,0.113-0.112,0.18
			c-0.027,0.066-0.041,0.135-0.041,0.205c0,0.088,0.013,0.174,0.038,0.254c0.025,0.08,0.061,0.15,0.106,0.213
			c0.046,0.061,0.101,0.107,0.165,0.145c0.064,0.035,0.136,0.053,0.215,0.053c0.075,0,0.145-0.014,0.209-0.045
			c0.064-0.031,0.119-0.072,0.166-0.127c0.046-0.055,0.083-0.119,0.109-0.195c0.027-0.074,0.04-0.156,0.04-0.244
			c0-0.09-0.012-0.174-0.035-0.248c-0.024-0.076-0.058-0.141-0.102-0.193c-0.044-0.055-0.098-0.096-0.161-0.125
			C611.321,79.117,611.25,79.102,611.171,79.102z"/>
	</g>
	<g>
		<path fill="#F9F9F9" d="M616.91,80.422c0.034-0.201,0.08-0.395,0.137-0.58s0.124-0.369,0.2-0.547
			c0.076-0.18,0.159-0.357,0.249-0.533c0.089-0.176,0.184-0.354,0.283-0.531h-1.229v-0.137h1.431v0.055
			c-0.109,0.201-0.211,0.393-0.307,0.578s-0.182,0.371-0.259,0.553c-0.077,0.184-0.145,0.369-0.202,0.555
			c-0.058,0.188-0.103,0.383-0.134,0.588H616.91z"/>
	</g>
	<g>
		<path fill="#F9F9F9" d="M622.782,79.771c0-0.063,0.009-0.123,0.026-0.182c0.018-0.061,0.044-0.117,0.081-0.17
			s0.082-0.1,0.136-0.143s0.118-0.076,0.191-0.102c-0.054-0.027-0.104-0.059-0.148-0.096c-0.045-0.037-0.083-0.078-0.114-0.121
			c-0.031-0.045-0.055-0.094-0.072-0.146s-0.025-0.107-0.025-0.164c0-0.086,0.016-0.164,0.046-0.236
			c0.031-0.072,0.074-0.135,0.128-0.188c0.054-0.055,0.119-0.096,0.193-0.125c0.075-0.031,0.155-0.045,0.241-0.045
			c0.088,0,0.169,0.014,0.244,0.045s0.139,0.072,0.193,0.125c0.054,0.055,0.096,0.117,0.126,0.189c0.03,0.07,0.045,0.15,0.045,0.234
			c0,0.059-0.008,0.113-0.025,0.164c-0.017,0.053-0.04,0.102-0.071,0.146s-0.067,0.086-0.11,0.123
			c-0.043,0.035-0.091,0.066-0.145,0.094c0.071,0.025,0.133,0.059,0.187,0.102s0.098,0.09,0.133,0.143
			c0.036,0.053,0.063,0.109,0.08,0.17c0.017,0.059,0.026,0.119,0.026,0.182c0,0.109-0.017,0.205-0.05,0.291
			c-0.033,0.084-0.08,0.156-0.14,0.215c-0.061,0.059-0.132,0.104-0.216,0.135c-0.084,0.031-0.177,0.047-0.279,0.047
			c-0.099,0-0.19-0.016-0.274-0.047c-0.083-0.031-0.155-0.076-0.215-0.133c-0.061-0.059-0.108-0.131-0.142-0.215
			C622.799,79.979,622.782,79.881,622.782,79.771z M622.936,79.789c0,0.08,0.013,0.154,0.039,0.221s0.062,0.123,0.108,0.17
			c0.046,0.047,0.101,0.082,0.165,0.107c0.064,0.025,0.135,0.037,0.214,0.037c0.077,0,0.148-0.012,0.212-0.037
			c0.065-0.025,0.121-0.061,0.167-0.107c0.047-0.047,0.084-0.104,0.11-0.17s0.039-0.141,0.039-0.221
			c0-0.074-0.013-0.143-0.038-0.207s-0.06-0.121-0.106-0.17c-0.045-0.049-0.101-0.088-0.167-0.117
			c-0.065-0.029-0.138-0.043-0.218-0.043c-0.074,0-0.144,0.014-0.208,0.039c-0.064,0.027-0.121,0.064-0.167,0.111
			c-0.047,0.047-0.084,0.104-0.11,0.17C622.949,79.639,622.936,79.711,622.936,79.789z M623.017,78.654
			c0,0.064,0.012,0.125,0.036,0.18c0.023,0.057,0.056,0.105,0.096,0.146s0.088,0.072,0.143,0.098
			c0.055,0.023,0.113,0.035,0.174,0.035c0.062,0,0.121-0.012,0.176-0.035c0.055-0.025,0.103-0.057,0.144-0.1
			c0.041-0.041,0.073-0.09,0.096-0.145c0.023-0.057,0.035-0.115,0.035-0.18c0-0.066-0.011-0.127-0.035-0.184
			c-0.023-0.057-0.055-0.105-0.095-0.146c-0.041-0.043-0.088-0.074-0.143-0.098c-0.055-0.023-0.114-0.035-0.178-0.035
			c-0.067,0-0.128,0.012-0.183,0.037c-0.055,0.023-0.102,0.057-0.142,0.098c-0.04,0.043-0.07,0.092-0.091,0.146
			C623.027,78.529,623.017,78.59,623.017,78.654z"/>
	</g>
</g>
<g>
	<polygon points="632.748,42.164 632.248,42.164 632.248,33.331 722.135,33.331 722.135,33.831 632.748,33.831 	"/>
</g>
<g>
	<polygon points="871.385,42.164 870.885,42.164 870.885,33.831 771.969,33.831 771.969,33.331 871.385,33.331 	"/>
</g>
</svg>
