<?xml version="1.0" encoding="utf-8"?>
<!-- Generator: Adobe Illustrator 16.0.0, SVG Export Plug-In . SVG Version: 6.00 Build 0)  -->
<!DOCTYPE svg PUBLIC "-//W3C//DTD SVG 1.1//EN" "http://www.w3.org/Graphics/SVG/1.1/DTD/svg11.dtd">
<svg version="1.1" id="图层_1" xmlns="http://www.w3.org/2000/svg" xmlns:xlink="http://www.w3.org/1999/xlink" x="0px" y="0px"
	 width="35.27px" height="31.19px" viewBox="0 0 35.27 31.19" enable-background="new 0 0 35.27 31.19" xml:space="preserve">
<linearGradient id="SVGID_1_" gradientUnits="userSpaceOnUse" x1="31.583" y1="0.4756" x2="31.583" y2="30.8363">
	<stop  offset="0" style="stop-color:#ADADAD"/>
	<stop  offset="0.2304" style="stop-color:#262727"/>
	<stop  offset="1" style="stop-color:#000000"/>
</linearGradient>
<rect x="28.119" y="0.293" fill="url(#SVGID_1_)" stroke="#040000" stroke-width="0.5" stroke-miterlimit="10" width="6.928" height="30.706"/>
<linearGradient id="SVGID_2_" gradientUnits="userSpaceOnUse" x1="3.7881" y1="0.4756" x2="3.7881" y2="30.8363">
	<stop  offset="0" style="stop-color:#ADADAD"/>
	<stop  offset="0.2304" style="stop-color:#262727"/>
	<stop  offset="1" style="stop-color:#000000"/>
</linearGradient>
<rect x="0.325" y="0.293" fill="url(#SVGID_2_)" stroke="#040000" stroke-width="0.5" stroke-miterlimit="10" width="6.927" height="30.706"/>
<rect x="7.251" y="0.293" fill="#74411F" stroke="#040000" stroke-miterlimit="10" width="20.868" height="30.706"/>
<g>
	<polygon fill="#592115" points="7.637,17.628 12.188,20.038 25.091,20.038 28.695,17.628 	"/>
	<linearGradient id="SVGID_3_" gradientUnits="userSpaceOnUse" x1="17.6846" y1="8.9453" x2="17.6846" y2="17.439">
		<stop  offset="0" style="stop-color:#F6B8B2"/>
		<stop  offset="0.1275" style="stop-color:#F1956D"/>
		<stop  offset="0.8039" style="stop-color:#EE7C45"/>
		<stop  offset="1" style="stop-color:#833828"/>
	</linearGradient>
	<path fill="url(#SVGID_3_)" d="M35.045,16.549c0,0.597-0.509,1.079-1.139,1.079H1.463c-0.628,0-1.138-0.482-1.138-1.079v-6.47
		C0.325,9.483,0.834,9,1.463,9h32.443c0.63,0,1.139,0.483,1.139,1.079V16.549z"/>
</g>
</svg>
