<?xml version="1.0" encoding="utf-8"?>
<!-- Generator: Adobe Illustrator 16.0.0, SVG Export Plug-In . SVG Version: 6.00 Build 0)  -->
<!DOCTYPE svg PUBLIC "-//W3C//DTD SVG 1.1//EN" "http://www.w3.org/Graphics/SVG/1.1/DTD/svg11.dtd">
<svg version="1.1" id="图层_1" xmlns="http://www.w3.org/2000/svg" xmlns:xlink="http://www.w3.org/1999/xlink" x="0px" y="0px"
	 width="71.65px" height="14.06px" viewBox="0 0 71.65 14.06" enable-background="new 0 0 71.65 14.06" xml:space="preserve">
<g>
	<g>
		<path fill="#8F8F8F" d="M61.349,11.106c0,1.434-1.201,2.597-2.68,2.597H13.112c-1.479,0-2.68-1.163-2.68-2.597V2.994
			c0-1.435,1.201-2.597,2.68-2.597h45.557c1.479,0,2.68,1.162,2.68,2.597V11.106z"/>
		<path fill="#494949" d="M58.669,14.078H13.112c-1.685,0-3.055-1.333-3.055-2.972V2.994c0-1.639,1.37-2.972,3.055-2.972h45.557
			c1.684,0,3.055,1.333,3.055,2.972v8.112C61.724,12.745,60.353,14.078,58.669,14.078z M13.112,0.772
			c-1.271,0-2.305,0.997-2.305,2.222v8.112c0,1.226,1.034,2.222,2.305,2.222h45.557c1.271,0,2.305-0.996,2.305-2.222V2.994
			c0-1.225-1.034-2.222-2.305-2.222H13.112z"/>
	</g>
	<g>
		<path fill="#080304" d="M17.165,12.481c-1.243,0-2.433-1.005-2.705-2.288L13.253,4.52c-0.161-0.762-0.013-1.502,0.408-2.032
			c0.376-0.477,0.936-0.74,1.572-0.74h41.629c0.638,0,1.197,0.263,1.572,0.74c0.423,0.53,0.57,1.271,0.409,2.032l-1.207,5.674
			c-0.274,1.283-1.462,2.288-2.705,2.288H17.165z"/>
	</g>
	<g>
		<path fill="#B2B2B2" d="M57.291,10.111c-0.239,1.1-1.29,1.971-2.358,1.971H17.165c-1.068,0-2.119-0.871-2.357-1.971l-1.206-5.578
			c-0.272-1.257,0.456-2.297,1.633-2.297h41.629c1.177,0,1.903,1.041,1.633,2.297L57.291,10.111z"/>
	</g>
	<g>
		<path fill="#FCFBF0" d="M17.356,11.33c-0.729,0-1.483-0.639-1.646-1.396l-1.196-5.522c-0.089-0.429-0.021-0.828,0.195-1.095
			c0.172-0.214,0.427-0.328,0.736-0.328h41.206c0.31,0,0.563,0.113,0.735,0.328c0.218,0.267,0.288,0.666,0.192,1.096l-1.191,5.521
			c-0.164,0.758-0.919,1.396-1.647,1.396H17.356z"/>
	</g>
	<g>
		<g>
			<path fill="#56554F" d="M18.7,9.372c-0.397,0-0.81-0.349-0.898-0.761l-0.65-2.565c-0.05-0.234-0.012-0.451,0.106-0.596
				c0.093-0.117,0.23-0.179,0.4-0.179h36.78c0.17,0,0.308,0.062,0.401,0.179c0.119,0.145,0.157,0.362,0.105,0.596l-0.649,2.565
				c-0.09,0.412-0.501,0.761-0.897,0.761H18.7z"/>
		</g>
		<g>
			<path fill="#686762" d="M19.354,10.037c0,0.228-0.184,0.413-0.412,0.413l0,0c-0.229,0-0.415-0.186-0.415-0.413V4.064
				c0-0.229,0.186-0.414,0.415-0.414l0,0c0.229,0,0.412,0.186,0.412,0.414V10.037z"/>
		</g>
		<g>
			<path fill="#686762" d="M22.181,10.037c0,0.228-0.187,0.413-0.415,0.413l0,0c-0.229,0-0.414-0.186-0.414-0.413V4.064
				c0-0.229,0.185-0.414,0.414-0.414l0,0c0.229,0,0.415,0.186,0.415,0.414V10.037z"/>
		</g>
		<g>
			<path fill="#686762" d="M25.004,10.037c0,0.228-0.185,0.413-0.413,0.413l0,0c-0.229,0-0.414-0.186-0.414-0.413V4.064
				c0-0.229,0.186-0.414,0.414-0.414l0,0c0.229,0,0.413,0.186,0.413,0.414V10.037z"/>
		</g>
		<g>
			<path fill="#686762" d="M27.829,10.037c0,0.228-0.184,0.413-0.413,0.413l0,0c-0.229,0-0.415-0.186-0.415-0.413V4.064
				c0-0.229,0.187-0.414,0.415-0.414l0,0c0.229,0,0.413,0.186,0.413,0.414V10.037z"/>
		</g>
		<g>
			<path fill="#686762" d="M30.653,10.037c0,0.228-0.185,0.413-0.413,0.413l0,0c-0.229,0-0.414-0.186-0.414-0.413V4.064
				c0-0.229,0.185-0.414,0.414-0.414l0,0c0.229,0,0.413,0.186,0.413,0.414V10.037z"/>
		</g>
		<g>
			<path fill="#686762" d="M33.48,10.037c0,0.228-0.187,0.413-0.415,0.413l0,0c-0.229,0-0.413-0.186-0.413-0.413V4.064
				c0-0.229,0.184-0.414,0.413-0.414l0,0c0.229,0,0.415,0.186,0.415,0.414V10.037z"/>
		</g>
		<g>
			<path fill="#686762" d="M36.304,10.037c0,0.228-0.186,0.413-0.413,0.413l0,0c-0.229,0-0.414-0.186-0.414-0.413V4.064
				c0-0.229,0.186-0.414,0.414-0.414l0,0c0.228,0,0.413,0.186,0.413,0.414V10.037z"/>
		</g>
		<g>
			<path fill="#686762" d="M39.128,10.037c0,0.228-0.185,0.413-0.411,0.413l0,0c-0.229,0-0.415-0.186-0.415-0.413V4.064
				c0-0.229,0.186-0.414,0.415-0.414l0,0c0.227,0,0.411,0.186,0.411,0.414V10.037z"/>
		</g>
		<g>
			<path fill="#686762" d="M41.954,10.037c0,0.228-0.185,0.413-0.414,0.413l0,0c-0.229,0-0.413-0.186-0.413-0.413V4.064
				c0-0.229,0.185-0.414,0.413-0.414l0,0c0.229,0,0.414,0.186,0.414,0.414V10.037z"/>
		</g>
		<g>
			<path fill="#686762" d="M44.779,10.037c0,0.228-0.186,0.413-0.415,0.413l0,0c-0.228,0-0.412-0.186-0.412-0.413V4.064
				c0-0.229,0.185-0.414,0.412-0.414l0,0c0.229,0,0.415,0.186,0.415,0.414V10.037z"/>
		</g>
		<g>
			<path fill="#686762" d="M47.604,10.037c0,0.228-0.187,0.413-0.414,0.413l0,0c-0.229,0-0.414-0.186-0.414-0.413V4.064
				c0-0.229,0.185-0.414,0.414-0.414l0,0c0.228,0,0.414,0.186,0.414,0.414V10.037z"/>
		</g>
		<g>
			<path fill="#686762" d="M50.429,10.037c0,0.228-0.185,0.413-0.413,0.413l0,0c-0.229,0-0.415-0.186-0.415-0.413V4.064
				c0-0.229,0.187-0.414,0.415-0.414l0,0c0.229,0,0.413,0.186,0.413,0.414V10.037z"/>
		</g>
		<g>
			<path fill="#686762" d="M53.254,10.037c0,0.228-0.186,0.413-0.415,0.413l0,0c-0.228,0-0.412-0.186-0.412-0.413V4.064
				c0-0.229,0.185-0.414,0.412-0.414l0,0c0.229,0,0.415,0.186,0.415,0.414V10.037z"/>
		</g>
	</g>
	<g>
		<path fill="#BDBDBD" d="M64.27,10.984c-0.492,0-0.95-0.264-1.196-0.69l-1.872-3.24c-0.247-0.427-0.247-0.957,0-1.384l1.87-3.241
			c0.248-0.427,0.706-0.691,1.198-0.691h3.742c0.493,0,0.951,0.266,1.196,0.691L71.08,5.67c0.247,0.427,0.247,0.957-0.001,1.385
			l-1.871,3.238c-0.245,0.426-0.703,0.691-1.196,0.691H64.27z"/>
	</g>
	<g>
		<path fill="#8F8F8F" d="M68.012,2.128c0.354,0,0.683,0.189,0.858,0.497l1.872,3.24c0.177,0.306,0.177,0.686,0,0.993l-1.872,3.24
			c-0.176,0.308-0.505,0.496-0.858,0.496H64.27c-0.354,0-0.683-0.188-0.859-0.496l-1.87-3.24c-0.178-0.307-0.178-0.687,0-0.993
			l1.87-3.24c0.177-0.307,0.505-0.497,0.859-0.497H68.012 M68.012,1.348H64.27c-0.631,0-1.22,0.339-1.536,0.886l-1.869,3.24
			c-0.318,0.547-0.318,1.226,0,1.773l1.869,3.24c0.316,0.547,0.905,0.887,1.536,0.887h3.742c0.631,0,1.22-0.34,1.536-0.887
			l1.869-3.24c0.315-0.547,0.315-1.226,0-1.773l-1.869-3.24C69.231,1.687,68.643,1.348,68.012,1.348"/>
	</g>
	<g>
		<path fill="#CECECE" d="M69.898,6.391c0,2.082-1.683,3.77-3.758,3.77s-3.758-1.688-3.758-3.77c0-2.082,1.683-3.769,3.758-3.769
			S69.898,4.309,69.898,6.391"/>
	</g>
	<g>
		<path fill="#8F8F8F" d="M66.141,10.285c-2.142,0-3.883-1.748-3.883-3.895c0-2.147,1.741-3.894,3.883-3.894
			c2.141,0,3.883,1.747,3.883,3.894C70.023,8.537,68.281,10.285,66.141,10.285z M66.141,2.747c-2.003,0-3.633,1.635-3.633,3.644
			c0,2.01,1.63,3.645,3.633,3.645s3.633-1.635,3.633-3.645C69.773,4.381,68.144,2.747,66.141,2.747z"/>
	</g>
	<g>
		<path fill="#414244" d="M68.462,6.391c0,1.286-1.039,2.328-2.321,2.328s-2.322-1.042-2.322-2.328c0-1.286,1.04-2.328,2.322-2.328
			S68.462,5.105,68.462,6.391"/>
	</g>
	<g>
		<path d="M66.141,8.844c-1.35,0-2.447-1.1-2.447-2.453c0-1.353,1.098-2.453,2.447-2.453c1.349,0,2.446,1.101,2.446,2.453
			C68.587,7.744,67.489,8.844,66.141,8.844z M66.141,4.188c-1.212,0-2.197,0.988-2.197,2.203s0.985,2.203,2.197,2.203
			c1.211,0,2.196-0.988,2.196-2.203S67.352,4.188,66.141,4.188z"/>
	</g>
	<g>
		<path fill="#8F8F8F" d="M66.862,6.391c0,0.4-0.322,0.724-0.722,0.724c-0.398,0-0.722-0.324-0.722-0.724
			c0-0.399,0.323-0.724,0.722-0.724C66.54,5.667,66.862,5.991,66.862,6.391"/>
	</g>
	<g>
		<path fill="#BDBDBD" d="M3.646,10.984c-0.492,0-0.95-0.264-1.198-0.69l-1.871-3.24c-0.246-0.427-0.246-0.957,0-1.384l1.87-3.241
			c0.249-0.427,0.707-0.691,1.199-0.691h3.742c0.492,0,0.951,0.266,1.197,0.691l1.87,3.241c0.246,0.427,0.246,0.957,0,1.385
			l-1.87,3.238c-0.246,0.426-0.705,0.691-1.197,0.691H3.646z"/>
	</g>
	<g>
		<path fill="#8F8F8F" d="M7.388,2.128c0.354,0,0.682,0.189,0.859,0.497l1.871,3.24c0.177,0.306,0.177,0.686,0,0.993l-1.871,3.24
			c-0.178,0.308-0.505,0.496-0.859,0.496H3.646c-0.355,0-0.682-0.188-0.86-0.496l-1.87-3.24c-0.178-0.307-0.178-0.687,0-0.993
			l1.87-3.24c0.179-0.307,0.505-0.497,0.86-0.497H7.388 M7.388,1.348H3.646c-0.631,0-1.22,0.339-1.536,0.886l-1.871,3.24
			c-0.317,0.547-0.317,1.226,0,1.773l1.871,3.24c0.316,0.547,0.905,0.887,1.536,0.887h3.742c0.63,0,1.22-0.34,1.535-0.887
			l1.871-3.24c0.314-0.547,0.314-1.226,0-1.773l-1.871-3.24C8.607,1.687,8.018,1.348,7.388,1.348"/>
	</g>
	<g>
		<path fill="#CECECE" d="M9.274,6.391c0,2.082-1.683,3.77-3.758,3.77c-2.077,0-3.759-1.688-3.759-3.77
			c0-2.082,1.682-3.769,3.759-3.769C7.592,2.622,9.274,4.309,9.274,6.391"/>
	</g>
	<g>
		<path fill="#8F8F8F" d="M5.517,10.285c-2.142,0-3.884-1.748-3.884-3.895c0-2.147,1.742-3.894,3.884-3.894
			c2.141,0,3.883,1.747,3.883,3.894C9.399,8.537,7.657,10.285,5.517,10.285z M5.517,2.747c-2.004,0-3.634,1.635-3.634,3.644
			c0,2.01,1.63,3.645,3.634,3.645c2.003,0,3.633-1.635,3.633-3.645C9.149,4.381,7.52,2.747,5.517,2.747z"/>
	</g>
	<g>
		<path fill="#414244" d="M7.838,6.391c0,1.286-1.04,2.328-2.321,2.328c-1.282,0-2.322-1.042-2.322-2.328
			c0-1.286,1.04-2.328,2.322-2.328C6.798,4.063,7.838,5.105,7.838,6.391"/>
	</g>
	<g>
		<path d="M5.517,8.844c-1.35,0-2.447-1.1-2.447-2.453c0-1.353,1.098-2.453,2.447-2.453c1.349,0,2.446,1.101,2.446,2.453
			C7.963,7.744,6.865,8.844,5.517,8.844z M5.517,4.188c-1.212,0-2.197,0.988-2.197,2.203s0.985,2.203,2.197,2.203
			c1.211,0,2.196-0.988,2.196-2.203S6.728,4.188,5.517,4.188z"/>
	</g>
	<g>
		<path fill="#8F8F8F" d="M6.239,6.391c0,0.4-0.324,0.724-0.723,0.724c-0.399,0-0.723-0.324-0.723-0.724
			c0-0.399,0.323-0.724,0.723-0.724C5.915,5.667,6.239,5.991,6.239,6.391"/>
	</g>
</g>
</svg>
