<?xml version="1.0" encoding="utf-8"?>
<!-- Generator: Adobe Illustrator 16.0.0, SVG Export Plug-In . SVG Version: 6.00 Build 0)  -->
<!DOCTYPE svg PUBLIC "-//W3C//DTD SVG 1.1//EN" "http://www.w3.org/Graphics/SVG/1.1/DTD/svg11.dtd">
<svg version="1.1" id="图层_1" xmlns="http://www.w3.org/2000/svg" xmlns:xlink="http://www.w3.org/1999/xlink" x="0px" y="0px"
	 width="21.75px" height="11.34px" viewBox="0 0 21.75 11.34" enable-background="new 0 0 21.75 11.34" xml:space="preserve">
<rect y="0.001" fill="#040000" width="21.75" height="11.336"/>
<path fill="#050101" d="M19.736,1.511H2.012c-0.309,0-0.559,0.227-0.559,0.506v3.118c0,0.279,0.25,0.506,0.559,0.506h0.056
	c0.309,0,0.559,0.227,0.559,0.506v3.175c0,0.279,0.251,0.506,0.56,0.506h15.433c0.31,0,0.56-0.227,0.56-0.506V6.147
	c0-0.279,0.25-0.506,0.559-0.506s0.559-0.227,0.559-0.506V2.017C20.295,1.738,20.045,1.511,19.736,1.511"/>
<path fill="none" stroke="#BABAB9" stroke-width="0.5" stroke-miterlimit="10" d="M19.736,1.511H2.012
	c-0.309,0-0.559,0.227-0.559,0.506v3.118c0,0.279,0.25,0.506,0.559,0.506h0.056c0.309,0,0.559,0.227,0.559,0.506v3.175
	c0,0.279,0.251,0.506,0.56,0.506h15.433c0.31,0,0.56-0.227,0.56-0.506V6.147c0-0.279,0.25-0.506,0.559-0.506
	s0.559-0.227,0.559-0.506V2.017C20.295,1.738,20.045,1.511,19.736,1.511z"/>
<path fill="none" stroke="#BABAB9" stroke-width="0.5" stroke-miterlimit="10" d="M19.736,1.511H2.012
	c-0.309,0-0.559,0.227-0.559,0.506v3.118c0,0.279,0.25,0.506,0.559,0.506h0.056c0.309,0,0.559,0.227,0.559,0.506v3.175
	c0,0.279,0.251,0.506,0.56,0.506h15.433c0.31,0,0.56-0.227,0.56-0.506V6.147c0-0.279,0.25-0.506,0.559-0.506
	s0.559-0.227,0.559-0.506V2.017C20.295,1.738,20.045,1.511,19.736,1.511z"/>
<path fill="#696969" d="M17.947,9.203H3.801c-0.156,0-0.283-0.127-0.283-0.283V4.33c0-0.156,0.127-0.283,0.283-0.283h14.146
	c0.156,0,0.283,0.127,0.283,0.283v4.59C18.23,9.076,18.104,9.203,17.947,9.203"/>
<rect x="4.805" y="5.467" fill="#050101" width="1.388" height="2.314"/>
<rect x="7.494" y="5.467" fill="#050101" width="1.387" height="2.314"/>
<rect x="10.18" y="5.467" fill="#050101" width="1.388" height="2.314"/>
<rect x="12.869" y="5.467" fill="#050101" width="1.387" height="2.314"/>
<rect x="15.555" y="5.467" fill="#050101" width="1.388" height="2.314"/>
<rect x="4.933" y="6.328" fill="#BABAB9" width="1.134" height="0.594"/>
<rect x="7.619" y="6.328" fill="#BABAB9" width="1.135" height="0.594"/>
<rect x="10.308" y="6.328" fill="#BABAB9" width="1.134" height="0.594"/>
<rect x="12.994" y="6.328" fill="#BABAB9" width="1.135" height="0.594"/>
<rect x="15.683" y="6.328" fill="#BABAB9" width="1.134" height="0.594"/>
</svg>
