<?xml version="1.0" encoding="utf-8"?>
<!-- Generator: Adobe Illustrator 19.0.0, SVG Export Plug-In . SVG Version: 6.00 Build 0)  -->
<svg version="1.1" id="图层_1" xmlns="http://www.w3.org/2000/svg" xmlns:xlink="http://www.w3.org/1999/xlink" x="0px" y="0px"
	 width="47.8px" height="37.3px" viewBox="0 0 47.8 37.3" style="enable-background:new 0 0 47.8 37.3;" xml:space="preserve">
<style type="text/css">
	.st0{stroke:#FFF57F;stroke-width:2;stroke-miterlimit:10;}
	.st1{fill:#151209;}
	.st2{fill:#888888;}
</style>
<g id="XMLID_9384_">
	<path id="XMLID_12285_" class="st0" d="M45.3,1H2.4C1.6,1,1,1.6,1,2.4v31.2C1,34.4,1.6,35,2.4,35h12v1.3h18.9V35h12
		c0.8,0,1.4-0.6,1.4-1.4V2.4C46.8,1.6,46.1,1,45.3,1z"/>
	<g id="XMLID_12110_">
		<g id="XMLID_12279_">
			<rect id="XMLID_12280_" x="3.8" y="3.9" class="st1" width="40.2" height="28.2"/>
		</g>
		<rect id="XMLID_12278_" x="16.5" y="28.7" class="st2" width="14.8" height="3.4"/>
		<path id="XMLID_12275_" class="st2" d="M46.8,15.2v-4.8H45V2.9h-5.2V2h-5.1v0.9h-8.2V2h-5.1v0.9h-8.2V2H8v0.9H2.8v7.5H1v4.8h1.8
			v6.3H1v4.8h1.8v6.9H45v-6.9h1.8v-4.8H45v-6.3H46.8z M43,31.1H4.8V4.9H43V31.1z"/>
		<path id="XMLID_12111_" class="st1" d="M32.3,33.2H15.4v-5.6h16.9V33.2z M17.6,31h12.6v-1.3H17.6V31z"/>
	</g>
</g>
</svg>
