<?xml version="1.0" encoding="utf-8"?>
<!-- Generator: Adobe Illustrator 16.0.0, SVG Export Plug-In . SVG Version: 6.00 Build 0)  -->
<!DOCTYPE svg PUBLIC "-//W3C//DTD SVG 1.1//EN" "http://www.w3.org/Graphics/SVG/1.1/DTD/svg11.dtd">
<svg version="1.1" id="图层_1" xmlns="http://www.w3.org/2000/svg" xmlns:xlink="http://www.w3.org/1999/xlink" x="0px" y="0px"
	 width="50.23px" height="22.51px" viewBox="0 0 50.23 22.51" enable-background="new 0 0 50.23 22.51" xml:space="preserve">
<g>
	<rect y="-0.001" fill="#060404" width="50.232" height="22.513"/>
	<path fill="#464646" d="M37.672,19.344H12.559c-0.828,0-1.617-0.303-2.175-0.832l-4.272-4.057c-0.494-0.473-0.77-1.086-0.77-1.727
		v-6.74c0-1.413,1.317-2.559,2.945-2.559h33.652c1.629,0,2.949,1.146,2.949,2.559v6.74c0,0.641-0.275,1.254-0.772,1.727
		l-4.268,4.057C39.289,19.041,38.5,19.344,37.672,19.344"/>
	<path fill="none" stroke="#666666" stroke-width="0.75" stroke-miterlimit="10" d="M37.672,19.344H12.559
		c-0.828,0-1.617-0.303-2.175-0.832l-4.272-4.057c-0.494-0.473-0.77-1.086-0.77-1.727v-6.74c0-1.413,1.317-2.559,2.945-2.559h33.652
		c1.629,0,2.949,1.146,2.949,2.559v6.74c0,0.641-0.275,1.254-0.772,1.727l-4.268,4.057C39.289,19.041,38.5,19.344,37.672,19.344z"/>
</g>
</svg>
