<?xml version="1.0" encoding="utf-8"?>
<!-- Generator: Adobe Illustrator 19.0.0, SVG Export Plug-In . SVG Version: 6.00 Build 0)  -->
<svg version="1.1" id="图层_1" xmlns="http://www.w3.org/2000/svg" xmlns:xlink="http://www.w3.org/1999/xlink" x="0px" y="0px"
	 width="51px" height="41.7px" viewBox="0 0 51 41.7" style="enable-background:new 0 0 51 41.7;" xml:space="preserve">
<style type="text/css">
	.st0{fill:#151209;}
	.st1{fill:#E2DFD2;}
	.st2{fill:#46484C;stroke:#000000;stroke-miterlimit:10;}
</style>
<g id="XMLID_8644_">
	<path id="XMLID_8873_" class="st0" d="M49.9,41.7H1.2c-0.6,0-1.2-0.5-1.2-1.2L0,1.2C0,0.5,0.5,0,1.2,0l48.7,0C50.5,0,51,0.5,51,1.2
		v39.4C51,41.2,50.5,41.7,49.9,41.7z"/>
	<polygon id="XMLID_8742_" class="st1" points="51,20 51,14.7 49.1,14.7 49.1,1 2,1 2,14.7 0,14.7 0,20 2,20 2,27.1 0,27.1 0,32.3 
		2,32.3 2,40.7 7.8,40.7 7.8,41.7 13.5,41.7 13.5,40.7 22.7,40.7 22.7,41.7 28.4,41.7 28.4,40.7 37.5,40.7 37.5,41.7 43.2,41.7 
		43.2,40.7 49.1,40.7 49.1,32.3 51,32.3 51,27.1 49.1,27.1 49.1,20 	"/>
	<path id="XMLID_8748_" class="st2" d="M8,11.1v18.3c0,0.3,0.2,0.5,0.5,0.5h5.9c0.3,0,0.5,0.2,0.5,0.5v3.8c0,0.3,0.2,0.5,0.5,0.5
		h2.8c0.3,0,0.5,0.2,0.5,0.5v1.6c0,0.3,0.2,0.5,0.5,0.5h12.6c0.3,0,0.5-0.2,0.5-0.5v-1.6c0-0.3,0.2-0.5,0.5-0.5h2.8
		c0.3,0,0.5-0.2,0.5-0.5v-3.8c0-0.3,0.2-0.5,0.5-0.5h5.9c0.3,0,0.5-0.2,0.5-0.5V11.1c0-0.3-0.2-0.5-0.5-0.5H8.5
		C8.2,10.6,8,10.8,8,11.1z"/>
</g>
</svg>
