<?xml version="1.0" encoding="utf-8"?>
<!-- Generator: Adobe Illustrator 19.0.0, SVG Export Plug-In . SVG Version: 6.00 Build 0)  -->
<svg version="1.1" id="图层_1" xmlns="http://www.w3.org/2000/svg" xmlns:xlink="http://www.w3.org/1999/xlink" x="0px" y="0px"
	 width="51.7px" height="44px" viewBox="0 0 51.7 44" style="enable-background:new 0 0 51.7 44;" xml:space="preserve">
<style type="text/css">
	.st0{fill:#B7B6B6;}
	.st1{fill:#060404;}
	.st2{fill:#221714;}
	.st3{fill:#9D9D9E;}
	.st4{fill:#7F8080;}
	.st5{fill:#5D5E60;}
</style>
<g id="XMLID_64_">
	<rect id="XMLID_238_" x="1" y="1" class="st0" width="49.6" height="42"/>
	<path id="XMLID_65_" class="st1" d="M51.6,44H0V0h51.6V44z M2,42h47.6V2H2V42z"/>
</g>
<g id="XMLID_62_">
	<path id="XMLID_235_" class="st2" d="M6.3,21.9H6H5.6c-0.3,0-0.5,0.2-0.5,0.5v0.5c0,0.3,0.2,0.5,0.5,0.5H6v5.7
		c0,0.3,0.2,0.5,0.5,0.5h7.3v5c0,0.1,0.1,0.2,0.3,0.2H18v2.7c0,0.1,0.1,0.2,0.2,0.2h15.2c0.1,0,0.2-0.1,0.2-0.2v-2.7h3.9
		c0.2,0,0.3-0.1,0.3-0.2v-5h7.3c0.3,0,0.5-0.2,0.5-0.5v-5.7H46c0.3,0,0.5-0.2,0.5-0.5v-0.5c0-0.3-0.2-0.5-0.5-0.5h-0.4h-0.4H45v-6.1
		h0.3h0.4H46c0.3,0,0.5-0.2,0.5-0.5v-0.5c0-0.3-0.2-0.5-0.5-0.5h-0.4v-6c0-0.3-0.2-0.5-0.5-0.5H6.5C6.2,7.8,6,8,6,8.3v6H5.6
		c-0.3,0-0.5,0.2-0.5,0.5v0.5c0,0.3,0.2,0.5,0.5,0.5H6h0.4h0.3v6.1H6.3z"/>
</g>
<g id="XMLID_60_">
	<rect id="XMLID_234_" x="36.9" y="10.3" class="st3" width="1.5" height="10.7"/>
</g>
<g id="XMLID_58_">
	<rect id="XMLID_233_" x="36.9" y="10.3" class="st4" width="1.5" height="4.8"/>
</g>
<g id="XMLID_56_">
	<rect id="XMLID_232_" x="36.9" y="10.3" class="st5" width="1.5" height="3.1"/>
</g>
<g id="XMLID_54_">
	<rect id="XMLID_231_" x="33.5" y="10.3" class="st3" width="1.5" height="10.7"/>
</g>
<g id="XMLID_52_">
	<rect id="XMLID_230_" x="33.5" y="10.3" class="st4" width="1.5" height="4.8"/>
</g>
<g id="XMLID_50_">
	<rect id="XMLID_229_" x="33.5" y="10.3" class="st5" width="1.5" height="3.1"/>
</g>
<g id="XMLID_48_">
	<rect id="XMLID_228_" x="30.2" y="10.3" class="st3" width="1.5" height="10.7"/>
</g>
<g id="XMLID_46_">
	<rect id="XMLID_227_" x="30.2" y="10.3" class="st4" width="1.5" height="4.8"/>
</g>
<g id="XMLID_44_">
	<rect id="XMLID_226_" x="30.2" y="10.3" class="st5" width="1.5" height="3.1"/>
</g>
<g id="XMLID_42_">
	<rect id="XMLID_225_" x="26.8" y="10.3" class="st3" width="1.5" height="10.7"/>
</g>
<g id="XMLID_40_">
	<rect id="XMLID_224_" x="26.8" y="10.3" class="st4" width="1.5" height="4.8"/>
</g>
<g id="XMLID_38_">
	<rect id="XMLID_223_" x="26.8" y="10.3" class="st5" width="1.5" height="3.1"/>
</g>
<g id="XMLID_36_">
	<rect id="XMLID_222_" x="23.4" y="10.3" class="st3" width="1.5" height="10.7"/>
</g>
<g id="XMLID_34_">
	<rect id="XMLID_221_" x="23.4" y="10.3" class="st4" width="1.5" height="4.8"/>
</g>
<g id="XMLID_32_">
	<rect id="XMLID_220_" x="23.4" y="10.3" class="st5" width="1.5" height="3.1"/>
</g>
<g id="XMLID_30_">
	<rect id="XMLID_219_" x="20" y="10.3" class="st3" width="1.5" height="10.7"/>
</g>
<g id="XMLID_28_">
	<rect id="XMLID_218_" x="20" y="10.3" class="st4" width="1.5" height="4.8"/>
</g>
<g id="XMLID_26_">
	<rect id="XMLID_217_" x="20" y="10.3" class="st5" width="1.5" height="3.1"/>
</g>
<g id="XMLID_24_">
	<rect id="XMLID_216_" x="16.6" y="10.3" class="st3" width="1.5" height="10.7"/>
</g>
<g id="XMLID_22_">
	<rect id="XMLID_215_" x="16.6" y="10.3" class="st4" width="1.5" height="4.8"/>
</g>
<g id="XMLID_20_">
	<rect id="XMLID_214_" x="16.6" y="10.3" class="st5" width="1.5" height="3.1"/>
</g>
<g id="XMLID_18_">
	<rect id="XMLID_213_" x="13.2" y="10.3" class="st3" width="1.5" height="10.7"/>
</g>
<g id="XMLID_16_">
	<rect id="XMLID_212_" x="13.2" y="10.3" class="st4" width="1.5" height="4.8"/>
</g>
<g id="XMLID_14_">
	<rect id="XMLID_211_" x="13.2" y="10.3" class="st5" width="1.5" height="3.1"/>
</g>
</svg>
