<?xml version="1.0" encoding="utf-8"?>
<!-- Generator: Adobe Illustrator 19.0.0, SVG Export Plug-In . SVG Version: 6.00 Build 0)  -->
<svg version="1.1" id="图层_1" xmlns="http://www.w3.org/2000/svg" xmlns:xlink="http://www.w3.org/1999/xlink" x="0px" y="0px"
	 width="51px" height="35.7px" viewBox="0 0 51 35.7" style="enable-background:new 0 0 51 35.7;" xml:space="preserve">
<style type="text/css">
	.st0{fill:#151209;}
	.st1{fill:#34322C;}
	.st2{fill:#898989;}
	.st3{fill:#231815;}
	.st4{fill:#9F9E9F;}
	.st5{fill:#7F8081;}
	.st6{fill:#5E5E60;}
	.st7{fill:url(#XMLID_2_);stroke:#231815;stroke-width:0.4513;stroke-miterlimit:10;}
	.st8{fill:url(#XMLID_3_);stroke:#231815;stroke-width:0.9025;stroke-miterlimit:10;}
</style>
<g id="XMLID_12513_">
	<g id="XMLID_12578_">
		<rect id="XMLID_12579_" class="st0" width="51" height="35.7"/>
	</g>
	<g id="XMLID_12575_">
		<rect id="XMLID_12577_" x="3.1" y="2.1" class="st1" width="44.9" height="31.4"/>
	</g>
	<rect id="XMLID_12573_" x="17.3" y="29.7" class="st2" width="16.5" height="3.8"/>
	<path id="XMLID_12570_" class="st2" d="M51,14.7V9.4h-2V1h-5.9V0h-5.7v1h-9.1V0h-5.7v1h-9.1V0H7.8v1H2v8.3H0v5.3h2v7H0V27h2v7.7
		h47.1V27h2v-5.3h-2v-7H51z M46.8,32.5H4.2V3.3h42.7L46.8,32.5L46.8,32.5z"/>
	<path id="XMLID_12567_" class="st0" d="M34.9,34.8H16.1v-6.2h18.8V34.8z M18.5,32.4h14.1v-1.5H18.5V32.4z"/>
	<g id="XMLID_12514_">
		<g id="XMLID_12517_">
			<path id="XMLID_12566_" class="st3" d="M43,18.6h0.3h0.3c0.2,0,0.4-0.2,0.4-0.4v-0.4c0-0.2-0.2-0.4-0.4-0.4h-0.3v-5.2
				c0-0.2-0.2-0.4-0.4-0.4h-6.6V7.1c0-0.1-0.1-0.2-0.3-0.2h-3.5V4.5c0-0.1-0.1-0.1-0.2-0.1H18.8c-0.1,0-0.2,0.1-0.2,0.1v2.5h-3.5
				c-0.1,0-0.3,0.1-0.3,0.2v4.5H8.3c-0.2,0-0.4,0.2-0.4,0.4v5.2H7.5c-0.2,0-0.4,0.2-0.4,0.4v0.4c0,0.2,0.2,0.4,0.4,0.4h0.3h0.3h0.3
				v5.5H8.2H7.8H7.5c-0.2,0-0.4,0.2-0.4,0.4V25c0,0.2,0.2,0.4,0.4,0.4h0.3v5.4c0,0.2,0.2,0.4,0.4,0.4h34.6c0.2,0,0.4-0.2,0.4-0.4
				v-5.4h0.3c0.2,0,0.4-0.2,0.4-0.4v-0.4c0-0.2-0.2-0.4-0.4-0.4h-0.3H43h-0.3v-5.5L43,18.6z"/>
			<g id="XMLID_12518_">
				<g id="XMLID_12562_">
					<rect id="XMLID_12565_" x="14.3" y="19.4" class="st4" width="1.4" height="9.7"/>
					<rect id="XMLID_12564_" x="14.3" y="24.8" class="st5" width="1.4" height="4.4"/>
					<rect id="XMLID_12563_" x="14.3" y="26.3" class="st6" width="1.4" height="2.8"/>
				</g>
				<g id="XMLID_12558_">
					<rect id="XMLID_12561_" x="17.3" y="19.4" class="st4" width="1.4" height="9.7"/>
					<rect id="XMLID_12560_" x="17.3" y="24.8" class="st5" width="1.4" height="4.4"/>
					<rect id="XMLID_12559_" x="17.3" y="26.3" class="st6" width="1.4" height="2.8"/>
				</g>
				<g id="XMLID_12553_">
					<rect id="XMLID_12557_" x="20.4" y="19.4" class="st4" width="1.4" height="9.7"/>
					<rect id="XMLID_12556_" x="20.4" y="24.8" class="st5" width="1.4" height="4.4"/>
					<rect id="XMLID_12554_" x="20.4" y="26.3" class="st6" width="1.4" height="2.8"/>
				</g>
				<g id="XMLID_12549_">
					<rect id="XMLID_12552_" x="23.4" y="19.4" class="st4" width="1.4" height="9.7"/>
					<rect id="XMLID_12551_" x="23.4" y="24.8" class="st5" width="1.4" height="4.4"/>
					<rect id="XMLID_12550_" x="23.4" y="26.3" class="st6" width="1.4" height="2.8"/>
				</g>
				<g id="XMLID_12545_">
					<rect id="XMLID_12548_" x="26.4" y="19.4" class="st4" width="1.4" height="9.7"/>
					<rect id="XMLID_12547_" x="26.4" y="24.8" class="st5" width="1.4" height="4.4"/>
					<rect id="XMLID_12546_" x="26.4" y="26.3" class="st6" width="1.4" height="2.8"/>
				</g>
				<g id="XMLID_12541_">
					<rect id="XMLID_12544_" x="29.5" y="19.4" class="st4" width="1.4" height="9.7"/>
					<rect id="XMLID_12543_" x="29.5" y="24.8" class="st5" width="1.4" height="4.4"/>
					<rect id="XMLID_12542_" x="29.5" y="26.3" class="st6" width="1.4" height="2.8"/>
				</g>
				<g id="XMLID_12536_">
					<rect id="XMLID_12540_" x="32.5" y="19.4" class="st4" width="1.4" height="9.7"/>
					<rect id="XMLID_12539_" x="32.5" y="24.8" class="st5" width="1.4" height="4.4"/>
					<rect id="XMLID_12537_" x="32.5" y="26.3" class="st6" width="1.4" height="2.8"/>
				</g>
				<g id="XMLID_12532_">
					<rect id="XMLID_12535_" x="35.5" y="19.4" class="st4" width="1.4" height="9.7"/>
					<rect id="XMLID_12534_" x="35.5" y="24.8" class="st5" width="1.4" height="4.4"/>
					<rect id="XMLID_12533_" x="35.5" y="26.3" class="st6" width="1.4" height="2.8"/>
				</g>
			</g>
		</g>
		
			<linearGradient id="XMLID_2_" gradientUnits="userSpaceOnUse" x1="16.6471" y1="27.1482" x2="6.0517" y2="27.1482" gradientTransform="matrix(1 0 0 -1 0 36.72)">
			<stop  offset="0" style="stop-color:#F6EA5A"/>
			<stop  offset="1" style="stop-color:#9F8826"/>
		</linearGradient>
		<rect id="XMLID_12516_" x="6.3" y="7.5" class="st7" width="8.5" height="4.2"/>
		
			<linearGradient id="XMLID_3_" gradientUnits="userSpaceOnUse" x1="46.5108" y1="27.1482" x2="35.9169" y2="27.1482" gradientTransform="matrix(1 0 0 -1 0 36.72)">
			<stop  offset="0" style="stop-color:#298540"/>
			<stop  offset="1" style="stop-color:#0B4626"/>
		</linearGradient>
		<rect id="XMLID_12515_" x="36.2" y="7.5" class="st8" width="8.5" height="4.2"/>
	</g>
</g>
</svg>
