<?xml version="1.0" encoding="utf-8"?>
<!-- Generator: Adobe Illustrator 16.0.0, SVG Export Plug-In . SVG Version: 6.00 Build 0)  -->
<!DOCTYPE svg PUBLIC "-//W3C//DTD SVG 1.1//EN" "http://www.w3.org/Graphics/SVG/1.1/DTD/svg11.dtd">
<svg version="1.1" id="图层_1" xmlns="http://www.w3.org/2000/svg" xmlns:xlink="http://www.w3.org/1999/xlink" x="0px" y="0px"
	 width="83.01px" height="28.96px" viewBox="0 0 83.01 28.96" enable-background="new 0 0 83.01 28.96" xml:space="preserve">
<g>
	<g>
		<path fill="#2F2F30" d="M83.014,15.014c0.011,3.313-2.667,6.01-5.98,6.02l-71,0.227c-3.313,0.011-6.008-2.667-6.02-5.98L0,10.529
			c-0.012-3.313,2.666-6.009,5.98-6.019l70.999-0.228c3.313-0.01,6.009,2.667,6.019,5.981L83.014,15.014z"/>
	</g>
	<g>
		<path fill="#E5E5E5" d="M56.461,28.854L26.654,28.95c-4.133,0.013-7.699-3.538-8.52-8.478L16.1,8.182
			c-0.622-4.209,2.166-8.055,5.851-8.066L60.981-0.01c3.685-0.012,6.497,3.815,5.901,8.029l-1.959,12.305
			C64.138,25.268,60.594,28.842,56.461,28.854z"/>
	</g>
	<g>
		<path fill="#2D2D2D" d="M53.78,25.136l-24.47,0.077c-3.391,0.011-6.32-2.62-6.989-6.283l-1.669-9.114
			c-0.51-3.122,1.779-5.973,4.805-5.982l32.041-0.102c3.024-0.011,5.333,2.825,4.844,5.95l-1.611,9.125
			C60.082,22.475,57.174,25.124,53.78,25.136"/>
	</g>
	<g>
		<path fill="#BBBABA" d="M20.081,8.94c0-3.082,2.411-5.598,5.374-5.607l32.041-0.102c1.402-0.005,2.73,0.547,3.741,1.555
			c1.274,1.271,1.887,3.154,1.599,4.973l-1.613,9.135c-0.688,3.894-3.817,6.729-7.44,6.742l-24.47,0.077
			c-3.626,0.012-6.772-2.804-7.483-6.694L20.16,9.904C20.107,9.579,20.081,9.258,20.081,8.94z M61.907,8.843
			c0-1.257-0.501-2.477-1.376-3.349C59.71,4.676,58.634,4.228,57.5,4.231L25.459,4.333c-2.414,0.008-4.378,2.074-4.378,4.607
			c0,0.264,0.021,0.53,0.064,0.794l1.668,9.104c0.623,3.414,3.354,5.884,6.495,5.874l24.47-0.077
			c3.139-0.011,5.855-2.499,6.46-5.916l1.611-9.125C61.888,9.348,61.907,9.094,61.907,8.843z"/>
	</g>
	<g>
		<path fill="#040000" d="M28.587,9.821c0.004,1.451-1.167,2.634-2.614,2.64c-1.45,0.003-2.627-1.171-2.631-2.624
			c-0.006-1.453,1.166-2.635,2.612-2.639C27.405,7.194,28.583,8.368,28.587,9.821"/>
	</g>
	<g>
		<path fill="#040000" d="M36.531,9.796c0.004,1.453-1.166,2.636-2.613,2.64c-1.45,0.005-2.626-1.169-2.631-2.623
			c-0.007-1.452,1.165-2.635,2.614-2.64C35.35,7.169,36.526,8.344,36.531,9.796"/>
	</g>
	<g>
		<path fill="#040000" d="M44.477,9.771c0.003,1.453-1.167,2.636-2.616,2.639c-1.449,0.006-2.625-1.169-2.632-2.623
			c-0.003-1.451,1.167-2.634,2.616-2.639C43.293,7.144,44.472,8.317,44.477,9.771"/>
	</g>
	<g>
		<path fill="#040000" d="M52.42,9.745c0.005,1.452-1.166,2.636-2.614,2.639c-1.451,0.006-2.629-1.169-2.632-2.62
			c-0.007-1.455,1.163-2.636,2.615-2.642C51.236,7.117,52.413,8.292,52.42,9.745"/>
	</g>
	<g>
		<path fill="#040000" d="M60.363,9.72c0.005,1.452-1.167,2.635-2.614,2.641c-1.448,0.004-2.628-1.172-2.632-2.623
			c-0.007-1.453,1.166-2.635,2.616-2.64C59.181,7.093,60.358,8.269,60.363,9.72"/>
	</g>
	<g>
		<path fill="#040000" d="M32.552,19.204c0.005,1.454-1.165,2.635-2.612,2.641c-1.45,0.004-2.629-1.17-2.633-2.622
			c-0.005-1.454,1.167-2.636,2.616-2.641C31.37,16.578,32.548,17.753,32.552,19.204"/>
	</g>
	<g>
		<path fill="#040000" d="M40.498,19.18c0.003,1.453-1.167,2.636-2.614,2.639c-1.452,0.005-2.629-1.168-2.632-2.622
			c-0.005-1.452,1.165-2.635,2.613-2.639C39.314,16.552,40.493,17.727,40.498,19.18"/>
	</g>
	<g>
		<path fill="#040000" d="M48.441,19.155c0.005,1.451-1.166,2.635-2.614,2.639s-2.627-1.17-2.632-2.623
			c-0.007-1.452,1.167-2.635,2.616-2.639C47.258,16.527,48.438,17.702,48.441,19.155"/>
	</g>
	<g>
		<path fill="#040000" d="M56.385,19.129c0.006,1.454-1.165,2.635-2.614,2.64c-1.448,0.004-2.627-1.17-2.632-2.623
			s1.167-2.635,2.614-2.639C55.201,16.501,56.38,17.677,56.385,19.129"/>
	</g>
	<g>
		<path fill="#BEBDBE" d="M1.533,10.186C1.531,9.473,1.915,8.803,2.535,8.443l4.691-2.729c0.617-0.357,1.385-0.36,2.004-0.006
			l4.712,2.697c0.618,0.357,1.007,1.023,1.009,1.737l0.018,5.428c0.002,0.713-0.381,1.38-0.998,1.74l-4.695,2.73
			c-0.615,0.357-1.384,0.36-2.004,0.007l-4.71-2.7c-0.62-0.357-1.009-1.021-1.012-1.734L1.533,10.186z"/>
	</g>
	<g>
		<path fill="#909090" d="M14.4,15.573c0.002,0.514-0.271,0.99-0.717,1.249l-4.689,2.729C8.549,19.811,8,19.812,7.553,19.557
			l-4.709-2.699c-0.447-0.256-0.724-0.731-0.726-1.246l-0.017-5.427C2.1,9.67,2.373,9.192,2.818,8.935l4.692-2.73
			C7.955,5.947,8.505,5.945,8.951,6.2l4.707,2.699c0.447,0.255,0.724,0.731,0.725,1.246L14.4,15.573 M15.533,15.569l-0.018-5.428
			c-0.002-0.918-0.497-1.771-1.294-2.225l-4.707-2.7C8.719,4.761,7.733,4.764,6.939,5.226l-4.69,2.73
			c-0.794,0.459-1.285,1.314-1.282,2.232l0.018,5.427c0.002,0.916,0.497,1.769,1.295,2.225l4.71,2.699
			c0.796,0.455,1.78,0.452,2.573-0.009l4.691-2.729C15.047,17.341,15.535,16.485,15.533,15.569"/>
	</g>
	<g>
		<path fill="#CECECF" d="M8.226,18.331c-3.019,0.01-5.477-2.424-5.487-5.434C2.73,9.885,5.172,7.435,8.19,7.425
			c3.021-0.01,5.478,2.425,5.487,5.437C13.688,15.872,11.246,18.321,8.226,18.331"/>
	</g>
	<g>
		<path fill="#909090" d="M2.613,12.882c0-3.066,2.502-5.572,5.577-5.582c1.494-0.005,2.9,0.571,3.961,1.621
			c1.06,1.052,1.646,2.45,1.651,3.939c0,3.084-2.502,5.586-5.577,5.596c-3.083,0.01-5.602-2.483-5.612-5.559V12.882z M13.553,12.879
			c-0.005-1.44-0.564-2.776-1.577-3.78C10.962,8.096,9.618,7.545,8.19,7.55c-2.938,0.01-5.327,2.401-5.327,5.332H2.738l0.125,0.016
			c0.011,2.936,2.416,5.318,5.362,5.309C11.163,18.197,13.553,15.808,13.553,12.879z"/>
	</g>
	<g>
		<path fill="#424244" d="M8.219,16.247c-1.865,0.006-3.382-1.497-3.388-3.358C4.825,11.029,6.332,9.516,8.197,9.51
			s3.383,1.498,3.389,3.357C11.592,14.729,10.084,16.24,8.219,16.247"/>
	</g>
	<g>
		<path fill="#040000" d="M4.706,12.878c0-1.92,1.566-3.487,3.491-3.493c1.932-0.006,3.508,1.556,3.514,3.481
			c0,1.932-1.566,3.499-3.492,3.506c-1.931,0.006-3.507-1.557-3.513-3.482V12.878z M11.461,12.878
			c-0.006-1.799-1.47-3.249-3.264-3.243c-1.787,0.006-3.241,1.461-3.241,3.243H4.831l0.125,0.011
			c0.006,1.788,1.469,3.239,3.263,3.233C10.006,16.116,11.461,14.66,11.461,12.878z"/>
	</g>
	<g>
		<path fill="#909090" d="M8.211,13.925c-0.578,0.002-1.052-0.464-1.052-1.043c-0.003-0.577,0.468-1.048,1.045-1.05
			c0.582-0.002,1.052,0.465,1.055,1.043C9.26,13.453,8.793,13.923,8.211,13.925"/>
	</g>
	<g>
		<path fill="#BEBDBE" d="M67.788,9.975c-0.002-0.714,0.382-1.383,1.001-1.743l4.691-2.728c0.619-0.356,1.387-0.36,2.006-0.006
			l4.711,2.697c0.619,0.355,1.006,1.022,1.008,1.737l0.018,5.427c0.002,0.714-0.381,1.38-0.998,1.741l-4.693,2.73
			c-0.616,0.357-1.386,0.36-2.006,0.007l-4.71-2.699c-0.62-0.358-1.007-1.023-1.009-1.736L67.788,9.975z"/>
	</g>
	<g>
		<path fill="#909090" d="M80.654,15.362c0.002,0.513-0.27,0.99-0.717,1.249l-4.689,2.729c-0.443,0.259-0.992,0.26-1.441,0.005
			l-4.708-2.7c-0.446-0.256-0.725-0.73-0.725-1.245l-0.019-5.427c0-0.516,0.272-0.992,0.717-1.25l4.693-2.73
			c0.443-0.258,0.993-0.259,1.44-0.005l4.707,2.7c0.446,0.255,0.724,0.731,0.726,1.246L80.654,15.362 M81.789,15.358l-0.018-5.427
			c-0.003-0.918-0.498-1.771-1.295-2.226l-4.708-2.7c-0.796-0.456-1.78-0.453-2.572,0.008l-4.693,2.73
			c-0.794,0.46-1.283,1.315-1.28,2.232l0.017,5.428c0.003,0.916,0.501,1.769,1.296,2.225l4.709,2.698
			c0.795,0.456,1.781,0.453,2.574-0.008l4.689-2.729C81.303,17.129,81.791,16.274,81.789,15.358"/>
	</g>
	<g>
		<path fill="#CECECF" d="M74.48,18.12c-3.02,0.009-5.477-2.425-5.486-5.436s2.434-5.462,5.451-5.472
			c3.021-0.01,5.479,2.426,5.486,5.438C79.941,15.661,77.501,18.109,74.48,18.12"/>
	</g>
	<g>
		<path fill="#909090" d="M68.869,12.667c0-3.066,2.501-5.569,5.576-5.579c1.494-0.005,2.901,0.571,3.961,1.622
			c1.061,1.051,1.646,2.45,1.65,3.94c0,3.083-2.501,5.584-5.576,5.595c-3.084,0.009-5.602-2.484-5.611-5.56V12.667z M79.807,12.669
			c-0.004-1.441-0.563-2.777-1.576-3.78c-1.013-1.005-2.356-1.555-3.785-1.551c-2.937,0.01-5.326,2.4-5.326,5.329h-0.125
			l0.125,0.018c0.01,2.938,2.414,5.319,5.361,5.311C77.417,17.985,79.807,15.596,79.807,12.669z"/>
	</g>
	<g>
		<path fill="#424244" d="M74.473,16.036c-1.864,0.006-3.38-1.497-3.387-3.358c-0.006-1.86,1.5-3.373,3.365-3.379
			s3.383,1.498,3.391,3.357C77.848,14.517,76.339,16.029,74.473,16.036"/>
	</g>
	<g>
		<path fill="#040000" d="M70.961,12.667c0-1.92,1.565-3.487,3.49-3.493c1.931-0.006,3.508,1.556,3.516,3.481
			c0,1.932-1.567,3.499-3.494,3.506c-1.929,0.006-3.505-1.557-3.512-3.481V12.667z M77.717,12.667
			c-0.008-1.799-1.473-3.249-3.266-3.243c-1.786,0.006-3.24,1.461-3.24,3.243h-0.125l0.125,0.011
			c0.007,1.788,1.47,3.239,3.262,3.233C76.262,15.905,77.717,14.449,77.717,12.667z"/>
	</g>
	<g>
		<path fill="#909090" d="M74.467,13.713c-0.578,0.003-1.051-0.464-1.053-1.042c-0.002-0.579,0.467-1.049,1.045-1.051
			c0.581-0.001,1.053,0.466,1.055,1.044C75.514,13.242,75.047,13.712,74.467,13.713"/>
	</g>
</g>
</svg>
