<?xml version="1.0" encoding="utf-8"?>
<!-- Generator: Adobe Illustrator 19.0.0, SVG Export Plug-In . SVG Version: 6.00 Build 0)  -->
<svg version="1.1" id="图层_1" xmlns="http://www.w3.org/2000/svg" xmlns:xlink="http://www.w3.org/1999/xlink" x="0px" y="0px"
	 width="33.5px" height="36.3px" viewBox="0 0 33.5 36.3" style="enable-background:new 0 0 33.5 36.3;" xml:space="preserve">
<style type="text/css">
	.st0{fill:#5A5A5A;}
	.st1{fill:#231815;}
	.st2{fill:#3F3F41;}
	.st3{fill:#9E9E9E;}
	.st4{fill:#DEDEDD;}
	.st5{fill:#7F8080;}
	.st6{fill:#080304;}
</style>
<g id="XMLID_14504_">
	<rect id="XMLID_14564_" class="st0" width="33.5" height="36.3"/>
	<g id="XMLID_12323_">
		<polygon id="XMLID_14502_" class="st1" points="26.9,9 26.9,5.9 22.4,5.9 22.4,2.7 11.1,2.7 11.1,5.9 6.6,5.9 6.6,9 3.6,9 
			3.6,33.6 29.9,33.6 29.9,9 		"/>
		<g id="XMLID_12354_">
			<rect id="XMLID_14501_" x="5.2" y="25.7" class="st2" width="23.1" height="6.1"/>
			<g id="XMLID_14492_">
				<g id="XMLID_14499_">
					<rect id="XMLID_14500_" x="8.3" y="21.1" class="st3" width="1.2" height="9.3"/>
				</g>
				<g id="XMLID_14497_">
					<rect id="XMLID_14498_" x="8.3" y="21.1" class="st4" width="1.2" height="4.6"/>
				</g>
				<g id="XMLID_14495_">
					<rect id="XMLID_14496_" x="8.3" y="21.1" class="st5" width="1.2" height="1.6"/>
				</g>
				<g id="XMLID_14493_">
					<rect id="XMLID_14494_" x="8.3" y="28.8" class="st6" width="1.2" height="1.5"/>
				</g>
			</g>
			<g id="XMLID_14483_">
				<g id="XMLID_14490_">
					<rect id="XMLID_14491_" x="11.5" y="21.1" class="st3" width="1.2" height="9.3"/>
				</g>
				<g id="XMLID_14488_">
					<rect id="XMLID_14489_" x="11.5" y="21.1" class="st4" width="1.2" height="4.6"/>
				</g>
				<g id="XMLID_14486_">
					<rect id="XMLID_14487_" x="11.5" y="21.1" class="st5" width="1.2" height="1.6"/>
				</g>
				<g id="XMLID_14484_">
					<rect id="XMLID_14485_" x="11.5" y="28.8" class="st6" width="1.2" height="1.5"/>
				</g>
			</g>
			<g id="XMLID_14474_">
				<g id="XMLID_14481_">
					<rect id="XMLID_14482_" x="14.6" y="21.1" class="st3" width="1.2" height="9.3"/>
				</g>
				<g id="XMLID_14479_">
					<rect id="XMLID_14480_" x="14.6" y="21.1" class="st4" width="1.2" height="4.6"/>
				</g>
				<g id="XMLID_14477_">
					<rect id="XMLID_14478_" x="14.6" y="21.1" class="st5" width="1.2" height="1.6"/>
				</g>
				<g id="XMLID_14475_">
					<rect id="XMLID_14476_" x="14.6" y="28.8" class="st6" width="1.2" height="1.5"/>
				</g>
			</g>
			<g id="XMLID_14465_">
				<g id="XMLID_14472_">
					<rect id="XMLID_14473_" x="17.7" y="21.1" class="st3" width="1.2" height="9.3"/>
				</g>
				<g id="XMLID_14470_">
					<rect id="XMLID_14471_" x="17.7" y="21.1" class="st4" width="1.2" height="4.6"/>
				</g>
				<g id="XMLID_14468_">
					<rect id="XMLID_14469_" x="17.7" y="21.1" class="st5" width="1.2" height="1.6"/>
				</g>
				<g id="XMLID_14466_">
					<rect id="XMLID_14467_" x="17.7" y="28.8" class="st6" width="1.2" height="1.5"/>
				</g>
			</g>
			<g id="XMLID_14456_">
				<g id="XMLID_14463_">
					<rect id="XMLID_14464_" x="20.8" y="21.1" class="st3" width="1.2" height="9.3"/>
				</g>
				<g id="XMLID_14461_">
					<rect id="XMLID_14462_" x="20.8" y="21.1" class="st4" width="1.2" height="4.6"/>
				</g>
				<g id="XMLID_14459_">
					<rect id="XMLID_14460_" x="20.8" y="21.1" class="st5" width="1.2" height="1.6"/>
				</g>
				<g id="XMLID_14457_">
					<rect id="XMLID_14458_" x="20.8" y="28.8" class="st6" width="1.2" height="1.5"/>
				</g>
			</g>
			<g id="XMLID_12355_">
				<g id="XMLID_14454_">
					<rect id="XMLID_14455_" x="23.9" y="21.1" class="st3" width="1.2" height="9.3"/>
				</g>
				<g id="XMLID_14452_">
					<rect id="XMLID_14453_" x="23.9" y="21.1" class="st4" width="1.2" height="4.6"/>
				</g>
				<g id="XMLID_14450_">
					<rect id="XMLID_14451_" x="23.9" y="21.1" class="st5" width="1.2" height="1.6"/>
				</g>
				<g id="XMLID_14445_">
					<rect id="XMLID_14449_" x="23.9" y="28.8" class="st6" width="1.2" height="1.5"/>
				</g>
			</g>
		</g>
	</g>
</g>
</svg>
