<?xml version="1.0" encoding="utf-8"?>
<!-- Generator: Adobe Illustrator 16.0.0, SVG Export Plug-In . SVG Version: 6.00 Build 0)  -->
<!DOCTYPE svg PUBLIC "-//W3C//DTD SVG 1.1//EN" "http://www.w3.org/Graphics/SVG/1.1/DTD/svg11.dtd">
<svg version="1.1" id="图层_1" xmlns="http://www.w3.org/2000/svg" xmlns:xlink="http://www.w3.org/1999/xlink" x="0px" y="0px"
	 width="33.23px" height="24.28px" viewBox="0 0 33.23 24.28" enable-background="new 0 0 33.23 24.28" xml:space="preserve">
<g>
	<polygon fill="#040000" points="33.232,13.57 33.232,12.277 31.939,12.277 31.939,7.939 24.74,7.939 24.74,4.154 21.047,4.154 
		21.047,0 19.107,0 17.969,0 15.261,0 14.215,0 12.184,0 12.184,4.154 8.491,4.154 8.491,7.939 1.292,7.939 1.292,12.277 
		-0.001,12.277 -0.001,13.57 2.152,13.57 2.152,19.201 -0.001,19.201 -0.001,20.309 1.229,20.309 1.229,24.279 14.215,24.279 
		15.261,24.279 17.969,24.279 19.107,24.279 32.063,24.279 32.063,20.309 33.232,20.309 33.232,19.201 31.264,19.201 31.264,13.57 	
		"/>
</g>
</svg>
