<?xml version="1.0" encoding="utf-8"?>
<!-- Generator: Adobe Illustrator 19.0.0, SVG Export Plug-In . SVG Version: 6.00 Build 0)  -->
<svg version="1.1" id="图层_1" xmlns="http://www.w3.org/2000/svg" xmlns:xlink="http://www.w3.org/1999/xlink" x="0px" y="0px"
	 width="51.7px" height="44px" viewBox="0 0 51.7 44" style="enable-background:new 0 0 51.7 44;" xml:space="preserve">
<style type="text/css">
	.st0{fill:#B7B6B6;}
	.st1{fill:#060404;}
	.st2{fill:#221714;}
	.st3{fill:#9E9C9D;}
	.st4{fill:#7F8080;}
	.st5{fill:#5D5E60;}
	.st6{fill:url(#XMLID_60_);stroke:#221714;stroke-width:0.2835;stroke-miterlimit:10;}
	.st7{fill:url(#XMLID_61_);stroke:#221714;stroke-width:0.2835;stroke-miterlimit:10;}
</style>
<g id="XMLID_55_">
	<rect id="XMLID_59_" x="1" y="1" class="st0" width="49.6" height="42"/>
	<path id="XMLID_56_" class="st1" d="M51.6,44H0V0h51.6V44z M2,42h47.6V2H2V42z"/>
</g>
<g id="XMLID_2_">
	<g id="XMLID_53_">
		<path id="XMLID_54_" class="st2" d="M43.8,23.1h0.3h0.3c0.3,0,0.5-0.2,0.5-0.5v-0.5c0-0.3-0.2-0.5-0.5-0.5h-0.3v-5.3
			c0-0.3-0.2-0.5-0.5-0.5h-6.8v-4.7c0-0.1-0.1-0.2-0.3-0.2H33V8.5c0-0.1-0.1-0.1-0.2-0.1h-14c-0.1,0-0.2,0.1-0.2,0.1v2.5h-3.6
			c-0.2,0-0.3,0.1-0.3,0.2V16H8c-0.3,0-0.5,0.2-0.5,0.5v5.3H7.3c-0.3,0-0.5,0.2-0.5,0.5v0.5c0,0.3,0.2,0.5,0.5,0.5h0.3h0.3h0.3v5.7
			H7.9H7.6H7.3c-0.3,0-0.5,0.2-0.5,0.5v0.5c0,0.3,0.2,0.5,0.5,0.5h0.3v5.6c0,0.3,0.2,0.5,0.5,0.5h35.7c0.3,0,0.5-0.2,0.5-0.5v-5.6
			h0.3c0.3,0,0.5-0.2,0.5-0.5v-0.5c0-0.3-0.2-0.5-0.5-0.5h-0.3h-0.3h-0.3v-5.7H43.8z"/>
	</g>
	<g id="XMLID_51_">
		<rect id="XMLID_52_" x="14.2" y="23.9" class="st3" width="1.4" height="10"/>
	</g>
	<g id="XMLID_49_">
		<rect id="XMLID_50_" x="14.2" y="29.4" class="st4" width="1.4" height="4.5"/>
	</g>
	<g id="XMLID_47_">
		<rect id="XMLID_48_" x="14.2" y="31" class="st5" width="1.4" height="2.9"/>
	</g>
	<g id="XMLID_45_">
		<rect id="XMLID_46_" x="17.4" y="23.9" class="st3" width="1.4" height="10"/>
	</g>
	<g id="XMLID_43_">
		<rect id="XMLID_44_" x="17.4" y="29.4" class="st4" width="1.4" height="4.5"/>
	</g>
	<g id="XMLID_41_">
		<rect id="XMLID_42_" x="17.4" y="31" class="st5" width="1.4" height="2.9"/>
	</g>
	<g id="XMLID_39_">
		<rect id="XMLID_40_" x="20.5" y="23.9" class="st3" width="1.4" height="10"/>
	</g>
	<g id="XMLID_37_">
		<rect id="XMLID_38_" x="20.5" y="29.4" class="st4" width="1.4" height="4.5"/>
	</g>
	<g id="XMLID_35_">
		<rect id="XMLID_36_" x="20.5" y="31" class="st5" width="1.4" height="2.9"/>
	</g>
	<g id="XMLID_33_">
		<rect id="XMLID_34_" x="23.6" y="23.9" class="st3" width="1.4" height="10"/>
	</g>
	<g id="XMLID_31_">
		<rect id="XMLID_32_" x="23.6" y="29.4" class="st4" width="1.4" height="4.5"/>
	</g>
	<g id="XMLID_29_">
		<rect id="XMLID_30_" x="23.6" y="31" class="st5" width="1.4" height="2.9"/>
	</g>
	<g id="XMLID_27_">
		<rect id="XMLID_28_" x="26.7" y="23.9" class="st3" width="1.4" height="10"/>
	</g>
	<g id="XMLID_25_">
		<rect id="XMLID_26_" x="26.7" y="29.4" class="st4" width="1.4" height="4.5"/>
	</g>
	<g id="XMLID_23_">
		<rect id="XMLID_24_" x="26.7" y="31" class="st5" width="1.4" height="2.9"/>
	</g>
	<g id="XMLID_21_">
		<rect id="XMLID_22_" x="29.9" y="23.9" class="st3" width="1.4" height="10"/>
	</g>
	<g id="XMLID_19_">
		<rect id="XMLID_20_" x="29.9" y="29.4" class="st4" width="1.4" height="4.5"/>
	</g>
	<g id="XMLID_17_">
		<rect id="XMLID_18_" x="29.9" y="31" class="st5" width="1.4" height="2.9"/>
	</g>
	<g id="XMLID_15_">
		<rect id="XMLID_16_" x="33" y="23.9" class="st3" width="1.4" height="10"/>
	</g>
	<g id="XMLID_13_">
		<rect id="XMLID_14_" x="33" y="29.4" class="st4" width="1.4" height="4.5"/>
	</g>
	<g id="XMLID_11_">
		<rect id="XMLID_12_" x="33" y="31" class="st5" width="1.4" height="2.9"/>
	</g>
	<g id="XMLID_9_">
		<rect id="XMLID_10_" x="36.1" y="23.9" class="st3" width="1.4" height="10"/>
	</g>
	<g id="XMLID_7_">
		<rect id="XMLID_8_" x="36.1" y="29.4" class="st4" width="1.4" height="4.5"/>
	</g>
	<g id="XMLID_5_">
		<rect id="XMLID_6_" x="36.1" y="31" class="st5" width="1.4" height="2.9"/>
	</g>
	<linearGradient id="XMLID_60_" gradientUnits="userSpaceOnUse" x1="36.8555" y1="13.7081" x2="45.5664" y2="13.7081">
		<stop  offset="0" style="stop-color:#1C6132"/>
		<stop  offset="1" style="stop-color:#4B7847"/>
	</linearGradient>
	<rect id="XMLID_4_" x="36.9" y="11.5" class="st6" width="8.7" height="4.4"/>
	<linearGradient id="XMLID_61_" gradientUnits="userSpaceOnUse" x1="6.1051" y1="13.7081" x2="14.816" y2="13.7081">
		<stop  offset="0" style="stop-color:#9F8A29"/>
		<stop  offset="1" style="stop-color:#DDD054"/>
	</linearGradient>
	<rect id="XMLID_3_" x="6.1" y="11.5" class="st7" width="8.7" height="4.4"/>
</g>
</svg>
