<?xml version="1.0" encoding="utf-8"?>
<!-- Generator: Adobe Illustrator 16.0.0, SVG Export Plug-In . SVG Version: 6.00 Build 0)  -->
<!DOCTYPE svg PUBLIC "-//W3C//DTD SVG 1.1//EN" "http://www.w3.org/Graphics/SVG/1.1/DTD/svg11.dtd">
<svg version="1.1" id="图层_1" xmlns="http://www.w3.org/2000/svg" xmlns:xlink="http://www.w3.org/1999/xlink" x="0px" y="0px"
	 width="19.34px" height="8.82px" viewBox="0 0 19.34 8.82" enable-background="new 0 0 19.34 8.82" xml:space="preserve">
<g>
	<path fill="#050101" d="M18.532,0.254H0.808c-0.309,0-0.559,0.227-0.559,0.506v3.118c0,0.279,0.25,0.506,0.559,0.506h0.056
		c0.309,0,0.559,0.227,0.559,0.506v3.175c0,0.279,0.251,0.506,0.56,0.506h15.433c0.31,0,0.56-0.227,0.56-0.506V4.89
		c0-0.279,0.25-0.506,0.559-0.506s0.559-0.227,0.559-0.506V0.76C19.091,0.48,18.841,0.254,18.532,0.254"/>
</g>
<g>
	<path fill="#BABAB9" d="M17.414,8.82H1.981c-0.446,0-0.81-0.339-0.81-0.756V4.89c0-0.141-0.139-0.256-0.309-0.256
		c-0.502,0-0.864-0.339-0.864-0.756V0.76c0-0.417,0.362-0.756,0.809-0.756h17.725c0.446,0,0.809,0.339,0.809,0.756v3.118
		c0,0.417-0.362,0.756-0.809,0.756c-0.17,0-0.309,0.115-0.309,0.256v3.175C18.224,8.481,17.86,8.82,17.414,8.82z M0.808,0.504
		c-0.17,0-0.309,0.115-0.309,0.256v3.118c0,0.141,0.139,0.256,0.309,0.256c0.502,0,0.864,0.339,0.864,0.756v3.175
		c0,0.141,0.139,0.256,0.31,0.256h15.433c0.171,0,0.31-0.115,0.31-0.256V4.89c0-0.417,0.362-0.756,0.809-0.756
		c0.17,0,0.309-0.115,0.309-0.256V0.76c0-0.141-0.139-0.256-0.309-0.256H0.808z"/>
</g>
<g>
	<path fill="#BABAB9" d="M17.414,8.82H1.981c-0.446,0-0.81-0.339-0.81-0.756V4.89c0-0.141-0.139-0.256-0.309-0.256
		c-0.502,0-0.864-0.339-0.864-0.756V0.76c0-0.417,0.362-0.756,0.809-0.756h17.725c0.446,0,0.809,0.339,0.809,0.756v3.118
		c0,0.417-0.362,0.756-0.809,0.756c-0.17,0-0.309,0.115-0.309,0.256v3.175C18.224,8.481,17.86,8.82,17.414,8.82z M0.808,0.504
		c-0.17,0-0.309,0.115-0.309,0.256v3.118c0,0.141,0.139,0.256,0.309,0.256c0.502,0,0.864,0.339,0.864,0.756v3.175
		c0,0.141,0.139,0.256,0.31,0.256h15.433c0.171,0,0.31-0.115,0.31-0.256V4.89c0-0.417,0.362-0.756,0.809-0.756
		c0.17,0,0.309-0.115,0.309-0.256V0.76c0-0.141-0.139-0.256-0.309-0.256H0.808z"/>
</g>
<g>
	<path fill="#696969" d="M16.743,7.945H2.597c-0.156,0-0.283-0.127-0.283-0.283v-4.59c0-0.156,0.127-0.283,0.283-0.283h14.146
		c0.156,0,0.283,0.127,0.283,0.283v4.59C17.026,7.818,16.899,7.945,16.743,7.945"/>
</g>
<g>
	<rect x="3.601" y="4.21" fill="#050101" width="1.388" height="2.313"/>
</g>
<g>
	<rect x="6.29" y="4.21" fill="#050101" width="1.387" height="2.313"/>
</g>
<g>
	<rect x="8.976" y="4.21" fill="#050101" width="1.388" height="2.313"/>
</g>
<g>
	<rect x="11.665" y="4.21" fill="#050101" width="1.387" height="2.313"/>
</g>
<g>
	<rect x="14.351" y="4.21" fill="#050101" width="1.388" height="2.313"/>
</g>
<g>
	<rect x="3.729" y="5.07" fill="#BABAB9" width="1.134" height="0.594"/>
</g>
<g>
	<rect x="6.415" y="5.07" fill="#BABAB9" width="1.135" height="0.594"/>
</g>
<g>
	<rect x="9.104" y="5.07" fill="#BABAB9" width="1.134" height="0.594"/>
</g>
<g>
	<rect x="11.79" y="5.07" fill="#BABAB9" width="1.135" height="0.594"/>
</g>
<g>
	<rect x="14.479" y="5.07" fill="#BABAB9" width="1.134" height="0.594"/>
</g>
</svg>
