<?xml version="1.0" encoding="utf-8"?>
<!-- Generator: Adobe Illustrator 16.0.0, SVG Export Plug-In . SVG Version: 6.00 Build 0)  -->
<!DOCTYPE svg PUBLIC "-//W3C//DTD SVG 1.1//EN" "http://www.w3.org/Graphics/SVG/1.1/DTD/svg11.dtd">
<svg version="1.1" id="图层_1" xmlns="http://www.w3.org/2000/svg" xmlns:xlink="http://www.w3.org/1999/xlink" x="0px" y="0px"
	 width="34.02px" height="13.04px" viewBox="0 0 34.02 13.04" enable-background="new 0 0 34.02 13.04" xml:space="preserve">
<g>
	<g>
		<path fill="#050101" d="M32.143,12.539H1.865c-0.756,0-1.369-0.613-1.369-1.369V1.869c0-0.756,0.613-1.369,1.369-1.369h30.277
			c0.756,0,1.369,0.613,1.369,1.369v9.301C33.512,11.926,32.898,12.539,32.143,12.539"/>
	</g>
	<g>
		<path fill="#BABAB9" d="M32.143,13.039H1.865c-1.031,0-1.869-0.839-1.869-1.869V1.869C-0.004,0.839,0.834,0,1.865,0h30.277
			c1.029,0,1.869,0.839,1.869,1.869v9.301C34.012,12.2,33.172,13.039,32.143,13.039z M1.865,1c-0.48,0-0.869,0.39-0.869,0.869v9.301
			c0,0.479,0.389,0.869,0.869,0.869h30.277c0.479,0,0.869-0.39,0.869-0.869V1.869C33.012,1.39,32.621,1,32.143,1H1.865z"/>
	</g>
	<g>
		<path fill="#E7E7E6" d="M31.688,6.52H2.383c-0.234,0-0.422-0.189-0.422-0.422V1.923c0-0.233,0.188-0.423,0.422-0.423h29.305
			c0.234,0,0.422,0.189,0.422,0.423v4.175C32.109,6.33,31.922,6.52,31.688,6.52"/>
	</g>
	<g>
		<path fill="#BABAB9" d="M32.357,13.039H1.65c-0.912,0-1.654-0.742-1.654-1.654v-9.73C-0.004,0.742,0.738,0,1.65,0h30.707
			c0.912,0,1.654,0.742,1.654,1.654v9.73C34.012,12.297,33.27,13.039,32.357,13.039z M1.65,1C1.289,1,0.996,1.294,0.996,1.654v9.73
			c0,0.36,0.293,0.654,0.654,0.654h30.707c0.359,0,0.654-0.294,0.654-0.654v-9.73c0-0.36-0.295-0.654-0.654-0.654H1.65z"/>
	</g>
</g>
</svg>
