<?xml version="1.0" encoding="utf-8"?>
<!-- Generator: Adobe Illustrator 16.0.0, SVG Export Plug-In . SVG Version: 6.00 Build 0)  -->
<!DOCTYPE svg PUBLIC "-//W3C//DTD SVG 1.1//EN" "http://www.w3.org/Graphics/SVG/1.1/DTD/svg11.dtd">
<svg version="1.1" id="图层_1" xmlns="http://www.w3.org/2000/svg" xmlns:xlink="http://www.w3.org/1999/xlink" x="0px" y="0px"
	 width="45px" height="32.88px" viewBox="0 0 45 32.88" enable-background="new 0 0 45 32.88" xml:space="preserve">
<g>
	<g>
		<polygon fill="#040000" points="45,18.38 45,16.63 43.25,16.63 43.25,10.755 33.5,10.755 33.5,5.63 28.5,5.63 28.5,0.005 
			25.875,0.005 24.334,0.005 20.666,0.005 19.25,0.005 16.5,0.005 16.5,5.63 11.5,5.63 11.5,10.755 1.75,10.755 1.75,16.63 0,16.63 
			0,18.38 2.916,18.38 2.916,26.005 0,26.005 0,27.505 1.666,27.505 1.666,32.88 19.25,32.88 20.666,32.88 24.334,32.88 
			25.875,32.88 43.416,32.88 43.416,27.505 45,27.505 45,26.005 42.334,26.005 42.334,18.38 		"/>
	</g>
	<g>
		<rect x="1.732" y="0.005" fill="#040000" width="3.639" height="4.159"/>
	</g>
	<g>
		<rect x="39.648" y="0.005" fill="#040000" width="3.639" height="4.159"/>
	</g>
</g>
</svg>
