<?xml version="1.0" encoding="utf-8"?>
<!-- Generator: Adobe Illustrator 16.0.0, SVG Export Plug-In . SVG Version: 6.00 Build 0)  -->
<!DOCTYPE svg PUBLIC "-//W3C//DTD SVG 1.1//EN" "http://www.w3.org/Graphics/SVG/1.1/DTD/svg11.dtd">
<svg version="1.1" id="图层_1" xmlns="http://www.w3.org/2000/svg" xmlns:xlink="http://www.w3.org/1999/xlink" x="0px" y="0px"
	 width="38.67px" height="30.48px" viewBox="0 0 38.67 30.48" enable-background="new 0 0 38.67 30.48" xml:space="preserve">
<g>
	<g>
		<rect x="1.001" y="1" fill="#B7B7B7" width="36.667" height="28.484"/>
		<path fill="#060404" d="M38.668,30.484H0.001V0h38.667V30.484z M2.001,28.484h34.667V2H2.001V28.484z"/>
	</g>
	<g>
		<polygon fill="#040000" points="35.951,15.18 35.951,13.887 34.66,13.887 34.66,9.549 27.459,9.549 27.459,5.764 23.766,5.764 
			23.766,1.609 21.828,1.609 20.689,1.609 17.981,1.609 16.935,1.609 14.904,1.609 14.904,5.764 11.21,5.764 11.21,9.549 
			4.011,9.549 4.011,13.887 2.718,13.887 2.718,15.18 4.872,15.18 4.872,20.811 2.718,20.811 2.718,21.918 3.949,21.918 
			3.949,25.889 16.935,25.889 17.981,25.889 20.689,25.889 21.828,25.889 34.781,25.889 34.781,21.918 35.951,21.918 35.951,20.811 
			33.983,20.811 33.983,15.18 		"/>
	</g>
	<g>
		<rect x="2.885" y="5.775" fill="#898989" width="7.884" height="3.063"/>
	</g>
	<g>
		<rect x="28.068" y="5.775" fill="#898989" width="7.883" height="3.063"/>
	</g>
</g>
</svg>
