<?xml version="1.0" encoding="utf-8"?>
<!-- Generator: Adobe Illustrator 16.0.0, SVG Export Plug-In . SVG Version: 6.00 Build 0)  -->
<!DOCTYPE svg PUBLIC "-//W3C//DTD SVG 1.1//EN" "http://www.w3.org/Graphics/SVG/1.1/DTD/svg11.dtd">
<svg version="1.1" id="图层_1" xmlns="http://www.w3.org/2000/svg" xmlns:xlink="http://www.w3.org/1999/xlink" x="0px" y="0px"
	 width="40.3px" height="16.66px" viewBox="0 0 40.3 16.66" enable-background="new 0 0 40.3 16.66" xml:space="preserve">
<g>
	<path fill="#464646" d="M32.707,16.277H7.593c-0.828,0-1.617-0.302-2.175-0.832L1.146,11.39c-0.494-0.473-0.77-1.086-0.77-1.727
		v-6.74c0-1.413,1.317-2.559,2.945-2.559h33.653c1.629,0,2.949,1.146,2.949,2.559v6.74c0,0.641-0.275,1.254-0.773,1.727
		l-4.268,4.056C34.324,15.976,33.535,16.277,32.707,16.277"/>
</g>
<g>
	<path fill="#666666" d="M32.707,16.652H7.593c-0.921,0-1.808-0.341-2.433-0.936l-4.272-4.055c-0.572-0.548-0.886-1.257-0.886-1.999
		v-6.74c0-1.617,1.489-2.934,3.32-2.934h33.653c1.832,0,3.324,1.316,3.324,2.934v6.74c0,0.743-0.316,1.453-0.891,1.998l-4.268,4.056
		C34.514,16.312,33.627,16.652,32.707,16.652z M3.322,0.739c-1.417,0-2.57,0.979-2.57,2.184v6.74c0,0.535,0.232,1.053,0.654,1.456
		l4.271,4.054c0.487,0.464,1.186,0.729,1.917,0.729h25.114c0.73,0,1.43-0.266,1.918-0.729l4.268-4.055
		c0.422-0.402,0.656-0.919,0.656-1.455v-6.74c0-1.204-1.156-2.184-2.574-2.184H3.322z"/>
</g>
</svg>
