<?xml version="1.0" encoding="utf-8"?>
<!-- Generator: Adobe Illustrator 16.0.0, SVG Export Plug-In . SVG Version: 6.00 Build 0)  -->
<!DOCTYPE svg PUBLIC "-//W3C//DTD SVG 1.1//EN" "http://www.w3.org/Graphics/SVG/1.1/DTD/svg11.dtd">
<svg version="1.1" id="图层_1" xmlns="http://www.w3.org/2000/svg" xmlns:xlink="http://www.w3.org/1999/xlink" x="0px" y="0px"
	 width="21.42px" height="25.48px" viewBox="0 0 21.42 25.48" enable-background="new 0 0 21.42 25.48" xml:space="preserve">
<g>
	<path fill="#1C1D20" d="M21.42,12.764c0,4.531-3.672,8.205-8.203,8.205c-4.533,0-8.206-3.674-8.206-8.205s3.673-8.203,8.206-8.203
		C17.748,4.561,21.42,8.232,21.42,12.764"/>
</g>
<g>
	<path fill="#EFEEEE" d="M20.236,12.764c0,3.879-3.143,7.021-7.02,7.021c-3.878,0-7.023-3.143-7.023-7.021
		c0-3.877,3.145-7.02,7.023-7.02C17.094,5.744,20.236,8.887,20.236,12.764"/>
</g>
<g>
	<path fill="#CBCCCD" d="M13.217,16.559c-2.092,0-3.794-1.702-3.794-3.795c0-1.556,0.936-2.937,2.384-3.517l0.374,0.928
		c-1.068,0.428-1.757,1.444-1.757,2.589c0,1.541,1.253,2.795,2.794,2.795c1.539,0,2.793-1.254,2.793-2.795
		c0-1.145-0.689-2.16-1.758-2.589l0.373-0.928c1.449,0.581,2.385,1.961,2.385,3.517C17.01,14.856,15.309,16.559,13.217,16.559z"/>
</g>
<g>
	<rect x="12.539" y="7.693" fill="#CBCCCD" width="1.354" height="4.207"/>
</g>
<g>
	<path fill="#3D3D3F" d="M6.115,24.797C2.546,21.799,0.5,17.412,0.5,12.764S2.546,3.73,6.115,0.73l1.416,1.686
		c-3.07,2.58-4.832,6.352-4.832,10.348c0,3.998,1.762,7.77,4.832,10.35L6.115,24.797z"/>
</g>
<g>
	<path fill="#353537" d="M6.175,25.501L5.793,25.18C2.112,22.087,0,17.562,0,12.764C0,7.968,2.112,3.442,5.793,0.348l0.383-0.321
		l2.059,2.451L7.852,2.799c-2.957,2.485-4.653,6.117-4.653,9.965c0,3.849,1.696,7.481,4.653,9.967l0.384,0.322L6.175,25.501z
		 M6.059,1.441C2.838,4.332,1,8.431,1,12.764c0,4.335,1.837,8.434,5.059,11.322l0.772-0.918c-2.95-2.662-4.633-6.426-4.633-10.404
		c0-3.978,1.683-7.74,4.633-10.402L6.059,1.441z"/>
</g>
</svg>
