<?xml version="1.0" encoding="utf-8"?>
<!-- Generator: Adobe Illustrator 16.0.0, SVG Export Plug-In . SVG Version: 6.00 Build 0)  -->
<!DOCTYPE svg PUBLIC "-//W3C//DTD SVG 1.1//EN" "http://www.w3.org/Graphics/SVG/1.1/DTD/svg11.dtd">
<svg version="1.1" id="图层_1" xmlns="http://www.w3.org/2000/svg" xmlns:xlink="http://www.w3.org/1999/xlink" x="0px" y="0px"
	 width="1275.59px" height="126px" viewBox="0 0 1275.59 126" enable-background="new 0 0 1275.59 126" xml:space="preserve">
<rect x="0.85" y="0.852" fill="#2F302F" width="1273.889" height="124.299"/>
<path fill="#040000" d="M1273.889,124.299H1.699V1.701h1272.189V124.299z M1275.59,0H0v126h1275.59V0z"/>
<path fill="#CCC9BC" d="M15.561,124.299c-7.346,0-13.322-5.977-13.322-13.321v-96.58c0-7.346,5.977-13.323,13.322-13.323h46.977
	v123.225H15.561z"/>
<path fill="#323333" d="M61.687,1.925v121.524H15.561c-6.877,0-12.472-5.596-12.472-12.473v-96.58
	c0-6.877,5.595-12.472,12.472-12.472H61.687 M63.388,0.224H15.561c-7.828,0-14.173,6.345-14.173,14.173v96.58
	c0,7.828,6.345,14.174,14.173,14.174h47.827V0.224z"/>
<linearGradient id="SVGID_1_" gradientUnits="userSpaceOnUse" x1="-2774.542" y1="4126.3906" x2="-2773.542" y2="4126.3906" gradientTransform="matrix(0 -98.8311 -98.8311 0 407852.3125 -274099.0625)">
	<stop  offset="0" style="stop-color:#231815"/>
	<stop  offset="0.5" style="stop-color:#5E5D5C"/>
	<stop  offset="1" style="stop-color:#231815"/>
</linearGradient>
<rect x="20.545" y="13.271" fill="url(#SVGID_1_)" width="31.686" height="98.831"/>
<rect x="20.546" y="13.271" fill="none" width="31.685" height="98.831"/>
<rect x="20.546" y="13.271" fill="none" stroke="#231815" stroke-width="1.701" stroke-miterlimit="10" width="31.684" height="98.831"/>
<path fill="#CCC9BC" d="M1214.439,124.299V1.074h46.978c7.345,0,13.321,5.978,13.321,13.323v96.58
	c0,7.345-5.977,13.321-13.321,13.321H1214.439z"/>
<path fill="#323333" d="M1261.416,1.925c6.877,0,12.473,5.595,12.473,12.472v96.58c0,6.877-5.596,12.473-12.473,12.473h-46.126
	V1.925H1261.416 M1261.416,0.224h-47.827V125.15h47.827c7.828,0,14.173-6.346,14.173-14.174v-96.58
	C1275.589,6.57,1269.244,0.224,1261.416,0.224"/>
<linearGradient id="SVGID_2_" gradientUnits="userSpaceOnUse" x1="-2757.458" y1="4129.6094" x2="-2756.458" y2="4129.6094" gradientTransform="matrix(0 98.8311 98.8311 0 -406893.4375 272535.9688)">
	<stop  offset="0" style="stop-color:#231815"/>
	<stop  offset="0.5" style="stop-color:#5E5D5C"/>
	<stop  offset="1" style="stop-color:#231815"/>
</linearGradient>
<rect x="1224.748" y="13.271" fill="url(#SVGID_2_)" width="31.683" height="98.831"/>
<rect x="1224.748" y="13.271" fill="none" width="31.683" height="98.831"/>
<rect x="1224.748" y="13.271" fill="none" stroke="#231815" stroke-width="1.701" stroke-miterlimit="10" width="31.684" height="98.831"/>
<rect x="62.703" y="38.811" fill="#040000" width="287.505" height="84.072"/>
<rect x="62.703" y="38.811" fill="none" stroke="#20211E" stroke-miterlimit="10" width="287.505" height="84.072"/>
<rect x="89.443" y="42.931" fill="#2F302F" width="187.49" height="75.834"/>
<rect x="89.443" y="42.931" fill="none" stroke="#20211E" stroke-miterlimit="10" width="187.49" height="75.834"/>
<rect x="276.933" y="42.931" fill="#2F302F" width="70.132" height="75.834"/>
<rect x="276.933" y="42.931" fill="none" stroke="#20211E" stroke-miterlimit="10" width="70.132" height="75.834"/>
<rect x="276.934" y="51.264" fill="#1B1C1C" width="59.609" height="59.167"/>
<rect x="276.934" y="51.264" fill="none" stroke="#20211E" stroke-miterlimit="10" width="59.609" height="59.167"/>
<linearGradient id="SVGID_3_" gradientUnits="userSpaceOnUse" x1="-2755.7144" y1="4073.4033" x2="-2754.7144" y2="4073.4033" gradientTransform="matrix(15.4628 0 0 -15.4628 42685.0156 63067.0391)">
	<stop  offset="0" style="stop-color:#383838"/>
	<stop  offset="0.1857" style="stop-color:#353636"/>
	<stop  offset="0.3927" style="stop-color:#2E2F2F"/>
	<stop  offset="0.6098" style="stop-color:#212424"/>
	<stop  offset="0.8324" style="stop-color:#101313"/>
	<stop  offset="1" style="stop-color:#040000"/>
</linearGradient>
<rect x="73.979" y="42.932" fill="url(#SVGID_3_)" width="15.463" height="75.832"/>
<rect x="73.979" y="42.931" fill="none" width="15.463" height="75.833"/>
<rect x="73.979" y="42.931" fill="none" stroke="#20211E" stroke-miterlimit="10" width="15.463" height="75.834"/>
<rect x="65.127" y="42.931" fill="#4E4E4E" width="8.853" height="75.834"/>
<rect x="65.127" y="42.931" fill="none" stroke="#20211E" stroke-miterlimit="10" width="8.853" height="75.834"/>
<rect x="73.98" y="42.931" fill="#383838" width="5.822" height="75.834"/>
<rect x="73.98" y="42.931" fill="none" stroke="#20211E" stroke-miterlimit="10" width="5.822" height="75.834"/>
<path fill="#1B1C1C" d="M137.557,62.188h114.557v-4.667H132.88C134.605,58.9,136.174,60.466,137.557,62.188"/>
<path fill="#1B1C1C" d="M252.113,72.685v-4.667H141.221c0.711,1.491,1.296,3.053,1.754,4.667H252.113z"/>
<path fill="#1B1C1C" d="M144.014,83.18h108.1v-4.666h-108.1c0.061,0.771,0.1,1.548,0.1,2.334
	C144.113,81.633,144.074,82.409,144.014,83.18"/>
<path fill="#1B1C1C" d="M252.113,93.676V89.01H142.975c-0.458,1.615-1.043,3.176-1.754,4.666H252.113z"/>
<path fill="#1B1C1C" d="M132.881,104.172h119.232v-4.667H137.556C136.174,101.229,134.605,102.793,132.881,104.172"/>
<path fill="#1B1C1C" d="M137.392,80.848c0,10.07-8.165,18.236-18.237,18.236c-10.07,0-18.235-8.166-18.235-18.236
	c0-10.072,8.165-18.237,18.235-18.237C129.227,62.61,137.392,70.775,137.392,80.848"/>
<circle fill="none" stroke="#20211E" stroke-miterlimit="10" cx="119.155" cy="80.848" r="18.236"/>
<path fill="#989898" d="M134.421,80.848c0,8.431-6.835,15.265-15.266,15.265s-15.266-6.834-15.266-15.265
	c0-8.432,6.835-15.266,15.266-15.266S134.421,72.416,134.421,80.848"/>
<path fill="#565657" d="M130.656,80.848c0,6.352-5.149,11.5-11.501,11.5c-6.353,0-11.501-5.148-11.501-11.5
	s5.148-11.502,11.501-11.502C125.507,69.346,130.656,74.496,130.656,80.848"/>
<path fill="#989898" d="M125.895,80.848c0,3.722-3.017,6.74-6.74,6.74c-3.722,0-6.738-3.019-6.738-6.74
	c0-3.723,3.017-6.74,6.738-6.74C122.878,74.107,125.895,77.125,125.895,80.848"/>
<rect x="117.492" y="66.901" fill="#565657" width="3.322" height="5.419"/>
<rect x="122.854" y="79.187" fill="#565657" width="5.419" height="3.321"/>
<rect x="285.478" y="57.521" fill="#040000" width="42.21" height="4.667"/>
<rect x="285.478" y="68.018" fill="#040000" width="42.21" height="4.667"/>
<rect x="285.478" y="78.514" fill="#040000" width="42.21" height="4.667"/>
<rect x="285.478" y="89.01" fill="#040000" width="42.21" height="4.667"/>
<rect x="285.478" y="99.504" fill="#040000" width="42.21" height="4.668"/>
<rect x="350.546" y="38.811" fill="#040000" width="287.505" height="84.072"/>
<rect x="350.546" y="38.811" fill="none" stroke="#20211E" stroke-miterlimit="10" width="287.505" height="84.072"/>
<rect x="377.286" y="42.931" fill="#2F302F" width="187.491" height="75.834"/>
<rect x="377.286" y="42.931" fill="none" stroke="#20211E" stroke-miterlimit="10" width="187.491" height="75.834"/>
<rect x="564.776" y="42.931" fill="#2F302F" width="70.132" height="75.834"/>
<rect x="564.776" y="42.931" fill="none" stroke="#20211E" stroke-miterlimit="10" width="70.132" height="75.834"/>
<rect x="564.777" y="51.264" fill="#1B1C1C" width="59.608" height="59.167"/>
<rect x="564.777" y="51.264" fill="none" stroke="#20211E" stroke-miterlimit="10" width="59.608" height="59.167"/>
<linearGradient id="SVGID_4_" gradientUnits="userSpaceOnUse" x1="-2755.7144" y1="4073.4033" x2="-2754.7144" y2="4073.4033" gradientTransform="matrix(15.4628 0 0 -15.4628 42972.8594 63067.0391)">
	<stop  offset="0" style="stop-color:#383838"/>
	<stop  offset="0.1857" style="stop-color:#353636"/>
	<stop  offset="0.3927" style="stop-color:#2E2F2F"/>
	<stop  offset="0.6098" style="stop-color:#212424"/>
	<stop  offset="0.8324" style="stop-color:#101313"/>
	<stop  offset="1" style="stop-color:#040000"/>
</linearGradient>
<rect x="361.824" y="42.932" fill="url(#SVGID_4_)" width="15.463" height="75.832"/>
<rect x="361.824" y="42.931" fill="none" width="15.463" height="75.833"/>
<rect x="361.822" y="42.931" fill="none" stroke="#20211E" stroke-miterlimit="10" width="15.463" height="75.834"/>
<rect x="352.97" y="42.931" fill="#4E4E4E" width="8.853" height="75.834"/>
<rect x="352.97" y="42.931" fill="none" stroke="#20211E" stroke-miterlimit="10" width="8.853" height="75.834"/>
<rect x="361.824" y="42.931" fill="#383838" width="5.821" height="75.834"/>
<rect x="361.824" y="42.931" fill="none" stroke="#20211E" stroke-miterlimit="10" width="5.821" height="75.834"/>
<path fill="#1B1C1C" d="M425.399,62.188h114.558v-4.667H420.725C422.449,58.9,424.018,60.466,425.399,62.188"/>
<path fill="#1B1C1C" d="M539.957,72.685v-4.667H429.063c0.711,1.491,1.296,3.053,1.754,4.667H539.957z"/>
<path fill="#1B1C1C" d="M431.857,83.18h108.1v-4.666h-108.1c0.06,0.771,0.1,1.548,0.1,2.334
	C431.957,81.633,431.917,82.409,431.857,83.18"/>
<path fill="#1B1C1C" d="M539.957,93.676V89.01h-109.14c-0.458,1.615-1.043,3.176-1.754,4.666H539.957z"/>
<path fill="#1B1C1C" d="M420.724,104.172h119.233v-4.667H425.398C424.018,101.229,422.449,102.793,420.724,104.172"/>
<path fill="#1B1C1C" d="M425.234,80.848c0,10.07-8.164,18.236-18.235,18.236c-10.072,0-18.237-8.166-18.237-18.236
	c0-10.072,8.165-18.237,18.237-18.237C417.07,62.61,425.234,70.775,425.234,80.848"/>
<circle fill="none" stroke="#20211E" stroke-miterlimit="10" cx="406.998" cy="80.848" r="18.236"/>
<path fill="#989898" d="M422.264,80.848c0,8.431-6.835,15.265-15.265,15.265c-8.431,0-15.267-6.834-15.267-15.265
	c0-8.432,6.836-15.266,15.267-15.266C415.429,65.582,422.264,72.416,422.264,80.848"/>
<path fill="#565657" d="M418.499,80.848c0,6.352-5.149,11.5-11.501,11.5s-11.501-5.148-11.501-11.5s5.149-11.502,11.501-11.502
	S418.499,74.496,418.499,80.848"/>
<path fill="#989898" d="M413.738,80.848c0,3.722-3.018,6.74-6.74,6.74c-3.722,0-6.738-3.019-6.738-6.74
	c0-3.723,3.017-6.74,6.738-6.74C410.721,74.107,413.738,77.125,413.738,80.848"/>
<rect x="405.336" y="66.901" fill="#565657" width="3.322" height="5.419"/>
<rect x="410.697" y="79.187" fill="#565657" width="5.418" height="3.321"/>
<rect x="573.322" y="57.521" fill="#040000" width="42.209" height="4.667"/>
<rect x="573.322" y="68.018" fill="#040000" width="42.209" height="4.667"/>
<rect x="573.322" y="78.514" fill="#040000" width="42.209" height="4.667"/>
<rect x="573.322" y="89.01" fill="#040000" width="42.209" height="4.667"/>
<rect x="573.322" y="99.504" fill="#040000" width="42.209" height="4.668"/>
<rect x="638.389" y="38.811" fill="#040000" width="287.505" height="84.072"/>
<rect x="638.389" y="38.811" fill="none" stroke="#20211E" stroke-miterlimit="10" width="287.505" height="84.072"/>
<rect x="665.129" y="42.931" fill="#2F302F" width="187.49" height="75.834"/>
<rect x="665.129" y="42.931" fill="none" stroke="#20211E" stroke-miterlimit="10" width="187.49" height="75.834"/>
<rect x="852.619" y="42.931" fill="#2F302F" width="70.133" height="75.834"/>
<rect x="852.619" y="42.931" fill="none" stroke="#20211E" stroke-miterlimit="10" width="70.133" height="75.834"/>
<rect x="852.621" y="51.264" fill="#1B1C1C" width="59.608" height="59.167"/>
<rect x="852.621" y="51.264" fill="none" stroke="#20211E" stroke-miterlimit="10" width="59.608" height="59.167"/>
<linearGradient id="SVGID_5_" gradientUnits="userSpaceOnUse" x1="-2755.7139" y1="4073.4033" x2="-2754.7139" y2="4073.4033" gradientTransform="matrix(15.4628 0 0 -15.4628 43260.6953 63067.0391)">
	<stop  offset="0" style="stop-color:#383838"/>
	<stop  offset="0.1857" style="stop-color:#353636"/>
	<stop  offset="0.3927" style="stop-color:#2E2F2F"/>
	<stop  offset="0.6098" style="stop-color:#212424"/>
	<stop  offset="0.8324" style="stop-color:#101313"/>
	<stop  offset="1" style="stop-color:#040000"/>
</linearGradient>
<rect x="649.666" y="42.932" fill="url(#SVGID_5_)" width="15.463" height="75.832"/>
<rect x="649.667" y="42.931" fill="none" width="15.463" height="75.833"/>
<rect x="649.666" y="42.931" fill="none" stroke="#20211E" stroke-miterlimit="10" width="15.463" height="75.834"/>
<rect x="640.813" y="42.931" fill="#4E4E4E" width="8.854" height="75.834"/>
<rect x="640.813" y="42.931" fill="none" stroke="#20211E" stroke-miterlimit="10" width="8.854" height="75.834"/>
<rect x="649.667" y="42.931" fill="#383838" width="5.821" height="75.834"/>
<rect x="649.667" y="42.931" fill="none" stroke="#20211E" stroke-miterlimit="10" width="5.821" height="75.834"/>
<path fill="#1B1C1C" d="M713.242,62.188h114.557v-4.667H708.566C710.292,58.9,711.86,60.466,713.242,62.188"/>
<path fill="#1B1C1C" d="M827.8,72.685v-4.667H716.906c0.711,1.491,1.297,3.053,1.754,4.667H827.8z"/>
<path fill="#1B1C1C" d="M719.7,83.18h108.099v-4.666H719.7c0.06,0.771,0.099,1.548,0.099,2.334
	C719.799,81.633,719.76,82.409,719.7,83.18"/>
<path fill="#1B1C1C" d="M827.8,93.676V89.01H718.66c-0.457,1.615-1.043,3.176-1.754,4.666H827.8z"/>
<path fill="#1B1C1C" d="M708.567,104.172H827.8v-4.667H713.242C711.86,101.229,710.292,102.793,708.567,104.172"/>
<path fill="#1B1C1C" d="M713.078,80.848c0,10.07-8.165,18.236-18.237,18.236c-10.071,0-18.235-8.166-18.235-18.236
	c0-10.072,8.164-18.237,18.235-18.237C704.913,62.61,713.078,70.775,713.078,80.848"/>
<circle fill="none" stroke="#20211E" stroke-miterlimit="10" cx="694.842" cy="80.848" r="18.236"/>
<path fill="#989898" d="M710.107,80.848c0,8.431-6.835,15.265-15.266,15.265s-15.266-6.834-15.266-15.265
	c0-8.432,6.835-15.266,15.266-15.266S710.107,72.416,710.107,80.848"/>
<path fill="#565657" d="M706.342,80.848c0,6.352-5.148,11.5-11.501,11.5c-6.352,0-11.5-5.148-11.5-11.5s5.148-11.502,11.5-11.502
	C701.193,69.346,706.342,74.496,706.342,80.848"/>
<path fill="#989898" d="M701.581,80.848c0,3.722-3.017,6.74-6.74,6.74c-3.722,0-6.738-3.019-6.738-6.74
	c0-3.723,3.017-6.74,6.738-6.74C698.564,74.107,701.581,77.125,701.581,80.848"/>
<rect x="693.18" y="66.901" fill="#565657" width="3.322" height="5.419"/>
<rect x="698.54" y="79.187" fill="#565657" width="5.419" height="3.321"/>
<rect x="861.165" y="57.521" fill="#040000" width="42.21" height="4.667"/>
<rect x="861.165" y="68.018" fill="#040000" width="42.21" height="4.667"/>
<rect x="861.165" y="78.514" fill="#040000" width="42.21" height="4.667"/>
<rect x="861.165" y="89.01" fill="#040000" width="42.21" height="4.667"/>
<rect x="861.165" y="99.504" fill="#040000" width="42.21" height="4.668"/>
<rect x="926.232" y="38.811" fill="#040000" width="287.504" height="84.072"/>
<rect x="926.232" y="38.811" fill="none" stroke="#20211E" stroke-miterlimit="10" width="287.504" height="84.072"/>
<rect x="952.972" y="42.931" fill="#2F302F" width="187.491" height="75.834"/>
<rect x="952.972" y="42.931" fill="none" stroke="#20211E" stroke-miterlimit="10" width="187.491" height="75.834"/>
<rect x="1140.464" y="42.931" fill="#2F302F" width="70.131" height="75.834"/>
<rect x="1140.464" y="42.931" fill="none" stroke="#20211E" stroke-miterlimit="10" width="70.131" height="75.834"/>
<rect x="1140.464" y="51.264" fill="#1B1C1C" width="59.608" height="59.167"/>
<rect x="1140.464" y="51.264" fill="none" stroke="#20211E" stroke-miterlimit="10" width="59.608" height="59.167"/>
<linearGradient id="SVGID_6_" gradientUnits="userSpaceOnUse" x1="-2755.7139" y1="4073.4033" x2="-2754.7139" y2="4073.4033" gradientTransform="matrix(15.4628 0 0 -15.4628 43548.5391 63067.0391)">
	<stop  offset="0" style="stop-color:#383838"/>
	<stop  offset="0.1857" style="stop-color:#353636"/>
	<stop  offset="0.3927" style="stop-color:#2E2F2F"/>
	<stop  offset="0.6098" style="stop-color:#212424"/>
	<stop  offset="0.8324" style="stop-color:#101313"/>
	<stop  offset="1" style="stop-color:#040000"/>
</linearGradient>
<rect x="937.509" y="42.932" fill="url(#SVGID_6_)" width="15.463" height="75.832"/>
<rect x="937.509" y="42.931" fill="none" width="15.463" height="75.833"/>
<rect x="937.509" y="42.931" fill="none" stroke="#20211E" stroke-miterlimit="10" width="15.463" height="75.834"/>
<rect x="928.656" y="42.931" fill="#4E4E4E" width="8.854" height="75.834"/>
<rect x="928.656" y="42.931" fill="none" stroke="#20211E" stroke-miterlimit="10" width="8.854" height="75.834"/>
<rect x="937.51" y="42.931" fill="#383838" width="5.822" height="75.834"/>
<rect x="937.51" y="42.931" fill="none" stroke="#20211E" stroke-miterlimit="10" width="5.822" height="75.834"/>
<path fill="#1B1C1C" d="M1001.086,62.188h114.557v-4.667H996.41C998.135,58.9,999.703,60.466,1001.086,62.188"/>
<path fill="#1B1C1C" d="M1115.643,72.685v-4.667H1004.75c0.711,1.491,1.296,3.053,1.754,4.667H1115.643z"/>
<path fill="#1B1C1C" d="M1007.543,83.18h108.1v-4.666h-108.1c0.061,0.771,0.1,1.548,0.1,2.334
	C1007.643,81.633,1007.604,82.409,1007.543,83.18"/>
<path fill="#1B1C1C" d="M1115.643,93.676V89.01h-109.139c-0.458,1.615-1.043,3.176-1.754,4.666H1115.643z"/>
<path fill="#1B1C1C" d="M996.41,104.172h119.232v-4.667h-114.558C999.703,101.229,998.135,102.793,996.41,104.172"/>
<path fill="#1B1C1C" d="M1000.921,80.848c0,10.07-8.165,18.236-18.235,18.236c-10.072,0-18.237-8.166-18.237-18.236
	c0-10.072,8.165-18.237,18.237-18.237C992.756,62.61,1000.921,70.775,1000.921,80.848"/>
<circle fill="none" stroke="#20211E" stroke-miterlimit="10" cx="982.685" cy="80.848" r="18.236"/>
<path fill="#989898" d="M997.95,80.848c0,8.431-6.835,15.265-15.266,15.265s-15.266-6.834-15.266-15.265
	c0-8.432,6.835-15.266,15.266-15.266S997.95,72.416,997.95,80.848"/>
<path fill="#565657" d="M994.186,80.848c0,6.352-5.149,11.5-11.501,11.5c-6.353,0-11.501-5.148-11.501-11.5
	s5.148-11.502,11.501-11.502C989.036,69.346,994.186,74.496,994.186,80.848"/>
<path fill="#989898" d="M989.425,80.848c0,3.722-3.019,6.74-6.74,6.74s-6.74-3.019-6.74-6.74c0-3.723,3.019-6.74,6.74-6.74
	S989.425,77.125,989.425,80.848"/>
<rect x="981.022" y="66.901" fill="#565657" width="3.322" height="5.419"/>
<rect x="986.383" y="79.187" fill="#565657" width="5.419" height="3.321"/>
<rect x="1149.008" y="57.521" fill="#040000" width="42.21" height="4.667"/>
<rect x="1149.008" y="68.018" fill="#040000" width="42.21" height="4.667"/>
<rect x="1149.008" y="78.514" fill="#040000" width="42.21" height="4.667"/>
<rect x="1149.008" y="89.01" fill="#040000" width="42.21" height="4.667"/>
<rect x="1149.008" y="99.504" fill="#040000" width="42.21" height="4.668"/>
<rect x="62.704" y="28.427" fill="#4E4E4E" width="1150.886" height="2.835"/>
<rect x="62.704" y="28.427" fill="none" stroke="#20211E" stroke-miterlimit="10" width="1150.886" height="2.835"/>
<path fill="#4B4A4A" d="M880.157,15.271c0-3.324,2.792-6.021,6.235-6.021c3.444,0,6.236,2.697,6.236,6.021
	c0,3.325-2.792,6.021-6.236,6.021C882.949,21.293,880.157,18.597,880.157,15.271"/>
<ellipse fill="none" stroke="#040000" stroke-miterlimit="10" cx="886.393" cy="15.271" rx="6.236" ry="6.021"/>
<path fill="#4B4A4A" d="M1142.06,15.271c0-3.324,2.792-6.021,6.236-6.021s6.235,2.697,6.235,6.021c0,3.325-2.791,6.021-6.235,6.021
	S1142.06,18.597,1142.06,15.271"/>
<ellipse fill="none" stroke="#040000" stroke-miterlimit="10" cx="1148.295" cy="15.271" rx="6.236" ry="6.021"/>
<path fill="#ECECDF" d="M1157.259,15.271c0-3.324,2.792-6.021,6.236-6.021s6.235,2.697,6.235,6.021c0,3.325-2.791,6.021-6.235,6.021
	S1157.259,18.597,1157.259,15.271"/>
<ellipse fill="none" stroke="#040000" stroke-miterlimit="10" cx="1163.495" cy="15.271" rx="6.236" ry="6.021"/>
<path fill="#ECECDF" d="M1160.395,15.271c0-1.652,1.389-2.994,3.1-2.994c1.713,0,3.102,1.342,3.102,2.994
	c0,1.653-1.389,2.993-3.102,2.993C1161.783,18.265,1160.395,16.925,1160.395,15.271"/>
<ellipse fill="none" stroke="#C5C5C5" stroke-miterlimit="10" cx="1163.495" cy="15.271" rx="3.101" ry="2.994"/>
</svg>
