<?xml version="1.0" encoding="utf-8"?>
<!-- Generator: Adobe Illustrator 19.0.0, SVG Export Plug-In . SVG Version: 6.00 Build 0)  -->
<svg version="1.1" id="图层_1" xmlns="http://www.w3.org/2000/svg" xmlns:xlink="http://www.w3.org/1999/xlink" x="0px" y="0px"
	 width="689.6px" height="1999.9px" viewBox="0 0 689.6 1999.9" style="enable-background:new 0 0 689.6 1999.9;"
	 xml:space="preserve">
<style type="text/css">
	.st0{fill:url(#XMLID_2_);}
	.st1{fill:#333333;}
	.st2{stroke:#000000;stroke-width:0.7;stroke-miterlimit:10;}
	.st3{font-family:'Arial';}
	.st4{font-size:44px;}
</style>
<linearGradient id="XMLID_2_" gradientUnits="userSpaceOnUse" x1="-78.5073" y1="1175.8171" x2="521.4927" y2="1175.8171" gradientTransform="matrix(1 0 0 -1 123.2847 2175.7656)">
	<stop  offset="0" style="stop-color:#999999"/>
	<stop  offset="8.950000e-02" style="stop-color:#666666"/>
	<stop  offset="0.9181" style="stop-color:#666666"/>
	<stop  offset="1" style="stop-color:#999999"/>
</linearGradient>
<path id="XMLID_4431_" class="st0" d="M44.8,0v1999.9h600V0H44.8z M569.8,1933.4h-450V66.5h450V1933.4z"/>
<g id="XMLID_5_">
	<rect id="XMLID_994_" x="100.3" y="1890.8" class="st1" width="9" height="11.1"/>
	<rect id="XMLID_993_" x="100.3" y="1920.4" class="st1" width="9" height="11.1"/>
	<polygon id="XMLID_992_" class="st1" points="109.3,1909.7 109.3,1905.6 100.3,1905.6 100.3,1916.7 109.3,1916.7 109.3,1912.6 
		110.8,1912.6 110.8,1909.7 	"/>
	<g id="XMLID_985_">
		<rect id="XMLID_988_" x="578.7" y="1890.8" class="st1" width="9" height="11.1"/>
		<rect id="XMLID_987_" x="578.7" y="1920.4" class="st1" width="9" height="11.1"/>
		<polygon id="XMLID_986_" class="st1" points="578.7,1909.7 578.7,1905.6 587.7,1905.6 587.7,1916.7 578.7,1916.7 578.7,1912.6 
			577.2,1912.6 577.2,1909.7 		"/>
	</g>
	<rect id="XMLID_983_" x="100.3" y="1846.3" class="st1" width="9" height="11.1"/>
	<rect id="XMLID_982_" x="100.3" y="1876" class="st1" width="9" height="11.1"/>
	<polygon id="XMLID_981_" class="st1" points="109.3,1865.3 109.3,1861.2 100.3,1861.2 100.3,1872.3 109.3,1872.3 109.3,1868.2 
		110.8,1868.2 110.8,1865.3 	"/>
	<g id="XMLID_974_">
		<rect id="XMLID_977_" x="578.7" y="1846.3" class="st1" width="9" height="11.1"/>
		<rect id="XMLID_976_" x="578.7" y="1876" class="st1" width="9" height="11.1"/>
		<polygon id="XMLID_975_" class="st1" points="578.7,1865.3 578.7,1861.2 587.7,1861.2 587.7,1872.3 578.7,1872.3 578.7,1868.2 
			577.2,1868.2 577.2,1865.3 		"/>
	</g>
	<rect id="XMLID_972_" x="100.3" y="1801.9" class="st1" width="9" height="11.1"/>
	<rect id="XMLID_971_" x="100.3" y="1831.5" class="st1" width="9" height="11.1"/>
	<polygon id="XMLID_970_" class="st1" points="109.3,1820.8 109.3,1816.7 100.3,1816.7 100.3,1827.8 109.3,1827.8 109.3,1823.7 
		110.8,1823.7 110.8,1820.8 	"/>
	<g id="XMLID_963_">
		<rect id="XMLID_966_" x="578.7" y="1801.9" class="st1" width="9" height="11.1"/>
		<rect id="XMLID_965_" x="578.7" y="1831.5" class="st1" width="9" height="11.1"/>
		<polygon id="XMLID_964_" class="st1" points="578.7,1820.8 578.7,1816.7 587.7,1816.7 587.7,1827.8 578.7,1827.8 578.7,1823.7 
			577.2,1823.7 577.2,1820.8 		"/>
	</g>
	<rect id="XMLID_961_" x="100.3" y="1757.4" class="st1" width="9" height="11.1"/>
	<rect id="XMLID_960_" x="100.3" y="1787.1" class="st1" width="9" height="11.1"/>
	<polygon id="XMLID_959_" class="st1" points="109.3,1776.4 109.3,1772.3 100.3,1772.3 100.3,1783.4 109.3,1783.4 109.3,1779.3 
		110.8,1779.3 110.8,1776.4 	"/>
	<g id="XMLID_952_">
		<rect id="XMLID_955_" x="578.7" y="1757.4" class="st1" width="9" height="11.1"/>
		<rect id="XMLID_954_" x="578.7" y="1787.1" class="st1" width="9" height="11.1"/>
		<polygon id="XMLID_953_" class="st1" points="578.7,1776.4 578.7,1772.3 587.7,1772.3 587.7,1783.4 578.7,1783.4 578.7,1779.3 
			577.2,1779.3 577.2,1776.4 		"/>
	</g>
	<rect id="XMLID_950_" x="100.3" y="1713" class="st1" width="9" height="11.1"/>
	<rect id="XMLID_949_" x="100.3" y="1742.6" class="st1" width="9" height="11.1"/>
	<polygon id="XMLID_948_" class="st1" points="109.3,1731.9 109.3,1727.8 100.3,1727.8 100.3,1738.9 109.3,1738.9 109.3,1734.8 
		110.8,1734.8 110.8,1731.9 	"/>
	<g id="XMLID_941_">
		<rect id="XMLID_944_" x="578.7" y="1713" class="st1" width="9" height="11.1"/>
		<rect id="XMLID_943_" x="578.7" y="1742.6" class="st1" width="9" height="11.1"/>
		<polygon id="XMLID_942_" class="st1" points="578.7,1731.9 578.7,1727.8 587.7,1727.8 587.7,1738.9 578.7,1738.9 578.7,1734.8 
			577.2,1734.8 577.2,1731.9 		"/>
	</g>
	<rect id="XMLID_939_" x="100.3" y="1668.5" class="st1" width="9" height="11.1"/>
	<rect id="XMLID_938_" x="100.3" y="1698.2" class="st1" width="9" height="11.1"/>
	<polygon id="XMLID_937_" class="st1" points="109.3,1687.5 109.3,1683.4 100.3,1683.4 100.3,1694.5 109.3,1694.5 109.3,1690.4 
		110.8,1690.4 110.8,1687.5 	"/>
	<g id="XMLID_930_">
		<rect id="XMLID_933_" x="578.7" y="1668.5" class="st1" width="9" height="11.1"/>
		<rect id="XMLID_932_" x="578.7" y="1698.2" class="st1" width="9" height="11.1"/>
		<polygon id="XMLID_931_" class="st1" points="578.7,1687.5 578.7,1683.4 587.7,1683.4 587.7,1694.5 578.7,1694.5 578.7,1690.4 
			577.2,1690.4 577.2,1687.5 		"/>
	</g>
	<rect id="XMLID_928_" x="100.3" y="1624.1" class="st1" width="9" height="11.1"/>
	<rect id="XMLID_927_" x="100.3" y="1653.7" class="st1" width="9" height="11.1"/>
	<polygon id="XMLID_926_" class="st1" points="109.3,1643 109.3,1638.9 100.3,1638.9 100.3,1650 109.3,1650 109.3,1645.9 
		110.8,1645.9 110.8,1643 	"/>
	<g id="XMLID_919_">
		<rect id="XMLID_922_" x="578.7" y="1624.1" class="st1" width="9" height="11.1"/>
		<rect id="XMLID_921_" x="578.7" y="1653.7" class="st1" width="9" height="11.1"/>
		<polygon id="XMLID_920_" class="st1" points="578.7,1643 578.7,1638.9 587.7,1638.9 587.7,1650 578.7,1650 578.7,1645.9 
			577.2,1645.9 577.2,1643 		"/>
	</g>
	<rect id="XMLID_917_" x="100.3" y="1579.6" class="st1" width="9" height="11.1"/>
	<rect id="XMLID_916_" x="100.3" y="1609.3" class="st1" width="9" height="11.1"/>
	<polygon id="XMLID_915_" class="st1" points="109.3,1598.6 109.3,1594.5 100.3,1594.5 100.3,1605.6 109.3,1605.6 109.3,1601.5 
		110.8,1601.5 110.8,1598.6 	"/>
	<g id="XMLID_908_">
		<rect id="XMLID_911_" x="578.7" y="1579.6" class="st1" width="9" height="11.1"/>
		<rect id="XMLID_910_" x="578.7" y="1609.3" class="st1" width="9" height="11.1"/>
		<polygon id="XMLID_909_" class="st1" points="578.7,1598.6 578.7,1594.5 587.7,1594.5 587.7,1605.6 578.7,1605.6 578.7,1601.5 
			577.2,1601.5 577.2,1598.6 		"/>
	</g>
	<rect id="XMLID_906_" x="100.3" y="1535.2" class="st1" width="9" height="11.1"/>
	<rect id="XMLID_905_" x="100.3" y="1564.8" class="st1" width="9" height="11.1"/>
	<polygon id="XMLID_904_" class="st1" points="109.3,1554.1 109.3,1550 100.3,1550 100.3,1561.1 109.3,1561.1 109.3,1557 
		110.8,1557 110.8,1554.1 	"/>
	<g id="XMLID_897_">
		<rect id="XMLID_900_" x="578.7" y="1535.2" class="st1" width="9" height="11.1"/>
		<rect id="XMLID_899_" x="578.7" y="1564.8" class="st1" width="9" height="11.1"/>
		<polygon id="XMLID_898_" class="st1" points="578.7,1554.1 578.7,1550 587.7,1550 587.7,1561.1 578.7,1561.1 578.7,1557 
			577.2,1557 577.2,1554.1 		"/>
	</g>
	<rect id="XMLID_895_" x="100.3" y="1490.7" class="st1" width="9" height="11.1"/>
	<rect id="XMLID_894_" x="100.3" y="1520.4" class="st1" width="9" height="11.1"/>
	<polygon id="XMLID_893_" class="st1" points="109.3,1509.7 109.3,1505.6 100.3,1505.6 100.3,1516.7 109.3,1516.7 109.3,1512.6 
		110.8,1512.6 110.8,1509.7 	"/>
	<g id="XMLID_886_">
		<rect id="XMLID_889_" x="578.7" y="1490.7" class="st1" width="9" height="11.1"/>
		<rect id="XMLID_888_" x="578.7" y="1520.4" class="st1" width="9" height="11.1"/>
		<polygon id="XMLID_887_" class="st1" points="578.7,1509.7 578.7,1505.6 587.7,1505.6 587.7,1516.7 578.7,1516.7 578.7,1512.6 
			577.2,1512.6 577.2,1509.7 		"/>
	</g>
	<rect id="XMLID_884_" x="100.3" y="1446.3" class="st1" width="9" height="11.1"/>
	<rect id="XMLID_883_" x="100.3" y="1475.9" class="st1" width="9" height="11.1"/>
	<polygon id="XMLID_882_" class="st1" points="109.3,1465.2 109.3,1461.1 100.3,1461.1 100.3,1472.2 109.3,1472.2 109.3,1468.1 
		110.8,1468.1 110.8,1465.2 	"/>
	<g id="XMLID_875_">
		<rect id="XMLID_878_" x="578.7" y="1446.3" class="st1" width="9" height="11.1"/>
		<rect id="XMLID_877_" x="578.7" y="1475.9" class="st1" width="9" height="11.1"/>
		<polygon id="XMLID_876_" class="st1" points="578.7,1465.2 578.7,1461.1 587.7,1461.1 587.7,1472.2 578.7,1472.2 578.7,1468.1 
			577.2,1468.1 577.2,1465.2 		"/>
	</g>
	<rect id="XMLID_873_" x="100.3" y="1401.8" class="st1" width="9" height="11.1"/>
	<rect id="XMLID_872_" x="100.3" y="1431.5" class="st1" width="9" height="11.1"/>
	<polygon id="XMLID_871_" class="st1" points="109.3,1420.8 109.3,1416.7 100.3,1416.7 100.3,1427.8 109.3,1427.8 109.3,1423.7 
		110.8,1423.7 110.8,1420.8 	"/>
	<g id="XMLID_864_">
		<rect id="XMLID_867_" x="578.7" y="1401.8" class="st1" width="9" height="11.1"/>
		<rect id="XMLID_866_" x="578.7" y="1431.5" class="st1" width="9" height="11.1"/>
		<polygon id="XMLID_865_" class="st1" points="578.7,1420.8 578.7,1416.7 587.7,1416.7 587.7,1427.8 578.7,1427.8 578.7,1423.7 
			577.2,1423.7 577.2,1420.8 		"/>
	</g>
	<rect id="XMLID_862_" x="100.3" y="1357.4" class="st1" width="9" height="11.1"/>
	<rect id="XMLID_861_" x="100.3" y="1387" class="st1" width="9" height="11.1"/>
	<polygon id="XMLID_860_" class="st1" points="109.3,1376.3 109.3,1372.2 100.3,1372.2 100.3,1383.3 109.3,1383.3 109.3,1379.2 
		110.8,1379.2 110.8,1376.3 	"/>
	<g id="XMLID_853_">
		<rect id="XMLID_856_" x="578.7" y="1357.4" class="st1" width="9" height="11.1"/>
		<rect id="XMLID_855_" x="578.7" y="1387" class="st1" width="9" height="11.1"/>
		<polygon id="XMLID_854_" class="st1" points="578.7,1376.3 578.7,1372.2 587.7,1372.2 587.7,1383.3 578.7,1383.3 578.7,1379.2 
			577.2,1379.2 577.2,1376.3 		"/>
	</g>
	<rect id="XMLID_851_" x="100.3" y="1312.9" class="st1" width="9" height="11.1"/>
	<rect id="XMLID_850_" x="100.3" y="1342.6" class="st1" width="9" height="11.1"/>
	<polygon id="XMLID_849_" class="st1" points="109.3,1331.9 109.3,1327.8 100.3,1327.8 100.3,1338.9 109.3,1338.9 109.3,1334.8 
		110.8,1334.8 110.8,1331.9 	"/>
	<g id="XMLID_842_">
		<rect id="XMLID_845_" x="578.7" y="1312.9" class="st1" width="9" height="11.1"/>
		<rect id="XMLID_844_" x="578.7" y="1342.6" class="st1" width="9" height="11.1"/>
		<polygon id="XMLID_843_" class="st1" points="578.7,1331.9 578.7,1327.8 587.7,1327.8 587.7,1338.9 578.7,1338.9 578.7,1334.8 
			577.2,1334.8 577.2,1331.9 		"/>
	</g>
	<rect id="XMLID_840_" x="100.3" y="1268.5" class="st1" width="9" height="11.1"/>
	<rect id="XMLID_839_" x="100.3" y="1298.1" class="st1" width="9" height="11.1"/>
	<polygon id="XMLID_838_" class="st1" points="109.3,1287.4 109.3,1283.3 100.3,1283.3 100.3,1294.4 109.3,1294.4 109.3,1290.3 
		110.8,1290.3 110.8,1287.4 	"/>
	<g id="XMLID_831_">
		<rect id="XMLID_834_" x="578.7" y="1268.5" class="st1" width="9" height="11.1"/>
		<rect id="XMLID_833_" x="578.7" y="1298.1" class="st1" width="9" height="11.1"/>
		<polygon id="XMLID_832_" class="st1" points="578.7,1287.4 578.7,1283.3 587.7,1283.3 587.7,1294.4 578.7,1294.4 578.7,1290.3 
			577.2,1290.3 577.2,1287.4 		"/>
	</g>
	<rect id="XMLID_829_" x="100.3" y="1224" class="st1" width="9" height="11.1"/>
	<rect id="XMLID_828_" x="100.3" y="1253.7" class="st1" width="9" height="11.1"/>
	<polygon id="XMLID_827_" class="st1" points="109.3,1243 109.3,1238.9 100.3,1238.9 100.3,1250 109.3,1250 109.3,1245.9 
		110.8,1245.9 110.8,1243 	"/>
	<g id="XMLID_820_">
		<rect id="XMLID_823_" x="578.7" y="1224" class="st1" width="9" height="11.1"/>
		<rect id="XMLID_822_" x="578.7" y="1253.7" class="st1" width="9" height="11.1"/>
		<polygon id="XMLID_821_" class="st1" points="578.7,1243 578.7,1238.9 587.7,1238.9 587.7,1250 578.7,1250 578.7,1245.9 
			577.2,1245.9 577.2,1243 		"/>
	</g>
	<rect id="XMLID_818_" x="100.3" y="1179.6" class="st1" width="9" height="11.1"/>
	<rect id="XMLID_817_" x="100.3" y="1209.2" class="st1" width="9" height="11.1"/>
	<polygon id="XMLID_816_" class="st1" points="109.3,1198.5 109.3,1194.4 100.3,1194.4 100.3,1205.5 109.3,1205.5 109.3,1201.4 
		110.8,1201.4 110.8,1198.5 	"/>
	<g id="XMLID_809_">
		<rect id="XMLID_812_" x="578.7" y="1179.6" class="st1" width="9" height="11.1"/>
		<rect id="XMLID_811_" x="578.7" y="1209.2" class="st1" width="9" height="11.1"/>
		<polygon id="XMLID_810_" class="st1" points="578.7,1198.5 578.7,1194.4 587.7,1194.4 587.7,1205.5 578.7,1205.5 578.7,1201.4 
			577.2,1201.4 577.2,1198.5 		"/>
	</g>
	<rect id="XMLID_807_" x="100.3" y="1135.1" class="st1" width="9" height="11.1"/>
	<rect id="XMLID_806_" x="100.3" y="1164.8" class="st1" width="9" height="11.1"/>
	<polygon id="XMLID_805_" class="st1" points="109.3,1154.1 109.3,1150 100.3,1150 100.3,1161.1 109.3,1161.1 109.3,1157 
		110.8,1157 110.8,1154.1 	"/>
	<g id="XMLID_798_">
		<rect id="XMLID_801_" x="578.7" y="1135.1" class="st1" width="9" height="11.1"/>
		<rect id="XMLID_800_" x="578.7" y="1164.8" class="st1" width="9" height="11.1"/>
		<polygon id="XMLID_799_" class="st1" points="578.7,1154.1 578.7,1150 587.7,1150 587.7,1161.1 578.7,1161.1 578.7,1157 
			577.2,1157 577.2,1154.1 		"/>
	</g>
	<rect id="XMLID_796_" x="100.3" y="1090.7" class="st1" width="9" height="11.1"/>
	<rect id="XMLID_795_" x="100.3" y="1120.3" class="st1" width="9" height="11.1"/>
	<polygon id="XMLID_794_" class="st1" points="109.3,1109.6 109.3,1105.5 100.3,1105.5 100.3,1116.6 109.3,1116.6 109.3,1112.5 
		110.8,1112.5 110.8,1109.6 	"/>
	<g id="XMLID_787_">
		<rect id="XMLID_790_" x="578.7" y="1090.7" class="st1" width="9" height="11.1"/>
		<rect id="XMLID_789_" x="578.7" y="1120.3" class="st1" width="9" height="11.1"/>
		<polygon id="XMLID_788_" class="st1" points="578.7,1109.6 578.7,1105.5 587.7,1105.5 587.7,1116.6 578.7,1116.6 578.7,1112.5 
			577.2,1112.5 577.2,1109.6 		"/>
	</g>
	<rect id="XMLID_785_" x="100.3" y="1046.2" class="st1" width="9" height="11.1"/>
	<rect id="XMLID_784_" x="100.3" y="1075.9" class="st1" width="9" height="11.1"/>
	<polygon id="XMLID_783_" class="st1" points="109.3,1065.2 109.3,1061.1 100.3,1061.1 100.3,1072.2 109.3,1072.2 109.3,1068.1 
		110.8,1068.1 110.8,1065.2 	"/>
	<g id="XMLID_776_">
		<rect id="XMLID_779_" x="578.7" y="1046.2" class="st1" width="9" height="11.1"/>
		<rect id="XMLID_778_" x="578.7" y="1075.9" class="st1" width="9" height="11.1"/>
		<polygon id="XMLID_777_" class="st1" points="578.7,1065.2 578.7,1061.1 587.7,1061.1 587.7,1072.2 578.7,1072.2 578.7,1068.1 
			577.2,1068.1 577.2,1065.2 		"/>
	</g>
	<rect id="XMLID_774_" x="100.3" y="1001.8" class="st1" width="9" height="11.1"/>
	<rect id="XMLID_773_" x="100.3" y="1031.4" class="st1" width="9" height="11.1"/>
	<polygon id="XMLID_772_" class="st1" points="109.3,1020.7 109.3,1016.6 100.3,1016.6 100.3,1027.7 109.3,1027.7 109.3,1023.6 
		110.8,1023.6 110.8,1020.7 	"/>
	<g id="XMLID_765_">
		<rect id="XMLID_768_" x="578.7" y="1001.8" class="st1" width="9" height="11.1"/>
		<rect id="XMLID_767_" x="578.7" y="1031.4" class="st1" width="9" height="11.1"/>
		<polygon id="XMLID_766_" class="st1" points="578.7,1020.7 578.7,1016.6 587.7,1016.6 587.7,1027.7 578.7,1027.7 578.7,1023.6 
			577.2,1023.6 577.2,1020.7 		"/>
	</g>
	<rect id="XMLID_763_" x="100.3" y="957.3" class="st1" width="9" height="11.1"/>
	<rect id="XMLID_762_" x="100.3" y="987" class="st1" width="9" height="11.1"/>
	<polygon id="XMLID_761_" class="st1" points="109.3,976.3 109.3,972.2 100.3,972.2 100.3,983.3 109.3,983.3 109.3,979.2 
		110.8,979.2 110.8,976.3 	"/>
	<g id="XMLID_754_">
		<rect id="XMLID_757_" x="578.7" y="957.3" class="st1" width="9" height="11.1"/>
		<rect id="XMLID_756_" x="578.7" y="987" class="st1" width="9" height="11.1"/>
		<polygon id="XMLID_755_" class="st1" points="578.7,976.3 578.7,972.2 587.7,972.2 587.7,983.3 578.7,983.3 578.7,979.2 
			577.2,979.2 577.2,976.3 		"/>
	</g>
	<rect id="XMLID_752_" x="100.3" y="912.9" class="st1" width="9" height="11.1"/>
	<rect id="XMLID_751_" x="100.3" y="942.5" class="st1" width="9" height="11.1"/>
	<polygon id="XMLID_750_" class="st1" points="109.3,931.8 109.3,927.7 100.3,927.7 100.3,938.8 109.3,938.8 109.3,934.7 
		110.8,934.7 110.8,931.8 	"/>
	<g id="XMLID_743_">
		<rect id="XMLID_746_" x="578.7" y="912.9" class="st1" width="9" height="11.1"/>
		<rect id="XMLID_745_" x="578.7" y="942.5" class="st1" width="9" height="11.1"/>
		<polygon id="XMLID_744_" class="st1" points="578.7,931.8 578.7,927.7 587.7,927.7 587.7,938.8 578.7,938.8 578.7,934.7 
			577.2,934.7 577.2,931.8 		"/>
	</g>
	<rect id="XMLID_741_" x="100.3" y="868.4" class="st1" width="9" height="11.1"/>
	<rect id="XMLID_740_" x="100.3" y="898.1" class="st1" width="9" height="11.1"/>
	<polygon id="XMLID_739_" class="st1" points="109.3,887.4 109.3,883.3 100.3,883.3 100.3,894.4 109.3,894.4 109.3,890.3 
		110.8,890.3 110.8,887.4 	"/>
	<g id="XMLID_732_">
		<rect id="XMLID_735_" x="578.7" y="868.4" class="st1" width="9" height="11.1"/>
		<rect id="XMLID_734_" x="578.7" y="898.1" class="st1" width="9" height="11.1"/>
		<polygon id="XMLID_733_" class="st1" points="578.7,887.4 578.7,883.3 587.7,883.3 587.7,894.4 578.7,894.4 578.7,890.3 
			577.2,890.3 577.2,887.4 		"/>
	</g>
	<rect id="XMLID_730_" x="100.3" y="824" class="st1" width="9" height="11.1"/>
	<rect id="XMLID_729_" x="100.3" y="853.6" class="st1" width="9" height="11.1"/>
	<polygon id="XMLID_728_" class="st1" points="109.3,842.9 109.3,838.8 100.3,838.8 100.3,849.9 109.3,849.9 109.3,845.8 
		110.8,845.8 110.8,842.9 	"/>
	<g id="XMLID_721_">
		<rect id="XMLID_724_" x="578.7" y="824" class="st1" width="9" height="11.1"/>
		<rect id="XMLID_723_" x="578.7" y="853.6" class="st1" width="9" height="11.1"/>
		<polygon id="XMLID_722_" class="st1" points="578.7,842.9 578.7,838.8 587.7,838.8 587.7,849.9 578.7,849.9 578.7,845.8 
			577.2,845.8 577.2,842.9 		"/>
	</g>
	<rect id="XMLID_719_" x="100.3" y="779.5" class="st1" width="9" height="11.1"/>
	<rect id="XMLID_718_" x="100.3" y="809.2" class="st1" width="9" height="11.1"/>
	<polygon id="XMLID_717_" class="st1" points="109.3,798.5 109.3,794.4 100.3,794.4 100.3,805.5 109.3,805.5 109.3,801.4 
		110.8,801.4 110.8,798.5 	"/>
	<g id="XMLID_710_">
		<rect id="XMLID_713_" x="578.7" y="779.5" class="st1" width="9" height="11.1"/>
		<rect id="XMLID_712_" x="578.7" y="809.2" class="st1" width="9" height="11.1"/>
		<polygon id="XMLID_711_" class="st1" points="578.7,798.5 578.7,794.4 587.7,794.4 587.7,805.5 578.7,805.5 578.7,801.4 
			577.2,801.4 577.2,798.5 		"/>
	</g>
	<rect id="XMLID_708_" x="100.3" y="735.1" class="st1" width="9" height="11.1"/>
	<rect id="XMLID_707_" x="100.3" y="764.7" class="st1" width="9" height="11.1"/>
	<polygon id="XMLID_706_" class="st1" points="109.3,754 109.3,749.9 100.3,749.9 100.3,761 109.3,761 109.3,756.9 110.8,756.9 
		110.8,754 	"/>
	<g id="XMLID_699_">
		<rect id="XMLID_702_" x="578.7" y="735.1" class="st1" width="9" height="11.1"/>
		<rect id="XMLID_701_" x="578.7" y="764.7" class="st1" width="9" height="11.1"/>
		<polygon id="XMLID_700_" class="st1" points="578.7,754 578.7,749.9 587.7,749.9 587.7,761 578.7,761 578.7,756.9 577.2,756.9 
			577.2,754 		"/>
	</g>
	<rect id="XMLID_697_" x="100.3" y="690.6" class="st1" width="9" height="11.1"/>
	<rect id="XMLID_696_" x="100.3" y="720.3" class="st1" width="9" height="11.1"/>
	<polygon id="XMLID_695_" class="st1" points="109.3,709.6 109.3,705.5 100.3,705.5 100.3,716.6 109.3,716.6 109.3,712.5 
		110.8,712.5 110.8,709.6 	"/>
	<g id="XMLID_688_">
		<rect id="XMLID_691_" x="578.7" y="690.6" class="st1" width="9" height="11.1"/>
		<rect id="XMLID_690_" x="578.7" y="720.3" class="st1" width="9" height="11.1"/>
		<polygon id="XMLID_689_" class="st1" points="578.7,709.6 578.7,705.5 587.7,705.5 587.7,716.6 578.7,716.6 578.7,712.5 
			577.2,712.5 577.2,709.6 		"/>
	</g>
	<rect id="XMLID_686_" x="100.3" y="646.2" class="st1" width="9" height="11.1"/>
	<rect id="XMLID_685_" x="100.3" y="675.8" class="st1" width="9" height="11.1"/>
	<polygon id="XMLID_684_" class="st1" points="109.3,665.1 109.3,661 100.3,661 100.3,672.1 109.3,672.1 109.3,668 110.8,668 
		110.8,665.1 	"/>
	<g id="XMLID_677_">
		<rect id="XMLID_680_" x="578.7" y="646.2" class="st1" width="9" height="11.1"/>
		<rect id="XMLID_679_" x="578.7" y="675.8" class="st1" width="9" height="11.1"/>
		<polygon id="XMLID_678_" class="st1" points="578.7,665.1 578.7,661 587.7,661 587.7,672.1 578.7,672.1 578.7,668 577.2,668 
			577.2,665.1 		"/>
	</g>
	<rect id="XMLID_675_" x="100.3" y="601.7" class="st1" width="9" height="11.1"/>
	<rect id="XMLID_674_" x="100.3" y="631.4" class="st1" width="9" height="11.1"/>
	<polygon id="XMLID_673_" class="st1" points="109.3,620.7 109.3,616.6 100.3,616.6 100.3,627.7 109.3,627.7 109.3,623.6 
		110.8,623.6 110.8,620.7 	"/>
	<g id="XMLID_666_">
		<rect id="XMLID_669_" x="578.7" y="601.7" class="st1" width="9" height="11.1"/>
		<rect id="XMLID_668_" x="578.7" y="631.4" class="st1" width="9" height="11.1"/>
		<polygon id="XMLID_667_" class="st1" points="578.7,620.7 578.7,616.6 587.7,616.6 587.7,627.7 578.7,627.7 578.7,623.6 
			577.2,623.6 577.2,620.7 		"/>
	</g>
	<rect id="XMLID_664_" x="100.3" y="557.3" class="st1" width="9" height="11.1"/>
	<rect id="XMLID_663_" x="100.3" y="586.9" class="st1" width="9" height="11.1"/>
	<polygon id="XMLID_662_" class="st1" points="109.3,576.2 109.3,572.1 100.3,572.1 100.3,583.2 109.3,583.2 109.3,579.1 
		110.8,579.1 110.8,576.2 	"/>
	<g id="XMLID_655_">
		<rect id="XMLID_658_" x="578.7" y="557.3" class="st1" width="9" height="11.1"/>
		<rect id="XMLID_657_" x="578.7" y="586.9" class="st1" width="9" height="11.1"/>
		<polygon id="XMLID_656_" class="st1" points="578.7,576.2 578.7,572.1 587.7,572.1 587.7,583.2 578.7,583.2 578.7,579.1 
			577.2,579.1 577.2,576.2 		"/>
	</g>
	<rect id="XMLID_653_" x="100.3" y="512.8" class="st1" width="9" height="11.1"/>
	<rect id="XMLID_652_" x="100.3" y="542.5" class="st1" width="9" height="11.1"/>
	<polygon id="XMLID_651_" class="st1" points="109.3,531.8 109.3,527.7 100.3,527.7 100.3,538.8 109.3,538.8 109.3,534.7 
		110.8,534.7 110.8,531.8 	"/>
	<g id="XMLID_644_">
		<rect id="XMLID_647_" x="578.7" y="512.8" class="st1" width="9" height="11.1"/>
		<rect id="XMLID_646_" x="578.7" y="542.5" class="st1" width="9" height="11.1"/>
		<polygon id="XMLID_645_" class="st1" points="578.7,531.8 578.7,527.7 587.7,527.7 587.7,538.8 578.7,538.8 578.7,534.7 
			577.2,534.7 577.2,531.8 		"/>
	</g>
	<rect id="XMLID_642_" x="100.3" y="468.4" class="st1" width="9" height="11.1"/>
	<rect id="XMLID_641_" x="100.3" y="498" class="st1" width="9" height="11.1"/>
	<polygon id="XMLID_640_" class="st1" points="109.3,487.3 109.3,483.2 100.3,483.2 100.3,494.3 109.3,494.3 109.3,490.2 
		110.8,490.2 110.8,487.3 	"/>
	<g id="XMLID_633_">
		<rect id="XMLID_636_" x="578.7" y="468.4" class="st1" width="9" height="11.1"/>
		<rect id="XMLID_635_" x="578.7" y="498" class="st1" width="9" height="11.1"/>
		<polygon id="XMLID_634_" class="st1" points="578.7,487.3 578.7,483.2 587.7,483.2 587.7,494.3 578.7,494.3 578.7,490.2 
			577.2,490.2 577.2,487.3 		"/>
	</g>
	<rect id="XMLID_631_" x="100.3" y="423.9" class="st1" width="9" height="11.1"/>
	<rect id="XMLID_630_" x="100.3" y="453.6" class="st1" width="9" height="11.1"/>
	<polygon id="XMLID_629_" class="st1" points="109.3,442.9 109.3,438.8 100.3,438.8 100.3,449.9 109.3,449.9 109.3,445.8 
		110.8,445.8 110.8,442.9 	"/>
	<g id="XMLID_622_">
		<rect id="XMLID_625_" x="578.7" y="423.9" class="st1" width="9" height="11.1"/>
		<rect id="XMLID_624_" x="578.7" y="453.6" class="st1" width="9" height="11.1"/>
		<polygon id="XMLID_623_" class="st1" points="578.7,442.9 578.7,438.8 587.7,438.8 587.7,449.9 578.7,449.9 578.7,445.8 
			577.2,445.8 577.2,442.9 		"/>
	</g>
	<rect id="XMLID_620_" x="100.3" y="379.5" class="st1" width="9" height="11.1"/>
	<rect id="XMLID_619_" x="100.3" y="409.1" class="st1" width="9" height="11.1"/>
	<polygon id="XMLID_618_" class="st1" points="109.3,398.4 109.3,394.3 100.3,394.3 100.3,405.4 109.3,405.4 109.3,401.3 
		110.8,401.3 110.8,398.4 	"/>
	<g id="XMLID_609_">
		<rect id="XMLID_612_" x="578.7" y="379.5" class="st1" width="9" height="11.1"/>
		<rect id="XMLID_611_" x="578.7" y="409.1" class="st1" width="9" height="11.1"/>
		<polygon id="XMLID_610_" class="st1" points="578.7,398.4 578.7,394.3 587.7,394.3 587.7,405.4 578.7,405.4 578.7,401.3 
			577.2,401.3 577.2,398.4 		"/>
	</g>
	<rect id="XMLID_607_" x="100.3" y="335" class="st1" width="9" height="11.1"/>
	<rect id="XMLID_606_" x="100.3" y="364.7" class="st1" width="9" height="11.1"/>
	<polygon id="XMLID_605_" class="st1" points="109.3,354 109.3,349.9 100.3,349.9 100.3,361 109.3,361 109.3,356.9 110.8,356.9 
		110.8,354 	"/>
	<g id="XMLID_598_">
		<rect id="XMLID_601_" x="578.7" y="335" class="st1" width="9" height="11.1"/>
		<rect id="XMLID_600_" x="578.7" y="364.7" class="st1" width="9" height="11.1"/>
		<polygon id="XMLID_599_" class="st1" points="578.7,354 578.7,349.9 587.7,349.9 587.7,361 578.7,361 578.7,356.9 577.2,356.9 
			577.2,354 		"/>
	</g>
	<rect id="XMLID_596_" x="100.3" y="290.6" class="st1" width="9" height="11.1"/>
	<rect id="XMLID_595_" x="100.3" y="320.2" class="st1" width="9" height="11.1"/>
	<polygon id="XMLID_594_" class="st1" points="109.3,309.5 109.3,305.4 100.3,305.4 100.3,316.5 109.3,316.5 109.3,312.4 
		110.8,312.4 110.8,309.5 	"/>
	<g id="XMLID_587_">
		<rect id="XMLID_590_" x="578.7" y="290.6" class="st1" width="9" height="11.1"/>
		<rect id="XMLID_589_" x="578.7" y="320.2" class="st1" width="9" height="11.1"/>
		<polygon id="XMLID_588_" class="st1" points="578.7,309.5 578.7,305.4 587.7,305.4 587.7,316.5 578.7,316.5 578.7,312.4 
			577.2,312.4 577.2,309.5 		"/>
	</g>
	<rect id="XMLID_585_" x="100.3" y="246.1" class="st1" width="9" height="11.1"/>
	<rect id="XMLID_584_" x="100.3" y="275.8" class="st1" width="9" height="11.1"/>
	<polygon id="XMLID_583_" class="st1" points="109.3,265.1 109.3,261 100.3,261 100.3,272.1 109.3,272.1 109.3,268 110.8,268 
		110.8,265.1 	"/>
	<g id="XMLID_576_">
		<rect id="XMLID_579_" x="578.7" y="246.1" class="st1" width="9" height="11.1"/>
		<rect id="XMLID_578_" x="578.7" y="275.8" class="st1" width="9" height="11.1"/>
		<polygon id="XMLID_577_" class="st1" points="578.7,265.1 578.7,261 587.7,261 587.7,272.1 578.7,272.1 578.7,268 577.2,268 
			577.2,265.1 		"/>
	</g>
	<rect id="XMLID_574_" x="100.3" y="201.7" class="st1" width="9" height="11.1"/>
	<rect id="XMLID_573_" x="100.3" y="231.3" class="st1" width="9" height="11.1"/>
	<polygon id="XMLID_572_" class="st1" points="109.3,220.6 109.3,216.5 100.3,216.5 100.3,227.6 109.3,227.6 109.3,223.5 
		110.8,223.5 110.8,220.6 	"/>
	<g id="XMLID_565_">
		<rect id="XMLID_568_" x="578.7" y="201.7" class="st1" width="9" height="11.1"/>
		<rect id="XMLID_567_" x="578.7" y="231.3" class="st1" width="9" height="11.1"/>
		<polygon id="XMLID_566_" class="st1" points="578.7,220.6 578.7,216.5 587.7,216.5 587.7,227.6 578.7,227.6 578.7,223.5 
			577.2,223.5 577.2,220.6 		"/>
	</g>
	<rect id="XMLID_563_" x="100.3" y="157.2" class="st1" width="9" height="11.1"/>
	<rect id="XMLID_562_" x="100.3" y="186.9" class="st1" width="9" height="11.1"/>
	<polygon id="XMLID_561_" class="st1" points="109.3,176.2 109.3,172.1 100.3,172.1 100.3,183.2 109.3,183.2 109.3,179.1 
		110.8,179.1 110.8,176.2 	"/>
	<g id="XMLID_92_">
		<rect id="XMLID_557_" x="578.7" y="157.2" class="st1" width="9" height="11.1"/>
		<rect id="XMLID_556_" x="578.7" y="186.9" class="st1" width="9" height="11.1"/>
		<polygon id="XMLID_555_" class="st1" points="578.7,176.2 578.7,172.1 587.7,172.1 587.7,183.2 578.7,183.2 578.7,179.1 
			577.2,179.1 577.2,176.2 		"/>
	</g>
	<rect id="XMLID_90_" x="100.3" y="112.8" class="st1" width="9" height="11.1"/>
	<rect id="XMLID_89_" x="100.3" y="142.4" class="st1" width="9" height="11.1"/>
	<polygon id="XMLID_88_" class="st1" points="109.3,131.7 109.3,127.6 100.3,127.6 100.3,138.7 109.3,138.7 109.3,134.6 
		110.8,134.6 110.8,131.7 	"/>
	<g id="XMLID_81_">
		<rect id="XMLID_84_" x="578.7" y="112.8" class="st1" width="9" height="11.1"/>
		<rect id="XMLID_83_" x="578.7" y="142.4" class="st1" width="9" height="11.1"/>
		<polygon id="XMLID_82_" class="st1" points="578.7,131.7 578.7,127.6 587.7,127.6 587.7,138.7 578.7,138.7 578.7,134.6 
			577.2,134.6 577.2,131.7 		"/>
	</g>
	<rect id="XMLID_79_" x="100.3" y="68.3" class="st1" width="9" height="11.1"/>
	<rect id="XMLID_14_" x="100.3" y="98" class="st1" width="9" height="11.1"/>
	<polygon id="XMLID_13_" class="st1" points="109.3,87.3 109.3,83.2 100.3,83.2 100.3,94.3 109.3,94.3 109.3,90.2 110.8,90.2 
		110.8,87.3 	"/>
	<g id="XMLID_18_">
		<text id="XMLID_990_" transform="matrix(0.9276 0 0 1 2.441406e-04 1918.6051)" class="st1 st3 st4">1</text>
		<text id="XMLID_979_" transform="matrix(0.9276 0 0 1 2.441406e-04 1874.1552)" class="st1 st3 st4">2</text>
		<text id="XMLID_968_" transform="matrix(0.9276 0 0 1 2.441406e-04 1829.7052)" class="st1 st3 st4">3</text>
		<text id="XMLID_957_" transform="matrix(0.9276 0 0 1 2.441406e-04 1785.2551)" class="st1 st3 st4">4</text>
		<text id="XMLID_946_" transform="matrix(0.9276 0 0 1 2.441406e-04 1740.8052)" class="st1 st3 st4">5</text>
		<text id="XMLID_935_" transform="matrix(0.9276 0 0 1 2.441406e-04 1696.3551)" class="st1 st3 st4">6</text>
		<text id="XMLID_924_" transform="matrix(0.9276 0 0 1 2.441406e-04 1651.9052)" class="st1 st3 st4">7</text>
		<text id="XMLID_913_" transform="matrix(0.9276 0 0 1 2.441406e-04 1607.4552)" class="st1 st3 st4">8</text>
		<text id="XMLID_902_" transform="matrix(0.9276 0 0 1 2.441406e-04 1563.0051)" class="st1 st3 st4">9</text>
		<text id="XMLID_891_" transform="matrix(0.9276 0 0 1 2.441406e-04 1518.5551)" class="st1 st3 st4">10</text>
		<text id="XMLID_880_" transform="matrix(0.9276 0 0 1 2.441406e-04 1474.1051)" class="st1 st3 st4">11</text>
		<text id="XMLID_869_" transform="matrix(0.9276 0 0 1 2.441406e-04 1429.6552)" class="st1 st3 st4">12</text>
		<text id="XMLID_858_" transform="matrix(0.9276 0 0 1 2.441406e-04 1385.2051)" class="st1 st3 st4">13</text>
		<text id="XMLID_847_" transform="matrix(0.9276 0 0 1 2.441406e-04 1340.7551)" class="st1 st3 st4">14</text>
		<text id="XMLID_836_" transform="matrix(0.9276 0 0 1 2.441406e-04 1296.3052)" class="st1 st3 st4">15</text>
		<text id="XMLID_825_" transform="matrix(0.9276 0 0 1 2.441406e-04 1251.8552)" class="st1 st3 st4">16</text>
		<text id="XMLID_814_" transform="matrix(0.9276 0 0 1 2.441406e-04 1207.4053)" class="st1 st3 st4">17</text>
		<text id="XMLID_803_" transform="matrix(0.9276 0 0 1 2.441406e-04 1162.9551)" class="st1 st3 st4">18</text>
		<text id="XMLID_792_" transform="matrix(0.9276 0 0 1 2.441406e-04 1118.5051)" class="st1 st3 st4">19</text>
		<text id="XMLID_781_" transform="matrix(0.9276 0 0 1 2.441406e-04 1074.0552)" class="st1 st3 st4">20</text>
		<text id="XMLID_770_" transform="matrix(0.9276 0 0 1 2.441406e-04 1029.6052)" class="st1 st3 st4">21</text>
		<text id="XMLID_759_" transform="matrix(0.9276 0 0 1 2.441406e-04 985.155)" class="st1 st3 st4">22</text>
		<text id="XMLID_748_" transform="matrix(0.9276 0 0 1 2.441406e-04 940.705)" class="st1 st3 st4">23</text>
		<text id="XMLID_737_" transform="matrix(0.9276 0 0 1 2.441406e-04 896.2551)" class="st1 st3 st4">24</text>
		<text id="XMLID_726_" transform="matrix(0.9276 0 0 1 2.441406e-04 851.8051)" class="st1 st3 st4">25</text>
		<text id="XMLID_715_" transform="matrix(0.9276 0 0 1 2.441406e-04 807.3551)" class="st1 st3 st4">26</text>
		<text id="XMLID_704_" transform="matrix(0.9276 0 0 1 2.441406e-04 762.9052)" class="st1 st3 st4">27</text>
		<text id="XMLID_693_" transform="matrix(0.9276 0 0 1 2.441406e-04 718.4552)" class="st1 st3 st4">28</text>
		<text id="XMLID_682_" transform="matrix(0.9276 0 0 1 2.441406e-04 674.0052)" class="st1 st3 st4">29</text>
		<text id="XMLID_671_" transform="matrix(0.9276 0 0 1 2.441406e-04 629.5553)" class="st1 st3 st4">30</text>
		<text id="XMLID_660_" transform="matrix(0.9276 0 0 1 2.441406e-04 585.1053)" class="st1 st3 st4">31</text>
		<text id="XMLID_649_" transform="matrix(0.9276 0 0 1 2.441406e-04 540.6554)" class="st1 st3 st4">32</text>
		<text id="XMLID_638_" transform="matrix(0.9276 0 0 1 2.441406e-04 496.2054)" class="st1 st3 st4">33</text>
		<text id="XMLID_627_" transform="matrix(0.9276 0 0 1 2.441406e-04 451.7555)" class="st1 st3 st4">34</text>
		<text id="XMLID_616_" transform="matrix(0.9276 0 0 1 2.441406e-04 407.3055)" class="st1 st3 st4">35</text>
		<text id="XMLID_603_" transform="matrix(0.9276 0 0 1 2.441406e-04 362.8556)" class="st1 st3 st4">36</text>
		<text id="XMLID_592_" transform="matrix(0.9276 0 0 1 2.441406e-04 318.4056)" class="st1 st3 st4">37</text>
		<text id="XMLID_581_" transform="matrix(0.9276 0 0 1 2.441406e-04 273.9557)" class="st1 st3 st4">38</text>
		<text id="XMLID_570_" transform="matrix(0.9276 0 0 1 2.441406e-04 229.5057)" class="st1 st3 st4">39</text>
		<text id="XMLID_559_" transform="matrix(0.9276 0 0 1 2.441406e-04 185.0558)" class="st1 st3 st4">40</text>
		<text id="XMLID_86_" transform="matrix(0.9276 0 0 1 2.441406e-04 140.6058)" class="st1 st3 st4">41</text>
		<text id="XMLID_11_" transform="matrix(0.9276 0 0 1 2.441406e-04 96.1559)" class="st1 st3 st4">42</text>
	</g>

	<g id="XMLID_6_">
		<rect id="XMLID_9_" x="578.7" y="68.3" class="st1" width="9" height="11.1"/>
		<rect id="XMLID_8_" x="578.7" y="98" class="st1" width="9" height="11.1"/>
		<polygon id="XMLID_7_" class="st1" points="578.7,87.3 578.7,83.2 587.7,83.2 587.7,94.3 578.7,94.3 578.7,90.2 577.2,90.2 
			577.2,87.3 		"/>
	</g>
</g>
</svg>
