<?xml version="1.0" encoding="utf-8"?>
<!-- Generator: Adobe Illustrator 19.0.0, SVG Export Plug-In . SVG Version: 6.00 Build 0)  -->
<svg version="1.1" id="图层_1" xmlns="http://www.w3.org/2000/svg" xmlns:xlink="http://www.w3.org/1999/xlink" x="0px" y="0px"
	 width="689.6px" height="2177.7px" viewBox="0 0 689.6 2177.7" style="enable-background:new 0 0 689.6 2177.7;"
	 xml:space="preserve">
<style type="text/css">
	.st0{fill:url(#XMLID_4_);}
	.st1{fill:#333333;}
	.st2{stroke:#000000;stroke-width:0.7;stroke-miterlimit:10;}
	.st3{font-family:'Arial';}
	.st4{font-size:44px;}
</style>
<g id="XMLID_3933_">
	
		<linearGradient id="XMLID_4_" gradientUnits="userSpaceOnUse" x1="-78.5074" y1="1264.9156" x2="521.4926" y2="1264.9156" gradientTransform="matrix(1 0 0 -1 123.2847 2353.7656)">
		<stop  offset="0" style="stop-color:#999999"/>
		<stop  offset="8.950000e-02" style="stop-color:#666666"/>
		<stop  offset="0.9181" style="stop-color:#666666"/>
		<stop  offset="1" style="stop-color:#999999"/>
	</linearGradient>
	<path id="XMLID_3934_" class="st0" d="M44.8,0v2177.7h600V0H44.8z M569.8,2111.2h-450V66.5h450V2111.2z"/>
</g>
<g id="XMLID_2451_">
	<rect id="XMLID_2956_" x="100.3" y="2068.6" class="st1" width="9" height="11.1"/>
	<rect id="XMLID_2955_" x="100.3" y="2098.2" class="st1" width="9" height="11.1"/>
	<polygon id="XMLID_2954_" class="st1" points="109.3,2087.5 109.3,2083.4 100.3,2083.4 100.3,2094.5 109.3,2094.5 109.3,2090.4 
		110.8,2090.4 110.8,2087.5 	"/>
	<g id="XMLID_2947_">
		<rect id="XMLID_2950_" x="578.7" y="2068.6" class="st1" width="9" height="11.1"/>
		<rect id="XMLID_2949_" x="578.7" y="2098.2" class="st1" width="9" height="11.1"/>
		<polygon id="XMLID_2948_" class="st1" points="578.7,2087.5 578.7,2083.4 587.7,2083.4 587.7,2094.5 578.7,2094.5 578.7,2090.4 
			577.2,2090.4 577.2,2087.5 		"/>
	</g>
	<rect id="XMLID_2945_" x="100.3" y="2024.1" class="st1" width="9" height="11.1"/>
	<rect id="XMLID_2944_" x="100.3" y="2053.8" class="st1" width="9" height="11.1"/>
	<polygon id="XMLID_2943_" class="st1" points="109.3,2043.1 109.3,2039 100.3,2039 100.3,2050.1 109.3,2050.1 109.3,2046 
		110.8,2046 110.8,2043.1 	"/>
	<g id="XMLID_2936_">
		<rect id="XMLID_2939_" x="578.7" y="2024.1" class="st1" width="9" height="11.1"/>
		<rect id="XMLID_2938_" x="578.7" y="2053.8" class="st1" width="9" height="11.1"/>
		<polygon id="XMLID_2937_" class="st1" points="578.7,2043.1 578.7,2039 587.7,2039 587.7,2050.1 578.7,2050.1 578.7,2046 
			577.2,2046 577.2,2043.1 		"/>
	</g>
	<rect id="XMLID_2934_" x="100.3" y="1979.7" class="st1" width="9" height="11.1"/>
	<rect id="XMLID_2933_" x="100.3" y="2009.3" class="st1" width="9" height="11.1"/>
	<polygon id="XMLID_2932_" class="st1" points="109.3,1998.6 109.3,1994.5 100.3,1994.5 100.3,2005.6 109.3,2005.6 109.3,2001.5 
		110.8,2001.5 110.8,1998.6 	"/>
	<g id="XMLID_2925_">
		<rect id="XMLID_2928_" x="578.7" y="1979.7" class="st1" width="9" height="11.1"/>
		<rect id="XMLID_2927_" x="578.7" y="2009.3" class="st1" width="9" height="11.1"/>
		<polygon id="XMLID_2926_" class="st1" points="578.7,1998.6 578.7,1994.5 587.7,1994.5 587.7,2005.6 578.7,2005.6 578.7,2001.5 
			577.2,2001.5 577.2,1998.6 		"/>
	</g>
	<rect id="XMLID_2923_" x="100.3" y="1935.2" class="st1" width="9" height="11.1"/>
	<rect id="XMLID_2922_" x="100.3" y="1964.9" class="st1" width="9" height="11.1"/>
	<polygon id="XMLID_2921_" class="st1" points="109.3,1954.2 109.3,1950.1 100.3,1950.1 100.3,1961.2 109.3,1961.2 109.3,1957.1 
		110.8,1957.1 110.8,1954.2 	"/>
	<g id="XMLID_2914_">
		<rect id="XMLID_2917_" x="578.7" y="1935.2" class="st1" width="9" height="11.1"/>
		<rect id="XMLID_2916_" x="578.7" y="1964.9" class="st1" width="9" height="11.1"/>
		<polygon id="XMLID_2915_" class="st1" points="578.7,1954.2 578.7,1950.1 587.7,1950.1 587.7,1961.2 578.7,1961.2 578.7,1957.1 
			577.2,1957.1 577.2,1954.2 		"/>
	</g>
	<rect id="XMLID_2912_" x="100.3" y="1890.8" class="st1" width="9" height="11.1"/>
	<rect id="XMLID_2911_" x="100.3" y="1920.4" class="st1" width="9" height="11.1"/>
	<polygon id="XMLID_2910_" class="st1" points="109.3,1909.7 109.3,1905.6 100.3,1905.6 100.3,1916.7 109.3,1916.7 109.3,1912.6 
		110.8,1912.6 110.8,1909.7 	"/>
	<g id="XMLID_2903_">
		<rect id="XMLID_2906_" x="578.7" y="1890.8" class="st1" width="9" height="11.1"/>
		<rect id="XMLID_2905_" x="578.7" y="1920.4" class="st1" width="9" height="11.1"/>
		<polygon id="XMLID_2904_" class="st1" points="578.7,1909.7 578.7,1905.6 587.7,1905.6 587.7,1916.7 578.7,1916.7 578.7,1912.6 
			577.2,1912.6 577.2,1909.7 		"/>
	</g>
	<rect id="XMLID_2901_" x="100.3" y="1846.3" class="st1" width="9" height="11.1"/>
	<rect id="XMLID_2900_" x="100.3" y="1876" class="st1" width="9" height="11.1"/>
	<polygon id="XMLID_2899_" class="st1" points="109.3,1865.3 109.3,1861.2 100.3,1861.2 100.3,1872.3 109.3,1872.3 109.3,1868.2 
		110.8,1868.2 110.8,1865.3 	"/>
	<g id="XMLID_2892_">
		<rect id="XMLID_2895_" x="578.7" y="1846.3" class="st1" width="9" height="11.1"/>
		<rect id="XMLID_2894_" x="578.7" y="1876" class="st1" width="9" height="11.1"/>
		<polygon id="XMLID_2893_" class="st1" points="578.7,1865.3 578.7,1861.2 587.7,1861.2 587.7,1872.3 578.7,1872.3 578.7,1868.2 
			577.2,1868.2 577.2,1865.3 		"/>
	</g>
	<rect id="XMLID_2890_" x="100.3" y="1801.9" class="st1" width="9" height="11.1"/>
	<rect id="XMLID_2889_" x="100.3" y="1831.5" class="st1" width="9" height="11.1"/>
	<polygon id="XMLID_2888_" class="st1" points="109.3,1820.8 109.3,1816.7 100.3,1816.7 100.3,1827.8 109.3,1827.8 109.3,1823.7 
		110.8,1823.7 110.8,1820.8 	"/>
	<g id="XMLID_2881_">
		<rect id="XMLID_2884_" x="578.7" y="1801.9" class="st1" width="9" height="11.1"/>
		<rect id="XMLID_2883_" x="578.7" y="1831.5" class="st1" width="9" height="11.1"/>
		<polygon id="XMLID_2882_" class="st1" points="578.7,1820.8 578.7,1816.7 587.7,1816.7 587.7,1827.8 578.7,1827.8 578.7,1823.7 
			577.2,1823.7 577.2,1820.8 		"/>
	</g>
	<rect id="XMLID_2879_" x="100.3" y="1757.4" class="st1" width="9" height="11.1"/>
	<rect id="XMLID_2878_" x="100.3" y="1787.1" class="st1" width="9" height="11.1"/>
	<polygon id="XMLID_2877_" class="st1" points="109.3,1776.4 109.3,1772.3 100.3,1772.3 100.3,1783.4 109.3,1783.4 109.3,1779.3 
		110.8,1779.3 110.8,1776.4 	"/>
	<g id="XMLID_2870_">
		<rect id="XMLID_2873_" x="578.7" y="1757.4" class="st1" width="9" height="11.1"/>
		<rect id="XMLID_2872_" x="578.7" y="1787.1" class="st1" width="9" height="11.1"/>
		<polygon id="XMLID_2871_" class="st1" points="578.7,1776.4 578.7,1772.3 587.7,1772.3 587.7,1783.4 578.7,1783.4 578.7,1779.3 
			577.2,1779.3 577.2,1776.4 		"/>
	</g>
	<rect id="XMLID_2868_" x="100.3" y="1713" class="st1" width="9" height="11.1"/>
	<rect id="XMLID_2867_" x="100.3" y="1742.6" class="st1" width="9" height="11.1"/>
	<polygon id="XMLID_2866_" class="st1" points="109.3,1731.9 109.3,1727.8 100.3,1727.8 100.3,1738.9 109.3,1738.9 109.3,1734.8 
		110.8,1734.8 110.8,1731.9 	"/>
	<g id="XMLID_2859_">
		<rect id="XMLID_2862_" x="578.7" y="1713" class="st1" width="9" height="11.1"/>
		<rect id="XMLID_2861_" x="578.7" y="1742.6" class="st1" width="9" height="11.1"/>
		<polygon id="XMLID_2860_" class="st1" points="578.7,1731.9 578.7,1727.8 587.7,1727.8 587.7,1738.9 578.7,1738.9 578.7,1734.8 
			577.2,1734.8 577.2,1731.9 		"/>
	</g>
	<rect id="XMLID_2857_" x="100.3" y="1668.5" class="st1" width="9" height="11.1"/>
	<rect id="XMLID_2856_" x="100.3" y="1698.2" class="st1" width="9" height="11.1"/>
	<polygon id="XMLID_2855_" class="st1" points="109.3,1687.5 109.3,1683.4 100.3,1683.4 100.3,1694.5 109.3,1694.5 109.3,1690.4 
		110.8,1690.4 110.8,1687.5 	"/>
	<g id="XMLID_2848_">
		<rect id="XMLID_2851_" x="578.7" y="1668.5" class="st1" width="9" height="11.1"/>
		<rect id="XMLID_2850_" x="578.7" y="1698.2" class="st1" width="9" height="11.1"/>
		<polygon id="XMLID_2849_" class="st1" points="578.7,1687.5 578.7,1683.4 587.7,1683.4 587.7,1694.5 578.7,1694.5 578.7,1690.4 
			577.2,1690.4 577.2,1687.5 		"/>
	</g>
	<rect id="XMLID_2846_" x="100.3" y="1624.1" class="st1" width="9" height="11.1"/>
	<rect id="XMLID_2845_" x="100.3" y="1653.7" class="st1" width="9" height="11.1"/>
	<polygon id="XMLID_2844_" class="st1" points="109.3,1643 109.3,1638.9 100.3,1638.9 100.3,1650 109.3,1650 109.3,1645.9 
		110.8,1645.9 110.8,1643 	"/>
	<g id="XMLID_2837_">
		<rect id="XMLID_2840_" x="578.7" y="1624.1" class="st1" width="9" height="11.1"/>
		<rect id="XMLID_2839_" x="578.7" y="1653.7" class="st1" width="9" height="11.1"/>
		<polygon id="XMLID_2838_" class="st1" points="578.7,1643 578.7,1638.9 587.7,1638.9 587.7,1650 578.7,1650 578.7,1645.9 
			577.2,1645.9 577.2,1643 		"/>
	</g>
	<rect id="XMLID_2835_" x="100.3" y="1579.6" class="st1" width="9" height="11.1"/>
	<rect id="XMLID_2834_" x="100.3" y="1609.3" class="st1" width="9" height="11.1"/>
	<polygon id="XMLID_2833_" class="st1" points="109.3,1598.6 109.3,1594.5 100.3,1594.5 100.3,1605.6 109.3,1605.6 109.3,1601.5 
		110.8,1601.5 110.8,1598.6 	"/>
	<g id="XMLID_2826_">
		<rect id="XMLID_2829_" x="578.7" y="1579.6" class="st1" width="9" height="11.1"/>
		<rect id="XMLID_2828_" x="578.7" y="1609.3" class="st1" width="9" height="11.1"/>
		<polygon id="XMLID_2827_" class="st1" points="578.7,1598.6 578.7,1594.5 587.7,1594.5 587.7,1605.6 578.7,1605.6 578.7,1601.5 
			577.2,1601.5 577.2,1598.6 		"/>
	</g>
	<rect id="XMLID_2824_" x="100.3" y="1535.2" class="st1" width="9" height="11.1"/>
	<rect id="XMLID_2823_" x="100.3" y="1564.8" class="st1" width="9" height="11.1"/>
	<polygon id="XMLID_2822_" class="st1" points="109.3,1554.1 109.3,1550 100.3,1550 100.3,1561.1 109.3,1561.1 109.3,1557 
		110.8,1557 110.8,1554.1 	"/>
	<g id="XMLID_2815_">
		<rect id="XMLID_2818_" x="578.7" y="1535.2" class="st1" width="9" height="11.1"/>
		<rect id="XMLID_2817_" x="578.7" y="1564.8" class="st1" width="9" height="11.1"/>
		<polygon id="XMLID_2816_" class="st1" points="578.7,1554.1 578.7,1550 587.7,1550 587.7,1561.1 578.7,1561.1 578.7,1557 
			577.2,1557 577.2,1554.1 		"/>
	</g>
	<rect id="XMLID_2813_" x="100.3" y="1490.7" class="st1" width="9" height="11.1"/>
	<rect id="XMLID_2812_" x="100.3" y="1520.4" class="st1" width="9" height="11.1"/>
	<polygon id="XMLID_2811_" class="st1" points="109.3,1509.7 109.3,1505.6 100.3,1505.6 100.3,1516.7 109.3,1516.7 109.3,1512.6 
		110.8,1512.6 110.8,1509.7 	"/>
	<g id="XMLID_2804_">
		<rect id="XMLID_2807_" x="578.7" y="1490.7" class="st1" width="9" height="11.1"/>
		<rect id="XMLID_2806_" x="578.7" y="1520.4" class="st1" width="9" height="11.1"/>
		<polygon id="XMLID_2805_" class="st1" points="578.7,1509.7 578.7,1505.6 587.7,1505.6 587.7,1516.7 578.7,1516.7 578.7,1512.6 
			577.2,1512.6 577.2,1509.7 		"/>
	</g>
	<rect id="XMLID_2802_" x="100.3" y="1446.3" class="st1" width="9" height="11.1"/>
	<rect id="XMLID_2801_" x="100.3" y="1475.9" class="st1" width="9" height="11.1"/>
	<polygon id="XMLID_2800_" class="st1" points="109.3,1465.2 109.3,1461.1 100.3,1461.1 100.3,1472.2 109.3,1472.2 109.3,1468.1 
		110.8,1468.1 110.8,1465.2 	"/>
	<g id="XMLID_2793_">
		<rect id="XMLID_2796_" x="578.7" y="1446.3" class="st1" width="9" height="11.1"/>
		<rect id="XMLID_2795_" x="578.7" y="1475.9" class="st1" width="9" height="11.1"/>
		<polygon id="XMLID_2794_" class="st1" points="578.7,1465.2 578.7,1461.1 587.7,1461.1 587.7,1472.2 578.7,1472.2 578.7,1468.1 
			577.2,1468.1 577.2,1465.2 		"/>
	</g>
	<rect id="XMLID_2791_" x="100.3" y="1401.8" class="st1" width="9" height="11.1"/>
	<rect id="XMLID_2790_" x="100.3" y="1431.5" class="st1" width="9" height="11.1"/>
	<polygon id="XMLID_2789_" class="st1" points="109.3,1420.8 109.3,1416.7 100.3,1416.7 100.3,1427.8 109.3,1427.8 109.3,1423.7 
		110.8,1423.7 110.8,1420.8 	"/>
	<g id="XMLID_2782_">
		<rect id="XMLID_2785_" x="578.7" y="1401.8" class="st1" width="9" height="11.1"/>
		<rect id="XMLID_2784_" x="578.7" y="1431.5" class="st1" width="9" height="11.1"/>
		<polygon id="XMLID_2783_" class="st1" points="578.7,1420.8 578.7,1416.7 587.7,1416.7 587.7,1427.8 578.7,1427.8 578.7,1423.7 
			577.2,1423.7 577.2,1420.8 		"/>
	</g>
	<rect id="XMLID_2780_" x="100.3" y="1357.4" class="st1" width="9" height="11.1"/>
	<rect id="XMLID_2779_" x="100.3" y="1387" class="st1" width="9" height="11.1"/>
	<polygon id="XMLID_2778_" class="st1" points="109.3,1376.3 109.3,1372.2 100.3,1372.2 100.3,1383.3 109.3,1383.3 109.3,1379.2 
		110.8,1379.2 110.8,1376.3 	"/>
	<g id="XMLID_2771_">
		<rect id="XMLID_2774_" x="578.7" y="1357.4" class="st1" width="9" height="11.1"/>
		<rect id="XMLID_2773_" x="578.7" y="1387" class="st1" width="9" height="11.1"/>
		<polygon id="XMLID_2772_" class="st1" points="578.7,1376.3 578.7,1372.2 587.7,1372.2 587.7,1383.3 578.7,1383.3 578.7,1379.2 
			577.2,1379.2 577.2,1376.3 		"/>
	</g>
	<rect id="XMLID_2769_" x="100.3" y="1312.9" class="st1" width="9" height="11.1"/>
	<rect id="XMLID_2768_" x="100.3" y="1342.6" class="st1" width="9" height="11.1"/>
	<polygon id="XMLID_2767_" class="st1" points="109.3,1331.9 109.3,1327.8 100.3,1327.8 100.3,1338.9 109.3,1338.9 109.3,1334.8 
		110.8,1334.8 110.8,1331.9 	"/>
	<g id="XMLID_2760_">
		<rect id="XMLID_2763_" x="578.7" y="1312.9" class="st1" width="9" height="11.1"/>
		<rect id="XMLID_2762_" x="578.7" y="1342.6" class="st1" width="9" height="11.1"/>
		<polygon id="XMLID_2761_" class="st1" points="578.7,1331.9 578.7,1327.8 587.7,1327.8 587.7,1338.9 578.7,1338.9 578.7,1334.8 
			577.2,1334.8 577.2,1331.9 		"/>
	</g>
	<rect id="XMLID_2758_" x="100.3" y="1268.5" class="st1" width="9" height="11.1"/>
	<rect id="XMLID_2757_" x="100.3" y="1298.1" class="st1" width="9" height="11.1"/>
	<polygon id="XMLID_2756_" class="st1" points="109.3,1287.4 109.3,1283.3 100.3,1283.3 100.3,1294.4 109.3,1294.4 109.3,1290.3 
		110.8,1290.3 110.8,1287.4 	"/>
	<g id="XMLID_2749_">
		<rect id="XMLID_2752_" x="578.7" y="1268.5" class="st1" width="9" height="11.1"/>
		<rect id="XMLID_2751_" x="578.7" y="1298.1" class="st1" width="9" height="11.1"/>
		<polygon id="XMLID_2750_" class="st1" points="578.7,1287.4 578.7,1283.3 587.7,1283.3 587.7,1294.4 578.7,1294.4 578.7,1290.3 
			577.2,1290.3 577.2,1287.4 		"/>
	</g>
	<rect id="XMLID_2747_" x="100.3" y="1224" class="st1" width="9" height="11.1"/>
	<rect id="XMLID_2746_" x="100.3" y="1253.7" class="st1" width="9" height="11.1"/>
	<polygon id="XMLID_2745_" class="st1" points="109.3,1243 109.3,1238.9 100.3,1238.9 100.3,1250 109.3,1250 109.3,1245.9 
		110.8,1245.9 110.8,1243 	"/>
	<g id="XMLID_2738_">
		<rect id="XMLID_2741_" x="578.7" y="1224" class="st1" width="9" height="11.1"/>
		<rect id="XMLID_2740_" x="578.7" y="1253.7" class="st1" width="9" height="11.1"/>
		<polygon id="XMLID_2739_" class="st1" points="578.7,1243 578.7,1238.9 587.7,1238.9 587.7,1250 578.7,1250 578.7,1245.9 
			577.2,1245.9 577.2,1243 		"/>
	</g>
	<rect id="XMLID_2736_" x="100.3" y="1179.6" class="st1" width="9" height="11.1"/>
	<rect id="XMLID_2735_" x="100.3" y="1209.2" class="st1" width="9" height="11.1"/>
	<polygon id="XMLID_2734_" class="st1" points="109.3,1198.5 109.3,1194.4 100.3,1194.4 100.3,1205.5 109.3,1205.5 109.3,1201.4 
		110.8,1201.4 110.8,1198.5 	"/>
	<g id="XMLID_2727_">
		<rect id="XMLID_2730_" x="578.7" y="1179.6" class="st1" width="9" height="11.1"/>
		<rect id="XMLID_2729_" x="578.7" y="1209.2" class="st1" width="9" height="11.1"/>
		<polygon id="XMLID_2728_" class="st1" points="578.7,1198.5 578.7,1194.4 587.7,1194.4 587.7,1205.5 578.7,1205.5 578.7,1201.4 
			577.2,1201.4 577.2,1198.5 		"/>
	</g>
	<rect id="XMLID_2725_" x="100.3" y="1135.1" class="st1" width="9" height="11.1"/>
	<rect id="XMLID_2724_" x="100.3" y="1164.8" class="st1" width="9" height="11.1"/>
	<polygon id="XMLID_2723_" class="st1" points="109.3,1154.1 109.3,1150 100.3,1150 100.3,1161.1 109.3,1161.1 109.3,1157 
		110.8,1157 110.8,1154.1 	"/>
	<g id="XMLID_2716_">
		<rect id="XMLID_2719_" x="578.7" y="1135.1" class="st1" width="9" height="11.1"/>
		<rect id="XMLID_2718_" x="578.7" y="1164.8" class="st1" width="9" height="11.1"/>
		<polygon id="XMLID_2717_" class="st1" points="578.7,1154.1 578.7,1150 587.7,1150 587.7,1161.1 578.7,1161.1 578.7,1157 
			577.2,1157 577.2,1154.1 		"/>
	</g>
	<rect id="XMLID_2714_" x="100.3" y="1090.7" class="st1" width="9" height="11.1"/>
	<rect id="XMLID_2713_" x="100.3" y="1120.3" class="st1" width="9" height="11.1"/>
	<polygon id="XMLID_2712_" class="st1" points="109.3,1109.6 109.3,1105.5 100.3,1105.5 100.3,1116.6 109.3,1116.6 109.3,1112.5 
		110.8,1112.5 110.8,1109.6 	"/>
	<g id="XMLID_2705_">
		<rect id="XMLID_2708_" x="578.7" y="1090.7" class="st1" width="9" height="11.1"/>
		<rect id="XMLID_2707_" x="578.7" y="1120.3" class="st1" width="9" height="11.1"/>
		<polygon id="XMLID_2706_" class="st1" points="578.7,1109.6 578.7,1105.5 587.7,1105.5 587.7,1116.6 578.7,1116.6 578.7,1112.5 
			577.2,1112.5 577.2,1109.6 		"/>
	</g>
	<rect id="XMLID_2703_" x="100.3" y="1046.2" class="st1" width="9" height="11.1"/>
	<rect id="XMLID_2702_" x="100.3" y="1075.9" class="st1" width="9" height="11.1"/>
	<polygon id="XMLID_2701_" class="st1" points="109.3,1065.2 109.3,1061.1 100.3,1061.1 100.3,1072.2 109.3,1072.2 109.3,1068.1 
		110.8,1068.1 110.8,1065.2 	"/>
	<g id="XMLID_2694_">
		<rect id="XMLID_2697_" x="578.7" y="1046.2" class="st1" width="9" height="11.1"/>
		<rect id="XMLID_2696_" x="578.7" y="1075.9" class="st1" width="9" height="11.1"/>
		<polygon id="XMLID_2695_" class="st1" points="578.7,1065.2 578.7,1061.1 587.7,1061.1 587.7,1072.2 578.7,1072.2 578.7,1068.1 
			577.2,1068.1 577.2,1065.2 		"/>
	</g>
	<rect id="XMLID_2692_" x="100.3" y="1001.8" class="st1" width="9" height="11.1"/>
	<rect id="XMLID_2691_" x="100.3" y="1031.4" class="st1" width="9" height="11.1"/>
	<polygon id="XMLID_2690_" class="st1" points="109.3,1020.7 109.3,1016.6 100.3,1016.6 100.3,1027.7 109.3,1027.7 109.3,1023.6 
		110.8,1023.6 110.8,1020.7 	"/>
	<g id="XMLID_2683_">
		<rect id="XMLID_2686_" x="578.7" y="1001.8" class="st1" width="9" height="11.1"/>
		<rect id="XMLID_2685_" x="578.7" y="1031.4" class="st1" width="9" height="11.1"/>
		<polygon id="XMLID_2684_" class="st1" points="578.7,1020.7 578.7,1016.6 587.7,1016.6 587.7,1027.7 578.7,1027.7 578.7,1023.6 
			577.2,1023.6 577.2,1020.7 		"/>
	</g>
	<rect id="XMLID_2681_" x="100.3" y="957.3" class="st1" width="9" height="11.1"/>
	<rect id="XMLID_2680_" x="100.3" y="987" class="st1" width="9" height="11.1"/>
	<polygon id="XMLID_2679_" class="st1" points="109.3,976.3 109.3,972.2 100.3,972.2 100.3,983.3 109.3,983.3 109.3,979.2 
		110.8,979.2 110.8,976.3 	"/>
	<g id="XMLID_2672_">
		<rect id="XMLID_2675_" x="578.7" y="957.3" class="st1" width="9" height="11.1"/>
		<rect id="XMLID_2674_" x="578.7" y="987" class="st1" width="9" height="11.1"/>
		<polygon id="XMLID_2673_" class="st1" points="578.7,976.3 578.7,972.2 587.7,972.2 587.7,983.3 578.7,983.3 578.7,979.2 
			577.2,979.2 577.2,976.3 		"/>
	</g>
	<rect id="XMLID_2670_" x="100.3" y="912.9" class="st1" width="9" height="11.1"/>
	<rect id="XMLID_2669_" x="100.3" y="942.5" class="st1" width="9" height="11.1"/>
	<polygon id="XMLID_2668_" class="st1" points="109.3,931.8 109.3,927.7 100.3,927.7 100.3,938.8 109.3,938.8 109.3,934.7 
		110.8,934.7 110.8,931.8 	"/>
	<g id="XMLID_2661_">
		<rect id="XMLID_2664_" x="578.7" y="912.9" class="st1" width="9" height="11.1"/>
		<rect id="XMLID_2663_" x="578.7" y="942.5" class="st1" width="9" height="11.1"/>
		<polygon id="XMLID_2662_" class="st1" points="578.7,931.8 578.7,927.7 587.7,927.7 587.7,938.8 578.7,938.8 578.7,934.7 
			577.2,934.7 577.2,931.8 		"/>
	</g>
	<rect id="XMLID_2659_" x="100.3" y="868.4" class="st1" width="9" height="11.1"/>
	<rect id="XMLID_2658_" x="100.3" y="898.1" class="st1" width="9" height="11.1"/>
	<polygon id="XMLID_2657_" class="st1" points="109.3,887.4 109.3,883.3 100.3,883.3 100.3,894.4 109.3,894.4 109.3,890.3 
		110.8,890.3 110.8,887.4 	"/>
	<g id="XMLID_2650_">
		<rect id="XMLID_2653_" x="578.7" y="868.4" class="st1" width="9" height="11.1"/>
		<rect id="XMLID_2652_" x="578.7" y="898.1" class="st1" width="9" height="11.1"/>
		<polygon id="XMLID_2651_" class="st1" points="578.7,887.4 578.7,883.3 587.7,883.3 587.7,894.4 578.7,894.4 578.7,890.3 
			577.2,890.3 577.2,887.4 		"/>
	</g>
	<rect id="XMLID_2648_" x="100.3" y="824" class="st1" width="9" height="11.1"/>
	<rect id="XMLID_2647_" x="100.3" y="853.6" class="st1" width="9" height="11.1"/>
	<polygon id="XMLID_2646_" class="st1" points="109.3,842.9 109.3,838.8 100.3,838.8 100.3,849.9 109.3,849.9 109.3,845.8 
		110.8,845.8 110.8,842.9 	"/>
	<g id="XMLID_2639_">
		<rect id="XMLID_2642_" x="578.7" y="824" class="st1" width="9" height="11.1"/>
		<rect id="XMLID_2641_" x="578.7" y="853.6" class="st1" width="9" height="11.1"/>
		<polygon id="XMLID_2640_" class="st1" points="578.7,842.9 578.7,838.8 587.7,838.8 587.7,849.9 578.7,849.9 578.7,845.8 
			577.2,845.8 577.2,842.9 		"/>
	</g>
	<rect id="XMLID_2637_" x="100.3" y="779.5" class="st1" width="9" height="11.1"/>
	<rect id="XMLID_2636_" x="100.3" y="809.2" class="st1" width="9" height="11.1"/>
	<polygon id="XMLID_2635_" class="st1" points="109.3,798.5 109.3,794.4 100.3,794.4 100.3,805.5 109.3,805.5 109.3,801.4 
		110.8,801.4 110.8,798.5 	"/>
	<g id="XMLID_2628_">
		<rect id="XMLID_2631_" x="578.7" y="779.5" class="st1" width="9" height="11.1"/>
		<rect id="XMLID_2630_" x="578.7" y="809.2" class="st1" width="9" height="11.1"/>
		<polygon id="XMLID_2629_" class="st1" points="578.7,798.5 578.7,794.4 587.7,794.4 587.7,805.5 578.7,805.5 578.7,801.4 
			577.2,801.4 577.2,798.5 		"/>
	</g>
	<rect id="XMLID_2626_" x="100.3" y="735.1" class="st1" width="9" height="11.1"/>
	<rect id="XMLID_2625_" x="100.3" y="764.7" class="st1" width="9" height="11.1"/>
	<polygon id="XMLID_2624_" class="st1" points="109.3,754 109.3,749.9 100.3,749.9 100.3,761 109.3,761 109.3,756.9 110.8,756.9 
		110.8,754 	"/>
	<g id="XMLID_2617_">
		<rect id="XMLID_2620_" x="578.7" y="735.1" class="st1" width="9" height="11.1"/>
		<rect id="XMLID_2619_" x="578.7" y="764.7" class="st1" width="9" height="11.1"/>
		<polygon id="XMLID_2618_" class="st1" points="578.7,754 578.7,749.9 587.7,749.9 587.7,761 578.7,761 578.7,756.9 577.2,756.9 
			577.2,754 		"/>
	</g>
	<rect id="XMLID_2615_" x="100.3" y="690.6" class="st1" width="9" height="11.1"/>
	<rect id="XMLID_2614_" x="100.3" y="720.3" class="st1" width="9" height="11.1"/>
	<polygon id="XMLID_2613_" class="st1" points="109.3,709.6 109.3,705.5 100.3,705.5 100.3,716.6 109.3,716.6 109.3,712.5 
		110.8,712.5 110.8,709.6 	"/>
	<g id="XMLID_2606_">
		<rect id="XMLID_2609_" x="578.7" y="690.6" class="st1" width="9" height="11.1"/>
		<rect id="XMLID_2608_" x="578.7" y="720.3" class="st1" width="9" height="11.1"/>
		<polygon id="XMLID_2607_" class="st1" points="578.7,709.6 578.7,705.5 587.7,705.5 587.7,716.6 578.7,716.6 578.7,712.5 
			577.2,712.5 577.2,709.6 		"/>
	</g>
	<rect id="XMLID_2604_" x="100.3" y="646.2" class="st1" width="9" height="11.1"/>
	<rect id="XMLID_2603_" x="100.3" y="675.8" class="st1" width="9" height="11.1"/>
	<polygon id="XMLID_2602_" class="st1" points="109.3,665.1 109.3,661 100.3,661 100.3,672.1 109.3,672.1 109.3,668 110.8,668 
		110.8,665.1 	"/>
	<g id="XMLID_2595_">
		<rect id="XMLID_2598_" x="578.7" y="646.2" class="st1" width="9" height="11.1"/>
		<rect id="XMLID_2597_" x="578.7" y="675.8" class="st1" width="9" height="11.1"/>
		<polygon id="XMLID_2596_" class="st1" points="578.7,665.1 578.7,661 587.7,661 587.7,672.1 578.7,672.1 578.7,668 577.2,668 
			577.2,665.1 		"/>
	</g>
	<rect id="XMLID_2593_" x="100.3" y="601.7" class="st1" width="9" height="11.1"/>
	<rect id="XMLID_2592_" x="100.3" y="631.4" class="st1" width="9" height="11.1"/>
	<polygon id="XMLID_2591_" class="st1" points="109.3,620.7 109.3,616.6 100.3,616.6 100.3,627.7 109.3,627.7 109.3,623.6 
		110.8,623.6 110.8,620.7 	"/>
	<g id="XMLID_2584_">
		<rect id="XMLID_2587_" x="578.7" y="601.7" class="st1" width="9" height="11.1"/>
		<rect id="XMLID_2586_" x="578.7" y="631.4" class="st1" width="9" height="11.1"/>
		<polygon id="XMLID_2585_" class="st1" points="578.7,620.7 578.7,616.6 587.7,616.6 587.7,627.7 578.7,627.7 578.7,623.6 
			577.2,623.6 577.2,620.7 		"/>
	</g>
	<rect id="XMLID_2582_" x="100.3" y="557.3" class="st1" width="9" height="11.1"/>
	<rect id="XMLID_2581_" x="100.3" y="586.9" class="st1" width="9" height="11.1"/>
	<polygon id="XMLID_2580_" class="st1" points="109.3,576.2 109.3,572.1 100.3,572.1 100.3,583.2 109.3,583.2 109.3,579.1 
		110.8,579.1 110.8,576.2 	"/>
	<g id="XMLID_2573_">
		<rect id="XMLID_2576_" x="578.7" y="557.3" class="st1" width="9" height="11.1"/>
		<rect id="XMLID_2575_" x="578.7" y="586.9" class="st1" width="9" height="11.1"/>
		<polygon id="XMLID_2574_" class="st1" points="578.7,576.2 578.7,572.1 587.7,572.1 587.7,583.2 578.7,583.2 578.7,579.1 
			577.2,579.1 577.2,576.2 		"/>
	</g>
	<rect id="XMLID_2571_" x="100.3" y="512.8" class="st1" width="9" height="11.1"/>
	<rect id="XMLID_2570_" x="100.3" y="542.5" class="st1" width="9" height="11.1"/>
	<polygon id="XMLID_2569_" class="st1" points="109.3,531.8 109.3,527.7 100.3,527.7 100.3,538.8 109.3,538.8 109.3,534.7 
		110.8,534.7 110.8,531.8 	"/>
	<g id="XMLID_2562_">
		<rect id="XMLID_2565_" x="578.7" y="512.8" class="st1" width="9" height="11.1"/>
		<rect id="XMLID_2564_" x="578.7" y="542.5" class="st1" width="9" height="11.1"/>
		<polygon id="XMLID_2563_" class="st1" points="578.7,531.8 578.7,527.7 587.7,527.7 587.7,538.8 578.7,538.8 578.7,534.7 
			577.2,534.7 577.2,531.8 		"/>
	</g>
	<rect id="XMLID_2560_" x="100.3" y="468.4" class="st1" width="9" height="11.1"/>
	<rect id="XMLID_2559_" x="100.3" y="498" class="st1" width="9" height="11.1"/>
	<polygon id="XMLID_2558_" class="st1" points="109.3,487.3 109.3,483.2 100.3,483.2 100.3,494.3 109.3,494.3 109.3,490.2 
		110.8,490.2 110.8,487.3 	"/>
	<g id="XMLID_2551_">
		<rect id="XMLID_2554_" x="578.7" y="468.4" class="st1" width="9" height="11.1"/>
		<rect id="XMLID_2553_" x="578.7" y="498" class="st1" width="9" height="11.1"/>
		<polygon id="XMLID_2552_" class="st1" points="578.7,487.3 578.7,483.2 587.7,483.2 587.7,494.3 578.7,494.3 578.7,490.2 
			577.2,490.2 577.2,487.3 		"/>
	</g>
	<rect id="XMLID_2549_" x="100.3" y="423.9" class="st1" width="9" height="11.1"/>
	<rect id="XMLID_2548_" x="100.3" y="453.6" class="st1" width="9" height="11.1"/>
	<polygon id="XMLID_2547_" class="st1" points="109.3,442.9 109.3,438.8 100.3,438.8 100.3,449.9 109.3,449.9 109.3,445.8 
		110.8,445.8 110.8,442.9 	"/>
	<g id="XMLID_2540_">
		<rect id="XMLID_2543_" x="578.7" y="423.9" class="st1" width="9" height="11.1"/>
		<rect id="XMLID_2542_" x="578.7" y="453.6" class="st1" width="9" height="11.1"/>
		<polygon id="XMLID_2541_" class="st1" points="578.7,442.9 578.7,438.8 587.7,438.8 587.7,449.9 578.7,449.9 578.7,445.8 
			577.2,445.8 577.2,442.9 		"/>
	</g>
	<rect id="XMLID_2538_" x="100.3" y="379.5" class="st1" width="9" height="11.1"/>
	<rect id="XMLID_2537_" x="100.3" y="409.1" class="st1" width="9" height="11.1"/>
	<polygon id="XMLID_2536_" class="st1" points="109.3,398.4 109.3,394.3 100.3,394.3 100.3,405.4 109.3,405.4 109.3,401.3 
		110.8,401.3 110.8,398.4 	"/>
	<g id="XMLID_2529_">
		<rect id="XMLID_2532_" x="578.7" y="379.5" class="st1" width="9" height="11.1"/>
		<rect id="XMLID_2531_" x="578.7" y="409.1" class="st1" width="9" height="11.1"/>
		<polygon id="XMLID_2530_" class="st1" points="578.7,398.4 578.7,394.3 587.7,394.3 587.7,405.4 578.7,405.4 578.7,401.3 
			577.2,401.3 577.2,398.4 		"/>
	</g>
	<rect id="XMLID_2527_" x="100.3" y="335" class="st1" width="9" height="11.1"/>
	<rect id="XMLID_2526_" x="100.3" y="364.7" class="st1" width="9" height="11.1"/>
	<polygon id="XMLID_2525_" class="st1" points="109.3,354 109.3,349.9 100.3,349.9 100.3,361 109.3,361 109.3,356.9 110.8,356.9 
		110.8,354 	"/>
	<g id="XMLID_2518_">
		<rect id="XMLID_2521_" x="578.7" y="335" class="st1" width="9" height="11.1"/>
		<rect id="XMLID_2520_" x="578.7" y="364.7" class="st1" width="9" height="11.1"/>
		<polygon id="XMLID_2519_" class="st1" points="578.7,354 578.7,349.9 587.7,349.9 587.7,361 578.7,361 578.7,356.9 577.2,356.9 
			577.2,354 		"/>
	</g>
	<rect id="XMLID_2516_" x="100.3" y="290.6" class="st1" width="9" height="11.1"/>
	<rect id="XMLID_2515_" x="100.3" y="320.2" class="st1" width="9" height="11.1"/>
	<polygon id="XMLID_2514_" class="st1" points="109.3,309.5 109.3,305.4 100.3,305.4 100.3,316.5 109.3,316.5 109.3,312.4 
		110.8,312.4 110.8,309.5 	"/>
	<g id="XMLID_2507_">
		<rect id="XMLID_2510_" x="578.7" y="290.6" class="st1" width="9" height="11.1"/>
		<rect id="XMLID_2509_" x="578.7" y="320.2" class="st1" width="9" height="11.1"/>
		<polygon id="XMLID_2508_" class="st1" points="578.7,309.5 578.7,305.4 587.7,305.4 587.7,316.5 578.7,316.5 578.7,312.4 
			577.2,312.4 577.2,309.5 		"/>
	</g>
	<rect id="XMLID_2505_" x="100.3" y="246.1" class="st1" width="9" height="11.1"/>
	<rect id="XMLID_2504_" x="100.3" y="275.8" class="st1" width="9" height="11.1"/>
	<polygon id="XMLID_2503_" class="st1" points="109.3,265.1 109.3,261 100.3,261 100.3,272.1 109.3,272.1 109.3,268 110.8,268 
		110.8,265.1 	"/>
	<g id="XMLID_2496_">
		<rect id="XMLID_2499_" x="578.7" y="246.1" class="st1" width="9" height="11.1"/>
		<rect id="XMLID_2498_" x="578.7" y="275.8" class="st1" width="9" height="11.1"/>
		<polygon id="XMLID_2497_" class="st1" points="578.7,265.1 578.7,261 587.7,261 587.7,272.1 578.7,272.1 578.7,268 577.2,268 
			577.2,265.1 		"/>
	</g>
	<rect id="XMLID_2494_" x="100.3" y="201.7" class="st1" width="9" height="11.1"/>
	<rect id="XMLID_2493_" x="100.3" y="231.3" class="st1" width="9" height="11.1"/>
	<polygon id="XMLID_2492_" class="st1" points="109.3,220.6 109.3,216.5 100.3,216.5 100.3,227.6 109.3,227.6 109.3,223.5 
		110.8,223.5 110.8,220.6 	"/>
	<g id="XMLID_2485_">
		<rect id="XMLID_2488_" x="578.7" y="201.7" class="st1" width="9" height="11.1"/>
		<rect id="XMLID_2487_" x="578.7" y="231.3" class="st1" width="9" height="11.1"/>
		<polygon id="XMLID_2486_" class="st1" points="578.7,220.6 578.7,216.5 587.7,216.5 587.7,227.6 578.7,227.6 578.7,223.5 
			577.2,223.5 577.2,220.6 		"/>
	</g>
	<rect id="XMLID_2483_" x="100.3" y="157.2" class="st1" width="9" height="11.1"/>
	<rect id="XMLID_2482_" x="100.3" y="186.9" class="st1" width="9" height="11.1"/>
	<polygon id="XMLID_2481_" class="st1" points="109.3,176.2 109.3,172.1 100.3,172.1 100.3,183.2 109.3,183.2 109.3,179.1 
		110.8,179.1 110.8,176.2 	"/>
	<g id="XMLID_2474_">
		<rect id="XMLID_2477_" x="578.7" y="157.2" class="st1" width="9" height="11.1"/>
		<rect id="XMLID_2476_" x="578.7" y="186.9" class="st1" width="9" height="11.1"/>
		<polygon id="XMLID_2475_" class="st1" points="578.7,176.2 578.7,172.1 587.7,172.1 587.7,183.2 578.7,183.2 578.7,179.1 
			577.2,179.1 577.2,176.2 		"/>
	</g>
	<rect id="XMLID_2472_" x="100.3" y="112.8" class="st1" width="9" height="11.1"/>
	<rect id="XMLID_2471_" x="100.3" y="142.4" class="st1" width="9" height="11.1"/>
	<polygon id="XMLID_2470_" class="st1" points="109.3,131.7 109.3,127.6 100.3,127.6 100.3,138.7 109.3,138.7 109.3,134.6 
		110.8,134.6 110.8,131.7 	"/>
	<g id="XMLID_2463_">
		<rect id="XMLID_2466_" x="578.7" y="112.8" class="st1" width="9" height="11.1"/>
		<rect id="XMLID_2465_" x="578.7" y="142.4" class="st1" width="9" height="11.1"/>
		<polygon id="XMLID_2464_" class="st1" points="578.7,131.7 578.7,127.6 587.7,127.6 587.7,138.7 578.7,138.7 578.7,134.6 
			577.2,134.6 577.2,131.7 		"/>
	</g>
	<rect id="XMLID_2461_" x="100.3" y="68.3" class="st1" width="9" height="11.1"/>
	<rect id="XMLID_2460_" x="100.3" y="98" class="st1" width="9" height="11.1"/>
	<polygon id="XMLID_2459_" class="st1" points="109.3,87.3 109.3,83.2 100.3,83.2 100.3,94.3 109.3,94.3 109.3,90.2 110.8,90.2 
		110.8,87.3 	"/>
	<g id="XMLID_2_">
		<text id="XMLID_2952_" transform="matrix(0.9276 0 0 1 0 2096.4082)" class="st1 st3 st4">  1</text>
		<text id="XMLID_2941_" transform="matrix(0.9276 0 0 1 0 2051.9583)" class="st1 st3 st4">  2</text>
		<text id="XMLID_2930_" transform="matrix(0.9276 0 0 1 0 2007.5082)" class="st1 st3 st4">  3</text>
		<text id="XMLID_2919_" transform="matrix(0.9276 0 0 1 0 1963.0581)" class="st1 st3 st4">  4</text>
		<text id="XMLID_2908_" transform="matrix(0.9276 0 0 1 0 1918.6082)" class="st1 st3 st4">  5</text>
		<text id="XMLID_2897_" transform="matrix(0.9276 0 0 1 0 1874.1581)" class="st1 st3 st4">  6</text>
		<text id="XMLID_2886_" transform="matrix(0.9276 0 0 1 0 1829.7081)" class="st1 st3 st4">  7</text>
		<text id="XMLID_2875_" transform="matrix(0.9276 0 0 1 0 1785.2582)" class="st1 st3 st4">  8</text>
		<text id="XMLID_2864_" transform="matrix(0.9276 0 0 1 0 1740.8081)" class="st1 st3 st4">  9</text>
		<text id="XMLID_2853_" transform="matrix(0.9276 0 0 1 0 1696.3582)" class="st1 st3 st4">10</text>
		<text id="XMLID_2842_" transform="matrix(0.9276 0 0 1 0 1651.9082)" class="st1 st3 st4">11</text>
		<text id="XMLID_2831_" transform="matrix(0.9276 0 0 1 0 1607.4583)" class="st1 st3 st4">12</text>
		<text id="XMLID_2820_" transform="matrix(0.9276 0 0 1 0 1563.0081)" class="st1 st3 st4">13</text>
		<text id="XMLID_2809_" transform="matrix(0.9276 0 0 1 0 1518.5581)" class="st1 st3 st4">14</text>
		<text id="XMLID_2798_" transform="matrix(0.9276 0 0 1 0 1474.1082)" class="st1 st3 st4">15</text>
		<text id="XMLID_2787_" transform="matrix(0.9276 0 0 1 0 1429.6582)" class="st1 st3 st4">16</text>
		<text id="XMLID_2776_" transform="matrix(0.9276 0 0 1 0 1385.2083)" class="st1 st3 st4">17</text>
		<text id="XMLID_2765_" transform="matrix(0.9276 0 0 1 0 1340.7581)" class="st1 st3 st4">18</text>
		<text id="XMLID_2754_" transform="matrix(0.9276 0 0 1 0 1296.3081)" class="st1 st3 st4">19</text>
		<text id="XMLID_2743_" transform="matrix(0.9276 0 0 1 0 1251.8582)" class="st1 st3 st4">20</text>
		<text id="XMLID_2732_" transform="matrix(0.9276 0 0 1 0 1207.4082)" class="st1 st3 st4">21</text>
		<text id="XMLID_2721_" transform="matrix(0.9276 0 0 1 0 1162.958)" class="st1 st3 st4">22</text>
		<text id="XMLID_2710_" transform="matrix(0.9276 0 0 1 0 1118.5081)" class="st1 st3 st4">23</text>
		<text id="XMLID_2699_" transform="matrix(0.9276 0 0 1 0 1074.0581)" class="st1 st3 st4">24</text>
		<text id="XMLID_2688_" transform="matrix(0.9276 0 0 1 0 1029.6082)" class="st1 st3 st4">25</text>
		<text id="XMLID_2677_" transform="matrix(0.9276 0 0 1 0 985.1581)" class="st1 st3 st4">26</text>
		<text id="XMLID_2666_" transform="matrix(0.9276 0 0 1 0 940.7083)" class="st1 st3 st4">27</text>
		<text id="XMLID_2655_" transform="matrix(0.9276 0 0 1 0 896.2583)" class="st1 st3 st4">28</text>
		<text id="XMLID_2644_" transform="matrix(0.9276 0 0 1 0 851.8083)" class="st1 st3 st4">29</text>
		<text id="XMLID_2633_" transform="matrix(0.9276 0 0 1 0 807.3584)" class="st1 st3 st4">30</text>
		<text id="XMLID_2622_" transform="matrix(0.9276 0 0 1 0 762.9084)" class="st1 st3 st4">31</text>
		<text id="XMLID_2611_" transform="matrix(0.9276 0 0 1 0 718.4585)" class="st1 st3 st4">32</text>
		<text id="XMLID_2600_" transform="matrix(0.9276 0 0 1 0 674.0085)" class="st1 st3 st4">33</text>
		<text id="XMLID_2589_" transform="matrix(0.9276 0 0 1 0 629.5586)" class="st1 st3 st4">34</text>
		<text id="XMLID_2578_" transform="matrix(0.9276 0 0 1 0 585.1086)" class="st1 st3 st4">35</text>
		<text id="XMLID_2567_" transform="matrix(0.9276 0 0 1 0 540.6587)" class="st1 st3 st4">36</text>
		<text id="XMLID_2556_" transform="matrix(0.9276 0 0 1 0 496.2087)" class="st1 st3 st4">37</text>
		<text id="XMLID_2545_" transform="matrix(0.9276 0 0 1 0 451.7588)" class="st1 st3 st4">38</text>
		<text id="XMLID_2534_" transform="matrix(0.9276 0 0 1 0 407.3088)" class="st1 st3 st4">39</text>
		<text id="XMLID_2523_" transform="matrix(0.9276 0 0 1 0 362.8589)" class="st1 st3 st4">40</text>
		<text id="XMLID_2512_" transform="matrix(0.9276 0 0 1 0 318.4089)" class="st1 st3 st4">41</text>
		<text id="XMLID_2501_" transform="matrix(0.9276 0 0 1 0 273.959)" class="st1 st3 st4">42</text>
		<text id="XMLID_2490_" transform="matrix(0.9276 0 0 1 0 229.509)" class="st1 st3 st4">43</text>
		<text id="XMLID_2479_" transform="matrix(0.9276 0 0 1 0 185.0591)" class="st1 st3 st4">44</text>
		<text id="XMLID_2468_" transform="matrix(0.9276 0 0 1 0 140.6091)" class="st1 st3 st4">45</text>
		<text id="XMLID_2457_" transform="matrix(0.9276 0 0 1 0 96.1592)" class="st1 st3 st4">46</text>
	</g>
	<g id="XMLID_2452_">
		<rect id="XMLID_2455_" x="578.7" y="68.3" class="st1" width="9" height="11.1"/>
		<rect id="XMLID_2454_" x="578.7" y="98" class="st1" width="9" height="11.1"/>
		<polygon id="XMLID_2453_" class="st1" points="578.7,87.3 578.7,83.2 587.7,83.2 587.7,94.3 578.7,94.3 578.7,90.2 577.2,90.2 
			577.2,87.3 		"/>
	</g>
</g>
</svg>
