<?xml version="1.0" encoding="utf-8"?>
<!-- Generator: Adobe Illustrator 16.0.0, SVG Export Plug-In . SVG Version: 6.00 Build 0)  -->
<!DOCTYPE svg PUBLIC "-//W3C//DTD SVG 1.1//EN" "http://www.w3.org/Graphics/SVG/1.1/DTD/svg11.dtd">
<svg version="1.1" id="图层_1" xmlns="http://www.w3.org/2000/svg" xmlns:xlink="http://www.w3.org/1999/xlink" x="0px" y="0px"
	 width="1275.78px" height="378.14px" viewBox="0 0 1275.78 378.14" enable-background="new 0 0 1275.78 378.14"
	 xml:space="preserve">
<polygon fill="#D9D7CD" points="0.194,-0.001 0.194,251.998 0.194,378.141 1275.783,378.141 1275.783,251.998 1275.783,-0.001 "/>
<rect y="-0.001" fill="#D0CEC2" width="61.482" height="378.142"/>
<rect x="1214.301" y="-0.001" fill="#D0CEC2" width="61.482" height="378.142"/>
<circle fill="#626363" cx="1245.042" cy="106.587" r="16.667"/>
<circle fill="#626363" cx="1245.833" cy="259.031" r="16.667"/>
<circle fill="#626363" cx="29.749" cy="106.587" r="16.667"/>
<circle fill="#626363" cx="30.539" cy="259.031" r="16.667"/>
<path fill="#ADA89E" stroke="#656352" stroke-miterlimit="10" d="M1053.398,176.037c0,2.273-1.354,4.119-3.021,4.119H237.471
	c-1.669,0-3.022-1.846-3.022-4.119v-57.411c0-2.275,1.353-4.122,3.022-4.122h812.906c1.668,0,3.021,1.847,3.021,4.122V176.037z"/>
<rect x="238.412" y="121.391" fill="#EDECEB" width="808.783" height="51.988"/>
<rect x="107.924" y="26.96" fill="none" stroke="#8E949D" stroke-miterlimit="10" width="25.375" height="11.375"/>
<rect x="133.299" y="21.335" fill="none" stroke="#8E949D" stroke-miterlimit="10" width="11.5" height="22.875"/>
<polygon fill="#8E949D" points="118.924,49.044 111.174,51.794 118.924,53.377 "/>
<polygon fill="#8E949D" points="135.174,49.044 142.924,51.794 135.174,53.377 "/>
<line fill="none" stroke="#8E949D" stroke-miterlimit="10" x1="118.924" y1="51.399" x2="135.174" y2="51.399"/>
<g>
	<path fill="#8E949D" d="M117.558,57.878c-0.172,0.315-0.323,0.604-0.454,0.867h0.868c0.552,0,1.039-0.013,1.459-0.039v0.749
		c-0.342-0.025-0.789-0.039-1.341-0.039h-2.051v1.973h2.485c0.526,0,1-0.013,1.421-0.039v0.749
		c-0.421-0.025-0.868-0.039-1.342-0.039h-2.406c0.789,1.341,2.104,2.209,3.945,2.604c-0.237,0.263-0.448,0.578-0.632,0.946
		c-1.656-0.552-2.906-1.512-3.747-2.88c-0.448,1.158-1.684,2.156-3.709,2.999c-0.105-0.264-0.302-0.5-0.591-0.711
		c2.025-0.552,3.274-1.538,3.748-2.958h-2.091c-0.605,0-1.104,0.014-1.499,0.039v-0.71c0.289,0.026,0.736,0.039,1.341,0.039h2.328
		v-2.012h-1.854c-0.5,0-0.946,0.014-1.341,0.039v-0.749c0.395,0.026,0.854,0.039,1.381,0.039h2.84
		c0.368-0.841,0.631-1.538,0.789-2.091c0.263,0.158,0.578,0.316,0.947,0.474C117.893,57.313,117.729,57.562,117.558,57.878z
		 M115.092,58.194c-0.315,0.157-0.566,0.315-0.75,0.474c-0.315-0.605-0.631-1.105-0.946-1.499c0.236-0.158,0.447-0.316,0.631-0.474
		C114.369,57.116,114.724,57.616,115.092,58.194z"/>
	<path fill="#8E949D" d="M133.649,57.799V57.01c0.657,0.026,1.263,0.039,1.815,0.039h4.26c0.526,0,1.091-0.013,1.696-0.039v0.789
		c-0.579-0.026-1.223-0.04-1.933-0.04v2.92h0.75c0.525,0,1.091-0.013,1.696-0.04v0.789c-0.605-0.052-1.171-0.078-1.696-0.078h-0.75
		v2.13c0,0.657,0.013,1.394,0.04,2.209h-0.908c0.026-0.815,0.04-1.552,0.04-2.209v-2.13h-1.973c-0.079,0.499-0.185,0.966-0.315,1.4
		c-0.132,0.434-0.342,0.874-0.631,1.321c-0.29,0.447-0.829,0.986-1.618,1.617c-0.211-0.236-0.526-0.46-0.946-0.671
		c0.525-0.21,0.979-0.506,1.36-0.888c0.381-0.381,0.684-0.828,0.908-1.341c0.223-0.513,0.348-0.992,0.375-1.439h-0.907
		c-0.684,0-1.341,0.039-1.973,0.118v-0.829c0.657,0.027,1.315,0.04,1.973,0.04h0.947v-2.92
		C135.07,57.759,134.333,57.773,133.649,57.799z M138.66,60.679v-2.92h-1.973v2.92H138.66z"/>
</g>
<rect x="1132.732" y="26.96" fill="none" stroke="#8E949D" stroke-miterlimit="10" width="25.375" height="11.375"/>
<rect x="1121.232" y="21.335" fill="none" stroke="#8E949D" stroke-miterlimit="10" width="11.5" height="22.875"/>
<polygon fill="#8E949D" points="1147.107,49.044 1154.857,51.794 1147.107,53.377 "/>
<polygon fill="#8E949D" points="1130.857,49.044 1123.107,51.794 1130.857,53.377 "/>
<line fill="none" stroke="#8E949D" stroke-miterlimit="10" x1="1147.107" y1="51.399" x2="1130.857" y2="51.399"/>
<g>
	<path fill="#8E949D" d="M1121.994,57.799V57.01c0.656,0.026,1.262,0.039,1.814,0.039h4.26c0.527,0,1.092-0.013,1.697-0.039v0.789
		c-0.578-0.026-1.223-0.04-1.934-0.04v2.92h0.75c0.525,0,1.092-0.013,1.697-0.04v0.789c-0.605-0.052-1.172-0.078-1.697-0.078h-0.75
		v2.13c0,0.657,0.014,1.394,0.039,2.209h-0.906c0.025-0.815,0.039-1.552,0.039-2.209v-2.13h-1.973
		c-0.078,0.499-0.184,0.966-0.314,1.4c-0.133,0.434-0.344,0.874-0.633,1.321s-0.828,0.986-1.617,1.617
		c-0.211-0.236-0.525-0.46-0.945-0.671c0.525-0.21,0.979-0.506,1.359-0.888c0.381-0.381,0.684-0.828,0.908-1.341
		c0.223-0.513,0.348-0.992,0.375-1.439h-0.908c-0.684,0-1.34,0.039-1.973,0.118v-0.829c0.658,0.027,1.316,0.04,1.973,0.04h0.947
		v-2.92C1123.414,57.759,1122.678,57.773,1121.994,57.799z M1127.004,60.679v-2.92h-1.973v2.92H1127.004z"/>
	<path fill="#8E949D" d="M1154.883,57.878c-0.172,0.315-0.322,0.604-0.453,0.867h0.867c0.553,0,1.039-0.013,1.461-0.039v0.749
		c-0.344-0.025-0.789-0.039-1.342-0.039h-2.051v1.973h2.484c0.525,0,1-0.013,1.42-0.039v0.749c-0.42-0.025-0.867-0.039-1.342-0.039
		h-2.406c0.789,1.341,2.104,2.209,3.945,2.604c-0.236,0.263-0.447,0.578-0.631,0.946c-1.656-0.552-2.906-1.512-3.748-2.88
		c-0.447,1.158-1.684,2.156-3.709,2.999c-0.104-0.264-0.301-0.5-0.59-0.711c2.023-0.552,3.273-1.538,3.746-2.958h-2.09
		c-0.605,0-1.105,0.014-1.5,0.039v-0.71c0.289,0.026,0.736,0.039,1.342,0.039h2.328v-2.012h-1.855c-0.5,0-0.945,0.014-1.34,0.039
		v-0.749c0.395,0.026,0.854,0.039,1.381,0.039h2.84c0.367-0.841,0.631-1.538,0.789-2.091c0.262,0.158,0.578,0.316,0.947,0.474
		C1155.219,57.313,1155.055,57.562,1154.883,57.878z M1152.418,58.194c-0.316,0.157-0.566,0.315-0.75,0.474
		c-0.316-0.605-0.631-1.105-0.947-1.499c0.236-0.158,0.447-0.316,0.631-0.474C1151.693,57.116,1152.049,57.616,1152.418,58.194z"/>
</g>
<path fill="#AFAFAF" d="M86.531,349.436c-3.735,3.736-9.796,3.732-13.535-0.006c-3.74-3.74-3.743-9.801-0.007-13.535
	c3.737-3.738,9.797-3.734,13.537,0.006C90.265,339.639,90.268,345.699,86.531,349.436"/>
<ellipse transform="matrix(0.7071 0.7071 -0.7071 0.7071 265.6458 43.9554)" fill="none" stroke="#949394" stroke-miterlimit="10" cx="79.76" cy="342.665" rx="9.575" ry="9.566"/>
<path fill="#AFAFAF" d="M84.735,347.641c-2.745,2.744-7.198,2.742-9.945-0.006c-2.748-2.746-2.75-7.201-0.005-9.945
	c2.746-2.746,7.199-2.744,9.946,0.004C87.479,340.441,87.481,344.895,84.735,347.641"/>
<ellipse transform="matrix(0.7071 0.7071 -0.7071 0.7071 265.6767 43.9744)" fill="none" stroke="#949394" stroke-miterlimit="10" cx="79.76" cy="342.665" rx="7.036" ry="7.029"/>
<g>
	<g>
		<defs>
			
				<rect id="SVGID_1_" x="73.127" y="336.039" transform="matrix(-0.7071 -0.7071 0.7071 -0.7071 -106.1331 641.368)" width="13.267" height="13.25"/>
		</defs>
		<clipPath id="SVGID_2_">
			<use xlink:href="#SVGID_1_"  overflow="visible"/>
		</clipPath>
		<path clip-path="url(#SVGID_2_)" fill="#BFBFBF" d="M84.449,347.354c-2.587,2.588-6.783,2.584-9.373-0.004
			c-2.59-2.59-2.592-6.787-0.005-9.375c2.587-2.586,6.784-2.584,9.374,0.006C87.035,340.568,87.037,344.766,84.449,347.354"/>
		<path clip-path="url(#SVGID_2_)" fill="#C1C1C1" d="M84.339,347.244c-2.525,2.525-6.624,2.523-9.152-0.006
			c-2.529-2.529-2.53-6.627-0.005-9.152c2.527-2.527,6.625-2.525,9.154,0.004S86.865,344.717,84.339,347.244"/>
		<path clip-path="url(#SVGID_2_)" fill="#C3C4C4" d="M84.229,347.133c-2.464,2.465-6.465,2.465-8.933-0.004
			s-2.469-6.467-0.004-8.932c2.465-2.467,6.465-2.465,8.933,0.002C86.693,340.668,86.694,344.668,84.229,347.133"/>
		<path clip-path="url(#SVGID_2_)" fill="#C5C6C6" d="M84.118,347.023c-2.404,2.404-6.305,2.402-8.712-0.004
			c-2.407-2.408-2.409-6.309-0.005-8.713c2.406-2.404,6.306-2.402,8.713,0.004C86.521,340.717,86.523,344.619,84.118,347.023"/>
		<path clip-path="url(#SVGID_2_)" fill="#C7C9C9" d="M84.008,346.912c-2.343,2.344-6.146,2.342-8.492-0.004
			c-2.346-2.346-2.347-6.148-0.004-8.492c2.344-2.344,6.147-2.342,8.493,0.004S86.353,344.568,84.008,346.912"/>
		<path clip-path="url(#SVGID_2_)" fill="#CACBCB" d="M83.897,346.803c-2.281,2.281-5.985,2.281-8.27-0.004
			c-2.286-2.287-2.286-5.988-0.004-8.271c2.283-2.283,5.986-2.281,8.271,0.004C86.18,340.816,86.181,344.52,83.897,346.803"/>
		<path clip-path="url(#SVGID_2_)" fill="#CCCECE" d="M83.788,346.693c-2.222,2.221-5.827,2.219-8.051-0.006
			c-2.224-2.223-2.225-5.828-0.004-8.051c2.222-2.221,5.827-2.221,8.051,0.004C86.009,340.865,86.01,344.471,83.788,346.693"/>
		<path clip-path="url(#SVGID_2_)" fill="#CED0D0" d="M83.677,346.582c-2.16,2.16-5.667,2.16-7.831-0.004
			c-2.163-2.162-2.164-5.67-0.003-7.83c2.162-2.162,5.668-2.16,7.831,0.002C85.838,340.914,85.839,344.42,83.677,346.582"/>
		<path clip-path="url(#SVGID_2_)" fill="#D1D3D3" d="M83.566,346.471c-2.099,2.1-5.507,2.1-7.609-0.002
			c-2.102-2.104-2.103-5.512-0.004-7.609c2.101-2.102,5.509-2.102,7.611,0.002C85.667,340.963,85.667,344.371,83.566,346.471"/>
		<path clip-path="url(#SVGID_2_)" fill="#D3D5D5" d="M83.457,346.361c-2.039,2.039-5.348,2.037-7.389-0.004
			s-2.043-5.35-0.004-7.389c2.04-2.041,5.348-2.039,7.39,0.002C85.495,341.014,85.496,344.322,83.457,346.361"/>
	</g>
</g>
<polygon fill="#5F5F5E" points="76.332,344.869 78.536,342.664 76.329,340.457 77.553,339.232 79.76,341.439 81.965,339.234 
	83.19,340.459 80.985,342.664 83.192,344.873 81.969,346.096 79.761,343.889 77.557,346.094 "/>
<path fill="#231815" d="M82.979,340.461l-1.993,1.992l-0.212,0.211l0.212,0.213l1.995,1.996l-1.012,1.01l-1.994-1.994l-0.212-0.213
	l-0.212,0.213l-1.992,1.992l-1.013-1.012l1.993-1.992l0.212-0.213l-0.213-0.213l-1.995-1.994l1.012-1.012l1.995,1.994l0.212,0.213
	l0.212-0.213l1.992-1.992L82.979,340.461z M83.402,340.461l-1.437-1.438l-2.205,2.205l-2.207-2.207l-1.437,1.436l2.207,2.207
	l-2.205,2.205l1.438,1.438l2.205-2.205l2.206,2.205l1.437-1.436l-2.207-2.207L83.402,340.461z"/>
<path fill="#AFAFAF" d="M1203.127,349.633c-3.736,3.734-9.797,3.732-13.535-0.008c-3.74-3.74-3.744-9.801-0.008-13.535
	c3.736-3.736,9.797-3.734,13.537,0.006C1206.859,339.836,1206.863,345.896,1203.127,349.633"/>
<ellipse transform="matrix(0.7071 0.7071 -0.7071 0.7071 592.844 -745.5293)" fill="none" stroke="#949394" stroke-miterlimit="10" cx="1196.355" cy="342.861" rx="9.576" ry="9.565"/>
<path fill="#AFAFAF" d="M1201.33,347.836c-2.744,2.744-7.197,2.742-9.945-0.006c-2.748-2.746-2.75-7.199-0.004-9.943
	c2.746-2.746,7.199-2.744,9.945,0.002C1204.074,340.637,1204.076,345.09,1201.33,347.836"/>
<ellipse transform="matrix(0.7071 0.7071 -0.7071 0.7071 592.844 -745.5293)" fill="none" stroke="#949394" stroke-miterlimit="10" cx="1196.355" cy="342.861" rx="7.035" ry="7.028"/>
<g>
	<g>
		<defs>
			
				<rect id="SVGID_3_" x="1189.723" y="336.235" transform="matrix(-0.7072 -0.707 0.707 -0.7072 1799.981 1431.1874)" width="13.265" height="13.25"/>
		</defs>
		<clipPath id="SVGID_4_">
			<use xlink:href="#SVGID_3_"  overflow="visible"/>
		</clipPath>
		<path clip-path="url(#SVGID_4_)" fill="#BFBFBF" d="M1201.045,347.551c-2.588,2.586-6.783,2.584-9.373-0.006
			s-2.592-6.787-0.006-9.373c2.588-2.588,6.785-2.586,9.373,0.004C1203.629,340.766,1203.633,344.963,1201.045,347.551"/>
		<path clip-path="url(#SVGID_4_)" fill="#C1C1C1" d="M1200.934,347.439c-2.525,2.525-6.623,2.523-9.152-0.006
			c-2.529-2.527-2.529-6.627-0.006-9.152c2.527-2.525,6.625-2.525,9.154,0.004S1203.461,344.912,1200.934,347.439"/>
		<path clip-path="url(#SVGID_4_)" fill="#C3C4C4" d="M1200.824,347.33c-2.465,2.465-6.465,2.463-8.934-0.004
			c-2.467-2.469-2.469-6.469-0.004-8.934s6.465-2.465,8.934,0.002C1203.287,340.863,1203.289,344.863,1200.824,347.33"/>
		<path clip-path="url(#SVGID_4_)" fill="#C5C6C6" d="M1200.713,347.219c-2.404,2.404-6.305,2.402-8.711-0.004
			c-2.408-2.408-2.41-6.309-0.006-8.713c2.406-2.404,6.307-2.402,8.713,0.004C1203.117,340.914,1203.119,344.814,1200.713,347.219"
			/>
		<path clip-path="url(#SVGID_4_)" fill="#C7C9C9" d="M1200.604,347.109c-2.344,2.342-6.146,2.34-8.492-0.006
			s-2.346-6.148-0.004-8.49c2.344-2.344,6.146-2.344,8.492,0.004C1202.945,340.963,1202.947,344.766,1200.604,347.109"/>
		<path clip-path="url(#SVGID_4_)" fill="#CACBCB" d="M1200.492,346.998c-2.281,2.283-5.984,2.281-8.27-0.004
			c-2.287-2.285-2.287-5.988-0.004-8.271s5.986-2.281,8.27,0.004C1202.775,341.012,1202.775,344.715,1200.492,346.998"/>
		<path clip-path="url(#SVGID_4_)" fill="#CCCECE" d="M1200.383,346.889c-2.221,2.221-5.826,2.221-8.051-0.004
			s-2.225-5.83-0.004-8.051c2.223-2.223,5.826-2.223,8.051,0.002S1202.604,344.666,1200.383,346.889"/>
		<path clip-path="url(#SVGID_4_)" fill="#CED0D0" d="M1200.271,346.777c-2.158,2.162-5.668,2.16-7.83-0.002
			c-2.162-2.164-2.164-5.672-0.004-7.832c2.162-2.162,5.67-2.16,7.832,0.002C1202.434,341.109,1202.434,344.615,1200.271,346.777"/>
		<path clip-path="url(#SVGID_4_)" fill="#D1D3D3" d="M1200.162,346.668c-2.1,2.1-5.508,2.098-7.609-0.004
			c-2.104-2.102-2.104-5.512-0.004-7.609c2.1-2.102,5.508-2.1,7.611,0.002C1202.262,341.158,1202.262,344.566,1200.162,346.668"/>
		<path clip-path="url(#SVGID_4_)" fill="#D3D5D5" d="M1200.053,346.559c-2.039,2.037-5.348,2.037-7.391-0.006
			c-2.041-2.041-2.043-5.35-0.004-7.389c2.041-2.039,5.348-2.039,7.391,0.004C1202.09,341.209,1202.092,344.518,1200.053,346.559"/>
	</g>
</g>
<polygon fill="#5F5F5E" points="1192.926,345.064 1195.131,342.859 1192.924,340.652 1194.146,339.428 1196.355,341.637 
	1198.561,339.43 1199.785,340.656 1197.58,342.861 1199.787,345.068 1198.564,346.293 1196.355,344.086 1194.152,346.289 "/>
<path fill="#231815" d="M1199.574,340.656l-1.994,1.992l-0.211,0.213l0.211,0.213l1.996,1.994l-1.014,1.012l-1.994-1.994
	l-0.213-0.213l-0.211,0.213l-1.992,1.99l-1.014-1.012l1.994-1.992l0.211-0.211l-0.213-0.213l-1.994-1.996l1.01-1.012l1.996,1.994
	l0.213,0.213l0.213-0.211l1.992-1.992L1199.574,340.656z M1199.996,340.656l-1.436-1.438l-2.205,2.205l-2.207-2.207l-1.436,1.436
	l2.207,2.207l-2.205,2.205l1.438,1.438l2.205-2.205l2.205,2.207l1.438-1.436l-2.207-2.207L1199.996,340.656z"/>
<path fill="#AFAFAF" d="M1203.127,26.148c-3.736,3.735-9.797,3.732-13.535-0.007c-3.74-3.74-3.744-9.801-0.008-13.535
	c3.736-3.737,9.797-3.734,13.537,0.006C1206.859,16.351,1206.863,22.412,1203.127,26.148"/>
<ellipse transform="matrix(0.7071 0.7071 -0.7071 0.7071 364.075 -840.2457)" fill="none" stroke="#949394" stroke-miterlimit="10" cx="1196.355" cy="19.377" rx="9.576" ry="9.566"/>
<path fill="#AFAFAF" d="M1201.33,24.352c-2.744,2.744-7.197,2.742-9.945-0.006c-2.748-2.746-2.75-7.2-0.004-9.944
	c2.746-2.746,7.199-2.744,9.945,0.003C1204.074,17.153,1204.076,21.606,1201.33,24.352"/>
<ellipse transform="matrix(0.7071 0.7071 -0.7071 0.7071 364.1482 -840.3165)" fill="none" stroke="#949394" stroke-miterlimit="10" cx="1196.355" cy="19.377" rx="7.036" ry="7.029"/>
<g>
	<g>
		<defs>
			
				<rect id="SVGID_5_" x="1189.723" y="12.751" transform="matrix(-0.7071 -0.7071 0.7071 -0.7071 2028.6504 878.9847)" width="13.266" height="13.25"/>
		</defs>
		<clipPath id="SVGID_6_">
			<use xlink:href="#SVGID_5_"  overflow="visible"/>
		</clipPath>
		<path clip-path="url(#SVGID_6_)" fill="#BFBFBF" d="M1201.045,24.066c-2.588,2.587-6.783,2.584-9.373-0.005
			c-2.59-2.59-2.592-6.787-0.006-9.374c2.588-2.587,6.785-2.585,9.373,0.005C1203.629,17.281,1203.633,21.478,1201.045,24.066"/>
		<path clip-path="url(#SVGID_6_)" fill="#C1C1C1" d="M1200.934,23.956c-2.525,2.525-6.623,2.523-9.152-0.006
			c-2.529-2.528-2.529-6.627-0.006-9.152c2.527-2.526,6.625-2.525,9.154,0.004S1203.461,21.428,1200.934,23.956"/>
		<path clip-path="url(#SVGID_6_)" fill="#C3C4C4" d="M1200.824,23.845c-2.465,2.465-6.465,2.464-8.934-0.004
			c-2.467-2.469-2.469-6.468-0.004-8.933c2.465-2.466,6.465-2.465,8.934,0.002C1203.287,17.379,1203.289,21.379,1200.824,23.845"/>
		<path clip-path="url(#SVGID_6_)" fill="#C5C6C6" d="M1200.713,23.735c-2.404,2.404-6.305,2.402-8.711-0.004
			c-2.408-2.408-2.41-6.309-0.006-8.713c2.406-2.404,6.307-2.402,8.713,0.004C1203.117,17.429,1203.119,21.331,1200.713,23.735"/>
		<path clip-path="url(#SVGID_6_)" fill="#C7C9C9" d="M1200.604,23.625c-2.344,2.343-6.146,2.341-8.492-0.005
			s-2.346-6.148-0.004-8.491c2.344-2.344,6.146-2.343,8.492,0.004C1202.945,17.478,1202.947,21.281,1200.604,23.625"/>
		<path clip-path="url(#SVGID_6_)" fill="#CACBCB" d="M1200.492,23.514c-2.281,2.282-5.984,2.281-8.27-0.004
			c-2.287-2.286-2.287-5.988-0.004-8.271s5.986-2.281,8.27,0.004C1202.775,17.528,1202.775,21.231,1200.492,23.514"/>
		<path clip-path="url(#SVGID_6_)" fill="#CCCECE" d="M1200.383,23.405c-2.221,2.221-5.826,2.22-8.051-0.005
			c-2.225-2.224-2.225-5.829-0.004-8.051c2.223-2.222,5.826-2.222,8.051,0.003S1202.604,21.182,1200.383,23.405"/>
		<path clip-path="url(#SVGID_6_)" fill="#CED0D0" d="M1200.271,23.293c-2.158,2.161-5.668,2.16-7.83-0.003
			s-2.164-5.671-0.004-7.831c2.162-2.162,5.67-2.16,7.832,0.002C1202.434,17.625,1202.434,21.131,1200.271,23.293"/>
		<path clip-path="url(#SVGID_6_)" fill="#D1D3D3" d="M1200.162,23.183c-2.1,2.1-5.508,2.099-7.609-0.003
			c-2.104-2.103-2.104-5.512-0.004-7.609c2.1-2.102,5.508-2.101,7.611,0.002C1202.262,17.674,1202.262,21.083,1200.162,23.183"/>
		<path clip-path="url(#SVGID_6_)" fill="#D3D5D5" d="M1200.053,23.074c-2.039,2.038-5.348,2.037-7.391-0.005
			c-2.041-2.041-2.043-5.35-0.004-7.389c2.041-2.04,5.348-2.039,7.391,0.003C1202.09,17.725,1202.092,21.034,1200.053,23.074"/>
	</g>
</g>
<polygon fill="#5F5F5E" points="1192.926,21.581 1195.131,19.375 1192.924,17.168 1194.146,15.944 1196.355,18.152 1198.561,15.946 
	1199.785,17.171 1197.58,19.376 1199.787,21.584 1198.564,22.808 1196.355,20.601 1194.152,22.805 "/>
<path fill="#231815" d="M1199.574,17.172l-1.994,1.992l-0.211,0.212l0.211,0.213l1.996,1.995l-1.014,1.011l-1.994-1.994
	l-0.213-0.213l-0.211,0.213l-1.992,1.991l-1.014-1.012l1.994-1.992l0.211-0.212l-0.213-0.213l-1.994-1.995l1.01-1.012l1.996,1.994
	l0.213,0.213l0.213-0.212l1.992-1.992L1199.574,17.172z M1199.996,17.172l-1.436-1.438l-2.205,2.205l-2.207-2.207l-1.436,1.436
	l2.207,2.207l-2.205,2.205l1.438,1.438l2.205-2.205l2.205,2.206l1.438-1.436l-2.207-2.207L1199.996,17.172z"/>
<g>
	<circle fill="#C9C37C" stroke="#62604D" stroke-miterlimit="10" cx="248.679" cy="47.255" r="12.163"/>
	<circle fill="#C9C37C" stroke="#62604D" stroke-miterlimit="10" cx="248.679" cy="101.109" r="12.163"/>
	<path fill="#626363" d="M259.676,107.769c0,1.377-1.21,2.494-2.704,2.494h-16.586c-1.493,0-2.702-1.117-2.702-2.494V39.955
		c0-1.381,1.209-2.498,2.702-2.498h16.586c1.494,0,2.704,1.117,2.704,2.498V107.769z"/>
	<path fill="#A4A191" d="M259.676,100.107c0,5.609-4.922,10.156-10.997,10.156l0,0c-6.073,0-10.996-4.547-10.996-10.156V47.614
		c0-5.608,4.922-10.157,10.996-10.157l0,0c6.074,0,10.997,4.549,10.997,10.157V100.107z"/>
	<path fill="#BEBAAB" d="M237.684,73.858c0-6.069,4.922-10.995,10.996-10.995c6.074,0,10.997,4.926,10.997,10.995
		c0,6.075-4.922,10.999-10.997,10.999C242.606,84.857,237.684,79.933,237.684,73.858z"/>
	<circle fill="#B3AC99" cx="248.679" cy="73.858" r="8.521"/>
	<circle fill="#EFEFEF" cx="248.68" cy="73.858" r="4.392"/>
</g>
<g>
	<circle fill="#C9C37C" stroke="#62604D" stroke-miterlimit="10" cx="297.844" cy="47.255" r="12.162"/>
	<circle fill="#C9C37C" stroke="#62604D" stroke-miterlimit="10" cx="297.844" cy="101.109" r="12.162"/>
	<path fill="#626363" d="M308.84,107.769c0,1.377-1.21,2.494-2.703,2.494h-16.586c-1.493,0-2.703-1.117-2.703-2.494V39.955
		c0-1.381,1.21-2.498,2.703-2.498h16.586c1.493,0,2.703,1.117,2.703,2.498V107.769z"/>
	<path fill="#A4A191" d="M308.84,100.107c0,5.609-4.922,10.156-10.996,10.156l0,0c-6.073,0-10.996-4.547-10.996-10.156V47.614
		c0-5.608,4.923-10.157,10.996-10.157l0,0c6.073,0,10.996,4.549,10.996,10.157V100.107z"/>
	<path fill="#BEBAAB" d="M286.849,73.858c0-6.069,4.923-10.995,10.996-10.995c6.073,0,10.996,4.926,10.996,10.995
		c0,6.075-4.922,10.999-10.996,10.999C291.772,84.857,286.849,79.933,286.849,73.858z"/>
	<circle fill="#B3AC99" cx="297.844" cy="73.858" r="8.522"/>
	<circle fill="#EFEFEF" cx="297.844" cy="73.858" r="4.392"/>
</g>
<g>
	<circle fill="#C9C37C" stroke="#62604D" stroke-miterlimit="10" cx="347.01" cy="47.255" r="12.163"/>
	<circle fill="#C9C37C" stroke="#62604D" stroke-miterlimit="10" cx="347.01" cy="101.109" r="12.163"/>
	<path fill="#626363" d="M358.006,107.769c0,1.377-1.21,2.494-2.704,2.494h-16.586c-1.493,0-2.702-1.117-2.702-2.494V39.955
		c0-1.381,1.209-2.498,2.702-2.498h16.586c1.494,0,2.704,1.117,2.704,2.498V107.769z"/>
	<path fill="#A4A191" d="M358.006,100.107c0,5.609-4.922,10.156-10.997,10.156l0,0c-6.073,0-10.996-4.547-10.996-10.156V47.614
		c0-5.608,4.922-10.157,10.996-10.157l0,0c6.074,0,10.997,4.549,10.997,10.157V100.107z"/>
	<path fill="#BEBAAB" d="M336.014,73.858c0-6.069,4.922-10.995,10.996-10.995c6.074,0,10.997,4.926,10.997,10.995
		c0,6.075-4.922,10.999-10.997,10.999C340.937,84.857,336.014,79.933,336.014,73.858z"/>
	<circle fill="#B3AC99" cx="347.01" cy="73.858" r="8.521"/>
	<circle fill="#EFEFEF" cx="347.01" cy="73.858" r="4.392"/>
</g>
<g>
	<circle fill="#C9C37C" stroke="#62604D" stroke-miterlimit="10" cx="396.175" cy="47.255" r="12.162"/>
	<circle fill="#C9C37C" stroke="#62604D" stroke-miterlimit="10" cx="396.175" cy="101.109" r="12.162"/>
	<path fill="#626363" d="M407.171,107.769c0,1.377-1.21,2.494-2.703,2.494h-16.585c-1.493,0-2.703-1.117-2.703-2.494V39.955
		c0-1.381,1.21-2.498,2.703-2.498h16.585c1.493,0,2.703,1.117,2.703,2.498V107.769z"/>
	<path fill="#A4A191" d="M407.171,100.107c0,5.609-4.922,10.156-10.995,10.156l0,0c-6.073,0-10.997-4.547-10.997-10.156V47.614
		c0-5.608,4.923-10.157,10.997-10.157l0,0c6.073,0,10.995,4.549,10.995,10.157V100.107z"/>
	<path fill="#BEBAAB" d="M385.179,73.858c0-6.069,4.923-10.995,10.997-10.995c6.073,0,10.995,4.926,10.995,10.995
		c0,6.075-4.922,10.999-10.995,10.999C390.103,84.857,385.179,79.933,385.179,73.858z"/>
	<circle fill="#B3AC99" cx="396.175" cy="73.858" r="8.522"/>
	<circle fill="#EFEFEF" cx="396.175" cy="73.858" r="4.392"/>
</g>
<g>
	<circle fill="#C9C37C" stroke="#62604D" stroke-miterlimit="10" cx="445.34" cy="47.255" r="12.163"/>
	<circle fill="#C9C37C" stroke="#62604D" stroke-miterlimit="10" cx="445.34" cy="101.109" r="12.163"/>
	<path fill="#626363" d="M456.336,107.769c0,1.377-1.21,2.494-2.704,2.494h-16.586c-1.493,0-2.702-1.117-2.702-2.494V39.955
		c0-1.381,1.209-2.498,2.702-2.498h16.586c1.494,0,2.704,1.117,2.704,2.498V107.769z"/>
	<path fill="#A4A191" d="M456.336,100.107c0,5.609-4.922,10.156-10.997,10.156l0,0c-6.073,0-10.996-4.547-10.996-10.156V47.614
		c0-5.608,4.922-10.157,10.996-10.157l0,0c6.074,0,10.997,4.549,10.997,10.157V100.107z"/>
	<path fill="#BEBAAB" d="M434.344,73.858c0-6.069,4.922-10.995,10.996-10.995c6.074,0,10.997,4.926,10.997,10.995
		c0,6.075-4.922,10.999-10.997,10.999C439.267,84.857,434.344,79.933,434.344,73.858z"/>
	<circle fill="#B3AC99" cx="445.34" cy="73.858" r="8.521"/>
	<circle fill="#EFEFEF" cx="445.34" cy="73.858" r="4.392"/>
</g>
<g>
	<circle fill="#C9C37C" stroke="#62604D" stroke-miterlimit="10" cx="494.505" cy="47.255" r="12.162"/>
	<circle fill="#C9C37C" stroke="#62604D" stroke-miterlimit="10" cx="494.505" cy="101.109" r="12.162"/>
	<path fill="#626363" d="M505.501,107.769c0,1.377-1.21,2.494-2.703,2.494h-16.585c-1.493,0-2.703-1.117-2.703-2.494V39.955
		c0-1.381,1.21-2.498,2.703-2.498h16.585c1.493,0,2.703,1.117,2.703,2.498V107.769z"/>
	<path fill="#A4A191" d="M505.501,100.107c0,5.609-4.922,10.156-10.995,10.156l0,0c-6.073,0-10.997-4.547-10.997-10.156V47.614
		c0-5.608,4.923-10.157,10.997-10.157l0,0c6.073,0,10.995,4.549,10.995,10.157V100.107z"/>
	<path fill="#BEBAAB" d="M483.509,73.858c0-6.069,4.923-10.995,10.997-10.995c6.073,0,10.995,4.926,10.995,10.995
		c0,6.075-4.922,10.999-10.995,10.999C488.433,84.857,483.509,79.933,483.509,73.858z"/>
	<circle fill="#B3AC99" cx="494.505" cy="73.858" r="8.522"/>
	<circle fill="#EFEFEF" cx="494.505" cy="73.858" r="4.392"/>
</g>
<g>
	<circle fill="#C9C37C" stroke="#62604D" stroke-miterlimit="10" cx="543.67" cy="47.255" r="12.163"/>
	<circle fill="#C9C37C" stroke="#62604D" stroke-miterlimit="10" cx="543.67" cy="101.109" r="12.163"/>
	<path fill="#626363" d="M554.667,107.769c0,1.377-1.21,2.494-2.704,2.494h-16.586c-1.493,0-2.702-1.117-2.702-2.494V39.955
		c0-1.381,1.209-2.498,2.702-2.498h16.586c1.494,0,2.704,1.117,2.704,2.498V107.769z"/>
	<path fill="#A4A191" d="M554.667,100.107c0,5.609-4.922,10.156-10.997,10.156l0,0c-6.073,0-10.996-4.547-10.996-10.156V47.614
		c0-5.608,4.922-10.157,10.996-10.157l0,0c6.074,0,10.997,4.549,10.997,10.157V100.107z"/>
	<path fill="#BEBAAB" d="M532.674,73.858c0-6.069,4.922-10.995,10.996-10.995c6.074,0,10.997,4.926,10.997,10.995
		c0,6.075-4.922,10.999-10.997,10.999C537.597,84.857,532.674,79.933,532.674,73.858z"/>
	<circle fill="#B3AC99" cx="543.67" cy="73.858" r="8.522"/>
	<circle fill="#EFEFEF" cx="543.67" cy="73.858" r="4.392"/>
</g>
<g>
	<circle fill="#C9C37C" stroke="#62604D" stroke-miterlimit="10" cx="592.835" cy="47.255" r="12.162"/>
	<circle fill="#C9C37C" stroke="#62604D" stroke-miterlimit="10" cx="592.835" cy="101.109" r="12.162"/>
	<path fill="#626363" d="M603.831,107.769c0,1.377-1.21,2.494-2.703,2.494h-16.585c-1.493,0-2.703-1.117-2.703-2.494V39.955
		c0-1.381,1.21-2.498,2.703-2.498h16.585c1.493,0,2.703,1.117,2.703,2.498V107.769z"/>
	<path fill="#A4A191" d="M603.831,100.107c0,5.609-4.922,10.156-10.995,10.156l0,0c-6.073,0-10.997-4.547-10.997-10.156V47.614
		c0-5.608,4.923-10.157,10.997-10.157l0,0c6.073,0,10.995,4.549,10.995,10.157V100.107z"/>
	<path fill="#BEBAAB" d="M581.839,73.858c0-6.069,4.923-10.995,10.997-10.995c6.073,0,10.995,4.926,10.995,10.995
		c0,6.075-4.922,10.999-10.995,10.999C586.763,84.857,581.839,79.933,581.839,73.858z"/>
	<circle fill="#B3AC99" cx="592.834" cy="73.858" r="8.521"/>
	<circle fill="#EFEFEF" cx="592.835" cy="73.858" r="4.392"/>
</g>
<g>
	<circle fill="#C9C37C" stroke="#62604D" stroke-miterlimit="10" cx="642.001" cy="47.255" r="12.163"/>
	<circle fill="#C9C37C" stroke="#62604D" stroke-miterlimit="10" cx="642.001" cy="101.109" r="12.163"/>
	<path fill="#626363" d="M652.998,107.769c0,1.377-1.211,2.494-2.705,2.494h-16.585c-1.494,0-2.703-1.117-2.703-2.494V39.955
		c0-1.381,1.209-2.498,2.703-2.498h16.585c1.494,0,2.705,1.117,2.705,2.498V107.769z"/>
	<path fill="#A4A191" d="M652.998,100.107c0,5.609-4.924,10.156-10.998,10.156l0,0c-6.073,0-10.996-4.547-10.996-10.156V47.614
		c0-5.608,4.923-10.157,10.996-10.157l0,0c6.074,0,10.998,4.549,10.998,10.157V100.107z"/>
	<path fill="#BEBAAB" d="M631.004,73.858c0-6.069,4.923-10.995,10.996-10.995c6.074,0,10.998,4.926,10.998,10.995
		c0,6.075-4.924,10.999-10.998,10.999C635.927,84.857,631.004,79.933,631.004,73.858z"/>
	<circle fill="#B3AC99" cx="642" cy="73.858" r="8.521"/>
	<circle fill="#EFEFEF" cx="642.001" cy="73.858" r="4.391"/>
</g>
<g>
	<circle fill="#C9C37C" stroke="#62604D" stroke-miterlimit="10" cx="691.166" cy="47.255" r="12.162"/>
	<circle fill="#C9C37C" stroke="#62604D" stroke-miterlimit="10" cx="691.166" cy="101.109" r="12.162"/>
	<path fill="#626363" d="M702.162,107.769c0,1.377-1.211,2.494-2.703,2.494h-16.586c-1.494,0-2.703-1.117-2.703-2.494V39.955
		c0-1.381,1.209-2.498,2.703-2.498h16.586c1.492,0,2.703,1.117,2.703,2.498V107.769z"/>
	<path fill="#A4A191" d="M702.162,100.107c0,5.609-4.924,10.156-10.996,10.156l0,0c-6.072,0-10.996-4.547-10.996-10.156V47.614
		c0-5.608,4.924-10.157,10.996-10.157l0,0c6.072,0,10.996,4.549,10.996,10.157V100.107z"/>
	<path fill="#BEBAAB" d="M680.17,73.858c0-6.069,4.924-10.995,10.996-10.995s10.996,4.926,10.996,10.995
		c0,6.075-4.924,10.999-10.996,10.999S680.17,79.933,680.17,73.858z"/>
	<circle fill="#B3AC99" cx="691.165" cy="73.858" r="8.522"/>
	<circle fill="#EFEFEF" cx="691.165" cy="73.858" r="4.392"/>
</g>
<g>
	<circle fill="#C9C37C" stroke="#62604D" stroke-miterlimit="10" cx="740.331" cy="47.255" r="12.163"/>
	<circle fill="#C9C37C" stroke="#62604D" stroke-miterlimit="10" cx="740.331" cy="101.109" r="12.163"/>
	<path fill="#626363" d="M751.328,107.769c0,1.377-1.211,2.494-2.705,2.494h-16.586c-1.492,0-2.701-1.117-2.701-2.494V39.955
		c0-1.381,1.209-2.498,2.701-2.498h16.586c1.494,0,2.705,1.117,2.705,2.498V107.769z"/>
	<path fill="#A4A191" d="M751.328,100.107c0,5.609-4.922,10.156-10.996,10.156l0,0c-6.074,0-10.996-4.547-10.996-10.156V47.614
		c0-5.608,4.922-10.157,10.996-10.157l0,0c6.074,0,10.996,4.549,10.996,10.157V100.107z"/>
	<path fill="#BEBAAB" d="M729.336,73.858c0-6.069,4.922-10.995,10.996-10.995s10.996,4.926,10.996,10.995
		c0,6.075-4.922,10.999-10.996,10.999S729.336,79.933,729.336,73.858z"/>
	<circle fill="#B3AC99" cx="740.332" cy="73.858" r="8.521"/>
	<circle fill="#EFEFEF" cx="740.332" cy="73.858" r="4.393"/>
</g>
<g>
	<circle fill="#C9C37C" stroke="#62604D" stroke-miterlimit="10" cx="789.496" cy="47.255" r="12.162"/>
	<circle fill="#C9C37C" stroke="#62604D" stroke-miterlimit="10" cx="789.496" cy="101.109" r="12.162"/>
	<path fill="#626363" d="M800.492,107.769c0,1.377-1.211,2.494-2.703,2.494h-16.586c-1.492,0-2.703-1.117-2.703-2.494V39.955
		c0-1.381,1.211-2.498,2.703-2.498h16.586c1.492,0,2.703,1.117,2.703,2.498V107.769z"/>
	<path fill="#A4A191" d="M800.492,100.107c0,5.609-4.922,10.156-10.996,10.156l0,0c-6.072,0-10.996-4.547-10.996-10.156V47.614
		c0-5.608,4.924-10.157,10.996-10.157l0,0c6.074,0,10.996,4.549,10.996,10.157V100.107z"/>
	<path fill="#BEBAAB" d="M778.5,73.858c0-6.069,4.924-10.995,10.996-10.995c6.074,0,10.996,4.926,10.996,10.995
		c0,6.075-4.922,10.999-10.996,10.999C783.424,84.857,778.5,79.933,778.5,73.858z"/>
	<circle fill="#B3AC99" cx="789.496" cy="73.858" r="8.521"/>
	<circle fill="#EFEFEF" cx="789.496" cy="73.858" r="4.393"/>
</g>
<g>
	<circle fill="#C9C37C" stroke="#62604D" stroke-miterlimit="10" cx="838.661" cy="47.255" r="12.163"/>
	<circle fill="#C9C37C" stroke="#62604D" stroke-miterlimit="10" cx="838.661" cy="101.109" r="12.163"/>
	<path fill="#626363" d="M849.658,107.769c0,1.377-1.211,2.494-2.705,2.494h-16.586c-1.492,0-2.701-1.117-2.701-2.494V39.955
		c0-1.381,1.209-2.498,2.701-2.498h16.586c1.494,0,2.705,1.117,2.705,2.498V107.769z"/>
	<path fill="#A4A191" d="M849.658,100.107c0,5.609-4.922,10.156-10.996,10.156l0,0c-6.074,0-10.996-4.547-10.996-10.156V47.614
		c0-5.608,4.922-10.157,10.996-10.157l0,0c6.074,0,10.996,4.549,10.996,10.157V100.107z"/>
	<path fill="#BEBAAB" d="M827.666,73.858c0-6.069,4.922-10.995,10.996-10.995s10.996,4.926,10.996,10.995
		c0,6.075-4.922,10.999-10.996,10.999S827.666,79.933,827.666,73.858z"/>
	<circle fill="#B3AC99" cx="838.662" cy="73.858" r="8.521"/>
	<circle fill="#EFEFEF" cx="838.662" cy="73.858" r="4.393"/>
</g>
<g>
	<circle fill="#C9C37C" stroke="#62604D" stroke-miterlimit="10" cx="887.826" cy="47.255" r="12.162"/>
	<circle fill="#C9C37C" stroke="#62604D" stroke-miterlimit="10" cx="887.826" cy="101.109" r="12.162"/>
	<path fill="#626363" d="M898.822,107.769c0,1.377-1.211,2.494-2.703,2.494h-16.586c-1.492,0-2.703-1.117-2.703-2.494V39.955
		c0-1.381,1.211-2.498,2.703-2.498h16.586c1.492,0,2.703,1.117,2.703,2.498V107.769z"/>
	<path fill="#A4A191" d="M898.822,100.107c0,5.609-4.922,10.156-10.996,10.156l0,0c-6.072,0-10.996-4.547-10.996-10.156V47.614
		c0-5.608,4.924-10.157,10.996-10.157l0,0c6.074,0,10.996,4.549,10.996,10.157V100.107z"/>
	<path fill="#BEBAAB" d="M876.83,73.858c0-6.069,4.924-10.995,10.996-10.995c6.074,0,10.996,4.926,10.996,10.995
		c0,6.075-4.922,10.999-10.996,10.999C881.754,84.857,876.83,79.933,876.83,73.858z"/>
	<circle fill="#B3AC99" cx="887.826" cy="73.858" r="8.521"/>
	<circle fill="#EFEFEF" cx="887.826" cy="73.858" r="4.393"/>
</g>
<g>
	<circle fill="#C9C37C" stroke="#62604D" stroke-miterlimit="10" cx="936.991" cy="47.255" r="12.163"/>
	<circle fill="#C9C37C" stroke="#62604D" stroke-miterlimit="10" cx="936.991" cy="101.109" r="12.163"/>
	<path fill="#626363" d="M947.988,107.769c0,1.377-1.211,2.494-2.705,2.494h-16.586c-1.492,0-2.701-1.117-2.701-2.494V39.955
		c0-1.381,1.209-2.498,2.701-2.498h16.586c1.494,0,2.705,1.117,2.705,2.498V107.769z"/>
	<path fill="#A4A191" d="M947.988,100.107c0,5.609-4.922,10.156-10.996,10.156l0,0c-6.074,0-10.996-4.547-10.996-10.156V47.614
		c0-5.608,4.922-10.157,10.996-10.157l0,0c6.074,0,10.996,4.549,10.996,10.157V100.107z"/>
	<path fill="#BEBAAB" d="M925.996,73.858c0-6.069,4.922-10.995,10.996-10.995s10.996,4.926,10.996,10.995
		c0,6.075-4.922,10.999-10.996,10.999S925.996,79.933,925.996,73.858z"/>
	<circle fill="#B3AC99" cx="936.992" cy="73.858" r="8.521"/>
	<circle fill="#EFEFEF" cx="936.992" cy="73.858" r="4.393"/>
</g>
<g>
	<circle fill="#C9C37C" stroke="#62604D" stroke-miterlimit="10" cx="986.156" cy="47.255" r="12.162"/>
	<circle fill="#C9C37C" stroke="#62604D" stroke-miterlimit="10" cx="986.156" cy="101.109" r="12.162"/>
	<path fill="#626363" d="M997.152,107.769c0,1.377-1.209,2.494-2.703,2.494h-16.586c-1.492,0-2.703-1.117-2.703-2.494V39.955
		c0-1.381,1.211-2.498,2.703-2.498h16.586c1.494,0,2.703,1.117,2.703,2.498V107.769z"/>
	<path fill="#A4A191" d="M997.152,100.107c0,5.609-4.922,10.156-10.994,10.156l0,0c-6.074,0-10.998-4.547-10.998-10.156V47.614
		c0-5.608,4.924-10.157,10.998-10.157l0,0c6.072,0,10.994,4.549,10.994,10.157V100.107z"/>
	<path fill="#BEBAAB" d="M975.16,73.858c0-6.069,4.924-10.995,10.998-10.995c6.072,0,10.994,4.926,10.994,10.995
		c0,6.075-4.922,10.999-10.994,10.999C980.084,84.857,975.16,79.933,975.16,73.858z"/>
	<circle fill="#B3AC99" cx="986.156" cy="73.858" r="8.521"/>
	<circle fill="#EFEFEF" cx="986.157" cy="73.858" r="4.392"/>
</g>
<g>
	<circle fill="#C9C37C" stroke="#62604D" stroke-miterlimit="10" cx="1035.322" cy="47.255" r="12.162"/>
	<circle fill="#C9C37C" stroke="#62604D" stroke-miterlimit="10" cx="1035.322" cy="101.109" r="12.162"/>
	<path fill="#626363" d="M1046.318,107.769c0,1.377-1.209,2.494-2.703,2.494h-16.586c-1.494,0-2.703-1.117-2.703-2.494V39.955
		c0-1.381,1.209-2.498,2.703-2.498h16.586c1.494,0,2.703,1.117,2.703,2.498V107.769z"/>
	<path fill="#A4A191" d="M1046.318,100.107c0,5.609-4.922,10.156-10.996,10.156l0,0c-6.072,0-10.996-4.547-10.996-10.156V47.614
		c0-5.608,4.924-10.157,10.996-10.157l0,0c6.074,0,10.996,4.549,10.996,10.157V100.107z"/>
	<path fill="#BEBAAB" d="M1024.326,73.858c0-6.069,4.924-10.995,10.996-10.995c6.074,0,10.996,4.926,10.996,10.995
		c0,6.075-4.922,10.999-10.996,10.999C1029.25,84.857,1024.326,79.933,1024.326,73.858z"/>
	<circle fill="#B3AC99" cx="1035.322" cy="73.858" r="8.521"/>
	<circle fill="#EFEFEF" cx="1035.323" cy="73.858" r="4.392"/>
</g>
<path fill="#ADA89E" stroke="#656352" stroke-miterlimit="10" d="M1053.398,333.785c0,2.273-1.354,4.119-3.021,4.119H237.471
	c-1.669,0-3.022-1.846-3.022-4.119v-57.41c0-2.275,1.353-4.123,3.022-4.123h812.906c1.668,0,3.021,1.848,3.021,4.123V333.785z"/>
<rect x="238.412" y="279.139" fill="#EDECEB" width="808.783" height="51.988"/>
<g>
	<path fill="#C9C37C" stroke="#62604D" stroke-miterlimit="10" d="M236.517,205.004c0-6.717,5.445-12.164,12.163-12.164
		c6.717,0,12.163,5.447,12.163,12.164c0,6.715-5.446,12.162-12.163,12.162C241.962,217.166,236.517,211.719,236.517,205.004z"/>
	<path fill="#C9C37C" stroke="#62604D" stroke-miterlimit="10" d="M236.517,258.857c0-6.719,5.445-12.164,12.163-12.164
		c6.717,0,12.163,5.445,12.163,12.164c0,6.715-5.446,12.16-12.163,12.16C241.962,271.018,236.517,265.572,236.517,258.857z"/>
	<path fill="#626363" d="M259.676,265.518c0,1.377-1.21,2.494-2.704,2.494h-16.586c-1.493,0-2.702-1.117-2.702-2.494v-67.814
		c0-1.381,1.209-2.498,2.702-2.498h16.586c1.494,0,2.704,1.117,2.704,2.498V265.518z"/>
	<path fill="#A4A191" d="M259.676,257.855c0,5.609-4.922,10.156-10.997,10.156l0,0c-6.073,0-10.996-4.547-10.996-10.156v-52.494
		c0-5.607,4.922-10.156,10.996-10.156l0,0c6.074,0,10.997,4.549,10.997,10.156V257.855z"/>
	<path fill="#BEBAAB" d="M237.684,231.605c0-6.068,4.922-10.994,10.996-10.994c6.074,0,10.997,4.926,10.997,10.994
		c0,6.076-4.922,11-10.997,11C242.606,242.605,237.684,237.682,237.684,231.605z"/>
	<circle fill="#B3AC99" cx="248.679" cy="231.605" r="8.521"/>
	<path fill="#EFEFEF" d="M244.288,231.605c0-2.422,1.966-4.391,4.392-4.391c2.425,0,4.393,1.969,4.393,4.391
		c0,2.428-1.968,4.395-4.393,4.395C246.253,236,244.288,234.033,244.288,231.605z"/>
</g>
<g>
	<path fill="#C9C37C" stroke="#62604D" stroke-miterlimit="10" d="M285.682,205.004c0-6.717,5.445-12.164,12.163-12.164
		c6.717,0,12.162,5.447,12.162,12.164c0,6.715-5.444,12.162-12.162,12.162C291.127,217.166,285.682,211.719,285.682,205.004z"/>
	<path fill="#C9C37C" stroke="#62604D" stroke-miterlimit="10" d="M285.682,258.857c0-6.719,5.445-12.164,12.163-12.164
		c6.717,0,12.162,5.445,12.162,12.164c0,6.715-5.444,12.16-12.162,12.16C291.127,271.018,285.682,265.572,285.682,258.857z"/>
	<path fill="#626363" d="M308.84,265.518c0,1.377-1.21,2.494-2.703,2.494h-16.586c-1.493,0-2.703-1.117-2.703-2.494v-67.814
		c0-1.381,1.21-2.498,2.703-2.498h16.586c1.493,0,2.703,1.117,2.703,2.498V265.518z"/>
	<path fill="#A4A191" d="M308.84,257.855c0,5.609-4.922,10.156-10.996,10.156l0,0c-6.073,0-10.996-4.547-10.996-10.156v-52.494
		c0-5.607,4.923-10.156,10.996-10.156l0,0c6.073,0,10.996,4.549,10.996,10.156V257.855z"/>
	<path fill="#BEBAAB" d="M286.849,231.605c0-6.068,4.923-10.994,10.996-10.994c6.073,0,10.996,4.926,10.996,10.994
		c0,6.076-4.922,11-10.996,11C291.772,242.605,286.849,237.682,286.849,231.605z"/>
	<circle fill="#B3AC99" cx="297.844" cy="231.605" r="8.522"/>
	<path fill="#EFEFEF" d="M293.453,231.605c0-2.422,1.966-4.391,4.392-4.391c2.426,0,4.392,1.969,4.392,4.391
		c0,2.428-1.966,4.395-4.392,4.395C295.418,236,293.453,234.033,293.453,231.605z"/>
</g>
<g>
	<path fill="#C9C37C" stroke="#62604D" stroke-miterlimit="10" d="M334.847,205.004c0-6.717,5.445-12.164,12.163-12.164
		c6.717,0,12.163,5.447,12.163,12.164c0,6.715-5.446,12.162-12.163,12.162C340.292,217.166,334.847,211.719,334.847,205.004z"/>
	<path fill="#C9C37C" stroke="#62604D" stroke-miterlimit="10" d="M334.847,258.857c0-6.719,5.445-12.164,12.163-12.164
		c6.717,0,12.163,5.445,12.163,12.164c0,6.715-5.446,12.16-12.163,12.16C340.292,271.018,334.847,265.572,334.847,258.857z"/>
	<path fill="#626363" d="M358.006,265.518c0,1.377-1.21,2.494-2.704,2.494h-16.586c-1.493,0-2.702-1.117-2.702-2.494v-67.814
		c0-1.381,1.209-2.498,2.702-2.498h16.586c1.494,0,2.704,1.117,2.704,2.498V265.518z"/>
	<path fill="#A4A191" d="M358.006,257.855c0,5.609-4.922,10.156-10.997,10.156l0,0c-6.073,0-10.996-4.547-10.996-10.156v-52.494
		c0-5.607,4.922-10.156,10.996-10.156l0,0c6.074,0,10.997,4.549,10.997,10.156V257.855z"/>
	<path fill="#BEBAAB" d="M336.014,231.605c0-6.068,4.922-10.994,10.996-10.994c6.074,0,10.997,4.926,10.997,10.994
		c0,6.076-4.922,11-10.997,11C340.937,242.605,336.014,237.682,336.014,231.605z"/>
	<circle fill="#B3AC99" cx="347.01" cy="231.605" r="8.521"/>
	<path fill="#EFEFEF" d="M342.618,231.605c0-2.422,1.966-4.391,4.392-4.391c2.425,0,4.393,1.969,4.393,4.391
		c0,2.428-1.967,4.395-4.393,4.395C344.584,236,342.618,234.033,342.618,231.605z"/>
</g>
<g>
	<path fill="#C9C37C" stroke="#62604D" stroke-miterlimit="10" d="M384.013,205.004c0-6.717,5.445-12.164,12.163-12.164
		c6.717,0,12.161,5.447,12.161,12.164c0,6.715-5.444,12.162-12.161,12.162C389.458,217.166,384.013,211.719,384.013,205.004z"/>
	<path fill="#C9C37C" stroke="#62604D" stroke-miterlimit="10" d="M384.013,258.857c0-6.719,5.445-12.164,12.163-12.164
		c6.717,0,12.161,5.445,12.161,12.164c0,6.715-5.444,12.16-12.161,12.16C389.458,271.018,384.013,265.572,384.013,258.857z"/>
	<path fill="#626363" d="M407.171,265.518c0,1.377-1.21,2.494-2.703,2.494h-16.585c-1.493,0-2.703-1.117-2.703-2.494v-67.814
		c0-1.381,1.21-2.498,2.703-2.498h16.585c1.493,0,2.703,1.117,2.703,2.498V265.518z"/>
	<path fill="#A4A191" d="M407.171,257.855c0,5.609-4.922,10.156-10.995,10.156l0,0c-6.073,0-10.997-4.547-10.997-10.156v-52.494
		c0-5.607,4.923-10.156,10.997-10.156l0,0c6.073,0,10.995,4.549,10.995,10.156V257.855z"/>
	<path fill="#BEBAAB" d="M385.179,231.605c0-6.068,4.923-10.994,10.997-10.994c6.073,0,10.995,4.926,10.995,10.994
		c0,6.076-4.922,11-10.995,11C390.103,242.605,385.179,237.682,385.179,231.605z"/>
	<circle fill="#B3AC99" cx="396.175" cy="231.605" r="8.522"/>
	<path fill="#EFEFEF" d="M391.783,231.605c0-2.422,1.966-4.391,4.393-4.391c2.425,0,4.391,1.969,4.391,4.391
		c0,2.428-1.966,4.395-4.391,4.395C393.749,236,391.783,234.033,391.783,231.605z"/>
</g>
<g>
	<path fill="#C9C37C" stroke="#62604D" stroke-miterlimit="10" d="M433.177,205.004c0-6.717,5.445-12.164,12.163-12.164
		c6.717,0,12.163,5.447,12.163,12.164c0,6.715-5.446,12.162-12.163,12.162C438.623,217.166,433.177,211.719,433.177,205.004z"/>
	<path fill="#C9C37C" stroke="#62604D" stroke-miterlimit="10" d="M433.177,258.857c0-6.719,5.445-12.164,12.163-12.164
		c6.717,0,12.163,5.445,12.163,12.164c0,6.715-5.446,12.16-12.163,12.16C438.623,271.018,433.177,265.572,433.177,258.857z"/>
	<path fill="#626363" d="M456.336,265.518c0,1.377-1.21,2.494-2.704,2.494h-16.586c-1.493,0-2.702-1.117-2.702-2.494v-67.814
		c0-1.381,1.209-2.498,2.702-2.498h16.586c1.494,0,2.704,1.117,2.704,2.498V265.518z"/>
	<path fill="#A4A191" d="M456.336,257.855c0,5.609-4.922,10.156-10.997,10.156l0,0c-6.073,0-10.996-4.547-10.996-10.156v-52.494
		c0-5.607,4.922-10.156,10.996-10.156l0,0c6.074,0,10.997,4.549,10.997,10.156V257.855z"/>
	<path fill="#BEBAAB" d="M434.344,231.605c0-6.068,4.922-10.994,10.996-10.994c6.074,0,10.997,4.926,10.997,10.994
		c0,6.076-4.922,11-10.997,11C439.267,242.605,434.344,237.682,434.344,231.605z"/>
	<circle fill="#B3AC99" cx="445.34" cy="231.605" r="8.521"/>
	<path fill="#EFEFEF" d="M440.948,231.605c0-2.422,1.966-4.391,4.392-4.391s4.393,1.969,4.393,4.391
		c0,2.428-1.967,4.395-4.393,4.395S440.948,234.033,440.948,231.605z"/>
</g>
<g>
	<path fill="#C9C37C" stroke="#62604D" stroke-miterlimit="10" d="M482.343,205.004c0-6.717,5.444-12.164,12.163-12.164
		c6.717,0,12.161,5.447,12.161,12.164c0,6.715-5.444,12.162-12.161,12.162C487.788,217.166,482.343,211.719,482.343,205.004z"/>
	<path fill="#C9C37C" stroke="#62604D" stroke-miterlimit="10" d="M482.343,258.857c0-6.719,5.444-12.164,12.163-12.164
		c6.717,0,12.161,5.445,12.161,12.164c0,6.715-5.444,12.16-12.161,12.16C487.788,271.018,482.343,265.572,482.343,258.857z"/>
	<path fill="#626363" d="M505.501,265.518c0,1.377-1.21,2.494-2.703,2.494h-16.585c-1.493,0-2.703-1.117-2.703-2.494v-67.814
		c0-1.381,1.21-2.498,2.703-2.498h16.585c1.493,0,2.703,1.117,2.703,2.498V265.518z"/>
	<path fill="#A4A191" d="M505.501,257.855c0,5.609-4.922,10.156-10.995,10.156l0,0c-6.073,0-10.997-4.547-10.997-10.156v-52.494
		c0-5.607,4.923-10.156,10.997-10.156l0,0c6.073,0,10.995,4.549,10.995,10.156V257.855z"/>
	<path fill="#BEBAAB" d="M483.509,231.605c0-6.068,4.923-10.994,10.997-10.994c6.073,0,10.995,4.926,10.995,10.994
		c0,6.076-4.922,11-10.995,11C488.433,242.605,483.509,237.682,483.509,231.605z"/>
	<circle fill="#B3AC99" cx="494.505" cy="231.605" r="8.522"/>
	<path fill="#EFEFEF" d="M490.113,231.605c0-2.422,1.966-4.391,4.393-4.391c2.425,0,4.391,1.969,4.391,4.391
		c0,2.428-1.966,4.395-4.391,4.395C492.079,236,490.113,234.033,490.113,231.605z"/>
</g>
<g>
	<path fill="#C9C37C" stroke="#62604D" stroke-miterlimit="10" d="M531.507,205.004c0-6.717,5.445-12.164,12.163-12.164
		c6.717,0,12.163,5.447,12.163,12.164c0,6.715-5.446,12.162-12.163,12.162C536.953,217.166,531.507,211.719,531.507,205.004z"/>
	<path fill="#C9C37C" stroke="#62604D" stroke-miterlimit="10" d="M531.507,258.857c0-6.719,5.445-12.164,12.163-12.164
		c6.717,0,12.163,5.445,12.163,12.164c0,6.715-5.446,12.16-12.163,12.16C536.953,271.018,531.507,265.572,531.507,258.857z"/>
	<path fill="#626363" d="M554.667,265.518c0,1.377-1.21,2.494-2.704,2.494h-16.586c-1.493,0-2.702-1.117-2.702-2.494v-67.814
		c0-1.381,1.209-2.498,2.702-2.498h16.586c1.494,0,2.704,1.117,2.704,2.498V265.518z"/>
	<path fill="#A4A191" d="M554.667,257.855c0,5.609-4.922,10.156-10.997,10.156l0,0c-6.073,0-10.996-4.547-10.996-10.156v-52.494
		c0-5.607,4.922-10.156,10.996-10.156l0,0c6.074,0,10.997,4.549,10.997,10.156V257.855z"/>
	<path fill="#BEBAAB" d="M532.674,231.605c0-6.068,4.922-10.994,10.996-10.994c6.074,0,10.997,4.926,10.997,10.994
		c0,6.076-4.922,11-10.997,11C537.597,242.605,532.674,237.682,532.674,231.605z"/>
	<circle fill="#B3AC99" cx="543.67" cy="231.605" r="8.522"/>
	<path fill="#EFEFEF" d="M539.278,231.605c0-2.422,1.966-4.391,4.392-4.391s4.392,1.969,4.392,4.391
		c0,2.428-1.967,4.395-4.392,4.395S539.278,234.033,539.278,231.605z"/>
</g>
<g>
	<path fill="#C9C37C" stroke="#62604D" stroke-miterlimit="10" d="M580.673,205.004c0-6.717,5.444-12.164,12.163-12.164
		c6.717,0,12.161,5.447,12.161,12.164c0,6.715-5.444,12.162-12.161,12.162C586.118,217.166,580.673,211.719,580.673,205.004z"/>
	<path fill="#C9C37C" stroke="#62604D" stroke-miterlimit="10" d="M580.673,258.857c0-6.719,5.444-12.164,12.163-12.164
		c6.717,0,12.161,5.445,12.161,12.164c0,6.715-5.444,12.16-12.161,12.16C586.118,271.018,580.673,265.572,580.673,258.857z"/>
	<path fill="#626363" d="M603.831,265.518c0,1.377-1.21,2.494-2.703,2.494h-16.585c-1.493,0-2.703-1.117-2.703-2.494v-67.814
		c0-1.381,1.21-2.498,2.703-2.498h16.585c1.493,0,2.703,1.117,2.703,2.498V265.518z"/>
	<path fill="#A4A191" d="M603.831,257.855c0,5.609-4.922,10.156-10.995,10.156l0,0c-6.073,0-10.997-4.547-10.997-10.156v-52.494
		c0-5.607,4.923-10.156,10.997-10.156l0,0c6.073,0,10.995,4.549,10.995,10.156V257.855z"/>
	<path fill="#BEBAAB" d="M581.839,231.605c0-6.068,4.923-10.994,10.997-10.994c6.073,0,10.995,4.926,10.995,10.994
		c0,6.076-4.922,11-10.995,11C586.763,242.605,581.839,237.682,581.839,231.605z"/>
	<circle fill="#B3AC99" cx="592.834" cy="231.605" r="8.521"/>
	<path fill="#EFEFEF" d="M588.443,231.605c0-2.422,1.966-4.391,4.393-4.391c2.425,0,4.391,1.969,4.391,4.391
		c0,2.428-1.966,4.395-4.391,4.395C590.409,236,588.443,234.033,588.443,231.605z"/>
</g>
<g>
	<path fill="#C9C37C" stroke="#62604D" stroke-miterlimit="10" d="M629.838,205.004c0-6.717,5.445-12.164,12.162-12.164
		c6.719,0,12.164,5.447,12.164,12.164c0,6.715-5.445,12.162-12.164,12.162C635.284,217.166,629.838,211.719,629.838,205.004z"/>
	<path fill="#C9C37C" stroke="#62604D" stroke-miterlimit="10" d="M629.838,258.857c0-6.719,5.445-12.164,12.162-12.164
		c6.719,0,12.164,5.445,12.164,12.164c0,6.715-5.445,12.16-12.164,12.16C635.284,271.018,629.838,265.572,629.838,258.857z"/>
	<path fill="#626363" d="M652.998,265.518c0,1.377-1.211,2.494-2.705,2.494h-16.585c-1.494,0-2.703-1.117-2.703-2.494v-67.814
		c0-1.381,1.209-2.498,2.703-2.498h16.585c1.494,0,2.705,1.117,2.705,2.498V265.518z"/>
	<path fill="#A4A191" d="M652.998,257.855c0,5.609-4.924,10.156-10.998,10.156l0,0c-6.073,0-10.996-4.547-10.996-10.156v-52.494
		c0-5.607,4.923-10.156,10.996-10.156l0,0c6.074,0,10.998,4.549,10.998,10.156V257.855z"/>
	<path fill="#BEBAAB" d="M631.004,231.605c0-6.068,4.923-10.994,10.996-10.994c6.074,0,10.998,4.926,10.998,10.994
		c0,6.076-4.924,11-10.998,11C635.927,242.605,631.004,237.682,631.004,231.605z"/>
	<circle fill="#B3AC99" cx="642" cy="231.605" r="8.521"/>
	<path fill="#EFEFEF" d="M637.61,231.605c0-2.422,1.966-4.391,4.39-4.391c2.426,0,4.393,1.969,4.393,4.391
		c0,2.428-1.967,4.395-4.393,4.395C639.576,236,637.61,234.033,637.61,231.605z"/>
</g>
<g>
	<path fill="#C9C37C" stroke="#62604D" stroke-miterlimit="10" d="M679.004,205.004c0-6.717,5.443-12.164,12.162-12.164
		c6.717,0,12.162,5.447,12.162,12.164c0,6.715-5.445,12.162-12.162,12.162C684.447,217.166,679.004,211.719,679.004,205.004z"/>
	<path fill="#C9C37C" stroke="#62604D" stroke-miterlimit="10" d="M679.004,258.857c0-6.719,5.443-12.164,12.162-12.164
		c6.717,0,12.162,5.445,12.162,12.164c0,6.715-5.445,12.16-12.162,12.16C684.447,271.018,679.004,265.572,679.004,258.857z"/>
	<path fill="#626363" d="M702.162,265.518c0,1.377-1.211,2.494-2.703,2.494h-16.586c-1.494,0-2.703-1.117-2.703-2.494v-67.814
		c0-1.381,1.209-2.498,2.703-2.498h16.586c1.492,0,2.703,1.117,2.703,2.498V265.518z"/>
	<path fill="#A4A191" d="M702.162,257.855c0,5.609-4.924,10.156-10.996,10.156l0,0c-6.072,0-10.996-4.547-10.996-10.156v-52.494
		c0-5.607,4.924-10.156,10.996-10.156l0,0c6.072,0,10.996,4.549,10.996,10.156V257.855z"/>
	<path fill="#BEBAAB" d="M680.17,231.605c0-6.068,4.924-10.994,10.996-10.994s10.996,4.926,10.996,10.994
		c0,6.076-4.924,11-10.996,11S680.17,237.682,680.17,231.605z"/>
	<circle fill="#B3AC99" cx="691.165" cy="231.605" r="8.522"/>
	<path fill="#EFEFEF" d="M686.773,231.605c0-2.422,1.967-4.391,4.393-4.391s4.391,1.969,4.391,4.391
		c0,2.428-1.965,4.395-4.391,4.395S686.773,234.033,686.773,231.605z"/>
</g>
<g>
	<path fill="#C9C37C" stroke="#62604D" stroke-miterlimit="10" d="M728.168,205.004c0-6.717,5.447-12.164,12.164-12.164
		s12.162,5.447,12.162,12.164c0,6.715-5.445,12.162-12.162,12.162S728.168,211.719,728.168,205.004z"/>
	<path fill="#C9C37C" stroke="#62604D" stroke-miterlimit="10" d="M728.168,258.857c0-6.719,5.447-12.164,12.164-12.164
		s12.162,5.445,12.162,12.164c0,6.715-5.445,12.16-12.162,12.16S728.168,265.572,728.168,258.857z"/>
	<path fill="#626363" d="M751.328,265.518c0,1.377-1.211,2.494-2.705,2.494h-16.586c-1.492,0-2.701-1.117-2.701-2.494v-67.814
		c0-1.381,1.209-2.498,2.701-2.498h16.586c1.494,0,2.705,1.117,2.705,2.498V265.518z"/>
	<path fill="#A4A191" d="M751.328,257.855c0,5.609-4.922,10.156-10.996,10.156l0,0c-6.074,0-10.996-4.547-10.996-10.156v-52.494
		c0-5.607,4.922-10.156,10.996-10.156l0,0c6.074,0,10.996,4.549,10.996,10.156V257.855z"/>
	<path fill="#BEBAAB" d="M729.336,231.605c0-6.068,4.922-10.994,10.996-10.994s10.996,4.926,10.996,10.994
		c0,6.076-4.922,11-10.996,11S729.336,237.682,729.336,231.605z"/>
	<circle fill="#B3AC99" cx="740.332" cy="231.605" r="8.521"/>
	<path fill="#EFEFEF" d="M735.939,231.605c0-2.422,1.967-4.391,4.393-4.391s4.393,1.969,4.393,4.391
		c0,2.428-1.967,4.395-4.393,4.395S735.939,234.033,735.939,231.605z"/>
</g>
<g>
	<path fill="#C9C37C" stroke="#62604D" stroke-miterlimit="10" d="M777.334,205.004c0-6.717,5.445-12.164,12.162-12.164
		s12.162,5.447,12.162,12.164c0,6.715-5.445,12.162-12.162,12.162S777.334,211.719,777.334,205.004z"/>
	<path fill="#C9C37C" stroke="#62604D" stroke-miterlimit="10" d="M777.334,258.857c0-6.719,5.445-12.164,12.162-12.164
		s12.162,5.445,12.162,12.164c0,6.715-5.445,12.16-12.162,12.16S777.334,265.572,777.334,258.857z"/>
	<path fill="#626363" d="M800.492,265.518c0,1.377-1.211,2.494-2.703,2.494h-16.586c-1.492,0-2.703-1.117-2.703-2.494v-67.814
		c0-1.381,1.211-2.498,2.703-2.498h16.586c1.492,0,2.703,1.117,2.703,2.498V265.518z"/>
	<path fill="#A4A191" d="M800.492,257.855c0,5.609-4.922,10.156-10.996,10.156l0,0c-6.072,0-10.996-4.547-10.996-10.156v-52.494
		c0-5.607,4.924-10.156,10.996-10.156l0,0c6.074,0,10.996,4.549,10.996,10.156V257.855z"/>
	<path fill="#BEBAAB" d="M778.5,231.605c0-6.068,4.924-10.994,10.996-10.994c6.074,0,10.996,4.926,10.996,10.994
		c0,6.076-4.922,11-10.996,11C783.424,242.605,778.5,237.682,778.5,231.605z"/>
	<circle fill="#B3AC99" cx="789.496" cy="231.605" r="8.521"/>
	<path fill="#EFEFEF" d="M785.104,231.605c0-2.422,1.967-4.391,4.393-4.391s4.393,1.969,4.393,4.391
		c0,2.428-1.967,4.395-4.393,4.395S785.104,234.033,785.104,231.605z"/>
</g>
<g>
	<path fill="#C9C37C" stroke="#62604D" stroke-miterlimit="10" d="M826.498,205.004c0-6.717,5.447-12.164,12.164-12.164
		s12.162,5.447,12.162,12.164c0,6.715-5.445,12.162-12.162,12.162S826.498,211.719,826.498,205.004z"/>
	<path fill="#C9C37C" stroke="#62604D" stroke-miterlimit="10" d="M826.498,258.857c0-6.719,5.447-12.164,12.164-12.164
		s12.162,5.445,12.162,12.164c0,6.715-5.445,12.16-12.162,12.16S826.498,265.572,826.498,258.857z"/>
	<path fill="#626363" d="M849.658,265.518c0,1.377-1.211,2.494-2.705,2.494h-16.586c-1.492,0-2.701-1.117-2.701-2.494v-67.814
		c0-1.381,1.209-2.498,2.701-2.498h16.586c1.494,0,2.705,1.117,2.705,2.498V265.518z"/>
	<path fill="#A4A191" d="M849.658,257.855c0,5.609-4.922,10.156-10.996,10.156l0,0c-6.074,0-10.996-4.547-10.996-10.156v-52.494
		c0-5.607,4.922-10.156,10.996-10.156l0,0c6.074,0,10.996,4.549,10.996,10.156V257.855z"/>
	<path fill="#BEBAAB" d="M827.666,231.605c0-6.068,4.922-10.994,10.996-10.994s10.996,4.926,10.996,10.994
		c0,6.076-4.922,11-10.996,11S827.666,237.682,827.666,231.605z"/>
	<circle fill="#B3AC99" cx="838.662" cy="231.605" r="8.521"/>
	<path fill="#EFEFEF" d="M834.27,231.605c0-2.422,1.967-4.391,4.393-4.391s4.393,1.969,4.393,4.391c0,2.428-1.967,4.395-4.393,4.395
		S834.27,234.033,834.27,231.605z"/>
</g>
<g>
	<path fill="#C9C37C" stroke="#62604D" stroke-miterlimit="10" d="M875.664,205.004c0-6.717,5.445-12.164,12.162-12.164
		s12.162,5.447,12.162,12.164c0,6.715-5.445,12.162-12.162,12.162S875.664,211.719,875.664,205.004z"/>
	<path fill="#C9C37C" stroke="#62604D" stroke-miterlimit="10" d="M875.664,258.857c0-6.719,5.445-12.164,12.162-12.164
		s12.162,5.445,12.162,12.164c0,6.715-5.445,12.16-12.162,12.16S875.664,265.572,875.664,258.857z"/>
	<path fill="#626363" d="M898.822,265.518c0,1.377-1.211,2.494-2.703,2.494h-16.586c-1.492,0-2.703-1.117-2.703-2.494v-67.814
		c0-1.381,1.211-2.498,2.703-2.498h16.586c1.492,0,2.703,1.117,2.703,2.498V265.518z"/>
	<path fill="#A4A191" d="M898.822,257.855c0,5.609-4.922,10.156-10.996,10.156l0,0c-6.072,0-10.996-4.547-10.996-10.156v-52.494
		c0-5.607,4.924-10.156,10.996-10.156l0,0c6.074,0,10.996,4.549,10.996,10.156V257.855z"/>
	<path fill="#BEBAAB" d="M876.83,231.605c0-6.068,4.924-10.994,10.996-10.994c6.074,0,10.996,4.926,10.996,10.994
		c0,6.076-4.922,11-10.996,11C881.754,242.605,876.83,237.682,876.83,231.605z"/>
	<circle fill="#B3AC99" cx="887.826" cy="231.605" r="8.521"/>
	<path fill="#EFEFEF" d="M883.434,231.605c0-2.422,1.967-4.391,4.393-4.391s4.393,1.969,4.393,4.391
		c0,2.428-1.967,4.395-4.393,4.395S883.434,234.033,883.434,231.605z"/>
</g>
<g>
	<path fill="#C9C37C" stroke="#62604D" stroke-miterlimit="10" d="M924.828,205.004c0-6.717,5.447-12.164,12.164-12.164
		s12.162,5.447,12.162,12.164c0,6.715-5.445,12.162-12.162,12.162S924.828,211.719,924.828,205.004z"/>
	<path fill="#C9C37C" stroke="#62604D" stroke-miterlimit="10" d="M924.828,258.857c0-6.719,5.447-12.164,12.164-12.164
		s12.162,5.445,12.162,12.164c0,6.715-5.445,12.16-12.162,12.16S924.828,265.572,924.828,258.857z"/>
	<path fill="#626363" d="M947.988,265.518c0,1.377-1.211,2.494-2.705,2.494h-16.586c-1.492,0-2.701-1.117-2.701-2.494v-67.814
		c0-1.381,1.209-2.498,2.701-2.498h16.586c1.494,0,2.705,1.117,2.705,2.498V265.518z"/>
	<path fill="#A4A191" d="M947.988,257.855c0,5.609-4.922,10.156-10.996,10.156l0,0c-6.074,0-10.996-4.547-10.996-10.156v-52.494
		c0-5.607,4.922-10.156,10.996-10.156l0,0c6.074,0,10.996,4.549,10.996,10.156V257.855z"/>
	<path fill="#BEBAAB" d="M925.996,231.605c0-6.068,4.922-10.994,10.996-10.994s10.996,4.926,10.996,10.994
		c0,6.076-4.922,11-10.996,11S925.996,237.682,925.996,231.605z"/>
	<circle fill="#B3AC99" cx="936.992" cy="231.605" r="8.521"/>
	<path fill="#EFEFEF" d="M932.6,231.605c0-2.422,1.967-4.391,4.393-4.391s4.393,1.969,4.393,4.391c0,2.428-1.967,4.395-4.393,4.395
		S932.6,234.033,932.6,231.605z"/>
</g>
<g>
	<path fill="#C9C37C" stroke="#62604D" stroke-miterlimit="10" d="M973.994,205.004c0-6.717,5.445-12.164,12.164-12.164
		c6.717,0,12.16,5.447,12.16,12.164c0,6.715-5.443,12.162-12.16,12.162C979.439,217.166,973.994,211.719,973.994,205.004z"/>
	<path fill="#C9C37C" stroke="#62604D" stroke-miterlimit="10" d="M973.994,258.857c0-6.719,5.445-12.164,12.164-12.164
		c6.717,0,12.16,5.445,12.16,12.164c0,6.715-5.443,12.16-12.16,12.16C979.439,271.018,973.994,265.572,973.994,258.857z"/>
	<path fill="#626363" d="M997.152,265.518c0,1.377-1.209,2.494-2.703,2.494h-16.586c-1.492,0-2.703-1.117-2.703-2.494v-67.814
		c0-1.381,1.211-2.498,2.703-2.498h16.586c1.494,0,2.703,1.117,2.703,2.498V265.518z"/>
	<path fill="#A4A191" d="M997.152,257.855c0,5.609-4.922,10.156-10.994,10.156l0,0c-6.074,0-10.998-4.547-10.998-10.156v-52.494
		c0-5.607,4.924-10.156,10.998-10.156l0,0c6.072,0,10.994,4.549,10.994,10.156V257.855z"/>
	<path fill="#BEBAAB" d="M975.16,231.605c0-6.068,4.924-10.994,10.998-10.994c6.072,0,10.994,4.926,10.994,10.994
		c0,6.076-4.922,11-10.994,11C980.084,242.605,975.16,237.682,975.16,231.605z"/>
	<circle fill="#B3AC99" cx="986.156" cy="231.605" r="8.521"/>
	<path fill="#EFEFEF" d="M981.766,231.605c0-2.422,1.965-4.391,4.393-4.391c2.424,0,4.391,1.969,4.391,4.391
		c0,2.428-1.967,4.395-4.391,4.395C983.73,236,981.766,234.033,981.766,231.605z"/>
</g>
<g>
	<path fill="#C9C37C" stroke="#62604D" stroke-miterlimit="10" d="M1023.16,205.004c0-6.717,5.445-12.164,12.162-12.164
		s12.162,5.447,12.162,12.164c0,6.715-5.445,12.162-12.162,12.162S1023.16,211.719,1023.16,205.004z"/>
	<path fill="#C9C37C" stroke="#62604D" stroke-miterlimit="10" d="M1023.16,258.857c0-6.719,5.445-12.164,12.162-12.164
		s12.162,5.445,12.162,12.164c0,6.715-5.445,12.16-12.162,12.16S1023.16,265.572,1023.16,258.857z"/>
	<path fill="#626363" d="M1046.318,265.518c0,1.377-1.209,2.494-2.703,2.494h-16.586c-1.494,0-2.703-1.117-2.703-2.494v-67.814
		c0-1.381,1.209-2.498,2.703-2.498h16.586c1.494,0,2.703,1.117,2.703,2.498V265.518z"/>
	<path fill="#A4A191" d="M1046.318,257.855c0,5.609-4.922,10.156-10.996,10.156l0,0c-6.072,0-10.996-4.547-10.996-10.156v-52.494
		c0-5.607,4.924-10.156,10.996-10.156l0,0c6.074,0,10.996,4.549,10.996,10.156V257.855z"/>
	<path fill="#BEBAAB" d="M1024.326,231.605c0-6.068,4.924-10.994,10.996-10.994c6.074,0,10.996,4.926,10.996,10.994
		c0,6.076-4.922,11-10.996,11C1029.25,242.605,1024.326,237.682,1024.326,231.605z"/>
	<circle fill="#B3AC99" cx="1035.322" cy="231.605" r="8.521"/>
	<path fill="#EFEFEF" d="M1030.932,231.605c0-2.422,1.965-4.391,4.391-4.391s4.393,1.969,4.393,4.391
		c0,2.428-1.967,4.395-4.393,4.395S1030.932,234.033,1030.932,231.605z"/>
</g>
</svg>
