<?xml version="1.0" encoding="utf-8"?>
<!-- Generator: Adobe Illustrator 16.0.0, SVG Export Plug-In . SVG Version: 6.00 Build 0)  -->
<!DOCTYPE svg PUBLIC "-//W3C//DTD SVG 1.1//EN" "http://www.w3.org/Graphics/SVG/1.1/DTD/svg11.dtd">
<svg version="1.1" id="图层_1" xmlns="http://www.w3.org/2000/svg" xmlns:xlink="http://www.w3.org/1999/xlink" x="0px" y="0px"
	 width="1275.59px" height="126.14px" viewBox="0 0 1275.59 126.14" enable-background="new 0 0 1275.59 126.14"
	 xml:space="preserve">
<g>
	<rect x="0.737" y="0.429" fill="#393E57" width="1275.591" height="126.141"/>
</g>
<g>
	<rect x="10.335" y="10.804" fill="#6A75A4" width="1256.396" height="105.391"/>
</g>
<rect x="437.33" y="32.999" fill="#889880" stroke="#5D5E5E" stroke-width="2" stroke-miterlimit="10" width="348" height="61"/>
<g>
	<path fill="#E3E2E2" d="M470.16,47.728v19.752h4.938v2.046h-4.938v3.342c0,3.491,0.149,4.14,4.389,4.489v0.698h-11.771v-0.698
		c4.589-0.35,4.888-0.848,4.888-4.438v-3.393h-12.869v-1.048c4.589-6.734,9.377-13.768,14.615-20.75H470.16z M467.666,67.479V52.217
		h-0.1c-3.592,4.589-6.934,9.628-10.326,15.263H467.666z"/>
	<path fill="#E3E2E2" d="M484.925,59.798c0,1.397-0.948,2.295-2.245,2.295c-1.247,0-2.195-0.897-2.195-2.295
		c0-1.247,0.948-2.244,2.195-2.244C484.077,57.554,484.925,58.701,484.925,59.798z M480.536,76.358c0-1.247,0.948-2.294,2.195-2.294
		c1.297,0,2.245,1.047,2.245,2.294c0,1.347-0.948,2.245-2.245,2.245C481.334,78.554,480.536,77.605,480.536,76.358z"/>
	<path fill="#E3E2E2" d="M494.303,77.356c4.639-0.449,4.938-0.998,4.938-4.34V53.912c0-2.145-0.199-2.494-2.544-2.743l-2.145-0.25
		v-0.748c3.092-0.549,5.586-1.446,7.133-2.443v25.289c0,3.342,0.349,3.891,4.988,4.34v0.698h-12.371V77.356z"/>
	<path fill="#E3E2E2" d="M532.611,63.141c0,6.983-2.644,15.463-9.428,15.463c-6.883,0-9.627-8.479-9.627-15.463
		c0-6.934,2.744-15.413,9.627-15.413C530.117,47.728,532.611,56.506,532.611,63.141z M523.184,48.874
		c-5.337,0-6.734,7.383-6.734,14.316c0,6.783,1.397,14.315,6.784,14.315c5.138,0,6.584-7.532,6.584-14.315
		c0-6.934-1.447-14.316-6.584-14.316H523.184z"/>
	<path fill="#E3E2E2" d="M542.887,59.798c0,1.397-0.948,2.295-2.245,2.295c-1.247,0-2.195-0.897-2.195-2.295
		c0-1.247,0.948-2.244,2.195-2.244C542.039,57.554,542.887,58.701,542.887,59.798z M538.498,76.358c0-1.247,0.948-2.294,2.195-2.294
		c1.297,0,2.245,1.047,2.245,2.294c0,1.347-0.948,2.245-2.245,2.245C539.296,78.554,538.498,77.605,538.498,76.358z"/>
	<path fill="#E3E2E2" d="M567.129,72.617c-0.549,1.547-0.948,3.093-1.546,5.438h-17.508v-0.798c2.743-2.744,5.537-5.537,7.931-8.38
		c2.594-2.993,6.684-6.884,6.684-11.872c0-4.539-2.345-6.934-6.285-6.934c-3.741,0-5.836,2.993-6.934,4.639l-0.748-0.598
		l2.693-3.741c1.347-1.397,3.592-2.644,6.235-2.644c3.94,0,7.731,2.793,7.731,7.631c0,4.39-2.344,7.532-6.335,11.822l-7.731,8.43
		h10.275c2.494,0,3.242-0.249,4.539-3.292L567.129,72.617z"/>
	<path fill="#E3E2E2" d="M583.191,65.636c-1.048,0.497-1.846,0.698-2.943,0.698c-4.738,0-8.28-3.493-8.28-8.53
		c0-4.839,3.691-10.076,9.278-10.076c5.537,0,9.078,5.536,9.078,11.871c0,9.178-4.988,15.164-11.173,17.808
		c-3.043,1.098-5.188,1.446-6.085,1.397l-0.15-0.948c6.934-1.146,12.471-6.036,14.416-14.217L583.191,65.636z M574.711,56.307
		c0,4.24,2.544,7.98,7.083,7.98c2.195,0,4.539-0.997,5.637-2.045c0.05-0.848,0.149-1.796,0.149-2.843
		c0-3.841-1.147-10.476-6.833-10.476C576.158,48.924,574.711,53.713,574.711,56.307z"/>
</g>
<g>
	<path fill="#FFFFFF" d="M600.756,56.346c0,0.906-0.219,1.594-0.656,2.063c-0.438,0.469-0.969,0.703-1.594,0.703
		c-0.344,0-0.641-0.07-0.891-0.211c-0.25-0.14-0.469-0.352-0.656-0.633v2.438h-0.938v-6.984h0.938v0.703
		c0.188-0.281,0.406-0.484,0.656-0.609c0.25-0.125,0.546-0.188,0.891-0.188c0.625,0,1.156,0.227,1.594,0.68
		C600.537,54.761,600.756,55.439,600.756,56.346z M599.725,56.346c0-0.594-0.117-1.055-0.352-1.383
		c-0.234-0.327-0.586-0.492-1.055-0.492c-0.375,0-0.696,0.165-0.961,0.492c-0.266,0.328-0.398,0.789-0.398,1.383
		s0.133,1.063,0.398,1.406c0.265,0.344,0.586,0.516,0.961,0.516c0.469,0,0.82-0.172,1.055-0.516S599.725,56.939,599.725,56.346z"/>
	<path fill="#FFFFFF" d="M601.178,73.371h-0.938v-3.797c0-0.188-0.031-0.344-0.094-0.469c-0.063-0.125-0.188-0.188-0.375-0.188
		c-0.219,0-0.422,0.117-0.609,0.352s-0.281,0.539-0.281,0.914v3.188h-0.938v-3.797c0-0.188-0.031-0.344-0.094-0.469
		c-0.063-0.125-0.188-0.188-0.375-0.188c-0.219,0-0.422,0.117-0.609,0.352s-0.281,0.539-0.281,0.914v3.188h-0.938v-5.25h0.938v0.703
		c0.156-0.25,0.344-0.445,0.563-0.586c0.218-0.141,0.453-0.211,0.703-0.211c0.25,0,0.461,0.07,0.633,0.211
		c0.171,0.141,0.289,0.336,0.352,0.586c0.156-0.25,0.335-0.445,0.539-0.586c0.203-0.141,0.429-0.211,0.68-0.211
		c0.375,0,0.656,0.102,0.844,0.305s0.281,0.492,0.281,0.867V73.371z"/>
</g>
<g>
	<path fill="#FFFFFF" d="M440.935,105.995c0,0.759-0.24,1.359-0.717,1.805c-0.479,0.444-1.13,0.667-1.953,0.667
		c-0.824,0-1.467-0.23-1.928-0.692c-0.462-0.461-0.692-1.038-0.692-1.73v-0.346h1.137v0.297c0,0.494,0.148,0.873,0.445,1.137
		c0.296,0.265,0.643,0.396,1.038,0.396c0.527,0,0.915-0.14,1.162-0.42c0.248-0.28,0.371-0.618,0.371-1.013
		c0-0.33-0.148-0.636-0.445-0.916c-0.297-0.279-0.726-0.535-1.286-0.766c-0.791-0.297-1.36-0.626-1.706-0.989
		c-0.346-0.362-0.52-0.791-0.52-1.285c0-0.692,0.239-1.253,0.717-1.682c0.477-0.428,1.046-0.643,1.706-0.643
		c0.857,0,1.475,0.256,1.854,0.767c0.378,0.512,0.569,1.063,0.569,1.656h-1.137c0.032-0.362-0.066-0.692-0.297-0.989
		c-0.231-0.296-0.561-0.444-0.989-0.444c-0.396,0-0.709,0.107-0.939,0.321c-0.231,0.215-0.346,0.503-0.346,0.865
		c0,0.297,0.09,0.553,0.272,0.767c0.181,0.214,0.65,0.47,1.409,0.766c0.725,0.297,1.286,0.651,1.681,1.063
		S440.935,105.468,440.935,105.995z"/>
	<path fill="#FFFFFF" d="M447.263,102.83l-2.274,5.983c-0.132,0.461-0.33,0.807-0.593,1.038c-0.264,0.229-0.593,0.346-0.989,0.346
		c-0.166,0-0.321-0.009-0.47-0.024c-0.148-0.018-0.289-0.059-0.42-0.124v-0.988c0.131,0.066,0.264,0.116,0.396,0.148
		c0.131,0.032,0.247,0.049,0.346,0.049c0.263,0,0.445-0.042,0.544-0.122c0.099-0.084,0.198-0.273,0.296-0.57l-2.175-5.735h1.088
		l1.582,4.352h0.049l1.533-4.352H447.263z"/>
	<path fill="#FFFFFF" d="M453.394,108.368h-0.989v-3.56c0-0.396-0.099-0.709-0.297-0.939s-0.462-0.347-0.791-0.347
		c-0.429,0-0.833,0.223-1.211,0.668c-0.379,0.445-0.568,0.997-0.568,1.656v2.521h-0.989v-5.538h0.989v1.039
		c0.263-0.362,0.551-0.643,0.865-0.841c0.313-0.198,0.717-0.297,1.211-0.297c0.593,0,1.038,0.166,1.334,0.495
		c0.297,0.329,0.445,0.741,0.445,1.235V108.368z"/>
	<path fill="#FFFFFF" d="M459.821,106.144c0,0.692-0.239,1.253-0.717,1.681c-0.478,0.429-1.08,0.643-1.805,0.643
		c-0.725,0-1.352-0.255-1.879-0.767c-0.527-0.511-0.791-1.211-0.791-2.101c0-0.891,0.264-1.589,0.791-2.102
		c0.527-0.511,1.154-0.767,1.879-0.767c0.725,0,1.302,0.19,1.73,0.568c0.428,0.38,0.643,0.833,0.643,1.36h-1.088
		c-0.033-0.396-0.173-0.668-0.42-0.815c-0.247-0.149-0.536-0.223-0.865-0.223c-0.396,0-0.758,0.156-1.087,0.47
		c-0.33,0.313-0.495,0.815-0.495,1.508c0,0.691,0.165,1.194,0.495,1.508c0.329,0.313,0.692,0.47,1.087,0.47
		c0.428,0,0.774-0.115,1.039-0.347c0.263-0.229,0.396-0.593,0.396-1.087H459.821z"/>
	<path fill="#FFFFFF" d="M466.249,105.995c0,0.759-0.24,1.359-0.717,1.805c-0.479,0.444-1.13,0.667-1.953,0.667
		c-0.824,0-1.467-0.23-1.928-0.692c-0.462-0.461-0.692-1.038-0.692-1.73v-0.346h1.137v0.297c0,0.494,0.148,0.873,0.445,1.137
		c0.296,0.265,0.643,0.396,1.038,0.396c0.527,0,0.915-0.14,1.162-0.42c0.248-0.28,0.371-0.618,0.371-1.013
		c0-0.33-0.148-0.636-0.445-0.916c-0.297-0.279-0.726-0.535-1.286-0.766c-0.791-0.297-1.36-0.626-1.706-0.989
		c-0.346-0.362-0.52-0.791-0.52-1.285c0-0.692,0.239-1.253,0.717-1.682c0.477-0.428,1.046-0.643,1.706-0.643
		c0.857,0,1.475,0.256,1.854,0.767c0.378,0.512,0.569,1.063,0.569,1.656h-1.137c0.032-0.362-0.066-0.692-0.297-0.989
		c-0.231-0.296-0.561-0.444-0.989-0.444c-0.396,0-0.709,0.107-0.939,0.321c-0.231,0.215-0.346,0.503-0.346,0.865
		c0,0.297,0.09,0.553,0.272,0.767c0.181,0.214,0.65,0.47,1.409,0.766c0.725,0.297,1.286,0.651,1.681,1.063
		S466.249,105.468,466.249,105.995z"/>
	<path fill="#FFFFFF" d="M472.478,106.489c-0.066,0.595-0.33,1.071-0.791,1.434c-0.462,0.363-1.006,0.544-1.631,0.544
		c-0.791,0-1.442-0.255-1.953-0.767c-0.511-0.511-0.766-1.211-0.766-2.101c0-0.891,0.255-1.589,0.766-2.102
		c0.511-0.511,1.162-0.767,1.953-0.767c0.692,0,1.261,0.223,1.706,0.668s0.667,1.179,0.667,2.2h-4.005
		c0,0.725,0.156,1.236,0.47,1.532c0.313,0.297,0.7,0.445,1.162,0.445c0.362,0,0.659-0.091,0.89-0.272
		c0.23-0.181,0.379-0.452,0.445-0.815H472.478z M471.292,104.809c-0.066-0.462-0.215-0.783-0.445-0.964
		c-0.231-0.182-0.528-0.272-0.89-0.272c-0.33,0-0.626,0.091-0.89,0.272c-0.265,0.181-0.462,0.502-0.594,0.964H471.292z"/>
	<path fill="#FFFFFF" d="M478.115,103.819c-0.626-0.099-1.154-0.008-1.583,0.272c-0.429,0.28-0.791,0.766-1.087,1.458v2.818h-0.989
		v-5.538h0.989v1.435c0.296-0.527,0.667-0.915,1.112-1.162s0.964-0.371,1.558-0.371V103.819z"/>
	<path fill="#FFFFFF" d="M485.185,102.83l-2.077,5.637h-1.088l-2.077-5.637h1.039l1.533,4.302h0.099l1.533-4.302H485.185z"/>
	<path fill="#FFFFFF" d="M491.464,106.489c-0.066,0.595-0.33,1.071-0.791,1.434c-0.462,0.363-1.006,0.544-1.631,0.544
		c-0.791,0-1.442-0.255-1.953-0.767c-0.511-0.511-0.766-1.211-0.766-2.101c0-0.891,0.255-1.589,0.766-2.102
		c0.511-0.511,1.162-0.767,1.953-0.767c0.692,0,1.261,0.223,1.706,0.668s0.667,1.179,0.667,2.2h-4.005
		c0,0.725,0.156,1.236,0.47,1.532c0.313,0.297,0.7,0.445,1.162,0.445c0.362,0,0.659-0.091,0.89-0.272
		c0.23-0.181,0.379-0.452,0.445-0.815H491.464z M490.277,104.809c-0.066-0.462-0.215-0.783-0.445-0.964
		c-0.231-0.182-0.528-0.272-0.89-0.272c-0.33,0-0.626,0.091-0.89,0.272c-0.265,0.181-0.462,0.502-0.594,0.964H490.277z"/>
	<path fill="#FFFFFF" d="M497.101,103.819c-0.626-0.099-1.154-0.008-1.583,0.272c-0.429,0.28-0.791,0.766-1.087,1.458v2.818h-0.989
		v-5.538h0.989v1.435c0.296-0.527,0.667-0.915,1.112-1.162s0.964-0.371,1.558-0.371V103.819z"/>
	<path fill="#FFFFFF" d="M510.549,105.995c0,0.759-0.24,1.359-0.717,1.805c-0.479,0.444-1.13,0.667-1.953,0.667
		c-0.824,0-1.467-0.23-1.928-0.692c-0.462-0.461-0.692-1.038-0.692-1.73v-0.346h1.137v0.297c0,0.494,0.148,0.873,0.445,1.137
		c0.296,0.265,0.643,0.396,1.038,0.396c0.527,0,0.915-0.14,1.162-0.42c0.248-0.28,0.371-0.618,0.371-1.013
		c0-0.33-0.148-0.636-0.445-0.916c-0.297-0.279-0.726-0.535-1.286-0.766c-0.791-0.297-1.36-0.626-1.706-0.989
		c-0.346-0.362-0.52-0.791-0.52-1.285c0-0.692,0.239-1.253,0.717-1.682c0.477-0.428,1.046-0.643,1.706-0.643
		c0.857,0,1.475,0.256,1.854,0.767c0.378,0.512,0.569,1.063,0.569,1.656h-1.137c0.032-0.362-0.066-0.692-0.297-0.989
		c-0.231-0.296-0.561-0.444-0.989-0.444c-0.396,0-0.709,0.107-0.939,0.321c-0.231,0.215-0.346,0.503-0.346,0.865
		c0,0.297,0.09,0.553,0.272,0.767c0.181,0.214,0.65,0.47,1.409,0.766c0.725,0.297,1.286,0.651,1.681,1.063
		S510.549,105.468,510.549,105.995z"/>
	<path fill="#FFFFFF" d="M511.735,108.121c0.033-0.494,0.264-0.939,0.692-1.335c0.428-0.396,0.972-1.014,1.631-1.854
		c0.659-0.84,1.088-1.491,1.286-1.953c0.198-0.461,0.272-0.856,0.222-1.186c-0.049-0.33-0.206-0.602-0.469-0.816
		c-0.265-0.214-0.569-0.305-0.915-0.272c-0.346,0.033-0.676,0.166-0.989,0.396c-0.313,0.231-0.552,0.577-0.717,1.039l-0.939-0.148
		c0.264-0.758,0.601-1.311,1.014-1.656c0.412-0.347,0.897-0.535,1.458-0.568c0.329-0.033,0.625-0.025,0.89,0.024
		c0.263,0.049,0.535,0.165,0.815,0.346c0.28,0.182,0.511,0.454,0.692,0.816c0.181,0.362,0.247,0.8,0.198,1.31
		c-0.049,0.512-0.305,1.121-0.767,1.83c-0.462,0.71-1.352,1.821-2.669,3.337h3.56v0.89h-4.994V108.121z"/>
	<path fill="#FFFFFF" d="M517.915,103.597c0.033-0.873,0.156-1.564,0.371-2.076c0.214-0.51,0.519-0.931,0.915-1.26
		c0.396-0.33,0.881-0.495,1.458-0.495c0.576,0,1.079,0.239,1.508,0.717c0.428,0.478,0.708,1.08,0.841,1.805
		c0.131,0.725,0.173,1.558,0.124,2.496c-0.049,0.939-0.215,1.706-0.495,2.301c-0.28,0.593-0.701,1.004-1.261,1.234
		c-0.561,0.231-1.121,0.206-1.681-0.074c-0.561-0.279-0.957-0.649-1.187-1.112c-0.231-0.461-0.396-0.947-0.494-1.458
		C517.915,105.163,517.882,104.471,517.915,103.597z M518.954,103.3c-0.099,0.907-0.066,1.715,0.099,2.423
		c0.165,0.709,0.437,1.212,0.816,1.508c0.378,0.297,0.766,0.355,1.162,0.174c0.396-0.182,0.684-0.544,0.865-1.088
		s0.272-1.138,0.272-1.78s-0.024-1.228-0.074-1.755c-0.05-0.527-0.198-1.005-0.445-1.434s-0.577-0.65-0.989-0.668
		c-0.413-0.016-0.775,0.19-1.088,0.618C519.258,101.727,519.052,102.395,518.954,103.3z"/>
	<path fill="#FFFFFF" d="M524.244,103.597c0.033-0.873,0.156-1.564,0.371-2.076c0.214-0.51,0.519-0.931,0.915-1.26
		c0.396-0.33,0.881-0.495,1.458-0.495c0.576,0,1.079,0.239,1.508,0.717c0.428,0.478,0.708,1.08,0.841,1.805
		c0.131,0.725,0.173,1.558,0.124,2.496c-0.049,0.939-0.215,1.706-0.495,2.301c-0.28,0.593-0.701,1.004-1.261,1.234
		c-0.561,0.231-1.121,0.206-1.681-0.074c-0.561-0.279-0.957-0.649-1.187-1.112c-0.231-0.461-0.396-0.947-0.494-1.458
		C524.244,105.163,524.21,104.471,524.244,103.597z M525.282,103.3c-0.099,0.907-0.066,1.715,0.099,2.423
		c0.165,0.709,0.437,1.212,0.816,1.508c0.378,0.297,0.766,0.355,1.162,0.174c0.396-0.182,0.684-0.544,0.865-1.088
		s0.272-1.138,0.272-1.78s-0.024-1.228-0.074-1.755c-0.05-0.527-0.198-1.005-0.445-1.434s-0.577-0.65-0.989-0.668
		c-0.413-0.016-0.775,0.19-1.088,0.618C525.586,101.727,525.381,102.395,525.282,103.3z"/>
</g>
<g>
	<path fill="#FFFFFF" d="M685.835,108.368H684.6l-2.72-6.131h-0.049v6.131h-1.137v-8.455h1.235l2.72,6.131h0.049v-6.131h1.137
		V108.368z"/>
	<path fill="#FFFFFF" d="M692.164,106.489c-0.066,0.595-0.329,1.071-0.791,1.434c-0.462,0.363-1.006,0.544-1.632,0.544
		c-0.791,0-1.441-0.255-1.953-0.767c-0.511-0.511-0.766-1.211-0.766-2.101c0-0.891,0.255-1.589,0.766-2.102
		c0.512-0.511,1.162-0.767,1.953-0.767c0.692,0,1.262,0.223,1.706,0.668s0.667,1.179,0.667,2.2h-4.004
		c0,0.725,0.156,1.236,0.469,1.532c0.313,0.297,0.701,0.445,1.162,0.445c0.363,0,0.659-0.091,0.891-0.272
		c0.23-0.181,0.379-0.452,0.445-0.815H692.164z M690.978,104.809c-0.066-0.462-0.215-0.783-0.445-0.964
		c-0.23-0.182-0.527-0.272-0.89-0.272c-0.329,0-0.626,0.091-0.89,0.272c-0.265,0.181-0.463,0.502-0.594,0.964H690.978z"/>
	<path fill="#FFFFFF" d="M698.295,108.22c-0.165,0.066-0.354,0.125-0.568,0.173c-0.215,0.05-0.503,0.074-0.865,0.074
		c-0.593,0-1.071-0.163-1.435-0.494c-0.362-0.329-0.543-0.791-0.543-1.385v-2.966h-1.682v-0.792h1.682v-1.928h0.988v1.928h2.027
		v0.792h-2.027v3.016c0,0.264,0.066,0.486,0.198,0.667c0.132,0.182,0.378,0.272,0.741,0.272s0.659-0.032,0.891-0.099
		c0.23-0.066,0.428-0.148,0.593-0.248V108.22z"/>
	<path fill="#FFFFFF" d="M705.267,102.83l-1.236,5.637h-0.939l-0.791-4.302h-0.099l-0.791,4.302h-0.939l-1.236-5.637h1.038
		l0.643,3.709h0.1l0.691-3.709h1.088l0.692,3.709h0.099l0.643-3.709H705.267z"/>
	<path fill="#FFFFFF" d="M711.298,105.6c0,0.857-0.264,1.55-0.791,2.077c-0.527,0.526-1.154,0.79-1.879,0.79
		s-1.352-0.264-1.879-0.79c-0.527-0.527-0.791-1.22-0.791-2.077s0.264-1.548,0.791-2.077c0.527-0.526,1.154-0.791,1.879-0.791
		s1.352,0.265,1.879,0.791C711.034,104.052,711.298,104.742,711.298,105.6z M710.21,105.6c0-0.659-0.164-1.153-0.494-1.483
		c-0.33-0.329-0.691-0.494-1.088-0.494c-0.395,0-0.758,0.165-1.087,0.494c-0.33,0.33-0.495,0.824-0.495,1.483
		s0.165,1.154,0.495,1.484c0.329,0.328,0.692,0.493,1.087,0.493c0.396,0,0.758-0.165,1.088-0.493
		C710.046,106.754,710.21,106.259,710.21,105.6z"/>
	<path fill="#FFFFFF" d="M716.786,103.819c-0.627-0.099-1.154-0.008-1.582,0.272c-0.43,0.28-0.791,0.766-1.088,1.458v2.818h-0.988
		v-5.538h0.988v1.435c0.297-0.527,0.668-0.915,1.112-1.162s0.964-0.371,1.558-0.371V103.819z"/>
	<path fill="#FFFFFF" d="M723.955,108.368h-1.138l-1.779-3.016l-1.137,1.087v1.929h-0.989v-8.455h0.989v5.391l2.472-2.474h1.235
		l-1.928,1.879L723.955,108.368z"/>
	<path fill="#FFFFFF" d="M730.136,100.853h-1.979v7.516h-1.137v-7.516h-1.978v-0.939h5.093V100.853z"/>
	<path fill="#FFFFFF" d="M734.388,101.248h-0.989v-1.285h0.989V101.248z M734.388,108.368h-0.989v-5.538h0.989V108.368z"/>
	<path fill="#FFFFFF" d="M743.188,108.368h-0.989v-4.005c0-0.198-0.033-0.361-0.099-0.494c-0.066-0.132-0.197-0.198-0.396-0.198
		c-0.231,0-0.445,0.124-0.644,0.372c-0.197,0.246-0.296,0.567-0.296,0.963v3.362h-0.989v-4.005c0-0.198-0.033-0.361-0.099-0.494
		c-0.066-0.132-0.198-0.198-0.396-0.198c-0.23,0-0.445,0.124-0.643,0.372c-0.197,0.246-0.297,0.567-0.297,0.963v3.362h-0.988v-5.538
		h0.988v0.742c0.164-0.264,0.362-0.47,0.594-0.618c0.23-0.148,0.477-0.223,0.741-0.223c0.264,0,0.485,0.074,0.667,0.223
		s0.305,0.354,0.371,0.618c0.164-0.264,0.354-0.47,0.568-0.618s0.453-0.223,0.717-0.223c0.396,0,0.693,0.107,0.891,0.322
		c0.197,0.214,0.297,0.519,0.297,0.914V108.368z"/>
	<path fill="#FFFFFF" d="M749.121,106.489c-0.066,0.595-0.329,1.071-0.791,1.434c-0.462,0.363-1.006,0.544-1.632,0.544
		c-0.791,0-1.441-0.255-1.953-0.767c-0.511-0.511-0.766-1.211-0.766-2.101c0-0.891,0.255-1.589,0.766-2.102
		c0.512-0.511,1.162-0.767,1.953-0.767c0.692,0,1.262,0.223,1.706,0.668s0.667,1.179,0.667,2.2h-4.004
		c0,0.725,0.156,1.236,0.469,1.532c0.313,0.297,0.701,0.445,1.162,0.445c0.363,0,0.659-0.091,0.891-0.272
		c0.23-0.181,0.379-0.452,0.445-0.815H749.121z M747.935,104.809c-0.066-0.462-0.215-0.783-0.445-0.964
		c-0.23-0.182-0.527-0.272-0.89-0.272c-0.329,0-0.626,0.091-0.89,0.272c-0.265,0.181-0.463,0.502-0.594,0.964H747.935z"/>
	<path fill="#FFFFFF" d="M755.549,105.995c0,0.759-0.239,1.359-0.717,1.805c-0.479,0.444-1.13,0.667-1.953,0.667
		c-0.824,0-1.468-0.23-1.929-0.692c-0.461-0.461-0.691-1.038-0.691-1.73v-0.346h1.137v0.297c0,0.494,0.148,0.873,0.445,1.137
		c0.297,0.265,0.643,0.396,1.038,0.396c0.526,0,0.915-0.14,1.161-0.42c0.248-0.28,0.371-0.618,0.371-1.013
		c0-0.33-0.148-0.636-0.444-0.916c-0.297-0.279-0.726-0.535-1.286-0.766c-0.791-0.297-1.359-0.626-1.705-0.989
		c-0.346-0.362-0.52-0.791-0.52-1.285c0-0.692,0.238-1.253,0.717-1.682c0.478-0.428,1.047-0.643,1.706-0.643
		c0.856,0,1.475,0.256,1.854,0.767c0.378,0.512,0.568,1.063,0.568,1.656h-1.137c0.031-0.362-0.066-0.692-0.297-0.989
		c-0.231-0.296-0.562-0.444-0.989-0.444c-0.396,0-0.709,0.107-0.939,0.321c-0.231,0.215-0.347,0.503-0.347,0.865
		c0,0.297,0.091,0.553,0.272,0.767c0.181,0.214,0.65,0.47,1.409,0.766c0.725,0.297,1.285,0.651,1.682,1.063
		C755.351,104.998,755.549,105.468,755.549,105.995z"/>
	<path fill="#FFFFFF" d="M761.778,106.489c-0.066,0.595-0.33,1.071-0.791,1.434c-0.463,0.363-1.006,0.544-1.632,0.544
		c-0.791,0-1.442-0.255-1.953-0.767c-0.511-0.511-0.767-1.211-0.767-2.101c0-0.891,0.256-1.589,0.767-2.102
		c0.511-0.511,1.162-0.767,1.953-0.767c0.692,0,1.261,0.223,1.706,0.668c0.444,0.445,0.667,1.179,0.667,2.2h-4.005
		c0,0.725,0.156,1.236,0.47,1.532c0.313,0.297,0.7,0.445,1.162,0.445c0.362,0,0.659-0.091,0.89-0.272
		c0.23-0.181,0.379-0.452,0.445-0.815H761.778z M760.591,104.809c-0.066-0.462-0.215-0.783-0.444-0.964
		c-0.231-0.182-0.528-0.272-0.89-0.272c-0.33,0-0.627,0.091-0.891,0.272c-0.264,0.181-0.462,0.502-0.594,0.964H760.591z"/>
	<path fill="#FFFFFF" d="M767.415,103.819c-0.627-0.099-1.154-0.008-1.583,0.272s-0.791,0.766-1.087,1.458v2.818h-0.989v-5.538
		h0.989v1.435c0.296-0.527,0.667-0.915,1.111-1.162c0.445-0.247,0.965-0.371,1.559-0.371V103.819z"/>
	<path fill="#FFFFFF" d="M774.485,102.83l-2.077,5.637h-1.088l-2.077-5.637h1.039l1.533,4.302h0.098l1.533-4.302H774.485z"/>
	<path fill="#FFFFFF" d="M780.764,106.489c-0.066,0.595-0.329,1.071-0.791,1.434c-0.462,0.363-1.006,0.544-1.632,0.544
		c-0.791,0-1.441-0.255-1.953-0.767c-0.511-0.511-0.766-1.211-0.766-2.101c0-0.891,0.255-1.589,0.766-2.102
		c0.512-0.511,1.162-0.767,1.953-0.767c0.692,0,1.262,0.223,1.706,0.668s0.667,1.179,0.667,2.2h-4.004
		c0,0.725,0.156,1.236,0.469,1.532c0.313,0.297,0.701,0.445,1.162,0.445c0.363,0,0.659-0.091,0.891-0.272
		c0.23-0.181,0.379-0.452,0.445-0.815H780.764z M779.577,104.809c-0.066-0.462-0.215-0.783-0.445-0.964
		c-0.23-0.182-0.527-0.272-0.89-0.272c-0.329,0-0.626,0.091-0.89,0.272c-0.265,0.181-0.463,0.502-0.594,0.964H779.577z"/>
	<path fill="#FFFFFF" d="M786.4,103.819c-0.626-0.099-1.154-0.008-1.583,0.272c-0.428,0.28-0.791,0.766-1.087,1.458v2.818h-0.989
		v-5.538h0.989v1.435c0.296-0.527,0.667-0.915,1.112-1.162s0.965-0.371,1.558-0.371V103.819z"/>
</g>
<g>
	<path fill="#E3E2E2" d="M622.606,56.132h-2.255l-3.383-6.953h-2.443v6.953h-2.161V40.065h4.698c1.503,0,2.725,0.361,3.665,1.08
		c0.94,0.721,1.41,1.895,1.41,3.523c0,1.254-0.314,2.225-0.939,2.912c-0.627,0.691-1.348,1.129-2.161,1.316L622.606,56.132z
		 M619.976,44.669c0-0.876-0.267-1.564-0.799-2.066c-0.533-0.502-1.395-0.752-2.584-0.752h-2.067v5.543h2.631
		c0.751,0,1.409-0.203,1.973-0.611C619.694,46.377,619.976,45.671,619.976,44.669z"/>
	<path fill="#E3E2E2" d="M634.258,56.132h-9.584V40.065h9.114v1.785h-6.953v4.979h6.39v1.787h-6.39v5.73h7.423V56.132z"/>
	<path fill="#E3E2E2" d="M646.379,41.851h-7.705v5.262h5.826v1.785h-5.826v7.234h-2.161V40.065h9.866V41.851z"/>
	<path fill="#E3E2E2" d="M654.271,47.487h-2.161v-2.066h2.161V47.487z M654.271,56.132h-2.161v-2.066h2.161V56.132z"/>
	<path fill="#E3E2E2" d="M670.151,56.319h-1.598l-0.281-1.314c-0.252,0.375-0.644,0.689-1.176,0.939
		c-0.532,0.252-1.112,0.375-1.738,0.375c-1.314,0-2.489-0.609-3.523-1.832c-1.033-1.221-1.55-3.178-1.55-5.871
		c0-2.945,0.47-5.137,1.409-6.578c0.939-1.439,2.223-2.161,3.853-2.161c1.44,0,2.567,0.532,3.383,1.597
		c0.813,1.066,1.222,2.444,1.222,4.135h-2.067c0-1.314-0.22-2.303-0.657-2.959c-0.439-0.658-1.066-0.986-1.88-0.986
		c-1.003,0-1.755,0.516-2.255,1.549c-0.502,1.033-0.752,2.773-0.752,5.215c0,2.318,0.313,3.916,0.939,4.793
		c0.626,0.877,1.347,1.314,2.162,1.314c0.813,0,1.455-0.295,1.926-0.893c0.47-0.594,0.705-1.518,0.705-2.771v-1.033h-2.914v-1.785
		h4.793V56.319z"/>
	<path fill="#E3E2E2" d="M682.554,44.95c0,1.504-0.438,2.695-1.314,3.57c-0.879,0.879-2.1,1.316-3.665,1.316h-2.725v6.295h-2.161
		V40.065h4.886c1.565,0,2.786,0.438,3.665,1.314C682.115,42.259,682.554,43.448,682.554,44.95z M680.394,44.95
		c0-1.189-0.282-2.004-0.846-2.443c-0.564-0.438-1.41-0.656-2.537-0.656h-2.161v6.201h2.161c1.127,0,1.973-0.218,2.537-0.658
		C680.111,46.956,680.394,46.142,680.394,44.95z"/>
	<path fill="#E3E2E2" d="M694.394,51.622c0,1.441-0.455,2.584-1.363,3.43s-2.146,1.268-3.711,1.268
		c-1.566,0-2.788-0.438-3.664-1.314c-0.879-0.877-1.316-1.973-1.316-3.289v-0.658h2.162v0.564c0,0.939,0.281,1.66,0.846,2.16
		c0.563,0.504,1.221,0.752,1.973,0.752c1.002,0,1.738-0.266,2.208-0.799c0.47-0.531,0.704-1.174,0.704-1.926
		c0-0.625-0.281-1.205-0.846-1.738c-0.563-0.531-1.378-1.018-2.442-1.455c-1.503-0.564-2.584-1.189-3.241-1.881
		c-0.658-0.688-0.986-1.502-0.986-2.441c0-1.316,0.453-2.381,1.361-3.195s1.988-1.222,3.242-1.222c1.628,0,2.803,0.485,3.523,1.457
		c0.719,0.972,1.08,2.019,1.08,3.147h-2.16c0.061-0.688-0.127-1.316-0.564-1.879c-0.438-0.564-1.065-0.846-1.879-0.846
		c-0.752,0-1.348,0.203-1.785,0.609c-0.439,0.408-0.658,0.957-0.658,1.645c0,0.564,0.172,1.051,0.518,1.457
		c0.344,0.409,1.236,0.893,2.678,1.457c1.377,0.563,2.443,1.236,3.194,2.02C694.018,49.728,694.394,50.62,694.394,51.622z"/>
	<path fill="#E3E2E2" d="M708.206,51.435c0-0.752,0.188-1.488,0.563-2.209c0.376-0.719,1.001-1.299,1.879-1.738
		c-0.751-0.438-1.253-0.924-1.503-1.455c-0.252-0.533-0.393-1.143-0.424-1.834c-0.031-0.688,0.063-1.283,0.283-1.785
		c0.219-0.5,0.547-0.969,0.986-1.408c0.438-0.438,0.924-0.736,1.456-0.893c0.531-0.156,1.111-0.235,1.738-0.235
		c0.626,0,1.189,0.063,1.691,0.188c0.501,0.125,1.034,0.391,1.597,0.799c0.564,0.408,0.971,0.986,1.223,1.738
		c0.249,0.75,0.234,1.629-0.047,2.631c-0.283,1.002-1.02,1.785-2.209,2.348c1.064,0.314,1.816,0.799,2.256,1.457
		c0.438,0.658,0.657,1.457,0.657,2.396s-0.142,1.692-0.423,2.254c-0.281,0.564-0.596,1.035-0.939,1.41
		c-0.346,0.375-0.814,0.674-1.41,0.893c-0.596,0.221-1.348,0.328-2.254,0.328c-0.91,0-1.691-0.107-2.35-0.328
		c-0.658-0.219-1.207-0.547-1.645-0.986c-0.439-0.438-0.736-0.955-0.893-1.551C708.283,52.86,708.206,52.187,708.206,51.435z
		 M710.132,51.341c-0.032,0.752,0.094,1.408,0.376,1.973s0.798,0.926,1.55,1.08c0.752,0.158,1.535,0.141,2.35-0.047
		c0.813-0.188,1.377-0.625,1.691-1.314c0.313-0.689,0.422-1.377,0.328-2.068c-0.094-0.688-0.485-1.268-1.174-1.738
		c-0.69-0.469-1.441-0.672-2.256-0.609s-1.488,0.344-2.02,0.846C710.444,49.964,710.163,50.589,710.132,51.341z M710.46,44.011
		c0,0.627,0.219,1.223,0.658,1.785c0.438,0.564,1.128,0.846,2.067,0.846s1.645-0.281,2.114-0.846c0.47-0.563,0.688-1.236,0.658-2.02
		c-0.033-0.783-0.314-1.363-0.846-1.738c-0.533-0.375-1.254-0.531-2.162-0.471c-0.908,0.064-1.55,0.33-1.926,0.799
		C710.648,42.837,710.46,43.386,710.46,44.011z"/>
	<path fill="#E3E2E2" d="M742.501,51.622c0,1.441-0.455,2.584-1.361,3.43c-0.909,0.846-2.146,1.268-3.712,1.268
		c-1.566,0-2.788-0.438-3.665-1.314s-1.314-1.973-1.314-3.289v-0.658h2.16v0.564c0,0.939,0.282,1.66,0.846,2.16
		c0.564,0.504,1.222,0.752,1.974,0.752c1.001,0,1.738-0.266,2.208-0.799c0.47-0.531,0.705-1.174,0.705-1.926
		c0-0.625-0.282-1.205-0.846-1.738c-0.564-0.531-1.379-1.018-2.443-1.455c-1.504-0.564-2.584-1.189-3.242-1.881
		c-0.657-0.688-0.986-1.502-0.986-2.441c0-1.316,0.454-2.381,1.363-3.195c0.906-0.814,1.987-1.222,3.241-1.222
		c1.628,0,2.803,0.485,3.523,1.457c0.72,0.972,1.081,2.019,1.081,3.147h-2.162c0.063-0.688-0.125-1.316-0.563-1.879
		c-0.439-0.564-1.066-0.846-1.88-0.846c-0.752,0-1.348,0.203-1.785,0.609c-0.438,0.408-0.657,0.957-0.657,1.645
		c0,0.564,0.171,1.051,0.516,1.457c0.344,0.409,1.236,0.893,2.678,1.457c1.378,0.563,2.443,1.236,3.195,2.02
		S742.501,50.62,742.501,51.622z"/>
	<path fill="#E3E2E2" d="M754.435,56.132h-2.256c-0.125-0.125-0.22-0.296-0.281-0.516c-0.063-0.219-0.094-0.484-0.094-0.799
		c-0.439,0.502-0.973,0.877-1.598,1.127c-0.627,0.252-1.285,0.375-1.973,0.375c-1.003,0-1.849-0.248-2.537-0.75
		c-0.69-0.502-1.033-1.223-1.033-2.162s0.313-1.691,0.939-2.256c0.625-0.563,1.597-0.939,2.912-1.127
		c0.877-0.125,1.645-0.281,2.303-0.469c0.657-0.189,0.986-0.438,0.986-0.752c0-0.377-0.141-0.752-0.423-1.129
		c-0.282-0.375-0.893-0.563-1.833-0.563c-0.751,0-1.301,0.141-1.644,0.422c-0.345,0.283-0.58,0.675-0.705,1.176h-2.067
		c0.125-1.001,0.579-1.801,1.363-2.396c0.782-0.596,1.8-0.893,3.053-0.893c1.378,0,2.411,0.314,3.102,0.939
		c0.688,0.627,1.033,1.504,1.033,2.631v5.168c0,0.375,0.063,0.721,0.188,1.033C753.995,55.507,754.184,55.819,754.435,56.132z
		 M751.804,52.655v-1.879c-0.376,0.127-0.737,0.234-1.08,0.328c-0.346,0.096-0.926,0.205-1.738,0.33
		c-0.94,0.125-1.551,0.344-1.833,0.658c-0.282,0.313-0.423,0.689-0.423,1.127c0,0.375,0.141,0.705,0.423,0.986
		s0.705,0.422,1.269,0.422c0.564,0,1.175-0.154,1.832-0.469C750.911,53.847,751.428,53.345,751.804,52.655z"/>
	<path fill="#E3E2E2" d="M765.992,55.851c-0.314,0.127-0.674,0.235-1.081,0.328c-0.408,0.094-0.955,0.141-1.645,0.141
		c-1.127,0-2.035-0.313-2.725-0.939c-0.689-0.625-1.033-1.502-1.033-2.631v-5.637h-3.195v-1.504h3.195v-3.664h1.879v3.664h3.853
		v1.504h-3.853v5.73c0,0.502,0.125,0.926,0.376,1.27c0.249,0.347,0.72,0.516,1.409,0.516s1.252-0.061,1.691-0.188
		c0.438-0.125,0.813-0.281,1.128-0.469V55.851z"/>
	<path fill="#E3E2E2" d="M778.396,52.562c-0.127,1.127-0.627,2.037-1.504,2.725c-0.878,0.691-1.911,1.033-3.101,1.033
		c-1.503,0-2.741-0.483-3.712-1.455c-0.971-0.971-1.456-2.303-1.456-3.994s0.485-3.021,1.456-3.992s2.209-1.457,3.712-1.457
		c1.315,0,2.396,0.422,3.241,1.268s1.27,2.24,1.27,4.182h-7.611c0,1.379,0.297,2.35,0.893,2.912c0.595,0.564,1.33,0.846,2.208,0.846
		c0.688,0,1.253-0.169,1.691-0.516c0.438-0.344,0.72-0.86,0.846-1.551H778.396z M776.14,49.366
		c-0.126-0.875-0.408-1.486-0.846-1.832c-0.438-0.344-1.002-0.516-1.691-0.516c-0.627,0-1.189,0.172-1.69,0.516
		c-0.503,0.346-0.878,0.957-1.128,1.832H776.14z"/>
</g>
<g>
	<path fill="#E3E2E2" d="M622.042,85.198h-2.349l-5.168-11.65h-0.094v11.65h-2.161V69.132h2.349l5.168,11.65h0.094v-11.65h2.161
		V85.198z"/>
	<path fill="#E3E2E2" d="M634.07,70.918h-3.758v14.28h-2.161v-14.28h-3.758v-1.786h9.678V70.918z"/>
	<path fill="#E3E2E2" d="M646.473,74.017c0,1.504-0.439,2.695-1.315,3.57c-0.878,0.879-2.1,1.316-3.665,1.316h-2.724v6.295h-2.161
		V69.132h4.885c1.565,0,2.787,0.438,3.665,1.314C646.033,71.325,646.473,72.515,646.473,74.017z M644.312,74.017
		c0-1.189-0.282-2.004-0.846-2.443c-0.563-0.438-1.409-0.655-2.536-0.655h-2.162v6.2h2.162c1.127,0,1.973-0.219,2.536-0.658
		C644.029,76.022,644.312,75.209,644.312,74.017z"/>
	<path fill="#E3E2E2" d="M670.339,80.688c0,1.441-0.455,2.584-1.362,3.43c-0.909,0.846-2.146,1.268-3.712,1.268
		c-1.566,0-2.787-0.438-3.664-1.314c-0.878-0.877-1.315-1.973-1.315-3.289v-0.658h2.161v0.564c0,0.939,0.281,1.66,0.846,2.16
		c0.563,0.504,1.221,0.752,1.973,0.752c1.002,0,1.738-0.265,2.209-0.799c0.469-0.531,0.704-1.174,0.704-1.925
		c0-0.625-0.282-1.206-0.846-1.739c-0.563-0.531-1.378-1.018-2.442-1.455c-1.504-0.564-2.584-1.189-3.242-1.881
		c-0.658-0.688-0.986-1.502-0.986-2.441c0-1.316,0.453-2.381,1.362-3.195c0.907-0.814,1.987-1.223,3.241-1.223
		c1.629,0,2.803,0.486,3.523,1.457c0.72,0.973,1.081,2.02,1.081,3.148h-2.161c0.062-0.689-0.126-1.316-0.563-1.879
		c-0.438-0.564-1.065-0.846-1.88-0.846c-0.752,0-1.348,0.203-1.785,0.609c-0.438,0.408-0.657,0.957-0.657,1.645
		c0,0.564,0.171,1.051,0.517,1.457c0.344,0.408,1.236,0.893,2.678,1.457c1.377,0.563,2.443,1.236,3.195,2.02
		S670.339,79.687,670.339,80.688z"/>
	<path fill="#E3E2E2" d="M681.803,84.918c-0.314,0.126-0.674,0.233-1.081,0.327c-0.408,0.094-0.955,0.141-1.645,0.141
		c-1.127,0-2.035-0.313-2.725-0.939c-0.689-0.625-1.033-1.502-1.033-2.631v-5.637h-3.195v-1.504h3.195v-3.664h1.879v3.664h3.853
		v1.504h-3.853v5.73c0,0.502,0.125,0.927,0.376,1.27c0.249,0.346,0.72,0.516,1.409,0.516s1.252-0.061,1.691-0.188
		c0.438-0.125,0.813-0.281,1.128-0.469V84.918z"/>
	<path fill="#E3E2E2" d="M692.89,76.554c-1.19-0.188-2.193-0.014-3.007,0.518c-0.814,0.533-1.503,1.457-2.067,2.771v5.355h-1.879
		V74.675h1.879v2.725c0.564-1,1.27-1.738,2.115-2.207c0.846-0.471,1.832-0.705,2.959-0.705V76.554z"/>
	<path fill="#E3E2E2" d="M706.326,85.198h-2.255c-0.127-0.125-0.221-0.297-0.282-0.516c-0.063-0.219-0.094-0.484-0.094-0.799
		c-0.438,0.502-0.972,0.877-1.598,1.127c-0.627,0.252-1.284,0.375-1.974,0.375c-1.002,0-1.848-0.248-2.536-0.75
		c-0.69-0.502-1.034-1.223-1.034-2.162s0.313-1.691,0.939-2.256c0.626-0.563,1.598-0.939,2.914-1.127
		c0.876-0.125,1.644-0.281,2.301-0.469c0.658-0.189,0.987-0.438,0.987-0.752c0-0.377-0.142-0.752-0.423-1.129
		c-0.282-0.375-0.893-0.563-1.832-0.563c-0.752,0-1.301,0.141-1.645,0.422c-0.346,0.283-0.58,0.674-0.705,1.176h-2.066
		c0.125-1.002,0.578-1.801,1.361-2.396s1.801-0.893,3.055-0.893c1.377,0,2.41,0.314,3.101,0.939
		c0.688,0.627,1.033,1.504,1.033,2.631v5.168c0,0.375,0.062,0.721,0.188,1.033C705.888,84.573,706.075,84.886,706.326,85.198z
		 M703.695,81.722v-1.879c-0.376,0.127-0.737,0.234-1.081,0.328c-0.345,0.096-0.925,0.206-1.738,0.331
		c-0.939,0.125-1.55,0.343-1.832,0.657c-0.281,0.313-0.423,0.689-0.423,1.127c0,0.375,0.142,0.705,0.423,0.986
		c0.282,0.281,0.705,0.422,1.269,0.422s1.175-0.154,1.833-0.469C702.803,82.913,703.319,82.411,703.695,81.722z"/>
	<path fill="#E3E2E2" d="M717.884,84.918c-0.314,0.126-0.674,0.233-1.08,0.327c-0.408,0.094-0.957,0.141-1.645,0.141
		c-1.128,0-2.037-0.313-2.725-0.939c-0.691-0.625-1.034-1.502-1.034-2.631v-5.637h-3.194v-1.504h3.194v-3.664h1.879v3.664h3.853
		v1.504h-3.853v5.73c0,0.502,0.125,0.927,0.376,1.27c0.25,0.346,0.72,0.516,1.41,0.516c0.688,0,1.252-0.061,1.69-0.188
		c0.438-0.125,0.813-0.281,1.128-0.469V84.918z"/>
	<path fill="#E3E2E2" d="M730.099,85.198h-1.879v-1.973c-0.502,0.689-1.05,1.221-1.645,1.598c-0.596,0.375-1.362,0.563-2.302,0.563
		c-1.128,0-1.974-0.313-2.537-0.939c-0.563-0.625-0.846-1.408-0.846-2.348v-7.424h1.88v6.766c0,0.752,0.188,1.348,0.563,1.785
		c0.377,0.439,0.877,0.658,1.504,0.658c0.813,0,1.582-0.424,2.303-1.27c0.719-0.846,1.08-1.893,1.08-3.146v-4.793h1.879V85.198z"/>
	<path fill="#E3E2E2" d="M743.065,85.198h-1.879v-7.611c0-0.375-0.063-0.688-0.188-0.939c-0.126-0.248-0.376-0.375-0.751-0.375
		c-0.439,0-0.846,0.234-1.223,0.705c-0.375,0.469-0.563,1.08-0.563,1.832v6.389h-1.88v-7.611c0-0.375-0.063-0.688-0.188-0.939
		c-0.125-0.248-0.375-0.375-0.751-0.375c-0.438,0-0.846,0.234-1.222,0.705c-0.376,0.469-0.564,1.08-0.564,1.832v6.389h-1.879V74.675
		h1.879v1.411c0.313-0.502,0.689-0.894,1.129-1.177c0.438-0.281,0.906-0.422,1.408-0.422c0.501,0,0.924,0.141,1.27,0.422
		c0.344,0.283,0.578,0.675,0.704,1.177c0.313-0.502,0.673-0.894,1.081-1.177c0.406-0.281,0.859-0.422,1.361-0.422
		c0.752,0,1.316,0.203,1.691,0.611c0.377,0.408,0.564,0.987,0.564,1.738V85.198z"/>
	<path fill="#E3E2E2" d="M760.918,72.138c-0.814,0.814-1.849,1.598-3.101,2.35v-1.785c1.564-1.064,2.85-2.316,3.853-3.76h1.128
		v16.162h-1.88V72.138z"/>
</g>
<g>
	<path fill="#1B1C1C" d="M912.941,45.927c0,6.236-5.057,11.293-11.293,11.293l0,0c-6.236,0-11.293-5.057-11.293-11.293V33.738
		c0-6.236,5.057-11.292,11.293-11.292l0,0c6.236,0,11.293,5.056,11.293,11.292V45.927z"/>
	<path fill="#1B1C1C" d="M912.941,92.798c0,6.236-5.057,11.292-11.293,11.292l0,0c-6.236,0-11.293-5.056-11.293-11.292V80.61
		c0-6.236,5.057-11.293,11.293-11.293l0,0c6.236,0,11.293,5.057,11.293,11.293V92.798z"/>
	<path fill="#1B1C1C" d="M921.006,74.604c-6.236,0-11.291-5.057-11.291-11.293l0,0c0-6.236,5.055-11.291,11.291-11.291h12.188
		c6.236,0,11.293,5.055,11.293,11.291l0,0c0,6.236-5.057,11.293-11.293,11.293H921.006z"/>
	<path fill="#1B1C1C" d="M870.258,74.604c-6.236,0-11.291-5.057-11.291-11.293l0,0c0-6.236,5.055-11.291,11.291-11.291h12.188
		c6.236,0,11.293,5.055,11.293,11.291l0,0c0,6.236-5.057,11.293-11.293,11.293H870.258z"/>
	<polygon fill="#FFFFFF" points="897.094,37.188 901.648,29.301 906.203,37.188 	"/>
	<polygon fill="#FFFFFF" points="897.094,88.048 901.648,95.935 906.203,88.048 	"/>
	<polygon fill="#FFFFFF" points="872.729,58.759 864.84,63.312 872.729,67.866 	"/>
	<polygon fill="#FFFFFF" points="931.043,67.866 938.932,63.312 931.043,58.759 	"/>
</g>
<circle fill="#1B1C1C" stroke="#070404" stroke-miterlimit="10" cx="983.73" cy="33.244" r="12"/>
<text transform="matrix(1 0 0 1 981.1465 36.9951)" fill="#FFFFFF" font-family="'SimHei'" font-size="12">1</text>
<circle fill="#1B1C1C" stroke="#070404" stroke-miterlimit="10" cx="983.73" cy="61.132" r="12"/>
<text transform="matrix(1 0 0 1 981.1465 64.8828)" fill="#FFFFFF" font-family="'SimHei'" font-size="12">4</text>
<circle fill="#1B1C1C" stroke="#070404" stroke-miterlimit="10" cx="983.73" cy="89.02" r="12"/>
<text transform="matrix(1 0 0 1 981.1465 92.7705)" fill="#FFFFFF" font-family="'SimHei'" font-size="12">7</text>
<circle fill="#1B1C1C" stroke="#070404" stroke-miterlimit="10" cx="1017.73" cy="33.244" r="12"/>
<text transform="matrix(1 0 0 1 1015.1465 36.9951)" fill="#FFFFFF" font-family="'SimHei'" font-size="12">2</text>
<circle fill="#1B1C1C" stroke="#070404" stroke-miterlimit="10" cx="1017.73" cy="61.132" r="12"/>
<text transform="matrix(1 0 0 1 1015.1465 64.8828)" fill="#FFFFFF" font-family="'SimHei'" font-size="12">5</text>
<text transform="matrix(1 0 0 1 116.6973 50.1416)" fill="#FFFFFF" font-family="'SimHei'" font-size="12">Console</text>
<text transform="matrix(1 0 0 1 219.1973 50.1416)" fill="#FFFFFF" font-family="'SimHei'" font-size="12">Sync</text>
<text transform="matrix(1 0 0 1 219.1973 67.1416)" fill="#FFFFFF" font-family="'SimHei'" font-size="12">Network</text>
<text transform="matrix(1 0 0 1 219.1973 82.5723)" fill="#FFFFFF" font-family="'SimHei'" font-size="12">NTP</text>
<text transform="matrix(1 0 0 1 219.1973 97.5166)" fill="#FFFFFF" font-family="'SimHei'" font-size="12">AIarm</text>
<text transform="matrix(1 0 0 1 119.3643 64.8076)" fill="#FFFFFF" font-family="'SimHei'" font-size="12">RS-232</text>
<circle fill="#1B1C1C" stroke="#070404" stroke-miterlimit="10" cx="1017.73" cy="89.02" r="12"/>
<text transform="matrix(1 0 0 1 1015.1465 92.7705)" fill="#FFFFFF" font-family="'SimHei'" font-size="12">8</text>
<circle fill="#1B1C1C" stroke="#070404" stroke-miterlimit="10" cx="1051.73" cy="33.244" r="12"/>
<text transform="matrix(1 0 0 1 1049.1465 36.9951)" fill="#FFFFFF" font-family="'SimHei'" font-size="12">3</text>
<circle fill="#1B1C1C" stroke="#070404" stroke-miterlimit="10" cx="1051.73" cy="61.132" r="12"/>
<text transform="matrix(1 0 0 1 1049.1465 64.8828)" fill="#FFFFFF" font-family="'SimHei'" font-size="12">6</text>
<circle fill="#1B1C1C" stroke="#070404" stroke-miterlimit="10" cx="1086.617" cy="61.132" r="12"/>
<text transform="matrix(1 0 0 1 1084.0342 64.8828)" fill="#FFFFFF" font-family="'SimHei'" font-size="12">0</text>
<circle fill="#1B1C1C" stroke="#070404" stroke-miterlimit="10" cx="1051.73" cy="89.02" r="12"/>
<text transform="matrix(1 0 0 1 1049.1465 92.7705)" fill="#FFFFFF" font-family="'SimHei'" font-size="12">9</text>
<path fill="#131414" stroke="#050101" stroke-miterlimit="10" d="M1127.123,33.244c0,6.333-5.133,11.466-11.465,11.466h-29.236
	c-6.332,0-11.465-5.133-11.465-11.466l0,0c0-6.332,5.133-11.465,11.465-11.465h29.236
	C1121.99,21.779,1127.123,26.912,1127.123,33.244L1127.123,33.244z"/>
<text transform="matrix(1.2481 0 0 1 1086.6172 36.3857)" fill="#FFFFFF" font-family="'SimHei'" font-size="9.2428">ENTER</text>
<path fill="#131414" stroke="#050101" stroke-miterlimit="10" d="M1127.123,89.02c0,6.333-5.133,11.466-11.465,11.466h-29.236
	c-6.332,0-11.465-5.133-11.465-11.466l0,0c0-6.332,5.133-11.465,11.465-11.465h29.236
	C1121.99,77.555,1127.123,82.688,1127.123,89.02L1127.123,89.02z"/>
<text transform="matrix(1.2481 0 0 1 1092.9922 92.1611)" fill="#FFFFFF" font-family="'SimHei'" font-size="9.2428">CLA</text>
<path fill="#131414" stroke="#050101" stroke-miterlimit="10" d="M1214.842,33.244c0,6.333-5.133,11.466-11.465,11.466h-29.236
	c-6.332,0-11.465-5.133-11.465-11.466l0,0c0-6.332,5.133-11.465,11.465-11.465h29.236
	C1209.709,21.779,1214.842,26.912,1214.842,33.244L1214.842,33.244z"/>
<text transform="matrix(1.2481 0 0 1 1176.6689 36.3857)" fill="#FFFFFF" font-family="'SimHei'" font-size="9.2428">TIME</text>
<path fill="#131414" stroke="#050101" stroke-miterlimit="10" d="M1214.842,61.666c0,6.333-5.133,11.466-11.465,11.466h-29.236
	c-6.332,0-11.465-5.133-11.465-11.466l0,0c0-6.332,5.133-11.465,11.465-11.465h29.236
	C1209.709,50.201,1214.842,55.334,1214.842,61.666L1214.842,61.666z"/>
<text transform="matrix(1.2481 0 0 1 1172.3359 64.8076)" fill="#FFFFFF" font-family="'SimHei'" font-size="9.2428">STATUS</text>
<path fill="#131414" stroke="#050101" stroke-miterlimit="10" d="M1214.842,89.02c0,6.333-5.133,11.466-11.465,11.466h-29.236
	c-6.332,0-11.465-5.133-11.465-11.466l0,0c0-6.332,5.133-11.465,11.465-11.465h29.236
	C1209.709,77.555,1214.842,82.688,1214.842,89.02L1214.842,89.02z"/>
<text transform="matrix(1.2481 0 0 1 1177.8359 92.1611)" fill="#FFFFFF" font-family="'SimHei'" font-size="9.2428">MEHU</text>
<circle fill="#D0DF5E" cx="208.896" cy="46.683" r="6.597"/>
<circle fill="#D0DF5E" cx="208.896" cy="62.892" r="6.597"/>
<circle fill="#939849" stroke="#070607" stroke-miterlimit="10" cx="208.896" cy="78.226" r="4.906"/>
<circle fill="#D0DF5E" cx="208.896" cy="92.478" r="6.597"/>
<g>
	<text transform="matrix(1 0 0 1 20.0415 34.4424)" fill="#FAF9F8" font-family="'MicrosoftYaHei'" font-size="12">Symmctricom</text>
	<path fill="#FAF9F8" d="M30.667,25.101c0,0,28.553-14.308,58.067,0C88.734,25.101,62.106,13.145,30.667,25.101z"/>
	<path fill="#FAF9F8" d="M65.179,18.898c0,0,0.212-0.059,0.596-0.156c3.057-0.78,17-4.083,21.44-0.601
		c4.999,3.921-11.018,9.801-11.018,9.801S101.848,15.244,65.179,18.898z"/>
</g>
</svg>
