<?xml version="1.0" encoding="utf-8"?>
<!-- Generator: Adobe Illustrator 16.0.0, SVG Export Plug-In . SVG Version: 6.00 Build 0)  -->
<!DOCTYPE svg PUBLIC "-//W3C//DTD SVG 1.1//EN" "http://www.w3.org/Graphics/SVG/1.1/DTD/svg11.dtd">
<svg version="1.1" id="图层_1" xmlns="http://www.w3.org/2000/svg" xmlns:xlink="http://www.w3.org/1999/xlink" x="0px" y="0px"
	 width="7.38px" height="17.23px" viewBox="0 0 7.38 17.23" enable-background="new 0 0 7.38 17.23" xml:space="preserve">
<path fill="#FBFBFD" d="M3.761-0.002L2.666,1.902H3.48v8.525v0.758v0.686L1.619,9.936C1.451,9.762,1.353,9.52,1.353,9.271V7.563
	c0.342-0.156,0.578-0.51,0.578-0.92c0-0.555-0.432-1.006-0.965-1.006S0,6.088,0,6.643c0,0.492,0.342,0.9,0.791,0.986v1.643
	c0,0.402,0.156,0.795,0.43,1.078l2,2.082c0.168,0.172,0.26,0.404,0.26,0.648v0.256v0.676c-0.727,0.137-1.279,0.801-1.279,1.596
	c0,0.898,0.699,1.625,1.561,1.625c0.863,0,1.562-0.727,1.562-1.625c0-0.795-0.553-1.459-1.279-1.596v-0.676V13.08v-1.895v-0.758
	c0-0.244,0.092-0.473,0.256-0.645l1.917-1.994c0.275-0.287,0.428-0.668,0.428-1.074V5.275H7.38V3.369H5.548v1.906h0.533v1.439
	c0,0.25-0.094,0.482-0.264,0.66L4.044,9.221V1.902h0.814L3.761-0.002z"/>
</svg>
