<?xml version="1.0" encoding="utf-8"?>
<!-- Generator: Adobe Illustrator 16.0.0, SVG Export Plug-In . SVG Version: 6.00 Build 0)  -->
<!DOCTYPE svg PUBLIC "-//W3C//DTD SVG 1.1//EN" "http://www.w3.org/Graphics/SVG/1.1/DTD/svg11.dtd">
<svg version="1.1" id="图层_1" xmlns="http://www.w3.org/2000/svg" xmlns:xlink="http://www.w3.org/1999/xlink" x="0px" y="0px"
	 width="18.21px" height="20.83px" viewBox="0 0 18.21 20.83" enable-background="new 0 0 18.21 20.83" xml:space="preserve">
<path fill="#1C1D20" d="M17.423,20.831H0.809c-0.438,0-0.797-0.359-0.797-0.797V0.796c0-0.439,0.359-0.797,0.797-0.797h16.614
	c0.438,0,0.797,0.357,0.797,0.797v19.238C18.22,20.472,17.861,20.831,17.423,20.831"/>
<path fill="#EFEEEE" d="M16.481,19.382H1.751c-0.259,0-0.471-0.213-0.471-0.473V1.921c0-0.26,0.212-0.473,0.471-0.473h14.73
	c0.259,0,0.471,0.213,0.471,0.473v16.988C16.952,19.169,16.74,19.382,16.481,19.382"/>
<rect x="4.782" y="5.147" fill="#CBCCCD" width="8.667" height="2.018"/>
<rect x="8.032" y="7.165" fill="#CBCCCD" width="2.167" height="8.518"/>
</svg>
