<?xml version="1.0" encoding="utf-8"?>
<!-- Generator: Adobe Illustrator 16.0.0, SVG Export Plug-In . SVG Version: 6.00 Build 0)  -->
<!DOCTYPE svg PUBLIC "-//W3C//DTD SVG 1.1//EN" "http://www.w3.org/Graphics/SVG/1.1/DTD/svg11.dtd">
<svg version="1.1" id="图层_1" xmlns="http://www.w3.org/2000/svg" xmlns:xlink="http://www.w3.org/1999/xlink" x="0px" y="0px"
	 width="1275.59px" height="378.43px" viewBox="0 0 1275.59 378.43" enable-background="new 0 0 1275.59 378.43"
	 xml:space="preserve">
<polygon fill="#D8D9D9" points="-0.001,0 -0.001,126.142 -0.001,252.283 -0.001,378.425 1275.59,378.425 1275.59,252.283 
	1275.59,126.142 1275.59,0 "/>
<rect x="729.915" y="104.173" fill="#050101" width="340.159" height="173.961"/>
<rect x="247.777" y="104.173" fill="#050101" width="115.726" height="173.961"/>
<polygon fill="#333333" points="786.923,189.966 786.923,108.673 786.923,104.927 781.782,104.927 781.782,108.673 738.21,108.673 
	738.21,104.927 733.069,104.927 733.069,108.673 733.065,108.673 733.065,189.966 "/>
<polygon fill="#333333" points="360.443,189.966 360.443,108.673 360.443,104.927 355.302,104.927 355.302,108.673 311.729,108.673 
	311.729,104.927 306.588,104.927 306.588,108.673 306.584,108.673 306.584,189.966 "/>
<polygon fill="#333333" points="304.833,189.966 304.833,108.673 304.833,104.927 299.693,104.927 299.693,108.673 256.12,108.673 
	256.12,104.927 250.979,104.927 250.979,108.673 250.975,108.673 250.975,189.966 "/>
<polygon fill="#333333" points="842.923,189.966 842.923,108.673 842.923,104.927 837.782,104.927 837.782,108.673 794.21,108.673 
	794.21,104.927 789.069,104.927 789.069,108.673 789.065,108.673 789.065,189.966 "/>
<polygon fill="#333333" points="898.924,189.966 898.924,108.673 898.924,104.927 893.783,104.927 893.783,108.673 850.21,108.673 
	850.21,104.927 845.069,104.927 845.069,108.673 845.065,108.673 845.065,189.966 "/>
<polygon fill="#333333" points="954.924,189.966 954.924,108.673 954.924,104.927 949.783,104.927 949.783,108.673 906.211,108.673 
	906.211,104.927 901.07,104.927 901.07,108.673 901.066,108.673 901.066,189.966 "/>
<polygon fill="#333333" points="1066.924,189.966 1066.924,108.673 1066.924,104.927 1061.783,104.927 1061.783,108.673 
	1018.211,108.673 1018.211,104.927 1013.07,104.927 1013.07,108.673 1013.066,108.673 1013.066,189.966 "/>
<polygon fill="#333333" points="1010.578,189.966 1010.578,108.673 1010.578,104.927 1005.438,104.927 1005.438,108.673 
	961.865,108.673 961.865,104.927 956.725,104.927 956.725,108.673 956.721,108.673 956.721,189.966 "/>
<g>
	<polygon fill="#333333" points="786.924,191.674 786.924,272.968 786.924,276.713 781.783,276.713 781.783,272.968 
		738.209,272.968 738.209,276.713 733.068,276.713 733.068,272.968 733.064,272.968 733.064,191.674 	"/>
	<circle fill="none" stroke="#FDFEFE" stroke-miterlimit="10" cx="759.994" cy="209.102" r="3.25"/>
	<text transform="matrix(1 0 0 1 747.1094 222.041)" fill="#FFFFFF" font-family="'MicrosoftYaHei'" font-size="8.323">1A-C1</text>
	<rect x="754.099" y="247.804" fill="#FFFFFF" width="3.171" height="3.417"/>
	<rect x="760.746" y="247.804" fill="#FFFFFF" width="3.172" height="3.417"/>
	<rect x="764.224" y="247.804" fill="#FFFFFF" width="3.171" height="3.417"/>
	<rect x="767.685" y="247.804" fill="#FFFFFF" width="3.172" height="3.417"/>
	<rect x="754.099" y="252.745" fill="#FFFFFF" width="3.171" height="3.416"/>
	<rect x="749.981" y="252.745" fill="#FFFFFF" width="3.172" height="3.416"/>
	<rect x="760.746" y="252.745" fill="#FFFFFF" width="3.172" height="3.416"/>
	<rect x="764.224" y="252.745" fill="#FFFFFF" width="3.171" height="3.416"/>
	<rect x="767.685" y="252.745" fill="#FFFFFF" width="3.172" height="3.416"/>
	<rect x="760.746" y="258.418" fill="#FFFFFF" width="3.172" height="3.416"/>
	<rect x="764.224" y="258.418" fill="#FFFFFF" width="3.171" height="3.416"/>
	<rect x="767.685" y="258.418" fill="#FFFFFF" width="3.172" height="3.416"/>
</g>
<g>
	<polygon fill="#333333" points="360.443,191.674 360.443,272.968 360.443,276.713 355.303,276.713 355.303,272.968 
		311.729,272.968 311.729,276.713 306.588,276.713 306.588,272.968 306.584,272.968 306.584,191.674 	"/>
	<circle fill="none" stroke="#FDFEFE" stroke-miterlimit="10" cx="333.514" cy="209.102" r="3.25"/>
	<text transform="matrix(1 0 0 1 320.6289 222.041)" fill="#FFFFFF" font-family="'MicrosoftYaHei'" font-size="8.323">1A-C1</text>
	<rect x="327.618" y="247.804" fill="#FFFFFF" width="3.171" height="3.417"/>
	<rect x="334.266" y="247.804" fill="#FFFFFF" width="3.172" height="3.417"/>
	<rect x="337.743" y="247.804" fill="#FFFFFF" width="3.171" height="3.417"/>
	<rect x="341.205" y="247.804" fill="#FFFFFF" width="3.171" height="3.417"/>
	<rect x="327.618" y="252.745" fill="#FFFFFF" width="3.171" height="3.416"/>
	<rect x="323.501" y="252.745" fill="#FFFFFF" width="3.171" height="3.416"/>
	<rect x="334.266" y="252.745" fill="#FFFFFF" width="3.172" height="3.416"/>
	<rect x="337.743" y="252.745" fill="#FFFFFF" width="3.171" height="3.416"/>
	<rect x="341.205" y="252.745" fill="#FFFFFF" width="3.171" height="3.416"/>
	<rect x="334.266" y="258.418" fill="#FFFFFF" width="3.172" height="3.416"/>
	<rect x="337.743" y="258.418" fill="#FFFFFF" width="3.171" height="3.416"/>
	<rect x="341.205" y="258.418" fill="#FFFFFF" width="3.171" height="3.416"/>
</g>
<g>
	<polygon fill="#333333" points="304.834,191.674 304.834,272.968 304.834,276.713 299.693,276.713 299.693,272.968 
		256.119,272.968 256.119,276.713 250.979,276.713 250.979,272.968 250.975,272.968 250.975,191.674 	"/>
	<circle fill="none" stroke="#FDFEFE" stroke-miterlimit="10" cx="277.904" cy="209.102" r="3.25"/>
	<text transform="matrix(1 0 0 1 265.0195 222.041)" fill="#FFFFFF" font-family="'MicrosoftYaHei'" font-size="8.323">1A-C1</text>
	<rect x="272.008" y="247.804" fill="#FFFFFF" width="3.171" height="3.417"/>
	<rect x="278.656" y="247.804" fill="#FFFFFF" width="3.172" height="3.417"/>
	<rect x="282.133" y="247.804" fill="#FFFFFF" width="3.171" height="3.417"/>
	<rect x="285.595" y="247.804" fill="#FFFFFF" width="3.171" height="3.417"/>
	<rect x="272.008" y="252.745" fill="#FFFFFF" width="3.171" height="3.416"/>
	<rect x="267.892" y="252.745" fill="#FFFFFF" width="3.171" height="3.416"/>
	<rect x="278.656" y="252.745" fill="#FFFFFF" width="3.172" height="3.416"/>
	<rect x="282.133" y="252.745" fill="#FFFFFF" width="3.171" height="3.416"/>
	<rect x="285.595" y="252.745" fill="#FFFFFF" width="3.171" height="3.416"/>
	<rect x="278.656" y="258.418" fill="#FFFFFF" width="3.172" height="3.416"/>
	<rect x="282.133" y="258.418" fill="#FFFFFF" width="3.171" height="3.416"/>
	<rect x="285.595" y="258.418" fill="#FFFFFF" width="3.171" height="3.416"/>
</g>
<g>
	<polygon fill="#333333" points="842.924,191.674 842.924,272.968 842.924,276.713 837.783,276.713 837.783,272.968 
		794.209,272.968 794.209,276.713 789.068,276.713 789.068,272.968 789.064,272.968 789.064,191.674 	"/>
	<circle fill="none" stroke="#FDFEFE" stroke-miterlimit="10" cx="815.994" cy="209.102" r="3.25"/>
	<text transform="matrix(1 0 0 1 803.1094 222.041)" fill="#FFFFFF" font-family="'MicrosoftYaHei'" font-size="8.323">1A-C1</text>
	<rect x="810.099" y="247.804" fill="#FFFFFF" width="3.171" height="3.417"/>
	<rect x="816.746" y="247.804" fill="#FFFFFF" width="3.172" height="3.417"/>
	<rect x="820.224" y="247.804" fill="#FFFFFF" width="3.171" height="3.417"/>
	<rect x="823.685" y="247.804" fill="#FFFFFF" width="3.172" height="3.417"/>
	<rect x="810.099" y="252.745" fill="#FFFFFF" width="3.171" height="3.416"/>
	<rect x="805.981" y="252.745" fill="#FFFFFF" width="3.172" height="3.416"/>
	<rect x="816.746" y="252.745" fill="#FFFFFF" width="3.172" height="3.416"/>
	<rect x="820.224" y="252.745" fill="#FFFFFF" width="3.171" height="3.416"/>
	<rect x="823.685" y="252.745" fill="#FFFFFF" width="3.172" height="3.416"/>
	<rect x="816.746" y="258.418" fill="#FFFFFF" width="3.172" height="3.416"/>
	<rect x="820.224" y="258.418" fill="#FFFFFF" width="3.171" height="3.416"/>
	<rect x="823.685" y="258.418" fill="#FFFFFF" width="3.172" height="3.416"/>
</g>
<g>
	<polygon fill="#333333" points="898.924,191.674 898.924,272.968 898.924,276.713 893.783,276.713 893.783,272.968 
		850.209,272.968 850.209,276.713 845.068,276.713 845.068,272.968 845.064,272.968 845.064,191.674 	"/>
	<circle fill="none" stroke="#FDFEFE" stroke-miterlimit="10" cx="871.994" cy="209.102" r="3.25"/>
	<text transform="matrix(1 0 0 1 859.1094 222.041)" fill="#FFFFFF" font-family="'MicrosoftYaHei'" font-size="8.323">1A-C1</text>
	<rect x="866.1" y="247.804" fill="#FFFFFF" width="3.17" height="3.417"/>
	<rect x="872.746" y="247.804" fill="#FFFFFF" width="3.172" height="3.417"/>
	<rect x="876.223" y="247.804" fill="#FFFFFF" width="3.172" height="3.417"/>
	<rect x="879.686" y="247.804" fill="#FFFFFF" width="3.172" height="3.417"/>
	<rect x="866.1" y="252.745" fill="#FFFFFF" width="3.17" height="3.416"/>
	<rect x="861.982" y="252.745" fill="#FFFFFF" width="3.172" height="3.416"/>
	<rect x="872.746" y="252.745" fill="#FFFFFF" width="3.172" height="3.416"/>
	<rect x="876.223" y="252.745" fill="#FFFFFF" width="3.172" height="3.416"/>
	<rect x="879.686" y="252.745" fill="#FFFFFF" width="3.172" height="3.416"/>
	<rect x="872.746" y="258.418" fill="#FFFFFF" width="3.172" height="3.416"/>
	<rect x="876.223" y="258.418" fill="#FFFFFF" width="3.172" height="3.416"/>
	<rect x="879.686" y="258.418" fill="#FFFFFF" width="3.172" height="3.416"/>
</g>
<g>
	<polygon fill="#333333" points="954.924,191.674 954.924,272.968 954.924,276.713 949.783,276.713 949.783,272.968 
		906.209,272.968 906.209,276.713 901.068,276.713 901.068,272.968 901.064,272.968 901.064,191.674 	"/>
	<circle fill="none" stroke="#FDFEFE" stroke-miterlimit="10" cx="927.994" cy="209.102" r="3.25"/>
	<text transform="matrix(1 0 0 1 915.1104 222.041)" fill="#FFFFFF" font-family="'MicrosoftYaHei'" font-size="8.323">1A-C1</text>
	<rect x="922.1" y="247.804" fill="#FFFFFF" width="3.17" height="3.417"/>
	<rect x="928.746" y="247.804" fill="#FFFFFF" width="3.172" height="3.417"/>
	<rect x="932.223" y="247.804" fill="#FFFFFF" width="3.172" height="3.417"/>
	<rect x="935.686" y="247.804" fill="#FFFFFF" width="3.172" height="3.417"/>
	<rect x="922.1" y="252.745" fill="#FFFFFF" width="3.17" height="3.416"/>
	<rect x="917.982" y="252.745" fill="#FFFFFF" width="3.172" height="3.416"/>
	<rect x="928.746" y="252.745" fill="#FFFFFF" width="3.172" height="3.416"/>
	<rect x="932.223" y="252.745" fill="#FFFFFF" width="3.172" height="3.416"/>
	<rect x="935.686" y="252.745" fill="#FFFFFF" width="3.172" height="3.416"/>
	<rect x="928.746" y="258.418" fill="#FFFFFF" width="3.172" height="3.416"/>
	<rect x="932.223" y="258.418" fill="#FFFFFF" width="3.172" height="3.416"/>
	<rect x="935.686" y="258.418" fill="#FFFFFF" width="3.172" height="3.416"/>
</g>
<g>
	<polygon fill="#333333" points="1010.578,191.674 1010.578,272.968 1010.578,276.713 1005.438,276.713 1005.438,272.968 
		961.863,272.968 961.863,276.713 956.723,276.713 956.723,272.968 956.719,272.968 956.719,191.674 	"/>
	<circle fill="none" stroke="#FDFEFE" stroke-miterlimit="10" cx="983.648" cy="209.102" r="3.25"/>
	<text transform="matrix(1 0 0 1 970.7646 222.041)" fill="#FFFFFF" font-family="'MicrosoftYaHei'" font-size="8.323">1A-C1</text>
	<rect x="977.754" y="247.804" fill="#FFFFFF" width="3.17" height="3.417"/>
	<rect x="984.4" y="247.804" fill="#FFFFFF" width="3.172" height="3.417"/>
	<rect x="987.877" y="247.804" fill="#FFFFFF" width="3.172" height="3.417"/>
	<rect x="991.34" y="247.804" fill="#FFFFFF" width="3.172" height="3.417"/>
	<rect x="977.754" y="252.745" fill="#FFFFFF" width="3.17" height="3.416"/>
	<rect x="973.637" y="252.745" fill="#FFFFFF" width="3.172" height="3.416"/>
	<rect x="984.4" y="252.745" fill="#FFFFFF" width="3.172" height="3.416"/>
	<rect x="987.877" y="252.745" fill="#FFFFFF" width="3.172" height="3.416"/>
	<rect x="991.34" y="252.745" fill="#FFFFFF" width="3.172" height="3.416"/>
	<rect x="984.4" y="258.418" fill="#FFFFFF" width="3.172" height="3.416"/>
	<rect x="987.877" y="258.418" fill="#FFFFFF" width="3.172" height="3.416"/>
	<rect x="991.34" y="258.418" fill="#FFFFFF" width="3.172" height="3.416"/>
</g>
<g>
	<polygon fill="#333333" points="1066.578,191.674 1066.578,272.968 1066.578,276.713 1061.438,276.713 1061.438,272.968 
		1017.863,272.968 1017.863,276.713 1012.723,276.713 1012.723,272.968 1012.719,272.968 1012.719,191.674 	"/>
	<circle fill="none" stroke="#FDFEFE" stroke-miterlimit="10" cx="1039.648" cy="209.102" r="3.25"/>
	<text transform="matrix(1 0 0 1 1026.7656 222.041)" fill="#FFFFFF" font-family="'MicrosoftYaHei'" font-size="8.323">1A-C1</text>
	<rect x="1033.754" y="247.804" fill="#FFFFFF" width="3.17" height="3.417"/>
	<rect x="1040.4" y="247.804" fill="#FFFFFF" width="3.172" height="3.417"/>
	<rect x="1043.877" y="247.804" fill="#FFFFFF" width="3.172" height="3.417"/>
	<rect x="1047.34" y="247.804" fill="#FFFFFF" width="3.172" height="3.417"/>
	<rect x="1033.754" y="252.745" fill="#FFFFFF" width="3.17" height="3.416"/>
	<rect x="1029.637" y="252.745" fill="#FFFFFF" width="3.172" height="3.416"/>
	<rect x="1040.4" y="252.745" fill="#FFFFFF" width="3.172" height="3.416"/>
	<rect x="1043.877" y="252.745" fill="#FFFFFF" width="3.172" height="3.416"/>
	<rect x="1047.34" y="252.745" fill="#FFFFFF" width="3.172" height="3.416"/>
	<rect x="1040.4" y="258.418" fill="#FFFFFF" width="3.172" height="3.416"/>
	<rect x="1043.877" y="258.418" fill="#FFFFFF" width="3.172" height="3.416"/>
	<rect x="1047.34" y="258.418" fill="#FFFFFF" width="3.172" height="3.416"/>
</g>
<polyline fill="none" stroke="#222323" stroke-width="2" stroke-miterlimit="10" points="1037.611,80.977 1066.58,80.977 
	1066.58,95.477 "/>
<line fill="none" stroke="#222323" stroke-width="2" stroke-miterlimit="10" x1="867.361" y1="80.977" x2="983.777" y2="80.977"/>
<polyline fill="none" stroke="#222323" stroke-width="2" stroke-miterlimit="10" points="732.571,95.477 732.571,80.977 
	812.744,80.977 "/>
<line fill="none" stroke="#222323" stroke-width="2" stroke-miterlimit="10" x1="953.277" y1="95.477" x2="953.277" y2="80.977"/>
<polyline fill="none" stroke="#222323" stroke-width="2" stroke-miterlimit="10" points="803.109,303.644 1066.58,303.644 
	1066.58,289.144 "/>
<polyline fill="none" stroke="#222323" stroke-width="2" stroke-miterlimit="10" points="732.571,289.144 732.571,303.644 
	767.444,303.644 "/>
<line fill="none" stroke="#222323" stroke-width="2" stroke-miterlimit="10" x1="953.277" y1="289.144" x2="953.277" y2="303.644"/>
<line fill="none" stroke="#222323" stroke-width="2" stroke-miterlimit="10" x1="841.36" y1="289.144" x2="841.36" y2="303.644"/>
<text transform="matrix(1 0 0 1 816.1387 83.4756)" font-family="'MicrosoftYaHei'" font-size="12">交流输出</text>
<text transform="matrix(1 0 0 1 283.0547 92.4756)" font-family="'MicrosoftYaHei'" font-size="12">交流输入</text>
<text transform="matrix(1 0 0 1 175.1504 83.4756)" font-family="'MicrosoftYaHei'" font-size="12">电源</text>
<text transform="matrix(1 0 0 1 770.8564 305.3086)" font-family="'MicrosoftYaHei'" font-size="12">220V</text>
<text transform="matrix(1 0 0 1 290.4326 305.3086)" font-family="'MicrosoftYaHei'" font-size="12">220V</text>
<text transform="matrix(1 0 0 1 986.8359 83.4756)" font-family="'MicrosoftYaHei'" font-size="12">直接输出</text>
<rect x="861.982" y="290.727" fill="#6A75A4" width="68.746" height="25.834"/>
<rect x="975.223" y="290.727" fill="#6A75A4" width="68.746" height="25.834"/>
<text transform="matrix(1 0 0 1 872.7461 306.8916)" font-family="'MicrosoftYaHei'" font-size="12">交流24V</text>
<text transform="matrix(1 0 0 1 986.835 306.8916)" font-family="'MicrosoftYaHei'" font-size="12">直流24V</text>
<rect x="1218.875" y="41.959" fill="#B8B8B8" width="27.846" height="303.175"/>
<rect x="29.257" y="41.959" fill="#B8B8B8" width="27.847" height="303.175"/>
<rect x="99.036" y="27.636" fill="#B82928" width="111.954" height="28.645"/>
<text transform="matrix(1 0 0 1 109.7236 51.4336)" fill="#FDFEFE" font-family="'Helvetica-Condensed-Black-Se'" font-size="26.8466" letter-spacing="1">TIEDATE</text>
<circle fill="#83C796" stroke="#4D4C4C" stroke-miterlimit="10" cx="187.61" cy="104.927" r="10.5"/>
<text transform="matrix(1 0 0 1 522.0156 41.958)" stroke="#000000" stroke-width="0.5" stroke-miterlimit="10" font-family="'NSimSun'" font-size="30.0201" letter-spacing="1">JCSB- II 型电源箱</text>
<text transform="matrix(1 0 0 1 953.2773 353.5352)" fill="#454444" font-family="'MicrosoftYaHei'" font-size="18.3994">上海铁大电信设备有限公司</text>
</svg>
