<?xml version="1.0" encoding="utf-8"?>
<!-- Generator: Adobe Illustrator 19.0.0, SVG Export Plug-In . SVG Version: 6.00 Build 0)  -->
<svg version="1.1" id="图层_1" xmlns="http://www.w3.org/2000/svg" xmlns:xlink="http://www.w3.org/1999/xlink" x="0px" y="0px"
	 width="229.1px" height="126px" viewBox="0 0 229.1 126" style="enable-background:new 0 0 229.1 126;" xml:space="preserve">
<style type="text/css">
	.st0{fill:#DEDEDE;stroke:#1C1C1C;stroke-width:1.7008;stroke-miterlimit:10;}
	.st1{fill:#838383;}
	.st2{fill:#25201F;}
	.st3{fill:#E5E5E5;stroke:#7D7D7D;stroke-width:0.5669;stroke-miterlimit:10;}
	.st4{fill:#9FA0A0;}
</style>
<path id="XMLID_16509_" class="st0" d="M225.4,125.1H3.7c-1.6,0-2.8-1.3-2.8-2.8V3.7c0-1.6,1.3-2.8,2.8-2.8h221.8
	c1.6,0,2.8,1.3,2.8,2.8v118.6C228.3,123.9,227,125.1,225.4,125.1z"/>
<g id="XMLID_16511_">
	<g id="XMLID_16521_">
		<g id="XMLID_16522_">
			<rect id="XMLID_16529_" x="26.6" y="17.6" class="st1" width="1.5" height="5.9"/>
			<path id="XMLID_16528_" class="st1" d="M40.1,19.3c-0.1,0-0.5-0.3-1.3-0.3c-1,0-1.6,0.7-1.6,1.6c0,0.9,0.6,1.6,1.6,1.6
				c0.7,0,1.2-0.3,1.3-0.3v1.6c-0.2,0.1-0.7,0.2-1.4,0.2c-1.7,0-3.2-1.2-3.2-3.1c0-1.8,1.3-3.1,3.2-3.1c0.7,0,1.2,0.2,1.4,0.2V19.3z
				"/>
			<path id="XMLID_16527_" class="st1" d="M24.5,19.3c-0.1,0-0.5-0.3-1.3-0.3c-1,0-1.6,0.7-1.6,1.6c0,0.9,0.6,1.6,1.6,1.6
				c0.7,0,1.2-0.3,1.3-0.3v1.6c-0.2,0.1-0.7,0.2-1.4,0.2c-1.7,0-3.2-1.2-3.2-3.1c0-1.8,1.3-3.1,3.2-3.1c0.7,0,1.2,0.2,1.4,0.2V19.3z
				"/>
			<path id="XMLID_16524_" class="st1" d="M48,20.6c0,1.7-1.3,3.1-3.1,3.1c-1.8,0-3.1-1.4-3.1-3.1c0-1.7,1.3-3.1,3.1-3.1
				C46.7,17.5,48,18.9,48,20.6z M44.9,19c-0.9,0-1.5,0.7-1.5,1.6c0,0.9,0.7,1.6,1.5,1.6c0.9,0,1.6-0.7,1.6-1.6
				C46.4,19.7,45.7,19,44.9,19z"/>
			<path id="XMLID_16523_" class="st1" d="M33.7,19c0,0-0.7-0.2-1.2-0.2c-0.6,0-0.9,0.2-0.9,0.5c0,0.4,0.4,0.5,0.7,0.6l0.4,0.1
				c1,0.3,1.4,1,1.4,1.7c0,1.5-1.3,2-2.5,2c-0.8,0-1.5-0.1-1.6-0.2v-1.4c0.1,0,0.8,0.2,1.4,0.2c0.7,0,1.1-0.2,1.1-0.6
				c0-0.3-0.3-0.5-0.7-0.6c-0.1,0-0.2-0.1-0.3-0.1c-0.8-0.3-1.5-0.8-1.5-1.7c0-1.1,0.8-1.9,2.2-1.9c0.7,0,1.4,0.2,1.5,0.2V19z"/>
		</g>
	</g>
	<path id="XMLID_16520_" class="st1" d="M18.4,11.2c0-0.4-0.3-0.7-0.7-0.7c-0.4,0-0.7,0.3-0.7,0.7v1.6c0,0.4,0.3,0.7,0.7,0.7
		c0.4,0,0.7-0.3,0.7-0.7V11.2z"/>
	<path id="XMLID_16519_" class="st1" d="M22.5,9.2c0-0.4-0.3-0.7-0.7-0.7c-0.4,0-0.7,0.3-0.7,0.7v3.6c0,0.4,0.3,0.7,0.7,0.7
		c0.4,0,0.7-0.3,0.7-0.7V9.2z"/>
	<path id="XMLID_16518_" class="st1" d="M26.6,6.4c0-0.4-0.3-0.7-0.7-0.7c-0.4,0-0.7,0.3-0.7,0.7v7.9c0,0.4,0.3,0.7,0.7,0.7
		c0.4,0,0.7-0.3,0.7-0.7V6.4z"/>
	<path id="XMLID_16517_" class="st1" d="M30.6,9.2c0-0.4-0.3-0.7-0.7-0.7c-0.4,0-0.7,0.3-0.7,0.7v3.6c0,0.4,0.3,0.7,0.7,0.7
		c0.4,0,0.7-0.3,0.7-0.7V9.2z"/>
	<path id="XMLID_16516_" class="st1" d="M34.7,11.2c0-0.4-0.3-0.7-0.7-0.7c-0.4,0-0.7,0.3-0.7,0.7v1.6c0,0.4,0.3,0.7,0.7,0.7
		c0.4,0,0.7-0.3,0.7-0.7V11.2z"/>
	<path id="XMLID_16515_" class="st1" d="M38.8,9.2c0-0.4-0.3-0.7-0.7-0.7c-0.4,0-0.7,0.3-0.7,0.7v3.6c0,0.4,0.3,0.7,0.7,0.7
		c0.4,0,0.7-0.3,0.7-0.7V9.2z"/>
	<path id="XMLID_16514_" class="st1" d="M42.9,6.4c0-0.4-0.3-0.7-0.7-0.7c-0.4,0-0.7,0.3-0.7,0.7v7.9c0,0.4,0.3,0.7,0.7,0.7
		c0.4,0,0.7-0.3,0.7-0.7V6.4z"/>
	<path id="XMLID_16513_" class="st1" d="M47,9.2c0-0.4-0.3-0.7-0.8-0.7c-0.4,0-0.7,0.3-0.7,0.7v3.6c0,0.4,0.3,0.7,0.7,0.7
		c0.4,0,0.8-0.3,0.8-0.7V9.2z"/>
	<path id="XMLID_16512_" class="st1" d="M51.1,11.2c0-0.4-0.3-0.7-0.7-0.7c-0.4,0-0.7,0.3-0.7,0.7v1.6c0,0.4,0.3,0.7,0.7,0.7
		c0.4,0,0.7-0.3,0.7-0.7V11.2z"/>
</g>
<g id="XMLID_16558_">
	<rect id="XMLID_16530_" x="59.6" y="29.4" class="st2" width="9.3" height="9.3"/>
	<rect id="XMLID_16532_" x="72.2" y="29.4" class="st2" width="9.3" height="9.3"/>
	<rect id="XMLID_16533_" x="84.8" y="29.4" class="st2" width="9.3" height="9.3"/>
	<rect id="XMLID_16534_" x="97.3" y="29.4" class="st2" width="9.3" height="9.3"/>
	<rect id="XMLID_16535_" x="109.9" y="29.4" class="st2" width="9.3" height="9.3"/>
	<rect id="XMLID_16536_" x="122.5" y="29.4" class="st2" width="9.3" height="9.3"/>
	<rect id="XMLID_16537_" x="135" y="29.4" class="st2" width="9.3" height="9.3"/>
	<rect id="XMLID_16538_" x="147.6" y="29.4" class="st2" width="9.3" height="9.3"/>
	<rect id="XMLID_16539_" x="160.1" y="29.4" class="st2" width="9.3" height="9.3"/>
	<rect id="XMLID_16548_" x="59.6" y="42.9" class="st2" width="9.3" height="9.3"/>
	<rect id="XMLID_16547_" x="72.2" y="42.9" class="st2" width="9.3" height="9.3"/>
	<rect id="XMLID_16546_" x="84.8" y="42.9" class="st2" width="9.3" height="9.3"/>
	<rect id="XMLID_16545_" x="97.3" y="42.9" class="st2" width="9.3" height="9.3"/>
	<rect id="XMLID_16544_" x="109.9" y="42.9" class="st2" width="9.3" height="9.3"/>
	<rect id="XMLID_16543_" x="122.5" y="42.9" class="st2" width="9.3" height="9.3"/>
	<rect id="XMLID_16542_" x="135" y="42.9" class="st2" width="9.3" height="9.3"/>
	<rect id="XMLID_16541_" x="147.6" y="42.9" class="st2" width="9.3" height="9.3"/>
	<rect id="XMLID_16540_" x="160.1" y="42.9" class="st2" width="9.3" height="9.3"/>
</g>
<g id="XMLID_16531_">
	<rect id="XMLID_16557_" x="34.5" y="57.2" class="st2" width="9.3" height="9.3"/>
	<rect id="XMLID_16556_" x="47.1" y="57.2" class="st2" width="9.3" height="9.3"/>
	<rect id="XMLID_16555_" x="59.6" y="57.2" class="st2" width="9.3" height="9.3"/>
	<rect id="XMLID_16554_" x="72.2" y="57.2" class="st2" width="9.3" height="9.3"/>
	<rect id="XMLID_16553_" x="84.8" y="57.2" class="st2" width="9.3" height="9.3"/>
	<rect id="XMLID_16552_" x="97.3" y="57.2" class="st2" width="9.3" height="9.3"/>
	<rect id="XMLID_16551_" x="109.9" y="57.2" class="st2" width="9.3" height="9.3"/>
	<rect id="XMLID_16550_" x="122.5" y="57.2" class="st2" width="9.3" height="9.3"/>
	<rect id="XMLID_16549_" x="135" y="57.2" class="st2" width="9.3" height="9.3"/>
	<rect id="XMLID_16565_" x="147.6" y="57.2" class="st2" width="9.3" height="9.3"/>
	<rect id="XMLID_16564_" x="160.1" y="57.2" class="st2" width="9.3" height="9.3"/>
	<rect id="XMLID_16563_" x="172.7" y="57.2" class="st2" width="9.3" height="9.3"/>
	<rect id="XMLID_16562_" x="185.3" y="57.2" class="st2" width="9.3" height="9.3"/>
</g>
<g id="XMLID_16559_">
	
		<ellipse id="XMLID_16567_" transform="matrix(-0.7071 -0.7071 0.7071 -0.7071 336.4166 197.5915)" class="st3" cx="209.1" cy="29.1" rx="11.1" ry="10.9"/>
	<g id="XMLID_16560_">
		
			<rect id="XMLID_16566_" x="207.6" y="22.7" transform="matrix(-0.7071 -0.7071 0.7071 -0.7071 336.4166 197.5915)" class="st4" width="3.1" height="12.8"/>
		
			<rect id="XMLID_16561_" x="207.6" y="22.6" transform="matrix(0.7071 -0.7071 0.7071 0.7071 40.6609 156.4073)" class="st4" width="3.1" height="12.9"/>
	</g>
</g>
</svg>
