<?xml version="1.0" encoding="utf-8"?>
<!-- Generator: Adobe Illustrator 16.0.0, SVG Export Plug-In . SVG Version: 6.00 Build 0)  -->
<!DOCTYPE svg PUBLIC "-//W3C//DTD SVG 1.1//EN" "http://www.w3.org/Graphics/SVG/1.1/DTD/svg11.dtd">
<svg version="1.1" id="图层_1" xmlns="http://www.w3.org/2000/svg" xmlns:xlink="http://www.w3.org/1999/xlink" x="0px" y="0px"
	 width="1275.59px" height="126.14px" viewBox="0 0 1275.59 126.14" enable-background="new 0 0 1275.59 126.14"
	 xml:space="preserve">
<g>
	<path fill="#0C0C0C" d="M1275.591,115.142c0,6.075-4.926,11-11,11H11c-6.075,0-11-4.925-11-11V11C0,4.925,4.925,0,11,0h1253.591
		c6.074,0,11,4.925,11,11V115.142z"/>
</g>
<g>
	<path fill="#7583B9" d="M72.143,0H11C4.925,0,0,4.925,0,11v104.142c0,6.075,4.925,11,11,11h61.143V0z"/>
</g>
<g>
	<path fill="#040001" d="M50.746,26.264c0,3.866-3.134,7-7,7h-23c-3.866,0-7-3.134-7-7l0,0c0-3.867,3.134-7,7-7h23
		C47.612,19.264,50.746,22.397,50.746,26.264L50.746,26.264z"/>
</g>
<g>
	<path fill="#040001" d="M50.746,102.265c0,3.865-3.134,7-7,7h-23c-3.866,0-7-3.135-7-7l0,0c0-3.867,3.134-7,7-7h23
		C47.612,95.265,50.746,98.397,50.746,102.265L50.746,102.265z"/>
</g>
<g>
	<path fill="#AFAEAE" d="M36.33,73.783c-4.459,4.461-11.696,4.457-16.161-0.008C15.703,69.31,15.7,62.072,20.16,57.614
		c4.461-4.462,11.698-4.459,16.163,0.007C40.789,62.086,40.792,69.322,36.33,73.783"/>
</g>
<g>
	<path fill="#929292" d="M28.257,77.627c-3.188,0-6.187-1.242-8.442-3.498c-2.255-2.254-3.497-5.25-3.498-8.437
		s1.238-6.182,3.489-8.433c2.251-2.251,5.245-3.491,8.429-3.491c3.188,0,6.187,1.243,8.441,3.499
		c2.254,2.254,3.497,5.25,3.498,8.436c0.001,3.188-1.239,6.182-3.491,8.434C34.434,76.387,31.441,77.627,28.257,77.627z
		 M28.235,54.769c-2.917,0-5.66,1.136-7.722,3.198c-2.063,2.063-3.198,4.806-3.196,7.725c0.001,2.92,1.14,5.665,3.205,7.73
		c2.066,2.066,4.813,3.205,7.735,3.205c2.917,0,5.658-1.136,7.719-3.197c2.063-2.063,3.199-4.807,3.198-7.726
		c-0.001-2.92-1.14-5.664-3.205-7.729C33.903,55.907,31.157,54.769,28.235,54.769z"/>
</g>
<g>
	<path fill="#AFAEAE" d="M34.187,71.639c-3.278,3.277-8.596,3.276-11.875-0.006c-3.281-3.279-3.284-8.598-0.006-11.875
		c3.278-3.278,8.596-3.275,11.876,0.004C37.463,63.043,37.465,68.36,34.187,71.639"/>
</g>
<g>
	<path fill="#929292" d="M28.253,74.596c-2.378,0-4.614-0.927-6.295-2.609c-1.681-1.68-2.608-3.915-2.609-6.291
		c-0.001-2.378,0.923-4.611,2.604-6.291c1.679-1.679,3.912-2.604,6.288-2.604c2.377,0,4.613,0.926,6.295,2.607
		c3.471,3.471,3.473,9.116,0.005,12.584C32.861,73.671,30.628,74.596,28.253,74.596z M28.24,57.801c-2.108,0-4.09,0.82-5.581,2.311
		c-1.491,1.49-2.312,3.474-2.311,5.583s0.824,4.093,2.316,5.585c1.493,1.493,3.477,2.316,5.588,2.316
		c2.108,0,4.089-0.821,5.58-2.311c3.078-3.078,3.076-8.089-0.005-11.17C32.335,58.623,30.35,57.801,28.24,57.801z"/>
</g>
<g>
	<g>
		<defs>
			
				<rect id="SVGID_1_" x="20.326" y="57.788" transform="matrix(-0.7072 -0.707 0.707 -0.7072 1.7687 132.1281)" width="15.839" height="15.82"/>
		</defs>
		<clipPath id="SVGID_2_">
			<use xlink:href="#SVGID_1_"  overflow="visible"/>
		</clipPath>
		<g clip-path="url(#SVGID_2_)">
			<path fill="#BEBEBD" d="M33.845,71.297c-3.089,3.09-8.1,3.086-11.191-0.006c-3.093-3.092-3.095-8.104-0.006-11.191
				c3.089-3.09,8.099-3.088,11.191,0.005C36.932,63.195,36.935,68.207,33.845,71.297"/>
		</g>
		<g clip-path="url(#SVGID_2_)">
			<path fill="#C0C0C0" d="M33.713,71.166c-3.016,3.016-7.909,3.013-10.929-0.008c-3.02-3.018-3.021-7.911-0.006-10.928
				c3.017-3.017,7.91-3.015,10.93,0.005C36.728,63.256,36.729,68.148,33.713,71.166"/>
		</g>
		<g clip-path="url(#SVGID_2_)">
			<path fill="#C2C3C3" d="M33.581,71.034c-2.942,2.942-7.72,2.942-10.666-0.004c-2.946-2.948-2.947-7.724-0.005-10.667
				c2.943-2.943,7.72-2.943,10.667,0.002C36.523,63.313,36.525,68.09,33.581,71.034"/>
		</g>
		<g clip-path="url(#SVGID_2_)">
			<path fill="#C4C5C4" d="M33.449,70.902c-2.871,2.871-7.528,2.868-10.402-0.005c-2.874-2.876-2.876-7.532-0.006-10.403
				c2.873-2.871,7.529-2.869,10.403,0.004C36.319,63.373,36.321,68.031,33.449,70.902"/>
		</g>
		<g clip-path="url(#SVGID_2_)">
			<path fill="#C6C8C8" d="M33.318,70.771c-2.798,2.798-7.338,2.795-10.14-0.005c-2.801-2.802-2.802-7.342-0.005-10.14
				c2.799-2.798,7.339-2.797,10.141,0.006C36.115,63.433,36.117,67.973,33.318,70.771"/>
		</g>
		<g clip-path="url(#SVGID_2_)">
			<path fill="#C9CACB" d="M33.186,70.639c-2.725,2.725-7.147,2.724-9.875-0.005c-2.729-2.729-2.729-7.149-0.005-9.876
				c2.727-2.727,7.148-2.725,9.876,0.004C35.911,63.49,35.912,67.912,33.186,70.639"/>
		</g>
		<g clip-path="url(#SVGID_2_)">
			<path fill="#CBCDCD" d="M33.055,70.508c-2.652,2.652-6.957,2.65-9.613-0.007c-2.655-2.652-2.656-6.959-0.005-9.612
				c2.654-2.652,6.958-2.652,9.614,0.004S35.708,67.854,33.055,70.508"/>
		</g>
		<g clip-path="url(#SVGID_2_)">
			<path fill="#CCCFD0" d="M32.923,70.375c-2.579,2.58-6.768,2.58-9.35-0.004c-2.583-2.582-2.584-6.771-0.005-9.35
				c2.581-2.582,6.769-2.58,9.351,0.002C35.503,63.607,35.504,67.793,32.923,70.375"/>
		</g>
		<g clip-path="url(#SVGID_2_)">
			<path fill="#D0D2D2" d="M32.79,70.243c-2.506,2.507-6.575,2.506-9.085-0.003c-2.51-2.511-2.511-6.582-0.004-9.086
				c2.509-2.51,6.578-2.508,9.088,0.002C35.299,63.666,35.299,67.735,32.79,70.243"/>
		</g>
		<g clip-path="url(#SVGID_2_)">
			<path fill="#D2D4D5" d="M32.66,70.114c-2.435,2.434-6.386,2.431-8.823-0.007s-2.439-6.389-0.005-8.822
				c2.436-2.436,6.386-2.436,8.823,0.003C35.094,63.727,35.095,67.677,32.66,70.114"/>
		</g>
	</g>
</g>
<g>
	<polygon fill="#605F5E" points="24.151,68.331 26.784,65.698 24.148,63.062 25.61,61.6 28.246,64.236 30.878,61.602 32.342,63.065 
		29.709,65.698 32.344,68.334 30.883,69.795 28.247,67.16 25.614,69.792 	"/>
</g>
<g>
	<path fill="#221714" d="M32.089,63.066l-2.38,2.379l-0.254,0.253l0.254,0.254l2.382,2.382l-1.209,1.207l-2.381-2.381l-0.254-0.254
		l-0.252,0.254l-2.379,2.378l-1.209-1.207l2.379-2.38l0.253-0.253l-0.254-0.255l-2.382-2.382l1.208-1.208l2.382,2.381l0.254,0.254
		l0.253-0.252l2.379-2.379L32.089,63.066z M32.594,63.066l-1.716-1.717l-2.632,2.633l-2.635-2.634l-1.716,1.713l2.636,2.637
		l-2.633,2.633l1.716,1.717l2.632-2.633l2.635,2.633l1.715-1.714l-2.635-2.636L32.594,63.066z"/>
</g>
<g>
	<path fill="#7583B9" d="M1203.447,0h61.144c6.074,0,11,4.925,11,11v104.142c0,6.075-4.926,11-11,11h-61.144V0z"/>
</g>
<g>
	<path fill="#040001" d="M1224.845,26.264c0,3.866,3.133,7,7,7h23c3.865,0,7-3.134,7-7l0,0c0-3.867-3.135-7-7-7h-23
		C1227.978,19.264,1224.845,22.397,1224.845,26.264L1224.845,26.264z"/>
</g>
<g>
	<path fill="#040001" d="M1224.845,102.265c0,3.865,3.133,7,7,7h23c3.865,0,7-3.135,7-7l0,0c0-3.867-3.135-7-7-7h-23
		C1227.978,95.265,1224.845,98.397,1224.845,102.265L1224.845,102.265z"/>
</g>
<g>
	<path fill="#AFAEAE" d="M1239.261,73.783c4.459,4.461,11.695,4.457,16.16-0.008c4.467-4.466,4.469-11.703,0.01-16.162
		c-4.463-4.462-11.699-4.459-16.164,0.007C1234.802,62.086,1234.798,69.322,1239.261,73.783"/>
</g>
<g>
	<path fill="#929292" d="M1247.334,77.627L1247.334,77.627c-3.185-0.001-6.178-1.24-8.427-3.49
		c-2.253-2.252-3.492-5.246-3.492-8.434c0.002-3.186,1.244-6.182,3.498-8.436c2.256-2.256,5.254-3.499,8.441-3.499
		c3.185,0,6.178,1.24,8.43,3.491c2.251,2.251,3.49,5.246,3.488,8.433c-0.001,3.187-1.243,6.183-3.498,8.437
		C1253.52,76.384,1250.521,77.627,1247.334,77.627z M1247.354,54.769c-2.921,0-5.668,1.139-7.734,3.206
		c-2.064,2.065-3.203,4.81-3.205,7.729c0,2.919,1.135,5.662,3.199,7.726c2.061,2.062,4.802,3.196,7.719,3.197h0.001
		c2.921,0,5.667-1.139,7.733-3.205c2.066-2.065,3.204-4.811,3.205-7.73c0.002-2.919-1.133-5.662-3.195-7.725
		C1253.015,55.904,1250.272,54.769,1247.354,54.769z"/>
</g>
<g>
	<path fill="#AFAEAE" d="M1241.403,71.639c3.279,3.277,8.596,3.276,11.875-0.006c3.281-3.279,3.284-8.598,0.006-11.875
		c-3.277-3.278-8.596-3.275-11.875,0.004C1238.128,63.043,1238.126,68.36,1241.403,71.639"/>
</g>
<g>
	<path fill="#929292" d="M1247.337,74.596L1247.337,74.596c-2.375-0.001-4.607-0.925-6.287-2.604
		c-3.468-3.468-3.465-9.113,0.006-12.584c1.682-1.682,3.918-2.607,6.295-2.607c2.376,0,4.609,0.925,6.287,2.604
		c1.681,1.68,2.605,3.913,2.604,6.291c-0.001,2.376-0.928,4.611-2.609,6.291C1251.951,73.669,1249.716,74.596,1247.337,74.596z
		 M1247.351,57.801c-2.11,0-4.096,0.822-5.588,2.314c-3.082,3.081-3.084,8.092-0.006,11.17c1.49,1.489,3.472,2.31,5.58,2.311
		c2.111,0,4.096-0.823,5.588-2.316c1.493-1.492,2.315-3.476,2.316-5.585c0.002-2.109-0.819-4.093-2.311-5.583
		C1251.44,58.621,1249.459,57.801,1247.351,57.801z"/>
</g>
<g>
	<g>
		<defs>
			
				<rect id="SVGID_3_" x="1239.425" y="57.788" transform="matrix(0.7072 -0.707 0.707 0.7072 318.8107 901.1674)" width="15.839" height="15.819"/>
		</defs>
		<clipPath id="SVGID_4_">
			<use xlink:href="#SVGID_3_"  overflow="visible"/>
		</clipPath>
		<g clip-path="url(#SVGID_4_)">
			<path fill="#BEBEBD" d="M1241.745,71.297c3.09,3.09,8.1,3.086,11.191-0.006c3.094-3.092,3.096-8.104,0.006-11.191
				c-3.089-3.09-8.1-3.088-11.191,0.005C1238.659,63.195,1238.655,68.207,1241.745,71.297"/>
		</g>
		<g clip-path="url(#SVGID_4_)">
			<path fill="#C0C0C0" d="M1241.878,71.166c3.015,3.016,7.908,3.013,10.928-0.008c3.02-3.018,3.021-7.911,0.006-10.928
				s-7.91-3.015-10.93,0.005C1238.862,63.256,1238.86,68.148,1241.878,71.166"/>
		</g>
		<g clip-path="url(#SVGID_4_)">
			<path fill="#C2C3C3" d="M1242.009,71.034c2.943,2.942,7.72,2.942,10.666-0.004c2.947-2.948,2.947-7.724,0.006-10.667
				c-2.943-2.943-7.721-2.943-10.668,0.002C1239.067,63.313,1239.065,68.09,1242.009,71.034"/>
		</g>
		<g clip-path="url(#SVGID_4_)">
			<path fill="#C4C5C4" d="M1242.142,70.902c2.871,2.871,7.527,2.868,10.402-0.005c2.873-2.876,2.875-7.532,0.006-10.403
				c-2.873-2.871-7.53-2.869-10.404,0.004C1239.271,63.373,1239.269,68.031,1242.142,70.902"/>
		</g>
		<g clip-path="url(#SVGID_4_)">
			<path fill="#C6C8C8" d="M1242.272,70.771c2.797,2.798,7.338,2.795,10.139-0.005c2.801-2.802,2.803-7.342,0.006-10.14
				c-2.799-2.798-7.34-2.797-10.141,0.006C1239.476,63.433,1239.474,67.973,1242.272,70.771"/>
		</g>
		<g clip-path="url(#SVGID_4_)">
			<path fill="#C9CACB" d="M1242.405,70.639c2.725,2.725,7.146,2.724,9.875-0.005c2.729-2.729,2.729-7.149,0.004-9.876
				c-2.727-2.727-7.148-2.725-9.875,0.004C1239.679,63.49,1239.679,67.912,1242.405,70.639"/>
		</g>
		<g clip-path="url(#SVGID_4_)">
			<path fill="#CBCDCD" d="M1242.536,70.508c2.651,2.652,6.957,2.65,9.613-0.007c2.654-2.652,2.656-6.959,0.004-9.612
				c-2.654-2.652-6.957-2.652-9.613,0.004S1239.882,67.854,1242.536,70.508"/>
		</g>
		<g clip-path="url(#SVGID_4_)">
			<path fill="#CCCFD0" d="M1242.667,70.375c2.58,2.58,6.768,2.58,9.35-0.004c2.584-2.582,2.584-6.771,0.006-9.35
				c-2.582-2.582-6.77-2.58-9.352,0.002C1240.087,63.607,1240.087,67.793,1242.667,70.375"/>
		</g>
		<g clip-path="url(#SVGID_4_)">
			<path fill="#D0D2D2" d="M1242.8,70.243c2.506,2.507,6.576,2.506,9.086-0.003c2.51-2.511,2.512-6.582,0.004-9.086
				c-2.508-2.51-6.578-2.508-9.088,0.002S1240.292,67.735,1242.8,70.243"/>
		</g>
		<g clip-path="url(#SVGID_4_)">
			<path fill="#D2D4D5" d="M1242.931,70.114c2.434,2.434,6.385,2.431,8.822-0.007s2.439-6.389,0.006-8.822
				c-2.436-2.436-6.387-2.436-8.824,0.003S1240.495,67.677,1242.931,70.114"/>
		</g>
	</g>
</g>
<g>
	<polygon fill="#605F5E" points="1251.438,68.331 1248.806,65.698 1251.442,63.062 1249.979,61.6 1247.345,64.236 1244.712,61.602 
		1243.249,63.065 1245.882,65.698 1243.247,68.334 1244.708,69.795 1247.343,67.16 1249.976,69.792 	"/>
</g>
<g>
	<path fill="#221714" d="M1244.712,61.857l2.379,2.379l0.254,0.252l0.254-0.254l2.381-2.381l1.208,1.208l-2.382,2.382l-0.254,0.255
		l0.254,0.253l2.378,2.38l-1.208,1.207l-2.379-2.378l-0.254-0.254l-0.254,0.254l-2.381,2.381l-1.209-1.207l2.383-2.382l0.254-0.254
		l-0.254-0.253l-2.381-2.379L1244.712,61.857z M1245.628,65.698l-2.635,2.636l1.715,1.714l2.635-2.633l2.633,2.633l1.717-1.717
		l-2.634-2.633l2.636-2.637l-1.716-1.713l-2.634,2.634l-2.633-2.633l-1.715,1.717L1245.628,65.698z"/>
</g>
<g>
	<rect x="75.338" fill="#DDDBD3" width="272.26" height="126.142"/>
</g>
<g>
	<rect x="347.598" fill="#7583B9" width="853.245" height="126.142"/>
</g>
<g>
	<path fill="#7583B9" d="M1173.996,107.072c0,5.021-3.403,9.09-7.602,9.09H979.968c-4.198,0-7.601-4.068-7.601-9.09V27.331
		c0-5.022,3.402-9.092,7.601-9.092h186.427c4.198,0,7.602,4.07,7.602,9.092V107.072z"/>
	<path fill="#181919" d="M1166.395,116.662H979.968c-4.467,0-8.101-4.302-8.101-9.59V27.331c0-5.29,3.634-9.592,8.101-9.592h186.427
		c4.468,0,8.102,4.303,8.102,9.592v79.742C1174.496,112.36,1170.862,116.662,1166.395,116.662z M979.968,18.738
		c-3.916,0-7.101,3.854-7.101,8.592v79.742c0,4.736,3.185,8.59,7.101,8.59h186.427c3.916,0,7.102-3.854,7.102-8.59V27.331
		c0-4.738-3.186-8.592-7.102-8.592H979.968z"/>
</g>
<g>
	<g>
		<path fill="#AFAEAE" d="M978.589,32.685c2.531,2.531,6.637,2.528,9.17-0.005c2.534-2.533,2.535-6.64,0.006-9.17
			c-2.532-2.531-6.639-2.53-9.172,0.004C976.059,26.047,976.058,30.153,978.589,32.685"/>
	</g>
	<g>
		<path fill="#929292" d="M983.169,35.081L983.169,35.081c-1.864,0-3.616-0.726-4.934-2.042c-1.318-1.319-2.045-3.073-2.043-4.939
			c0-1.866,0.728-3.62,2.047-4.939c1.32-1.32,3.076-2.048,4.942-2.048c1.864,0,3.618,0.726,4.937,2.044
			c1.317,1.318,2.043,3.072,2.043,4.938c-0.002,1.866-0.729,3.62-2.049,4.939C986.792,34.354,985.036,35.081,983.169,35.081z
			 M983.182,22.112c-1.6,0-3.104,0.623-4.235,1.755c-1.131,1.131-1.754,2.634-1.754,4.232c-0.001,1.599,0.62,3.102,1.75,4.231
			c1.129,1.129,2.629,1.75,4.227,1.75l0,0c1.601,0,3.104-0.623,4.236-1.755c1.131-1.131,1.755-2.634,1.756-4.232
			c0-1.599-0.621-3.102-1.75-4.23C986.281,22.734,984.779,22.112,983.182,22.112z"/>
	</g>
	<g>
		<path fill="#AFAEAE" d="M979.806,31.468c1.859,1.859,4.877,1.858,6.738-0.003s1.863-4.879,0.002-6.738
			c-1.859-1.86-4.877-1.858-6.738,0.002C977.946,26.591,977.946,29.607,979.806,31.468"/>
	</g>
	<g>
		<path fill="#929292" d="M983.173,33.361L983.173,33.361c-1.406,0-2.728-0.547-3.721-1.54c-2.052-2.052-2.051-5.393,0.002-7.447
			c0.996-0.995,2.318-1.543,3.726-1.543c1.406,0,2.728,0.548,3.72,1.541c0.994,0.993,1.542,2.315,1.541,3.722
			c0,1.407-0.549,2.729-1.543,3.724C985.902,32.813,984.579,33.361,983.173,33.361z M983.18,23.832c-1.14,0-2.212,0.444-3.019,1.25
			c-1.662,1.665-1.664,4.37-0.002,6.032c0.805,0.805,1.875,1.247,3.014,1.247l0,0c1.14,0,2.211-0.444,3.018-1.25
			c0.806-0.805,1.25-1.877,1.25-3.017c0.001-1.14-0.442-2.21-1.248-3.015C985.389,24.275,984.318,23.832,983.18,23.832z"/>
	</g>
	<g>
		<g>
			<defs>
				
					<rect id="SVGID_5_" x="978.683" y="23.609" transform="matrix(0.7072 -0.707 0.707 0.7072 267.9944 703.3306)" width="8.987" height="8.976"/>
			</defs>
			<clipPath id="SVGID_6_">
				<use xlink:href="#SVGID_5_"  overflow="visible"/>
			</clipPath>
			<g clip-path="url(#SVGID_6_)">
				<path fill="#BEBEBD" d="M979.999,31.273c1.754,1.754,4.596,1.751,6.351-0.003c1.754-1.755,1.756-4.599,0.003-6.351
					c-1.752-1.753-4.596-1.752-6.35,0.003C978.248,26.677,978.247,29.521,979.999,31.273"/>
			</g>
			<g clip-path="url(#SVGID_6_)">
				<path fill="#C0C0C0" d="M980.075,31.199c1.711,1.711,4.486,1.709,6.199-0.004c1.715-1.713,1.715-4.489,0.004-6.201
					c-1.711-1.711-4.488-1.711-6.201,0.004C978.364,26.711,978.362,29.487,980.075,31.199"/>
			</g>
			<g clip-path="url(#SVGID_6_)">
				<path fill="#C2C3C3" d="M980.149,31.125c1.67,1.669,4.38,1.669,6.051-0.002c1.672-1.673,1.674-4.382,0.004-6.052
					s-4.381-1.67-6.053,0.001C978.479,26.744,978.479,29.455,980.149,31.125"/>
			</g>
			<g clip-path="url(#SVGID_6_)">
				<path fill="#C4C5C4" d="M980.224,31.05c1.629,1.629,4.271,1.628,5.902-0.002c1.631-1.632,1.633-4.274,0.004-5.903
					c-1.631-1.629-4.272-1.628-5.903,0.002C978.595,26.777,978.595,29.421,980.224,31.05"/>
			</g>
			<g clip-path="url(#SVGID_6_)">
				<path fill="#C6C8C8" d="M980.298,30.975c1.588,1.588,4.164,1.586,5.754-0.002c1.589-1.59,1.59-4.166,0.002-5.754
					c-1.588-1.587-4.164-1.587-5.754,0.004C978.712,26.811,978.71,29.387,980.298,30.975"/>
			</g>
			<g clip-path="url(#SVGID_6_)">
				<path fill="#C9CACB" d="M980.374,30.9c1.545,1.546,4.055,1.545,5.603-0.003c1.549-1.548,1.549-4.057,0.002-5.604
					c-1.546-1.547-4.056-1.546-5.603,0.002C978.827,26.844,978.827,29.354,980.374,30.9"/>
			</g>
			<g clip-path="url(#SVGID_6_)">
				<path fill="#CBCDCD" d="M980.448,30.826c1.504,1.505,3.946,1.504,5.454-0.004c1.507-1.506,1.507-3.949,0.003-5.454
					c-1.506-1.505-3.947-1.505-5.455,0.002S978.942,29.32,980.448,30.826"/>
			</g>
			<g clip-path="url(#SVGID_6_)">
				<path fill="#CCCFD0" d="M980.522,30.75c1.463,1.465,3.84,1.465,5.305-0.002c1.467-1.465,1.467-3.842,0.004-5.305
					c-1.465-1.465-3.842-1.464-5.307,0.001C979.059,26.91,979.058,29.285,980.522,30.75"/>
			</g>
			<g clip-path="url(#SVGID_6_)">
				<path fill="#D0D2D2" d="M980.599,30.676c1.421,1.422,3.73,1.422,5.154-0.002s1.426-3.734,0.002-5.155
					c-1.423-1.424-3.732-1.423-5.156,0.001S979.175,29.253,980.599,30.676"/>
			</g>
			<g clip-path="url(#SVGID_6_)">
				<path fill="#D2D4D5" d="M980.671,30.602c1.383,1.381,3.624,1.38,5.008-0.002c1.382-1.384,1.383-3.626,0.002-5.007
					c-1.382-1.382-3.623-1.382-5.006,0.002C979.291,26.979,979.29,29.22,980.671,30.602"/>
			</g>
		</g>
	</g>
	<g>
		<polygon fill="#605F5E" points="985.499,29.59 984.005,28.098 985.501,26.602 984.671,25.771 983.177,27.268 981.683,25.772 
			980.852,26.604 982.347,28.098 980.851,29.593 981.681,30.422 983.175,28.927 984.669,30.42 		"/>
	</g>
	<g>
		<path fill="#221714" d="M981.683,25.917l1.35,1.35l0.145,0.143l0.144-0.144l1.351-1.351l0.686,0.686l-1.352,1.351l-0.143,0.146
			l0.143,0.143l1.35,1.35l-0.686,0.686l-1.35-1.349l-0.145-0.145l-0.143,0.145l-1.352,1.351l-0.686-0.685l1.352-1.352l0.144-0.144
			l-0.144-0.145l-1.352-1.35L981.683,25.917z M982.202,28.098l-1.494,1.495l0.973,0.972l1.494-1.494l1.494,1.494l0.974-0.975
			l-1.493-1.492l1.495-1.496l-0.974-0.973l-1.494,1.494l-1.494-1.493l-0.973,0.974L982.202,28.098z"/>
	</g>
</g>
<g>
	<g>
		<path fill="#AFAEAE" d="M1158.122,32.685c2.529,2.531,6.637,2.528,9.17-0.005s2.535-6.64,0.004-9.17
			c-2.531-2.531-6.637-2.53-9.17,0.004C1155.591,26.047,1155.591,30.153,1158.122,32.685"/>
	</g>
	<g>
		<path fill="#929292" d="M1162.702,35.081L1162.702,35.081c-1.865,0-3.617-0.726-4.935-2.042c-1.318-1.319-2.044-3.073-2.044-4.939
			c0.001-1.866,0.729-3.62,2.049-4.939c1.319-1.32,3.074-2.048,4.941-2.048c1.865,0,3.617,0.726,4.936,2.044
			s2.045,3.072,2.043,4.938c0,1.866-0.728,3.62-2.048,4.939C1166.324,34.354,1164.569,35.081,1162.702,35.081z M1162.714,22.112
			c-1.6,0-3.104,0.623-4.235,1.755c-1.131,1.131-1.754,2.634-1.755,4.232c0,1.599,0.621,3.102,1.752,4.231
			c1.128,1.129,2.629,1.75,4.227,1.75l0,0c1.6,0,3.104-0.623,4.235-1.755c1.132-1.131,1.755-2.634,1.755-4.232
			c0.002-1.599-0.62-3.102-1.75-4.23C1165.813,22.734,1164.312,22.112,1162.714,22.112z"/>
	</g>
	<g>
		<path fill="#AFAEAE" d="M1159.338,31.468c1.86,1.859,4.878,1.858,6.737-0.003c1.862-1.861,1.863-4.879,0.004-6.738
			c-1.859-1.86-4.877-1.858-6.738,0.002C1157.479,26.591,1157.478,29.607,1159.338,31.468"/>
	</g>
	<g>
		<path fill="#929292" d="M1162.705,33.361L1162.705,33.361c-1.406,0-2.728-0.547-3.721-1.54c-2.052-2.052-2.051-5.393,0.003-7.447
			c0.994-0.995,2.318-1.543,3.725-1.543s2.727,0.548,3.721,1.541s1.541,2.315,1.541,3.722c-0.002,1.407-0.549,2.729-1.545,3.724
			C1165.435,32.813,1164.112,33.361,1162.705,33.361z M1162.712,23.832c-1.14,0-2.212,0.444-3.018,1.25
			c-1.664,1.665-1.664,4.37-0.003,6.032c0.805,0.805,1.874,1.247,3.013,1.247h0.001c1.14,0,2.211-0.444,3.017-1.25
			c0.807-0.805,1.251-1.877,1.252-3.017c0-1.14-0.443-2.21-1.248-3.015S1163.851,23.832,1162.712,23.832z"/>
	</g>
	<g>
		<g>
			<defs>
				
					<rect id="SVGID_7_" x="1158.215" y="23.609" transform="matrix(0.7072 -0.707 0.707 0.7072 320.5585 830.2592)" width="8.987" height="8.976"/>
			</defs>
			<clipPath id="SVGID_8_">
				<use xlink:href="#SVGID_7_"  overflow="visible"/>
			</clipPath>
			<g clip-path="url(#SVGID_8_)">
				<path fill="#BEBEBD" d="M1159.532,31.273c1.752,1.754,4.596,1.751,6.35-0.003c1.754-1.755,1.756-4.599,0.004-6.351
					c-1.754-1.753-4.596-1.752-6.351,0.003C1157.78,26.677,1157.778,29.521,1159.532,31.273"/>
			</g>
			<g clip-path="url(#SVGID_8_)">
				<path fill="#C0C0C0" d="M1159.606,31.199c1.711,1.711,4.488,1.709,6.201-0.004s1.713-4.489,0.003-6.201
					c-1.712-1.711-4.487-1.711-6.201,0.004C1157.896,26.711,1157.895,29.487,1159.606,31.199"/>
			</g>
			<g clip-path="url(#SVGID_8_)">
				<path fill="#C2C3C3" d="M1159.681,31.125c1.67,1.669,4.381,1.669,6.053-0.002c1.672-1.673,1.672-4.382,0.002-6.052
					s-4.379-1.67-6.052,0.001C1158.013,26.744,1158.011,29.455,1159.681,31.125"/>
			</g>
			<g clip-path="url(#SVGID_8_)">
				<path fill="#C4C5C4" d="M1159.757,31.05c1.629,1.629,4.271,1.628,5.902-0.002c1.63-1.632,1.631-4.274,0.002-5.903
					s-4.271-1.628-5.902,0.002C1158.128,26.777,1158.126,29.421,1159.757,31.05"/>
			</g>
			<g clip-path="url(#SVGID_8_)">
				<path fill="#C6C8C8" d="M1159.831,30.975c1.587,1.588,4.162,1.586,5.752-0.002c1.59-1.59,1.59-4.166,0.004-5.754
					c-1.588-1.587-4.164-1.587-5.754,0.004C1158.243,26.811,1158.243,29.387,1159.831,30.975"/>
			</g>
			<g clip-path="url(#SVGID_8_)">
				<path fill="#C9CACB" d="M1159.905,30.9c1.547,1.546,4.055,1.545,5.604-0.003s1.549-4.057,0.002-5.604s-4.055-1.546-5.604,0.002
					C1158.359,26.844,1158.358,29.354,1159.905,30.9"/>
			</g>
			<g clip-path="url(#SVGID_8_)">
				<path fill="#CBCDCD" d="M1159.979,30.826c1.506,1.505,3.947,1.504,5.455-0.004c1.506-1.506,1.508-3.949,0.002-5.454
					s-3.947-1.505-5.455,0.002C1158.476,26.877,1158.475,29.32,1159.979,30.826"/>
			</g>
			<g clip-path="url(#SVGID_8_)">
				<path fill="#CCCFD0" d="M1160.056,30.75c1.462,1.465,3.839,1.465,5.305-0.002c1.465-1.465,1.465-3.842,0.002-5.305
					c-1.465-1.465-3.84-1.464-5.305,0.001C1158.591,26.91,1158.591,29.285,1160.056,30.75"/>
			</g>
			<g clip-path="url(#SVGID_8_)">
				<path fill="#D0D2D2" d="M1160.13,30.676c1.422,1.422,3.73,1.422,5.154-0.002c1.426-1.424,1.426-3.734,0.004-5.155
					c-1.424-1.424-3.732-1.423-5.156,0.001C1158.706,26.943,1158.706,29.253,1160.13,30.676"/>
			</g>
			<g clip-path="url(#SVGID_8_)">
				<path fill="#D2D4D5" d="M1160.204,30.602c1.381,1.381,3.623,1.38,5.006-0.002c1.383-1.384,1.385-3.626,0.003-5.007
					c-1.382-1.382-3.624-1.382-5.007,0.002S1158.823,29.22,1160.204,30.602"/>
			</g>
		</g>
	</g>
	<g>
		<polygon fill="#605F5E" points="1165.032,29.59 1163.538,28.098 1165.034,26.602 1164.204,25.771 1162.708,27.268 
			1161.216,25.772 1160.384,26.604 1161.878,28.098 1160.384,29.593 1161.212,30.422 1162.708,28.927 1164.202,30.42 		"/>
	</g>
	<g>
		<path fill="#221714" d="M1161.216,25.917l1.35,1.35l0.143,0.143l0.145-0.144l1.352-1.351l0.686,0.686l-1.352,1.351l-0.145,0.146
			l0.145,0.143l1.35,1.35l-0.687,0.686l-1.351-1.349l-0.143-0.145l-0.145,0.145l-1.351,1.351l-0.687-0.685l1.352-1.352l0.145-0.144
			l-0.145-0.145l-1.35-1.35L1161.216,25.917z M1161.735,28.098l-1.496,1.495l0.974,0.972l1.495-1.494l1.494,1.494l0.973-0.975
			l-1.494-1.492l1.496-1.496l-0.973-0.973l-1.496,1.494l-1.492-1.493l-0.975,0.974L1161.735,28.098z"/>
	</g>
</g>
<g>
	<path fill="#7583B9" d="M972.368,107.072c0,5.021-3.404,9.09-7.602,9.09H778.339c-4.197,0-7.6-4.068-7.6-9.09V27.331
		c0-5.022,3.402-9.092,7.6-9.092h186.428c4.197,0,7.602,4.07,7.602,9.092V107.072z"/>
	<path fill="#181919" d="M964.767,116.662H778.339c-4.467,0-8.1-4.302-8.1-9.59V27.331c0-5.29,3.633-9.592,8.1-9.592h186.428
		c4.467,0,8.102,4.303,8.102,9.592v79.742C972.868,112.36,969.233,116.662,964.767,116.662z M778.339,18.738
		c-3.915,0-7.1,3.854-7.1,8.592v79.742c0,4.736,3.185,8.59,7.1,8.59h186.428c3.916,0,7.102-3.854,7.102-8.59V27.331
		c0-4.738-3.186-8.592-7.102-8.592H778.339z"/>
</g>
<g>
	<g>
		<path fill="#AFAEAE" d="M776.961,32.685c2.53,2.531,6.637,2.528,9.17-0.005c2.534-2.533,2.535-6.64,0.005-9.17
			c-2.532-2.531-6.638-2.53-9.171,0.004C774.431,26.047,774.43,30.153,776.961,32.685"/>
	</g>
	<g>
		<path fill="#929292" d="M781.542,35.081C781.541,35.081,781.541,35.081,781.542,35.081c-1.865,0-3.617-0.726-4.935-2.042
			c-1.319-1.319-2.045-3.073-2.044-4.939c0-1.866,0.729-3.62,2.048-4.939c1.319-1.32,3.075-2.048,4.942-2.048
			c1.864,0,3.617,0.726,4.936,2.044s2.044,3.072,2.043,4.938c-0.001,1.866-0.729,3.62-2.048,4.939
			C785.163,34.354,783.408,35.081,781.542,35.081z M781.554,22.112c-1.6,0-3.104,0.623-4.235,1.755
			c-1.132,1.131-1.755,2.634-1.755,4.232c-0.001,1.599,0.621,3.102,1.751,4.231c1.128,1.129,2.63,1.75,4.227,1.75h0.001
			c1.6,0,3.104-0.623,4.235-1.755c1.131-1.131,1.755-2.634,1.755-4.232c0.001-1.599-0.621-3.102-1.75-4.23
			S783.151,22.112,781.554,22.112z"/>
	</g>
	<g>
		<path fill="#AFAEAE" d="M778.177,31.468c1.86,1.859,4.878,1.858,6.738-0.003c1.861-1.861,1.863-4.879,0.003-6.738
			c-1.859-1.86-4.877-1.858-6.738,0.002C776.318,26.591,776.317,29.607,778.177,31.468"/>
	</g>
	<g>
		<path fill="#929292" d="M781.544,33.361L781.544,33.361c-1.406,0-2.727-0.547-3.721-1.54c-2.051-2.052-2.05-5.393,0.003-7.447
			c0.995-0.995,2.318-1.543,3.726-1.543c1.406,0,2.727,0.548,3.72,1.541c0.994,0.993,1.541,2.315,1.541,3.722
			c-0.001,1.407-0.549,2.729-1.544,3.724C784.274,32.813,782.951,33.361,781.544,33.361z M781.552,23.832
			c-1.141,0-2.213,0.444-3.019,1.25c-1.663,1.665-1.664,4.37-0.003,6.032c0.805,0.805,1.875,1.247,3.014,1.247l0,0
			c1.14,0,2.211-0.444,3.018-1.25c0.807-0.805,1.25-1.877,1.251-3.017c0-1.14-0.442-2.21-1.248-3.015
			C783.761,24.275,782.69,23.832,781.552,23.832z"/>
	</g>
	<g>
		<g>
			<defs>
				
					<rect id="SVGID_9_" x="777.055" y="23.609" transform="matrix(0.7072 -0.707 0.707 0.7072 208.9605 560.7793)" width="8.987" height="8.976"/>
			</defs>
			<clipPath id="SVGID_10_">
				<use xlink:href="#SVGID_9_"  overflow="visible"/>
			</clipPath>
			<g clip-path="url(#SVGID_10_)">
				<path fill="#BEBEBD" d="M778.371,31.273c1.753,1.754,4.596,1.751,6.351-0.003c1.754-1.755,1.755-4.599,0.003-6.351
					c-1.753-1.753-4.596-1.752-6.351,0.003C776.62,26.677,776.618,29.521,778.371,31.273"/>
			</g>
			<g clip-path="url(#SVGID_10_)">
				<path fill="#C0C0C0" d="M778.446,31.199c1.711,1.711,4.487,1.709,6.2-0.004c1.714-1.713,1.714-4.489,0.004-6.201
					c-1.712-1.711-4.488-1.711-6.202,0.004C776.735,26.711,776.734,29.487,778.446,31.199"/>
			</g>
			<g clip-path="url(#SVGID_10_)">
				<path fill="#C2C3C3" d="M778.521,31.125c1.67,1.669,4.381,1.669,6.052-0.002c1.672-1.673,1.673-4.382,0.003-6.052
					s-4.38-1.67-6.053,0.001C776.852,26.744,776.851,29.455,778.521,31.125"/>
			</g>
			<g clip-path="url(#SVGID_10_)">
				<path fill="#C4C5C4" d="M778.596,31.05c1.629,1.629,4.271,1.628,5.902-0.002c1.63-1.632,1.632-4.274,0.003-5.903
					c-1.63-1.629-4.272-1.628-5.902,0.002C776.967,26.777,776.966,29.421,778.596,31.05"/>
			</g>
			<g clip-path="url(#SVGID_10_)">
				<path fill="#C6C8C8" d="M778.67,30.975c1.587,1.588,4.163,1.586,5.753-0.002c1.59-1.59,1.59-4.166,0.003-5.754
					c-1.588-1.587-4.164-1.587-5.754,0.004C777.083,26.811,777.082,29.387,778.67,30.975"/>
			</g>
			<g clip-path="url(#SVGID_10_)">
				<path fill="#C9CACB" d="M778.745,30.9c1.546,1.546,4.055,1.545,5.604-0.003s1.549-4.057,0.002-5.604s-4.056-1.546-5.604,0.002
					C777.198,26.844,777.198,29.354,778.745,30.9"/>
			</g>
			<g clip-path="url(#SVGID_10_)">
				<path fill="#CBCDCD" d="M778.819,30.826c1.505,1.505,3.947,1.504,5.455-0.004c1.506-1.506,1.507-3.949,0.002-5.454
					c-1.506-1.505-3.947-1.505-5.455,0.002C777.314,26.877,777.313,29.32,778.819,30.826"/>
			</g>
			<g clip-path="url(#SVGID_10_)">
				<path fill="#CCCFD0" d="M778.895,30.75c1.463,1.465,3.84,1.465,5.305-0.002c1.466-1.465,1.466-3.842,0.003-5.305
					c-1.465-1.465-3.841-1.464-5.306,0.001C777.431,26.91,777.43,29.285,778.895,30.75"/>
			</g>
			<g clip-path="url(#SVGID_10_)">
				<path fill="#D0D2D2" d="M778.97,30.676c1.422,1.422,3.73,1.422,5.154-0.002c1.425-1.424,1.426-3.734,0.003-5.155
					c-1.423-1.424-3.732-1.423-5.156,0.001C777.546,26.943,777.546,29.253,778.97,30.676"/>
			</g>
			<g clip-path="url(#SVGID_10_)">
				<path fill="#D2D4D5" d="M779.043,30.602c1.382,1.381,3.624,1.38,5.007-0.002c1.383-1.384,1.384-3.626,0.002-5.007
					c-1.381-1.382-3.623-1.382-5.006,0.002S777.662,29.22,779.043,30.602"/>
			</g>
		</g>
	</g>
	<g>
		<polygon fill="#605F5E" points="783.871,29.59 782.377,28.098 783.873,26.602 783.043,25.771 781.548,27.268 780.055,25.772 
			779.224,26.604 780.718,28.098 779.223,29.593 780.052,30.422 781.547,28.927 783.041,30.42 		"/>
	</g>
	<g>
		<path fill="#221714" d="M780.055,25.917l1.35,1.35l0.144,0.143l0.145-0.144l1.351-1.351l0.686,0.686l-1.352,1.351l-0.144,0.146
			l0.144,0.143l1.35,1.35l-0.687,0.686l-1.35-1.349l-0.144-0.145l-0.144,0.145l-1.352,1.351l-0.686-0.685l1.352-1.352l0.145-0.144
			l-0.145-0.145l-1.351-1.35L780.055,25.917z M780.574,28.098l-1.495,1.495l0.973,0.972l1.495-1.494l1.494,1.494l0.974-0.975
			l-1.494-1.492l1.496-1.496l-0.974-0.973l-1.495,1.494l-1.493-1.493l-0.974,0.974L780.574,28.098z"/>
	</g>
</g>
<g>
	<g>
		<path fill="#AFAEAE" d="M956.493,32.685c2.53,2.531,6.637,2.528,9.17-0.005s2.535-6.64,0.005-9.17
			c-2.532-2.531-6.638-2.53-9.171,0.004C953.963,26.047,953.962,30.153,956.493,32.685"/>
	</g>
	<g>
		<path fill="#929292" d="M961.073,35.081L961.073,35.081c-1.865,0-3.617-0.726-4.934-2.042c-1.318-1.319-2.045-3.073-2.044-4.939
			s0.728-3.62,2.048-4.939c1.32-1.32,3.075-2.048,4.941-2.048c1.865,0,3.618,0.726,4.937,2.044s2.044,3.072,2.043,4.938
			c-0.001,1.866-0.728,3.62-2.048,4.939C964.696,34.354,962.94,35.081,961.073,35.081z M961.085,22.112
			c-1.6,0-3.104,0.623-4.234,1.755c-1.131,1.131-1.754,2.634-1.755,4.232s0.621,3.102,1.751,4.231
			c1.129,1.129,2.629,1.75,4.227,1.75l0,0c1.6,0,3.104-0.623,4.236-1.755c1.131-1.131,1.754-2.634,1.755-4.232
			s-0.62-3.102-1.75-4.23S962.683,22.112,961.085,22.112z"/>
	</g>
	<g>
		<path fill="#AFAEAE" d="M957.71,31.468c1.859,1.859,4.877,1.858,6.737-0.003c1.861-1.861,1.863-4.879,0.003-6.738
			c-1.859-1.86-4.877-1.858-6.738,0.002C955.851,26.591,955.85,29.607,957.71,31.468"/>
	</g>
	<g>
		<path fill="#929292" d="M961.077,33.361C961.076,33.361,961.076,33.361,961.077,33.361c-1.406,0-2.729-0.547-3.721-1.54
			c-2.053-2.052-2.051-5.393,0.002-7.447c0.995-0.995,2.318-1.543,3.725-1.543s2.728,0.548,3.721,1.541
			c0.994,0.993,1.541,2.315,1.541,3.722c-0.001,1.407-0.549,2.729-1.544,3.724C963.806,32.813,962.483,33.361,961.077,33.361z
			 M961.083,23.832c-1.139,0-2.211,0.444-3.018,1.25c-1.663,1.665-1.664,4.37-0.003,6.032c0.806,0.805,1.875,1.247,3.014,1.247
			h0.001c1.139,0,2.211-0.444,3.017-1.25c0.806-0.805,1.251-1.877,1.251-3.017s-0.443-2.21-1.248-3.015
			S962.222,23.832,961.083,23.832z"/>
	</g>
	<g>
		<g>
			<defs>
				
					<rect id="SVGID_11_" x="956.587" y="23.609" transform="matrix(0.7072 -0.707 0.707 0.7072 261.5248 687.7083)" width="8.987" height="8.976"/>
			</defs>
			<clipPath id="SVGID_12_">
				<use xlink:href="#SVGID_11_"  overflow="visible"/>
			</clipPath>
			<g clip-path="url(#SVGID_12_)">
				<path fill="#BEBEBD" d="M957.903,31.273c1.753,1.754,4.596,1.751,6.35-0.003c1.755-1.755,1.756-4.599,0.004-6.351
					c-1.753-1.753-4.596-1.752-6.35,0.003C956.151,26.677,956.15,29.521,957.903,31.273"/>
			</g>
			<g clip-path="url(#SVGID_12_)">
				<path fill="#C0C0C0" d="M957.979,31.199c1.711,1.711,4.487,1.709,6.2-0.004c1.714-1.713,1.714-4.489,0.004-6.201
					c-1.712-1.711-4.488-1.711-6.201,0.004C956.268,26.711,956.267,29.487,957.979,31.199"/>
			</g>
			<g clip-path="url(#SVGID_12_)">
				<path fill="#C2C3C3" d="M958.053,31.125c1.67,1.669,4.38,1.669,6.052-0.002c1.672-1.673,1.673-4.382,0.003-6.052
					s-4.38-1.67-6.052,0.001C956.384,26.744,956.382,29.455,958.053,31.125"/>
			</g>
			<g clip-path="url(#SVGID_12_)">
				<path fill="#C4C5C4" d="M958.128,31.05c1.629,1.629,4.271,1.628,5.902-0.002c1.631-1.632,1.632-4.274,0.003-5.903
					c-1.63-1.629-4.272-1.628-5.902,0.002C956.499,26.777,956.498,29.421,958.128,31.05"/>
			</g>
			<g clip-path="url(#SVGID_12_)">
				<path fill="#C6C8C8" d="M958.202,30.975c1.588,1.588,4.163,1.586,5.753-0.002c1.589-1.59,1.59-4.166,0.003-5.754
					c-1.588-1.587-4.164-1.587-5.754,0.004C956.615,26.811,956.614,29.387,958.202,30.975"/>
			</g>
			<g clip-path="url(#SVGID_12_)">
				<path fill="#C9CACB" d="M958.277,30.9c1.546,1.546,4.055,1.545,5.603-0.003c1.549-1.548,1.549-4.057,0.003-5.604
					c-1.547-1.547-4.056-1.546-5.604,0.002S956.73,29.354,958.277,30.9"/>
			</g>
			<g clip-path="url(#SVGID_12_)">
				<path fill="#CBCDCD" d="M958.352,30.826c1.505,1.505,3.947,1.504,5.454-0.004c1.507-1.506,1.508-3.949,0.003-5.454
					c-1.506-1.505-3.947-1.505-5.455,0.002C956.847,26.877,956.847,29.32,958.352,30.826"/>
			</g>
			<g clip-path="url(#SVGID_12_)">
				<path fill="#CCCFD0" d="M958.427,30.75c1.463,1.465,3.84,1.465,5.305-0.002c1.466-1.465,1.466-3.842,0.003-5.305
					c-1.465-1.465-3.841-1.464-5.306,0.001C956.963,26.91,956.962,29.285,958.427,30.75"/>
			</g>
			<g clip-path="url(#SVGID_12_)">
				<path fill="#D0D2D2" d="M958.502,30.676c1.422,1.422,3.73,1.422,5.154-0.002c1.425-1.424,1.426-3.734,0.003-5.155
					c-1.424-1.424-3.732-1.423-5.156,0.001C957.078,26.943,957.078,29.253,958.502,30.676"/>
			</g>
			<g clip-path="url(#SVGID_12_)">
				<path fill="#D2D4D5" d="M958.575,30.602c1.382,1.381,3.623,1.38,5.007-0.002c1.383-1.384,1.384-3.626,0.003-5.007
					c-1.383-1.382-3.624-1.382-5.007,0.002C957.194,26.979,957.194,29.22,958.575,30.602"/>
			</g>
		</g>
	</g>
	<g>
		<polygon fill="#605F5E" points="963.403,29.59 961.909,28.098 963.405,26.602 962.575,25.771 961.08,27.268 959.587,25.772 
			958.756,26.604 960.25,28.098 958.755,29.593 959.584,30.422 961.079,28.927 962.573,30.42 		"/>
	</g>
	<g>
		<path fill="#221714" d="M959.587,25.917l1.35,1.35l0.144,0.143l0.144-0.144l1.352-1.351l0.686,0.686l-1.352,1.351l-0.144,0.146
			l0.144,0.143l1.35,1.35l-0.686,0.686l-1.351-1.349l-0.144-0.145l-0.144,0.145l-1.351,1.351l-0.687-0.685l1.352-1.352l0.144-0.144
			l-0.144-0.145l-1.351-1.35L959.587,25.917z M960.106,28.098l-1.495,1.495l0.974,0.972l1.494-1.494l1.494,1.494l0.974-0.975
			l-1.494-1.492l1.496-1.496l-0.974-0.973l-1.495,1.494l-1.493-1.493l-0.974,0.974L960.106,28.098z"/>
	</g>
</g>
<g>
	<circle fill="#181919" cx="559.925" cy="15.477" r="3.946"/>
</g>
<g>
	<circle fill="#181919" cx="559.925" cy="28.835" r="3.946"/>
</g>
<g>
	<circle fill="#181919" cx="559.925" cy="44.02" r="3.946"/>
</g>
<g>
	<circle fill="#181919" cx="570.937" cy="22.441" r="3.946"/>
</g>
<g>
	<circle fill="#181919" cx="570.937" cy="37.16" r="3.946"/>
</g>
<g>
	<circle fill="#181919" cx="581.504" cy="15.477" r="3.946"/>
</g>
<g>
	<circle fill="#181919" cx="581.504" cy="28.835" r="3.946"/>
</g>
<g>
	<circle fill="#181919" cx="581.504" cy="44.02" r="3.946"/>
</g>
<g>
	<circle fill="#181919" cx="592.968" cy="22.441" r="3.946"/>
</g>
<g>
	<circle fill="#181919" cx="592.968" cy="37.16" r="3.946"/>
</g>
<g>
	<circle fill="#181919" cx="603.535" cy="15.477" r="3.946"/>
</g>
<g>
	<circle fill="#181919" cx="603.535" cy="28.835" r="3.946"/>
</g>
<g>
	<circle fill="#181919" cx="603.535" cy="44.02" r="3.946"/>
</g>
<g>
	<circle fill="#181919" cx="615.612" cy="22.441" r="3.946"/>
</g>
<g>
	<circle fill="#181919" cx="615.612" cy="37.16" r="3.946"/>
</g>
<g>
	<circle fill="#181919" cx="626.179" cy="15.477" r="3.946"/>
</g>
<g>
	<circle fill="#181919" cx="626.179" cy="28.835" r="3.946"/>
</g>
<g>
	<circle fill="#181919" cx="626.179" cy="44.02" r="3.946"/>
</g>
<g>
	<circle fill="#181919" cx="638.256" cy="22.441" r="3.946"/>
</g>
<g>
	<circle fill="#181919" cx="638.256" cy="37.16" r="3.946"/>
</g>
<g>
	<circle fill="#181919" cx="648.824" cy="15.477" r="3.946"/>
</g>
<g>
	<circle fill="#181919" cx="648.824" cy="28.835" r="3.946"/>
</g>
<g>
	<circle fill="#181919" cx="648.824" cy="44.02" r="3.946"/>
</g>
<g>
	<circle fill="#181919" cx="660.9" cy="22.441" r="3.946"/>
</g>
<g>
	<circle fill="#181919" cx="660.9" cy="37.16" r="3.946"/>
</g>
<g>
	<circle fill="#181919" cx="671.469" cy="15.477" r="3.946"/>
</g>
<g>
	<circle fill="#181919" cx="671.469" cy="28.835" r="3.946"/>
</g>
<g>
	<circle fill="#181919" cx="671.469" cy="44.02" r="3.946"/>
</g>
<g>
	<circle fill="#181919" cx="683.545" cy="22.441" r="3.946"/>
</g>
<g>
	<circle fill="#181919" cx="683.545" cy="37.16" r="3.946"/>
</g>
<g>
	<circle fill="#181919" cx="694.113" cy="15.477" r="3.946"/>
</g>
<g>
	<circle fill="#181919" cx="694.113" cy="28.835" r="3.946"/>
</g>
<g>
	<circle fill="#181919" cx="694.113" cy="44.02" r="3.946"/>
</g>
<g>
	<circle fill="#181919" cx="706.189" cy="22.441" r="3.946"/>
</g>
<g>
	<circle fill="#181919" cx="706.189" cy="37.16" r="3.946"/>
</g>
<g>
	<circle fill="#181919" cx="716.757" cy="15.477" r="3.947"/>
</g>
<g>
	<circle fill="#181919" cx="716.757" cy="28.835" r="3.947"/>
</g>
<g>
	<circle fill="#181919" cx="716.757" cy="44.02" r="3.947"/>
</g>
<g>
	<circle fill="#181919" cx="728.834" cy="22.441" r="3.946"/>
</g>
<g>
	<circle fill="#181919" cx="728.834" cy="37.16" r="3.946"/>
</g>
<g>
	<circle fill="#181919" cx="739.402" cy="15.477" r="3.946"/>
</g>
<g>
	<circle fill="#181919" cx="739.402" cy="28.835" r="3.946"/>
</g>
<g>
	<circle fill="#181919" cx="739.402" cy="44.02" r="3.946"/>
</g>
<g>
	<circle fill="#181919" cx="796.189" cy="26.608" r="3.328"/>
</g>
<g>
	<circle fill="#181919" cx="796.189" cy="37.872" r="3.328"/>
</g>
<g>
	<circle fill="#181919" cx="796.189" cy="50.677" r="3.328"/>
</g>
<g>
	<circle fill="#181919" cx="805.474" cy="32.481" r="3.328"/>
</g>
<g>
	<circle fill="#181919" cx="805.474" cy="44.893" r="3.328"/>
</g>
<g>
	<circle fill="#181919" cx="814.385" cy="26.608" r="3.327"/>
</g>
<g>
	<circle fill="#181919" cx="814.385" cy="37.872" r="3.327"/>
</g>
<g>
	<circle fill="#181919" cx="814.385" cy="50.677" r="3.327"/>
</g>
<g>
	<circle fill="#181919" cx="824.051" cy="32.481" r="3.327"/>
</g>
<g>
	<circle fill="#181919" cx="824.051" cy="44.893" r="3.327"/>
</g>
<g>
	<circle fill="#181919" cx="832.961" cy="26.608" r="3.327"/>
</g>
<g>
	<circle fill="#181919" cx="832.961" cy="37.872" r="3.327"/>
</g>
<g>
	<circle fill="#181919" cx="832.961" cy="50.677" r="3.327"/>
</g>
<g>
	<circle fill="#181919" cx="843.145" cy="32.481" r="3.327"/>
</g>
<g>
	<circle fill="#181919" cx="843.145" cy="44.893" r="3.327"/>
</g>
<g>
	<circle fill="#181919" cx="852.055" cy="26.608" r="3.328"/>
</g>
<g>
	<circle fill="#181919" cx="852.055" cy="37.872" r="3.328"/>
</g>
<g>
	<circle fill="#181919" cx="852.055" cy="50.677" r="3.328"/>
</g>
<g>
	<circle fill="#181919" cx="862.239" cy="32.481" r="3.328"/>
</g>
<g>
	<circle fill="#181919" cx="862.239" cy="44.893" r="3.328"/>
</g>
<g>
	<circle fill="#181919" cx="871.149" cy="26.608" r="3.327"/>
</g>
<g>
	<circle fill="#181919" cx="871.149" cy="37.872" r="3.327"/>
</g>
<g>
	<circle fill="#181919" cx="871.149" cy="50.677" r="3.327"/>
</g>
<g>
	<circle fill="#181919" cx="881.333" cy="32.481" r="3.328"/>
</g>
<g>
	<circle fill="#181919" cx="881.333" cy="44.893" r="3.328"/>
</g>
<g>
	<circle fill="#181919" cx="890.244" cy="26.608" r="3.327"/>
</g>
<g>
	<circle fill="#181919" cx="890.244" cy="37.872" r="3.327"/>
</g>
<g>
	<circle fill="#181919" cx="890.244" cy="50.677" r="3.327"/>
</g>
<g>
	<circle fill="#181919" cx="900.428" cy="32.481" r="3.327"/>
</g>
<g>
	<circle fill="#181919" cx="900.428" cy="44.893" r="3.327"/>
</g>
<g>
	<circle fill="#181919" cx="909.338" cy="26.608" r="3.328"/>
</g>
<g>
	<circle fill="#181919" cx="909.338" cy="37.872" r="3.328"/>
</g>
<g>
	<circle fill="#181919" cx="909.338" cy="50.677" r="3.328"/>
</g>
<g>
	<circle fill="#181919" cx="919.522" cy="32.481" r="3.328"/>
</g>
<g>
	<circle fill="#181919" cx="919.522" cy="44.893" r="3.328"/>
</g>
<g>
	<circle fill="#181919" cx="928.433" cy="26.608" r="3.328"/>
</g>
<g>
	<circle fill="#181919" cx="928.433" cy="37.872" r="3.328"/>
</g>
<g>
	<circle fill="#181919" cx="928.433" cy="50.677" r="3.328"/>
</g>
<g>
	<circle fill="#181919" cx="938.617" cy="32.481" r="3.328"/>
</g>
<g>
	<circle fill="#181919" cx="938.617" cy="44.893" r="3.328"/>
</g>
<g>
	<circle fill="#181919" cx="947.527" cy="26.608" r="3.327"/>
</g>
<g>
	<circle fill="#181919" cx="947.527" cy="37.872" r="3.327"/>
</g>
<g>
	<circle fill="#181919" cx="947.527" cy="50.677" r="3.327"/>
</g>
<g>
	<circle fill="#181919" cx="997.512" cy="26.608" r="3.328"/>
</g>
<g>
	<circle fill="#181919" cx="997.512" cy="37.872" r="3.328"/>
</g>
<g>
	<circle fill="#181919" cx="997.512" cy="50.677" r="3.328"/>
</g>
<g>
	<circle fill="#181919" cx="1006.797" cy="32.481" r="3.328"/>
</g>
<g>
	<circle fill="#181919" cx="1006.797" cy="44.893" r="3.328"/>
</g>
<g>
	<circle fill="#181919" cx="1015.708" cy="26.608" r="3.328"/>
</g>
<g>
	<circle fill="#181919" cx="1015.708" cy="37.872" r="3.328"/>
</g>
<g>
	<circle fill="#181919" cx="1015.708" cy="50.677" r="3.328"/>
</g>
<g>
	<circle fill="#181919" cx="1025.374" cy="32.481" r="3.327"/>
</g>
<g>
	<circle fill="#181919" cx="1025.374" cy="44.893" r="3.327"/>
</g>
<g>
	<circle fill="#181919" cx="1034.285" cy="26.608" r="3.328"/>
</g>
<g>
	<circle fill="#181919" cx="1034.285" cy="37.872" r="3.328"/>
</g>
<g>
	<circle fill="#181919" cx="1034.285" cy="50.677" r="3.328"/>
</g>
<g>
	<circle fill="#181919" cx="1044.468" cy="32.481" r="3.328"/>
</g>
<g>
	<circle fill="#181919" cx="1044.468" cy="44.893" r="3.328"/>
</g>
<g>
	<circle fill="#181919" cx="1053.379" cy="26.608" r="3.327"/>
</g>
<g>
	<circle fill="#181919" cx="1053.379" cy="37.872" r="3.327"/>
</g>
<g>
	<circle fill="#181919" cx="1053.379" cy="50.677" r="3.327"/>
</g>
<g>
	<circle fill="#181919" cx="1063.563" cy="32.481" r="3.328"/>
</g>
<g>
	<circle fill="#181919" cx="1063.563" cy="44.893" r="3.328"/>
</g>
<g>
	<circle fill="#181919" cx="1072.473" cy="26.608" r="3.328"/>
</g>
<g>
	<circle fill="#181919" cx="1072.473" cy="37.872" r="3.328"/>
</g>
<g>
	<circle fill="#181919" cx="1072.473" cy="50.677" r="3.328"/>
</g>
<g>
	<circle fill="#181919" cx="1082.657" cy="32.481" r="3.328"/>
</g>
<g>
	<circle fill="#181919" cx="1082.657" cy="44.893" r="3.328"/>
</g>
<g>
	<circle fill="#181919" cx="1091.568" cy="26.608" r="3.328"/>
</g>
<g>
	<circle fill="#181919" cx="1091.568" cy="37.872" r="3.328"/>
</g>
<g>
	<circle fill="#181919" cx="1091.568" cy="50.677" r="3.328"/>
</g>
<g>
	<circle fill="#181919" cx="1101.751" cy="32.481" r="3.328"/>
</g>
<g>
	<circle fill="#181919" cx="1101.751" cy="44.893" r="3.328"/>
</g>
<g>
	<circle fill="#181919" cx="1110.662" cy="26.608" r="3.327"/>
</g>
<g>
	<circle fill="#181919" cx="1110.662" cy="37.872" r="3.327"/>
</g>
<g>
	<circle fill="#181919" cx="1110.662" cy="50.677" r="3.327"/>
</g>
<g>
	<circle fill="#181919" cx="1120.846" cy="32.481" r="3.327"/>
</g>
<g>
	<circle fill="#181919" cx="1120.846" cy="44.893" r="3.327"/>
</g>
<g>
	<circle fill="#181919" cx="1129.756" cy="26.608" r="3.328"/>
</g>
<g>
	<circle fill="#181919" cx="1129.756" cy="37.872" r="3.328"/>
</g>
<g>
	<circle fill="#181919" cx="1129.756" cy="50.677" r="3.328"/>
</g>
<g>
	<circle fill="#181919" cx="1139.94" cy="32.481" r="3.328"/>
</g>
<g>
	<circle fill="#181919" cx="1139.94" cy="44.893" r="3.328"/>
</g>
<g>
	<circle fill="#181919" cx="1148.851" cy="26.608" r="3.328"/>
</g>
<g>
	<circle fill="#181919" cx="1148.851" cy="37.872" r="3.328"/>
</g>
<g>
	<circle fill="#181919" cx="1148.851" cy="50.677" r="3.328"/>
</g>
<g>
	<path fill="#F1F1F1" d="M428.192,95.352c0,2.387-1.791,4.322-4,4.322h-36.374c-2.209,0-4-1.936-4-4.322V19.798
		c0-2.387,1.791-4.321,4-4.321h36.374c2.209,0,4,1.935,4,4.321V95.352z"/>
	<path fill="#181919" d="M424.192,100.174h-36.374c-2.481,0-4.5-2.163-4.5-4.822V19.798c0-2.657,2.019-4.821,4.5-4.821h36.374
		c2.481,0,4.5,2.164,4.5,4.821v75.554C428.692,98.011,426.674,100.174,424.192,100.174z M387.818,15.977
		c-1.93,0-3.5,1.714-3.5,3.821v75.554c0,2.107,1.57,3.822,3.5,3.822h36.374c1.929,0,3.5-1.715,3.5-3.822V19.798
		c0-2.107-1.571-3.821-3.5-3.821H387.818z"/>
</g>
<g>
	<path fill="#F8F8FA" d="M573.278,111.164l0.71-0.119c0.105,0.344,0.276,0.625,0.513,0.849c0.236,0.224,0.532,0.329,0.888,0.315
		c0.354-0.013,0.637-0.158,0.848-0.434c0.21-0.276,0.302-0.592,0.276-0.947c-0.026-0.354-0.165-0.63-0.414-0.828
		c-0.25-0.197-0.651-0.335-1.203-0.414v-0.513c0.552-0.053,0.953-0.197,1.203-0.435c0.25-0.236,0.361-0.545,0.335-0.927
		c-0.026-0.381-0.197-0.657-0.513-0.828s-0.651-0.19-1.006-0.06c-0.355,0.132-0.638,0.5-0.848,1.104l-0.71-0.118
		c0.158-0.474,0.375-0.868,0.651-1.184c0.276-0.315,0.65-0.499,1.124-0.553c0.474-0.052,0.888,0.007,1.243,0.178
		c0.355,0.172,0.605,0.435,0.75,0.789c0.145,0.355,0.164,0.743,0.06,1.164c-0.105,0.421-0.408,0.789-0.908,1.104
		c0.368,0.158,0.651,0.395,0.848,0.71s0.263,0.729,0.197,1.245c-0.066,0.511-0.296,0.925-0.69,1.24s-0.842,0.468-1.341,0.454
		c-0.5-0.014-0.934-0.171-1.302-0.474C573.619,112.184,573.383,111.742,573.278,111.164z"/>
</g>
<g>
	<path fill="#F8F8FA" d="M385.944,107.111c-0.098,0.741-0.367,1.322-0.806,1.744c-0.439,0.421-0.995,0.631-1.667,0.631
		c-0.783,0-1.407-0.285-1.872-0.856s-0.697-1.34-0.697-2.308s0.241-1.739,0.724-2.313c0.483-0.574,1.131-0.861,1.945-0.861
		c0.642,0,1.168,0.175,1.58,0.523s0.659,0.829,0.741,1.443h-0.741c-0.073-0.397-0.247-0.705-0.523-0.922
		c-0.277-0.217-0.633-0.325-1.068-0.325c-0.569,0-1.022,0.222-1.359,0.665c-0.337,0.442-0.506,1.039-0.506,1.789
		c0,0.796,0.156,1.402,0.469,1.819s0.767,0.626,1.362,0.626c0.44,0,0.806-0.145,1.097-0.432c0.291-0.288,0.484-0.695,0.58-1.225
		H385.944z"/>
	<path fill="#F8F8FA" d="M387.474,108.804c-0.354-0.425-0.531-0.982-0.531-1.672c0-0.692,0.177-1.252,0.531-1.677
		c0.354-0.425,0.817-0.638,1.389-0.638c0.577,0,1.042,0.213,1.394,0.638c0.353,0.425,0.529,0.984,0.529,1.677
		c0,0.689-0.176,1.247-0.529,1.672c-0.353,0.426-0.817,0.638-1.394,0.638C388.291,109.441,387.828,109.229,387.474,108.804z
		 M389.735,108.354c0.216-0.303,0.325-0.711,0.325-1.223c0-0.513-0.108-0.921-0.325-1.226c-0.216-0.304-0.507-0.455-0.873-0.455
		c-0.366,0-0.656,0.151-0.871,0.455c-0.215,0.305-0.323,0.713-0.323,1.226c0,0.512,0.107,0.92,0.323,1.223
		c0.215,0.302,0.505,0.453,0.871,0.453C389.228,108.808,389.519,108.656,389.735,108.354z"/>
	<path fill="#F8F8FA" d="M391.973,104.948h0.328h0.333v0.646l0.154-0.217c0.301-0.373,0.679-0.56,1.132-0.56
		c0.456,0,0.807,0.131,1.055,0.393c0.247,0.263,0.371,0.634,0.371,1.116v2.997h-0.348h-0.348v-2.748c0-0.384-0.07-0.662-0.21-0.832
		c-0.141-0.17-0.368-0.256-0.682-0.256c-0.335,0-0.6,0.135-0.796,0.403s-0.293,0.632-0.293,1.09v2.343h-0.348h-0.348V104.948z"/>
	<path fill="#F8F8FA" d="M399.135,106.216c-0.021-0.243-0.114-0.431-0.28-0.564s-0.39-0.2-0.67-0.2
		c-0.289,0-0.508,0.053-0.659,0.159c-0.151,0.106-0.226,0.262-0.226,0.466c0,0.155,0.053,0.273,0.158,0.352
		c0.105,0.079,0.315,0.158,0.63,0.237l0.719,0.18c0.402,0.104,0.689,0.247,0.861,0.43c0.171,0.18,0.256,0.433,0.256,0.757
		c0,0.434-0.147,0.776-0.442,1.03s-0.694,0.38-1.196,0.38c-0.582,0-1.017-0.121-1.302-0.365c-0.286-0.244-0.444-0.628-0.475-1.151
		h0.668c0.034,0.311,0.137,0.535,0.311,0.675c0.174,0.139,0.44,0.208,0.798,0.208c0.312,0,0.548-0.063,0.709-0.188
		c0.161-0.126,0.242-0.309,0.242-0.548c0-0.153-0.053-0.269-0.158-0.348s-0.318-0.158-0.638-0.237l-0.718-0.18
		c-0.389-0.099-0.666-0.236-0.831-0.413c-0.166-0.175-0.248-0.42-0.248-0.736c0-0.411,0.139-0.738,0.415-0.979
		c0.277-0.241,0.652-0.361,1.126-0.361c0.481,0,0.864,0.124,1.148,0.372c0.285,0.248,0.436,0.59,0.454,1.026H399.135z"/>
	<path fill="#F8F8FA" d="M401.415,108.804c-0.354-0.425-0.531-0.982-0.531-1.672c0-0.692,0.177-1.252,0.531-1.677
		s0.817-0.638,1.389-0.638c0.577,0,1.042,0.213,1.395,0.638s0.529,0.984,0.529,1.677c0,0.689-0.176,1.247-0.529,1.672
		c-0.353,0.426-0.817,0.638-1.395,0.638C402.231,109.441,401.769,109.229,401.415,108.804z M403.676,108.354
		c0.216-0.303,0.325-0.711,0.325-1.223c0-0.513-0.108-0.921-0.325-1.226c-0.216-0.304-0.507-0.455-0.873-0.455
		s-0.656,0.151-0.871,0.455c-0.215,0.305-0.322,0.713-0.322,1.226c0,0.512,0.107,0.92,0.322,1.223
		c0.215,0.302,0.505,0.453,0.871,0.453S403.46,108.656,403.676,108.354z"/>
	<path fill="#F8F8FA" d="M405.93,103.313h0.348h0.348v6.011h-0.348h-0.348V103.313z"/>
	<path fill="#F8F8FA" d="M409.751,109.441c-0.584,0-1.044-0.196-1.379-0.589c-0.334-0.393-0.502-0.936-0.502-1.627
		c0-0.736,0.177-1.321,0.531-1.757c0.354-0.435,0.83-0.651,1.428-0.651c0.541,0,0.977,0.213,1.309,0.638
		c0.333,0.425,0.499,0.984,0.499,1.677l-0.008,0.262h-3.019c0.028,0.436,0.123,0.769,0.282,0.997
		c0.195,0.278,0.504,0.417,0.926,0.417c0.265,0,0.497-0.079,0.695-0.236c0.198-0.158,0.319-0.36,0.363-0.605h0.688
		c-0.103,0.479-0.309,0.846-0.618,1.098S410.238,109.441,409.751,109.441z M410.912,106.8c-0.021-0.405-0.116-0.722-0.286-0.948
		c-0.188-0.251-0.463-0.376-0.827-0.376c-0.366,0-0.658,0.145-0.877,0.434c-0.172,0.226-0.277,0.523-0.313,0.891H410.912z"/>
	<path fill="#F8F8FA" d="M414.678,103.157l-1.933,6.329h-0.527l1.933-6.329H414.678z"/>
	<path fill="#F8F8FA" d="M420.037,107.119c0,0.741-0.197,1.321-0.591,1.74c-0.394,0.418-0.941,0.627-1.642,0.627
		c-0.729,0-1.284-0.2-1.665-0.603c-0.381-0.402-0.571-0.99-0.571-1.765v-3.807h0.382h0.386v3.745c0,0.56,0.125,0.983,0.375,1.274
		c0.25,0.29,0.614,0.436,1.093,0.436s0.843-0.146,1.091-0.436c0.249-0.291,0.373-0.715,0.373-1.274v-3.745h0.382h0.386V107.119z"/>
	<path fill="#F8F8FA" d="M425.113,105.054c-0.034-0.379-0.175-0.671-0.423-0.877c-0.248-0.204-0.582-0.309-1.002-0.309
		c-0.433,0-0.761,0.089-0.985,0.266c-0.224,0.178-0.336,0.437-0.336,0.777c0,0.231,0.075,0.404,0.224,0.521
		c0.149,0.112,0.45,0.226,0.9,0.337l0.989,0.25c0.531,0.133,0.909,0.331,1.136,0.593c0.228,0.259,0.341,0.625,0.341,1.1
		c0,0.546-0.195,0.978-0.585,1.297c-0.39,0.318-0.919,0.478-1.586,0.478c-0.742,0-1.322-0.184-1.739-0.552
		c-0.407-0.362-0.61-0.858-0.61-1.488v-0.045h0.707c0.013,0.437,0.162,0.772,0.448,1.01s0.684,0.356,1.194,0.356
		c0.472,0,0.83-0.086,1.075-0.258s0.367-0.424,0.367-0.757c0-0.289-0.081-0.503-0.242-0.642c-0.16-0.137-0.482-0.267-0.967-0.389
		l-0.99-0.25c-0.5-0.124-0.857-0.3-1.071-0.523c-0.213-0.223-0.319-0.532-0.319-0.928c0-0.575,0.185-1.031,0.554-1.368
		c0.37-0.336,0.868-0.505,1.497-0.505c0.638,0,1.146,0.169,1.525,0.507c0.378,0.339,0.581,0.805,0.606,1.398H425.113z"/>
	<path fill="#F8F8FA" d="M427.31,103.313h0.383h2.113c0.484,0,0.875,0.131,1.17,0.395c0.296,0.263,0.444,0.609,0.444,1.04
		c0,0.5-0.175,0.889-0.525,1.17c-0.08,0.065-0.166,0.121-0.259,0.168c0.188,0.07,0.352,0.159,0.491,0.266
		c0.37,0.286,0.556,0.683,0.556,1.189c0,0.56-0.181,0.996-0.542,1.311c-0.362,0.315-0.865,0.473-1.509,0.473h-1.939h-0.383V103.313z
		 M428.079,105.872h1.372c0.417,0,0.722-0.08,0.915-0.239c0.193-0.159,0.29-0.41,0.29-0.755c0-0.3-0.089-0.52-0.267-0.66
		s-0.457-0.211-0.838-0.211h-1.472V105.872z M428.079,108.628h1.564c0.441,0,0.764-0.09,0.968-0.27s0.307-0.464,0.307-0.851
		c0-0.338-0.107-0.586-0.321-0.742c-0.214-0.157-0.55-0.235-1.008-0.235h-1.51V108.628z"/>
</g>
<g>
	<path fill="#F8F8FA" d="M625.389,111.361h-3.037v-0.671l3.195-4.616h0.592v4.616h0.946v0.671h-0.946v1.499h-0.75V111.361z
		 M625.389,110.69v-3.116l-2.209,3.116H625.389z"/>
</g>
<g>
	<path fill="#F8F8FA" d="M672.45,111.006c0.184,0.71,0.5,1.104,0.947,1.184c0.446,0.079,0.809,0.033,1.085-0.139
		c0.276-0.17,0.474-0.394,0.591-0.67c0.119-0.276,0.172-0.585,0.158-0.928c-0.014-0.341-0.105-0.631-0.275-0.867
		c-0.172-0.236-0.389-0.395-0.651-0.474c-0.264-0.079-0.56-0.079-0.888,0c-0.329,0.079-0.599,0.263-0.809,0.553l-0.671-0.079
		c0.053-0.158,0.302-1.288,0.749-3.393h3.117v0.71h-2.525c-0.131,0.711-0.263,1.275-0.395,1.696
		c0.395-0.184,0.763-0.269,1.105-0.257c0.341,0.014,0.67,0.093,0.986,0.237c0.315,0.145,0.545,0.342,0.689,0.592
		s0.25,0.499,0.316,0.749c0.064,0.25,0.092,0.52,0.078,0.809c-0.014,0.29-0.072,0.586-0.177,0.888
		c-0.105,0.303-0.264,0.553-0.474,0.75c-0.211,0.197-0.467,0.355-0.77,0.473c-0.303,0.119-0.65,0.165-1.045,0.139
		s-0.77-0.171-1.125-0.435c-0.354-0.262-0.598-0.71-0.729-1.341L672.45,111.006z"/>
</g>
<g>
	<path fill="#F8F8FA" d="M721.327,110.552c0.025-0.381,0.098-0.702,0.217-0.966c0.118-0.263,0.295-0.592,0.532-0.986l1.617-2.525
		h0.907l-1.656,2.604c0.71-0.184,1.275-0.158,1.696,0.078c0.42,0.237,0.703,0.508,0.848,0.81s0.224,0.632,0.237,0.985
		c0.013,0.355-0.04,0.704-0.158,1.046s-0.329,0.65-0.631,0.927c-0.303,0.276-0.724,0.428-1.263,0.454s-1-0.072-1.381-0.296
		c-0.382-0.224-0.645-0.539-0.789-0.947C721.359,111.328,721.3,110.934,721.327,110.552z M722.55,111.854
		c0.236,0.25,0.552,0.388,0.946,0.414s0.724-0.105,0.986-0.395s0.395-0.71,0.395-1.263s-0.165-0.934-0.493-1.144
		c-0.329-0.211-0.697-0.289-1.104-0.237c-0.408,0.053-0.704,0.25-0.888,0.592s-0.263,0.704-0.236,1.085
		C722.181,111.289,722.313,111.604,722.55,111.854z"/>
</g>
<g>
	<rect x="127.042" y="31.01" fill="#E9F0C5" width="168.85" height="43.139"/>
	<path fill="#454444" d="M296.393,74.648h-169.85V30.51h169.85V74.648z M127.542,73.648h167.85V31.51h-167.85V73.648z"/>
</g>
<g>
	<circle fill="#B0A48D" cx="303.652" cy="104.072" r="4.923"/>
	<path fill="#666666" d="M303.652,109.495c-2.991,0-5.423-2.433-5.423-5.423c0-2.989,2.432-5.423,5.423-5.423
		c2.99,0,5.423,2.434,5.423,5.423C309.075,107.063,306.642,109.495,303.652,109.495z M303.652,99.649
		c-2.439,0-4.423,1.984-4.423,4.423c0,2.439,1.984,4.423,4.423,4.423s4.423-1.983,4.423-4.423
		C308.075,101.634,306.091,99.649,303.652,99.649z"/>
</g>
<g>
	<circle fill="#C2D6AB" cx="120.613" cy="105.729" r="4.923"/>
	<path fill="#666666" d="M120.613,111.149c-2.99,0-5.423-2.432-5.423-5.421c0-2.991,2.433-5.425,5.423-5.425
		s5.423,2.434,5.423,5.425C126.036,108.718,123.604,111.149,120.613,111.149z M120.613,101.304c-2.439,0-4.423,1.984-4.423,4.425
		c0,2.438,1.984,4.421,4.423,4.421s4.423-1.982,4.423-4.421C125.036,103.288,123.052,101.304,120.613,101.304z"/>
</g>
<g>
	<path fill="#909090" d="M295.893,88.542h0.382h0.386v2.467h2.963v-2.467h0.382h0.386v6.012h-0.382h-0.386v-2.825h-2.963v2.825
		h-0.382h-0.386V88.542z"/>
	<path fill="#909090" d="M302.032,88.542h0.382h1.951c0.721,0,1.294,0.271,1.721,0.816c0.426,0.543,0.639,1.275,0.639,2.193
		c0,0.916-0.218,1.646-0.655,2.189c-0.437,0.541-1.025,0.813-1.767,0.813h-1.889h-0.382V88.542z M302.801,93.858h1.406
		c0.551,0,0.977-0.201,1.277-0.602c0.3-0.4,0.45-0.969,0.45-1.705c0-0.738-0.144-1.309-0.433-1.711
		c-0.288-0.402-0.698-0.604-1.228-0.604h-1.472V93.858z"/>
	<path fill="#909090" d="M308.141,88.542h0.382h1.951c0.721,0,1.294,0.271,1.721,0.816c0.426,0.543,0.639,1.275,0.639,2.193
		c0,0.916-0.218,1.646-0.655,2.189c-0.437,0.541-1.025,0.813-1.768,0.813h-1.888h-0.382V88.542z M308.909,93.858h1.406
		c0.551,0,0.977-0.201,1.277-0.602s0.45-0.969,0.45-1.705c0-0.738-0.145-1.309-0.433-1.711c-0.289-0.402-0.698-0.604-1.229-0.604
		h-1.472V93.858z"/>
</g>
<g>
	<path fill="#909090" d="M112.328,90.198h0.383h2.101c0.551,0,0.982,0.146,1.292,0.439c0.311,0.293,0.465,0.697,0.465,1.215
		c0,0.57-0.155,1.016-0.465,1.338c-0.31,0.322-0.741,0.482-1.292,0.482c-0.724-0.002-1.295,0-1.715,0.008v2.527h-0.383h-0.386
		V90.198z M113.097,92.979h1.525c0.399,0,0.691-0.09,0.877-0.269c0.185-0.179,0.278-0.459,0.278-0.84
		c0-0.339-0.093-0.586-0.278-0.742c-0.186-0.156-0.478-0.235-0.877-0.235h-1.525V92.979z"/>
	<path fill="#909090" d="M118.935,96.208l-1.487-6.01h0.414h0.417l1.012,4.75c0.018,0.08,0.033,0.156,0.044,0.229
		c0.012,0.072,0.018,0.123,0.018,0.153h0c0-0.036,0.006-0.091,0.019-0.165c0.013-0.072,0.028-0.145,0.046-0.217l1.202-4.75h0.433
		h0.433l1.193,4.727c0.021,0.074,0.037,0.147,0.05,0.225c0.013,0.077,0.019,0.133,0.019,0.168h0c0-0.031,0.006-0.084,0.018-0.16
		c0.012-0.075,0.026-0.154,0.044-0.232l1.025-4.727h0.414h0.413l-1.487,6.01h-0.413h-0.414l-1.232-4.648
		c-0.021-0.079-0.038-0.156-0.054-0.234c-0.016-0.076-0.023-0.129-0.023-0.158h-0.001c0,0.035-0.007,0.09-0.019,0.166
		c-0.013,0.074-0.03,0.15-0.05,0.227l-1.204,4.648h-0.413H118.935z"/>
	<path fill="#909090" d="M125.878,90.198h0.382h2.26c0.603,0,1.061,0.137,1.375,0.415c0.314,0.275,0.471,0.682,0.471,1.216
		c0,0.525-0.163,0.938-0.49,1.235c-0.083,0.073-0.171,0.138-0.267,0.196l0.127,0.064c0.346,0.211,0.524,0.563,0.538,1.059
		l0.031,1.098c0.005,0.18,0.027,0.309,0.065,0.387c0.039,0.079,0.113,0.148,0.224,0.205v0.131h-0.945
		c-0.021-0.049-0.042-0.177-0.062-0.385c-0.021-0.206-0.036-0.437-0.046-0.689l-0.017-0.475c-0.01-0.375-0.097-0.64-0.259-0.801
		c-0.162-0.158-0.427-0.239-0.795-0.239h-1.823v2.593h-0.382h-0.386V90.198z M126.646,92.913h1.9c0.355,0,0.616-0.082,0.78-0.248
		c0.165-0.164,0.248-0.426,0.248-0.782c0-0.347-0.087-0.601-0.261-0.761c-0.174-0.162-0.449-0.242-0.825-0.242h-1.843V92.913z"/>
</g>
<g>
	<circle fill="#FFFFFF" cx="152.208" cy="93.072" r="7.854"/>
	<circle fill="#FFFFFF" cx="181.604" cy="93.072" r="7.854"/>
	<circle fill="#FFFFFF" cx="210.311" cy="93.072" r="7.854"/>
	<circle fill="#FFFFFF" cx="240.395" cy="93.072" r="7.854"/>
	<g>
		<polygon fill="#262626" points="154.611,97.585 147.262,93.341 154.611,89.099 		"/>
	</g>
	<g>
		<polygon fill="#262626" points="185.847,90 181.604,97.349 177.361,90 		"/>
	</g>
	<g>
		<polygon fill="#262626" points="206.171,95.89 210.415,88.542 214.658,95.89 		"/>
	</g>
	<g>
		<polygon fill="#262626" points="237.408,88.83 244.755,93.073 237.408,97.316 		"/>
	</g>
	<g>
		<circle fill="#FFFFFF" cx="270.728" cy="93.072" r="7.854"/>
		<g>
			<polygon fill="#262626" points="267.217,91.658 264.582,93.222 267.217,94.784 			"/>
		</g>
		<g>
			<polygon fill="#262626" points="275.727,93.447 267.217,93.447 267.217,92.994 275.321,92.994 275.321,90.458 275.727,90.458 			
				"/>
		</g>
	</g>
</g>
<g>
	<g>
		<rect x="1212.626" y="14.432" fill="#DDDBD3" width="24.437" height="98.666"/>
	</g>
	<g>
		<rect x="1212.626" y="35.923" fill="#EDECE6" width="24.437" height="61.533"/>
	</g>
	<rect x="1212.626" y="37.676" fill="#B7B5AB" width="24.437" height="1.525"/>
	<rect x="1212.626" y="41.176" fill="#B7B5AB" width="24.437" height="1.525"/>
	<rect x="1212.626" y="44.676" fill="#B7B5AB" width="24.437" height="1.525"/>
	<rect x="1212.626" y="48.176" fill="#B7B5AB" width="24.437" height="1.525"/>
	<rect x="1212.626" y="51.676" fill="#B7B5AB" width="24.437" height="1.525"/>
	<rect x="1212.626" y="55.176" fill="#B7B5AB" width="24.437" height="1.525"/>
	<rect x="1212.626" y="58.676" fill="#B7B5AB" width="24.437" height="1.525"/>
	<rect x="1212.626" y="62.176" fill="#B7B5AB" width="24.437" height="1.525"/>
	<rect x="1212.626" y="65.676" fill="#B7B5AB" width="24.437" height="1.525"/>
	<rect x="1212.626" y="69.176" fill="#B7B5AB" width="24.437" height="1.525"/>
	<rect x="1212.626" y="72.676" fill="#B7B5AB" width="24.437" height="1.525"/>
	<rect x="1212.626" y="76.176" fill="#B7B5AB" width="24.437" height="1.525"/>
	<rect x="1212.626" y="79.676" fill="#B7B5AB" width="24.437" height="1.525"/>
	<rect x="1212.626" y="83.176" fill="#B7B5AB" width="24.437" height="1.525"/>
	<rect x="1212.626" y="86.676" fill="#B7B5AB" width="24.437" height="1.525"/>
	<rect x="1212.626" y="90.176" fill="#B7B5AB" width="24.437" height="1.525"/>
	<rect x="1212.626" y="93.676" fill="#B7B5AB" width="24.437" height="1.525"/>
</g>
<g>
	<g>
		<rect x="37.141" y="14.432" fill="#DDDBD3" width="24.437" height="98.666"/>
	</g>
	<g>
		<rect x="37.141" y="35.923" fill="#EDECE6" width="24.437" height="61.533"/>
	</g>
	<rect x="37.14" y="37.676" fill="#B7B5AB" width="24.438" height="1.525"/>
	<rect x="37.14" y="41.176" fill="#B7B5AB" width="24.438" height="1.525"/>
	<rect x="37.14" y="44.676" fill="#B7B5AB" width="24.438" height="1.525"/>
	<rect x="37.14" y="48.176" fill="#B7B5AB" width="24.438" height="1.525"/>
	<rect x="37.14" y="51.676" fill="#B7B5AB" width="24.438" height="1.525"/>
	<rect x="37.14" y="55.176" fill="#B7B5AB" width="24.438" height="1.525"/>
	<rect x="37.14" y="58.676" fill="#B7B5AB" width="24.438" height="1.525"/>
	<rect x="37.14" y="62.176" fill="#B7B5AB" width="24.438" height="1.525"/>
	<rect x="37.14" y="65.676" fill="#B7B5AB" width="24.438" height="1.525"/>
	<rect x="37.14" y="69.176" fill="#B7B5AB" width="24.438" height="1.525"/>
	<rect x="37.14" y="72.676" fill="#B7B5AB" width="24.438" height="1.525"/>
	<rect x="37.14" y="76.176" fill="#B7B5AB" width="24.438" height="1.525"/>
	<rect x="37.14" y="79.676" fill="#B7B5AB" width="24.438" height="1.525"/>
	<rect x="37.14" y="83.176" fill="#B7B5AB" width="24.438" height="1.525"/>
	<rect x="37.14" y="86.676" fill="#B7B5AB" width="24.438" height="1.525"/>
	<rect x="37.14" y="90.176" fill="#B7B5AB" width="24.438" height="1.525"/>
	<rect x="37.14" y="93.676" fill="#B7B5AB" width="24.438" height="1.525"/>
</g>
<polygon fill="#F2F2F0" points="75.338,0 80.438,3.647 342.771,3.647 347.598,0 "/>
<polygon fill="#A3A29B" points="75.337,126.142 80.437,122.494 342.771,122.494 347.598,126.142 "/>
<polygon fill="#C4C3BF" points="347.598,0 342.771,3.647 342.771,122.494 347.598,126.142 "/>
<polygon fill="#C4C3BF" points="75.338,0 80.166,3.647 80.166,122.494 75.338,126.142 "/>
<path fill="none" stroke="#999992" stroke-miterlimit="10" d="M327.967,106.56c0,3.099-2.626,5.611-5.865,5.611H100.833
	c-3.24,0-5.866-2.513-5.866-5.611V19.583c0-3.099,2.626-5.611,5.866-5.611h221.269c3.239,0,5.865,2.512,5.865,5.611V106.56z"/>
<text transform="matrix(1 0 0 1 471.5571 112.8428)" fill="#FFFFFF" stroke="#FFFFFF" stroke-width="0.5" stroke-miterlimit="10" font-family="'MicrosoftYaHeiLight'" font-size="8">1</text>
<text transform="matrix(1 0 0 1 516.8896 112.8428)" fill="#FFFFFF" stroke="#FFFFFF" stroke-width="0.5" stroke-miterlimit="10" font-family="'MicrosoftYaHeiLight'" font-size="8">2</text>
</svg>
