<?xml version="1.0" encoding="utf-8"?>
<!-- Generator: Adobe Illustrator 16.0.0, SVG Export Plug-In . SVG Version: 6.00 Build 0)  -->
<!DOCTYPE svg PUBLIC "-//W3C//DTD SVG 1.1//EN" "http://www.w3.org/Graphics/SVG/1.1/DTD/svg11.dtd">
<svg version="1.1" id="图层_1" xmlns="http://www.w3.org/2000/svg" xmlns:xlink="http://www.w3.org/1999/xlink" x="0px" y="0px"
	 width="1261.42px" height="124.73px" viewBox="0 0 1261.42 124.73" enable-background="new 0 0 1261.42 124.73"
	 xml:space="preserve">
<path fill="#3E555F" d="M1261.417,116.225c0,4.695-3.809,8.504-8.505,8.504H8.503c-4.696,0-8.503-3.809-8.503-8.504V8.506
	c0-4.696,3.807-8.504,8.503-8.504h1244.409c4.696,0,8.505,3.808,8.505,8.504V116.225z"/>
<path fill="#C8C9CA" stroke="#FFF57F" stroke-miterlimit="10" d="M789.082,29.567c0-1.56-1.275-2.836-2.836-2.836H559.182
	c-1.561,0-2.835,1.276-2.835,2.836v2.339c0,1.559-1.275,2.834-2.834,2.834h-2.339c-1.56,0-2.836,1.275-2.836,2.835v49.121
	c0,1.559,1.276,2.836,2.836,2.836h2.339c1.559,0,2.834,1.275,2.834,2.834v2.338c0,1.559,1.274,2.836,2.835,2.836h227.064
	c1.561,0,2.836-1.277,2.836-2.836v-2.338c0-1.559,1.273-2.834,2.834-2.834h2.338c1.559,0,2.836-1.277,2.836-2.836V37.575
	c0-1.56-1.277-2.835-2.836-2.835h-2.338c-1.561,0-2.834-1.275-2.834-2.834V29.567z"/>
<path fill="#C8C9CA" stroke="#FFF57F" stroke-miterlimit="10" d="M1051.409,29.567c0-1.56-1.275-2.836-2.836-2.836H821.509
	c-1.56,0-2.835,1.276-2.835,2.836v2.339c0,1.559-1.275,2.834-2.834,2.834h-2.339c-1.56,0-2.835,1.275-2.835,2.835v49.121
	c0,1.559,1.275,2.836,2.835,2.836h2.339c1.559,0,2.834,1.275,2.834,2.834v2.338c0,1.559,1.275,2.836,2.835,2.836h227.064
	c1.561,0,2.836-1.277,2.836-2.836v-2.338c0-1.559,1.274-2.834,2.835-2.834h2.338c1.559,0,2.835-1.277,2.835-2.836V37.575
	c0-1.56-1.276-2.835-2.835-2.835h-2.338c-1.561,0-2.835-1.275-2.835-2.834V29.567z"/>
<path fill="#CEEDE4" d="M33.159,19.005V4.948h30.25v8.592c0,0-0.75,1.184,1.75,1.422h23.5v6.986h-55.5V19.005z"/>
<g>
	<defs>
		<path id="SVGID_1_" d="M69.661,19.442c0,0.944,1.318,1.71,2.944,1.71c1.625,0,2.943-0.766,2.943-1.71
			c0-0.947-1.318-1.711-2.943-1.711C70.979,17.731,69.661,18.495,69.661,19.442"/>
	</defs>
	<clipPath id="SVGID_2_">
		<use xlink:href="#SVGID_1_"  overflow="visible"/>
	</clipPath>
	
		<linearGradient id="SVGID_3_" gradientUnits="userSpaceOnUse" x1="2.8926" y1="129.1758" x2="3.3174" y2="129.1758" gradientTransform="matrix(13.8485 0 0 -13.8485 29.6094 1808.3203)">
		<stop  offset="0" style="stop-color:#727171"/>
		<stop  offset="1" style="stop-color:#595757"/>
	</linearGradient>
	<rect x="69.661" y="17.731" clip-path="url(#SVGID_2_)" fill="url(#SVGID_3_)" width="5.888" height="3.421"/>
</g>
<g>
	<defs>
		<path id="SVGID_4_" d="M69.661,9.031c0,0.944,1.318,1.71,2.944,1.71s2.943-0.766,2.943-1.71c0-0.946-1.317-1.711-2.943-1.711
			S69.661,8.085,69.661,9.031"/>
	</defs>
	<use xlink:href="#SVGID_4_"  overflow="visible" fill="#FBFF7E"/>
	<clipPath id="SVGID_5_">
		<use xlink:href="#SVGID_4_"  overflow="visible"/>
	</clipPath>
	<rect x="69.661" y="7.32" clip-path="url(#SVGID_5_)" fill="#FBFF7E" width="5.888" height="3.421"/>
</g>
<g>
	<defs>
		<path id="SVGID_6_" d="M108.585,9.031c0,0.944,1.318,1.71,2.944,1.71s2.943-0.766,2.943-1.71c0-0.946-1.317-1.711-2.943-1.711
			S108.585,8.085,108.585,9.031"/>
	</defs>
	<use xlink:href="#SVGID_6_"  overflow="visible" fill="#FBFF7E"/>
	<clipPath id="SVGID_7_">
		<use xlink:href="#SVGID_6_"  overflow="visible"/>
	</clipPath>
	<rect x="108.585" y="7.32" clip-path="url(#SVGID_7_)" fill="#FBFF7E" width="5.888" height="3.421"/>
</g>
<path fill="#1E1E1E" d="M364.045,17.622c0,0.386-0.315,0.698-0.704,0.698H295.09c-0.389,0-0.704-0.313-0.704-0.698V8.019
	c0-0.386,0.315-0.699,0.704-0.699h68.251c0.389,0,0.704,0.313,0.704,0.699V17.622z"/>
<path fill="#1E1E1E" d="M443.356,17.622c0,0.386-0.315,0.698-0.704,0.698h-68.251c-0.389,0-0.704-0.313-0.704-0.698V8.019
	c0-0.386,0.315-0.699,0.704-0.699h68.251c0.389,0,0.704,0.313,0.704,0.699V17.622z"/>
<path fill="#1E1E1E" d="M522.667,17.622c0,0.386-0.315,0.698-0.704,0.698h-68.251c-0.389,0-0.704-0.313-0.704-0.698V8.019
	c0-0.386,0.315-0.699,0.704-0.699h68.251c0.389,0,0.704,0.313,0.704,0.699V17.622z"/>
<path fill="#1E1E1E" d="M626.768,17.622c0,0.386-0.315,0.698-0.704,0.698h-68.251c-0.389,0-0.704-0.313-0.704-0.698V8.019
	c0-0.386,0.315-0.699,0.704-0.699h68.251c0.389,0,0.704,0.313,0.704,0.699V17.622z"/>
<path fill="#1E1E1E" d="M706.078,17.622c0,0.386-0.314,0.698-0.703,0.698h-68.252c-0.389,0-0.703-0.313-0.703-0.698V8.019
	c0-0.386,0.314-0.699,0.703-0.699h68.252c0.389,0,0.703,0.313,0.703,0.699V17.622z"/>
<path fill="#1E1E1E" d="M785.39,17.622c0,0.386-0.315,0.698-0.704,0.698h-68.251c-0.389,0-0.704-0.313-0.704-0.698V8.019
	c0-0.386,0.315-0.699,0.704-0.699h68.251c0.389,0,0.704,0.313,0.704,0.699V17.622z"/>
<path fill="#1E1E1E" d="M889.49,17.622c0,0.386-0.315,0.698-0.704,0.698h-68.251c-0.389,0-0.703-0.313-0.703-0.698V8.019
	c0-0.386,0.314-0.699,0.703-0.699h68.251c0.389,0,0.704,0.313,0.704,0.699V17.622z"/>
<path fill="#1E1E1E" d="M968.801,17.622c0,0.386-0.314,0.698-0.703,0.698h-68.252c-0.389,0-0.703-0.313-0.703-0.698V8.019
	c0-0.386,0.314-0.699,0.703-0.699h68.252c0.389,0,0.703,0.313,0.703,0.699V17.622z"/>
<path fill="#1E1E1E" d="M1048.112,17.622c0,0.386-0.315,0.698-0.704,0.698h-68.251c-0.389,0-0.704-0.313-0.704-0.698V8.019
	c0-0.386,0.315-0.699,0.704-0.699h68.251c0.389,0,0.704,0.313,0.704,0.699V17.622z"/>
<path fill="#787A79" stroke="#191919" stroke-miterlimit="10" d="M1255.856,117.213c0,1.141-0.896,2.064-2,2.064h-189.334
	c-1.104,0-2-0.924-2-2.064V9.384c0-1.14,0.896-2.064,2-2.064h189.334c1.104,0,2,0.925,2,2.064V117.213z"/>
<path fill="#DDDBD3" d="M1251.324,114.82c0,1.09-0.855,1.973-1.912,1.973h-180.928c-1.056,0-1.912-0.883-1.912-1.973V11.778
	c0-1.09,0.856-1.973,1.912-1.973h180.928c1.057,0,1.912,0.883,1.912,1.973V114.82z"/>
<path fill="#84807C" stroke="#111111" stroke-width="0.5" stroke-miterlimit="10" d="M1212.594,28.198
	c-2.113-0.12-2.632-1.077-2.632-1.077c0-0.358-0.559-0.638-0.559-0.638h-2.791h-45.739h-3.064h-45.739h-2.79
	c0,0-0.559,0.279-0.559,0.638c0,0-0.519,0.957-2.633,1.077c0,0-0.398,0.119-0.398,0.519V39.76c0,0,0.16,0.599,0.479,0.599h1.635
	c0,0,1.156,0.239,1.635,1.036c0,0,0.439,0.279,0.598,0.319h47.773h3.064h47.773c0.158-0.04,0.598-0.319,0.598-0.319
	c0.479-0.797,1.635-1.036,1.635-1.036h1.635c0.318,0,0.479-0.599,0.479-0.599V28.716
	C1212.992,28.317,1212.594,28.198,1212.594,28.198z"/>
<rect x="1111.294" y="27.809" fill="#1C1C1C" width="5.88" height="3.844"/>
<rect x="1120.322" y="27.809" fill="#1C1C1C" width="5.879" height="3.844"/>
<rect x="1129.35" y="27.809" fill="#1C1C1C" width="5.879" height="3.844"/>
<rect x="1138.377" y="27.809" fill="#1C1C1C" width="5.879" height="3.844"/>
<rect x="1147.404" y="27.809" fill="#1C1C1C" width="5.88" height="3.844"/>
<rect x="1156.433" y="27.809" fill="#1C1C1C" width="5.88" height="3.844"/>
<rect x="1165.461" y="27.809" fill="#1C1C1C" width="5.879" height="3.844"/>
<rect x="1174.488" y="27.809" fill="#1C1C1C" width="5.879" height="3.844"/>
<rect x="1183.516" y="27.809" fill="#1C1C1C" width="5.879" height="3.844"/>
<rect x="1192.543" y="27.809" fill="#1C1C1C" width="5.88" height="3.844"/>
<rect x="1111.294" y="36.643" fill="#1C1C1C" width="5.88" height="3.844"/>
<rect x="1120.322" y="36.643" fill="#1C1C1C" width="5.879" height="3.844"/>
<rect x="1129.35" y="36.643" fill="#1C1C1C" width="5.879" height="3.844"/>
<rect x="1138.377" y="36.643" fill="#1C1C1C" width="5.879" height="3.844"/>
<rect x="1147.404" y="36.643" fill="#1C1C1C" width="5.88" height="3.844"/>
<rect x="1156.433" y="36.643" fill="#1C1C1C" width="5.88" height="3.844"/>
<rect x="1165.461" y="36.643" fill="#1C1C1C" width="5.879" height="3.844"/>
<rect x="1174.488" y="36.643" fill="#1C1C1C" width="5.879" height="3.844"/>
<rect x="1183.516" y="36.643" fill="#1C1C1C" width="5.879" height="3.844"/>
<rect x="1192.543" y="36.643" fill="#1C1C1C" width="5.88" height="3.844"/>
<rect x="1201.605" y="27.809" fill="#1C1C1C" width="5.88" height="3.844"/>
<rect x="1201.605" y="36.643" fill="#1C1C1C" width="5.88" height="3.844"/>
<path fill="#84807C" stroke="#111111" stroke-width="0.5" stroke-miterlimit="10" d="M1227.455,55.811c0,0.935-0.895,1.692-2,1.692
	h-132.166c-1.104,0-2-0.758-2-1.692v-5.074c0-0.935,0.896-1.692,2-1.692h132.166c1.105,0,2,0.757,2,1.692V55.811z"/>
<rect x="1092.748" y="51.649" fill="#1C1C1C" width="5.879" height="3.251"/>
<rect x="1101.775" y="51.649" fill="#1C1C1C" width="5.88" height="3.251"/>
<rect x="1110.804" y="51.649" fill="#1C1C1C" width="5.88" height="3.251"/>
<rect x="1119.831" y="51.649" fill="#1C1C1C" width="5.88" height="3.251"/>
<rect x="1128.858" y="51.649" fill="#1C1C1C" width="5.88" height="3.251"/>
<rect x="1137.887" y="51.649" fill="#1C1C1C" width="5.879" height="3.251"/>
<rect x="1146.914" y="51.649" fill="#1C1C1C" width="5.88" height="3.251"/>
<rect x="1155.941" y="51.649" fill="#1C1C1C" width="5.88" height="3.251"/>
<rect x="1164.97" y="51.649" fill="#1C1C1C" width="5.88" height="3.251"/>
<rect x="1173.998" y="51.649" fill="#1C1C1C" width="5.879" height="3.251"/>
<rect x="1183.061" y="51.649" fill="#1C1C1C" width="5.879" height="3.251"/>
<rect x="1192.186" y="51.649" fill="#1C1C1C" width="5.879" height="3.251"/>
<rect x="1201.213" y="51.649" fill="#1C1C1C" width="5.879" height="3.251"/>
<rect x="1210.275" y="51.649" fill="#1C1C1C" width="5.879" height="3.251"/>
<rect x="1219.012" y="51.649" fill="#1C1C1C" width="5.879" height="3.251"/>
<g>
	<path fill="#D5D5D5" d="M1089.248,96.01c0,1.51,1.441,2.734,3.222,2.734h136.286c1.779,0,3.223-1.225,3.223-2.734V72.078
		c0-1.512-1.443-2.734-3.223-2.734H1092.47c-1.78,0-3.222,1.223-3.222,2.734V96.01z"/>
	<path fill="#060404" d="M1092.47,68.939h136.286c1.998,0,3.625,1.408,3.625,3.139V96.01c0,1.73-1.627,3.137-3.625,3.137H1092.47
		c-1.999,0-3.625-1.406-3.625-3.137V72.078C1088.845,70.348,1090.471,68.939,1092.47,68.939z M1228.756,98.342
		c1.554,0,2.819-1.047,2.819-2.332V72.078c0-1.287-1.266-2.332-2.819-2.332H1092.47c-1.555,0-2.819,1.045-2.819,2.332V96.01
		c0,1.285,1.265,2.332,2.819,2.332H1228.756z"/>
</g>
<path fill="none" stroke="#2D3A3D" stroke-miterlimit="10" d="M1059.417,19.948c0,1.104-0.896,2-1.999,2H6.188
	c-1.104,0-1.999-0.896-1.999-2V3.519c0-1.104,0.896-2,1.999-2h1051.229c1.104,0,1.999,0.896,1.999,2V19.948z"/>
</svg>
