<?xml version="1.0" encoding="utf-8"?>
<!-- Generator: Adobe Illustrator 16.0.0, SVG Export Plug-In . SVG Version: 6.00 Build 0)  -->
<!DOCTYPE svg PUBLIC "-//W3C//DTD SVG 1.1//EN" "http://www.w3.org/Graphics/SVG/1.1/DTD/svg11.dtd">
<svg version="1.1" id="图层_1" xmlns="http://www.w3.org/2000/svg" xmlns:xlink="http://www.w3.org/1999/xlink" x="0px" y="0px"
	 width="1261.42px" height="124.73px" viewBox="0 0 1261.42 124.73" enable-background="new 0 0 1261.42 124.73"
	 xml:space="preserve">
<path fill="#3E555F" d="M1261.52,116.438c0,4.695-3.809,8.504-8.505,8.504H8.605c-4.696,0-8.503-3.809-8.503-8.504V8.721
	c0-4.697,3.807-8.504,8.503-8.504h1244.409c4.696,0,8.505,3.807,8.505,8.504V116.438z"/>
<path fill="#C8C9CA" stroke="#FFF57F" stroke-miterlimit="10" d="M789.184,29.781c0-1.56-1.275-2.836-2.836-2.836H559.284
	c-1.561,0-2.835,1.276-2.835,2.836v2.339c0,1.559-1.275,2.834-2.834,2.834h-2.339c-1.56,0-2.836,1.275-2.836,2.835V86.91
	c0,1.559,1.276,2.835,2.836,2.835h2.339c1.559,0,2.834,1.274,2.834,2.835v2.338c0,1.559,1.274,2.835,2.835,2.835h227.064
	c1.561,0,2.836-1.276,2.836-2.835V92.58c0-1.561,1.275-2.835,2.836-2.835h2.338c1.559,0,2.834-1.276,2.834-2.835V37.789
	c0-1.56-1.275-2.835-2.834-2.835h-2.338c-1.561,0-2.836-1.275-2.836-2.834V29.781z"/>
<path fill="#C8C9CA" stroke="#FFF57F" stroke-miterlimit="10" d="M1051.512,29.781c0-1.56-1.275-2.836-2.836-2.836H821.611
	c-1.561,0-2.835,1.276-2.835,2.836v2.339c0,1.559-1.274,2.834-2.834,2.834h-2.339c-1.559,0-2.836,1.275-2.836,2.835V86.91
	c0,1.559,1.277,2.835,2.836,2.835h2.339c1.56,0,2.834,1.274,2.834,2.835v2.338c0,1.559,1.274,2.835,2.835,2.835h227.064
	c1.561,0,2.836-1.276,2.836-2.835V92.58c0-1.561,1.274-2.835,2.835-2.835h2.338c1.559,0,2.835-1.276,2.835-2.835V37.789
	c0-1.56-1.276-2.835-2.835-2.835h-2.338c-1.561,0-2.835-1.275-2.835-2.834V29.781z"/>
<path fill="#C8C9CA" stroke="#FFF57F" stroke-miterlimit="10" d="M263.543,29.781c0-1.56-1.275-2.836-2.836-2.836H33.643
	c-1.561,0-2.835,1.276-2.835,2.836v2.339c0,1.559-1.275,2.834-2.834,2.834h-2.339c-1.56,0-2.836,1.275-2.836,2.835V86.91
	c0,1.559,1.276,2.835,2.836,2.835h2.339c1.559,0,2.834,1.274,2.834,2.835v2.338c0,1.559,1.274,2.835,2.835,2.835h227.064
	c1.561,0,2.836-1.276,2.836-2.835V92.58c0-1.561,1.274-2.835,2.835-2.835h2.338c1.559,0,2.835-1.276,2.835-2.835V37.789
	c0-1.56-1.276-2.835-2.835-2.835h-2.338c-1.561,0-2.835-1.275-2.835-2.834V29.781z"/>
<path fill="#C8C9CA" stroke="#FFF57F" stroke-miterlimit="10" d="M525.871,29.781c0-1.56-1.275-2.836-2.836-2.836H295.97
	c-1.56,0-2.835,1.276-2.835,2.836v2.339c0,1.559-1.275,2.834-2.834,2.834h-2.339c-1.559,0-2.835,1.275-2.835,2.835V86.91
	c0,1.559,1.276,2.835,2.835,2.835h2.339c1.559,0,2.834,1.274,2.834,2.835v2.338c0,1.559,1.275,2.835,2.835,2.835h227.064
	c1.561,0,2.836-1.276,2.836-2.835V92.58c0-1.561,1.274-2.835,2.835-2.835h2.338c1.559,0,2.835-1.276,2.835-2.835V37.789
	c0-1.56-1.276-2.835-2.835-2.835h-2.338c-1.561,0-2.835-1.275-2.835-2.834V29.781z"/>
<path fill="#CEEDE4" d="M33.262,19.219V5.162h30.25v8.592c0,0-0.75,1.184,1.75,1.421h23.5v6.987h-55.5V19.219z"/>
<g>
	<defs>
		<path id="SVGID_1_" d="M69.763,19.656c0,0.944,1.318,1.709,2.944,1.709c1.625,0,2.943-0.766,2.943-1.709
			c0-0.947-1.318-1.711-2.943-1.711C71.082,17.945,69.763,18.709,69.763,19.656"/>
	</defs>
	<clipPath id="SVGID_2_">
		<use xlink:href="#SVGID_1_"  overflow="visible"/>
	</clipPath>
	
		<linearGradient id="SVGID_3_" gradientUnits="userSpaceOnUse" x1="2.8999" y1="129.1602" x2="3.3247" y2="129.1602" gradientTransform="matrix(13.8485 0 0 -13.8485 29.6094 1808.3203)">
		<stop  offset="0" style="stop-color:#727171"/>
		<stop  offset="1" style="stop-color:#595757"/>
	</linearGradient>
	<rect x="69.763" y="17.945" clip-path="url(#SVGID_2_)" fill="url(#SVGID_3_)" width="5.888" height="3.421"/>
</g>
<g>
	<defs>
		<path id="SVGID_4_" d="M69.764,9.245c0,0.944,1.318,1.71,2.944,1.71s2.943-0.766,2.943-1.71c0-0.947-1.317-1.711-2.943-1.711
			S69.764,8.298,69.764,9.245"/>
	</defs>
	<use xlink:href="#SVGID_4_"  overflow="visible" fill="#FBFF7E"/>
	<clipPath id="SVGID_5_">
		<use xlink:href="#SVGID_4_"  overflow="visible"/>
	</clipPath>
	<rect x="69.764" y="7.534" clip-path="url(#SVGID_5_)" fill="#FBFF7E" width="5.888" height="3.421"/>
</g>
<g>
	<defs>
		<path id="SVGID_6_" d="M108.688,9.245c0,0.944,1.318,1.71,2.944,1.71s2.943-0.766,2.943-1.71c0-0.947-1.317-1.711-2.943-1.711
			S108.688,8.298,108.688,9.245"/>
	</defs>
	<use xlink:href="#SVGID_6_"  overflow="visible" fill="#FBFF7E"/>
	<clipPath id="SVGID_7_">
		<use xlink:href="#SVGID_6_"  overflow="visible"/>
	</clipPath>
	<rect x="108.688" y="7.534" clip-path="url(#SVGID_7_)" fill="#FBFF7E" width="5.888" height="3.421"/>
</g>
<path fill="#1E1E1E" d="M364.147,17.836c0,0.386-0.315,0.698-0.704,0.698h-68.251c-0.389,0-0.704-0.313-0.704-0.698V8.232
	c0-0.386,0.315-0.698,0.704-0.698h68.251c0.389,0,0.704,0.313,0.704,0.698V17.836z"/>
<path fill="#1E1E1E" d="M443.458,17.836c0,0.386-0.315,0.698-0.704,0.698h-68.251c-0.389,0-0.704-0.313-0.704-0.698V8.232
	c0-0.386,0.315-0.698,0.704-0.698h68.251c0.389,0,0.704,0.313,0.704,0.698V17.836z"/>
<path fill="#1E1E1E" d="M522.77,17.836c0,0.386-0.315,0.698-0.704,0.698h-68.251c-0.389,0-0.704-0.313-0.704-0.698V8.232
	c0-0.386,0.315-0.698,0.704-0.698h68.251c0.389,0,0.704,0.313,0.704,0.698V17.836z"/>
<path fill="#1E1E1E" d="M626.87,17.836c0,0.386-0.315,0.698-0.704,0.698h-68.251c-0.389,0-0.704-0.313-0.704-0.698V8.232
	c0-0.386,0.315-0.698,0.704-0.698h68.251c0.389,0,0.704,0.313,0.704,0.698V17.836z"/>
<path fill="#1E1E1E" d="M706.182,17.836c0,0.386-0.316,0.698-0.705,0.698h-68.25c-0.389,0-0.704-0.313-0.704-0.698V8.232
	c0-0.386,0.315-0.698,0.704-0.698h68.25c0.389,0,0.705,0.313,0.705,0.698V17.836z"/>
<path fill="#1E1E1E" d="M785.492,17.836c0,0.386-0.315,0.698-0.704,0.698h-68.251c-0.389,0-0.703-0.313-0.703-0.698V8.232
	c0-0.386,0.314-0.698,0.703-0.698h68.251c0.389,0,0.704,0.313,0.704,0.698V17.836z"/>
<path fill="#1E1E1E" d="M889.593,17.836c0,0.386-0.315,0.698-0.704,0.698h-68.251c-0.389,0-0.704-0.313-0.704-0.698V8.232
	c0-0.386,0.315-0.698,0.704-0.698h68.251c0.389,0,0.704,0.313,0.704,0.698V17.836z"/>
<path fill="#1E1E1E" d="M968.904,17.836c0,0.386-0.316,0.698-0.705,0.698h-68.25c-0.389,0-0.704-0.313-0.704-0.698V8.232
	c0-0.386,0.315-0.698,0.704-0.698h68.25c0.389,0,0.705,0.313,0.705,0.698V17.836z"/>
<path fill="#1E1E1E" d="M1048.215,17.836c0,0.386-0.316,0.698-0.704,0.698H979.26c-0.389,0-0.703-0.313-0.703-0.698V8.232
	c0-0.386,0.314-0.698,0.703-0.698h68.251c0.388,0,0.704,0.313,0.704,0.698V17.836z"/>
<path fill="#787A79" stroke="#191919" stroke-miterlimit="10" d="M1255.959,117.427c0,1.14-0.896,2.064-2,2.064h-189.334
	c-1.104,0-2-0.925-2-2.064V9.599c0-1.14,0.896-2.064,2-2.064h189.334c1.104,0,2,0.924,2,2.064V117.427z"/>
<path fill="#DDDBD3" d="M1251.427,115.033c0,1.09-0.856,1.973-1.911,1.973h-180.929c-1.056,0-1.912-0.883-1.912-1.973V11.992
	c0-1.089,0.856-1.973,1.912-1.973h180.929c1.055,0,1.911,0.883,1.911,1.973V115.033z"/>
<path fill="#84807C" stroke="#111111" stroke-width="0.5" stroke-miterlimit="10" d="M1212.696,28.412
	c-2.114-0.12-2.632-1.077-2.632-1.077c0-0.358-0.559-0.638-0.559-0.638h-2.791h-45.739h-3.063h-45.74h-2.791
	c0,0-0.558,0.279-0.558,0.638c0,0-0.519,0.957-2.634,1.077c0,0-0.396,0.119-0.396,0.518v11.044c0,0,0.159,0.598,0.477,0.598h1.636
	c0,0,1.156,0.24,1.635,1.037c0,0,0.438,0.279,0.599,0.319h47.773h3.063h47.772c0.16-0.04,0.599-0.319,0.599-0.319
	c0.478-0.797,1.634-1.037,1.634-1.037h1.636c0.318,0,0.478-0.598,0.478-0.598V28.93
	C1213.094,28.531,1212.696,28.412,1212.696,28.412z"/>
<rect x="1111.396" y="28.023" fill="#1C1C1C" width="5.879" height="3.844"/>
<rect x="1120.424" y="28.023" fill="#1C1C1C" width="5.88" height="3.844"/>
<rect x="1129.452" y="28.023" fill="#1C1C1C" width="5.88" height="3.844"/>
<rect x="1138.479" y="28.023" fill="#1C1C1C" width="5.881" height="3.844"/>
<rect x="1147.508" y="28.023" fill="#1C1C1C" width="5.879" height="3.844"/>
<rect x="1156.535" y="28.023" fill="#1C1C1C" width="5.879" height="3.844"/>
<rect x="1165.563" y="28.023" fill="#1C1C1C" width="5.88" height="3.844"/>
<rect x="1174.59" y="28.023" fill="#1C1C1C" width="5.88" height="3.844"/>
<rect x="1183.618" y="28.023" fill="#1C1C1C" width="5.88" height="3.844"/>
<rect x="1192.646" y="28.023" fill="#1C1C1C" width="5.879" height="3.844"/>
<rect x="1111.396" y="36.856" fill="#1C1C1C" width="5.879" height="3.844"/>
<rect x="1120.424" y="36.856" fill="#1C1C1C" width="5.88" height="3.844"/>
<rect x="1129.452" y="36.856" fill="#1C1C1C" width="5.88" height="3.844"/>
<rect x="1138.479" y="36.856" fill="#1C1C1C" width="5.881" height="3.844"/>
<rect x="1147.508" y="36.856" fill="#1C1C1C" width="5.879" height="3.844"/>
<rect x="1156.535" y="36.856" fill="#1C1C1C" width="5.879" height="3.844"/>
<rect x="1165.563" y="36.856" fill="#1C1C1C" width="5.88" height="3.844"/>
<rect x="1174.59" y="36.856" fill="#1C1C1C" width="5.88" height="3.844"/>
<rect x="1183.618" y="36.856" fill="#1C1C1C" width="5.88" height="3.844"/>
<rect x="1192.646" y="36.856" fill="#1C1C1C" width="5.879" height="3.844"/>
<rect x="1201.709" y="28.023" fill="#1C1C1C" width="5.879" height="3.844"/>
<rect x="1201.709" y="36.856" fill="#1C1C1C" width="5.879" height="3.844"/>
<path fill="#84807C" stroke="#111111" stroke-width="0.5" stroke-miterlimit="10" d="M1227.559,56.025c0,0.935-0.896,1.692-2,1.692
	h-132.166c-1.105,0-2-0.757-2-1.692v-5.075c0-0.935,0.895-1.692,2-1.692h132.166c1.104,0,2,0.757,2,1.692V56.025z"/>
<rect x="1092.851" y="51.862" fill="#1C1C1C" width="5.88" height="3.252"/>
<rect x="1101.879" y="51.862" fill="#1C1C1C" width="5.879" height="3.252"/>
<rect x="1110.906" y="51.862" fill="#1C1C1C" width="5.879" height="3.252"/>
<rect x="1119.934" y="51.862" fill="#1C1C1C" width="5.879" height="3.252"/>
<rect x="1128.961" y="51.862" fill="#1C1C1C" width="5.88" height="3.252"/>
<rect x="1137.989" y="51.862" fill="#1C1C1C" width="5.88" height="3.252"/>
<rect x="1147.018" y="51.862" fill="#1C1C1C" width="5.879" height="3.252"/>
<rect x="1156.045" y="51.862" fill="#1C1C1C" width="5.879" height="3.252"/>
<rect x="1165.072" y="51.862" fill="#1C1C1C" width="5.879" height="3.252"/>
<rect x="1174.1" y="51.862" fill="#1C1C1C" width="5.879" height="3.252"/>
<rect x="1183.162" y="51.862" fill="#1C1C1C" width="5.88" height="3.252"/>
<rect x="1192.287" y="51.862" fill="#1C1C1C" width="5.88" height="3.252"/>
<rect x="1201.314" y="51.862" fill="#1C1C1C" width="5.881" height="3.252"/>
<rect x="1210.378" y="51.862" fill="#1C1C1C" width="5.88" height="3.252"/>
<rect x="1219.114" y="51.862" fill="#1C1C1C" width="5.88" height="3.252"/>
<g>
	<path fill="#D5D5D5" d="M1089.35,96.223c0,1.511,1.443,2.735,3.223,2.735h136.286c1.778,0,3.222-1.225,3.222-2.735V72.291
		c0-1.51-1.443-2.734-3.222-2.734h-136.286c-1.779,0-3.223,1.225-3.223,2.734V96.223z"/>
	<path fill="#060404" d="M1092.572,69.154h136.286c1.997,0,3.625,1.406,3.625,3.137v23.932c0,1.73-1.628,3.139-3.625,3.139h-136.286
		c-1.999,0-3.625-1.408-3.625-3.139V72.291C1088.947,70.561,1090.573,69.154,1092.572,69.154z M1228.858,98.556
		c1.554,0,2.819-1.046,2.819-2.333V72.291c0-1.285-1.266-2.332-2.819-2.332h-136.286c-1.555,0-2.819,1.047-2.819,2.332v23.932
		c0,1.287,1.265,2.333,2.819,2.333H1228.858z"/>
</g>
<path fill="none" stroke="#2D3A3D" stroke-miterlimit="10" d="M1059.52,20.162c0,1.104-0.895,2-2,2H6.291
	c-1.104,0-1.999-0.896-1.999-2V3.733c0-1.104,0.896-2,1.999-2H1057.52c1.105,0,2,0.896,2,2V20.162z"/>
</svg>
