<?xml version="1.0" encoding="utf-8"?>
<!-- Generator: Adobe Illustrator 16.0.0, SVG Export Plug-In . SVG Version: 6.00 Build 0)  -->
<!DOCTYPE svg PUBLIC "-//W3C//DTD SVG 1.1//EN" "http://www.w3.org/Graphics/SVG/1.1/DTD/svg11.dtd">
<svg version="1.1" id="图层_1" xmlns="http://www.w3.org/2000/svg" xmlns:xlink="http://www.w3.org/1999/xlink" x="0px" y="0px"
	 width="1275.59px" height="252px" viewBox="0 0 1275.59 252" enable-background="new 0 0 1275.59 252" xml:space="preserve">
<g>
	<rect fill="#E0DFD2" width="1275.59" height="252"/>
</g>
<g>
	<rect fill="#BFBFB2" width="61.482" height="252"/>
</g>
<g>
	<rect x="1214.896" fill="#BFBFB2" width="61.482" height="252"/>
</g>
<g>
	<polygon fill="#EFEFEF" points="204.689,14.332 250.143,14.332 250.144,72.335 227.417,80.137 204.69,72.675 	"/>
	<path fill="#7E7F80" d="M227.42,80.664l-0.159-0.053l-23.071-7.574l0-59.205h46.454l0,58.86L227.42,80.664z M205.19,72.313
		l22.223,7.297l22.231-7.632l0-57.146h-44.454L205.19,72.313z"/>
</g>
<g>
	<rect x="212.967" y="30.274" fill="#A4A4A4" width="28.899" height="27.137"/>
	<path fill="#727272" d="M242.366,57.911h-29.899V29.774h29.899V57.911z M213.467,56.911h27.899V30.774h-27.899V56.911z"/>
</g>
<g>
	<rect x="226.696" y="59.9" fill="#555656" width="1.442" height="14.587"/>
</g>
<g>
	<polygon fill="#EFEFEF" points="1010.53,14.332 1055.984,14.332 1055.984,72.335 1033.258,80.137 1010.531,72.675 	"/>
	<path fill="#7E7F80" d="M1033.261,80.664l-0.159-0.053l-23.07-7.574l-0.001-59.205h46.454v58.86L1033.261,80.664z M1011.031,72.313
		l22.223,7.297l22.23-7.632V14.832h-44.454L1011.031,72.313z"/>
</g>
<g>
	<rect x="1018.809" y="30.274" fill="#A4A4A4" width="28.898" height="27.137"/>
	<path fill="#727272" d="M1048.207,57.911h-29.898V29.774h29.898V57.911z M1019.309,56.911h27.898V30.774h-27.898V56.911z"/>
</g>
<g>
	<rect x="1032.537" y="59.9" fill="#555656" width="1.441" height="14.587"/>
</g>
<g>
	<g>
		<path fill="#EB7049" d="M299.474,59.749h-17.192v-4h14.937c1.315-2.345,1.768-4.134,1.31-5.209
			c-0.735-1.727-4.331-2.498-7.503-3.179c-4.406-0.945-9.4-2.018-10.367-6.297c-0.748-3.31-0.386-5.956,1.074-7.866
			c1.817-2.375,4.556-2.56,4.862-2.572l15.89-0.002v4h-15.724c-0.208,0.022-1.238,0.177-1.872,1.034
			c-0.677,0.914-0.79,2.479-0.328,4.525c0.403,1.786,3.912,2.538,7.304,3.267c4.325,0.928,8.796,1.887,10.344,5.522
			c1.08,2.534,0.376,5.75-2.148,9.829L299.474,59.749z"/>
	</g>
	<g>
		<path fill="#EB7049" d="M368.856,59.749h-17.192v-4h14.937c1.315-2.345,1.768-4.134,1.31-5.209
			c-0.734-1.727-4.33-2.498-7.502-3.179c-4.406-0.945-9.4-2.018-10.367-6.297c-0.748-3.31-0.386-5.956,1.074-7.866
			c1.817-2.375,4.556-2.56,4.862-2.572l15.89-0.002v4h-15.724c-0.208,0.022-1.238,0.177-1.872,1.034
			c-0.677,0.914-0.79,2.479-0.328,4.525c0.403,1.786,3.912,2.538,7.304,3.267c4.325,0.928,8.796,1.887,10.344,5.522
			c1.08,2.534,0.376,5.75-2.148,9.829L368.856,59.749z"/>
	</g>
	<g>
		<path fill="#EB7049" d="M318.284,60.804c-7.743,0.001-10.918-5.29-10.96-5.361l-0.269-0.465V31.066h4v22.745
			c1.004,1.251,4.905,4.988,13.75,1.655v-25.15h4v27.818l-1.212,0.52C323.949,60.217,320.862,60.804,318.284,60.804z"/>
	</g>
	<g>
		<polygon fill="#EB7049" points="328.172,60.17 325.797,58.783 326.513,57.556 324.805,57.556 324.805,53.572 330.188,56.715 		"/>
	</g>
	<g>
		<path fill="#EB7049" d="M346.305,59.412l-4-0.053c0.002-0.189,0.246-18.962,0.005-22.213c-0.117-1.583-1.065-2.505-1.586-2.897
			h-8.794v-4h9.847l0.422,0.211c1.399,0.699,3.836,2.833,4.101,6.392C346.553,40.273,346.315,58.632,346.305,59.412z"/>
	</g>
	<g>
		<polygon fill="#EB7049" points="398.11,60.692 377.235,60.692 377.235,30.192 397.485,30.192 397.485,34.192 381.235,34.192 
			381.235,56.692 398.11,56.692 		"/>
	</g>
	<g>
		<rect x="384.485" y="42.317" fill="#EB7049" width="13.625" height="4"/>
	</g>
	<g>
		<polygon fill="#EB7049" points="406.031,60.813 402.19,59.696 411.234,28.63 416.269,28.63 426.993,58.581 423.228,59.929 
			413.885,33.838 		"/>
	</g>
</g>
<g>
	<g>
		<circle fill="#FFFFFF" cx="165.731" cy="220.514" r="11.499"/>
	</g>
	<g>
		<circle fill="#2A2B2B" cx="165.731" cy="220.514" r="4.133"/>
	</g>
</g>
<g>
	<g>
		<circle fill="#FFFFFF" cx="241.866" cy="220.514" r="11.499"/>
	</g>
	<g>
		<circle fill="#2A2B2B" cx="241.866" cy="220.514" r="4.133"/>
	</g>
</g>
<g>
	<g>
		<circle fill="#FFFFFF" cx="1059.206" cy="220.514" r="11.499"/>
	</g>
	<g>
		<circle fill="#2A2B2B" cx="1059.207" cy="220.514" r="4.133"/>
	</g>
</g>
<g>
	<g>
		<circle fill="#FFFFFF" cx="1135.341" cy="220.514" r="11.499"/>
	</g>
	<g>
		<circle fill="#2A2B2B" cx="1135.341" cy="220.514" r="4.133"/>
	</g>
</g>
<path fill="#AFAFAF" d="M1257.928,31.956c-6.079,6.78-16.512,7.345-23.299,1.259c-6.789-6.087-7.361-16.519-1.282-23.299
	c6.081-6.782,16.513-7.346,23.302-1.26C1263.436,14.742,1264.01,25.174,1257.928,31.956"/>
<ellipse transform="matrix(0.7445 0.6676 -0.6676 0.7445 332.1849 -826.2094)" fill="none" stroke="#939393" stroke-miterlimit="10" cx="1245.637" cy="20.936" rx="16.508" ry="16.491"/>
<path fill="#AFAFAF" d="M1254.668,29.033c-4.467,4.981-12.133,5.396-17.119,0.925c-4.988-4.472-5.408-12.137-0.941-17.119
	c4.468-4.983,12.133-5.397,17.121-0.926C1258.715,16.384,1259.136,24.05,1254.668,29.033"/>
<ellipse transform="matrix(0.7445 0.6676 -0.6676 0.7445 332.2048 -826.231)" fill="none" stroke="#939393" stroke-miterlimit="10" cx="1245.638" cy="20.936" rx="12.129" ry="12.117"/>
<g>
	<g>
		<defs>
			
				<rect id="SVGID_1_" x="1234.203" y="9.514" transform="matrix(-0.7445 -0.6676 0.6676 -0.7445 2159.0801 868.0919)" width="22.87" height="22.842"/>
		</defs>
		<clipPath id="SVGID_2_">
			<use xlink:href="#SVGID_1_"  overflow="visible"/>
		</clipPath>
		<path clip-path="url(#SVGID_2_)" fill="#BEBFBF" d="M1254.148,28.567c-4.209,4.695-11.434,5.086-16.135,0.871
			c-4.7-4.215-5.098-11.438-0.888-16.134c4.211-4.697,11.436-5.087,16.137-0.873C1257.963,16.646,1258.359,23.871,1254.148,28.567"
			/>
		<path clip-path="url(#SVGID_2_)" fill="#C0C1C1" d="M1253.948,28.388c-4.11,4.584-11.165,4.966-15.755,0.851
			s-4.977-11.169-0.867-15.754c4.112-4.586,11.166-4.968,15.757-0.852C1257.672,16.747,1258.06,23.802,1253.948,28.388"/>
		<path clip-path="url(#SVGID_2_)" fill="#C3C4C4" d="M1253.748,28.208c-4.012,4.475-10.896,4.848-15.376,0.831
			s-4.856-10.901-0.845-15.375c4.012-4.475,10.896-4.848,15.377-0.832C1257.383,16.849,1257.761,23.733,1253.748,28.208"/>
		<path clip-path="url(#SVGID_2_)" fill="#C5C6C6" d="M1253.549,28.029c-3.914,4.364-10.628,4.727-14.997,0.81
			c-4.369-3.917-4.738-10.632-0.825-14.996c3.914-4.365,10.629-4.728,14.998-0.811C1257.094,16.949,1257.462,23.664,1253.549,28.029
			"/>
		<path clip-path="url(#SVGID_2_)" fill="#C7C9C9" d="M1253.348,27.85c-3.813,4.253-10.359,4.607-14.617,0.79
			c-4.258-3.818-4.616-10.364-0.803-14.617c3.813-4.254,10.36-4.609,14.617-0.792C1256.804,17.049,1257.162,23.596,1253.348,27.85"
			/>
		<path clip-path="url(#SVGID_2_)" fill="#CACBCB" d="M1253.147,27.67c-3.714,4.143-10.089,4.488-14.237,0.769
			s-4.497-10.094-0.783-14.237c3.716-4.144,10.091-4.489,14.239-0.771C1256.514,17.151,1256.863,23.525,1253.147,27.67"/>
		<path clip-path="url(#SVGID_2_)" fill="#CCCECE" d="M1252.947,27.49c-3.615,4.033-9.82,4.368-13.857,0.749
			c-4.037-3.621-4.377-9.824-0.762-13.857c3.617-4.034,9.82-4.37,13.858-0.75C1256.223,17.251,1256.564,23.457,1252.947,27.49"/>
		<path clip-path="url(#SVGID_2_)" fill="#CED0D0" d="M1252.748,27.311c-3.517,3.921-9.553,4.249-13.479,0.728
			c-3.927-3.521-4.259-9.557-0.742-13.479c3.518-3.923,9.554-4.249,13.48-0.729C1255.934,17.352,1256.266,23.388,1252.748,27.311"/>
		<path clip-path="url(#SVGID_2_)" fill="#D1D3D3" d="M1252.547,27.131c-3.418,3.812-9.282,4.13-13.099,0.708
			c-3.815-3.421-4.138-9.287-0.72-13.098c3.418-3.813,9.283-4.13,13.1-0.708S1255.966,23.318,1252.547,27.131"/>
		<path clip-path="url(#SVGID_2_)" fill="#D3D5D5" d="M1252.348,26.952c-3.319,3.701-9.014,4.008-12.72,0.687
			c-3.706-3.323-4.019-9.018-0.7-12.719c3.32-3.703,9.015-4.011,12.721-0.688C1255.354,17.555,1255.667,23.249,1252.348,26.952"/>
	</g>
</g>
<polygon fill="#605F5E" points="1239.941,25.052 1243.53,21.05 1239.523,17.457 1241.516,15.235 1245.522,18.828 1249.111,14.826 
	1251.334,16.819 1247.746,20.821 1251.752,24.413 1249.76,26.635 1245.754,23.043 1242.166,27.045 "/>
<path fill="#231815" d="M1250.97,16.839l-3.243,3.617l-0.345,0.385l0.385,0.345l3.62,3.246l-1.646,1.837l-3.621-3.247l-0.385-0.345
	l-0.345,0.385l-3.243,3.618l-1.84-1.649l3.244-3.618l0.346-0.385l-0.386-0.346l-3.621-3.247l1.647-1.836l3.62,3.247l0.386,0.345
	l0.345-0.385l3.243-3.617L1250.97,16.839z M1251.699,16.8l-2.609-2.339l-3.587,4.001l-4.006-3.591l-2.337,2.606l4.006,3.591
	l-3.589,4.002l2.608,2.339l3.589-4.002l4.005,3.591l2.337-2.606l-4.005-3.591L1251.699,16.8z"/>
<path fill="#AFAFAF" d="M1257.928,226.534c-6.079,6.78-16.512,7.345-23.299,1.259c-6.789-6.087-7.361-16.519-1.282-23.299
	c6.081-6.782,16.513-7.346,23.302-1.26C1263.436,209.32,1264.01,219.752,1257.928,226.534"/>
<ellipse transform="matrix(0.7445 0.6676 -0.6676 0.7445 462.0806 -776.5027)" fill="none" stroke="#939393" stroke-miterlimit="10" cx="1245.637" cy="215.514" rx="16.508" ry="16.491"/>
<path fill="#AFAFAF" d="M1254.668,223.611c-4.467,4.981-12.133,5.396-17.119,0.925c-4.988-4.472-5.408-12.138-0.941-17.119
	c4.468-4.983,12.133-5.397,17.121-0.926C1258.715,210.963,1259.136,218.628,1254.668,223.611"/>
<ellipse transform="matrix(0.7445 0.6676 -0.6676 0.7445 462.1039 -776.5213)" fill="none" stroke="#939393" stroke-miterlimit="10" cx="1245.638" cy="215.514" rx="12.129" ry="12.117"/>
<g>
	<g>
		<defs>
			
				<rect id="SVGID_3_" x="1234.203" y="204.092" transform="matrix(-0.7445 -0.6676 0.6676 -0.7445 2029.1824 1207.5398)" width="22.87" height="22.842"/>
		</defs>
		<clipPath id="SVGID_4_">
			<use xlink:href="#SVGID_3_"  overflow="visible"/>
		</clipPath>
		<path clip-path="url(#SVGID_4_)" fill="#BEBFBF" d="M1254.148,223.146c-4.209,4.695-11.434,5.086-16.135,0.871
			c-4.7-4.215-5.098-11.438-0.888-16.134c4.211-4.697,11.436-5.088,16.137-0.873
			C1257.963,211.225,1258.359,218.449,1254.148,223.146"/>
		<path clip-path="url(#SVGID_4_)" fill="#C0C1C1" d="M1253.948,222.966c-4.11,4.584-11.165,4.966-15.755,0.851
			s-4.977-11.17-0.867-15.754c4.112-4.586,11.166-4.968,15.757-0.852C1257.672,211.325,1258.06,218.38,1253.948,222.966"/>
		<path clip-path="url(#SVGID_4_)" fill="#C3C4C4" d="M1253.748,222.786c-4.012,4.475-10.896,4.848-15.376,0.831
			s-4.856-10.901-0.845-15.375c4.012-4.476,10.896-4.849,15.377-0.832C1257.383,211.427,1257.761,218.312,1253.748,222.786"/>
		<path clip-path="url(#SVGID_4_)" fill="#C5C6C6" d="M1253.549,222.607c-3.914,4.363-10.628,4.727-14.997,0.81
			s-4.738-10.632-0.825-14.996c3.914-4.364,10.629-4.728,14.998-0.811S1257.462,218.242,1253.549,222.607"/>
		<path clip-path="url(#SVGID_4_)" fill="#C7C9C9" d="M1253.348,222.428c-3.813,4.253-10.359,4.607-14.617,0.79
			c-4.258-3.818-4.616-10.364-0.803-14.616c3.813-4.255,10.36-4.609,14.617-0.792
			C1256.804,211.627,1257.162,218.174,1253.348,222.428"/>
		<path clip-path="url(#SVGID_4_)" fill="#CACBCB" d="M1253.147,222.248c-3.714,4.143-10.089,4.488-14.237,0.77
			c-4.148-3.72-4.497-10.095-0.783-14.237c3.716-4.144,10.091-4.489,14.239-0.771
			C1256.514,211.729,1256.863,218.104,1253.147,222.248"/>
		<path clip-path="url(#SVGID_4_)" fill="#CCCECE" d="M1252.947,222.068c-3.615,4.033-9.82,4.368-13.857,0.748
			s-4.377-9.824-0.762-13.856c3.617-4.034,9.82-4.37,13.858-0.75C1256.223,211.83,1256.564,218.035,1252.947,222.068"/>
		<path clip-path="url(#SVGID_4_)" fill="#CED0D0" d="M1252.748,221.889c-3.517,3.922-9.553,4.249-13.479,0.729
			c-3.927-3.521-4.259-9.557-0.742-13.479c3.518-3.923,9.554-4.249,13.48-0.729C1255.934,211.93,1256.266,217.967,1252.748,221.889"
			/>
		<path clip-path="url(#SVGID_4_)" fill="#D1D3D3" d="M1252.547,221.709c-3.418,3.812-9.282,4.13-13.099,0.708
			c-3.815-3.421-4.138-9.286-0.72-13.099s9.283-4.13,13.1-0.708S1255.966,217.896,1252.547,221.709"/>
		<path clip-path="url(#SVGID_4_)" fill="#D3D5D5" d="M1252.348,221.53c-3.319,3.701-9.014,4.009-12.72,0.687
			c-3.706-3.323-4.019-9.018-0.7-12.719c3.32-3.703,9.015-4.011,12.721-0.688C1255.354,212.133,1255.667,217.827,1252.348,221.53"/>
	</g>
</g>
<polygon fill="#605F5E" points="1239.941,219.63 1243.53,215.628 1239.523,212.035 1241.516,209.813 1245.522,213.406 
	1249.111,209.404 1251.334,211.397 1247.746,215.399 1251.752,218.991 1249.76,221.213 1245.754,217.621 1242.166,221.623 "/>
<path fill="#231815" d="M1250.97,211.418l-3.243,3.616l-0.345,0.386l0.385,0.345l3.62,3.246l-1.646,1.837l-3.621-3.247l-0.385-0.345
	l-0.345,0.385l-3.243,3.618l-1.84-1.649l3.244-3.617l0.346-0.385l-0.386-0.346l-3.621-3.246l1.647-1.837l3.62,3.247l0.386,0.345
	l0.345-0.385l3.243-3.617L1250.97,211.418z M1251.699,211.378l-2.609-2.339l-3.587,4.001l-4.006-3.591l-2.337,2.605l4.006,3.592
	l-3.589,4.002l2.608,2.34l3.589-4.002l4.005,3.59l2.337-2.605l-4.005-3.592L1251.699,211.378z"/>
<path fill="#AFAFAF" d="M42.631,31.956c-6.08,6.78-16.512,7.345-23.3,1.259c-6.788-6.087-7.361-16.519-1.282-23.299
	c6.081-6.782,16.514-7.346,23.302-1.26C48.139,14.742,48.712,25.174,42.631,31.956"/>
<ellipse transform="matrix(0.7446 0.6676 -0.6676 0.7446 21.7264 -14.906)" fill="none" stroke="#939393" stroke-miterlimit="10" cx="30.34" cy="20.936" rx="16.508" ry="16.491"/>
<path fill="#AFAFAF" d="M39.371,29.033c-4.466,4.981-12.132,5.396-17.119,0.925s-5.408-12.137-0.941-17.119
	c4.468-4.983,12.134-5.397,17.121-0.926C43.417,16.384,43.839,24.05,39.371,29.033"/>
<ellipse transform="matrix(0.7445 0.6676 -0.6676 0.7445 21.7279 -14.9064)" fill="none" stroke="#939393" stroke-miterlimit="10" cx="30.34" cy="20.936" rx="12.129" ry="12.117"/>
<g>
	<g>
		<defs>
			
				<rect id="SVGID_5_" x="18.906" y="9.514" transform="matrix(-0.7445 -0.6676 0.6676 -0.7445 38.9546 56.777)" width="22.87" height="22.842"/>
		</defs>
		<clipPath id="SVGID_6_">
			<use xlink:href="#SVGID_5_"  overflow="visible"/>
		</clipPath>
		<path clip-path="url(#SVGID_6_)" fill="#BEBFBF" d="M38.852,28.567c-4.21,4.695-11.435,5.086-16.135,0.871
			S17.619,18,21.829,13.305c4.211-4.697,11.436-5.087,16.137-0.873C42.666,16.646,43.063,23.871,38.852,28.567"/>
		<path clip-path="url(#SVGID_6_)" fill="#C0C1C1" d="M38.651,28.388c-4.11,4.584-11.165,4.966-15.755,0.851
			s-4.977-11.169-0.866-15.754c4.111-4.586,11.166-4.968,15.756-0.852C42.375,16.747,42.763,23.802,38.651,28.388"/>
		<path clip-path="url(#SVGID_6_)" fill="#C3C4C4" d="M38.451,28.208c-4.012,4.475-10.896,4.848-15.376,0.831
			c-4.479-4.017-4.856-10.901-0.844-15.375c4.012-4.475,10.897-4.848,15.377-0.832S42.463,23.733,38.451,28.208"/>
		<path clip-path="url(#SVGID_6_)" fill="#C5C6C6" d="M38.251,28.029c-3.913,4.364-10.628,4.727-14.997,0.81
			c-4.369-3.917-4.738-10.632-0.825-14.996c3.914-4.365,10.629-4.728,14.998-0.811C41.796,16.949,42.165,23.664,38.251,28.029"/>
		<path clip-path="url(#SVGID_6_)" fill="#C7C9C9" d="M38.051,27.85c-3.813,4.253-10.36,4.607-14.618,0.79
			c-4.258-3.818-4.617-10.364-0.803-14.617c3.814-4.254,10.36-4.609,14.618-0.792C41.506,17.049,41.865,23.596,38.051,27.85"/>
		<path clip-path="url(#SVGID_6_)" fill="#CACBCB" d="M37.85,27.67c-3.714,4.143-10.089,4.488-14.237,0.769
			c-4.147-3.719-4.498-10.094-0.782-14.237c3.715-4.144,10.09-4.489,14.238-0.771C41.217,17.151,41.566,23.525,37.85,27.67"/>
		<path clip-path="url(#SVGID_6_)" fill="#CCCECE" d="M37.651,27.49c-3.616,4.033-9.821,4.368-13.858,0.749
			c-4.037-3.621-4.377-9.824-0.762-13.857c3.617-4.034,9.821-4.37,13.858-0.75C40.926,17.251,41.267,23.457,37.651,27.49"/>
		<path clip-path="url(#SVGID_6_)" fill="#CED0D0" d="M37.451,27.311c-3.517,3.921-9.553,4.249-13.479,0.728
			c-3.927-3.521-4.258-9.557-0.742-13.479c3.518-3.923,9.554-4.249,13.48-0.729C40.636,17.352,40.968,23.388,37.451,27.311"/>
		<path clip-path="url(#SVGID_6_)" fill="#D1D3D3" d="M37.25,27.131c-3.417,3.812-9.282,4.13-13.098,0.708
			c-3.816-3.421-4.138-9.287-0.72-13.098c3.418-3.813,9.284-4.13,13.1-0.708C40.347,17.454,40.668,23.318,37.25,27.131"/>
		<path clip-path="url(#SVGID_6_)" fill="#D3D5D5" d="M37.05,26.952c-3.319,3.701-9.014,4.008-12.72,0.687
			c-3.706-3.323-4.019-9.018-0.7-12.719c3.32-3.703,9.015-4.011,12.721-0.688C40.056,17.555,40.37,23.249,37.05,26.952"/>
	</g>
</g>
<polygon fill="#605F5E" points="24.645,25.052 28.233,21.05 24.227,17.457 26.219,15.235 30.225,18.828 33.814,14.826 
	36.037,16.819 32.449,20.821 36.455,24.413 34.463,26.635 30.457,23.043 26.869,27.045 "/>
<path fill="#231815" d="M35.672,16.839l-3.243,3.617l-0.345,0.385l0.385,0.345l3.621,3.246l-1.647,1.837l-3.621-3.247l-0.385-0.345
	l-0.346,0.385l-3.243,3.618l-1.839-1.649l3.243-3.618l0.346-0.385l-0.386-0.346l-3.621-3.247l1.647-1.836l3.621,3.247l0.385,0.345
	l0.345-0.385l3.243-3.617L35.672,16.839z M36.402,16.8l-2.608-2.339l-3.588,4.001l-4.006-3.591l-2.336,2.606l4.006,3.591
	L24.28,25.07l2.609,2.339l3.588-4.002l4.005,3.591l2.337-2.606l-4.004-3.591L36.402,16.8z"/>
<path fill="#AFAFAF" d="M42.631,226.534c-6.08,6.78-16.512,7.345-23.3,1.259c-6.788-6.087-7.361-16.519-1.282-23.299
	c6.081-6.782,16.514-7.346,23.302-1.26S48.712,219.752,42.631,226.534"/>
<ellipse transform="matrix(0.7446 0.6676 -0.6676 0.7446 151.6192 34.798)" fill="none" stroke="#939393" stroke-miterlimit="10" cx="30.34" cy="215.514" rx="16.508" ry="16.491"/>
<path fill="#AFAFAF" d="M39.371,223.611c-4.466,4.981-12.132,5.396-17.119,0.925s-5.408-12.138-0.941-17.119
	c4.468-4.983,12.134-5.397,17.121-0.926C43.417,210.963,43.839,218.628,39.371,223.611"/>
<ellipse transform="matrix(0.7445 0.6676 -0.6676 0.7445 151.627 34.8033)" fill="none" stroke="#939393" stroke-miterlimit="10" cx="30.34" cy="215.514" rx="12.129" ry="12.117"/>
<g>
	<g>
		<defs>
			
				<rect id="SVGID_7_" x="18.906" y="204.092" transform="matrix(-0.7445 -0.6676 0.6676 -0.7445 -90.943 396.2249)" width="22.87" height="22.842"/>
		</defs>
		<clipPath id="SVGID_8_">
			<use xlink:href="#SVGID_7_"  overflow="visible"/>
		</clipPath>
		<path clip-path="url(#SVGID_8_)" fill="#BEBFBF" d="M38.852,223.146c-4.21,4.695-11.435,5.086-16.135,0.871
			s-5.098-11.438-0.888-16.134c4.211-4.697,11.436-5.088,16.137-0.873S43.063,218.449,38.852,223.146"/>
		<path clip-path="url(#SVGID_8_)" fill="#C0C1C1" d="M38.651,222.966c-4.11,4.584-11.165,4.966-15.755,0.851
			s-4.977-11.17-0.866-15.754c4.111-4.586,11.166-4.968,15.756-0.852C42.375,211.325,42.763,218.38,38.651,222.966"/>
		<path clip-path="url(#SVGID_8_)" fill="#C3C4C4" d="M38.451,222.786c-4.012,4.475-10.896,4.848-15.376,0.831
			c-4.479-4.017-4.856-10.901-0.844-15.375c4.012-4.476,10.897-4.849,15.377-0.832S42.463,218.312,38.451,222.786"/>
		<path clip-path="url(#SVGID_8_)" fill="#C5C6C6" d="M38.251,222.607c-3.913,4.363-10.628,4.727-14.997,0.81
			s-4.738-10.632-0.825-14.996c3.914-4.364,10.629-4.728,14.998-0.811S42.165,218.242,38.251,222.607"/>
		<path clip-path="url(#SVGID_8_)" fill="#C7C9C9" d="M38.051,222.428c-3.813,4.253-10.36,4.607-14.618,0.79
			c-4.258-3.818-4.617-10.364-0.803-14.616c3.814-4.255,10.36-4.609,14.618-0.792C41.506,211.627,41.865,218.174,38.051,222.428"/>
		<path clip-path="url(#SVGID_8_)" fill="#CACBCB" d="M37.85,222.248c-3.714,4.143-10.089,4.488-14.237,0.77
			c-4.147-3.72-4.498-10.095-0.782-14.237c3.715-4.144,10.09-4.489,14.238-0.771C41.217,211.729,41.566,218.104,37.85,222.248"/>
		<path clip-path="url(#SVGID_8_)" fill="#CCCECE" d="M37.651,222.068c-3.616,4.033-9.821,4.368-13.858,0.748
			s-4.377-9.824-0.762-13.856c3.617-4.034,9.821-4.37,13.858-0.75S41.267,218.035,37.651,222.068"/>
		<path clip-path="url(#SVGID_8_)" fill="#CED0D0" d="M37.451,221.889c-3.517,3.922-9.553,4.249-13.479,0.729
			c-3.927-3.521-4.258-9.557-0.742-13.479c3.518-3.923,9.554-4.249,13.48-0.729C40.636,211.93,40.968,217.967,37.451,221.889"/>
		<path clip-path="url(#SVGID_8_)" fill="#D1D3D3" d="M37.25,221.709c-3.417,3.812-9.282,4.13-13.098,0.708
			c-3.816-3.421-4.138-9.286-0.72-13.099s9.284-4.13,13.1-0.708C40.347,212.032,40.668,217.896,37.25,221.709"/>
		<path clip-path="url(#SVGID_8_)" fill="#D3D5D5" d="M37.05,221.53c-3.319,3.701-9.014,4.009-12.72,0.687
			c-3.706-3.323-4.019-9.018-0.7-12.719c3.32-3.703,9.015-4.011,12.721-0.688C40.056,212.133,40.37,217.827,37.05,221.53"/>
	</g>
</g>
<polygon fill="#605F5E" points="24.645,219.63 28.233,215.628 24.227,212.035 26.219,209.813 30.225,213.406 33.814,209.404 
	36.037,211.397 32.449,215.399 36.455,218.991 34.463,221.213 30.457,217.621 26.869,221.623 "/>
<path fill="#231815" d="M35.672,211.418l-3.243,3.616l-0.345,0.386l0.385,0.345l3.621,3.246l-1.647,1.837l-3.621-3.247l-0.385-0.345
	l-0.346,0.385l-3.243,3.618l-1.839-1.649l3.243-3.617l0.346-0.385l-0.386-0.346l-3.621-3.246l1.647-1.837l3.621,3.247l0.385,0.345
	l0.345-0.385l3.243-3.617L35.672,211.418z M36.402,211.378l-2.608-2.339l-3.588,4.001l-4.006-3.591l-2.336,2.605l4.006,3.592
	l-3.589,4.002l2.609,2.34l3.588-4.002l4.005,3.59l2.337-2.605l-4.004-3.592L36.402,211.378z"/>
</svg>
