<?xml version="1.0" encoding="utf-8"?>
<!-- Generator: Adobe Illustrator 16.0.0, SVG Export Plug-In . SVG Version: 6.00 Build 0)  -->
<!DOCTYPE svg PUBLIC "-//W3C//DTD SVG 1.1//EN" "http://www.w3.org/Graphics/SVG/1.1/DTD/svg11.dtd">
<svg version="1.1" id="图层_1" xmlns="http://www.w3.org/2000/svg" xmlns:xlink="http://www.w3.org/1999/xlink" x="0px" y="0px"
	 width="1275.59px" height="126.14px" viewBox="0 0 1275.59 126.14" enable-background="new 0 0 1275.59 126.14"
	 xml:space="preserve">
<g>
	<g>
		<path fill="#0C0C0C" d="M1275.575,115.412c0,6.075-4.925,11-11,11H10.985c-6.075,0-11-4.925-11-11V11.271c0-6.075,4.925-11,11-11
			h1253.59c6.075,0,11,4.925,11,11V115.412z"/>
	</g>
	<g>
		<path fill="#7583B9" d="M72.127,0.271H10.985c-6.075,0-11,4.925-11,11v104.142c0,6.075,4.925,11,11,11h61.143V0.271z"/>
	</g>
	<g>
		<path fill="#040001" d="M50.731,26.534c0,3.866-3.134,7-7,7h-23c-3.866,0-7-3.134-7-7l0,0c0-3.866,3.134-7,7-7h23
			C47.597,19.534,50.731,22.668,50.731,26.534L50.731,26.534z"/>
	</g>
	<g>
		<path fill="#040001" d="M50.731,102.534c0,3.866-3.134,7-7,7h-23c-3.866,0-7-3.134-7-7l0,0c0-3.866,3.134-7,7-7h23
			C47.597,95.534,50.731,98.668,50.731,102.534L50.731,102.534z"/>
	</g>
	<g>
		<path fill="#AFAEAE" d="M36.315,74.054c-4.46,4.461-11.696,4.457-16.161-0.008c-4.466-4.466-4.469-11.703-0.009-16.162
			c4.462-4.462,11.698-4.459,16.163,0.008C40.774,62.356,40.777,69.593,36.315,74.054"/>
	</g>
	<g>
		<path fill="#929292" d="M28.242,77.897c-3.188,0-6.187-1.242-8.442-3.498c-2.255-2.254-3.497-5.25-3.498-8.437
			s1.238-6.182,3.489-8.433c2.251-2.251,5.245-3.491,8.429-3.491c3.188,0,6.187,1.243,8.441,3.499
			c2.254,2.254,3.497,5.25,3.498,8.436c0.001,3.188-1.239,6.182-3.491,8.434C34.418,76.657,31.426,77.897,28.242,77.897z
			 M28.22,55.039c-2.917,0-5.66,1.136-7.722,3.198c-2.063,2.063-3.198,4.806-3.196,7.725c0.001,2.92,1.139,5.665,3.205,7.73
			c2.066,2.066,4.813,3.205,7.735,3.205c2.917,0,5.658-1.136,7.719-3.197c2.063-2.063,3.199-4.807,3.198-7.726
			c-0.001-2.92-1.14-5.664-3.205-7.729C33.888,56.178,31.142,55.039,28.22,55.039z"/>
	</g>
	<g>
		<path fill="#AFAEAE" d="M34.171,71.909c-3.278,3.277-8.596,3.275-11.875-0.006c-3.281-3.279-3.284-8.598-0.006-11.875
			c3.278-3.278,8.596-3.275,11.876,0.004C37.448,63.313,37.45,68.631,34.171,71.909"/>
	</g>
	<g>
		<path fill="#929292" d="M28.238,74.866c-2.378,0-4.614-0.927-6.295-2.609c-1.681-1.68-2.608-3.915-2.609-6.291
			c-0.001-2.378,0.923-4.611,2.604-6.291c1.679-1.679,3.912-2.604,6.288-2.604c2.377,0,4.613,0.926,6.295,2.607
			c3.471,3.471,3.473,9.116,0.004,12.584C32.846,73.941,30.613,74.866,28.238,74.866z M28.225,58.071
			c-2.108,0-4.09,0.82-5.581,2.311c-1.491,1.49-2.312,3.474-2.311,5.583s0.824,4.093,2.316,5.585
			c1.493,1.493,3.478,2.316,5.589,2.316c2.108,0,4.089-0.821,5.58-2.311c3.078-3.078,3.076-8.089-0.005-11.17
			C32.32,58.894,30.335,58.071,28.225,58.071z"/>
	</g>
	<g>
		<g>
			<defs>
				
					<rect id="SVGID_1_" x="20.311" y="58.058" transform="matrix(-0.7072 -0.707 0.707 -0.7072 1.5516 132.5791)" width="15.839" height="15.82"/>
			</defs>
			<clipPath id="SVGID_2_">
				<use xlink:href="#SVGID_1_"  overflow="visible"/>
			</clipPath>
			<g clip-path="url(#SVGID_2_)">
				<path fill="#BEBEBD" d="M33.83,71.567c-3.089,3.09-8.1,3.086-11.191-0.006c-3.093-3.092-3.095-8.104-0.006-11.191
					c3.089-3.09,8.1-3.088,11.191,0.005C36.917,63.466,36.919,68.478,33.83,71.567"/>
			</g>
			<g clip-path="url(#SVGID_2_)">
				<path fill="#C0C0C0" d="M33.698,71.437c-3.016,3.016-7.909,3.013-10.929-0.008c-3.02-3.018-3.021-7.912-0.006-10.928
					c3.017-3.017,7.91-3.016,10.93,0.005S36.714,68.419,33.698,71.437"/>
			</g>
			<g clip-path="url(#SVGID_2_)">
				<path fill="#C2C3C3" d="M33.566,71.305c-2.942,2.942-7.72,2.942-10.667-0.005c-2.946-2.947-2.947-7.723-0.004-10.666
					c2.943-2.943,7.72-2.943,10.667,0.002C36.508,63.584,36.51,68.36,33.566,71.305"/>
			</g>
			<g clip-path="url(#SVGID_2_)">
				<path fill="#C4C5C4" d="M33.434,71.173c-2.871,2.871-7.528,2.868-10.402-0.005c-2.874-2.876-2.876-7.532-0.006-10.403
					c2.874-2.871,7.53-2.869,10.404,0.004C36.304,63.644,36.306,68.302,33.434,71.173"/>
			</g>
			<g clip-path="url(#SVGID_2_)">
				<path fill="#C6C8C8" d="M33.303,71.041c-2.798,2.798-7.338,2.795-10.14-0.005c-2.801-2.802-2.802-7.342-0.005-10.14
					c2.799-2.799,7.339-2.798,10.141,0.005C36.1,63.702,36.102,68.243,33.303,71.041"/>
			</g>
			<g clip-path="url(#SVGID_2_)">
				<path fill="#C9CACB" d="M33.17,70.909c-2.725,2.725-7.146,2.724-9.875-0.005c-2.729-2.729-2.729-7.149-0.005-9.876
					c2.727-2.727,7.148-2.725,9.876,0.004C35.896,63.761,35.897,68.183,33.17,70.909"/>
			</g>
			<g clip-path="url(#SVGID_2_)">
				<path fill="#CBCDCD" d="M33.04,70.778c-2.652,2.652-6.957,2.65-9.613-0.006c-2.655-2.654-2.656-6.96-0.005-9.613
					c2.654-2.652,6.958-2.652,9.614,0.004C35.691,63.819,35.693,68.124,33.04,70.778"/>
			</g>
			<g clip-path="url(#SVGID_2_)">
				<path fill="#CCCFD0" d="M32.908,70.646c-2.579,2.58-6.768,2.58-9.35-0.004c-2.583-2.582-2.584-6.771-0.005-9.35
					c2.581-2.582,6.769-2.58,9.351,0.002C35.488,63.878,35.489,68.063,32.908,70.646"/>
			</g>
			<g clip-path="url(#SVGID_2_)">
				<path fill="#D0D2D2" d="M32.774,70.514c-2.505,2.507-6.575,2.506-9.084-0.003c-2.511-2.511-2.512-6.582-0.005-9.086
					c2.509-2.51,6.578-2.508,9.088,0.002C35.284,63.937,35.284,68.006,32.774,70.514"/>
			</g>
			<g clip-path="url(#SVGID_2_)">
				<path fill="#D2D4D5" d="M32.645,70.384c-2.435,2.434-6.386,2.432-8.823-0.006s-2.439-6.389-0.005-8.822
					c2.436-2.436,6.386-2.436,8.824,0.003C35.079,63.997,35.08,67.947,32.645,70.384"/>
			</g>
		</g>
	</g>
	<g>
		<polygon fill="#605F5E" points="24.136,68.601 26.769,65.968 24.133,63.332 25.595,61.87 28.231,64.507 30.863,61.872 
			32.327,63.336 29.694,65.969 32.329,68.604 30.868,70.065 28.232,67.431 25.599,70.063 		"/>
	</g>
	<g>
		<path fill="#221714" d="M32.074,63.337l-2.38,2.379l-0.254,0.253l0.254,0.254l2.382,2.382l-1.209,1.207l-2.381-2.381l-0.254-0.254
			l-0.253,0.254L25.6,69.809l-1.209-1.208l2.379-2.379l0.253-0.253l-0.254-0.255l-2.382-2.382l1.208-1.208l2.382,2.381l0.254,0.254
			l0.252-0.252l2.379-2.379L32.074,63.337z M32.579,63.337l-1.716-1.717l-2.632,2.633l-2.635-2.635l-1.716,1.714l2.636,2.636
			l-2.633,2.633l1.716,1.717l2.633-2.633l2.635,2.633l1.715-1.713l-2.635-2.636L32.579,63.337z"/>
	</g>
	<g>
		<path fill="#7583B9" d="M1203.432,0.271h61.144c6.075,0,11,4.925,11,11v104.142c0,6.075-4.925,11-11,11h-61.144V0.271z"/>
	</g>
	<g>
		<path fill="#040001" d="M1224.829,26.534c0,3.866,3.134,7,7,7h23c3.866,0,7-3.134,7-7l0,0c0-3.866-3.134-7-7-7h-23
			C1227.963,19.534,1224.829,22.668,1224.829,26.534L1224.829,26.534z"/>
	</g>
	<g>
		<path fill="#040001" d="M1224.829,102.534c0,3.866,3.134,7,7,7h23c3.866,0,7-3.134,7-7l0,0c0-3.866-3.134-7-7-7h-23
			C1227.963,95.534,1224.829,98.668,1224.829,102.534L1224.829,102.534z"/>
	</g>
	<g>
		<path fill="#AFAEAE" d="M1239.245,74.054c4.46,4.461,11.696,4.457,16.161-0.008c4.466-4.466,4.469-11.703,0.009-16.162
			c-4.462-4.462-11.698-4.459-16.163,0.008C1234.786,62.356,1234.783,69.593,1239.245,74.054"/>
	</g>
	<g>
		<path fill="#929292" d="M1247.318,77.897L1247.318,77.897c-3.185-0.001-6.178-1.24-8.427-3.49
			c-2.253-2.252-3.492-5.246-3.491-8.434c0.002-3.186,1.244-6.182,3.498-8.436c2.255-2.256,5.253-3.499,8.441-3.499
			c3.184,0,6.178,1.24,8.429,3.491s3.491,5.246,3.489,8.433s-1.244,6.183-3.498,8.437
			C1253.504,76.654,1250.506,77.897,1247.318,77.897z M1247.34,55.039c-2.922,0-5.668,1.139-7.734,3.206
			c-2.065,2.065-3.203,4.81-3.205,7.729c-0.001,2.919,1.135,5.662,3.198,7.726c2.062,2.062,4.802,3.196,7.72,3.197l0,0
			c2.922,0,5.668-1.139,7.734-3.205c2.065-2.065,3.203-4.811,3.205-7.73c0.002-2.919-1.134-5.662-3.196-7.725
			C1253,56.175,1250.256,55.039,1247.34,55.039z"/>
	</g>
	<g>
		<path fill="#AFAEAE" d="M1241.389,71.909c3.278,3.277,8.596,3.275,11.875-0.006c3.281-3.279,3.283-8.598,0.006-11.875
			c-3.278-3.278-8.596-3.275-11.876,0.004C1238.112,63.313,1238.11,68.631,1241.389,71.909"/>
	</g>
	<g>
		<path fill="#929292" d="M1247.322,74.866L1247.322,74.866c-2.375-0.001-4.607-0.925-6.287-2.604
			c-3.469-3.468-3.466-9.113,0.005-12.584c1.683-1.682,3.918-2.607,6.296-2.607c2.375,0,4.608,0.925,6.287,2.604
			c1.68,1.68,2.604,3.913,2.604,6.291c-0.002,2.376-0.928,4.611-2.609,6.291C1251.936,73.939,1249.7,74.866,1247.322,74.866z
			 M1247.336,58.071c-2.111,0-4.096,0.822-5.589,2.314c-3.081,3.081-3.083,8.092-0.005,11.17c1.49,1.489,3.471,2.31,5.58,2.311
			c2.111,0,4.096-0.823,5.588-2.316c1.492-1.492,2.314-3.476,2.316-5.585c0.001-2.109-0.82-4.093-2.311-5.583
			S1249.443,58.071,1247.336,58.071z"/>
	</g>
	<g>
		<g>
			<defs>
				
					<rect id="SVGID_3_" x="1239.41" y="58.058" transform="matrix(0.7072 -0.707 0.707 0.7072 318.615 901.2359)" width="15.839" height="15.82"/>
			</defs>
			<clipPath id="SVGID_4_">
				<use xlink:href="#SVGID_3_"  overflow="visible"/>
			</clipPath>
			<g clip-path="url(#SVGID_4_)">
				<path fill="#BEBEBD" d="M1241.73,71.567c3.089,3.09,8.1,3.086,11.191-0.006c3.093-3.092,3.095-8.104,0.006-11.191
					c-3.09-3.09-8.1-3.088-11.191,0.005C1238.644,63.466,1238.641,68.478,1241.73,71.567"/>
			</g>
			<g clip-path="url(#SVGID_4_)">
				<path fill="#C0C0C0" d="M1241.862,71.437c3.015,3.016,7.909,3.013,10.929-0.008c3.02-3.018,3.021-7.912,0.006-10.928
					c-3.017-3.017-7.91-3.016-10.93,0.005S1238.846,68.419,1241.862,71.437"/>
			</g>
			<g clip-path="url(#SVGID_4_)">
				<path fill="#C2C3C3" d="M1241.994,71.305c2.942,2.942,7.719,2.942,10.666-0.005c2.946-2.947,2.947-7.723,0.005-10.666
					c-2.943-2.943-7.72-2.943-10.667,0.002C1239.052,63.584,1239.05,68.36,1241.994,71.305"/>
			</g>
			<g clip-path="url(#SVGID_4_)">
				<path fill="#C4C5C4" d="M1242.126,71.173c2.871,2.871,7.528,2.868,10.402-0.005c2.874-2.876,2.876-7.532,0.006-10.403
					c-2.873-2.871-7.53-2.869-10.403,0.004C1239.256,63.644,1239.254,68.302,1242.126,71.173"/>
			</g>
			<g clip-path="url(#SVGID_4_)">
				<path fill="#C6C8C8" d="M1242.256,71.041c2.799,2.798,7.339,2.795,10.141-0.005c2.801-2.802,2.802-7.342,0.005-10.14
					c-2.799-2.799-7.339-2.798-10.141,0.005C1239.46,63.702,1239.458,68.243,1242.256,71.041"/>
			</g>
			<g clip-path="url(#SVGID_4_)">
				<path fill="#C9CACB" d="M1242.39,70.909c2.725,2.725,7.146,2.724,9.875-0.005c2.729-2.729,2.729-7.149,0.005-9.876
					c-2.727-2.727-7.148-2.725-9.876,0.004C1239.664,63.761,1239.663,68.183,1242.39,70.909"/>
			</g>
			<g clip-path="url(#SVGID_4_)">
				<path fill="#CBCDCD" d="M1242.521,70.778c2.651,2.652,6.957,2.65,9.613-0.006c2.655-2.654,2.656-6.96,0.005-9.613
					c-2.654-2.652-6.958-2.652-9.614,0.004S1239.867,68.124,1242.521,70.778"/>
			</g>
			<g clip-path="url(#SVGID_4_)">
				<path fill="#CCCFD0" d="M1242.652,70.646c2.579,2.58,6.768,2.58,9.35-0.004c2.583-2.582,2.584-6.771,0.004-9.35
					c-2.58-2.582-6.768-2.58-9.35,0.002C1240.072,63.878,1240.071,68.063,1242.652,70.646"/>
			</g>
			<g clip-path="url(#SVGID_4_)">
				<path fill="#D0D2D2" d="M1242.785,70.514c2.506,2.507,6.575,2.506,9.085-0.003c2.511-2.511,2.511-6.582,0.005-9.086
					c-2.509-2.51-6.578-2.508-9.088,0.002C1240.276,63.937,1240.276,68.006,1242.785,70.514"/>
			</g>
			<g clip-path="url(#SVGID_4_)">
				<path fill="#D2D4D5" d="M1242.915,70.384c2.435,2.434,6.386,2.432,8.823-0.006s2.439-6.389,0.005-8.822
					c-2.436-2.436-6.386-2.436-8.823,0.003C1240.481,63.997,1240.48,67.947,1242.915,70.384"/>
			</g>
		</g>
	</g>
	<g>
		<polygon fill="#605F5E" points="1251.424,68.601 1248.791,65.968 1251.427,63.332 1249.965,61.87 1247.329,64.507 
			1244.697,61.872 1243.233,63.336 1245.866,65.969 1243.231,68.604 1244.692,70.065 1247.328,67.431 1249.961,70.063 		"/>
	</g>
	<g>
		<path fill="#221714" d="M1244.697,62.128l2.379,2.379l0.253,0.252l0.254-0.254l2.382-2.381l1.207,1.208l-2.381,2.382l-0.254,0.255
			l0.253,0.253l2.379,2.379l-1.209,1.208l-2.379-2.378l-0.253-0.254l-0.254,0.254l-2.381,2.381l-1.209-1.207l2.382-2.382
			l0.254-0.254l-0.254-0.253l-2.38-2.379L1244.697,62.128z M1245.613,65.969l-2.635,2.636l1.715,1.713l2.635-2.633l2.633,2.633
			l1.716-1.717l-2.633-2.633l2.636-2.636l-1.717-1.714l-2.634,2.635l-2.632-2.633l-1.716,1.717L1245.613,65.969z"/>
	</g>
	<g>
		<rect x="75.323" y="0.271" fill="#DDDBD3" width="272.26" height="126.142"/>
	</g>
	<g>
		<rect x="347.583" y="0.271" fill="#7583B9" width="853.244" height="126.142"/>
	</g>
	<g>
		<path fill="#7583B9" d="M1173.98,107.343c0,5.021-3.402,9.09-7.602,9.09H979.952c-4.198,0-7.601-4.068-7.601-9.09V27.601
			c0-5.021,3.402-9.092,7.601-9.092h186.427c4.199,0,7.602,4.07,7.602,9.092V107.343z"/>
		<path fill="#181919" d="M1166.379,116.933H979.952c-4.466,0-8.101-4.302-8.101-9.59V27.601c0-5.289,3.635-9.592,8.101-9.592
			h186.427c4.468,0,8.102,4.303,8.102,9.592v79.742C1174.48,112.631,1170.847,116.933,1166.379,116.933z M979.952,19.009
			c-3.915,0-7.101,3.854-7.101,8.592v79.742c0,4.736,3.186,8.59,7.101,8.59h186.427c3.916,0,7.102-3.854,7.102-8.59V27.601
			c0-4.737-3.186-8.592-7.102-8.592H979.952z"/>
	</g>
	<g>
		<g>
			<path fill="#AFAEAE" d="M978.574,32.955c2.53,2.531,6.637,2.528,9.17-0.005s2.535-6.64,0.005-9.17
				c-2.532-2.531-6.638-2.53-9.171,0.004C976.044,26.317,976.043,30.424,978.574,32.955"/>
		</g>
		<g>
			<path fill="#929292" d="M983.154,35.352L983.154,35.352c-1.865,0-3.617-0.726-4.934-2.043c-1.318-1.318-2.045-3.072-2.044-4.938
				s0.728-3.62,2.048-4.939c1.32-1.32,3.075-2.048,4.941-2.048c1.865,0,3.618,0.726,4.937,2.044
				c1.317,1.318,2.044,3.072,2.043,4.938c-0.001,1.866-0.728,3.62-2.048,4.939C986.777,34.624,985.021,35.352,983.154,35.352z
				 M983.166,22.383c-1.6,0-3.104,0.623-4.234,1.755c-1.131,1.131-1.754,2.634-1.755,4.232s0.62,3.102,1.751,4.231
				c1.129,1.129,2.629,1.75,4.227,1.75l0,0c1.6,0,3.104-0.623,4.236-1.755c1.131-1.131,1.754-2.634,1.755-4.232
				s-0.62-3.102-1.75-4.23S984.764,22.383,983.166,22.383z"/>
		</g>
		<g>
			<path fill="#AFAEAE" d="M979.791,31.738c1.859,1.859,4.877,1.858,6.737-0.003c1.862-1.861,1.863-4.879,0.003-6.738
				c-1.859-1.86-4.877-1.858-6.738,0.002C977.932,26.861,977.931,29.878,979.791,31.738"/>
		</g>
		<g>
			<path fill="#929292" d="M983.158,33.632L983.158,33.632c-1.406,0-2.729-0.547-3.721-1.54c-2.053-2.052-2.051-5.393,0.002-7.446
				c0.995-0.995,2.318-1.543,3.725-1.543s2.728,0.548,3.721,1.541c0.994,0.993,1.541,2.315,1.541,3.722
				c-0.001,1.407-0.549,2.729-1.545,3.724C985.887,33.084,984.564,33.632,983.158,33.632z M983.164,24.103
				c-1.139,0-2.211,0.444-3.018,1.25c-1.663,1.664-1.664,4.37-0.002,6.032c0.805,0.805,1.874,1.247,3.013,1.247h0.001
				c1.139,0,2.211-0.443,3.017-1.25c0.806-0.805,1.251-1.877,1.251-3.017s-0.443-2.21-1.248-3.015S984.303,24.103,983.164,24.103z"
				/>
		</g>
		<g>
			<g>
				<defs>
					
						<rect id="SVGID_5_" x="978.668" y="23.88" transform="matrix(0.7072 -0.707 0.707 0.7072 267.7986 703.399)" width="8.987" height="8.976"/>
				</defs>
				<clipPath id="SVGID_6_">
					<use xlink:href="#SVGID_5_"  overflow="visible"/>
				</clipPath>
				<g clip-path="url(#SVGID_6_)">
					<path fill="#BEBEBD" d="M979.984,31.544c1.753,1.754,4.596,1.751,6.35-0.003c1.754-1.755,1.756-4.599,0.004-6.351
						c-1.753-1.753-4.596-1.752-6.35,0.003C978.232,26.947,978.231,29.791,979.984,31.544"/>
				</g>
				<g clip-path="url(#SVGID_6_)">
					<path fill="#C0C0C0" d="M980.06,31.47c1.711,1.711,4.487,1.709,6.2-0.004c1.714-1.713,1.714-4.489,0.004-6.201
						c-1.712-1.711-4.488-1.711-6.201,0.004C978.349,26.981,978.348,29.758,980.06,31.47"/>
				</g>
				<g clip-path="url(#SVGID_6_)">
					<path fill="#C2C3C3" d="M980.134,31.396c1.67,1.669,4.38,1.669,6.052-0.003c1.672-1.673,1.673-4.382,0.003-6.052
						s-4.38-1.67-6.052,0.001C978.465,27.015,978.463,29.725,980.134,31.396"/>
				</g>
				<g clip-path="url(#SVGID_6_)">
					<path fill="#C4C5C4" d="M980.209,31.32c1.629,1.629,4.271,1.628,5.902-0.003c1.631-1.632,1.632-4.273,0.003-5.902
						c-1.63-1.629-4.272-1.628-5.902,0.002C978.58,27.048,978.579,29.691,980.209,31.32"/>
				</g>
				<g clip-path="url(#SVGID_6_)">
					<path fill="#C6C8C8" d="M980.283,31.245c1.588,1.588,4.163,1.586,5.753-0.002c1.589-1.59,1.59-4.166,0.003-5.754
						c-1.588-1.588-4.164-1.587-5.754,0.004C978.696,27.081,978.695,29.657,980.283,31.245"/>
				</g>
				<g clip-path="url(#SVGID_6_)">
					<path fill="#C9CACB" d="M980.358,31.171c1.546,1.546,4.055,1.545,5.603-0.003c1.549-1.548,1.549-4.057,0.002-5.604
						c-1.546-1.547-4.055-1.546-5.603,0.002S978.812,29.624,980.358,31.171"/>
				</g>
				<g clip-path="url(#SVGID_6_)">
					<path fill="#CBCDCD" d="M980.433,31.097c1.505,1.505,3.946,1.504,5.454-0.004c1.507-1.506,1.508-3.949,0.003-5.454
						c-1.506-1.505-3.947-1.505-5.455,0.002C978.928,27.147,978.928,29.591,980.433,31.097"/>
				</g>
				<g clip-path="url(#SVGID_6_)">
					<path fill="#CCCFD0" d="M980.508,31.021c1.463,1.465,3.84,1.465,5.305-0.002c1.466-1.465,1.466-3.842,0.003-5.305
						c-1.465-1.465-3.841-1.464-5.306,0.001C979.044,27.181,979.043,29.556,980.508,31.021"/>
				</g>
				<g clip-path="url(#SVGID_6_)">
					<path fill="#D0D2D2" d="M980.583,30.946c1.421,1.422,3.73,1.422,5.154-0.002c1.425-1.424,1.426-3.734,0.003-5.155
						c-1.424-1.424-3.732-1.423-5.156,0.001C979.159,27.214,979.159,29.523,980.583,30.946"/>
				</g>
				<g clip-path="url(#SVGID_6_)">
					<path fill="#D2D4D5" d="M980.656,30.872c1.382,1.381,3.623,1.38,5.007-0.002c1.382-1.384,1.384-3.626,0.003-5.007
						c-1.383-1.382-3.624-1.382-5.007,0.002C979.275,27.249,979.275,29.49,980.656,30.872"/>
				</g>
			</g>
		</g>
		<g>
			<polygon fill="#605F5E" points="985.484,29.86 983.99,28.368 985.486,26.872 984.656,26.042 983.161,27.538 981.668,26.043 
				980.836,26.874 982.331,28.368 980.836,29.863 981.665,30.692 983.16,29.197 984.654,30.69 			"/>
		</g>
		<g>
			<path fill="#221714" d="M981.668,26.188l1.35,1.35l0.144,0.143l0.144-0.144l1.352-1.351l0.686,0.686l-1.352,1.351l-0.144,0.146
				l0.144,0.143l1.35,1.35l-0.686,0.686l-1.351-1.349l-0.144-0.145l-0.144,0.145l-1.351,1.351l-0.687-0.685l1.352-1.352l0.144-0.144
				l-0.144-0.145l-1.351-1.35L981.668,26.188z M982.188,28.368l-1.495,1.495l0.974,0.972l1.494-1.494l1.494,1.494l0.973-0.975
				l-1.493-1.492l1.495-1.496l-0.973-0.973l-1.495,1.494l-1.493-1.493l-0.974,0.974L982.188,28.368z"/>
		</g>
	</g>
	<g>
		<g>
			<path fill="#AFAEAE" d="M1158.106,32.955c2.53,2.531,6.637,2.528,9.17-0.005c2.534-2.533,2.535-6.64,0.005-9.17
				c-2.531-2.531-6.638-2.53-9.171,0.004C1155.576,26.317,1155.575,30.424,1158.106,32.955"/>
		</g>
		<g>
			<path fill="#929292" d="M1162.688,35.352L1162.688,35.352c-1.865,0-3.617-0.726-4.936-2.043
				c-1.318-1.318-2.044-3.072-2.043-4.938c0-1.866,0.729-3.62,2.047-4.939c1.32-1.32,3.076-2.048,4.943-2.048
				c1.864,0,3.617,0.726,4.936,2.044s2.044,3.072,2.043,4.938c-0.001,1.866-0.729,3.62-2.049,4.939
				C1166.309,34.624,1164.554,35.352,1162.688,35.352z M1162.699,22.383c-1.6,0-3.104,0.623-4.236,1.755
				c-1.131,1.131-1.754,2.634-1.754,4.232s0.621,3.102,1.751,4.231c1.128,1.129,2.63,1.75,4.227,1.75h0.001
				c1.6,0,3.104-0.623,4.234-1.755c1.132-1.131,1.756-2.634,1.756-4.232c0.001-1.599-0.621-3.102-1.75-4.23
				S1164.297,22.383,1162.699,22.383z"/>
		</g>
		<g>
			<path fill="#AFAEAE" d="M1159.322,31.738c1.86,1.859,4.878,1.858,6.738-0.003c1.861-1.861,1.863-4.879,0.003-6.738
				c-1.859-1.86-4.877-1.858-6.738,0.002C1157.463,26.861,1157.463,29.878,1159.322,31.738"/>
		</g>
		<g>
			<path fill="#929292" d="M1162.689,33.632L1162.689,33.632c-1.406,0-2.727-0.547-3.721-1.54c-2.051-2.052-2.05-5.393,0.003-7.446
				c0.995-0.995,2.318-1.543,3.726-1.543c1.406,0,2.727,0.548,3.72,1.541c0.994,0.993,1.542,2.315,1.541,3.722
				c-0.001,1.407-0.549,2.729-1.544,3.724C1165.42,33.084,1164.097,33.632,1162.689,33.632z M1162.697,24.103
				c-1.141,0-2.213,0.444-3.019,1.25c-1.663,1.664-1.664,4.37-0.003,6.032c0.805,0.805,1.875,1.247,3.014,1.247l0,0
				c1.141,0,2.211-0.443,3.018-1.25c0.807-0.805,1.25-1.877,1.251-3.017s-0.442-2.21-1.248-3.015
				C1164.906,24.546,1163.836,24.103,1162.697,24.103z"/>
		</g>
		<g>
			<g>
				<defs>
					
						<rect id="SVGID_7_" x="1158.2" y="23.88" transform="matrix(0.7072 -0.707 0.707 0.7072 320.3628 830.3276)" width="8.987" height="8.976"/>
				</defs>
				<clipPath id="SVGID_8_">
					<use xlink:href="#SVGID_7_"  overflow="visible"/>
				</clipPath>
				<g clip-path="url(#SVGID_8_)">
					<path fill="#BEBEBD" d="M1159.517,31.544c1.753,1.754,4.596,1.751,6.351-0.003c1.754-1.755,1.756-4.599,0.003-6.351
						c-1.753-1.753-4.596-1.752-6.351,0.003C1157.766,26.947,1157.764,29.791,1159.517,31.544"/>
				</g>
				<g clip-path="url(#SVGID_8_)">
					<path fill="#C0C0C0" d="M1159.592,31.47c1.711,1.711,4.487,1.709,6.2-0.004c1.714-1.713,1.714-4.489,0.003-6.201
						c-1.711-1.711-4.487-1.711-6.201,0.004C1157.881,26.981,1157.879,29.758,1159.592,31.47"/>
				</g>
				<g clip-path="url(#SVGID_8_)">
					<path fill="#C2C3C3" d="M1159.666,31.396c1.67,1.669,4.381,1.669,6.052-0.003c1.672-1.673,1.673-4.382,0.003-6.052
						s-4.38-1.67-6.053,0.001C1157.997,27.015,1157.996,29.725,1159.666,31.396"/>
				</g>
				<g clip-path="url(#SVGID_8_)">
					<path fill="#C4C5C4" d="M1159.741,31.32c1.629,1.629,4.271,1.628,5.902-0.003c1.63-1.632,1.632-4.273,0.003-5.902
						c-1.63-1.629-4.271-1.628-5.902,0.002C1158.112,27.048,1158.111,29.691,1159.741,31.32"/>
				</g>
				<g clip-path="url(#SVGID_8_)">
					<path fill="#C6C8C8" d="M1159.815,31.245c1.587,1.588,4.163,1.586,5.753-0.002c1.59-1.59,1.59-4.166,0.003-5.754
						c-1.588-1.588-4.164-1.587-5.754,0.004C1158.229,27.081,1158.228,29.657,1159.815,31.245"/>
				</g>
				<g clip-path="url(#SVGID_8_)">
					<path fill="#C9CACB" d="M1159.891,31.171c1.546,1.546,4.055,1.545,5.604-0.003s1.549-4.057,0.002-5.604
						s-4.056-1.546-5.604,0.002C1158.344,27.114,1158.344,29.624,1159.891,31.171"/>
				</g>
				<g clip-path="url(#SVGID_8_)">
					<path fill="#CBCDCD" d="M1159.965,31.097c1.505,1.505,3.947,1.504,5.455-0.004c1.506-1.506,1.507-3.949,0.002-5.454
						c-1.506-1.505-3.947-1.505-5.455,0.002C1158.46,27.147,1158.459,29.591,1159.965,31.097"/>
				</g>
				<g clip-path="url(#SVGID_8_)">
					<path fill="#CCCFD0" d="M1160.04,31.021c1.462,1.465,3.839,1.465,5.305-0.002c1.466-1.465,1.466-3.842,0.003-5.305
						c-1.465-1.465-3.842-1.464-5.306,0.001C1158.576,27.181,1158.575,29.556,1160.04,31.021"/>
				</g>
				<g clip-path="url(#SVGID_8_)">
					<path fill="#D0D2D2" d="M1160.115,30.946c1.422,1.422,3.73,1.422,5.154-0.002c1.425-1.424,1.426-3.734,0.003-5.155
						c-1.423-1.424-3.732-1.423-5.156,0.001C1158.691,27.214,1158.691,29.523,1160.115,30.946"/>
				</g>
				<g clip-path="url(#SVGID_8_)">
					<path fill="#D2D4D5" d="M1160.188,30.872c1.382,1.381,3.624,1.38,5.007-0.002c1.383-1.384,1.384-3.626,0.002-5.007
						c-1.381-1.382-3.623-1.382-5.006,0.002S1158.808,29.49,1160.188,30.872"/>
				</g>
			</g>
		</g>
		<g>
			<polygon fill="#605F5E" points="1165.017,29.86 1163.522,28.368 1165.019,26.872 1164.188,26.042 1162.693,27.538 1161.2,26.043 
				1160.369,26.874 1161.863,28.368 1160.368,29.863 1161.197,30.692 1162.692,29.197 1164.187,30.69 			"/>
		</g>
		<g>
			<path fill="#221714" d="M1161.2,26.188l1.35,1.35l0.144,0.143l0.145-0.144l1.351-1.351l0.686,0.686l-1.352,1.351l-0.144,0.146
				l0.144,0.143l1.35,1.35l-0.687,0.686l-1.35-1.349l-0.144-0.145l-0.144,0.145l-1.352,1.351l-0.686-0.685l1.352-1.352l0.145-0.144
				l-0.145-0.145l-1.351-1.35L1161.2,26.188z M1161.72,28.368l-1.495,1.495l0.973,0.972l1.495-1.494l1.494,1.494l0.974-0.975
				l-1.494-1.492l1.496-1.496l-0.974-0.973l-1.495,1.494L1161.2,25.9l-0.974,0.974L1161.72,28.368z"/>
		</g>
	</g>
	<g>
		<path fill="#7583B9" d="M972.353,107.343c0,5.021-3.403,9.09-7.601,9.09H778.324c-4.197,0-7.601-4.068-7.601-9.09V27.601
			c0-5.021,3.403-9.092,7.601-9.092h186.428c4.197,0,7.601,4.07,7.601,9.092V107.343z"/>
		<path fill="#181919" d="M964.752,116.933H778.324c-4.467,0-8.101-4.302-8.101-9.59V27.601c0-5.289,3.634-9.592,8.101-9.592
			h186.428c4.467,0,8.101,4.303,8.101,9.592v79.742C972.853,112.631,969.219,116.933,964.752,116.933z M778.324,19.009
			c-3.916,0-7.101,3.854-7.101,8.592v79.742c0,4.736,3.185,8.59,7.101,8.59h186.428c3.915,0,7.101-3.854,7.101-8.59V27.601
			c0-4.737-3.186-8.592-7.101-8.592H778.324z"/>
	</g>
	<g>
		<g>
			<path fill="#AFAEAE" d="M776.945,32.955c2.531,2.531,6.637,2.528,9.17-0.005c2.534-2.533,2.535-6.64,0.006-9.17
				c-2.533-2.531-6.639-2.53-9.172,0.004C774.416,26.317,774.414,30.424,776.945,32.955"/>
		</g>
		<g>
			<path fill="#929292" d="M781.526,35.352C781.525,35.352,781.525,35.352,781.526,35.352c-1.865,0-3.617-0.726-4.935-2.043
				c-1.318-1.318-2.045-3.072-2.043-4.938c0-1.866,0.728-3.62,2.047-4.939c1.32-1.32,3.076-2.048,4.942-2.048
				c1.864,0,3.618,0.726,4.937,2.044s2.043,3.072,2.043,4.938c-0.002,1.866-0.729,3.62-2.049,4.939
				C785.148,34.624,783.393,35.352,781.526,35.352z M781.538,22.383c-1.6,0-3.104,0.623-4.235,1.755
				c-1.131,1.131-1.754,2.634-1.754,4.232c-0.002,1.599,0.621,3.102,1.75,4.231c1.129,1.129,2.63,1.75,4.227,1.75h0.001
				c1.6,0,3.104-0.623,4.235-1.755c1.131-1.131,1.755-2.634,1.756-4.232c0-1.599-0.621-3.102-1.75-4.23
				C784.638,23.005,783.136,22.383,781.538,22.383z"/>
		</g>
		<g>
			<path fill="#AFAEAE" d="M778.162,31.738c1.859,1.859,4.877,1.858,6.738-0.003s1.863-4.879,0.002-6.738
				c-1.859-1.86-4.877-1.858-6.738,0.002C776.303,26.861,776.303,29.878,778.162,31.738"/>
		</g>
		<g>
			<path fill="#929292" d="M781.529,33.632L781.529,33.632c-1.406,0-2.728-0.547-3.721-1.54c-2.053-2.052-2.051-5.393,0.002-7.446
				c0.996-0.995,2.318-1.543,3.726-1.543c1.406,0,2.728,0.548,3.72,1.541c0.994,0.993,1.541,2.315,1.541,3.722
				c0,1.407-0.549,2.729-1.543,3.724C784.259,33.084,782.936,33.632,781.529,33.632z M781.536,24.103
				c-1.14,0-2.212,0.444-3.019,1.25c-1.662,1.664-1.664,4.37-0.002,6.032c0.805,0.805,1.875,1.247,3.014,1.247l0,0
				c1.14,0,2.211-0.443,3.018-1.25c0.806-0.805,1.25-1.877,1.25-3.017s-0.442-2.21-1.248-3.015
				C783.745,24.546,782.675,24.103,781.536,24.103z"/>
		</g>
		<g>
			<g>
				<defs>
					
						<rect id="SVGID_9_" x="777.04" y="23.88" transform="matrix(0.7072 -0.707 0.707 0.7072 208.765 560.8481)" width="8.987" height="8.976"/>
				</defs>
				<clipPath id="SVGID_10_">
					<use xlink:href="#SVGID_9_"  overflow="visible"/>
				</clipPath>
				<g clip-path="url(#SVGID_10_)">
					<path fill="#BEBEBD" d="M778.355,31.544c1.754,1.754,4.596,1.751,6.351-0.003c1.755-1.755,1.756-4.599,0.003-6.351
						c-1.752-1.753-4.596-1.752-6.35,0.003C776.604,26.947,776.604,29.791,778.355,31.544"/>
				</g>
				<g clip-path="url(#SVGID_10_)">
					<path fill="#C0C0C0" d="M778.432,31.47c1.711,1.711,4.486,1.709,6.199-0.004c1.715-1.713,1.715-4.489,0.004-6.201
						c-1.711-1.711-4.488-1.711-6.201,0.004C776.721,26.981,776.719,29.758,778.432,31.47"/>
				</g>
				<g clip-path="url(#SVGID_10_)">
					<path fill="#C2C3C3" d="M778.506,31.396c1.67,1.669,4.38,1.669,6.051-0.003c1.672-1.673,1.674-4.382,0.004-6.052
						s-4.381-1.67-6.053,0.001C776.836,27.015,776.835,29.725,778.506,31.396"/>
				</g>
				<g clip-path="url(#SVGID_10_)">
					<path fill="#C4C5C4" d="M778.58,31.32c1.629,1.629,4.271,1.628,5.902-0.003c1.631-1.632,1.633-4.273,0.004-5.902
						c-1.631-1.629-4.273-1.628-5.902,0.002C776.951,27.048,776.951,29.691,778.58,31.32"/>
				</g>
				<g clip-path="url(#SVGID_10_)">
					<path fill="#C6C8C8" d="M778.654,31.245c1.588,1.588,4.164,1.586,5.754-0.002c1.589-1.59,1.59-4.166,0.002-5.754
						s-4.164-1.587-5.754,0.004C777.068,27.081,777.066,29.657,778.654,31.245"/>
				</g>
				<g clip-path="url(#SVGID_10_)">
					<path fill="#C9CACB" d="M778.73,31.171c1.545,1.546,4.055,1.545,5.603-0.003s1.548-4.057,0.003-5.604
						c-1.547-1.547-4.057-1.546-5.604,0.002C777.184,27.114,777.184,29.624,778.73,31.171"/>
				</g>
				<g clip-path="url(#SVGID_10_)">
					<path fill="#CBCDCD" d="M778.805,31.097c1.504,1.505,3.947,1.504,5.454-0.004c1.507-1.506,1.507-3.949,0.003-5.454
						c-1.506-1.505-3.947-1.505-5.455,0.002S777.299,29.591,778.805,31.097"/>
				</g>
				<g clip-path="url(#SVGID_10_)">
					<path fill="#CCCFD0" d="M778.879,31.021c1.463,1.465,3.84,1.465,5.305-0.002c1.467-1.465,1.467-3.842,0.004-5.305
						c-1.465-1.465-3.842-1.464-5.307,0.001C777.416,27.181,777.414,29.556,778.879,31.021"/>
				</g>
				<g clip-path="url(#SVGID_10_)">
					<path fill="#D0D2D2" d="M778.955,30.946c1.422,1.422,3.73,1.422,5.154-0.002s1.426-3.734,0.002-5.155
						c-1.423-1.424-3.732-1.423-5.156,0.001S777.531,29.523,778.955,30.946"/>
				</g>
				<g clip-path="url(#SVGID_10_)">
					<path fill="#D2D4D5" d="M779.027,30.872c1.383,1.381,3.624,1.38,5.008-0.002c1.383-1.384,1.383-3.626,0.002-5.007
						c-1.382-1.382-3.623-1.382-5.006,0.002C777.647,27.249,777.646,29.49,779.027,30.872"/>
				</g>
			</g>
		</g>
		<g>
			<polygon fill="#605F5E" points="783.855,29.86 782.361,28.368 783.857,26.872 783.027,26.042 781.533,27.538 780.039,26.043 
				779.209,26.874 780.703,28.368 779.207,29.863 780.037,30.692 781.531,29.197 783.025,30.69 			"/>
		</g>
		<g>
			<path fill="#221714" d="M780.039,26.188l1.35,1.35l0.145,0.143l0.144-0.144l1.351-1.351l0.686,0.686l-1.352,1.351l-0.143,0.146
				l0.143,0.143l1.35,1.35l-0.686,0.686l-1.35-1.349l-0.145-0.145l-0.143,0.145l-1.352,1.351l-0.686-0.685l1.352-1.352l0.144-0.144
				l-0.144-0.145l-1.352-1.35L780.039,26.188z M780.559,28.368l-1.494,1.495l0.973,0.972l1.494-1.494l1.494,1.494L784,29.86
				l-1.494-1.492l1.496-1.496l-0.975-0.973l-1.494,1.494l-1.494-1.493l-0.973,0.974L780.559,28.368z"/>
		</g>
	</g>
	<g>
		<g>
			<path fill="#AFAEAE" d="M956.479,32.955c2.529,2.531,6.637,2.528,9.17-0.005s2.535-6.64,0.004-9.17
				c-2.531-2.531-6.637-2.53-9.17,0.004C953.947,26.317,953.947,30.424,956.479,32.955"/>
		</g>
		<g>
			<path fill="#929292" d="M961.059,35.352L961.059,35.352c-1.865,0-3.617-0.726-4.934-2.043c-1.319-1.318-2.045-3.072-2.045-4.938
				c0.001-1.866,0.729-3.62,2.049-4.939c1.319-1.32,3.074-2.048,4.941-2.048c1.865,0,3.617,0.726,4.936,2.044
				s2.045,3.072,2.043,4.938c0,1.866-0.728,3.62-2.047,4.939C964.681,34.624,962.926,35.352,961.059,35.352z M961.07,22.383
				c-1.6,0-3.104,0.623-4.234,1.755c-1.132,1.131-1.755,2.634-1.756,4.232c0,1.599,0.621,3.102,1.752,4.231
				c1.128,1.129,2.629,1.75,4.227,1.75l0,0c1.6,0,3.104-0.623,4.236-1.755c1.131-1.131,1.754-2.634,1.754-4.232
				c0.002-1.599-0.62-3.102-1.75-4.23C964.17,23.005,962.668,22.383,961.07,22.383z"/>
		</g>
		<g>
			<path fill="#AFAEAE" d="M957.694,31.738c1.86,1.859,4.878,1.858,6.737-0.003c1.862-1.861,1.863-4.879,0.004-6.738
				c-1.859-1.86-4.877-1.858-6.738,0.002C955.836,26.861,955.834,29.878,957.694,31.738"/>
		</g>
		<g>
			<path fill="#929292" d="M961.062,33.632C961.061,33.632,961.061,33.632,961.062,33.632c-1.406,0-2.728-0.547-3.72-1.54
				c-2.053-2.052-2.051-5.393,0.002-7.446c0.994-0.995,2.318-1.543,3.725-1.543s2.727,0.548,3.721,1.541s1.541,2.315,1.541,3.722
				c-0.002,1.407-0.549,2.729-1.545,3.724C963.791,33.084,962.469,33.632,961.062,33.632z M961.068,24.103
				c-1.14,0-2.212,0.444-3.018,1.25c-1.664,1.664-1.664,4.37-0.004,6.032c0.806,0.805,1.875,1.247,3.014,1.247h0.001
				c1.14,0,2.211-0.443,3.017-1.25c0.807-0.805,1.251-1.877,1.252-3.017c0-1.14-0.443-2.21-1.248-3.015
				S962.207,24.103,961.068,24.103z"/>
		</g>
		<g>
			<g>
				<defs>
					
						<rect id="SVGID_11_" x="956.571" y="23.88" transform="matrix(0.7072 -0.707 0.707 0.7072 261.3289 687.7764)" width="8.987" height="8.976"/>
				</defs>
				<clipPath id="SVGID_12_">
					<use xlink:href="#SVGID_11_"  overflow="visible"/>
				</clipPath>
				<g clip-path="url(#SVGID_12_)">
					<path fill="#BEBEBD" d="M957.889,31.544c1.752,1.754,4.596,1.751,6.35-0.003c1.754-1.755,1.756-4.599,0.004-6.351
						c-1.754-1.753-4.596-1.752-6.351,0.003C956.137,26.947,956.135,29.791,957.889,31.544"/>
				</g>
				<g clip-path="url(#SVGID_12_)">
					<path fill="#C0C0C0" d="M957.963,31.47c1.711,1.711,4.488,1.709,6.201-0.004s1.713-4.489,0.004-6.201
						c-1.713-1.711-4.488-1.711-6.203,0.004C956.252,26.981,956.252,29.758,957.963,31.47"/>
				</g>
				<g clip-path="url(#SVGID_12_)">
					<path fill="#C2C3C3" d="M958.037,31.396c1.67,1.669,4.381,1.669,6.053-0.003c1.672-1.673,1.672-4.382,0.002-6.052
						s-4.379-1.67-6.052,0.001C956.369,27.015,956.367,29.725,958.037,31.396"/>
				</g>
				<g clip-path="url(#SVGID_12_)">
					<path fill="#C4C5C4" d="M958.113,31.32c1.629,1.629,4.271,1.628,5.902-0.003c1.63-1.632,1.631-4.273,0.002-5.902
						s-4.271-1.628-5.902,0.002C956.484,27.048,956.482,29.691,958.113,31.32"/>
				</g>
				<g clip-path="url(#SVGID_12_)">
					<path fill="#C6C8C8" d="M958.188,31.245c1.587,1.588,4.162,1.586,5.752-0.002c1.59-1.59,1.59-4.166,0.004-5.754
						c-1.588-1.588-4.164-1.587-5.754,0.004C956.6,27.081,956.6,29.657,958.188,31.245"/>
				</g>
				<g clip-path="url(#SVGID_12_)">
					<path fill="#C9CACB" d="M958.262,31.171c1.547,1.546,4.055,1.545,5.604-0.003s1.549-4.057,0.002-5.604
						s-4.055-1.546-5.604,0.002S956.715,29.624,958.262,31.171"/>
				</g>
				<g clip-path="url(#SVGID_12_)">
					<path fill="#CBCDCD" d="M958.336,31.097c1.506,1.505,3.947,1.504,5.455-0.004c1.506-1.506,1.508-3.949,0.002-5.454
						s-3.947-1.505-5.455,0.002C956.832,27.147,956.831,29.591,958.336,31.097"/>
				</g>
				<g clip-path="url(#SVGID_12_)">
					<path fill="#CCCFD0" d="M958.412,31.021c1.463,1.465,3.84,1.465,5.305-0.002c1.465-1.465,1.465-3.842,0.002-5.305
						c-1.465-1.465-3.84-1.464-5.305,0.001C956.947,27.181,956.947,29.556,958.412,31.021"/>
				</g>
				<g clip-path="url(#SVGID_12_)">
					<path fill="#D0D2D2" d="M958.486,30.946c1.422,1.422,3.73,1.422,5.154-0.002c1.426-1.424,1.426-3.734,0.004-5.155
						c-1.424-1.424-3.732-1.423-5.156,0.001C957.063,27.214,957.063,29.523,958.486,30.946"/>
				</g>
				<g clip-path="url(#SVGID_12_)">
					<path fill="#D2D4D5" d="M958.561,30.872c1.381,1.381,3.623,1.38,5.006-0.002c1.383-1.384,1.385-3.626,0.003-5.007
						c-1.382-1.382-3.624-1.382-5.007,0.002S957.18,29.49,958.561,30.872"/>
				</g>
			</g>
		</g>
		<g>
			<polygon fill="#605F5E" points="963.389,29.86 961.895,28.368 963.391,26.872 962.561,26.042 961.064,27.538 959.572,26.043 
				958.74,26.874 960.234,28.368 958.74,29.863 959.568,30.692 961.064,29.197 962.559,30.69 			"/>
		</g>
		<g>
			<path fill="#221714" d="M959.572,26.188l1.35,1.35l0.143,0.143l0.145-0.144l1.352-1.351l0.686,0.686l-1.352,1.351l-0.145,0.146
				l0.145,0.143l1.35,1.35l-0.687,0.686l-1.351-1.349l-0.143-0.145l-0.145,0.145l-1.351,1.351l-0.687-0.685l1.352-1.352l0.145-0.144
				l-0.145-0.145l-1.35-1.35L959.572,26.188z M960.092,28.368l-1.496,1.495l0.974,0.972l1.495-1.494l1.494,1.494l0.973-0.975
				l-1.494-1.492l1.496-1.496l-0.973-0.973l-1.496,1.494l-1.492-1.493l-0.975,0.974L960.092,28.368z"/>
		</g>
	</g>
	<g>
		<circle fill="#181919" cx="559.91" cy="15.747" r="3.946"/>
	</g>
	<g>
		<circle fill="#181919" cx="559.91" cy="29.105" r="3.946"/>
	</g>
	<g>
		<circle fill="#181919" cx="559.91" cy="44.29" r="3.946"/>
	</g>
	<g>
		<circle fill="#181919" cx="570.922" cy="22.712" r="3.946"/>
	</g>
	<g>
		<circle fill="#181919" cx="570.922" cy="37.431" r="3.946"/>
	</g>
	<g>
		<circle fill="#181919" cx="581.489" cy="15.747" r="3.946"/>
	</g>
	<g>
		<circle fill="#181919" cx="581.489" cy="29.105" r="3.946"/>
	</g>
	<g>
		<circle fill="#181919" cx="581.489" cy="44.29" r="3.946"/>
	</g>
	<g>
		<circle fill="#181919" cx="592.953" cy="22.712" r="3.946"/>
	</g>
	<g>
		<circle fill="#181919" cx="592.953" cy="37.431" r="3.946"/>
	</g>
	<g>
		<circle fill="#181919" cx="603.52" cy="15.747" r="3.946"/>
	</g>
	<g>
		<circle fill="#181919" cx="603.52" cy="29.105" r="3.946"/>
	</g>
	<g>
		<circle fill="#181919" cx="603.52" cy="44.29" r="3.946"/>
	</g>
	<g>
		<circle fill="#181919" cx="615.597" cy="22.712" r="3.946"/>
	</g>
	<g>
		<circle fill="#181919" cx="615.597" cy="37.431" r="3.946"/>
	</g>
	<g>
		<circle fill="#181919" cx="626.164" cy="15.747" r="3.946"/>
	</g>
	<g>
		<circle fill="#181919" cx="626.164" cy="29.105" r="3.946"/>
	</g>
	<g>
		<circle fill="#181919" cx="626.164" cy="44.29" r="3.946"/>
	</g>
	<g>
		<circle fill="#181919" cx="638.241" cy="22.712" r="3.947"/>
	</g>
	<g>
		<circle fill="#181919" cx="638.241" cy="37.431" r="3.947"/>
	</g>
	<g>
		<circle fill="#181919" cx="648.808" cy="15.747" r="3.946"/>
	</g>
	<g>
		<circle fill="#181919" cx="648.808" cy="29.105" r="3.946"/>
	</g>
	<g>
		<circle fill="#181919" cx="648.808" cy="44.29" r="3.946"/>
	</g>
	<g>
		<circle fill="#181919" cx="660.886" cy="22.712" r="3.946"/>
	</g>
	<g>
		<circle fill="#181919" cx="660.886" cy="37.431" r="3.946"/>
	</g>
	<g>
		<circle fill="#181919" cx="671.453" cy="15.747" r="3.946"/>
	</g>
	<g>
		<circle fill="#181919" cx="671.453" cy="29.105" r="3.946"/>
	</g>
	<g>
		<circle fill="#181919" cx="671.453" cy="44.29" r="3.946"/>
	</g>
	<g>
		<circle fill="#181919" cx="683.53" cy="22.712" r="3.946"/>
	</g>
	<g>
		<circle fill="#181919" cx="683.53" cy="37.431" r="3.946"/>
	</g>
	<g>
		<circle fill="#181919" cx="694.098" cy="15.747" r="3.946"/>
	</g>
	<g>
		<circle fill="#181919" cx="694.098" cy="29.105" r="3.946"/>
	</g>
	<g>
		<circle fill="#181919" cx="694.098" cy="44.29" r="3.946"/>
	</g>
	<g>
		<circle fill="#181919" cx="706.175" cy="22.712" r="3.946"/>
	</g>
	<g>
		<circle fill="#181919" cx="706.175" cy="37.431" r="3.946"/>
	</g>
	<g>
		<circle fill="#181919" cx="716.742" cy="15.747" r="3.947"/>
	</g>
	<g>
		<circle fill="#181919" cx="716.742" cy="29.105" r="3.947"/>
	</g>
	<g>
		<circle fill="#181919" cx="716.742" cy="44.29" r="3.947"/>
	</g>
	<g>
		<circle fill="#181919" cx="728.819" cy="22.712" r="3.946"/>
	</g>
	<g>
		<circle fill="#181919" cx="728.819" cy="37.431" r="3.946"/>
	</g>
	<g>
		<circle fill="#181919" cx="739.387" cy="15.747" r="3.946"/>
	</g>
	<g>
		<circle fill="#181919" cx="739.387" cy="29.105" r="3.946"/>
	</g>
	<g>
		<circle fill="#181919" cx="739.387" cy="44.29" r="3.946"/>
	</g>
	<g>
		<path fill="#F1F1F1" d="M428.177,95.622c0,2.387-1.791,4.322-4,4.322h-36.374c-2.209,0-4-1.936-4-4.322V20.068
			c0-2.387,1.791-4.321,4-4.321h36.374c2.209,0,4,1.935,4,4.321V95.622z"/>
		<path fill="#181919" d="M424.177,100.444h-36.374c-2.481,0-4.5-2.163-4.5-4.822V20.068c0-2.657,2.019-4.821,4.5-4.821h36.374
			c2.481,0,4.5,2.164,4.5,4.821v75.554C428.677,98.281,426.659,100.444,424.177,100.444z M387.803,16.247
			c-1.93,0-3.5,1.714-3.5,3.821v75.554c0,2.107,1.57,3.822,3.5,3.822h36.374c1.93,0,3.5-1.715,3.5-3.822V20.068
			c0-2.107-1.57-3.821-3.5-3.821H387.803z"/>
	</g>
	<g>
		<path fill="#F8F8FA" d="M573.263,111.435l0.71-0.119c0.105,0.344,0.276,0.625,0.513,0.849c0.236,0.224,0.532,0.329,0.888,0.315
			c0.354-0.013,0.637-0.158,0.848-0.434c0.21-0.276,0.302-0.592,0.276-0.947c-0.026-0.354-0.165-0.631-0.414-0.828
			c-0.25-0.197-0.651-0.335-1.203-0.414v-0.513c0.552-0.053,0.953-0.197,1.203-0.435c0.25-0.236,0.361-0.545,0.335-0.927
			c-0.026-0.381-0.197-0.657-0.513-0.828s-0.651-0.19-1.006-0.06c-0.355,0.132-0.637,0.5-0.848,1.104l-0.71-0.118
			c0.158-0.474,0.375-0.868,0.651-1.184c0.276-0.315,0.65-0.499,1.124-0.553c0.474-0.052,0.888,0.007,1.243,0.178
			c0.355,0.172,0.605,0.435,0.75,0.789c0.145,0.355,0.164,0.743,0.06,1.164c-0.105,0.421-0.408,0.789-0.908,1.104
			c0.368,0.158,0.651,0.395,0.848,0.71s0.263,0.729,0.197,1.244c-0.066,0.512-0.296,0.926-0.69,1.241s-0.842,0.468-1.341,0.454
			c-0.5-0.014-0.934-0.171-1.302-0.474C573.604,112.454,573.368,112.013,573.263,111.435z"/>
	</g>
	<g>
		<path fill="#F8F8FA" d="M385.929,107.382c-0.098,0.741-0.367,1.322-0.806,1.744c-0.439,0.421-0.995,0.631-1.667,0.631
			c-0.783,0-1.407-0.285-1.872-0.856s-0.697-1.34-0.697-2.308s0.241-1.739,0.724-2.313c0.483-0.574,1.131-0.861,1.945-0.861
			c0.642,0,1.168,0.175,1.58,0.523s0.659,0.83,0.741,1.443h-0.741c-0.072-0.397-0.247-0.705-0.523-0.922
			c-0.277-0.217-0.633-0.325-1.068-0.325c-0.569,0-1.022,0.222-1.359,0.665c-0.337,0.442-0.506,1.039-0.506,1.789
			c0,0.796,0.156,1.402,0.469,1.819s0.767,0.626,1.362,0.626c0.44,0,0.805-0.145,1.097-0.432c0.291-0.288,0.484-0.695,0.58-1.225
			H385.929z"/>
		<path fill="#F8F8FA" d="M387.458,109.074c-0.354-0.425-0.531-0.982-0.531-1.672c0-0.692,0.177-1.252,0.531-1.677
			c0.354-0.426,0.817-0.638,1.389-0.638c0.577,0,1.042,0.212,1.394,0.638c0.353,0.425,0.529,0.984,0.529,1.677
			c0,0.689-0.176,1.247-0.529,1.672c-0.353,0.426-0.817,0.638-1.394,0.638C388.275,109.712,387.813,109.5,387.458,109.074z
			 M389.72,108.625c0.216-0.303,0.325-0.711,0.325-1.223c0-0.513-0.108-0.921-0.325-1.226c-0.216-0.304-0.507-0.455-0.873-0.455
			c-0.366,0-0.656,0.151-0.871,0.455c-0.215,0.305-0.323,0.713-0.323,1.226c0,0.512,0.107,0.92,0.323,1.223
			c0.215,0.302,0.505,0.453,0.871,0.453C389.212,109.078,389.503,108.927,389.72,108.625z"/>
		<path fill="#F8F8FA" d="M391.958,105.219h0.328h0.333v0.646l0.154-0.217c0.301-0.373,0.679-0.56,1.132-0.56
			c0.456,0,0.807,0.131,1.055,0.393c0.247,0.263,0.371,0.634,0.371,1.116v2.997h-0.348h-0.348v-2.748c0-0.384-0.07-0.662-0.21-0.832
			c-0.141-0.17-0.368-0.256-0.682-0.256c-0.335,0-0.6,0.135-0.796,0.403s-0.293,0.632-0.293,1.09v2.343h-0.348h-0.348V105.219z"/>
		<path fill="#F8F8FA" d="M399.12,106.486c-0.021-0.243-0.114-0.431-0.28-0.564s-0.39-0.2-0.67-0.2
			c-0.289,0-0.508,0.053-0.659,0.159c-0.151,0.106-0.226,0.262-0.226,0.466c0,0.155,0.053,0.273,0.158,0.352
			c0.105,0.079,0.315,0.158,0.63,0.237l0.719,0.18c0.402,0.104,0.689,0.247,0.861,0.43c0.171,0.18,0.256,0.433,0.256,0.757
			c0,0.434-0.147,0.776-0.442,1.03s-0.694,0.38-1.196,0.38c-0.582,0-1.017-0.121-1.302-0.365c-0.286-0.244-0.445-0.628-0.475-1.151
			h0.668c0.034,0.311,0.137,0.535,0.311,0.675c0.174,0.139,0.44,0.208,0.798,0.208c0.312,0,0.548-0.063,0.709-0.188
			c0.161-0.126,0.242-0.309,0.242-0.548c0-0.153-0.053-0.269-0.158-0.348s-0.318-0.158-0.638-0.237l-0.718-0.18
			c-0.389-0.099-0.666-0.236-0.831-0.413c-0.166-0.175-0.248-0.42-0.248-0.736c0-0.411,0.139-0.738,0.415-0.979
			c0.277-0.241,0.652-0.361,1.126-0.361c0.481,0,0.864,0.124,1.148,0.372c0.285,0.248,0.436,0.59,0.454,1.026H399.12z"/>
		<path fill="#F8F8FA" d="M401.399,109.074c-0.354-0.425-0.531-0.982-0.531-1.672c0-0.692,0.177-1.252,0.531-1.677
			c0.354-0.426,0.817-0.638,1.389-0.638c0.577,0,1.042,0.212,1.395,0.638c0.353,0.425,0.529,0.984,0.529,1.677
			c0,0.689-0.176,1.247-0.529,1.672c-0.353,0.426-0.817,0.638-1.395,0.638C402.216,109.712,401.753,109.5,401.399,109.074z
			 M403.661,108.625c0.216-0.303,0.325-0.711,0.325-1.223c0-0.513-0.108-0.921-0.325-1.226c-0.216-0.304-0.507-0.455-0.873-0.455
			s-0.656,0.151-0.871,0.455c-0.215,0.305-0.322,0.713-0.322,1.226c0,0.512,0.107,0.92,0.322,1.223
			c0.215,0.302,0.505,0.453,0.871,0.453S403.445,108.927,403.661,108.625z"/>
		<path fill="#F8F8FA" d="M405.915,103.583h0.348h0.348v6.011h-0.348h-0.348V103.583z"/>
		<path fill="#F8F8FA" d="M409.736,109.712c-0.584,0-1.044-0.196-1.379-0.589c-0.334-0.393-0.502-0.935-0.502-1.627
			c0-0.736,0.177-1.321,0.531-1.757c0.354-0.435,0.83-0.651,1.428-0.651c0.541,0,0.977,0.212,1.309,0.638
			c0.333,0.425,0.499,0.984,0.499,1.677l-0.008,0.262h-3.019c0.028,0.436,0.123,0.769,0.282,0.997
			c0.195,0.278,0.504,0.417,0.926,0.417c0.265,0,0.497-0.079,0.695-0.236c0.198-0.158,0.319-0.36,0.363-0.605h0.688
			c-0.103,0.479-0.309,0.846-0.618,1.098S410.223,109.712,409.736,109.712z M410.897,107.07c-0.021-0.405-0.116-0.722-0.286-0.948
			c-0.188-0.251-0.463-0.376-0.827-0.376c-0.366,0-0.658,0.145-0.877,0.434c-0.172,0.226-0.277,0.523-0.313,0.891H410.897z"/>
		<path fill="#F8F8FA" d="M414.663,103.428l-1.933,6.329h-0.527l1.933-6.329H414.663z"/>
		<path fill="#F8F8FA" d="M420.022,107.39c0,0.741-0.197,1.321-0.591,1.74c-0.394,0.418-0.941,0.627-1.642,0.627
			c-0.729,0-1.284-0.2-1.665-0.603c-0.381-0.402-0.571-0.99-0.571-1.765v-3.807h0.382h0.386v3.745c0,0.56,0.125,0.983,0.375,1.274
			c0.25,0.29,0.614,0.436,1.093,0.436s0.843-0.146,1.091-0.436c0.249-0.291,0.373-0.715,0.373-1.274v-3.745h0.382h0.386V107.39z"/>
		<path fill="#F8F8FA" d="M425.098,105.324c-0.034-0.379-0.175-0.671-0.423-0.877c-0.248-0.204-0.582-0.309-1.002-0.309
			c-0.433,0-0.761,0.089-0.985,0.266c-0.224,0.178-0.336,0.437-0.336,0.777c0,0.231,0.075,0.404,0.224,0.521
			c0.149,0.113,0.449,0.227,0.9,0.338l0.989,0.25c0.531,0.133,0.909,0.331,1.136,0.593c0.228,0.259,0.341,0.625,0.341,1.1
			c0,0.546-0.195,0.978-0.585,1.297c-0.39,0.318-0.919,0.478-1.586,0.478c-0.742,0-1.322-0.184-1.739-0.552
			c-0.407-0.362-0.61-0.858-0.61-1.488v-0.045h0.707c0.013,0.437,0.162,0.772,0.448,1.01s0.684,0.356,1.194,0.356
			c0.472,0,0.83-0.086,1.075-0.258s0.367-0.424,0.367-0.757c0-0.289-0.081-0.503-0.242-0.642c-0.16-0.137-0.482-0.267-0.967-0.389
			l-0.99-0.25c-0.5-0.125-0.857-0.3-1.071-0.523c-0.213-0.223-0.319-0.532-0.319-0.928c0-0.575,0.185-1.031,0.554-1.368
			c0.37-0.336,0.868-0.505,1.497-0.505c0.638,0,1.146,0.169,1.525,0.507c0.378,0.339,0.581,0.805,0.606,1.398H425.098z"/>
		<path fill="#F8F8FA" d="M427.294,103.583h0.383h2.113c0.484,0,0.875,0.131,1.17,0.395c0.296,0.263,0.444,0.609,0.444,1.04
			c0,0.499-0.175,0.889-0.525,1.17c-0.08,0.065-0.166,0.121-0.259,0.168c0.188,0.07,0.352,0.159,0.491,0.266
			c0.371,0.286,0.556,0.683,0.556,1.189c0,0.56-0.181,0.996-0.542,1.311c-0.362,0.315-0.865,0.473-1.509,0.473h-1.939h-0.383
			V103.583z M428.063,106.143h1.372c0.417,0,0.722-0.08,0.915-0.239c0.193-0.159,0.29-0.41,0.29-0.755c0-0.3-0.089-0.52-0.267-0.66
			s-0.457-0.211-0.838-0.211h-1.472V106.143z M428.063,108.898h1.564c0.441,0,0.764-0.09,0.968-0.27s0.307-0.464,0.307-0.851
			c0-0.338-0.107-0.586-0.321-0.742c-0.214-0.157-0.55-0.235-1.008-0.235h-1.51V108.898z"/>
	</g>
	<g>
		<path fill="#F8F8FA" d="M625.374,111.632h-3.037v-0.671l3.195-4.616h0.592v4.616h0.946v0.671h-0.946v1.499h-0.75V111.632z
			 M625.374,110.961v-3.116l-2.209,3.116H625.374z"/>
	</g>
	<g>
		<path fill="#F8F8FA" d="M672.436,111.276c0.184,0.71,0.499,1.104,0.947,1.184c0.445,0.079,0.809,0.033,1.084-0.139
			c0.276-0.17,0.474-0.394,0.592-0.67c0.119-0.276,0.171-0.585,0.158-0.928c-0.014-0.341-0.105-0.631-0.276-0.867
			s-0.388-0.395-0.651-0.474s-0.559-0.079-0.887,0c-0.33,0.079-0.6,0.263-0.809,0.553l-0.672-0.079
			c0.053-0.158,0.303-1.288,0.75-3.393h3.117v0.71h-2.525c-0.132,0.71-0.264,1.275-0.395,1.696c0.395-0.184,0.762-0.27,1.105-0.257
			c0.34,0.014,0.67,0.093,0.985,0.237s0.546,0.342,0.69,0.592s0.25,0.499,0.316,0.749c0.064,0.25,0.092,0.52,0.078,0.809
			c-0.014,0.29-0.072,0.586-0.178,0.888c-0.105,0.303-0.264,0.553-0.473,0.75c-0.211,0.197-0.468,0.355-0.77,0.473
			c-0.303,0.119-0.65,0.165-1.045,0.139s-0.77-0.171-1.125-0.435c-0.355-0.262-0.599-0.71-0.73-1.341L672.436,111.276z"/>
	</g>
	<g>
		<path fill="#F8F8FA" d="M721.312,110.822c0.026-0.381,0.099-0.702,0.218-0.966c0.117-0.263,0.295-0.592,0.531-0.986l1.617-2.525
			h0.908l-1.656,2.604c0.709-0.184,1.275-0.158,1.695,0.078c0.42,0.237,0.703,0.507,0.848,0.81c0.145,0.302,0.225,0.631,0.238,0.985
			c0.012,0.355-0.041,0.704-0.158,1.046c-0.119,0.342-0.33,0.65-0.631,0.927c-0.303,0.276-0.725,0.428-1.264,0.454
			s-1-0.072-1.381-0.296s-0.645-0.539-0.789-0.947C721.344,111.599,721.285,111.204,721.312,110.822z M722.535,112.125
			c0.236,0.25,0.551,0.388,0.945,0.414s0.725-0.105,0.986-0.395c0.264-0.289,0.395-0.71,0.395-1.263s-0.164-0.934-0.492-1.144
			c-0.33-0.211-0.697-0.289-1.105-0.237c-0.408,0.053-0.703,0.25-0.887,0.592c-0.185,0.342-0.264,0.704-0.236,1.085
			C722.166,111.56,722.297,111.875,722.535,112.125z"/>
	</g>
	<g>
		<rect x="127.027" y="31.28" fill="#E9F0C5" width="168.85" height="43.139"/>
		<path fill="#454444" d="M296.377,74.919h-169.85V30.78h169.85V74.919z M127.527,73.919h167.85V31.78h-167.85V73.919z"/>
	</g>
	<g>
		<circle fill="#B0A48D" cx="303.637" cy="104.343" r="4.923"/>
		<path fill="#666666" d="M303.637,109.765c-2.991,0-5.423-2.433-5.423-5.422c0-2.99,2.432-5.424,5.423-5.424
			c2.99,0,5.423,2.434,5.423,5.424C309.06,107.332,306.627,109.765,303.637,109.765z M303.637,99.919
			c-2.439,0-4.423,1.984-4.423,4.424c0,2.438,1.984,4.422,4.423,4.422s4.423-1.983,4.423-4.422
			C308.06,101.903,306.076,99.919,303.637,99.919z"/>
	</g>
	<g>
		<circle fill="#C2D6AB" cx="120.598" cy="105.998" r="4.923"/>
		<path fill="#666666" d="M120.598,111.42c-2.99,0-5.423-2.433-5.423-5.422c0-2.99,2.433-5.424,5.423-5.424s5.423,2.434,5.423,5.424
			C126.021,108.987,123.588,111.42,120.598,111.42z M120.598,101.574c-2.439,0-4.423,1.984-4.423,4.424
			c0,2.438,1.984,4.422,4.423,4.422s4.423-1.983,4.423-4.422C125.021,103.559,123.037,101.574,120.598,101.574z"/>
	</g>
	<g>
		<path fill="#909090" d="M295.877,88.813h0.382h0.386v2.466h2.963v-2.466h0.382h0.386v6.011h-0.382h-0.386v-2.825h-2.963v2.825
			h-0.382h-0.386V88.813z"/>
		<path fill="#909090" d="M302.017,88.813h0.382h1.951c0.721,0,1.294,0.271,1.721,0.815s0.639,1.275,0.639,2.194
			c0,0.915-0.218,1.646-0.655,2.188c-0.437,0.541-1.025,0.813-1.767,0.813h-1.889h-0.382V88.813z M302.786,94.128h1.406
			c0.551,0,0.977-0.2,1.277-0.601c0.3-0.401,0.45-0.97,0.45-1.705c0-0.739-0.144-1.31-0.433-1.712
			c-0.288-0.402-0.698-0.604-1.228-0.604h-1.472V94.128z"/>
		<path fill="#909090" d="M308.125,88.813h0.382h1.951c0.721,0,1.294,0.271,1.721,0.815c0.426,0.544,0.639,1.275,0.639,2.194
			c0,0.915-0.218,1.646-0.655,2.188c-0.437,0.541-1.025,0.813-1.768,0.813h-1.888h-0.382V88.813z M308.894,94.128h1.406
			c0.551,0,0.977-0.2,1.277-0.601c0.3-0.401,0.45-0.97,0.45-1.705c0-0.739-0.145-1.31-0.433-1.712
			c-0.289-0.402-0.698-0.604-1.229-0.604h-1.472V94.128z"/>
	</g>
	<g>
		<path fill="#909090" d="M112.313,90.468h0.383h2.101c0.551,0,0.982,0.146,1.292,0.439c0.311,0.293,0.465,0.698,0.465,1.216
			c0,0.57-0.155,1.016-0.465,1.338c-0.31,0.321-0.741,0.482-1.292,0.482c-0.724-0.003-1.295,0-1.715,0.008v2.527h-0.383h-0.386
			V90.468z M113.082,93.248h1.525c0.399,0,0.691-0.089,0.877-0.268s0.278-0.459,0.278-0.841c0-0.338-0.092-0.585-0.278-0.742
			c-0.186-0.156-0.478-0.235-0.877-0.235h-1.525V93.248z"/>
		<path fill="#909090" d="M118.92,96.479l-1.487-6.011h0.414h0.417l1.012,4.751c0.018,0.079,0.033,0.155,0.044,0.228
			c0.012,0.072,0.018,0.123,0.018,0.153h0c0-0.036,0.006-0.09,0.019-0.164c0.013-0.073,0.028-0.145,0.046-0.217l1.202-4.751h0.433
			h0.433l1.193,4.727c0.021,0.074,0.037,0.148,0.05,0.225c0.013,0.077,0.02,0.133,0.02,0.168h-0.001c0-0.03,0.006-0.083,0.018-0.159
			s0.026-0.154,0.044-0.233l1.025-4.727h0.414h0.413l-1.487,6.011h-0.413h-0.414l-1.232-4.649c-0.021-0.079-0.038-0.156-0.054-0.233
			c-0.016-0.076-0.023-0.129-0.023-0.159h-0.001c0,0.035-0.007,0.091-0.019,0.166c-0.013,0.074-0.03,0.15-0.05,0.227l-1.204,4.649
			h-0.413H118.92z"/>
		<path fill="#909090" d="M125.863,90.468h0.382h2.259c0.603,0,1.062,0.138,1.375,0.415c0.315,0.276,0.472,0.682,0.472,1.216
			c0,0.526-0.163,0.938-0.49,1.235c-0.083,0.073-0.171,0.139-0.267,0.196l0.127,0.065c0.345,0.21,0.524,0.563,0.538,1.059
			l0.031,1.097c0.005,0.18,0.027,0.31,0.065,0.388c0.039,0.079,0.113,0.147,0.224,0.205v0.131h-0.945
			c-0.021-0.049-0.042-0.178-0.062-0.385s-0.036-0.438-0.046-0.69l-0.017-0.475c-0.01-0.374-0.097-0.64-0.259-0.8
			c-0.163-0.159-0.427-0.239-0.795-0.239h-1.823v2.593h-0.382h-0.386V90.468z M126.631,93.183h1.9c0.355,0,0.616-0.082,0.78-0.247
			c0.165-0.165,0.248-0.426,0.248-0.783c0-0.347-0.087-0.6-0.261-0.761c-0.174-0.161-0.449-0.241-0.825-0.241h-1.843V93.183z"/>
	</g>
	<g>
		
			<image overflow="visible" opacity="0.2" width="138" height="20" xlink:href="9B56B283.png"  transform="matrix(1 0 0 1 142.5 83.5)">
		</image>
		<g>
			<g>
				<circle fill="#FFFFFF" cx="152.193" cy="93.343" r="7.854"/>
				<circle fill="#FFFFFF" cx="181.588" cy="93.343" r="7.854"/>
				<circle fill="#FFFFFF" cx="210.295" cy="93.343" r="7.854"/>
				<circle fill="#FFFFFF" cx="240.379" cy="93.343" r="7.854"/>
				<g>
					<polygon fill="#262626" points="154.596,97.854 147.247,93.611 154.596,89.368 					"/>
				</g>
				<g>
					<polygon fill="#262626" points="185.832,90.271 181.589,97.619 177.346,90.271 					"/>
				</g>
				<g>
					<polygon fill="#262626" points="206.156,96.16 210.399,88.813 214.643,96.16 					"/>
				</g>
				<g>
					<polygon fill="#262626" points="237.393,89.1 244.74,93.344 237.393,97.586 					"/>
				</g>
				<g>
					<circle fill="#FFFFFF" cx="270.712" cy="93.343" r="7.854"/>
					<g>
						<polygon fill="#262626" points="267.202,91.929 264.566,93.491 267.202,95.054 						"/>
					</g>
					<g>
						<polygon fill="#262626" points="275.711,93.718 267.202,93.718 267.202,93.265 275.306,93.265 275.306,90.728 275.711,90.728 
													"/>
					</g>
				</g>
			</g>
		</g>
	</g>
	<g>
		<g>
			<rect x="1212.611" y="14.702" fill="#DDDBD3" width="24.436" height="98.666"/>
		</g>
		<g>
			<rect x="1212.611" y="36.193" fill="#EDECE6" width="24.436" height="61.533"/>
		</g>
		<rect x="1212.61" y="37.946" fill="#B7B5AB" width="24.437" height="1.525"/>
		<rect x="1212.61" y="41.446" fill="#B7B5AB" width="24.437" height="1.525"/>
		<rect x="1212.61" y="44.946" fill="#B7B5AB" width="24.437" height="1.525"/>
		<rect x="1212.61" y="48.446" fill="#B7B5AB" width="24.437" height="1.525"/>
		<rect x="1212.61" y="51.946" fill="#B7B5AB" width="24.437" height="1.525"/>
		<rect x="1212.61" y="55.446" fill="#B7B5AB" width="24.437" height="1.525"/>
		<rect x="1212.61" y="58.946" fill="#B7B5AB" width="24.437" height="1.525"/>
		<rect x="1212.61" y="62.446" fill="#B7B5AB" width="24.437" height="1.525"/>
		<rect x="1212.61" y="65.946" fill="#B7B5AB" width="24.437" height="1.525"/>
		<rect x="1212.61" y="69.446" fill="#B7B5AB" width="24.437" height="1.525"/>
		<rect x="1212.61" y="72.946" fill="#B7B5AB" width="24.437" height="1.525"/>
		<rect x="1212.61" y="76.446" fill="#B7B5AB" width="24.437" height="1.525"/>
		<rect x="1212.61" y="79.946" fill="#B7B5AB" width="24.437" height="1.525"/>
		<rect x="1212.61" y="83.446" fill="#B7B5AB" width="24.437" height="1.525"/>
		<rect x="1212.61" y="86.946" fill="#B7B5AB" width="24.437" height="1.525"/>
		<rect x="1212.61" y="90.446" fill="#B7B5AB" width="24.437" height="1.525"/>
		<rect x="1212.61" y="93.946" fill="#B7B5AB" width="24.437" height="1.525"/>
	</g>
	<g>
		<g>
			<rect x="37.126" y="14.702" fill="#DDDBD3" width="24.437" height="98.666"/>
		</g>
		<g>
			<rect x="37.126" y="36.193" fill="#EDECE6" width="24.437" height="61.533"/>
		</g>
		<rect x="37.125" y="37.946" fill="#B7B5AB" width="24.438" height="1.525"/>
		<rect x="37.125" y="41.446" fill="#B7B5AB" width="24.438" height="1.525"/>
		<rect x="37.125" y="44.946" fill="#B7B5AB" width="24.438" height="1.525"/>
		<rect x="37.125" y="48.446" fill="#B7B5AB" width="24.438" height="1.525"/>
		<rect x="37.125" y="51.946" fill="#B7B5AB" width="24.438" height="1.525"/>
		<rect x="37.125" y="55.446" fill="#B7B5AB" width="24.438" height="1.525"/>
		<rect x="37.125" y="58.946" fill="#B7B5AB" width="24.438" height="1.525"/>
		<rect x="37.125" y="62.446" fill="#B7B5AB" width="24.438" height="1.525"/>
		<rect x="37.125" y="65.946" fill="#B7B5AB" width="24.438" height="1.525"/>
		<rect x="37.125" y="69.446" fill="#B7B5AB" width="24.438" height="1.525"/>
		<rect x="37.125" y="72.946" fill="#B7B5AB" width="24.438" height="1.525"/>
		<rect x="37.125" y="76.446" fill="#B7B5AB" width="24.438" height="1.525"/>
		<rect x="37.125" y="79.946" fill="#B7B5AB" width="24.438" height="1.525"/>
		<rect x="37.125" y="83.446" fill="#B7B5AB" width="24.438" height="1.525"/>
		<rect x="37.125" y="86.946" fill="#B7B5AB" width="24.438" height="1.525"/>
		<rect x="37.125" y="90.446" fill="#B7B5AB" width="24.438" height="1.525"/>
		<rect x="37.125" y="93.946" fill="#B7B5AB" width="24.438" height="1.525"/>
	</g>
	<polygon fill="#F2F2F0" points="75.323,0.271 80.422,3.918 342.756,3.918 347.583,0.271 	"/>
	<polygon fill="#A3A29B" points="75.322,126.412 80.422,122.765 342.755,122.765 347.583,126.412 	"/>
	<polygon fill="#C4C3BF" points="347.583,0.271 342.756,3.918 342.755,122.765 347.583,126.412 	"/>
	<polygon fill="#C4C3BF" points="75.323,0.271 80.15,3.918 80.15,122.765 75.323,126.412 	"/>
	<path fill="none" stroke="#999992" stroke-miterlimit="10" d="M327.952,106.829c0,3.1-2.626,5.611-5.865,5.611H100.818
		c-3.24,0-5.866-2.512-5.866-5.611V19.853c0-3.099,2.626-5.611,5.866-5.611h221.269c3.239,0,5.865,2.513,5.865,5.611V106.829z"/>
	
		<text transform="matrix(1 0 0 1 471.5415 113.1133)" fill="#FFFFFF" stroke="#FFFFFF" stroke-width="0.5" stroke-miterlimit="10" font-family="'MicrosoftYaHeiLight'" font-size="8">1</text>
	
		<text transform="matrix(1 0 0 1 516.8745 113.1133)" fill="#FFFFFF" stroke="#FFFFFF" stroke-width="0.5" stroke-miterlimit="10" font-family="'MicrosoftYaHeiLight'" font-size="8">2</text>
	<g>
		<g>
			<circle fill="#181919" cx="995.166" cy="43.294" r="5.484"/>
		</g>
		<g>
			<circle fill="#181919" cx="1010.767" cy="43.294" r="5.483"/>
		</g>
		<g>
			<circle fill="#181919" cx="1026.367" cy="43.294" r="5.484"/>
		</g>
		<g>
			<circle fill="#181919" cx="1041.967" cy="43.294" r="5.484"/>
		</g>
		<g>
			<circle fill="#181919" cx="1057.566" cy="43.294" r="5.484"/>
		</g>
		<g>
			<circle fill="#181919" cx="1073.167" cy="43.294" r="5.484"/>
		</g>
		<g>
			<circle fill="#181919" cx="1088.768" cy="43.294" r="5.484"/>
		</g>
		<g>
			<circle fill="#181919" cx="1104.367" cy="43.294" r="5.484"/>
		</g>
		<g>
			<circle fill="#181919" cx="1119.967" cy="43.294" r="5.484"/>
		</g>
		<g>
			<circle fill="#181919" cx="1135.567" cy="43.294" r="5.483"/>
		</g>
		<g>
			<circle fill="#181919" cx="1151.167" cy="43.294" r="5.484"/>
		</g>
		<g>
			<circle fill="#181919" cx="1003.043" cy="31.384" r="5.484"/>
		</g>
		<g>
			<circle fill="#181919" cx="1018.644" cy="31.384" r="5.483"/>
		</g>
		<g>
			<circle fill="#181919" cx="1034.244" cy="31.384" r="5.484"/>
		</g>
		<g>
			<circle fill="#181919" cx="1049.844" cy="31.384" r="5.484"/>
		</g>
		<g>
			<circle fill="#181919" cx="1065.443" cy="31.384" r="5.484"/>
		</g>
		<g>
			<circle fill="#181919" cx="1081.043" cy="31.384" r="5.484"/>
		</g>
		<g>
			<circle fill="#181919" cx="1096.645" cy="31.384" r="5.484"/>
		</g>
		<g>
			<circle fill="#181919" cx="1112.244" cy="31.384" r="5.484"/>
		</g>
		<g>
			<circle fill="#181919" cx="1127.844" cy="31.384" r="5.484"/>
		</g>
		<g>
			<circle fill="#181919" cx="1143.444" cy="31.384" r="5.483"/>
		</g>
	</g>
	<g>
		<g>
			<circle fill="#181919" cx="793.537" cy="43.294" r="5.484"/>
		</g>
		<g>
			<circle fill="#181919" cx="809.139" cy="43.294" r="5.484"/>
		</g>
		<g>
			<circle fill="#181919" cx="824.738" cy="43.294" r="5.484"/>
		</g>
		<g>
			<circle fill="#181919" cx="840.338" cy="43.294" r="5.484"/>
		</g>
		<g>
			<circle fill="#181919" cx="855.938" cy="43.294" r="5.484"/>
		</g>
		<g>
			<circle fill="#181919" cx="871.539" cy="43.294" r="5.484"/>
		</g>
		<g>
			<circle fill="#181919" cx="887.139" cy="43.294" r="5.484"/>
		</g>
		<g>
			<circle fill="#181919" cx="902.738" cy="43.294" r="5.484"/>
		</g>
		<g>
			<circle fill="#181919" cx="918.338" cy="43.294" r="5.484"/>
		</g>
		<g>
			<circle fill="#181919" cx="933.939" cy="43.294" r="5.484"/>
		</g>
		<g>
			<circle fill="#181919" cx="949.539" cy="43.294" r="5.484"/>
		</g>
		<g>
			<circle fill="#181919" cx="801.414" cy="31.384" r="5.484"/>
		</g>
		<g>
			<circle fill="#181919" cx="817.016" cy="31.384" r="5.484"/>
		</g>
		<g>
			<circle fill="#181919" cx="832.615" cy="31.384" r="5.484"/>
		</g>
		<g>
			<circle fill="#181919" cx="848.215" cy="31.384" r="5.484"/>
		</g>
		<g>
			<circle fill="#181919" cx="863.815" cy="31.384" r="5.484"/>
		</g>
		<g>
			<circle fill="#181919" cx="879.416" cy="31.384" r="5.484"/>
		</g>
		<g>
			<circle fill="#181919" cx="895.016" cy="31.384" r="5.484"/>
		</g>
		<g>
			<circle fill="#181919" cx="910.615" cy="31.384" r="5.484"/>
		</g>
		<g>
			<circle fill="#181919" cx="926.215" cy="31.384" r="5.484"/>
		</g>
		<g>
			<circle fill="#181919" cx="941.816" cy="31.384" r="5.484"/>
		</g>
	</g>
	<g>
		<g>
			<path fill="#F5F4F4" d="M1000.871,70.42c0,0,20.334,0.834,18.834,11.167c-1.48,10.2-23.75,22.188-41.799,18.966
				c-0.234-0.042-0.469-0.086-0.701-0.133c0,0,10.625,13.499,38.5,1.999S1052.662,55.296,1000.871,70.42z"/>
		</g>
		<g>
			<path fill="#F9FAFB" stroke="#F9FAFB" stroke-width="2" stroke-miterlimit="10" d="M1044.473,79.145
				c-0.195-0.527-0.402-0.999-0.623-1.418c2.283-3.42,4.045-7.345,5.289-11.771l1.303,0.364c-0.658,2.017-1.381,3.948-2.168,5.797
				v17.895h-1.305V74.903C1046.141,76.552,1045.309,77.965,1044.473,79.145z M1057.629,66.32l1.219-0.514
				c0.486,0.961,0.955,1.952,1.4,2.973l-1.072,0.465h8.26v1.255h-16.592v-1.255h8.125
				C1058.449,68.031,1058.002,67.057,1057.629,66.32z M1052.184,73.31h13.803v1.255h-13.803V73.31z M1052.184,77.362h13.803v1.268
				h-13.803V77.362z M1052.439,81.453h13.316v8.559h-1.293v-1.493h-10.732v1.493h-1.291V81.453z M1053.73,82.684v4.604h10.732
				v-4.604H1053.73z"/>
			<path fill="#F9FAFB" stroke="#F9FAFB" stroke-width="2" stroke-miterlimit="10" d="M1080.709,87.929
				c1.818,0.041,4.101,0.058,6.846,0.05c2.633-0.009,4.643-0.033,6.031-0.075c-0.277,0.661-0.436,1.112-0.475,1.355
				c-6.467-0.009-10.783-0.051-12.951-0.126c-2.574,0.009-4.621-1.037-6.141-3.137c-1.178,1.18-2.209,2.313-3.094,3.4l-0.902-1.079
				c0.991-1.079,2.116-2.213,3.375-3.4v-8.909h-3.191v-1.343h4.531v10.177C1076.209,86.949,1078.199,87.979,1080.709,87.929z
				 M1075.215,71.201c-0.805-1.02-1.971-2.367-3.498-4.04l1-0.766c1.096,1.104,2.303,2.405,3.617,3.902L1075.215,71.201z
				 M1083.828,65.932h1.34c0,2.1-0.059,4.069-0.172,5.91h7.713v1.33h-7.834c-0.162,1.665-0.432,3.07-0.805,4.216l0.779-0.69
				c2.705,2.594,5.324,5.153,7.859,7.68l-1.072,1.004c-2.324-2.435-4.861-5.036-7.615-7.805c-0.885,2.819-3.045,5.483-6.48,7.993
				c-0.391-0.502-0.715-0.883-0.975-1.142c4.482-2.853,6.803-6.604,6.957-11.256h-6.531v-1.33h6.652
				C1083.758,70.151,1083.818,68.182,1083.828,65.932z"/>
			<path fill="#F9FAFB" stroke="#F9FAFB" stroke-width="2" stroke-miterlimit="10" d="M1096.77,76.133h3.193v-6.475h-3.363v-1.242
				h7.955v1.242h-3.266v6.475h3.242v1.229h-3.242v7.743c0.301-0.076,0.748-0.181,1.342-0.314c0.859-0.209,1.502-0.363,1.924-0.464
				c0,0.594,0.008,1.041,0.025,1.343c-2.738,0.577-5.422,1.2-8.053,1.869l-0.232-1.38c0.041-0.009,0.105-0.021,0.195-0.038
				c1.453-0.284,2.611-0.531,3.473-0.74v-8.019h-3.193V76.133z M1106.029,68.805V67.55h12.877v1.255h-5.811
				c-1.893,6.366-4.488,11.465-7.786,15.297c-0.3-0.31-0.665-0.627-1.097-0.954c3.281-3.63,5.775-8.411,7.48-14.343H1106.029z
				 M1111.098,74.766h1.314v15.246h-1.314V74.766z M1113.412,76.208l1.096-0.665c1.705,2.443,3.42,5.012,5.141,7.705l-1.168,0.828
				C1116.66,81.106,1114.971,78.483,1113.412,76.208z"/>
			<path fill="#F9FAFB" stroke="#F9FAFB" stroke-width="2" stroke-miterlimit="10" d="M1122.65,80.086h11.477v-4.492h-8.283v-1.205
				h17.457v1.205h-7.834v4.492h10.479v1.242h-10.479v4.932c0.115,2.241-0.909,3.338-3.07,3.287
				c-0.941,0.033-1.996,0.051-3.166,0.051c-0.066-0.561-0.172-1.051-0.316-1.469c0.479,0.025,0.896,0.038,1.254,0.038
				c0.178,0.008,0.398,0.013,0.658,0.013c0.211,0,0.605,0,1.182,0c0.828,0.008,1.384-0.139,1.668-0.439
				c0.309-0.276,0.459-0.82,0.451-1.632v-4.78h-11.477V80.086z M1133.178,66.184l1.193-0.566c0.568,1.004,1.145,2.059,1.73,3.162
				l-1.133,0.54h10.063v4.041h-1.328v-2.812h-18.859v2.812h-1.328v-4.041h11.258C1134.342,68.357,1133.811,67.312,1133.178,66.184z"
				/>
		</g>
		<g>
			<path fill="#F9FAFB" stroke="#F9FAFB" stroke-width="0.75" stroke-miterlimit="10" d="M1052.324,102.705l-2.148-2.835
				c-0.131-0.176-0.246-0.349-0.342-0.519h-0.031c-0.115,0.192-0.24,0.365-0.373,0.519l-2.184,2.835h-0.77l2.941-3.746l-2.766-3.685
				h0.775l2.082,2.792c0.107,0.147,0.219,0.313,0.336,0.499h0.029l0.344-0.499l2.068-2.792h0.752l-2.797,3.675l2.857,3.756H1052.324
				z"/>
			<path fill="#F9FAFB" stroke="#F9FAFB" stroke-width="0.75" stroke-miterlimit="10" d="M1055.383,102.705v-7.431h0.643v7.431
				H1055.383z"/>
			<path fill="#F9FAFB" stroke="#F9FAFB" stroke-width="0.75" stroke-miterlimit="10" d="M1065.617,102.705l-5.547-6.006
				c-0.115-0.121-0.217-0.241-0.301-0.359l-0.084-0.105h-0.029c0.012,0.089,0.018,0.199,0.018,0.326v6.145h-0.643v-7.431h0.492
				l5.51,5.953c0.121,0.131,0.254,0.291,0.398,0.479h0.029c-0.02-0.243-0.029-0.45-0.029-0.623v-5.81h0.637v7.431H1065.617z"/>
			<path fill="#F9FAFB" stroke="#F9FAFB" stroke-width="0.75" stroke-miterlimit="10" d="M1069.078,102.705v-7.431h2.328
				c1.549,0,2.727,0.308,3.531,0.924c0.807,0.615,1.209,1.512,1.209,2.688c0,1.132-0.432,2.052-1.295,2.758
				c-0.865,0.707-2.057,1.061-3.576,1.061H1069.078z M1069.723,95.75v6.49h1.461c1.381,0,2.441-0.287,3.184-0.859
				c0.74-0.572,1.111-1.397,1.111-2.475c0-2.104-1.389-3.156-4.168-3.156H1069.723z"/>
			<path fill="#F9FAFB" stroke="#F9FAFB" stroke-width="0.75" stroke-miterlimit="10" d="M1084.402,102.705l-1.064-2.313h-4.037
				l-1.07,2.313h-0.703l3.514-7.431h0.613l3.471,7.431H1084.402z M1081.545,96.488c-0.047-0.103-0.086-0.205-0.113-0.307
				c-0.033-0.087-0.064-0.173-0.096-0.26h-0.031c-0.072,0.23-0.143,0.416-0.211,0.557l-1.57,3.444h3.598L1081.545,96.488z"/>
			<path fill="#F9FAFB" stroke="#F9FAFB" stroke-width="0.75" stroke-miterlimit="10" d="M1097.558,102.705v-3.564h-5.329v3.564
				h-0.645v-7.431h0.645v3.401h5.329v-3.401h0.638v7.431H1097.558z"/>
			<path fill="#F9FAFB" stroke="#F9FAFB" stroke-width="0.75" stroke-miterlimit="10" d="M1107.553,99.735
				c0,2.066-1.105,3.1-3.314,3.1c-2.102,0-3.152-0.995-3.152-2.984v-4.576h0.637v4.505c0,1.724,0.881,2.585,2.641,2.585
				c1.701,0,2.551-0.838,2.551-2.514v-4.576h0.639V99.735z"/>
			<path fill="#F9FAFB" stroke="#F9FAFB" stroke-width="0.75" stroke-miterlimit="10" d="M1116.109,102.705l-1.064-2.313h-4.037
				l-1.07,2.313h-0.705l3.514-7.431h0.613l3.471,7.431H1116.109z M1113.252,96.488c-0.049-0.103-0.086-0.205-0.115-0.307
				c-0.031-0.087-0.064-0.173-0.096-0.26h-0.029c-0.072,0.23-0.143,0.416-0.211,0.557l-1.57,3.444h3.598L1113.252,96.488z"/>
			<path fill="#F9FAFB" stroke="#F9FAFB" stroke-width="0.75" stroke-miterlimit="10" d="M1125.615,102.705l-5.545-6.006
				c-0.117-0.121-0.217-0.241-0.301-0.359l-0.086-0.105h-0.029c0.012,0.089,0.018,0.199,0.018,0.326v6.145h-0.643v-7.431h0.492
				l5.512,5.953c0.119,0.131,0.252,0.291,0.396,0.479h0.029c-0.02-0.243-0.029-0.45-0.029-0.623v-5.81h0.637v7.431H1125.615z"/>
			<path fill="#F9FAFB" stroke="#F9FAFB" stroke-width="0.75" stroke-miterlimit="10" d="M1131.766,99.88v2.825h-0.637v-2.811
				l-2.852-4.62H1129l2.164,3.584c0.08,0.121,0.18,0.304,0.295,0.547h0.025c0.063-0.128,0.17-0.308,0.318-0.538l2.273-3.593h0.697
				L1131.766,99.88z"/>
			<path fill="#F9FAFB" stroke="#F9FAFB" stroke-width="0.75" stroke-miterlimit="10" d="M1143.223,99.735
				c0,2.066-1.105,3.1-3.314,3.1c-2.103,0-3.152-0.995-3.152-2.984v-4.576h0.637v4.505c0,1.724,0.881,2.585,2.641,2.585
				c1.701,0,2.551-0.838,2.551-2.514v-4.576h0.639V99.735z"/>
		</g>
	</g>
	<g>
		<path fill="#F8F8FA" d="M886.578,111.355l0.709-0.119c0.105,0.344,0.275,0.625,0.514,0.849c0.236,0.224,0.531,0.329,0.887,0.315
			c0.355-0.013,0.637-0.158,0.848-0.434c0.211-0.276,0.303-0.592,0.277-0.947c-0.027-0.354-0.164-0.631-0.414-0.828
			s-0.652-0.335-1.203-0.414v-0.513c0.551-0.053,0.953-0.197,1.203-0.435c0.25-0.236,0.361-0.545,0.334-0.927
			c-0.025-0.381-0.197-0.657-0.512-0.828c-0.316-0.171-0.652-0.19-1.006-0.06c-0.355,0.132-0.639,0.5-0.848,1.104l-0.711-0.118
			c0.158-0.474,0.375-0.868,0.65-1.184c0.277-0.315,0.65-0.499,1.125-0.553c0.473-0.052,0.887,0.007,1.242,0.178
			c0.355,0.172,0.605,0.435,0.75,0.789c0.145,0.355,0.164,0.743,0.059,1.164s-0.408,0.789-0.906,1.104
			c0.367,0.158,0.65,0.395,0.848,0.71s0.262,0.729,0.197,1.244c-0.066,0.512-0.297,0.926-0.691,1.241s-0.842,0.468-1.34,0.454
			c-0.5-0.014-0.934-0.171-1.303-0.474C886.918,112.375,886.682,111.934,886.578,111.355z"/>
	</g>
	<g>
		<path fill="#F8F8FA" d="M932.557,111.553h-3.037v-0.671l3.195-4.616h0.592v4.616h0.946v0.671h-0.946v1.499h-0.75V111.553z
			 M932.557,110.882v-3.116l-2.209,3.116H932.557z"/>
	</g>
	
		<text transform="matrix(1 0 0 1 799.9023 112.3613)" fill="#FFFFFF" stroke="#FFFFFF" stroke-width="0.5" stroke-miterlimit="10" font-family="'MicrosoftYaHeiLight'" font-size="8">1</text>
	
		<text transform="matrix(1 0 0 1 845.2363 112.3613)" fill="#FFFFFF" stroke="#FFFFFF" stroke-width="0.5" stroke-miterlimit="10" font-family="'MicrosoftYaHeiLight'" font-size="8">2</text>
	<g>
		<path fill="#D5D5D5" d="M779.289,100.478c0,1.875,1.791,3.396,4,3.396h169.194c2.208,0,4-1.521,4-3.396v-29.71
			c0-1.875-1.792-3.396-4-3.396H783.289c-2.209,0-4,1.521-4,3.396V100.478z"/>
		<path fill="#060404" d="M783.289,66.872h169.194c2.481,0,4.5,1.747,4.5,3.896v29.71c0,2.148-2.019,3.896-4.5,3.896H783.289
			c-2.48,0-4.5-1.747-4.5-3.896v-29.71C778.789,68.619,780.809,66.872,783.289,66.872z M952.483,103.373
			c1.929,0,3.5-1.299,3.5-2.896v-29.71c0-1.597-1.571-2.896-3.5-2.896H783.289c-1.93,0-3.5,1.299-3.5,2.896v29.71
			c0,1.597,1.57,2.896,3.5,2.896H952.483z"/>
	</g>
</g>
</svg>
