<?xml version="1.0" encoding="utf-8"?>
<!-- Generator: Adobe Illustrator 16.0.0, SVG Export Plug-In . SVG Version: 6.00 Build 0)  -->
<!DOCTYPE svg PUBLIC "-//W3C//DTD SVG 1.1//EN" "http://www.w3.org/Graphics/SVG/1.1/DTD/svg11.dtd">
<svg version="1.1" id="图层_1" xmlns="http://www.w3.org/2000/svg" xmlns:xlink="http://www.w3.org/1999/xlink" x="0px" y="0px"
	 width="1275.59px" height="126.14px" viewBox="0 0 1275.59 126.14" enable-background="new 0 0 1275.59 126.14"
	 xml:space="preserve">
<g>
	<path fill="#0C0C0C" d="M1275.59,115.323c0,6.075-4.924,11-11,11H11c-6.075,0-11-4.925-11-11V11.182c0-6.075,4.925-11,11-11
		h1253.59c6.076,0,11,4.925,11,11V115.323z"/>
</g>
<g>
	<path fill="#7583B9" d="M72.143,0.182H11c-6.075,0-11,4.925-11,11v104.142c0,6.075,4.925,11,11,11h61.143V0.182z"/>
</g>
<g>
	<path fill="#040001" d="M50.746,26.445c0,3.866-3.134,7-7,7h-23c-3.866,0-7-3.134-7-7l0,0c0-3.866,3.134-7,7-7h23
		C47.612,19.445,50.746,22.579,50.746,26.445L50.746,26.445z"/>
</g>
<g>
	<path fill="#040001" d="M50.746,102.445c0,3.866-3.134,7-7,7h-23c-3.866,0-7-3.134-7-7l0,0c0-3.866,3.134-7,7-7h23
		C47.612,95.445,50.746,98.579,50.746,102.445L50.746,102.445z"/>
</g>
<g>
	<path fill="#AFAEAE" d="M36.33,73.965c-4.46,4.461-11.696,4.457-16.161-0.008c-4.466-4.466-4.469-11.703-0.009-16.162
		c4.462-4.461,11.698-4.459,16.163,0.008C40.789,62.268,40.792,69.504,36.33,73.965"/>
</g>
<g>
	<path fill="#929292" d="M28.257,77.809c-3.188,0-6.187-1.242-8.442-3.498c-2.255-2.254-3.497-5.25-3.498-8.437
		s1.238-6.182,3.489-8.432c2.251-2.251,5.245-3.491,8.429-3.491c3.188,0,6.187,1.243,8.441,3.499
		c2.254,2.254,3.497,5.25,3.498,8.436c0.001,3.188-1.239,6.182-3.491,8.434C34.434,76.568,31.441,77.809,28.257,77.809z
		 M28.235,54.951c-2.917,0-5.66,1.135-7.722,3.198c-2.063,2.063-3.198,4.806-3.196,7.725c0.001,2.92,1.139,5.665,3.205,7.73
		c2.066,2.066,4.813,3.205,7.735,3.205c2.917,0,5.658-1.136,7.719-3.197c2.063-2.063,3.199-4.807,3.198-7.726
		c-0.001-2.919-1.14-5.664-3.205-7.729C33.903,56.089,31.157,54.951,28.235,54.951z"/>
</g>
<g>
	<path fill="#AFAEAE" d="M34.187,71.82c-3.278,3.277-8.596,3.275-11.875-0.006c-3.281-3.279-3.284-8.598-0.006-11.875
		c3.278-3.279,8.596-3.276,11.876,0.003C37.463,63.225,37.465,68.542,34.187,71.82"/>
</g>
<g>
	<path fill="#929292" d="M28.253,74.777c-2.378,0-4.614-0.926-6.295-2.609c-1.681-1.68-2.608-3.915-2.609-6.291
		c-0.001-2.377,0.923-4.611,2.604-6.291c1.679-1.679,3.912-2.604,6.288-2.604c2.377,0,4.613,0.926,6.295,2.608
		c3.471,3.47,3.473,9.116,0.004,12.583C32.861,73.853,30.628,74.777,28.253,74.777z M28.24,57.982c-2.108,0-4.09,0.82-5.581,2.311
		c-1.491,1.49-2.312,3.474-2.311,5.583c0.001,2.109,0.824,4.093,2.316,5.585c1.493,1.493,3.478,2.316,5.589,2.316
		c2.108,0,4.089-0.821,5.58-2.311c3.078-3.078,3.076-8.089-0.005-11.17C32.335,58.805,30.35,57.982,28.24,57.982z"/>
</g>
<g>
	<g>
		<defs>
			
				<rect id="SVGID_1_" x="20.326" y="57.969" transform="matrix(-0.7072 -0.707 0.707 -0.7072 1.6403 132.4381)" width="15.839" height="15.82"/>
		</defs>
		<clipPath id="SVGID_2_">
			<use xlink:href="#SVGID_1_"  overflow="visible"/>
		</clipPath>
		<g clip-path="url(#SVGID_2_)">
			<path fill="#BEBEBD" d="M33.845,71.479c-3.089,3.09-8.1,3.086-11.191-0.006c-3.093-3.092-3.095-8.104-0.006-11.191
				c3.089-3.089,8.1-3.088,11.191,0.005C36.932,63.377,36.935,68.389,33.845,71.479"/>
		</g>
		<g clip-path="url(#SVGID_2_)">
			<path fill="#C0C0C0" d="M33.713,71.348c-3.016,3.016-7.909,3.013-10.929-0.008c-3.02-3.018-3.021-7.912-0.006-10.928
				c3.017-3.017,7.91-3.016,10.93,0.005C36.728,63.438,36.729,68.33,33.713,71.348"/>
		</g>
		<g clip-path="url(#SVGID_2_)">
			<path fill="#C2C3C3" d="M33.581,71.217c-2.942,2.941-7.72,2.941-10.667-0.006c-2.946-2.947-2.947-7.723-0.004-10.666
				c2.943-2.943,7.72-2.943,10.667,0.002C36.523,63.495,36.525,68.271,33.581,71.217"/>
		</g>
		<g clip-path="url(#SVGID_2_)">
			<path fill="#C4C5C4" d="M33.449,71.084c-2.871,2.871-7.528,2.868-10.402-0.005c-2.874-2.876-2.876-7.532-0.006-10.403
				c2.874-2.872,7.53-2.869,10.404,0.003C36.319,63.555,36.321,68.213,33.449,71.084"/>
		</g>
		<g clip-path="url(#SVGID_2_)">
			<path fill="#C6C8C8" d="M33.318,70.952c-2.798,2.798-7.338,2.795-10.14-0.005c-2.801-2.802-2.802-7.342-0.005-10.14
				c2.799-2.799,7.339-2.798,10.141,0.005C36.115,63.613,36.117,68.154,33.318,70.952"/>
		</g>
		<g clip-path="url(#SVGID_2_)">
			<path fill="#C9CACB" d="M33.186,70.82c-2.725,2.725-7.146,2.724-9.875-0.004c-2.729-2.73-2.729-7.15-0.005-9.876
				c2.727-2.727,7.148-2.725,9.876,0.003C35.911,63.672,35.912,68.094,33.186,70.82"/>
		</g>
		<g clip-path="url(#SVGID_2_)">
			<path fill="#CBCDCD" d="M33.055,70.689c-2.652,2.652-6.957,2.65-9.613-0.006c-2.655-2.654-2.656-6.96-0.005-9.613
				c2.654-2.652,6.958-2.652,9.614,0.004C35.707,63.73,35.708,68.035,33.055,70.689"/>
		</g>
		<g clip-path="url(#SVGID_2_)">
			<path fill="#CCCFD0" d="M32.923,70.557c-2.579,2.58-6.768,2.58-9.35-0.004c-2.583-2.582-2.584-6.77-0.005-9.35
				c2.581-2.582,6.769-2.58,9.351,0.002C35.503,63.79,35.504,67.975,32.923,70.557"/>
		</g>
		<g clip-path="url(#SVGID_2_)">
			<path fill="#D0D2D2" d="M32.79,70.425c-2.505,2.507-6.575,2.507-9.084-0.003c-2.511-2.511-2.512-6.582-0.005-9.086
				c2.509-2.51,6.578-2.508,9.088,0.002C35.299,63.848,35.299,67.918,32.79,70.425"/>
		</g>
		<g clip-path="url(#SVGID_2_)">
			<path fill="#D2D4D5" d="M32.66,70.295c-2.435,2.434-6.386,2.432-8.823-0.006s-2.439-6.389-0.005-8.822
				c2.436-2.436,6.386-2.436,8.824,0.003C35.094,63.909,35.095,67.858,32.66,70.295"/>
		</g>
	</g>
</g>
<g>
	<polygon fill="#605F5E" points="24.151,68.512 26.784,65.879 24.148,63.243 25.61,61.781 28.246,64.418 30.878,61.783 
		32.342,63.247 29.709,65.88 32.344,68.516 30.883,69.977 28.247,67.342 25.614,69.974 	"/>
</g>
<g>
	<path fill="#221714" d="M32.089,63.248l-2.38,2.379l-0.254,0.253l0.254,0.255l2.382,2.381l-1.209,1.207l-2.381-2.381l-0.254-0.254
		l-0.253,0.254l-2.379,2.378l-1.209-1.208l2.379-2.379l0.253-0.253l-0.254-0.255l-2.382-2.382l1.208-1.208l2.382,2.381l0.254,0.254
		l0.252-0.252l2.379-2.378L32.089,63.248z M32.594,63.248l-1.716-1.717l-2.632,2.633l-2.635-2.635l-1.716,1.714l2.636,2.636
		l-2.633,2.633l1.716,1.717l2.633-2.633l2.635,2.633l1.715-1.713l-2.635-2.636L32.594,63.248z"/>
</g>
<g>
	<path fill="#7583B9" d="M1203.447,0.182h61.143c6.076,0,11,4.925,11,11v104.142c0,6.075-4.924,11-11,11h-61.143V0.182z"/>
</g>
<g>
	<path fill="#040001" d="M1224.844,26.445c0,3.866,3.135,7,7,7h23c3.867,0,7-3.134,7-7l0,0c0-3.866-3.133-7-7-7h-23
		C1227.979,19.445,1224.844,22.579,1224.844,26.445L1224.844,26.445z"/>
</g>
<g>
	<path fill="#040001" d="M1224.844,102.445c0,3.866,3.135,7,7,7h23c3.867,0,7-3.134,7-7l0,0c0-3.866-3.133-7-7-7h-23
		C1227.979,95.445,1224.844,98.579,1224.844,102.445L1224.844,102.445z"/>
</g>
<g>
	<path fill="#AFAEAE" d="M1239.26,73.965c4.461,4.461,11.697,4.457,16.162-0.008c4.465-4.466,4.469-11.703,0.008-16.162
		c-4.461-4.461-11.697-4.459-16.162,0.008C1234.801,62.268,1234.799,69.504,1239.26,73.965"/>
</g>
<g>
	<path fill="#929292" d="M1247.334,77.809L1247.334,77.809c-3.186-0.001-6.178-1.24-8.428-3.49c-2.252-2.252-3.492-5.246-3.49-8.434
		c0.002-3.186,1.244-6.182,3.498-8.436c2.254-2.256,5.252-3.499,8.441-3.499c3.184,0,6.178,1.24,8.428,3.491
		c2.252,2.25,3.492,5.246,3.49,8.432s-1.244,6.183-3.498,8.437C1253.52,76.566,1250.521,77.809,1247.334,77.809z M1247.355,54.951
		c-2.922,0-5.668,1.138-7.734,3.206c-2.066,2.065-3.203,4.81-3.205,7.729c-0.002,2.919,1.135,5.663,3.197,7.726
		c2.063,2.062,4.803,3.196,7.721,3.197l0,0c2.922,0,5.668-1.139,7.734-3.205c2.064-2.065,3.203-4.811,3.205-7.73
		c0.002-2.919-1.135-5.662-3.197-7.725C1253.016,56.086,1250.271,54.951,1247.355,54.951z"/>
</g>
<g>
	<path fill="#AFAEAE" d="M1241.404,71.82c3.277,3.277,8.596,3.275,11.875-0.006c3.281-3.279,3.283-8.598,0.006-11.875
		c-3.279-3.279-8.596-3.276-11.877,0.003C1238.127,63.225,1238.125,68.542,1241.404,71.82"/>
</g>
<g>
	<path fill="#929292" d="M1247.338,74.777L1247.338,74.777c-2.375-0.001-4.607-0.925-6.287-2.604
		c-3.469-3.468-3.467-9.113,0.004-12.583c1.684-1.682,3.918-2.608,6.297-2.608c2.375,0,4.607,0.925,6.287,2.604
		c1.68,1.68,2.604,3.914,2.604,6.291c-0.002,2.376-0.928,4.611-2.609,6.291C1251.951,73.852,1249.715,74.777,1247.338,74.777z
		 M1247.352,57.982c-2.111,0-4.096,0.822-5.59,2.314c-3.08,3.081-3.082,8.092-0.004,11.17c1.49,1.489,3.471,2.31,5.58,2.311
		c2.111,0,4.096-0.823,5.588-2.316c1.492-1.492,2.314-3.476,2.316-5.585c0-2.109-0.82-4.093-2.311-5.583
		S1249.459,57.982,1247.352,57.982z"/>
</g>
<g>
	<g>
		<defs>
			
				<rect id="SVGID_3_" x="1239.425" y="57.969" transform="matrix(0.7072 -0.707 0.707 0.7072 318.6823 901.2206)" width="15.839" height="15.821"/>
		</defs>
		<clipPath id="SVGID_4_">
			<use xlink:href="#SVGID_3_"  overflow="visible"/>
		</clipPath>
		<g clip-path="url(#SVGID_4_)">
			<path fill="#BEBEBD" d="M1241.746,71.479c3.088,3.09,8.1,3.086,11.191-0.006s3.094-8.104,0.006-11.191
				c-3.09-3.089-8.1-3.088-11.191,0.005C1238.658,63.377,1238.656,68.389,1241.746,71.479"/>
		</g>
		<g clip-path="url(#SVGID_4_)">
			<path fill="#C0C0C0" d="M1241.877,71.348c3.016,3.016,7.91,3.013,10.93-0.008c3.02-3.018,3.02-7.912,0.006-10.928
				c-3.018-3.017-7.91-3.016-10.93,0.005C1238.863,63.438,1238.861,68.33,1241.877,71.348"/>
		</g>
		<g clip-path="url(#SVGID_4_)">
			<path fill="#C2C3C3" d="M1242.01,71.217c2.941,2.941,7.719,2.941,10.666-0.006c2.945-2.947,2.947-7.723,0.004-10.666
				s-7.719-2.943-10.666,0.002C1239.066,63.495,1239.064,68.271,1242.01,71.217"/>
		</g>
		<g clip-path="url(#SVGID_4_)">
			<path fill="#C4C5C4" d="M1242.141,71.084c2.871,2.871,7.529,2.868,10.402-0.005c2.875-2.876,2.877-7.532,0.006-10.403
				c-2.873-2.872-7.529-2.869-10.402,0.003C1239.271,63.555,1239.27,68.213,1242.141,71.084"/>
		</g>
		<g clip-path="url(#SVGID_4_)">
			<path fill="#C6C8C8" d="M1242.271,70.952c2.799,2.798,7.338,2.795,10.141-0.005c2.801-2.802,2.801-7.342,0.004-10.14
				c-2.799-2.799-7.338-2.798-10.141,0.005C1239.475,63.613,1239.473,68.154,1242.271,70.952"/>
		</g>
		<g clip-path="url(#SVGID_4_)">
			<path fill="#C9CACB" d="M1242.404,70.82c2.725,2.725,7.146,2.724,9.875-0.004c2.73-2.73,2.73-7.15,0.006-9.876
				c-2.727-2.727-7.148-2.725-9.877,0.003S1239.678,68.094,1242.404,70.82"/>
		</g>
		<g clip-path="url(#SVGID_4_)">
			<path fill="#CBCDCD" d="M1242.535,70.689c2.652,2.652,6.957,2.65,9.613-0.006c2.656-2.654,2.656-6.96,0.006-9.613
				c-2.654-2.652-6.959-2.652-9.615,0.004C1239.883,63.73,1239.883,68.035,1242.535,70.689"/>
		</g>
		<g clip-path="url(#SVGID_4_)">
			<path fill="#CCCFD0" d="M1242.668,70.557c2.578,2.58,6.768,2.58,9.35-0.004c2.582-2.582,2.584-6.77,0.004-9.35
				c-2.58-2.582-6.768-2.58-9.35,0.002C1240.088,63.79,1240.086,67.975,1242.668,70.557"/>
		</g>
		<g clip-path="url(#SVGID_4_)">
			<path fill="#D0D2D2" d="M1242.801,70.425c2.506,2.507,6.574,2.507,9.084-0.003c2.512-2.511,2.512-6.582,0.006-9.086
				c-2.51-2.51-6.578-2.508-9.088,0.002C1240.291,63.848,1240.291,67.918,1242.801,70.425"/>
		</g>
		<g clip-path="url(#SVGID_4_)">
			<path fill="#D2D4D5" d="M1242.93,70.295c2.436,2.434,6.387,2.432,8.824-0.006s2.439-6.389,0.004-8.822
				c-2.436-2.436-6.385-2.436-8.822,0.003C1240.496,63.909,1240.496,67.858,1242.93,70.295"/>
		</g>
	</g>
</g>
<g>
	<polygon fill="#605F5E" points="1251.439,68.512 1248.807,65.879 1251.441,63.243 1249.98,61.781 1247.344,64.418 1244.713,61.783 
		1243.248,63.247 1245.881,65.88 1243.246,68.516 1244.707,69.977 1247.344,67.342 1249.977,69.974 	"/>
</g>
<g>
	<path fill="#221714" d="M1244.713,62.04l2.379,2.378l0.252,0.252l0.254-0.254l2.383-2.381l1.207,1.208l-2.381,2.382l-0.254,0.255
		l0.252,0.253l2.379,2.379l-1.209,1.208l-2.379-2.378l-0.252-0.254l-0.254,0.254l-2.381,2.381l-1.209-1.207l2.381-2.381l0.254-0.255
		l-0.254-0.253l-2.379-2.379L1244.713,62.04z M1245.629,65.88l-2.635,2.636l1.715,1.713l2.635-2.633l2.633,2.633l1.715-1.717
		l-2.633-2.633l2.637-2.636l-1.717-1.714l-2.635,2.635l-2.631-2.633l-1.717,1.717L1245.629,65.88z"/>
</g>
<g>
	<rect x="75.338" y="0.182" fill="#DDDBD3" width="272.26" height="126.142"/>
</g>
<g>
	<rect x="347.598" y="0.182" fill="#7583B9" width="853.244" height="126.142"/>
</g>
<g>
	<path fill="#7583B9" d="M1173.996,107.254c0,5.021-3.402,9.09-7.602,9.09H979.967c-4.197,0-7.6-4.068-7.6-9.09V27.512
		c0-5.021,3.402-9.092,7.6-9.092h186.428c4.199,0,7.602,4.071,7.602,9.092V107.254z"/>
	<path fill="#181919" d="M1166.395,116.844H979.967c-4.465,0-8.1-4.302-8.1-9.59V27.512c0-5.289,3.635-9.592,8.1-9.592h186.428
		c4.467,0,8.102,4.303,8.102,9.592v79.742C1174.496,112.542,1170.861,116.844,1166.395,116.844z M979.967,18.92
		c-3.914,0-7.1,3.854-7.1,8.592v79.742c0,4.736,3.186,8.59,7.1,8.59h186.428c3.916,0,7.102-3.854,7.102-8.59V27.512
		c0-4.737-3.186-8.592-7.102-8.592H979.967z"/>
</g>
<g>
	<g>
		<path fill="#AFAEAE" d="M978.59,32.867c2.529,2.531,6.637,2.528,9.17-0.005s2.535-6.64,0.004-9.169
			c-2.531-2.532-6.637-2.531-9.17,0.003C976.059,26.229,976.059,30.335,978.59,32.867"/>
	</g>
	<g>
		<path fill="#929292" d="M983.17,35.263L983.17,35.263c-1.865,0-3.617-0.726-4.934-2.043c-1.318-1.318-2.045-3.072-2.045-4.938
			c0.002-1.866,0.729-3.62,2.049-4.939c1.32-1.321,3.074-2.048,4.941-2.048c1.865,0,3.617,0.726,4.936,2.044
			c1.318,1.319,2.045,3.072,2.043,4.938c0,1.866-0.727,3.62-2.047,4.939C986.793,34.535,985.037,35.263,983.17,35.263z
			 M983.182,22.294c-1.6,0-3.104,0.624-4.234,1.755c-1.131,1.131-1.754,2.634-1.756,4.232c0,1.599,0.621,3.102,1.752,4.231
			c1.129,1.129,2.629,1.75,4.227,1.75l0,0c1.6,0,3.104-0.623,4.236-1.754c1.131-1.131,1.754-2.634,1.754-4.232
			c0.002-1.599-0.619-3.102-1.75-4.231C986.281,22.916,984.779,22.294,983.182,22.294z"/>
	</g>
	<g>
		<path fill="#AFAEAE" d="M979.807,31.65c1.859,1.859,4.877,1.858,6.736-0.003c1.863-1.861,1.863-4.879,0.004-6.738
			c-1.859-1.86-4.877-1.858-6.738,0.001C977.947,26.772,977.945,29.79,979.807,31.65"/>
	</g>
	<g>
		<path fill="#929292" d="M983.174,33.543h-0.002c-1.404,0-2.727-0.547-3.719-1.54c-2.053-2.052-2.051-5.393,0.002-7.446
			c0.994-0.996,2.318-1.543,3.725-1.543s2.727,0.548,3.721,1.541c0.994,0.994,1.541,2.315,1.541,3.722
			c-0.002,1.407-0.549,2.73-1.545,3.724C985.902,32.995,984.58,33.543,983.174,33.543z M983.18,24.014
			c-1.139,0-2.211,0.444-3.018,1.25c-1.664,1.664-1.664,4.371-0.002,6.032c0.805,0.805,1.873,1.247,3.012,1.247h0.002
			c1.139,0,2.211-0.443,3.016-1.25c0.807-0.805,1.252-1.877,1.252-3.017s-0.443-2.21-1.248-3.015
			C985.389,24.458,984.318,24.014,983.18,24.014z"/>
	</g>
	<g>
		<g>
			<defs>
				
					<rect id="SVGID_5_" x="978.684" y="23.792" transform="matrix(0.7072 -0.707 0.707 0.7072 267.8397 703.3564)" width="8.986" height="8.975"/>
			</defs>
			<clipPath id="SVGID_6_">
				<use xlink:href="#SVGID_5_"  overflow="visible"/>
			</clipPath>
			<g clip-path="url(#SVGID_6_)">
				<path fill="#BEBEBD" d="M980,31.455c1.752,1.754,4.596,1.751,6.35-0.003c1.754-1.755,1.756-4.599,0.004-6.351
					c-1.754-1.752-4.596-1.752-6.35,0.003C978.248,26.858,978.246,29.702,980,31.455"/>
			</g>
			<g clip-path="url(#SVGID_6_)">
				<path fill="#C0C0C0" d="M980.074,31.381c1.711,1.711,4.488,1.709,6.201-0.004c1.713-1.713,1.713-4.489,0.004-6.201
					c-1.713-1.711-4.488-1.711-6.201,0.003C978.363,26.893,978.363,29.669,980.074,31.381"/>
			</g>
			<g clip-path="url(#SVGID_6_)">
				<path fill="#C2C3C3" d="M980.148,31.307c1.67,1.668,4.381,1.668,6.053-0.003c1.672-1.673,1.672-4.382,0.002-6.052
					s-4.379-1.67-6.051,0.001C978.48,26.926,978.479,29.636,980.148,31.307"/>
			</g>
			<g clip-path="url(#SVGID_6_)">
				<path fill="#C4C5C4" d="M980.225,31.232c1.629,1.628,4.271,1.627,5.902-0.003c1.631-1.632,1.631-4.273,0.002-5.902
					s-4.271-1.627-5.902,0.002C978.596,26.959,978.594,29.603,980.225,31.232"/>
			</g>
			<g clip-path="url(#SVGID_6_)">
				<path fill="#C6C8C8" d="M980.299,31.157c1.588,1.587,4.162,1.586,5.752-0.002c1.59-1.59,1.59-4.166,0.004-5.754
					c-1.588-1.588-4.164-1.587-5.754,0.004C978.711,26.993,978.711,29.568,980.299,31.157"/>
			</g>
			<g clip-path="url(#SVGID_6_)">
				<path fill="#C9CACB" d="M980.373,31.082c1.547,1.546,4.055,1.545,5.604-0.003s1.549-4.057,0.002-5.604s-4.055-1.546-5.604,0.002
					C978.828,27.026,978.826,29.535,980.373,31.082"/>
			</g>
			<g clip-path="url(#SVGID_6_)">
				<path fill="#CBCDCD" d="M980.447,31.008c1.506,1.504,3.947,1.503,5.455-0.004c1.506-1.506,1.508-3.949,0.002-5.454
					c-1.506-1.505-3.947-1.505-5.455,0.001C978.943,27.059,978.943,29.502,980.447,31.008"/>
			</g>
			<g clip-path="url(#SVGID_6_)">
				<path fill="#CCCFD0" d="M980.523,30.932c1.463,1.465,3.84,1.465,5.305-0.002c1.465-1.465,1.465-3.842,0.002-5.304
					c-1.465-1.465-3.84-1.464-5.305,0C979.059,27.092,979.059,29.467,980.523,30.932"/>
			</g>
			<g clip-path="url(#SVGID_6_)">
				<path fill="#D0D2D2" d="M980.598,30.858c1.422,1.421,3.73,1.421,5.154-0.002c1.426-1.424,1.426-3.734,0.004-5.155
					c-1.424-1.424-3.732-1.423-5.156,0C979.174,27.125,979.174,29.435,980.598,30.858"/>
			</g>
			<g clip-path="url(#SVGID_6_)">
				<path fill="#D2D4D5" d="M980.672,30.783c1.381,1.381,3.623,1.38,5.006-0.002c1.383-1.383,1.385-3.626,0.004-5.007
					c-1.383-1.382-3.625-1.382-5.008,0.002S979.291,29.401,980.672,30.783"/>
			</g>
		</g>
	</g>
	<g>
		<polygon fill="#605F5E" points="985.5,29.771 984.006,28.279 985.502,26.783 984.672,25.953 983.176,27.449 981.684,25.954 
			980.852,26.785 982.346,28.279 980.852,29.774 981.68,30.604 983.176,29.108 984.67,30.602 		"/>
	</g>
	<g>
		<path fill="#221714" d="M981.684,26.1l1.35,1.35l0.143,0.143l0.145-0.144l1.352-1.351l0.686,0.686l-1.352,1.351l-0.145,0.145
			l0.145,0.143l1.35,1.35l-0.686,0.686l-1.352-1.349l-0.143-0.144l-0.145,0.144l-1.35,1.351l-0.688-0.685l1.352-1.352l0.145-0.144
			l-0.145-0.145l-1.35-1.35L981.684,26.1z M982.203,28.279l-1.496,1.495l0.975,0.972l1.494-1.494l1.494,1.494l0.973-0.975
			l-1.494-1.492l1.496-1.496l-0.973-0.973l-1.496,1.494l-1.492-1.493l-0.975,0.974L982.203,28.279z"/>
	</g>
</g>
<g>
	<g>
		<path fill="#AFAEAE" d="M1158.121,32.867c2.531,2.531,6.637,2.528,9.17-0.005c2.535-2.533,2.535-6.64,0.006-9.169
			c-2.531-2.532-6.639-2.531-9.172,0.003C1155.592,26.229,1155.59,30.335,1158.121,32.867"/>
	</g>
	<g>
		<path fill="#929292" d="M1162.703,35.263h-0.002c-1.863,0-3.615-0.726-4.934-2.043c-1.318-1.318-2.045-3.072-2.043-4.938
			c0-1.866,0.729-3.62,2.047-4.939c1.32-1.321,3.076-2.048,4.943-2.048c1.863,0,3.617,0.726,4.936,2.044
			c1.318,1.319,2.043,3.072,2.043,4.938c-0.002,1.866-0.729,3.62-2.049,4.939C1166.324,34.535,1164.568,35.263,1162.703,35.263z
			 M1162.715,22.294c-1.6,0-3.104,0.624-4.236,1.755c-1.131,1.131-1.754,2.634-1.754,4.232c0,1.599,0.621,3.102,1.75,4.231
			c1.129,1.129,2.631,1.75,4.227,1.75h0.002c1.6,0,3.104-0.623,4.234-1.754s1.756-2.634,1.756-4.232c0-1.599-0.621-3.102-1.75-4.231
			C1165.814,22.916,1164.313,22.294,1162.715,22.294z"/>
	</g>
	<g>
		<path fill="#AFAEAE" d="M1159.338,31.65c1.859,1.859,4.877,1.858,6.738-0.003c1.861-1.861,1.863-4.879,0.002-6.738
			c-1.859-1.86-4.877-1.858-6.738,0.001C1157.479,26.772,1157.479,29.79,1159.338,31.65"/>
	</g>
	<g>
		<path fill="#929292" d="M1162.705,33.543L1162.705,33.543c-1.406,0-2.727-0.547-3.721-1.54c-2.051-2.052-2.051-5.393,0.002-7.446
			c0.996-0.996,2.318-1.543,3.727-1.543c1.406,0,2.727,0.548,3.719,1.541c0.994,0.994,1.543,2.315,1.541,3.722
			c0,1.407-0.549,2.73-1.543,3.724C1165.436,32.995,1164.111,33.543,1162.705,33.543z M1162.713,24.014
			c-1.141,0-2.213,0.444-3.02,1.25c-1.662,1.664-1.664,4.371-0.002,6.032c0.805,0.805,1.875,1.247,3.014,1.247l0,0
			c1.141,0,2.211-0.443,3.018-1.25c0.807-0.805,1.25-1.877,1.25-3.017c0.002-1.14-0.441-2.21-1.248-3.015
			C1164.922,24.458,1163.852,24.014,1162.713,24.014z"/>
	</g>
	<g>
		<g>
			<defs>
				
					<rect id="SVGID_7_" x="1158.216" y="23.791" transform="matrix(0.7072 -0.707 0.707 0.7072 320.399 830.2805)" width="8.986" height="8.976"/>
			</defs>
			<clipPath id="SVGID_8_">
				<use xlink:href="#SVGID_7_"  overflow="visible"/>
			</clipPath>
			<g clip-path="url(#SVGID_8_)">
				<path fill="#BEBEBD" d="M1159.531,31.455c1.754,1.754,4.596,1.751,6.352-0.003c1.754-1.755,1.756-4.599,0.002-6.351
					c-1.752-1.752-4.596-1.752-6.35,0.003C1157.781,26.858,1157.779,29.702,1159.531,31.455"/>
			</g>
			<g clip-path="url(#SVGID_8_)">
				<path fill="#C0C0C0" d="M1159.607,31.381c1.711,1.711,4.486,1.709,6.199-0.004c1.715-1.713,1.715-4.489,0.004-6.201
					s-4.488-1.711-6.201,0.003C1157.896,26.893,1157.895,29.669,1159.607,31.381"/>
			</g>
			<g clip-path="url(#SVGID_8_)">
				<path fill="#C2C3C3" d="M1159.682,31.307c1.67,1.668,4.381,1.668,6.051-0.003c1.672-1.673,1.674-4.382,0.004-6.052
					s-4.381-1.67-6.053,0.001C1158.012,26.926,1158.012,29.636,1159.682,31.307"/>
			</g>
			<g clip-path="url(#SVGID_8_)">
				<path fill="#C4C5C4" d="M1159.756,31.232c1.629,1.628,4.271,1.627,5.902-0.003c1.631-1.632,1.633-4.273,0.004-5.902
					c-1.631-1.629-4.271-1.627-5.902,0.002C1158.127,26.959,1158.127,29.603,1159.756,31.232"/>
			</g>
			<g clip-path="url(#SVGID_8_)">
				<path fill="#C6C8C8" d="M1159.83,31.157c1.588,1.587,4.164,1.586,5.754-0.002c1.59-1.59,1.59-4.166,0.002-5.754
					s-4.164-1.587-5.754,0.004C1158.244,26.993,1158.242,29.568,1159.83,31.157"/>
			</g>
			<g clip-path="url(#SVGID_8_)">
				<path fill="#C9CACB" d="M1159.906,31.082c1.545,1.546,4.055,1.545,5.604-0.003s1.549-4.057,0.002-5.604
					s-4.057-1.546-5.604,0.002C1158.359,27.026,1158.359,29.535,1159.906,31.082"/>
			</g>
			<g clip-path="url(#SVGID_8_)">
				<path fill="#CBCDCD" d="M1159.98,31.008c1.504,1.504,3.947,1.503,5.455-0.004c1.506-1.506,1.506-3.949,0.002-5.454
					c-1.506-1.505-3.947-1.505-5.455,0.001C1158.475,27.059,1158.475,29.502,1159.98,31.008"/>
			</g>
			<g clip-path="url(#SVGID_8_)">
				<path fill="#CCCFD0" d="M1160.055,30.932c1.463,1.465,3.84,1.465,5.305-0.002c1.467-1.465,1.467-3.842,0.004-5.304
					c-1.465-1.465-3.842-1.464-5.307,0C1158.592,27.092,1158.59,29.467,1160.055,30.932"/>
			</g>
			<g clip-path="url(#SVGID_8_)">
				<path fill="#D0D2D2" d="M1160.131,30.858c1.422,1.421,3.73,1.421,5.154-0.002s1.426-3.734,0.002-5.155
					c-1.422-1.424-3.732-1.423-5.156,0C1158.707,27.125,1158.707,29.435,1160.131,30.858"/>
			</g>
			<g clip-path="url(#SVGID_8_)">
				<path fill="#D2D4D5" d="M1160.203,30.783c1.383,1.381,3.625,1.38,5.008-0.002c1.383-1.383,1.383-3.626,0.002-5.007
					c-1.381-1.382-3.623-1.382-5.006,0.002S1158.822,29.401,1160.203,30.783"/>
			</g>
		</g>
	</g>
	<g>
		<polygon fill="#605F5E" points="1165.031,29.771 1163.537,28.279 1165.033,26.783 1164.203,25.953 1162.709,27.449 
			1161.215,25.954 1160.385,26.785 1161.879,28.279 1160.383,29.774 1161.213,30.604 1162.707,29.108 1164.201,30.602 		"/>
	</g>
	<g>
		<path fill="#221714" d="M1161.215,26.1l1.35,1.35l0.145,0.143l0.145-0.144l1.35-1.351l0.686,0.686l-1.352,1.351l-0.143,0.145
			l0.143,0.143l1.35,1.35l-0.686,0.686l-1.35-1.349l-0.145-0.144l-0.143,0.144l-1.352,1.351l-0.686-0.685l1.352-1.352l0.145-0.144
			l-0.145-0.145l-1.352-1.35L1161.215,26.1z M1161.734,28.279l-1.494,1.495l0.973,0.972l1.494-1.494l1.494,1.494l0.975-0.975
			l-1.494-1.492l1.496-1.496l-0.975-0.973l-1.494,1.494l-1.494-1.493l-0.973,0.974L1161.734,28.279z"/>
	</g>
</g>
<g>
	<path fill="#7583B9" d="M972.367,107.254c0,5.021-3.402,9.09-7.6,9.09H778.34c-4.197,0-7.602-4.068-7.602-9.09V27.512
		c0-5.021,3.404-9.092,7.602-9.092h186.428c4.197,0,7.6,4.071,7.6,9.092V107.254z"/>
	<path fill="#181919" d="M964.768,116.844H778.34c-4.467,0-8.102-4.302-8.102-9.59V27.512c0-5.289,3.635-9.592,8.102-9.592h186.428
		c4.467,0,8.1,4.303,8.1,9.592v79.742C972.867,112.542,969.234,116.844,964.768,116.844z M778.34,18.92
		c-3.916,0-7.102,3.854-7.102,8.592v79.742c0,4.736,3.186,8.59,7.102,8.59h186.428c3.914,0,7.1-3.854,7.1-8.59V27.512
		c0-4.737-3.186-8.592-7.1-8.592H778.34z"/>
</g>
<g>
	<g>
		<path fill="#AFAEAE" d="M776.961,32.867c2.531,2.531,6.637,2.528,9.17-0.005s2.535-6.64,0.006-9.169
			c-2.533-2.532-6.639-2.531-9.172,0.003C774.432,26.229,774.43,30.335,776.961,32.867"/>
	</g>
	<g>
		<path fill="#929292" d="M781.541,35.263L781.541,35.263c-1.865,0-3.617-0.726-4.934-2.043c-1.318-1.318-2.045-3.072-2.043-4.938
			c0-1.866,0.727-3.62,2.047-4.939c1.32-1.321,3.076-2.048,4.941-2.048s3.619,0.726,4.938,2.044
			c1.318,1.319,2.043,3.072,2.043,4.938c-0.002,1.866-0.729,3.62-2.049,4.939C785.164,34.535,783.408,35.263,781.541,35.263z
			 M781.553,22.294c-1.6,0-3.104,0.624-4.234,1.755c-1.131,1.131-1.754,2.634-1.754,4.232c-0.002,1.599,0.621,3.102,1.75,4.231
			c1.129,1.129,2.629,1.75,4.227,1.75l0,0c1.6,0,3.105-0.623,4.236-1.754s1.754-2.634,1.756-4.232c0-1.599-0.621-3.102-1.75-4.231
			C784.652,22.916,783.15,22.294,781.553,22.294z"/>
	</g>
	<g>
		<path fill="#AFAEAE" d="M778.178,31.65c1.859,1.859,4.877,1.858,6.738-0.003c1.861-1.861,1.863-4.879,0.002-6.738
			c-1.859-1.86-4.877-1.858-6.738,0.001C776.318,26.772,776.318,29.79,778.178,31.65"/>
	</g>
	<g>
		<path fill="#929292" d="M781.545,33.543L781.545,33.543c-1.406,0-2.729-0.547-3.721-1.54c-2.053-2.052-2.051-5.393,0.002-7.446
			c0.996-0.996,2.318-1.543,3.725-1.543s2.729,0.548,3.721,1.541c0.994,0.994,1.541,2.315,1.541,3.722
			c0,1.407-0.549,2.73-1.543,3.724C784.273,32.995,782.951,33.543,781.545,33.543z M781.551,24.014c-1.139,0-2.211,0.444-3.018,1.25
			c-1.662,1.664-1.664,4.371-0.002,6.032c0.805,0.805,1.875,1.247,3.014,1.247l0,0c1.139,0,2.211-0.443,3.018-1.25
			c0.805-0.805,1.25-1.877,1.25-3.017s-0.443-2.21-1.248-3.015C783.76,24.458,782.689,24.014,781.551,24.014z"/>
	</g>
	<g>
		<g>
			<defs>
				
					<rect id="SVGID_9_" x="777.056" y="23.791" transform="matrix(0.7072 -0.707 0.707 0.7072 208.8116 560.8113)" width="8.986" height="8.976"/>
			</defs>
			<clipPath id="SVGID_10_">
				<use xlink:href="#SVGID_9_"  overflow="visible"/>
			</clipPath>
			<g clip-path="url(#SVGID_10_)">
				<path fill="#BEBEBD" d="M778.371,31.455c1.754,1.754,4.596,1.751,6.35-0.003c1.756-1.755,1.756-4.599,0.004-6.351
					c-1.752-1.752-4.596-1.752-6.35,0.003C776.619,26.858,776.619,29.702,778.371,31.455"/>
			</g>
			<g clip-path="url(#SVGID_10_)">
				<path fill="#C0C0C0" d="M778.447,31.381c1.711,1.711,4.486,1.709,6.199-0.004c1.715-1.713,1.715-4.489,0.004-6.201
					s-4.488-1.711-6.201,0.003C776.736,26.893,776.734,29.669,778.447,31.381"/>
			</g>
			<g clip-path="url(#SVGID_10_)">
				<path fill="#C2C3C3" d="M778.521,31.307c1.67,1.668,4.379,1.668,6.051-0.003c1.672-1.673,1.674-4.382,0.004-6.052
					s-4.381-1.67-6.053,0.001C776.852,26.926,776.85,29.636,778.521,31.307"/>
			</g>
			<g clip-path="url(#SVGID_10_)">
				<path fill="#C4C5C4" d="M778.596,31.232c1.629,1.628,4.271,1.627,5.902-0.003c1.631-1.632,1.633-4.273,0.004-5.902
					c-1.631-1.629-4.273-1.627-5.902,0.002C776.967,26.959,776.967,29.603,778.596,31.232"/>
			</g>
			<g clip-path="url(#SVGID_10_)">
				<path fill="#C6C8C8" d="M778.67,31.157c1.588,1.587,4.164,1.586,5.754-0.002c1.588-1.59,1.59-4.166,0.002-5.754
					s-4.164-1.587-5.754,0.004C777.084,26.993,777.082,29.568,778.67,31.157"/>
			</g>
			<g clip-path="url(#SVGID_10_)">
				<path fill="#C9CACB" d="M778.746,31.082c1.545,1.546,4.055,1.545,5.602-0.003c1.549-1.548,1.549-4.057,0.004-5.604
					c-1.547-1.547-4.057-1.546-5.604,0.002C777.199,27.026,777.199,29.535,778.746,31.082"/>
			</g>
			<g clip-path="url(#SVGID_10_)">
				<path fill="#CBCDCD" d="M778.82,31.008c1.504,1.504,3.947,1.503,5.453-0.004c1.508-1.506,1.508-3.949,0.004-5.454
					c-1.506-1.505-3.947-1.505-5.455,0.001C777.314,27.059,777.314,29.502,778.82,31.008"/>
			</g>
			<g clip-path="url(#SVGID_10_)">
				<path fill="#CCCFD0" d="M778.895,30.932c1.463,1.465,3.84,1.465,5.305-0.002c1.467-1.465,1.467-3.842,0.004-5.304
					c-1.465-1.465-3.842-1.464-5.307,0C777.432,27.092,777.43,29.467,778.895,30.932"/>
			</g>
			<g clip-path="url(#SVGID_10_)">
				<path fill="#D0D2D2" d="M778.971,30.858c1.422,1.421,3.73,1.421,5.154-0.002s1.426-3.734,0.002-5.155
					c-1.424-1.424-3.732-1.423-5.156,0C777.547,27.125,777.547,29.435,778.971,30.858"/>
			</g>
			<g clip-path="url(#SVGID_10_)">
				<path fill="#D2D4D5" d="M779.043,30.783c1.383,1.381,3.623,1.38,5.008-0.002c1.383-1.383,1.383-3.626,0.002-5.007
					c-1.383-1.382-3.623-1.382-5.006,0.002C777.662,27.16,777.662,29.401,779.043,30.783"/>
			</g>
		</g>
	</g>
	<g>
		<polygon fill="#605F5E" points="783.871,29.771 782.377,28.279 783.873,26.783 783.043,25.953 781.549,27.449 780.055,25.954 
			779.225,26.785 780.719,28.279 779.223,29.774 780.053,30.604 781.547,29.108 783.041,30.602 		"/>
	</g>
	<g>
		<path fill="#221714" d="M780.055,26.1l1.35,1.35l0.145,0.143l0.143-0.144l1.352-1.351l0.686,0.686l-1.352,1.351l-0.143,0.145
			l0.143,0.143l1.35,1.35l-0.686,0.686l-1.35-1.349l-0.145-0.144l-0.143,0.144l-1.352,1.351l-0.686-0.685l1.352-1.352l0.143-0.144
			l-0.143-0.145l-1.352-1.35L780.055,26.1z M780.574,28.279l-1.494,1.495l0.973,0.972l1.494-1.494l1.494,1.494l0.975-0.975
			l-1.494-1.492l1.496-1.496l-0.975-0.973l-1.494,1.494l-1.494-1.493l-0.973,0.974L780.574,28.279z"/>
	</g>
</g>
<g>
	<g>
		<path fill="#AFAEAE" d="M956.494,32.867c2.529,2.531,6.637,2.528,9.17-0.005s2.535-6.64,0.004-9.169
			c-2.531-2.532-6.637-2.531-9.17,0.003C953.963,26.229,953.963,30.335,956.494,32.867"/>
	</g>
	<g>
		<path fill="#929292" d="M961.074,35.263L961.074,35.263c-1.865,0-3.617-0.726-4.934-2.043c-1.32-1.318-2.045-3.072-2.045-4.938
			c0-1.866,0.729-3.62,2.049-4.939c1.318-1.321,3.074-2.048,4.941-2.048c1.865,0,3.617,0.726,4.936,2.044
			c1.318,1.319,2.045,3.072,2.043,4.938c0,1.866-0.729,3.62-2.047,4.939C964.695,34.535,962.941,35.263,961.074,35.263z
			 M961.086,22.294c-1.6,0-3.104,0.624-4.234,1.755c-1.133,1.131-1.756,2.634-1.756,4.232c0,1.599,0.621,3.102,1.752,4.231
			c1.127,1.129,2.629,1.75,4.227,1.75l0,0c1.6,0,3.104-0.623,4.236-1.754c1.131-1.131,1.754-2.634,1.754-4.232
			c0.002-1.599-0.621-3.102-1.75-4.231C964.186,22.916,962.684,22.294,961.086,22.294z"/>
	</g>
	<g>
		<path fill="#AFAEAE" d="M957.709,31.65c1.861,1.859,4.879,1.858,6.738-0.003c1.861-1.861,1.863-4.879,0.004-6.738
			c-1.859-1.86-4.877-1.858-6.738,0.001C955.852,26.772,955.85,29.79,957.709,31.65"/>
	</g>
	<g>
		<path fill="#929292" d="M961.076,33.543L961.076,33.543c-1.406,0-2.727-0.547-3.719-1.54c-2.053-2.052-2.051-5.393,0.002-7.446
			c0.994-0.996,2.318-1.543,3.725-1.543s2.727,0.548,3.721,1.541c0.994,0.994,1.541,2.315,1.541,3.722
			c-0.002,1.407-0.549,2.73-1.545,3.724C963.807,32.995,962.484,33.543,961.076,33.543z M961.084,24.014
			c-1.141,0-2.213,0.444-3.018,1.25c-1.664,1.664-1.664,4.371-0.004,6.032c0.805,0.805,1.875,1.247,3.014,1.247l0,0
			c1.141,0,2.211-0.443,3.018-1.25c0.807-0.805,1.25-1.877,1.252-3.017c0-1.14-0.443-2.21-1.248-3.015
			C963.293,24.458,962.223,24.014,961.084,24.014z"/>
	</g>
	<g>
		<g>
			<defs>
				
					<rect id="SVGID_11_" x="956.587" y="23.791" transform="matrix(0.7072 -0.707 0.707 0.7072 261.3707 687.7347)" width="8.986" height="8.976"/>
			</defs>
			<clipPath id="SVGID_12_">
				<use xlink:href="#SVGID_11_"  overflow="visible"/>
			</clipPath>
			<g clip-path="url(#SVGID_12_)">
				<path fill="#BEBEBD" d="M957.904,31.455c1.752,1.754,4.596,1.751,6.35-0.003c1.754-1.755,1.756-4.599,0.004-6.351
					c-1.754-1.752-4.596-1.752-6.352,0.003C956.152,26.858,956.15,29.702,957.904,31.455"/>
			</g>
			<g clip-path="url(#SVGID_12_)">
				<path fill="#C0C0C0" d="M957.979,31.381c1.711,1.711,4.488,1.709,6.201-0.004c1.713-1.713,1.713-4.489,0.004-6.201
					c-1.713-1.711-4.488-1.711-6.203,0.003C956.268,26.893,956.268,29.669,957.979,31.381"/>
			</g>
			<g clip-path="url(#SVGID_12_)">
				<path fill="#C2C3C3" d="M958.053,31.307c1.67,1.668,4.381,1.668,6.053-0.003c1.672-1.673,1.672-4.382,0.002-6.052
					s-4.379-1.67-6.053,0.001C956.385,26.926,956.383,29.636,958.053,31.307"/>
			</g>
			<g clip-path="url(#SVGID_12_)">
				<path fill="#C4C5C4" d="M958.129,31.232c1.629,1.628,4.271,1.627,5.902-0.003c1.629-1.632,1.631-4.273,0.002-5.902
					s-4.271-1.627-5.902,0.002C956.5,26.959,956.498,29.603,958.129,31.232"/>
			</g>
			<g clip-path="url(#SVGID_12_)">
				<path fill="#C6C8C8" d="M958.203,31.157c1.586,1.587,4.162,1.586,5.752-0.002c1.59-1.59,1.59-4.166,0.004-5.754
					c-1.588-1.588-4.164-1.587-5.754,0.004C956.615,26.993,956.615,29.568,958.203,31.157"/>
			</g>
			<g clip-path="url(#SVGID_12_)">
				<path fill="#C9CACB" d="M958.277,31.082c1.547,1.546,4.055,1.545,5.604-0.003s1.549-4.057,0.002-5.604s-4.055-1.546-5.604,0.002
					C956.73,27.026,956.73,29.535,958.277,31.082"/>
			</g>
			<g clip-path="url(#SVGID_12_)">
				<path fill="#CBCDCD" d="M958.352,31.008c1.506,1.504,3.947,1.503,5.455-0.004c1.506-1.506,1.508-3.949,0.002-5.454
					c-1.506-1.505-3.947-1.505-5.455,0.001C956.848,27.059,956.846,29.502,958.352,31.008"/>
			</g>
			<g clip-path="url(#SVGID_12_)">
				<path fill="#CCCFD0" d="M958.428,30.932c1.463,1.465,3.84,1.465,5.305-0.002c1.465-1.465,1.465-3.842,0.002-5.304
					c-1.465-1.465-3.84-1.464-5.305,0C956.963,27.092,956.963,29.467,958.428,30.932"/>
			</g>
			<g clip-path="url(#SVGID_12_)">
				<path fill="#D0D2D2" d="M958.502,30.858c1.422,1.421,3.73,1.421,5.154-0.002c1.426-1.424,1.426-3.734,0.004-5.155
					c-1.424-1.424-3.732-1.423-5.156,0C957.078,27.125,957.078,29.435,958.502,30.858"/>
			</g>
			<g clip-path="url(#SVGID_12_)">
				<path fill="#D2D4D5" d="M958.576,30.783c1.381,1.381,3.623,1.38,5.006-0.002c1.383-1.383,1.385-3.626,0.002-5.007
					c-1.381-1.382-3.623-1.382-5.006,0.002S957.195,29.401,958.576,30.783"/>
			</g>
		</g>
	</g>
	<g>
		<polygon fill="#605F5E" points="963.404,29.771 961.91,28.279 963.406,26.783 962.576,25.953 961.08,27.449 959.588,25.954 
			958.756,26.785 960.25,28.279 958.756,29.774 959.584,30.604 961.08,29.108 962.574,30.602 		"/>
	</g>
	<g>
		<path fill="#221714" d="M959.588,26.1l1.35,1.35l0.143,0.143l0.145-0.144l1.352-1.351l0.686,0.686l-1.352,1.351l-0.145,0.145
			l0.145,0.143l1.35,1.35l-0.688,0.686l-1.35-1.349l-0.143-0.144l-0.145,0.144l-1.352,1.351l-0.686-0.685l1.352-1.352l0.145-0.144
			l-0.145-0.145l-1.35-1.35L959.588,26.1z M960.107,28.279l-1.496,1.495l0.973,0.972l1.496-1.494l1.494,1.494l0.973-0.975
			l-1.494-1.492l1.496-1.496l-0.973-0.973l-1.496,1.494l-1.492-1.493l-0.975,0.974L960.107,28.279z"/>
	</g>
</g>
<g>
	<circle fill="#181919" cx="559.925" cy="15.659" r="3.946"/>
</g>
<g>
	<circle fill="#181919" cx="559.925" cy="29.017" r="3.946"/>
</g>
<g>
	<circle fill="#181919" cx="559.925" cy="44.201" r="3.946"/>
</g>
<g>
	<circle fill="#181919" cx="570.937" cy="22.624" r="3.946"/>
</g>
<g>
	<circle fill="#181919" cx="570.937" cy="37.342" r="3.946"/>
</g>
<g>
	<circle fill="#181919" cx="581.504" cy="15.659" r="3.946"/>
</g>
<g>
	<circle fill="#181919" cx="581.504" cy="29.017" r="3.946"/>
</g>
<g>
	<circle fill="#181919" cx="581.504" cy="44.201" r="3.946"/>
</g>
<g>
	<circle fill="#181919" cx="592.968" cy="22.624" r="3.946"/>
</g>
<g>
	<circle fill="#181919" cx="592.968" cy="37.342" r="3.946"/>
</g>
<g>
	<circle fill="#181919" cx="603.535" cy="15.659" r="3.946"/>
</g>
<g>
	<circle fill="#181919" cx="603.535" cy="29.017" r="3.946"/>
</g>
<g>
	<circle fill="#181919" cx="603.535" cy="44.201" r="3.946"/>
</g>
<g>
	<circle fill="#181919" cx="615.612" cy="22.624" r="3.946"/>
</g>
<g>
	<circle fill="#181919" cx="615.612" cy="37.342" r="3.946"/>
</g>
<g>
	<circle fill="#181919" cx="626.179" cy="15.659" r="3.946"/>
</g>
<g>
	<circle fill="#181919" cx="626.179" cy="29.017" r="3.946"/>
</g>
<g>
	<circle fill="#181919" cx="626.179" cy="44.201" r="3.946"/>
</g>
<g>
	<circle fill="#181919" cx="638.256" cy="22.624" r="3.947"/>
</g>
<g>
	<circle fill="#181919" cx="638.256" cy="37.342" r="3.947"/>
</g>
<g>
	<circle fill="#181919" cx="648.823" cy="15.659" r="3.946"/>
</g>
<g>
	<circle fill="#181919" cx="648.823" cy="29.017" r="3.946"/>
</g>
<g>
	<circle fill="#181919" cx="648.823" cy="44.201" r="3.946"/>
</g>
<g>
	<circle fill="#181919" cx="660.901" cy="22.624" r="3.946"/>
</g>
<g>
	<circle fill="#181919" cx="660.901" cy="37.342" r="3.946"/>
</g>
<g>
	<circle fill="#181919" cx="671.468" cy="15.659" r="3.946"/>
</g>
<g>
	<circle fill="#181919" cx="671.468" cy="29.017" r="3.946"/>
</g>
<g>
	<circle fill="#181919" cx="671.468" cy="44.201" r="3.946"/>
</g>
<g>
	<circle fill="#181919" cx="683.546" cy="22.624" r="3.946"/>
</g>
<g>
	<circle fill="#181919" cx="683.546" cy="37.342" r="3.946"/>
</g>
<g>
	<circle fill="#181919" cx="694.112" cy="15.659" r="3.946"/>
</g>
<g>
	<circle fill="#181919" cx="694.112" cy="29.017" r="3.946"/>
</g>
<g>
	<circle fill="#181919" cx="694.112" cy="44.201" r="3.946"/>
</g>
<g>
	<circle fill="#181919" cx="706.19" cy="22.624" r="3.946"/>
</g>
<g>
	<circle fill="#181919" cx="706.19" cy="37.342" r="3.946"/>
</g>
<g>
	<circle fill="#181919" cx="716.757" cy="15.659" r="3.946"/>
</g>
<g>
	<circle fill="#181919" cx="716.757" cy="29.017" r="3.946"/>
</g>
<g>
	<circle fill="#181919" cx="716.757" cy="44.201" r="3.946"/>
</g>
<g>
	<circle fill="#181919" cx="728.835" cy="22.624" r="3.946"/>
</g>
<g>
	<circle fill="#181919" cx="728.835" cy="37.342" r="3.946"/>
</g>
<g>
	<circle fill="#181919" cx="739.401" cy="15.659" r="3.946"/>
</g>
<g>
	<circle fill="#181919" cx="739.401" cy="29.017" r="3.946"/>
</g>
<g>
	<circle fill="#181919" cx="739.401" cy="44.201" r="3.946"/>
</g>
<g>
	<path fill="#F1F1F1" d="M428.192,95.533c0,2.387-1.791,4.322-4,4.322h-36.374c-2.209,0-4-1.936-4-4.322V19.979
		c0-2.387,1.791-4.321,4-4.321h36.374c2.209,0,4,1.934,4,4.321V95.533z"/>
	<path fill="#181919" d="M424.192,100.355h-36.374c-2.481,0-4.5-2.163-4.5-4.822V19.979c0-2.657,2.019-4.821,4.5-4.821h36.374
		c2.481,0,4.5,2.164,4.5,4.821v75.554C428.692,98.192,426.674,100.355,424.192,100.355z M387.818,16.159
		c-1.93,0-3.5,1.713-3.5,3.821v75.554c0,2.107,1.57,3.822,3.5,3.822h36.374c1.93,0,3.5-1.715,3.5-3.822V19.979
		c0-2.107-1.57-3.821-3.5-3.821H387.818z"/>
</g>
<g>
	<path fill="#F8F8FA" d="M573.278,111.346l0.71-0.119c0.105,0.344,0.276,0.625,0.513,0.849c0.236,0.224,0.532,0.329,0.888,0.315
		c0.354-0.013,0.637-0.158,0.848-0.434c0.21-0.275,0.302-0.592,0.276-0.947c-0.026-0.354-0.165-0.631-0.414-0.828
		c-0.25-0.197-0.651-0.335-1.203-0.414v-0.513c0.552-0.053,0.953-0.197,1.203-0.435c0.25-0.236,0.361-0.545,0.335-0.927
		c-0.026-0.381-0.197-0.657-0.513-0.827c-0.315-0.172-0.651-0.191-1.006-0.061c-0.355,0.132-0.637,0.5-0.848,1.104l-0.71-0.118
		c0.158-0.474,0.375-0.868,0.651-1.184c0.276-0.315,0.65-0.499,1.124-0.553c0.474-0.052,0.888,0.007,1.243,0.178
		c0.355,0.172,0.605,0.435,0.75,0.789c0.145,0.355,0.164,0.744,0.06,1.164c-0.105,0.421-0.408,0.789-0.908,1.104
		c0.368,0.159,0.651,0.395,0.848,0.71c0.197,0.316,0.263,0.73,0.197,1.244c-0.066,0.512-0.296,0.926-0.69,1.241
		s-0.842,0.468-1.341,0.454c-0.5-0.014-0.934-0.171-1.302-0.473C573.619,112.365,573.383,111.924,573.278,111.346z"/>
</g>
<g>
	<path fill="#F8F8FA" d="M385.944,107.293c-0.098,0.742-0.367,1.322-0.806,1.744c-0.439,0.421-0.995,0.631-1.667,0.631
		c-0.783,0-1.407-0.285-1.872-0.856s-0.697-1.34-0.697-2.308s0.241-1.738,0.724-2.313s1.131-0.861,1.945-0.861
		c0.642,0,1.168,0.175,1.58,0.523s0.659,0.83,0.741,1.443h-0.741c-0.072-0.396-0.247-0.705-0.523-0.922
		c-0.277-0.217-0.633-0.324-1.068-0.324c-0.569,0-1.022,0.221-1.359,0.664c-0.337,0.442-0.506,1.039-0.506,1.789
		c0,0.797,0.156,1.402,0.469,1.819s0.767,0.626,1.362,0.626c0.44,0,0.805-0.145,1.097-0.432c0.291-0.288,0.484-0.695,0.58-1.225
		H385.944z"/>
	<path fill="#F8F8FA" d="M387.474,108.985c-0.354-0.425-0.531-0.982-0.531-1.672c0-0.692,0.177-1.252,0.531-1.677
		c0.354-0.426,0.817-0.637,1.389-0.637c0.577,0,1.042,0.211,1.394,0.637c0.353,0.425,0.529,0.984,0.529,1.677
		c0,0.689-0.176,1.247-0.529,1.672c-0.353,0.426-0.817,0.638-1.394,0.638C388.291,109.623,387.828,109.411,387.474,108.985z
		 M389.735,108.536c0.216-0.302,0.325-0.711,0.325-1.223c0-0.513-0.108-0.921-0.325-1.226c-0.216-0.303-0.507-0.455-0.873-0.455
		c-0.366,0-0.656,0.152-0.871,0.455c-0.215,0.305-0.323,0.713-0.323,1.226c0,0.512,0.107,0.921,0.323,1.223
		c0.215,0.302,0.505,0.453,0.871,0.453C389.228,108.989,389.519,108.838,389.735,108.536z"/>
	<path fill="#F8F8FA" d="M391.973,105.13h0.328h0.333v0.646l0.154-0.217c0.301-0.373,0.679-0.559,1.132-0.559
		c0.456,0,0.807,0.13,1.055,0.392c0.247,0.263,0.371,0.634,0.371,1.116v2.997h-0.348h-0.348v-2.748c0-0.384-0.07-0.662-0.21-0.832
		c-0.141-0.17-0.368-0.256-0.682-0.256c-0.335,0-0.6,0.135-0.796,0.403s-0.293,0.632-0.293,1.09v2.343h-0.348h-0.348V105.13z"/>
	<path fill="#F8F8FA" d="M399.135,106.398c-0.021-0.244-0.114-0.432-0.28-0.564c-0.166-0.135-0.39-0.201-0.67-0.201
		c-0.289,0-0.508,0.053-0.659,0.159c-0.151,0.106-0.226,0.262-0.226,0.466c0,0.155,0.053,0.273,0.158,0.352
		c0.105,0.079,0.315,0.158,0.63,0.237l0.719,0.18c0.402,0.104,0.689,0.247,0.861,0.43c0.171,0.18,0.256,0.433,0.256,0.757
		c0,0.434-0.147,0.776-0.442,1.03s-0.694,0.38-1.196,0.38c-0.582,0-1.017-0.121-1.302-0.365c-0.286-0.244-0.445-0.628-0.475-1.151
		h0.668c0.034,0.312,0.137,0.535,0.311,0.675c0.174,0.139,0.44,0.208,0.798,0.208c0.312,0,0.548-0.063,0.709-0.188
		c0.161-0.126,0.242-0.309,0.242-0.548c0-0.152-0.053-0.269-0.158-0.348s-0.318-0.158-0.638-0.237l-0.718-0.18
		c-0.389-0.099-0.666-0.236-0.831-0.413c-0.166-0.175-0.248-0.42-0.248-0.736c0-0.411,0.139-0.738,0.415-0.979
		c0.277-0.241,0.652-0.36,1.126-0.36c0.481,0,0.864,0.123,1.148,0.371c0.285,0.248,0.436,0.59,0.454,1.027H399.135z"/>
	<path fill="#F8F8FA" d="M401.415,108.985c-0.354-0.425-0.531-0.982-0.531-1.672c0-0.692,0.177-1.252,0.531-1.677
		c0.354-0.426,0.817-0.637,1.389-0.637c0.577,0,1.042,0.211,1.395,0.637c0.353,0.425,0.529,0.984,0.529,1.677
		c0,0.689-0.176,1.247-0.529,1.672c-0.353,0.426-0.817,0.638-1.395,0.638C402.231,109.623,401.769,109.411,401.415,108.985z
		 M403.676,108.536c0.216-0.302,0.325-0.711,0.325-1.223c0-0.513-0.108-0.921-0.325-1.226c-0.216-0.303-0.507-0.455-0.873-0.455
		s-0.656,0.152-0.871,0.455c-0.215,0.305-0.322,0.713-0.322,1.226c0,0.512,0.107,0.921,0.322,1.223
		c0.215,0.302,0.505,0.453,0.871,0.453S403.46,108.838,403.676,108.536z"/>
	<path fill="#F8F8FA" d="M405.93,103.494h0.348h0.348v6.011h-0.348h-0.348V103.494z"/>
	<path fill="#F8F8FA" d="M409.751,109.623c-0.584,0-1.044-0.196-1.379-0.588c-0.334-0.394-0.502-0.936-0.502-1.628
		c0-0.736,0.177-1.321,0.531-1.757c0.354-0.434,0.83-0.65,1.428-0.65c0.541,0,0.977,0.211,1.309,0.637
		c0.333,0.425,0.499,0.984,0.499,1.677l-0.008,0.262h-3.019c0.028,0.436,0.123,0.769,0.282,0.997
		c0.195,0.279,0.504,0.417,0.926,0.417c0.265,0,0.497-0.079,0.695-0.236c0.198-0.158,0.319-0.36,0.363-0.604h0.688
		c-0.103,0.479-0.309,0.845-0.618,1.097S410.238,109.623,409.751,109.623z M410.912,106.982c-0.021-0.406-0.116-0.723-0.286-0.949
		c-0.188-0.25-0.463-0.376-0.827-0.376c-0.366,0-0.658,0.145-0.877,0.434c-0.172,0.226-0.277,0.524-0.313,0.892H410.912z"/>
	<path fill="#F8F8FA" d="M414.678,103.339l-1.933,6.329h-0.527l1.933-6.329H414.678z"/>
	<path fill="#F8F8FA" d="M420.037,107.301c0,0.741-0.197,1.321-0.591,1.74c-0.394,0.418-0.941,0.627-1.642,0.627
		c-0.729,0-1.284-0.2-1.665-0.602c-0.381-0.403-0.571-0.991-0.571-1.766v-3.807h0.382h0.386v3.745c0,0.56,0.125,0.983,0.375,1.274
		c0.25,0.29,0.614,0.436,1.093,0.436s0.843-0.146,1.091-0.436c0.249-0.291,0.373-0.715,0.373-1.274v-3.745h0.382h0.386V107.301z"/>
	<path fill="#F8F8FA" d="M425.113,105.235c-0.034-0.379-0.175-0.671-0.423-0.877c-0.248-0.204-0.582-0.308-1.002-0.308
		c-0.433,0-0.761,0.088-0.985,0.266c-0.224,0.177-0.336,0.436-0.336,0.776c0,0.231,0.075,0.404,0.224,0.521
		c0.149,0.113,0.449,0.227,0.9,0.338l0.989,0.25c0.531,0.133,0.909,0.332,1.136,0.593c0.228,0.259,0.341,0.625,0.341,1.1
		c0,0.546-0.195,0.978-0.585,1.297c-0.39,0.318-0.919,0.478-1.586,0.478c-0.742,0-1.322-0.184-1.739-0.551
		c-0.407-0.363-0.61-0.859-0.61-1.489v-0.044h0.707c0.013,0.436,0.162,0.771,0.448,1.009s0.684,0.356,1.194,0.356
		c0.472,0,0.83-0.086,1.075-0.258s0.367-0.424,0.367-0.757c0-0.289-0.081-0.503-0.242-0.642c-0.16-0.137-0.482-0.267-0.967-0.389
		l-0.99-0.25c-0.5-0.125-0.857-0.3-1.071-0.523c-0.213-0.223-0.319-0.531-0.319-0.928c0-0.575,0.185-1.031,0.554-1.368
		c0.37-0.335,0.868-0.505,1.497-0.505c0.638,0,1.146,0.17,1.525,0.507c0.378,0.339,0.581,0.805,0.606,1.398H425.113z"/>
	<path fill="#F8F8FA" d="M427.31,103.494h0.383h2.113c0.484,0,0.875,0.131,1.17,0.395c0.296,0.263,0.444,0.609,0.444,1.04
		c0,0.499-0.175,0.89-0.525,1.171c-0.08,0.064-0.166,0.12-0.259,0.168c0.188,0.069,0.352,0.158,0.491,0.266
		c0.371,0.285,0.556,0.682,0.556,1.188c0,0.56-0.181,0.996-0.542,1.312c-0.362,0.314-0.865,0.472-1.509,0.472h-1.939h-0.383V103.494
		z M428.079,106.054h1.372c0.417,0,0.722-0.08,0.915-0.239c0.193-0.159,0.29-0.41,0.29-0.755c0-0.3-0.089-0.52-0.267-0.659
		c-0.178-0.142-0.457-0.212-0.838-0.212h-1.472V106.054z M428.079,108.81h1.564c0.441,0,0.764-0.09,0.968-0.27
		s0.307-0.464,0.307-0.851c0-0.338-0.107-0.586-0.321-0.742c-0.214-0.157-0.55-0.235-1.008-0.235h-1.51V108.81z"/>
</g>
<g>
	<path fill="#F8F8FA" d="M625.389,111.543h-3.037v-0.671l3.195-4.616h0.592v4.616h0.946v0.671h-0.946v1.499h-0.75V111.543z
		 M625.389,110.872v-3.116l-2.209,3.116H625.389z"/>
</g>
<g>
	<path fill="#F8F8FA" d="M672.451,111.188c0.184,0.711,0.498,1.104,0.947,1.184c0.445,0.08,0.809,0.033,1.084-0.139
		c0.275-0.17,0.473-0.394,0.592-0.67s0.17-0.585,0.158-0.928c-0.014-0.341-0.105-0.631-0.277-0.867
		c-0.17-0.236-0.387-0.395-0.65-0.474s-0.559-0.079-0.887,0c-0.33,0.079-0.6,0.263-0.809,0.553l-0.672-0.079
		c0.053-0.158,0.303-1.288,0.75-3.393h3.117v0.71h-2.525c-0.133,0.71-0.264,1.275-0.395,1.696c0.395-0.184,0.762-0.27,1.105-0.257
		c0.34,0.014,0.67,0.093,0.984,0.237c0.316,0.145,0.547,0.342,0.691,0.592s0.25,0.499,0.316,0.749
		c0.064,0.25,0.092,0.52,0.078,0.809c-0.014,0.29-0.072,0.586-0.178,0.888c-0.105,0.303-0.264,0.553-0.473,0.75
		c-0.211,0.197-0.469,0.355-0.77,0.473c-0.303,0.119-0.65,0.165-1.045,0.139c-0.395-0.025-0.77-0.171-1.125-0.435
		c-0.355-0.262-0.6-0.71-0.73-1.341L672.451,111.188z"/>
</g>
<g>
	<path fill="#F8F8FA" d="M721.326,110.734c0.027-0.382,0.1-0.703,0.219-0.967c0.117-0.263,0.295-0.592,0.531-0.986l1.617-2.525
		h0.908l-1.656,2.604c0.709-0.184,1.275-0.158,1.695,0.078c0.42,0.237,0.703,0.507,0.848,0.81s0.225,0.631,0.238,0.986
		c0.012,0.354-0.041,0.703-0.158,1.045c-0.119,0.342-0.33,0.65-0.631,0.927c-0.303,0.276-0.725,0.429-1.264,0.454
		c-0.539,0.026-1-0.072-1.381-0.295c-0.381-0.225-0.645-0.54-0.789-0.947C721.359,111.51,721.301,111.115,721.326,110.734z
		 M722.551,112.036c0.236,0.25,0.551,0.388,0.945,0.415c0.395,0.025,0.725-0.106,0.986-0.396c0.264-0.288,0.395-0.71,0.395-1.263
		s-0.164-0.934-0.492-1.143c-0.33-0.212-0.697-0.29-1.105-0.238c-0.408,0.053-0.703,0.25-0.887,0.592
		c-0.186,0.342-0.264,0.704-0.236,1.085C722.182,111.471,722.313,111.786,722.551,112.036z"/>
</g>
<g>
	<rect x="127.042" y="31.192" fill="#E9F0C5" width="168.85" height="43.138"/>
	<path fill="#454444" d="M296.393,74.83h-169.85V30.692h169.85V74.83z M127.542,73.83h167.85V31.692h-167.85V73.83z"/>
</g>
<g>
	<circle fill="#B0A48D" cx="303.652" cy="104.255" r="4.923"/>
	<path fill="#666666" d="M303.652,109.677c-2.991,0-5.423-2.433-5.423-5.422c0-2.991,2.432-5.424,5.423-5.424
		c2.99,0,5.423,2.433,5.423,5.424C309.075,107.244,306.642,109.677,303.652,109.677z M303.652,99.831
		c-2.439,0-4.423,1.984-4.423,4.424c0,2.438,1.984,4.422,4.423,4.422s4.423-1.983,4.423-4.422
		C308.075,101.815,306.091,99.831,303.652,99.831z"/>
</g>
<g>
	<circle fill="#C2D6AB" cx="120.613" cy="105.91" r="4.923"/>
	<path fill="#666666" d="M120.613,111.332c-2.99,0-5.423-2.433-5.423-5.422c0-2.99,2.433-5.424,5.423-5.424s5.423,2.434,5.423,5.424
		C126.036,108.899,123.604,111.332,120.613,111.332z M120.613,101.486c-2.439,0-4.423,1.984-4.423,4.424
		c0,2.438,1.984,4.422,4.423,4.422s4.423-1.984,4.423-4.422C125.036,103.471,123.052,101.486,120.613,101.486z"/>
</g>
<g>
	<path fill="#909090" d="M295.893,88.725h0.382h0.386v2.466h2.963v-2.466h0.382h0.386v6.011h-0.382h-0.386V91.91h-2.963v2.825
		h-0.382h-0.386V88.725z"/>
	<path fill="#909090" d="M302.032,88.725h0.382h1.951c0.721,0,1.294,0.271,1.721,0.815s0.639,1.275,0.639,2.194
		c0,0.915-0.218,1.646-0.655,2.188c-0.437,0.541-1.025,0.813-1.767,0.813h-1.889h-0.382V88.725z M302.801,94.04h1.406
		c0.551,0,0.977-0.2,1.277-0.601c0.3-0.401,0.45-0.97,0.45-1.705c0-0.739-0.144-1.31-0.433-1.712
		c-0.288-0.402-0.698-0.604-1.228-0.604h-1.472V94.04z"/>
	<path fill="#909090" d="M308.141,88.725h0.382h1.951c0.721,0,1.294,0.271,1.721,0.815c0.426,0.544,0.639,1.275,0.639,2.194
		c0,0.915-0.218,1.646-0.655,2.188c-0.437,0.541-1.025,0.813-1.768,0.813h-1.888h-0.382V88.725z M308.909,94.04h1.406
		c0.551,0,0.977-0.2,1.277-0.601c0.3-0.401,0.45-0.97,0.45-1.705c0-0.739-0.145-1.31-0.433-1.712
		c-0.289-0.402-0.698-0.604-1.229-0.604h-1.472V94.04z"/>
</g>
<g>
	<path fill="#909090" d="M112.328,90.38h0.383h2.101c0.551,0,0.982,0.146,1.292,0.439c0.311,0.293,0.465,0.698,0.465,1.216
		c0,0.57-0.155,1.016-0.465,1.338c-0.31,0.321-0.741,0.482-1.292,0.482c-0.724-0.003-1.295,0-1.715,0.008v2.527h-0.383h-0.386V90.38
		z M113.097,93.16h1.525c0.399,0,0.691-0.089,0.877-0.268s0.278-0.459,0.278-0.841c0-0.338-0.092-0.585-0.278-0.742
		c-0.186-0.156-0.478-0.235-0.877-0.235h-1.525V93.16z"/>
	<path fill="#909090" d="M118.935,96.391l-1.487-6.011h0.414h0.417l1.012,4.751c0.018,0.079,0.033,0.155,0.044,0.228
		c0.012,0.071,0.018,0.123,0.018,0.153h0c0-0.036,0.006-0.09,0.019-0.164c0.013-0.073,0.028-0.145,0.046-0.217l1.202-4.751h0.433
		h0.433l1.193,4.727c0.021,0.073,0.037,0.148,0.05,0.225c0.013,0.077,0.02,0.133,0.02,0.168h-0.001c0-0.03,0.006-0.083,0.018-0.159
		s0.026-0.154,0.044-0.233l1.025-4.727h0.414h0.413l-1.487,6.011h-0.413h-0.414l-1.232-4.649c-0.021-0.079-0.038-0.156-0.054-0.233
		c-0.016-0.076-0.023-0.129-0.023-0.16h-0.001c0,0.036-0.007,0.092-0.019,0.166c-0.013,0.075-0.03,0.151-0.05,0.228l-1.204,4.649
		h-0.413H118.935z"/>
	<path fill="#909090" d="M125.878,90.38h0.382h2.259c0.603,0,1.062,0.138,1.375,0.415c0.315,0.276,0.472,0.682,0.472,1.216
		c0,0.526-0.163,0.938-0.49,1.235c-0.083,0.073-0.171,0.139-0.267,0.196l0.127,0.065c0.345,0.21,0.524,0.563,0.538,1.059
		l0.031,1.097c0.005,0.18,0.027,0.31,0.065,0.388c0.039,0.079,0.113,0.147,0.224,0.205v0.131h-0.945
		c-0.021-0.049-0.042-0.178-0.062-0.385s-0.036-0.438-0.046-0.69l-0.017-0.475c-0.01-0.374-0.097-0.64-0.259-0.8
		c-0.163-0.159-0.427-0.239-0.795-0.239h-1.823v2.593h-0.382h-0.386V90.38z M126.646,93.095h1.9c0.355,0,0.616-0.082,0.78-0.247
		c0.165-0.165,0.248-0.426,0.248-0.783c0-0.347-0.087-0.6-0.261-0.761c-0.174-0.161-0.449-0.241-0.825-0.241h-1.843V93.095z"/>
</g>
<g>
	<circle fill="#FFFFFF" cx="152.208" cy="93.255" r="7.854"/>
	<circle fill="#FFFFFF" cx="181.604" cy="93.255" r="7.854"/>
	<circle fill="#FFFFFF" cx="210.311" cy="93.255" r="7.854"/>
	<circle fill="#FFFFFF" cx="240.395" cy="93.255" r="7.854"/>
	<g>
		<polygon fill="#262626" points="154.611,97.767 147.262,93.523 154.611,89.28 		"/>
	</g>
	<g>
		<polygon fill="#262626" points="185.847,90.182 181.604,97.53 177.361,90.182 		"/>
	</g>
	<g>
		<polygon fill="#262626" points="206.171,96.072 210.415,88.725 214.658,96.072 		"/>
	</g>
	<g>
		<polygon fill="#262626" points="237.408,89.012 244.755,93.256 237.408,97.498 		"/>
	</g>
	<g>
		<circle fill="#FFFFFF" cx="270.728" cy="93.255" r="7.854"/>
		<g>
			<polygon fill="#262626" points="267.217,91.84 264.582,93.403 267.217,94.966 			"/>
		</g>
		<g>
			<polygon fill="#262626" points="275.727,93.63 267.217,93.63 267.217,93.176 275.321,93.176 275.321,90.639 275.727,90.639 			
				"/>
		</g>
	</g>
</g>
<g>
	<g>
		<rect x="1212.627" y="14.613" fill="#DDDBD3" width="24.436" height="98.666"/>
	</g>
	<g>
		<rect x="1212.627" y="36.104" fill="#EDECE6" width="24.436" height="61.533"/>
	</g>
	<rect x="1212.625" y="37.858" fill="#B7B5AB" width="24.438" height="1.525"/>
	<rect x="1212.625" y="41.358" fill="#B7B5AB" width="24.438" height="1.525"/>
	<rect x="1212.625" y="44.858" fill="#B7B5AB" width="24.438" height="1.525"/>
	<rect x="1212.625" y="48.358" fill="#B7B5AB" width="24.438" height="1.525"/>
	<rect x="1212.625" y="51.858" fill="#B7B5AB" width="24.438" height="1.525"/>
	<rect x="1212.625" y="55.358" fill="#B7B5AB" width="24.438" height="1.525"/>
	<rect x="1212.625" y="58.858" fill="#B7B5AB" width="24.438" height="1.525"/>
	<rect x="1212.625" y="62.358" fill="#B7B5AB" width="24.438" height="1.525"/>
	<rect x="1212.625" y="65.857" fill="#B7B5AB" width="24.438" height="1.525"/>
	<rect x="1212.625" y="69.357" fill="#B7B5AB" width="24.438" height="1.525"/>
	<rect x="1212.625" y="72.857" fill="#B7B5AB" width="24.438" height="1.525"/>
	<rect x="1212.625" y="76.357" fill="#B7B5AB" width="24.438" height="1.525"/>
	<rect x="1212.625" y="79.857" fill="#B7B5AB" width="24.438" height="1.525"/>
	<rect x="1212.625" y="83.357" fill="#B7B5AB" width="24.438" height="1.525"/>
	<rect x="1212.625" y="86.857" fill="#B7B5AB" width="24.438" height="1.525"/>
	<rect x="1212.625" y="90.357" fill="#B7B5AB" width="24.438" height="1.525"/>
	<rect x="1212.625" y="93.857" fill="#B7B5AB" width="24.438" height="1.525"/>
</g>
<g>
	<g>
		<rect x="37.141" y="14.613" fill="#DDDBD3" width="24.437" height="98.666"/>
	</g>
	<g>
		<rect x="37.141" y="36.104" fill="#EDECE6" width="24.437" height="61.533"/>
	</g>
	<rect x="37.14" y="37.858" fill="#B7B5AB" width="24.438" height="1.525"/>
	<rect x="37.14" y="41.358" fill="#B7B5AB" width="24.438" height="1.525"/>
	<rect x="37.14" y="44.858" fill="#B7B5AB" width="24.438" height="1.525"/>
	<rect x="37.14" y="48.358" fill="#B7B5AB" width="24.438" height="1.525"/>
	<rect x="37.14" y="51.858" fill="#B7B5AB" width="24.438" height="1.525"/>
	<rect x="37.14" y="55.358" fill="#B7B5AB" width="24.438" height="1.525"/>
	<rect x="37.14" y="58.858" fill="#B7B5AB" width="24.438" height="1.525"/>
	<rect x="37.14" y="62.358" fill="#B7B5AB" width="24.438" height="1.525"/>
	<rect x="37.14" y="65.857" fill="#B7B5AB" width="24.438" height="1.525"/>
	<rect x="37.14" y="69.357" fill="#B7B5AB" width="24.438" height="1.525"/>
	<rect x="37.14" y="72.857" fill="#B7B5AB" width="24.438" height="1.525"/>
	<rect x="37.14" y="76.357" fill="#B7B5AB" width="24.438" height="1.525"/>
	<rect x="37.14" y="79.857" fill="#B7B5AB" width="24.438" height="1.525"/>
	<rect x="37.14" y="83.357" fill="#B7B5AB" width="24.438" height="1.525"/>
	<rect x="37.14" y="86.857" fill="#B7B5AB" width="24.438" height="1.525"/>
	<rect x="37.14" y="90.357" fill="#B7B5AB" width="24.438" height="1.525"/>
	<rect x="37.14" y="93.857" fill="#B7B5AB" width="24.438" height="1.525"/>
</g>
<polygon fill="#F2F2F0" points="75.338,0.182 80.438,3.829 342.771,3.829 347.598,0.182 "/>
<polygon fill="#A3A29B" points="75.337,126.323 80.437,122.676 342.771,122.676 347.598,126.323 "/>
<polygon fill="#C4C3BF" points="347.598,0.182 342.771,3.829 342.771,122.676 347.598,126.323 "/>
<polygon fill="#C4C3BF" points="75.338,0.182 80.166,3.829 80.166,122.676 75.338,126.323 "/>
<path fill="none" stroke="#999992" stroke-miterlimit="10" d="M327.967,106.741c0,3.099-2.626,5.611-5.865,5.611H100.833
	c-3.24,0-5.866-2.513-5.866-5.611V19.764c0-3.099,2.626-5.611,5.866-5.611h221.269c3.239,0,5.865,2.512,5.865,5.611V106.741z"/>
<text transform="matrix(1 0 0 1 471.5566 113.0254)" fill="#FFFFFF" stroke="#FFFFFF" stroke-width="0.5" stroke-miterlimit="10" font-family="'MicrosoftYaHeiLight'" font-size="8">1</text>
<text transform="matrix(1 0 0 1 516.8896 113.0254)" fill="#FFFFFF" stroke="#FFFFFF" stroke-width="0.5" stroke-miterlimit="10" font-family="'MicrosoftYaHeiLight'" font-size="8">2</text>
<g>
	<g>
		<circle fill="#181919" cx="995.182" cy="43.205" r="5.484"/>
	</g>
	<g>
		<circle fill="#181919" cx="1010.782" cy="43.205" r="5.483"/>
	</g>
	<g>
		<circle fill="#181919" cx="1026.383" cy="43.205" r="5.484"/>
	</g>
	<g>
		<circle fill="#181919" cx="1041.982" cy="43.205" r="5.484"/>
	</g>
	<g>
		<circle fill="#181919" cx="1057.582" cy="43.205" r="5.484"/>
	</g>
	<g>
		<circle fill="#181919" cx="1073.182" cy="43.205" r="5.484"/>
	</g>
	<g>
		<circle fill="#181919" cx="1088.783" cy="43.205" r="5.484"/>
	</g>
	<g>
		<circle fill="#181919" cx="1104.383" cy="43.205" r="5.484"/>
	</g>
	<g>
		<circle fill="#181919" cx="1119.982" cy="43.205" r="5.484"/>
	</g>
	<g>
		<circle fill="#181919" cx="1135.583" cy="43.205" r="5.483"/>
	</g>
	<g>
		<circle fill="#181919" cx="1151.182" cy="43.205" r="5.484"/>
	</g>
	<g>
		<circle fill="#181919" cx="1003.059" cy="31.295" r="5.484"/>
	</g>
	<g>
		<circle fill="#181919" cx="1018.659" cy="31.295" r="5.483"/>
	</g>
	<g>
		<circle fill="#181919" cx="1034.26" cy="31.295" r="5.484"/>
	</g>
	<g>
		<circle fill="#181919" cx="1049.859" cy="31.295" r="5.484"/>
	</g>
	<g>
		<circle fill="#181919" cx="1065.459" cy="31.295" r="5.484"/>
	</g>
	<g>
		<circle fill="#181919" cx="1081.059" cy="31.295" r="5.484"/>
	</g>
	<g>
		<circle fill="#181919" cx="1096.66" cy="31.295" r="5.484"/>
	</g>
	<g>
		<circle fill="#181919" cx="1112.26" cy="31.295" r="5.484"/>
	</g>
	<g>
		<circle fill="#181919" cx="1127.859" cy="31.295" r="5.484"/>
	</g>
	<g>
		<circle fill="#181919" cx="1143.46" cy="31.295" r="5.483"/>
	</g>
</g>
<g>
	<g>
		<circle fill="#181919" cx="793.553" cy="43.205" r="5.484"/>
	</g>
	<g>
		<circle fill="#181919" cx="809.154" cy="43.205" r="5.484"/>
	</g>
	<g>
		<circle fill="#181919" cx="824.754" cy="43.205" r="5.484"/>
	</g>
	<g>
		<circle fill="#181919" cx="840.354" cy="43.205" r="5.484"/>
	</g>
	<g>
		<circle fill="#181919" cx="855.953" cy="43.205" r="5.484"/>
	</g>
	<g>
		<circle fill="#181919" cx="871.555" cy="43.205" r="5.484"/>
	</g>
	<g>
		<circle fill="#181919" cx="887.154" cy="43.205" r="5.484"/>
	</g>
	<g>
		<circle fill="#181919" cx="902.754" cy="43.205" r="5.484"/>
	</g>
	<g>
		<circle fill="#181919" cx="918.354" cy="43.205" r="5.484"/>
	</g>
	<g>
		<circle fill="#181919" cx="933.955" cy="43.205" r="5.484"/>
	</g>
	<g>
		<circle fill="#181919" cx="949.555" cy="43.205" r="5.484"/>
	</g>
	<g>
		<circle fill="#181919" cx="801.43" cy="31.295" r="5.484"/>
	</g>
	<g>
		<circle fill="#181919" cx="817.031" cy="31.295" r="5.484"/>
	</g>
	<g>
		<circle fill="#181919" cx="832.631" cy="31.295" r="5.484"/>
	</g>
	<g>
		<circle fill="#181919" cx="848.23" cy="31.295" r="5.484"/>
	</g>
	<g>
		<circle fill="#181919" cx="863.83" cy="31.295" r="5.484"/>
	</g>
	<g>
		<circle fill="#181919" cx="879.432" cy="31.295" r="5.484"/>
	</g>
	<g>
		<circle fill="#181919" cx="895.031" cy="31.295" r="5.484"/>
	</g>
	<g>
		<circle fill="#181919" cx="910.631" cy="31.295" r="5.484"/>
	</g>
	<g>
		<circle fill="#181919" cx="926.23" cy="31.295" r="5.484"/>
	</g>
	<g>
		<circle fill="#181919" cx="941.832" cy="31.295" r="5.484"/>
	</g>
</g>
<g>
	<g>
		<path fill="#F5F4F4" d="M1000.887,70.332c0,0,20.334,0.834,18.834,11.166c-1.48,10.201-23.75,22.188-41.799,18.966
			c-0.234-0.042-0.469-0.086-0.701-0.132c0,0,10.625,13.498,38.5,1.998S1052.678,55.208,1000.887,70.332z"/>
	</g>
	<g>
		<path fill="#F9FAFB" stroke="#F9FAFB" stroke-width="2" stroke-miterlimit="10" d="M1044.488,79.056
			c-0.195-0.527-0.402-0.999-0.623-1.418c2.283-3.42,4.045-7.345,5.289-11.771l1.303,0.365c-0.658,2.016-1.381,3.947-2.168,5.796
			v17.895h-1.305V74.814C1046.156,76.463,1045.324,77.876,1044.488,79.056z M1057.645,66.232l1.219-0.515
			c0.486,0.961,0.955,1.952,1.4,2.973l-1.072,0.465h8.26v1.255h-16.592v-1.255h8.125
			C1058.465,67.942,1058.018,66.968,1057.645,66.232z M1052.199,73.221h13.803v1.255h-13.803V73.221z M1052.199,77.273h13.803v1.268
			h-13.803V77.273z M1052.455,81.365h13.316v8.558h-1.293V88.43h-10.732v1.493h-1.291V81.365z M1053.746,82.595v4.604h10.732v-4.604
			H1053.746z"/>
		<path fill="#F9FAFB" stroke="#F9FAFB" stroke-width="2" stroke-miterlimit="10" d="M1080.725,87.84
			c1.818,0.041,4.1,0.059,6.846,0.05c2.633-0.009,4.643-0.033,6.031-0.075c-0.277,0.661-0.436,1.112-0.475,1.355
			c-6.467-0.009-10.783-0.051-12.951-0.126c-2.574,0.009-4.621-1.037-6.141-3.137c-1.178,1.18-2.209,2.313-3.094,3.4l-0.902-1.079
			c0.99-1.078,2.115-2.213,3.375-3.4v-8.909h-3.191v-1.343h4.531v10.177C1076.225,86.86,1078.215,87.89,1080.725,87.84z
			 M1075.23,71.112c-0.805-1.02-1.971-2.367-3.498-4.04l1-0.766c1.096,1.104,2.303,2.405,3.617,3.902L1075.23,71.112z
			 M1083.844,65.843h1.34c0,2.1-0.059,4.069-0.172,5.91h7.713v1.331h-7.834c-0.162,1.664-0.432,3.069-0.805,4.215l0.779-0.69
			c2.705,2.594,5.324,5.153,7.859,7.68l-1.072,1.004c-2.324-2.435-4.861-5.036-7.615-7.805c-0.885,2.819-3.045,5.483-6.48,7.993
			c-0.391-0.502-0.715-0.883-0.975-1.142c4.482-2.853,6.803-6.604,6.957-11.255h-6.531v-1.331h6.652
			C1083.773,70.063,1083.834,68.093,1083.844,65.843z"/>
		<path fill="#F9FAFB" stroke="#F9FAFB" stroke-width="2" stroke-miterlimit="10" d="M1096.785,76.044h3.193v-6.475h-3.363v-1.242
			h7.955v1.242h-3.266v6.475h3.242v1.229h-3.242v7.744c0.301-0.077,0.748-0.182,1.342-0.315c0.859-0.209,1.502-0.363,1.924-0.464
			c0,0.594,0.008,1.041,0.025,1.344c-2.738,0.576-5.422,1.199-8.053,1.869l-0.232-1.381c0.041-0.009,0.105-0.02,0.195-0.037
			c1.453-0.285,2.611-0.532,3.473-0.741v-8.019h-3.193V76.044z M1106.045,68.717v-1.256h12.877v1.256h-5.811
			c-1.893,6.365-4.488,11.465-7.787,15.296c-0.299-0.31-0.664-0.627-1.096-0.954c3.281-3.63,5.775-8.41,7.48-14.342H1106.045z
			 M1111.113,74.677h1.314v15.246h-1.314V74.677z M1113.428,76.119l1.096-0.665c1.705,2.444,3.42,5.013,5.141,7.705l-1.168,0.828
			C1116.676,81.018,1114.986,78.395,1113.428,76.119z"/>
		<path fill="#F9FAFB" stroke="#F9FAFB" stroke-width="2" stroke-miterlimit="10" d="M1122.666,79.997h11.477v-4.492h-8.283v-1.204
			h17.457v1.204h-7.834v4.492h10.479v1.242h-10.479v4.932c0.115,2.241-0.91,3.338-3.07,3.287c-0.941,0.033-1.996,0.051-3.166,0.051
			c-0.066-0.56-0.172-1.051-0.316-1.469c0.479,0.026,0.896,0.038,1.254,0.038c0.178,0.008,0.398,0.013,0.658,0.013
			c0.211,0,0.605,0,1.182,0c0.828,0.009,1.383-0.139,1.668-0.439c0.309-0.276,0.459-0.819,0.451-1.632v-4.78h-11.477V79.997z
			 M1133.193,66.095l1.193-0.566c0.568,1.005,1.145,2.059,1.73,3.162l-1.133,0.54h10.063v4.041h-1.328V70.46h-18.859v2.812h-1.328
			V69.23h11.258C1134.357,68.269,1133.826,67.223,1133.193,66.095z"/>
	</g>
	<g>
		<path fill="#F9FAFB" stroke="#F9FAFB" stroke-width="0.75" stroke-miterlimit="10" d="M1052.34,102.617l-2.148-2.836
			c-0.131-0.176-0.246-0.348-0.342-0.519h-0.031c-0.115,0.192-0.24,0.365-0.373,0.519l-2.184,2.836h-0.77l2.941-3.747l-2.766-3.685
			h0.775l2.082,2.792c0.107,0.147,0.219,0.313,0.336,0.499h0.029l0.344-0.499l2.068-2.792h0.752l-2.797,3.675l2.857,3.757H1052.34z"
			/>
		<path fill="#F9FAFB" stroke="#F9FAFB" stroke-width="0.75" stroke-miterlimit="10" d="M1055.398,102.617v-7.432h0.643v7.432
			H1055.398z"/>
		<path fill="#F9FAFB" stroke="#F9FAFB" stroke-width="0.75" stroke-miterlimit="10" d="M1065.633,102.617l-5.547-6.007
			c-0.115-0.121-0.217-0.241-0.301-0.359l-0.084-0.105h-0.029c0.012,0.089,0.018,0.199,0.018,0.326v6.146h-0.643v-7.432h0.492
			l5.51,5.953c0.121,0.131,0.254,0.291,0.398,0.479h0.029c-0.02-0.243-0.029-0.45-0.029-0.623v-5.81h0.637v7.432H1065.633z"/>
		<path fill="#F9FAFB" stroke="#F9FAFB" stroke-width="0.75" stroke-miterlimit="10" d="M1069.094,102.617v-7.432h2.328
			c1.549,0,2.727,0.308,3.531,0.924c0.807,0.615,1.209,1.512,1.209,2.689c0,1.131-0.432,2.051-1.295,2.757
			c-0.865,0.707-2.057,1.062-3.576,1.062H1069.094z M1069.738,95.661v6.49h1.461c1.381,0,2.441-0.286,3.184-0.859
			c0.74-0.572,1.111-1.397,1.111-2.474c0-2.105-1.389-3.157-4.168-3.157H1069.738z"/>
		<path fill="#F9FAFB" stroke="#F9FAFB" stroke-width="0.75" stroke-miterlimit="10" d="M1084.418,102.617l-1.064-2.313h-4.037
			l-1.07,2.313h-0.703l3.514-7.432h0.613l3.471,7.432H1084.418z M1081.561,96.4c-0.047-0.104-0.086-0.206-0.113-0.308
			c-0.033-0.087-0.064-0.173-0.096-0.259h-0.031c-0.072,0.229-0.143,0.416-0.211,0.556l-1.57,3.444h3.598L1081.561,96.4z"/>
		<path fill="#F9FAFB" stroke="#F9FAFB" stroke-width="0.75" stroke-miterlimit="10" d="M1097.572,102.617v-3.565h-5.328v3.565
			h-0.645v-7.432h0.645v3.401h5.328v-3.401h0.639v7.432H1097.572z"/>
		<path fill="#F9FAFB" stroke="#F9FAFB" stroke-width="0.75" stroke-miterlimit="10" d="M1107.568,99.646
			c0,2.066-1.105,3.1-3.314,3.1c-2.102,0-3.152-0.995-3.152-2.984v-4.576h0.637v4.505c0,1.724,0.881,2.585,2.641,2.585
			c1.701,0,2.551-0.838,2.551-2.514v-4.576h0.639V99.646z"/>
		<path fill="#F9FAFB" stroke="#F9FAFB" stroke-width="0.75" stroke-miterlimit="10" d="M1116.125,102.617l-1.064-2.313h-4.037
			l-1.07,2.313h-0.705l3.514-7.432h0.613l3.471,7.432H1116.125z M1113.268,96.4c-0.049-0.104-0.086-0.206-0.115-0.308
			c-0.031-0.087-0.064-0.173-0.096-0.259h-0.029c-0.072,0.229-0.143,0.416-0.211,0.556l-1.57,3.444h3.598L1113.268,96.4z"/>
		<path fill="#F9FAFB" stroke="#F9FAFB" stroke-width="0.75" stroke-miterlimit="10" d="M1125.631,102.617l-5.545-6.007
			c-0.117-0.121-0.217-0.241-0.301-0.359l-0.086-0.105h-0.029c0.012,0.089,0.018,0.199,0.018,0.326v6.146h-0.643v-7.432h0.492
			l5.512,5.953c0.119,0.131,0.252,0.291,0.396,0.479h0.029c-0.02-0.243-0.029-0.45-0.029-0.623v-5.81h0.637v7.432H1125.631z"/>
		<path fill="#F9FAFB" stroke="#F9FAFB" stroke-width="0.75" stroke-miterlimit="10" d="M1131.781,99.791v2.826h-0.637v-2.812
			l-2.852-4.62h0.723l2.164,3.584c0.08,0.121,0.18,0.304,0.295,0.547h0.025c0.063-0.128,0.17-0.308,0.318-0.538l2.273-3.593h0.697
			L1131.781,99.791z"/>
		<path fill="#F9FAFB" stroke="#F9FAFB" stroke-width="0.75" stroke-miterlimit="10" d="M1143.238,99.646
			c0,2.066-1.105,3.1-3.314,3.1c-2.104,0-3.152-0.995-3.152-2.984v-4.576h0.637v4.505c0,1.724,0.881,2.585,2.641,2.585
			c1.701,0,2.551-0.838,2.551-2.514v-4.576h0.639V99.646z"/>
	</g>
</g>
</svg>
