<?xml version="1.0" encoding="utf-8"?>
<!-- Generator: Adobe Illustrator 16.0.0, SVG Export Plug-In . SVG Version: 6.00 Build 0)  -->
<!DOCTYPE svg PUBLIC "-//W3C//DTD SVG 1.1//EN" "http://www.w3.org/Graphics/SVG/1.1/DTD/svg11.dtd">
<svg version="1.1" id="图层_1" xmlns="http://www.w3.org/2000/svg" xmlns:xlink="http://www.w3.org/1999/xlink" x="0px" y="0px"
	 width="1275px" height="378px" viewBox="0 0 1275 378" enable-background="new 0 0 1275 378" xml:space="preserve">
<g>
	<polygon fill="#E0E0DE" points="0.194,0 0.194,252.001 0.194,378.142 1275.783,378.142 1275.783,252.001 1275.783,0 	"/>
</g>
<g>
	<rect fill="#B7B7B7" width="61.482" height="378.142"/>
</g>
<g>
	<rect x="1214.301" fill="#B7B7B7" width="61.482" height="378.142"/>
</g>
<g>
	<circle cx="1245.043" cy="36.631" r="9.871"/>
	<path fill="#2A2C2D" stroke="#000000" stroke-width="0.5" stroke-miterlimit="10" d="M1253.65,36.48
		c0.082,4.754-3.703,8.675-8.457,8.758c-4.754,0.083-8.674-3.704-8.758-8.458c-0.082-4.753,3.703-8.675,8.457-8.758
		C1249.646,27.941,1253.566,31.727,1253.65,36.48"/>
	
		<rect x="1238.326" y="34.958" transform="matrix(0.9998 -0.0174 0.0174 0.9998 -0.4496 21.7245)" fill="#202121" width="13.436" height="3.346"/>
	
		<rect x="1238.327" y="34.958" transform="matrix(0.0174 0.9998 -0.9998 0.0174 1259.9473 -1208.8625)" fill="#202121" width="13.434" height="3.346"/>
</g>
<g>
	<circle cx="1245.043" cy="113.127" r="9.871"/>
	<path fill="#2A2C2D" stroke="#000000" stroke-width="0.5" stroke-miterlimit="10" d="M1253.65,112.977
		c0.082,4.754-3.703,8.674-8.457,8.757c-4.754,0.084-8.674-3.704-8.758-8.457c-0.082-4.753,3.703-8.675,8.457-8.758
		C1249.646,104.437,1253.566,108.223,1253.65,112.977"/>
	
		<rect x="1238.326" y="111.454" transform="matrix(0.9998 -0.0174 0.0174 0.9998 -1.7839 21.7361)" fill="#202121" width="13.436" height="3.346"/>
	
		<rect x="1238.327" y="111.454" transform="matrix(0.0174 0.9998 -0.9998 0.0174 1336.4316 -1133.7012)" fill="#202121" width="13.434" height="3.346"/>
</g>
<g>
	<circle cx="1245.043" cy="264.858" r="9.871"/>
	<path fill="#2A2C2D" stroke="#000000" stroke-width="0.5" stroke-miterlimit="10" d="M1253.65,264.708
		c0.082,4.754-3.703,8.674-8.457,8.758c-4.754,0.082-8.674-3.705-8.758-8.457c-0.082-4.754,3.703-8.676,8.457-8.758
		S1253.566,259.954,1253.65,264.708"/>
	
		<rect x="1238.326" y="263.184" transform="matrix(0.9998 -0.0174 0.0174 0.9998 -4.4308 21.7592)" fill="#202121" width="13.436" height="3.346"/>
	
		<rect x="1238.327" y="263.184" transform="matrix(0.0174 0.9998 -0.9998 0.0174 1488.139 -984.6178)" fill="#202121" width="13.434" height="3.346"/>
</g>
<g>
	<circle cx="1245.043" cy="341.354" r="9.871"/>
	<path fill="#2A2C2D" stroke="#000000" stroke-width="0.5" stroke-miterlimit="10" d="M1253.65,341.204
		c0.082,4.754-3.703,8.674-8.457,8.758c-4.754,0.082-8.674-3.705-8.758-8.457c-0.082-4.754,3.703-8.676,8.457-8.758
		C1249.646,332.663,1253.566,336.45,1253.65,341.204"/>
	
		<rect x="1238.326" y="339.68" transform="matrix(0.9998 -0.0174 0.0174 0.9998 -5.7653 21.7708)" fill="#202121" width="13.436" height="3.346"/>
	
		<rect x="1238.327" y="339.68" transform="matrix(0.0174 0.9998 -0.9998 0.0174 1564.6235 -909.4564)" fill="#202121" width="13.434" height="3.346"/>
</g>
<g>
	<circle cx="30.741" cy="36.631" r="9.871"/>
	<path fill="#2A2C2D" stroke="#000000" stroke-width="0.5" stroke-miterlimit="10" d="M39.348,36.48
		c0.083,4.754-3.703,8.675-8.457,8.758c-4.754,0.083-8.674-3.704-8.757-8.458c-0.083-4.753,3.704-8.675,8.457-8.758
		C35.345,27.941,39.266,31.727,39.348,36.48"/>
	
		<rect x="24.025" y="34.958" transform="matrix(0.9998 -0.0174 0.0174 0.9998 -0.6344 0.5419)" fill="#202121" width="13.434" height="3.346"/>
	
		<rect x="24.024" y="34.958" transform="matrix(0.0174 0.9998 -0.9998 0.0174 66.8302 5.2552)" fill="#202121" width="13.434" height="3.346"/>
</g>
<g>
	<circle cx="30.741" cy="113.127" r="9.871"/>
	<path fill="#2A2C2D" stroke="#000000" stroke-width="0.5" stroke-miterlimit="10" d="M39.348,112.977
		c0.083,4.754-3.703,8.674-8.457,8.757c-4.754,0.084-8.674-3.704-8.757-8.457s3.704-8.675,8.457-8.758
		C35.345,104.437,39.266,108.223,39.348,112.977"/>
	
		<rect x="24.025" y="111.454" transform="matrix(0.9998 -0.0174 0.0174 0.9998 -1.969 0.5536)" fill="#202121" width="13.434" height="3.346"/>
	
		<rect x="24.024" y="111.454" transform="matrix(0.0174 0.9998 -0.9998 0.0174 143.3146 80.4167)" fill="#202121" width="13.434" height="3.346"/>
</g>
<g>
	<circle cx="30.741" cy="264.858" r="9.871"/>
	<path fill="#2A2C2D" stroke="#000000" stroke-width="0.5" stroke-miterlimit="10" d="M39.348,264.708
		c0.083,4.754-3.703,8.674-8.457,8.758c-4.754,0.082-8.674-3.705-8.757-8.457c-0.083-4.754,3.704-8.676,8.457-8.758
		C35.345,256.169,39.266,259.954,39.348,264.708"/>
	
		<rect x="24.025" y="263.184" transform="matrix(0.9998 -0.0174 0.0174 0.9998 -4.6162 0.5767)" fill="#202121" width="13.434" height="3.346"/>
	
		<rect x="24.024" y="263.184" transform="matrix(0.0174 0.9998 -0.9998 0.0174 295.022 229.5)" fill="#202121" width="13.434" height="3.346"/>
</g>
<g>
	<circle cx="30.741" cy="341.354" r="9.871"/>
	<path fill="#2A2C2D" stroke="#000000" stroke-width="0.5" stroke-miterlimit="10" d="M39.348,341.204
		c0.083,4.754-3.703,8.674-8.457,8.758c-4.754,0.082-8.674-3.705-8.757-8.457c-0.083-4.754,3.704-8.676,8.457-8.758
		C35.345,332.663,39.266,336.45,39.348,341.204"/>
	
		<rect x="24.025" y="339.68" transform="matrix(0.9998 -0.0174 0.0174 0.9998 -5.9509 0.5883)" fill="#202121" width="13.434" height="3.346"/>
	
		<rect x="24.024" y="339.68" transform="matrix(0.0174 0.9998 -0.9998 0.0174 371.5064 304.6615)" fill="#202121" width="13.434" height="3.346"/>
</g>
<g>
	<path fill="#EFEFEF" stroke="#777777" stroke-miterlimit="10" d="M154.681,67.686c0,2.471-2.238,4.474-5,4.474h-35.454
		c-2.762,0-5-2.003-5-4.474V22.796c0-2.472,2.238-4.476,5-4.476h35.454c2.762,0,5,2.003,5,4.476V67.686z"/>
	<path fill="#C4C3C0" stroke="#898989" stroke-width="0.75" stroke-miterlimit="10" d="M145.267,50.631
		c0,4.465-3.161,8.086-7.061,8.086h-12.503c-3.9,0-7.061-3.621-7.061-8.086v-9.437c0-4.466,3.161-8.087,7.061-8.087h12.503
		c3.9,0,7.061,3.621,7.061,8.087V50.631z"/>
</g>
<g>
	<path fill="#EFEFEF" d="M1175.387,67.685c0,2.471-2.238,4.474-5,4.474h-35.453c-2.762,0-5-2.003-5-4.474V22.796
		c0-2.472,2.238-4.476,5-4.476h35.453c2.762,0,5,2.003,5,4.476V67.685z"/>
	<path fill="#777777" d="M1170.387,72.659h-35.453c-3.033,0-5.5-2.231-5.5-4.974V22.796c0-2.744,2.467-4.976,5.5-4.976h35.453
		c3.033,0,5.5,2.231,5.5,4.976v44.889C1175.887,70.428,1173.42,72.659,1170.387,72.659z M1134.934,18.82
		c-2.482,0-4.5,1.783-4.5,3.976v44.889c0,2.191,2.018,3.974,4.5,3.974h35.453c2.482,0,4.5-1.783,4.5-3.974V22.796
		c0-2.192-2.018-3.976-4.5-3.976H1134.934z"/>
</g>
<g>
	<path fill="#C4C3C0" d="M1165.973,50.63c0,4.465-3.16,8.086-7.061,8.086h-12.504c-3.898,0-7.061-3.621-7.061-8.086v-9.437
		c0-4.466,3.162-8.087,7.061-8.087h12.504c3.9,0,7.061,3.621,7.061,8.087V50.63z"/>
	<path fill="#898989" d="M1158.912,59.091h-12.504c-4.1,0-7.436-3.796-7.436-8.461v-9.437c0-4.666,3.336-8.462,7.436-8.462h12.504
		c4.1,0,7.436,3.796,7.436,8.462v9.437C1166.348,55.295,1163.012,59.091,1158.912,59.091z M1146.408,33.482
		c-3.686,0-6.686,3.46-6.686,7.712v9.437c0,4.251,3,7.711,6.686,7.711h12.504c3.688,0,6.686-3.459,6.686-7.711v-9.437
		c0-4.252-2.998-7.712-6.686-7.712H1146.408z"/>
</g>
</svg>
