<?xml version="1.0" encoding="utf-8"?>
<!-- Generator: Adobe Illustrator 16.0.0, SVG Export Plug-In . SVG Version: 6.00 Build 0)  -->
<!DOCTYPE svg PUBLIC "-//W3C//DTD SVG 1.1//EN" "http://www.w3.org/Graphics/SVG/1.1/DTD/svg11.dtd">
<svg version="1.1" id="图层_1" xmlns="http://www.w3.org/2000/svg" xmlns:xlink="http://www.w3.org/1999/xlink" x="0px" y="0px"
	 width="1275.78px" height="378.14px" viewBox="0 0 1275.78 378.14" enable-background="new 0 0 1275.78 378.14"
	 xml:space="preserve">
<g>
	<polygon fill="#3D3D3D" points="0.194,0 0.194,252 0.194,378.143 1275.783,378.143 1275.783,252 1275.783,0 	"/>
</g>
<g>
	<rect fill="#2B2B2B" width="61.482" height="378.143"/>
</g>
<g>
	<rect x="1214.301" fill="#2B2B2B" width="61.482" height="378.143"/>
</g>
<path fill="#AFAFAF" d="M1261.551,88.396c0,9.107-7.391,16.491-16.508,16.491s-16.508-7.384-16.508-16.491
	c0-9.109,7.391-16.493,16.508-16.493S1261.551,79.287,1261.551,88.396"/>
<ellipse fill="none" stroke="#939393" stroke-miterlimit="10" cx="1245.043" cy="88.396" rx="16.508" ry="16.491"/>
<path fill="#AFAFAF" d="M1257.172,88.396c0,6.691-5.432,12.117-12.129,12.117c-6.699,0-12.129-5.426-12.129-12.117
	c0-6.693,5.43-12.119,12.129-12.119C1251.74,76.276,1257.172,81.703,1257.172,88.396"/>
<ellipse fill="none" stroke="#939393" stroke-miterlimit="10" cx="1245.043" cy="88.396" rx="12.129" ry="12.117"/>
<g>
	<g>
		<defs>
			<rect id="SVGID_1_" x="1233.607" y="76.974" width="22.869" height="22.842"/>
		</defs>
		<clipPath id="SVGID_2_">
			<use xlink:href="#SVGID_1_"  overflow="visible"/>
		</clipPath>
		<path clip-path="url(#SVGID_2_)" fill="#BEBFBF" d="M1256.475,88.396c0,6.306-5.119,11.42-11.432,11.42
			c-6.314,0-11.432-5.114-11.432-11.42c0-6.308,5.117-11.422,11.432-11.422C1251.355,76.974,1256.475,82.087,1256.475,88.396"/>
		<path clip-path="url(#SVGID_2_)" fill="#C0C1C1" d="M1256.205,88.396c0,6.157-4.998,11.151-11.162,11.151
			c-6.166,0-11.162-4.994-11.162-11.151c0-6.159,4.996-11.153,11.162-11.153C1251.207,77.243,1256.205,82.236,1256.205,88.396"/>
		<path clip-path="url(#SVGID_2_)" fill="#C3C4C4" d="M1255.936,88.396c0,6.009-4.877,10.883-10.893,10.883
			c-6.018,0-10.895-4.874-10.895-10.883c0-6.011,4.877-10.885,10.895-10.885C1251.059,77.51,1255.936,82.385,1255.936,88.396"/>
		<path clip-path="url(#SVGID_2_)" fill="#C5C6C6" d="M1255.668,88.396c0,5.861-4.758,10.615-10.625,10.615
			c-5.869,0-10.625-4.753-10.625-10.615c0-5.863,4.756-10.616,10.625-10.616C1250.91,77.78,1255.668,82.533,1255.668,88.396"/>
		<path clip-path="url(#SVGID_2_)" fill="#C7C9C9" d="M1255.398,88.396c0,5.712-4.637,10.346-10.355,10.346
			s-10.355-4.634-10.355-10.346c0-5.714,4.637-10.348,10.355-10.348S1255.398,82.682,1255.398,88.396"/>
		<path clip-path="url(#SVGID_2_)" fill="#CACBCB" d="M1255.129,88.396c0,5.564-4.516,10.078-10.086,10.078
			c-5.572,0-10.088-4.514-10.088-10.078c0-5.566,4.516-10.079,10.088-10.079C1250.613,78.316,1255.129,82.83,1255.129,88.396"/>
		<path clip-path="url(#SVGID_2_)" fill="#CCCECE" d="M1254.861,88.396c0,5.416-4.396,9.808-9.818,9.808
			c-5.424,0-9.818-4.392-9.818-9.808c0-5.418,4.395-9.81,9.818-9.81C1250.465,78.585,1254.861,82.978,1254.861,88.396"/>
		<path clip-path="url(#SVGID_2_)" fill="#CED0D0" d="M1254.592,88.396c0,5.267-4.275,9.54-9.549,9.54s-9.551-4.273-9.551-9.54
			c0-5.269,4.277-9.542,9.551-9.542S1254.592,83.126,1254.592,88.396"/>
		<path clip-path="url(#SVGID_2_)" fill="#D1D3D3" d="M1254.322,88.396c0,5.12-4.154,9.271-9.279,9.271s-9.281-4.151-9.281-9.271
			c0-5.121,4.156-9.273,9.281-9.273S1254.322,83.274,1254.322,88.396"/>
		<path clip-path="url(#SVGID_2_)" fill="#D3D5D5" d="M1254.055,88.396c0,4.971-4.035,9.002-9.012,9.002
			c-4.979,0-9.012-4.031-9.012-9.002c0-4.973,4.033-9.004,9.012-9.004C1250.02,79.392,1254.055,83.422,1254.055,88.396"/>
	</g>
</g>
<polygon fill="#605F5E" points="1243.549,95.261 1243.549,89.886 1238.168,89.886 1238.168,86.902 1243.549,86.902 1243.549,81.527 
	1246.535,81.527 1246.535,86.902 1251.916,86.902 1251.916,89.886 1246.535,89.886 1246.535,95.261 "/>
<path fill="#231815" d="M1246.277,81.786v4.858v0.517h0.518h4.863v2.467h-4.863h-0.518v0.517v4.859h-2.469v-4.859v-0.517h-0.518
	h-4.863v-2.467h4.863h0.518v-0.517v-4.858H1246.277z M1246.795,81.27h-3.504v5.374h-5.381v3.501h5.381v5.375h3.504v-5.375h5.379
	v-3.501h-5.379V81.27z"/>
<path fill="#AFAFAF" d="M1261.551,275.434c0,9.107-7.391,16.49-16.508,16.49s-16.508-7.383-16.508-16.49
	c0-9.109,7.391-16.494,16.508-16.494S1261.551,266.324,1261.551,275.434"/>
<ellipse fill="none" stroke="#939393" stroke-miterlimit="10" cx="1245.043" cy="275.434" rx="16.508" ry="16.49"/>
<path fill="#AFAFAF" d="M1257.172,275.434c0,6.691-5.432,12.117-12.129,12.117c-6.699,0-12.129-5.426-12.129-12.117
	c0-6.693,5.43-12.119,12.129-12.119C1251.74,263.314,1257.172,268.74,1257.172,275.434"/>
<ellipse fill="none" stroke="#939393" stroke-miterlimit="10" cx="1245.043" cy="275.434" rx="12.129" ry="12.117"/>
<g>
	<g>
		<defs>
			<rect id="SVGID_3_" x="1233.607" y="264.012" width="22.869" height="22.842"/>
		</defs>
		<clipPath id="SVGID_4_">
			<use xlink:href="#SVGID_3_"  overflow="visible"/>
		</clipPath>
		<path clip-path="url(#SVGID_4_)" fill="#BEBFBF" d="M1256.475,275.434c0,6.307-5.119,11.42-11.432,11.42
			c-6.314,0-11.432-5.113-11.432-11.42c0-6.309,5.117-11.422,11.432-11.422C1251.355,264.012,1256.475,269.125,1256.475,275.434"/>
		<path clip-path="url(#SVGID_4_)" fill="#C0C1C1" d="M1256.205,275.434c0,6.156-4.998,11.15-11.162,11.15
			c-6.166,0-11.162-4.994-11.162-11.15c0-6.16,4.996-11.152,11.162-11.152C1251.207,264.281,1256.205,269.273,1256.205,275.434"/>
		<path clip-path="url(#SVGID_4_)" fill="#C3C4C4" d="M1255.936,275.434c0,6.01-4.877,10.883-10.893,10.883
			c-6.018,0-10.895-4.873-10.895-10.883c0-6.012,4.877-10.885,10.895-10.885C1251.059,264.549,1255.936,269.422,1255.936,275.434"/>
		<path clip-path="url(#SVGID_4_)" fill="#C5C6C6" d="M1255.668,275.434c0,5.861-4.758,10.613-10.625,10.613
			c-5.869,0-10.625-4.752-10.625-10.613c0-5.863,4.756-10.615,10.625-10.615C1250.91,264.818,1255.668,269.57,1255.668,275.434"/>
		<path clip-path="url(#SVGID_4_)" fill="#C7C9C9" d="M1255.398,275.434c0,5.711-4.637,10.346-10.355,10.346
			s-10.355-4.635-10.355-10.346c0-5.715,4.637-10.348,10.355-10.348S1255.398,269.719,1255.398,275.434"/>
		<path clip-path="url(#SVGID_4_)" fill="#CACBCB" d="M1255.129,275.434c0,5.564-4.516,10.076-10.086,10.076
			c-5.572,0-10.088-4.512-10.088-10.076c0-5.566,4.516-10.08,10.088-10.08C1250.613,265.354,1255.129,269.867,1255.129,275.434"/>
		<path clip-path="url(#SVGID_4_)" fill="#CCCECE" d="M1254.861,275.434c0,5.416-4.396,9.809-9.818,9.809
			c-5.424,0-9.818-4.393-9.818-9.809c0-5.418,4.395-9.811,9.818-9.811C1250.465,265.623,1254.861,270.016,1254.861,275.434"/>
		<path clip-path="url(#SVGID_4_)" fill="#CED0D0" d="M1254.592,275.434c0,5.268-4.275,9.539-9.549,9.539s-9.551-4.271-9.551-9.539
			c0-5.27,4.277-9.543,9.551-9.543S1254.592,270.164,1254.592,275.434"/>
		<path clip-path="url(#SVGID_4_)" fill="#D1D3D3" d="M1254.322,275.434c0,5.119-4.154,9.271-9.279,9.271s-9.281-4.152-9.281-9.271
			c0-5.121,4.156-9.273,9.281-9.273S1254.322,270.313,1254.322,275.434"/>
		<path clip-path="url(#SVGID_4_)" fill="#D3D5D5" d="M1254.055,275.434c0,4.971-4.035,9.002-9.012,9.002
			c-4.979,0-9.012-4.031-9.012-9.002c0-4.973,4.033-9.004,9.012-9.004C1250.02,266.43,1254.055,270.461,1254.055,275.434"/>
	</g>
</g>
<polygon fill="#605F5E" points="1243.549,282.299 1243.549,276.924 1238.168,276.924 1238.168,273.939 1243.549,273.939 
	1243.549,268.564 1246.535,268.564 1246.535,273.939 1251.916,273.939 1251.916,276.924 1246.535,276.924 1246.535,282.299 "/>
<path fill="#231815" d="M1246.277,268.824v4.857v0.518h0.518h4.863v2.467h-4.863h-0.518v0.516v4.859h-2.469v-4.859v-0.516h-0.518
	h-4.863v-2.467h4.863h0.518v-0.518v-4.857H1246.277z M1246.795,268.307h-3.504v5.375h-5.381v3.5h5.381v5.375h3.504v-5.375h5.379
	v-3.5h-5.379V268.307z"/>
<path fill="#AFAFAF" d="M44.848,88.396c0,9.107-7.391,16.491-16.508,16.491s-16.508-7.384-16.508-16.491
	c0-9.109,7.391-16.493,16.508-16.493S44.848,79.287,44.848,88.396"/>
<ellipse fill="none" stroke="#939393" stroke-miterlimit="10" cx="28.34" cy="88.396" rx="16.508" ry="16.491"/>
<path fill="#AFAFAF" d="M40.469,88.396c0,6.691-5.431,12.117-12.129,12.117s-12.129-5.426-12.129-12.117
	c0-6.693,5.431-12.119,12.129-12.119S40.469,81.703,40.469,88.396"/>
<ellipse fill="none" stroke="#939393" stroke-miterlimit="10" cx="28.34" cy="88.396" rx="12.129" ry="12.117"/>
<g>
	<g>
		<defs>
			<rect id="SVGID_5_" x="16.905" y="76.974" width="22.87" height="22.842"/>
		</defs>
		<clipPath id="SVGID_6_">
			<use xlink:href="#SVGID_5_"  overflow="visible"/>
		</clipPath>
		<path clip-path="url(#SVGID_6_)" fill="#BEBFBF" d="M39.772,88.396c0,6.306-5.118,11.42-11.432,11.42s-11.432-5.114-11.432-11.42
			c0-6.308,5.118-11.422,11.432-11.422S39.772,82.087,39.772,88.396"/>
		<path clip-path="url(#SVGID_6_)" fill="#C0C1C1" d="M39.502,88.396c0,6.157-4.998,11.151-11.162,11.151
			c-6.165,0-11.162-4.994-11.162-11.151c0-6.159,4.997-11.153,11.162-11.153C34.504,77.243,39.502,82.236,39.502,88.396"/>
		<path clip-path="url(#SVGID_6_)" fill="#C3C4C4" d="M39.234,88.396c0,6.009-4.877,10.883-10.894,10.883
			s-10.894-4.874-10.894-10.883c0-6.011,4.877-10.885,10.894-10.885S39.234,82.385,39.234,88.396"/>
		<path clip-path="url(#SVGID_6_)" fill="#C5C6C6" d="M38.965,88.396c0,5.861-4.757,10.615-10.625,10.615
			s-10.625-4.753-10.625-10.615c0-5.863,4.757-10.616,10.625-10.616S38.965,82.533,38.965,88.396"/>
		<path clip-path="url(#SVGID_6_)" fill="#C7C9C9" d="M38.697,88.396c0,5.712-4.638,10.346-10.356,10.346
			s-10.355-4.634-10.355-10.346c0-5.714,4.637-10.348,10.355-10.348S38.697,82.682,38.697,88.396"/>
		<path clip-path="url(#SVGID_6_)" fill="#CACBCB" d="M38.427,88.396c0,5.564-4.516,10.078-10.087,10.078
			s-10.087-4.514-10.087-10.078c0-5.566,4.516-10.079,10.087-10.079S38.427,82.83,38.427,88.396"/>
		<path clip-path="url(#SVGID_6_)" fill="#CCCECE" d="M38.159,88.396c0,5.416-4.396,9.808-9.818,9.808
			c-5.423,0-9.817-4.392-9.817-9.808c0-5.418,4.395-9.81,9.817-9.81C33.762,78.585,38.159,82.978,38.159,88.396"/>
		<path clip-path="url(#SVGID_6_)" fill="#CED0D0" d="M37.89,88.396c0,5.267-4.276,9.54-9.55,9.54s-9.55-4.273-9.55-9.54
			c0-5.269,4.276-9.542,9.55-9.542S37.89,83.126,37.89,88.396"/>
		<path clip-path="url(#SVGID_6_)" fill="#D1D3D3" d="M37.621,88.396c0,5.12-4.154,9.271-9.28,9.271c-5.125,0-9.28-4.151-9.28-9.271
			c0-5.121,4.155-9.273,9.28-9.273C33.466,79.123,37.621,83.274,37.621,88.396"/>
		<path clip-path="url(#SVGID_6_)" fill="#D3D5D5" d="M37.352,88.396c0,4.971-4.035,9.002-9.012,9.002
			c-4.978,0-9.012-4.031-9.012-9.002c0-4.973,4.034-9.004,9.012-9.004C33.317,79.392,37.352,83.422,37.352,88.396"/>
	</g>
</g>
<polygon fill="#605F5E" points="26.847,95.261 26.847,89.886 21.466,89.886 21.466,86.902 26.847,86.902 26.847,81.527 
	29.833,81.527 29.833,86.902 35.214,86.902 35.214,89.886 29.833,89.886 29.833,95.261 "/>
<path fill="#231815" d="M29.576,81.786v4.858v0.517h0.517h4.863v2.467h-4.863h-0.517v0.517v4.859h-2.47v-4.859v-0.517h-0.518h-4.863
	v-2.467h4.863h0.518v-0.517v-4.858H29.576z M30.092,81.27h-3.504v5.374h-5.38v3.501h5.38v5.375h3.504v-5.375h5.379v-3.501h-5.379
	V81.27z"/>
<path fill="#AFAFAF" d="M44.848,275.434c0,9.107-7.391,16.49-16.508,16.49s-16.508-7.383-16.508-16.49
	c0-9.109,7.391-16.494,16.508-16.494S44.848,266.324,44.848,275.434"/>
<ellipse fill="none" stroke="#939393" stroke-miterlimit="10" cx="28.34" cy="275.434" rx="16.508" ry="16.49"/>
<path fill="#AFAFAF" d="M40.469,275.434c0,6.691-5.431,12.117-12.129,12.117s-12.129-5.426-12.129-12.117
	c0-6.693,5.431-12.119,12.129-12.119S40.469,268.74,40.469,275.434"/>
<ellipse fill="none" stroke="#939393" stroke-miterlimit="10" cx="28.34" cy="275.434" rx="12.129" ry="12.117"/>
<g>
	<g>
		<defs>
			<rect id="SVGID_7_" x="16.905" y="264.012" width="22.87" height="22.842"/>
		</defs>
		<clipPath id="SVGID_8_">
			<use xlink:href="#SVGID_7_"  overflow="visible"/>
		</clipPath>
		<path clip-path="url(#SVGID_8_)" fill="#BEBFBF" d="M39.772,275.434c0,6.307-5.118,11.42-11.432,11.42s-11.432-5.113-11.432-11.42
			c0-6.309,5.118-11.422,11.432-11.422S39.772,269.125,39.772,275.434"/>
		<path clip-path="url(#SVGID_8_)" fill="#C0C1C1" d="M39.502,275.434c0,6.156-4.998,11.15-11.162,11.15
			c-6.165,0-11.162-4.994-11.162-11.15c0-6.16,4.997-11.152,11.162-11.152C34.504,264.281,39.502,269.273,39.502,275.434"/>
		<path clip-path="url(#SVGID_8_)" fill="#C3C4C4" d="M39.234,275.434c0,6.01-4.877,10.883-10.894,10.883
			s-10.894-4.873-10.894-10.883c0-6.012,4.877-10.885,10.894-10.885S39.234,269.422,39.234,275.434"/>
		<path clip-path="url(#SVGID_8_)" fill="#C5C6C6" d="M38.965,275.434c0,5.861-4.757,10.613-10.625,10.613
			s-10.625-4.752-10.625-10.613c0-5.863,4.757-10.615,10.625-10.615S38.965,269.57,38.965,275.434"/>
		<path clip-path="url(#SVGID_8_)" fill="#C7C9C9" d="M38.697,275.434c0,5.711-4.638,10.346-10.356,10.346
			s-10.355-4.635-10.355-10.346c0-5.715,4.637-10.348,10.355-10.348S38.697,269.719,38.697,275.434"/>
		<path clip-path="url(#SVGID_8_)" fill="#CACBCB" d="M38.427,275.434c0,5.564-4.516,10.076-10.087,10.076
			s-10.087-4.512-10.087-10.076c0-5.566,4.516-10.08,10.087-10.08S38.427,269.867,38.427,275.434"/>
		<path clip-path="url(#SVGID_8_)" fill="#CCCECE" d="M38.159,275.434c0,5.416-4.396,9.809-9.818,9.809
			c-5.423,0-9.817-4.393-9.817-9.809c0-5.418,4.395-9.811,9.817-9.811C33.762,265.623,38.159,270.016,38.159,275.434"/>
		<path clip-path="url(#SVGID_8_)" fill="#CED0D0" d="M37.89,275.434c0,5.268-4.276,9.539-9.55,9.539s-9.55-4.271-9.55-9.539
			c0-5.27,4.276-9.543,9.55-9.543S37.89,270.164,37.89,275.434"/>
		<path clip-path="url(#SVGID_8_)" fill="#D1D3D3" d="M37.621,275.434c0,5.119-4.154,9.271-9.28,9.271
			c-5.125,0-9.28-4.152-9.28-9.271c0-5.121,4.155-9.273,9.28-9.273C33.466,266.16,37.621,270.313,37.621,275.434"/>
		<path clip-path="url(#SVGID_8_)" fill="#D3D5D5" d="M37.352,275.434c0,4.971-4.035,9.002-9.012,9.002
			c-4.978,0-9.012-4.031-9.012-9.002c0-4.973,4.034-9.004,9.012-9.004C33.317,266.43,37.352,270.461,37.352,275.434"/>
	</g>
</g>
<polygon fill="#605F5E" points="26.847,282.299 26.847,276.924 21.466,276.924 21.466,273.939 26.847,273.939 26.847,268.564 
	29.833,268.564 29.833,273.939 35.214,273.939 35.214,276.924 29.833,276.924 29.833,282.299 "/>
<path fill="#231815" d="M29.576,268.824v4.857v0.518h0.517h4.863v2.467h-4.863h-0.517v0.516v4.859h-2.47v-4.859v-0.516h-0.518
	h-4.863v-2.467h4.863h0.518v-0.518v-4.857H29.576z M30.092,268.307h-3.504v5.375h-5.38v3.5h5.38v5.375h3.504v-5.375h5.379v-3.5
	h-5.379V268.307z"/>
<g>
	<path fill="#DDDBD3" d="M125.053,75.454V22.002c0,0,0-0.905,1.052-1.11h42.663c0,0,0.838,0.293,0.896,1.519v53.043
		C169.664,75.454,147.359,83.633,125.053,75.454z"/>
	<path fill="#999790" d="M160.133,56.605c0,0.516-0.418,0.935-0.935,0.935h-23.679c-0.516,0-0.935-0.418-0.935-0.935V38.067
		c0-0.516,0.419-0.935,0.935-0.935h23.679c0.516,0,0.935,0.418,0.935,0.935V56.605z"/>
</g>
<g>
	<path fill="#DDDBD3" d="M1102.078,75.454V22.002c0,0,0-0.905,1.051-1.11h42.664c0,0,0.838,0.293,0.895,1.519v53.043
		C1146.688,75.454,1124.383,83.633,1102.078,75.454z"/>
	<path fill="#999790" d="M1137.156,56.605c0,0.516-0.418,0.935-0.934,0.935h-23.68c-0.516,0-0.934-0.418-0.934-0.935V38.067
		c0-0.516,0.418-0.935,0.934-0.935h23.68c0.516,0,0.934,0.418,0.934,0.935V56.605z"/>
</g>
<polygon fill="#DDDDDD" points="642.984,174.994 612.294,188.163 616.375,190.594 626.61,185.881 626.508,184.864 635.429,181.232 
	635.543,179.979 644.063,176.251 "/>
<polygon fill="#DDDDDD" points="648.1,177.718 618.188,190.512 621.37,193.152 632.061,188.477 632.021,187.571 640.023,183.753 
	640.775,182.755 649.52,179.018 "/>
<path fill="#DDDDDD" d="M652.646,180.411c-0.285-0.044-29.158,13.157-29.158,13.157l3.192,1.959l19.586-9.213l0.064-1.138
	l8.584-3.503L652.646,180.411z"/>
<polygon fill="#DDDDDD" points="658.139,182.666 647.879,186.81 647.926,187.83 640.332,190.664 638.503,192.959 629.923,196.576 
	631.793,197.799 661.631,184.61 "/>
<polygon fill="#DDDDDD" points="662.969,185.345 653.563,189.509 653.098,190.553 644.834,193.643 643.787,195.619 635.556,199.447 
	637.473,200.441 666.986,187.608 "/>
<polygon fill="#DDDDDD" points="669.229,188.246 658.789,192.172 658.328,193.328 650.318,196.977 649.58,198.258 640.953,202.104 
	642.986,203.148 672.619,190.48 "/>
<text transform="matrix(1 0 0 1 558.7969 199.5098)" fill="#DDDDDD" stroke="#DDDDDD" stroke-miterlimit="10" font-family="'MicrosoftYaHeiLight'" font-size="24.7097">普天</text>
</svg>
