<?xml version="1.0" encoding="utf-8"?>
<!-- Generator: Adobe Illustrator 16.0.0, SVG Export Plug-In . SVG Version: 6.00 Build 0)  -->
<!DOCTYPE svg PUBLIC "-//W3C//DTD SVG 1.1//EN" "http://www.w3.org/Graphics/SVG/1.1/DTD/svg11.dtd">
<svg version="1.1" id="图层_1" xmlns="http://www.w3.org/2000/svg" xmlns:xlink="http://www.w3.org/1999/xlink" x="0px" y="0px"
	 width="1275.59px" height="126.14px" viewBox="0 0 1275.59 126.14" enable-background="new 0 0 1275.59 126.14"
	 xml:space="preserve">
<g>
	<path fill="#0C0C0C" d="M1275.591,115.141c0,6.075-4.926,11-11,11H11c-6.075,0-11-4.925-11-11V10.999c0-6.075,4.925-11,11-11
		h1253.591c6.074,0,11,4.925,11,11V115.141z"/>
</g>
<g>
	<path fill="#7583B9" d="M72.143-0.001H11c-6.075,0-11,4.925-11,11v104.142c0,6.075,4.925,11,11,11h61.143V-0.001z"/>
</g>
<g>
	<path fill="#040001" d="M50.746,26.263c0,3.866-3.134,7-7,7h-23c-3.866,0-7-3.134-7-7l0,0c0-3.866,3.134-7,7-7h23
		C47.612,19.263,50.746,22.396,50.746,26.263L50.746,26.263z"/>
</g>
<g>
	<path fill="#040001" d="M50.746,102.263c0,3.866-3.134,7-7,7h-23c-3.866,0-7-3.134-7-7l0,0c0-3.866,3.134-7,7-7h23
		C47.612,95.263,50.746,98.396,50.746,102.263L50.746,102.263z"/>
</g>
<g>
	<path fill="#AFAEAE" d="M36.329,73.782c-4.459,4.461-11.695,4.457-16.16-0.008c-4.466-4.466-4.469-11.703-0.009-16.162
		c4.461-4.462,11.698-4.459,16.163,0.008C40.788,62.085,40.792,69.321,36.329,73.782"/>
</g>
<g>
	<path fill="#929292" d="M28.257,77.626c-3.188,0-6.187-1.242-8.441-3.498c-2.255-2.254-3.497-5.25-3.498-8.437
		c-0.002-3.187,1.237-6.182,3.489-8.433c2.251-2.251,5.244-3.491,8.429-3.491c3.188,0,6.187,1.243,8.441,3.499
		c2.254,2.254,3.496,5.25,3.498,8.436c0.001,3.188-1.239,6.182-3.491,8.434C34.434,76.386,31.44,77.626,28.257,77.626z
		 M28.235,54.768c-2.917,0-5.66,1.136-7.722,3.198c-2.063,2.063-3.198,4.806-3.196,7.725c0.001,2.92,1.14,5.665,3.205,7.73
		c2.066,2.066,4.813,3.205,7.734,3.205c2.917,0,5.658-1.136,7.72-3.197c2.063-2.063,3.199-4.807,3.198-7.726
		c-0.002-2.92-1.14-5.664-3.205-7.729C33.903,55.906,31.156,54.768,28.235,54.768z"/>
</g>
<g>
	<path fill="#AFAEAE" d="M34.187,71.638c-3.278,3.277-8.596,3.275-11.875-0.006c-3.281-3.279-3.284-8.598-0.006-11.875
		c3.278-3.278,8.596-3.275,11.876,0.004C37.463,63.042,37.465,68.359,34.187,71.638"/>
</g>
<g>
	<path fill="#929292" d="M28.253,74.595c-2.378,0-4.614-0.927-6.295-2.609c-1.682-1.68-2.608-3.915-2.609-6.291
		c-0.001-2.378,0.923-4.611,2.604-6.291c1.679-1.679,3.911-2.604,6.287-2.604c2.378,0,4.613,0.926,6.296,2.607
		c3.471,3.471,3.473,9.116,0.005,12.584C32.86,73.67,30.628,74.595,28.253,74.595z M28.239,57.8c-2.108,0-4.09,0.82-5.58,2.311
		c-1.491,1.49-2.312,3.474-2.311,5.583s0.823,4.093,2.316,5.585c1.492,1.493,3.477,2.316,5.588,2.316c2.108,0,4.09-0.821,5.58-2.311
		c3.078-3.078,3.076-8.089-0.005-11.17C32.335,58.622,30.35,57.8,28.239,57.8z"/>
</g>
<g>
	<g>
		<defs>
			
				<rect id="SVGID_1_" x="20.326" y="57.787" transform="matrix(-0.7072 -0.707 0.707 -0.7072 1.7694 132.1264)" width="15.839" height="15.82"/>
		</defs>
		<clipPath id="SVGID_2_">
			<use xlink:href="#SVGID_1_"  overflow="visible"/>
		</clipPath>
		<g clip-path="url(#SVGID_2_)">
			<path fill="#BEBEBD" d="M33.845,71.296c-3.089,3.09-8.1,3.086-11.191-0.006c-3.093-3.092-3.095-8.104-0.006-11.191
				c3.089-3.09,8.099-3.088,11.191,0.005C36.932,63.194,36.935,68.206,33.845,71.296"/>
		</g>
		<g clip-path="url(#SVGID_2_)">
			<path fill="#C0C0C0" d="M33.713,71.165c-3.016,3.016-7.909,3.013-10.929-0.008c-3.02-3.018-3.021-7.912-0.006-10.928
				c3.017-3.017,7.91-3.016,10.93,0.005S36.729,68.147,33.713,71.165"/>
		</g>
		<g clip-path="url(#SVGID_2_)">
			<path fill="#C2C3C3" d="M33.581,71.033c-2.942,2.942-7.72,2.942-10.666-0.005s-2.947-7.723-0.005-10.666
				c2.943-2.943,7.72-2.943,10.667,0.002C36.523,63.313,36.525,68.089,33.581,71.033"/>
		</g>
		<g clip-path="url(#SVGID_2_)">
			<path fill="#C4C5C4" d="M33.449,70.901c-2.871,2.871-7.528,2.868-10.402-0.005c-2.874-2.876-2.876-7.532-0.006-10.403
				c2.872-2.871,7.529-2.869,10.403,0.004C36.319,63.372,36.321,68.03,33.449,70.901"/>
		</g>
		<g clip-path="url(#SVGID_2_)">
			<path fill="#C6C8C8" d="M33.318,70.77c-2.798,2.798-7.338,2.795-10.14-0.005c-2.801-2.802-2.802-7.342-0.005-10.14
				c2.799-2.799,7.339-2.798,10.141,0.005C36.115,63.431,36.117,67.972,33.318,70.77"/>
		</g>
		<g clip-path="url(#SVGID_2_)">
			<path fill="#C9CACB" d="M33.186,70.638c-2.725,2.725-7.147,2.724-9.875-0.005c-2.729-2.729-2.729-7.149-0.005-9.876
				c2.727-2.727,7.148-2.725,9.876,0.004C35.911,63.489,35.912,67.911,33.186,70.638"/>
		</g>
		<g clip-path="url(#SVGID_2_)">
			<path fill="#CBCDCD" d="M33.055,70.507c-2.652,2.652-6.957,2.65-9.613-0.006c-2.655-2.654-2.656-6.96-0.005-9.613
				c2.654-2.652,6.958-2.652,9.614,0.004S35.708,67.853,33.055,70.507"/>
		</g>
		<g clip-path="url(#SVGID_2_)">
			<path fill="#CCCFD0" d="M32.923,70.374c-2.579,2.58-6.768,2.58-9.35-0.004c-2.583-2.582-2.584-6.771-0.005-9.35
				c2.581-2.582,6.769-2.58,9.351,0.002C35.503,63.606,35.504,67.792,32.923,70.374"/>
		</g>
		<g clip-path="url(#SVGID_2_)">
			<path fill="#D0D2D2" d="M32.79,70.242c-2.506,2.507-6.575,2.506-9.086-0.003c-2.51-2.511-2.511-6.582-0.004-9.086
				c2.509-2.51,6.578-2.508,9.088,0.002C35.299,63.665,35.299,67.734,32.79,70.242"/>
		</g>
		<g clip-path="url(#SVGID_2_)">
			<path fill="#D2D4D5" d="M32.66,70.112c-2.435,2.434-6.386,2.432-8.823-0.006s-2.439-6.389-0.005-8.822
				c2.436-2.436,6.386-2.436,8.823,0.003C35.094,63.726,35.095,67.676,32.66,70.112"/>
		</g>
	</g>
</g>
<g>
	<polygon fill="#605F5E" points="24.151,68.329 26.784,65.696 24.148,63.061 25.61,61.599 28.246,64.235 30.878,61.601 
		32.342,63.064 29.709,65.697 32.344,68.333 30.883,69.794 28.246,67.159 25.614,69.791 	"/>
</g>
<g>
	<path fill="#221714" d="M32.089,63.065l-2.38,2.379l-0.255,0.253l0.255,0.254l2.382,2.382l-1.209,1.207l-2.381-2.381l-0.255-0.254
		l-0.252,0.254l-2.379,2.378l-1.209-1.208l2.379-2.379l0.253-0.253l-0.254-0.255l-2.382-2.382l1.208-1.208l2.382,2.381l0.254,0.254
		l0.253-0.252l2.379-2.379L32.089,63.065z M32.594,63.065l-1.716-1.717l-2.632,2.633l-2.635-2.635l-1.716,1.714l2.636,2.636
		l-2.633,2.633l1.716,1.717l2.632-2.633l2.636,2.633l1.715-1.713l-2.635-2.636L32.594,63.065z"/>
</g>
<g>
	<path fill="#7583B9" d="M1203.446-0.001h61.145c6.074,0,11,4.925,11,11v104.142c0,6.075-4.926,11-11,11h-61.145V-0.001z"/>
</g>
<g>
	<path fill="#040001" d="M1224.845,26.263c0,3.866,3.133,7,7,7h23c3.865,0,7-3.134,7-7l0,0c0-3.866-3.135-7-7-7h-23
		C1227.978,19.263,1224.845,22.396,1224.845,26.263L1224.845,26.263z"/>
</g>
<g>
	<path fill="#040001" d="M1224.845,102.263c0,3.866,3.133,7,7,7h23c3.865,0,7-3.134,7-7l0,0c0-3.866-3.135-7-7-7h-23
		C1227.978,95.263,1224.845,98.396,1224.845,102.263L1224.845,102.263z"/>
</g>
<g>
	<path fill="#AFAEAE" d="M1239.261,73.782c4.459,4.461,11.695,4.457,16.16-0.008c4.467-4.466,4.469-11.703,0.01-16.162
		c-4.463-4.462-11.699-4.459-16.164,0.008C1234.802,62.085,1234.798,69.321,1239.261,73.782"/>
</g>
<g>
	<path fill="#929292" d="M1247.333,77.626L1247.333,77.626c-3.184-0.001-6.178-1.24-8.426-3.49
		c-2.254-2.252-3.492-5.246-3.492-8.434c0.002-3.186,1.244-6.182,3.498-8.436c2.256-2.256,5.254-3.499,8.441-3.499
		c3.184,0,6.178,1.24,8.43,3.491c2.25,2.251,3.49,5.246,3.488,8.433s-1.244,6.183-3.498,8.437
		C1253.519,76.383,1250.521,77.626,1247.333,77.626z M1247.354,54.768c-2.922,0-5.668,1.139-7.734,3.206
		c-2.064,2.066-3.203,4.81-3.205,7.729c0,2.919,1.135,5.662,3.199,7.726c2.061,2.062,4.801,3.196,7.719,3.197l0,0
		c2.922,0,5.668-1.139,7.734-3.205c2.066-2.065,3.203-4.811,3.205-7.73c0.002-2.919-1.133-5.662-3.195-7.725
		S1250.272,54.768,1247.354,54.768z"/>
</g>
<g>
	<path fill="#AFAEAE" d="M1241.403,71.638c3.279,3.277,8.596,3.275,11.875-0.006c3.281-3.279,3.284-8.598,0.006-11.875
		c-3.277-3.278-8.596-3.275-11.875,0.004C1238.128,63.042,1238.126,68.359,1241.403,71.638"/>
</g>
<g>
	<path fill="#929292" d="M1247.337,74.595L1247.337,74.595c-2.375-0.001-4.607-0.925-6.287-2.604
		c-3.469-3.468-3.465-9.113,0.006-12.584c1.682-1.682,3.918-2.607,6.295-2.607c2.375,0,4.609,0.925,6.287,2.604
		c1.68,1.68,2.605,3.913,2.604,6.291c-0.002,2.376-0.928,4.611-2.609,6.291C1251.95,73.668,1249.716,74.595,1247.337,74.595z
		 M1247.351,57.8c-2.111,0-4.096,0.822-5.588,2.314c-3.082,3.081-3.084,8.092-0.006,11.17c1.49,1.489,3.472,2.31,5.58,2.311
		c2.111,0,4.096-0.823,5.588-2.316c1.492-1.492,2.314-3.476,2.316-5.585s-0.82-4.093-2.311-5.583S1249.458,57.8,1247.351,57.8z"/>
</g>
<g>
	<g>
		<defs>
			
				<rect id="SVGID_3_" x="1239.425" y="57.787" transform="matrix(0.7072 -0.707 0.707 0.7072 318.8114 901.1671)" width="15.839" height="15.819"/>
		</defs>
		<clipPath id="SVGID_4_">
			<use xlink:href="#SVGID_3_"  overflow="visible"/>
		</clipPath>
		<g clip-path="url(#SVGID_4_)">
			<path fill="#BEBEBD" d="M1241.745,71.296c3.09,3.09,8.1,3.086,11.191-0.006c3.094-3.092,3.096-8.104,0.006-11.191
				c-3.089-3.09-8.1-3.088-11.191,0.005C1238.659,63.194,1238.655,68.206,1241.745,71.296"/>
		</g>
		<g clip-path="url(#SVGID_4_)">
			<path fill="#C0C0C0" d="M1241.878,71.165c3.014,3.016,7.908,3.013,10.928-0.008c3.02-3.018,3.021-7.912,0.006-10.928
				c-3.016-3.017-7.91-3.016-10.93,0.005S1238.86,68.147,1241.878,71.165"/>
		</g>
		<g clip-path="url(#SVGID_4_)">
			<path fill="#C2C3C3" d="M1242.009,71.033c2.943,2.942,7.72,2.942,10.666-0.005c2.947-2.947,2.947-7.723,0.006-10.666
				c-2.943-2.943-7.721-2.943-10.668,0.002C1239.067,63.313,1239.065,68.089,1242.009,71.033"/>
		</g>
		<g clip-path="url(#SVGID_4_)">
			<path fill="#C4C5C4" d="M1242.142,70.901c2.871,2.871,7.527,2.868,10.402-0.005c2.873-2.876,2.875-7.532,0.006-10.403
				c-2.873-2.871-7.53-2.869-10.404,0.004C1239.271,63.372,1239.269,68.03,1242.142,70.901"/>
		</g>
		<g clip-path="url(#SVGID_4_)">
			<path fill="#C6C8C8" d="M1242.272,70.77c2.797,2.798,7.338,2.795,10.139-0.005c2.801-2.802,2.803-7.342,0.006-10.14
				c-2.799-2.799-7.34-2.798-10.141,0.005C1239.476,63.431,1239.474,67.972,1242.272,70.77"/>
		</g>
		<g clip-path="url(#SVGID_4_)">
			<path fill="#C9CACB" d="M1242.405,70.638c2.725,2.725,7.146,2.724,9.875-0.005c2.729-2.729,2.729-7.149,0.004-9.876
				c-2.727-2.727-7.148-2.725-9.875,0.004C1239.679,63.489,1239.679,67.911,1242.405,70.638"/>
		</g>
		<g clip-path="url(#SVGID_4_)">
			<path fill="#CBCDCD" d="M1242.536,70.507c2.651,2.652,6.957,2.65,9.613-0.006c2.654-2.654,2.656-6.96,0.004-9.613
				c-2.654-2.652-6.957-2.652-9.613,0.004S1239.882,67.853,1242.536,70.507"/>
		</g>
		<g clip-path="url(#SVGID_4_)">
			<path fill="#CCCFD0" d="M1242.667,70.374c2.58,2.58,6.768,2.58,9.35-0.004c2.584-2.582,2.584-6.771,0.006-9.35
				c-2.582-2.582-6.77-2.58-9.352,0.002C1240.087,63.606,1240.087,67.792,1242.667,70.374"/>
		</g>
		<g clip-path="url(#SVGID_4_)">
			<path fill="#D0D2D2" d="M1242.8,70.242c2.506,2.507,6.576,2.506,9.086-0.003c2.51-2.511,2.512-6.582,0.004-9.086
				c-2.508-2.51-6.578-2.508-9.088,0.002S1240.292,67.734,1242.8,70.242"/>
		</g>
		<g clip-path="url(#SVGID_4_)">
			<path fill="#D2D4D5" d="M1242.931,70.112c2.434,2.434,6.385,2.432,8.822-0.006s2.439-6.389,0.006-8.822
				c-2.436-2.436-6.387-2.436-8.824,0.003S1240.495,67.676,1242.931,70.112"/>
		</g>
	</g>
</g>
<g>
	<polygon fill="#605F5E" points="1251.438,68.329 1248.806,65.696 1251.442,63.061 1249.979,61.599 1247.345,64.235 
		1244.712,61.601 1243.249,63.064 1245.882,65.697 1243.247,68.333 1244.708,69.794 1247.343,67.159 1249.976,69.791 	"/>
</g>
<g>
	<path fill="#221714" d="M1244.712,61.856l2.379,2.379l0.254,0.252l0.254-0.254l2.381-2.381l1.208,1.208l-2.382,2.382l-0.254,0.255
		l0.254,0.253l2.378,2.379l-1.208,1.208l-2.379-2.378l-0.254-0.254l-0.254,0.254l-2.381,2.381l-1.209-1.207l2.383-2.382l0.254-0.254
		l-0.254-0.253l-2.381-2.379L1244.712,61.856z M1245.628,65.697l-2.635,2.636l1.715,1.713l2.635-2.633l2.633,2.633l1.717-1.717
		l-2.634-2.633l2.636-2.636l-1.716-1.714l-2.634,2.635l-2.633-2.633l-1.715,1.717L1245.628,65.697z"/>
</g>
<g>
	<rect x="75.338" y="-0.001" fill="#DDDBD3" width="272.26" height="126.142"/>
</g>
<g>
	<rect x="347.598" y="-0.001" fill="#7583B9" width="853.245" height="126.142"/>
</g>
<g>
	<path fill="#7583B9" d="M1173.995,107.071c0,5.021-3.402,9.09-7.601,9.09H979.968c-4.198,0-7.602-4.068-7.602-9.09V27.329
		c0-5.021,3.403-9.092,7.602-9.092h186.427c4.198,0,7.601,4.07,7.601,9.092V107.071z"/>
	<path fill="#181919" d="M1166.395,116.661H979.968c-4.467,0-8.102-4.302-8.102-9.59V27.329c0-5.289,3.635-9.592,8.102-9.592
		h186.427c4.468,0,8.101,4.303,8.101,9.592v79.742C1174.495,112.359,1170.862,116.661,1166.395,116.661z M979.968,18.737
		c-3.916,0-7.102,3.854-7.102,8.592v79.742c0,4.736,3.186,8.59,7.102,8.59h186.427c3.915,0,7.101-3.854,7.101-8.59V27.329
		c0-4.737-3.186-8.592-7.101-8.592H979.968z"/>
</g>
<g>
	<g>
		<path fill="#AFAEAE" d="M978.589,32.684c2.531,2.531,6.637,2.528,9.17-0.005s2.535-6.639,0.006-9.17
			c-2.533-2.531-6.639-2.53-9.172,0.004C976.059,26.046,976.058,30.152,978.589,32.684"/>
	</g>
	<g>
		<path fill="#929292" d="M983.169,35.08L983.169,35.08c-1.865,0-3.617-0.726-4.934-2.043c-1.318-1.318-2.045-3.072-2.043-4.938
			c0-1.866,0.727-3.62,2.047-4.939c1.32-1.32,3.076-2.048,4.941-2.048s3.619,0.726,4.938,2.044c1.316,1.318,2.043,3.072,2.043,4.938
			c-0.002,1.866-0.729,3.62-2.049,4.939C986.792,34.353,985.036,35.08,983.169,35.08z M983.181,22.111
			c-1.6,0-3.104,0.623-4.234,1.755c-1.131,1.131-1.754,2.634-1.754,4.232c-0.002,1.599,0.62,3.102,1.75,4.231
			c1.129,1.129,2.629,1.75,4.227,1.75l0,0c1.6,0,3.104-0.623,4.236-1.755c1.131-1.131,1.754-2.634,1.756-4.232
			c0-1.599-0.621-3.102-1.75-4.23C986.28,22.733,984.778,22.111,983.181,22.111z"/>
	</g>
	<g>
		<path fill="#AFAEAE" d="M979.806,31.467c1.859,1.859,4.877,1.858,6.738-0.003s1.863-4.879,0.002-6.738
			c-1.859-1.86-4.877-1.858-6.738,0.002C977.946,26.59,977.946,29.606,979.806,31.467"/>
	</g>
	<g>
		<path fill="#929292" d="M983.173,33.36L983.173,33.36c-1.406,0-2.729-0.547-3.721-1.54c-2.053-2.052-2.051-5.393,0.002-7.446
			c0.996-0.995,2.318-1.543,3.725-1.543s2.729,0.548,3.721,1.541c0.994,0.993,1.541,2.315,1.541,3.722
			c0,1.407-0.549,2.729-1.543,3.724C985.901,32.813,984.579,33.36,983.173,33.36z M983.179,23.831c-1.139,0-2.211,0.444-3.018,1.25
			c-1.662,1.664-1.664,4.37-0.002,6.032c0.805,0.805,1.875,1.247,3.014,1.247l0,0c1.139,0,2.211-0.443,3.018-1.25
			c0.805-0.805,1.25-1.877,1.25-3.017s-0.443-2.21-1.248-3.015S984.317,23.831,983.179,23.831z"/>
	</g>
	<g>
		<g>
			<defs>
				
					<rect id="SVGID_5_" x="978.683" y="23.608" transform="matrix(0.7072 -0.707 0.707 0.7072 267.9951 703.3303)" width="8.987" height="8.976"/>
			</defs>
			<clipPath id="SVGID_6_">
				<use xlink:href="#SVGID_5_"  overflow="visible"/>
			</clipPath>
			<g clip-path="url(#SVGID_6_)">
				<path fill="#BEBEBD" d="M979.999,31.272c1.754,1.754,4.596,1.751,6.35-0.003c1.755-1.755,1.756-4.599,0.004-6.351
					c-1.752-1.753-4.596-1.752-6.35,0.003C978.247,26.676,978.247,29.52,979.999,31.272"/>
			</g>
			<g clip-path="url(#SVGID_6_)">
				<path fill="#C0C0C0" d="M980.075,31.198c1.711,1.711,4.486,1.709,6.199-0.004c1.715-1.713,1.715-4.489,0.004-6.201
					c-1.711-1.711-4.488-1.711-6.201,0.004C978.364,26.71,978.362,29.486,980.075,31.198"/>
			</g>
			<g clip-path="url(#SVGID_6_)">
				<path fill="#C2C3C3" d="M980.149,31.124c1.67,1.669,4.379,1.669,6.051-0.003c1.672-1.673,1.674-4.382,0.004-6.052
					s-4.381-1.67-6.053,0.001C978.479,26.743,978.478,29.453,980.149,31.124"/>
			</g>
			<g clip-path="url(#SVGID_6_)">
				<path fill="#C4C5C4" d="M980.224,31.049c1.629,1.629,4.271,1.628,5.902-0.003c1.631-1.632,1.633-4.273,0.004-5.902
					c-1.631-1.629-4.273-1.628-5.903,0.002C978.595,26.776,978.595,29.42,980.224,31.049"/>
			</g>
			<g clip-path="url(#SVGID_6_)">
				<path fill="#C6C8C8" d="M980.298,30.974c1.588,1.588,4.164,1.586,5.754-0.002c1.588-1.59,1.59-4.166,0.002-5.754
					s-4.164-1.587-5.754,0.004C978.712,26.81,978.71,29.386,980.298,30.974"/>
			</g>
			<g clip-path="url(#SVGID_6_)">
				<path fill="#C9CACB" d="M980.374,30.899c1.545,1.546,4.055,1.545,5.602-0.003c1.549-1.548,1.549-4.057,0.003-5.604
					s-4.056-1.545-5.603,0.002C978.827,26.843,978.827,29.353,980.374,30.899"/>
			</g>
			<g clip-path="url(#SVGID_6_)">
				<path fill="#CBCDCD" d="M980.448,30.825c1.504,1.505,3.946,1.504,5.453-0.004c1.508-1.506,1.508-3.949,0.004-5.454
					c-1.506-1.505-3.947-1.505-5.455,0.002S978.942,29.319,980.448,30.825"/>
			</g>
			<g clip-path="url(#SVGID_6_)">
				<path fill="#CCCFD0" d="M980.522,30.749c1.463,1.465,3.84,1.465,5.305-0.001c1.467-1.465,1.467-3.842,0.004-5.305
					c-1.465-1.465-3.842-1.464-5.307,0.001C979.059,26.909,979.058,29.284,980.522,30.749"/>
			</g>
			<g clip-path="url(#SVGID_6_)">
				<path fill="#D0D2D2" d="M980.599,30.675c1.421,1.422,3.73,1.422,5.154-0.002s1.426-3.734,0.002-5.155
					c-1.424-1.424-3.732-1.423-5.156,0.001S979.175,29.252,980.599,30.675"/>
			</g>
			<g clip-path="url(#SVGID_6_)">
				<path fill="#D2D4D5" d="M980.671,30.601c1.383,1.381,3.623,1.38,5.008-0.002c1.381-1.384,1.383-3.626,0.002-5.007
					c-1.383-1.382-3.623-1.382-5.006,0.002C979.29,26.978,979.29,29.219,980.671,30.601"/>
			</g>
		</g>
	</g>
	<g>
		<polygon fill="#605F5E" points="985.499,29.589 984.005,28.097 985.501,26.601 984.671,25.771 983.177,27.267 981.683,25.771 
			980.851,26.603 982.347,28.097 980.851,29.592 981.681,30.421 983.175,28.926 984.669,30.419 		"/>
	</g>
	<g>
		<path fill="#221714" d="M981.683,25.917l1.35,1.35l0.145,0.143l0.143-0.144l1.352-1.351l0.686,0.686l-1.352,1.351l-0.143,0.146
			l0.143,0.143l1.35,1.35l-0.686,0.686l-1.35-1.349l-0.145-0.145l-0.143,0.145l-1.352,1.351l-0.686-0.685l1.352-1.352l0.143-0.144
			l-0.143-0.145l-1.352-1.35L981.683,25.917z M982.202,28.097l-1.494,1.495l0.973,0.972l1.494-1.494l1.494,1.494l0.973-0.975
			l-1.492-1.492l1.495-1.496l-0.974-0.973l-1.494,1.494l-1.494-1.493l-0.973,0.974L982.202,28.097z"/>
	</g>
</g>
<g>
	<g>
		<path fill="#AFAEAE" d="M1158.122,32.684c2.529,2.531,6.637,2.528,9.17-0.005s2.535-6.639,0.004-9.17
			c-2.531-2.531-6.637-2.53-9.17,0.004C1155.591,26.046,1155.591,30.152,1158.122,32.684"/>
	</g>
	<g>
		<path fill="#929292" d="M1162.702,35.08L1162.702,35.08c-1.865,0-3.617-0.726-4.936-2.043c-1.318-1.318-2.043-3.072-2.043-4.938
			s0.729-3.62,2.049-4.939c1.318-1.32,3.074-2.048,4.941-2.048c1.865,0,3.617,0.726,4.936,2.044s2.045,3.072,2.043,4.938
			c0,1.866-0.729,3.62-2.048,4.939C1166.323,34.353,1164.569,35.08,1162.702,35.08z M1162.714,22.111
			c-1.6,0-3.104,0.623-4.235,1.755c-1.132,1.131-1.755,2.634-1.755,4.232s0.621,3.102,1.752,4.231
			c1.127,1.129,2.629,1.75,4.227,1.75l0,0c1.6,0,3.104-0.623,4.235-1.755c1.132-1.131,1.755-2.634,1.755-4.232
			c0.002-1.599-0.621-3.102-1.75-4.23S1164.312,22.111,1162.714,22.111z"/>
	</g>
	<g>
		<path fill="#AFAEAE" d="M1159.337,31.467c1.861,1.859,4.879,1.858,6.738-0.003c1.861-1.861,1.863-4.879,0.004-6.738
			c-1.859-1.86-4.877-1.858-6.738,0.002C1157.479,26.59,1157.478,29.606,1159.337,31.467"/>
	</g>
	<g>
		<path fill="#929292" d="M1162.704,33.36L1162.704,33.36c-1.406,0-2.727-0.547-3.721-1.54c-2.051-2.052-2.05-5.393,0.004-7.446
			c0.994-0.995,2.318-1.543,3.725-1.543s2.727,0.548,3.721,1.541s1.541,2.315,1.541,3.722c-0.002,1.407-0.549,2.729-1.545,3.724
			C1165.435,32.813,1164.112,33.36,1162.704,33.36z M1162.712,23.831c-1.141,0-2.213,0.444-3.018,1.25
			c-1.664,1.664-1.664,4.37-0.004,6.032c0.805,0.805,1.875,1.247,3.014,1.247l0,0c1.141,0,2.211-0.443,3.018-1.25
			c0.807-0.805,1.25-1.877,1.252-3.017c0-1.14-0.443-2.21-1.248-3.015S1163.851,23.831,1162.712,23.831z"/>
	</g>
	<g>
		<g>
			<defs>
				
					<rect id="SVGID_7_" x="1158.215" y="23.608" transform="matrix(0.7072 -0.707 0.707 0.7072 320.559 830.2585)" width="8.987" height="8.976"/>
			</defs>
			<clipPath id="SVGID_8_">
				<use xlink:href="#SVGID_7_"  overflow="visible"/>
			</clipPath>
			<g clip-path="url(#SVGID_8_)">
				<path fill="#BEBEBD" d="M1159.532,31.272c1.752,1.754,4.596,1.751,6.35-0.003c1.754-1.755,1.756-4.599,0.004-6.351
					c-1.754-1.753-4.596-1.752-6.352,0.003C1157.78,26.676,1157.778,29.52,1159.532,31.272"/>
			</g>
			<g clip-path="url(#SVGID_8_)">
				<path fill="#C0C0C0" d="M1159.606,31.198c1.711,1.711,4.488,1.709,6.201-0.004s1.713-4.489,0.002-6.201
					c-1.711-1.711-4.486-1.711-6.201,0.004C1157.896,26.71,1157.895,29.486,1159.606,31.198"/>
			</g>
			<g clip-path="url(#SVGID_8_)">
				<path fill="#C2C3C3" d="M1159.681,31.124c1.67,1.669,4.381,1.669,6.053-0.003c1.672-1.673,1.672-4.382,0.002-6.052
					s-4.379-1.67-6.053,0.001C1158.013,26.743,1158.011,29.453,1159.681,31.124"/>
			</g>
			<g clip-path="url(#SVGID_8_)">
				<path fill="#C4C5C4" d="M1159.757,31.049c1.629,1.629,4.271,1.628,5.902-0.003c1.629-1.632,1.631-4.273,0.002-5.902
					s-4.271-1.628-5.902,0.002C1158.128,26.776,1158.126,29.42,1159.757,31.049"/>
			</g>
			<g clip-path="url(#SVGID_8_)">
				<path fill="#C6C8C8" d="M1159.831,30.974c1.586,1.588,4.162,1.586,5.752-0.002c1.59-1.59,1.59-4.166,0.004-5.754
					c-1.588-1.588-4.164-1.587-5.754,0.004C1158.243,26.81,1158.243,29.386,1159.831,30.974"/>
			</g>
			<g clip-path="url(#SVGID_8_)">
				<path fill="#C9CACB" d="M1159.905,30.899c1.547,1.546,4.055,1.545,5.604-0.003s1.549-4.057,0.002-5.604
					s-4.055-1.545-5.604,0.002C1158.358,26.843,1158.358,29.353,1159.905,30.899"/>
			</g>
			<g clip-path="url(#SVGID_8_)">
				<path fill="#CBCDCD" d="M1159.979,30.825c1.506,1.505,3.947,1.504,5.455-0.004c1.506-1.506,1.508-3.949,0.002-5.454
					s-3.947-1.505-5.455,0.002C1158.476,26.876,1158.474,29.319,1159.979,30.825"/>
			</g>
			<g clip-path="url(#SVGID_8_)">
				<path fill="#CCCFD0" d="M1160.056,30.749c1.461,1.465,3.839,1.465,5.305-0.001c1.465-1.465,1.465-3.842,0.002-5.305
					c-1.465-1.465-3.84-1.464-5.305,0.001C1158.591,26.909,1158.591,29.284,1160.056,30.749"/>
			</g>
			<g clip-path="url(#SVGID_8_)">
				<path fill="#D0D2D2" d="M1160.13,30.675c1.422,1.422,3.73,1.422,5.154-0.002c1.426-1.424,1.426-3.734,0.004-5.155
					c-1.424-1.424-3.732-1.423-5.156,0.001C1158.706,26.942,1158.706,29.252,1160.13,30.675"/>
			</g>
			<g clip-path="url(#SVGID_8_)">
				<path fill="#D2D4D5" d="M1160.204,30.601c1.381,1.381,3.623,1.38,5.006-0.002c1.383-1.384,1.385-3.626,0.002-5.007
					c-1.381-1.382-3.623-1.382-5.006,0.002S1158.823,29.219,1160.204,30.601"/>
			</g>
		</g>
	</g>
	<g>
		<polygon fill="#605F5E" points="1165.032,29.589 1163.538,28.097 1165.034,26.601 1164.204,25.771 1162.708,27.267 
			1161.216,25.771 1160.384,26.603 1161.878,28.097 1160.384,29.592 1161.212,30.421 1162.708,28.926 1164.202,30.419 		"/>
	</g>
	<g>
		<path fill="#221714" d="M1161.216,25.917l1.35,1.35l0.143,0.143l0.145-0.144l1.352-1.351l0.686,0.686l-1.352,1.351l-0.145,0.146
			l0.145,0.143l1.35,1.35l-0.688,0.686l-1.35-1.349l-0.143-0.145l-0.145,0.145l-1.352,1.351l-0.686-0.685l1.352-1.352l0.145-0.144
			l-0.145-0.145l-1.35-1.35L1161.216,25.917z M1161.735,28.097l-1.496,1.495l0.973,0.972l1.496-1.494l1.494,1.494l0.973-0.975
			l-1.494-1.492l1.496-1.496l-0.973-0.973l-1.496,1.494l-1.492-1.493l-0.975,0.974L1161.735,28.097z"/>
	</g>
</g>
<g>
	<path fill="#7583B9" d="M972.368,107.071c0,5.021-3.404,9.09-7.602,9.09H778.339c-4.197,0-7.601-4.068-7.601-9.09V27.329
		c0-5.021,3.403-9.092,7.601-9.092h186.428c4.197,0,7.602,4.07,7.602,9.092V107.071z"/>
	<path fill="#181919" d="M964.767,116.661H778.339c-4.467,0-8.101-4.302-8.101-9.59V27.329c0-5.289,3.634-9.592,8.101-9.592h186.428
		c4.467,0,8.102,4.303,8.102,9.592v79.742C972.868,112.359,969.233,116.661,964.767,116.661z M778.339,18.737
		c-3.915,0-7.101,3.854-7.101,8.592v79.742c0,4.736,3.186,8.59,7.101,8.59h186.428c3.916,0,7.102-3.854,7.102-8.59V27.329
		c0-4.737-3.186-8.592-7.102-8.592H778.339z"/>
</g>
<g>
	<g>
		<path fill="#AFAEAE" d="M776.961,32.684c2.53,2.531,6.637,2.528,9.17-0.005s2.534-6.639,0.005-9.17
			c-2.532-2.531-6.639-2.53-9.171,0.004C774.431,26.046,774.43,30.152,776.961,32.684"/>
	</g>
	<g>
		<path fill="#929292" d="M781.541,35.08L781.541,35.08c-1.865,0-3.617-0.726-4.934-2.043c-1.319-1.318-2.045-3.072-2.044-4.938
			c0-1.866,0.728-3.62,2.048-4.939c1.319-1.32,3.075-2.048,4.941-2.048c1.865,0,3.618,0.726,4.937,2.044s2.044,3.072,2.043,4.938
			c-0.001,1.866-0.729,3.62-2.048,4.939C785.163,34.353,783.408,35.08,781.541,35.08z M781.553,22.111
			c-1.6,0-3.104,0.623-4.234,1.755c-1.132,1.131-1.755,2.634-1.755,4.232c-0.001,1.599,0.621,3.102,1.751,4.231
			c1.128,1.129,2.629,1.75,4.227,1.75l0,0c1.6,0,3.104-0.623,4.236-1.755c1.131-1.131,1.754-2.634,1.755-4.232
			s-0.621-3.102-1.75-4.23C784.652,22.733,783.15,22.111,781.553,22.111z"/>
	</g>
	<g>
		<path fill="#AFAEAE" d="M778.177,31.467c1.86,1.859,4.878,1.858,6.738-0.003c1.861-1.861,1.863-4.879,0.003-6.738
			c-1.859-1.86-4.877-1.858-6.738,0.002C776.318,26.59,776.317,29.606,778.177,31.467"/>
	</g>
	<g>
		<path fill="#929292" d="M781.544,33.36L781.544,33.36c-1.406,0-2.728-0.547-3.721-1.54c-2.052-2.052-2.05-5.393,0.003-7.446
			c0.995-0.995,2.318-1.543,3.725-1.543s2.728,0.548,3.721,1.541c0.994,0.993,1.541,2.315,1.541,3.722
			c-0.001,1.407-0.549,2.729-1.544,3.724C784.273,32.813,782.951,33.36,781.544,33.36z M781.551,23.831
			c-1.14,0-2.212,0.444-3.018,1.25c-1.663,1.664-1.664,4.37-0.003,6.032c0.805,0.805,1.875,1.247,3.014,1.247l0,0
			c1.14,0,2.211-0.443,3.018-1.25c0.806-0.805,1.25-1.877,1.251-3.017c0-1.14-0.443-2.21-1.248-3.015S782.689,23.831,781.551,23.831
			z"/>
	</g>
	<g>
		<g>
			<defs>
				
					<rect id="SVGID_9_" x="777.055" y="23.608" transform="matrix(0.7072 -0.707 0.707 0.7072 208.9612 560.779)" width="8.987" height="8.976"/>
			</defs>
			<clipPath id="SVGID_10_">
				<use xlink:href="#SVGID_9_"  overflow="visible"/>
			</clipPath>
			<g clip-path="url(#SVGID_10_)">
				<path fill="#BEBEBD" d="M778.371,31.272c1.753,1.754,4.596,1.751,6.35-0.003c1.755-1.755,1.756-4.599,0.004-6.351
					c-1.753-1.753-4.596-1.752-6.351,0.003C776.619,26.676,776.618,29.52,778.371,31.272"/>
			</g>
			<g clip-path="url(#SVGID_10_)">
				<path fill="#C0C0C0" d="M778.446,31.198c1.711,1.711,4.487,1.709,6.2-0.004c1.714-1.713,1.714-4.489,0.004-6.201
					c-1.712-1.711-4.488-1.711-6.202,0.004C776.735,26.71,776.734,29.486,778.446,31.198"/>
			</g>
			<g clip-path="url(#SVGID_10_)">
				<path fill="#C2C3C3" d="M778.521,31.124c1.67,1.669,4.38,1.669,6.052-0.003c1.672-1.673,1.673-4.382,0.003-6.052
					s-4.38-1.67-6.053,0.001C776.852,26.743,776.85,29.453,778.521,31.124"/>
			</g>
			<g clip-path="url(#SVGID_10_)">
				<path fill="#C4C5C4" d="M778.596,31.049c1.629,1.629,4.271,1.628,5.901-0.003c1.631-1.632,1.633-4.273,0.004-5.902
					c-1.63-1.629-4.272-1.628-5.902,0.002C776.967,26.776,776.966,29.42,778.596,31.049"/>
			</g>
			<g clip-path="url(#SVGID_10_)">
				<path fill="#C6C8C8" d="M778.67,30.974c1.587,1.588,4.163,1.586,5.753-0.002c1.589-1.59,1.59-4.166,0.003-5.754
					c-1.588-1.588-4.164-1.587-5.754,0.004C777.083,26.81,777.081,29.386,778.67,30.974"/>
			</g>
			<g clip-path="url(#SVGID_10_)">
				<path fill="#C9CACB" d="M778.745,30.899c1.546,1.546,4.055,1.545,5.603-0.003c1.549-1.548,1.549-4.057,0.003-5.604
					c-1.547-1.547-4.056-1.545-5.604,0.002C777.198,26.843,777.198,29.353,778.745,30.899"/>
			</g>
			<g clip-path="url(#SVGID_10_)">
				<path fill="#CBCDCD" d="M778.819,30.825c1.505,1.505,3.947,1.504,5.454-0.004c1.507-1.506,1.508-3.949,0.003-5.454
					c-1.506-1.505-3.947-1.505-5.455,0.002C777.314,26.876,777.313,29.319,778.819,30.825"/>
			</g>
			<g clip-path="url(#SVGID_10_)">
				<path fill="#CCCFD0" d="M778.895,30.749c1.463,1.465,3.84,1.465,5.305-0.001c1.466-1.465,1.466-3.842,0.003-5.305
					c-1.465-1.465-3.841-1.464-5.306,0.001C777.431,26.909,777.43,29.284,778.895,30.749"/>
			</g>
			<g clip-path="url(#SVGID_10_)">
				<path fill="#D0D2D2" d="M778.97,30.675c1.422,1.422,3.73,1.422,5.154-0.002c1.425-1.424,1.426-3.734,0.003-5.155
					c-1.424-1.424-3.732-1.423-5.156,0.001C777.546,26.942,777.546,29.252,778.97,30.675"/>
			</g>
			<g clip-path="url(#SVGID_10_)">
				<path fill="#D2D4D5" d="M779.043,30.601c1.382,1.381,3.623,1.38,5.007-0.002c1.383-1.384,1.384-3.626,0.002-5.007
					c-1.382-1.382-3.623-1.382-5.006,0.002C777.662,26.978,777.662,29.219,779.043,30.601"/>
			</g>
		</g>
	</g>
	<g>
		<polygon fill="#605F5E" points="783.871,29.589 782.377,28.097 783.872,26.601 783.043,25.771 781.548,27.267 780.055,25.771 
			779.224,26.603 780.718,28.097 779.223,29.592 780.052,30.421 781.547,28.926 783.041,30.419 		"/>
	</g>
	<g>
		<path fill="#221714" d="M780.055,25.917l1.35,1.35l0.144,0.143l0.144-0.144l1.352-1.351l0.686,0.686l-1.352,1.351l-0.144,0.146
			l0.144,0.143l1.35,1.35l-0.687,0.686l-1.35-1.349l-0.144-0.145l-0.144,0.145l-1.352,1.351l-0.686-0.685l1.352-1.352l0.144-0.144
			l-0.144-0.145l-1.351-1.35L780.055,25.917z M780.574,28.097l-1.495,1.495l0.973,0.972l1.495-1.494l1.494,1.494l0.974-0.975
			l-1.494-1.492l1.496-1.496l-0.974-0.973l-1.495,1.494l-1.493-1.493l-0.974,0.974L780.574,28.097z"/>
	</g>
</g>
<g>
	<g>
		<path fill="#AFAEAE" d="M956.493,32.684c2.529,2.531,6.637,2.528,9.17-0.005s2.535-6.639,0.004-9.17
			c-2.531-2.531-6.637-2.53-9.17,0.004C953.962,26.046,953.962,30.152,956.493,32.684"/>
	</g>
	<g>
		<path fill="#929292" d="M961.073,35.08L961.073,35.08c-1.865,0-3.617-0.726-4.934-2.043c-1.318-1.318-2.045-3.072-2.045-4.938
			c0.002-1.866,0.729-3.62,2.049-4.939c1.32-1.32,3.074-2.048,4.941-2.048c1.865,0,3.617,0.726,4.936,2.044s2.045,3.072,2.043,4.938
			c0,1.866-0.727,3.62-2.047,4.939C964.696,34.353,962.94,35.08,961.073,35.08z M961.085,22.111c-1.6,0-3.104,0.623-4.234,1.755
			c-1.131,1.131-1.754,2.634-1.756,4.232c0,1.599,0.621,3.102,1.752,4.231c1.129,1.129,2.629,1.75,4.227,1.75l0,0
			c1.6,0,3.104-0.623,4.236-1.755c1.131-1.131,1.754-2.634,1.754-4.232c0.002-1.599-0.619-3.102-1.75-4.23
			C964.185,22.733,962.683,22.111,961.085,22.111z"/>
	</g>
	<g>
		<path fill="#AFAEAE" d="M957.71,31.467c1.859,1.859,4.877,1.858,6.736-0.003c1.862-1.861,1.863-4.879,0.004-6.738
			c-1.859-1.86-4.877-1.858-6.738,0.002C955.851,26.59,955.849,29.606,957.71,31.467"/>
	</g>
	<g>
		<path fill="#929292" d="M961.077,33.36c-0.002,0-0.002,0-0.002,0c-1.404,0-2.727-0.547-3.719-1.54
			c-2.053-2.052-2.051-5.393,0.002-7.446c0.994-0.995,2.318-1.543,3.725-1.543s2.727,0.548,3.721,1.541s1.541,2.315,1.541,3.722
			c-0.002,1.407-0.549,2.729-1.545,3.724C963.806,32.813,962.483,33.36,961.077,33.36z M961.083,23.831
			c-1.139,0-2.211,0.444-3.018,1.25c-1.664,1.664-1.664,4.37-0.003,6.032c0.806,0.805,1.874,1.247,3.013,1.247h0.002
			c1.139,0,2.211-0.443,3.016-1.25c0.807-0.805,1.252-1.877,1.252-3.017s-0.443-2.21-1.248-3.015S962.222,23.831,961.083,23.831z"/>
	</g>
	<g>
		<g>
			<defs>
				
					<rect id="SVGID_11_" x="956.586" y="23.608" transform="matrix(0.7072 -0.707 0.707 0.7072 261.5253 687.7076)" width="8.987" height="8.976"/>
			</defs>
			<clipPath id="SVGID_12_">
				<use xlink:href="#SVGID_11_"  overflow="visible"/>
			</clipPath>
			<g clip-path="url(#SVGID_12_)">
				<path fill="#BEBEBD" d="M957.903,31.272c1.752,1.754,4.596,1.751,6.35-0.003c1.754-1.755,1.756-4.599,0.004-6.351
					c-1.754-1.753-4.596-1.752-6.35,0.003C956.151,26.676,956.149,29.52,957.903,31.272"/>
			</g>
			<g clip-path="url(#SVGID_12_)">
				<path fill="#C0C0C0" d="M957.978,31.198c1.711,1.711,4.488,1.709,6.201-0.004s1.713-4.489,0.004-6.201
					c-1.713-1.711-4.488-1.711-6.201,0.004C956.267,26.71,956.267,29.486,957.978,31.198"/>
			</g>
			<g clip-path="url(#SVGID_12_)">
				<path fill="#C2C3C3" d="M958.052,31.124c1.67,1.669,4.381,1.669,6.053-0.003c1.672-1.673,1.672-4.382,0.002-6.052
					s-4.379-1.67-6.051,0.001C956.384,26.743,956.382,29.453,958.052,31.124"/>
			</g>
			<g clip-path="url(#SVGID_12_)">
				<path fill="#C4C5C4" d="M958.128,31.049c1.629,1.629,4.271,1.628,5.902-0.003c1.631-1.632,1.631-4.273,0.002-5.902
					s-4.271-1.628-5.902,0.002C956.499,26.776,956.497,29.42,958.128,31.049"/>
			</g>
			<g clip-path="url(#SVGID_12_)">
				<path fill="#C6C8C8" d="M958.202,30.974c1.588,1.588,4.162,1.586,5.752-0.002c1.59-1.59,1.59-4.166,0.004-5.754
					c-1.588-1.588-4.164-1.587-5.754,0.004C956.614,26.81,956.614,29.386,958.202,30.974"/>
			</g>
			<g clip-path="url(#SVGID_12_)">
				<path fill="#C9CACB" d="M958.276,30.899c1.547,1.546,4.055,1.545,5.604-0.003s1.549-4.057,0.002-5.604s-4.055-1.545-5.604,0.002
					C956.731,26.843,956.729,29.353,958.276,30.899"/>
			</g>
			<g clip-path="url(#SVGID_12_)">
				<path fill="#CBCDCD" d="M958.351,30.825c1.506,1.505,3.947,1.504,5.455-0.004c1.506-1.506,1.508-3.949,0.002-5.454
					s-3.947-1.505-5.455,0.002C956.847,26.876,956.847,29.319,958.351,30.825"/>
			</g>
			<g clip-path="url(#SVGID_12_)">
				<path fill="#CCCFD0" d="M958.427,30.749c1.463,1.465,3.84,1.465,5.305-0.001c1.465-1.465,1.465-3.842,0.002-5.305
					c-1.465-1.465-3.84-1.464-5.305,0.001C956.962,26.909,956.962,29.284,958.427,30.749"/>
			</g>
			<g clip-path="url(#SVGID_12_)">
				<path fill="#D0D2D2" d="M958.501,30.675c1.422,1.422,3.73,1.422,5.154-0.002c1.426-1.424,1.426-3.734,0.004-5.155
					c-1.424-1.424-3.732-1.423-5.156,0.001C957.077,26.942,957.077,29.252,958.501,30.675"/>
			</g>
			<g clip-path="url(#SVGID_12_)">
				<path fill="#D2D4D5" d="M958.575,30.601c1.381,1.381,3.623,1.38,5.006-0.002c1.383-1.384,1.385-3.626,0.004-5.007
					c-1.383-1.382-3.625-1.382-5.008,0.002S957.194,29.219,958.575,30.601"/>
			</g>
		</g>
	</g>
	<g>
		<polygon fill="#605F5E" points="963.403,29.589 961.909,28.097 963.405,26.601 962.575,25.771 961.079,27.267 959.587,25.771 
			958.755,26.603 960.249,28.097 958.755,29.592 959.583,30.421 961.079,28.926 962.573,30.419 		"/>
	</g>
	<g>
		<path fill="#221714" d="M959.587,25.917l1.35,1.35l0.143,0.143l0.145-0.144l1.352-1.351l0.686,0.686l-1.352,1.351l-0.145,0.146
			l0.145,0.143l1.35,1.35l-0.686,0.686l-1.352-1.349l-0.143-0.145l-0.145,0.145l-1.35,1.351l-0.688-0.685l1.352-1.352l0.145-0.144
			l-0.145-0.145l-1.35-1.35L959.587,25.917z M960.106,28.097l-1.496,1.495l0.975,0.972l1.494-1.494l1.494,1.494l0.973-0.975
			l-1.494-1.492l1.496-1.496l-0.973-0.973l-1.496,1.494l-1.492-1.493l-0.975,0.974L960.106,28.097z"/>
	</g>
</g>
<g>
	<circle fill="#181919" cx="559.925" cy="15.476" r="3.946"/>
</g>
<g>
	<circle fill="#181919" cx="559.925" cy="28.834" r="3.946"/>
</g>
<g>
	<circle fill="#181919" cx="559.925" cy="44.019" r="3.946"/>
</g>
<g>
	<circle fill="#181919" cx="570.937" cy="22.44" r="3.946"/>
</g>
<g>
	<circle fill="#181919" cx="570.937" cy="37.159" r="3.946"/>
</g>
<g>
	<circle fill="#181919" cx="581.504" cy="15.476" r="3.946"/>
</g>
<g>
	<circle fill="#181919" cx="581.504" cy="28.834" r="3.946"/>
</g>
<g>
	<circle fill="#181919" cx="581.504" cy="44.019" r="3.946"/>
</g>
<g>
	<circle fill="#181919" cx="592.967" cy="22.44" r="3.946"/>
</g>
<g>
	<circle fill="#181919" cx="592.967" cy="37.159" r="3.946"/>
</g>
<g>
	<circle fill="#181919" cx="603.534" cy="15.476" r="3.946"/>
</g>
<g>
	<circle fill="#181919" cx="603.534" cy="28.834" r="3.946"/>
</g>
<g>
	<circle fill="#181919" cx="603.534" cy="44.019" r="3.946"/>
</g>
<g>
	<circle fill="#181919" cx="615.611" cy="22.44" r="3.946"/>
</g>
<g>
	<circle fill="#181919" cx="615.611" cy="37.159" r="3.946"/>
</g>
<g>
	<circle fill="#181919" cx="626.179" cy="15.476" r="3.946"/>
</g>
<g>
	<circle fill="#181919" cx="626.179" cy="28.834" r="3.946"/>
</g>
<g>
	<circle fill="#181919" cx="626.179" cy="44.019" r="3.946"/>
</g>
<g>
	<circle fill="#181919" cx="638.256" cy="22.44" r="3.946"/>
</g>
<g>
	<circle fill="#181919" cx="638.256" cy="37.159" r="3.946"/>
</g>
<g>
	<circle fill="#181919" cx="648.823" cy="15.476" r="3.946"/>
</g>
<g>
	<circle fill="#181919" cx="648.823" cy="28.834" r="3.946"/>
</g>
<g>
	<circle fill="#181919" cx="648.823" cy="44.019" r="3.946"/>
</g>
<g>
	<circle fill="#181919" cx="660.9" cy="22.44" r="3.946"/>
</g>
<g>
	<circle fill="#181919" cx="660.9" cy="37.159" r="3.946"/>
</g>
<g>
	<circle fill="#181919" cx="671.468" cy="15.476" r="3.946"/>
</g>
<g>
	<circle fill="#181919" cx="671.468" cy="28.834" r="3.946"/>
</g>
<g>
	<circle fill="#181919" cx="671.468" cy="44.019" r="3.946"/>
</g>
<g>
	<circle fill="#181919" cx="683.545" cy="22.44" r="3.946"/>
</g>
<g>
	<circle fill="#181919" cx="683.545" cy="37.159" r="3.946"/>
</g>
<g>
	<circle fill="#181919" cx="694.112" cy="15.476" r="3.946"/>
</g>
<g>
	<circle fill="#181919" cx="694.112" cy="28.834" r="3.946"/>
</g>
<g>
	<circle fill="#181919" cx="694.112" cy="44.019" r="3.946"/>
</g>
<g>
	<circle fill="#181919" cx="706.189" cy="22.44" r="3.946"/>
</g>
<g>
	<circle fill="#181919" cx="706.189" cy="37.159" r="3.946"/>
</g>
<g>
	<circle fill="#181919" cx="716.757" cy="15.476" r="3.946"/>
</g>
<g>
	<circle fill="#181919" cx="716.757" cy="28.834" r="3.946"/>
</g>
<g>
	<circle fill="#181919" cx="716.757" cy="44.019" r="3.946"/>
</g>
<g>
	<circle fill="#181919" cx="728.834" cy="22.44" r="3.946"/>
</g>
<g>
	<circle fill="#181919" cx="728.834" cy="37.159" r="3.946"/>
</g>
<g>
	<circle fill="#181919" cx="739.401" cy="15.476" r="3.946"/>
</g>
<g>
	<circle fill="#181919" cx="739.401" cy="28.834" r="3.946"/>
</g>
<g>
	<circle fill="#181919" cx="739.401" cy="44.019" r="3.946"/>
</g>
<g>
	<circle fill="#181919" cx="796.188" cy="26.607" r="3.328"/>
</g>
<g>
	<circle fill="#181919" cx="796.188" cy="37.871" r="3.328"/>
</g>
<g>
	<circle fill="#181919" cx="796.188" cy="50.676" r="3.328"/>
</g>
<g>
	<circle fill="#181919" cx="805.473" cy="32.48" r="3.328"/>
</g>
<g>
	<circle fill="#181919" cx="805.473" cy="44.892" r="3.328"/>
</g>
<g>
	<circle fill="#181919" cx="814.384" cy="26.607" r="3.328"/>
</g>
<g>
	<circle fill="#181919" cx="814.384" cy="37.871" r="3.328"/>
</g>
<g>
	<circle fill="#181919" cx="814.384" cy="50.676" r="3.328"/>
</g>
<g>
	<circle fill="#181919" cx="824.051" cy="32.48" r="3.327"/>
</g>
<g>
	<circle fill="#181919" cx="824.051" cy="44.892" r="3.327"/>
</g>
<g>
	<circle fill="#181919" cx="832.96" cy="26.607" r="3.328"/>
</g>
<g>
	<circle fill="#181919" cx="832.96" cy="37.871" r="3.328"/>
</g>
<g>
	<circle fill="#181919" cx="832.96" cy="50.676" r="3.328"/>
</g>
<g>
	<circle fill="#181919" cx="843.144" cy="32.48" r="3.328"/>
</g>
<g>
	<circle fill="#181919" cx="843.144" cy="44.892" r="3.328"/>
</g>
<g>
	<circle fill="#181919" cx="852.055" cy="26.607" r="3.328"/>
</g>
<g>
	<circle fill="#181919" cx="852.055" cy="37.871" r="3.328"/>
</g>
<g>
	<circle fill="#181919" cx="852.055" cy="50.676" r="3.328"/>
</g>
<g>
	<circle fill="#181919" cx="862.239" cy="32.48" r="3.328"/>
</g>
<g>
	<circle fill="#181919" cx="862.239" cy="44.892" r="3.328"/>
</g>
<g>
	<circle fill="#181919" cx="871.149" cy="26.607" r="3.327"/>
</g>
<g>
	<circle fill="#181919" cx="871.149" cy="37.871" r="3.327"/>
</g>
<g>
	<circle fill="#181919" cx="871.149" cy="50.676" r="3.327"/>
</g>
<g>
	<circle fill="#181919" cx="881.333" cy="32.48" r="3.328"/>
</g>
<g>
	<circle fill="#181919" cx="881.333" cy="44.892" r="3.328"/>
</g>
<g>
	<circle fill="#181919" cx="890.244" cy="26.607" r="3.327"/>
</g>
<g>
	<circle fill="#181919" cx="890.244" cy="37.871" r="3.327"/>
</g>
<g>
	<circle fill="#181919" cx="890.244" cy="50.676" r="3.327"/>
</g>
<g>
	<circle fill="#181919" cx="900.428" cy="32.48" r="3.327"/>
</g>
<g>
	<circle fill="#181919" cx="900.428" cy="44.892" r="3.327"/>
</g>
<g>
	<circle fill="#181919" cx="909.338" cy="26.607" r="3.328"/>
</g>
<g>
	<circle fill="#181919" cx="909.338" cy="37.871" r="3.328"/>
</g>
<g>
	<circle fill="#181919" cx="909.338" cy="50.676" r="3.328"/>
</g>
<g>
	<circle fill="#181919" cx="919.521" cy="32.48" r="3.327"/>
</g>
<g>
	<circle fill="#181919" cx="919.521" cy="44.892" r="3.327"/>
</g>
<g>
	<circle fill="#181919" cx="928.433" cy="26.607" r="3.328"/>
</g>
<g>
	<circle fill="#181919" cx="928.433" cy="37.871" r="3.328"/>
</g>
<g>
	<circle fill="#181919" cx="928.433" cy="50.676" r="3.328"/>
</g>
<g>
	<circle fill="#181919" cx="938.616" cy="32.48" r="3.328"/>
</g>
<g>
	<circle fill="#181919" cx="938.616" cy="44.892" r="3.328"/>
</g>
<g>
	<circle fill="#181919" cx="947.527" cy="26.607" r="3.327"/>
</g>
<g>
	<circle fill="#181919" cx="947.527" cy="37.871" r="3.327"/>
</g>
<g>
	<circle fill="#181919" cx="947.527" cy="50.676" r="3.327"/>
</g>
<g>
	<circle fill="#181919" cx="997.512" cy="26.607" r="3.327"/>
</g>
<g>
	<circle fill="#181919" cx="997.512" cy="37.871" r="3.327"/>
</g>
<g>
	<circle fill="#181919" cx="997.512" cy="50.676" r="3.327"/>
</g>
<g>
	<circle fill="#181919" cx="1006.797" cy="32.48" r="3.327"/>
</g>
<g>
	<circle fill="#181919" cx="1006.797" cy="44.892" r="3.327"/>
</g>
<g>
	<circle fill="#181919" cx="1015.708" cy="26.607" r="3.328"/>
</g>
<g>
	<circle fill="#181919" cx="1015.708" cy="37.871" r="3.328"/>
</g>
<g>
	<circle fill="#181919" cx="1015.708" cy="50.676" r="3.328"/>
</g>
<g>
	<circle fill="#181919" cx="1025.374" cy="32.48" r="3.327"/>
</g>
<g>
	<circle fill="#181919" cx="1025.374" cy="44.892" r="3.327"/>
</g>
<g>
	<circle fill="#181919" cx="1034.284" cy="26.607" r="3.328"/>
</g>
<g>
	<circle fill="#181919" cx="1034.284" cy="37.871" r="3.328"/>
</g>
<g>
	<circle fill="#181919" cx="1034.284" cy="50.676" r="3.328"/>
</g>
<g>
	<circle fill="#181919" cx="1044.468" cy="32.48" r="3.328"/>
</g>
<g>
	<circle fill="#181919" cx="1044.468" cy="44.892" r="3.328"/>
</g>
<g>
	<circle fill="#181919" cx="1053.379" cy="26.607" r="3.327"/>
</g>
<g>
	<circle fill="#181919" cx="1053.379" cy="37.871" r="3.327"/>
</g>
<g>
	<circle fill="#181919" cx="1053.379" cy="50.676" r="3.327"/>
</g>
<g>
	<circle fill="#181919" cx="1063.562" cy="32.48" r="3.328"/>
</g>
<g>
	<circle fill="#181919" cx="1063.562" cy="44.892" r="3.328"/>
</g>
<g>
	<circle fill="#181919" cx="1072.473" cy="26.607" r="3.327"/>
</g>
<g>
	<circle fill="#181919" cx="1072.473" cy="37.871" r="3.327"/>
</g>
<g>
	<circle fill="#181919" cx="1072.473" cy="50.676" r="3.327"/>
</g>
<g>
	<circle fill="#181919" cx="1082.657" cy="32.48" r="3.328"/>
</g>
<g>
	<circle fill="#181919" cx="1082.657" cy="44.892" r="3.328"/>
</g>
<g>
	<circle fill="#181919" cx="1091.568" cy="26.607" r="3.328"/>
</g>
<g>
	<circle fill="#181919" cx="1091.568" cy="37.871" r="3.328"/>
</g>
<g>
	<circle fill="#181919" cx="1091.568" cy="50.676" r="3.328"/>
</g>
<g>
	<circle fill="#181919" cx="1101.751" cy="32.48" r="3.328"/>
</g>
<g>
	<circle fill="#181919" cx="1101.751" cy="44.892" r="3.328"/>
</g>
<g>
	<circle fill="#181919" cx="1110.662" cy="26.607" r="3.327"/>
</g>
<g>
	<circle fill="#181919" cx="1110.662" cy="37.871" r="3.327"/>
</g>
<g>
	<circle fill="#181919" cx="1110.662" cy="50.676" r="3.327"/>
</g>
<g>
	<circle fill="#181919" cx="1120.846" cy="32.48" r="3.327"/>
</g>
<g>
	<circle fill="#181919" cx="1120.846" cy="44.892" r="3.327"/>
</g>
<g>
	<circle fill="#181919" cx="1129.756" cy="26.607" r="3.328"/>
</g>
<g>
	<circle fill="#181919" cx="1129.756" cy="37.871" r="3.328"/>
</g>
<g>
	<circle fill="#181919" cx="1129.756" cy="50.676" r="3.328"/>
</g>
<g>
	<circle fill="#181919" cx="1139.94" cy="32.48" r="3.328"/>
</g>
<g>
	<circle fill="#181919" cx="1139.94" cy="44.892" r="3.328"/>
</g>
<g>
	<circle fill="#181919" cx="1148.851" cy="26.607" r="3.328"/>
</g>
<g>
	<circle fill="#181919" cx="1148.851" cy="37.871" r="3.328"/>
</g>
<g>
	<circle fill="#181919" cx="1148.851" cy="50.676" r="3.328"/>
</g>
<g>
	<path fill="#F1F1F1" d="M428.192,95.351c0,2.387-1.791,4.322-4,4.322h-36.374c-2.209,0-4-1.936-4-4.322V19.797
		c0-2.387,1.791-4.321,4-4.321h36.374c2.209,0,4,1.935,4,4.321V95.351z"/>
	<path fill="#181919" d="M424.192,100.173h-36.374c-2.481,0-4.5-2.163-4.5-4.822V19.797c0-2.657,2.019-4.821,4.5-4.821h36.374
		c2.481,0,4.5,2.164,4.5,4.821v75.554C428.692,98.01,426.674,100.173,424.192,100.173z M387.818,15.976c-1.93,0-3.5,1.714-3.5,3.821
		v75.554c0,2.107,1.57,3.822,3.5,3.822h36.374c1.929,0,3.5-1.715,3.5-3.822V19.797c0-2.107-1.571-3.821-3.5-3.821H387.818z"/>
</g>
<g>
	<path fill="#F8F8FA" d="M573.277,111.163l0.71-0.119c0.105,0.344,0.276,0.625,0.514,0.849c0.236,0.224,0.532,0.329,0.888,0.315
		c0.354-0.013,0.637-0.158,0.848-0.434c0.21-0.276,0.302-0.592,0.276-0.947c-0.026-0.354-0.165-0.631-0.414-0.828
		c-0.251-0.197-0.651-0.335-1.203-0.414v-0.513c0.552-0.053,0.952-0.197,1.203-0.435c0.249-0.236,0.361-0.545,0.335-0.927
		c-0.026-0.381-0.197-0.657-0.513-0.828s-0.651-0.19-1.006-0.06c-0.355,0.132-0.638,0.5-0.849,1.104l-0.71-0.118
		c0.158-0.474,0.375-0.868,0.651-1.184c0.275-0.315,0.65-0.499,1.124-0.553c0.474-0.052,0.888,0.007,1.242,0.178
		c0.355,0.172,0.605,0.435,0.75,0.789c0.145,0.355,0.164,0.743,0.06,1.164c-0.105,0.421-0.408,0.789-0.908,1.104
		c0.368,0.158,0.651,0.395,0.849,0.71s0.263,0.729,0.197,1.244c-0.066,0.512-0.296,0.926-0.69,1.241s-0.842,0.468-1.341,0.454
		c-0.5-0.014-0.935-0.171-1.303-0.474C573.619,112.183,573.383,111.741,573.277,111.163z"/>
</g>
<g>
	<path fill="#F8F8FA" d="M385.944,107.11c-0.099,0.741-0.367,1.322-0.806,1.744c-0.439,0.421-0.995,0.631-1.667,0.631
		c-0.783,0-1.406-0.285-1.871-0.856s-0.697-1.34-0.697-2.308s0.241-1.739,0.724-2.313c0.483-0.574,1.132-0.861,1.945-0.861
		c0.642,0,1.168,0.175,1.58,0.523s0.659,0.83,0.741,1.443h-0.741c-0.073-0.397-0.247-0.705-0.523-0.922
		c-0.277-0.217-0.633-0.325-1.068-0.325c-0.569,0-1.022,0.222-1.359,0.665c-0.338,0.442-0.506,1.039-0.506,1.789
		c0,0.796,0.156,1.402,0.469,1.819c0.313,0.417,0.767,0.626,1.362,0.626c0.439,0,0.806-0.145,1.097-0.432
		c0.291-0.288,0.484-0.695,0.579-1.225H385.944z"/>
	<path fill="#F8F8FA" d="M387.474,108.803c-0.354-0.425-0.531-0.982-0.531-1.672c0-0.692,0.177-1.252,0.531-1.677
		c0.354-0.426,0.816-0.638,1.389-0.638c0.576,0,1.041,0.212,1.394,0.638c0.354,0.425,0.529,0.984,0.529,1.677
		c0,0.689-0.176,1.247-0.529,1.672c-0.353,0.426-0.817,0.638-1.394,0.638C388.29,109.44,387.827,109.229,387.474,108.803z
		 M389.734,108.354c0.217-0.303,0.325-0.711,0.325-1.223c0-0.513-0.108-0.921-0.325-1.226c-0.216-0.304-0.507-0.455-0.872-0.455
		c-0.366,0-0.656,0.151-0.871,0.455c-0.216,0.305-0.323,0.713-0.323,1.226c0,0.512,0.107,0.92,0.323,1.223
		c0.215,0.302,0.505,0.453,0.871,0.453C389.228,108.807,389.519,108.655,389.734,108.354z"/>
	<path fill="#F8F8FA" d="M391.973,104.947h0.328h0.333v0.646l0.154-0.217c0.301-0.373,0.679-0.56,1.132-0.56
		c0.455,0,0.807,0.131,1.055,0.393c0.247,0.263,0.37,0.634,0.37,1.116v2.997h-0.348h-0.348v-2.748c0-0.384-0.07-0.662-0.21-0.832
		c-0.141-0.17-0.368-0.256-0.682-0.256c-0.335,0-0.601,0.135-0.796,0.403c-0.196,0.269-0.294,0.632-0.294,1.09v2.343h-0.348h-0.348
		V104.947z"/>
	<path fill="#F8F8FA" d="M399.135,106.215c-0.021-0.243-0.114-0.431-0.28-0.564s-0.39-0.2-0.67-0.2
		c-0.289,0-0.509,0.053-0.659,0.159s-0.226,0.262-0.226,0.466c0,0.155,0.053,0.273,0.158,0.352c0.105,0.079,0.315,0.158,0.63,0.237
		l0.719,0.18c0.401,0.104,0.688,0.247,0.861,0.43c0.171,0.18,0.256,0.433,0.256,0.757c0,0.434-0.147,0.776-0.442,1.03
		s-0.693,0.38-1.195,0.38c-0.582,0-1.017-0.121-1.302-0.365c-0.286-0.244-0.444-0.628-0.476-1.151h0.668
		c0.034,0.311,0.138,0.535,0.312,0.675c0.174,0.139,0.439,0.208,0.798,0.208c0.312,0,0.549-0.063,0.709-0.188
		c0.161-0.126,0.242-0.309,0.242-0.548c0-0.153-0.053-0.269-0.158-0.348s-0.318-0.158-0.638-0.237l-0.719-0.18
		c-0.389-0.099-0.666-0.236-0.83-0.413c-0.166-0.175-0.248-0.42-0.248-0.736c0-0.411,0.139-0.738,0.415-0.979
		s0.652-0.361,1.126-0.361c0.481,0,0.864,0.124,1.148,0.372s0.436,0.59,0.454,1.026H399.135z"/>
	<path fill="#F8F8FA" d="M401.414,108.803c-0.354-0.425-0.53-0.982-0.53-1.672c0-0.692,0.177-1.252,0.53-1.677
		c0.354-0.426,0.817-0.638,1.389-0.638c0.577,0,1.042,0.212,1.395,0.638c0.354,0.425,0.529,0.984,0.529,1.677
		c0,0.689-0.176,1.247-0.529,1.672c-0.353,0.426-0.817,0.638-1.395,0.638C402.231,109.44,401.769,109.229,401.414,108.803z
		 M403.676,108.354c0.217-0.303,0.325-0.711,0.325-1.223c0-0.513-0.108-0.921-0.325-1.226c-0.216-0.304-0.507-0.455-0.873-0.455
		c-0.365,0-0.655,0.151-0.871,0.455c-0.215,0.305-0.322,0.713-0.322,1.226c0,0.512,0.107,0.92,0.322,1.223
		c0.216,0.302,0.506,0.453,0.871,0.453C403.169,108.807,403.46,108.655,403.676,108.354z"/>
	<path fill="#F8F8FA" d="M405.93,103.312h0.348h0.348v6.011h-0.348h-0.348V103.312z"/>
	<path fill="#F8F8FA" d="M409.751,109.44c-0.584,0-1.044-0.196-1.379-0.589c-0.334-0.393-0.502-0.935-0.502-1.627
		c0-0.736,0.177-1.321,0.531-1.757c0.354-0.435,0.83-0.651,1.428-0.651c0.54,0,0.977,0.212,1.309,0.638
		c0.333,0.425,0.499,0.984,0.499,1.677l-0.009,0.262h-3.019c0.028,0.436,0.122,0.769,0.282,0.997
		c0.195,0.278,0.504,0.417,0.926,0.417c0.266,0,0.497-0.079,0.695-0.236c0.198-0.158,0.319-0.36,0.363-0.605h0.688
		c-0.104,0.479-0.31,0.846-0.618,1.098C410.636,109.314,410.238,109.44,409.751,109.44z M410.912,106.799
		c-0.021-0.405-0.116-0.722-0.286-0.948c-0.188-0.251-0.464-0.376-0.827-0.376c-0.365,0-0.657,0.145-0.877,0.434
		c-0.172,0.226-0.276,0.523-0.313,0.891H410.912z"/>
	<path fill="#F8F8FA" d="M414.678,103.156l-1.933,6.329h-0.527l1.933-6.329H414.678z"/>
	<path fill="#F8F8FA" d="M420.037,107.118c0,0.741-0.197,1.321-0.591,1.74c-0.395,0.418-0.941,0.627-1.642,0.627
		c-0.729,0-1.284-0.2-1.665-0.603s-0.571-0.99-0.571-1.765v-3.807h0.382h0.387v3.745c0,0.56,0.125,0.983,0.374,1.274
		c0.25,0.29,0.614,0.436,1.094,0.436c0.479,0,0.843-0.146,1.091-0.436c0.249-0.291,0.373-0.715,0.373-1.274v-3.745h0.382h0.387
		V107.118z"/>
	<path fill="#F8F8FA" d="M425.112,105.053c-0.033-0.379-0.175-0.671-0.423-0.877c-0.248-0.204-0.582-0.309-1.002-0.309
		c-0.433,0-0.761,0.089-0.985,0.266c-0.224,0.178-0.336,0.437-0.336,0.777c0,0.231,0.074,0.404,0.224,0.521
		c0.149,0.113,0.45,0.227,0.9,0.338l0.989,0.25c0.53,0.133,0.909,0.331,1.136,0.593c0.228,0.259,0.341,0.625,0.341,1.1
		c0,0.546-0.195,0.978-0.585,1.297c-0.391,0.318-0.919,0.478-1.586,0.478c-0.742,0-1.322-0.184-1.739-0.552
		c-0.407-0.362-0.61-0.858-0.61-1.488V107.4h0.707c0.013,0.437,0.162,0.772,0.448,1.01s0.684,0.356,1.194,0.356
		c0.472,0,0.83-0.086,1.074-0.258c0.245-0.172,0.367-0.424,0.367-0.757c0-0.289-0.08-0.503-0.241-0.642
		c-0.16-0.137-0.482-0.267-0.967-0.389l-0.99-0.25c-0.5-0.125-0.857-0.3-1.071-0.523c-0.213-0.223-0.319-0.532-0.319-0.928
		c0-0.575,0.185-1.031,0.554-1.368c0.37-0.336,0.868-0.505,1.497-0.505c0.638,0,1.146,0.169,1.524,0.507
		c0.379,0.339,0.581,0.805,0.606,1.398H425.112z"/>
	<path fill="#F8F8FA" d="M427.31,103.312h0.383h2.112c0.484,0,0.875,0.131,1.171,0.395c0.296,0.263,0.444,0.609,0.444,1.04
		c0,0.499-0.176,0.889-0.525,1.17c-0.08,0.065-0.166,0.121-0.259,0.168c0.188,0.07,0.352,0.159,0.49,0.266
		c0.37,0.286,0.557,0.683,0.557,1.189c0,0.56-0.181,0.996-0.543,1.311c-0.361,0.315-0.864,0.473-1.509,0.473h-1.938h-0.383V103.312z
		 M428.078,105.871h1.372c0.417,0,0.722-0.08,0.915-0.239s0.29-0.41,0.29-0.755c0-0.3-0.089-0.52-0.267-0.66
		s-0.457-0.211-0.839-0.211h-1.472V105.871z M428.078,108.627h1.564c0.44,0,0.764-0.09,0.968-0.27
		c0.205-0.18,0.308-0.464,0.308-0.851c0-0.338-0.107-0.586-0.321-0.742c-0.214-0.157-0.55-0.235-1.008-0.235h-1.511V108.627z"/>
</g>
<g>
	<path fill="#F8F8FA" d="M625.389,111.36h-3.037v-0.671l3.195-4.616h0.592v4.616h0.946v0.671h-0.946v1.499h-0.75V111.36z
		 M625.389,110.689v-3.116l-2.209,3.116H625.389z"/>
</g>
<g>
	<path fill="#F8F8FA" d="M672.45,111.005c0.184,0.71,0.499,1.104,0.947,1.184c0.446,0.079,0.809,0.033,1.085-0.139
		c0.275-0.17,0.473-0.394,0.591-0.67c0.119-0.276,0.171-0.585,0.158-0.928c-0.014-0.341-0.105-0.631-0.276-0.867
		s-0.388-0.395-0.65-0.474c-0.264-0.079-0.56-0.079-0.888,0c-0.329,0.079-0.599,0.263-0.809,0.553l-0.671-0.079
		c0.053-0.158,0.302-1.288,0.749-3.393h3.117v0.71h-2.525c-0.132,0.71-0.263,1.275-0.395,1.696c0.395-0.184,0.763-0.27,1.105-0.257
		c0.341,0.014,0.67,0.093,0.985,0.237c0.316,0.145,0.546,0.342,0.69,0.592s0.25,0.499,0.316,0.749
		c0.064,0.25,0.092,0.52,0.078,0.809c-0.014,0.29-0.072,0.586-0.177,0.888c-0.105,0.303-0.264,0.553-0.474,0.75
		c-0.211,0.197-0.468,0.355-0.77,0.473c-0.303,0.119-0.65,0.165-1.045,0.139s-0.77-0.171-1.125-0.435
		c-0.354-0.262-0.599-0.71-0.729-1.341L672.45,111.005z"/>
</g>
<g>
	<path fill="#F8F8FA" d="M721.326,110.551c0.026-0.381,0.099-0.702,0.218-0.966c0.118-0.263,0.295-0.592,0.532-0.986l1.617-2.525
		h0.907l-1.656,2.604c0.71-0.184,1.275-0.158,1.696,0.078c0.42,0.237,0.703,0.507,0.848,0.81c0.145,0.302,0.224,0.631,0.237,0.985
		c0.013,0.355-0.04,0.704-0.158,1.046s-0.329,0.651-0.631,0.927c-0.303,0.276-0.724,0.428-1.263,0.454s-1-0.072-1.381-0.296
		c-0.382-0.224-0.645-0.539-0.789-0.947C721.359,111.327,721.3,110.933,721.326,110.551z M722.55,111.854
		c0.236,0.25,0.552,0.388,0.946,0.414s0.724-0.105,0.986-0.395s0.395-0.71,0.395-1.263s-0.165-0.934-0.493-1.144
		c-0.329-0.211-0.697-0.289-1.104-0.237c-0.408,0.053-0.704,0.25-0.888,0.592c-0.185,0.342-0.263,0.704-0.236,1.085
		C722.181,111.288,722.313,111.604,722.55,111.854z"/>
</g>
<g>
	<rect x="127.042" y="31.009" fill="#E9F0C5" width="168.851" height="43.139"/>
	<path fill="#454444" d="M296.393,74.647H126.542V30.509h169.851V74.647z M127.542,73.647h167.851V31.509H127.542V73.647z"/>
</g>
<g>
	<circle fill="#B0A48D" cx="303.651" cy="104.072" r="4.923"/>
	<path fill="#666666" d="M303.651,109.494c-2.99,0-5.423-2.433-5.423-5.422c0-2.99,2.433-5.424,5.423-5.424s5.423,2.434,5.423,5.424
		C309.074,107.062,306.642,109.494,303.651,109.494z M303.651,99.648c-2.438,0-4.423,1.984-4.423,4.424
		c0,2.438,1.984,4.422,4.423,4.422c2.439,0,4.423-1.983,4.423-4.422C308.074,101.633,306.091,99.648,303.651,99.648z"/>
</g>
<g>
	<circle fill="#C2D6AB" cx="120.613" cy="105.728" r="4.923"/>
	<path fill="#666666" d="M120.613,111.148c-2.99,0-5.423-2.432-5.423-5.421c0-2.991,2.433-5.425,5.423-5.425
		s5.423,2.434,5.423,5.425C126.036,108.717,123.604,111.148,120.613,111.148z M120.613,101.303c-2.439,0-4.423,1.984-4.423,4.425
		c0,2.438,1.983,4.421,4.423,4.421c2.438,0,4.423-1.982,4.423-4.421C125.036,103.287,123.052,101.303,120.613,101.303z"/>
</g>
<g>
	<path fill="#909090" d="M295.893,88.542h0.382h0.387v2.466h2.963v-2.466h0.382h0.387v6.011h-0.383h-0.386v-2.825h-2.963v2.825
		h-0.383h-0.386V88.542z"/>
	<path fill="#909090" d="M302.032,88.542h0.382h1.951c0.721,0,1.294,0.271,1.721,0.815c0.426,0.543,0.639,1.275,0.639,2.193
		c0,0.916-0.218,1.646-0.654,2.189c-0.437,0.541-1.025,0.813-1.768,0.813h-1.889h-0.382V88.542z M302.801,93.857h1.405
		c0.552,0,0.977-0.201,1.277-0.602c0.3-0.4,0.449-0.969,0.449-1.705c0-0.738-0.144-1.309-0.433-1.711
		c-0.288-0.402-0.697-0.604-1.228-0.604h-1.472V93.857z"/>
	<path fill="#909090" d="M308.141,88.542h0.382h1.951c0.721,0,1.294,0.271,1.721,0.815c0.426,0.543,0.639,1.275,0.639,2.193
		c0,0.916-0.218,1.646-0.654,2.189c-0.437,0.541-1.025,0.813-1.768,0.813h-1.889h-0.382V88.542z M308.909,93.857h1.405
		c0.552,0,0.978-0.201,1.277-0.602s0.45-0.969,0.45-1.705c0-0.738-0.145-1.309-0.433-1.711c-0.289-0.402-0.698-0.604-1.229-0.604
		h-1.472V93.857z"/>
</g>
<g>
	<path fill="#909090" d="M112.328,90.197h0.383h2.101c0.552,0,0.982,0.146,1.292,0.439c0.311,0.292,0.466,0.697,0.466,1.215
		c0,0.57-0.155,1.016-0.466,1.338c-0.31,0.322-0.74,0.482-1.292,0.482c-0.724-0.002-1.295,0-1.715,0.008v2.527h-0.383h-0.386V90.197
		z M113.097,92.978h1.525c0.399,0,0.691-0.09,0.877-0.268c0.186-0.179,0.278-0.46,0.278-0.841c0-0.338-0.093-0.586-0.278-0.742
		s-0.478-0.236-0.877-0.236h-1.525V92.978z"/>
	<path fill="#909090" d="M118.935,96.207l-1.487-6.01h0.414h0.417l1.012,4.75c0.019,0.08,0.033,0.156,0.045,0.229
		s0.018,0.123,0.018,0.153h-0.001c0-0.036,0.007-0.091,0.02-0.165c0.013-0.072,0.028-0.145,0.046-0.217l1.202-4.75h0.433h0.433
		l1.193,4.727c0.021,0.074,0.037,0.148,0.05,0.225c0.013,0.077,0.019,0.133,0.019,0.168l0,0c0-0.031,0.006-0.083,0.018-0.16
		c0.012-0.076,0.026-0.154,0.044-0.232l1.025-4.727h0.413h0.413l-1.487,6.01h-0.413h-0.413l-1.232-4.648
		c-0.021-0.08-0.038-0.156-0.054-0.233s-0.023-0.13-0.023-0.159h-0.001c0,0.035-0.007,0.09-0.02,0.166
		c-0.013,0.074-0.029,0.15-0.05,0.227l-1.204,4.648h-0.413H118.935z"/>
	<path fill="#909090" d="M125.878,90.197h0.382h2.26c0.603,0,1.062,0.137,1.375,0.415c0.314,0.275,0.472,0.682,0.472,1.216
		c0,0.525-0.163,0.938-0.49,1.234c-0.083,0.074-0.172,0.139-0.267,0.197l0.127,0.065c0.346,0.21,0.524,0.562,0.537,1.058
		l0.031,1.098c0.005,0.18,0.026,0.309,0.065,0.387c0.039,0.08,0.113,0.148,0.224,0.205v0.131h-0.944
		c-0.021-0.049-0.042-0.177-0.063-0.385c-0.021-0.206-0.036-0.438-0.046-0.689l-0.018-0.475c-0.01-0.375-0.097-0.641-0.259-0.801
		c-0.162-0.158-0.427-0.238-0.795-0.238h-1.823v2.592h-0.383h-0.386V90.197z M126.646,92.912h1.9c0.355,0,0.615-0.082,0.78-0.248
		c0.165-0.164,0.247-0.426,0.247-0.783c0-0.346-0.087-0.6-0.261-0.76c-0.174-0.161-0.448-0.242-0.824-0.242h-1.843V92.912z"/>
</g>
<g>
	<circle fill="#FFFFFF" cx="152.208" cy="93.072" r="7.854"/>
	<circle fill="#FFFFFF" cx="181.603" cy="93.072" r="7.854"/>
	<circle fill="#FFFFFF" cx="210.31" cy="93.072" r="7.854"/>
	<circle fill="#FFFFFF" cx="240.394" cy="93.072" r="7.854"/>
	<g>
		<polygon fill="#262626" points="154.61,97.584 147.262,93.34 154.61,89.097 		"/>
	</g>
	<g>
		<polygon fill="#262626" points="185.847,89.999 181.604,97.348 177.36,89.999 		"/>
	</g>
	<g>
		<polygon fill="#262626" points="206.171,95.889 210.414,88.542 214.657,95.889 		"/>
	</g>
	<g>
		<polygon fill="#262626" points="237.407,88.829 244.755,93.072 237.407,97.314 		"/>
	</g>
	<g>
		<circle fill="#FFFFFF" cx="270.727" cy="93.072" r="7.854"/>
		<g>
			<polygon fill="#262626" points="267.217,91.657 264.581,93.221 267.217,94.783 			"/>
		</g>
		<g>
			<polygon fill="#262626" points="275.727,93.447 267.217,93.447 267.217,92.993 275.321,92.993 275.321,90.457 275.727,90.457 			
				"/>
		</g>
	</g>
</g>
<g>
	<g>
		<rect x="1212.626" y="14.431" fill="#DDDBD3" width="24.437" height="98.666"/>
	</g>
	<g>
		<rect x="1212.626" y="35.922" fill="#EDECE6" width="24.437" height="61.533"/>
	</g>
	<rect x="1212.626" y="37.675" fill="#B7B5AB" width="24.437" height="1.525"/>
	<rect x="1212.626" y="41.175" fill="#B7B5AB" width="24.437" height="1.525"/>
	<rect x="1212.626" y="44.675" fill="#B7B5AB" width="24.437" height="1.525"/>
	<rect x="1212.626" y="48.175" fill="#B7B5AB" width="24.437" height="1.525"/>
	<rect x="1212.626" y="51.675" fill="#B7B5AB" width="24.437" height="1.525"/>
	<rect x="1212.626" y="55.175" fill="#B7B5AB" width="24.437" height="1.525"/>
	<rect x="1212.626" y="58.675" fill="#B7B5AB" width="24.437" height="1.525"/>
	<rect x="1212.626" y="62.175" fill="#B7B5AB" width="24.437" height="1.525"/>
	<rect x="1212.626" y="65.675" fill="#B7B5AB" width="24.437" height="1.525"/>
	<rect x="1212.626" y="69.175" fill="#B7B5AB" width="24.437" height="1.525"/>
	<rect x="1212.626" y="72.675" fill="#B7B5AB" width="24.437" height="1.525"/>
	<rect x="1212.626" y="76.175" fill="#B7B5AB" width="24.437" height="1.525"/>
	<rect x="1212.626" y="79.675" fill="#B7B5AB" width="24.437" height="1.525"/>
	<rect x="1212.626" y="83.175" fill="#B7B5AB" width="24.437" height="1.525"/>
	<rect x="1212.626" y="86.675" fill="#B7B5AB" width="24.437" height="1.525"/>
	<rect x="1212.626" y="90.175" fill="#B7B5AB" width="24.437" height="1.525"/>
	<rect x="1212.626" y="93.675" fill="#B7B5AB" width="24.437" height="1.525"/>
</g>
<g>
	<g>
		<rect x="37.141" y="14.431" fill="#DDDBD3" width="24.437" height="98.666"/>
	</g>
	<g>
		<rect x="37.141" y="35.922" fill="#EDECE6" width="24.437" height="61.533"/>
	</g>
	<rect x="37.14" y="37.675" fill="#B7B5AB" width="24.438" height="1.525"/>
	<rect x="37.14" y="41.175" fill="#B7B5AB" width="24.438" height="1.525"/>
	<rect x="37.14" y="44.675" fill="#B7B5AB" width="24.438" height="1.525"/>
	<rect x="37.14" y="48.175" fill="#B7B5AB" width="24.438" height="1.525"/>
	<rect x="37.14" y="51.675" fill="#B7B5AB" width="24.438" height="1.525"/>
	<rect x="37.14" y="55.175" fill="#B7B5AB" width="24.438" height="1.525"/>
	<rect x="37.14" y="58.675" fill="#B7B5AB" width="24.438" height="1.525"/>
	<rect x="37.14" y="62.175" fill="#B7B5AB" width="24.438" height="1.525"/>
	<rect x="37.14" y="65.675" fill="#B7B5AB" width="24.438" height="1.525"/>
	<rect x="37.14" y="69.175" fill="#B7B5AB" width="24.438" height="1.525"/>
	<rect x="37.14" y="72.675" fill="#B7B5AB" width="24.438" height="1.525"/>
	<rect x="37.14" y="76.175" fill="#B7B5AB" width="24.438" height="1.525"/>
	<rect x="37.14" y="79.675" fill="#B7B5AB" width="24.438" height="1.525"/>
	<rect x="37.14" y="83.175" fill="#B7B5AB" width="24.438" height="1.525"/>
	<rect x="37.14" y="86.675" fill="#B7B5AB" width="24.438" height="1.525"/>
	<rect x="37.14" y="90.175" fill="#B7B5AB" width="24.438" height="1.525"/>
	<rect x="37.14" y="93.675" fill="#B7B5AB" width="24.438" height="1.525"/>
</g>
<polygon fill="#F2F2F0" points="75.338,-0.001 80.438,3.646 342.771,3.646 347.598,-0.001 "/>
<polygon fill="#A3A29B" points="75.337,126.141 80.437,122.493 342.771,122.493 347.598,126.141 "/>
<polygon fill="#C4C3BF" points="347.598,-0.001 342.771,3.646 342.771,122.493 347.598,126.141 "/>
<polygon fill="#C4C3BF" points="75.338,-0.001 80.165,3.646 80.165,122.493 75.338,126.141 "/>
<path fill="none" stroke="#999992" stroke-miterlimit="10" d="M327.967,106.559c0,3.099-2.626,5.611-5.865,5.611H100.833
	c-3.239,0-5.866-2.513-5.866-5.611V19.582c0-3.099,2.627-5.611,5.866-5.611h221.269c3.239,0,5.865,2.512,5.865,5.611V106.559z"/>
<text transform="matrix(1 0 0 1 471.5571 112.1699)" fill="#FFFFFF" stroke="#FFFFFF" stroke-width="0.5" stroke-miterlimit="10" font-family="'MicrosoftYaHeiLight'" font-size="8">1</text>
<text transform="matrix(1 0 0 1 516.8892 112.1699)" fill="#FFFFFF" stroke="#FFFFFF" stroke-width="0.5" stroke-miterlimit="10" font-family="'MicrosoftYaHeiLight'" font-size="8">2</text>
<g>
	<path fill="#F8F8FA" d="M890.243,111.163l0.711-0.119c0.104,0.344,0.275,0.625,0.514,0.849c0.236,0.224,0.531,0.329,0.887,0.315
		c0.355-0.013,0.637-0.158,0.848-0.434c0.211-0.276,0.303-0.592,0.276-0.947c-0.026-0.354-0.165-0.631-0.413-0.828
		c-0.252-0.197-0.652-0.335-1.203-0.414v-0.513c0.551-0.053,0.951-0.197,1.203-0.435c0.248-0.236,0.361-0.545,0.334-0.927
		c-0.025-0.381-0.197-0.657-0.512-0.828c-0.316-0.171-0.652-0.19-1.006-0.06c-0.355,0.132-0.639,0.5-0.85,1.104l-0.709-0.118
		c0.158-0.474,0.375-0.868,0.65-1.184s0.65-0.499,1.125-0.553c0.473-0.052,0.887,0.007,1.242,0.178
		c0.355,0.172,0.605,0.435,0.75,0.789c0.145,0.355,0.164,0.743,0.059,1.164s-0.408,0.789-0.908,1.104
		c0.369,0.158,0.651,0.395,0.85,0.71c0.197,0.315,0.262,0.729,0.197,1.244c-0.066,0.512-0.297,0.926-0.691,1.241
		s-0.842,0.468-1.34,0.454c-0.5-0.014-0.936-0.171-1.303-0.474C890.585,112.183,890.349,111.741,890.243,111.163z"/>
</g>
<g>
	<path fill="#F8F8FA" d="M936.224,111.36h-3.037v-0.671l3.195-4.616h0.592v4.616h0.945v0.671h-0.945v1.499h-0.75V111.36z
		 M936.224,110.689v-3.116l-2.209,3.116H936.224z"/>
</g>
<text transform="matrix(1 0 0 1 803.5684 112.1699)" fill="#FFFFFF" stroke="#FFFFFF" stroke-width="0.5" stroke-miterlimit="10" font-family="'MicrosoftYaHeiLight'" font-size="8">1</text>
<text transform="matrix(1 0 0 1 848.9023 112.1699)" fill="#FFFFFF" stroke="#FFFFFF" stroke-width="0.5" stroke-miterlimit="10" font-family="'MicrosoftYaHeiLight'" font-size="8">2</text>
<g>
	<path fill="#D5D5D5" d="M782.956,100.285c0,1.876,1.791,3.396,4,3.396h169.193c2.209,0,4-1.52,4-3.396V70.576
		c0-1.875-1.791-3.396-4-3.396H786.956c-2.209,0-4,1.521-4,3.396V100.285z"/>
	<path fill="#060404" d="M786.956,66.68h169.193c2.481,0,4.5,1.748,4.5,3.896v29.709c0,2.148-2.019,3.896-4.5,3.896H786.956
		c-2.481,0-4.5-1.747-4.5-3.896V70.576C782.456,68.428,784.475,66.68,786.956,66.68z M956.149,103.181c1.93,0,3.5-1.298,3.5-2.896
		V70.576c0-1.598-1.57-2.896-3.5-2.896H786.956c-1.93,0-3.5,1.299-3.5,2.896v29.709c0,1.598,1.57,2.896,3.5,2.896H956.149z"/>
</g>
</svg>
