<?xml version="1.0" encoding="utf-8"?>
<!-- Generator: Adobe Illustrator 16.0.0, SVG Export Plug-In . SVG Version: 6.00 Build 0)  -->
<!DOCTYPE svg PUBLIC "-//W3C//DTD SVG 1.1//EN" "http://www.w3.org/Graphics/SVG/1.1/DTD/svg11.dtd">
<svg version="1.1" id="图层_1" xmlns="http://www.w3.org/2000/svg" xmlns:xlink="http://www.w3.org/1999/xlink" x="0px" y="0px"
	 width="21.75px" height="11.34px" viewBox="0 0 21.75 11.34" enable-background="new 0 0 21.75 11.34" xml:space="preserve">
<g>
	<rect y="0.001" fill="#030000" width="21.75" height="11.336"/>
</g>
<g>
	<path fill="#040000" d="M2.014,9.828h17.725c0.309,0,0.559-0.227,0.559-0.506V6.205c0-0.279-0.25-0.506-0.559-0.506h-0.056
		c-0.309,0-0.559-0.227-0.559-0.506V2.018c0-0.279-0.251-0.506-0.56-0.506H3.132c-0.31,0-0.56,0.227-0.56,0.506v3.175
		c0,0.279-0.25,0.506-0.559,0.506S1.455,5.925,1.455,6.205v3.118C1.455,9.602,1.705,9.828,2.014,9.828"/>
</g>
<g>
	<path fill="#B9B9B9" d="M3.132,1.262h15.433c0.446,0,0.81,0.339,0.81,0.756v3.175c0,0.141,0.139,0.256,0.309,0.256
		c0.502,0,0.864,0.339,0.864,0.756v3.118c0,0.418-0.362,0.756-0.809,0.756H2.014c-0.446,0-0.809-0.338-0.809-0.756V6.205
		c0-0.417,0.362-0.756,0.809-0.756c0.17,0,0.309-0.115,0.309-0.256V2.018C2.322,1.601,2.686,1.262,3.132,1.262z M19.738,9.578
		c0.17,0,0.309-0.115,0.309-0.256V6.205c0-0.141-0.139-0.256-0.309-0.256c-0.502,0-0.864-0.339-0.864-0.756V2.018
		c0-0.141-0.139-0.256-0.31-0.256H3.132c-0.171,0-0.31,0.115-0.31,0.256v3.175c0,0.417-0.362,0.756-0.809,0.756
		c-0.17,0-0.309,0.115-0.309,0.256v3.118c0,0.141,0.139,0.256,0.309,0.256H19.738z"/>
</g>
<g>
	<path fill="#B9B9B9" d="M3.132,1.262h15.433c0.446,0,0.81,0.339,0.81,0.756v3.175c0,0.141,0.139,0.256,0.309,0.256
		c0.502,0,0.864,0.339,0.864,0.756v3.118c0,0.418-0.362,0.756-0.809,0.756H2.014c-0.446,0-0.809-0.338-0.809-0.756V6.205
		c0-0.417,0.362-0.756,0.809-0.756c0.17,0,0.309-0.115,0.309-0.256V2.018C2.322,1.601,2.686,1.262,3.132,1.262z M19.738,9.578
		c0.17,0,0.309-0.115,0.309-0.256V6.205c0-0.141-0.139-0.256-0.309-0.256c-0.502,0-0.864-0.339-0.864-0.756V2.018
		c0-0.141-0.139-0.256-0.31-0.256H3.132c-0.171,0-0.31,0.115-0.31,0.256v3.175c0,0.417-0.362,0.756-0.809,0.756
		c-0.17,0-0.309,0.115-0.309,0.256v3.118c0,0.141,0.139,0.256,0.309,0.256H19.738z"/>
</g>
<g>
	<path fill="#686969" d="M3.803,2.137h14.146c0.156,0,0.283,0.127,0.283,0.283V7.01c0,0.156-0.127,0.283-0.283,0.283H3.803
		c-0.156,0-0.283-0.127-0.283-0.283V2.42C3.52,2.264,3.646,2.137,3.803,2.137"/>
</g>
<g>
	<rect x="15.558" y="3.559" fill="#040000" width="1.388" height="2.313"/>
</g>
<g>
	<rect x="12.869" y="3.559" fill="#040000" width="1.387" height="2.313"/>
</g>
<g>
	<rect x="10.183" y="3.559" fill="#040000" width="1.388" height="2.313"/>
</g>
<g>
	<rect x="7.494" y="3.559" fill="#040000" width="1.387" height="2.313"/>
</g>
<g>
	<rect x="4.808" y="3.559" fill="#040000" width="1.388" height="2.313"/>
</g>
<g>
	<rect x="15.684" y="4.418" fill="#B9B9B9" width="1.134" height="0.594"/>
</g>
<g>
	<rect x="12.996" y="4.418" fill="#B9B9B9" width="1.135" height="0.594"/>
</g>
<g>
	<rect x="10.309" y="4.418" fill="#B9B9B9" width="1.134" height="0.594"/>
</g>
<g>
	<rect x="7.621" y="4.418" fill="#B9B9B9" width="1.135" height="0.594"/>
</g>
<g>
	<rect x="4.934" y="4.418" fill="#B9B9B9" width="1.134" height="0.594"/>
</g>
</svg>
