<?xml version="1.0" encoding="utf-8"?>
<!-- Generator: Adobe Illustrator 16.0.0, SVG Export Plug-In . SVG Version: 6.00 Build 0)  -->
<!DOCTYPE svg PUBLIC "-//W3C//DTD SVG 1.1//EN" "http://www.w3.org/Graphics/SVG/1.1/DTD/svg11.dtd">
<svg version="1.1" id="图层_1" xmlns="http://www.w3.org/2000/svg" xmlns:xlink="http://www.w3.org/1999/xlink" x="0px" y="0px"
	 width="29.66px" height="48.69px" viewBox="0 0 29.66 48.69" enable-background="new 0 0 29.66 48.69" xml:space="preserve">
<g>
	<g>
		<rect x="0.376" y="0.372" fill="#8C8C8C" width="28.908" height="47.943"/>
		<path fill="#040000" d="M29.659,48.69H0.001V-0.003h29.658V48.69z M0.751,47.94h28.158V0.747H0.751V47.94z"/>
	</g>
	<g>
		<path fill="#231815" d="M15.656,6.915V6.599V6.28c0-0.248-0.199-0.447-0.447-0.447h-0.446c-0.246,0-0.447,0.199-0.447,0.447v0.318
			h-5.15c-0.246,0-0.449,0.199-0.449,0.447v6.551H4.179c-0.12,0-0.217,0.121-0.217,0.27v3.518H1.505c-0.08,0-0.141,0.08-0.141,0.176
			v13.568c0,0.098,0.061,0.178,0.141,0.178h2.457v3.516c0,0.15,0.097,0.271,0.217,0.271h4.537v6.549
			c0,0.248,0.203,0.449,0.449,0.449h5.15v0.316c0,0.246,0.201,0.447,0.447,0.447h0.446c0.248,0,0.447-0.201,0.447-0.447v-0.316
			v-0.318v-0.262h5.526v0.262v0.318v0.316c0,0.246,0.199,0.447,0.447,0.447h0.446c0.25,0,0.451-0.201,0.451-0.447v-0.316h5.446
			c0.248,0,0.447-0.201,0.447-0.449V7.046c0-0.248-0.199-0.447-0.447-0.447h-5.446V6.28c0-0.248-0.201-0.447-0.451-0.447H21.63
			c-0.248,0-0.447,0.199-0.447,0.447v0.318v0.316v0.262h-5.526V6.915z"/>
	</g>
	<g>
		<polygon fill="#8C8C8C" points="1.989,10.195 4.299,6.195 6.608,10.195 		"/>
		<path fill="#040000" d="M7.258,10.57H1.34l2.959-5.125L7.258,10.57z M2.639,9.82h3.32l-1.66-2.875L2.639,9.82z"/>
	</g>
	<g>
		<polygon fill="#8C8C8C" points="1.989,38.854 4.299,42.854 6.608,38.854 		"/>
		<path fill="#040000" d="M4.299,43.604L1.34,38.479h5.918L4.299,43.604z M2.639,39.229l1.66,2.875l1.66-2.875H2.639z"/>
	</g>
</g>
</svg>
