<?xml version="1.0" encoding="utf-8"?>
<!-- Generator: Adobe Illustrator 16.0.0, SVG Export Plug-In . SVG Version: 6.00 Build 0)  -->
<!DOCTYPE svg PUBLIC "-//W3C//DTD SVG 1.1//EN" "http://www.w3.org/Graphics/SVG/1.1/DTD/svg11.dtd">
<svg version="1.1" id="图层_1" xmlns="http://www.w3.org/2000/svg" xmlns:xlink="http://www.w3.org/1999/xlink" x="0px" y="0px"
	 width="48.69px" height="34.83px" viewBox="0 0 48.69 34.83" enable-background="new 0 0 48.69 34.83" xml:space="preserve">
<g>
	<g>
		<rect x="0.375" y="0.645" fill="#FCF8F1" width="47.943" height="27.274"/>
		<path fill="#040000" d="M48.693,28.294H0V0.27h48.693V28.294z M0.75,27.544h47.193V1.02H0.75V27.544z"/>
	</g>
	<g>
		<rect x="0.375" y="27.919" fill="#E6E3DA" width="47.943" height="3.269"/>
		<path fill="#040000" d="M48.693,31.563H0v-4.019h48.693V31.563z M0.75,30.813h47.193v-2.519H0.75V30.813z"/>
	</g>
	<g>
		<rect x="0.375" y="31.188" fill="#E6E3DA" width="47.943" height="3.268"/>
		<path fill="#040000" d="M48.693,34.83H0v-4.018h48.693V34.83z M0.75,34.08h47.193v-2.518H0.75V34.08z"/>
	</g>
	<g>
		<rect x="0.375" y="5.973" fill="#040000" width="4.422" height="6.09"/>
	</g>
	<g>
		<rect x="43.896" y="5.973" fill="#040000" width="4.422" height="6.09"/>
	</g>
	<g>
		<path fill="#231815" d="M41.775,14.293h0.316h0.318c0.247,0,0.447-0.199,0.447-0.447v-0.448c0-0.246-0.2-0.447-0.447-0.447h-0.318
			V7.801c0-0.246-0.199-0.449-0.447-0.449h-6.551V2.813c0-0.119-0.121-0.216-0.27-0.216h-3.518V0.141c0-0.08-0.08-0.142-0.176-0.142
			H17.563c-0.098,0-0.178,0.062-0.178,0.142v2.457h-3.516c-0.15,0-0.271,0.097-0.271,0.216v4.538H7.049
			C6.801,7.352,6.6,7.555,6.6,7.801v5.149H6.283c-0.246,0-0.447,0.201-0.447,0.447v0.448c0,0.248,0.201,0.447,0.447,0.447H6.6h0.318
			H7.18v5.524H6.918H6.6H6.283c-0.246,0-0.447,0.2-0.447,0.448v0.447c0,0.25,0.201,0.448,0.447,0.448H6.6v5.447
			c0,0.248,0.201,0.448,0.449,0.448h34.596c0.248,0,0.447-0.2,0.447-0.448v-5.447h0.318c0.247,0,0.447-0.198,0.447-0.448v-0.447
			c0-0.248-0.2-0.448-0.447-0.448h-0.318h-0.316h-0.262v-5.524H41.775z"/>
	</g>
</g>
</svg>
