<?xml version="1.0" encoding="utf-8"?>
<!-- Generator: Adobe Illustrator 16.0.0, SVG Export Plug-In . SVG Version: 6.00 Build 0)  -->
<!DOCTYPE svg PUBLIC "-//W3C//DTD SVG 1.1//EN" "http://www.w3.org/Graphics/SVG/1.1/DTD/svg11.dtd">
<svg version="1.1" id="图层_1" xmlns="http://www.w3.org/2000/svg" xmlns:xlink="http://www.w3.org/1999/xlink" x="0px" y="0px"
	 width="45.92px" height="29.66px" viewBox="0 0 45.92 29.66" enable-background="new 0 0 45.92 29.66" xml:space="preserve">
<g>
	<rect x="0.374" y="0.375" fill="#8C8C8C" width="45.173" height="28.908"/>
	<path fill="#040000" d="M45.922,29.658H-0.001V0h45.923V29.658z M0.749,28.908h44.423V0.75H0.749V28.908z"/>
</g>
<g>
	<path fill="#231815" d="M5.532,14.003H5.215H4.897c-0.248,0-0.447,0.199-0.447,0.447v0.446c0,0.246,0.199,0.447,0.447,0.447h0.318
		v5.151c0,0.246,0.198,0.449,0.447,0.449h6.55v4.537c0,0.121,0.122,0.217,0.271,0.217H16v2.457c0,0.08,0.079,0.141,0.176,0.141
		h13.568c0.098,0,0.178-0.061,0.178-0.141v-2.457h3.516c0.15,0,0.271-0.096,0.271-0.217v-4.537h6.549
		c0.248,0,0.449-0.203,0.449-0.449v-5.151h0.316c0.246,0,0.447-0.201,0.447-0.447V14.45c0-0.248-0.201-0.447-0.447-0.447h-0.316
		h-0.318h-0.262V8.477h0.262h0.318h0.316c0.246,0,0.447-0.199,0.447-0.447V7.583c0-0.25-0.201-0.451-0.447-0.451h-0.316V1.686
		c0-0.248-0.201-0.447-0.449-0.447H5.663c-0.249,0-0.447,0.199-0.447,0.447v5.446H4.897c-0.248,0-0.447,0.201-0.447,0.451v0.446
		c0,0.248,0.199,0.447,0.447,0.447h0.318h0.316h0.261v5.526H5.532z"/>
</g>
<g>
	<rect x="28.783" y="21.074" fill="#231815" width="1.938" height="5.5"/>
</g>
<g>
	<rect x="43.195" y="21.074" fill="#231815" width="1.939" height="5.5"/>
</g>
<g>
	<rect x="0.374" y="21.074" fill="#231815" width="1.939" height="5.5"/>
</g>
</svg>
