<?xml version="1.0" encoding="utf-8"?>
<!-- Generator: Adobe Illustrator 16.0.0, SVG Export Plug-In . SVG Version: 6.00 Build 0)  -->
<!DOCTYPE svg PUBLIC "-//W3C//DTD SVG 1.1//EN" "http://www.w3.org/Graphics/SVG/1.1/DTD/svg11.dtd">
<svg version="1.1" id="图层_1" xmlns="http://www.w3.org/2000/svg" xmlns:xlink="http://www.w3.org/1999/xlink" x="0px" y="0px"
	 width="81.69px" height="33.09px" viewBox="0 0 81.69 33.09" enable-background="new 0 0 81.69 33.09" xml:space="preserve">
<g>
	<polygon fill="#161718" points="18.111,33.09 8.711,16.543 18.111,-0.006 64.84,-0.006 74.242,16.543 64.84,33.09 	"/>
	<path fill="#161718" d="M81.688,17.242c0,5.922-4.723,10.719-10.549,10.719h-60.59C4.725,27.961,0,23.164,0,17.242l0,0
		c0-5.92,4.725-10.719,10.549-10.719h60.59C76.965,6.523,81.688,11.322,81.688,17.242L81.688,17.242z"/>
	<path fill="#161718" d="M25.012,4.857h32.928c4.684,0,8.264,3.99,7.555,8.416l-1.625,10.15c-0.57,3.568-3.781,6.205-7.553,6.205
		h-29.68c-3.773,0-6.982-2.637-7.553-6.205l-1.627-10.15C16.748,8.848,20.33,4.857,25.012,4.857"/>
	<path fill="none" stroke="#BABAB9" stroke-miterlimit="10" d="M25.012,4.857h32.928c4.684,0,8.264,3.99,7.555,8.416l-1.625,10.15
		c-0.57,3.568-3.781,6.205-7.553,6.205h-29.68c-3.773,0-6.982-2.637-7.553-6.205l-1.627-10.15
		C16.748,8.848,20.33,4.857,25.012,4.857z"/>
	<path fill="none" stroke="#040000" stroke-miterlimit="10" d="M57.939,6.523c1.852,0,3.572,0.787,4.719,2.156
		c1.035,1.236,1.467,2.773,1.219,4.328l-1.625,10.148c-0.439,2.74-2.992,4.805-5.938,4.805H26.637c-2.945,0-5.498-2.064-5.936-4.805
		l-1.625-10.148c-0.248-1.555,0.184-3.092,1.217-4.328c1.146-1.369,2.867-2.156,4.719-2.156H57.939z"/>
	<path fill="#040000" d="M51.418,21.443c0-1.252,1.006-2.268,2.246-2.268s2.246,1.016,2.246,2.268c0,1.25-1.006,2.266-2.246,2.266
		S51.418,22.693,51.418,21.443"/>
	<path fill="#040000" d="M43.293,21.443c0-1.252,1.004-2.268,2.246-2.268c1.24,0,2.244,1.016,2.244,2.268
		c0,1.25-1.004,2.266-2.244,2.266C44.297,23.709,43.293,22.693,43.293,21.443"/>
	<path fill="#040000" d="M35.168,21.443c0-1.252,1.004-2.268,2.244-2.268c1.242,0,2.248,1.016,2.248,2.268
		c0,1.25-1.006,2.266-2.248,2.266C36.172,23.709,35.168,22.693,35.168,21.443"/>
	<path fill="#040000" d="M27.041,21.443c0-1.252,1.006-2.268,2.248-2.268c1.24,0,2.246,1.016,2.246,2.268
		c0,1.25-1.006,2.266-2.246,2.266C28.047,23.709,27.041,22.693,27.041,21.443"/>
	<path fill="#040000" d="M55.48,14.277c0-1.252,1.006-2.268,2.246-2.268s2.246,1.016,2.246,2.268s-1.006,2.266-2.246,2.266
		S55.48,15.529,55.48,14.277"/>
	<path fill="#040000" d="M47.355,14.277c0-1.252,1.004-2.268,2.246-2.268c1.24,0,2.246,1.016,2.246,2.268s-1.006,2.266-2.246,2.266
		C48.359,16.543,47.355,15.529,47.355,14.277"/>
	<path fill="#040000" d="M39.23,14.277c0-1.252,1.004-2.268,2.246-2.268c1.24,0,2.244,1.016,2.244,2.268s-1.004,2.266-2.244,2.266
		C40.234,16.543,39.23,15.529,39.23,14.277"/>
	<path fill="#040000" d="M31.105,14.277c0-1.252,1.006-2.268,2.246-2.268s2.246,1.016,2.246,2.268s-1.006,2.266-2.246,2.266
		S31.105,15.529,31.105,14.277"/>
	<path fill="#040000" d="M22.98,14.277c0-1.252,1.004-2.268,2.246-2.268c1.24,0,2.244,1.016,2.244,2.268s-1.004,2.266-2.244,2.266
		C23.984,16.543,22.98,15.529,22.98,14.277"/>
	<path fill="#B2B1B1" d="M51.119,20.799c0-1.066,0.855-1.93,1.914-1.93c1.057,0,1.912,0.863,1.912,1.93s-0.855,1.93-1.912,1.93
		C51.975,22.729,51.119,21.865,51.119,20.799"/>
	<path fill="#B2B1B1" d="M42.994,20.799c0-1.066,0.857-1.93,1.914-1.93s1.912,0.863,1.912,1.93s-0.855,1.93-1.912,1.93
		S42.994,21.865,42.994,20.799"/>
	<path fill="#B2B1B1" d="M34.871,20.799c0-1.066,0.854-1.93,1.912-1.93c1.055,0,1.912,0.863,1.912,1.93s-0.857,1.93-1.912,1.93
		C35.725,22.729,34.871,21.865,34.871,20.799"/>
	<path fill="#B2B1B1" d="M26.744,20.799c0-1.066,0.855-1.93,1.912-1.93s1.914,0.863,1.914,1.93s-0.857,1.93-1.914,1.93
		S26.744,21.865,26.744,20.799"/>
	<path fill="#B2B1B1" d="M55.184,13.633c0-1.064,0.854-1.93,1.912-1.93c1.055,0,1.912,0.865,1.912,1.93
		c0,1.066-0.857,1.93-1.912,1.93C56.037,15.563,55.184,14.699,55.184,13.633"/>
	<path fill="#B2B1B1" d="M47.057,13.633c0-1.064,0.857-1.93,1.914-1.93s1.912,0.865,1.912,1.93c0,1.066-0.855,1.93-1.912,1.93
		S47.057,14.699,47.057,13.633"/>
	<path fill="#B2B1B1" d="M38.934,13.633c0-1.064,0.855-1.93,1.912-1.93c1.055,0,1.91,0.865,1.91,1.93c0,1.066-0.855,1.93-1.91,1.93
		C39.789,15.563,38.934,14.699,38.934,13.633"/>
	<path fill="#B2B1B1" d="M30.807,13.633c0-1.064,0.857-1.93,1.914-1.93c1.055,0,1.912,0.865,1.912,1.93
		c0,1.066-0.857,1.93-1.912,1.93C31.664,15.563,30.807,14.699,30.807,13.633"/>
	<path fill="#B2B1B1" d="M22.682,13.633c0-1.064,0.857-1.93,1.914-1.93s1.912,0.865,1.912,1.93c0,1.066-0.855,1.93-1.912,1.93
		S22.682,14.699,22.682,13.633"/>
	<path fill="#B2B2B2" d="M9.959,11.361c3.404,0,6.166,2.805,6.166,6.264s-2.762,6.264-6.166,6.264s-6.164-2.805-6.164-6.264
		S6.555,11.361,9.959,11.361"/>
	<rect x="6.758" y="16.484" fill="#040000" width="6.404" height="2.277"/>
	<rect x="8.838" y="14.371" fill="#040000" width="2.244" height="6.508"/>
	<path fill="#B2B2B2" d="M72.248,11.361c3.404,0,6.166,2.805,6.166,6.264s-2.762,6.264-6.166,6.264s-6.164-2.805-6.164-6.264
		S68.844,11.361,72.248,11.361"/>
	<rect x="69.047" y="16.484" fill="#040000" width="6.404" height="2.277"/>
	<rect x="71.127" y="14.371" fill="#040000" width="2.244" height="6.508"/>
</g>
</svg>
