<?xml version="1.0" encoding="utf-8"?>
<!-- Generator: Adobe Illustrator 16.0.0, SVG Export Plug-In . SVG Version: 6.00 Build 0)  -->
<!DOCTYPE svg PUBLIC "-//W3C//DTD SVG 1.1//EN" "http://www.w3.org/Graphics/SVG/1.1/DTD/svg11.dtd">
<svg version="1.1" id="图层_1" xmlns="http://www.w3.org/2000/svg" xmlns:xlink="http://www.w3.org/1999/xlink" x="0px" y="0px"
	 width="91.9px" height="37.24px" viewBox="0 0 91.9 37.24" enable-background="new 0 0 91.9 37.24" xml:space="preserve">
<g>
	<polygon fill="#161718" points="20.377,37.24 9.798,18.623 20.377,0.005 72.951,0.005 83.528,18.623 72.951,37.24 	"/>
	<path fill="#161718" d="M91.906,19.41c0,6.662-5.314,12.061-11.868,12.061h-68.17C5.314,31.471,0,26.072,0,19.41l0,0
		C0,12.749,5.314,7.35,11.868,7.35h68.17C86.592,7.35,91.906,12.749,91.906,19.41L91.906,19.41z"/>
	<path fill="#161718" d="M28.141,5.476h37.046c5.27,0,9.298,4.489,8.501,9.47l-1.83,11.419c-0.641,4.017-4.252,6.981-8.497,6.981
		H29.969c-4.246,0-7.856-2.965-8.498-6.981L19.64,14.945C18.844,9.965,22.873,5.476,28.141,5.476"/>
	<path fill="none" stroke="#BABAB9" stroke-miterlimit="10" d="M28.141,5.476h37.046c5.27,0,9.298,4.489,8.501,9.47l-1.83,11.419
		c-0.641,4.017-4.252,6.981-8.497,6.981H29.969c-4.246,0-7.856-2.965-8.498-6.981L19.64,14.945
		C18.844,9.965,22.873,5.476,28.141,5.476z"/>
	<path fill="#363F94" stroke="#040000" stroke-miterlimit="10" d="M65.188,7.35c2.084,0,4.02,0.886,5.309,2.428
		c1.164,1.39,1.65,3.119,1.371,4.868l-1.828,11.418c-0.494,3.083-3.366,5.407-6.68,5.407H29.968c-3.313,0-6.185-2.324-6.679-5.407
		l-1.828-11.418c-0.279-1.749,0.208-3.479,1.37-4.868c1.29-1.542,3.227-2.428,5.309-2.428H65.188z"/>
	<path fill="#040000" d="M60.901,13.181c0-1.326,1.065-2.401,2.379-2.401s2.378,1.075,2.378,2.401c0,1.325-1.064,2.399-2.378,2.399
		S60.901,14.506,60.901,13.181"/>
	<path fill="#040000" d="M52.297,13.181c0-1.326,1.063-2.401,2.378-2.401c1.313,0,2.38,1.075,2.38,2.401
		c0,1.325-1.066,2.399-2.38,2.399C53.36,15.58,52.297,14.506,52.297,13.181"/>
	<path fill="#040000" d="M44.089,13.181c0-1.326,1.064-2.401,2.378-2.401s2.379,1.075,2.379,2.401c0,1.325-1.065,2.399-2.379,2.399
		S44.089,14.506,44.089,13.181"/>
	<path fill="#040000" d="M35.483,13.181c0-1.326,1.064-2.401,2.379-2.401c1.313,0,2.378,1.075,2.378,2.401
		c0,1.325-1.064,2.399-2.378,2.399C36.548,15.58,35.483,14.506,35.483,13.181"/>
	<path fill="#040000" d="M26.878,13.181c0-1.326,1.065-2.401,2.379-2.401s2.378,1.075,2.378,2.401c0,1.325-1.064,2.399-2.378,2.399
		S26.878,14.506,26.878,13.181"/>
	<path fill="#040000" d="M60.901,25.576c0-1.326,1.065-2.401,2.379-2.401s2.378,1.075,2.378,2.401s-1.064,2.398-2.378,2.398
		S60.901,26.902,60.901,25.576"/>
	<path fill="#040000" d="M52.297,25.576c0-1.326,1.063-2.401,2.378-2.401c1.313,0,2.38,1.075,2.38,2.401s-1.066,2.398-2.38,2.398
		C53.36,27.975,52.297,26.902,52.297,25.576"/>
	<path fill="#040000" d="M44.089,25.576c0-1.326,1.064-2.401,2.378-2.401s2.379,1.075,2.379,2.401s-1.065,2.398-2.379,2.398
		S44.089,26.902,44.089,25.576"/>
	<path fill="#040000" d="M35.483,25.576c0-1.326,1.064-2.401,2.379-2.401c1.313,0,2.378,1.075,2.378,2.401s-1.064,2.398-2.378,2.398
		C36.548,27.975,35.483,26.902,35.483,25.576"/>
	<path fill="#040000" d="M26.878,25.576c0-1.326,1.065-2.401,2.379-2.401s2.378,1.075,2.378,2.401s-1.064,2.398-2.378,2.398
		S26.878,26.902,26.878,25.576"/>
	<path fill="#040000" d="M65.108,19.197c0-1.325,1.065-2.401,2.38-2.401c1.313,0,2.376,1.076,2.376,2.401
		c0,1.326-1.063,2.4-2.376,2.4C66.174,21.598,65.108,20.523,65.108,19.197"/>
	<path fill="#040000" d="M56.504,19.197c0-1.325,1.064-2.401,2.379-2.401c1.313,0,2.378,1.076,2.378,2.401
		c0,1.326-1.064,2.4-2.378,2.4C57.568,21.598,56.504,20.523,56.504,19.197"/>
	<path fill="#040000" d="M47.898,19.197c0-1.325,1.065-2.401,2.379-2.401c1.314,0,2.378,1.076,2.378,2.401
		c0,1.326-1.063,2.4-2.378,2.4C48.964,21.598,47.898,20.523,47.898,19.197"/>
	<path fill="#040000" d="M39.294,19.197c0-1.325,1.064-2.401,2.378-2.401c1.314,0,2.379,1.076,2.379,2.401
		c0,1.326-1.064,2.4-2.379,2.4C40.358,21.598,39.294,20.523,39.294,19.197"/>
	<path fill="#040000" d="M30.688,19.197c0-1.325,1.065-2.401,2.379-2.401s2.377,1.076,2.377,2.401c0,1.326-1.063,2.4-2.377,2.4
		S30.688,20.523,30.688,19.197"/>
	<path fill="#B2B1B1" d="M48.373,23.411"/>
	<path fill="#B2B2B2" d="M11.203,12.793c3.83,0,6.938,3.155,6.938,7.049c0,3.891-3.107,7.047-6.938,7.047s-6.935-3.156-6.935-7.047
		C4.269,15.948,7.373,12.793,11.203,12.793"/>
	<rect x="7.602" y="18.559" fill="#040000" width="7.207" height="2.562"/>
	<rect x="9.942" y="16.18" fill="#040000" width="2.524" height="7.321"/>
	<path fill="#B2B2B2" d="M81.286,12.793c3.83,0,6.938,3.155,6.938,7.049c0,3.891-3.107,7.047-6.938,7.047
		c-3.831,0-6.937-3.156-6.937-7.047C74.35,15.948,77.455,12.793,81.286,12.793"/>
	<rect x="77.685" y="18.559" fill="#040000" width="7.206" height="2.562"/>
	<rect x="80.025" y="16.18" fill="#040000" width="2.522" height="7.321"/>
</g>
</svg>
