<?xml version="1.0" encoding="utf-8"?>
<!-- Generator: Adobe Illustrator 16.0.0, SVG Export Plug-In . SVG Version: 6.00 Build 0)  -->
<!DOCTYPE svg PUBLIC "-//W3C//DTD SVG 1.1//EN" "http://www.w3.org/Graphics/SVG/1.1/DTD/svg11.dtd">
<svg version="1.1" id="图层_1" xmlns="http://www.w3.org/2000/svg" xmlns:xlink="http://www.w3.org/1999/xlink" x="0px" y="0px"
	 width="48.69px" height="34.56px" viewBox="0 0 48.69 34.56" enable-background="new 0 0 48.69 34.56" xml:space="preserve">
<g>
	<g>
		<rect x="0.375" y="0.375" fill="#FCF8F1" width="47.943" height="27.274"/>
		<path fill="#040000" d="M48.693,28.024H0V0h48.693V28.024z M0.75,27.274h47.193V0.75H0.75V27.274z"/>
	</g>
	<g>
		<polygon fill="#040000" points="41.287,15.717 41.287,7.62 34.469,7.62 34.469,0.375 22.109,0.375 14.227,0.375 14.227,7.62 
			7.407,7.62 7.407,15.717 8.845,15.717 8.845,19.978 7.407,19.978 7.407,27.649 22.109,27.649 41.287,27.649 41.287,19.978 
			39.848,19.978 39.848,15.717 		"/>
	</g>
	<g>
		<rect x="0.375" y="27.649" fill="#E6E3DA" width="47.943" height="3.269"/>
		<path fill="#040000" d="M48.693,31.293H0v-4.019h48.693V31.293z M0.75,30.543h47.193v-2.519H0.75V30.543z"/>
	</g>
	<g>
		<rect x="0.375" y="30.918" fill="#E6E3DA" width="47.943" height="3.268"/>
		<path fill="#040000" d="M48.693,34.561H0v-4.018h48.693V34.561z M0.75,33.811h47.193v-2.518H0.75V33.811z"/>
	</g>
	<g>
		<rect x="0.375" y="5.703" fill="#040000" width="4.422" height="6.09"/>
	</g>
	<g>
		<rect x="43.896" y="5.703" fill="#040000" width="4.422" height="6.09"/>
	</g>
</g>
</svg>
