<?xml version="1.0" encoding="utf-8"?>
<!-- Generator: Adobe Illustrator 16.0.0, SVG Export Plug-In . SVG Version: 6.00 Build 0)  -->
<!DOCTYPE svg PUBLIC "-//W3C//DTD SVG 1.1//EN" "http://www.w3.org/Graphics/SVG/1.1/DTD/svg11.dtd">
<svg version="1.1" id="图层_1" xmlns="http://www.w3.org/2000/svg" xmlns:xlink="http://www.w3.org/1999/xlink" x="0px" y="0px"
	 width="38.54px" height="18.86px" viewBox="0 0 38.54 18.86" enable-background="new 0 0 38.54 18.86" xml:space="preserve">
<g>
	<path fill="#050101" d="M36.482,18.359H2.058c-0.859,0-1.556-0.908-1.556-2.029V2.533c0-1.121,0.696-2.031,1.556-2.031h34.424
		c0.859,0,1.557,0.91,1.557,2.031V16.33C38.039,17.451,37.342,18.359,36.482,18.359"/>
</g>
<g>
	<path fill="#BABAB9" d="M36.482,18.859H2.058c-1.134,0-2.056-1.135-2.056-2.529V2.533c0-1.396,0.922-2.531,2.056-2.531h34.424
		c1.135,0,2.057,1.136,2.057,2.531V16.33C38.539,17.725,37.617,18.859,36.482,18.859z M2.058,1.001
		c-0.572,0-1.056,0.701-1.056,1.531V16.33c0,0.828,0.483,1.529,1.056,1.529h34.424c0.574,0,1.057-0.701,1.057-1.529V2.533
		c0-0.83-0.482-1.531-1.057-1.531H2.058z"/>
</g>
<g>
	<path fill="#324B66" d="M35.965,7.57H2.645c-0.266,0-0.479-0.117-0.479-0.258V4.783c0-0.141,0.214-0.256,0.479-0.256h33.32
		c0.266,0,0.48,0.115,0.48,0.256v2.529C36.445,7.453,36.23,7.57,35.965,7.57"/>
</g>
<g>
	<path fill="#BABAB9" d="M36.727,18.859H1.811C0.812,18.859,0,17.867,0,16.648V2.214c0-1.22,0.813-2.213,1.812-2.213h34.916
		c1,0,1.814,0.993,1.814,2.213v14.434C38.541,17.867,37.727,18.859,36.727,18.859z M1.811,1.001C1.372,1.001,1,1.557,1,2.214v14.434
		c0,0.656,0.372,1.211,0.812,1.211h34.916c0.441,0,0.814-0.555,0.814-1.211V2.214c0-0.657-0.373-1.213-0.814-1.213H1.811z"/>
</g>
</svg>
