<?xml version="1.0" encoding="utf-8"?>
<!-- Generator: Adobe Illustrator 16.0.0, SVG Export Plug-In . SVG Version: 6.00 Build 0)  -->
<!DOCTYPE svg PUBLIC "-//W3C//DTD SVG 1.1//EN" "http://www.w3.org/Graphics/SVG/1.1/DTD/svg11.dtd">
<svg version="1.1" id="图层_1" xmlns="http://www.w3.org/2000/svg" xmlns:xlink="http://www.w3.org/1999/xlink" x="0px" y="0px"
	 width="91.91px" height="37.24px" viewBox="0 0 91.91 37.24" enable-background="new 0 0 91.91 37.24" xml:space="preserve">
<g>
	<polygon fill="#161718" points="20.378,37.236 9.8,18.618 20.378,0 72.952,0 83.528,18.618 72.952,37.236 	"/>
	<path fill="#161718" d="M91.907,19.406c0,6.661-5.314,12.06-11.869,12.06h-68.17C5.315,31.466,0,26.067,0,19.406l0,0
		C0,12.744,5.315,7.345,11.868,7.345h68.17C86.593,7.345,91.907,12.744,91.907,19.406L91.907,19.406z"/>
	<path fill="none" stroke="#BABAB9" stroke-miterlimit="10" d="M28.142,5.471h37.045c5.27,0,9.299,4.489,8.501,9.47l-1.829,11.42
		c-0.642,4.016-4.254,6.98-8.498,6.98H29.97c-4.247,0-7.856-2.965-8.499-6.98L19.64,14.94C18.843,9.96,22.874,5.471,28.142,5.471z"
		/>
	<path fill="#275F72" stroke="#040000" stroke-miterlimit="10" d="M65.188,7.345c2.082,0,4.019,0.887,5.309,2.428
		c1.164,1.39,1.65,3.119,1.37,4.868l-1.829,11.418c-0.492,3.083-3.365,5.407-6.68,5.407H29.968c-3.313,0-6.185-2.324-6.678-5.407
		l-1.828-11.418c-0.279-1.749,0.207-3.479,1.37-4.868c1.29-1.541,3.226-2.428,5.308-2.428H65.188z"/>
	<path fill="#040000" d="M57.85,24.132c0-1.408,1.132-2.551,2.526-2.551c1.396,0,2.527,1.143,2.527,2.551
		c0,1.406-1.131,2.549-2.527,2.549C58.981,26.681,57.85,25.538,57.85,24.132"/>
	<path fill="#040000" d="M48.708,24.132c0-1.408,1.131-2.551,2.527-2.551c1.395,0,2.525,1.143,2.525,2.551
		c0,1.406-1.131,2.549-2.525,2.549C49.839,26.681,48.708,25.538,48.708,24.132"/>
	<path fill="#040000" d="M39.566,24.132c0-1.408,1.131-2.551,2.526-2.551c1.396,0,2.527,1.143,2.527,2.551
		c0,1.406-1.131,2.549-2.527,2.549C40.697,26.681,39.566,25.538,39.566,24.132"/>
	<path fill="#040000" d="M30.424,24.132c0-1.408,1.132-2.551,2.528-2.551c1.396,0,2.527,1.143,2.527,2.551
		c0,1.406-1.132,2.549-2.527,2.549C31.556,26.681,30.424,25.538,30.424,24.132"/>
	<path fill="#040000" d="M62.421,16.069c0-1.408,1.131-2.551,2.526-2.551s2.526,1.143,2.526,2.551s-1.131,2.549-2.526,2.549
		S62.421,17.478,62.421,16.069"/>
	<path fill="#040000" d="M53.278,16.069c0-1.408,1.131-2.551,2.527-2.551s2.527,1.143,2.527,2.551s-1.131,2.549-2.527,2.549
		S53.278,17.478,53.278,16.069"/>
	<path fill="#040000" d="M44.138,16.069c0-1.408,1.131-2.551,2.527-2.551c1.395,0,2.525,1.143,2.525,2.551s-1.131,2.549-2.525,2.549
		C45.269,18.618,44.138,17.478,44.138,16.069"/>
	<path fill="#040000" d="M34.996,16.069c0-1.408,1.132-2.551,2.526-2.551c1.396,0,2.527,1.143,2.527,2.551s-1.131,2.549-2.527,2.549
		C36.128,18.618,34.996,17.478,34.996,16.069"/>
	<path fill="#040000" d="M25.854,16.069c0-1.408,1.131-2.551,2.527-2.551c1.395,0,2.525,1.143,2.525,2.551s-1.131,2.549-2.525,2.549
		C26.985,18.618,25.854,17.478,25.854,16.069"/>
	<path fill="#B2B1B1" d="M57.515,23.406c0-1.198,0.963-2.17,2.153-2.17c1.188,0,2.151,0.972,2.151,2.17
		c0,1.2-0.964,2.171-2.151,2.171C58.478,25.577,57.515,24.606,57.515,23.406"/>
	<path fill="#B2B1B1" d="M48.373,23.406c0-1.198,0.964-2.17,2.152-2.17s2.151,0.972,2.151,2.17c0,1.2-0.963,2.171-2.151,2.171
		S48.373,24.606,48.373,23.406"/>
	<path fill="#B2B1B1" d="M39.232,23.406c0-1.198,0.962-2.17,2.151-2.17c1.188,0,2.151,0.972,2.151,2.17
		c0,1.2-0.964,2.171-2.151,2.171C40.194,25.577,39.232,24.606,39.232,23.406"/>
	<path fill="#B2B1B1" d="M30.09,23.406c0-1.198,0.963-2.17,2.151-2.17c1.189,0,2.154,0.972,2.154,2.17
		c0,1.2-0.965,2.171-2.154,2.171C31.053,25.577,30.09,24.606,30.09,23.406"/>
	<path fill="#B2B1B1" d="M62.086,15.344c0-1.197,0.962-2.17,2.151-2.17c1.188,0,2.152,0.973,2.152,2.17
		c0,1.2-0.965,2.171-2.152,2.171C63.048,17.515,62.086,16.544,62.086,15.344"/>
	<path fill="#B2B1B1" d="M52.944,15.344c0-1.197,0.963-2.17,2.152-2.17c1.188,0,2.152,0.973,2.152,2.17
		c0,1.2-0.965,2.171-2.152,2.171C53.907,17.515,52.944,16.544,52.944,15.344"/>
	<path fill="#B2B1B1" d="M43.804,15.344c0-1.197,0.962-2.17,2.15-2.17c1.188,0,2.15,0.973,2.15,2.17c0,1.2-0.963,2.171-2.15,2.171
		C44.766,17.515,43.804,16.544,43.804,15.344"/>
	<path fill="#B2B1B1" d="M34.661,15.344c0-1.197,0.963-2.17,2.152-2.17c1.188,0,2.152,0.973,2.152,2.17
		c0,1.2-0.965,2.171-2.152,2.171C35.624,17.515,34.661,16.544,34.661,15.344"/>
	<path fill="#B2B1B1" d="M25.52,15.344c0-1.197,0.964-2.17,2.152-2.17s2.151,0.973,2.151,2.17c0,1.2-0.963,2.171-2.151,2.171
		S25.52,16.544,25.52,15.344"/>
	<path fill="#B2B2B2" d="M11.204,12.788c3.83,0,6.938,3.156,6.938,7.049c0,3.892-3.107,7.047-6.938,7.047s-6.936-3.155-6.936-7.047
		C4.269,15.944,7.374,12.788,11.204,12.788"/>
	<rect x="7.603" y="18.554" fill="#040000" width="7.207" height="2.563"/>
	<rect x="9.942" y="16.175" fill="#040000" width="2.525" height="7.322"/>
	<path fill="#B2B2B2" d="M81.286,12.788c3.83,0,6.938,3.156,6.938,7.049c0,3.892-3.107,7.047-6.938,7.047
		c-3.831,0-6.936-3.155-6.936-7.047C74.351,15.944,77.455,12.788,81.286,12.788"/>
	<rect x="77.685" y="18.554" fill="#040000" width="7.205" height="2.563"/>
	<rect x="80.024" y="16.175" fill="#040000" width="2.524" height="7.322"/>
</g>
</svg>
