<?xml version="1.0" encoding="utf-8"?>
<!-- Generator: Adobe Illustrator 16.0.0, SVG Export Plug-In . SVG Version: 6.00 Build 0)  -->
<!DOCTYPE svg PUBLIC "-//W3C//DTD SVG 1.1//EN" "http://www.w3.org/Graphics/SVG/1.1/DTD/svg11.dtd">
<svg version="1.1" id="图层_1" xmlns="http://www.w3.org/2000/svg" xmlns:xlink="http://www.w3.org/1999/xlink" x="0px" y="0px"
	 width="51.02px" height="34.76px" viewBox="0 0 51.02 34.76" enable-background="new 0 0 51.02 34.76" xml:space="preserve">
<g>
	<rect x="0.005" fill="#151209" width="51.023" height="9.572"/>
	<rect x="0.005" y="25.188" fill="#151209" width="51.023" height="9.572"/>
	<rect x="1.913" y="9.572" fill="#151209" width="47.166" height="15.615"/>
	<rect x="3.073" y="4.332" fill="#625F54" width="44.889" height="29.244"/>
	<rect x="17.292" y="29.75" fill="#8A8A8A" width="16.451" height="3.826"/>
	<path fill="#151209" d="M34.925,34.76H16.108v-6.191h18.816V34.76z M18.474,32.393H32.56v-1.459H18.474V32.393z"/>
	<path fill="#231815" d="M43.019,18.625h0.318h0.316c0.246,0,0.449-0.197,0.449-0.445v-0.447c0-0.246-0.203-0.447-0.449-0.447
		h-0.316v-5.152c0-0.246-0.199-0.447-0.449-0.447h-6.551V7.146c0-0.117-0.121-0.217-0.271-0.217h-3.518V4.473
		c0-0.08-0.08-0.141-0.178-0.141H18.802c-0.098,0-0.174,0.061-0.174,0.141V6.93h-3.52c-0.148,0-0.27,0.098-0.27,0.217v4.539H8.288
		c-0.248,0-0.449,0.201-0.449,0.447v5.152H7.522c-0.248,0-0.447,0.201-0.447,0.447v0.447c0,0.248,0.199,0.445,0.447,0.445h0.316
		h0.318h0.262v5.529H8.157H7.839H7.522c-0.248,0-0.447,0.197-0.447,0.445v0.449c0,0.248,0.199,0.447,0.447,0.447h0.316v5.449
		c0,0.248,0.201,0.447,0.449,0.447H42.89c0.248,0,0.447-0.197,0.447-0.447v-5.449h0.316c0.248,0,0.449-0.199,0.449-0.447V24.6
		c0-0.246-0.201-0.445-0.449-0.445h-0.316h-0.316h-0.262v-5.529H43.019z"/>
	<rect x="14.302" y="19.412" fill="#A09E9F" width="1.354" height="9.705"/>
	<rect x="14.302" y="24.76" fill="#7F8081" width="1.354" height="4.357"/>
	<rect x="14.302" y="26.281" fill="#5E5E60" width="1.354" height="2.836"/>
	<rect x="17.331" y="19.412" fill="#A09E9F" width="1.355" height="9.705"/>
	<rect x="17.331" y="24.76" fill="#7F8081" width="1.355" height="4.357"/>
	<rect x="17.331" y="26.281" fill="#5E5E60" width="1.355" height="2.836"/>
	<rect x="20.364" y="19.412" fill="#A09E9F" width="1.354" height="9.705"/>
	<rect x="20.364" y="24.76" fill="#7F8081" width="1.354" height="4.357"/>
	<rect x="20.364" y="26.281" fill="#5E5E60" width="1.354" height="2.836"/>
	<rect x="23.394" y="19.412" fill="#A09E9F" width="1.354" height="9.705"/>
	<rect x="23.394" y="24.76" fill="#7F8081" width="1.354" height="4.357"/>
	<rect x="23.394" y="26.281" fill="#5E5E60" width="1.354" height="2.836"/>
	<rect x="26.427" y="19.412" fill="#A09E9F" width="1.355" height="9.705"/>
	<rect x="26.427" y="24.76" fill="#7F8081" width="1.355" height="4.357"/>
	<rect x="26.427" y="26.281" fill="#5E5E60" width="1.355" height="2.836"/>
	<rect x="29.456" y="19.412" fill="#A09E9F" width="1.355" height="9.705"/>
	<rect x="29.456" y="24.76" fill="#7F8081" width="1.355" height="4.357"/>
	<rect x="29.456" y="26.281" fill="#5E5E60" width="1.355" height="2.836"/>
	<rect x="32.491" y="19.412" fill="#A09E9F" width="1.354" height="9.705"/>
	<rect x="32.491" y="24.76" fill="#7F8081" width="1.354" height="4.357"/>
	<rect x="32.491" y="26.281" fill="#5E5E60" width="1.354" height="2.836"/>
	<rect x="35.519" y="19.412" fill="#A09E9F" width="1.357" height="9.705"/>
	<rect x="35.519" y="24.76" fill="#7F8081" width="1.357" height="4.357"/>
	<rect x="35.519" y="26.281" fill="#5E5E60" width="1.357" height="2.836"/>
	<g>
		<defs>
			<rect id="SVGID_1_" x="6.331" y="7.459" width="8.508" height="4.227"/>
		</defs>
		<clipPath id="SVGID_2_">
			<use xlink:href="#SVGID_1_"  overflow="visible"/>
		</clipPath>
		
			<linearGradient id="SVGID_3_" gradientUnits="userSpaceOnUse" x1="-817.5171" y1="338.4023" x2="-816.5165" y2="338.4023" gradientTransform="matrix(-10.5954 0 0 -10.5954 -8645.2656 3595.0859)">
			<stop  offset="0" style="stop-color:#EDE25F"/>
			<stop  offset="1" style="stop-color:#9B8528"/>
		</linearGradient>
		<rect x="6.331" y="7.459" clip-path="url(#SVGID_2_)" fill="url(#SVGID_3_)" width="8.508" height="4.227"/>
	</g>
	
		<rect x="6.331" y="7.459" fill="none" stroke="#231815" stroke-width="0.451" stroke-miterlimit="10" width="8.508" height="4.227"/>
	<g>
		<defs>
			<rect id="SVGID_4_" x="36.198" y="7.459" width="8.506" height="4.227"/>
		</defs>
		<clipPath id="SVGID_5_">
			<use xlink:href="#SVGID_4_"  overflow="visible"/>
		</clipPath>
		
			<linearGradient id="SVGID_6_" gradientUnits="userSpaceOnUse" x1="-817.563" y1="338.3564" x2="-816.563" y2="338.3564" gradientTransform="matrix(-10.5939 0 0 -10.5939 -8614.6641 3594.0781)">
			<stop  offset="0" style="stop-color:#2C813F"/>
			<stop  offset="1" style="stop-color:#094525"/>
		</linearGradient>
		<rect x="36.196" y="7.459" clip-path="url(#SVGID_5_)" fill="url(#SVGID_6_)" width="8.508" height="4.227"/>
	</g>
</g>
</svg>
