<?xml version="1.0" encoding="utf-8"?>
<!-- Generator: Adobe Illustrator 16.0.0, SVG Export Plug-In . SVG Version: 6.00 Build 0)  -->
<!DOCTYPE svg PUBLIC "-//W3C//DTD SVG 1.1//EN" "http://www.w3.org/Graphics/SVG/1.1/DTD/svg11.dtd">
<svg version="1.1" id="图层_1" xmlns="http://www.w3.org/2000/svg" xmlns:xlink="http://www.w3.org/1999/xlink" x="0px" y="0px"
	 width="1276.59px" height="127.14px" viewBox="0 0 1276.59 127.14" enable-background="new 0 0 1276.59 127.14"
	 xml:space="preserve">
<g>
	<path fill="#0C0C0C" d="M1276.091,115.642c0,6.075-4.926,11-11,11H11.5c-6.075,0-11-4.925-11-11V11.5c0-6.075,4.925-11,11-11
		h1253.591c6.074,0,11,4.925,11,11V115.642z"/>
	<path fill="#040000" d="M1265.091,127.142H11.5c-6.341,0-11.5-5.159-11.5-11.5V11.5C0,5.159,5.159,0,11.5,0h1253.591
		c6.341,0,11.5,5.159,11.5,11.5v104.142C1276.591,121.982,1271.432,127.142,1265.091,127.142z M11.5,1C5.71,1,1,5.71,1,11.5v104.142
		c0,5.79,4.71,10.5,10.5,10.5h1253.591c5.79,0,10.5-4.71,10.5-10.5V11.5c0-5.79-4.71-10.5-10.5-10.5H11.5z"/>
</g>
<g>
	<path fill="#7583B9" d="M72.643,0.5H11.5c-6.075,0-11,4.925-11,11v104.142c0,6.075,4.925,11,11,11h61.143V0.5z"/>
</g>
<g>
	<path fill="#050101" d="M51.246,26.764c0,3.866-3.134,7-7,7h-23c-3.866,0-7-3.134-7-7l0,0c0-3.866,3.134-7,7-7h23
		C48.112,19.764,51.246,22.897,51.246,26.764L51.246,26.764z"/>
</g>
<g>
	<path fill="#050101" d="M51.246,102.764c0,3.866-3.134,7-7,7h-23c-3.866,0-7-3.134-7-7l0,0c0-3.866,3.134-7,7-7h23
		C48.112,95.764,51.246,98.897,51.246,102.764L51.246,102.764z"/>
</g>
<g>
	<path fill="#AFAFAF" d="M36.83,74.283c-4.46,4.461-11.696,4.457-16.161-0.008C16.203,69.81,16.2,62.572,20.66,58.113
		c4.462-4.462,11.698-4.459,16.163,0.008C41.289,62.586,41.292,69.822,36.83,74.283"/>
</g>
<g>
	<path fill="#202020" d="M28.757,78.127c-3.188,0-6.187-1.242-8.442-3.498c-2.254-2.254-3.497-5.25-3.498-8.437
		c-0.001-3.187,1.238-6.182,3.489-8.433c2.251-2.251,5.245-3.491,8.429-3.491c3.188,0,6.187,1.242,8.441,3.499
		c2.254,2.254,3.497,5.25,3.498,8.436c0.001,3.187-1.239,6.182-3.491,8.434C34.934,76.887,31.941,78.127,28.757,78.127z
		 M28.735,55.269c-2.917,0-5.66,1.136-7.722,3.198c-2.063,2.062-3.198,4.806-3.196,7.725c0.001,2.92,1.14,5.665,3.205,7.73
		c2.066,2.066,4.813,3.205,7.735,3.205c2.917,0,5.658-1.136,7.719-3.197c2.063-2.063,3.199-4.807,3.198-7.726
		c-0.001-2.919-1.14-5.665-3.205-7.729C34.403,56.407,31.657,55.269,28.735,55.269z"/>
</g>
<g>
	<path fill="#AFAFAF" d="M34.687,72.139c-3.278,3.277-8.596,3.275-11.875-0.006c-3.281-3.279-3.284-8.598-0.006-11.875
		c3.278-3.278,8.596-3.275,11.876,0.004C37.963,63.543,37.965,68.86,34.687,72.139"/>
</g>
<g>
	<path fill="#949394" d="M28.753,75.096c-2.378,0-4.614-0.927-6.295-2.609c-1.681-1.681-2.608-3.915-2.609-6.291
		c-0.001-2.377,0.923-4.611,2.604-6.291c1.679-1.679,3.912-2.604,6.288-2.604c2.377,0,4.613,0.926,6.295,2.607
		c3.471,3.471,3.473,9.116,0.005,12.584C33.361,74.171,31.128,75.096,28.753,75.096z M28.74,58.301c-2.108,0-4.09,0.82-5.581,2.311
		c-1.491,1.491-2.312,3.473-2.311,5.583c0.001,2.109,0.824,4.093,2.316,5.585c1.493,1.493,3.477,2.316,5.588,2.316
		c2.108,0,4.089-0.821,5.58-2.311c3.078-3.078,3.076-8.089-0.005-11.17C32.835,59.123,30.85,58.301,28.74,58.301z"/>
</g>
<g>
	<g>
		<defs>
			
				<rect id="SVGID_1_" x="20.826" y="58.288" transform="matrix(-0.7072 -0.707 0.707 -0.7072 2.2688 133.3352)" width="15.839" height="15.82"/>
		</defs>
		<clipPath id="SVGID_2_">
			<use xlink:href="#SVGID_1_"  overflow="visible"/>
		</clipPath>
		<g clip-path="url(#SVGID_2_)">
			<path fill="#BFBFBF" d="M34.345,71.797c-3.089,3.09-8.1,3.086-11.191-0.006c-3.093-3.092-3.095-8.104-0.006-11.191
				c3.089-3.09,8.1-3.088,11.191,0.005C37.432,63.695,37.435,68.707,34.345,71.797"/>
		</g>
		<g clip-path="url(#SVGID_2_)">
			<path fill="#C1C1C1" d="M34.213,71.666c-3.016,3.016-7.909,3.013-10.929-0.008c-3.02-3.018-3.021-7.912-0.006-10.928
				c3.017-3.017,7.91-3.016,10.93,0.005S37.229,68.648,34.213,71.666"/>
		</g>
		<g clip-path="url(#SVGID_2_)">
			<path fill="#C3C4C4" d="M34.081,71.534c-2.942,2.942-7.72,2.942-10.666-0.005s-2.947-7.723-0.005-10.666
				c2.943-2.943,7.72-2.943,10.667,0.002C37.023,63.813,37.025,68.59,34.081,71.534"/>
		</g>
		<g clip-path="url(#SVGID_2_)">
			<path fill="#C5C6C6" d="M33.949,71.402c-2.871,2.871-7.528,2.868-10.402-0.005c-2.874-2.876-2.876-7.532-0.006-10.403
				c2.873-2.871,7.529-2.869,10.403,0.004C36.819,63.873,36.821,68.531,33.949,71.402"/>
		</g>
		<g clip-path="url(#SVGID_2_)">
			<path fill="#C7C9C9" d="M33.818,71.271c-2.798,2.798-7.338,2.795-10.14-0.005c-2.801-2.802-2.802-7.342-0.005-10.14
				c2.799-2.799,7.339-2.798,10.141,0.005C36.615,63.932,36.617,68.473,33.818,71.271"/>
		</g>
		<g clip-path="url(#SVGID_2_)">
			<path fill="#CACBCB" d="M33.686,71.139c-2.725,2.725-7.146,2.724-9.875-0.005c-2.729-2.729-2.729-7.149-0.005-9.876
				c2.727-2.727,7.148-2.725,9.876,0.004C36.411,63.99,36.412,68.412,33.686,71.139"/>
		</g>
		<g clip-path="url(#SVGID_2_)">
			<path fill="#CCCECE" d="M33.555,71.008c-2.652,2.652-6.957,2.65-9.613-0.006c-2.655-2.654-2.656-6.96-0.005-9.613
				c2.654-2.652,6.958-2.652,9.614,0.004S36.208,68.354,33.555,71.008"/>
		</g>
		<g clip-path="url(#SVGID_2_)">
			<path fill="#CED0D0" d="M33.423,70.875c-2.579,2.58-6.768,2.58-9.35-0.004c-2.583-2.582-2.584-6.771-0.005-9.35
				c2.581-2.582,6.769-2.58,9.351,0.002C36.003,64.107,36.004,68.293,33.423,70.875"/>
		</g>
		<g clip-path="url(#SVGID_2_)">
			<path fill="#D1D3D3" d="M33.29,70.743c-2.506,2.507-6.575,2.506-9.085-0.003c-2.511-2.511-2.512-6.582-0.005-9.086
				c2.509-2.51,6.578-2.508,9.088,0.002C35.799,64.166,35.799,68.235,33.29,70.743"/>
		</g>
		<g clip-path="url(#SVGID_2_)">
			<path fill="#D3D5D5" d="M33.16,70.613c-2.435,2.434-6.386,2.432-8.823-0.006s-2.439-6.389-0.005-8.822
				c2.436-2.436,6.386-2.436,8.823,0.003C35.594,64.227,35.595,68.177,33.16,70.613"/>
		</g>
	</g>
</g>
<g>
	<polygon fill="#5F5F5E" points="24.651,68.83 27.284,66.197 24.648,63.562 26.11,62.1 28.746,64.736 31.378,62.102 32.842,63.565 
		30.209,66.198 32.844,68.834 31.383,70.295 28.747,67.66 26.114,70.292 	"/>
</g>
<g>
	<path fill="#231815" d="M32.589,63.566l-2.38,2.379l-0.254,0.253l0.254,0.254l2.382,2.382l-1.209,1.207l-2.381-2.381l-0.254-0.254
		l-0.253,0.254l-2.379,2.378l-1.209-1.208l2.379-2.379l0.253-0.253l-0.254-0.255l-2.382-2.382l1.208-1.208l2.382,2.381l0.254,0.254
		l0.253-0.252l2.379-2.379L32.589,63.566z M33.094,63.566l-1.716-1.717l-2.632,2.633l-2.635-2.635l-1.716,1.714l2.636,2.636
		l-2.633,2.633l1.716,1.717l2.633-2.633l2.635,2.633l1.715-1.713l-2.635-2.636L33.094,63.566z"/>
</g>
<g>
	<rect x="36.572" y="14.932" fill="#FAFAFA" width="24.437" height="98.666"/>
</g>
<g>
	<path fill="#7583B9" d="M1203.947,0.5h61.144c6.074,0,11,4.925,11,11v104.142c0,6.075-4.926,11-11,11h-61.144V0.5z"/>
</g>
<g>
	<path fill="#050101" d="M1225.345,26.764c0,3.866,3.133,7,7,7h23c3.865,0,7-3.134,7-7l0,0c0-3.866-3.135-7-7-7h-23
		C1228.478,19.764,1225.345,22.897,1225.345,26.764L1225.345,26.764z"/>
</g>
<g>
	<path fill="#050101" d="M1225.345,102.764c0,3.866,3.133,7,7,7h23c3.865,0,7-3.134,7-7l0,0c0-3.866-3.135-7-7-7h-23
		C1228.478,95.764,1225.345,98.897,1225.345,102.764L1225.345,102.764z"/>
</g>
<g>
	<path fill="#AFAFAF" d="M1239.761,74.283c4.459,4.461,11.695,4.457,16.16-0.008c4.467-4.466,4.469-11.703,0.01-16.162
		c-4.463-4.462-11.699-4.459-16.164,0.008C1235.302,62.586,1235.298,69.822,1239.761,74.283"/>
</g>
<g>
	<path fill="#202020" d="M1247.834,78.127C1247.833,78.127,1247.833,78.127,1247.834,78.127c-3.186-0.001-6.178-1.24-8.427-3.49
		c-2.253-2.252-3.493-5.247-3.491-8.434c0.001-3.186,1.243-6.182,3.497-8.436c2.255-2.256,5.253-3.499,8.441-3.499
		c3.185,0,6.178,1.24,8.43,3.491c2.251,2.251,3.49,5.246,3.489,8.433c-0.002,3.187-1.244,6.183-3.499,8.437
		C1254.02,76.884,1251.021,78.127,1247.834,78.127z M1247.854,55.269c-2.921,0-5.668,1.138-7.734,3.206
		c-2.065,2.065-3.203,4.81-3.204,7.729c-0.002,2.919,1.135,5.663,3.198,7.726c2.061,2.062,4.802,3.196,7.719,3.197c0,0,0,0,0.001,0
		c2.92,0,5.667-1.139,7.733-3.205c2.065-2.065,3.204-4.811,3.206-7.73c0.001-2.919-1.134-5.662-3.196-7.725
		C1253.515,56.405,1250.771,55.269,1247.854,55.269z"/>
</g>
<g>
	<path fill="#AFAFAF" d="M1241.903,72.139c3.279,3.277,8.596,3.275,11.875-0.006c3.281-3.279,3.285-8.598,0.006-11.875
		c-3.277-3.278-8.596-3.275-11.875,0.004C1238.628,63.543,1238.626,68.86,1241.903,72.139"/>
</g>
<g>
	<path fill="#949394" d="M1247.837,75.096L1247.837,75.096c-2.375-0.001-4.607-0.925-6.287-2.604
		c-3.468-3.469-3.465-9.113,0.006-12.584c1.682-1.682,3.917-2.607,6.295-2.607c2.376,0,4.608,0.924,6.287,2.604
		c1.681,1.679,2.605,3.914,2.604,6.291c-0.001,2.376-0.928,4.61-2.609,6.291C1252.45,74.169,1250.215,75.096,1247.837,75.096z
		 M1247.851,58.301c-2.11,0-4.096,0.822-5.588,2.314c-3.081,3.081-3.083,8.092-0.006,11.17c1.49,1.489,3.473,2.31,5.58,2.311
		c2.11,0,4.095-0.823,5.588-2.316c1.493-1.492,2.315-3.476,2.316-5.585c0.001-2.11-0.819-4.092-2.311-5.583
		C1251.941,59.121,1249.959,58.301,1247.851,58.301z"/>
</g>
<g>
	<g>
		<defs>
			
				<rect id="SVGID_3_" x="1239.925" y="58.288" transform="matrix(0.7072 -0.707 0.707 0.7072 318.6036 901.6673)" width="15.839" height="15.819"/>
		</defs>
		<clipPath id="SVGID_4_">
			<use xlink:href="#SVGID_3_"  overflow="visible"/>
		</clipPath>
		<g clip-path="url(#SVGID_4_)">
			<path fill="#BFBFBF" d="M1242.245,71.797c3.09,3.09,8.1,3.086,11.191-0.006c3.094-3.092,3.096-8.104,0.006-11.191
				c-3.088-3.09-8.1-3.088-11.191,0.005C1239.159,63.695,1239.155,68.707,1242.245,71.797"/>
		</g>
		<g clip-path="url(#SVGID_4_)">
			<path fill="#C1C1C1" d="M1242.378,71.666c3.015,3.016,7.908,3.013,10.928-0.008c3.02-3.018,3.021-7.912,0.006-10.928
				c-3.016-3.017-7.91-3.016-10.93,0.005S1239.36,68.648,1242.378,71.666"/>
		</g>
		<g clip-path="url(#SVGID_4_)">
			<path fill="#C3C4C4" d="M1242.509,71.534c2.943,2.942,7.721,2.942,10.666-0.005c2.947-2.947,2.947-7.723,0.006-10.666
				c-2.943-2.943-7.721-2.943-10.668,0.002C1239.567,63.813,1239.565,68.59,1242.509,71.534"/>
		</g>
		<g clip-path="url(#SVGID_4_)">
			<path fill="#C5C6C6" d="M1242.642,71.402c2.871,2.871,7.527,2.868,10.402-0.005c2.873-2.876,2.875-7.532,0.006-10.403
				c-2.873-2.871-7.529-2.869-10.404,0.004C1239.771,63.873,1239.769,68.531,1242.642,71.402"/>
		</g>
		<g clip-path="url(#SVGID_4_)">
			<path fill="#C7C9C9" d="M1242.772,71.271c2.797,2.798,7.338,2.795,10.139-0.005c2.801-2.802,2.803-7.342,0.006-10.14
				c-2.799-2.799-7.34-2.798-10.141,0.005C1239.976,63.932,1239.974,68.473,1242.772,71.271"/>
		</g>
		<g clip-path="url(#SVGID_4_)">
			<path fill="#CACBCB" d="M1242.905,71.139c2.725,2.725,7.146,2.724,9.875-0.005c2.729-2.729,2.729-7.149,0.004-9.876
				c-2.727-2.727-7.148-2.725-9.875,0.004C1240.179,63.99,1240.179,68.412,1242.905,71.139"/>
		</g>
		<g clip-path="url(#SVGID_4_)">
			<path fill="#CCCECE" d="M1243.036,71.008c2.652,2.652,6.957,2.65,9.613-0.006c2.654-2.654,2.656-6.96,0.004-9.613
				c-2.654-2.652-6.957-2.652-9.613,0.004S1240.382,68.354,1243.036,71.008"/>
		</g>
		<g clip-path="url(#SVGID_4_)">
			<path fill="#CED0D0" d="M1243.167,70.875c2.58,2.58,6.768,2.58,9.35-0.004c2.584-2.582,2.584-6.771,0.006-9.35
				c-2.582-2.582-6.77-2.58-9.352,0.002C1240.587,64.107,1240.587,68.293,1243.167,70.875"/>
		</g>
		<g clip-path="url(#SVGID_4_)">
			<path fill="#D1D3D3" d="M1243.3,70.743c2.506,2.507,6.576,2.506,9.086-0.003c2.51-2.511,2.512-6.582,0.004-9.086
				c-2.508-2.51-6.578-2.508-9.088,0.002S1240.792,68.235,1243.3,70.743"/>
		</g>
		<g clip-path="url(#SVGID_4_)">
			<path fill="#D3D5D5" d="M1243.431,70.613c2.434,2.434,6.385,2.432,8.822-0.006s2.439-6.389,0.006-8.822
				c-2.436-2.436-6.387-2.436-8.824,0.003S1240.995,68.177,1243.431,70.613"/>
		</g>
	</g>
</g>
<g>
	<polygon fill="#5F5F5E" points="1251.938,68.83 1249.306,66.197 1251.942,63.562 1250.479,62.1 1247.845,64.736 1245.212,62.102 
		1243.749,63.565 1246.382,66.198 1243.747,68.834 1245.208,70.295 1247.843,67.66 1250.476,70.292 	"/>
</g>
<g>
	<path fill="#231815" d="M1245.212,62.357l2.379,2.379l0.254,0.252l0.254-0.254l2.381-2.381l1.209,1.208l-2.383,2.382l-0.254,0.255
		l0.254,0.253l2.379,2.379l-1.209,1.208l-2.379-2.378l-0.254-0.254l-0.254,0.254l-2.381,2.381l-1.209-1.207l2.383-2.382l0.254-0.254
		l-0.254-0.253l-2.381-2.379L1245.212,62.357z M1246.128,66.198l-2.635,2.636l1.715,1.713l2.635-2.633l2.633,2.633l1.717-1.717
		l-2.633-2.633l2.635-2.636l-1.715-1.714l-2.635,2.635l-2.633-2.633l-1.715,1.717L1246.128,66.198z"/>
</g>
<g>
	<rect x="1215.581" y="14.932" fill="#FAFAFA" width="24.437" height="98.666"/>
</g>
<g>
	<rect x="75.838" y="0.5" fill="#F4F4F4" width="272.26" height="126.142"/>
</g>
<g>
	<rect x="348.098" y="0.5" fill="#7583B9" width="853.245" height="126.142"/>
</g>
<g>
	<path fill="#7583B9" d="M1174.496,107.572c0,5.021-3.403,9.09-7.601,9.09H980.468c-4.197,0-7.601-4.068-7.601-9.09V27.83
		c0-5.021,3.403-9.092,7.601-9.092h186.428c4.197,0,7.601,4.07,7.601,9.092V107.572z"/>
	<path fill="#181818" d="M1166.896,117.162H980.468c-4.467,0-8.101-4.302-8.101-9.59V27.83c0-5.289,3.634-9.592,8.101-9.592h186.428
		c4.467,0,8.101,4.303,8.101,9.592v79.742C1174.996,112.86,1171.362,117.162,1166.896,117.162z M980.468,19.238
		c-3.915,0-7.101,3.854-7.101,8.592v79.742c0,4.736,3.186,8.59,7.101,8.59h186.428c3.915,0,7.101-3.854,7.101-8.59V27.83
		c0-4.737-3.186-8.592-7.101-8.592H980.468z"/>
</g>
<g>
	<path fill="#AFAFAF" d="M979.089,33.185c2.531,2.531,6.637,2.528,9.17-0.005c2.534-2.533,2.535-6.64,0.006-9.17
		c-2.532-2.531-6.639-2.53-9.172,0.004C976.56,26.547,976.558,30.653,979.089,33.185"/>
</g>
<g>
	<path fill="#202020" d="M983.67,35.331C983.67,35.331,983.67,35.331,983.67,35.331c-1.798,0-3.487-0.7-4.758-1.97
		c-2.625-2.625-2.623-6.897,0.004-9.524c1.272-1.273,2.965-1.975,4.766-1.975c1.798,0,3.488,0.7,4.76,1.971
		c2.624,2.625,2.621,6.897-0.006,9.523C987.162,34.63,985.47,35.331,983.67,35.331z M983.682,22.362
		c-1.667,0-3.233,0.649-4.412,1.828c-2.432,2.432-2.434,6.388-0.004,8.817c1.176,1.176,2.739,1.823,4.403,1.823h0.001
		c1.666,0,3.233-0.649,4.412-1.828c2.433-2.431,2.435-6.386,0.006-8.816C986.911,23.01,985.346,22.362,983.682,22.362z"/>
</g>
<g>
	<path fill="#AFAFAF" d="M980.306,31.968c1.859,1.859,4.877,1.858,6.738-0.003s1.863-4.879,0.002-6.738
		c-1.859-1.86-4.877-1.858-6.738,0.002C978.446,27.091,978.446,30.107,980.306,31.968"/>
</g>
<g>
	<path fill="#949394" d="M983.673,33.861C983.672,33.861,983.672,33.861,983.673,33.861c-1.406,0-2.728-0.547-3.721-1.54
		c-2.052-2.052-2.051-5.393,0.002-7.446c0.995-0.995,2.318-1.543,3.726-1.543c1.405,0,2.727,0.547,3.72,1.541
		c0.994,0.994,1.542,2.315,1.541,3.722c0,1.406-0.548,2.729-1.543,3.723C986.402,33.313,985.079,33.861,983.673,33.861z
		 M983.68,24.332c-1.141,0-2.212,0.444-3.019,1.25c-1.663,1.664-1.663,4.37-0.002,6.032c0.805,0.804,1.874,1.247,3.013,1.247h0.001
		c1.14,0,2.211-0.444,3.018-1.25c0.806-0.806,1.25-1.877,1.25-3.017c0.001-1.139-0.442-2.21-1.248-3.015
		C985.888,24.775,984.818,24.332,983.68,24.332z"/>
</g>
<g>
	<g>
		<defs>
			
				<rect id="SVGID_5_" x="979.183" y="24.109" transform="matrix(0.7072 -0.707 0.707 0.7072 267.7872 703.8304)" width="8.987" height="8.976"/>
		</defs>
		<clipPath id="SVGID_6_">
			<use xlink:href="#SVGID_5_"  overflow="visible"/>
		</clipPath>
		<g clip-path="url(#SVGID_6_)">
			<path fill="#BFBFBF" d="M980.499,31.773c1.754,1.754,4.596,1.751,6.351-0.003c1.755-1.755,1.756-4.599,0.003-6.351
				c-1.752-1.753-4.596-1.752-6.35,0.003C978.748,27.177,978.747,30.021,980.499,31.773"/>
		</g>
		<g clip-path="url(#SVGID_6_)">
			<path fill="#C1C1C1" d="M980.575,31.699c1.711,1.711,4.486,1.709,6.199-0.004c1.715-1.713,1.715-4.489,0.004-6.201
				c-1.711-1.711-4.488-1.711-6.201,0.004C978.864,27.211,978.862,29.987,980.575,31.699"/>
		</g>
		<g clip-path="url(#SVGID_6_)">
			<path fill="#C3C4C4" d="M980.649,31.625c1.67,1.669,4.38,1.669,6.051-0.003c1.672-1.673,1.674-4.382,0.004-6.052
				s-4.381-1.67-6.053,0.001C978.979,27.244,978.979,29.954,980.649,31.625"/>
		</g>
		<g clip-path="url(#SVGID_6_)">
			<path fill="#C5C6C6" d="M980.724,31.55c1.629,1.629,4.271,1.628,5.902-0.003c1.631-1.632,1.633-4.273,0.004-5.902
				c-1.631-1.629-4.272-1.628-5.902,0.002C979.095,27.277,979.095,29.921,980.724,31.55"/>
		</g>
		<g clip-path="url(#SVGID_6_)">
			<path fill="#C7C9C9" d="M980.798,31.475c1.588,1.588,4.164,1.586,5.754-0.002c1.589-1.59,1.59-4.166,0.002-5.754
				s-4.164-1.587-5.754,0.004C979.212,27.311,979.21,29.887,980.798,31.475"/>
		</g>
		<g clip-path="url(#SVGID_6_)">
			<path fill="#CACBCB" d="M980.874,31.4c1.545,1.546,4.055,1.545,5.603-0.003c1.549-1.548,1.549-4.057,0.003-5.604
				c-1.547-1.547-4.057-1.546-5.604,0.002C979.327,27.344,979.327,29.854,980.874,31.4"/>
		</g>
		<g clip-path="url(#SVGID_6_)">
			<path fill="#CCCECE" d="M980.948,31.326c1.504,1.505,3.947,1.504,5.454-0.004c1.507-1.506,1.507-3.949,0.003-5.454
				c-1.506-1.505-3.947-1.505-5.455,0.002S979.442,29.82,980.948,31.326"/>
		</g>
		<g clip-path="url(#SVGID_6_)">
			<path fill="#CED0D0" d="M981.022,31.25c1.463,1.465,3.84,1.465,5.305-0.002c1.467-1.465,1.467-3.842,0.004-5.305
				c-1.465-1.465-3.842-1.464-5.307,0.001C979.56,27.41,979.558,29.785,981.022,31.25"/>
		</g>
		<g clip-path="url(#SVGID_6_)">
			<path fill="#D1D3D3" d="M981.099,31.176c1.422,1.422,3.73,1.422,5.154-0.002s1.426-3.734,0.002-5.155
				c-1.423-1.424-3.732-1.423-5.156,0.001S979.675,29.753,981.099,31.176"/>
		</g>
		<g clip-path="url(#SVGID_6_)">
			<path fill="#D3D5D5" d="M981.171,31.102c1.383,1.381,3.624,1.38,5.008-0.002c1.382-1.384,1.383-3.626,0.002-5.007
				c-1.382-1.382-3.623-1.382-5.006,0.002C979.791,27.479,979.79,29.72,981.171,31.102"/>
		</g>
	</g>
</g>
<g>
	<polygon fill="#5F5F5E" points="985.999,30.09 984.505,28.598 986.001,27.102 985.171,26.271 983.677,27.768 982.183,26.272 
		981.352,27.104 982.847,28.598 981.351,30.093 982.181,30.922 983.675,29.427 985.169,30.92 	"/>
</g>
<g>
	<path fill="#231815" d="M982.183,26.418l1.35,1.35l0.145,0.143l0.144-0.144l1.351-1.351l0.686,0.686l-1.352,1.351l-0.143,0.146
		l0.143,0.143l1.35,1.35l-0.686,0.686l-1.35-1.349l-0.145-0.145l-0.143,0.145l-1.352,1.351l-0.686-0.685l1.352-1.352l0.144-0.144
		l-0.144-0.145l-1.352-1.35L982.183,26.418z M982.702,28.598l-1.494,1.495l0.973,0.972l1.494-1.494l1.494,1.494l0.974-0.975
		l-1.493-1.492l1.496-1.496l-0.975-0.973l-1.494,1.494l-1.494-1.493l-0.973,0.974L982.702,28.598z"/>
</g>
<g>
	<path fill="#AFAFAF" d="M1158.622,33.185c2.529,2.531,6.637,2.528,9.17-0.005s2.535-6.64,0.004-9.17
		c-2.531-2.531-6.637-2.53-9.17,0.004C1156.091,26.547,1156.091,30.653,1158.622,33.185"/>
</g>
<g>
	<path fill="#202020" d="M1163.202,35.331L1163.202,35.331c-1.799,0-3.487-0.7-4.757-1.97c-1.271-1.271-1.972-2.963-1.971-4.762
		c0-1.799,0.701-3.491,1.975-4.763c1.272-1.273,2.965-1.975,4.765-1.975c1.798,0,3.488,0.7,4.759,1.971
		c1.271,1.271,1.972,2.962,1.971,4.761s-0.702,3.49-1.975,4.763C1166.695,34.63,1165.002,35.331,1163.202,35.331z M1163.214,22.362
		c-1.666,0-3.232,0.649-4.411,1.828c-1.179,1.178-1.828,2.744-1.828,4.41c-0.001,1.665,0.647,3.23,1.824,4.408
		c1.175,1.176,2.738,1.823,4.403,1.823l0,0c1.667,0,3.234-0.649,4.413-1.828c1.178-1.178,1.827-2.744,1.828-4.409
		c0-1.666-0.647-3.23-1.824-4.407C1166.442,23.01,1164.878,22.362,1163.214,22.362z"/>
</g>
<g>
	<path fill="#AFAFAF" d="M1159.838,31.968c1.86,1.859,4.878,1.858,6.737-0.003c1.862-1.861,1.863-4.879,0.004-6.738
		c-1.859-1.86-4.877-1.858-6.738,0.002C1157.979,27.091,1157.978,30.107,1159.838,31.968"/>
</g>
<g>
	<path fill="#949394" d="M1163.205,33.861L1163.205,33.861c-1.405,0-2.727-0.547-3.721-1.54c-2.052-2.052-2.051-5.392,0.003-7.446
		c0.995-0.995,2.318-1.543,3.726-1.543c1.405,0,2.727,0.547,3.72,1.541c0.994,0.994,1.541,2.316,1.54,3.722
		s-0.549,2.729-1.544,3.723C1165.935,33.313,1164.612,33.861,1163.205,33.861z M1163.213,24.332c-1.141,0-2.212,0.444-3.019,1.25
		c-1.663,1.665-1.665,4.37-0.003,6.032c0.805,0.804,1.875,1.247,3.014,1.247l0,0c1.14,0,2.211-0.444,3.017-1.25
		c0.807-0.806,1.251-1.877,1.251-3.017c0.001-1.139-0.442-2.21-1.247-3.015S1164.352,24.332,1163.213,24.332z"/>
</g>
<g>
	<g>
		<defs>
			
				<rect id="SVGID_7_" x="1158.715" y="24.109" transform="matrix(0.7072 -0.707 0.707 0.7072 320.3514 830.759)" width="8.987" height="8.976"/>
		</defs>
		<clipPath id="SVGID_8_">
			<use xlink:href="#SVGID_7_"  overflow="visible"/>
		</clipPath>
		<g clip-path="url(#SVGID_8_)">
			<path fill="#BFBFBF" d="M1160.032,31.773c1.752,1.754,4.596,1.751,6.35-0.003c1.754-1.755,1.756-4.599,0.004-6.351
				c-1.754-1.753-4.596-1.752-6.351,0.003C1158.28,27.177,1158.278,30.021,1160.032,31.773"/>
		</g>
		<g clip-path="url(#SVGID_8_)">
			<path fill="#C1C1C1" d="M1160.106,31.699c1.711,1.711,4.488,1.709,6.201-0.004s1.713-4.489,0.003-6.201
				c-1.712-1.711-4.487-1.711-6.201,0.004C1158.396,27.211,1158.396,29.987,1160.106,31.699"/>
		</g>
		<g clip-path="url(#SVGID_8_)">
			<path fill="#C3C4C4" d="M1160.181,31.625c1.67,1.669,4.381,1.669,6.053-0.003c1.672-1.673,1.672-4.382,0.002-6.052
				s-4.379-1.67-6.052,0.001C1158.513,27.244,1158.511,29.954,1160.181,31.625"/>
		</g>
		<g clip-path="url(#SVGID_8_)">
			<path fill="#C5C6C6" d="M1160.257,31.55c1.629,1.629,4.271,1.628,5.902-0.003c1.63-1.632,1.631-4.273,0.002-5.902
				s-4.271-1.628-5.902,0.002C1158.628,27.277,1158.626,29.921,1160.257,31.55"/>
		</g>
		<g clip-path="url(#SVGID_8_)">
			<path fill="#C7C9C9" d="M1160.331,31.475c1.587,1.588,4.162,1.586,5.752-0.002c1.59-1.59,1.59-4.166,0.004-5.754
				c-1.588-1.588-4.164-1.587-5.754,0.004C1158.743,27.311,1158.743,29.887,1160.331,31.475"/>
		</g>
		<g clip-path="url(#SVGID_8_)">
			<path fill="#CACBCB" d="M1160.405,31.4c1.547,1.546,4.055,1.545,5.604-0.003s1.549-4.057,0.002-5.604s-4.055-1.546-5.604,0.002
				C1158.859,27.344,1158.858,29.854,1160.405,31.4"/>
		</g>
		<g clip-path="url(#SVGID_8_)">
			<path fill="#CCCECE" d="M1160.479,31.326c1.506,1.505,3.947,1.504,5.455-0.004c1.506-1.506,1.508-3.949,0.002-5.454
				s-3.947-1.505-5.455,0.002C1158.976,27.377,1158.975,29.82,1160.479,31.326"/>
		</g>
		<g clip-path="url(#SVGID_8_)">
			<path fill="#CED0D0" d="M1160.556,31.25c1.462,1.465,3.84,1.465,5.305-0.002c1.465-1.465,1.465-3.842,0.002-5.305
				c-1.465-1.465-3.84-1.464-5.305,0.001C1159.091,27.41,1159.091,29.785,1160.556,31.25"/>
		</g>
		<g clip-path="url(#SVGID_8_)">
			<path fill="#D1D3D3" d="M1160.63,31.176c1.422,1.422,3.73,1.422,5.154-0.002c1.426-1.424,1.426-3.734,0.004-5.155
				c-1.424-1.424-3.732-1.423-5.156,0.001C1159.206,27.443,1159.206,29.753,1160.63,31.176"/>
		</g>
		<g clip-path="url(#SVGID_8_)">
			<path fill="#D3D5D5" d="M1160.704,31.102c1.381,1.381,3.623,1.38,5.006-0.002c1.383-1.384,1.385-3.626,0.003-5.007
				c-1.382-1.382-3.624-1.382-5.007,0.002S1159.323,29.72,1160.704,31.102"/>
		</g>
	</g>
</g>
<g>
	<polygon fill="#5F5F5E" points="1165.532,30.09 1164.038,28.598 1165.534,27.102 1164.704,26.271 1163.208,27.768 1161.716,26.272 
		1160.884,27.104 1162.378,28.598 1160.884,30.093 1161.712,30.922 1163.208,29.427 1164.702,30.92 	"/>
</g>
<g>
	<path fill="#231815" d="M1161.716,26.418l1.35,1.35l0.143,0.143l0.145-0.144l1.352-1.351l0.686,0.686l-1.352,1.351l-0.145,0.146
		l0.145,0.143l1.35,1.35l-0.687,0.686l-1.351-1.349l-0.143-0.145l-0.145,0.145l-1.351,1.351l-0.687-0.685l1.352-1.352l0.145-0.144
		l-0.145-0.145l-1.35-1.35L1161.716,26.418z M1162.235,28.598l-1.496,1.495l0.974,0.972l1.495-1.494l1.494,1.494l0.973-0.975
		l-1.494-1.492l1.496-1.496l-0.973-0.973l-1.496,1.494l-1.492-1.493l-0.975,0.974L1162.235,28.598z"/>
</g>
<g>
	<g>
		<circle fill="#181818" cx="998.075" cy="41.036" r="5.484"/>
	</g>
	<g>
		<circle fill="#181818" cx="1013.675" cy="41.036" r="5.484"/>
	</g>
	<g>
		<circle fill="#181818" cx="1029.274" cy="41.036" r="5.484"/>
	</g>
	<g>
		<circle fill="#181818" cx="1044.875" cy="41.036" r="5.484"/>
	</g>
	<g>
		<circle fill="#181818" cx="1060.476" cy="41.036" r="5.484"/>
	</g>
	<g>
		<circle fill="#181818" cx="1076.075" cy="41.036" r="5.484"/>
	</g>
	<g>
		<circle fill="#181818" cx="1091.675" cy="41.036" r="5.484"/>
	</g>
	<g>
		<circle fill="#181818" cx="1107.276" cy="41.036" r="5.484"/>
	</g>
	<g>
		<circle fill="#181818" cx="1122.875" cy="41.036" r="5.484"/>
	</g>
	<g>
		<circle fill="#181818" cx="1138.476" cy="41.036" r="5.484"/>
	</g>
	<g>
		<circle fill="#181818" cx="1154.075" cy="41.036" r="5.484"/>
	</g>
	<g>
		<circle fill="#181818" cx="1005.952" cy="29.126" r="5.484"/>
	</g>
	<g>
		<circle fill="#181818" cx="1021.552" cy="29.126" r="5.484"/>
	</g>
	<g>
		<circle fill="#181818" cx="1037.151" cy="29.126" r="5.484"/>
	</g>
	<g>
		<circle fill="#181818" cx="1052.752" cy="29.126" r="5.484"/>
	</g>
	<g>
		<circle fill="#181818" cx="1068.353" cy="29.126" r="5.484"/>
	</g>
	<g>
		<circle fill="#181818" cx="1083.952" cy="29.126" r="5.484"/>
	</g>
	<g>
		<circle fill="#181818" cx="1099.552" cy="29.126" r="5.484"/>
	</g>
	<g>
		<circle fill="#181818" cx="1115.153" cy="29.126" r="5.484"/>
	</g>
	<g>
		<circle fill="#181818" cx="1130.752" cy="29.126" r="5.484"/>
	</g>
	<g>
		<circle fill="#181818" cx="1146.353" cy="29.126" r="5.484"/>
	</g>
</g>
<g>
	<path fill="#7583B9" d="M972.868,107.572c0,5.021-3.404,9.09-7.602,9.09H778.839c-4.197,0-7.6-4.068-7.6-9.09V27.83
		c0-5.021,3.402-9.092,7.6-9.092h186.428c4.197,0,7.602,4.07,7.602,9.092V107.572z"/>
	<path fill="#181818" d="M965.267,117.162H778.839c-4.466,0-8.1-4.302-8.1-9.59V27.83c0-5.289,3.634-9.592,8.1-9.592h186.428
		c4.467,0,8.102,4.303,8.102,9.592v79.742C973.368,112.86,969.733,117.162,965.267,117.162z M778.839,19.238
		c-3.915,0-7.1,3.854-7.1,8.592v79.742c0,4.736,3.185,8.59,7.1,8.59h186.428c3.916,0,7.102-3.854,7.102-8.59V27.83
		c0-4.737-3.186-8.592-7.102-8.592H778.839z"/>
</g>
<g>
	<path fill="#AFAFAF" d="M777.461,33.185c2.53,2.531,6.637,2.528,9.17-0.005c2.534-2.533,2.535-6.64,0.005-9.17
		c-2.531-2.531-6.638-2.53-9.171,0.004C774.931,26.547,774.93,30.653,777.461,33.185"/>
</g>
<g>
	<path fill="#202020" d="M782.041,35.331L782.041,35.331c-1.798,0-3.487-0.7-4.757-1.97c-1.271-1.271-1.972-2.962-1.971-4.762
		c0.001-1.799,0.702-3.49,1.975-4.763c1.272-1.273,2.965-1.975,4.766-1.975c1.798,0,3.488,0.7,4.759,1.971
		c1.271,1.271,1.971,2.962,1.97,4.761c-0.001,1.799-0.702,3.491-1.975,4.763C785.534,34.63,783.842,35.331,782.041,35.331z
		 M782.054,22.362c-1.667,0-3.233,0.649-4.412,1.828c-1.179,1.178-1.828,2.744-1.828,4.41c-0.001,1.665,0.647,3.23,1.824,4.408
		c1.176,1.176,2.739,1.823,4.403,1.823l0,0c1.667,0,3.234-0.649,4.413-1.828c1.179-1.178,1.827-2.744,1.828-4.409
		s-0.646-3.23-1.823-4.407C785.282,23.01,783.718,22.362,782.054,22.362z"/>
</g>
<g>
	<path fill="#AFAFAF" d="M778.677,31.968c1.86,1.859,4.878,1.858,6.738-0.003c1.861-1.861,1.863-4.879,0.003-6.738
		c-1.859-1.86-4.877-1.858-6.738,0.002C776.818,27.091,776.817,30.107,778.677,31.968"/>
</g>
<g>
	<path fill="#949394" d="M782.044,33.861L782.044,33.861c-1.405,0-2.727-0.547-3.721-1.54c-2.051-2.052-2.05-5.393,0.003-7.446
		c0.995-0.995,2.318-1.543,3.726-1.543c1.405,0,2.727,0.547,3.72,1.541c0.994,0.994,1.541,2.315,1.541,3.722
		c-0.001,1.406-0.549,2.729-1.544,3.723C784.774,33.313,783.451,33.861,782.044,33.861z M782.052,24.332
		c-1.141,0-2.212,0.444-3.019,1.25c-1.663,1.664-1.664,4.37-0.003,6.032c0.805,0.804,1.875,1.247,3.014,1.247l0,0
		c1.141,0,2.212-0.444,3.018-1.25s1.25-1.877,1.251-3.017c0-1.139-0.443-2.21-1.248-3.015S783.19,24.332,782.052,24.332z"/>
</g>
<g>
	<g>
		<defs>
			
				<rect id="SVGID_9_" x="777.555" y="24.109" transform="matrix(0.7072 -0.707 0.707 0.7072 208.7534 561.2792)" width="8.987" height="8.976"/>
		</defs>
		<clipPath id="SVGID_10_">
			<use xlink:href="#SVGID_9_"  overflow="visible"/>
		</clipPath>
		<g clip-path="url(#SVGID_10_)">
			<path fill="#BFBFBF" d="M778.871,31.773c1.753,1.754,4.596,1.751,6.351-0.003c1.754-1.755,1.756-4.599,0.003-6.351
				c-1.753-1.753-4.596-1.752-6.351,0.003C777.12,27.177,777.118,30.021,778.871,31.773"/>
		</g>
		<g clip-path="url(#SVGID_10_)">
			<path fill="#C1C1C1" d="M778.946,31.699c1.711,1.711,4.487,1.709,6.2-0.004c1.714-1.713,1.714-4.489,0.004-6.201
				c-1.712-1.711-4.488-1.711-6.202,0.004C777.235,27.211,777.234,29.987,778.946,31.699"/>
		</g>
		<g clip-path="url(#SVGID_10_)">
			<path fill="#C3C4C4" d="M779.021,31.625c1.67,1.669,4.381,1.669,6.052-0.003c1.672-1.673,1.673-4.382,0.003-6.052
				s-4.38-1.67-6.053,0.001C777.352,27.244,777.351,29.954,779.021,31.625"/>
		</g>
		<g clip-path="url(#SVGID_10_)">
			<path fill="#C5C6C6" d="M779.096,31.55c1.629,1.629,4.271,1.628,5.902-0.003c1.63-1.632,1.632-4.273,0.003-5.902
				c-1.63-1.629-4.271-1.628-5.902,0.002C777.467,27.277,777.466,29.921,779.096,31.55"/>
		</g>
		<g clip-path="url(#SVGID_10_)">
			<path fill="#C7C9C9" d="M779.17,31.475c1.587,1.588,4.163,1.586,5.753-0.002c1.59-1.59,1.59-4.166,0.003-5.754
				c-1.588-1.588-4.164-1.587-5.754,0.004C777.583,27.311,777.582,29.887,779.17,31.475"/>
		</g>
		<g clip-path="url(#SVGID_10_)">
			<path fill="#CACBCB" d="M779.245,31.4c1.546,1.546,4.055,1.545,5.604-0.003s1.549-4.057,0.002-5.604s-4.056-1.546-5.604,0.002
				C777.698,27.344,777.698,29.854,779.245,31.4"/>
		</g>
		<g clip-path="url(#SVGID_10_)">
			<path fill="#CCCECE" d="M779.319,31.326c1.505,1.505,3.947,1.504,5.455-0.004c1.506-1.506,1.507-3.949,0.002-5.454
				c-1.506-1.505-3.947-1.505-5.455,0.002C777.814,27.377,777.813,29.82,779.319,31.326"/>
		</g>
		<g clip-path="url(#SVGID_10_)">
			<path fill="#CED0D0" d="M779.395,31.25c1.463,1.465,3.84,1.465,5.305-0.002c1.466-1.465,1.466-3.842,0.003-5.305
				c-1.465-1.465-3.841-1.464-5.306,0.001C777.931,27.41,777.93,29.785,779.395,31.25"/>
		</g>
		<g clip-path="url(#SVGID_10_)">
			<path fill="#D1D3D3" d="M779.47,31.176c1.422,1.422,3.73,1.422,5.154-0.002c1.425-1.424,1.426-3.734,0.003-5.155
				c-1.423-1.424-3.732-1.423-5.156,0.001C778.046,27.443,778.046,29.753,779.47,31.176"/>
		</g>
		<g clip-path="url(#SVGID_10_)">
			<path fill="#D3D5D5" d="M779.543,31.102c1.382,1.381,3.624,1.38,5.007-0.002c1.383-1.384,1.384-3.626,0.002-5.007
				c-1.381-1.382-3.623-1.382-5.006,0.002S778.162,29.72,779.543,31.102"/>
		</g>
	</g>
</g>
<g>
	<polygon fill="#5F5F5E" points="784.371,30.09 782.877,28.598 784.373,27.102 783.543,26.271 782.048,27.768 780.555,26.272 
		779.724,27.104 781.218,28.598 779.723,30.093 780.552,30.922 782.047,29.427 783.541,30.92 	"/>
</g>
<g>
	<path fill="#231815" d="M780.555,26.418l1.35,1.35l0.144,0.143l0.145-0.144l1.351-1.351l0.686,0.686l-1.352,1.351l-0.144,0.146
		l0.144,0.143l1.35,1.35l-0.687,0.686l-1.35-1.349l-0.144-0.145l-0.144,0.145l-1.352,1.351l-0.686-0.685l1.352-1.352l0.145-0.144
		l-0.145-0.145l-1.351-1.35L780.555,26.418z M781.074,28.598l-1.495,1.495l0.973,0.972l1.495-1.494l1.494,1.494l0.974-0.975
		l-1.494-1.492l1.496-1.496l-0.974-0.973l-1.495,1.494l-1.493-1.493l-0.974,0.974L781.074,28.598z"/>
</g>
<g>
	<path fill="#AFAFAF" d="M956.993,33.185c2.53,2.531,6.637,2.528,9.17-0.005s2.535-6.64,0.005-9.17
		c-2.532-2.531-6.638-2.53-9.171,0.004C954.463,26.547,954.462,30.653,956.993,33.185"/>
</g>
<g>
	<path fill="#202020" d="M961.573,35.331L961.573,35.331c-1.798,0-3.487-0.7-4.757-1.97c-1.271-1.271-1.972-2.962-1.971-4.762
		c0.001-1.799,0.702-3.49,1.975-4.763c1.272-1.273,2.965-1.975,4.765-1.975c1.798,0,3.488,0.7,4.76,1.971s1.971,2.962,1.97,4.761
		s-0.702,3.49-1.975,4.763C965.066,34.63,963.374,35.331,961.573,35.331z M961.585,22.362c-1.666,0-3.232,0.649-4.411,1.828
		c-1.179,1.178-1.828,2.744-1.828,4.41c-0.001,1.665,0.647,3.23,1.824,4.408c1.176,1.176,2.739,1.823,4.403,1.823l0,0
		c1.667,0,3.234-0.649,4.413-1.828c1.178-1.178,1.827-2.744,1.828-4.41c0.001-1.665-0.646-3.23-1.823-4.407
		C964.814,23.01,963.25,22.362,961.585,22.362z"/>
</g>
<g>
	<path fill="#AFAFAF" d="M958.21,31.968c1.859,1.859,4.877,1.858,6.737-0.003c1.862-1.861,1.863-4.879,0.003-6.738
		c-1.859-1.86-4.877-1.858-6.738,0.002C956.351,27.091,956.35,30.107,958.21,31.968"/>
</g>
<g>
	<path fill="#949394" d="M961.576,33.861L961.576,33.861c-1.405,0-2.727-0.547-3.72-1.54c-2.052-2.052-2.051-5.392,0.002-7.446
		c0.995-0.995,2.318-1.543,3.726-1.543c1.405,0,2.727,0.547,3.72,1.541c0.994,0.994,1.542,2.315,1.541,3.722
		c-0.001,1.406-0.549,2.729-1.544,3.723C964.307,33.313,962.983,33.861,961.576,33.861z M961.584,24.332
		c-1.141,0-2.212,0.444-3.019,1.25c-1.663,1.664-1.664,4.37-0.002,6.032c0.805,0.804,1.874,1.247,3.013,1.247c0,0,0,0,0.001,0
		c1.14,0,2.211-0.444,3.017-1.25c0.807-0.806,1.251-1.877,1.251-3.017c0-1.139-0.442-2.209-1.248-3.015
		C963.792,24.775,962.723,24.332,961.584,24.332z"/>
</g>
<g>
	<g>
		<defs>
			
				<rect id="SVGID_11_" x="957.087" y="24.109" transform="matrix(0.7072 -0.707 0.707 0.7072 261.3178 688.2084)" width="8.987" height="8.976"/>
		</defs>
		<clipPath id="SVGID_12_">
			<use xlink:href="#SVGID_11_"  overflow="visible"/>
		</clipPath>
		<g clip-path="url(#SVGID_12_)">
			<path fill="#BFBFBF" d="M958.403,31.773c1.753,1.754,4.596,1.751,6.35-0.003c1.755-1.755,1.756-4.599,0.004-6.351
				c-1.753-1.753-4.596-1.752-6.35,0.003C956.651,27.177,956.65,30.021,958.403,31.773"/>
		</g>
		<g clip-path="url(#SVGID_12_)">
			<path fill="#C1C1C1" d="M958.479,31.699c1.711,1.711,4.487,1.709,6.2-0.004c1.714-1.713,1.714-4.489,0.004-6.201
				c-1.712-1.711-4.488-1.711-6.201,0.004C956.768,27.211,956.767,29.987,958.479,31.699"/>
		</g>
		<g clip-path="url(#SVGID_12_)">
			<path fill="#C3C4C4" d="M958.553,31.625c1.67,1.669,4.38,1.669,6.052-0.003c1.672-1.673,1.673-4.382,0.003-6.052
				s-4.38-1.67-6.052,0.001C956.884,27.244,956.882,29.954,958.553,31.625"/>
		</g>
		<g clip-path="url(#SVGID_12_)">
			<path fill="#C5C6C6" d="M958.628,31.55c1.629,1.629,4.271,1.628,5.902-0.003c1.631-1.632,1.632-4.273,0.003-5.902
				c-1.63-1.629-4.272-1.628-5.902,0.002C956.999,27.277,956.998,29.921,958.628,31.55"/>
		</g>
		<g clip-path="url(#SVGID_12_)">
			<path fill="#C7C9C9" d="M958.702,31.475c1.588,1.588,4.163,1.586,5.753-0.002c1.589-1.59,1.59-4.166,0.003-5.754
				c-1.588-1.588-4.164-1.587-5.754,0.004C957.115,27.311,957.114,29.887,958.702,31.475"/>
		</g>
		<g clip-path="url(#SVGID_12_)">
			<path fill="#CACBCB" d="M958.777,31.4c1.546,1.546,4.055,1.545,5.603-0.003c1.549-1.548,1.549-4.057,0.003-5.604
				c-1.547-1.547-4.056-1.546-5.604,0.002S957.23,29.854,958.777,31.4"/>
		</g>
		<g clip-path="url(#SVGID_12_)">
			<path fill="#CCCECE" d="M958.852,31.326c1.505,1.505,3.947,1.504,5.454-0.004c1.507-1.506,1.508-3.949,0.003-5.454
				c-1.506-1.505-3.947-1.505-5.455,0.002C957.347,27.377,957.347,29.82,958.852,31.326"/>
		</g>
		<g clip-path="url(#SVGID_12_)">
			<path fill="#CED0D0" d="M958.927,31.25c1.463,1.465,3.84,1.465,5.305-0.002c1.466-1.465,1.466-3.842,0.003-5.305
				c-1.465-1.465-3.841-1.464-5.306,0.001C957.463,27.41,957.462,29.785,958.927,31.25"/>
		</g>
		<g clip-path="url(#SVGID_12_)">
			<path fill="#D1D3D3" d="M959.002,31.176c1.422,1.422,3.73,1.422,5.154-0.002c1.425-1.424,1.426-3.734,0.003-5.155
				c-1.424-1.424-3.732-1.423-5.156,0.001C957.578,27.443,957.578,29.753,959.002,31.176"/>
		</g>
		<g clip-path="url(#SVGID_12_)">
			<path fill="#D3D5D5" d="M959.075,31.102c1.382,1.381,3.623,1.38,5.007-0.002c1.383-1.384,1.384-3.626,0.003-5.007
				c-1.383-1.382-3.624-1.382-5.007,0.002C957.694,27.479,957.694,29.72,959.075,31.102"/>
		</g>
	</g>
</g>
<g>
	<polygon fill="#5F5F5E" points="963.903,30.09 962.409,28.598 963.905,27.102 963.075,26.271 961.58,27.768 960.087,26.272 
		959.256,27.104 960.75,28.598 959.255,30.093 960.084,30.922 961.579,29.427 963.073,30.92 	"/>
</g>
<g>
	<path fill="#231815" d="M960.087,26.418l1.35,1.35l0.144,0.143l0.144-0.144l1.352-1.351l0.686,0.686l-1.352,1.351l-0.144,0.146
		l0.144,0.143l1.35,1.35l-0.686,0.686l-1.351-1.349l-0.144-0.145l-0.144,0.145l-1.351,1.351l-0.687-0.685l1.352-1.352l0.144-0.144
		l-0.144-0.145l-1.351-1.35L960.087,26.418z M960.606,28.598l-1.495,1.495l0.974,0.972l1.494-1.494l1.494,1.494l0.974-0.975
		l-1.494-1.492l1.496-1.496l-0.974-0.973l-1.495,1.494l-1.493-1.493l-0.974,0.974L960.606,28.598z"/>
</g>
<g>
	<g>
		<circle fill="#181818" cx="796.446" cy="41.036" r="5.484"/>
	</g>
	<g>
		<circle fill="#181818" cx="812.046" cy="41.036" r="5.484"/>
	</g>
	<g>
		<circle fill="#181818" cx="827.646" cy="41.036" r="5.484"/>
	</g>
	<g>
		<circle fill="#181818" cx="843.247" cy="41.036" r="5.484"/>
	</g>
	<g>
		<circle fill="#181818" cx="858.847" cy="41.036" r="5.484"/>
	</g>
	<g>
		<circle fill="#181818" cx="874.447" cy="41.036" r="5.484"/>
	</g>
	<g>
		<circle fill="#181818" cx="890.047" cy="41.036" r="5.484"/>
	</g>
	<g>
		<circle fill="#181818" cx="905.647" cy="41.036" r="5.484"/>
	</g>
	<g>
		<circle fill="#181818" cx="921.247" cy="41.036" r="5.484"/>
	</g>
	<g>
		<circle fill="#181818" cx="936.847" cy="41.036" r="5.484"/>
	</g>
	<g>
		<circle fill="#181818" cx="952.447" cy="41.036" r="5.484"/>
	</g>
	<g>
		<circle fill="#181818" cx="804.323" cy="29.126" r="5.484"/>
	</g>
	<g>
		<circle fill="#181818" cx="819.923" cy="29.126" r="5.484"/>
	</g>
	<g>
		<circle fill="#181818" cx="835.523" cy="29.126" r="5.484"/>
	</g>
	<g>
		<circle fill="#181818" cx="851.124" cy="29.126" r="5.484"/>
	</g>
	<g>
		<circle fill="#181818" cx="866.724" cy="29.126" r="5.484"/>
	</g>
	<g>
		<circle fill="#181818" cx="882.324" cy="29.126" r="5.484"/>
	</g>
	<g>
		<circle fill="#181818" cx="897.924" cy="29.126" r="5.484"/>
	</g>
	<g>
		<circle fill="#181818" cx="913.524" cy="29.126" r="5.484"/>
	</g>
	<g>
		<circle fill="#181818" cx="929.124" cy="29.126" r="5.484"/>
	</g>
	<g>
		<circle fill="#181818" cx="944.724" cy="29.126" r="5.484"/>
	</g>
</g>
<g>
	<circle fill="#181818" cx="560.425" cy="15.977" r="3.946"/>
</g>
<g>
	<circle fill="#181818" cx="560.425" cy="29.335" r="3.946"/>
</g>
<g>
	<circle fill="#181818" cx="560.425" cy="44.52" r="3.946"/>
</g>
<g>
	<circle fill="#181818" cx="571.437" cy="22.941" r="3.946"/>
</g>
<g>
	<circle fill="#181818" cx="571.437" cy="37.66" r="3.946"/>
</g>
<g>
	<circle fill="#181818" cx="582.004" cy="15.977" r="3.946"/>
</g>
<g>
	<circle fill="#181818" cx="582.004" cy="29.335" r="3.946"/>
</g>
<g>
	<circle fill="#181818" cx="582.004" cy="44.52" r="3.946"/>
</g>
<g>
	<circle fill="#181818" cx="593.468" cy="22.941" r="3.946"/>
</g>
<g>
	<circle fill="#181818" cx="593.468" cy="37.66" r="3.946"/>
</g>
<g>
	<circle fill="#181818" cx="604.035" cy="15.977" r="3.946"/>
</g>
<g>
	<circle fill="#181818" cx="604.035" cy="29.335" r="3.946"/>
</g>
<g>
	<circle fill="#181818" cx="604.035" cy="44.52" r="3.946"/>
</g>
<g>
	<circle fill="#181818" cx="616.112" cy="22.941" r="3.946"/>
</g>
<g>
	<circle fill="#181818" cx="616.112" cy="37.66" r="3.946"/>
</g>
<g>
	<circle fill="#181818" cx="626.679" cy="15.977" r="3.946"/>
</g>
<g>
	<circle fill="#181818" cx="626.679" cy="29.335" r="3.946"/>
</g>
<g>
	<circle fill="#181818" cx="626.679" cy="44.52" r="3.946"/>
</g>
<g>
	<circle fill="#181818" cx="638.756" cy="22.941" r="3.946"/>
</g>
<g>
	<circle fill="#181818" cx="638.756" cy="37.66" r="3.946"/>
</g>
<g>
	<circle fill="#181818" cx="649.324" cy="15.977" r="3.946"/>
</g>
<g>
	<circle fill="#181818" cx="649.324" cy="29.335" r="3.946"/>
</g>
<g>
	<circle fill="#181818" cx="649.324" cy="44.52" r="3.946"/>
</g>
<g>
	<circle fill="#181818" cx="661.4" cy="22.941" r="3.946"/>
</g>
<g>
	<circle fill="#181818" cx="661.4" cy="37.66" r="3.946"/>
</g>
<g>
	<circle fill="#181818" cx="671.969" cy="15.977" r="3.946"/>
</g>
<g>
	<circle fill="#181818" cx="671.969" cy="29.335" r="3.946"/>
</g>
<g>
	<circle fill="#181818" cx="671.969" cy="44.52" r="3.946"/>
</g>
<g>
	<circle fill="#181818" cx="684.045" cy="22.941" r="3.946"/>
</g>
<g>
	<circle fill="#181818" cx="684.045" cy="37.66" r="3.946"/>
</g>
<g>
	<circle fill="#181818" cx="694.613" cy="15.977" r="3.946"/>
</g>
<g>
	<circle fill="#181818" cx="694.613" cy="29.335" r="3.946"/>
</g>
<g>
	<circle fill="#181818" cx="694.613" cy="44.52" r="3.946"/>
</g>
<g>
	<circle fill="#181818" cx="706.689" cy="22.941" r="3.946"/>
</g>
<g>
	<circle fill="#181818" cx="706.689" cy="37.66" r="3.946"/>
</g>
<g>
	<circle fill="#181818" cx="717.257" cy="15.977" r="3.947"/>
</g>
<g>
	<circle fill="#181818" cx="717.257" cy="29.335" r="3.947"/>
</g>
<g>
	<circle fill="#181818" cx="717.257" cy="44.52" r="3.947"/>
</g>
<g>
	<circle fill="#181818" cx="729.334" cy="22.941" r="3.946"/>
</g>
<g>
	<circle fill="#181818" cx="729.334" cy="37.66" r="3.946"/>
</g>
<g>
	<circle fill="#181818" cx="739.902" cy="15.977" r="3.946"/>
</g>
<g>
	<circle fill="#181818" cx="739.902" cy="29.335" r="3.946"/>
</g>
<g>
	<circle fill="#181818" cx="739.902" cy="44.52" r="3.946"/>
</g>
<g>
	<path fill="#FAFAFA" d="M944.724,98.764c0,6.075-4.924,11-11,11H809.839c-6.074,0-11-4.925-11-11V73.1c0-6.075,4.926-11,11-11
		h123.885c6.076,0,11,4.925,11,11V98.764z"/>
	<path fill="#202020" d="M933.724,110.139H809.839c-6.272,0-11.375-5.103-11.375-11.375V73.1c0-6.272,5.103-11.375,11.375-11.375
		h123.885c6.272,0,11.375,5.103,11.375,11.375v25.664C945.099,105.036,939.996,110.139,933.724,110.139z M809.839,62.475
		c-5.858,0-10.625,4.767-10.625,10.625v25.664c0,5.858,4.767,10.625,10.625,10.625h123.885c5.858,0,10.625-4.767,10.625-10.625V73.1
		c0-5.858-4.767-10.625-10.625-10.625H809.839z"/>
</g>
<g>
	<path fill="#F2F2F2" d="M428.692,95.852c0,2.387-1.791,4.322-4,4.322h-36.374c-2.209,0-4-1.936-4-4.322V20.298
		c0-2.387,1.791-4.321,4-4.321h36.374c2.209,0,4,1.935,4,4.321V95.852z"/>
	<path fill="#181818" d="M424.692,100.674h-36.374c-2.481,0-4.5-2.163-4.5-4.822V20.298c0-2.659,2.019-4.821,4.5-4.821h36.374
		c2.481,0,4.5,2.163,4.5,4.821v75.554C429.192,98.511,427.174,100.674,424.692,100.674z M388.318,16.477
		c-1.93,0-3.5,1.714-3.5,3.821v75.554c0,2.107,1.57,3.822,3.5,3.822h36.374c1.93,0,3.5-1.715,3.5-3.822V20.298
		c0-2.107-1.57-3.821-3.5-3.821H388.318z"/>
</g>
<g>
	<g>
		<path fill="#F7F9FA" d="M573.778,111.664l0.71-0.119c0.105,0.344,0.276,0.625,0.513,0.849c0.236,0.224,0.532,0.329,0.888,0.315
			c0.354-0.013,0.637-0.158,0.848-0.434c0.21-0.276,0.302-0.592,0.276-0.947c-0.026-0.354-0.165-0.631-0.414-0.828
			c-0.25-0.197-0.651-0.335-1.203-0.414v-0.513c0.552-0.053,0.953-0.197,1.203-0.435c0.25-0.236,0.361-0.545,0.335-0.927
			c-0.026-0.381-0.197-0.657-0.513-0.828s-0.651-0.19-1.006-0.06c-0.355,0.132-0.638,0.5-0.848,1.104l-0.71-0.118
			c0.158-0.474,0.375-0.868,0.651-1.184c0.276-0.315,0.65-0.499,1.124-0.553c0.474-0.052,0.888,0.007,1.243,0.178
			c0.355,0.172,0.605,0.435,0.75,0.789c0.145,0.355,0.164,0.743,0.06,1.164c-0.105,0.421-0.408,0.789-0.908,1.104
			c0.368,0.158,0.651,0.395,0.848,0.71s0.263,0.729,0.197,1.244c-0.066,0.512-0.296,0.926-0.69,1.241s-0.842,0.468-1.341,0.454
			c-0.5-0.014-0.934-0.171-1.302-0.474C574.119,112.684,573.883,112.242,573.778,111.664z"/>
	</g>
</g>
<g>
	<g>
		<path fill="#F7F9FA" d="M386.444,107.611c-0.098,0.741-0.367,1.322-0.806,1.744c-0.439,0.421-0.995,0.631-1.667,0.631
			c-0.783,0-1.407-0.285-1.872-0.856s-0.697-1.34-0.697-2.308s0.241-1.739,0.724-2.313c0.483-0.574,1.131-0.861,1.945-0.861
			c0.642,0,1.168,0.175,1.58,0.523s0.659,0.83,0.741,1.443h-0.741c-0.072-0.397-0.247-0.705-0.523-0.922
			c-0.277-0.217-0.633-0.325-1.068-0.325c-0.569,0-1.022,0.222-1.359,0.665c-0.337,0.442-0.506,1.039-0.506,1.789
			c0,0.796,0.156,1.402,0.469,1.819s0.767,0.626,1.362,0.626c0.44,0,0.806-0.145,1.097-0.432c0.291-0.288,0.484-0.695,0.58-1.225
			H386.444z"/>
	</g>
	<g>
		<path fill="#F7F9FA" d="M387.974,109.304c-0.354-0.425-0.531-0.982-0.531-1.672c0-0.692,0.177-1.252,0.531-1.677
			c0.354-0.426,0.817-0.638,1.389-0.638c0.577,0,1.042,0.212,1.394,0.638c0.353,0.425,0.529,0.984,0.529,1.677
			c0,0.689-0.176,1.247-0.529,1.672c-0.353,0.426-0.817,0.638-1.394,0.638C388.791,109.941,388.328,109.729,387.974,109.304z
			 M390.235,108.854c0.216-0.303,0.325-0.711,0.325-1.223c0-0.513-0.108-0.921-0.325-1.226c-0.216-0.304-0.507-0.455-0.873-0.455
			c-0.366,0-0.656,0.151-0.871,0.455c-0.215,0.305-0.323,0.713-0.323,1.226c0,0.512,0.107,0.92,0.323,1.223
			c0.215,0.302,0.505,0.453,0.871,0.453C389.728,109.308,390.019,109.156,390.235,108.854z"/>
	</g>
	<g>
		<path fill="#F7F9FA" d="M392.473,105.448h0.328h0.333v0.646l0.154-0.217c0.301-0.373,0.679-0.56,1.132-0.56
			c0.456,0,0.807,0.131,1.055,0.393c0.247,0.263,0.371,0.634,0.371,1.116v2.997h-0.348h-0.348v-2.748c0-0.384-0.07-0.662-0.21-0.832
			c-0.141-0.17-0.368-0.256-0.682-0.256c-0.335,0-0.6,0.135-0.796,0.403s-0.293,0.632-0.293,1.09v2.343h-0.348h-0.348V105.448z"/>
	</g>
	<g>
		<path fill="#F7F9FA" d="M399.635,106.716c-0.021-0.243-0.114-0.431-0.28-0.564s-0.39-0.2-0.67-0.2
			c-0.289,0-0.508,0.053-0.659,0.159c-0.151,0.106-0.226,0.262-0.226,0.466c0,0.155,0.053,0.273,0.158,0.352
			c0.105,0.079,0.315,0.158,0.63,0.237l0.719,0.18c0.402,0.104,0.689,0.247,0.861,0.43c0.171,0.18,0.256,0.433,0.256,0.757
			c0,0.434-0.147,0.776-0.442,1.03s-0.694,0.38-1.196,0.38c-0.582,0-1.017-0.121-1.302-0.365c-0.286-0.244-0.444-0.628-0.475-1.151
			h0.668c0.034,0.311,0.137,0.535,0.311,0.675c0.174,0.139,0.44,0.208,0.798,0.208c0.312,0,0.548-0.063,0.709-0.188
			c0.161-0.126,0.242-0.309,0.242-0.548c0-0.153-0.053-0.269-0.158-0.348s-0.318-0.158-0.638-0.237l-0.718-0.18
			c-0.389-0.099-0.666-0.236-0.831-0.413c-0.166-0.175-0.248-0.42-0.248-0.736c0-0.411,0.139-0.738,0.415-0.979
			c0.277-0.241,0.652-0.361,1.126-0.361c0.481,0,0.864,0.124,1.148,0.372c0.285,0.248,0.436,0.59,0.454,1.026H399.635z"/>
	</g>
	<g>
		<path fill="#F7F9FA" d="M401.915,109.304c-0.354-0.425-0.531-0.982-0.531-1.672c0-0.692,0.177-1.252,0.531-1.677
			c0.354-0.426,0.817-0.638,1.389-0.638c0.577,0,1.042,0.212,1.395,0.638c0.353,0.425,0.529,0.984,0.529,1.677
			c0,0.689-0.176,1.247-0.529,1.672c-0.353,0.426-0.817,0.638-1.395,0.638C402.731,109.941,402.269,109.729,401.915,109.304z
			 M404.176,108.854c0.216-0.303,0.325-0.711,0.325-1.223c0-0.513-0.108-0.921-0.325-1.226c-0.216-0.304-0.507-0.455-0.873-0.455
			s-0.656,0.151-0.871,0.455c-0.215,0.305-0.322,0.713-0.322,1.226c0,0.512,0.107,0.92,0.322,1.223
			c0.215,0.302,0.505,0.453,0.871,0.453S403.96,109.156,404.176,108.854z"/>
	</g>
	<g>
		<path fill="#F7F9FA" d="M406.43,103.813h0.348h0.348v6.011h-0.348h-0.348V103.813z"/>
	</g>
	<g>
		<path fill="#F7F9FA" d="M410.251,109.941c-0.584,0-1.044-0.196-1.379-0.589c-0.334-0.393-0.502-0.935-0.502-1.627
			c0-0.736,0.177-1.321,0.531-1.757c0.354-0.435,0.83-0.651,1.428-0.651c0.541,0,0.977,0.212,1.309,0.638
			c0.333,0.425,0.499,0.984,0.499,1.677l-0.008,0.262h-3.019c0.028,0.436,0.123,0.769,0.282,0.997
			c0.195,0.278,0.504,0.417,0.926,0.417c0.265,0,0.497-0.079,0.695-0.236c0.198-0.158,0.319-0.36,0.363-0.605h0.688
			c-0.103,0.479-0.309,0.846-0.618,1.098S410.738,109.941,410.251,109.941z M411.412,107.3c-0.021-0.405-0.116-0.722-0.286-0.948
			c-0.188-0.251-0.463-0.376-0.827-0.376c-0.366,0-0.658,0.145-0.877,0.434c-0.172,0.226-0.277,0.523-0.313,0.891H411.412z"/>
	</g>
	<g>
		<path fill="#F7F9FA" d="M415.178,103.657l-1.933,6.329h-0.527l1.933-6.329H415.178z"/>
	</g>
	<g>
		<path fill="#F7F9FA" d="M420.537,107.619c0,0.741-0.197,1.321-0.591,1.74c-0.394,0.418-0.941,0.627-1.642,0.627
			c-0.729,0-1.284-0.2-1.665-0.603c-0.381-0.402-0.571-0.99-0.571-1.765v-3.807h0.382h0.386v3.745c0,0.56,0.125,0.983,0.375,1.274
			c0.25,0.29,0.614,0.436,1.093,0.436s0.843-0.146,1.091-0.436c0.249-0.291,0.373-0.715,0.373-1.274v-3.745h0.382h0.386V107.619z"/>
	</g>
	<g>
		<path fill="#F7F9FA" d="M425.613,105.554c-0.034-0.379-0.175-0.671-0.423-0.877c-0.248-0.204-0.582-0.309-1.002-0.309
			c-0.433,0-0.761,0.089-0.985,0.266c-0.224,0.178-0.336,0.437-0.336,0.777c0,0.231,0.075,0.404,0.224,0.521
			c0.149,0.113,0.45,0.227,0.9,0.338l0.989,0.25c0.531,0.133,0.909,0.331,1.136,0.593c0.228,0.259,0.341,0.625,0.341,1.1
			c0,0.546-0.195,0.978-0.585,1.297c-0.39,0.318-0.919,0.478-1.586,0.478c-0.742,0-1.322-0.184-1.739-0.552
			c-0.407-0.362-0.61-0.858-0.61-1.488v-0.045h0.707c0.013,0.437,0.162,0.772,0.448,1.01s0.684,0.356,1.194,0.356
			c0.472,0,0.83-0.086,1.075-0.258s0.367-0.424,0.367-0.757c0-0.289-0.081-0.503-0.242-0.642c-0.16-0.137-0.482-0.267-0.967-0.389
			l-0.99-0.25c-0.5-0.125-0.857-0.3-1.071-0.523c-0.213-0.223-0.319-0.532-0.319-0.928c0-0.575,0.185-1.031,0.554-1.368
			c0.37-0.336,0.868-0.505,1.497-0.505c0.638,0,1.146,0.169,1.525,0.507c0.378,0.339,0.581,0.805,0.606,1.398H425.613z"/>
	</g>
	<g>
		<path fill="#F7F9FA" d="M427.81,103.813h0.383h2.113c0.484,0,0.875,0.131,1.17,0.395c0.296,0.263,0.444,0.609,0.444,1.04
			c0,0.499-0.175,0.889-0.525,1.17c-0.08,0.065-0.166,0.121-0.259,0.168c0.188,0.07,0.352,0.159,0.491,0.266
			c0.371,0.286,0.556,0.683,0.556,1.189c0,0.56-0.181,0.996-0.542,1.311c-0.362,0.315-0.865,0.473-1.509,0.473h-1.939h-0.383
			V103.813z M428.579,106.372h1.372c0.417,0,0.722-0.08,0.915-0.239c0.193-0.159,0.29-0.41,0.29-0.755c0-0.3-0.089-0.52-0.267-0.66
			s-0.457-0.211-0.838-0.211h-1.472V106.372z M428.579,109.128h1.564c0.441,0,0.764-0.09,0.968-0.27s0.307-0.464,0.307-0.851
			c0-0.338-0.107-0.586-0.321-0.742c-0.214-0.157-0.55-0.235-1.008-0.235h-1.51V109.128z"/>
	</g>
</g>
<g>
	<g>
		<path fill="#F7F9FA" d="M625.889,111.861h-3.037v-0.671l3.195-4.616h0.592v4.616h0.946v0.671h-0.946v1.499h-0.75V111.861z
			 M625.889,111.19v-3.116l-2.209,3.116H625.889z"/>
	</g>
</g>
<g>
	<g>
		<path fill="#F7F9FA" d="M672.95,111.506c0.184,0.71,0.5,1.104,0.947,1.184c0.446,0.079,0.809,0.033,1.085-0.139
			c0.276-0.17,0.474-0.394,0.591-0.67c0.119-0.276,0.172-0.585,0.158-0.928c-0.014-0.341-0.105-0.631-0.275-0.867
			c-0.172-0.236-0.389-0.395-0.651-0.474c-0.264-0.079-0.56-0.079-0.888,0c-0.329,0.079-0.599,0.263-0.809,0.553l-0.671-0.079
			c0.053-0.158,0.302-1.288,0.749-3.393h3.117v0.71h-2.525c-0.131,0.71-0.263,1.275-0.395,1.696c0.395-0.184,0.763-0.27,1.105-0.257
			c0.341,0.014,0.67,0.093,0.986,0.237c0.315,0.145,0.545,0.342,0.689,0.592s0.25,0.499,0.316,0.749
			c0.064,0.25,0.092,0.52,0.078,0.809c-0.014,0.29-0.072,0.586-0.177,0.888c-0.105,0.303-0.264,0.553-0.474,0.75
			c-0.211,0.197-0.467,0.355-0.77,0.473c-0.303,0.119-0.65,0.165-1.045,0.139s-0.77-0.171-1.125-0.435
			c-0.354-0.262-0.598-0.71-0.729-1.341L672.95,111.506z"/>
	</g>
</g>
<g>
	<g>
		<path fill="#F7F9FA" d="M721.827,111.052c0.025-0.381,0.098-0.702,0.217-0.966c0.118-0.263,0.295-0.592,0.532-0.986l1.617-2.525
			h0.907l-1.656,2.604c0.71-0.184,1.275-0.158,1.696,0.078c0.42,0.237,0.703,0.507,0.848,0.81c0.145,0.302,0.224,0.631,0.237,0.985
			c0.013,0.355-0.04,0.704-0.158,1.046s-0.329,0.65-0.631,0.927c-0.303,0.276-0.724,0.428-1.263,0.454s-1-0.072-1.381-0.296
			c-0.382-0.224-0.645-0.539-0.789-0.947C721.859,111.828,721.8,111.434,721.827,111.052z M723.05,112.354
			c0.236,0.25,0.552,0.388,0.946,0.414s0.724-0.105,0.986-0.395s0.395-0.71,0.395-1.263s-0.165-0.934-0.493-1.144
			c-0.329-0.211-0.697-0.289-1.104-0.237c-0.408,0.053-0.704,0.25-0.888,0.592s-0.263,0.704-0.236,1.085
			C722.681,111.789,722.813,112.104,723.05,112.354z"/>
	</g>
</g>
<g>
	<rect x="127.542" y="31.51" fill="#EAF1C5" width="168.85" height="43.139"/>
	<path fill="#444344" d="M296.893,75.148h-169.85V31.01h169.85V75.148z M128.042,74.148h167.85V32.01h-167.85V74.148z"/>
</g>
<g>
	<polygon fill="#666666" points="170.956,95.913 163.607,91.67 170.956,87.427 	"/>
</g>
<g>
	<polygon fill="#666666" points="202.192,87.995 197.949,95.344 193.706,87.995 	"/>
</g>
<g>
	<polygon fill="#666666" points="222.579,95.344 226.822,87.996 231.065,95.344 	"/>
</g>
<g>
	<polygon fill="#666666" points="252.981,87.426 260.329,91.67 252.981,95.912 	"/>
</g>
<g>
	<circle fill="#B0A58D" cx="307.175" cy="106.098" r="4.923"/>
	<path fill="#666666" d="M307.175,111.52c-2.99,0-5.423-2.433-5.423-5.422c0-2.99,2.433-5.424,5.423-5.424s5.423,2.434,5.423,5.424
		C312.598,109.087,310.166,111.52,307.175,111.52z M307.175,101.674c-2.439,0-4.423,1.984-4.423,4.424
		c0,2.438,1.984,4.422,4.423,4.422s4.423-1.983,4.423-4.422C311.598,103.658,309.614,101.674,307.175,101.674z"/>
</g>
<g>
	<circle fill="#C3D6AC" cx="121.521" cy="106.098" r="4.923"/>
	<path fill="#666666" d="M121.521,111.52c-2.99,0-5.423-2.433-5.423-5.422c0-2.99,2.433-5.424,5.423-5.424s5.423,2.434,5.423,5.424
		C126.943,109.087,124.511,111.52,121.521,111.52z M121.521,101.674c-2.439,0-4.423,1.984-4.423,4.424
		c0,2.438,1.984,4.422,4.423,4.422s4.423-1.983,4.423-4.422C125.943,103.658,123.959,101.674,121.521,101.674z"/>
</g>
<g>
	<g>
		<path fill="#919191" d="M299.416,90.567h0.382h0.386v2.466h2.963v-2.466h0.382h0.386v6.011h-0.382h-0.386v-2.825h-2.963v2.825
			h-0.382h-0.386V90.567z"/>
	</g>
	<g>
		<path fill="#919191" d="M305.556,90.567h0.382h1.951c0.721,0,1.294,0.271,1.721,0.815s0.639,1.275,0.639,2.194
			c0,0.915-0.218,1.646-0.655,2.188c-0.437,0.541-1.025,0.813-1.767,0.813h-1.889h-0.382V90.567z M306.324,95.883h1.406
			c0.551,0,0.977-0.2,1.277-0.601c0.3-0.401,0.45-0.97,0.45-1.705c0-0.739-0.144-1.31-0.433-1.712
			c-0.288-0.402-0.698-0.604-1.228-0.604h-1.472V95.883z"/>
	</g>
	<g>
		<path fill="#919191" d="M311.664,90.567h0.382h1.951c0.721,0,1.294,0.271,1.721,0.815c0.426,0.544,0.639,1.275,0.639,2.194
			c0,0.915-0.218,1.646-0.655,2.188c-0.437,0.541-1.025,0.813-1.768,0.813h-1.888h-0.382V90.567z M312.433,95.883h1.406
			c0.551,0,0.977-0.2,1.277-0.601c0.3-0.401,0.45-0.97,0.45-1.705c0-0.739-0.145-1.31-0.433-1.712
			c-0.289-0.402-0.698-0.604-1.229-0.604h-1.472V95.883z"/>
	</g>
</g>
<g>
	<g>
		<path fill="#919191" d="M113.235,90.567h0.383h2.101c0.551,0,0.982,0.146,1.292,0.439c0.311,0.293,0.465,0.698,0.465,1.216
			c0,0.57-0.155,1.016-0.465,1.338c-0.31,0.321-0.741,0.482-1.292,0.482c-0.724-0.003-1.295,0-1.715,0.008v2.527h-0.383h-0.386
			V90.567z M114.004,93.348h1.525c0.399,0,0.691-0.089,0.877-0.268s0.278-0.459,0.278-0.841c0-0.338-0.092-0.585-0.278-0.742
			c-0.186-0.156-0.478-0.235-0.877-0.235h-1.525V93.348z"/>
	</g>
	<g>
		<path fill="#919191" d="M119.842,96.578l-1.487-6.011h0.414h0.417l1.012,4.751c0.018,0.079,0.033,0.155,0.044,0.228
			c0.012,0.072,0.018,0.123,0.018,0.153h0c0-0.036,0.006-0.09,0.019-0.164c0.013-0.073,0.028-0.145,0.046-0.217l1.202-4.751h0.433
			h0.433l1.193,4.727c0.021,0.074,0.037,0.148,0.05,0.225c0.013,0.077,0.019,0.133,0.019,0.168h-0.001
			c0-0.03,0.006-0.083,0.018-0.159s0.026-0.154,0.044-0.233l1.025-4.727h0.414h0.413l-1.487,6.011h-0.413h-0.414l-1.232-4.649
			c-0.021-0.079-0.038-0.156-0.054-0.233c-0.016-0.076-0.023-0.129-0.023-0.159h-0.001c0,0.035-0.007,0.091-0.019,0.166
			c-0.013,0.074-0.03,0.15-0.05,0.227l-1.204,4.649h-0.413H119.842z"/>
	</g>
	<g>
		<path fill="#919191" d="M126.785,90.567h0.382h2.26c0.603,0,1.061,0.138,1.375,0.415c0.314,0.276,0.471,0.682,0.471,1.216
			c0,0.526-0.163,0.938-0.49,1.235c-0.083,0.073-0.171,0.139-0.267,0.196l0.127,0.065c0.346,0.21,0.524,0.563,0.538,1.059
			l0.031,1.097c0.005,0.18,0.027,0.31,0.065,0.388c0.039,0.079,0.113,0.147,0.224,0.205v0.131h-0.945
			c-0.021-0.049-0.042-0.178-0.062-0.385s-0.036-0.438-0.046-0.69l-0.017-0.475c-0.01-0.374-0.097-0.64-0.259-0.8
			c-0.162-0.159-0.427-0.239-0.795-0.239h-1.823v2.593h-0.382h-0.386V90.567z M127.554,93.282h1.9c0.355,0,0.616-0.082,0.78-0.247
			c0.165-0.165,0.248-0.426,0.248-0.783c0-0.347-0.087-0.6-0.261-0.761c-0.174-0.161-0.449-0.241-0.825-0.241h-1.843V93.282z"/>
	</g>
</g>
<g>
	<polygon fill="#6C6C6C" points="279.557,91.82 276.65,93.544 279.557,95.268 	"/>
</g>
<g>
	<polygon fill="#6D6D6D" points="290.055,93.794 279.557,93.794 279.557,93.294 289.555,93.294 289.555,90.496 290.055,90.496 	"/>
</g>
</svg>
