<?xml version="1.0" encoding="utf-8"?>
<!-- Generator: Adobe Illustrator 16.0.0, SVG Export Plug-In . SVG Version: 6.00 Build 0)  -->
<!DOCTYPE svg PUBLIC "-//W3C//DTD SVG 1.1//EN" "http://www.w3.org/Graphics/SVG/1.1/DTD/svg11.dtd">
<svg version="1.1" id="图层_1" xmlns="http://www.w3.org/2000/svg" xmlns:xlink="http://www.w3.org/1999/xlink" x="0px" y="0px"
	 width="1275.59px" height="504px" viewBox="0 0 1275.59 504" enable-background="new 0 0 1275.59 504" xml:space="preserve">
<rect x="1.105" y="1.035" fill="#CCC9BC" width="1273.89" height="502.3"/>
<path fill="#323333" d="M1274.146,502.484H1.957V1.886h1272.189V502.484z M1275.847,0.184H0.256v504h1275.591V0.184z"/>
<rect x="82.49" y="1.908" fill="#ECEBE7" width="2.834" height="500.625"/>
<rect x="79.625" y="1.908" fill="#584F42" width="2.835" height="500.625"/>
<rect x="1193.671" y="1.908" fill="#ECEBE7" width="2.835" height="500.625"/>
<rect x="1190.807" y="1.908" fill="#584F42" width="2.835" height="500.625"/>
<g>
	<defs>
		<path id="SVGID_1_" d="M31.195,67.595c-9.394,0-17.008,7.614-17.008,17.007v335.164c0,9.394,7.614,17.011,17.008,17.011h17.49
			c9.394,0,17.008-7.617,17.008-17.011V84.602c0-9.393-7.614-17.007-17.008-17.007H31.195z"/>
	</defs>
	<clipPath id="SVGID_2_">
		<use xlink:href="#SVGID_1_"  overflow="visible"/>
	</clipPath>
	
		<linearGradient id="SVGID_3_" gradientUnits="userSpaceOnUse" x1="-2762.9072" y1="4276.0488" x2="-2761.9072" y2="4276.0488" gradientTransform="matrix(51.5064 0 0 -51.5064 142321.4375 220495.875)">
		<stop  offset="0" style="stop-color:#8E8A6E"/>
		<stop  offset="0.6" style="stop-color:#EAE9E4"/>
		<stop  offset="1" style="stop-color:#8E8A6E"/>
	</linearGradient>
	<rect x="14.188" y="67.595" clip-path="url(#SVGID_2_)" fill="url(#SVGID_3_)" width="51.506" height="369.182"/>
</g>
<path fill="none" stroke="#584F42" stroke-width="2.835" stroke-miterlimit="10" d="M48.686,436.775h-17.49
	c-9.394,0-17.008-7.615-17.008-17.008V84.603c0-9.393,7.614-17.008,17.008-17.008h17.49c9.393,0,17.008,7.615,17.008,17.008v335.165
	C65.693,429.16,58.079,436.775,48.686,436.775z"/>
<g>
	<defs>
		<path id="SVGID_4_" d="M1227.415,67.595c-9.393,0-17.006,7.614-17.006,17.007v335.164c0,9.394,7.613,17.011,17.006,17.011h17.491
			c9.394,0,17.009-7.617,17.009-17.011V84.602c0-9.393-7.615-17.007-17.009-17.007H1227.415z"/>
	</defs>
	<clipPath id="SVGID_5_">
		<use xlink:href="#SVGID_4_"  overflow="visible"/>
	</clipPath>
	
		<linearGradient id="SVGID_6_" gradientUnits="userSpaceOnUse" x1="-2762.9072" y1="4276.0488" x2="-2761.9072" y2="4276.0488" gradientTransform="matrix(51.5064 0 0 -51.5064 143517.6563 220495.875)">
		<stop  offset="0" style="stop-color:#8E8A6E"/>
		<stop  offset="0.4" style="stop-color:#EAE9E4"/>
		<stop  offset="1" style="stop-color:#8E8A6E"/>
	</linearGradient>
	<rect x="1210.408" y="67.595" clip-path="url(#SVGID_5_)" fill="url(#SVGID_6_)" width="51.507" height="369.182"/>
</g>
<path fill="none" stroke="#584F42" stroke-width="2.835" stroke-miterlimit="10" d="M1244.906,436.775h-17.49
	c-9.394,0-17.008-7.615-17.008-17.008V84.603c0-9.393,7.614-17.008,17.008-17.008h17.49c9.393,0,17.008,7.615,17.008,17.008v335.165
	C1261.914,429.16,1254.299,436.775,1244.906,436.775z"/>
<path fill="#CCC9BC" d="M649.336,471.369H114.588c-4.697,0-8.504-3.807-8.504-8.504V41.504c0-4.696,3.807-8.504,8.504-8.504h534.748
	c4.696,0,8.504,3.808,8.504,8.504v421.361C657.84,467.563,654.032,471.369,649.336,471.369"/>
<path fill="none" stroke="#584F42" stroke-width="2.835" stroke-miterlimit="10" d="M649.336,471.369H114.588
	c-4.697,0-8.504-3.807-8.504-8.504V41.504c0-4.696,3.807-8.504,8.504-8.504h534.748c4.696,0,8.504,3.808,8.504,8.504v421.361
	C657.84,467.563,654.032,471.369,649.336,471.369z"/>
<path fill="#212222" d="M649.336,471.369H114.588c-4.697,0-8.504-3.807-8.504-8.504v-72.719c0-4.697,3.807-8.504,8.504-8.504
	h534.748c4.696,0,8.504,3.807,8.504,8.504v72.719C657.84,467.563,654.032,471.369,649.336,471.369"/>
<path fill="none" stroke="#584F42" stroke-width="2.835" stroke-miterlimit="10" d="M649.336,471.369H114.588
	c-4.697,0-8.504-3.807-8.504-8.504v-72.719c0-4.697,3.807-8.504,8.504-8.504h534.748c4.696,0,8.504,3.807,8.504,8.504v72.719
	C657.84,467.563,654.032,471.369,649.336,471.369z"/>
<path fill="#CCC9BC" d="M649.336,381.643H114.588c-4.697,0-8.504-3.808-8.504-8.504V41.504c0-4.696,3.807-8.504,8.504-8.504h534.748
	c4.696,0,8.504,3.808,8.504,8.504v331.635C657.84,377.835,654.032,381.643,649.336,381.643"/>
<path fill="none" stroke="#584F42" stroke-width="2.835" stroke-miterlimit="10" d="M649.336,381.643H114.588
	c-4.697,0-8.504-3.808-8.504-8.504V41.504c0-4.696,3.807-8.504,8.504-8.504h534.748c4.696,0,8.504,3.808,8.504,8.504v331.635
	C657.84,377.835,654.032,381.643,649.336,381.643z"/>
<path fill="#CCC9BC" d="M1157.291,471.369H695.568c-4.696,0-8.504-3.807-8.504-8.504V41.504c0-4.696,3.808-8.504,8.504-8.504
	h461.723c4.696,0,8.504,3.808,8.504,8.504v421.361C1165.795,467.563,1161.987,471.369,1157.291,471.369"/>
<path fill="none" stroke="#584F42" stroke-width="2.835" stroke-miterlimit="10" d="M1157.291,471.369H695.568
	c-4.696,0-8.504-3.807-8.504-8.504V41.504c0-4.696,3.808-8.504,8.504-8.504h461.723c4.696,0,8.504,3.808,8.504,8.504v421.361
	C1165.795,467.563,1161.987,471.369,1157.291,471.369z"/>
<path fill="#212222" d="M1157.291,471.369H695.568c-4.696,0-8.504-3.807-8.504-8.504v-72.719c0-4.697,3.808-8.504,8.504-8.504
	h461.723c4.696,0,8.504,3.807,8.504,8.504v72.719C1165.795,467.563,1161.987,471.369,1157.291,471.369"/>
<path fill="none" stroke="#584F42" stroke-width="2.835" stroke-miterlimit="10" d="M1157.291,471.369H695.568
	c-4.696,0-8.504-3.807-8.504-8.504v-72.719c0-4.697,3.808-8.504,8.504-8.504h461.723c4.696,0,8.504,3.807,8.504,8.504v72.719
	C1165.795,467.563,1161.987,471.369,1157.291,471.369z"/>
<path fill="#CCC9BC" d="M1157.291,381.643H695.568c-4.696,0-8.504-3.808-8.504-8.504V41.504c0-4.696,3.808-8.504,8.504-8.504
	h461.723c4.696,0,8.504,3.808,8.504,8.504v331.635C1165.795,377.835,1161.987,381.643,1157.291,381.643"/>
<path fill="none" stroke="#584F42" stroke-width="2.835" stroke-miterlimit="10" d="M1157.291,381.643H695.568
	c-4.696,0-8.504-3.808-8.504-8.504V41.504c0-4.696,3.808-8.504,8.504-8.504h461.723c4.696,0,8.504,3.808,8.504,8.504v331.635
	C1165.795,377.835,1161.987,381.643,1157.291,381.643z"/>
<path fill="#FFFFFF" d="M405.971,416.881c-1.308,0.353-2.932,0.742-4.449,1.023c1.235,1.236,1.201,1.59,0.635,2.295
	c-0.247,0.282-0.352,0.424-2.612,4.555c0.849-0.07,1.765-0.352,2.859-0.883c0.707-0.317,0.989-0.388,2.225,0.211
	c1.201,0.566,1.306,1.061,0.884,1.555c-0.565,0.742-1.201,2.048-1.52,3.107c-0.282,0.953-0.282,1.447,0.143,1.625
	c0.424,0.176,0.493,0.812,0,0.918c-1.272,0.354-2.826,0.635-4.556,0.812c0,1.2-0.069,1.978-0.177,2.296
	c-0.389,0.917-1.307,0.211-1.342-1.307c-0.035-2.19-0.211-3.92-0.424-5.156c-2.295,3.426-4.166,5.261-6.002,6.32
	c-0.741,0.459-0.989,0.035-0.389-0.564c2.225-2.33,4.025-4.766,5.861-7.732c-0.389-1.342-0.105-1.836,0.813-1.377
	c1.659-2.931,2.365-5.015,2.295-6.461c-2.083,0.387-3.037,0.282-3.813-0.072c-0.918-0.353-0.671-0.812-0.035-0.846
	c1.13-0.107,3.849-0.707,7.132-1.695c1.66-0.602,3.213-0.602,3.955,0.246C407.771,416.068,407.523,416.527,405.971,416.881
	 M401.909,425.285c-0.494,0.035-1.659,0.174-2.931,0.422c0.389,1.695,0.565,3.425,0.601,5.297c0.813-0.106,1.308-0.213,1.801-0.352
	c0.848-0.283,1.023-0.85,1.2-3.037C402.757,425.391,402.58,425.248,401.909,425.285 M422.106,425.707
	c-1.166-0.07-2.755-0.035-4.449,0.072c0.07,2.646,0.142,6.92,0.212,9.25c0.07,2.93-0.212,6.284-0.564,7.31
	c-0.354,1.059-1.024,0.917-1.236-0.214c-0.282-1.623-0.424-3.918-0.247-7.696c0.106-2.788,0.071-6.003,0.035-8.403
	c-1.412,0.106-2.789,0.317-3.919,0.494c-0.318,6.391-3.143,10.311-7.098,12.252c-0.918,0.495-1.199-0.035-0.529-0.564
	c3.637-2.967,5.791-6.779,6.108-11.369c-3.53,0.67-3.919,0.6-4.767,0.105c-0.635-0.424-0.354-0.742,0.247-0.812
	c1.023-0.106,2.648-0.425,4.555-0.673c0.035-3.564-0.177-6.143-0.776-7.272c-0.671-0.034-1.13-0.177-1.483-0.354
	c-0.671-0.387-0.494-0.633,0.317-0.74c1.625-0.139,3.602-0.493,7.945-1.766c2.225-0.635,2.966-0.564,3.885-0.14
	c1.342,0.599,1.164,1.129,0.104,1.412c-1.023,0.282-2.683,0.635-4.484,0.952c1.802,0.953,2.013,1.271,1.907,1.906
	c-0.142,0.99-0.247,3.037-0.212,4.803c0.494-0.07,0.918-0.178,1.342-0.247c2.931-0.565,4.025-0.39,4.872,0.142
	C425.037,424.824,425.213,425.955,422.106,425.707 M415.08,417.692c-1.59,0.212-3.107,0.39-4.271,0.46
	c1.481,0.918,1.623,1.234,1.446,2.084c-0.105,0.457-0.177,1.481-0.282,4.978c1.271-0.214,2.612-0.425,3.813-0.636
	C415.645,419.775,415.574,418.435,415.08,417.692"/>
<path fill="#FFFFFF" d="M444.1,434.218c4.979-0.565,6.955-0.919,7.557-1.061c1.447-0.353,3-0.14,3.848,0.813
	c0.742,0.848,0.247,1.377-0.953,1.234c-2.473-0.281-5.473-0.141-10.451,0.247c0,1.413-0.035,2.79-0.07,4.062
	c-0.035,1.342-0.318,3.036-0.672,4.271c-0.317,1.13-0.564,1.13-0.882-0.176c-0.317-1.377-0.424-2.754-0.354-4.803
	c0.036-0.986,0.036-2.082,0.07-3.178c-2.966,0.424-5.649,0.848-7.202,1.236c-0.953,0.283-1.73,0.105-2.896-0.635
	c-0.742-0.494-0.636-0.813,0.106-0.813c0.882,0,3.354-0.177,9.991-0.987c0.035-0.953,0.035-1.731,0.035-2.613
	c-1.905,0.246-3.707,0.565-4.872,0.847c-1.095,0.282-1.906,0.212-2.754-0.353c-0.706-0.494-0.671-0.707,0.671-0.742
	c0.776-0.035,3.46-0.317,6.955-0.811c0-1.271,0-2.438-0.035-3.531c-1.694,0.246-3.39,0.459-4.555,0.6
	c0.177,0.777,0.318,1.977,0.247,2.472c-0.212,1.024-0.494,1.095-0.953,0.142c-0.177-0.354-0.601-1.553-0.848-2.366
	c-1.131,0.177-2.506,0.459-3.566,0.778c-1.094,0.28-1.977,0.316-3.07-0.178c-0.813-0.389-0.813-0.988,0.141-1.023
	c1.236-0.071,1.977-0.178,6.179-0.742c-0.317-1.201-0.671-1.73-1.024-2.119c-0.776-0.706-0.67-0.953,0-0.848
	c2.013,0.283,2.543,1.095,2.472,1.627c-0.035,0.174,0.035,0.67,0.142,1.129c0.918-0.143,2.684-0.389,4.803-0.707
	c-0.071-1.942-0.213-2.79-0.602-3.178c-2.683,0.388-3.46,0.424-4.59-0.105c-0.564-0.283-0.529-0.602,0.071-0.602
	c1.448,0,6.391-0.742,9.25-1.553c1.483-0.388,2.048-0.529,3.002-0.035c0.53,0.282,0.459,0.918-0.318,1.094
	c-0.883,0.213-3.283,0.601-5.649,0.99c0.989,0.635,1.131,1.022,0.989,1.377c-0.142,0.316-0.247,0.775-0.247,1.764
	c1.871-0.174,3.318-0.387,4.979-0.6c0.212-1.164,0.176-2.154-0.036-2.436c-0.388-0.529-0.14-0.989,1.625-0.46
	c1.2,0.39,1.342,0.883,0.953,1.448c-0.212,0.353-0.459,0.742-0.671,1.166c1.023-0.143,1.978-0.213,2.789-0.319
	c1.942-0.211,2.507,0,3.072,0.565c1.165,1.059,0.953,1.482-1.06,1.342c-1.694-0.141-2.648-0.141-5.402,0
	c-0.6,1.553-1.095,2.508-1.766,3.391c2.048-0.354,2.79-0.283,3.354,0.176c1.06,0.742,1.024,1.235-0.281,1.129
	c-1.025-0.07-4.273,0.106-7.521,0.459V434.218z M445.9,416.563c0.847-2.472,0.812-2.931,0.529-3.459
	c-0.389-0.707,0.035-1.131,1.73-0.39c1.13,0.53,1.447,1.095,0.918,1.624c-0.459,0.389-0.742,0.918-1.201,1.871
	c1.06-0.177,1.978-0.316,2.719-0.459c1.413-0.282,1.942-0.177,2.825,0.424c1.06,0.741,0.813,1.412-0.988,1.342
	c-1.625-0.07-3.426,0-5.297,0.213c-0.776,1.235-1.871,2.576-2.33,2.895c-0.459,0.354-0.671,0.141-0.389-0.423
	c0.354-0.742,0.671-1.484,1.06-2.331c-1.236,0.105-2.896,0.283-4.449,0.566c0.035,0.492,0.07,1.058,0.106,1.553
	c0.106,1.447-0.459,1.553-1.166,0.141c-0.247-0.564-0.423-0.988-0.529-1.447c-1.023,0.211-2.225,0.459-3.107,0.635
	c-1.165,0.248-1.659,0.105-2.789-0.424c-0.813-0.424-0.636-0.812,0.105-0.812c1.343,0,3.107-0.177,5.438-0.565
	c-0.423-1.234-0.848-1.766-1.413-2.082c-0.953-0.602-0.564-1.131,0.389-1.025c2.226,0.212,2.507,0.636,2.542,1.201
	c0.071,0.672,0.106,1.236,0.178,1.66C442.334,417.057,444.205,416.811,445.9,416.563 M444.1,430.51
	c1.2-0.177,2.436-0.354,3.707-0.564c0.318-1.094,0.602-2.295,0.883-3.391c-1.095,0.106-2.824,0.248-4.625,0.459
	C444.064,428.109,444.1,429.309,444.1,430.51"/>
<path fill="#FFFFFF" d="M477.25,424.049c-0.988,0.176-2.611,0.529-3.742,0.775c0,0.602-0.035,1.413-0.106,2.26
	c2.825-0.422,3.637-0.141,4.096,0.848c0.318,0.671-0.177,1.271-0.953,1.13c-0.741-0.14-1.483-0.494-3.143-1.447
	c-0.035,2.542-0.035,5.79,0,8.687c0.071,1.906-0.14,3.177-0.529,4.555c-0.389,1.307-1.024,1.164-1.483-0.176
	c-0.564-1.696-0.636-2.331-0.141-3.885c0.459-1.519,0.918-5.967,1.094-9.568c-1.941,3.99-5.824,7.591-9.003,8.648
	c-0.671,0.213-0.813-0.211-0.389-0.527c4.555-3.672,6.851-6.25,8.687-10.028c-2.225,0.636-3.355,0.988-5.509,1.695
	c-1.377,0.458-1.694,0.423-2.86-0.39c-0.988-0.67-0.847-1.377,0.531-1.27c0.635,0.07,6.002-0.883,8.614-1.553
	c-0.035-2.65-0.282-3.957-0.671-4.733c-1.482,0.494-3.001,0.918-3.566,1.024c-0.776,0.142-0.918-0.248-0.246-0.6
	c5.189-2.719,5.931-3.391,6.213-4.273c0.248-0.813,0.636-0.848,2.437,0.105c1.66,0.813,1.73,1.555,0.741,1.766
	c-0.494,0.106-2.223,0.672-2.612,0.848c-0.459,0.212-1.095,0.46-1.871,0.706c1.554,0.495,1.694,0.776,1.412,1.767
	c-0.177,0.67-0.459,1.977-0.601,3.036c2.931-0.883,3.708-0.989,4.449-0.6C478.592,423.131,478.415,423.836,477.25,424.049
	 M493.492,429.273c-1.801,0.07-3.99,0.177-5.508,0.354c0.035,9.392-0.141,11.971-0.848,14.053c-0.424,1.377-0.918,1.377-1.129-0.176
	c-0.178-1.308-0.143-6.814-0.035-13.56c-2.685,0.425-3.709,0.672-5.086,1.06c-2.048,0.564-2.4,0.424-3.143,0
	c-0.953-0.529-1.234-0.953,0.742-1.095c0.847-0.069,3.637-0.565,7.486-1.307c0.035-2.612,0-7.556-0.036-9.991
	c-0.036-2.789-0.247-3.885-0.777-4.591c-0.848-1.13-0.035-1.554,1.589-0.813c1.836,0.813,2.014,1.096,1.766,2.119
	c-0.105,0.424-0.354,2.366-0.424,3.956c-0.07,1.341-0.105,5.401-0.105,8.968c1.236-0.248,2.295-0.494,2.789-0.636
	c1.836-0.53,2.966-0.493,4.025,0.283C495.822,428.639,495.787,429.203,493.492,429.273 M482.829,426.344
	c-0.741-0.178-1.766-0.741-2.931-1.625c-0.389-0.317-0.389-0.637,0.353-0.741c2.154-0.354,3.214,0.424,3.427,1.481
	C483.817,426.237,483.394,426.484,482.829,426.344 M482.829,421.576c-0.636-0.212-1.694-0.705-2.896-1.518
	c-0.317-0.213-0.211-0.672,0.317-0.813c1.978-0.566,3.427,0.176,3.638,1.66C483.994,421.541,483.43,421.754,482.829,421.576"/>
<path fill="#FFFFFF" d="M508.07,423.2c-0.035,1.201-0.035,2.542-0.035,4.132c2.083-1.271,2.472-1.342,2.684-1.131
	c0.142,0.178-0.069,0.637-2.684,2.473c0.035,2.436,0.142,6.638,0.177,7.66c0.07,1.908-0.389,3.709-1.412,5.121
	c-0.354,0.459-0.848,0.424-1.13-0.104c-0.459-0.884-1.624-2.649-2.154-3.32c-0.389-0.458-0.246-0.671,0.459-0.423
	c1.695,0.635,2.154,0.458,2.295-0.884c0.142-1.376,0.283-4.025,0.354-6.956c-2.118,1.555-4.484,3.461-5.085,4.025
	c-1.094,0.989-1.447,1.06-2.4,0.071c-1.13-1.235-0.848-1.554,0.389-1.802c0.954-0.212,2.471-0.953,7.132-3.883
	c0.035-1.518,0.035-3.143,0-4.661c-2.754,0.706-4.625,0.776-5.296,0.459c-0.777-0.388-0.671-0.742-0.106-0.847
	c1.766-0.354,3.637-0.883,5.402-1.377c-0.141-6.463-0.389-7.346-0.988-8.121c-0.813-1.025-0.354-1.555,1.766-0.601
	c1.694,0.741,1.694,1.093,1.2,2.507c-0.177,0.493-0.389,2.012-0.53,5.825c1.414-0.353,2.225-0.389,2.896-0.177
	c0.742,0.212,0.849,0.777,0.247,1.061C510.789,422.494,509.624,422.849,508.07,423.2 M524.878,440.784
	c-1.801,0.035-2.153-0.104-4.132-2.225c-0.988-1.06-1.694-1.765-2.26-2.472c-2.118,2.154-5.861,3.39-8.049,3.179
	c-0.742-0.071-0.742-0.565,0.104-0.742c2.19-0.459,5.226-2.19,6.815-3.884c-2.437-2.895-3.496-3.85-4.272-4.024
	c-0.883-0.177-0.53-0.918,0.388-0.776c1.201,0.175,1.625,0.459,3.002,1.976c0.317,0.354,1.023,1.095,1.659,1.801
	c0.776-1.341,1.482-3.425,1.766-4.766c0.247-1.201,0.105-1.271-3.849-0.212c-2.684,0.742-3.037,0.705-3.673,0.423
	c-0.706-0.281-0.6-0.671,0.212-0.812c1.166-0.248,2.86-0.565,4.555-1.023l0.283-4.344c-1.942,0.281-3.461,0.317-3.955,0.105
	c-0.812-0.352-0.705-0.74,0.424-0.883c0.354-0.035,1.871-0.387,3.637-0.883c0.283-4.73,0.072-6.354-0.6-7.238
	c-0.707-0.882-0.142-1.695,2.012-0.634c1.73,0.812,1.801,0.987,1.307,2.047c-0.247,0.53-0.564,2.084-0.953,5.331
	c0.813-0.247,1.589-0.493,2.26-0.705c1.377-0.495,2.118-0.637,2.684-0.46c1.377,0.424,1.412,1.06,0.389,1.448
	c-1.695,0.671-3.673,1.201-5.544,1.589l-0.459,4.237c1.06-0.318,1.271-0.389,1.483-0.564c0.742-0.531,1.236-0.566,2.26,0
	c1.589,0.883,1.624,1.234,0.706,2.047c-0.494,0.389-1.06,1.165-1.377,2.119c-0.318,0.883-1.13,2.895-2.189,4.484
	c1.802,1.588,5.155,3.035,10.522,4.308c0.918,0.212,0.953,0.776,0.07,0.989C528.691,440.537,525.901,440.784,524.878,440.784"/>
<path fill="#231815" d="M553.583,441.121c-2.565,0-4.522-0.973-5.983-2.975c-1.474-2.023-2.222-4.96-2.222-8.73
	c0-4.584,0.991-8.262,2.947-10.936c1.946-2.664,4.433-3.959,7.603-3.959c1.648,0,2.979,0.203,3.965,0.602v1.994
	c-1.239-0.521-2.535-0.785-3.861-0.785c-2.471,0-4.483,1.087-5.979,3.23c-1.453,2.086-2.203,4.953-2.228,8.523l-0.003,0.504h0.808
	l0.227-0.271c1.182-2.289,3.016-3.402,5.606-3.402c2.184,0,3.873,0.687,5.165,2.097c1.285,1.403,1.938,3.308,1.938,5.661
	c0,2.465-0.759,4.512-2.251,6.086C557.807,440.349,555.932,441.121,553.583,441.121 M553.635,426.709
	c-1.654,0-3.021,0.576-4.058,1.715c-1.024,1.124-1.545,2.473-1.545,4.009c0,1.86,0.507,3.479,1.505,4.815
	c1.032,1.381,2.422,2.08,4.133,2.08c1.618,0,2.953-0.604,3.967-1.797c0.994-1.168,1.498-2.68,1.498-4.494
	c0-1.952-0.478-3.506-1.421-4.616C556.751,427.285,555.379,426.709,553.635,426.709"/>
<path fill="#FFFFFF" d="M555.928,415.021c1.413,0,2.575,0.15,3.465,0.449v0.921c-1.089-0.372-2.214-0.56-3.361-0.56
	c-2.645,0-4.794,1.159-6.389,3.444c-1.513,2.17-2.293,5.133-2.317,8.806l-0.007,1.008h1.007h0.087h0.038
	c-0.61,0.992-0.918,2.113-0.918,3.342c0,1.972,0.54,3.693,1.604,5.117c1.131,1.513,2.656,2.279,4.533,2.279
	c1.772,0,3.234-0.664,4.346-1.972c1.074-1.261,1.619-2.882,1.619-4.82c0-2.073-0.518-3.735-1.539-4.938
	c-1.063-1.254-2.563-1.889-4.461-1.889c-1.328,0-2.486,0.342-3.458,1.021c1.052-1.217,2.466-1.813,4.286-1.813
	c2.035,0,3.604,0.631,4.796,1.933c1.216,1.327,1.806,3.067,1.806,5.323c0,2.365-0.691,4.242-2.113,5.742
	c-1.407,1.483-3.163,2.205-5.368,2.205c-2.396,0-4.22-0.906-5.579-2.77c-1.411-1.936-2.126-4.773-2.126-8.436
	c0-4.475,0.959-8.055,2.851-10.642C550.574,416.25,552.929,415.021,555.928,415.021 M555.928,414.021
	c-3.31,0-5.979,1.388-8.007,4.163c-2.028,2.774-3.043,6.521-3.043,11.231c0,3.896,0.772,6.904,2.318,9.024s3.675,3.181,6.387,3.181
	c2.471,0,4.502-0.839,6.094-2.518c1.593-1.678,2.388-3.819,2.388-6.43c0-2.492-0.689-4.492-2.068-5.998s-3.223-2.258-5.533-2.258
	c-2.771,0-4.787,1.223-6.051,3.672h-0.087c0.024-3.482,0.735-6.23,2.138-8.24c1.402-2.012,3.259-3.018,5.568-3.018
	c1.517,0,2.971,0.357,4.361,1.068v-3.102C559.313,414.28,557.824,414.021,555.928,414.021 M553.67,438.828
	c-1.552,0-2.796-0.626-3.732-1.879s-1.405-2.758-1.405-4.518c0-1.412,0.472-2.637,1.414-3.67c0.942-1.035,2.172-1.553,3.688-1.553
	c1.598,0,2.83,0.512,3.698,1.535c0.867,1.022,1.302,2.454,1.302,4.292c0,1.701-0.46,3.093-1.38,4.171
	C556.336,438.289,555.141,438.828,553.67,438.828"/>
<polygon fill="#231815" points="567.305,440.674 567.305,438.76 573.287,438.76 573.287,417.322 567.149,419.098 567.149,417.035 
	575.649,414.567 575.649,438.76 581.614,438.76 581.614,440.674 "/>
<path fill="#FFFFFF" d="M575.148,415.233v23.026v1h1h4.965v0.914h-13.309v-0.914h4.982h1v-1v-20.273v-1.33l-1.277,0.37l-4.86,1.406
	v-1.021L575.148,415.233z M576.148,413.901l-9.499,2.759v3.103l6.138-1.776v20.273h-5.982v2.914h15.309v-2.914h-5.965V413.901z"/>
<path fill="#231815" d="M594.354,441.121c-2.558,0-4.481-1.037-5.884-3.17c-1.427-2.172-2.149-5.402-2.149-9.604
	c0-4.59,0.761-8.098,2.264-10.424c1.479-2.289,3.563-3.401,6.372-3.401c5.371,0,7.981,4.313,7.981,13.188
	c0,4.385-0.774,7.77-2.304,10.058C599.127,440.023,597.073,441.121,594.354,441.121 M594.768,416.332c-3.98,0-6,3.99-6,11.861
	c0,7.389,1.983,11.135,5.896,11.135c3.854,0,5.81-3.805,5.81-11.309C600.473,420.265,598.553,416.332,594.768,416.332"/>
<path fill="#FFFFFF" d="M594.956,415.021c5.034,0,7.481,4.15,7.481,12.688c0,4.284-0.746,7.574-2.219,9.78
	c-1.407,2.108-3.326,3.132-5.866,3.132c-2.375,0-4.162-0.963-5.466-2.945c-1.371-2.088-2.067-5.226-2.067-9.328
	c0-4.493,0.735-7.909,2.185-10.153C590.383,416.06,592.329,415.021,594.956,415.021 M594.663,439.828
	c4.187,0,6.31-3.973,6.31-11.809c0-8.088-2.088-12.188-6.205-12.188c-4.313,0-6.5,4.158-6.5,12.36
	C588.268,435.914,590.419,439.828,594.663,439.828 M594.956,414.021c-2.965,0-5.229,1.21-6.792,3.63
	c-1.563,2.419-2.345,5.985-2.345,10.696c0,4.32,0.744,7.613,2.233,9.877c1.487,2.266,3.588,3.396,6.3,3.396
	c2.874,0,5.105-1.191,6.698-3.576c1.592-2.385,2.387-5.83,2.387-10.336C603.438,418.584,600.61,414.021,594.956,414.021
	 M594.663,438.828c-3.598,0-5.396-3.544-5.396-10.636c0-7.574,1.832-11.36,5.5-11.36c3.47,0,5.205,3.729,5.205,11.188
	C599.973,435.227,598.203,438.828,594.663,438.828"/>
<polygon fill="#231815" points="625.865,440.674 625.865,428.641 611.35,428.641 611.35,440.674 608.901,440.674 608.901,414.97 
	611.35,414.97 611.35,426.572 625.865,426.572 625.865,414.97 628.313,414.97 628.313,440.674 "/>
<path fill="#FFFFFF" d="M627.813,415.47v24.704h-1.448v-11.033v-1h-1H611.85h-1v1v11.033h-1.448V415.47h1.448v10.603v1h1h13.515h1
	v-1V415.47H627.813z M628.813,414.47h-3.448v11.603H611.85V414.47h-3.448v26.704h3.448v-12.033h13.515v12.033h3.448V414.47z"/>
<path fill="#333333" d="M143.752,140.458c0,1.384-1.27,2.507-2.835,2.507h-0.33c-1.565,0-2.835-1.123-2.835-2.507V91.805
	c0-1.385,1.27-2.508,2.835-2.508h0.33c1.565,0,2.835,1.123,2.835,2.508V140.458z"/>
<path fill="#333333" d="M162.307,140.458c0,1.384-1.27,2.507-2.835,2.507h-0.33c-1.565,0-2.835-1.123-2.835-2.507V91.805
	c0-1.385,1.27-2.508,2.835-2.508h0.33c1.565,0,2.835,1.123,2.835,2.508V140.458z"/>
<path fill="#333333" d="M180.861,140.458c0,1.384-1.27,2.507-2.835,2.507h-0.33c-1.566,0-2.835-1.123-2.835-2.507V91.805
	c0-1.385,1.269-2.508,2.835-2.508h0.33c1.565,0,2.835,1.123,2.835,2.508V140.458z"/>
<path fill="#333333" d="M199.416,140.458c0,1.384-1.271,2.507-2.835,2.507h-0.33c-1.566,0-2.835-1.123-2.835-2.507V91.805
	c0-1.385,1.269-2.508,2.835-2.508h0.33c1.565,0,2.835,1.123,2.835,2.508V140.458z"/>
<path fill="#333333" d="M217.97,140.458c0,1.384-1.27,2.507-2.835,2.507h-0.33c-1.565,0-2.835-1.123-2.835-2.507V91.805
	c0-1.385,1.27-2.508,2.835-2.508h0.33c1.565,0,2.835,1.123,2.835,2.508V140.458z"/>
<path fill="#333333" d="M236.524,140.458c0,1.384-1.27,2.507-2.835,2.507h-0.33c-1.564,0-2.835-1.123-2.835-2.507V91.805
	c0-1.385,1.271-2.508,2.835-2.508h0.33c1.565,0,2.835,1.123,2.835,2.508V140.458z"/>
<path fill="#333333" d="M255.079,140.458c0,1.384-1.271,2.507-2.835,2.507h-0.33c-1.565,0-2.835-1.123-2.835-2.507V91.805
	c0-1.385,1.27-2.508,2.835-2.508h0.33c1.564,0,2.835,1.123,2.835,2.508V140.458z"/>
<path fill="#333333" d="M273.634,140.458c0,1.384-1.271,2.507-2.835,2.507h-0.33c-1.565,0-2.835-1.123-2.835-2.507V91.805
	c0-1.385,1.27-2.508,2.835-2.508h0.33c1.564,0,2.835,1.123,2.835,2.508V140.458z"/>
<path fill="#333333" d="M292.188,140.458c0,1.384-1.27,2.507-2.835,2.507h-0.329c-1.565,0-2.836-1.123-2.836-2.507V91.805
	c0-1.385,1.271-2.508,2.836-2.508h0.329c1.565,0,2.835,1.123,2.835,2.508V140.458z"/>
<path fill="#333333" d="M310.742,140.458c0,1.384-1.27,2.507-2.835,2.507h-0.33c-1.565,0-2.835-1.123-2.835-2.507V91.805
	c0-1.385,1.27-2.508,2.835-2.508h0.33c1.565,0,2.835,1.123,2.835,2.508V140.458z"/>
<path fill="#333333" d="M329.297,140.458c0,1.384-1.27,2.507-2.835,2.507h-0.33c-1.565,0-2.835-1.123-2.835-2.507V91.805
	c0-1.385,1.27-2.508,2.835-2.508h0.33c1.565,0,2.835,1.123,2.835,2.508V140.458z"/>
<path fill="#333333" d="M347.852,140.458c0,1.384-1.27,2.507-2.835,2.507h-0.33c-1.566,0-2.835-1.123-2.835-2.507V91.805
	c0-1.385,1.269-2.508,2.835-2.508h0.33c1.565,0,2.835,1.123,2.835,2.508V140.458z"/>
<path fill="#333333" d="M366.406,141.711c0,0.692-1.271,1.253-2.836,1.253h-0.329c-1.565,0-2.835-0.561-2.835-1.253v-24.326
	c0-0.693,1.27-1.254,2.835-1.254h0.329c1.565,0,2.836,0.561,2.836,1.254V141.711z"/>
<path fill="#333333" d="M384.961,141.711c0,0.692-1.271,1.253-2.836,1.253h-0.33c-1.564,0-2.834-0.561-2.834-1.253v-24.326
	c0-0.693,1.27-1.254,2.834-1.254h0.33c1.565,0,2.836,0.561,2.836,1.254V141.711z"/>
<path fill="#333333" d="M403.515,141.711c0,0.692-1.27,1.253-2.835,1.253h-0.33c-1.564,0-2.835-0.561-2.835-1.253v-24.326
	c0-0.693,1.271-1.254,2.835-1.254h0.33c1.565,0,2.835,0.561,2.835,1.254V141.711z"/>
<path fill="#333333" d="M422.069,140.458c0,1.384-1.271,2.507-2.835,2.507h-0.33c-1.565,0-2.835-1.123-2.835-2.507V91.805
	c0-1.385,1.27-2.508,2.835-2.508h0.33c1.564,0,2.835,1.123,2.835,2.508V140.458z"/>
<path fill="#333333" d="M440.624,140.458c0,1.384-1.271,2.507-2.835,2.507h-0.33c-1.565,0-2.835-1.123-2.835-2.507V91.805
	c0-1.385,1.27-2.508,2.835-2.508h0.33c1.564,0,2.835,1.123,2.835,2.508V140.458z"/>
<path fill="#333333" d="M459.178,140.458c0,1.384-1.27,2.507-2.835,2.507h-0.329c-1.565,0-2.836-1.123-2.836-2.507V91.805
	c0-1.385,1.271-2.508,2.836-2.508h0.329c1.565,0,2.835,1.123,2.835,2.508V140.458z"/>
<path fill="#333333" d="M477.732,140.458c0,1.384-1.27,2.507-2.835,2.507h-0.33c-1.565,0-2.835-1.123-2.835-2.507V91.805
	c0-1.385,1.27-2.508,2.835-2.508h0.33c1.565,0,2.835,1.123,2.835,2.508V140.458z"/>
<path fill="#333333" d="M496.287,140.458c0,1.384-1.27,2.507-2.835,2.507h-0.33c-1.565,0-2.835-1.123-2.835-2.507V91.805
	c0-1.385,1.27-2.508,2.835-2.508h0.33c1.565,0,2.835,1.123,2.835,2.508V140.458z"/>
<path fill="#333333" d="M514.842,140.458c0,1.384-1.27,2.507-2.835,2.507h-0.33c-1.566,0-2.835-1.123-2.835-2.507V91.805
	c0-1.385,1.269-2.508,2.835-2.508h0.33c1.565,0,2.835,1.123,2.835,2.508V140.458z"/>
<path fill="#333333" d="M533.396,140.458c0,1.384-1.271,2.507-2.836,2.507h-0.329c-1.565,0-2.835-1.123-2.835-2.507V91.805
	c0-1.385,1.27-2.508,2.835-2.508h0.329c1.565,0,2.836,1.123,2.836,2.508V140.458z"/>
<path fill="#333333" d="M551.951,140.458c0,1.384-1.271,2.507-2.836,2.507h-0.33c-1.564,0-2.834-1.123-2.834-2.507V91.805
	c0-1.385,1.27-2.508,2.834-2.508h0.33c1.565,0,2.836,1.123,2.836,2.508V140.458z"/>
<path fill="#333333" d="M570.505,140.458c0,1.384-1.27,2.507-2.835,2.507h-0.33c-1.564,0-2.835-1.123-2.835-2.507V91.805
	c0-1.385,1.271-2.508,2.835-2.508h0.33c1.565,0,2.835,1.123,2.835,2.508V140.458z"/>
<path fill="#333333" d="M589.06,140.458c0,1.384-1.271,2.507-2.835,2.507h-0.33c-1.565,0-2.835-1.123-2.835-2.507V91.805
	c0-1.385,1.27-2.508,2.835-2.508h0.33c1.564,0,2.835,1.123,2.835,2.508V140.458z"/>
<path fill="#333333" d="M607.614,140.458c0,1.384-1.271,2.507-2.835,2.507h-0.33c-1.565,0-2.835-1.123-2.835-2.507V91.805
	c0-1.385,1.27-2.508,2.835-2.508h0.33c1.564,0,2.835,1.123,2.835,2.508V140.458z"/>
<path fill="#333333" d="M626.168,140.458c0,1.384-1.27,2.507-2.835,2.507h-0.329c-1.565,0-2.836-1.123-2.836-2.507V91.805
	c0-1.385,1.271-2.508,2.836-2.508h0.329c1.565,0,2.835,1.123,2.835,2.508V140.458z"/>
<path fill="#333333" d="M143.752,204.458c0,1.384-1.27,2.507-2.835,2.507h-0.33c-1.565,0-2.835-1.123-2.835-2.507v-48.653
	c0-1.385,1.27-2.508,2.835-2.508h0.33c1.565,0,2.835,1.123,2.835,2.508V204.458z"/>
<path fill="#333333" d="M162.307,204.458c0,1.384-1.27,2.507-2.835,2.507h-0.33c-1.565,0-2.835-1.123-2.835-2.507v-48.653
	c0-1.385,1.27-2.508,2.835-2.508h0.33c1.565,0,2.835,1.123,2.835,2.508V204.458z"/>
<path fill="#333333" d="M180.861,204.458c0,1.384-1.27,2.507-2.835,2.507h-0.33c-1.566,0-2.835-1.123-2.835-2.507v-48.653
	c0-1.385,1.269-2.508,2.835-2.508h0.33c1.565,0,2.835,1.123,2.835,2.508V204.458z"/>
<path fill="#333333" d="M199.416,204.458c0,1.384-1.271,2.507-2.835,2.507h-0.33c-1.566,0-2.835-1.123-2.835-2.507v-48.653
	c0-1.385,1.269-2.508,2.835-2.508h0.33c1.565,0,2.835,1.123,2.835,2.508V204.458z"/>
<path fill="#333333" d="M217.97,204.458c0,1.384-1.27,2.507-2.835,2.507h-0.33c-1.565,0-2.835-1.123-2.835-2.507v-48.653
	c0-1.385,1.27-2.508,2.835-2.508h0.33c1.565,0,2.835,1.123,2.835,2.508V204.458z"/>
<path fill="#333333" d="M236.524,204.458c0,1.384-1.27,2.507-2.835,2.507h-0.33c-1.564,0-2.835-1.123-2.835-2.507v-48.653
	c0-1.385,1.271-2.508,2.835-2.508h0.33c1.565,0,2.835,1.123,2.835,2.508V204.458z"/>
<path fill="#333333" d="M255.079,204.458c0,1.384-1.271,2.507-2.835,2.507h-0.33c-1.565,0-2.835-1.123-2.835-2.507v-48.653
	c0-1.385,1.27-2.508,2.835-2.508h0.33c1.564,0,2.835,1.123,2.835,2.508V204.458z"/>
<path fill="#333333" d="M273.634,204.458c0,1.384-1.271,2.507-2.835,2.507h-0.33c-1.565,0-2.835-1.123-2.835-2.507v-48.653
	c0-1.385,1.27-2.508,2.835-2.508h0.33c1.564,0,2.835,1.123,2.835,2.508V204.458z"/>
<path fill="#333333" d="M292.188,204.458c0,1.384-1.27,2.507-2.835,2.507h-0.329c-1.565,0-2.836-1.123-2.836-2.507v-48.653
	c0-1.385,1.271-2.508,2.836-2.508h0.329c1.565,0,2.835,1.123,2.835,2.508V204.458z"/>
<path fill="#333333" d="M310.742,204.458c0,1.384-1.27,2.507-2.835,2.507h-0.33c-1.565,0-2.835-1.123-2.835-2.507v-48.653
	c0-1.385,1.27-2.508,2.835-2.508h0.33c1.565,0,2.835,1.123,2.835,2.508V204.458z"/>
<path fill="#333333" d="M329.297,204.458c0,1.384-1.27,2.507-2.835,2.507h-0.33c-1.565,0-2.835-1.123-2.835-2.507v-48.653
	c0-1.385,1.27-2.508,2.835-2.508h0.33c1.565,0,2.835,1.123,2.835,2.508V204.458z"/>
<path fill="#333333" d="M347.852,204.458c0,1.384-1.27,2.507-2.835,2.507h-0.33c-1.566,0-2.835-1.123-2.835-2.507v-48.653
	c0-1.385,1.269-2.508,2.835-2.508h0.33c1.565,0,2.835,1.123,2.835,2.508V204.458z"/>
<path fill="#333333" d="M366.406,204.458c0,1.384-1.271,2.507-2.836,2.507h-0.329c-1.565,0-2.835-1.123-2.835-2.507v-48.653
	c0-1.385,1.27-2.508,2.835-2.508h0.329c1.565,0,2.836,1.123,2.836,2.508V204.458z"/>
<path fill="#333333" d="M384.961,204.458c0,1.384-1.271,2.507-2.836,2.507h-0.33c-1.564,0-2.834-1.123-2.834-2.507v-48.653
	c0-1.385,1.27-2.508,2.834-2.508h0.33c1.565,0,2.836,1.123,2.836,2.508V204.458z"/>
<path fill="#333333" d="M403.515,204.458c0,1.384-1.27,2.507-2.835,2.507h-0.33c-1.564,0-2.835-1.123-2.835-2.507v-48.653
	c0-1.385,1.271-2.508,2.835-2.508h0.33c1.565,0,2.835,1.123,2.835,2.508V204.458z"/>
<path fill="#333333" d="M422.069,204.458c0,1.384-1.271,2.507-2.835,2.507h-0.33c-1.565,0-2.835-1.123-2.835-2.507v-48.653
	c0-1.385,1.27-2.508,2.835-2.508h0.33c1.564,0,2.835,1.123,2.835,2.508V204.458z"/>
<path fill="#333333" d="M440.624,204.458c0,1.384-1.271,2.507-2.835,2.507h-0.33c-1.565,0-2.835-1.123-2.835-2.507v-48.653
	c0-1.385,1.27-2.508,2.835-2.508h0.33c1.564,0,2.835,1.123,2.835,2.508V204.458z"/>
<path fill="#333333" d="M459.178,204.458c0,1.384-1.27,2.507-2.835,2.507h-0.329c-1.565,0-2.836-1.123-2.836-2.507v-48.653
	c0-1.385,1.271-2.508,2.836-2.508h0.329c1.565,0,2.835,1.123,2.835,2.508V204.458z"/>
<path fill="#333333" d="M477.732,204.458c0,1.384-1.27,2.507-2.835,2.507h-0.33c-1.565,0-2.835-1.123-2.835-2.507v-48.653
	c0-1.385,1.27-2.508,2.835-2.508h0.33c1.565,0,2.835,1.123,2.835,2.508V204.458z"/>
<path fill="#333333" d="M496.287,204.458c0,1.384-1.27,2.507-2.835,2.507h-0.33c-1.565,0-2.835-1.123-2.835-2.507v-48.653
	c0-1.385,1.27-2.508,2.835-2.508h0.33c1.565,0,2.835,1.123,2.835,2.508V204.458z"/>
<path fill="#333333" d="M514.842,204.458c0,1.384-1.27,2.507-2.835,2.507h-0.33c-1.566,0-2.835-1.123-2.835-2.507v-48.653
	c0-1.385,1.269-2.508,2.835-2.508h0.33c1.565,0,2.835,1.123,2.835,2.508V204.458z"/>
<path fill="#333333" d="M533.396,204.458c0,1.384-1.271,2.507-2.836,2.507h-0.329c-1.565,0-2.835-1.123-2.835-2.507v-48.653
	c0-1.385,1.27-2.508,2.835-2.508h0.329c1.565,0,2.836,1.123,2.836,2.508V204.458z"/>
<path fill="#333333" d="M551.951,204.458c0,1.384-1.271,2.507-2.836,2.507h-0.33c-1.564,0-2.834-1.123-2.834-2.507v-48.653
	c0-1.385,1.27-2.508,2.834-2.508h0.33c1.565,0,2.836,1.123,2.836,2.508V204.458z"/>
<path fill="#333333" d="M570.505,204.458c0,1.384-1.27,2.507-2.835,2.507h-0.33c-1.564,0-2.835-1.123-2.835-2.507v-48.653
	c0-1.385,1.271-2.508,2.835-2.508h0.33c1.565,0,2.835,1.123,2.835,2.508V204.458z"/>
<path fill="#333333" d="M589.06,204.458c0,1.384-1.271,2.507-2.835,2.507h-0.33c-1.565,0-2.835-1.123-2.835-2.507v-48.653
	c0-1.385,1.27-2.508,2.835-2.508h0.33c1.564,0,2.835,1.123,2.835,2.508V204.458z"/>
<path fill="#333333" d="M607.614,204.458c0,1.384-1.271,2.507-2.835,2.507h-0.33c-1.565,0-2.835-1.123-2.835-2.507v-48.653
	c0-1.385,1.27-2.508,2.835-2.508h0.33c1.564,0,2.835,1.123,2.835,2.508V204.458z"/>
<path fill="#333333" d="M626.168,204.458c0,1.384-1.27,2.507-2.835,2.507h-0.329c-1.565,0-2.836-1.123-2.836-2.507v-48.653
	c0-1.385,1.271-2.508,2.836-2.508h0.329c1.565,0,2.835,1.123,2.835,2.508V204.458z"/>
<path fill="#333333" d="M143.752,268.458c0,1.384-1.27,2.507-2.835,2.507h-0.33c-1.565,0-2.835-1.123-2.835-2.507v-48.653
	c0-1.385,1.27-2.508,2.835-2.508h0.33c1.565,0,2.835,1.123,2.835,2.508V268.458z"/>
<path fill="#333333" d="M162.307,268.458c0,1.384-1.27,2.507-2.835,2.507h-0.33c-1.565,0-2.835-1.123-2.835-2.507v-48.653
	c0-1.385,1.27-2.508,2.835-2.508h0.33c1.565,0,2.835,1.123,2.835,2.508V268.458z"/>
<path fill="#333333" d="M180.861,268.458c0,1.384-1.27,2.507-2.835,2.507h-0.33c-1.566,0-2.835-1.123-2.835-2.507v-48.653
	c0-1.385,1.269-2.508,2.835-2.508h0.33c1.565,0,2.835,1.123,2.835,2.508V268.458z"/>
<path fill="#333333" d="M199.416,268.458c0,1.384-1.271,2.507-2.835,2.507h-0.33c-1.566,0-2.835-1.123-2.835-2.507v-48.653
	c0-1.385,1.269-2.508,2.835-2.508h0.33c1.565,0,2.835,1.123,2.835,2.508V268.458z"/>
<path fill="#333333" d="M217.97,268.458c0,1.384-1.27,2.507-2.835,2.507h-0.33c-1.565,0-2.835-1.123-2.835-2.507v-48.653
	c0-1.385,1.27-2.508,2.835-2.508h0.33c1.565,0,2.835,1.123,2.835,2.508V268.458z"/>
<path fill="#333333" d="M236.524,268.458c0,1.384-1.27,2.507-2.835,2.507h-0.33c-1.564,0-2.835-1.123-2.835-2.507v-48.653
	c0-1.385,1.271-2.508,2.835-2.508h0.33c1.565,0,2.835,1.123,2.835,2.508V268.458z"/>
<path fill="#333333" d="M255.079,268.458c0,1.384-1.271,2.507-2.835,2.507h-0.33c-1.565,0-2.835-1.123-2.835-2.507v-48.653
	c0-1.385,1.27-2.508,2.835-2.508h0.33c1.564,0,2.835,1.123,2.835,2.508V268.458z"/>
<path fill="#333333" d="M273.634,268.458c0,1.384-1.271,2.507-2.835,2.507h-0.33c-1.565,0-2.835-1.123-2.835-2.507v-48.653
	c0-1.385,1.27-2.508,2.835-2.508h0.33c1.564,0,2.835,1.123,2.835,2.508V268.458z"/>
<path fill="#333333" d="M292.188,268.458c0,1.384-1.27,2.507-2.835,2.507h-0.329c-1.565,0-2.836-1.123-2.836-2.507v-48.653
	c0-1.385,1.271-2.508,2.836-2.508h0.329c1.565,0,2.835,1.123,2.835,2.508V268.458z"/>
<path fill="#333333" d="M310.742,268.458c0,1.384-1.27,2.507-2.835,2.507h-0.33c-1.565,0-2.835-1.123-2.835-2.507v-48.653
	c0-1.385,1.27-2.508,2.835-2.508h0.33c1.565,0,2.835,1.123,2.835,2.508V268.458z"/>
<path fill="#333333" d="M329.297,268.458c0,1.384-1.27,2.507-2.835,2.507h-0.33c-1.565,0-2.835-1.123-2.835-2.507v-48.653
	c0-1.385,1.27-2.508,2.835-2.508h0.33c1.565,0,2.835,1.123,2.835,2.508V268.458z"/>
<path fill="#333333" d="M347.852,268.458c0,1.384-1.27,2.507-2.835,2.507h-0.33c-1.566,0-2.835-1.123-2.835-2.507v-48.653
	c0-1.385,1.269-2.508,2.835-2.508h0.33c1.565,0,2.835,1.123,2.835,2.508V268.458z"/>
<path fill="#333333" d="M366.406,268.458c0,1.384-1.271,2.507-2.836,2.507h-0.329c-1.565,0-2.835-1.123-2.835-2.507v-48.653
	c0-1.385,1.27-2.508,2.835-2.508h0.329c1.565,0,2.836,1.123,2.836,2.508V268.458z"/>
<path fill="#333333" d="M384.961,268.458c0,1.384-1.271,2.507-2.836,2.507h-0.33c-1.564,0-2.834-1.123-2.834-2.507v-48.653
	c0-1.385,1.27-2.508,2.834-2.508h0.33c1.565,0,2.836,1.123,2.836,2.508V268.458z"/>
<path fill="#333333" d="M403.515,268.458c0,1.384-1.27,2.507-2.835,2.507h-0.33c-1.564,0-2.835-1.123-2.835-2.507v-48.653
	c0-1.385,1.271-2.508,2.835-2.508h0.33c1.565,0,2.835,1.123,2.835,2.508V268.458z"/>
<path fill="#333333" d="M422.069,268.458c0,1.384-1.271,2.507-2.835,2.507h-0.33c-1.565,0-2.835-1.123-2.835-2.507v-48.653
	c0-1.385,1.27-2.508,2.835-2.508h0.33c1.564,0,2.835,1.123,2.835,2.508V268.458z"/>
<path fill="#333333" d="M440.624,268.458c0,1.384-1.271,2.507-2.835,2.507h-0.33c-1.565,0-2.835-1.123-2.835-2.507v-48.653
	c0-1.385,1.27-2.508,2.835-2.508h0.33c1.564,0,2.835,1.123,2.835,2.508V268.458z"/>
<path fill="#333333" d="M459.178,268.458c0,1.384-1.27,2.507-2.835,2.507h-0.329c-1.565,0-2.836-1.123-2.836-2.507v-48.653
	c0-1.385,1.271-2.508,2.836-2.508h0.329c1.565,0,2.835,1.123,2.835,2.508V268.458z"/>
<path fill="#333333" d="M477.732,268.458c0,1.384-1.27,2.507-2.835,2.507h-0.33c-1.565,0-2.835-1.123-2.835-2.507v-48.653
	c0-1.385,1.27-2.508,2.835-2.508h0.33c1.565,0,2.835,1.123,2.835,2.508V268.458z"/>
<path fill="#333333" d="M496.287,268.458c0,1.384-1.27,2.507-2.835,2.507h-0.33c-1.565,0-2.835-1.123-2.835-2.507v-48.653
	c0-1.385,1.27-2.508,2.835-2.508h0.33c1.565,0,2.835,1.123,2.835,2.508V268.458z"/>
<path fill="#333333" d="M514.842,268.458c0,1.384-1.27,2.507-2.835,2.507h-0.33c-1.566,0-2.835-1.123-2.835-2.507v-48.653
	c0-1.385,1.269-2.508,2.835-2.508h0.33c1.565,0,2.835,1.123,2.835,2.508V268.458z"/>
<path fill="#333333" d="M533.396,268.458c0,1.384-1.271,2.507-2.836,2.507h-0.329c-1.565,0-2.835-1.123-2.835-2.507v-48.653
	c0-1.385,1.27-2.508,2.835-2.508h0.329c1.565,0,2.836,1.123,2.836,2.508V268.458z"/>
<path fill="#333333" d="M551.951,268.458c0,1.384-1.271,2.507-2.836,2.507h-0.33c-1.564,0-2.834-1.123-2.834-2.507v-48.653
	c0-1.385,1.27-2.508,2.834-2.508h0.33c1.565,0,2.836,1.123,2.836,2.508V268.458z"/>
<path fill="#333333" d="M570.505,268.458c0,1.384-1.27,2.507-2.835,2.507h-0.33c-1.564,0-2.835-1.123-2.835-2.507v-48.653
	c0-1.385,1.271-2.508,2.835-2.508h0.33c1.565,0,2.835,1.123,2.835,2.508V268.458z"/>
<path fill="#333333" d="M589.06,268.458c0,1.384-1.271,2.507-2.835,2.507h-0.33c-1.565,0-2.835-1.123-2.835-2.507v-48.653
	c0-1.385,1.27-2.508,2.835-2.508h0.33c1.564,0,2.835,1.123,2.835,2.508V268.458z"/>
<path fill="#333333" d="M607.614,268.458c0,1.384-1.271,2.507-2.835,2.507h-0.33c-1.565,0-2.835-1.123-2.835-2.507v-48.653
	c0-1.385,1.27-2.508,2.835-2.508h0.33c1.564,0,2.835,1.123,2.835,2.508V268.458z"/>
<path fill="#333333" d="M626.168,268.458c0,1.384-1.27,2.507-2.835,2.507h-0.329c-1.565,0-2.836-1.123-2.836-2.507v-48.653
	c0-1.385,1.271-2.508,2.836-2.508h0.329c1.565,0,2.835,1.123,2.835,2.508V268.458z"/>
<path fill="#333333" d="M143.752,332.458c0,1.384-1.27,2.507-2.835,2.507h-0.33c-1.565,0-2.835-1.123-2.835-2.507v-48.653
	c0-1.385,1.27-2.508,2.835-2.508h0.33c1.565,0,2.835,1.123,2.835,2.508V332.458z"/>
<path fill="#333333" d="M162.307,332.458c0,1.384-1.27,2.507-2.835,2.507h-0.33c-1.565,0-2.835-1.123-2.835-2.507v-48.653
	c0-1.385,1.27-2.508,2.835-2.508h0.33c1.565,0,2.835,1.123,2.835,2.508V332.458z"/>
<path fill="#333333" d="M180.861,332.458c0,1.384-1.27,2.507-2.835,2.507h-0.33c-1.566,0-2.835-1.123-2.835-2.507v-48.653
	c0-1.385,1.269-2.508,2.835-2.508h0.33c1.565,0,2.835,1.123,2.835,2.508V332.458z"/>
<path fill="#333333" d="M199.416,332.458c0,1.384-1.271,2.507-2.835,2.507h-0.33c-1.566,0-2.835-1.123-2.835-2.507v-48.653
	c0-1.385,1.269-2.508,2.835-2.508h0.33c1.565,0,2.835,1.123,2.835,2.508V332.458z"/>
<path fill="#333333" d="M217.97,332.458c0,1.384-1.27,2.507-2.835,2.507h-0.33c-1.565,0-2.835-1.123-2.835-2.507v-48.653
	c0-1.385,1.27-2.508,2.835-2.508h0.33c1.565,0,2.835,1.123,2.835,2.508V332.458z"/>
<path fill="#333333" d="M236.524,332.458c0,1.384-1.27,2.507-2.835,2.507h-0.33c-1.564,0-2.835-1.123-2.835-2.507v-48.653
	c0-1.385,1.271-2.508,2.835-2.508h0.33c1.565,0,2.835,1.123,2.835,2.508V332.458z"/>
<path fill="#333333" d="M255.079,332.458c0,1.384-1.271,2.507-2.835,2.507h-0.33c-1.565,0-2.835-1.123-2.835-2.507v-48.653
	c0-1.385,1.27-2.508,2.835-2.508h0.33c1.564,0,2.835,1.123,2.835,2.508V332.458z"/>
<path fill="#333333" d="M273.634,332.458c0,1.384-1.271,2.507-2.835,2.507h-0.33c-1.565,0-2.835-1.123-2.835-2.507v-48.653
	c0-1.385,1.27-2.508,2.835-2.508h0.33c1.564,0,2.835,1.123,2.835,2.508V332.458z"/>
<path fill="#333333" d="M292.188,332.458c0,1.384-1.27,2.507-2.835,2.507h-0.329c-1.565,0-2.836-1.123-2.836-2.507v-48.653
	c0-1.385,1.271-2.508,2.836-2.508h0.329c1.565,0,2.835,1.123,2.835,2.508V332.458z"/>
<path fill="#333333" d="M310.742,332.458c0,1.384-1.27,2.507-2.835,2.507h-0.33c-1.565,0-2.835-1.123-2.835-2.507v-48.653
	c0-1.385,1.27-2.508,2.835-2.508h0.33c1.565,0,2.835,1.123,2.835,2.508V332.458z"/>
<path fill="#333333" d="M329.297,332.458c0,1.384-1.27,2.507-2.835,2.507h-0.33c-1.565,0-2.835-1.123-2.835-2.507v-48.653
	c0-1.385,1.27-2.508,2.835-2.508h0.33c1.565,0,2.835,1.123,2.835,2.508V332.458z"/>
<path fill="#333333" d="M347.852,332.458c0,1.384-1.27,2.507-2.835,2.507h-0.33c-1.566,0-2.835-1.123-2.835-2.507v-48.653
	c0-1.385,1.269-2.508,2.835-2.508h0.33c1.565,0,2.835,1.123,2.835,2.508V332.458z"/>
<path fill="#333333" d="M366.406,332.458c0,1.384-1.271,2.507-2.836,2.507h-0.329c-1.565,0-2.835-1.123-2.835-2.507v-48.653
	c0-1.385,1.27-2.508,2.835-2.508h0.329c1.565,0,2.836,1.123,2.836,2.508V332.458z"/>
<path fill="#333333" d="M384.961,332.458c0,1.384-1.271,2.507-2.836,2.507h-0.33c-1.564,0-2.834-1.123-2.834-2.507v-48.653
	c0-1.385,1.27-2.508,2.834-2.508h0.33c1.565,0,2.836,1.123,2.836,2.508V332.458z"/>
<path fill="#333333" d="M403.515,332.458c0,1.384-1.27,2.507-2.835,2.507h-0.33c-1.564,0-2.835-1.123-2.835-2.507v-48.653
	c0-1.385,1.271-2.508,2.835-2.508h0.33c1.565,0,2.835,1.123,2.835,2.508V332.458z"/>
<path fill="#333333" d="M422.069,332.458c0,1.384-1.271,2.507-2.835,2.507h-0.33c-1.565,0-2.835-1.123-2.835-2.507v-48.653
	c0-1.385,1.27-2.508,2.835-2.508h0.33c1.564,0,2.835,1.123,2.835,2.508V332.458z"/>
<path fill="#333333" d="M440.624,332.458c0,1.384-1.271,2.507-2.835,2.507h-0.33c-1.565,0-2.835-1.123-2.835-2.507v-48.653
	c0-1.385,1.27-2.508,2.835-2.508h0.33c1.564,0,2.835,1.123,2.835,2.508V332.458z"/>
<path fill="#333333" d="M459.178,332.458c0,1.384-1.27,2.507-2.835,2.507h-0.329c-1.565,0-2.836-1.123-2.836-2.507v-48.653
	c0-1.385,1.271-2.508,2.836-2.508h0.329c1.565,0,2.835,1.123,2.835,2.508V332.458z"/>
<path fill="#333333" d="M477.732,332.458c0,1.384-1.27,2.507-2.835,2.507h-0.33c-1.565,0-2.835-1.123-2.835-2.507v-48.653
	c0-1.385,1.27-2.508,2.835-2.508h0.33c1.565,0,2.835,1.123,2.835,2.508V332.458z"/>
<path fill="#333333" d="M496.287,332.458c0,1.384-1.27,2.507-2.835,2.507h-0.33c-1.565,0-2.835-1.123-2.835-2.507v-48.653
	c0-1.385,1.27-2.508,2.835-2.508h0.33c1.565,0,2.835,1.123,2.835,2.508V332.458z"/>
<path fill="#333333" d="M514.842,332.458c0,1.384-1.27,2.507-2.835,2.507h-0.33c-1.566,0-2.835-1.123-2.835-2.507v-48.653
	c0-1.385,1.269-2.508,2.835-2.508h0.33c1.565,0,2.835,1.123,2.835,2.508V332.458z"/>
<path fill="#333333" d="M533.396,332.458c0,1.384-1.271,2.507-2.836,2.507h-0.329c-1.565,0-2.835-1.123-2.835-2.507v-48.653
	c0-1.385,1.27-2.508,2.835-2.508h0.329c1.565,0,2.836,1.123,2.836,2.508V332.458z"/>
<path fill="#333333" d="M551.951,332.458c0,1.384-1.271,2.507-2.836,2.507h-0.33c-1.564,0-2.834-1.123-2.834-2.507v-48.653
	c0-1.385,1.27-2.508,2.834-2.508h0.33c1.565,0,2.836,1.123,2.836,2.508V332.458z"/>
<path fill="#333333" d="M570.505,332.458c0,1.384-1.27,2.507-2.835,2.507h-0.33c-1.564,0-2.835-1.123-2.835-2.507v-48.653
	c0-1.385,1.271-2.508,2.835-2.508h0.33c1.565,0,2.835,1.123,2.835,2.508V332.458z"/>
<path fill="#333333" d="M589.06,332.458c0,1.384-1.271,2.507-2.835,2.507h-0.33c-1.565,0-2.835-1.123-2.835-2.507v-48.653
	c0-1.385,1.27-2.508,2.835-2.508h0.33c1.564,0,2.835,1.123,2.835,2.508V332.458z"/>
<path fill="#333333" d="M607.614,332.458c0,1.384-1.271,2.507-2.835,2.507h-0.33c-1.565,0-2.835-1.123-2.835-2.507v-48.653
	c0-1.385,1.27-2.508,2.835-2.508h0.33c1.564,0,2.835,1.123,2.835,2.508V332.458z"/>
<path fill="#333333" d="M626.168,332.458c0,1.384-1.27,2.507-2.835,2.507h-0.329c-1.565,0-2.836-1.123-2.836-2.507v-48.653
	c0-1.385,1.271-2.508,2.836-2.508h0.329c1.565,0,2.835,1.123,2.835,2.508V332.458z"/>
<g>
	<defs>
		<path id="SVGID_7_" d="M369.655,77.072c-6.757,6.757-6.757,17.715,0,24.473c6.759,6.757,17.716,6.757,24.474,0
			c6.757-6.758,6.757-17.716,0-24.473c-3.381-3.379-7.81-5.068-12.237-5.068C377.463,72.004,373.035,73.693,369.655,77.072"/>
	</defs>
	<clipPath id="SVGID_8_">
		<use xlink:href="#SVGID_7_"  overflow="visible"/>
	</clipPath>
	
		<radialGradient id="SVGID_9_" cx="-2845.6787" cy="4224.3008" r="1.0002" gradientTransform="matrix(12.2359 -12.2359 -12.2359 -12.2359 86889.5156 16958)" gradientUnits="userSpaceOnUse">
		<stop  offset="0" style="stop-color:#FFFFFF"/>
		<stop  offset="1" style="stop-color:#615957"/>
	</radialGradient>
	<polygon clip-path="url(#SVGID_8_)" fill="url(#SVGID_9_)" points="344.749,90.154 381.893,53.011 419.034,90.153 381.892,127.296 
			"/>
</g>
<g>
	<defs>
		
			<rect id="SVGID_10_" x="364.849" y="86.346" transform="matrix(-0.7071 -0.7071 0.7071 -0.7071 588.7844 422.4952)" width="34.087" height="5.924"/>
	</defs>
	<clipPath id="SVGID_11_">
		<use xlink:href="#SVGID_10_"  overflow="visible"/>
	</clipPath>
	
		<linearGradient id="SVGID_12_" gradientUnits="userSpaceOnUse" x1="-2813.0586" y1="4357.4492" x2="-2812.0586" y2="4357.4492" gradientTransform="matrix(-24.1032 -24.1032 -24.1032 24.1032 37618.625 -172730.4688)">
		<stop  offset="0" style="stop-color:#FFFFFF"/>
		<stop  offset="1" style="stop-color:#3B3833"/>
	</linearGradient>
	<polygon clip-path="url(#SVGID_11_)" fill="url(#SVGID_12_)" points="381.893,117.601 353.601,89.309 381.893,61.017 
		410.185,89.309 	"/>
</g>
<circle fill="none" stroke="#3B3833" stroke-miterlimit="10" cx="381.892" cy="89.308" r="17.304"/>
<path fill="#F0EFEF" d="M977.869,435.654h-8.105l-1.303,4.1h-5.371l10.728-28.105l10.759,28.105h-5.373L977.869,435.654z
	 M971.099,431.521h5.436l-2.702-8.931L971.099,431.521z"/>
<path fill="#F0EFEF" d="M987.021,418.586h6.453c1.864,0,3.575,0.265,5.132,0.795c1.558,0.529,2.888,1.261,3.99,2.193
	c1.101,0.932,1.96,2.05,2.574,3.353c0.613,1.304,0.922,2.718,0.922,4.243s-0.309,2.939-0.922,4.242
	c-0.614,1.304-1.474,2.422-2.574,3.354c-1.103,0.934-2.433,1.664-3.99,2.193c-1.557,0.529-3.268,0.795-5.132,0.795h-6.453V418.586z
	 M993.792,435.621c1.06,0,2.023-0.147,2.893-0.444c0.869-0.296,1.615-0.72,2.24-1.271s1.106-1.225,1.446-2.019
	c0.339-0.795,0.509-1.7,0.509-2.718s-0.17-1.924-0.509-2.717c-0.34-0.795-0.821-1.467-1.446-2.02
	c-0.625-0.55-1.371-0.974-2.24-1.271c-0.869-0.295-1.833-0.444-2.893-0.444h-1.558v12.903H993.792z"/>
<polygon fill="#F0EFEF" points="1045.825,439.754 1037.085,427.136 1037.085,439.754 1032.062,439.754 1032.062,418.586 
	1037.085,418.586 1045.825,431.203 1045.825,418.586 1050.846,418.586 1050.846,439.754 "/>
<polygon fill="#F0EFEF" points="1069.948,418.586 1069.948,422.719 1064.26,422.719 1064.26,439.754 1059.047,439.754 
	1059.047,422.719 1053.357,422.719 1053.357,418.586 "/>
<polygon fill="#F0EFEF" points="1072.458,418.586 1085.647,418.586 1085.647,422.719 1077.671,422.719 1077.671,426.977 
	1085.268,426.977 1085.268,431.108 1077.671,431.108 1077.671,435.622 1085.743,435.622 1085.743,439.754 1072.458,439.754 "/>
<path fill="#F0EFEF" d="M1099.728,418.205c1.103,0,2.209,0.105,3.321,0.314c1.113,0.211,2.072,0.516,2.876,0.916l-0.762,3.822
	c-0.637-0.254-1.362-0.471-2.178-0.65c-0.816-0.181-1.625-0.271-2.432-0.271c-2.161,0-3.867,0.563-5.117,1.692
	s-1.875,2.842-1.875,5.141s0.625,4.013,1.875,5.141c1.25,1.129,2.956,1.692,5.117,1.692c0.807,0,1.615-0.091,2.432-0.271
	c0.815-0.179,1.541-0.396,2.178-0.651l0.762,3.823c-0.804,0.4-1.763,0.705-2.876,0.916c-1.112,0.209-2.219,0.314-3.321,0.314
	c-1.865,0-3.507-0.275-4.927-0.826c-1.419-0.551-2.604-1.313-3.559-2.289c-0.953-0.974-1.675-2.129-2.161-3.464
	c-0.488-1.335-0.731-2.797-0.731-4.386s0.243-3.051,0.731-4.387c0.486-1.334,1.208-2.489,2.161-3.463
	c0.954-0.976,2.14-1.738,3.559-2.289C1096.221,418.48,1097.862,418.205,1099.728,418.205"/>
<polygon fill="#F0EFEF" points="1122.229,439.754 1122.229,431.141 1114.475,431.141 1114.475,439.754 1109.262,439.754 
	1109.262,418.586 1114.475,418.586 1114.475,426.882 1122.229,426.882 1122.229,418.586 1127.442,418.586 1127.442,439.754 "/>
<polygon fill="#F0EFEF" points="1021.733,418.586 1020.255,418.586 1018.928,422.771 1021.573,431.521 1016.153,431.521 
	1014.843,435.653 1022.909,435.653 1024.244,439.754 1029.616,439.754 "/>
<polygon fill="#F0EFEF" points="1009.019,418.586 1004.569,418.586 1011.72,439.754 1013.455,439.754 1014.804,435.631 "/>
<path fill="#333333" d="M721.781,140.458c0,1.384-1.271,2.507-2.836,2.507h-0.33c-1.564,0-2.834-1.123-2.834-2.507V91.805
	c0-1.385,1.27-2.508,2.834-2.508h0.33c1.565,0,2.836,1.123,2.836,2.508V140.458z"/>
<path fill="#333333" d="M740.336,140.458c0,1.384-1.271,2.507-2.836,2.507h-0.33c-1.565,0-2.834-1.123-2.834-2.507V91.805
	c0-1.385,1.269-2.508,2.834-2.508h0.33c1.565,0,2.836,1.123,2.836,2.508V140.458z"/>
<path fill="#333333" d="M758.89,140.458c0,1.384-1.27,2.507-2.835,2.507h-0.33c-1.566,0-2.835-1.123-2.835-2.507V91.805
	c0-1.385,1.269-2.508,2.835-2.508h0.33c1.565,0,2.835,1.123,2.835,2.508V140.458z"/>
<path fill="#333333" d="M777.444,140.458c0,1.384-1.271,2.507-2.835,2.507h-0.33c-1.565,0-2.835-1.123-2.835-2.507V91.805
	c0-1.385,1.27-2.508,2.835-2.508h0.33c1.564,0,2.835,1.123,2.835,2.508V140.458z"/>
<path fill="#333333" d="M721.781,204.458c0,1.384-1.271,2.507-2.836,2.507h-0.33c-1.564,0-2.834-1.123-2.834-2.507v-48.653
	c0-1.385,1.27-2.508,2.834-2.508h0.33c1.565,0,2.836,1.123,2.836,2.508V204.458z"/>
<path fill="#333333" d="M740.336,204.458c0,1.384-1.271,2.507-2.836,2.507h-0.33c-1.565,0-2.834-1.123-2.834-2.507v-48.653
	c0-1.385,1.269-2.508,2.834-2.508h0.33c1.565,0,2.836,1.123,2.836,2.508V204.458z"/>
<path fill="#333333" d="M758.89,204.458c0,1.384-1.27,2.507-2.835,2.507h-0.33c-1.566,0-2.835-1.123-2.835-2.507v-48.653
	c0-1.385,1.269-2.508,2.835-2.508h0.33c1.565,0,2.835,1.123,2.835,2.508V204.458z"/>
<path fill="#333333" d="M777.444,204.458c0,1.384-1.271,2.507-2.835,2.507h-0.33c-1.565,0-2.835-1.123-2.835-2.507v-48.653
	c0-1.385,1.27-2.508,2.835-2.508h0.33c1.564,0,2.835,1.123,2.835,2.508V204.458z"/>
<path fill="#333333" d="M721.781,268.458c0,1.384-1.271,2.507-2.836,2.507h-0.33c-1.564,0-2.834-1.123-2.834-2.507v-48.653
	c0-1.385,1.27-2.508,2.834-2.508h0.33c1.565,0,2.836,1.123,2.836,2.508V268.458z"/>
<path fill="#333333" d="M740.336,268.458c0,1.384-1.271,2.507-2.836,2.507h-0.33c-1.565,0-2.834-1.123-2.834-2.507v-48.653
	c0-1.385,1.269-2.508,2.834-2.508h0.33c1.565,0,2.836,1.123,2.836,2.508V268.458z"/>
<path fill="#333333" d="M758.89,268.458c0,1.384-1.27,2.507-2.835,2.507h-0.33c-1.566,0-2.835-1.123-2.835-2.507v-48.653
	c0-1.385,1.269-2.508,2.835-2.508h0.33c1.565,0,2.835,1.123,2.835,2.508V268.458z"/>
<path fill="#333333" d="M777.444,268.458c0,1.384-1.271,2.507-2.835,2.507h-0.33c-1.565,0-2.835-1.123-2.835-2.507v-48.653
	c0-1.385,1.27-2.508,2.835-2.508h0.33c1.564,0,2.835,1.123,2.835,2.508V268.458z"/>
<path fill="#333333" d="M721.781,332.458c0,1.384-1.271,2.507-2.836,2.507h-0.33c-1.564,0-2.834-1.123-2.834-2.507v-48.653
	c0-1.385,1.27-2.508,2.834-2.508h0.33c1.565,0,2.836,1.123,2.836,2.508V332.458z"/>
<path fill="#333333" d="M740.336,332.458c0,1.384-1.271,2.507-2.836,2.507h-0.33c-1.565,0-2.834-1.123-2.834-2.507v-48.653
	c0-1.385,1.269-2.508,2.834-2.508h0.33c1.565,0,2.836,1.123,2.836,2.508V332.458z"/>
<path fill="#333333" d="M758.89,332.458c0,1.384-1.27,2.507-2.835,2.507h-0.33c-1.566,0-2.835-1.123-2.835-2.507v-48.653
	c0-1.385,1.269-2.508,2.835-2.508h0.33c1.565,0,2.835,1.123,2.835,2.508V332.458z"/>
<path fill="#333333" d="M777.444,332.458c0,1.384-1.271,2.507-2.835,2.507h-0.33c-1.565,0-2.835-1.123-2.835-2.507v-48.653
	c0-1.385,1.27-2.508,2.835-2.508h0.33c1.564,0,2.835,1.123,2.835,2.508V332.458z"/>
<path fill="#333333" d="M1079.784,140.458c0,1.384-1.271,2.507-2.836,2.507h-0.33c-1.564,0-2.834-1.123-2.834-2.507V91.805
	c0-1.385,1.27-2.508,2.834-2.508h0.33c1.565,0,2.836,1.123,2.836,2.508V140.458z"/>
<path fill="#333333" d="M1098.338,140.458c0,1.384-1.27,2.507-2.835,2.507h-0.33c-1.564,0-2.835-1.123-2.835-2.507V91.805
	c0-1.385,1.271-2.508,2.835-2.508h0.33c1.565,0,2.835,1.123,2.835,2.508V140.458z"/>
<path fill="#333333" d="M1116.893,140.458c0,1.384-1.271,2.507-2.835,2.507h-0.33c-1.565,0-2.835-1.123-2.835-2.507V91.805
	c0-1.385,1.27-2.508,2.835-2.508h0.33c1.564,0,2.835,1.123,2.835,2.508V140.458z"/>
<path fill="#333333" d="M1135.447,140.458c0,1.384-1.271,2.507-2.835,2.507h-0.33c-1.565,0-2.835-1.123-2.835-2.507V91.805
	c0-1.385,1.27-2.508,2.835-2.508h0.33c1.564,0,2.835,1.123,2.835,2.508V140.458z"/>
<path fill="#333333" d="M1079.784,204.458c0,1.384-1.271,2.507-2.836,2.507h-0.33c-1.564,0-2.834-1.123-2.834-2.507v-48.653
	c0-1.385,1.27-2.508,2.834-2.508h0.33c1.565,0,2.836,1.123,2.836,2.508V204.458z"/>
<path fill="#333333" d="M1098.338,204.458c0,1.384-1.27,2.507-2.835,2.507h-0.33c-1.564,0-2.835-1.123-2.835-2.507v-48.653
	c0-1.385,1.271-2.508,2.835-2.508h0.33c1.565,0,2.835,1.123,2.835,2.508V204.458z"/>
<path fill="#333333" d="M1116.893,204.458c0,1.384-1.271,2.507-2.835,2.507h-0.33c-1.565,0-2.835-1.123-2.835-2.507v-48.653
	c0-1.385,1.27-2.508,2.835-2.508h0.33c1.564,0,2.835,1.123,2.835,2.508V204.458z"/>
<path fill="#333333" d="M1135.447,204.458c0,1.384-1.271,2.507-2.835,2.507h-0.33c-1.565,0-2.835-1.123-2.835-2.507v-48.653
	c0-1.385,1.27-2.508,2.835-2.508h0.33c1.564,0,2.835,1.123,2.835,2.508V204.458z"/>
<path fill="#333333" d="M1079.784,268.458c0,1.384-1.271,2.507-2.836,2.507h-0.33c-1.564,0-2.834-1.123-2.834-2.507v-48.653
	c0-1.385,1.27-2.508,2.834-2.508h0.33c1.565,0,2.836,1.123,2.836,2.508V268.458z"/>
<path fill="#333333" d="M1098.338,268.458c0,1.384-1.27,2.507-2.835,2.507h-0.33c-1.564,0-2.835-1.123-2.835-2.507v-48.653
	c0-1.385,1.271-2.508,2.835-2.508h0.33c1.565,0,2.835,1.123,2.835,2.508V268.458z"/>
<path fill="#333333" d="M1116.893,268.458c0,1.384-1.271,2.507-2.835,2.507h-0.33c-1.565,0-2.835-1.123-2.835-2.507v-48.653
	c0-1.385,1.27-2.508,2.835-2.508h0.33c1.564,0,2.835,1.123,2.835,2.508V268.458z"/>
<path fill="#333333" d="M1135.447,268.458c0,1.384-1.271,2.507-2.835,2.507h-0.33c-1.565,0-2.835-1.123-2.835-2.507v-48.653
	c0-1.385,1.27-2.508,2.835-2.508h0.33c1.564,0,2.835,1.123,2.835,2.508V268.458z"/>
<path fill="#333333" d="M1079.784,332.458c0,1.384-1.271,2.507-2.836,2.507h-0.33c-1.564,0-2.834-1.123-2.834-2.507v-48.653
	c0-1.385,1.27-2.508,2.834-2.508h0.33c1.565,0,2.836,1.123,2.836,2.508V332.458z"/>
<path fill="#333333" d="M1098.338,332.458c0,1.384-1.27,2.507-2.835,2.507h-0.33c-1.564,0-2.835-1.123-2.835-2.507v-48.653
	c0-1.385,1.271-2.508,2.835-2.508h0.33c1.565,0,2.835,1.123,2.835,2.508V332.458z"/>
<path fill="#333333" d="M1116.893,332.458c0,1.384-1.271,2.507-2.835,2.507h-0.33c-1.565,0-2.835-1.123-2.835-2.507v-48.653
	c0-1.385,1.27-2.508,2.835-2.508h0.33c1.564,0,2.835,1.123,2.835,2.508V332.458z"/>
<path fill="#333333" d="M1135.447,332.458c0,1.384-1.271,2.507-2.835,2.507h-0.33c-1.565,0-2.835-1.123-2.835-2.507v-48.653
	c0-1.385,1.27-2.508,2.835-2.508h0.33c1.564,0,2.835,1.123,2.835,2.508V332.458z"/>
<path fill="#50514D" d="M1017.989,327.521c0,4.112-3.333,7.444-7.445,7.444H840.685c-4.112,0-7.445-3.332-7.445-7.444V177.819
	c0-4.112,3.333-7.446,7.445-7.446h169.859c4.112,0,7.445,3.334,7.445,7.446V327.521z"/>
<path fill="none" stroke="#767774" stroke-miterlimit="10" d="M880.512,236.324c0,2.742-2.223,4.963-4.964,4.963H851.33
	c-2.741,0-4.963-2.221-4.963-4.963v-44.507c0-2.741,2.222-4.964,4.963-4.964h24.218c2.741,0,4.964,2.223,4.964,4.964V236.324z"/>
<path fill="none" stroke="#767774" stroke-miterlimit="10" d="M880.512,319.496c0,2.742-2.223,4.963-4.964,4.963H851.33
	c-2.741,0-4.963-2.221-4.963-4.963v-56.609c0-2.742,2.222-4.965,4.963-4.965h24.218c2.741,0,4.964,2.223,4.964,4.965V319.496z"/>
<path fill="#EDEBEA" d="M854.253,219.321c0.424-0.074,0.984-0.138,1.71-0.138c0.864,0,1.517,0.183,1.939,0.56
	c0.395,0.34,0.634,0.873,0.634,1.517c0,1.709-1.359,2.298-2.628,2.298c-0.221,0-0.423-0.009-0.598-0.046v2.757h-1.058V219.321z
	 M855.311,222.657c0.155,0.046,0.35,0.055,0.598,0.055c0.974,0,1.562-0.505,1.562-1.406c0-0.855-0.588-1.287-1.442-1.287
	c-0.331,0-0.579,0.037-0.717,0.064V222.657z"/>
<path fill="#EDEBEA" d="M867.249,219.238l-1.801,7.031h-1.113l-0.763-3.391c-0.183-0.819-0.321-1.526-0.404-2.28h-0.028
	c-0.109,0.754-0.266,1.443-0.477,2.28l-0.837,3.391h-1.121l-1.646-7.031h1.131l0.699,3.345c0.174,0.864,0.33,1.728,0.449,2.455
	h0.019c0.11-0.754,0.313-1.581,0.515-2.473l0.8-3.327h1.066l0.735,3.345c0.175,0.828,0.34,1.636,0.44,2.446h0.028
	c0.119-0.828,0.285-1.618,0.468-2.473l0.754-3.318H867.249z"/>
<path fill="#EDEBEA" d="M871.118,222.924c0.523,0.193,0.817,0.69,0.982,1.434c0.212,0.919,0.387,1.645,0.524,1.912h-1.104
	c-0.101-0.202-0.267-0.818-0.44-1.682c-0.193-0.938-0.533-1.296-1.277-1.296h-0.644v2.978h-1.058v-6.94
	c0.451-0.083,1.075-0.147,1.71-0.147c0.919,0,1.563,0.165,2.003,0.561c0.368,0.322,0.562,0.809,0.562,1.378
	c0,0.901-0.552,1.517-1.259,1.784V222.924z M869.877,222.492c0.882,0,1.434-0.505,1.434-1.259c0-0.91-0.644-1.222-1.407-1.222
	c-0.357,0-0.614,0.027-0.743,0.064v2.417H869.877z"/>
<polygon fill="#EDEBEA" points="859.556,310.184 858.5,310.184 858.5,307.014 855.657,307.014 855.657,310.184 854.601,310.184 
	854.601,303.207 855.657,303.207 855.657,306.085 858.5,306.085 858.5,303.207 859.556,303.207 "/>
<path fill="#EDEBEA" d="M861.003,303.307c0.5-0.082,1.121-0.146,1.776-0.146c2.97,0,3.589,1.831,3.589,3.379v0.01
	c0,1.267-0.392,2.187-1.002,2.778c-0.629,0.609-1.621,0.92-2.851,0.92c-0.62,0-1.121-0.027-1.513-0.082V303.307z M862.06,309.363
	c0.182,0.027,0.437,0.037,0.683,0.037c1.567,0.01,2.515-0.912,2.515-2.832c0-1.695-0.874-2.569-2.377-2.569
	c-0.364,0-0.639,0.036-0.82,0.073V309.363z"/>
<path fill="#EDEBEA" d="M867.452,303.307c0.5-0.082,1.119-0.146,1.775-0.146c2.969,0,3.589,1.831,3.589,3.379v0.01
	c0,1.267-0.392,2.187-1.002,2.778c-0.629,0.609-1.622,0.92-2.852,0.92c-0.619,0-1.12-0.027-1.511-0.082V303.307z M868.508,309.363
	c0.183,0.027,0.437,0.037,0.683,0.037c1.567,0.01,2.514-0.912,2.514-2.832c0-1.695-0.873-2.569-2.377-2.569
	c-0.364,0-0.637,0.036-0.819,0.073V309.363z"/>
<polygon fill="#EDEBEA" points="913.471,224.021 914.18,224.021 914.18,226.322 916.385,226.322 916.385,226.996 914.18,226.996 
	914.18,229.315 913.471,229.315 913.471,226.996 911.257,226.996 911.257,226.322 913.471,226.322 "/>
<path fill="#EDEBEA" d="M919.703,225.762c0.744,0.14,1.383,0.744,1.383,1.671c0,1.077-0.823,1.978-2.318,1.978
	c-0.683,0-1.296-0.201-1.61-0.411l0.263-0.779c0.235,0.158,0.761,0.376,1.304,0.376c0.937,0,1.32-0.612,1.32-1.198
	c0-0.849-0.717-1.243-1.496-1.243h-0.445v-0.726h0.429c0.568,0,1.312-0.342,1.312-1.068c0-0.516-0.332-0.927-1.032-0.927
	c-0.464,0-0.918,0.219-1.173,0.393l-0.254-0.726c0.334-0.245,0.973-0.481,1.654-0.481c1.234,0,1.837,0.744,1.837,1.584
	c0,0.674-0.42,1.26-1.172,1.539V225.762z"/>
<path fill="#EDEBEA" d="M922.218,228.72c0-0.402,0.279-0.7,0.656-0.7c0.385,0,0.647,0.289,0.647,0.7
	c0,0.403-0.254,0.691-0.657,0.691C922.463,229.411,922.218,229.105,922.218,228.72"/>
<path fill="#EDEBEA" d="M926.769,225.762c0.744,0.14,1.383,0.744,1.383,1.671c0,1.077-0.822,1.978-2.318,1.978
	c-0.684,0-1.295-0.201-1.61-0.411l0.263-0.779c0.235,0.158,0.761,0.376,1.304,0.376c0.936,0,1.321-0.612,1.321-1.198
	c0-0.849-0.718-1.243-1.496-1.243h-0.447v-0.726h0.43c0.568,0,1.313-0.342,1.313-1.068c0-0.516-0.332-0.927-1.033-0.927
	c-0.463,0-0.918,0.219-1.172,0.393l-0.254-0.726c0.333-0.245,0.971-0.481,1.654-0.481c1.232,0,1.836,0.744,1.836,1.584
	c0,0.674-0.42,1.26-1.172,1.539V225.762z"/>
<path fill="#EDEBEA" d="M934.165,222.621l-2.17,6.694h-1.129l-2.029-6.703h1.11l0.885,3.15c0.245,0.849,0.463,1.671,0.63,2.477
	h0.026c0.157-0.797,0.393-1.645,0.647-2.468l0.944-3.15H934.165z"/>
<polygon fill="#EDEBEA" points="944.551,224.021 945.26,224.021 945.26,226.322 947.464,226.322 947.464,226.996 945.26,226.996 
	945.26,229.315 944.551,229.315 944.551,226.996 942.337,226.996 942.337,226.322 944.551,226.322 "/>
<path fill="#EDEBEA" d="M952.052,222.726v0.84h-2.31l-0.219,1.566c0.132-0.009,0.254-0.026,0.438-0.026
	c1.198,0,2.231,0.7,2.231,2.048c0,1.268-0.971,2.257-2.407,2.257c-0.647,0-1.233-0.175-1.539-0.367l0.228-0.771
	c0.263,0.149,0.743,0.333,1.276,0.333c0.744,0,1.409-0.507,1.409-1.365c0-0.848-0.577-1.382-1.75-1.382
	c-0.332,0-0.577,0.017-0.796,0.052l0.411-3.185H952.052z"/>
<path fill="#EDEBEA" d="M958.18,222.621l-2.17,6.694h-1.128l-2.03-6.703h1.11l0.885,3.15c0.245,0.849,0.463,1.671,0.63,2.477h0.026
	c0.156-0.797,0.393-1.645,0.646-2.468l0.945-3.15H958.18z"/>
<polygon fill="#EDEBEA" points="975.631,224.021 976.34,224.021 976.34,226.322 978.544,226.322 978.544,226.996 976.34,226.996 
	976.34,229.315 975.631,229.315 975.631,226.996 973.417,226.996 973.417,226.322 975.631,226.322 "/>
<polygon fill="#EDEBEA" points="981.173,229.315 981.173,223.654 981.154,223.654 980.044,224.266 979.815,223.523 981.304,222.726 
	982.16,222.726 982.16,229.315 "/>
<path fill="#EDEBEA" d="M988.28,229.315h-4.008v-0.621l0.69-0.726c1.392-1.427,2.162-2.337,2.162-3.325
	c0-0.639-0.306-1.199-1.138-1.199c-0.508,0-0.963,0.271-1.269,0.516l-0.306-0.727c0.402-0.332,1.04-0.612,1.775-0.612
	c1.356,0,1.951,0.919,1.951,1.917c0,1.207-0.822,2.213-1.968,3.368l-0.543,0.552v0.017h2.651V229.315z"/>
<path fill="#EDEBEA" d="M994.18,222.621l-2.17,6.694h-1.128l-2.03-6.703h1.11l0.885,3.15c0.245,0.849,0.464,1.671,0.63,2.477h0.026
	c0.157-0.797,0.394-1.645,0.646-2.468l0.945-3.15H994.18z"/>
<rect x="911.161" y="295.072" fill="#EDEBEA" width="2.405" height="0.727"/>
<path fill="#EDEBEA" d="M918.048,291.502v0.84h-2.31l-0.22,1.566c0.133-0.009,0.254-0.025,0.438-0.025
	c1.198,0,2.231,0.699,2.231,2.047c0,1.269-0.972,2.258-2.406,2.258c-0.648,0-1.234-0.176-1.54-0.368l0.227-0.771
	c0.263,0.149,0.744,0.334,1.277,0.334c0.744,0,1.409-0.508,1.409-1.365c0-0.848-0.576-1.383-1.75-1.383
	c-0.332,0-0.577,0.018-0.795,0.053l0.41-3.186H918.048z"/>
<path fill="#EDEBEA" d="M924.176,291.396l-2.17,6.695h-1.128l-2.03-6.703h1.11l0.885,3.149c0.245,0.849,0.463,1.671,0.63,2.478
	h0.026c0.156-0.797,0.393-1.646,0.646-2.469l0.945-3.15H924.176z"/>
<rect x="942.24" y="295.072" fill="#EDEBEA" width="2.406" height="0.727"/>
<polygon fill="#EDEBEA" points="947.169,298.091 947.169,292.43 947.15,292.43 946.038,293.042 945.812,292.299 947.3,291.502 
	948.156,291.502 948.156,298.091 "/>
<path fill="#EDEBEA" d="M954.276,298.091h-4.008v-0.622l0.691-0.726c1.391-1.427,2.161-2.336,2.161-3.325
	c0-0.639-0.307-1.199-1.138-1.199c-0.508,0-0.963,0.272-1.269,0.518l-0.306-0.727c0.401-0.332,1.041-0.613,1.775-0.613
	c1.356,0,1.951,0.92,1.951,1.916c0,1.209-0.823,2.215-1.968,3.369l-0.543,0.553v0.017h2.651V298.091z"/>
<path fill="#EDEBEA" d="M960.176,291.396l-2.17,6.695h-1.128l-2.03-6.703h1.11l0.885,3.149c0.245,0.849,0.464,1.671,0.63,2.478
	h0.026c0.157-0.797,0.394-1.646,0.646-2.469l0.945-3.15H960.176z"/>
<path fill="#EDEBEA" d="M977.206,291.502v0.84h-2.311l-0.219,1.566c0.132-0.009,0.254-0.025,0.438-0.025
	c1.198,0,2.231,0.699,2.231,2.047c0,1.269-0.972,2.258-2.407,2.258c-0.646,0-1.232-0.176-1.539-0.368l0.227-0.771
	c0.264,0.149,0.744,0.334,1.277,0.334c0.744,0,1.409-0.508,1.409-1.365c0-0.848-0.577-1.383-1.75-1.383
	c-0.332,0-0.577,0.018-0.796,0.053l0.411-3.186H977.206z"/>
<path fill="#EDEBEA" d="M983.333,291.396l-2.17,6.695h-1.128l-2.03-6.703h1.11l0.885,3.149c0.245,0.849,0.463,1.671,0.63,2.478
	h0.026c0.157-0.797,0.393-1.646,0.646-2.469l0.945-3.15H983.333z"/>
<path fill="#EDEBEA" d="M987.194,292.438c-0.219-0.121-0.639-0.297-1.189-0.297c-0.797,0-1.129,0.465-1.129,0.893
	c0,0.568,0.377,0.85,1.225,1.217c1.076,0.473,1.593,1.059,1.593,1.977c0,1.121-0.831,1.961-2.337,1.961
	c-0.629,0-1.295-0.184-1.619-0.402l0.229-0.85c0.359,0.22,0.9,0.395,1.452,0.395c0.797,0,1.243-0.412,1.243-1.016
	c0-0.568-0.342-0.918-1.138-1.252c-0.998-0.401-1.672-1.006-1.672-1.915c0-1.06,0.849-1.855,2.179-1.855
	c0.64,0,1.12,0.157,1.409,0.306L987.194,292.438z"/>
<path fill="#EDEBEA" d="M991.633,294.504c0.7,0.175,1.339,0.734,1.339,1.671c0,0.709-0.333,1.12-0.576,1.348
	c-0.447,0.429-1.183,0.63-2.285,0.63c-0.596,0-1.041-0.044-1.329-0.078v-6.59c0.376-0.078,0.971-0.14,1.565-0.14
	c2.038,0,2.39,0.997,2.39,1.671c0,0.639-0.403,1.199-1.104,1.462V294.504z M990.408,294.188c0.805,0,1.313-0.446,1.313-1.067
	c0-0.805-0.647-1.006-1.278-1.006c-0.332,0-0.533,0.025-0.655,0.053v2.021H990.408z M989.787,297.338
	c0.149,0.027,0.35,0.035,0.612,0.035c0.813,0,1.514-0.34,1.514-1.225c0-0.884-0.761-1.207-1.54-1.207h-0.586V297.338z"/>
<path fill="#F7F7F7" d="M906.777,308.031c0.598-0.104,1.39-0.195,2.416-0.195c1.22,0,2.142,0.26,2.739,0.793
	c0.559,0.479,0.896,1.233,0.896,2.142c0,2.415-1.922,3.246-3.714,3.246c-0.312,0-0.597-0.013-0.844-0.064v3.896h-1.494V308.031z
	 M908.271,312.744c0.221,0.065,0.493,0.078,0.844,0.078c1.377,0,2.208-0.714,2.208-1.986c0-1.207-0.831-1.818-2.039-1.818
	c-0.468,0-0.818,0.052-1.013,0.091V312.744z"/>
<path fill="#F7F7F7" d="M922.268,312.783c0,3.454-1.856,5.207-4.272,5.207c-2.53,0-4.154-2.051-4.154-5.051
	c0-3.129,1.74-5.182,4.285-5.182C920.762,307.758,922.268,309.928,922.268,312.783 M915.425,312.9c0,2.013,0.909,3.855,2.623,3.855
	c1.74,0,2.636-1.804,2.636-3.921c0-1.896-0.831-3.843-2.61-3.843C916.243,308.992,915.425,310.952,915.425,312.9"/>
<path fill="#F7F7F7" d="M934.575,307.914l-2.544,9.934h-1.571l-1.077-4.791c-0.261-1.156-0.454-2.156-0.572-3.221h-0.038
	c-0.156,1.064-0.377,2.039-0.676,3.221l-1.182,4.791h-1.584l-2.324-9.934h1.597l0.987,4.727c0.247,1.221,0.468,2.441,0.636,3.467
	h0.026c0.155-1.064,0.441-2.232,0.728-3.493l1.129-4.7h1.506l1.039,4.727c0.246,1.168,0.481,2.312,0.623,3.453h0.039
	c0.169-1.168,0.403-2.285,0.662-3.492l1.065-4.688H934.575z"/>
<polygon fill="#F7F7F7" points="941.197,317.848 935.783,317.848 935.783,307.914 940.977,307.914 940.977,309.174 937.289,309.174 
	937.289,312.043 940.77,312.043 940.77,313.289 937.289,313.289 937.289,316.588 941.197,316.588 "/>
<path fill="#F7F7F7" d="M946.988,313.121c0.74,0.272,1.156,0.974,1.389,2.025c0.3,1.299,0.545,2.324,0.74,2.701h-1.558
	c-0.144-0.286-0.376-1.156-0.623-2.376c-0.272-1.325-0.753-1.831-1.805-1.831h-0.91v4.207h-1.492v-9.803
	c0.636-0.117,1.519-0.209,2.415-0.209c1.299,0,2.207,0.234,2.831,0.793c0.519,0.453,0.791,1.143,0.791,1.947
	c0,1.272-0.778,2.143-1.778,2.519V313.121z M945.235,312.51c1.247,0,2.025-0.713,2.025-1.778c0-1.285-0.908-1.728-1.986-1.728
	c-0.507,0-0.87,0.039-1.053,0.092v3.414H945.235z"/>
<path fill="#F7F7F7" d="M958.011,309.459c-0.324-0.182-0.948-0.441-1.766-0.441c-1.182,0-1.676,0.688-1.676,1.324
	c0,0.844,0.56,1.26,1.818,1.806c1.597,0.7,2.363,1.571,2.363,2.935c0,1.661-1.233,2.908-3.467,2.908
	c-0.936,0-1.922-0.273-2.402-0.598l0.338-1.26c0.532,0.325,1.337,0.584,2.154,0.584c1.182,0,1.845-0.609,1.845-1.506
	c0-0.844-0.507-1.363-1.688-1.855c-1.479-0.598-2.479-1.494-2.479-2.844c0-1.571,1.259-2.754,3.233-2.754
	c0.947,0,1.661,0.234,2.09,0.455L958.011,309.459z"/>
<polygon fill="#F7F7F7" points="966.268,309.199 963.579,309.199 963.579,317.848 962.073,317.848 962.073,309.199 959.398,309.199 
	959.398,307.914 966.268,307.914 "/>
<path fill="#F7F7F7" d="M974.591,317.848h-1.585l-0.896-2.922h-3.038l-0.856,2.922h-1.545l3.038-9.934h1.844L974.591,317.848z
	 M971.864,313.77l-0.78-2.596c-0.182-0.649-0.351-1.351-0.493-1.961h-0.026c-0.142,0.61-0.298,1.338-0.467,1.947l-0.792,2.609
	H971.864z"/>
<polygon fill="#F7F7F7" points="981.874,309.199 979.186,309.199 979.186,317.848 977.68,317.848 977.68,309.199 975.005,309.199 
	975.005,307.914 981.874,307.914 "/>
<path fill="#F7F7F7" d="M989.976,313.796c0,2.947-1.467,4.194-3.583,4.194c-2.039,0-3.416-1.194-3.416-4.155v-5.921h1.507v6.012
	c0,1.987,0.818,2.83,1.961,2.83c1.246,0,2.025-0.855,2.025-2.83v-6.012h1.506V313.796z"/>
<path fill="#F7F7F7" d="M996.675,309.459c-0.324-0.182-0.948-0.441-1.766-0.441c-1.182,0-1.676,0.688-1.676,1.324
	c0,0.844,0.559,1.26,1.818,1.806c1.598,0.7,2.363,1.571,2.363,2.935c0,1.661-1.233,2.908-3.467,2.908
	c-0.936,0-1.922-0.273-2.402-0.598l0.338-1.26c0.532,0.325,1.337,0.584,2.155,0.584c1.181,0,1.844-0.609,1.844-1.506
	c0-0.844-0.507-1.363-1.688-1.855c-1.479-0.598-2.479-1.494-2.479-2.844c0-1.571,1.259-2.754,3.233-2.754
	c0.947,0,1.662,0.234,2.09,0.455L996.675,309.459z"/>
<path fill="none" stroke="#767774" stroke-miterlimit="10" d="M1005.123,319.496c0,2.742-2.223,4.963-4.964,4.963h-96.591
	c-2.741,0-4.964-2.221-4.964-4.963V191.817c0-2.741,2.223-4.964,4.964-4.964h96.591c2.741,0,4.964,2.223,4.964,4.964V319.496z"/>
<path fill="#F0EFEF" d="M129.656,404.1l-2.446,4.088h1.817v18.293v1.627v1.469l-4.153-4.152c-0.376-0.375-0.591-0.895-0.591-1.426
	v-3.667c0.76-0.334,1.291-1.091,1.291-1.974c0-1.19-0.965-2.156-2.156-2.156c-1.191,0-2.156,0.966-2.156,2.156
	c0,1.057,0.76,1.932,1.763,2.117v3.523c0,0.861,0.35,1.705,0.959,2.314l4.465,4.465c0.373,0.373,0.578,0.869,0.578,1.396v0.548
	v1.448c-1.625,0.297-2.857,1.717-2.857,3.427c0,1.926,1.562,3.485,3.486,3.485s3.486-1.56,3.486-3.485
	c0-1.71-1.233-3.13-2.857-3.427v-1.448v-0.548v-4.065v-1.627c0-0.523,0.204-1.016,0.574-1.386l4.275-4.276
	c0.616-0.615,0.955-1.436,0.955-2.307v-3.09h1.64v-4.088h-4.089v4.088h1.192v3.09c0,0.535-0.208,1.039-0.587,1.418l-3.96,3.96
	v-15.702h1.817L129.656,404.1z"/>
<path fill="#2C2C2C" d="M198.107,405.804v17.337c0,0.312-0.255,0.566-0.567,0.566h-44.104c-0.312,0-0.566-0.255-0.566-0.566v-17.337
	c0-0.312,0.255-0.567,0.566-0.567h44.104C197.852,405.236,198.107,405.492,198.107,405.804"/>
<path fill="none" stroke="#040000" stroke-miterlimit="10" d="M198.107,405.804v17.337c0,0.312-0.255,0.566-0.567,0.566h-44.104
	c-0.312,0-0.566-0.255-0.566-0.566v-17.337c0-0.312,0.255-0.567,0.566-0.567h44.104
	C197.852,405.236,198.107,405.492,198.107,405.804z"/>
<g>
	<defs>
		<path id="SVGID_13_" d="M156.331,409.145c-0.773,0-1.397,0.627-1.397,1.399v7.857c0,0.772,0.624,1.397,1.397,1.397h1.722
			c2.473,0,4.477-2.006,4.477-4.476v-1.7c0-2.473-2.004-4.479-4.477-4.479H156.331z"/>
	</defs>
	<clipPath id="SVGID_14_">
		<use xlink:href="#SVGID_13_"  overflow="visible"/>
	</clipPath>
	
		<radialGradient id="SVGID_15_" cx="-3221.9639" cy="4282.5605" r="1.0004" gradientTransform="matrix(0 -4.6258 -4.6258 0 19966.8672 -14489.5234)" gradientUnits="userSpaceOnUse">
		<stop  offset="0" style="stop-color:#727272"/>
		<stop  offset="1" style="stop-color:#4B4A4A"/>
	</radialGradient>
	<rect x="154.934" y="409.145" clip-path="url(#SVGID_14_)" fill="url(#SVGID_15_)" width="7.596" height="10.654"/>
</g>
<g>
	<defs>
		<path id="SVGID_16_" d="M156.331,429.352c-0.773,0-1.397,0.627-1.397,1.397v7.859c0,0.771,0.624,1.397,1.397,1.397h1.722
			c2.473,0,4.477-2.006,4.477-4.479v-1.7c0-2.47-2.004-4.476-4.477-4.476H156.331z"/>
	</defs>
	<clipPath id="SVGID_17_">
		<use xlink:href="#SVGID_16_"  overflow="visible"/>
	</clipPath>
	
		<radialGradient id="SVGID_18_" cx="-3221.9639" cy="4282.5605" r="1" gradientTransform="matrix(0 -4.6258 -4.6258 0 19966.8672 -14469.3164)" gradientUnits="userSpaceOnUse">
		<stop  offset="0" style="stop-color:#727272"/>
		<stop  offset="1" style="stop-color:#4B4A4A"/>
	</radialGradient>
	<rect x="154.934" y="429.352" clip-path="url(#SVGID_17_)" fill="url(#SVGID_18_)" width="7.596" height="10.654"/>
</g>
<g>
	<defs>
		<path id="SVGID_19_" d="M900.811,89.307c0,13.674,11.104,24.756,24.803,24.756c13.699,0,24.804-11.082,24.804-24.756
			c0-13.669-11.104-24.752-24.804-24.752C911.915,64.555,900.811,75.638,900.811,89.307"/>
	</defs>
	<clipPath id="SVGID_20_">
		<use xlink:href="#SVGID_19_"  overflow="visible"/>
	</clipPath>
	
		<linearGradient id="SVGID_21_" gradientUnits="userSpaceOnUse" x1="-2730.7368" y1="4341.0723" x2="-2729.7366" y2="4341.0723" gradientTransform="matrix(-24.7704 42.9036 42.9036 24.7704 -252950.9375 9696.1875)">
		<stop  offset="0" style="stop-color:#A1A1A1"/>
		<stop  offset="0.5078" style="stop-color:#DEDEDE"/>
		<stop  offset="1" style="stop-color:#ACABA9"/>
	</linearGradient>
	<polygon clip-path="url(#SVGID_20_)" fill="url(#SVGID_21_)" points="971.854,76.933 938.016,135.544 879.373,101.687 
		913.212,43.075 	"/>
</g>
<g>
	<defs>
		<path id="SVGID_22_" d="M909.251,89.309c0,9.018,7.326,16.329,16.362,16.329c9.037,0,16.363-7.311,16.363-16.329
			c0-9.02-7.326-16.33-16.363-16.33C916.577,72.979,909.251,80.289,909.251,89.309"/>
	</defs>
	<clipPath id="SVGID_23_">
		<use xlink:href="#SVGID_22_"  overflow="visible"/>
	</clipPath>
	
		<linearGradient id="SVGID_24_" gradientUnits="userSpaceOnUse" x1="-2712.5439" y1="4353.4902" x2="-2711.5439" y2="4353.4902" gradientTransform="matrix(-16.3402 28.3021 28.3021 16.3402 -166602.625 5708.8125)">
		<stop  offset="0" style="stop-color:#A1A1A1"/>
		<stop  offset="0.5078" style="stop-color:#DEDEDE"/>
		<stop  offset="1" style="stop-color:#ACABA9"/>
	</linearGradient>
	<polygon clip-path="url(#SVGID_23_)" fill="url(#SVGID_24_)" points="956.118,81.144 933.795,119.809 895.109,97.474 
		917.433,58.809 	"/>
</g>
<ellipse fill="none" stroke="#8A8A89" stroke-width="1.417" stroke-miterlimit="10" cx="925.615" cy="89.309" rx="16.362" ry="16.329"/>
<path fill="#494746" d="M916.632,89.309c0-4.952,4.021-8.965,8.982-8.965s8.982,4.013,8.982,8.965c0,4.951-4.021,8.965-8.982,8.965
	S916.632,94.26,916.632,89.309"/>
<ellipse fill="none" stroke="#494746" stroke-width="1.417" stroke-miterlimit="10" cx="925.614" cy="89.309" rx="8.982" ry="8.965"/>
<rect x="923.403" y="80.343" fill="#222220" width="4.421" height="17.93"/>
</svg>
