<?xml version="1.0" encoding="utf-8"?>
<!-- Generator: Adobe Illustrator 16.0.0, SVG Export Plug-In . SVG Version: 6.00 Build 0)  -->
<!DOCTYPE svg PUBLIC "-//W3C//DTD SVG 1.1//EN" "http://www.w3.org/Graphics/SVG/1.1/DTD/svg11.dtd">
<svg version="1.1" id="图层_1" xmlns="http://www.w3.org/2000/svg" xmlns:xlink="http://www.w3.org/1999/xlink" x="0px" y="0px"
	 width="1277.29px" height="253.7px" viewBox="0 0 1277.29 253.7" enable-background="new 0 0 1277.29 253.7" xml:space="preserve">
<rect x="0.851" y="0.851" fill="#2F302F" width="1275.591" height="252"/>
<g>
	<path fill="#040000" d="M1277.291,253.701H0V0h1277.291V253.701z M1.701,252H1275.59V1.701H1.701V252z"/>
</g>
<rect x="70.023" y="1.673" fill="#5A5B5A" width="2.835" height="250.5"/>
<rect x="67.189" y="1.673" fill="#060001" width="2.835" height="250.5"/>
<rect x="1202.682" y="1.673" fill="#5A5B5A" width="2.836" height="250.5"/>
<rect x="1205.518" y="1.673" fill="#060001" width="2.834" height="250.5"/>
<path fill="none" stroke="#514F4F" stroke-width="2" stroke-miterlimit="10" d="M1190.213,232.271c0,4.71-3.816,8.525-8.523,8.525
	H635.402c-4.707,0-8.523-3.815-8.523-8.525V22.783c0-4.708,3.816-8.524,8.523-8.524h546.288c4.707,0,8.523,3.816,8.523,8.524
	V232.271z"/>
<path fill="#2F302F" d="M1189.547,232.023c0,4.697-3.809,8.505-8.506,8.505H636.049c-4.696,0-8.504-3.808-8.504-8.505V23.031
	c0-4.695,3.808-8.503,8.504-8.503h544.992c4.697,0,8.506,3.808,8.506,8.503V232.023z"/>
<path fill="none" stroke="#040000" stroke-width="2.835" stroke-miterlimit="10" d="M1189.547,232.023
	c0,4.697-3.809,8.505-8.506,8.505H636.049c-4.696,0-8.504-3.808-8.504-8.505V23.031c0-4.695,3.808-8.503,8.504-8.503h544.992
	c4.697,0,8.506,3.808,8.506,8.503V232.023z"/>
<path fill="#0D0B0B" d="M684.889,115.735c0,2.101-1.939,3.804-4.332,3.804c-2.395,0-4.336-1.703-4.336-3.804V66.008
	c0-2.1,1.941-3.802,4.336-3.802c2.393,0,4.332,1.702,4.332,3.802V115.735z"/>
<path fill="#0D0B0B" d="M703.213,115.735c0,2.101-1.939,3.804-4.332,3.804c-2.395,0-4.336-1.703-4.336-3.804V66.008
	c0-2.1,1.941-3.802,4.336-3.802c2.393,0,4.332,1.702,4.332,3.802V115.735z"/>
<path fill="#0D0B0B" d="M721.537,115.735c0,2.101-1.939,3.804-4.332,3.804c-2.395,0-4.336-1.703-4.336-3.804V66.008
	c0-2.1,1.941-3.802,4.336-3.802c2.393,0,4.332,1.702,4.332,3.802V115.735z"/>
<path fill="#0D0B0B" d="M739.861,115.735c0,2.101-1.939,3.804-4.332,3.804c-2.395,0-4.336-1.703-4.336-3.804V66.008
	c0-2.1,1.941-3.802,4.336-3.802c2.393,0,4.332,1.702,4.332,3.802V115.735z"/>
<path fill="#0D0B0B" d="M758.186,115.735c0,2.101-1.939,3.804-4.332,3.804c-2.395,0-4.336-1.703-4.336-3.804V66.008
	c0-2.1,1.941-3.802,4.336-3.802c2.393,0,4.332,1.702,4.332,3.802V115.735z"/>
<path fill="#0D0B0B" d="M776.51,115.735c0,2.101-1.939,3.804-4.332,3.804c-2.395,0-4.336-1.703-4.336-3.804V66.008
	c0-2.1,1.941-3.802,4.336-3.802c2.393,0,4.332,1.702,4.332,3.802V115.735z"/>
<path fill="#0D0B0B" d="M794.834,115.735c0,2.101-1.939,3.804-4.332,3.804c-2.395,0-4.336-1.703-4.336-3.804V66.008
	c0-2.1,1.941-3.802,4.336-3.802c2.393,0,4.332,1.702,4.332,3.802V115.735z"/>
<path fill="#0D0B0B" d="M684.889,183.382c0,2.1-1.939,3.803-4.332,3.803c-2.395,0-4.336-1.703-4.336-3.803v-49.729
	c0-2.101,1.941-3.802,4.336-3.802c2.393,0,4.332,1.701,4.332,3.802V183.382z"/>
<path fill="#0D0B0B" d="M703.213,183.382c0,2.1-1.939,3.803-4.332,3.803c-2.395,0-4.336-1.703-4.336-3.803v-49.729
	c0-2.101,1.941-3.802,4.336-3.802c2.393,0,4.332,1.701,4.332,3.802V183.382z"/>
<path fill="#0D0B0B" d="M721.537,183.382c0,2.1-1.939,3.803-4.332,3.803c-2.395,0-4.336-1.703-4.336-3.803v-49.729
	c0-2.101,1.941-3.802,4.336-3.802c2.393,0,4.332,1.701,4.332,3.802V183.382z"/>
<path fill="#0D0B0B" d="M739.861,183.382c0,2.1-1.939,3.803-4.332,3.803c-2.395,0-4.336-1.703-4.336-3.803v-49.729
	c0-2.101,1.941-3.802,4.336-3.802c2.393,0,4.332,1.701,4.332,3.802V183.382z"/>
<path fill="#0D0B0B" d="M758.186,183.382c0,2.1-1.939,3.803-4.332,3.803c-2.395,0-4.336-1.703-4.336-3.803v-49.729
	c0-2.101,1.941-3.802,4.336-3.802c2.393,0,4.332,1.701,4.332,3.802V183.382z"/>
<path fill="#0D0B0B" d="M776.51,183.382c0,2.1-1.939,3.803-4.332,3.803c-2.395,0-4.336-1.703-4.336-3.803v-49.729
	c0-2.101,1.941-3.802,4.336-3.802c2.393,0,4.332,1.701,4.332,3.802V183.382z"/>
<path fill="#0D0B0B" d="M794.834,183.382c0,2.1-1.939,3.803-4.332,3.803c-2.395,0-4.336-1.703-4.336-3.803v-49.729
	c0-2.101,1.941-3.802,4.336-3.802c2.393,0,4.332,1.701,4.332,3.802V183.382z"/>
<path fill="#0D0B0B" d="M577.545,112.735c0,2.1-1.94,3.803-4.333,3.803c-2.394,0-4.334-1.703-4.334-3.803V63.008
	c0-2.1,1.94-3.802,4.334-3.802c2.393,0,4.333,1.702,4.333,3.802V112.735z"/>
<path fill="#0D0B0B" d="M577.545,180.381c0,2.101-1.94,3.804-4.333,3.804c-2.394,0-4.334-1.703-4.334-3.804v-49.728
	c0-2.102,1.94-3.803,4.334-3.803c2.393,0,4.333,1.701,4.333,3.803V180.381z"/>
<path fill="#0D0B0B" d="M559.795,112.735c0,2.1-1.94,3.803-4.333,3.803c-2.394,0-4.334-1.703-4.334-3.803V63.008
	c0-2.1,1.94-3.802,4.334-3.802c2.393,0,4.333,1.702,4.333,3.802V112.735z"/>
<path fill="#0D0B0B" d="M559.795,180.381c0,2.101-1.94,3.804-4.333,3.804c-2.394,0-4.334-1.703-4.334-3.804v-49.728
	c0-2.102,1.94-3.803,4.334-3.803c2.393,0,4.333,1.701,4.333,3.803V180.381z"/>
<path fill="#0D0B0B" d="M542.045,112.735c0,2.1-1.94,3.803-4.333,3.803c-2.394,0-4.334-1.703-4.334-3.803V63.008
	c0-2.1,1.94-3.802,4.334-3.802c2.393,0,4.333,1.702,4.333,3.802V112.735z"/>
<path fill="#0D0B0B" d="M542.045,180.381c0,2.101-1.94,3.804-4.333,3.804c-2.394,0-4.334-1.703-4.334-3.804v-49.728
	c0-2.102,1.94-3.803,4.334-3.803c2.393,0,4.333,1.701,4.333,3.803V180.381z"/>
<path fill="#0D0B0B" d="M524.295,112.735c0,2.1-1.94,3.803-4.333,3.803c-2.394,0-4.334-1.703-4.334-3.803V63.008
	c0-2.1,1.94-3.802,4.334-3.802c2.393,0,4.333,1.702,4.333,3.802V112.735z"/>
<path fill="#0D0B0B" d="M524.295,180.381c0,2.101-1.94,3.804-4.333,3.804c-2.394,0-4.334-1.703-4.334-3.804v-49.728
	c0-2.102,1.94-3.803,4.334-3.803c2.393,0,4.333,1.701,4.333,3.803V180.381z"/>
<path fill="#0D0B0B" d="M506.545,112.735c0,2.1-1.94,3.803-4.333,3.803c-2.394,0-4.334-1.703-4.334-3.803V63.008
	c0-2.1,1.94-3.802,4.334-3.802c2.393,0,4.333,1.702,4.333,3.802V112.735z"/>
<path fill="#0D0B0B" d="M506.545,180.381c0,2.101-1.94,3.804-4.333,3.804c-2.394,0-4.334-1.703-4.334-3.804v-49.728
	c0-2.102,1.94-3.803,4.334-3.803c2.393,0,4.333,1.701,4.333,3.803V180.381z"/>
<path fill="#0D0B0B" d="M488.795,112.735c0,2.1-1.94,3.803-4.333,3.803c-2.394,0-4.334-1.703-4.334-3.803V63.008
	c0-2.1,1.94-3.802,4.334-3.802c2.393,0,4.333,1.702,4.333,3.802V112.735z"/>
<path fill="#0D0B0B" d="M488.795,180.381c0,2.101-1.94,3.804-4.333,3.804c-2.394,0-4.334-1.703-4.334-3.804v-49.728
	c0-2.102,1.94-3.803,4.334-3.803c2.393,0,4.333,1.701,4.333,3.803V180.381z"/>
<path fill="#0D0B0B" d="M471.045,112.735c0,2.1-1.94,3.803-4.333,3.803c-2.394,0-4.334-1.703-4.334-3.803V63.008
	c0-2.1,1.94-3.802,4.334-3.802c2.393,0,4.333,1.702,4.333,3.802V112.735z"/>
<path fill="#0D0B0B" d="M471.045,180.381c0,2.101-1.94,3.804-4.333,3.804c-2.394,0-4.334-1.703-4.334-3.804v-49.728
	c0-2.102,1.94-3.803,4.334-3.803c2.393,0,4.333,1.701,4.333,3.803V180.381z"/>
<path fill="#0D0B0B" d="M453.295,112.735c0,2.1-1.94,3.803-4.333,3.803c-2.394,0-4.334-1.703-4.334-3.803V63.008
	c0-2.1,1.94-3.802,4.334-3.802c2.393,0,4.333,1.702,4.333,3.802V112.735z"/>
<path fill="#0D0B0B" d="M453.295,180.381c0,2.101-1.94,3.804-4.333,3.804c-2.394,0-4.334-1.703-4.334-3.804v-49.728
	c0-2.102,1.94-3.803,4.334-3.803c2.393,0,4.333,1.701,4.333,3.803V180.381z"/>
<path fill="#0D0B0B" d="M435.545,112.735c0,2.1-1.94,3.803-4.333,3.803c-2.394,0-4.334-1.703-4.334-3.803V63.008
	c0-2.1,1.94-3.802,4.334-3.802c2.393,0,4.333,1.702,4.333,3.802V112.735z"/>
<path fill="#0D0B0B" d="M435.545,180.381c0,2.101-1.94,3.804-4.333,3.804c-2.394,0-4.334-1.703-4.334-3.804v-49.728
	c0-2.102,1.94-3.803,4.334-3.803c2.393,0,4.333,1.701,4.333,3.803V180.381z"/>
<path fill="#0D0B0B" d="M417.795,112.735c0,2.1-1.94,3.803-4.333,3.803c-2.394,0-4.334-1.703-4.334-3.803V63.008
	c0-2.1,1.94-3.802,4.334-3.802c2.393,0,4.333,1.702,4.333,3.802V112.735z"/>
<path fill="#0D0B0B" d="M417.795,180.381c0,2.101-1.94,3.804-4.333,3.804c-2.394,0-4.334-1.703-4.334-3.804v-49.728
	c0-2.102,1.94-3.803,4.334-3.803c2.393,0,4.333,1.701,4.333,3.803V180.381z"/>
<path fill="#0D0B0B" d="M400.045,112.735c0,2.1-1.94,3.803-4.333,3.803c-2.394,0-4.334-1.703-4.334-3.803V63.008
	c0-2.1,1.94-3.802,4.334-3.802c2.393,0,4.333,1.702,4.333,3.802V112.735z"/>
<path fill="#0D0B0B" d="M400.045,180.381c0,2.101-1.94,3.804-4.333,3.804c-2.394,0-4.334-1.703-4.334-3.804v-49.728
	c0-2.102,1.94-3.803,4.334-3.803c2.393,0,4.333,1.701,4.333,3.803V180.381z"/>
<path fill="#0D0B0B" d="M358.545,112.735c0,2.1-1.94,3.803-4.333,3.803c-2.394,0-4.334-1.703-4.334-3.803V63.008
	c0-2.1,1.94-3.802,4.334-3.802c2.393,0,4.333,1.702,4.333,3.802V112.735z"/>
<path fill="#0D0B0B" d="M358.545,180.381c0,2.101-1.94,3.804-4.333,3.804c-2.394,0-4.334-1.703-4.334-3.804v-49.728
	c0-2.102,1.94-3.803,4.334-3.803c2.393,0,4.333,1.701,4.333,3.803V180.381z"/>
<path fill="#0D0B0B" d="M340.795,112.735c0,2.1-1.94,3.803-4.333,3.803c-2.394,0-4.334-1.703-4.334-3.803V63.008
	c0-2.1,1.94-3.802,4.334-3.802c2.393,0,4.333,1.702,4.333,3.802V112.735z"/>
<path fill="#0D0B0B" d="M340.795,180.381c0,2.101-1.94,3.804-4.333,3.804c-2.394,0-4.334-1.703-4.334-3.804v-49.728
	c0-2.102,1.94-3.803,4.334-3.803c2.393,0,4.333,1.701,4.333,3.803V180.381z"/>
<path fill="#0D0B0B" d="M323.045,112.735c0,2.1-1.94,3.803-4.333,3.803c-2.394,0-4.334-1.703-4.334-3.803V63.008
	c0-2.1,1.94-3.802,4.334-3.802c2.393,0,4.333,1.702,4.333,3.802V112.735z"/>
<path fill="#0D0B0B" d="M323.045,180.381c0,2.101-1.94,3.804-4.333,3.804c-2.394,0-4.334-1.703-4.334-3.804v-49.728
	c0-2.102,1.94-3.803,4.334-3.803c2.393,0,4.333,1.701,4.333,3.803V180.381z"/>
<path fill="#0D0B0B" d="M305.295,112.735c0,2.1-1.94,3.803-4.333,3.803c-2.394,0-4.334-1.703-4.334-3.803V63.008
	c0-2.1,1.94-3.802,4.334-3.802c2.393,0,4.333,1.702,4.333,3.802V112.735z"/>
<path fill="#0D0B0B" d="M305.295,180.381c0,2.101-1.94,3.804-4.333,3.804c-2.394,0-4.334-1.703-4.334-3.804v-49.728
	c0-2.102,1.94-3.803,4.334-3.803c2.393,0,4.333,1.701,4.333,3.803V180.381z"/>
<path fill="#0D0B0B" d="M287.545,112.735c0,2.1-1.94,3.803-4.333,3.803c-2.394,0-4.334-1.703-4.334-3.803V63.008
	c0-2.1,1.94-3.802,4.334-3.802c2.393,0,4.333,1.702,4.333,3.802V112.735z"/>
<path fill="#0D0B0B" d="M287.545,180.381c0,2.101-1.94,3.804-4.333,3.804c-2.394,0-4.334-1.703-4.334-3.804v-49.728
	c0-2.102,1.94-3.803,4.334-3.803c2.393,0,4.333,1.701,4.333,3.803V180.381z"/>
<path fill="#0D0B0B" d="M269.795,112.735c0,2.1-1.94,3.803-4.333,3.803c-2.394,0-4.334-1.703-4.334-3.803V63.008
	c0-2.1,1.94-3.802,4.334-3.802c2.393,0,4.333,1.702,4.333,3.802V112.735z"/>
<path fill="#0D0B0B" d="M269.795,180.381c0,2.101-1.94,3.804-4.333,3.804c-2.394,0-4.334-1.703-4.334-3.804v-49.728
	c0-2.102,1.94-3.803,4.334-3.803c2.393,0,4.333,1.701,4.333,3.803V180.381z"/>
<path fill="#0D0B0B" d="M252.045,112.735c0,2.1-1.94,3.803-4.333,3.803c-2.394,0-4.334-1.703-4.334-3.803V63.008
	c0-2.1,1.94-3.802,4.334-3.802c2.393,0,4.333,1.702,4.333,3.802V112.735z"/>
<path fill="#0D0B0B" d="M252.045,180.381c0,2.101-1.94,3.804-4.333,3.804c-2.394,0-4.334-1.703-4.334-3.804v-49.728
	c0-2.102,1.94-3.803,4.334-3.803c2.393,0,4.333,1.701,4.333,3.803V180.381z"/>
<path fill="#0D0B0B" d="M234.295,112.735c0,2.1-1.94,3.803-4.333,3.803c-2.394,0-4.334-1.703-4.334-3.803V63.008
	c0-2.1,1.94-3.802,4.334-3.802c2.393,0,4.333,1.702,4.333,3.802V112.735z"/>
<path fill="#0D0B0B" d="M234.295,180.381c0,2.101-1.94,3.804-4.333,3.804c-2.394,0-4.334-1.703-4.334-3.804v-49.728
	c0-2.102,1.94-3.803,4.334-3.803c2.393,0,4.333,1.701,4.333,3.803V180.381z"/>
<path fill="#0D0B0B" d="M216.545,112.735c0,2.1-1.94,3.803-4.333,3.803c-2.394,0-4.334-1.703-4.334-3.803V63.008
	c0-2.1,1.94-3.802,4.334-3.802c2.393,0,4.333,1.702,4.333,3.802V112.735z"/>
<path fill="#0D0B0B" d="M216.545,180.381c0,2.101-1.94,3.804-4.333,3.804c-2.394,0-4.334-1.703-4.334-3.804v-49.728
	c0-2.102,1.94-3.803,4.334-3.803c2.393,0,4.333,1.701,4.333,3.803V180.381z"/>
<path fill="#0D0B0B" d="M198.795,112.735c0,2.1-1.94,3.803-4.333,3.803c-2.394,0-4.334-1.703-4.334-3.803V63.008
	c0-2.1,1.94-3.802,4.334-3.802c2.393,0,4.333,1.702,4.333,3.802V112.735z"/>
<path fill="#0D0B0B" d="M198.795,180.381c0,2.101-1.94,3.804-4.333,3.804c-2.394,0-4.334-1.703-4.334-3.804v-49.728
	c0-2.102,1.94-3.803,4.334-3.803c2.393,0,4.333,1.701,4.333,3.803V180.381z"/>
<path fill="#0D0B0B" d="M181.045,112.735c0,2.1-1.94,3.803-4.333,3.803c-2.394,0-4.334-1.703-4.334-3.803V63.008
	c0-2.1,1.94-3.802,4.334-3.802c2.393,0,4.333,1.702,4.333,3.802V112.735z"/>
<path fill="#0D0B0B" d="M181.045,180.381c0,2.101-1.94,3.804-4.333,3.804c-2.394,0-4.334-1.703-4.334-3.804v-49.728
	c0-2.102,1.94-3.803,4.334-3.803c2.393,0,4.333,1.701,4.333,3.803V180.381z"/>
<path fill="#0D0B0B" d="M959.844,115.735c0,2.101-1.941,3.804-4.334,3.804c-2.395,0-4.334-1.703-4.334-3.804V66.008
	c0-2.1,1.939-3.802,4.334-3.802c2.393,0,4.334,1.702,4.334,3.802V115.735z"/>
<path fill="#0D0B0B" d="M978.168,115.735c0,2.101-1.941,3.804-4.334,3.804c-2.395,0-4.334-1.703-4.334-3.804V66.008
	c0-2.1,1.939-3.802,4.334-3.802c2.393,0,4.334,1.702,4.334,3.802V115.735z"/>
<path fill="#0D0B0B" d="M996.492,115.735c0,2.101-1.941,3.804-4.334,3.804c-2.395,0-4.334-1.703-4.334-3.804V66.008
	c0-2.1,1.939-3.802,4.334-3.802c2.393,0,4.334,1.702,4.334,3.802V115.735z"/>
<path fill="#0D0B0B" d="M886.547,183.382c0,2.1-1.941,3.803-4.334,3.803c-2.395,0-4.334-1.703-4.334-3.803v-49.729
	c0-2.101,1.939-3.802,4.334-3.802c2.393,0,4.334,1.701,4.334,3.802V183.382z"/>
<path fill="#0D0B0B" d="M904.871,183.382c0,2.1-1.941,3.803-4.334,3.803c-2.395,0-4.334-1.703-4.334-3.803v-49.729
	c0-2.101,1.939-3.802,4.334-3.802c2.393,0,4.334,1.701,4.334,3.802V183.382z"/>
<path fill="#0D0B0B" d="M923.195,183.382c0,2.1-1.941,3.803-4.334,3.803c-2.395,0-4.334-1.703-4.334-3.803v-49.729
	c0-2.101,1.939-3.802,4.334-3.802c2.393,0,4.334,1.701,4.334,3.802V183.382z"/>
<path fill="#0D0B0B" d="M941.52,183.382c0,2.1-1.941,3.803-4.334,3.803c-2.395,0-4.334-1.703-4.334-3.803v-49.729
	c0-2.101,1.939-3.802,4.334-3.802c2.393,0,4.334,1.701,4.334,3.802V183.382z"/>
<path fill="#0D0B0B" d="M959.844,183.382c0,2.1-1.941,3.803-4.334,3.803c-2.395,0-4.334-1.703-4.334-3.803v-49.729
	c0-2.101,1.939-3.802,4.334-3.802c2.393,0,4.334,1.701,4.334,3.802V183.382z"/>
<path fill="#0D0B0B" d="M978.168,183.382c0,2.1-1.941,3.803-4.334,3.803c-2.395,0-4.334-1.703-4.334-3.803v-49.729
	c0-2.101,1.939-3.802,4.334-3.802c2.393,0,4.334,1.701,4.334,3.802V183.382z"/>
<path fill="#0D0B0B" d="M996.492,183.382c0,2.1-1.941,3.803-4.334,3.803c-2.395,0-4.334-1.703-4.334-3.803v-49.729
	c0-2.101,1.939-3.802,4.334-3.802c2.393,0,4.334,1.701,4.334,3.802V183.382z"/>
<path fill="#0D0B0B" d="M1014.547,115.735c0,2.101-1.941,3.804-4.334,3.804c-2.395,0-4.334-1.703-4.334-3.804V66.008
	c0-2.1,1.939-3.802,4.334-3.802c2.393,0,4.334,1.702,4.334,3.802V115.735z"/>
<path fill="#0D0B0B" d="M1032.871,115.735c0,2.101-1.941,3.804-4.334,3.804c-2.395,0-4.334-1.703-4.334-3.804V66.008
	c0-2.1,1.939-3.802,4.334-3.802c2.393,0,4.334,1.702,4.334,3.802V115.735z"/>
<path fill="#0D0B0B" d="M1051.195,115.735c0,2.101-1.941,3.804-4.334,3.804c-2.395,0-4.334-1.703-4.334-3.804V66.008
	c0-2.1,1.939-3.802,4.334-3.802c2.393,0,4.334,1.702,4.334,3.802V115.735z"/>
<path fill="#0D0B0B" d="M1069.52,115.735c0,2.101-1.941,3.804-4.334,3.804c-2.395,0-4.334-1.703-4.334-3.804V66.008
	c0-2.1,1.939-3.802,4.334-3.802c2.393,0,4.334,1.702,4.334,3.802V115.735z"/>
<path fill="#0D0B0B" d="M1087.844,115.735c0,2.101-1.941,3.804-4.334,3.804c-2.395,0-4.334-1.703-4.334-3.804V66.008
	c0-2.1,1.939-3.802,4.334-3.802c2.393,0,4.334,1.702,4.334,3.802V115.735z"/>
<path fill="#0D0B0B" d="M1106.168,115.735c0,2.101-1.941,3.804-4.334,3.804c-2.395,0-4.334-1.703-4.334-3.804V66.008
	c0-2.1,1.939-3.802,4.334-3.802c2.393,0,4.334,1.702,4.334,3.802V115.735z"/>
<path fill="#0D0B0B" d="M1124.492,115.735c0,2.101-1.941,3.804-4.334,3.804c-2.395,0-4.334-1.703-4.334-3.804V66.008
	c0-2.1,1.939-3.802,4.334-3.802c2.393,0,4.334,1.702,4.334,3.802V115.735z"/>
<path fill="#0D0B0B" d="M1014.547,183.382c0,2.1-1.941,3.803-4.334,3.803c-2.395,0-4.334-1.703-4.334-3.803v-49.729
	c0-2.101,1.939-3.802,4.334-3.802c2.393,0,4.334,1.701,4.334,3.802V183.382z"/>
<path fill="#0D0B0B" d="M1032.871,183.382c0,2.1-1.941,3.803-4.334,3.803c-2.395,0-4.334-1.703-4.334-3.803v-49.729
	c0-2.101,1.939-3.802,4.334-3.802c2.393,0,4.334,1.701,4.334,3.802V183.382z"/>
<path fill="#0D0B0B" d="M1051.195,183.382c0,2.1-1.941,3.803-4.334,3.803c-2.395,0-4.334-1.703-4.334-3.803v-49.729
	c0-2.101,1.939-3.802,4.334-3.802c2.393,0,4.334,1.701,4.334,3.802V183.382z"/>
<path fill="#0D0B0B" d="M1069.52,183.382c0,2.1-1.941,3.803-4.334,3.803c-2.395,0-4.334-1.703-4.334-3.803v-49.729
	c0-2.101,1.939-3.802,4.334-3.802c2.393,0,4.334,1.701,4.334,3.802V183.382z"/>
<path fill="#0D0B0B" d="M1087.844,183.382c0,2.1-1.941,3.803-4.334,3.803c-2.395,0-4.334-1.703-4.334-3.803v-49.729
	c0-2.101,1.939-3.802,4.334-3.802c2.393,0,4.334,1.701,4.334,3.802V183.382z"/>
<path fill="#0D0B0B" d="M1106.168,183.382c0,2.1-1.941,3.803-4.334,3.803c-2.395,0-4.334-1.703-4.334-3.803v-49.729
	c0-2.101,1.939-3.802,4.334-3.802c2.393,0,4.334,1.701,4.334,3.802V183.382z"/>
<path fill="#0D0B0B" d="M1124.492,183.382c0,2.1-1.941,3.803-4.334,3.803c-2.395,0-4.334-1.703-4.334-3.803v-49.729
	c0-2.101,1.939-3.802,4.334-3.802c2.393,0,4.334,1.701,4.334,3.802V183.382z"/>
<path fill="#0D0B0B" d="M1143.879,115.735c0,2.101-1.939,3.804-4.332,3.804c-2.395,0-4.334-1.703-4.334-3.804V66.008
	c0-2.1,1.939-3.802,4.334-3.802c2.393,0,4.332,1.702,4.332,3.802V115.735z"/>
<path fill="#0D0B0B" d="M1143.879,183.382c0,2.1-1.939,3.803-4.332,3.803c-2.395,0-4.334-1.703-4.334-3.803v-49.729
	c0-2.101,1.939-3.802,4.334-3.802c2.393,0,4.332,1.701,4.332,3.802V183.382z"/>
<path fill="#EFEA3D" d="M102.105,30.833c0-4.609,3.736-8.346,8.346-8.346c4.609,0,8.346,3.737,8.346,8.346
	c0,4.609-3.737,8.346-8.346,8.346C105.842,39.179,102.105,35.442,102.105,30.833"/>
<circle fill="none" stroke="#B2B223" stroke-width="1.701" stroke-miterlimit="10" cx="110.451" cy="30.833" r="8.346"/>
<path fill="#575758" d="M102.105,59.205c0-4.609,3.736-8.346,8.346-8.346c4.609,0,8.346,3.737,8.346,8.346
	c0,4.61-3.737,8.346-8.346,8.346C105.842,67.551,102.105,63.815,102.105,59.205"/>
<circle fill="none" stroke="#706F6F" stroke-width="1.701" stroke-miterlimit="10" cx="110.451" cy="59.205" r="8.346"/>
<path fill="#EFEA3D" d="M102.105,87.577c0-4.609,3.736-8.346,8.346-8.346c4.609,0,8.346,3.737,8.346,8.346
	c0,4.61-3.737,8.346-8.346,8.346C105.842,95.923,102.105,92.188,102.105,87.577"/>
<circle fill="none" stroke="#B2B223" stroke-width="1.701" stroke-miterlimit="10" cx="110.451" cy="87.577" r="8.346"/>
<path fill="#EFEA3D" d="M102.105,115.95c0-4.609,3.736-8.346,8.346-8.346c4.609,0,8.346,3.737,8.346,8.346s-3.737,8.346-8.346,8.346
	C105.842,124.296,102.105,120.56,102.105,115.95"/>
<circle fill="none" stroke="#B2B223" stroke-width="1.701" stroke-miterlimit="10" cx="110.451" cy="115.95" r="8.346"/>
<g>
	<defs>
		<path id="SVGID_1_" d="M1228.604,11.442c-6.262,0-11.336,5.077-11.336,11.338v208.251c0,6.263,5.074,11.339,11.336,11.339h26.348
			c6.262,0,11.338-5.076,11.338-11.339V22.78c0-6.261-5.076-11.338-11.338-11.338H1228.604z"/>
	</defs>
	<clipPath id="SVGID_2_">
		<use xlink:href="#SVGID_1_"  overflow="visible"/>
	</clipPath>
	
		<linearGradient id="SVGID_3_" gradientUnits="userSpaceOnUse" x1="-2761.7583" y1="4158.2783" x2="-2760.7583" y2="4158.2783" gradientTransform="matrix(49.0236 0 0 -49.0236 136608.6563 203980.7813)">
		<stop  offset="0" style="stop-color:#1C1E1D"/>
		<stop  offset="0.4" style="stop-color:#5D5D60"/>
		<stop  offset="1" style="stop-color:#1C1E1D"/>
	</linearGradient>
	<rect x="1217.268" y="11.442" clip-path="url(#SVGID_2_)" fill="url(#SVGID_3_)" width="49.021" height="230.927"/>
</g>
<path fill="#353535" d="M875.734,73.17c0-13.671,11.104-24.753,24.803-24.753S925.34,59.5,925.34,73.17
	c0,13.672-11.104,24.754-24.803,24.754S875.734,86.843,875.734,73.17"/>
<ellipse fill="none" stroke="#212222" stroke-width="1.417" stroke-miterlimit="10" cx="900.537" cy="73.17" rx="24.803" ry="24.753"/>
<path fill="#353535" d="M884.176,73.17c0-9.019,7.324-16.329,16.361-16.329c9.035,0,16.361,7.31,16.361,16.329
	c0,9.019-7.326,16.33-16.361,16.33C891.5,89.5,884.176,82.189,884.176,73.17"/>
<ellipse fill="none" stroke="#212222" stroke-width="1.417" stroke-miterlimit="10" cx="900.537" cy="73.17" rx="16.361" ry="16.329"/>
<path fill="#494746" d="M891.555,73.171c0-4.952,4.021-8.965,8.982-8.965s8.982,4.013,8.982,8.965c0,4.951-4.021,8.965-8.982,8.965
	S891.555,78.122,891.555,73.171"/>
<ellipse fill="none" stroke="#494746" stroke-width="1.417" stroke-miterlimit="10" cx="900.537" cy="73.171" rx="8.982" ry="8.965"/>
<rect x="898.326" y="64.205" fill="#222220" width="4.42" height="17.93"/>
<path fill="#0D0B0B" d="M841.764,187.185h-10.34c-3.117,0-5.668-2.551-5.668-5.669V67.875c0-3.118,2.551-5.669,5.668-5.669h10.34
	c3.117,0,5.668,2.551,5.668,5.669v113.641C847.432,184.634,844.881,187.185,841.764,187.185"/>
<g>
	<defs>
		<path id="SVGID_4_" d="M22.338,11.442c-6.261,0-11.337,5.077-11.337,11.338v208.251c0,6.263,5.076,11.339,11.337,11.339h26.348
			c6.261,0,11.337-5.076,11.337-11.339V22.78c0-6.261-5.076-11.338-11.337-11.338H22.338z"/>
	</defs>
	<clipPath id="SVGID_5_">
		<use xlink:href="#SVGID_4_"  overflow="visible"/>
	</clipPath>
	
		<linearGradient id="SVGID_6_" gradientUnits="userSpaceOnUse" x1="-2761.7588" y1="4158.2783" x2="-2760.7588" y2="4158.2783" gradientTransform="matrix(49.0236 0 0 -49.0236 135402.3906 203980.7813)">
		<stop  offset="0" style="stop-color:#1C1E1D"/>
		<stop  offset="0.6" style="stop-color:#5D5D60"/>
		<stop  offset="1" style="stop-color:#1C1E1D"/>
	</linearGradient>
	<rect x="11.001" y="11.442" clip-path="url(#SVGID_5_)" fill="url(#SVGID_6_)" width="49.022" height="230.927"/>
</g>
</svg>
