<?xml version="1.0" encoding="utf-8"?>
<!-- Generator: Adobe Illustrator 16.0.0, SVG Export Plug-In . SVG Version: 6.00 Build 0)  -->
<!DOCTYPE svg PUBLIC "-//W3C//DTD SVG 1.1//EN" "http://www.w3.org/Graphics/SVG/1.1/DTD/svg11.dtd">
<svg version="1.1" id="图层_1" xmlns="http://www.w3.org/2000/svg" xmlns:xlink="http://www.w3.org/1999/xlink" x="0px" y="0px"
	 width="1277.29px" height="127.84px" viewBox="0 0 1277.29 127.84" enable-background="new 0 0 1277.29 127.84"
	 xml:space="preserve">
<g>
	<rect x="0.833" y="0.867" fill="#CECECE" width="1275.589" height="126.141"/>
	<path fill="#1F2020" d="M1277.271,127.858H-0.018V0.017h1277.289V127.858z M1.683,126.158h1273.89V1.717H1.683V126.158z"/>
</g>
<g>
	<circle cx="26.482" cy="24.113" r="15.37"/>
	<path fill="#2A2C2D" stroke="#000000" stroke-width="0.5" stroke-miterlimit="10" d="M39.885,23.879
		c0.13,7.404-5.766,13.508-13.169,13.638c-7.403,0.129-13.507-5.767-13.636-13.169c-0.129-7.402,5.767-13.508,13.169-13.638
		C33.651,10.581,39.757,16.476,39.885,23.879"/>
	<rect x="18.752" y="22.188" transform="matrix(0.9998 -0.0174 0.0174 0.9998 -0.4163 0.4653)" width="15.461" height="3.851"/>
	<rect x="18.752" y="22.188" transform="matrix(0.0174 0.9998 -0.9998 0.0174 50.1309 -2.7859)" width="15.462" height="3.851"/>
</g>
<g>
	
		<image overflow="visible" opacity="0.5" width="49" height="50" xlink:href="FB02F3E7.png"  transform="matrix(1 0 0 1 1.9824 73.9824)">
	</image>
	<g>
		<g>
			<circle cx="26.482" cy="99.133" r="15.37"/>
			<path fill="#2A2C2D" stroke="#000000" stroke-width="0.5" stroke-miterlimit="10" d="M39.885,98.898
				c0.13,7.404-5.766,13.508-13.169,13.639c-7.403,0.129-13.507-5.768-13.636-13.17s5.767-13.508,13.169-13.638
				C33.651,85.602,39.757,91.496,39.885,98.898"/>
			<rect x="18.752" y="97.207" transform="matrix(0.9998 -0.0174 0.0174 0.9998 -1.7241 0.4767)" width="15.461" height="3.852"/>
			<rect x="18.752" y="97.207" transform="matrix(0.0174 0.9998 -0.9998 0.0174 125.139 70.9259)" width="15.462" height="3.851"/>
		</g>
	</g>
</g>
<g>
	<circle cx="1251.815" cy="24.113" r="15.371"/>
	<path fill="#2A2C2D" stroke="#000000" stroke-width="0.5" stroke-miterlimit="10" d="M1265.218,23.879
		c0.13,7.404-5.766,13.508-13.169,13.638s-13.507-5.767-13.636-13.169c-0.13-7.402,5.766-13.508,13.169-13.638
		C1258.984,10.581,1265.09,16.476,1265.218,23.879"/>
	<rect x="1244.085" y="22.188" transform="matrix(0.9998 -0.0174 0.0174 0.9998 -0.2302 21.8261)" width="15.461" height="3.851"/>
	
		<rect x="1244.085" y="22.188" transform="matrix(0.0174 0.9998 -0.9998 0.0174 1254.1045 -1227.9327)" width="15.462" height="3.851"/>
</g>
<g>
	<circle cx="1251.815" cy="99.133" r="15.371"/>
	<path fill="#2A2C2D" stroke="#000000" stroke-width="0.5" stroke-miterlimit="10" d="M1265.218,98.898
		c0.13,7.404-5.766,13.508-13.169,13.639c-7.403,0.129-13.507-5.768-13.636-13.17c-0.13-7.402,5.766-13.508,13.169-13.638
		C1258.984,85.602,1265.09,91.496,1265.218,98.898"/>
	<rect x="1244.085" y="97.207" transform="matrix(0.9998 -0.0174 0.0174 0.9998 -1.538 21.8375)" width="15.461" height="3.852"/>
	
		<rect x="1244.085" y="97.207" transform="matrix(0.0174 0.9998 -0.9998 0.0174 1329.1125 -1154.2209)" width="15.462" height="3.851"/>
</g>
<g>
	<rect x="179.473" y="60.896" fill="#C6C5C6" stroke="#000000" stroke-miterlimit="10" width="194.066" height="40.333"/>
</g>
<g>
	<rect x="433.251" y="60.896" fill="#C6C5C6" stroke="#000000" stroke-miterlimit="10" width="194.066" height="40.333"/>
</g>
<g>
	<rect x="687.029" y="60.896" fill="#C6C5C6" stroke="#000000" stroke-miterlimit="10" width="194.066" height="40.333"/>
</g>
<g>
	<rect x="940.808" y="60.896" fill="#C6C5C6" stroke="#000000" stroke-miterlimit="10" width="194.067" height="40.333"/>
</g>
<g>
	<path fill="#C6C5C6" stroke="#000000" stroke-miterlimit="10" d="M142.476,78.34c0,1.842-1.493,3.336-3.335,3.336H69.857
		c-1.842,0-3.335-1.494-3.335-3.336V49.536c0-1.842,1.493-3.336,3.335-3.336h69.283c1.842,0,3.335,1.494,3.335,3.336V78.34z"/>
	<g>
		<circle fill="#1B277A" cx="85.27" cy="63.938" r="12.819"/>
		<path fill="#FCF00B" d="M86.541,58.469l-0.337-1.519l9.108,1.519l-7.768,6.204l-0.553-2.212c0,0-11.301,6.016-0.506,6.803
			c0,0-7.759,4.217-10.795-0.787C72.654,63.473,85.529,58.75,86.541,58.469z"/>
		
			<text transform="matrix(1 0 0 1 104.499 63.938)" fill="#1B277A" stroke="#1B277A" stroke-width="0.5" stroke-miterlimit="10" font-family="'MicrosoftYaHeiLight'" font-size="8.1594">中威冠华</text>
		
			<text transform="matrix(1 0 0 1 107.8247 70.8008)" fill="#1B277A" stroke="#1B277A" stroke-width="0.5" stroke-miterlimit="10" font-family="'MicrosoftYaHeiLight'" font-size="4.766">cnvom com</text>
	</g>
</g>
<text transform="matrix(1 0 0 1 90.9824 39.4844)" font-family="'MicrosoftYaHeiLight'" font-size="8">75-120</text>
<text transform="matrix(1 0 0 1 202.4824 54.7441)" font-family="'MicrosoftYaHeiLight'" font-size="8">1</text>
<text transform="matrix(1 0 0 1 250.1494 54.7441)" font-family="'MicrosoftYaHeiLight'" font-size="8">2</text>
<text transform="matrix(1 0 0 1 297.8164 54.7441)" font-family="'MicrosoftYaHeiLight'" font-size="8">3</text>
<text transform="matrix(1 0 0 1 344.5664 54.7441)" font-family="'MicrosoftYaHeiLight'" font-size="8">4</text>
<text transform="matrix(1 0 0 1 456.1494 54.7441)" font-family="'MicrosoftYaHeiLight'" font-size="8">5</text>
<text transform="matrix(1 0 0 1 503.8164 54.7441)" font-family="'MicrosoftYaHeiLight'" font-size="8">6</text>
<text transform="matrix(1 0 0 1 551.4834 54.7441)" font-family="'MicrosoftYaHeiLight'" font-size="8">7</text>
<text transform="matrix(1 0 0 1 598.2334 54.7441)" font-family="'MicrosoftYaHeiLight'" font-size="8">8</text>
<text transform="matrix(1 0 0 1 708.7178 54.7441)" font-family="'MicrosoftYaHeiLight'" font-size="8">9</text>
<text transform="matrix(1 0 0 1 756.3848 54.7441)" font-family="'MicrosoftYaHeiLight'" font-size="8">10</text>
<text transform="matrix(1 0 0 1 804.0518 54.7441)" font-family="'MicrosoftYaHeiLight'" font-size="8">11</text>
<text transform="matrix(1 0 0 1 850.8018 54.7441)" font-family="'MicrosoftYaHeiLight'" font-size="8">12</text>
<text transform="matrix(1 0 0 1 962.3848 54.7441)" font-family="'MicrosoftYaHeiLight'" font-size="8">13</text>
<text transform="matrix(1 0 0 1 1010.0518 54.7441)" font-family="'MicrosoftYaHeiLight'" font-size="8">14</text>
<text transform="matrix(1 0 0 1 1057.7188 54.7441)" font-family="'MicrosoftYaHeiLight'" font-size="8">15</text>
<text transform="matrix(1 0 0 1 1104.4688 54.7441)" font-family="'MicrosoftYaHeiLight'" font-size="8">16</text>
</svg>
